<svg width="11" height="14" viewBox="0 0 11 14" fill="none" xmlns="http://www.w3.org/2000/svg">
<path d="M5.5 0C6.95869 1.57852e-08 8.35722 0.579878 9.38867 1.61133C10.4201 2.64278 11 4.04131 11 5.5C11 9.77032 5.51911 13.4316 5.5 13.4443C5.48091 13.4316 5.1002e-08 9.77033 0 5.5C2.17362e-08 4.04131 0.579878 2.64278 1.61133 1.61133C2.64278 0.579878 4.04131 0 5.5 0ZM5.49707 3.66797C4.48484 3.66821 3.6642 4.48872 3.66406 5.50098C3.66406 6.51335 4.48475 7.33472 5.49707 7.33496C6.50959 7.33496 7.33105 6.5135 7.33105 5.50098C7.33092 4.48857 6.50951 3.66797 5.49707 3.66797Z" fill="#52230C"/>
</svg>
