<svg width="420" height="287" viewBox="0 0 420 287" fill="none" xmlns="http://www.w3.org/2000/svg">
<rect y="34.3633" width="420" height="240" rx="30" fill="#D5FDFF"/>
<rect x="120.169" y="60.2188" width="145.535" height="230.273" rx="7.87526" transform="rotate(-9.48347 120.169 60.2188)" fill="url(#paint0_linear_3564_2743)"/>
<g clip-path="url(#clip0_3564_2743)">
<rect x="135.59" y="73.2109" width="119.389" height="199.48" rx="3.93763" transform="rotate(-9.48347 135.59 73.2109)" fill="#123041"/>
<g clip-path="url(#clip1_3564_2743)">
<path d="M242.588 258.116C243.434 247.328 230.618 234.629 224.104 229.629C223.177 229.572 220.932 229.792 219.362 231.128C217.399 232.797 223.53 257.971 225.982 263.49C228.435 269.009 241.529 271.6 242.588 258.116Z" fill="#E7EAEE"/>
<path d="M221.195 292.986C224.267 291.944 228.186 275.794 228.092 267.628L199.021 270.459C198.026 277.021 197.162 290.473 198.518 291.597C200.214 293.001 217.354 294.288 221.195 292.986Z" fill="#E7EAEE"/>
<path d="M173.186 271.889C164.591 265.381 178.98 228.955 188.018 224.809C197.057 220.664 211.248 222.245 217.256 226.6C223.264 230.955 236.4 269.638 227.067 275.189C217.733 280.74 181.781 278.396 173.186 271.889Z" fill="white"/>
<path d="M170.767 289.684C167.674 288.017 165.775 268.22 167.001 258.497L197.243 265.888C197.386 273.848 196.438 290.006 194.854 291.159C192.873 292.6 174.634 291.766 170.767 289.684Z" fill="white"/>
<path d="M156.512 252.846C156.988 242.036 171.259 230.997 178.334 226.828C179.261 226.885 181.463 227.378 182.858 228.895C184.602 230.791 175.444 255.028 172.337 260.207C169.23 265.385 155.917 266.359 156.512 252.846Z" fill="white"/>
<path d="M178.333 259.507C177.65 270.655 187.029 273.917 198.799 274.638C210.57 275.359 220.276 273.266 220.959 262.118C221.857 247.463 212.823 238.583 201.052 237.863C189.281 237.142 179.231 244.852 178.333 259.507Z" fill="#E7EAEE"/>
<path d="M200.64 268.043C200.554 268.038 200.47 268.017 200.393 267.98C200.315 267.943 200.246 267.891 200.189 267.827L197.465 264.729C197.365 264.598 197.319 264.435 197.336 264.272C197.352 264.109 197.429 263.959 197.553 263.85C197.676 263.742 197.836 263.684 198 263.687C198.165 263.691 198.322 263.756 198.44 263.87L201.173 266.936C201.23 267 201.275 267.075 201.303 267.156C201.331 267.237 201.343 267.323 201.338 267.409C201.332 267.494 201.31 267.578 201.272 267.655C201.234 267.732 201.181 267.801 201.117 267.857C201.054 267.919 200.979 267.967 200.897 267.999C200.816 268.031 200.728 268.046 200.64 268.043Z" fill="#FFC0C1"/>
<path d="M197.768 267.867C197.683 267.863 197.6 267.841 197.523 267.804C197.446 267.767 197.377 267.715 197.32 267.651C197.263 267.588 197.22 267.513 197.192 267.432C197.163 267.351 197.152 267.266 197.157 267.18C197.162 267.095 197.184 267.011 197.222 266.934C197.26 266.857 197.312 266.789 197.377 266.732L200.433 264.028C200.497 263.971 200.572 263.927 200.653 263.899C200.733 263.871 200.819 263.86 200.905 263.865C200.99 263.87 201.074 263.892 201.15 263.93C201.227 263.967 201.296 264.02 201.352 264.084C201.466 264.213 201.523 264.381 201.513 264.552C201.502 264.723 201.424 264.883 201.296 264.997L198.233 267.707C198.105 267.82 197.938 267.877 197.768 267.867Z" fill="#FFC0C1"/>
<path d="M171.138 139.961C173.817 151.002 186.833 173.096 189.317 182.154L217.943 183.907C221.515 175.221 236.026 154.813 240.927 144.236C247.006 131.117 242.61 113.314 227.846 112.409C215.657 111.663 208.714 131.442 206.45 142.124C205.508 131.246 200.612 110.741 188.841 110.02C174.077 109.116 167.728 125.91 171.138 139.961Z" fill="white"/>
<path d="M256.211 207.059C254.875 228.87 230.515 234.637 201.447 232.857C172.378 231.076 148.728 222.368 150.064 200.557C152.342 163.368 177.216 152.093 206.285 153.873C235.353 155.654 258.597 168.099 256.211 207.059Z" fill="white"/>
<path d="M228.605 198.867L228.196 205.554" stroke="#123041" stroke-width="6.28027" stroke-linecap="round"/>
<path d="M178.037 195.773L177.628 202.46" stroke="#123041" stroke-width="6.28027" stroke-linecap="round"/>
<path d="M240.14 215.934L233.872 215.55" stroke="#FFC0C1" stroke-width="8.3737" stroke-linecap="round"/>
<path d="M170.775 211.688L164.506 211.304" stroke="#FFC0C1" stroke-width="8.3737" stroke-linecap="round"/>
<path d="M195.368 214.22C195.138 217.986 195.022 219.879 201.917 220.302C208.812 220.724 208.908 219.167 209.159 215.065C209.41 210.963 206.723 204.237 202.915 204.003C199.107 203.77 195.599 210.454 195.368 214.22Z" fill="#FFC0C1"/>
<path d="M202.913 203.999C200.461 203.849 198.136 206.566 196.727 209.525C198.334 210.399 200.314 210.978 202.479 211.11C204.665 211.244 206.719 210.904 208.43 210.219C207.405 207.07 205.398 204.152 202.913 203.999Z" fill="#E7EAEE"/>
<path d="M204.979 198.264C204.159 198.214 203.762 198.533 203.228 198.843C202.736 198.47 202.381 198.105 201.561 198.055C200.536 197.992 199.874 199.03 200.089 199.681C200.379 200.557 201.58 201.488 203.04 201.921C204.542 201.669 205.847 200.891 206.241 200.058C206.534 199.438 206.004 198.327 204.979 198.264Z" fill="#FFC0C1"/>
</g>
</g>
<line x1="288.431" y1="56.9322" x2="304.411" y2="54.9855" stroke="#FFC53D" stroke-width="4.95552" stroke-linecap="round"/>
<line x1="299.949" y1="27.8386" x2="310.918" y2="17.7228" stroke="#AFD157" stroke-width="4.95552" stroke-linecap="round"/>
<line x1="283.112" y1="43.116" x2="294.082" y2="33.0001" stroke="#AFD157" stroke-width="4.95552" stroke-linecap="round"/>
<line x1="255.739" y1="3.76723" x2="256.224" y2="20.2638" stroke="url(#paint1_linear_3564_2743)" stroke-width="4.95552" stroke-linecap="round"/>
<line x1="2.47776" y1="-2.47776" x2="29.0668" y2="-2.47776" transform="matrix(-0.456931 -0.889502 -0.889502 0.456931 241.284 29.4648)" stroke="#FFC5AB" stroke-width="4.95552" stroke-linecap="round"/>
<line x1="271.72" y1="26.8637" x2="280.228" y2="8.6098" stroke="#FFC5AB" stroke-width="4.95552" stroke-linecap="round"/>
<defs>
<linearGradient id="paint0_linear_3564_2743" x1="192.936" y1="60.2187" x2="192.936" y2="290.491" gradientUnits="userSpaceOnUse">
<stop stop-color="#9EE7E5"/>
<stop offset="1" stop-color="#9EE7E5"/>
</linearGradient>
<linearGradient id="paint1_linear_3564_2743" x1="253.505" y1="12.0883" x2="252.505" y2="12.1176" gradientUnits="userSpaceOnUse">
<stop stop-color="#9EE7E5"/>
<stop offset="1" stop-color="#9EE7E5"/>
</linearGradient>
<clipPath id="clip0_3564_2743">
<rect width="119.389" height="199.48" fill="white" transform="translate(135.589 73.2109) rotate(-9.48347)"/>
</clipPath>
<clipPath id="clip1_3564_2743">
<rect width="136.491" height="173.248" fill="white" transform="translate(140.864 104.148) rotate(3.50511)"/>
</clipPath>
</defs>
</svg>
