<svg width="611" height="521" viewBox="0 0 611 521" fill="none" xmlns="http://www.w3.org/2000/svg">
<rect y="48.4756" width="611" height="427" rx="30" fill="#005271"/>
<rect x="129" y="109.482" width="264.609" height="418.677" rx="14.3187" transform="rotate(-9.48347 129 109.482)" fill="url(#paint0_linear_2006_3614)"/>
<g clip-path="url(#clip0_2006_3614)">
<rect x="157.037" y="133.105" width="217.071" height="362.691" rx="7.15933" transform="rotate(-9.48347 157.037 133.105)" fill="#123041"/>
<g clip-path="url(#clip1_2006_3614)">
<path d="M351.579 469.301C353.119 449.687 329.816 426.6 317.973 417.507C316.288 417.404 312.205 417.805 309.35 420.233C305.783 423.268 316.93 469.038 321.388 479.073C325.847 489.107 349.655 493.819 351.579 469.301Z" fill="#E7EAEE"/>
<path d="M312.684 532.699C318.27 530.805 325.394 501.441 325.224 486.595L272.368 491.743C270.558 503.673 268.988 528.131 271.454 530.174C274.536 532.728 305.701 535.067 312.684 532.699Z" fill="#E7EAEE"/>
<path d="M225.395 494.343C209.767 482.512 235.929 416.282 252.363 408.745C268.796 401.208 294.598 404.083 305.522 412.001C316.445 419.92 340.33 490.251 323.359 500.344C306.389 510.437 241.022 506.174 225.395 494.343Z" fill="white"/>
<path d="M223.669 527.246C218.356 524.685 214.869 494.67 216.85 479.956L268.682 491.516C269.023 503.578 267.596 528.045 264.899 529.772C261.528 531.93 230.311 530.448 223.669 527.246Z" fill="white"/>
<path d="M195.078 459.708C195.944 440.053 221.89 419.982 234.755 412.403C236.44 412.506 240.444 413.402 242.98 416.16C246.151 419.608 229.501 463.676 223.851 473.091C218.202 482.506 193.996 484.277 195.078 459.708Z" fill="white"/>
<path d="M234.754 471.826C233.512 492.095 250.563 498.025 271.965 499.336C293.366 500.647 311.014 496.842 312.255 476.573C313.887 449.928 297.462 433.783 276.06 432.472C254.659 431.161 236.386 445.181 234.754 471.826Z" fill="#E7EAEE"/>
<path d="M275.312 487.344C275.155 487.335 275.003 487.296 274.862 487.229C274.721 487.161 274.595 487.066 274.49 486.95L269.538 481.318C269.357 481.081 269.273 480.784 269.303 480.488C269.333 480.192 269.474 479.918 269.698 479.72C269.922 479.523 270.213 479.417 270.512 479.424C270.811 479.431 271.097 479.55 271.312 479.757L276.28 485.331C276.385 485.448 276.465 485.583 276.516 485.731C276.568 485.878 276.589 486.034 276.58 486.19C276.57 486.346 276.53 486.498 276.461 486.638C276.392 486.778 276.295 486.903 276.178 487.006C276.064 487.118 275.928 487.205 275.779 487.263C275.63 487.321 275.471 487.349 275.312 487.344Z" fill="#FFC0C1"/>
<path d="M270.09 487.024C269.935 487.016 269.783 486.976 269.644 486.909C269.504 486.842 269.379 486.748 269.275 486.632C269.172 486.516 269.092 486.38 269.041 486.233C268.99 486.086 268.969 485.93 268.978 485.775C268.988 485.619 269.028 485.467 269.097 485.328C269.165 485.188 269.261 485.063 269.378 484.96L274.935 480.044C275.051 479.94 275.187 479.861 275.334 479.81C275.481 479.759 275.637 479.737 275.792 479.747C275.948 479.756 276.099 479.796 276.239 479.865C276.379 479.934 276.504 480.029 276.606 480.146C276.812 480.38 276.917 480.686 276.898 480.997C276.879 481.308 276.737 481.599 276.505 481.806L270.935 486.733C270.702 486.937 270.399 487.042 270.09 487.024Z" fill="#FFC0C1"/>
<path d="M221.671 254.476C226.542 274.551 250.207 314.722 254.724 331.19L306.772 334.378C313.265 318.584 339.649 281.479 348.561 262.248C359.614 238.396 351.62 206.026 324.778 204.382C302.615 203.025 289.991 238.987 285.875 258.408C284.161 238.63 275.261 201.349 253.858 200.038C227.015 198.394 215.471 228.929 221.671 254.476Z" fill="white"/>
<path d="M376.35 376.467C373.921 416.123 329.63 426.61 276.778 423.372C223.926 420.135 180.926 404.302 183.355 364.646C187.497 297.029 232.722 276.529 285.574 279.766C338.426 283.003 380.688 305.63 376.35 376.467Z" fill="white"/>
<path d="M326.157 361.572L325.412 373.729" stroke="#123041" stroke-width="11.4187" stroke-linecap="round"/>
<path d="M234.216 355.939L233.471 368.097" stroke="#123041" stroke-width="11.4187" stroke-linecap="round"/>
<path d="M347.13 392.596L335.732 391.898" stroke="#FFC0C1" stroke-width="15.2249" stroke-linecap="round"/>
<path d="M221.01 384.877L209.613 384.179" stroke="#FFC0C1" stroke-width="15.2249" stroke-linecap="round"/>
<path d="M265.726 389.482C265.307 396.329 265.096 399.771 277.633 400.539C290.17 401.307 290.343 398.476 290.8 391.018C291.257 383.559 286.372 371.33 279.448 370.906C272.524 370.482 266.145 382.635 265.726 389.482Z" fill="#FFC0C1"/>
<path d="M279.44 370.913C274.983 370.64 270.754 375.582 268.193 380.963C271.114 382.552 274.715 383.6 278.652 383.841C282.628 384.084 286.362 383.469 289.474 382.225C287.61 376.498 283.961 371.19 279.44 370.913Z" fill="#E7EAEE"/>
<path d="M283.2 360.468C281.709 360.377 280.987 360.957 280.017 361.521C279.123 360.842 278.477 360.179 276.986 360.088C275.122 359.973 273.919 361.861 274.31 363.044C274.836 364.636 277.02 366.33 279.674 367.116C282.405 366.66 284.778 365.245 285.495 363.729C286.027 362.603 285.064 360.582 283.2 360.468Z" fill="#FFC0C1"/>
</g>
<path d="M167.069 140.145L259.715 124.668" stroke="white" stroke-opacity="0.8" stroke-width="1.43187" stroke-linecap="round"/>
<path d="M271.289 122.738L363.936 107.262" stroke="white" stroke-opacity="0.5" stroke-width="1.43187" stroke-linecap="round"/>
<circle cx="179.441" cy="156.092" r="10.4632" transform="rotate(-9.48347 179.441 156.092)" fill="#FFC5AB"/>
</g>
<path d="M372.339 104.41L429.738 448.021C430.389 451.921 427.756 455.612 423.856 456.263L223.874 489.669C219.974 490.321 216.284 487.686 215.633 483.787L211.185 457.157C211.601 458.993 213.384 460.206 215.264 459.892L422.307 425.306C424.256 424.98 425.573 423.136 425.247 421.186L372.283 104.121C372.303 104.216 372.323 104.313 372.339 104.41Z" fill="black"/>
<rect x="222.231" y="467.843" width="142.949" height="12.6497" rx="6.32483" transform="rotate(-9.48347 222.231 467.843)" stroke="#505050" stroke-width="3.38723"/>
<rect x="239.874" y="174.655" width="134.158" height="38.533" rx="19.2665" transform="rotate(-9.48347 239.874 174.655)" fill="white" fill-opacity="0.5"/>
<rect x="193.632" y="147.788" width="88.2016" height="13.2568" rx="6.62838" transform="rotate(-9.48347 193.632 147.788)" fill="white" fill-opacity="0.5"/>
<line x1="434.927" y1="103.506" x2="463.983" y2="99.9663" stroke="#FFC53D" stroke-width="9.01003" stroke-linecap="round"/>
<line x1="455.869" y1="50.6097" x2="475.814" y2="32.2173" stroke="#AFD157" stroke-width="9.01003" stroke-linecap="round"/>
<line x1="425.258" y1="78.3949" x2="445.202" y2="60.0025" stroke="#AFD157" stroke-width="9.01003" stroke-linecap="round"/>
<line x1="375.49" y1="6.8464" x2="376.371" y2="36.8402" stroke="url(#paint1_linear_2006_3614)" stroke-width="9.01003" stroke-linecap="round"/>
<line x1="4.50502" y1="-4.50502" x2="52.8486" y2="-4.50502" transform="matrix(-0.456931 -0.889502 -0.889502 0.456931 349.207 53.5732)" stroke="#FFC5AB" stroke-width="9.01003" stroke-linecap="round"/>
<line x1="404.544" y1="48.8446" x2="420.013" y2="15.6557" stroke="#FFC5AB" stroke-width="9.01003" stroke-linecap="round"/>
<defs>
<linearGradient id="paint0_linear_2006_3614" x1="261.304" y1="109.482" x2="261.304" y2="528.16" gradientUnits="userSpaceOnUse">
<stop stop-color="#9EE7E5"/>
<stop offset="1" stop-color="#9EE7E5"/>
</linearGradient>
<linearGradient id="paint1_linear_2006_3614" x1="371.427" y1="21.9756" x2="370.428" y2="22.0049" gradientUnits="userSpaceOnUse">
<stop stop-color="#9EE7E5"/>
<stop offset="1" stop-color="#9EE7E5"/>
</linearGradient>
<clipPath id="clip0_2006_3614">
<rect width="217.071" height="362.691" fill="white" transform="translate(157.037 133.107) rotate(-9.48347)"/>
</clipPath>
<clipPath id="clip1_2006_3614">
<rect width="248.166" height="284.359" fill="white" transform="translate(166.627 189.355) rotate(3.50511)"/>
</clipPath>
</defs>
</svg>
