<svg width="48" height="48" viewBox="0 0 48 48" fill="none" xmlns="http://www.w3.org/2000/svg">
<rect width="48" height="48" rx="24" fill="#2B2A2A"/>
<path d="M16.6653 16.9948C16.6653 18.9335 15.9891 18.945 15.1549 18.945C14.3208 18.945 13.6445 18.9335 13.6445 16.9948C13.6445 15.056 14.5703 13.4844 15.1549 13.4844C15.7396 13.4844 16.6653 15.056 16.6653 16.9948Z" fill="white"/>
<path d="M34.9065 16.9948C34.9065 18.9335 34.2303 18.945 33.3961 18.945C32.562 18.945 31.8857 18.9335 31.8857 16.9948C31.8857 15.056 32.8115 13.4844 33.3961 13.4844C33.9808 13.4844 34.9065 15.056 34.9065 16.9948Z" fill="white"/>
<mask id="path-4-inside-1_3996_1911" fill="white">
<path fill-rule="evenodd" clip-rule="evenodd" d="M24.2419 14.7617C32.3235 14.7617 38.9724 17.8148 38.9724 28.6465C38.9722 34.71 32.3234 36.7207 24.2419 36.7207C16.1605 36.7207 9.46279 34.71 9.46262 28.6465C9.46262 26.5304 9.74294 24.6988 10.2585 23.124C9.72367 22.9888 9.06081 22.6975 8.22043 22.2002C6.47131 21.1651 5.78962 19.0814 6.69797 17.5459C7.60671 16.0103 9.76215 15.6044 11.5114 16.6396C12.4682 17.2059 13.0832 17.6959 13.4548 18.1387C16.1645 15.7327 20.0138 14.7617 24.2419 14.7617Z"/>
</mask>
<path d="M24.2419 14.7617V14.0951H24.2419L24.2419 14.7617ZM38.9724 28.6465L39.639 28.6465V28.6465H38.9724ZM24.2419 36.7207V37.3874V37.3874V36.7207ZM9.46262 28.6465H8.79595V28.6465L9.46262 28.6465ZM10.2585 23.124L10.8921 23.3315L11.1143 22.6528L10.422 22.4777L10.2585 23.124ZM8.22043 22.2002L7.8809 22.7739L7.8809 22.7739L8.22043 22.2002ZM6.69797 17.5459L6.12424 17.2064L6.12418 17.2065L6.69797 17.5459ZM11.5114 16.6396L11.851 16.0659L11.851 16.0659L11.5114 16.6396ZM13.4548 18.1387L12.9442 18.5673L13.3848 19.0923L13.8974 18.6372L13.4548 18.1387ZM24.2419 14.7617V15.4284C28.2183 15.4284 31.7223 16.183 34.2237 18.1648C36.6946 20.1223 38.3057 23.374 38.3057 28.6465H38.9724H39.639C39.639 23.0873 37.9257 19.3966 35.0517 17.1197C32.2083 14.867 28.3471 14.0951 24.2419 14.0951V14.7617ZM38.9724 28.6465L38.3057 28.6465C38.3057 30.0325 37.9284 31.1567 37.2661 32.0766C36.5988 33.0035 35.6156 33.759 34.3532 34.3545C31.813 35.5527 28.2472 36.054 24.2419 36.054V36.7207V37.3874C28.3181 37.3874 32.1174 36.8834 34.9221 35.5604C36.332 34.8953 37.5162 34.0112 38.3482 32.8557C39.1851 31.6932 39.639 30.2923 39.639 28.6465L38.9724 28.6465ZM24.2419 36.7207L24.2419 36.054C20.2368 36.054 16.6581 35.5528 14.1052 34.354C12.8362 33.7581 11.847 33.0022 11.1754 32.075C10.509 31.155 10.1293 30.0314 10.1293 28.6465L9.46262 28.6465L8.79595 28.6465C8.796 30.2934 9.25361 31.6948 10.0956 32.8572C10.9324 34.0124 12.1228 34.8961 13.5384 35.5609C16.3547 36.8833 20.1656 37.3874 24.2419 37.3874V36.7207ZM9.46262 28.6465H10.1293C10.1293 26.5888 10.4019 24.8287 10.8921 23.3315L10.2585 23.124L9.62494 22.9166C9.08398 24.5689 8.79595 26.472 8.79595 28.6465H9.46262ZM10.2585 23.124L10.422 22.4777C9.97356 22.3643 9.37261 22.1074 8.55996 21.6265L8.22043 22.2002L7.8809 22.7739C8.749 23.2877 9.47378 23.6132 10.0951 23.7703L10.2585 23.124ZM8.22043 22.2002L8.55996 21.6265C7.05507 20.7359 6.59109 19.036 7.27176 17.8853L6.69797 17.5459L6.12418 17.2065C4.98816 19.1269 5.88754 21.5942 7.8809 22.7739L8.22043 22.2002ZM6.69797 17.5459L7.27169 17.8854C7.95273 16.7346 9.66702 16.3228 11.1719 17.2134L11.5114 16.6396L11.851 16.0659C9.85728 14.886 7.26069 15.2861 6.12424 17.2064L6.69797 17.5459ZM11.5114 16.6396L11.1719 17.2134C12.101 17.7633 12.6426 18.2079 12.9442 18.5673L13.4548 18.1387L13.9655 17.7101C13.5238 17.1838 12.8354 16.6485 11.851 16.0659L11.5114 16.6396ZM13.4548 18.1387L13.8974 18.6372C16.4375 16.3818 20.0994 15.4284 24.2419 15.4284L24.2419 14.7617L24.2419 14.0951C19.9281 14.0951 15.8915 15.0835 13.0122 17.6402L13.4548 18.1387Z" fill="white" mask="url(#path-4-inside-1_3996_1911)"/>
<path d="M37.373 16.6419C33.8557 18.7234 34.9423 19.7611 35.8511 21.2967C36.7598 22.8322 37.218 24.2419 40.6638 22.2026C42.4131 21.1673 43.0945 19.0833 42.1858 17.5478C41.2771 16.0122 39.1223 15.6066 37.373 16.6419Z" fill="white"/>
<path d="M8.04725 18.3655C8.29388 17.9488 8.74978 17.7555 9.22013 17.7297C9.69293 17.7039 10.2219 17.8404 10.7064 18.127C11.1544 18.3921 11.4792 18.6253 11.7041 18.84C11.9284 19.0541 12.0762 19.2719 12.1268 19.51C12.179 19.7557 12.1164 19.967 12.0352 20.1366C11.964 20.2851 11.8443 20.461 11.7779 20.5733C11.707 20.693 11.6124 20.8742 11.5095 21.0114C11.3953 21.1637 11.2361 21.3149 10.9963 21.384C10.7637 21.4508 10.5028 21.4268 10.2086 21.3343C9.91388 21.2415 9.55786 21.0706 9.11835 20.8105C8.63381 20.5236 8.25973 20.1257 8.05481 19.6988C7.85108 19.2742 7.80074 18.7822 8.04725 18.3655Z" stroke="white" stroke-width="0.666667"/>
<path d="M25.2672 14.7812C32.2712 15.0185 37.9902 17.7798 38.857 26.3018C34.9557 26.62 34.2682 23.6552 33.0103 22.4941C31.7303 21.3127 29.0721 21.9521 27.0045 20.2783C25.7372 19.2522 25.3352 16.7157 25.2672 14.7812Z" fill="white"/>
<path d="M16.9916 27.543V29.4019" stroke="white" stroke-width="1.74275" stroke-linecap="round"/>
<path d="M32.5588 27.543V29.4019" stroke="white" stroke-width="1.74275" stroke-linecap="round"/>
<path d="M23.314 27.876H25.4751C27.6778 27.8762 29.4634 29.6625 29.4634 31.8652C29.4633 33.2723 28.3226 34.413 26.9155 34.4131H21.8735C20.4664 34.4131 19.3248 33.2724 19.3247 31.8652C19.3247 29.6623 21.1111 27.876 23.314 27.876Z" stroke="white" stroke-width="0.666667"/>
<path d="M22.325 30.7969V32.0749" stroke="white" stroke-width="1.16184" stroke-linecap="round"/>
<path d="M26.9725 30.7969L26.9725 32.0749" stroke="white" stroke-width="1.16184" stroke-linecap="round"/>
<path d="M15.2303 30.6797L15.2305 30.3464H15.2303V30.6797ZM16.3914 31.8418H16.7248V31.8417L16.3914 31.8418ZM15.2303 33.0039V33.3372L15.2305 33.3372L15.2303 33.0039ZM12.325 31.8418L11.9917 31.8417V31.8418H12.325ZM36.0272 30.6797L36.0273 30.3464H36.0272V30.6797ZM37.1883 31.8418H37.5216V31.8417L37.1883 31.8418ZM36.0272 33.0039V33.3372H36.0273L36.0272 33.0039ZM34.284 33.0039L34.284 33.3372H34.284V33.0039ZM33.1219 31.8418L32.7886 31.8417V31.8418H33.1219ZM34.284 30.6797V30.3464H34.284L34.284 30.6797ZM15.2303 30.6797L15.2301 31.013C15.6871 31.0133 16.058 31.3844 16.0581 31.8419L16.3914 31.8418L16.7248 31.8417C16.7245 31.0167 16.0559 30.3469 15.2305 30.3464L15.2303 30.6797ZM16.3914 31.8418H16.0581C16.0581 32.2993 15.6873 32.6703 15.2301 32.6706L15.2303 33.0039L15.2305 33.3372C16.0559 33.3367 16.7248 32.6672 16.7248 31.8418H16.3914ZM15.2303 33.0039V32.6706H13.4871V33.0039V33.3372H15.2303V33.0039ZM13.4871 33.0039V32.6706C13.0296 32.6706 12.6584 32.2994 12.6584 31.8418H12.325H11.9917C11.9917 32.6676 12.6614 33.3372 13.4871 33.3372V33.0039ZM12.325 31.8418L12.6584 31.8419C12.6585 31.3843 13.0298 31.013 13.4871 31.013V30.6797V30.3464C12.6614 30.3464 11.9919 31.0163 11.9917 31.8417L12.325 31.8418ZM13.4871 30.6797V31.013H15.2303V30.6797V30.3464H13.4871V30.6797ZM36.0272 30.6797L36.0271 31.013C36.4841 31.0132 36.8549 31.3842 36.855 31.8419L37.1883 31.8418L37.5216 31.8417C37.5214 31.0166 36.853 30.3466 36.0273 30.3464L36.0272 30.6797ZM37.1883 31.8418H36.855C36.855 32.2995 36.4843 32.6704 36.0271 32.6706L36.0272 33.0039L36.0273 33.3372C36.853 33.337 37.5216 32.6672 37.5216 31.8418H37.1883ZM36.0272 33.0039V32.6706H34.284V33.0039V33.3372H36.0272V33.0039ZM34.284 33.0039L34.284 32.6706C33.8264 32.6706 33.4552 32.2994 33.4552 31.8418H33.1219H32.7886C32.7886 32.6676 33.4583 33.3372 34.284 33.3372L34.284 33.0039ZM33.1219 31.8418L33.4552 31.8419C33.4554 31.3843 33.8266 31.013 34.284 31.013L34.284 30.6797L34.284 30.3464C33.4583 30.3464 32.7888 31.0163 32.7886 31.8417L33.1219 31.8418ZM34.284 30.6797V31.013H36.0272V30.6797V30.3464H34.284V30.6797Z" fill="white"/>
<path d="M10.325 23.644C10.5678 23.5797 10.8045 23.4945 11.0325 23.3892C11.4576 23.1848 11.7297 22.9155 11.9364 22.4876C12.033 22.2879 12.1147 22.0545 12.1917 21.7773C12.2687 22.055 12.3504 22.2883 12.447 22.4871C12.6537 22.9155 12.9258 23.1848 13.3509 23.3892C13.5497 23.4849 13.7826 23.5665 14.0584 23.644C13.8156 23.7085 13.5789 23.7939 13.3509 23.8993C12.9258 24.1037 12.6537 24.3729 12.447 24.8009C12.3408 25.0293 12.2553 25.2669 12.1917 25.5107C12.1147 25.2335 12.033 24.9997 11.9364 24.8009C11.7297 24.3725 11.4576 24.1037 11.0325 23.8993C10.8048 23.7932 10.568 23.7078 10.325 23.644ZM5.65836 26.9107C5.91865 26.8386 6.17585 26.7558 6.4293 26.6624C7.61556 26.2177 8.22736 25.618 8.67676 24.4196C8.77076 24.1648 8.8536 23.906 8.92503 23.644C8.99646 23.906 9.0793 24.1648 9.1733 24.4196C9.6227 25.6175 10.235 26.2177 11.4208 26.6624C11.6541 26.7495 11.9111 26.8323 12.1917 26.9107C11.9314 26.9828 11.6742 27.0656 11.4208 27.1589C10.2345 27.6037 9.62223 28.2033 9.1733 29.4017C9.0793 29.6565 8.99646 29.9153 8.92503 30.1773C8.8536 29.9153 8.77076 29.6565 8.67676 29.4017C8.22736 28.2033 7.6151 27.6037 6.4293 27.1589C6.17585 27.0656 5.91865 26.9828 5.65836 26.9107Z" fill="white" stroke="white" stroke-width="0.466667" stroke-linecap="round" stroke-linejoin="round"/>
</svg>
