<svg width="245" height="271" viewBox="0 0 245 271" fill="none" xmlns="http://www.w3.org/2000/svg">
<g clip-path="url(#clip0_1490_4437)">
<path d="M157.963 178.67C144.221 174.252 136.275 169.155 124.842 171.32C123.907 172.246 122.021 174.828 121.951 177.747C121.863 181.397 147.071 193.938 155.54 195.161C164.87 196.509 171.499 183.021 157.963 178.67Z" fill="#E7EAEE"/>
<path d="M135.899 260.113C140.154 258.374 144.297 235.193 143.457 223.653L102.588 230.176C101.749 239.542 101.693 258.641 103.708 260.113C106.227 261.953 130.581 262.287 135.899 260.113Z" fill="#E7EAEE"/>
<path d="M139.093 234.438C151.813 225.98 134.619 173.216 122.195 166.571C109.771 159.925 89.5642 160.932 80.6899 166.571C71.8157 172.209 49.8859 225.779 62.6056 234.438C75.3252 243.098 126.374 242.897 139.093 234.438Z" fill="white"/>
<path d="M66.3996 260.113C62.1448 258.374 58.0019 235.193 58.8417 223.653L99.7105 230.176C100.55 239.542 100.606 258.641 98.5908 260.113C96.0715 261.953 71.7182 262.287 66.3996 260.113Z" fill="white"/>
<path d="M133.481 216.485C133.481 232.31 119.935 236.111 103.225 236.111C86.5156 236.111 72.9697 232.31 72.9697 216.485C72.9697 195.681 86.5156 183.905 103.225 183.905C119.935 183.905 133.481 195.681 133.481 216.485Z" fill="#E7EAEE"/>
<path d="M53.46 48.0301C58.206 63.4139 78.5274 93.533 82.8257 106.128H123.463C127.761 93.533 146.516 63.4139 152.532 48.0301C159.993 28.9506 152.233 4.1523 131.275 4.15234C113.971 4.15238 105.865 32.7271 103.589 48.0301C101.314 32.7271 92.6142 4.15234 75.9034 4.15234C54.9454 4.15234 47.4208 28.454 53.46 48.0301Z" fill="white"/>
<path d="M176.617 135.558C176.617 166.52 142.665 176.787 101.4 176.787C60.1344 176.787 25.9326 166.52 25.9326 135.558C25.9326 82.7647 60.1344 64.6641 101.4 64.6641C142.665 64.6641 176.617 80.2507 176.617 135.558Z" fill="white"/>
<path d="M73.3931 126.361V135.853" stroke="#123041" stroke-width="8.89869" stroke-linecap="round"/>
<path d="M145.175 126.361V135.853" stroke="#123041" stroke-width="8.89869" stroke-linecap="round"/>
<path d="M55.5952 149.498H64.4939" stroke="#FFC0C1" stroke-width="11.8649" stroke-linecap="round"/>
<path d="M154.074 149.498H162.972" stroke="#FFC0C1" stroke-width="11.8649" stroke-linecap="round"/>
<path d="M119.072 150.956C119.072 156.301 119.072 158.989 109.283 158.989C99.4946 158.989 99.4946 156.779 99.4946 150.956C99.4946 145.132 103.877 135.853 109.283 135.853C114.689 135.853 119.072 145.61 119.072 150.956Z" fill="#FFC0C1"/>
<path fill-rule="evenodd" clip-rule="evenodd" d="M100.945 144.166C102.668 139.803 105.759 135.853 109.286 135.853C112.765 135.853 115.821 139.894 117.557 144.199C115.209 145.295 112.359 145.937 109.286 145.937C106.183 145.937 103.306 145.282 100.945 144.166Z" fill="#E7EAEE"/>
<path d="M106.859 127.548C108.024 127.548 108.558 128.033 109.285 128.519C110.013 128.033 110.547 127.548 111.711 127.548C113.167 127.548 114.012 129.073 113.652 129.975C113.167 131.188 111.388 132.402 109.285 132.887C107.183 132.402 105.404 131.188 104.919 129.975C104.558 129.073 105.404 127.548 106.859 127.548Z" fill="#FFC0C1"/>
<g clip-path="url(#clip1_1490_4437)">
<path d="M120.153 231.049C131.742 227.139 140.285 213.697 132.485 190.579C124.685 167.46 109.745 161.941 98.1563 165.851C90.5321 168.424 88.6839 175.531 76.7901 179.544C64.8963 183.557 55.4154 171.565 36.9648 177.79C18.5141 184.015 18.1444 208.593 24.3731 227.054C30.6017 245.516 45.7855 264.846 64.2362 258.621C82.6868 252.396 82.965 237.112 94.8588 233.099C106.753 229.086 112.529 233.621 120.153 231.049Z" fill="#AC6647"/>
<circle cx="96.6182" cy="202.68" r="12.263" transform="rotate(71.3563 96.6182 202.68)" fill="#123041"/>
<circle cx="96.6175" cy="202.681" r="14.3957" transform="rotate(71.3563 96.6175 202.681)" stroke="#123041" stroke-width="1.06635"/>
<path d="M208.266 154.32C209.222 153.997 210.278 154.241 210.953 154.99C212.414 156.608 214.876 159.592 215.757 162.203C216.638 164.814 216.487 168.679 216.305 170.851C216.221 171.856 215.528 172.69 214.573 173.012L191.528 180.787C190.791 181.036 189.982 180.95 189.313 180.552L187.196 179.292C186.527 178.894 185.718 178.808 184.98 179.057L184.374 179.262C182.979 179.732 181.466 178.983 180.996 177.588L178.78 171.02C178.309 169.625 179.059 168.113 180.454 167.642L181.247 167.375C182.022 167.113 182.634 166.51 182.907 165.739L183.627 163.708C183.9 162.937 184.513 162.334 185.288 162.072L208.266 154.32Z" fill="#563628"/>
<path d="M104.67 191.523L180.961 167.472L184.881 179.092L109.784 206.679L104.67 191.523Z" fill="#D07C57"/>
<path d="M56.6328 195.913L68.7345 231.782L61.1566 234.339C61.1566 234.339 60.3187 231.532 59.6226 229.792C57.5208 224.539 53.9251 222.773 52.0746 217.427C50.1575 211.889 52.0269 208.147 50.4185 202.511C49.9613 200.91 49.0549 198.47 49.0549 198.47L56.6328 195.913Z" fill="#563628"/>
<path d="M56.5087 208.053L189.555 166.26" stroke="#DDDDDD" stroke-width="0.533174"/>
<path d="M61.6209 223.21L192.113 174.682" stroke="#DDDDDD" stroke-width="0.533174"/>
<path d="M58.5535 214.116L208.091 163.664" stroke="#DDDDDD" stroke-width="0.533174"/>
<path d="M208.772 165.686L59.5756 217.148" stroke="#DDDDDD" stroke-width="0.533174"/>
<path d="M60.6008 220.179L200.193 170.269" stroke="#DDDDDD" stroke-width="0.533174"/>
<path d="M198.485 165.216L57.5294 211.084" stroke="#DDDDDD" stroke-width="0.533174"/>
<circle cx="56.5081" cy="208.053" r="0.79976" transform="rotate(71.3563 56.5081 208.053)" fill="#123041"/>
<circle cx="57.5306" cy="211.085" r="0.79976" transform="rotate(71.3563 57.5306 211.085)" fill="#123041"/>
<circle cx="58.5526" cy="214.116" r="0.79976" transform="rotate(71.3563 58.5526 214.116)" fill="#123041"/>
<circle cx="59.578" cy="217.147" r="0.79976" transform="rotate(71.3563 59.578 217.147)" fill="#123041"/>
<circle cx="60.5999" cy="220.178" r="0.79976" transform="rotate(71.3563 60.5999 220.178)" fill="#123041"/>
<circle cx="61.6224" cy="223.209" r="0.79976" transform="rotate(71.3563 61.6224 223.209)" fill="#123041"/>
<circle cx="189.386" cy="166.598" r="0.79976" transform="rotate(71.3563 189.386 166.598)" fill="white"/>
<circle cx="198.488" cy="165.217" r="0.79976" transform="rotate(71.3563 198.488 165.217)" fill="white"/>
<circle cx="208.093" cy="163.664" r="0.79976" transform="rotate(71.3563 208.093 163.664)" fill="white"/>
<circle cx="208.774" cy="165.684" r="0.79976" transform="rotate(71.3563 208.774 165.684)" fill="white"/>
<circle cx="200.191" cy="170.267" r="0.79976" transform="rotate(71.3563 200.191 170.267)" fill="white"/>
<circle cx="192.115" cy="174.681" r="0.79976" transform="rotate(71.3563 192.115 174.681)" fill="white"/>
<path d="M167.102 188.918C166.511 193.889 161.055 197.327 154.914 196.597C142.22 197.236 143.24 190.914 144.973 187.63C146.705 184.346 150.385 180.488 156.865 180.184C163.344 179.88 167.693 183.947 167.102 188.918Z" fill="#E7EAEE"/>
</g>
<path d="M90.7062 206.951C82.4607 205.557 70.701 190.657 66.0745 179.98C65.4135 178.455 64.6777 174.895 69.7698 173.98C73.3627 173.334 98.775 182.037 103.818 185.983C110.557 191.256 109.604 210.146 90.7062 206.951Z" fill="white"/>
</g>
<defs>
<clipPath id="clip0_1490_4437">
<rect width="244.417" height="270.52" fill="white"/>
</clipPath>
<clipPath id="clip1_1490_4437">
<rect width="92.239" height="217.002" fill="white" transform="translate(210.955 116.275) rotate(71.3563)"/>
</clipPath>
</defs>
</svg>
