<svg width="459" height="786" viewBox="0 0 459 786" fill="none" xmlns="http://www.w3.org/2000/svg">
<rect y="16" width="449" height="770" rx="29" fill="#93CA45"/>
<path fill-rule="evenodd" clip-rule="evenodd" d="M190 6.5C190 2.91015 187.09 0 183.5 0H79C76.7909 0 75 1.79086 75 4C75 6.20914 73.2091 8 71 8H15C3.95431 8 -5 16.9543 -5 28V39C-5 50.0457 3.95431 59 15 59H99.5C105.299 59 110 54.299 110 48.5C110 42.701 114.701 38 120.5 38H154.5C158.09 38 161 40.9101 161 44.5C161 48.0899 163.91 51 167.5 51H298.5C302.09 51 305 48.0899 305 44.5C305 40.9101 307.91 38 311.5 38H440C450.493 38 459 29.4934 459 19C459 8.50659 450.493 0 440 0H283.5C279.91 0 277 2.91015 277 6.5C277 10.0899 274.09 13 270.5 13H196.5C192.91 13 190 10.0899 190 6.5Z" fill="#AFD157"/>
</svg>
