<svg width="187" height="237" viewBox="0 0 187 237" fill="none" xmlns="http://www.w3.org/2000/svg">
<ellipse cx="93.5" cy="212" rx="93.5" ry="25" fill="#B7DA5C"/>
<g clip-path="url(#clip0_431_1698)">
<path d="M154.262 157.283C138.963 158.285 121.206 139.894 114.241 130.573C114.177 129.259 114.531 126.082 116.451 123.882C118.852 121.132 154.406 130.28 162.181 133.855C169.955 137.43 173.387 156.03 154.262 157.283Z" fill="#E7EAEE"/>
<path d="M129.374 210.281C133.629 208.542 137.772 185.361 136.932 173.821L96.0629 180.344C95.2232 189.71 95.1672 208.809 97.1826 210.281C99.702 212.121 124.055 212.455 129.374 210.281Z" fill="#E7EAEE"/>
<path d="M132.568 184.605C145.288 176.147 128.093 123.383 115.67 116.738C103.246 110.092 83.0388 111.099 74.1646 116.738C65.2903 122.376 43.3605 175.946 56.0802 184.605C68.7999 193.265 119.848 193.064 132.568 184.605Z" fill="white"/>
<path fill-rule="evenodd" clip-rule="evenodd" d="M98.5777 190.967C98.677 187.845 98.5745 181.476 96.4028 177.677C92.9268 171.596 81.5717 167.591 81.5717 167.591C77.0235 166.899 67.2151 163.617 64.3676 156.023C63.1558 152.792 60.3613 150.627 57.1314 149.215C52.0557 164.496 49.6748 180.245 56.0798 184.605C63.0063 189.321 81.2983 191.409 98.5777 190.967Z" fill="#123041"/>
<path d="M59.8742 210.281C55.6194 208.542 51.4765 185.361 52.3163 173.821L93.1851 180.344C94.0249 189.71 94.0809 208.809 92.0654 210.281C89.5461 212.121 65.1928 212.455 59.8742 210.281Z" fill="#123041"/>
<path d="M34.4114 159.116C34.1483 143.785 53.3743 126.937 63.0202 120.429C64.3356 120.429 67.4925 120.935 69.597 122.96C72.2277 125.491 61.3761 160.562 57.4301 168.155C53.484 175.747 34.7402 178.278 34.4114 159.116Z" fill="white"/>
<path d="M128.143 165.466C128.143 181.291 114.597 185.092 97.8874 185.092C81.1777 185.092 67.6318 181.291 67.6318 165.466C67.6318 144.662 81.1777 132.887 97.8874 132.887C114.597 132.887 128.143 144.662 128.143 165.466Z" fill="#FFC0C1"/>
<path d="M97.6318 179.754C97.7536 179.754 97.8745 179.731 97.9873 179.685C98.1001 179.639 98.2027 179.572 98.2892 179.487L102.41 175.342C102.562 175.165 102.641 174.939 102.632 174.707C102.623 174.475 102.527 174.255 102.362 174.091C102.197 173.927 101.976 173.831 101.743 173.822C101.509 173.813 101.282 173.892 101.104 174.043L96.9743 178.142C96.8875 178.227 96.8186 178.329 96.7716 178.442C96.7246 178.554 96.7004 178.674 96.7004 178.796C96.7004 178.917 96.7246 179.038 96.7716 179.15C96.8186 179.262 96.8875 179.364 96.9743 179.45C97.0577 179.542 97.1589 179.616 97.2719 179.668C97.3848 179.721 97.5073 179.75 97.6318 179.754Z" fill="#FF8D8D"/>
<path d="M101.709 179.754C101.83 179.754 101.949 179.731 102.061 179.686C102.173 179.64 102.275 179.572 102.361 179.487C102.447 179.402 102.516 179.3 102.562 179.188C102.609 179.076 102.633 178.956 102.633 178.835C102.633 178.713 102.609 178.593 102.562 178.481C102.516 178.369 102.447 178.268 102.361 178.182L98.2723 174.093C98.1869 174.007 98.0852 173.939 97.9733 173.892C97.8613 173.845 97.7412 173.821 97.6199 173.821C97.4986 173.821 97.3785 173.845 97.2666 173.892C97.1546 173.939 97.053 174.007 96.9676 174.093C96.7964 174.265 96.7004 174.498 96.7004 174.741C96.7004 174.984 96.7964 175.217 96.9676 175.389L101.065 179.487C101.237 179.657 101.468 179.753 101.709 179.754Z" fill="#FF8D8D"/>
<path d="M29.0476 26.1922C47.0072 36.8207 41.459 42.1195 36.8189 49.9602C32.1787 57.8009 29.8393 64.9986 12.2442 54.5858C3.31216 49.2998 -0.167141 38.6585 4.47299 30.8178C9.11312 22.9772 20.1156 20.9062 29.0476 26.1922Z" fill="white"/>
<path d="M55.3741 28.0095C55.3741 37.9089 51.9212 37.9675 47.6619 37.9675C43.4026 37.9675 39.9497 37.9089 39.9497 28.0095C39.9497 18.11 44.6765 10.085 47.6619 10.085C50.6473 10.085 55.3741 18.11 55.3741 28.0095Z" fill="#6A5B3D"/>
<path d="M148.515 28.0095C148.515 37.9089 145.062 37.9675 140.803 37.9675C136.543 37.9675 133.09 37.9089 133.09 28.0095C133.09 18.11 137.817 10.085 140.803 10.085C143.788 10.085 148.515 18.11 148.515 28.0095Z" fill="#6A5B3D"/>
<path d="M161.109 26.1922C143.149 36.8207 148.697 42.1195 153.337 49.9602C157.978 57.8009 160.317 64.9986 177.912 54.5858C186.844 49.2998 190.323 38.6585 185.683 30.8178C181.043 22.9772 170.041 20.9062 161.109 26.1922Z" fill="#123041"/>
<path d="M165.543 35.2533C156.592 40.5506 158.91 42.4352 160.67 45.4101C162.431 48.385 163.149 51.2161 171.919 46.0262C176.371 43.3916 178.552 38.8442 176.792 35.8694C175.031 32.8945 169.995 32.6186 165.543 35.2533Z" fill="#FFC0C1"/>
<path d="M24.0847 35.2533C33.0359 40.5506 30.7182 42.4352 28.9577 45.4101C27.1972 48.385 26.4788 51.2161 17.7092 46.0262C13.2574 43.3916 11.0756 38.8442 12.8362 35.8694C14.5967 32.8945 19.6328 32.6186 24.0847 35.2533Z" fill="#FFC0C1"/>
<path d="M169.278 87.5045C169.278 118.467 135.326 128.734 94.0609 128.734C52.7956 128.734 18.5938 118.467 18.5938 87.5045C18.5938 34.711 52.7956 16.6104 94.0609 16.6104C135.326 16.6104 169.278 32.197 169.278 87.5045Z" fill="white"/>
<path fill-rule="evenodd" clip-rule="evenodd" d="M99.3018 16.6973C99.6484 26.5766 101.712 39.5347 108.185 44.7751C113.878 49.3833 120.447 50.5569 126.317 51.6055C131.334 52.5018 135.841 53.3069 138.853 56.087C140.453 57.5642 141.873 59.614 143.41 61.8343C148.042 68.5238 153.746 76.7606 168.695 75.5452C164.273 32.0219 135.068 17.909 99.3018 16.6973Z" fill="#123041"/>
<path d="M57.7476 81.8682V91.3601" stroke="#123041" stroke-width="8.89869" stroke-linecap="round"/>
<path d="M137.24 81.8682V91.3601" stroke="#123041" stroke-width="8.89869" stroke-linecap="round"/>
<path d="M69.6118 103.937C69.6118 91.7487 79.4923 81.8682 91.6806 81.8682H102.715C114.903 81.8682 124.784 91.7487 124.784 103.937C124.784 112.062 118.197 118.649 110.071 118.649H84.3243C76.1988 118.649 69.6118 112.062 69.6118 103.937Z" fill="#FFC0C1"/>
<path d="M85.6294 98.4785V105.004" stroke="#123041" stroke-width="5.93246" stroke-linecap="round"/>
<path d="M109.358 98.4785L109.358 105.004" stroke="#123041" stroke-width="5.93246" stroke-linecap="round"/>
<path d="M39.9497 105.004H48.8484" stroke="#FFC0C1" stroke-width="11.8649" stroke-linecap="round"/>
<path d="M146.139 105.004H155.038" stroke="#FFC0C1" stroke-width="11.8649" stroke-linecap="round"/>
<g clip-path="url(#clip1_431_1698)">
<path d="M137.407 109.601C139.717 120.088 144.208 122.27 151.478 121.455C158.748 120.639 162.645 117.515 162.573 106.778C162.517 98.4267 156.478 92.836 148.37 93.7458C140.261 94.6556 135.612 101.445 137.407 109.601Z" fill="#9EE7E5"/>
<path d="M137.444 108.105L162.205 105.327" stroke="#005071" stroke-width="2.96623" stroke-linecap="round"/>
<rect x="150.245" y="160.993" width="10.6784" height="7.11895" rx="1.18649" transform="rotate(-6.40172 150.245 160.993)" fill="#005071"/>
<path d="M142.191 120.75C142.091 120.085 142.564 119.47 143.232 119.395L158.471 117.685C159.139 117.61 159.736 118.105 159.786 118.776L163.133 163.77C163.18 164.407 162.716 164.966 162.082 165.037L150.204 166.37C149.57 166.441 148.994 165.998 148.899 165.367L142.191 120.75Z" fill="#005071"/>
</g>
</g>
<defs>
<clipPath id="clip0_431_1698">
<rect width="186.872" height="221.874" fill="white"/>
</clipPath>
<clipPath id="clip1_431_1698">
<rect width="33.815" height="81.2747" fill="white" transform="translate(130.515 91.5703) rotate(-6.40172)"/>
</clipPath>
</defs>
</svg>
