<svg width="480" height="153" viewBox="0 0 480 153" fill="none" xmlns="http://www.w3.org/2000/svg">
<rect x="18" y="15" width="471" height="438" rx="29" fill="#96C850"/>
<path fill-rule="evenodd" clip-rule="evenodd" d="M195 7.5C195 3.35786 191.642 0 187.5 0H86.5C82.9101 0 80 2.91015 80 6.5C80 10.0899 77.0899 13 73.5 13H16.5C7.3873 13 0 20.3873 0 29.5C0 38.6127 7.3873 46 16.5 46H111C113.209 46 115 44.2091 115 42C115 39.7909 116.791 38 119 38H158.5C162.642 38 166 41.3579 166 45.5C166 49.6421 169.358 53 173.5 53H302.5C306.642 53 310 49.6421 310 45.5C310 41.3579 313.358 38 317.5 38H496C506.493 38 515 29.4934 515 19C515 8.50659 506.493 0 496 0H289.5C285.358 0 282 3.35786 282 7.5C282 11.6421 278.642 15 274.5 15H202.5C198.358 15 195 11.6421 195 7.5Z" fill="#AFD157"/>
</svg>
