<svg width="227" height="240" viewBox="0 0 227 240" fill="none" xmlns="http://www.w3.org/2000/svg">
<g clip-path="url(#clip0_1490_4484)">
<path d="M68.3788 159.827C83.0953 164.129 104.423 150.034 113.247 142.449C113.594 141.18 113.94 138.002 112.543 135.437C110.796 132.232 74.1041 133.437 65.7388 135.238C57.3736 137.039 49.9831 154.45 68.3788 159.827Z" fill="#FFC532"/>
<path d="M97.2463 228.672C92.9915 226.932 88.8485 203.752 89.6884 192.212L130.557 198.735C131.397 208.1 131.453 227.2 129.437 228.672C126.918 230.512 102.565 230.846 97.2463 228.672Z" fill="#FFC532"/>
<path d="M94.0521 202.996C81.3324 194.538 98.5268 141.774 110.951 135.128C123.374 128.482 143.581 129.489 152.456 135.128C161.33 140.767 183.26 194.336 170.54 202.996C157.82 211.656 106.772 211.454 94.0521 202.996Z" fill="#FFDB40"/>
<path d="M166.745 228.672C171 226.932 175.143 203.752 174.303 192.212L133.435 198.735C132.595 208.1 132.539 227.2 134.554 228.672C137.074 230.512 161.427 230.846 166.745 228.672Z" fill="#FFDB40"/>
<path d="M128.988 195.178C128.866 195.178 128.745 195.155 128.632 195.109C128.52 195.063 128.417 194.996 128.33 194.91L124.209 190.765C124.058 190.589 123.979 190.363 123.988 190.131C123.997 189.899 124.093 189.679 124.258 189.515C124.423 189.351 124.644 189.255 124.877 189.246C125.11 189.237 125.338 189.316 125.515 189.467L129.645 193.566C129.732 193.651 129.801 193.753 129.848 193.865C129.895 193.978 129.919 194.098 129.919 194.22C129.919 194.341 129.895 194.462 129.848 194.574C129.801 194.686 129.732 194.788 129.645 194.874C129.562 194.966 129.461 195.04 129.348 195.092C129.235 195.144 129.112 195.173 128.988 195.178Z" fill="#FFB132"/>
<path d="M124.911 195.178C124.79 195.178 124.67 195.155 124.558 195.109C124.446 195.064 124.344 194.996 124.259 194.911C124.172 194.826 124.104 194.724 124.057 194.612C124.011 194.5 123.987 194.38 123.987 194.259C123.987 194.137 124.011 194.017 124.057 193.905C124.104 193.793 124.172 193.692 124.259 193.606L128.347 189.517C128.433 189.431 128.534 189.362 128.646 189.316C128.758 189.269 128.878 189.245 129 189.245C129.121 189.245 129.241 189.269 129.353 189.316C129.465 189.362 129.567 189.431 129.652 189.517C129.823 189.689 129.919 189.922 129.919 190.165C129.919 190.408 129.823 190.64 129.652 190.813L125.554 194.911C125.383 195.081 125.152 195.177 124.911 195.178Z" fill="#FFB132"/>
<path d="M56.4821 103.522C56.4821 134.484 90.434 144.751 131.699 144.751C172.965 144.751 207.167 134.484 207.167 103.522C207.167 50.7286 172.965 32.6279 131.699 32.6279C90.434 32.6279 56.4821 48.2146 56.4821 103.522Z" fill="#FFDB40"/>
<path d="M180.472 118.648H171.573" stroke="#FCA18E" stroke-width="11.8649" stroke-linecap="round"/>
<path d="M81.9937 118.648H73.095" stroke="#FCA18E" stroke-width="11.8649" stroke-linecap="round"/>
<path d="M162.674 97.292V106.784" stroke="#123041" stroke-width="8.89869" stroke-linecap="round"/>
<path d="M90.8926 97.292V106.784" stroke="#123041" stroke-width="8.89869" stroke-linecap="round"/>
<path d="M111.656 110.936C111.656 116.342 118.429 118.648 126.783 118.648C135.138 118.648 141.911 116.342 141.911 110.936C141.911 105.53 135.138 99.0713 126.783 99.0713C118.429 99.0713 111.656 105.53 111.656 110.936Z" fill="#FFB132"/>
<path d="M142.944 11.9959C133.944 19.9763 128.774 28.9264 127.245 37.0723L143.082 35.3835C149.603 34.6881 155.85 27.0013 155.562 17.6711C155.274 8.34084 147.52 7.93758 142.944 11.9959Z" fill="#FFDB40"/>
<path d="M126.417 24.6018C129.219 27.3377 129.927 33.3 129.931 35.9391C124.503 35.4374 115.395 33.7687 113.761 30.2929C112.128 26.8171 113.147 22.4957 115.135 21.4657C117.124 20.4356 122.914 21.1819 126.417 24.6018Z" fill="#FFDB40"/>
<path d="M125.242 160.055C138.913 166.997 162.474 157.077 172.546 151.249C173.121 150.066 172.63 146.533 171.448 143.862C168.266 136.675 135.736 135.174 127.182 135.401C118.628 135.629 108.154 151.377 125.242 160.055Z" fill="#FFC532"/>
<g clip-path="url(#clip1_1490_4484)">
<rect width="225.433" height="16.8737" rx="3.37475" transform="matrix(-1 0 0 1 225.435 147.671)" fill="#FF686B"/>
<rect width="62.7704" height="14.1739" rx="3.37475" transform="matrix(-1 0 0 1 141.74 118.649)" fill="#FF686B"/>
<rect width="3.37475" height="72.3832" rx="1.3499" transform="matrix(-0.810295 -0.586022 -0.586022 0.810295 132.966 168.548)" fill="#FCA18E"/>
<rect x="87.7437" y="168.548" width="3.37475" height="72.3832" rx="1.3499" transform="rotate(-35.8752 87.7437 168.548)" fill="#FCA18E"/>
<rect x="117.738" y="129.084" width="3.37475" height="41.0881" rx="1.3499" transform="rotate(-16.9822 117.738 129.084)" fill="#FCA18E"/>
<rect width="3.37475" height="41.0881" rx="1.3499" transform="matrix(-0.956396 -0.292074 -0.292074 0.956396 102.972 129.084)" fill="#FCA18E"/>
<ellipse cx="4.0497" cy="4.0497" rx="4.0497" ry="4.0497" transform="matrix(-1 0 0 1 135.665 164.546)" fill="#FFC53D"/>
<ellipse cx="89.0922" cy="168.596" rx="4.0497" ry="4.0497" fill="#FFC53D"/>
<ellipse cx="5.3996" cy="5.3996" rx="5.3996" ry="5.3996" transform="matrix(-1 0 0 1 115.417 191.543)" fill="#FFC53D"/>
<ellipse cx="4.0497" cy="4.0497" rx="4.0497" ry="4.0497" transform="matrix(-1 0 0 1 93.1431 221.916)" fill="#FCA18E"/>
<ellipse cx="131.617" cy="225.966" rx="4.0497" ry="4.0497" fill="#FCA18E"/>
</g>
</g>
<defs>
<clipPath id="clip0_1490_4484">
<rect width="226.027" height="239.078" fill="white" transform="matrix(-1 0 0 1 226.027 0)"/>
</clipPath>
<clipPath id="clip1_1490_4484">
<rect width="262.215" height="135.26" fill="white" transform="matrix(-1 0 0 1 241.452 94.9189)"/>
</clipPath>
</defs>
</svg>
