<svg width="268" height="137" viewBox="0 0 268 137" fill="none" xmlns="http://www.w3.org/2000/svg">
<ellipse cx="130" cy="112" rx="130" ry="25" fill="#9AB94B"/>
<g clip-path="url(#clip0_431_1698)">
<path d="M228.06 98.3049C224.356 102.008 192.055 101.391 174.978 100.774C164.485 94.2929 162.942 63.7403 170.04 59.4197C177.138 55.0991 209.145 69.9371 213.863 73.3073C218.184 76.3935 232.38 93.9842 228.06 98.3049Z" fill="#5C9A15"/>
<path d="M247.777 112.954C244.074 116.658 211.772 116.04 194.695 115.423C184.203 108.942 182.659 78.3897 189.758 74.0691C196.856 69.7485 228.862 84.5865 233.581 87.9567C237.901 91.0429 252.098 108.634 247.777 112.954Z" fill="#5BB42B"/>
<path d="M201.592 114.431C196.928 117.397 119.708 117.397 114.267 114.431C108.825 111.466 98.9782 88.3361 102.088 81.2192C105.197 74.1024 131.628 48.3036 175.42 50.0828C219.212 51.8621 206.256 111.466 201.592 114.431Z" fill="#5BB42B"/>
<path d="M27.7261 92.5498C42.7437 87.17 65.7674 100.487 75.402 107.817C75.8414 109.113 76.3971 112.393 75.105 115.143C73.4898 118.581 35.3078 119.602 26.5082 118.25C17.7087 116.898 8.95404 99.2745 27.7261 92.5498Z" fill="#5C9A15"/>
<ellipse cx="24.6716" cy="26.5868" rx="24.6716" ry="26.5868" transform="matrix(-0.877234 -0.480064 -0.480064 0.877234 183.68 18.8223)" fill="#5BB42B"/>
<ellipse cx="42.0794" cy="29.6166" rx="24.6716" ry="26.5868" transform="rotate(-28.6896 42.0794 29.6166)" fill="#5BB42B"/>
<path d="M15.7896 72.9969C15.7896 105.551 51.6702 116.347 95.2796 116.347C138.889 116.347 175.034 105.551 175.034 72.9969C175.034 26.2317 138.889 6.17188 95.2796 6.17188C51.6702 6.17188 15.7896 22.5283 15.7896 72.9969Z" fill="#5BB42B"/>
<path d="M158.373 61.7246H147.88" stroke="#A1DC3C" stroke-width="12.3445" stroke-linecap="round"/>
<path d="M44.1812 61.7246H33.6883" stroke="#A1DC3C" stroke-width="12.3445" stroke-linecap="round"/>
<path d="M44.7134 38.2695L39.776 39.5041" stroke="#123041" stroke-width="9.25838" stroke-linecap="round"/>
<path d="M139.766 38.8896L144.703 40.1242" stroke="#123041" stroke-width="9.25838" stroke-linecap="round"/>
<path d="M121.547 92.5498C136.565 87.17 159.588 100.487 169.223 107.817C169.662 109.113 170.218 112.393 168.926 115.143C167.311 118.581 129.129 119.602 120.329 118.25C111.529 116.898 102.775 99.2745 121.547 92.5498Z" fill="#5C9A15"/>
<path d="M68.7803 41.044C70.1176 41.9699 73.7798 43.8216 77.73 43.8216C82.6678 43.8216 84.5195 39.501 89.7659 39.501C95.0123 39.501 96.864 43.8216 101.802 43.8216C105.752 43.8216 109.414 41.9699 110.752 41.044" stroke="#4B890D" stroke-width="3.08613" stroke-linecap="round"/>
</g>
<defs>
<clipPath id="clip0_431_1698">
<rect width="255.531" height="122.828" fill="white" transform="translate(12)"/>
</clipPath>
</defs>
</svg>
