<svg width="1440" height="463" viewBox="0 0 1440 463" fill="none" xmlns="http://www.w3.org/2000/svg">
<path fill-rule="evenodd" clip-rule="evenodd" d="M238 121.357C238 117.846 235.154 115 231.643 115H111.597C107.953 115 105 117.953 105 121.597C105 125.24 102.047 128.193 98.4034 128.193H-39.729C-49.2675 128.193 -57 135.926 -57 145.464C-57 155.003 -49.2675 162.735 -39.729 162.735H90.7664C97.5228 162.735 103 168.212 103 174.969C103 181.725 108.477 187.203 115.234 187.203H124.243C127.422 187.203 130 184.625 130 181.446C130 178.266 132.578 175.688 135.757 175.688H233.802C236.121 175.688 238 173.809 238 171.491C238 169.172 239.879 167.293 242.198 167.293H322.646C329.469 167.293 335 172.824 335 179.646C335 186.469 340.531 192 347.354 192H350.165C355.597 192 360 187.597 360 182.165C360 176.733 364.403 172.33 369.835 172.33H528.282C530.335 172.33 532 173.995 532 176.048C532 178.102 533.665 179.767 535.718 179.767H820.682C823.067 179.767 825 181.7 825 184.084C825 186.469 826.933 188.402 829.318 188.402H843.643C847.154 188.402 850 185.556 850 182.045C850 178.535 852.846 175.689 856.357 175.689H982.084C986.456 175.689 990 179.233 990 183.604C990 187.976 993.544 191.52 997.916 191.52H1005.17C1010.6 191.52 1015 187.117 1015 181.685C1015 176.254 1019.4 171.85 1024.83 171.85H1081.44C1083.96 171.85 1086 173.891 1086 176.408C1086 178.925 1088.04 180.966 1090.56 180.966H1254.08C1256.8 180.966 1259 178.764 1259 176.048C1259 173.332 1261.2 171.131 1263.92 171.131H1396.57C1402.33 171.131 1407 175.802 1407 181.565C1407 187.328 1411.67 192 1417.43 192H1419.5C1426.4 192 1432 186.404 1432 179.5V179.047C1432 171.893 1437.8 166.093 1444.95 166.093H1503.45C1515.9 166.093 1526 155.998 1526 143.545C1526 131.092 1515.9 120.997 1503.45 120.997H1363.28C1358.71 120.997 1355 124.702 1355 129.272C1355 133.843 1351.29 137.548 1346.72 137.548H1264.28C1261.36 137.548 1259 135.185 1259 132.271C1259 129.357 1256.64 126.994 1253.72 126.994H1094.64C1089.87 126.994 1086 130.86 1086 135.629C1086 140.399 1082.13 144.265 1077.36 144.265H989.997C986.685 144.265 984 146.95 984 150.262C984 153.574 981.315 156.259 978.003 156.259H844H834H570.595C565.296 156.259 561 151.963 561 146.664C561 141.364 556.704 137.068 551.405 137.068H471.677C469.094 137.068 467 134.974 467 132.391C467 129.808 464.906 127.713 462.323 127.713H244.357C240.846 127.713 238 124.867 238 121.357Z" fill="#AFD157"/>
<path d="M203.5 229.5L196.5 229.5C181.036 229.5 168.5 216.964 168.5 201.5L168.5 194.5L175.5 194.5C190.964 194.5 203.5 207.036 203.5 222.5L203.5 229.5Z" fill="#AFD157"/>
<path d="M983 219L976 219C960.536 219 948 206.464 948 191L948 184L955 184C970.464 184 983 196.536 983 212L983 219Z" fill="#AFD157"/>
<path d="M474.5 222.5L481.5 222.5C496.964 222.5 509.5 209.964 509.5 194.5L509.5 187.5L502.5 187.5C487.036 187.5 474.5 200.036 474.5 215.5L474.5 222.5Z" fill="#AFD157"/>
<path d="M1292 219L1299 219C1314.46 219 1327 206.464 1327 191L1327 184L1320 184C1304.54 184 1292 196.536 1292 212L1292 219Z" fill="#AFD157"/>
<path d="M522 85H515C499.536 85 487 97.536 487 113V120H494C509.464 120 522 107.464 522 92V85Z" fill="#7BAD34"/>
<path d="M452 85H459C474.464 85 487 97.536 487 113V120H480C464.536 120 452 107.464 452 92V85Z" fill="#7BAD34"/>
<path d="M1127.4 115L1134.4 115C1149.86 115 1162.4 102.464 1162.4 87L1162.4 80L1155.4 80C1139.94 80 1127.4 92.536 1127.4 108L1127.4 115Z" fill="#7BAD34"/>
<path d="M94 84H87C71.536 84 59 96.536 59 112V119H66C81.464 119 94 106.464 94 91V84Z" fill="#7BAD34"/>
<path d="M1197.4 115L1190.4 115C1174.94 115 1162.4 102.464 1162.4 87L1162.4 80L1169.4 80C1184.86 80 1197.4 92.536 1197.4 108L1197.4 115Z" fill="#7BAD34"/>
<path d="M204 62H211C226.464 62 239 74.536 239 90V97H232C216.536 97 204 84.464 204 69V62Z" fill="#AFD157"/>
<path d="M1335 76H1342C1357.46 76 1370 88.536 1370 104V111H1363C1347.54 111 1335 98.464 1335 83V76Z" fill="#7BAD34"/>
<rect x="68" y="425" width="180" height="38" rx="10" fill="#AFD157"/>
<rect x="203" y="380" width="138" height="26" rx="10" fill="#AFD157"/>
<rect x="1253" y="326" width="138" height="28" rx="10" fill="#AFD157"/>
<rect x="1356" y="281" width="53" height="26" rx="10" fill="#AFD157"/>
<rect x="17" y="268" width="138" height="28" rx="10" fill="#AFD157"/>
<rect x="-7" y="223" width="53" height="26" rx="10" fill="#AFD157"/>
<path d="M1252.25 88.8535H1256.91C1267.18 88.8535 1275.51 97.1815 1275.51 107.455V112.105H1270.86C1260.58 112.105 1252.25 103.777 1252.25 93.5038V88.8535Z" fill="#93CA45"/>
<path d="M1304.57 102.971H1298.92C1286.45 102.971 1276.34 113.083 1276.34 125.558V131.205H1281.98C1294.46 131.205 1304.57 121.092 1304.57 108.617V102.971Z" fill="#93CA45"/>
<path d="M1278 142V76.3977" stroke="#93CA45" stroke-width="6.64327" stroke-linecap="round"/>
<path fill-rule="evenodd" clip-rule="evenodd" d="M1290.49 12.4926C1283.59 5.59315 1272.4 5.59315 1265.5 12.4926C1260.04 17.9525 1258.91 26.0968 1262.09 32.6769C1262.21 32.9257 1261.93 33.2067 1261.68 33.0865C1255.1 29.9058 1246.95 31.0452 1241.49 36.5048C1234.59 43.4043 1234.59 54.5906 1241.49 61.4901C1246.95 66.9495 1255.1 68.089 1261.68 64.9086C1261.93 64.7883 1262.21 65.0694 1262.09 65.3181C1258.91 71.898 1260.04 80.0418 1265.5 85.5014C1272.4 92.4009 1283.59 92.4009 1290.49 85.5014C1295.95 80.0418 1297.09 71.898 1293.91 65.3181C1293.79 65.0694 1294.07 64.7883 1294.32 64.9086C1300.9 68.089 1309.04 66.9495 1314.5 61.4901C1321.4 54.5906 1321.4 43.4043 1314.5 36.5048C1309.04 31.0452 1300.9 29.9058 1294.32 33.0865C1294.07 33.2067 1293.79 32.9257 1293.91 32.6769C1297.09 26.0968 1295.95 17.9525 1290.49 12.4926Z" fill="#FF686B"/>
<circle cx="1277.99" cy="49.322" r="7.34224" transform="rotate(45 1277.99 49.322)" fill="#E23636"/>
<path d="M113.695 89.8203H121.131C137.558 89.8203 150.875 103.137 150.875 119.564V127H143.439C127.012 127 113.695 113.683 113.695 97.2562V89.8203Z" fill="#93CA45"/>
<path d="M188.054 89.8203H180.618C164.191 89.8203 150.875 103.137 150.875 119.564V127H158.311C174.738 127 188.054 113.683 188.054 97.2562V89.8203Z" fill="#93CA45"/>
<path d="M150.875 121.052V83.8723" stroke="#93CA45" stroke-width="5.94872" stroke-linecap="round"/>
<path fill-rule="evenodd" clip-rule="evenodd" d="M162.061 22.1865C155.883 16.0084 145.866 16.0084 139.688 22.1865C134.799 27.0756 133.779 34.3685 136.628 40.2607C136.735 40.4835 136.484 40.7351 136.261 40.6275C130.369 37.7791 123.076 38.7993 118.187 43.6882C112.009 49.8663 112.009 59.8831 118.187 66.0612C123.076 70.9499 130.368 71.9703 136.26 69.1223C136.483 69.0147 136.734 69.2663 136.627 69.4891C133.779 75.3811 134.799 82.6734 139.688 87.5622C145.866 93.7403 155.883 93.7403 162.061 87.5622C166.95 82.6734 167.97 75.3811 165.122 69.4891C165.014 69.2663 165.266 69.0147 165.488 69.1223C171.38 71.9702 178.672 70.9499 183.561 66.0612C189.739 59.8831 189.739 49.8663 183.561 43.6882C178.672 38.7995 171.38 37.7792 165.488 40.6271C165.266 40.7348 165.014 40.4831 165.122 40.2604C167.97 34.3682 166.95 27.0755 162.061 22.1865Z" fill="#FFC53D"/>
<circle cx="150.875" cy="55.1651" r="6.57461" transform="rotate(45 150.875 55.1651)" fill="#E98B2D"/>
<path fill-rule="evenodd" clip-rule="evenodd" d="M324.669 150.669C319.881 145.881 312.119 145.881 307.331 150.669C303.542 154.458 302.752 160.109 304.959 164.675C305.043 164.848 304.848 165.043 304.675 164.959C300.109 162.752 294.458 163.543 290.67 167.331C285.882 172.119 285.882 179.881 290.67 184.669C294.458 188.457 300.109 189.248 304.675 187.041C304.848 186.958 305.043 187.153 304.959 187.325C302.752 191.891 303.543 197.543 307.331 201.331C312.119 206.119 319.881 206.119 324.669 201.331C328.457 197.543 329.248 191.891 327.041 187.325C326.957 187.153 327.152 186.958 327.325 187.041C331.891 189.248 337.542 188.457 341.33 184.669C346.118 179.881 346.118 172.119 341.33 167.331C337.542 163.543 331.891 162.752 327.325 164.959C327.152 165.043 326.957 164.848 327.041 164.675C329.248 160.109 328.458 154.458 324.669 150.669Z" fill="#FFC53D"/>
<circle cx="316" cy="176.225" r="5.09493" transform="rotate(45 316 176.225)" fill="#E98B2D"/>
</svg>
