<svg width="218" height="761" viewBox="0 0 218 761" fill="none" xmlns="http://www.w3.org/2000/svg">
<rect x="9" y="2" width="203" height="759" fill="#83D4FF"/>
<path d="M6 6.68066L6.00004 725.898" stroke="url(#paint0_linear_1490_4531)" stroke-width="12" stroke-linecap="round"/>
<path d="M212 6.68066L212 725.898" stroke="url(#paint1_linear_1490_4531)" stroke-width="12" stroke-linecap="round"/>
<path fill-rule="evenodd" clip-rule="evenodd" d="M176 22.2812C176 17.863 172.418 14.2812 168 14.2812C163.582 14.2812 160 17.863 160 22.2812V139.291C160 134.872 156.418 131.291 152 131.291C147.582 131.291 144 134.872 144 139.291L144 214.956C144 219.375 147.582 222.956 152 222.956C156.418 222.956 160 219.375 160 214.956L160 182.974C160 187.392 163.582 190.974 168 190.974C172.418 190.974 176 187.392 176 182.974V22.2812ZM67 39.4426C67 35.0243 63.4183 31.4426 59 31.4426C54.5817 31.4426 51 35.0243 51 39.4426V69.085C51 73.5032 54.5817 77.085 59 77.085C63.4183 77.085 67 73.5032 67 69.0849L67 39.4426ZM103 54.2638C103 49.8455 99.4183 46.2638 95 46.2638C90.5817 46.2638 87 49.8455 87 54.2638L87 129.93C87 134.348 90.5817 137.93 95 137.93C99.4183 137.93 103 134.348 103 129.93L103 54.2638ZM56 419.813C58.364 419.813 62 421.526 62 423.89L62 434.911C62 439.329 65.5817 442.911 70 442.911C74.4183 442.911 78 439.329 78 434.911L78 221.197C78 216.779 74.4183 213.197 70 213.197C65.5817 213.197 62 216.779 62 221.197L62 372.153C62 374.517 58.364 376.23 56 376.23C51.5817 376.23 48 379.811 48 384.23V411.813C48 416.231 51.5817 419.813 56 419.813ZM95 384.81C99.4183 384.81 103 388.392 103 392.81L103 487.175C103 491.593 99.4183 495.175 95 495.175C90.5817 495.175 87 491.593 87 487.175L87 392.81C87 388.392 90.5817 384.81 95 384.81ZM128 306.224C128 301.805 124.418 298.224 120 298.224C115.582 298.224 112 301.805 112 306.224L112 406.071C112 410.49 115.582 414.071 120 414.071C124.418 414.071 128 410.49 128 406.071L128 306.224ZM145 346.587C149.418 346.587 153 350.169 153 354.587V366.372C153 368.648 157.723 370.769 160 370.769C164.418 370.769 168 374.351 168 378.769L168 539.462C168 543.88 164.418 547.462 160 547.462C155.582 547.462 152 543.88 152 539.462L152 442.651C152 440.374 147.277 438.253 145 438.253C140.582 438.253 137 434.672 137 430.253L137 354.587C137 350.169 140.582 346.587 145 346.587ZM101 537.902C101 533.483 97.4183 529.902 93 529.902C88.5817 529.902 85 533.483 85 537.902L85 593.286C85 597.704 88.5817 601.286 93 601.286C97.4183 601.286 101 597.704 101 593.286L101 537.902ZM74 580.805C74 576.387 70.4183 572.805 66 572.805C61.5817 572.805 58 576.387 58 580.805L58 675.17C58 679.588 61.5817 683.17 66 683.17C70.4183 683.17 74 679.588 74 675.17L74 580.805Z" fill="white" fill-opacity="0.5"/>
<defs>
<linearGradient id="paint0_linear_1490_4531" x1="5.5" y1="6.68066" x2="5.50002" y2="725.898" gradientUnits="userSpaceOnUse">
<stop stop-color="#2CACD5"/>
<stop offset="1" stop-color="#1084A9"/>
</linearGradient>
<linearGradient id="paint1_linear_1490_4531" x1="211.5" y1="6.68066" x2="211.5" y2="725.898" gradientUnits="userSpaceOnUse">
<stop stop-color="#2CACD5"/>
<stop offset="1" stop-color="#1084A9"/>
</linearGradient>
</defs>
</svg>
