<svg width="503" height="518" viewBox="0 0 503 518" fill="none" xmlns="http://www.w3.org/2000/svg">
<g clip-path="url(#clip0_2105_310)">
<path d="M88.2324 195.78C116.511 196.661 113.386 206.581 113.002 218.927C112.617 231.273 114.545 241.35 86.8399 240.487C72.7757 240.049 61.6862 229.686 62.0708 217.341C62.4553 204.995 74.1682 195.342 88.2324 195.78Z" fill="#EAF3F7"/>
<path d="M115.4 177.067C121.872 188.824 117.81 191.151 112.751 193.936C107.692 196.721 103.553 198.909 97.081 187.152C90.6087 175.395 90.9756 162.773 94.5212 160.821C98.0667 158.87 108.927 165.31 115.4 177.067Z" fill="#6A5B3D"/>
<path d="M232.805 126.671C237.877 139.097 233.573 140.939 228.227 143.122C222.881 145.304 218.517 146.999 213.445 134.574C208.373 122.148 210.195 109.653 213.942 108.124C217.689 106.594 227.734 114.246 232.805 126.671Z" fill="#9C8866"/>
<path d="M234.979 130.39C220.598 154.755 230.652 157.421 241.289 163.699C251.926 169.977 259.411 176.996 273.499 153.125C280.651 141.007 277.826 126.095 267.189 119.816C256.552 113.538 242.131 118.272 234.979 130.39Z" fill="#1F0D2D"/>
<path d="M246.954 137.482C239.787 149.626 243.772 150.349 247.808 152.731C251.843 155.113 254.548 158.006 261.57 146.109C265.134 140.069 264.752 133.242 260.716 130.86C256.68 128.478 250.519 131.443 246.954 137.482Z" fill="#FFC0C1"/>
<path d="M88.2596 209.788C102.354 210.227 100.834 213.98 100.688 218.664C100.542 223.348 101.54 227.18 87.7313 226.75C80.7216 226.532 75.1573 222.558 75.3032 217.874C75.4491 213.189 81.2499 209.569 88.2596 209.788Z" fill="#FFAAAB"/>
<path d="M354.035 235.186C325.881 220.788 278.727 246.257 261.111 255.238C260.427 257.096 259.763 261.916 262.586 266.332C266.115 271.853 336.012 278.065 352.759 277.846C375.732 277.547 381.627 249.297 354.035 235.186Z" fill="url(#paint0_linear_2105_310)"/>
<path d="M228.359 389.445C204.194 387.022 172.224 302.739 184.118 283.836C196.011 264.933 229.362 242.536 255.502 248.325C281.643 254.114 333.772 289.375 336.506 328.567C338.227 353.245 252.523 391.867 228.359 389.445Z" fill="#F3FAFD"/>
<path d="M228.987 258.594C234.373 257.156 240.174 256.233 246.399 255.954C281.709 254.374 337.404 284.871 336.675 325.599C336.626 328.337 335.661 331.365 333.953 334.586C331.183 330.743 326.143 315.636 318.033 302.997C301.657 277.474 293.487 274.169 267.129 267.836C250.12 263.748 230.486 260.702 228.987 258.594Z" fill="white"/>
<path d="M180.312 285.931C192.818 266.691 218.033 246.771 254.194 249.046C270.756 250.088 271.716 251.442 296.495 269.802C264.726 259.032 203.892 284.359 200.007 309.44C196.627 331.26 203.696 347.983 224.055 358.913C242.317 368.717 249.962 385.226 237.748 388.897C234.094 389.496 230.912 389.701 228.358 389.445C211.902 387.795 191.825 348.18 184.448 317.104C183.249 318.034 182.036 318.981 180.808 319.943C180.651 320.066 180.496 320.186 180.342 320.303C176.84 305.332 176.248 292.185 180.312 285.931Z" fill="url(#paint1_linear_2105_310)"/>
<path d="M195.718 350.029C201.373 349.515 206.872 350.346 211.118 353.626C222.29 362.253 233.726 358.386 248.52 354.743C263.314 351.101 271.007 351.671 281.847 357.462C285.135 359.219 288.055 362.132 290.454 365.152C263.119 378.097 234.144 386.948 220.83 382.762C210.048 379.373 201.614 366.362 195.718 350.029Z" fill="#1F0D2D"/>
<path d="M263.428 433.013C238.949 427.527 211.062 393.382 202.34 364.998L277.855 355.864C304.836 371.208 312.251 385.267 304.009 410.672C300.034 422.924 274.87 435.576 263.428 433.013Z" fill="#1F0D2D"/>
<path d="M207.923 364.322C219.057 373.447 231.86 381.96 261.135 389.354C253.188 399.575 250.564 429.245 279.265 430.678C273.326 432.9 267.552 433.913 263.487 433.024C263.468 433.02 263.448 433.016 263.428 433.012C263.188 432.958 262.949 432.899 262.708 432.842C238.404 426.858 210.977 393.103 202.341 364.997L207.923 364.322Z" fill="url(#paint2_linear_2105_310)"/>
<path d="M207.923 364.322C219.057 373.447 231.86 381.96 261.135 389.354C253.188 399.575 250.564 429.245 279.265 430.678C273.326 432.9 267.552 433.913 263.487 433.024C263.468 433.02 263.448 433.016 263.428 433.012C263.188 432.958 262.949 432.899 262.708 432.842C238.404 426.858 210.977 393.103 202.341 364.997L207.923 364.322Z" fill="url(#paint3_linear_2105_310)" fill-opacity="0.2"/>
<path d="M216.131 324.364C222.888 334.864 241.794 329.404 263.114 319.559C284.434 309.714 300.095 299.211 293.338 288.712C284.455 274.91 262.144 275.078 240.824 284.923C219.504 294.768 207.248 310.562 216.131 324.364Z" fill="#FFAAAB"/>
<path d="M182.669 288.554C182.552 288.618 182.426 288.667 182.296 288.698C182.167 288.73 182.037 288.744 181.915 288.739L176.043 288.449C175.816 288.424 175.635 288.332 175.535 288.192C175.436 288.051 175.426 287.872 175.508 287.69C175.59 287.508 175.757 287.337 175.976 287.211C176.195 287.084 176.449 287.012 176.689 287.009L182.549 287.267C182.671 287.272 182.785 287.296 182.882 287.337C182.979 287.379 183.058 287.437 183.115 287.508C183.171 287.579 183.204 287.663 183.211 287.753C183.218 287.843 183.2 287.939 183.157 288.034C183.12 288.131 183.057 288.227 182.973 288.317C182.89 288.406 182.786 288.487 182.669 288.554Z" fill="#FF8D8D"/>
<path d="M178.766 290.672C178.65 290.735 178.525 290.784 178.396 290.815C178.268 290.847 178.139 290.86 178.017 290.855C177.895 290.849 177.782 290.825 177.686 290.784C177.589 290.742 177.51 290.684 177.454 290.613C177.397 290.542 177.364 290.459 177.357 290.369C177.35 290.279 177.368 290.184 177.411 290.089L179.424 285.567C179.466 285.472 179.531 285.379 179.617 285.293C179.702 285.208 179.806 285.131 179.922 285.068C180.038 285.005 180.164 284.957 180.293 284.926C180.422 284.895 180.551 284.883 180.673 284.889C180.917 284.901 181.117 284.988 181.23 285.13C181.343 285.272 181.359 285.459 181.275 285.649L179.257 290.181C179.173 290.37 178.996 290.546 178.766 290.672Z" fill="#FF8D8D"/>
<path d="M291.478 190.355C307.133 228.935 281.493 248.079 232.484 275.058C183.476 302.038 132.153 319.474 112.765 282.244C81.9305 223.034 95.4543 169.103 161.104 140.627C212.428 118.366 263.285 120.876 291.478 190.355Z" fill="white"/>
<path d="M109.538 181.005C109.718 183.769 109.647 187.185 109.274 191.313C99.8811 295.423 154.322 292.818 231.236 262.327C252.087 254.062 265.884 249.944 274.098 248.834C263.493 257.389 249.377 265.759 232.485 275.058C182.991 302.305 134.967 320.16 110.798 283.227C87.5339 247.676 89.1145 210.361 109.538 181.005Z" fill="#EAF3F7"/>
<path d="M109.538 181.005C109.718 183.769 109.647 187.185 109.274 191.313C99.8811 295.423 154.322 292.818 231.236 262.327C252.087 254.062 265.884 249.944 274.098 248.834C263.493 257.389 249.377 265.759 232.485 275.058C182.991 302.305 134.967 320.16 110.798 283.227C87.5339 247.676 89.1145 210.361 109.538 181.005Z" fill="url(#paint4_linear_2105_310)" fill-opacity="0.2"/>
<path d="M159.813 141.33C203.528 121.205 248.847 118.158 279.937 167.139C257.993 180.854 244.194 165.625 232.881 162.83C221.175 159.938 207.19 172.694 189.063 169.446C177.762 167.421 166.66 152.939 159.813 141.33Z" fill="#1F0D2D"/>
<path d="M246.721 198.636L250.874 210.816" stroke="#123041" stroke-width="12.0641" stroke-linecap="round"/>
<path d="M153.258 239.814L157.411 251.994" stroke="#123041" stroke-width="12.0641" stroke-linecap="round"/>
<path d="M256.656 236.769C250.309 221.513 232.796 214.29 217.54 220.637L203.728 226.383C188.472 232.73 181.249 250.242 187.596 265.498V265.498C191.827 275.669 203.502 280.484 213.673 276.253L245.901 262.847C256.072 258.615 260.887 246.94 256.656 236.769V236.769Z" fill="#FFC0C1"/>
<path d="M255.356 233.644C249.727 220.114 234.196 213.708 220.665 219.337L203.728 226.383C188.472 232.73 181.249 250.242 187.596 265.498C191.827 275.669 203.502 280.484 213.673 276.253L242.776 264.147C254.672 259.197 260.305 245.541 255.356 233.644Z" fill="#FFC0C1"/>
<path d="M240.48 239.853L243.878 248.021" stroke="#123041" stroke-width="8.04272" stroke-linecap="round"/>
<path d="M290.909 212.903L280.019 218.095" stroke="#FFC0C1" stroke-width="16.0854" stroke-linecap="round"/>
<path d="M153.575 277.39L142.685 282.581" stroke="#FFAAAB" stroke-width="16.0854" stroke-linecap="round"/>
<path d="M386.319 345.73C391.647 314.273 333.928 287.798 322.854 294.146C311.781 300.493 309.675 339.684 309.675 339.684C324.843 356.924 327.928 377.726 344.913 382.527C362.655 387.542 381.666 373.197 386.319 345.73Z" fill="white"/>
<path d="M316.952 300.882C327.673 313.717 337.558 317.947 361.311 322.274C340.115 336.339 338.296 355.519 342.82 368.846C345.152 375.714 349.393 380.369 353.615 383.46C350.725 383.643 347.802 383.343 344.912 382.526C332.37 378.981 320.635 367.44 309.246 354.703C307.35 350.227 305.968 345.577 305.248 340.962C304.183 334.131 304.898 327.69 306.393 322.052L316.015 302.089C316.595 301.307 316.947 300.888 316.952 300.882Z" fill="url(#paint5_linear_2105_310)"/>
<path d="M130.865 378.543C119.682 339.655 153.855 309.579 171.668 297.282C174.304 296.219 180.954 294.475 186.469 295.997C193.363 297.898 197.489 359.718 191.068 377.723C185.814 392.456 139.954 410.15 130.865 378.543Z" fill="white"/>
<path d="M138.391 323.358C146.376 311.159 157.418 302.387 166.569 297.935C179.404 291.689 187.203 295.303 188.303 297.293C189.028 298.605 189.766 301.167 190.466 304.614C186.642 302.5 180.369 296.546 174.532 298.129C160.297 301.99 145.886 324.972 142.618 335.163C136.434 354.454 146.663 386.728 176.582 390.834C160.631 398.711 136.968 399.914 130.409 377.407C124.919 358.569 128.114 342.127 135.076 328.967C136.119 327.044 137.231 325.174 138.391 323.358Z" fill="url(#paint6_linear_2105_310)"/>
<path d="M138.391 323.358C146.376 311.159 157.418 302.387 166.569 297.935C179.404 291.689 187.203 295.303 188.303 297.293C189.028 298.605 189.766 301.167 190.466 304.614C186.642 302.5 180.369 296.546 174.532 298.129C160.297 301.99 145.886 324.972 142.618 335.163C136.434 354.454 146.663 386.728 176.582 390.834C160.631 398.711 136.968 399.914 130.409 377.407C124.919 358.569 128.114 342.127 135.076 328.967C136.119 327.044 137.231 325.174 138.391 323.358Z" fill="url(#paint7_linear_2105_310)" fill-opacity="0.2"/>
<path d="M149.392 310.197C156.618 302.549 164.767 297.267 172.22 295.473C177.728 294.148 181.726 293.769 186.58 295.473C188.946 296.303 190.991 304.447 192.376 315.45C179.263 299.97 166.769 299.827 149.392 310.197Z" fill="#DAEAF1"/>
<path d="M185.875 259.872C185.404 257.531 186.632 254.954 189.021 254.962C190.967 254.968 192.895 255.819 194.212 257.453L200.648 265.439C201.887 266.978 203.755 267.893 205.731 267.842C225.546 267.336 241.278 260.494 254.849 249.135C256.124 248.067 257.623 249.415 257.075 250.986C255.273 256.162 251.358 260.576 245.901 262.847L213.672 276.253C203.501 280.484 191.826 275.668 187.595 265.498C186.826 263.648 186.256 261.765 185.875 259.872Z" fill="#FFAAAB"/>
</g>
<defs>
<linearGradient id="paint0_linear_2105_310" x1="342.082" y1="241.229" x2="230.897" y2="232.355" gradientUnits="userSpaceOnUse">
<stop stop-color="#EAF3F7"/>
<stop offset="1" stop-color="#D7E9F1"/>
</linearGradient>
<linearGradient id="paint1_linear_2105_310" x1="220.12" y1="252.945" x2="311.346" y2="261.442" gradientUnits="userSpaceOnUse">
<stop stop-color="#DBEBF1"/>
<stop offset="1" stop-color="white"/>
</linearGradient>
<linearGradient id="paint2_linear_2105_310" x1="231.391" y1="408.5" x2="247.126" y2="375.964" gradientUnits="userSpaceOnUse">
<stop stop-color="#1F1E60"/>
<stop offset="1" stop-color="#1F0D2D"/>
</linearGradient>
<linearGradient id="paint3_linear_2105_310" x1="226.942" y1="390.247" x2="217.529" y2="415.806" gradientUnits="userSpaceOnUse">
<stop stop-color="#1F0D2D"/>
<stop offset="1" stop-color="#86D856"/>
</linearGradient>
<linearGradient id="paint4_linear_2105_310" x1="119.399" y1="259.126" x2="109.176" y2="281.471" gradientUnits="userSpaceOnUse">
<stop stop-color="white"/>
<stop offset="1" stop-color="#56BBD8"/>
</linearGradient>
<linearGradient id="paint5_linear_2105_310" x1="322.066" y1="377.694" x2="361.75" y2="307.666" gradientUnits="userSpaceOnUse">
<stop stop-color="#DBEBF1"/>
<stop offset="1" stop-color="white"/>
</linearGradient>
<linearGradient id="paint6_linear_2105_310" x1="134.343" y1="386.15" x2="153.32" y2="304.717" gradientUnits="userSpaceOnUse">
<stop stop-color="#EAF3F7"/>
<stop offset="1" stop-color="white"/>
</linearGradient>
<linearGradient id="paint7_linear_2105_310" x1="140.262" y1="346.564" x2="129.79" y2="365.784" gradientUnits="userSpaceOnUse">
<stop stop-color="white"/>
<stop offset="1" stop-color="#56BBD8"/>
</linearGradient>
<clipPath id="clip0_2105_310">
<rect width="356.543" height="394.716" fill="white" transform="translate(0 171.947) rotate(-28.8331)"/>
</clipPath>
</defs>
</svg>
