<svg width="503" height="518" viewBox="0 0 503 518" fill="none" xmlns="http://www.w3.org/2000/svg">
<g filter="url(#filter0_d_2006_3274)">
<mask id="path-1-outside-1_2006_3274" maskUnits="userSpaceOnUse" x="52.0606" y="97.9297" width="345" height="346" fill="black">
<rect fill="white" x="52.0606" y="97.9297" width="345" height="346"/>
<path fill-rule="evenodd" clip-rule="evenodd" d="M213.941 108.123C217.688 106.594 227.733 114.245 232.805 126.67C233.343 127.989 233.775 129.19 234.112 130.284C234.378 130.358 234.643 130.434 234.907 130.511C234.931 130.471 234.955 130.43 234.978 130.39C242.131 118.272 256.552 113.539 267.189 119.817C277.826 126.095 280.651 141.008 273.499 153.125C272.927 154.094 272.363 155.011 271.812 155.88C274.614 159.28 277.326 163.025 279.937 167.138C279.891 167.166 279.845 167.192 279.8 167.22C284.022 173.927 287.929 181.61 291.478 190.354C293.829 196.148 295.248 201.505 295.797 206.515C296.778 207.264 297.601 208.25 298.169 209.441C299.961 213.2 298.577 217.654 295.093 219.771C292.627 230.398 285.504 239.538 274.555 248.46C296.531 237.786 331.415 223.618 354.034 235.186C381.627 249.297 375.732 277.547 352.759 277.846C344.608 277.952 323.871 276.532 304.32 274.413C312.323 279.806 319.493 286.211 325.039 293.4C339.978 290.672 391.358 315.971 386.318 345.729C382.144 370.371 366.414 384.449 350.411 383.463C350.366 383.461 350.321 383.457 350.275 383.454C349.786 383.422 349.298 383.375 348.809 383.314C348.718 383.303 348.628 383.291 348.537 383.279C348.409 383.261 348.282 383.244 348.154 383.225C347.943 383.193 347.731 383.159 347.52 383.121C347.432 383.106 347.345 383.09 347.258 383.074C347.11 383.046 346.962 383.017 346.813 382.987C346.667 382.957 346.521 382.925 346.375 382.893C346.205 382.855 346.036 382.816 345.866 382.775C345.787 382.755 345.707 382.736 345.628 382.716C345.424 382.665 345.22 382.611 345.017 382.554C344.982 382.545 344.947 382.536 344.913 382.527C344.883 382.518 344.854 382.508 344.824 382.499C333.298 379.206 322.453 369.169 311.931 357.671C306.705 361.145 300.935 364.53 294.915 367.718C307.621 379.231 310.122 391.83 304.009 410.672C301.447 418.568 290.083 426.629 279.265 430.677L279.266 430.678C279.252 430.683 279.239 430.687 279.226 430.692C278.885 430.819 278.544 430.942 278.205 431.061C278.177 431.071 278.149 431.081 278.121 431.091C277.767 431.215 277.414 431.334 277.062 431.449C277.045 431.454 277.027 431.459 277.009 431.465C276.668 431.576 276.328 431.682 275.989 431.784C275.963 431.791 275.937 431.798 275.911 431.806C275.221 432.012 274.538 432.199 273.864 432.367C273.803 432.382 273.741 432.397 273.68 432.411C273.378 432.485 273.077 432.555 272.779 432.62C272.755 432.626 272.731 432.632 272.707 432.637C272.562 432.669 272.417 432.698 272.273 432.727C272.218 432.738 272.163 432.75 272.107 432.761C271.974 432.788 271.842 432.813 271.71 432.838C271.64 432.852 271.569 432.864 271.499 432.876C271.243 432.923 270.989 432.966 270.736 433.006C270.702 433.012 270.668 433.018 270.634 433.023C270.484 433.046 270.335 433.068 270.187 433.088C270.12 433.098 270.053 433.106 269.986 433.115C269.813 433.138 269.641 433.159 269.47 433.179C269.354 433.192 269.239 433.205 269.125 433.217C269.011 433.229 268.898 433.239 268.785 433.249C268.699 433.257 268.613 433.264 268.527 433.271C268.154 433.3 267.786 433.321 267.426 433.332C267.337 433.335 267.25 433.337 267.162 433.339C267.063 433.341 266.965 433.344 266.867 433.344C266.8 433.344 266.734 433.343 266.668 433.343C266.449 433.342 266.232 433.338 266.019 433.329C265.983 433.328 265.948 433.327 265.913 433.326C265.799 433.32 265.686 433.314 265.573 433.307C265.502 433.302 265.432 433.297 265.361 433.291C265.179 433.277 265 433.26 264.822 433.24C264.766 433.233 264.709 433.228 264.653 433.221C264.556 433.209 264.459 433.195 264.363 433.181C264.295 433.171 264.227 433.161 264.16 433.15C264.07 433.135 263.981 433.121 263.893 433.105C263.756 433.08 263.62 433.053 263.487 433.024L263.429 433.012C259.473 432.126 255.43 430.488 251.392 428.25C251.261 428.178 251.13 428.105 251 428.032C250.741 427.886 250.482 427.737 250.224 427.586C250.099 427.514 249.974 427.44 249.85 427.367C249.583 427.209 249.316 427.049 249.05 426.886C248.928 426.812 248.807 426.737 248.686 426.661C248.421 426.497 248.156 426.331 247.892 426.161C247.762 426.078 247.632 425.995 247.502 425.911C247.248 425.746 246.995 425.579 246.742 425.411C246.61 425.322 246.478 425.234 246.346 425.145C246.093 424.974 245.841 424.801 245.589 424.626C245.455 424.534 245.323 424.44 245.189 424.346C244.944 424.173 244.698 423.999 244.453 423.823C244.314 423.723 244.176 423.622 244.037 423.521C243.775 423.329 243.513 423.136 243.251 422.94C243.143 422.859 243.035 422.777 242.927 422.695C242.662 422.495 242.398 422.293 242.134 422.088C242.007 421.99 241.88 421.891 241.753 421.791C241.491 421.586 241.228 421.378 240.967 421.168C240.86 421.083 240.754 420.996 240.647 420.91C240.369 420.684 240.091 420.457 239.813 420.227C239.711 420.142 239.608 420.056 239.506 419.97C239.239 419.746 238.971 419.521 238.705 419.293C238.594 419.199 238.484 419.104 238.373 419.008C238.101 418.773 237.829 418.536 237.558 418.296C237.458 418.209 237.36 418.121 237.261 418.033C236.987 417.789 236.713 417.543 236.44 417.295C236.353 417.216 236.266 417.136 236.179 417.056C235.881 416.783 235.583 416.509 235.286 416.231C235.22 416.169 235.153 416.106 235.087 416.043C234.81 415.782 234.533 415.519 234.257 415.254C234.135 415.137 234.014 415.02 233.893 414.902C233.643 414.66 233.394 414.417 233.146 414.172C233.026 414.053 232.906 413.933 232.785 413.813C232.553 413.581 232.321 413.349 232.09 413.115C231.953 412.976 231.818 412.836 231.682 412.697C231.436 412.444 231.19 412.191 230.945 411.936C230.879 411.867 230.812 411.797 230.746 411.728C230.099 411.05 229.458 410.362 228.822 409.663C228.743 409.577 228.666 409.49 228.587 409.403C227.615 408.329 226.655 407.232 225.712 406.116C225.64 406.031 225.569 405.946 225.498 405.862C224.891 405.14 224.29 404.411 223.697 403.673C223.609 403.564 223.522 403.454 223.435 403.344C223.193 403.041 222.951 402.738 222.712 402.433C222.617 402.312 222.523 402.19 222.429 402.069C222.201 401.777 221.974 401.484 221.748 401.19C221.646 401.057 221.545 400.923 221.443 400.789C221.22 400.495 220.996 400.202 220.774 399.906C220.701 399.807 220.629 399.708 220.556 399.61C219.352 397.991 218.183 396.345 217.055 394.678C217.004 394.603 216.953 394.528 216.902 394.453C216.667 394.103 216.432 393.754 216.2 393.403C216.108 393.263 216.017 393.121 215.925 392.981C215.722 392.672 215.52 392.363 215.32 392.053C215.246 391.937 215.172 391.821 215.098 391.704C214.887 391.375 214.677 391.045 214.47 390.714C214.397 390.599 214.326 390.483 214.254 390.368C213.493 389.146 212.754 387.919 212.04 386.685C211.941 386.514 211.844 386.341 211.746 386.169C211.587 385.891 211.427 385.613 211.27 385.333C211.154 385.127 211.04 384.92 210.926 384.714C210.789 384.468 210.652 384.223 210.518 383.977C210.383 383.73 210.25 383.482 210.117 383.235C206.826 377.113 204.164 370.93 202.341 364.997L202.437 364.986C199.922 360.521 197.678 355.459 195.718 350.029C195.737 350.027 195.757 350.026 195.776 350.024C195.652 349.746 195.528 349.468 195.404 349.189C195.019 348.319 194.639 347.443 194.265 346.563C194.299 359.38 193.351 371.321 191.068 377.723C189.423 382.338 183.793 387.241 176.558 390.83C176.566 390.832 176.575 390.833 176.583 390.834C175.266 391.485 173.895 392.088 172.486 392.638C157.591 398.53 138.343 398.475 131.689 381.017C131.211 379.888 130.782 378.686 130.409 377.407C124.934 358.619 128.096 342.214 135.02 329.072C136.079 327.113 137.208 325.21 138.388 323.363C141.745 318.233 145.644 313.71 149.715 309.859C151.811 307.669 153.981 305.678 156.188 303.913C137.556 305.432 121.734 299.939 110.798 283.227C101.509 269.032 96.1795 254.555 94.4306 240.416C92.1864 240.547 89.6675 240.576 86.8398 240.488C72.7757 240.05 61.6858 229.686 62.0703 217.34C62.4549 204.995 74.1683 195.342 88.2324 195.78C93.2891 195.937 97.3413 196.386 100.585 197.083C101.03 196.045 101.496 195.012 101.983 193.987C100.482 192.586 98.8704 190.402 97.081 187.152C90.6088 175.395 90.975 162.773 94.5205 160.821C97.8335 158.997 107.534 164.501 114.072 174.824C124.656 161.287 140.25 149.673 161.104 140.627C163.218 139.71 165.332 138.835 167.442 138.005C182.179 131.948 196.992 128.048 211.282 127.633C209.125 117.839 210.899 109.366 213.941 108.123Z"/>
</mask>
<path fill-rule="evenodd" clip-rule="evenodd" d="M213.941 108.123C217.688 106.594 227.733 114.245 232.805 126.67C233.343 127.989 233.775 129.19 234.112 130.284C234.378 130.358 234.643 130.434 234.907 130.511C234.931 130.471 234.955 130.43 234.978 130.39C242.131 118.272 256.552 113.539 267.189 119.817C277.826 126.095 280.651 141.008 273.499 153.125C272.927 154.094 272.363 155.011 271.812 155.88C274.614 159.28 277.326 163.025 279.937 167.138C279.891 167.166 279.845 167.192 279.8 167.22C284.022 173.927 287.929 181.61 291.478 190.354C293.829 196.148 295.248 201.505 295.797 206.515C296.778 207.264 297.601 208.25 298.169 209.441C299.961 213.2 298.577 217.654 295.093 219.771C292.627 230.398 285.504 239.538 274.555 248.46C296.531 237.786 331.415 223.618 354.034 235.186C381.627 249.297 375.732 277.547 352.759 277.846C344.608 277.952 323.871 276.532 304.32 274.413C312.323 279.806 319.493 286.211 325.039 293.4C339.978 290.672 391.358 315.971 386.318 345.729C382.144 370.371 366.414 384.449 350.411 383.463C350.366 383.461 350.321 383.457 350.275 383.454C349.786 383.422 349.298 383.375 348.809 383.314C348.718 383.303 348.628 383.291 348.537 383.279C348.409 383.261 348.282 383.244 348.154 383.225C347.943 383.193 347.731 383.159 347.52 383.121C347.432 383.106 347.345 383.09 347.258 383.074C347.11 383.046 346.962 383.017 346.813 382.987C346.667 382.957 346.521 382.925 346.375 382.893C346.205 382.855 346.036 382.816 345.866 382.775C345.787 382.755 345.707 382.736 345.628 382.716C345.424 382.665 345.22 382.611 345.017 382.554C344.982 382.545 344.947 382.536 344.913 382.527C344.883 382.518 344.854 382.508 344.824 382.499C333.298 379.206 322.453 369.169 311.931 357.671C306.705 361.145 300.935 364.53 294.915 367.718C307.621 379.231 310.122 391.83 304.009 410.672C301.447 418.568 290.083 426.629 279.265 430.677L279.266 430.678C279.252 430.683 279.239 430.687 279.226 430.692C278.885 430.819 278.544 430.942 278.205 431.061C278.177 431.071 278.149 431.081 278.121 431.091C277.767 431.215 277.414 431.334 277.062 431.449C277.045 431.454 277.027 431.459 277.009 431.465C276.668 431.576 276.328 431.682 275.989 431.784C275.963 431.791 275.937 431.798 275.911 431.806C275.221 432.012 274.538 432.199 273.864 432.367C273.803 432.382 273.741 432.397 273.68 432.411C273.378 432.485 273.077 432.555 272.779 432.62C272.755 432.626 272.731 432.632 272.707 432.637C272.562 432.669 272.417 432.698 272.273 432.727C272.218 432.738 272.163 432.75 272.107 432.761C271.974 432.788 271.842 432.813 271.71 432.838C271.64 432.852 271.569 432.864 271.499 432.876C271.243 432.923 270.989 432.966 270.736 433.006C270.702 433.012 270.668 433.018 270.634 433.023C270.484 433.046 270.335 433.068 270.187 433.088C270.12 433.098 270.053 433.106 269.986 433.115C269.813 433.138 269.641 433.159 269.47 433.179C269.354 433.192 269.239 433.205 269.125 433.217C269.011 433.229 268.898 433.239 268.785 433.249C268.699 433.257 268.613 433.264 268.527 433.271C268.154 433.3 267.786 433.321 267.426 433.332C267.337 433.335 267.25 433.337 267.162 433.339C267.063 433.341 266.965 433.344 266.867 433.344C266.8 433.344 266.734 433.343 266.668 433.343C266.449 433.342 266.232 433.338 266.019 433.329C265.983 433.328 265.948 433.327 265.913 433.326C265.799 433.32 265.686 433.314 265.573 433.307C265.502 433.302 265.432 433.297 265.361 433.291C265.179 433.277 265 433.26 264.822 433.24C264.766 433.233 264.709 433.228 264.653 433.221C264.556 433.209 264.459 433.195 264.363 433.181C264.295 433.171 264.227 433.161 264.16 433.15C264.07 433.135 263.981 433.121 263.893 433.105C263.756 433.08 263.62 433.053 263.487 433.024L263.429 433.012C259.473 432.126 255.43 430.488 251.392 428.25C251.261 428.178 251.13 428.105 251 428.032C250.741 427.886 250.482 427.737 250.224 427.586C250.099 427.514 249.974 427.44 249.85 427.367C249.583 427.209 249.316 427.049 249.05 426.886C248.928 426.812 248.807 426.737 248.686 426.661C248.421 426.497 248.156 426.331 247.892 426.161C247.762 426.078 247.632 425.995 247.502 425.911C247.248 425.746 246.995 425.579 246.742 425.411C246.61 425.322 246.478 425.234 246.346 425.145C246.093 424.974 245.841 424.801 245.589 424.626C245.455 424.534 245.323 424.44 245.189 424.346C244.944 424.173 244.698 423.999 244.453 423.823C244.314 423.723 244.176 423.622 244.037 423.521C243.775 423.329 243.513 423.136 243.251 422.94C243.143 422.859 243.035 422.777 242.927 422.695C242.662 422.495 242.398 422.293 242.134 422.088C242.007 421.99 241.88 421.891 241.753 421.791C241.491 421.586 241.228 421.378 240.967 421.168C240.86 421.083 240.754 420.996 240.647 420.91C240.369 420.684 240.091 420.457 239.813 420.227C239.711 420.142 239.608 420.056 239.506 419.97C239.239 419.746 238.971 419.521 238.705 419.293C238.594 419.199 238.484 419.104 238.373 419.008C238.101 418.773 237.829 418.536 237.558 418.296C237.458 418.209 237.36 418.121 237.261 418.033C236.987 417.789 236.713 417.543 236.44 417.295C236.353 417.216 236.266 417.136 236.179 417.056C235.881 416.783 235.583 416.509 235.286 416.231C235.22 416.169 235.153 416.106 235.087 416.043C234.81 415.782 234.533 415.519 234.257 415.254C234.135 415.137 234.014 415.02 233.893 414.902C233.643 414.66 233.394 414.417 233.146 414.172C233.026 414.053 232.906 413.933 232.785 413.813C232.553 413.581 232.321 413.349 232.09 413.115C231.953 412.976 231.818 412.836 231.682 412.697C231.436 412.444 231.19 412.191 230.945 411.936C230.879 411.867 230.812 411.797 230.746 411.728C230.099 411.05 229.458 410.362 228.822 409.663C228.743 409.577 228.666 409.49 228.587 409.403C227.615 408.329 226.655 407.232 225.712 406.116C225.64 406.031 225.569 405.946 225.498 405.862C224.891 405.14 224.29 404.411 223.697 403.673C223.609 403.564 223.522 403.454 223.435 403.344C223.193 403.041 222.951 402.738 222.712 402.433C222.617 402.312 222.523 402.19 222.429 402.069C222.201 401.777 221.974 401.484 221.748 401.19C221.646 401.057 221.545 400.923 221.443 400.789C221.22 400.495 220.996 400.202 220.774 399.906C220.701 399.807 220.629 399.708 220.556 399.61C219.352 397.991 218.183 396.345 217.055 394.678C217.004 394.603 216.953 394.528 216.902 394.453C216.667 394.103 216.432 393.754 216.2 393.403C216.108 393.263 216.017 393.121 215.925 392.981C215.722 392.672 215.52 392.363 215.32 392.053C215.246 391.937 215.172 391.821 215.098 391.704C214.887 391.375 214.677 391.045 214.47 390.714C214.397 390.599 214.326 390.483 214.254 390.368C213.493 389.146 212.754 387.919 212.04 386.685C211.941 386.514 211.844 386.341 211.746 386.169C211.587 385.891 211.427 385.613 211.27 385.333C211.154 385.127 211.04 384.92 210.926 384.714C210.789 384.468 210.652 384.223 210.518 383.977C210.383 383.73 210.25 383.482 210.117 383.235C206.826 377.113 204.164 370.93 202.341 364.997L202.437 364.986C199.922 360.521 197.678 355.459 195.718 350.029C195.737 350.027 195.757 350.026 195.776 350.024C195.652 349.746 195.528 349.468 195.404 349.189C195.019 348.319 194.639 347.443 194.265 346.563C194.299 359.38 193.351 371.321 191.068 377.723C189.423 382.338 183.793 387.241 176.558 390.83C176.566 390.832 176.575 390.833 176.583 390.834C175.266 391.485 173.895 392.088 172.486 392.638C157.591 398.53 138.343 398.475 131.689 381.017C131.211 379.888 130.782 378.686 130.409 377.407C124.934 358.619 128.096 342.214 135.02 329.072C136.079 327.113 137.208 325.21 138.388 323.363C141.745 318.233 145.644 313.71 149.715 309.859C151.811 307.669 153.981 305.678 156.188 303.913C137.556 305.432 121.734 299.939 110.798 283.227C101.509 269.032 96.1795 254.555 94.4306 240.416C92.1864 240.547 89.6675 240.576 86.8398 240.488C72.7757 240.05 61.6858 229.686 62.0703 217.34C62.4549 204.995 74.1683 195.342 88.2324 195.78C93.2891 195.937 97.3413 196.386 100.585 197.083C101.03 196.045 101.496 195.012 101.983 193.987C100.482 192.586 98.8704 190.402 97.081 187.152C90.6088 175.395 90.975 162.773 94.5205 160.821C97.8335 158.997 107.534 164.501 114.072 174.824C124.656 161.287 140.25 149.673 161.104 140.627C163.218 139.71 165.332 138.835 167.442 138.005C182.179 131.948 196.992 128.048 211.282 127.633C209.125 117.839 210.899 109.366 213.941 108.123Z" fill="#FFAAAB"/>
<path d="M213.941 108.123L210.268 99.1242L210.267 99.1245L213.941 108.123ZM232.805 126.67L241.804 122.997L241.804 122.997L232.805 126.67ZM234.112 130.284L224.823 133.147L226.386 138.217L231.496 139.645L234.112 130.284ZM234.907 130.511L232.179 139.84L239.444 141.965L243.284 135.442L234.907 130.511ZM234.978 130.39L226.608 125.449L226.608 125.45L234.978 130.39ZM267.189 119.817L272.13 111.446L272.13 111.446L267.189 119.817ZM273.499 153.125L281.87 158.066L281.87 158.066L273.499 153.125ZM271.812 155.88L263.602 150.678L259.832 156.627L264.311 162.062L271.812 155.88ZM279.937 167.138L285.088 175.38L293.388 170.193L288.143 161.929L279.937 167.138ZM279.8 167.22L274.675 158.961L266.362 164.119L271.574 172.398L279.8 167.22ZM291.478 190.354L300.484 186.699V186.699L291.478 190.354ZM295.797 206.515L286.135 207.574L286.588 211.712L289.897 214.239L295.797 206.515ZM298.169 209.441L306.943 205.258L306.943 205.257L298.169 209.441ZM295.093 219.771L290.046 211.463L286.549 213.588L285.624 217.574L295.093 219.771ZM274.555 248.46L268.414 240.926L278.801 257.204L274.555 248.46ZM354.034 235.186L358.46 226.532L358.46 226.532L354.034 235.186ZM352.759 277.846L352.885 287.565V287.565L352.759 277.846ZM304.32 274.413L305.368 264.75L298.888 282.474L304.32 274.413ZM325.039 293.4L317.343 299.337L320.96 304.025L326.785 302.962L325.039 293.4ZM386.318 345.729L395.902 347.352L395.902 347.352L386.318 345.729ZM350.411 383.463L351.008 373.762L351.003 373.761L350.411 383.463ZM350.275 383.454L349.627 393.153L349.632 393.153L350.275 383.454ZM348.809 383.314L350.011 373.669L350.006 373.668L348.809 383.314ZM348.537 383.279L347.232 392.911L347.238 392.911L348.537 383.279ZM348.154 383.225L349.603 373.613L349.597 373.613L348.154 383.225ZM347.52 383.121L345.834 392.694L345.839 392.695L347.52 383.121ZM347.258 383.074L349.041 373.519L349.036 373.518L347.258 383.074ZM346.813 382.987L344.865 392.509L344.869 392.51L346.813 382.987ZM346.375 382.893L348.485 373.405L348.482 373.404L346.375 382.893ZM345.866 382.775L343.569 392.219L343.571 392.22L345.866 382.775ZM345.628 382.716L348.012 373.293L348.01 373.293L345.628 382.716ZM345.017 382.554L342.41 391.918L342.411 391.918L345.017 382.554ZM344.913 382.527L342.269 391.88V391.88L344.913 382.527ZM344.824 382.499L347.504 373.156L347.495 373.153L344.824 382.499ZM311.931 357.671L319.101 351.109L313.481 344.968L306.55 349.577L311.931 357.671ZM294.915 367.718L290.366 359.129L278.118 365.615L288.388 374.921L294.915 367.718ZM304.009 410.672L313.254 413.672L313.254 413.672L304.009 410.672ZM279.265 430.677L275.858 421.574L261.709 426.868L272.392 437.55L279.265 430.677ZM279.266 430.678L282.672 439.782L296.821 434.487L286.139 423.805L279.266 430.678ZM279.226 430.692L275.826 421.586L275.826 421.586L279.226 430.692ZM278.205 431.061L281.424 440.232L281.424 440.232L278.205 431.061ZM278.121 431.091L274.917 421.914L274.917 421.914L278.121 431.091ZM277.062 431.449L280.07 440.692L280.07 440.692L277.062 431.449ZM277.009 431.465L274.012 422.219L274.012 422.219L277.009 431.465ZM275.989 431.784L278.786 441.092H278.786L275.989 431.784ZM275.911 431.806L273.13 422.492H273.13L275.911 431.806ZM273.864 432.367L276.203 441.801H276.203L273.864 432.367ZM273.68 432.411L271.384 422.967H271.384L273.68 432.411ZM272.779 432.62L274.856 442.116L274.857 442.116L272.779 432.62ZM272.707 432.637L270.648 423.138L270.648 423.138L272.707 432.637ZM272.273 432.727L274.221 442.25L274.221 442.25L272.273 432.727ZM272.107 432.761L270.204 423.229L270.204 423.229L272.107 432.761ZM271.71 432.838L273.506 442.391L273.506 442.391L271.71 432.838ZM271.499 432.876L269.761 423.313L269.761 423.313L271.499 432.876ZM270.736 433.006L272.252 442.607L272.252 442.607L270.736 433.006ZM270.634 433.023L269.149 423.417L269.149 423.417L270.634 433.023ZM270.187 433.088L271.532 442.715L271.532 442.715L270.187 433.088ZM269.986 433.115L268.706 423.479L268.705 423.479L269.986 433.115ZM269.47 433.179L270.577 442.836L270.578 442.836L269.47 433.179ZM269.125 433.217L268.138 423.547L268.138 423.547L269.125 433.217ZM268.785 433.249L269.648 442.931L269.648 442.931L268.785 433.249ZM268.527 433.271L267.762 423.581L267.762 423.581L268.527 433.271ZM267.426 433.332L267.737 443.047H267.737L267.426 433.332ZM267.162 433.339L266.97 423.621H266.969L267.162 433.339ZM266.867 433.344L266.921 443.064H266.922L266.867 433.344ZM266.668 433.343L266.71 423.623H266.71L266.668 433.343ZM266.019 433.329L265.641 443.042L265.642 443.042L266.019 433.329ZM265.913 433.326L266.348 423.615L266.347 423.615L265.913 433.326ZM265.573 433.307L264.946 443.007L264.947 443.007L265.573 433.307ZM265.361 433.291L266.113 423.601L266.113 423.6L265.361 433.291ZM264.822 433.24L263.732 442.898L263.733 442.898L264.822 433.24ZM264.653 433.221L265.856 423.576L265.855 423.576L264.653 433.221ZM264.363 433.181L262.96 442.799L262.96 442.799L264.363 433.181ZM264.16 433.15L265.71 423.554L265.71 423.554L264.16 433.15ZM263.893 433.105L262.141 442.666L262.141 442.666L263.893 433.105ZM263.487 433.024L265.564 423.528L265.479 423.51L265.394 423.493L263.487 433.024ZM263.429 433.012L261.303 442.497L261.413 442.521L261.522 442.543L263.429 433.012ZM251.392 428.25L256.103 419.748L256.103 419.748L251.392 428.25ZM251 428.032L246.226 436.499L246.226 436.499L251 428.032ZM250.224 427.586L255.119 419.189L255.119 419.189L250.224 427.586ZM249.85 427.367L244.898 435.731L244.898 435.731L249.85 427.367ZM249.05 426.886L254.12 418.594L254.12 418.594L249.05 426.886ZM248.686 426.661L243.562 434.922L243.562 434.922L248.686 426.661ZM247.892 426.161L253.127 417.972L253.127 417.972L247.892 426.161ZM247.502 425.911L242.212 434.065L242.212 434.065L247.502 425.911ZM246.742 425.411L252.134 417.323L252.134 417.323L246.742 425.411ZM246.346 425.145L240.901 433.197L240.901 433.197L246.346 425.145ZM245.589 424.626L251.131 416.641L251.131 416.641L245.589 424.626ZM245.189 424.346L239.597 432.296L239.597 432.296L245.189 424.346ZM244.453 423.823L250.137 415.938L250.137 415.938L244.453 423.823ZM244.037 423.521L238.303 431.369L238.303 431.369L244.037 423.521ZM243.251 422.94L249.078 415.16L249.078 415.16L243.251 422.94ZM242.927 422.695L237.062 430.446L237.062 430.446L242.927 422.695ZM242.134 422.088L248.089 414.406L248.089 414.406L242.134 422.088ZM241.753 421.791L235.756 429.441L235.756 429.441L241.753 421.791ZM240.967 421.168L247.05 413.587L247.05 413.587L240.967 421.168ZM240.647 420.91L234.53 428.463L234.53 428.463L240.647 420.91ZM239.813 420.227L246.019 412.745L246.018 412.745L239.813 420.227ZM239.506 419.97L233.269 427.425L233.269 427.425L239.506 419.97ZM238.705 419.293L245.023 411.907L245.023 411.907L238.705 419.293ZM238.373 419.008L232.022 426.366L232.022 426.366L238.373 419.008ZM237.558 418.296L243.989 411.008L243.989 411.008L237.558 418.296ZM237.261 418.033L230.801 425.296L230.801 425.296L237.261 418.033ZM236.44 417.295L242.978 410.102L242.978 410.102L236.44 417.295ZM236.179 417.056L229.617 424.227L229.617 424.227L236.179 417.056ZM235.286 416.231L241.93 409.136L241.93 409.136L235.286 416.231ZM235.087 416.043L228.425 423.121L228.425 423.121L235.087 416.043ZM234.257 415.254L240.993 408.247L240.993 408.247L234.257 415.254ZM233.893 414.902L227.124 421.878L227.124 421.878L233.893 414.902ZM233.146 414.172L239.979 407.259L239.979 407.259L233.146 414.172ZM232.785 413.813L225.921 420.695L225.921 420.695L232.785 413.813ZM232.09 413.115L239.012 406.291L239.012 406.291L232.09 413.115ZM231.682 412.697L224.725 419.485L224.725 419.485L231.682 412.697ZM230.945 411.936L237.963 405.21L237.963 405.21L230.945 411.936ZM230.746 411.728L223.712 418.437L223.713 418.437L230.746 411.728ZM228.822 409.663L236.01 403.12L236.009 403.12L228.822 409.663ZM228.587 409.403L221.381 415.926L221.381 415.926L228.587 409.403ZM225.712 406.116L233.137 399.843L233.137 399.843L225.712 406.116ZM225.498 405.862L218.057 412.115L218.057 412.116L225.498 405.862ZM223.697 403.673L231.271 397.581L231.271 397.581L223.697 403.673ZM223.435 403.344L215.842 409.413L215.842 409.413L223.435 403.344ZM222.712 402.433L230.357 396.431L230.357 396.43L222.712 402.433ZM222.429 402.069L214.763 408.045L214.763 408.045L222.429 402.069ZM221.748 401.19L229.463 395.277L229.463 395.277L221.748 401.19ZM221.443 400.789L213.707 406.674L213.707 406.674L221.443 400.789ZM220.774 399.906L228.559 394.085L228.559 394.085L220.774 399.906ZM220.556 399.61L212.756 405.41L212.756 405.41L220.556 399.61ZM217.055 394.678L225.103 389.229L225.103 389.229L217.055 394.678ZM216.902 394.453L208.843 399.886L208.843 399.886L216.902 394.453ZM216.2 393.403L224.31 388.044L224.31 388.044L216.2 393.403ZM215.925 392.981L207.795 398.309L207.795 398.309L215.925 392.981ZM215.32 392.053L223.493 386.792L223.493 386.792L215.32 392.053ZM215.098 391.704L206.909 396.941L206.909 396.941L215.098 391.704ZM214.47 390.714L222.704 385.549L222.704 385.549L214.47 390.714ZM214.254 390.368L206.004 395.507L206.004 395.507L214.254 390.368ZM212.04 386.685L220.453 381.817L220.453 381.817L212.04 386.685ZM211.746 386.169L203.31 390.998L203.31 390.998L211.746 386.169ZM211.27 385.333L219.741 380.568L219.741 380.568L211.27 385.333ZM210.926 384.714L202.428 389.432V389.432L210.926 384.714ZM210.518 383.977L219.047 379.316L219.047 379.316L210.518 383.977ZM210.117 383.235L201.556 387.838H201.556L210.117 383.235ZM202.341 364.997L201.159 355.35L189.641 356.76L193.05 367.852L202.341 364.997ZM202.437 364.986L203.618 374.634L218.033 372.869L210.905 360.215L202.437 364.986ZM195.718 350.029L194.838 340.349L182.3 341.488L186.575 353.329L195.718 350.029ZM195.776 350.024L196.641 359.705L210.233 358.492L204.644 346.043L195.776 350.024ZM195.404 349.189L186.518 353.127L186.518 353.127L195.404 349.189ZM194.265 346.563L203.209 342.757L184.545 346.589L194.265 346.563ZM191.068 377.723L200.224 380.988L200.224 380.988L191.068 377.723ZM176.558 390.83L172.238 382.123L143.966 396.15L175.23 400.459L176.558 390.83ZM176.583 390.834L180.887 399.55L209.309 385.515L177.905 381.205L176.583 390.834ZM172.486 392.638L168.952 383.584L168.931 383.591L168.911 383.6L172.486 392.638ZM131.689 381.017L140.772 377.556L140.708 377.388L140.638 377.223L131.689 381.017ZM130.409 377.407L121.077 380.126L121.077 380.126L130.409 377.407ZM135.02 329.072L126.469 324.451L126.445 324.496L126.421 324.541L135.02 329.072ZM138.388 323.363L130.255 318.04L130.225 318.085L130.196 318.13L138.388 323.363ZM149.715 309.859L156.396 316.919L156.57 316.754L156.736 316.58L149.715 309.859ZM156.188 303.913L162.259 311.505L187.099 291.642L155.399 294.226L156.188 303.913ZM110.798 283.227L102.665 288.549L102.665 288.549L110.798 283.227ZM94.4306 240.416L104.077 239.223L102.959 230.183L93.8657 230.713L94.4306 240.416ZM86.8398 240.488L86.5372 250.203H86.5372L86.8398 240.488ZM62.0703 217.34L52.355 217.038L52.355 217.038L62.0703 217.34ZM88.2324 195.78L88.535 186.064H88.535L88.2324 195.78ZM100.585 197.083L98.5406 206.586L106.365 208.269L109.519 200.913L100.585 197.083ZM101.983 193.987L110.762 198.161L113.818 191.734L108.614 186.879L101.983 193.987ZM97.081 187.152L88.566 191.839L88.5661 191.839L97.081 187.152ZM94.5205 160.821L89.8329 152.306L89.8324 152.306L94.5205 160.821ZM114.072 174.824L105.861 180.025L113.238 191.671L121.73 180.811L114.072 174.824ZM161.104 140.627L157.237 131.71V131.71L161.104 140.627ZM167.442 138.005L170.999 147.051L171.069 147.024L171.138 146.995L167.442 138.005ZM211.282 127.633L211.564 137.349L223.3 137.009L220.775 125.543L211.282 127.633ZM213.941 108.123L217.615 117.123C214.771 118.283 212.942 117.121 213.768 117.493C214.132 117.657 215.056 118.194 216.349 119.366C218.895 121.674 221.824 125.49 223.806 130.344L232.805 126.67L241.804 122.997C238.713 115.425 234.084 109.203 229.403 104.962C227.083 102.858 224.476 100.994 221.744 99.7646C219.475 98.7437 214.985 97.1988 210.268 99.1242L213.941 108.123ZM232.805 126.67L223.805 130.344C224.254 131.441 224.584 132.369 224.823 133.147L234.112 130.284L243.401 127.421C242.966 126.011 242.433 124.538 241.804 122.997L232.805 126.67ZM234.112 130.284L231.496 139.645C231.719 139.707 231.947 139.772 232.179 139.84L234.907 130.511L237.636 121.182C237.338 121.095 237.036 121.008 236.729 120.922L234.112 130.284ZM234.907 130.511L243.284 135.442C243.314 135.39 243.329 135.365 243.349 135.331L234.978 130.39L226.608 125.45C226.58 125.496 226.548 125.552 226.531 125.58L234.907 130.511ZM234.978 130.39L243.349 135.331C248.397 126.778 257.226 125.223 262.249 128.188L267.189 119.817L272.13 111.446C255.879 101.854 235.864 109.767 226.608 125.449L234.978 130.39ZM267.189 119.817L262.249 128.187C267.271 131.152 270.176 139.632 265.128 148.185L273.499 153.125L281.87 158.066C291.126 142.384 288.381 121.039 272.13 111.446L267.189 119.817ZM273.499 153.125L265.128 148.185C264.614 149.056 264.104 149.885 263.602 150.678L271.812 155.88L280.023 161.083C280.622 160.137 281.24 159.133 281.87 158.066L273.499 153.125ZM271.812 155.88L264.311 162.062C266.843 165.133 269.321 168.551 271.73 172.347L279.937 167.138L288.143 161.929C285.331 157.499 282.386 153.427 279.314 149.699L271.812 155.88ZM279.937 167.138L274.785 158.896C274.843 158.86 274.888 158.832 274.912 158.818C274.934 158.805 274.95 158.796 274.937 158.803C274.933 158.805 274.922 158.812 274.91 158.819C274.897 158.826 274.879 158.837 274.857 158.85C274.815 158.875 274.751 158.914 274.675 158.961L279.8 167.22L284.925 175.479C284.871 175.512 284.83 175.537 284.811 175.549C284.795 175.558 284.781 175.566 284.8 175.555C284.81 175.549 284.848 175.527 284.893 175.5C284.94 175.472 285.008 175.431 285.088 175.38L279.937 167.138ZM279.8 167.22L271.574 172.398C275.455 178.563 279.11 185.727 282.471 194.009L291.478 190.354L300.484 186.699C296.748 177.493 292.589 169.29 288.026 162.042L279.8 167.22ZM291.478 190.354L282.471 194.009C284.554 199.141 285.701 203.62 286.135 207.574L295.797 206.515L305.459 205.456C304.794 199.39 303.104 193.156 300.484 186.699L291.478 190.354ZM295.797 206.515L289.897 214.239C289.687 214.079 289.51 213.864 289.395 213.624L298.169 209.441L306.943 205.257C305.693 202.636 303.868 200.449 301.697 198.791L295.797 206.515ZM298.169 209.441L289.395 213.624C289.018 212.833 289.312 211.91 290.046 211.463L295.093 219.771L300.139 228.078C307.843 223.399 310.904 213.567 306.943 205.258L298.169 209.441ZM295.093 219.771L285.624 217.574C283.849 225.224 278.561 232.656 268.414 240.926L274.555 248.46L280.695 255.995C292.446 246.419 301.405 235.572 304.561 221.968L295.093 219.771ZM274.555 248.46L278.801 257.204C289.586 251.965 303.054 246.118 316.321 242.934C329.871 239.683 341.418 239.651 349.608 243.84L354.034 235.186L358.46 226.532C344.03 219.153 326.826 220.422 311.785 224.031C296.461 227.708 281.499 234.281 270.308 239.717L274.555 248.46ZM354.034 235.186L349.608 243.84C360.878 249.604 363.075 256.885 362.688 260.718C362.334 264.215 359.644 268.036 352.632 268.127L352.759 277.846L352.885 287.565C368.847 287.357 380.59 276.903 382.029 262.673C383.434 248.778 374.782 234.879 358.46 226.532L354.034 235.186ZM352.759 277.846L352.632 268.127C345.112 268.225 324.874 266.864 305.368 264.75L304.32 274.413L303.273 284.077C322.868 286.2 344.105 287.68 352.885 287.565L352.759 277.846ZM304.32 274.413L298.888 282.474C306.196 287.399 312.547 293.119 317.343 299.337L325.039 293.4L332.735 287.463C326.44 279.302 318.449 272.214 309.752 266.353L304.32 274.413ZM325.039 293.4L326.785 302.962C327.854 302.767 331.798 303.042 338.343 305.39C344.392 307.56 351.307 311.012 357.656 315.386C364.049 319.792 369.435 324.834 372.882 330.006C376.287 335.113 377.466 339.789 376.735 344.106L386.318 345.729L395.902 347.352C397.691 336.79 394.337 327.144 389.059 319.224C383.822 311.368 376.375 304.677 368.686 299.379C360.952 294.05 352.536 289.828 344.907 287.092C337.774 284.533 329.694 282.669 323.293 283.838L325.039 293.4ZM386.318 345.729L376.735 344.106C373.031 365.972 360.163 374.325 351.008 373.762L350.411 383.463L349.814 393.165C372.664 394.572 391.258 374.77 395.902 347.352L386.318 345.729ZM350.411 383.463L351.003 373.761C350.989 373.76 350.974 373.759 350.919 373.756L350.275 383.454L349.632 393.153C349.667 393.155 349.742 393.161 349.819 393.165L350.411 383.463ZM350.275 383.454L350.924 373.756C350.623 373.736 350.319 373.707 350.011 373.669L348.809 383.314L347.606 392.959C348.276 393.043 348.95 393.108 349.627 393.153L350.275 383.454ZM348.809 383.314L350.006 373.668C349.95 373.661 349.893 373.654 349.836 373.646L348.537 383.279L347.238 392.911C347.362 392.928 347.487 392.944 347.612 392.96L348.809 383.314ZM348.537 383.279L349.842 373.647C349.696 373.627 349.644 373.62 349.603 373.613L348.154 383.225L346.706 392.836C346.919 392.869 347.123 392.896 347.232 392.911L348.537 383.279ZM348.154 383.225L349.597 373.613C349.47 373.594 349.338 373.572 349.2 373.548L347.52 383.121L345.839 392.695C346.125 392.745 346.416 392.793 346.711 392.837L348.154 383.225ZM347.52 383.121L349.205 373.549C349.172 373.543 349.129 373.535 349.041 373.519L347.258 383.074L345.475 392.629C345.561 392.645 345.692 392.669 345.834 392.694L347.52 383.121ZM347.258 383.074L349.036 373.518C348.952 373.502 348.86 373.484 348.758 373.463L346.813 382.987L344.869 392.51C345.063 392.55 345.267 392.59 345.479 392.629L347.258 383.074ZM346.813 382.987L348.761 373.464C348.675 373.446 348.584 373.427 348.485 373.405L346.375 382.893L344.265 392.381C344.459 392.424 344.659 392.467 344.865 392.509L346.813 382.987ZM346.375 382.893L348.482 373.404C348.371 373.379 348.264 373.355 348.161 373.33L345.866 382.775L343.571 392.22C343.808 392.277 344.04 392.331 344.268 392.382L346.375 382.893ZM345.866 382.775L348.163 373.33C348.06 373.305 348.036 373.299 348.012 373.293L345.628 382.716L343.244 392.139C343.378 392.173 343.513 392.206 343.569 392.219L345.866 382.775ZM345.628 382.716L348.01 373.293C347.875 373.258 347.746 373.224 347.623 373.19L345.017 382.554L342.411 391.918C342.694 391.997 342.973 392.071 343.246 392.14L345.628 382.716ZM345.017 382.554L347.623 373.19C347.548 373.169 347.486 373.153 347.446 373.142C347.426 373.137 347.409 373.133 347.397 373.13C347.387 373.127 347.377 373.124 347.376 373.124C347.372 373.123 347.375 373.124 347.381 373.126C347.387 373.127 347.398 373.13 347.413 373.134C347.442 373.141 347.493 373.155 347.557 373.173L344.913 382.527L342.269 391.88C342.351 391.903 342.419 391.922 342.465 391.934C342.509 391.945 342.546 391.955 342.554 391.957C342.571 391.961 342.554 391.957 342.536 391.952C342.513 391.946 342.468 391.934 342.41 391.918L345.017 382.554ZM344.913 382.527L347.557 373.173C347.649 373.199 347.722 373.222 347.765 373.235C347.787 373.241 347.804 373.247 347.813 373.25C347.822 373.253 347.828 373.255 347.825 373.254C347.825 373.254 347.812 373.25 347.8 373.246C347.786 373.241 347.765 373.234 347.738 373.226C347.712 373.218 347.679 373.208 347.64 373.196C347.601 373.184 347.555 373.171 347.504 373.156L344.824 382.499L342.145 391.843C342.058 391.818 341.991 391.797 341.954 391.786C341.936 391.78 341.921 391.776 341.915 391.773C341.91 391.772 341.905 391.77 341.912 391.773C341.916 391.774 341.93 391.778 341.946 391.783C341.963 391.789 341.987 391.796 342.017 391.805C342.074 391.823 342.162 391.85 342.269 391.88L344.913 382.527ZM344.824 382.499L347.495 373.153C338.911 370.701 329.716 362.708 319.101 351.109L311.931 357.671L304.76 364.233C315.19 375.63 327.685 387.711 342.154 391.845L344.824 382.499ZM311.931 357.671L306.55 349.577C301.637 352.843 296.151 356.064 290.366 359.129L294.915 367.718L299.464 376.308C305.719 372.995 311.774 369.447 317.312 365.766L311.931 357.671ZM294.915 367.718L288.388 374.921C293.608 379.65 296.07 383.958 297.004 388.432C297.979 393.104 297.533 399.134 294.763 407.673L304.009 410.672L313.254 413.672C316.597 403.369 317.957 393.677 316.034 384.461C314.069 375.047 308.928 367.299 301.442 360.515L294.915 367.718ZM304.009 410.672L294.763 407.672C294.37 408.884 292.695 411.391 288.768 414.443C285.086 417.305 280.416 419.868 275.858 421.574L279.265 430.677L282.671 439.781C288.932 437.438 295.353 433.947 300.698 429.792C305.797 425.828 311.085 420.357 313.254 413.672L304.009 410.672ZM279.265 430.677L272.392 437.55L272.393 437.551L279.266 430.678L286.139 423.805L286.138 423.804L279.265 430.677ZM279.266 430.678L275.859 421.575C275.923 421.551 275.979 421.53 276.027 421.514C276.074 421.497 276.115 421.483 276.146 421.473C276.177 421.462 276.201 421.454 276.216 421.449C276.223 421.447 276.229 421.445 276.232 421.444C276.235 421.443 276.238 421.442 276.236 421.442C276.236 421.443 276.232 421.444 276.228 421.445C276.224 421.447 276.216 421.449 276.208 421.452C276.19 421.458 276.163 421.467 276.129 421.478C276.095 421.489 276.052 421.504 276.002 421.522C275.952 421.54 275.892 421.561 275.826 421.586L279.226 430.692L282.625 439.798C282.562 439.821 282.506 439.842 282.459 439.858C282.412 439.875 282.372 439.888 282.342 439.899C282.312 439.909 282.287 439.917 282.274 439.921C282.266 439.924 282.261 439.925 282.258 439.926C282.255 439.927 282.253 439.928 282.255 439.927C282.255 439.927 282.259 439.926 282.264 439.924C282.269 439.923 282.276 439.92 282.285 439.917C282.303 439.912 282.331 439.902 282.365 439.891C282.4 439.879 282.444 439.864 282.495 439.846C282.545 439.828 282.605 439.807 282.672 439.782L279.266 430.678ZM279.226 430.692L275.826 421.586C275.552 421.688 275.272 421.789 274.986 421.889L278.205 431.061L281.424 440.232C281.817 440.095 282.218 439.95 282.625 439.798L279.226 430.692ZM278.205 431.061L274.986 421.889C274.939 421.906 274.9 421.92 274.874 421.93C274.86 421.934 274.849 421.938 274.841 421.941C274.834 421.944 274.827 421.947 274.825 421.947C274.817 421.95 274.826 421.947 274.839 421.942C274.854 421.937 274.881 421.927 274.917 421.914L278.121 431.091L281.325 440.268C281.375 440.251 281.416 440.236 281.445 440.225C281.472 440.216 281.496 440.207 281.501 440.205C281.513 440.201 281.504 440.204 281.494 440.207C281.483 440.212 281.457 440.221 281.424 440.232L278.205 431.061ZM278.121 431.091L274.917 421.914C274.621 422.018 274.334 422.115 274.055 422.205L277.062 431.449L280.07 440.692C280.494 440.554 280.913 440.412 281.325 440.268L278.121 431.091ZM277.062 431.449L274.055 422.205C274.116 422.186 274.165 422.171 274.193 422.162C274.207 422.158 274.218 422.154 274.224 422.152C274.23 422.151 274.234 422.149 274.231 422.15C274.231 422.15 274.222 422.153 274.213 422.156C274.204 422.159 274.189 422.163 274.171 422.169C274.136 422.179 274.08 422.197 274.012 422.219L277.009 431.465L280.006 440.712C279.947 440.731 279.9 440.745 279.873 440.753C279.86 440.758 279.85 440.761 279.844 440.762C279.84 440.764 279.836 440.765 279.84 440.764C279.842 440.763 279.85 440.76 279.86 440.757C279.871 440.754 279.887 440.749 279.906 440.744C279.943 440.732 280 440.714 280.07 440.692L277.062 431.449ZM277.009 431.465L274.012 422.219C273.737 422.308 273.464 422.393 273.192 422.475L275.989 431.784L278.786 441.092C279.191 440.971 279.598 440.844 280.006 440.712L277.009 431.465ZM275.989 431.784L273.192 422.475C273.238 422.461 273.273 422.451 273.293 422.445C273.303 422.442 273.311 422.44 273.314 422.439C273.317 422.438 273.319 422.438 273.316 422.439C273.315 422.439 273.307 422.441 273.299 422.443C273.29 422.446 273.277 422.45 273.262 422.454C273.232 422.462 273.186 422.476 273.13 422.492L275.911 431.806L278.692 441.12C278.65 441.132 278.616 441.142 278.599 441.147C278.585 441.151 278.573 441.154 278.584 441.151C278.589 441.15 278.616 441.142 278.646 441.133C278.679 441.124 278.728 441.11 278.786 441.092L275.989 431.784ZM275.911 431.806L273.13 422.492C272.576 422.658 272.041 422.804 271.525 422.932L273.864 432.367L276.203 441.801C277.036 441.594 277.867 441.366 278.692 441.12L275.911 431.806ZM273.864 432.367L271.526 422.932C271.491 422.941 271.492 422.94 271.384 422.967L273.68 432.411L275.975 441.857C275.99 441.853 276.114 441.823 276.203 441.801L273.864 432.367ZM273.68 432.411L271.384 422.967C271.132 423.028 270.907 423.08 270.702 423.125L272.779 432.62L274.857 442.116C275.247 442.03 275.623 441.942 275.975 441.856L273.68 432.411ZM272.779 432.62L270.702 423.125C270.645 423.138 270.597 423.148 270.567 423.155C270.551 423.159 270.538 423.162 270.53 423.164C270.522 423.166 270.514 423.168 270.513 423.168C270.51 423.169 270.512 423.168 270.516 423.167C270.52 423.166 270.529 423.164 270.54 423.162C270.561 423.157 270.599 423.148 270.648 423.138L272.707 432.637L274.766 442.137C274.827 442.123 274.877 442.112 274.91 442.104C274.942 442.097 274.969 442.091 274.973 442.089C274.978 442.088 274.976 442.089 274.975 442.089C274.972 442.09 274.965 442.091 274.955 442.094C274.937 442.098 274.902 442.106 274.856 442.116L272.779 432.62ZM272.707 432.637L270.648 423.138C270.576 423.153 270.522 423.164 270.326 423.204L272.273 432.727L274.221 442.25C274.313 442.231 274.548 442.184 274.766 442.137L272.707 432.637ZM272.273 432.727L270.326 423.204C270.299 423.21 270.275 423.215 270.257 423.218C270.247 423.22 270.239 423.222 270.232 423.224C270.224 423.225 270.219 423.226 270.213 423.227C270.19 423.232 270.193 423.232 270.204 423.229L272.107 432.761L274.011 442.293C274.078 442.28 274.136 442.268 274.168 442.261C274.21 442.252 274.213 442.251 274.221 442.25L272.273 432.727ZM272.107 432.761L270.204 423.229C270.102 423.25 270.006 423.268 269.914 423.286L271.71 432.838L273.506 442.391C273.678 442.359 273.846 442.326 274.011 442.293L272.107 432.761ZM271.71 432.838L269.914 423.286C269.925 423.284 269.926 423.283 269.897 423.289C269.891 423.29 269.884 423.291 269.874 423.293C269.866 423.294 269.855 423.296 269.844 423.298C269.822 423.302 269.793 423.307 269.761 423.313L271.499 432.876L273.237 442.44C273.251 442.437 273.257 442.436 273.312 442.426C273.353 442.419 273.425 442.406 273.506 442.391L271.71 432.838ZM271.499 432.876L269.761 423.313C269.57 423.348 269.39 423.378 269.22 423.405L270.736 433.006L272.252 442.607C272.587 442.554 272.916 442.498 273.237 442.44L271.499 432.876ZM270.736 433.006L269.221 423.405C269.189 423.41 269.161 423.415 269.143 423.418C269.126 423.42 269.108 423.423 269.105 423.424C269.098 423.425 269.101 423.425 269.107 423.424C269.114 423.422 269.129 423.42 269.149 423.417L270.634 433.023L272.118 442.629C272.156 442.623 272.188 442.618 272.212 442.614C272.235 442.61 272.255 442.607 272.265 442.605C272.273 442.604 272.273 442.604 272.277 442.603C272.279 442.603 272.279 442.603 272.279 442.603C272.277 442.603 272.267 442.605 272.252 442.607L270.736 433.006ZM270.634 433.023L269.149 423.417C269.061 423.431 268.961 423.445 268.841 423.462L270.187 433.088L271.532 442.715C271.709 442.69 271.907 442.661 272.119 442.629L270.634 433.023ZM270.187 433.088L268.841 423.462C268.859 423.459 268.865 423.459 268.839 423.462C268.833 423.463 268.827 423.464 268.818 423.465C268.81 423.466 268.8 423.467 268.789 423.468C268.767 423.471 268.738 423.475 268.706 423.479L269.986 433.115L271.267 442.75C271.278 442.748 271.279 442.748 271.334 442.741C271.374 442.736 271.448 442.727 271.532 442.715L270.187 433.088ZM269.986 433.115L268.705 423.479C268.571 423.497 268.459 423.511 268.362 423.522L269.47 433.179L270.578 442.836C270.823 442.808 271.055 442.778 271.267 442.75L269.986 433.115ZM269.47 433.179L268.362 423.522C268.237 423.537 268.182 423.543 268.138 423.547L269.125 433.217L270.112 442.887C270.297 442.868 270.472 442.848 270.577 442.836L269.47 433.179ZM269.125 433.217L268.138 423.547C268.079 423.553 268.01 423.56 267.922 423.568L268.785 433.249L269.648 442.931C269.786 442.919 269.943 442.904 270.112 442.887L269.125 433.217ZM268.785 433.249L267.923 423.568C267.881 423.571 267.83 423.576 267.762 423.581L268.527 433.271L269.292 442.961C269.396 442.953 269.517 442.943 269.648 442.931L268.785 433.249ZM268.527 433.271L267.762 423.581C267.535 423.599 267.319 423.611 267.114 423.617L267.426 433.332L267.737 443.047C268.253 443.031 268.772 443.002 269.293 442.961L268.527 433.271ZM267.426 433.332L267.115 423.617C267.066 423.619 267.017 423.62 266.97 423.621L267.162 433.339L267.354 443.057C267.482 443.055 267.609 443.052 267.737 443.047L267.426 433.332ZM267.162 433.339L266.969 423.621C266.94 423.622 266.908 423.622 266.888 423.623C266.865 423.623 266.849 423.624 266.835 423.624C266.806 423.624 266.803 423.624 266.813 423.624L266.867 433.344L266.922 443.064C267.11 443.063 267.314 443.058 267.355 443.057L267.162 433.339ZM266.867 433.344L266.813 423.624C266.831 423.624 266.843 423.624 266.847 423.624C266.851 423.624 266.851 423.624 266.842 423.624C266.837 423.624 266.832 423.624 266.824 423.624C266.817 423.624 266.807 423.624 266.796 423.624C266.775 423.624 266.745 423.623 266.71 423.623L266.668 433.343L266.626 443.063C266.624 443.063 266.627 443.063 266.639 443.063C266.642 443.063 266.676 443.063 266.693 443.064C266.738 443.064 266.823 443.065 266.921 443.064L266.867 433.344ZM266.668 433.343L266.71 423.623C266.594 423.623 266.489 423.62 266.395 423.617L266.019 433.329L265.642 443.042C265.975 443.055 266.303 443.062 266.626 443.063L266.668 433.343ZM266.019 433.329L266.396 423.617C266.369 423.616 266.347 423.615 266.332 423.614C266.324 423.614 266.317 423.614 266.313 423.614C266.307 423.614 266.305 423.614 266.302 423.613C266.298 423.613 266.301 423.613 266.308 423.614C266.315 423.614 266.329 423.614 266.348 423.615L265.913 433.326L265.478 443.036C265.548 443.039 265.606 443.041 265.629 443.042C265.635 443.042 265.642 443.042 265.645 443.042C265.649 443.042 265.651 443.043 265.652 443.043C265.655 443.043 265.65 443.042 265.641 443.042L266.019 433.329ZM265.913 433.326L266.347 423.615C266.297 423.613 266.248 423.61 266.2 423.607L265.573 433.307L264.947 443.007C265.124 443.018 265.301 443.028 265.479 443.036L265.913 433.326ZM265.573 433.307L266.2 423.607C266.21 423.608 266.21 423.608 266.195 423.607C266.187 423.606 266.177 423.605 266.163 423.604C266.147 423.603 266.136 423.602 266.113 423.601L265.361 433.291L264.609 442.982C264.655 442.986 264.798 442.997 264.946 443.007L265.573 433.307ZM265.361 433.291L266.113 423.6C266.061 423.596 265.995 423.59 265.912 423.581L264.822 433.24L263.733 442.898C264.004 442.929 264.297 442.958 264.61 442.982L265.361 433.291ZM264.822 433.24L265.912 423.581C265.866 423.576 265.827 423.572 265.802 423.569C265.79 423.568 265.779 423.566 265.771 423.566C265.763 423.565 265.759 423.564 265.756 423.564C265.75 423.563 265.759 423.564 265.774 423.566C265.79 423.568 265.818 423.571 265.856 423.576L264.653 433.221L263.451 442.866C263.575 442.882 263.68 442.893 263.719 442.897C263.73 442.898 263.741 442.899 263.746 442.9C263.753 442.901 263.756 442.901 263.757 442.901C263.761 442.901 263.75 442.9 263.732 442.898L264.822 433.24ZM264.653 433.221L265.855 423.576C265.866 423.577 265.866 423.577 265.851 423.575C265.834 423.573 265.81 423.569 265.766 423.563L264.363 433.181L262.96 442.799C263.059 442.814 263.244 442.841 263.451 442.866L264.653 433.221ZM264.363 433.181L265.767 423.563C265.75 423.56 265.731 423.558 265.71 423.554L264.16 433.15L262.61 442.745C262.724 442.764 262.84 442.782 262.96 442.799L264.363 433.181ZM264.16 433.15L265.71 423.554C265.698 423.552 265.684 423.55 265.675 423.548C265.664 423.547 265.655 423.545 265.647 423.544C265.63 423.541 265.621 423.54 265.615 423.539C265.602 423.537 265.615 423.539 265.644 423.544L263.893 433.105L262.141 442.666C262.354 442.705 262.561 442.737 262.61 442.745L264.16 433.15ZM263.893 433.105L265.644 423.544C265.6 423.536 265.574 423.531 265.564 423.528L263.487 433.024L261.411 442.519C261.666 442.575 261.911 442.624 262.141 442.666L263.893 433.105ZM263.487 433.024L265.394 423.493L265.335 423.481L263.429 433.012L261.522 442.543L261.581 442.555L263.487 433.024ZM263.429 433.012L265.554 423.527C262.69 422.886 259.518 421.641 256.103 419.748L251.392 428.25L246.68 436.752C251.342 439.335 256.256 441.366 261.303 442.497L263.429 433.012ZM251.392 428.25L256.103 419.748C255.988 419.685 255.879 419.624 255.774 419.565L251 428.032L246.226 436.499C246.382 436.586 246.534 436.671 246.68 436.752L251.392 428.25ZM251 428.032L255.774 419.565C255.559 419.443 255.34 419.318 255.119 419.189L250.224 427.586L245.329 435.984C245.624 436.156 245.924 436.328 246.226 436.499L251 428.032ZM250.224 427.586L255.119 419.189C255.013 419.127 254.907 419.065 254.801 419.003L249.85 427.367L244.898 435.731C245.041 435.816 245.185 435.9 245.329 435.984L250.224 427.586ZM249.85 427.367L254.802 419.003C254.561 418.86 254.336 418.725 254.12 418.594L249.05 426.886L243.979 435.179C244.296 435.373 244.605 435.557 244.898 435.731L249.85 427.367ZM249.05 426.886L254.12 418.594C254.025 418.535 253.923 418.472 253.809 418.401L248.686 426.661L243.562 434.922C243.691 435.001 243.832 435.089 243.979 435.179L249.05 426.886ZM248.686 426.661L253.809 418.401C253.582 418.26 253.354 418.117 253.127 417.972L247.892 426.161L242.656 434.351C242.958 434.544 243.26 434.734 243.562 434.922L248.686 426.661ZM247.892 426.161L253.127 417.972C253.017 417.901 252.905 417.829 252.792 417.756L247.502 425.911L242.212 434.065C242.359 434.16 242.507 434.255 242.656 434.351L247.892 426.161ZM247.502 425.911L252.792 417.756C252.577 417.617 252.358 417.473 252.134 417.323L246.742 425.411L241.35 433.498C241.632 433.686 241.92 433.876 242.212 434.065L247.502 425.911ZM246.742 425.411L252.134 417.323C251.999 417.233 251.892 417.162 251.79 417.093L246.346 425.145L240.901 433.197C241.063 433.307 241.221 433.412 241.35 433.498L246.742 425.411ZM246.346 425.145L251.79 417.093C251.571 416.945 251.351 416.794 251.131 416.641L245.589 424.626L240.047 432.611C240.33 432.809 240.615 433.004 240.901 433.197L246.346 425.145ZM245.589 424.626L251.131 416.641C251.031 416.572 250.944 416.51 250.782 416.396L245.189 424.346L239.597 432.296C239.701 432.369 239.88 432.496 240.047 432.611L245.589 424.626ZM245.189 424.346L250.782 416.396C250.552 416.234 250.34 416.084 250.137 415.938L244.453 423.823L238.769 431.708C239.056 431.915 239.336 432.112 239.597 432.296L245.189 424.346ZM244.453 423.823L250.137 415.938C250.011 415.847 249.89 415.759 249.771 415.672L244.037 423.521L238.303 431.369C238.462 431.485 238.618 431.598 238.769 431.708L244.453 423.823ZM244.037 423.521L249.771 415.672C249.533 415.499 249.303 415.328 249.078 415.16L243.251 422.94L237.424 430.72C237.723 430.943 238.016 431.16 238.303 431.369L244.037 423.521ZM243.251 422.94L249.078 415.16C248.994 415.097 248.939 415.055 248.791 414.943L242.927 422.695L237.062 430.446C237.13 430.498 237.291 430.62 237.424 430.72L243.251 422.94ZM242.927 422.695L248.791 414.943C248.546 414.758 248.313 414.58 248.089 414.406L242.134 422.088L236.179 429.771C236.482 430.006 236.779 430.232 237.062 430.446L242.927 422.695ZM242.134 422.088L248.089 414.406C247.975 414.318 247.862 414.23 247.75 414.142L241.753 421.791L235.756 429.441C235.897 429.552 236.038 429.662 236.179 429.771L242.134 422.088ZM241.753 421.791L247.75 414.142C247.51 413.954 247.277 413.77 247.05 413.587L240.967 421.168L234.884 428.75C235.179 428.987 235.471 429.217 235.756 429.441L241.753 421.791ZM240.967 421.168L247.05 413.587C246.96 413.515 246.933 413.492 246.765 413.356L240.647 420.91L234.53 428.463C234.575 428.5 234.76 428.65 234.884 428.75L240.967 421.168ZM240.647 420.91L246.765 413.356C246.505 413.146 246.258 412.944 246.019 412.745L239.813 420.227L233.608 427.709C233.924 427.97 234.233 428.222 234.53 428.463L240.647 420.91ZM239.813 420.227L246.018 412.745C245.937 412.677 245.859 412.612 245.743 412.515L239.506 419.97L233.269 427.425C233.358 427.5 233.485 427.606 233.608 427.709L239.813 420.227ZM239.506 419.97L245.743 412.515C245.495 412.308 245.256 412.106 245.023 411.907L238.705 419.293L232.387 426.68C232.687 426.936 232.982 427.185 233.269 427.425L239.506 419.97ZM238.705 419.293L245.023 411.907C244.92 411.818 244.82 411.733 244.724 411.65L238.373 419.008L232.022 426.366C232.147 426.474 232.269 426.579 232.387 426.68L238.705 419.293ZM238.373 419.008L244.724 411.65C244.481 411.44 244.236 411.226 243.989 411.008L237.558 418.296L231.127 425.585C231.422 425.845 231.72 426.106 232.022 426.366L238.373 419.008ZM237.558 418.296L243.989 411.008C243.909 410.937 243.838 410.874 243.72 410.77L237.261 418.033L230.801 425.296C230.882 425.367 231.008 425.48 231.127 425.585L237.558 418.296ZM237.261 418.033L243.72 410.77C243.47 410.547 243.223 410.325 242.978 410.102L236.44 417.295L229.903 424.488C230.204 424.762 230.503 425.031 230.801 425.296L237.261 418.033ZM236.44 417.295L242.978 410.102C242.907 410.038 242.846 409.982 242.741 409.885L236.179 417.056L229.617 424.227C229.686 424.29 229.799 424.394 229.903 424.488L236.44 417.295ZM236.179 417.056L242.741 409.885C242.46 409.628 242.191 409.38 241.93 409.136L235.286 416.231L228.642 423.326C228.974 423.637 229.301 423.938 229.617 424.227L236.179 417.056ZM235.286 416.231L241.93 409.136C241.874 409.084 241.84 409.051 241.749 408.965L235.087 416.043L228.425 423.121C228.467 423.16 228.565 423.253 228.642 423.326L235.286 416.231ZM235.087 416.043L241.749 408.965C241.491 408.723 241.24 408.484 240.993 408.247L234.257 415.254L227.521 422.262C227.826 422.555 228.128 422.841 228.425 423.121L235.087 416.043ZM234.257 415.254L240.993 408.247C240.892 408.15 240.792 408.053 240.661 407.925L233.893 414.902L227.124 421.878C227.236 421.986 227.378 422.125 227.521 422.262L234.257 415.254ZM233.893 414.902L240.661 407.925C240.421 407.693 240.196 407.474 239.979 407.259L233.146 414.172L226.314 421.085C226.592 421.361 226.865 421.627 227.124 421.878L233.893 414.902ZM233.146 414.172L239.979 407.259C239.878 407.159 239.775 407.056 239.649 406.93L232.785 413.813L225.921 420.695C226.036 420.81 226.174 420.947 226.314 421.085L233.146 414.172ZM232.785 413.813L239.649 406.931C239.423 406.705 239.214 406.496 239.012 406.291L232.09 413.115L225.167 419.938C225.427 420.202 225.683 420.457 225.921 420.695L232.785 413.813ZM232.09 413.115L239.012 406.291C238.898 406.175 238.809 406.084 238.638 405.908L231.682 412.697L224.725 419.485C224.826 419.589 225.009 419.777 225.167 419.938L232.09 413.115ZM231.682 412.697L238.638 405.908C238.406 405.671 238.182 405.439 237.963 405.21L230.945 411.936L223.928 418.662C224.198 418.943 224.465 419.218 224.725 419.485L231.682 412.697ZM230.945 411.936L237.963 405.21C237.884 405.129 237.835 405.077 237.78 405.019L230.746 411.728L223.713 418.437C223.79 418.518 223.873 418.605 223.928 418.662L230.945 411.936ZM230.746 411.728L237.78 405.019C237.185 404.396 236.595 403.762 236.01 403.12L228.822 409.663L221.635 416.207C222.321 416.961 223.014 417.704 223.712 418.437L230.746 411.728ZM228.822 409.663L236.009 403.12C235.916 403.017 235.961 403.065 235.793 402.879L228.587 409.403L221.381 415.926C221.408 415.956 221.434 415.985 221.48 416.036C221.52 416.08 221.575 416.142 221.635 416.207L228.822 409.663ZM228.587 409.403L235.793 402.879C234.894 401.887 234.008 400.874 233.137 399.843L225.712 406.116L218.287 412.388C219.302 413.591 220.335 414.77 221.381 415.926L228.587 409.403ZM225.712 406.116L233.137 399.843C233.073 399.767 233.008 399.689 232.939 399.608L225.498 405.862L218.057 412.116C218.131 412.203 218.208 412.295 218.287 412.388L225.712 406.116ZM225.498 405.862L232.939 399.608C232.373 398.934 231.816 398.259 231.271 397.581L223.697 403.673L216.124 409.766C216.765 410.562 217.41 411.346 218.057 412.115L225.498 405.862ZM223.697 403.673L231.271 397.581C231.188 397.477 231.164 397.446 231.027 397.275L223.435 403.344L215.842 409.413C215.881 409.461 216.031 409.65 216.124 409.766L223.697 403.673ZM223.435 403.344L231.027 397.276C230.795 396.985 230.573 396.705 230.357 396.431L222.712 402.433L215.067 408.435C215.33 408.771 215.59 409.098 215.842 409.413L223.435 403.344ZM222.712 402.433L230.357 396.43C230.257 396.303 230.267 396.314 230.094 396.092L222.429 402.069L214.763 408.045C214.779 408.066 214.977 408.321 215.067 408.436L222.712 402.433ZM222.429 402.069L230.094 396.092C229.871 395.805 229.663 395.538 229.463 395.277L221.748 401.19L214.033 407.103C214.284 407.43 214.531 407.748 214.763 408.045L222.429 402.069ZM221.748 401.19L229.463 395.277C229.374 395.162 229.306 395.071 229.18 394.905L221.443 400.789L213.707 406.674C213.784 406.775 213.918 406.952 214.033 407.103L221.748 401.19ZM221.443 400.789L229.18 394.905C228.945 394.597 228.75 394.341 228.559 394.085L220.774 399.906L212.99 405.727C213.241 406.062 213.494 406.394 213.707 406.674L221.443 400.789ZM220.774 399.906L228.559 394.085C228.427 393.909 228.583 394.115 228.355 393.81L220.556 399.61L212.756 405.41C212.775 405.435 212.794 405.462 212.837 405.52C212.873 405.569 212.929 405.645 212.99 405.727L220.774 399.906ZM220.556 399.61L228.356 393.81C227.237 392.305 226.151 390.776 225.103 389.229L217.055 394.678L209.006 400.127C210.216 401.914 211.467 403.677 212.756 405.41L220.556 399.61ZM217.055 394.678L225.103 389.229C225.058 389.161 225.011 389.092 224.962 389.019L216.902 394.453L208.843 399.886C208.895 399.963 208.95 400.044 209.006 400.128L217.055 394.678ZM216.902 394.453L224.962 389.019C224.731 388.676 224.516 388.357 224.31 388.044L216.2 393.403L208.09 398.761C208.348 399.151 208.603 399.53 208.843 399.886L216.902 394.453ZM216.2 393.403L224.31 388.044C224.204 387.884 224.238 387.934 224.054 387.653L215.925 392.981L207.795 398.309C207.829 398.36 207.86 398.409 207.913 398.49C207.96 398.563 208.023 398.659 208.091 398.761L216.2 393.403ZM215.925 392.981L224.054 387.653C223.848 387.337 223.667 387.062 223.493 386.792L215.32 392.053L207.147 397.315C207.372 397.664 207.597 398.007 207.795 398.309L215.925 392.981ZM215.32 392.053L223.493 386.792C223.423 386.683 223.4 386.646 223.287 386.468L215.098 391.704L206.909 396.941C206.944 396.995 207.068 397.191 207.147 397.315L215.32 392.053ZM215.098 391.704L223.287 386.468C223.085 386.152 222.891 385.848 222.704 385.549L214.47 390.714L206.235 395.879C206.463 396.242 206.689 396.598 206.909 396.941L215.098 391.704ZM214.47 390.714L222.704 385.549C222.638 385.445 222.607 385.394 222.504 385.228L214.254 390.368L206.004 395.507C206.045 395.572 206.156 395.753 206.235 395.879L214.47 390.714ZM214.254 390.368L222.504 385.228C221.795 384.09 221.11 382.952 220.453 381.817L212.04 386.685L203.627 391.553C204.397 392.885 205.192 394.203 206.004 395.507L214.254 390.368ZM212.04 386.685L220.453 381.817C220.349 381.636 220.364 381.66 220.182 381.34L211.746 386.169L203.31 390.998C203.324 391.022 203.533 391.391 203.627 391.553L212.04 386.685ZM211.746 386.169L220.182 381.34C220.007 381.036 219.875 380.806 219.741 380.568L211.27 385.333L202.798 390.099C202.978 390.419 203.166 390.745 203.31 390.998L211.746 386.169ZM211.27 385.333L219.741 380.568C219.641 380.39 219.575 380.268 219.424 379.996L210.926 384.714L202.428 389.432C202.505 389.572 202.666 389.865 202.798 390.099L211.27 385.333ZM210.926 384.714L219.424 379.996C219.267 379.714 219.161 379.524 219.047 379.316L210.518 383.977L201.988 388.638C202.143 388.922 202.311 389.223 202.428 389.432L210.926 384.714ZM210.518 383.977L219.047 379.316C218.933 379.107 218.827 378.909 218.678 378.632L210.117 383.235L201.556 387.838C201.673 388.055 201.832 388.352 201.988 388.638L210.518 383.977ZM210.117 383.235L218.678 378.632C215.634 372.969 213.239 367.372 211.632 362.142L202.341 364.997L193.05 367.852C195.089 374.488 198.018 381.257 201.556 387.838L210.117 383.235ZM202.341 364.997L203.522 374.645L203.618 374.634L202.437 364.986L201.255 355.338L201.159 355.35L202.341 364.997ZM202.437 364.986L210.905 360.215C208.709 356.316 206.678 351.764 204.86 346.728L195.718 350.029L186.575 353.329C188.678 359.154 191.135 364.727 193.968 369.756L202.437 364.986ZM195.718 350.029L196.598 359.709C196.57 359.711 196.547 359.713 196.535 359.714C196.529 359.715 196.525 359.715 196.522 359.715C196.521 359.715 196.52 359.715 196.522 359.715C196.523 359.715 196.528 359.715 196.533 359.714C196.539 359.714 196.547 359.713 196.557 359.712C196.576 359.711 196.605 359.708 196.641 359.705L195.776 350.024L194.912 340.342C194.938 340.34 194.957 340.338 194.967 340.338C194.974 340.337 194.981 340.336 194.972 340.337C194.968 340.338 194.95 340.339 194.929 340.341C194.908 340.342 194.876 340.345 194.838 340.349L195.718 350.029ZM195.776 350.024L204.644 346.043C204.528 345.785 204.411 345.523 204.291 345.251L195.404 349.189L186.518 353.127C186.644 353.413 186.775 353.707 186.909 354.005L195.776 350.024ZM195.404 349.189L204.291 345.251C203.926 344.429 203.566 343.597 203.209 342.757L194.265 346.563L185.321 350.368C185.712 351.288 186.111 352.208 186.518 353.127L195.404 349.189ZM194.265 346.563L184.545 346.589C184.579 359.466 183.562 369.835 181.913 374.458L191.068 377.723L200.224 380.988C203.141 372.808 204.018 359.294 203.985 346.537L194.265 346.563ZM191.068 377.723L181.913 374.458C181.842 374.658 181.295 375.747 179.43 377.416C177.673 378.986 175.218 380.645 172.238 382.123L176.558 390.83L180.878 399.538C185.133 397.427 189.109 394.839 192.388 391.907C195.558 389.072 198.649 385.402 200.224 380.988L191.068 377.723ZM176.558 390.83L175.23 400.459C175.193 400.454 175.161 400.45 175.133 400.446C175.106 400.441 175.083 400.438 175.065 400.435C175.048 400.432 175.034 400.43 175.026 400.429C175.022 400.428 175.019 400.428 175.017 400.428C175.016 400.427 175.015 400.427 175.016 400.427C175.016 400.427 175.024 400.429 175.034 400.43C175.044 400.432 175.061 400.435 175.081 400.438C175.101 400.441 175.127 400.445 175.157 400.449C175.187 400.454 175.222 400.459 175.261 400.464L176.583 390.834L177.905 381.205C177.942 381.21 177.975 381.215 178.003 381.219C178.031 381.223 178.054 381.226 178.072 381.229C178.09 381.232 178.105 381.234 178.113 381.236C178.117 381.236 178.121 381.237 178.123 381.237C178.124 381.237 178.126 381.238 178.125 381.238C178.125 381.238 178.123 381.237 178.12 381.237C178.117 381.236 178.113 381.236 178.108 381.235C178.098 381.233 178.082 381.231 178.062 381.228C178.043 381.225 178.017 381.221 177.988 381.216C177.959 381.212 177.924 381.207 177.885 381.201L176.558 390.83ZM176.583 390.834L172.279 382.119C171.221 382.641 170.108 383.132 168.952 383.584L172.486 392.638L176.021 401.693C177.682 401.044 179.31 400.328 180.887 399.55L176.583 390.834ZM172.486 392.638L168.911 383.6C162.589 386.1 155.994 387.042 150.852 386.043C146.247 385.147 142.765 382.784 140.772 377.556L131.689 381.017L122.607 384.478C127.267 396.708 136.736 403.102 147.142 405.125C157.012 407.045 167.488 405.068 176.062 401.677L172.486 392.638ZM131.689 381.017L140.638 377.223C140.313 376.457 140.011 375.614 139.741 374.687L130.409 377.407L121.077 380.126C121.553 381.757 122.108 383.319 122.741 384.811L131.689 381.017ZM130.409 377.407L139.741 374.687C135.043 358.566 137.745 344.753 143.62 333.602L135.02 329.072L126.421 324.541C118.447 339.675 114.825 358.671 121.077 380.126L130.409 377.407ZM135.02 329.072L143.572 333.692C144.508 331.959 145.515 330.261 146.579 328.595L138.388 323.363L130.196 318.13C128.9 320.159 127.65 322.266 126.469 324.451L135.02 329.072ZM138.388 323.363L146.52 328.686C149.427 324.244 152.826 320.297 156.396 316.919L149.715 309.859L143.034 302.799C138.463 307.124 134.063 312.222 130.255 318.04L138.388 323.363ZM149.715 309.859L156.736 316.58C158.552 314.684 160.406 312.986 162.259 311.505L156.188 303.913L150.118 296.322C147.557 298.37 145.07 300.655 142.693 303.137L149.715 309.859ZM156.188 303.913L155.399 294.226C147.226 294.892 140.276 293.97 134.429 291.47C128.678 289.01 123.435 284.787 118.931 277.905L110.798 283.227L102.665 288.549C109.097 298.379 117.234 305.259 126.785 309.344C136.242 313.388 146.518 314.454 156.978 313.601L156.188 303.913ZM110.798 283.227L118.931 277.905C110.375 264.829 105.627 251.749 104.077 239.223L94.4306 240.416L84.7842 241.61C86.7326 257.361 92.6423 273.234 102.665 288.549L110.798 283.227ZM94.4306 240.416L93.8657 230.713C91.9553 230.824 89.7297 230.853 87.1424 230.772L86.8398 240.488L86.5372 250.203C89.6053 250.299 92.4175 250.27 94.9956 250.12L94.4306 240.416ZM86.8398 240.488L87.1424 230.772C77.2158 230.463 71.604 223.472 71.7856 217.643L62.0703 217.34L52.355 217.038C51.7675 235.9 68.3356 249.636 86.5372 250.203L86.8398 240.488ZM62.0703 217.34L71.7856 217.643C71.9672 211.814 78.0029 205.186 87.9298 205.495L88.2324 195.78L88.535 186.064C70.3337 185.497 52.9426 198.175 52.355 217.038L62.0703 217.34ZM88.2324 195.78L87.9298 205.495C92.6138 205.641 96.0462 206.049 98.5406 206.586L100.585 197.083L102.629 187.581C98.6364 186.722 93.9645 186.234 88.535 186.064L88.2324 195.78ZM100.585 197.083L109.519 200.913C109.916 199.985 110.33 199.068 110.762 198.161L101.983 193.987L93.2052 189.813C92.6615 190.956 92.1442 192.104 91.6512 193.254L100.585 197.083ZM101.983 193.987L108.614 186.879C108.172 186.467 107.144 185.276 105.596 182.464L97.081 187.152L88.5661 191.839C90.5968 195.528 92.7914 198.705 95.3529 201.094L101.983 193.987ZM97.081 187.152L105.596 182.464C103.068 177.872 101.942 173.194 101.749 169.763C101.651 168.021 101.813 166.964 101.915 166.578C102.146 165.701 101.899 167.854 99.2085 169.335L94.5205 160.821L89.8324 152.306C85.3691 154.763 83.7474 159.226 83.1144 161.633C82.3525 164.529 82.1634 167.729 82.3395 170.856C82.6948 177.163 84.6219 184.675 88.566 191.839L97.081 187.152ZM94.5205 160.821L99.2081 169.336C96.657 170.74 94.7616 169.957 95.3907 170.136C95.6231 170.202 96.4279 170.51 97.6939 171.354C100.181 173.013 103.294 175.972 105.861 180.025L114.072 174.824L122.283 169.622C118.312 163.353 113.306 158.399 108.48 155.181C106.089 153.587 103.439 152.215 100.717 151.44C98.3908 150.777 94.0405 149.989 89.8329 152.306L94.5205 160.821ZM114.072 174.824L121.73 180.811C131.106 168.818 145.261 158.094 164.972 149.545L161.104 140.627L157.237 131.71C135.239 141.252 118.206 153.756 106.415 168.837L114.072 174.824ZM161.104 140.627L164.972 149.545C166.989 148.67 168.998 147.838 170.999 147.051L167.442 138.005L163.886 128.959C161.665 129.832 159.448 130.751 157.237 131.71L161.104 140.627ZM167.442 138.005L171.138 146.995C185.174 141.226 198.8 137.719 211.564 137.349L211.282 127.633L211 117.917C195.184 118.376 179.184 122.67 163.747 129.015L167.442 138.005ZM211.282 127.633L220.775 125.543C219.925 121.686 219.92 118.351 220.262 116.192C220.437 115.089 220.648 114.635 220.635 114.662C220.62 114.69 220.461 115.01 220.063 115.449C219.664 115.889 218.876 116.608 217.615 117.122L213.941 108.123L210.267 99.1245C206.345 100.726 204.263 103.934 203.243 105.975C202.109 108.246 201.441 110.755 201.062 113.151C200.295 117.987 200.482 123.786 201.79 129.724L211.282 127.633Z" fill="white" mask="url(#path-1-outside-1_2006_3274)"/>
</g>
<g clip-path="url(#clip0_2006_3274)">
<path d="M88.2323 195.78C116.511 196.661 113.386 206.581 113.001 218.927C112.617 231.273 114.544 241.35 86.8398 240.487C72.7757 240.049 61.6862 229.686 62.0707 217.341C62.4552 204.995 74.1682 195.342 88.2323 195.78Z" fill="#EAF3F7"/>
<path d="M115.399 177.067C121.872 188.824 117.809 191.151 112.751 193.936C107.692 196.721 103.553 198.909 97.0808 187.152C90.6085 175.395 90.9754 162.773 94.5209 160.821C98.0665 158.87 108.927 165.31 115.399 177.067Z" fill="#6A5B3D"/>
<path d="M232.805 126.671C237.877 139.097 233.573 140.939 228.227 143.122C222.881 145.304 218.517 146.999 213.445 134.574C208.373 122.148 210.195 109.653 213.942 108.124C217.689 106.594 227.733 114.246 232.805 126.671Z" fill="#9C8866"/>
<path d="M234.979 130.39C220.598 154.755 230.652 157.421 241.289 163.699C251.926 169.977 259.411 176.996 273.499 153.125C280.651 141.007 277.826 126.095 267.189 119.816C256.552 113.538 242.131 118.272 234.979 130.39Z" fill="#1F0D2D"/>
<path d="M246.954 137.482C239.787 149.626 243.771 150.349 247.807 152.731C251.843 155.113 254.547 158.006 261.569 146.109C265.134 140.069 264.752 133.242 260.716 130.86C256.68 128.478 250.519 131.443 246.954 137.482Z" fill="#FFC0C1"/>
<path d="M88.2594 209.788C102.354 210.227 100.833 213.98 100.687 218.664C100.542 223.348 101.539 227.18 87.7311 226.75C80.7214 226.532 75.1571 222.558 75.303 217.874C75.4489 213.189 81.2497 209.569 88.2594 209.788Z" fill="#FFAAAB"/>
<path d="M354.035 235.186C325.881 220.788 278.727 246.257 261.111 255.238C260.426 257.096 259.763 261.916 262.586 266.332C266.114 271.853 336.011 278.065 352.759 277.846C375.732 277.547 381.627 249.297 354.035 235.186Z" fill="url(#paint0_linear_2006_3274)"/>
<path d="M228.359 389.445C204.194 387.022 172.224 302.739 184.117 283.836C196.011 264.933 229.362 242.536 255.502 248.325C281.643 254.114 333.772 289.375 336.506 328.567C338.227 353.245 252.523 391.867 228.359 389.445Z" fill="#F3FAFD"/>
<path fill-rule="evenodd" clip-rule="evenodd" d="M228.987 258.594C234.373 257.156 240.174 256.233 246.399 255.954C281.709 254.374 337.404 284.871 336.675 325.599C336.626 328.337 335.661 331.365 333.953 334.586C331.183 330.743 326.143 315.636 318.033 302.997C301.657 277.474 293.487 274.169 267.13 267.836C250.121 263.748 230.486 260.702 228.987 258.594Z" fill="white"/>
<path d="M180.312 285.931C192.818 266.691 218.033 246.771 254.194 249.046C270.756 250.088 271.716 251.442 296.495 269.802C264.726 259.032 203.892 284.359 200.007 309.44C196.627 331.26 203.696 347.983 224.055 358.913C242.317 368.717 249.962 385.226 237.748 388.897C234.094 389.496 230.912 389.701 228.358 389.445C211.902 387.795 191.825 348.18 184.448 317.104C183.249 318.034 182.036 318.981 180.808 319.943C180.651 320.066 180.496 320.186 180.342 320.303C176.84 305.332 176.248 292.185 180.312 285.931Z" fill="url(#paint1_linear_2006_3274)"/>
<path fill-rule="evenodd" clip-rule="evenodd" d="M195.718 350.029C201.373 349.515 206.873 350.346 211.119 353.625C222.291 362.252 233.727 358.386 248.521 354.743C263.315 351.1 271.007 351.671 281.847 357.462C285.135 359.219 288.055 362.132 290.454 365.153C263.12 378.097 234.145 386.947 220.831 382.762C210.049 379.372 201.614 366.362 195.718 350.029Z" fill="#1F0D2D"/>
<path d="M263.429 433.013C238.949 427.527 211.062 393.382 202.34 364.998L277.856 355.864C304.837 371.208 312.251 385.267 304.009 410.672C300.034 422.924 274.87 435.576 263.429 433.013Z" fill="#1F0D2D"/>
<path fill-rule="evenodd" clip-rule="evenodd" d="M207.923 364.322C219.057 373.447 231.861 381.96 261.136 389.354C253.188 399.575 250.565 429.245 279.265 430.678C273.326 432.9 267.552 433.913 263.488 433.024C263.468 433.02 263.448 433.016 263.429 433.012C263.189 432.958 262.949 432.899 262.709 432.842C238.405 426.858 210.977 393.103 202.341 364.997L207.923 364.322Z" fill="url(#paint2_linear_2006_3274)"/>
<path fill-rule="evenodd" clip-rule="evenodd" d="M207.923 364.322C219.057 373.447 231.861 381.96 261.136 389.354C253.188 399.575 250.565 429.245 279.265 430.678C273.326 432.9 267.552 433.913 263.488 433.024C263.468 433.02 263.448 433.016 263.429 433.012C263.189 432.958 262.949 432.899 262.709 432.842C238.405 426.858 210.977 393.103 202.341 364.997L207.923 364.322Z" fill="url(#paint3_linear_2006_3274)" fill-opacity="0.2"/>
<path d="M216.13 324.364C222.887 334.864 241.794 329.404 263.114 319.559C284.434 309.714 300.095 299.211 293.338 288.712C284.455 274.91 262.144 275.078 240.823 284.923C219.503 294.768 207.248 310.562 216.13 324.364Z" fill="#FFAAAB"/>
<path d="M182.668 288.554C182.552 288.618 182.426 288.667 182.296 288.698C182.167 288.73 182.037 288.744 181.915 288.739L176.043 288.449C175.816 288.424 175.634 288.332 175.535 288.192C175.436 288.051 175.426 287.872 175.508 287.69C175.59 287.508 175.757 287.337 175.976 287.211C176.194 287.084 176.449 287.012 176.689 287.009L182.548 287.267C182.671 287.272 182.785 287.296 182.882 287.337C182.979 287.379 183.058 287.437 183.115 287.508C183.171 287.579 183.204 287.663 183.211 287.753C183.218 287.843 183.2 287.939 183.156 288.034C183.119 288.131 183.057 288.227 182.973 288.317C182.889 288.406 182.786 288.487 182.668 288.554Z" fill="#FF8D8D"/>
<path d="M178.765 290.672C178.65 290.735 178.525 290.784 178.396 290.815C178.268 290.847 178.139 290.86 178.017 290.855C177.895 290.849 177.782 290.825 177.686 290.784C177.589 290.742 177.51 290.684 177.454 290.613C177.397 290.542 177.364 290.459 177.357 290.369C177.35 290.279 177.368 290.184 177.41 290.089L179.424 285.567C179.465 285.472 179.531 285.379 179.616 285.293C179.702 285.208 179.806 285.131 179.922 285.068C180.038 285.005 180.164 284.957 180.293 284.926C180.422 284.895 180.551 284.883 180.673 284.889C180.917 284.901 181.117 284.988 181.23 285.13C181.343 285.272 181.359 285.459 181.275 285.649L179.257 290.181C179.172 290.37 178.996 290.546 178.765 290.672Z" fill="#FF8D8D"/>
<path d="M291.478 190.355C307.133 228.935 281.493 248.079 232.484 275.058C183.476 302.038 132.153 319.474 112.765 282.244C81.9304 223.034 95.4543 169.103 161.104 140.627C212.428 118.366 263.285 120.876 291.478 190.355Z" fill="white"/>
<path fill-rule="evenodd" clip-rule="evenodd" d="M109.539 181.004C109.719 183.768 109.646 187.185 109.274 191.313C99.8806 295.423 154.321 292.817 231.235 262.327C252.086 254.062 265.883 249.944 274.098 248.834C263.492 257.388 249.377 265.758 232.485 275.058C182.992 302.304 134.966 320.16 110.798 283.227C87.5332 247.675 89.1151 210.361 109.539 181.004Z" fill="#EAF3F7"/>
<path fill-rule="evenodd" clip-rule="evenodd" d="M109.539 181.004C109.719 183.768 109.646 187.185 109.274 191.313C99.8806 295.423 154.321 292.817 231.235 262.327C252.086 254.062 265.883 249.944 274.098 248.834C263.492 257.388 249.377 265.758 232.485 275.058C182.992 302.304 134.966 320.16 110.798 283.227C87.5332 247.675 89.1151 210.361 109.539 181.004Z" fill="url(#paint4_linear_2006_3274)" fill-opacity="0.2"/>
<path d="M159.813 141.33C203.529 121.205 248.848 118.158 279.937 167.139C257.994 180.854 244.195 165.625 232.882 162.83C221.175 159.938 207.19 172.694 189.063 169.446C177.762 167.421 166.66 152.939 159.813 141.33Z" fill="#1F0D2D"/>
<path d="M246.721 198.636L250.874 210.816" stroke="#123041" stroke-width="12.0641" stroke-linecap="round"/>
<path d="M153.258 239.814L157.411 251.994" stroke="#123041" stroke-width="12.0641" stroke-linecap="round"/>
<path d="M256.656 236.769C250.309 221.513 232.797 214.29 217.54 220.637L203.728 226.383C188.472 232.73 181.249 250.242 187.596 265.498C191.827 275.669 203.502 280.484 213.673 276.253L245.901 262.847C256.072 258.615 260.887 246.94 256.656 236.769Z" fill="#FFC0C1"/>
<path d="M255.356 233.644C249.727 220.114 234.196 213.708 220.665 219.337L203.728 226.383C188.472 232.73 181.249 250.242 187.596 265.498C191.827 275.669 203.502 280.484 213.673 276.253L242.776 264.147C254.673 259.197 260.305 245.541 255.356 233.644Z" fill="#FFC0C1"/>
<path d="M240.48 239.853L243.878 248.021" stroke="#123041" stroke-width="8.04272" stroke-linecap="round"/>
<path d="M290.909 212.903L280.02 218.095" stroke="#FFC0C1" stroke-width="16.0854" stroke-linecap="round"/>
<path d="M153.575 277.39L142.685 282.581" stroke="#FFAAAB" stroke-width="16.0854" stroke-linecap="round"/>
<path d="M386.319 345.73C391.647 314.273 333.928 287.798 322.854 294.146C311.78 300.493 309.674 339.684 309.674 339.684C324.843 356.924 327.928 377.726 344.913 382.527C362.654 387.542 381.666 373.197 386.319 345.73Z" fill="white"/>
<path d="M316.952 300.882C327.673 313.717 337.558 317.947 361.311 322.274C340.115 336.339 338.296 355.519 342.82 368.846C345.152 375.714 349.393 380.369 353.615 383.46C350.725 383.643 347.802 383.343 344.912 382.526C332.37 378.981 320.635 367.44 309.246 354.703C307.35 350.227 305.968 345.577 305.248 340.962C304.183 334.131 304.898 327.69 306.393 322.052L316.015 302.089C316.595 301.307 316.947 300.888 316.952 300.882Z" fill="url(#paint5_linear_2006_3274)"/>
<path d="M130.864 378.543C119.681 339.655 153.855 309.579 171.668 297.282C174.303 296.219 180.953 294.475 186.469 295.997C193.363 297.898 197.489 359.718 191.068 377.723C185.814 392.456 139.953 410.15 130.864 378.543Z" fill="white"/>
<path fill-rule="evenodd" clip-rule="evenodd" d="M138.391 323.358C146.377 311.159 157.418 302.387 166.569 297.935C179.404 291.689 187.203 295.303 188.303 297.293C189.028 298.605 189.766 301.167 190.466 304.614C186.642 302.5 180.369 296.546 174.532 298.129C160.297 301.99 145.886 324.972 142.619 335.163C136.434 354.454 146.663 386.728 176.583 390.834C160.632 398.711 136.968 399.914 130.409 377.407C124.92 358.569 128.114 342.127 135.077 328.967C136.12 327.044 137.231 325.174 138.391 323.358Z" fill="url(#paint6_linear_2006_3274)"/>
<path fill-rule="evenodd" clip-rule="evenodd" d="M138.391 323.358C146.377 311.159 157.418 302.387 166.569 297.935C179.404 291.689 187.203 295.303 188.303 297.293C189.028 298.605 189.766 301.167 190.466 304.614C186.642 302.5 180.369 296.546 174.532 298.129C160.297 301.99 145.886 324.972 142.619 335.163C136.434 354.454 146.663 386.728 176.583 390.834C160.632 398.711 136.968 399.914 130.409 377.407C124.92 358.569 128.114 342.127 135.077 328.967C136.12 327.044 137.231 325.174 138.391 323.358Z" fill="url(#paint7_linear_2006_3274)" fill-opacity="0.2"/>
<path fill-rule="evenodd" clip-rule="evenodd" d="M149.392 310.197C156.618 302.549 164.767 297.266 172.22 295.473C177.728 294.147 181.726 293.769 186.581 295.473C188.946 296.303 190.992 304.447 192.377 315.45C179.264 299.97 166.769 299.827 149.392 310.197Z" fill="#DAEAF1"/>
<path fill-rule="evenodd" clip-rule="evenodd" d="M185.875 259.872C185.404 257.531 186.632 254.954 189.02 254.962C190.967 254.968 192.895 255.819 194.212 257.453L200.648 265.439C201.887 266.978 203.755 267.893 205.731 267.843C225.546 267.336 241.278 260.494 254.849 249.135C256.124 248.067 257.623 249.415 257.075 250.987C255.273 256.162 251.358 260.576 245.9 262.847L213.672 276.253C203.501 280.484 191.826 275.669 187.595 265.498C186.826 263.648 186.255 261.765 185.875 259.872Z" fill="#FFAAAB"/>
</g>
<defs>
<filter id="filter0_d_2006_3274" x="52.3398" y="98.2065" width="347.287" height="348.097" filterUnits="userSpaceOnUse" color-interpolation-filters="sRGB">
<feFlood flood-opacity="0" result="BackgroundImageFix"/>
<feColorMatrix in="SourceAlpha" type="matrix" values="0 0 0 0 0 0 0 0 0 0 0 0 0 0 0 0 0 0 127 0" result="hardAlpha"/>
<feOffset dx="3.24" dy="3.24"/>
<feColorMatrix type="matrix" values="0 0 0 0 0.584314 0 0 0 0 0.615686 0 0 0 0 0.647059 0 0 0 0.2 0"/>
<feBlend mode="normal" in2="BackgroundImageFix" result="effect1_dropShadow_2006_3274"/>
<feBlend mode="normal" in="SourceGraphic" in2="effect1_dropShadow_2006_3274" result="shape"/>
</filter>
<linearGradient id="paint0_linear_2006_3274" x1="342.082" y1="241.229" x2="230.896" y2="232.355" gradientUnits="userSpaceOnUse">
<stop stop-color="#EAF3F7"/>
<stop offset="1" stop-color="#D7E9F1"/>
</linearGradient>
<linearGradient id="paint1_linear_2006_3274" x1="220.12" y1="252.945" x2="311.346" y2="261.442" gradientUnits="userSpaceOnUse">
<stop stop-color="#DBEBF1"/>
<stop offset="1" stop-color="white"/>
</linearGradient>
<linearGradient id="paint2_linear_2006_3274" x1="231.391" y1="408.5" x2="247.126" y2="375.964" gradientUnits="userSpaceOnUse">
<stop stop-color="#1F1E60"/>
<stop offset="1" stop-color="#1F0D2D"/>
</linearGradient>
<linearGradient id="paint3_linear_2006_3274" x1="226.942" y1="390.247" x2="217.53" y2="415.806" gradientUnits="userSpaceOnUse">
<stop stop-color="#1F0D2D"/>
<stop offset="1" stop-color="#86D856"/>
</linearGradient>
<linearGradient id="paint4_linear_2006_3274" x1="119.398" y1="259.126" x2="109.176" y2="281.471" gradientUnits="userSpaceOnUse">
<stop stop-color="white"/>
<stop offset="1" stop-color="#56BBD8"/>
</linearGradient>
<linearGradient id="paint5_linear_2006_3274" x1="322.066" y1="377.694" x2="361.75" y2="307.666" gradientUnits="userSpaceOnUse">
<stop stop-color="#DBEBF1"/>
<stop offset="1" stop-color="white"/>
</linearGradient>
<linearGradient id="paint6_linear_2006_3274" x1="134.343" y1="386.15" x2="153.32" y2="304.717" gradientUnits="userSpaceOnUse">
<stop stop-color="#EAF3F7"/>
<stop offset="1" stop-color="white"/>
</linearGradient>
<linearGradient id="paint7_linear_2006_3274" x1="140.263" y1="346.564" x2="129.79" y2="365.784" gradientUnits="userSpaceOnUse">
<stop stop-color="white"/>
<stop offset="1" stop-color="#56BBD8"/>
</linearGradient>
<clipPath id="clip0_2006_3274">
<rect width="356.543" height="394.716" fill="white" transform="translate(0 171.947) rotate(-28.8331)"/>
</clipPath>
</defs>
</svg>
