<svg width="503" height="518" viewBox="0 0 503 518" fill="none" xmlns="http://www.w3.org/2000/svg">
<g filter="url(#filter0_d_2129_1180)">
<mask id="path-1-outside-1_2129_1180" maskUnits="userSpaceOnUse" x="52.0607" y="97.9302" width="345" height="346" fill="black">
<rect fill="white" x="52.0607" y="97.9302" width="345" height="346"/>
<path fill-rule="evenodd" clip-rule="evenodd" d="M213.942 108.124C217.689 106.594 227.733 114.245 232.805 126.671C233.343 127.99 233.775 129.19 234.112 130.284C234.378 130.358 234.643 130.434 234.907 130.512C234.931 130.471 234.955 130.431 234.979 130.391C242.131 118.273 256.552 113.538 267.189 119.816C277.826 126.094 280.651 141.007 273.499 153.125C272.927 154.094 272.364 155.011 271.813 155.881C274.614 159.281 277.326 163.026 279.937 167.139C279.891 167.167 279.845 167.193 279.8 167.221C284.022 173.927 287.929 181.61 291.478 190.354C293.829 196.149 295.247 201.505 295.796 206.516C296.777 207.265 297.601 208.25 298.169 209.441C299.961 213.201 298.578 217.655 295.093 219.771C292.627 230.399 285.503 239.539 274.553 248.462C296.529 237.788 331.414 223.618 354.034 235.185C381.627 249.297 375.732 277.547 352.759 277.847C344.609 277.953 323.871 276.533 304.32 274.414C312.323 279.807 319.493 286.211 325.039 293.4C339.978 290.673 391.359 315.972 386.318 345.729C382.144 370.373 366.413 384.449 350.409 383.463C350.37 383.46 350.331 383.458 350.292 383.456C349.974 383.435 349.655 383.408 349.337 383.375C349.308 383.372 349.28 383.369 349.251 383.366C349.12 383.352 348.989 383.336 348.858 383.32C348.738 383.305 348.618 383.29 348.497 383.273C348.378 383.257 348.258 383.242 348.139 383.224C347.947 383.195 347.755 383.162 347.564 383.129C347.459 383.111 347.355 383.092 347.25 383.072C347.072 383.039 346.894 383.004 346.716 382.967C346.657 382.954 346.599 382.943 346.54 382.931C346.313 382.882 346.086 382.829 345.858 382.773C345.782 382.755 345.705 382.736 345.628 382.717C345.424 382.665 345.22 382.611 345.017 382.555C344.982 382.545 344.948 382.537 344.913 382.527C344.887 382.52 344.862 382.511 344.836 382.504C333.306 379.214 322.457 369.173 311.931 357.672C306.705 361.145 300.935 364.53 294.915 367.719C307.621 379.231 310.121 391.83 304.009 410.672C301.447 418.568 290.083 426.628 279.265 430.677L279.266 430.678C279.253 430.683 279.239 430.686 279.226 430.691C278.879 430.821 278.533 430.945 278.189 431.066C278.166 431.074 278.144 431.083 278.122 431.091C277.406 431.341 276.694 431.572 275.988 431.784C275.952 431.795 275.915 431.805 275.879 431.816C275.187 432.022 274.502 432.21 273.825 432.377C273.778 432.388 273.731 432.4 273.685 432.411C273.391 432.482 273.099 432.55 272.809 432.614C272.748 432.627 272.688 432.641 272.627 432.654C272.539 432.673 272.451 432.691 272.363 432.709C272.245 432.733 272.127 432.757 272.01 432.78C271.909 432.8 271.809 432.82 271.709 432.839C271.566 432.866 271.423 432.892 271.28 432.917C271.133 432.943 270.985 432.967 270.839 432.99C270.738 433.006 270.638 433.023 270.537 433.038C270.421 433.056 270.306 433.072 270.191 433.088C270.109 433.099 270.028 433.11 269.947 433.121C269.805 433.14 269.664 433.157 269.524 433.174C269.36 433.193 269.198 433.211 269.037 433.226C268.974 433.233 268.911 433.238 268.848 433.244C268.711 433.257 268.575 433.268 268.441 433.278C268.371 433.283 268.302 433.289 268.233 433.294C268.052 433.306 267.872 433.316 267.693 433.324C267.598 433.328 267.503 433.331 267.408 433.334C267.325 433.336 267.241 433.339 267.158 433.341C267.053 433.343 266.949 433.344 266.845 433.345C266.493 433.346 266.149 433.338 265.812 433.321C265.741 433.318 265.671 433.313 265.602 433.308C265.494 433.302 265.388 433.294 265.282 433.285C265.205 433.279 265.128 433.273 265.051 433.266C264.893 433.25 264.736 433.233 264.582 433.213C264.52 433.205 264.457 433.195 264.396 433.186C264.302 433.173 264.21 433.159 264.118 433.143C264.036 433.13 263.955 433.116 263.874 433.101C263.773 433.083 263.673 433.062 263.573 433.041C263.525 433.031 263.477 433.023 263.429 433.013C238.949 427.527 211.062 393.382 202.34 364.998L202.437 364.985C199.922 360.521 197.678 355.459 195.718 350.029C195.737 350.027 195.756 350.025 195.775 350.023C195.761 349.99 195.746 349.958 195.732 349.925C195.63 349.697 195.529 349.469 195.428 349.241C195.034 348.354 194.647 347.461 194.265 346.563C194.299 359.38 193.351 371.321 191.068 377.723C189.423 382.337 183.793 387.241 176.558 390.831C176.566 390.832 176.575 390.834 176.583 390.835C175.266 391.485 173.895 392.089 172.486 392.639C157.591 398.531 138.341 398.476 131.689 381.016C131.21 379.887 130.782 378.685 130.409 377.406C124.934 358.618 128.096 342.214 135.021 329.072C136.079 327.113 137.208 325.21 138.388 323.362C141.744 318.235 145.642 313.715 149.71 309.864C151.808 307.672 153.98 305.679 156.189 303.913C137.556 305.432 121.735 299.94 110.798 283.227C101.509 269.032 96.1799 254.556 94.4308 240.417C92.1865 240.548 89.6676 240.575 86.8399 240.487C72.7758 240.049 61.686 229.686 62.0704 217.341C62.4549 204.995 74.1684 195.342 88.2325 195.78C93.2888 195.938 97.3406 196.386 100.584 197.084C101.03 196.045 101.496 195.012 101.983 193.986C100.482 192.585 98.8705 190.402 97.0812 187.151C90.6089 175.394 90.9752 162.773 94.5206 160.821C97.8337 158.997 107.534 164.502 114.072 174.825C124.656 161.289 140.25 149.673 161.105 140.627C163.218 139.71 165.332 138.836 167.442 138.006C182.179 131.948 196.992 128.047 211.282 127.633C209.126 117.838 210.899 109.366 213.942 108.124Z"/>
</mask>
<path fill-rule="evenodd" clip-rule="evenodd" d="M213.942 108.124C217.689 106.594 227.733 114.245 232.805 126.671C233.343 127.99 233.775 129.19 234.112 130.284C234.378 130.358 234.643 130.434 234.907 130.512C234.931 130.471 234.955 130.431 234.979 130.391C242.131 118.273 256.552 113.538 267.189 119.816C277.826 126.094 280.651 141.007 273.499 153.125C272.927 154.094 272.364 155.011 271.813 155.881C274.614 159.281 277.326 163.026 279.937 167.139C279.891 167.167 279.845 167.193 279.8 167.221C284.022 173.927 287.929 181.61 291.478 190.354C293.829 196.149 295.247 201.505 295.796 206.516C296.777 207.265 297.601 208.25 298.169 209.441C299.961 213.201 298.578 217.655 295.093 219.771C292.627 230.399 285.503 239.539 274.553 248.462C296.529 237.788 331.414 223.618 354.034 235.185C381.627 249.297 375.732 277.547 352.759 277.847C344.609 277.953 323.871 276.533 304.32 274.414C312.323 279.807 319.493 286.211 325.039 293.4C339.978 290.673 391.359 315.972 386.318 345.729C382.144 370.373 366.413 384.449 350.409 383.463C350.37 383.46 350.331 383.458 350.292 383.456C349.974 383.435 349.655 383.408 349.337 383.375C349.308 383.372 349.28 383.369 349.251 383.366C349.12 383.352 348.989 383.336 348.858 383.32C348.738 383.305 348.618 383.29 348.497 383.273C348.378 383.257 348.258 383.242 348.139 383.224C347.947 383.195 347.755 383.162 347.564 383.129C347.459 383.111 347.355 383.092 347.25 383.072C347.072 383.039 346.894 383.004 346.716 382.967C346.657 382.954 346.599 382.943 346.54 382.931C346.313 382.882 346.086 382.829 345.858 382.773C345.782 382.755 345.705 382.736 345.628 382.717C345.424 382.665 345.22 382.611 345.017 382.555C344.982 382.545 344.948 382.537 344.913 382.527C344.887 382.52 344.862 382.511 344.836 382.504C333.306 379.214 322.457 369.173 311.931 357.672C306.705 361.145 300.935 364.53 294.915 367.719C307.621 379.231 310.121 391.83 304.009 410.672C301.447 418.568 290.083 426.628 279.265 430.677L279.266 430.678C279.253 430.683 279.239 430.686 279.226 430.691C278.879 430.821 278.533 430.945 278.189 431.066C278.166 431.074 278.144 431.083 278.122 431.091C277.406 431.341 276.694 431.572 275.988 431.784C275.952 431.795 275.915 431.805 275.879 431.816C275.187 432.022 274.502 432.21 273.825 432.377C273.778 432.388 273.731 432.4 273.685 432.411C273.391 432.482 273.099 432.55 272.809 432.614C272.748 432.627 272.688 432.641 272.627 432.654C272.539 432.673 272.451 432.691 272.363 432.709C272.245 432.733 272.127 432.757 272.01 432.78C271.909 432.8 271.809 432.82 271.709 432.839C271.566 432.866 271.423 432.892 271.28 432.917C271.133 432.943 270.985 432.967 270.839 432.99C270.738 433.006 270.638 433.023 270.537 433.038C270.421 433.056 270.306 433.072 270.191 433.088C270.109 433.099 270.028 433.11 269.947 433.121C269.805 433.14 269.664 433.157 269.524 433.174C269.36 433.193 269.198 433.211 269.037 433.226C268.974 433.233 268.911 433.238 268.848 433.244C268.711 433.257 268.575 433.268 268.441 433.278C268.371 433.283 268.302 433.289 268.233 433.294C268.052 433.306 267.872 433.316 267.693 433.324C267.598 433.328 267.503 433.331 267.408 433.334C267.325 433.336 267.241 433.339 267.158 433.341C267.053 433.343 266.949 433.344 266.845 433.345C266.493 433.346 266.149 433.338 265.812 433.321C265.741 433.318 265.671 433.313 265.602 433.308C265.494 433.302 265.388 433.294 265.282 433.285C265.205 433.279 265.128 433.273 265.051 433.266C264.893 433.25 264.736 433.233 264.582 433.213C264.52 433.205 264.457 433.195 264.396 433.186C264.302 433.173 264.21 433.159 264.118 433.143C264.036 433.13 263.955 433.116 263.874 433.101C263.773 433.083 263.673 433.062 263.573 433.041C263.525 433.031 263.477 433.023 263.429 433.013C238.949 427.527 211.062 393.382 202.34 364.998L202.437 364.985C199.922 360.521 197.678 355.459 195.718 350.029C195.737 350.027 195.756 350.025 195.775 350.023C195.761 349.99 195.746 349.958 195.732 349.925C195.63 349.697 195.529 349.469 195.428 349.241C195.034 348.354 194.647 347.461 194.265 346.563C194.299 359.38 193.351 371.321 191.068 377.723C189.423 382.337 183.793 387.241 176.558 390.831C176.566 390.832 176.575 390.834 176.583 390.835C175.266 391.485 173.895 392.089 172.486 392.639C157.591 398.531 138.341 398.476 131.689 381.016C131.21 379.887 130.782 378.685 130.409 377.406C124.934 358.618 128.096 342.214 135.021 329.072C136.079 327.113 137.208 325.21 138.388 323.362C141.744 318.235 145.642 313.715 149.71 309.864C151.808 307.672 153.98 305.679 156.189 303.913C137.556 305.432 121.735 299.94 110.798 283.227C101.509 269.032 96.1799 254.556 94.4308 240.417C92.1865 240.548 89.6676 240.575 86.8399 240.487C72.7758 240.049 61.686 229.686 62.0704 217.341C62.4549 204.995 74.1684 195.342 88.2325 195.78C93.2888 195.938 97.3406 196.386 100.584 197.084C101.03 196.045 101.496 195.012 101.983 193.986C100.482 192.585 98.8705 190.402 97.0812 187.151C90.6089 175.394 90.9752 162.773 94.5206 160.821C97.8337 158.997 107.534 164.502 114.072 174.825C124.656 161.289 140.25 149.673 161.105 140.627C163.218 139.71 165.332 138.836 167.442 138.006C182.179 131.948 196.992 128.047 211.282 127.633C209.126 117.838 210.899 109.366 213.942 108.124Z" fill="#FFAAAB"/>
<path d="M213.942 108.124L210.268 99.1247L210.268 99.125L213.942 108.124ZM232.805 126.671L241.804 122.998L241.804 122.997L232.805 126.671ZM234.112 130.284L224.824 133.147L226.386 138.217L231.496 139.645L234.112 130.284ZM234.907 130.512L232.179 139.841L239.444 141.966L243.284 135.442L234.907 130.512ZM234.979 130.391L226.608 125.45L226.608 125.45L234.979 130.391ZM267.189 119.816L272.129 111.446L272.129 111.445L267.189 119.816ZM273.499 153.125L281.87 158.065L281.87 158.065L273.499 153.125ZM271.813 155.881L263.602 150.678L259.833 156.627L264.311 162.062L271.813 155.881ZM279.937 167.139L285.088 175.381L293.388 170.193L288.143 161.93L279.937 167.139ZM279.8 167.221L274.675 158.962L266.363 164.12L271.574 172.399L279.8 167.221ZM291.478 190.354L300.484 186.7V186.7L291.478 190.354ZM295.796 206.516L286.134 207.574L286.587 211.713L289.896 214.24L295.796 206.516ZM298.169 209.441L306.943 205.258L306.943 205.258L298.169 209.441ZM295.093 219.771L290.047 211.464L286.549 213.588L285.624 217.574L295.093 219.771ZM274.553 248.462L268.413 240.927L278.8 257.205L274.553 248.462ZM354.034 235.185L358.46 226.531L358.46 226.531L354.034 235.185ZM352.759 277.847L352.886 287.566H352.886L352.759 277.847ZM304.32 274.414L305.368 264.751L298.888 282.474L304.32 274.414ZM325.039 293.4L317.343 299.337L320.96 304.026L326.785 302.962L325.039 293.4ZM386.318 345.729L395.902 347.353V347.353L386.318 345.729ZM350.409 383.463L351.007 373.761L351.002 373.761L350.409 383.463ZM350.292 383.456L349.65 393.155L349.655 393.155L350.292 383.456ZM349.337 383.375L350.34 373.707L350.335 373.706L349.337 383.375ZM349.251 383.366L348.215 393.031L348.221 393.031L349.251 383.366ZM348.858 383.32L350.042 373.673L350.037 373.672L348.858 383.32ZM348.497 383.273L347.177 392.903L347.183 392.904L348.497 383.273ZM348.139 383.224L349.593 373.613L349.588 373.612L348.139 383.224ZM347.564 383.129L345.894 392.704L345.899 392.705L347.564 383.129ZM347.25 383.072L349.036 373.518L349.032 373.517L347.25 383.072ZM346.716 382.967L344.732 392.482L344.735 392.483L346.716 382.967ZM346.54 382.931L348.589 373.429L348.586 373.428L346.54 382.931ZM345.858 382.773L343.559 392.217L343.561 392.218L345.858 382.773ZM345.628 382.717L348.012 373.294L348.01 373.293L345.628 382.717ZM345.017 382.555L342.41 391.919L342.411 391.919L345.017 382.555ZM344.913 382.527L342.269 391.881L342.269 391.881L344.913 382.527ZM344.836 382.504L347.511 373.159L347.503 373.157L344.836 382.504ZM311.931 357.672L319.101 351.11L313.482 344.969L306.55 349.577L311.931 357.672ZM294.915 367.719L290.366 359.129L278.118 365.616L288.389 374.922L294.915 367.719ZM304.009 410.672L313.255 413.671L313.255 413.671L304.009 410.672ZM279.265 430.677L275.858 421.573L261.71 426.868L272.392 437.55L279.265 430.677ZM279.266 430.678L282.672 439.781L296.821 434.487L286.139 423.805L279.266 430.678ZM279.226 430.691L275.826 421.585L275.826 421.585L279.226 430.691ZM278.189 431.066L274.972 421.894L274.972 421.894L278.189 431.066ZM278.122 431.091L281.326 440.267L281.326 440.267L278.122 431.091ZM275.988 431.784L273.192 422.475L273.191 422.475L275.988 431.784ZM275.879 431.816L278.654 441.132L278.654 441.132L275.879 431.816ZM273.825 432.377L271.496 422.94L271.495 422.94L273.825 432.377ZM273.685 432.411L275.982 441.856L275.982 441.856L273.685 432.411ZM272.809 432.614L270.724 423.12L270.723 423.12L272.809 432.614ZM272.627 432.654L274.666 442.158L274.666 442.158L272.627 432.654ZM272.363 432.709L270.392 423.191L270.392 423.191L272.363 432.709ZM272.01 432.78L273.888 442.317L273.888 442.317L272.01 432.78ZM271.709 432.839L269.913 423.286L269.913 423.286L271.709 432.839ZM271.28 432.917L272.956 442.491L272.957 442.491L271.28 432.917ZM270.839 432.99L269.292 423.394L269.292 423.394L270.839 432.99ZM270.537 433.038L271.992 442.648L271.993 442.648L270.537 433.038ZM270.191 433.088L268.844 423.462L268.843 423.462L270.191 433.088ZM269.947 433.121L271.216 442.758L271.216 442.758L269.947 433.121ZM269.524 433.174L268.397 423.519L268.397 423.519L269.524 433.174ZM269.037 433.226L269.993 442.899L269.993 442.899L269.037 433.226ZM268.848 433.244L267.962 423.565L267.961 423.565L268.848 433.244ZM268.441 433.278L269.172 442.971L269.173 442.971L268.441 433.278ZM268.233 433.294L267.583 423.596L267.583 423.596L268.233 433.294ZM267.693 433.324L268.121 443.035L268.122 443.035L267.693 433.324ZM267.408 433.334L267.105 423.619H267.104L267.408 433.334ZM267.158 433.341L267.349 443.059H267.35L267.158 433.341ZM266.845 433.345L266.801 423.625H266.801L266.845 433.345ZM265.812 433.321L265.321 443.029L265.321 443.029L265.812 433.321ZM265.602 433.308L266.212 423.608H266.211L265.602 433.308ZM265.282 433.285L264.483 442.972L264.483 442.972L265.282 433.285ZM265.051 433.266L265.993 423.591H265.993L265.051 433.266ZM264.582 433.213L263.332 442.852L263.332 442.852L264.582 433.213ZM264.396 433.186L263.016 442.808H263.016L264.396 433.186ZM264.118 433.143L265.699 423.553L265.699 423.553L264.118 433.143ZM263.874 433.101L262.108 442.66H262.108L263.874 433.101ZM263.573 433.041L265.579 423.53L265.579 423.53L263.573 433.041ZM263.429 433.013L261.304 442.497L261.304 442.497L263.429 433.013ZM202.34 364.998L201.074 355.361L189.67 356.858L193.049 367.853L202.34 364.998ZM202.437 364.985L203.702 374.622L217.965 372.75L210.906 360.215L202.437 364.985ZM195.718 350.029L194.838 340.349L182.301 341.489L186.575 353.33L195.718 350.029ZM195.775 350.023L196.64 359.705L210.232 358.491L204.643 346.042L195.775 350.023ZM195.732 349.925L204.601 345.949L204.601 345.949L195.732 349.925ZM195.428 349.241L186.543 353.182L186.543 353.182L195.428 349.241ZM194.265 346.563L203.209 342.758L184.545 346.589L194.265 346.563ZM191.068 377.723L200.224 380.987L200.224 380.987L191.068 377.723ZM176.558 390.831L172.238 382.124L143.966 396.151L175.231 400.46L176.558 390.831ZM176.583 390.835L180.887 399.55L209.309 385.515L177.905 381.205L176.583 390.835ZM172.486 392.639L168.952 383.584L168.931 383.592L168.911 383.6L172.486 392.639ZM131.689 381.016L140.772 377.555L140.708 377.387L140.638 377.222L131.689 381.016ZM130.409 377.406L121.077 380.125L121.077 380.126L130.409 377.406ZM135.021 329.072L126.469 324.451L126.445 324.496L126.421 324.541L135.021 329.072ZM138.388 323.362L130.255 318.039L130.225 318.084L130.196 318.13L138.388 323.362ZM149.71 309.864L156.391 316.924L156.566 316.758L156.732 316.585L149.71 309.864ZM156.189 303.913L162.259 311.504L187.1 291.641L155.399 294.225L156.189 303.913ZM110.798 283.227L102.665 288.55L102.665 288.55L110.798 283.227ZM94.4308 240.417L104.077 239.223L102.959 230.184L93.8658 230.713L94.4308 240.417ZM86.8399 240.487L86.5373 250.202H86.5374L86.8399 240.487ZM62.0704 217.341L52.3551 217.038L52.3551 217.038L62.0704 217.341ZM88.2325 195.78L88.5351 186.065H88.5351L88.2325 195.78ZM100.584 197.084L98.54 206.587L106.365 208.27L109.518 200.913L100.584 197.084ZM101.983 193.986L110.762 198.16L113.818 191.733L108.614 186.879L101.983 193.986ZM97.0812 187.151L88.5662 191.839L88.5662 191.839L97.0812 187.151ZM94.5206 160.821L89.833 152.306L89.8326 152.306L94.5206 160.821ZM114.072 174.825L105.861 180.026L113.238 191.673L121.73 180.812L114.072 174.825ZM161.105 140.627L157.237 131.71L157.237 131.71L161.105 140.627ZM167.442 138.006L170.999 147.052L171.069 147.024L171.138 146.996L167.442 138.006ZM211.282 127.633L211.564 137.349L223.3 137.008L220.775 125.542L211.282 127.633ZM213.942 108.124L217.615 117.123C214.771 118.284 212.942 117.122 213.769 117.494C214.133 117.657 215.056 118.195 216.349 119.367C218.895 121.674 221.825 125.491 223.806 130.344L232.805 126.671L241.804 122.997C238.713 115.425 234.084 109.204 229.404 104.962C227.083 102.859 224.476 100.994 221.744 99.765C219.475 98.7441 214.985 97.1993 210.268 99.1247L213.942 108.124ZM232.805 126.671L223.806 130.344C224.254 131.442 224.584 132.37 224.824 133.147L234.112 130.284L243.401 127.421C242.967 126.011 242.433 124.538 241.804 122.998L232.805 126.671ZM234.112 130.284L231.496 139.645C231.719 139.708 231.947 139.773 232.179 139.841L234.907 130.512L237.636 121.182C237.339 121.095 237.036 121.009 236.729 120.923L234.112 130.284ZM234.907 130.512L243.284 135.442C243.314 135.391 243.329 135.365 243.349 135.331L234.979 130.391L226.608 125.45C226.58 125.497 226.548 125.552 226.531 125.581L234.907 130.512ZM234.979 130.391L243.349 135.331C248.397 126.778 257.226 125.223 262.248 128.187L267.189 119.816L272.129 111.445C255.877 101.854 235.864 109.768 226.608 125.45L234.979 130.391ZM267.189 119.816L262.248 128.187C267.271 131.151 270.176 139.632 265.128 148.184L273.499 153.125L281.87 158.065C291.126 142.383 288.381 121.037 272.129 111.446L267.189 119.816ZM273.499 153.125L265.128 148.184C264.613 149.058 264.103 149.888 263.602 150.678L271.813 155.881L280.023 161.083C280.624 160.134 281.242 159.13 281.87 158.065L273.499 153.125ZM271.813 155.881L264.311 162.062C266.843 165.134 269.321 168.552 271.73 172.347L279.937 167.139L288.143 161.93C285.331 157.5 282.386 153.427 279.314 149.699L271.813 155.881ZM279.937 167.139L274.785 158.896C274.843 158.86 274.888 158.833 274.912 158.818C274.934 158.805 274.95 158.796 274.937 158.804C274.934 158.805 274.922 158.812 274.91 158.819C274.897 158.827 274.879 158.838 274.857 158.851C274.815 158.876 274.751 158.914 274.675 158.962L279.8 167.221L284.925 175.48C284.871 175.513 284.83 175.538 284.811 175.549C284.795 175.559 284.781 175.567 284.8 175.556C284.81 175.55 284.849 175.527 284.893 175.5C284.94 175.472 285.008 175.431 285.088 175.381L279.937 167.139ZM279.8 167.221L271.574 172.399C275.455 178.564 279.11 185.728 282.471 194.009L291.478 190.354L300.484 186.7C296.749 177.493 292.589 169.291 288.026 162.042L279.8 167.221ZM291.478 190.354L282.471 194.009C284.553 199.141 285.701 203.619 286.134 207.574L295.796 206.516L305.458 205.457C304.794 199.391 303.105 193.157 300.484 186.7L291.478 190.354ZM295.796 206.516L289.896 214.24C289.69 214.083 289.511 213.868 289.395 213.625L298.169 209.441L306.943 205.258C305.691 202.633 303.865 200.447 301.696 198.791L295.796 206.516ZM298.169 209.441L289.395 213.624C289.018 212.834 289.312 211.91 290.047 211.464L295.093 219.771L300.139 228.079C307.843 223.399 310.904 213.568 306.943 205.258L298.169 209.441ZM295.093 219.771L285.624 217.574C283.849 225.224 278.561 232.657 268.413 240.927L274.553 248.462L280.693 255.997C292.445 246.42 301.405 235.573 304.561 221.968L295.093 219.771ZM274.553 248.462L278.8 257.205C289.585 251.966 303.053 246.118 316.32 242.934C329.871 239.682 341.418 239.651 349.609 243.839L354.034 235.185L358.46 226.531C344.03 219.152 326.824 220.422 311.784 224.031C296.46 227.709 281.497 234.283 270.306 239.719L274.553 248.462ZM354.034 235.185L349.609 243.839C360.878 249.603 363.076 256.885 362.688 260.718C362.334 264.216 359.644 268.036 352.632 268.127L352.759 277.847L352.886 287.566C368.847 287.358 380.591 276.903 382.029 262.673C383.434 248.778 374.783 234.879 358.46 226.531L354.034 235.185ZM352.759 277.847L352.632 268.127C345.112 268.225 324.874 266.864 305.368 264.751L304.32 274.414L303.273 284.077C322.868 286.201 344.105 287.68 352.886 287.566L352.759 277.847ZM304.32 274.414L298.888 282.474C306.196 287.399 312.547 293.12 317.343 299.337L325.039 293.4L332.735 287.463C326.44 279.303 318.449 272.215 309.753 266.354L304.32 274.414ZM325.039 293.4L326.785 302.962C327.854 302.767 331.798 303.043 338.343 305.391C344.393 307.561 351.307 311.012 357.656 315.387C364.05 319.792 369.436 324.835 372.883 330.006C376.287 335.114 377.466 339.789 376.735 344.106L386.318 345.729L395.902 347.353C397.691 336.791 394.338 327.145 389.059 319.225C383.823 311.369 376.375 304.677 368.686 299.379C360.952 294.05 352.536 289.829 344.907 287.092C337.774 284.534 329.694 282.67 323.294 283.838L325.039 293.4ZM386.318 345.729L376.735 344.106C373.031 365.973 360.163 374.326 351.007 373.761L350.409 383.463L349.811 393.164C372.662 394.573 391.258 374.772 395.902 347.353L386.318 345.729ZM350.409 383.463L351.002 373.761C350.972 373.759 350.946 373.758 350.929 373.757C350.92 373.756 350.912 373.756 350.906 373.755C350.898 373.755 350.897 373.755 350.892 373.755C350.885 373.754 350.887 373.754 350.892 373.755C350.898 373.755 350.911 373.756 350.929 373.757L350.292 383.456L349.655 393.155C349.726 393.16 349.787 393.163 349.809 393.164C349.826 393.165 349.826 393.165 349.831 393.166C349.833 393.166 349.827 393.165 349.817 393.165L350.409 383.463ZM350.292 383.456L350.934 373.757C350.734 373.744 350.536 373.727 350.34 373.707L349.337 383.375L348.334 393.043C348.775 393.089 349.213 393.126 349.65 393.155L350.292 383.456ZM349.337 383.375L350.335 373.706C350.318 373.705 350.304 373.703 350.293 373.702C350.288 373.701 350.283 373.701 350.28 373.701C350.275 373.7 350.273 373.7 350.27 373.7C350.266 373.699 350.265 373.699 350.266 373.699C350.268 373.699 350.273 373.7 350.281 373.701L349.251 383.366L348.221 393.031C348.263 393.036 348.3 393.04 348.318 393.041C348.322 393.042 348.327 393.042 348.33 393.043C348.334 393.043 348.336 393.043 348.338 393.043C348.342 393.044 348.342 393.044 348.339 393.044L349.337 383.375ZM349.251 383.366L350.287 373.701C350.236 373.696 350.169 373.688 350.042 373.673L348.858 383.32L347.675 392.968C347.81 392.984 348.004 393.008 348.215 393.031L349.251 383.366ZM348.858 383.32L350.037 373.672C349.97 373.664 349.895 373.654 349.811 373.643L348.497 383.273L347.183 392.904C347.34 392.925 347.506 392.947 347.68 392.969L348.858 383.32ZM348.497 383.273L349.817 373.643C349.775 373.638 349.735 373.632 349.706 373.628C349.673 373.624 349.652 373.621 349.631 373.618C349.591 373.613 349.584 373.612 349.593 373.613L348.139 383.224L346.685 392.834C346.893 392.866 347.165 392.902 347.177 392.903L348.497 383.273ZM348.139 383.224L349.588 373.612C349.506 373.6 349.401 373.582 349.228 373.552L347.564 383.129L345.899 392.705C346.11 392.742 346.388 392.789 346.69 392.835L348.139 383.224ZM347.564 383.129L349.233 373.553C349.169 373.542 349.103 373.53 349.036 373.518L347.25 383.072L345.464 392.627C345.606 392.653 345.75 392.679 345.894 392.704L347.564 383.129ZM347.25 383.072L349.032 373.517C348.923 373.497 348.812 373.475 348.696 373.451L346.716 382.967L344.735 392.483C344.976 392.533 345.221 392.581 345.469 392.628L347.25 383.072ZM346.716 382.967L348.7 373.451C348.662 373.443 348.629 373.437 348.605 373.432C348.594 373.43 348.583 373.427 348.575 373.426C348.565 373.424 348.561 373.423 348.555 373.422C348.545 373.42 348.545 373.42 348.55 373.421C348.555 373.422 348.569 373.425 348.589 373.429L346.54 382.931L344.491 392.432C344.585 392.452 344.666 392.469 344.701 392.476C344.728 392.481 344.727 392.481 344.739 392.483C344.745 392.485 344.741 392.484 344.732 392.482L346.716 382.967ZM346.54 382.931L348.586 373.428C348.466 373.403 348.327 373.37 348.156 373.329L345.858 382.773L343.561 392.218C343.844 392.287 344.159 392.361 344.495 392.433L346.54 382.931ZM345.858 382.773L348.158 373.329C348.048 373.302 348.034 373.299 348.012 373.294L345.628 382.717L343.244 392.14C343.376 392.173 343.516 392.207 343.559 392.217L345.858 382.773ZM345.628 382.717L348.01 373.293C347.875 373.259 347.746 373.225 347.623 373.19L345.017 382.555L342.411 391.919C342.695 391.998 342.973 392.071 343.246 392.14L345.628 382.717ZM345.017 382.555L347.623 373.191C347.548 373.17 347.486 373.153 347.446 373.143C347.426 373.138 347.409 373.133 347.397 373.13C347.387 373.128 347.377 373.125 347.376 373.125C347.372 373.124 347.376 373.125 347.381 373.126C347.387 373.128 347.398 373.13 347.413 373.134C347.442 373.142 347.493 373.156 347.557 373.174L344.913 382.527L342.269 391.881C342.351 391.904 342.419 391.922 342.465 391.934C342.509 391.946 342.546 391.955 342.554 391.957C342.571 391.962 342.554 391.957 342.536 391.952C342.513 391.947 342.468 391.935 342.41 391.919L345.017 382.555ZM344.913 382.527L347.557 373.174C347.635 373.196 347.696 373.214 347.732 373.225C347.75 373.231 347.765 373.235 347.773 373.238C347.78 373.24 347.785 373.242 347.782 373.241C347.782 373.241 347.772 373.237 347.761 373.234C347.749 373.23 347.731 373.225 347.709 373.218C347.687 373.211 347.659 373.202 347.626 373.193C347.593 373.183 347.554 373.172 347.511 373.159L344.836 382.504L342.161 391.849C342.089 391.828 342.032 391.81 342.002 391.801C341.986 391.796 341.974 391.793 341.969 391.791C341.965 391.79 341.961 391.788 341.967 391.79C341.97 391.792 341.982 391.795 341.996 391.799C342.01 391.804 342.031 391.81 342.056 391.818C342.104 391.833 342.179 391.855 342.269 391.881L344.913 382.527ZM344.836 382.504L347.503 373.157C338.917 370.707 329.721 362.714 319.101 351.11L311.931 357.672L304.76 364.234C315.193 375.633 327.694 387.721 342.169 391.851L344.836 382.504ZM311.931 357.672L306.55 349.577C301.637 352.843 296.151 356.065 290.366 359.129L294.915 367.719L299.464 376.308C305.719 372.996 311.774 369.448 317.312 365.766L311.931 357.672ZM294.915 367.719L288.389 374.922C293.608 379.651 296.07 383.959 297.004 388.433C297.979 393.104 297.533 399.133 294.763 407.672L304.009 410.672L313.255 413.671C316.597 403.368 317.957 393.677 316.034 384.461C314.069 375.047 308.928 367.299 301.442 360.516L294.915 367.719ZM304.009 410.672L294.763 407.672C294.37 408.884 292.696 411.39 288.768 414.443C285.086 417.305 280.416 419.868 275.858 421.573L279.265 430.677L282.671 439.78C288.932 437.437 295.353 433.946 300.698 429.792C305.798 425.828 311.086 420.356 313.255 413.671L304.009 410.672ZM279.265 430.677L272.392 437.55L272.393 437.551L279.266 430.678L286.139 423.805L286.138 423.804L279.265 430.677ZM279.266 430.678L275.859 421.574C275.923 421.55 275.98 421.53 276.027 421.513C276.075 421.496 276.115 421.483 276.146 421.472C276.176 421.462 276.201 421.454 276.215 421.449C276.222 421.447 276.228 421.445 276.231 421.444C276.234 421.443 276.236 421.442 276.235 421.442C276.235 421.442 276.231 421.444 276.227 421.445C276.222 421.447 276.215 421.449 276.207 421.452C276.19 421.457 276.162 421.466 276.129 421.478C276.095 421.489 276.052 421.504 276.002 421.521C275.952 421.539 275.893 421.56 275.826 421.585L279.226 430.691L282.625 439.797C282.562 439.821 282.506 439.841 282.459 439.858C282.412 439.874 282.372 439.888 282.342 439.898C282.312 439.908 282.288 439.916 282.275 439.92C282.268 439.923 282.262 439.925 282.259 439.925C282.257 439.926 282.255 439.927 282.256 439.927C282.257 439.926 282.261 439.925 282.265 439.924C282.27 439.922 282.278 439.92 282.287 439.917C282.304 439.911 282.332 439.902 282.366 439.89C282.4 439.879 282.444 439.864 282.494 439.846C282.545 439.828 282.605 439.806 282.672 439.781L279.266 430.678ZM279.226 430.691L275.826 421.585C275.547 421.69 275.262 421.792 274.972 421.894L278.189 431.066L281.405 440.239C281.805 440.099 282.212 439.952 282.625 439.797L279.226 430.691ZM278.189 431.066L274.972 421.894C274.897 421.92 274.836 421.943 274.797 421.957C274.777 421.964 274.761 421.971 274.75 421.975C274.74 421.978 274.731 421.982 274.73 421.982C274.726 421.983 274.731 421.982 274.736 421.98C274.743 421.977 274.755 421.973 274.77 421.967C274.8 421.956 274.852 421.937 274.918 421.914L278.122 431.091L281.326 440.267C281.404 440.24 281.467 440.217 281.508 440.202C281.529 440.194 281.546 440.188 281.558 440.184C281.569 440.179 281.579 440.176 281.581 440.175C281.586 440.173 281.582 440.175 281.577 440.176C281.572 440.178 281.561 440.182 281.547 440.188C281.519 440.198 281.469 440.216 281.405 440.239L278.189 431.066ZM278.122 431.091L274.918 421.914C274.333 422.118 273.757 422.305 273.192 422.475L275.988 431.784L278.785 441.093C279.631 440.839 280.479 440.563 281.326 440.267L278.122 431.091ZM275.988 431.784L273.191 422.475C273.203 422.472 273.211 422.469 273.213 422.469C273.215 422.468 273.214 422.468 273.206 422.471C273.201 422.472 273.185 422.477 273.17 422.481C273.153 422.486 273.13 422.493 273.104 422.501L275.879 431.816L278.654 441.132C278.646 441.134 278.641 441.135 278.643 441.135C278.646 441.134 278.648 441.133 278.661 441.13C278.679 441.124 278.729 441.11 278.785 441.093L275.988 431.784ZM275.879 431.816L273.104 422.501C272.549 422.666 272.013 422.813 271.496 422.94L273.825 432.377L276.155 441.814C276.991 441.607 277.825 441.379 278.654 441.132L275.879 431.816ZM273.825 432.377L271.495 422.94C271.495 422.94 271.495 422.94 271.494 422.941C271.492 422.941 271.491 422.941 271.489 422.942C271.484 422.943 271.478 422.945 271.468 422.947C271.457 422.95 271.451 422.951 271.435 422.955C271.421 422.958 271.405 422.962 271.387 422.966L273.685 432.411L275.982 441.856C275.999 441.852 276.007 441.85 276.042 441.841C276.069 441.835 276.11 441.825 276.155 441.813L273.825 432.377ZM273.685 432.411L271.388 422.966C271.155 423.023 270.935 423.074 270.724 423.12L272.809 432.614L274.893 442.108C275.263 442.027 275.626 441.942 275.982 441.856L273.685 432.411ZM272.809 432.614L270.723 423.12C270.698 423.126 270.674 423.131 270.656 423.135C270.647 423.137 270.638 423.139 270.63 423.141C270.622 423.143 270.616 423.144 270.61 423.146C270.585 423.151 270.583 423.152 270.588 423.151L272.627 432.654L274.666 442.158C274.732 442.144 274.79 442.131 274.825 442.123C274.871 442.113 274.878 442.111 274.894 442.108L272.809 432.614ZM272.627 432.654L270.588 423.15C270.542 423.16 270.562 423.156 270.392 423.191L272.363 432.709L274.334 442.227C274.34 442.226 274.536 442.186 274.666 442.158L272.627 432.654ZM272.363 432.709L270.392 423.191C270.311 423.208 270.225 423.225 270.132 423.243L272.01 432.78L273.888 442.317C274.029 442.289 274.179 442.259 274.335 442.227L272.363 432.709ZM272.01 432.78L270.132 423.243C269.998 423.27 269.96 423.277 269.913 423.286L271.709 432.839L273.505 442.391C273.659 442.363 273.82 442.33 273.888 442.317L272.01 432.78ZM271.709 432.839L269.913 423.286C269.796 423.308 269.695 423.327 269.604 423.342L271.28 432.917L272.957 442.491C273.15 442.457 273.335 442.423 273.506 442.391L271.709 432.839ZM271.28 432.917L269.605 423.342C269.531 423.355 269.446 423.369 269.292 423.394L270.839 432.99L272.386 442.586C272.525 442.564 272.734 442.53 272.956 442.491L271.28 432.917ZM270.839 432.99L269.292 423.394C269.166 423.414 269.124 423.421 269.081 423.428L270.537 433.038L271.993 442.648C272.151 442.624 272.31 442.598 272.386 442.586L270.839 432.99ZM270.537 433.038L269.082 423.428C269.03 423.435 268.97 423.444 268.844 423.462L270.191 433.088L271.537 442.714C271.641 442.7 271.812 442.676 271.992 442.648L270.537 433.038ZM270.191 433.088L268.843 423.462C268.772 423.472 268.721 423.479 268.679 423.484L269.947 433.121L271.216 442.758C271.335 442.742 271.446 442.727 271.538 442.714L270.191 433.088ZM269.947 433.121L268.679 423.484C268.579 423.497 268.485 423.509 268.397 423.519L269.524 433.174L270.65 442.828C270.843 442.806 271.032 442.782 271.216 442.758L269.947 433.121ZM269.524 433.174L268.397 423.519C268.277 423.533 268.174 423.544 268.081 423.554L269.037 433.226L269.993 442.899C270.223 442.877 270.443 442.852 270.651 442.828L269.524 433.174ZM269.037 433.226L268.082 423.554C268.083 423.553 268.077 423.554 268.056 423.556C268.045 423.557 268.034 423.558 268.017 423.559C268.002 423.561 267.982 423.563 267.962 423.565L268.848 433.244L269.734 442.924C269.752 442.922 269.883 442.91 269.993 442.899L269.037 433.226ZM268.848 433.244L267.961 423.565C267.869 423.573 267.785 423.58 267.708 423.586L268.441 433.278L269.173 442.971C269.366 442.956 269.553 442.94 269.734 442.924L268.848 433.244ZM268.441 433.278L267.709 423.586C267.679 423.588 267.652 423.59 267.632 423.592C267.608 423.594 267.599 423.594 267.585 423.595C267.561 423.597 267.567 423.597 267.583 423.596L268.233 433.294L268.884 442.992C268.969 442.986 269.044 442.981 269.089 442.977C269.152 442.972 269.149 442.972 269.172 442.971L268.441 433.278ZM268.233 433.294L267.583 423.596C267.467 423.603 267.361 423.609 267.265 423.614L267.693 433.324L268.122 443.035C268.382 443.023 268.637 443.009 268.884 442.992L268.233 433.294ZM267.693 433.324L267.266 423.614C267.27 423.613 267.263 423.614 267.235 423.615C267.22 423.615 267.204 423.616 267.182 423.616C267.162 423.617 267.133 423.618 267.105 423.619L267.408 433.334L267.712 443.049C267.755 443.048 267.945 443.042 268.121 443.035L267.693 433.324ZM267.408 433.334L267.104 423.619C267.014 423.621 266.985 423.622 266.967 423.623L267.158 433.341L267.35 443.059C267.497 443.056 267.635 443.052 267.712 443.049L267.408 433.334ZM267.158 433.341L266.967 423.623C266.904 423.624 266.849 423.625 266.801 423.625L266.845 433.345L266.889 443.065C267.048 443.064 267.202 443.062 267.349 443.059L267.158 433.341ZM266.845 433.345L266.801 423.625C266.625 423.626 266.459 423.621 266.302 423.614L265.812 433.321L265.321 443.029C265.838 443.055 266.361 443.067 266.889 443.065L266.845 433.345ZM265.812 433.321L266.302 423.614C266.321 423.615 266.329 423.615 266.311 423.614C266.303 423.613 266.293 423.613 266.275 423.612C266.26 423.611 266.236 423.609 266.212 423.608L265.602 433.308L264.992 443.009C264.995 443.01 265.171 443.021 265.321 443.029L265.812 433.321ZM265.602 433.308L266.211 423.608C266.181 423.606 266.139 423.603 266.081 423.598L265.282 433.285L264.483 442.972C264.636 442.985 264.808 442.998 264.992 443.009L265.602 433.308ZM265.282 433.285L266.081 423.598C266.049 423.595 266.019 423.593 265.999 423.591C265.976 423.589 265.967 423.589 265.957 423.588C265.949 423.587 265.95 423.587 265.955 423.588C265.961 423.588 265.974 423.589 265.993 423.591L265.051 433.266L264.109 442.94C264.221 442.951 264.317 442.959 264.375 442.963C264.501 442.974 264.41 442.966 264.483 442.972L265.282 433.285ZM265.051 433.266L265.993 423.591C265.919 423.584 265.867 423.578 265.832 423.574L264.582 433.213L263.332 442.852C263.606 442.888 263.867 442.916 264.109 442.94L265.051 433.266ZM264.582 433.213L265.832 423.574C265.85 423.576 265.863 423.578 265.869 423.578C265.875 423.579 265.877 423.58 265.872 423.579C265.866 423.578 265.858 423.577 265.841 423.574C265.826 423.572 265.802 423.569 265.776 423.565L264.396 433.186L263.016 442.808C263.138 442.826 262.937 442.797 263.105 442.821C263.155 442.828 263.236 442.84 263.332 442.852L264.582 433.213ZM264.396 433.186L265.776 423.565C265.764 423.563 265.741 423.56 265.699 423.553L264.118 433.143L262.538 442.734C262.679 442.757 262.84 442.783 263.016 442.808L264.396 433.186ZM264.118 433.143L265.699 423.553C265.661 423.547 265.643 423.544 265.631 423.542C265.62 423.54 265.625 423.54 265.64 423.543L263.874 433.101L262.108 442.66C262.291 442.693 262.455 442.72 262.538 442.734L264.118 433.143ZM263.874 433.101L265.64 423.543C265.661 423.547 265.669 423.549 265.658 423.547C265.652 423.545 265.644 423.544 265.631 423.541C265.617 423.538 265.601 423.535 265.579 423.53L263.573 433.041L261.568 442.552C261.669 442.573 261.875 442.617 262.108 442.66L263.874 433.101ZM263.573 433.041L265.579 423.53C265.529 423.52 265.485 423.511 265.447 423.503C265.41 423.496 265.377 423.489 265.352 423.485C265.327 423.48 265.306 423.476 265.293 423.474C265.287 423.472 265.281 423.471 265.278 423.471C265.274 423.47 265.273 423.47 265.272 423.47C265.27 423.469 265.276 423.47 265.287 423.472C265.298 423.474 265.316 423.478 265.339 423.482C265.362 423.487 265.392 423.493 265.428 423.501C265.464 423.508 265.506 423.517 265.554 423.528L263.429 433.013L261.304 442.497C261.422 442.524 261.521 442.544 261.591 442.558C261.657 442.571 261.713 442.581 261.73 442.584C261.762 442.59 261.739 442.586 261.722 442.583C261.697 442.578 261.641 442.567 261.568 442.552L263.573 433.041ZM263.429 433.013L265.554 423.528C256.29 421.452 244.893 413.366 234.305 401.208C223.909 389.272 215.524 374.811 211.631 362.143L202.34 364.998L193.049 367.853C197.878 383.569 207.797 400.372 219.645 413.976C231.301 427.359 246.088 439.088 261.304 442.497L263.429 433.013ZM202.34 364.998L203.605 374.635L203.702 374.622L202.437 364.985L201.171 355.348L201.074 355.361L202.34 364.998ZM202.437 364.985L210.906 360.215C208.709 356.315 206.678 351.764 204.86 346.729L195.718 350.029L186.575 353.33C188.679 359.155 191.135 364.727 193.968 369.755L202.437 364.985ZM195.718 350.029L196.598 359.709C196.656 359.704 196.703 359.699 196.733 359.696C196.749 359.695 196.761 359.693 196.77 359.692C196.778 359.691 196.785 359.691 196.786 359.691C196.788 359.69 196.785 359.691 196.78 359.691C196.776 359.692 196.766 359.693 196.755 359.694C196.731 359.696 196.691 359.7 196.64 359.705L195.775 350.023L194.911 340.342C194.85 340.347 194.8 340.352 194.768 340.356C194.751 340.357 194.737 340.359 194.727 340.36C194.718 340.361 194.71 340.362 194.708 340.362C194.704 340.362 194.706 340.362 194.709 340.362C194.713 340.361 194.721 340.361 194.731 340.359C194.752 340.357 194.79 340.354 194.838 340.349L195.718 350.029ZM195.775 350.023L204.643 346.042C204.645 346.047 204.645 346.048 204.637 346.03C204.632 346.017 204.617 345.984 204.601 345.949L195.732 349.925L186.862 353.901C186.861 353.898 186.861 353.898 186.87 353.918C186.876 353.933 186.891 353.967 186.908 354.005L195.775 350.023ZM195.732 349.925L204.601 345.949C204.51 345.745 204.425 345.553 204.313 345.3L195.428 349.241L186.543 353.182C186.633 353.385 186.75 353.65 186.862 353.901L195.732 349.925ZM195.428 349.241L204.313 345.3C203.94 344.459 203.572 343.612 203.209 342.758L194.265 346.563L185.321 350.369C185.721 351.31 186.128 352.248 186.543 353.182L195.428 349.241ZM194.265 346.563L184.545 346.589C184.579 359.465 183.562 369.834 181.913 374.458L191.068 377.723L200.224 380.987C203.141 372.807 204.019 359.295 203.985 346.538L194.265 346.563ZM191.068 377.723L181.913 374.458C181.842 374.658 181.295 375.747 179.43 377.416C177.673 378.987 175.217 380.645 172.238 382.124L176.558 390.831L180.878 399.538C185.133 397.427 189.11 394.839 192.389 391.906C195.558 389.072 198.65 385.401 200.224 380.987L191.068 377.723ZM176.558 390.831L175.231 400.46C175.193 400.455 175.161 400.45 175.133 400.446C175.106 400.442 175.083 400.438 175.066 400.436C175.048 400.433 175.034 400.431 175.027 400.43C175.023 400.429 175.019 400.428 175.018 400.428C175.016 400.428 175.015 400.428 175.016 400.428C175.016 400.428 175.025 400.429 175.034 400.431C175.045 400.432 175.061 400.435 175.081 400.438C175.101 400.441 175.127 400.445 175.157 400.45C175.187 400.454 175.222 400.459 175.261 400.465L176.583 390.835L177.905 381.205C177.942 381.21 177.975 381.215 178.003 381.219C178.031 381.223 178.054 381.227 178.072 381.23C178.09 381.232 178.105 381.235 178.113 381.236C178.117 381.237 178.12 381.237 178.122 381.238C178.124 381.238 178.125 381.238 178.125 381.238C178.125 381.238 178.122 381.238 178.12 381.237C178.117 381.237 178.113 381.236 178.108 381.235C178.098 381.234 178.082 381.231 178.063 381.228C178.043 381.225 178.018 381.221 177.988 381.217C177.959 381.212 177.924 381.207 177.885 381.202L176.558 390.831ZM176.583 390.835L172.279 382.12C171.222 382.642 170.108 383.133 168.952 383.584L172.486 392.639L176.021 401.693C177.682 401.045 179.31 400.329 180.887 399.55L176.583 390.835ZM172.486 392.639L168.911 383.6C162.589 386.101 155.993 387.043 150.852 386.043C146.246 385.147 142.764 382.784 140.772 377.555L131.689 381.016L122.606 384.476C127.266 396.707 136.735 403.102 147.141 405.126C157.011 407.045 167.488 405.069 176.062 401.677L172.486 392.639ZM131.689 381.016L140.638 377.222C140.314 376.458 140.012 375.615 139.741 374.687L130.409 377.406L121.077 380.126C121.552 381.754 122.106 383.316 122.739 384.809L131.689 381.016ZM130.409 377.406L139.741 374.687C135.043 358.566 137.745 344.753 143.62 333.603L135.021 329.072L126.421 324.541C118.447 339.676 114.825 358.671 121.077 380.125L130.409 377.406ZM135.021 329.072L143.572 333.693C144.509 331.959 145.516 330.259 146.579 328.595L138.388 323.362L130.196 318.13C128.899 320.16 127.649 322.268 126.469 324.451L135.021 329.072ZM138.388 323.362L146.521 328.685C149.426 324.247 152.823 320.301 156.391 316.924L149.71 309.864L143.029 302.805C138.461 307.128 134.062 312.223 130.255 318.039L138.388 323.362ZM149.71 309.864L156.732 316.585C158.55 314.686 160.406 312.986 162.259 311.504L156.189 303.913L150.118 296.321C147.554 298.372 145.065 300.659 142.688 303.144L149.71 309.864ZM156.189 303.913L155.399 294.225C147.226 294.891 140.276 293.97 134.429 291.47C128.678 289.01 123.435 284.788 118.931 277.905L110.798 283.227L102.665 288.55C109.097 298.379 117.234 305.259 126.785 309.344C136.242 313.388 146.518 314.453 156.978 313.601L156.189 303.913ZM110.798 283.227L118.931 277.905C110.375 264.83 105.627 251.749 104.077 239.223L94.4308 240.417L84.7843 241.61C86.7329 257.362 92.6424 273.234 102.665 288.55L110.798 283.227ZM94.4308 240.417L93.8658 230.713C91.9577 230.824 89.7326 230.853 87.1425 230.772L86.8399 240.487L86.5374 250.202C89.6027 250.298 92.4153 250.271 94.9957 250.12L94.4308 240.417ZM86.8399 240.487L87.1425 230.772C77.2154 230.463 71.6042 223.472 71.7857 217.643L62.0704 217.341L52.3551 217.038C51.7677 235.901 68.3363 249.636 86.5373 250.202L86.8399 240.487ZM62.0704 217.341L71.7857 217.643C71.9672 211.814 78.0029 205.186 87.9299 205.495L88.2325 195.78L88.5351 186.065C70.3339 185.498 52.9426 198.176 52.3551 217.038L62.0704 217.341ZM88.2325 195.78L87.9299 205.495C92.6131 205.641 96.0454 206.05 98.54 206.587L100.584 197.084L102.628 187.581C98.6358 186.722 93.9645 186.234 88.5351 186.065L88.2325 195.78ZM100.584 197.084L109.518 200.913C109.915 199.988 110.329 199.07 110.762 198.16L101.983 193.986L93.2053 189.812C92.6627 190.953 92.1446 192.101 91.6503 193.254L100.584 197.084ZM101.983 193.986L108.614 186.879C108.172 186.467 107.144 185.275 105.596 182.464L97.0812 187.151L88.5662 191.839C90.597 195.528 92.7917 198.704 95.3528 201.093L101.983 193.986ZM97.0812 187.151L105.596 182.464C103.068 177.871 101.942 173.194 101.749 169.763C101.651 168.021 101.813 166.964 101.915 166.578C102.146 165.702 101.899 167.855 99.2087 169.336L94.5206 160.821L89.8326 152.306C85.3694 154.764 83.7476 159.226 83.1146 161.633C82.3526 164.53 82.1635 167.729 82.3396 170.856C82.6949 177.163 84.6221 184.674 88.5662 191.839L97.0812 187.151ZM94.5206 160.821L99.2082 169.336C96.6571 170.741 94.7616 169.957 95.3906 170.136C95.623 170.202 96.4277 170.51 97.6937 171.355C100.18 173.013 103.294 175.973 105.861 180.026L114.072 174.825L122.284 169.624C118.312 163.354 113.306 158.4 108.48 155.182C106.09 153.587 103.44 152.216 100.717 151.44C98.3911 150.778 94.0407 149.99 89.833 152.306L94.5206 160.821ZM114.072 174.825L121.73 180.812C131.106 168.819 145.261 158.094 164.972 149.544L161.105 140.627L157.237 131.71C135.238 141.252 118.205 153.758 106.415 168.838L114.072 174.825ZM161.105 140.627L164.972 149.544C166.986 148.671 168.996 147.839 170.999 147.052L167.442 138.006L163.886 128.96C161.668 129.832 159.451 130.749 157.237 131.71L161.105 140.627ZM167.442 138.006L171.138 146.996C185.174 141.226 198.8 137.719 211.564 137.349L211.282 127.633L211.001 117.917C195.184 118.375 179.184 122.67 163.747 129.016L167.442 138.006ZM211.282 127.633L220.775 125.542C219.926 121.686 219.921 118.351 220.262 116.192C220.437 115.089 220.648 114.635 220.635 114.662C220.621 114.691 220.461 115.01 220.063 115.449C219.664 115.889 218.876 116.608 217.615 117.123L213.942 108.124L210.268 99.125C206.346 100.726 204.263 103.934 203.243 105.976C202.109 108.247 201.441 110.756 201.062 113.151C200.296 117.987 200.482 123.785 201.79 129.723L211.282 127.633Z" fill="white" mask="url(#path-1-outside-1_2129_1180)"/>
</g>
<g clip-path="url(#clip0_2129_1180)">
<path d="M88.2323 195.78C116.511 196.661 113.386 206.581 113.001 218.927C112.617 231.273 114.544 241.35 86.8398 240.487C72.7757 240.049 61.6862 229.686 62.0707 217.341C62.4552 204.995 74.1682 195.342 88.2323 195.78Z" fill="#EAF3F7"/>
<path d="M115.399 177.067C121.872 188.824 117.809 191.151 112.751 193.936C107.692 196.721 103.553 198.909 97.0808 187.152C90.6085 175.395 90.9754 162.773 94.5209 160.821C98.0665 158.87 108.927 165.31 115.399 177.067Z" fill="#6A5B3D"/>
<path d="M232.805 126.671C237.877 139.097 233.573 140.939 228.227 143.122C222.881 145.304 218.517 146.999 213.445 134.574C208.373 122.148 210.195 109.653 213.942 108.124C217.689 106.594 227.733 114.246 232.805 126.671Z" fill="#9C8866"/>
<path d="M234.979 130.39C220.598 154.755 230.652 157.421 241.289 163.699C251.926 169.977 259.411 176.996 273.499 153.125C280.651 141.007 277.826 126.095 267.189 119.816C256.552 113.538 242.131 118.272 234.979 130.39Z" fill="#1F0D2D"/>
<path d="M246.954 137.482C239.787 149.626 243.771 150.349 247.807 152.731C251.843 155.113 254.547 158.006 261.569 146.109C265.134 140.069 264.752 133.242 260.716 130.86C256.68 128.478 250.519 131.443 246.954 137.482Z" fill="#FFC0C1"/>
<path d="M88.2594 209.788C102.354 210.227 100.833 213.98 100.687 218.664C100.542 223.348 101.539 227.18 87.7311 226.75C80.7214 226.532 75.1571 222.558 75.303 217.874C75.4489 213.189 81.2497 209.569 88.2594 209.788Z" fill="#FFAAAB"/>
<path d="M354.035 235.186C325.881 220.788 278.727 246.257 261.111 255.238C260.426 257.096 259.763 261.916 262.586 266.332C266.114 271.853 336.011 278.065 352.759 277.846C375.732 277.547 381.627 249.297 354.035 235.186Z" fill="url(#paint0_linear_2129_1180)"/>
<path d="M228.359 389.445C204.194 387.022 172.224 302.739 184.117 283.836C196.011 264.933 229.362 242.536 255.502 248.325C281.643 254.114 333.772 289.375 336.506 328.567C338.227 353.245 252.523 391.867 228.359 389.445Z" fill="#F3FAFD"/>
<path fill-rule="evenodd" clip-rule="evenodd" d="M228.987 258.594C234.373 257.156 240.174 256.233 246.399 255.954C281.709 254.374 337.404 284.871 336.675 325.599C336.626 328.337 335.661 331.365 333.953 334.586C331.183 330.743 326.143 315.636 318.033 302.997C301.657 277.474 293.487 274.169 267.13 267.836C250.121 263.748 230.486 260.702 228.987 258.594Z" fill="white"/>
<path d="M180.312 285.931C192.818 266.691 218.033 246.771 254.194 249.046C270.756 250.088 271.716 251.442 296.495 269.802C264.726 259.032 203.892 284.359 200.007 309.44C196.627 331.26 203.696 347.983 224.055 358.913C242.317 368.717 249.962 385.226 237.748 388.897C234.094 389.496 230.912 389.701 228.358 389.445C211.902 387.795 191.825 348.18 184.448 317.104C183.249 318.034 182.036 318.981 180.808 319.943C180.651 320.066 180.496 320.186 180.342 320.303C176.84 305.332 176.248 292.185 180.312 285.931Z" fill="url(#paint1_linear_2129_1180)"/>
<path fill-rule="evenodd" clip-rule="evenodd" d="M195.718 350.029C201.373 349.515 206.872 350.346 211.119 353.626C222.29 362.253 233.726 358.386 248.52 354.743C263.314 351.101 271.007 351.671 281.848 357.462C285.136 359.219 288.055 362.132 290.454 365.152C263.12 378.097 234.144 386.948 220.83 382.762C210.049 379.373 201.614 366.362 195.718 350.029Z" fill="#1F0D2D"/>
<path d="M263.429 433.013C238.949 427.527 211.062 393.382 202.34 364.998L277.856 355.864C304.837 371.208 312.251 385.267 304.009 410.672C300.034 422.924 274.87 435.576 263.429 433.013Z" fill="#1F0D2D"/>
<path fill-rule="evenodd" clip-rule="evenodd" d="M207.923 364.322C219.057 373.447 231.861 381.96 261.136 389.354C253.188 399.575 250.565 429.245 279.265 430.678C273.326 432.9 267.552 433.913 263.488 433.024C263.468 433.02 263.448 433.016 263.429 433.012C263.189 432.958 262.949 432.899 262.709 432.842C238.405 426.858 210.977 393.103 202.341 364.997L207.923 364.322Z" fill="url(#paint2_linear_2129_1180)"/>
<path fill-rule="evenodd" clip-rule="evenodd" d="M207.923 364.322C219.057 373.447 231.861 381.96 261.136 389.354C253.188 399.575 250.565 429.245 279.265 430.678C273.326 432.9 267.552 433.913 263.488 433.024C263.468 433.02 263.448 433.016 263.429 433.012C263.189 432.958 262.949 432.899 262.709 432.842C238.405 426.858 210.977 393.103 202.341 364.997L207.923 364.322Z" fill="url(#paint3_linear_2129_1180)" fill-opacity="0.2"/>
<path d="M216.13 324.364C222.887 334.864 241.794 329.404 263.114 319.559C284.434 309.714 300.095 299.211 293.338 288.712C284.455 274.91 262.144 275.078 240.823 284.923C219.503 294.768 207.248 310.562 216.13 324.364Z" fill="#FFAAAB"/>
<path d="M182.668 288.554C182.552 288.618 182.426 288.667 182.296 288.698C182.167 288.73 182.037 288.744 181.915 288.739L176.043 288.449C175.816 288.424 175.634 288.332 175.535 288.192C175.436 288.051 175.426 287.872 175.508 287.69C175.59 287.508 175.757 287.337 175.976 287.211C176.194 287.084 176.449 287.012 176.689 287.009L182.548 287.267C182.671 287.272 182.785 287.296 182.882 287.337C182.979 287.379 183.058 287.437 183.115 287.508C183.171 287.579 183.204 287.663 183.211 287.753C183.218 287.843 183.2 287.939 183.156 288.034C183.119 288.131 183.057 288.227 182.973 288.317C182.889 288.406 182.786 288.487 182.668 288.554Z" fill="#FF8D8D"/>
<path d="M178.765 290.672C178.65 290.735 178.525 290.784 178.396 290.815C178.268 290.847 178.139 290.86 178.017 290.855C177.895 290.849 177.782 290.825 177.686 290.784C177.589 290.742 177.51 290.684 177.454 290.613C177.397 290.542 177.364 290.459 177.357 290.369C177.35 290.279 177.368 290.184 177.41 290.089L179.424 285.567C179.465 285.472 179.531 285.379 179.616 285.293C179.702 285.208 179.806 285.131 179.922 285.068C180.038 285.005 180.164 284.957 180.293 284.926C180.422 284.895 180.551 284.883 180.673 284.889C180.917 284.901 181.117 284.988 181.23 285.13C181.343 285.272 181.359 285.459 181.275 285.649L179.257 290.181C179.172 290.37 178.996 290.546 178.765 290.672Z" fill="#FF8D8D"/>
<path d="M291.478 190.355C307.133 228.935 281.493 248.079 232.484 275.058C183.476 302.038 132.153 319.474 112.765 282.244C81.9304 223.034 95.4543 169.103 161.104 140.627C212.428 118.366 263.285 120.876 291.478 190.355Z" fill="white"/>
<path fill-rule="evenodd" clip-rule="evenodd" d="M109.538 181.005C109.718 183.769 109.647 187.185 109.274 191.313C99.8809 295.423 154.321 292.818 231.236 262.327C252.087 254.062 265.884 249.944 274.098 248.834C263.493 257.389 249.378 265.758 232.485 275.058C182.992 302.304 134.967 320.16 110.798 283.227C87.5338 247.676 89.1145 210.361 109.538 181.005Z" fill="#EAF3F7"/>
<path fill-rule="evenodd" clip-rule="evenodd" d="M109.538 181.005C109.718 183.769 109.647 187.185 109.274 191.313C99.8809 295.423 154.321 292.818 231.236 262.327C252.087 254.062 265.884 249.944 274.098 248.834C263.493 257.389 249.378 265.758 232.485 275.058C182.992 302.304 134.967 320.16 110.798 283.227C87.5338 247.676 89.1145 210.361 109.538 181.005Z" fill="url(#paint4_linear_2129_1180)" fill-opacity="0.2"/>
<path d="M159.813 141.33C203.529 121.205 248.848 118.158 279.937 167.139C257.994 180.854 244.195 165.625 232.882 162.83C221.175 159.938 207.19 172.694 189.063 169.446C177.762 167.421 166.66 152.939 159.813 141.33Z" fill="#1F0D2D"/>
<path d="M246.721 198.636L250.874 210.816" stroke="#123041" stroke-width="12.0641" stroke-linecap="round"/>
<path d="M153.258 239.814L157.411 251.994" stroke="#123041" stroke-width="12.0641" stroke-linecap="round"/>
<path d="M256.656 236.769C250.309 221.513 232.797 214.29 217.54 220.637L203.728 226.383C188.472 232.73 181.249 250.242 187.596 265.498C191.827 275.669 203.502 280.484 213.673 276.253L245.901 262.847C256.072 258.615 260.887 246.94 256.656 236.769Z" fill="#FFC0C1"/>
<path d="M255.356 233.644C249.727 220.114 234.196 213.708 220.665 219.337L203.728 226.383C188.472 232.73 181.249 250.242 187.596 265.498C191.827 275.669 203.502 280.484 213.673 276.253L242.776 264.147C254.673 259.197 260.305 245.541 255.356 233.644Z" fill="#FFC0C1"/>
<path d="M240.48 239.853L243.878 248.021" stroke="#123041" stroke-width="8.04272" stroke-linecap="round"/>
<path d="M209.072 252.237L212.47 260.406" stroke="#123041" stroke-width="8.04272" stroke-linecap="round"/>
<path d="M290.909 212.903L280.02 218.095" stroke="#FFC0C1" stroke-width="16.0854" stroke-linecap="round"/>
<path d="M153.575 277.39L142.685 282.581" stroke="#FFAAAB" stroke-width="16.0854" stroke-linecap="round"/>
<path d="M386.319 345.73C391.647 314.273 333.928 287.798 322.854 294.146C311.78 300.493 309.674 339.684 309.674 339.684C324.843 356.924 327.928 377.726 344.913 382.527C362.654 387.542 381.666 373.197 386.319 345.73Z" fill="white"/>
<path d="M316.952 300.882C327.673 313.717 337.558 317.947 361.311 322.274C340.115 336.339 338.296 355.519 342.82 368.846C345.152 375.714 349.393 380.369 353.615 383.46C350.725 383.643 347.802 383.343 344.912 382.526C332.37 378.981 320.635 367.44 309.246 354.703C307.35 350.227 305.968 345.577 305.248 340.962C304.183 334.131 304.898 327.69 306.393 322.052L316.015 302.089C316.595 301.307 316.947 300.888 316.952 300.882Z" fill="url(#paint5_linear_2129_1180)"/>
<path d="M130.864 378.543C119.681 339.655 153.855 309.579 171.668 297.282C174.303 296.219 180.953 294.475 186.469 295.997C193.363 297.898 197.489 359.718 191.068 377.723C185.814 392.456 139.953 410.15 130.864 378.543Z" fill="white"/>
<path fill-rule="evenodd" clip-rule="evenodd" d="M138.391 323.358C146.377 311.159 157.418 302.387 166.569 297.935C179.404 291.689 187.203 295.303 188.303 297.293C189.028 298.605 189.766 301.167 190.466 304.614C186.642 302.5 180.369 296.546 174.532 298.129C160.297 301.99 145.886 324.972 142.619 335.163C136.434 354.454 146.663 386.728 176.583 390.834C160.632 398.711 136.968 399.914 130.409 377.407C124.92 358.569 128.114 342.127 135.077 328.967C136.12 327.044 137.231 325.174 138.391 323.358Z" fill="url(#paint6_linear_2129_1180)"/>
<path fill-rule="evenodd" clip-rule="evenodd" d="M138.391 323.358C146.377 311.159 157.418 302.387 166.569 297.935C179.404 291.689 187.203 295.303 188.303 297.293C189.028 298.605 189.766 301.167 190.466 304.614C186.642 302.5 180.369 296.546 174.532 298.129C160.297 301.99 145.886 324.972 142.619 335.163C136.434 354.454 146.663 386.728 176.583 390.834C160.632 398.711 136.968 399.914 130.409 377.407C124.92 358.569 128.114 342.127 135.077 328.967C136.12 327.044 137.231 325.174 138.391 323.358Z" fill="url(#paint7_linear_2129_1180)" fill-opacity="0.2"/>
<path fill-rule="evenodd" clip-rule="evenodd" d="M149.391 310.197C156.618 302.549 164.767 297.266 172.22 295.473C177.728 294.148 181.726 293.769 186.581 295.473C188.946 296.303 190.992 304.447 192.377 315.45C179.263 299.97 166.769 299.827 149.391 310.197Z" fill="#DAEAF1"/>
<path fill-rule="evenodd" clip-rule="evenodd" d="M185.875 259.872C185.404 257.531 186.632 254.954 189.02 254.962C190.967 254.968 192.895 255.819 194.212 257.453L200.648 265.439C201.887 266.978 203.755 267.893 205.731 267.843C225.546 267.336 241.278 260.494 254.848 249.135C256.124 248.068 257.622 249.416 257.075 250.987C255.272 256.162 251.358 260.576 245.9 262.847L213.672 276.253C203.501 280.484 191.826 275.669 187.595 265.498C186.826 263.648 186.256 261.765 185.875 259.872Z" fill="#FFAAAB"/>
</g>
<defs>
<filter id="filter0_d_2129_1180" x="52.34" y="98.207" width="347.287" height="348.098" filterUnits="userSpaceOnUse" color-interpolation-filters="sRGB">
<feFlood flood-opacity="0" result="BackgroundImageFix"/>
<feColorMatrix in="SourceAlpha" type="matrix" values="0 0 0 0 0 0 0 0 0 0 0 0 0 0 0 0 0 0 127 0" result="hardAlpha"/>
<feOffset dx="3.24" dy="3.24"/>
<feColorMatrix type="matrix" values="0 0 0 0 0.584314 0 0 0 0 0.615686 0 0 0 0 0.647059 0 0 0 0.2 0"/>
<feBlend mode="normal" in2="BackgroundImageFix" result="effect1_dropShadow_2129_1180"/>
<feBlend mode="normal" in="SourceGraphic" in2="effect1_dropShadow_2129_1180" result="shape"/>
</filter>
<linearGradient id="paint0_linear_2129_1180" x1="342.082" y1="241.229" x2="230.896" y2="232.355" gradientUnits="userSpaceOnUse">
<stop stop-color="#EAF3F7"/>
<stop offset="1" stop-color="#D7E9F1"/>
</linearGradient>
<linearGradient id="paint1_linear_2129_1180" x1="220.12" y1="252.945" x2="311.346" y2="261.442" gradientUnits="userSpaceOnUse">
<stop stop-color="#DBEBF1"/>
<stop offset="1" stop-color="white"/>
</linearGradient>
<linearGradient id="paint2_linear_2129_1180" x1="231.391" y1="408.5" x2="247.126" y2="375.964" gradientUnits="userSpaceOnUse">
<stop stop-color="#1F1E60"/>
<stop offset="1" stop-color="#1F0D2D"/>
</linearGradient>
<linearGradient id="paint3_linear_2129_1180" x1="226.942" y1="390.247" x2="217.53" y2="415.806" gradientUnits="userSpaceOnUse">
<stop stop-color="#1F0D2D"/>
<stop offset="1" stop-color="#86D856"/>
</linearGradient>
<linearGradient id="paint4_linear_2129_1180" x1="119.399" y1="259.126" x2="109.176" y2="281.471" gradientUnits="userSpaceOnUse">
<stop stop-color="white"/>
<stop offset="1" stop-color="#56BBD8"/>
</linearGradient>
<linearGradient id="paint5_linear_2129_1180" x1="322.066" y1="377.694" x2="361.75" y2="307.666" gradientUnits="userSpaceOnUse">
<stop stop-color="#DBEBF1"/>
<stop offset="1" stop-color="white"/>
</linearGradient>
<linearGradient id="paint6_linear_2129_1180" x1="134.343" y1="386.15" x2="153.32" y2="304.717" gradientUnits="userSpaceOnUse">
<stop stop-color="#EAF3F7"/>
<stop offset="1" stop-color="white"/>
</linearGradient>
<linearGradient id="paint7_linear_2129_1180" x1="140.263" y1="346.564" x2="129.79" y2="365.784" gradientUnits="userSpaceOnUse">
<stop stop-color="white"/>
<stop offset="1" stop-color="#56BBD8"/>
</linearGradient>
<clipPath id="clip0_2129_1180">
<rect width="356.543" height="394.716" fill="white" transform="translate(0 171.947) rotate(-28.8331)"/>
</clipPath>
</defs>
</svg>
