<svg width="188" height="150" viewBox="0 0 188 150" fill="none" xmlns="http://www.w3.org/2000/svg">
<g filter="url(#filter0_d_2105_948)">
<path d="M153.986 144.636L163.815 128.45C164.037 128.04 164.414 127.729 164.802 127.518L181.887 118.211C183.684 117.223 183.684 114.749 181.887 113.707L164.858 104.344C164.425 104.133 164.092 103.778 163.87 103.412L153.997 87.2813C152.965 85.5729 150.336 85.5729 149.249 87.2813L139.42 103.467C139.198 103.878 138.821 104.188 138.433 104.399L121.348 113.707C119.551 114.694 119.551 117.168 121.348 118.211L138.433 127.518C138.865 127.729 139.198 128.084 139.42 128.45L149.249 144.636C150.336 146.344 152.965 146.344 153.997 144.636H153.986Z" fill="white"/>
</g>
<path d="M153.323 136.606L160.4 124.952C160.56 124.656 160.832 124.433 161.111 124.281L173.412 117.579C174.706 116.869 174.706 115.087 173.412 114.336L161.151 107.595C160.84 107.443 160.6 107.188 160.44 106.924L153.331 95.3102C152.588 94.0802 150.696 94.0802 149.913 95.3102L142.836 106.964C142.676 107.26 142.405 107.483 142.125 107.635L129.824 114.336C128.53 115.047 128.53 116.829 129.824 117.579L142.125 124.281C142.437 124.433 142.676 124.688 142.836 124.952L149.913 136.606C150.696 137.836 152.588 137.836 153.331 136.606H153.323Z" fill="#FFC53D"/>
<g filter="url(#filter1_d_2105_948)">
<path d="M72.7335 97.285L80.7711 69.7423C80.9348 69.0545 81.3652 68.4518 81.8508 67.9911L103.204 47.6697C105.447 45.52 104.477 41.8993 101.438 41.0778L72.8437 34.0527C72.1279 33.9139 71.5013 33.5248 71.033 33.076L50.2577 13.3407C48.0778 11.245 44.2303 12.2759 43.3091 15.2026L35.2708 42.7456C35.107 43.4333 34.6774 44.0358 34.1918 44.4966L12.8378 64.8181C10.5948 66.9679 11.565 70.5886 14.6041 71.41L43.258 78.332C43.9739 78.4708 44.5996 78.8601 45.0679 79.3089L65.8008 99.1426C68.0619 101.217 71.9094 100.186 72.7494 97.2808L72.7335 97.285Z" fill="white"/>
</g>
<path d="M68.6142 85.7932L74.4013 65.9624C74.5192 65.4672 74.829 65.0333 75.1787 64.7015L90.553 50.0702C92.168 48.5223 91.4695 45.9154 89.2813 45.324L68.6936 40.2659C68.1782 40.166 67.727 39.8858 67.3899 39.5627L52.4317 25.3533C50.8621 23.8443 48.0919 24.5866 47.4286 26.6938L41.6411 46.5248C41.5232 47.0199 41.2138 47.4537 40.8642 47.7855L25.4893 62.417C23.8743 63.9648 24.5729 66.5717 26.7611 67.1631L47.3919 72.147C47.9073 72.2469 48.3578 72.5272 48.695 72.8504L63.6226 87.1307C65.2506 88.6239 68.0209 87.8816 68.6257 85.7901L68.6142 85.7932Z" fill="#FFC53D"/>
<defs>
<filter id="filter0_d_2105_948" x="120" y="86" width="67.2344" height="63.9175" filterUnits="userSpaceOnUse" color-interpolation-filters="sRGB">
<feFlood flood-opacity="0" result="BackgroundImageFix"/>
<feColorMatrix in="SourceAlpha" type="matrix" values="0 0 0 0 0 0 0 0 0 0 0 0 0 0 0 0 0 0 127 0" result="hardAlpha"/>
<feOffset dx="4" dy="4"/>
<feColorMatrix type="matrix" values="0 0 0 0 0.584314 0 0 0 0 0.615686 0 0 0 0 0.647059 0 0 0 0.2 0"/>
<feBlend mode="normal" in2="BackgroundImageFix" result="effect1_dropShadow_2105_948"/>
<feBlend mode="normal" in="SourceGraphic" in2="effect1_dropShadow_2105_948" result="shape"/>
</filter>
<filter id="filter1_d_2105_948" x="11.6094" y="12.2354" width="96.8228" height="91.9976" filterUnits="userSpaceOnUse" color-interpolation-filters="sRGB">
<feFlood flood-opacity="0" result="BackgroundImageFix"/>
<feColorMatrix in="SourceAlpha" type="matrix" values="0 0 0 0 0 0 0 0 0 0 0 0 0 0 0 0 0 0 127 0" result="hardAlpha"/>
<feOffset dx="4" dy="4"/>
<feColorMatrix type="matrix" values="0 0 0 0 0.584314 0 0 0 0 0.615686 0 0 0 0 0.647059 0 0 0 0.2 0"/>
<feBlend mode="normal" in2="BackgroundImageFix" result="effect1_dropShadow_2105_948"/>
<feBlend mode="normal" in="SourceGraphic" in2="effect1_dropShadow_2105_948" result="shape"/>
</filter>
</defs>
</svg>
