<svg width="1440" height="205" viewBox="0 0 1440 205" fill="none" xmlns="http://www.w3.org/2000/svg">
<path d="M21 123.5C21 110.521 10.4787 100 -2.5 100L-501 100C-523.091 100 -541 82.0916 -541 60.0002L-541 16.0002C-541 -6.09117 -523.091 -23.9998 -501 -23.9998L-21 -23.9998C1.09136 -23.9998 19 -41.9084 19 -63.9998L19 -98.3055C19 -105.761 25.0441 -111.805 32.5 -111.805C39.9558 -111.805 46 -105.761 46 -98.3055L46 -91.1688C46 -79.7714 55.2394 -70.5321 66.6367 -70.5321L138.954 -70.5321C147.263 -70.5321 154 -63.7956 154 -55.4857C154 -47.1758 160.736 -40.4393 169.046 -40.4393L211 -40.4393C233.091 -40.4393 251 -58.3479 251 -80.4393L251 -116.5C251 -123.403 256.596 -129 263.5 -129C270.404 -129 276 -123.403 276 -116.5L276 -93.7469C276 -74.2773 291.783 -58.494 311.253 -58.494L434.673 -58.494C442.033 -58.494 448 -64.4608 448 -71.8212C448 -79.1815 453.967 -85.1483 461.327 -85.1483L725.523 -85.1483C734.071 -85.1483 741 -92.0774 741 -100.625L741 -103.601C741 -110.505 746.596 -116.101 753.5 -116.101C760.404 -116.101 766 -110.505 766 -103.601L766 -93.3163C766 -80.7324 776.201 -70.5311 788.785 -70.5311L877.625 -70.5312C893.296 -70.5312 906 -83.2351 906 -98.9062L906 -114.781C906 -121.685 911.596 -127.281 918.5 -127.281C925.404 -127.281 931 -121.685 931 -114.781L931 -92.0292C931 -72.5601 946.783 -56.7773 966.252 -56.7773L985.664 -56.7773C994.686 -56.7773 1002 -64.0913 1002 -73.1137C1002 -82.136 1009.31 -89.4501 1018.34 -89.4501L1157.37 -89.4501C1167.11 -89.4501 1175 -81.5587 1175 -71.8242C1175 -62.0896 1182.89 -54.1982 1192.63 -54.1982L1285.6 -54.1982C1306.25 -54.1982 1323 -70.9434 1323 -91.5996L1323 -116.501C1323 -123.404 1328.6 -129.001 1335.5 -129.001C1342.4 -129.001 1348 -123.404 1348 -116.501L1348 -75.9999C1348 -53.9086 1365.91 -35.9999 1388 -36L1899 -36C1921.09 -36 1939 -18.0914 1939 4L1939 86C1939 108.091 1921.09 126 1899 126L1300.91 126C1284.39 126 1271 112.608 1271 96.0879C1271 79.5679 1257.61 66.1758 1241.09 66.1758L1193.92 66.1758C1183.47 66.1758 1175 74.6448 1175 85.0919C1175 95.5389 1166.53 104.008 1156.08 104.008L1032.95 104.008C1015.86 104.008 1002 90.1497 1002 73.0548C1002 55.9598 988.142 42.1016 971.047 42.1016L921.494 42.1017C909.623 42.1017 900 32.4784 900 20.6075C900 8.73663 890.377 -0.886627 878.506 -0.886626L511.393 -0.886594C492.398 -0.886592 477 14.5115 477 33.506C477 52.5005 461.602 67.8986 442.607 67.8986L399.766 67.8986C390.506 67.8986 383 75.4048 383 84.6642C383 93.9236 375.494 101.43 366.234 101.43L176.785 101.43C164.201 101.43 154 111.631 154 124.215C154 136.799 143.799 147 131.215 147L44.5 147C31.5213 147 21 136.479 21 123.5Z" fill="#AFD157"/>
<path d="M265 157L255 157C232.909 157 215 139.091 215 117L215 107L225 107C247.091 107 265 124.909 265 147L265 157Z" fill="#AFD157"/>
<path d="M165 157L175 157C197.091 157 215 139.091 215 117L215 107L205 107C182.909 107 165 124.909 165 147L165 157Z" fill="#AFD157"/>
<path d="M448 73L438 73C415.909 73 398 55.0914 398 33L398 23L408 23C430.091 23 448 40.9086 448 63L448 73Z" fill="#7BAD34"/>
<path d="M348 73L358 73C380.091 73 398 55.0914 398 33L398 23L388 23C365.909 23 348 40.9086 348 63L348 73Z" fill="#7BAD34"/>
<path d="M36 120L26 120C3.9086 120 -14 102.091 -14 80L-14 70L-4.00001 70C18.0914 70 36 87.9086 36 110L36 120Z" fill="#7BAD34"/>
<path d="M1344 53L1354 53C1376.09 53 1394 35.0914 1394 13L1394 3L1384 3C1361.91 3 1344 20.9086 1344 43L1344 53Z" fill="#7BAD34"/>
<path d="M1371 205L1361 205C1338.91 205 1321 187.091 1321 165L1321 155L1331 155C1353.09 155 1371 172.909 1371 195L1371 205Z" fill="#7BAD34"/>
<path d="M1271 205L1281 205C1303.09 205 1321 187.091 1321 165L1321 155L1311 155C1288.91 155 1271 172.909 1271 195L1271 205Z" fill="#7BAD34"/>
<path d="M458 162L448 162C425.909 162 408 144.091 408 122L408 112L418 112C440.091 112 458 129.909 458 152L458 162Z" fill="#AFD157"/>
<path d="M1194.92 161.426C1190.29 156.801 1189.33 149.902 1192.03 144.328C1192.13 144.117 1191.89 143.879 1191.68 143.981C1186.11 146.676 1179.21 145.711 1174.58 141.086C1168.74 135.242 1168.74 125.766 1174.58 119.922C1179.21 115.297 1186.11 114.333 1191.68 117.029C1191.89 117.13 1192.13 116.892 1192.03 116.682C1189.33 111.107 1190.29 104.207 1194.92 99.5819C1200.76 93.7379 1210.24 93.7379 1216.08 99.5818C1220.71 104.207 1221.67 111.107 1218.98 116.682C1218.88 116.892 1219.11 117.13 1219.32 117.029C1224.9 114.333 1231.8 115.297 1236.42 119.922C1242.27 125.766 1242.27 135.242 1236.42 141.086C1231.8 145.711 1224.9 146.676 1219.32 143.981C1219.11 143.879 1218.88 144.117 1218.98 144.328C1221.67 149.902 1220.71 156.801 1216.08 161.426C1210.24 167.27 1200.76 167.27 1194.92 161.426Z" fill="#FF686B"/>
<circle cx="1205.51" cy="130.228" r="6.21932" transform="rotate(-135 1205.51 130.228)" fill="#E23636"/>
<path d="M502.92 119.426C498.295 114.801 497.331 107.902 500.027 102.328C500.129 102.117 499.89 101.879 499.68 101.981C494.106 104.676 487.207 103.711 482.582 99.0864C476.738 93.2421 476.738 83.7658 482.582 77.9215C487.207 73.2966 494.106 72.3332 499.68 75.0286C499.89 75.1305 500.128 74.8923 500.027 74.6816C497.33 69.1074 498.295 62.2073 502.92 57.5819C508.764 51.7379 518.24 51.7379 524.084 57.5818C528.709 62.2073 529.674 69.1074 526.977 74.6816C526.876 74.8923 527.114 75.1305 527.324 75.0286C532.898 72.3332 539.797 73.2966 544.422 77.9215C550.266 83.7658 550.266 93.2421 544.422 99.0864C539.797 103.711 532.898 104.676 527.324 101.981C527.114 101.879 526.875 102.117 526.977 102.328C529.673 107.902 528.709 114.801 524.084 119.426C518.24 125.27 508.764 125.27 502.92 119.426Z" fill="#FFC53D"/>
<circle cx="513.506" cy="88.228" r="6.21932" transform="rotate(-135 513.506 88.228)" fill="#E98B2D"/>
</svg>
