<svg width="611" height="425" viewBox="0 0 611 425" fill="none" xmlns="http://www.w3.org/2000/svg">
<g clip-path="url(#clip0_2006_3440)">
<g clip-path="url(#clip1_2006_3440)">
<ellipse cx="228.296" cy="102.471" rx="28.5397" ry="30.7552" transform="rotate(-28.6896 228.296 102.471)" fill="#5BB42B"/>
<ellipse cx="28.5397" cy="30.7552" rx="28.5397" ry="30.7552" transform="matrix(-0.877234 -0.480064 -0.480064 0.877234 392.09 88.3979)" fill="#5BB42B"/>
<path d="M333.491 303.368C338.611 301.274 343.598 273.376 342.587 259.487L293.399 267.337C292.389 278.609 292.321 301.597 294.747 303.368C297.779 305.582 327.089 305.985 333.491 303.368Z" fill="#4B9B3A"/>
<path d="M337.335 272.468C352.644 262.288 331.949 198.785 316.997 190.786C302.044 182.788 277.724 183.999 267.044 190.786C256.363 197.573 229.97 262.046 245.279 272.468C260.587 282.89 322.026 282.648 337.335 272.468Z" fill="#49B236"/>
<path d="M249.845 303.368C244.724 301.274 239.738 273.376 240.749 259.487L289.936 267.337C290.947 278.609 291.014 301.597 288.588 303.368C285.556 305.582 256.246 305.985 249.845 303.368Z" fill="#49B236"/>
<path d="M330.581 247.635C330.581 269.279 314.278 274.477 294.167 274.477C274.056 274.477 257.753 269.279 257.753 247.635C257.753 219.183 274.056 203.078 294.167 203.078C314.278 203.078 330.581 219.183 330.581 247.635Z" fill="#9CD43D"/>
<path d="M295.288 263.056C295.435 263.057 295.58 263.029 295.716 262.974C295.852 262.918 295.975 262.837 296.08 262.734L301.039 257.746C301.222 257.534 301.317 257.261 301.306 256.982C301.296 256.703 301.179 256.438 300.981 256.241C300.782 256.043 300.516 255.928 300.236 255.917C299.955 255.906 299.681 256.001 299.468 256.183L294.497 261.116C294.392 261.219 294.31 261.342 294.253 261.477C294.196 261.612 294.167 261.757 294.167 261.903C294.167 262.049 294.196 262.194 294.253 262.329C294.31 262.464 294.392 262.587 294.497 262.69C294.597 262.801 294.719 262.89 294.855 262.953C294.991 263.016 295.138 263.051 295.288 263.056Z" fill="#49B236"/>
<path d="M300.195 263.056C300.34 263.057 300.485 263.029 300.619 262.974C300.754 262.919 300.877 262.838 300.98 262.735C301.084 262.632 301.166 262.51 301.222 262.375C301.278 262.241 301.307 262.096 301.307 261.95C301.307 261.804 301.278 261.659 301.222 261.525C301.166 261.39 301.084 261.268 300.98 261.165L296.059 256.243C295.956 256.14 295.834 256.057 295.699 256.001C295.564 255.945 295.42 255.916 295.274 255.916C295.128 255.916 294.983 255.945 294.849 256.001C294.714 256.057 294.592 256.14 294.489 256.243C294.283 256.45 294.167 256.731 294.167 257.023C294.167 257.315 294.283 257.595 294.489 257.803L299.421 262.735C299.627 262.94 299.905 263.055 300.195 263.056Z" fill="#49B236"/>
<path d="M382.704 151.86C382.704 189.519 341.198 202.006 290.751 202.006C240.304 202.006 198.493 189.519 198.493 151.86C198.493 97.763 240.304 74.5581 290.751 74.5581C341.198 74.5581 382.704 93.479 382.704 151.86Z" fill="#5BB42B"/>
<path d="M233.479 113.118V124.542" stroke="#123041" stroke-width="10.7099" stroke-linecap="round"/>
<path d="M354.857 111.687V123.111" stroke="#123041" stroke-width="10.7099" stroke-linecap="round"/>
<path d="M217.771 138.822H229.909" stroke="#A1DC3C" stroke-width="14.2799" stroke-linecap="round"/>
<path d="M349.86 138.822H361.998" stroke="#A1DC3C" stroke-width="14.2799" stroke-linecap="round"/>
<path d="M307.735 127.438C307.735 118.859 307.735 114.546 291.67 114.546C275.605 114.546 275.605 118.093 275.605 127.438C275.605 142.749 282.798 151.674 291.67 151.674C300.543 151.674 307.735 141.678 307.735 127.438Z" fill="#D52C2F"/>
<path d="M291.667 151.672C297.883 151.672 303.273 146.765 305.945 138.931C302.837 135.3 298.241 132.152 292.689 130.205C286.633 128.082 280.571 127.785 275.63 129.019C276.109 143.36 283.105 151.672 291.667 151.672Z" fill="#FF686B"/>
</g>
<g clip-path="url(#clip2_2006_3440)">
<path d="M214.645 218.894C236.26 231.686 229.583 238.063 223.998 247.5C218.413 256.936 215.598 265.599 194.421 253.067C183.671 246.705 179.484 233.897 185.068 224.461C190.653 215.024 203.895 212.532 214.645 218.894Z" fill="white"/>
<path d="M246.329 221.08C246.329 232.994 242.173 233.065 237.047 233.065C231.921 233.065 227.765 232.994 227.765 221.08C227.765 209.165 233.454 199.507 237.047 199.507C240.64 199.507 246.329 209.165 246.329 221.08Z" fill="#6A5B3D"/>
<path d="M358.427 221.08C358.427 232.994 354.271 233.065 349.145 233.065C344.019 233.065 339.863 232.994 339.863 221.08C339.863 209.165 345.552 199.507 349.145 199.507C352.738 199.507 358.427 209.165 358.427 221.08Z" fill="#6A5B3D"/>
<path d="M373.585 218.894C351.97 231.686 358.647 238.063 364.232 247.5C369.816 256.936 372.632 265.599 393.808 253.067C404.558 246.705 408.746 233.897 403.161 224.461C397.577 215.024 384.335 212.532 373.585 218.894Z" fill="#123041"/>
<path d="M378.92 229.807C368.147 236.182 370.937 238.451 373.055 242.031C375.174 245.611 376.039 249.019 386.594 242.773C391.951 239.602 394.577 234.129 392.458 230.548C390.34 226.968 384.278 226.636 378.92 229.807Z" fill="#FFC0C1"/>
<path d="M208.67 229.807C219.443 236.182 216.654 238.451 214.535 242.031C212.416 245.611 211.551 249.019 200.997 242.773C195.639 239.602 193.013 234.129 195.132 230.548C197.251 226.968 203.312 226.636 208.67 229.807Z" fill="#FFC0C1"/>
<path d="M357.752 419.89C354.197 421.992 314.6 421.78 306.601 416.511C296.867 410.1 293.302 401.477 295.648 394.03C300.684 378.042 312.015 378.368 324.51 379.439C337.005 380.51 372.584 382.301 375.204 389.078C378.241 396.932 366.993 414.425 357.752 419.89Z" fill="#E7EAEE"/>
<path d="M338.763 409.551C354.071 399.371 333.377 335.868 318.424 327.87C303.472 319.871 279.152 321.083 268.471 327.87C257.791 334.656 231.397 399.129 246.706 409.551C262.015 419.974 323.454 419.731 338.763 409.551Z" fill="white"/>
<path fill-rule="evenodd" clip-rule="evenodd" d="M247.972 366.965C251.86 368.665 255.224 371.268 256.682 375.157C260.11 384.296 271.914 388.247 277.388 389.08C277.401 389.084 291.056 393.904 295.238 401.219C297.853 405.793 297.973 413.465 297.853 417.22C277.056 417.752 255.04 415.24 246.704 409.564C238.994 404.316 241.862 385.359 247.972 366.965Z" fill="#123041"/>
<path d="M333.435 386.517C333.435 405.564 317.132 410.138 297.021 410.138C276.91 410.138 260.607 405.564 260.607 386.517C260.607 361.479 276.91 347.307 297.021 347.307C317.132 347.307 333.435 361.479 333.435 386.517Z" fill="#FFC0C1"/>
<path d="M296.716 403.71C296.863 403.711 297.008 403.683 297.144 403.628C297.28 403.573 297.403 403.492 297.507 403.389L302.467 398.4C302.649 398.188 302.745 397.915 302.734 397.636C302.723 397.357 302.607 397.092 302.408 396.895C302.21 396.698 301.944 396.582 301.663 396.571C301.383 396.56 301.109 396.655 300.895 396.837L295.925 401.77C295.82 401.873 295.737 401.996 295.681 402.131C295.624 402.266 295.595 402.411 295.595 402.557C295.595 402.704 295.624 402.849 295.681 402.984C295.737 403.119 295.82 403.241 295.925 403.344C296.025 403.455 296.147 403.545 296.283 403.608C296.419 403.67 296.566 403.705 296.716 403.71Z" fill="#FF8D8D"/>
<path d="M301.623 403.71C301.768 403.711 301.912 403.683 302.047 403.628C302.182 403.573 302.304 403.492 302.408 403.39C302.511 403.287 302.594 403.164 302.65 403.03C302.706 402.895 302.735 402.75 302.735 402.604C302.735 402.458 302.706 402.314 302.65 402.179C302.594 402.044 302.511 401.922 302.408 401.819L297.487 396.897C297.384 396.794 297.262 396.712 297.127 396.655C296.992 396.599 296.848 396.57 296.702 396.57C296.556 396.57 296.411 396.599 296.276 396.655C296.142 396.712 296.019 396.794 295.916 396.897C295.71 397.105 295.595 397.385 295.595 397.677C295.595 397.969 295.71 398.25 295.916 398.457L300.848 403.39C301.054 403.594 301.332 403.709 301.623 403.71Z" fill="#FF8D8D"/>
<path d="M305.63 422.029C302.075 424.132 262.478 423.92 254.479 418.651C244.745 412.239 241.18 403.616 243.526 396.169C248.562 380.182 259.893 380.508 272.388 381.579C284.883 382.65 320.462 384.441 323.082 391.218C326.118 399.072 314.871 416.564 305.63 422.029Z" fill="#123041"/>
<path d="M383.418 292.69C383.418 329.954 342.556 342.311 292.891 342.311C243.227 342.311 202.063 329.954 202.063 292.69C202.063 229.151 243.227 207.366 292.891 207.366C342.556 207.366 383.418 226.125 383.418 292.69Z" fill="white"/>
<path d="M299.203 207.46C342.25 208.919 377.399 225.902 382.719 278.288C358.755 280.237 354.531 262.006 346.802 254.872C338.936 247.611 322.599 251.544 309.892 241.257C302.1 234.95 299.62 219.351 299.203 207.46Z" fill="#123041"/>
<path d="M249.185 285.904V297.328" stroke="#123041" stroke-width="10.7099" stroke-linecap="round"/>
<path d="M344.86 285.904V297.328" stroke="#123041" stroke-width="10.7099" stroke-linecap="round"/>
<path d="M263.465 312.465C263.465 297.796 275.356 285.904 290.025 285.904H303.306C317.975 285.904 329.866 297.796 329.866 312.465C329.866 322.244 321.939 330.172 312.159 330.172H281.172C271.392 330.172 263.465 322.244 263.465 312.465Z" fill="#FFC0C1"/>
<path d="M282.743 305.897V313.751" stroke="black" stroke-width="7.13996" stroke-linecap="round"/>
<path d="M311.303 305.897L311.303 313.751" stroke="black" stroke-width="7.13996" stroke-linecap="round"/>
<path d="M227.765 313.748H238.475" stroke="#FFC0C1" stroke-width="14.2799" stroke-linecap="round"/>
<path d="M355.57 313.748H366.28" stroke="#FFC0C1" stroke-width="14.2799" stroke-linecap="round"/>
<path d="M289.008 374.469C270.906 378.052 257.042 361.103 249.152 349.654C247.173 345.441 249.003 339.629 252.367 338.611C258.358 336.797 284.967 342.222 294.803 345.275C304.638 348.329 311.636 369.991 289.008 374.469Z" fill="#E7EAEE"/>
<rect width="116.381" height="9.99595" rx="1.42799" transform="matrix(-1 0 0 1 380.014 374.441)" fill="#173A52"/>
<path d="M392.698 308.815L238.436 233.074L192.065 343.502L290.056 379.443L392.698 308.815Z" fill="url(#paint0_linear_2006_3440)"/>
<rect width="116.381" height="76.3976" rx="3.56998" transform="matrix(-1 0 0 1 394.293 308.037)" fill="#005271"/>
<path d="M330.978 346.693V340.794L318.609 353.169L321.531 356.153L330.978 346.693ZM359.162 343.006C358.246 338.398 354.782 334.941 354.384 334.532L345.882 325.891L341.024 330.747L340.678 331.093V336.992L345.865 331.807L350.701 336.721L351.439 337.47L351.49 337.522C351.49 337.522 351.813 337.839 352.257 338.369C353.618 339.932 354.585 341.799 355.076 343.813C355.767 347.269 356.113 351.342 352.257 356.285V362.38C352.62 362.063 352.833 361.839 352.931 361.758C356.39 358.371 358.459 354.949 359.271 351.29C359.834 348.554 359.798 345.728 359.168 343.006H359.162ZM333.41 361.216L333.283 361.153H333.22C332.843 360.956 332.484 360.727 332.148 360.467C331.831 360.243 331.444 359.943 330.995 359.557C330.292 358.981 329.416 358.198 328.349 357.155L325.957 354.712L323.006 357.662L325.387 360.087V360.122C329.07 363.717 330.96 364.73 331.658 365.024C333.866 366.111 336.259 366.774 338.712 366.977C339.84 367.065 340.973 367.042 342.096 366.908L342.367 366.879V362.651C339.306 363.135 336.171 362.633 333.416 361.216H333.41Z" fill="white"/>
<path d="M338.599 333.179V358.365H333.072V338.709L333.625 338.156L333.925 337.856L335.596 336.186L336.726 335.057L337.095 334.688L338.23 333.553L338.599 333.179Z" fill="white"/>
<path d="M350.172 338.803V363.932L350.103 363.984C349.849 364.145 349.578 364.312 349.29 364.473C349.198 364.531 349.1 364.583 349.002 364.635C348.748 364.779 348.477 364.923 348.201 365.061C347.924 365.199 347.676 365.314 347.4 365.435L346.944 365.631L346.322 365.873L345.814 366.052C345.469 366.167 345.111 366.276 344.742 366.374L344.472 366.444V338.803H350.172Z" fill="white"/>
<path d="M344.471 345.45H338.598V351.153H344.471V345.45Z" fill="white"/>
<path d="M282.535 205.58C284.117 211.484 275.755 218.94 264.329 222.002C252.902 225.064 242.737 222.572 241.155 216.668C238.475 206.668 244.336 196.529 257.188 193.085C270.04 189.642 279.763 195.235 282.535 205.58Z" fill="#4F9A15"/>
<path d="M304.342 205.369C302.76 211.273 311.122 218.729 322.549 221.791C333.975 224.853 344.14 222.361 345.722 216.457C348.402 206.457 342.541 196.318 329.689 192.874C316.837 189.431 307.114 195.024 304.342 205.369Z" fill="#4F9A15"/>
</g>
<g clip-path="url(#clip3_2006_3440)">
<path d="M446.908 421.889C441.787 419.795 436.801 391.897 437.812 378.008L486.999 385.858C488.01 397.13 488.077 420.117 485.652 421.889C482.619 424.103 453.309 424.506 446.908 421.889Z" fill="#E7EAEE"/>
<path d="M443.064 390.989C427.755 380.809 448.449 317.306 463.402 309.307C478.354 301.309 502.674 302.52 513.355 309.307C524.035 316.094 550.429 380.567 535.12 390.989C519.811 401.411 458.372 401.169 443.064 390.989Z" fill="white"/>
<path d="M530.554 421.889C535.675 419.795 540.661 391.897 539.65 378.008L490.463 385.858C489.452 397.13 489.385 420.118 491.81 421.889C494.842 424.103 524.153 424.506 530.554 421.889Z" fill="white"/>
<path d="M449.818 369.386C449.818 388.432 466.121 393.006 486.232 393.006C506.343 393.006 522.646 388.432 522.646 369.386C522.646 344.347 506.343 330.175 486.232 330.175C466.121 330.175 449.818 344.347 449.818 369.386Z" fill="#E7EAEE"/>
<path d="M485.112 381.581C484.965 381.582 484.819 381.554 484.684 381.499C484.548 381.444 484.424 381.363 484.32 381.26L479.361 376.271C479.178 376.059 479.083 375.786 479.093 375.507C479.104 375.228 479.22 374.964 479.419 374.766C479.617 374.569 479.884 374.453 480.164 374.442C480.445 374.431 480.719 374.526 480.932 374.708L485.903 379.641C486.007 379.744 486.09 379.867 486.147 380.002C486.203 380.137 486.232 380.282 486.232 380.428C486.232 380.575 486.203 380.72 486.147 380.855C486.09 380.99 486.007 381.112 485.903 381.215C485.802 381.326 485.681 381.416 485.545 381.479C485.409 381.542 485.261 381.576 485.112 381.581Z" fill="#FFC0C1"/>
<path d="M480.205 381.581C480.059 381.582 479.915 381.554 479.78 381.499C479.646 381.444 479.523 381.363 479.42 381.261C479.316 381.158 479.234 381.035 479.178 380.901C479.121 380.766 479.093 380.621 479.093 380.475C479.093 380.329 479.121 380.185 479.178 380.05C479.234 379.915 479.316 379.793 479.42 379.69L484.341 374.769C484.443 374.665 484.566 374.583 484.7 374.526C484.835 374.47 484.98 374.441 485.126 374.441C485.272 374.441 485.416 374.47 485.551 374.526C485.686 374.583 485.808 374.665 485.911 374.769C486.117 374.976 486.232 375.256 486.232 375.548C486.232 375.84 486.117 376.121 485.911 376.328L480.979 381.261C480.773 381.465 480.495 381.58 480.205 381.581Z" fill="#FFC0C1"/>
<path d="M551.634 166.644C545.923 185.159 521.465 221.409 516.292 236.567H467.383C462.21 221.409 439.637 185.159 432.397 166.644C423.417 143.681 432.757 113.835 457.981 113.835C478.807 113.835 488.563 148.226 491.302 166.644C494.04 148.226 504.511 113.835 524.623 113.835C549.847 113.835 558.903 143.084 551.634 166.644Z" fill="white"/>
<path d="M403.409 271.983C403.409 309.247 444.272 321.605 493.937 321.605C543.601 321.605 584.765 309.247 584.765 271.983C584.765 208.444 543.601 186.659 493.937 186.659C444.272 186.659 403.409 205.418 403.409 271.983Z" fill="white"/>
<path d="M527.644 260.914V272.338" stroke="#123041" stroke-width="10.7099" stroke-linecap="round"/>
<path d="M441.25 260.914V272.338" stroke="#123041" stroke-width="10.7099" stroke-linecap="round"/>
<path d="M549.064 288.762H538.354" stroke="#FFC0C1" stroke-width="14.2799" stroke-linecap="round"/>
<path d="M430.542 288.762H419.832" stroke="#FFC0C1" stroke-width="14.2799" stroke-linecap="round"/>
<path d="M472.667 290.516C472.667 296.95 472.667 300.185 484.448 300.185C496.228 300.185 496.228 297.525 496.228 290.516C496.228 283.507 490.954 272.339 484.448 272.339C477.941 272.339 472.667 284.082 472.667 290.516Z" fill="#FFC0C1"/>
<path d="M484.447 272.342C480.261 272.342 476.587 277.205 474.498 282.386C477.323 283.705 480.751 284.479 484.448 284.479C488.183 284.479 491.644 283.689 494.485 282.346C492.411 277.096 488.691 272.342 484.447 272.342Z" fill="#E7EAEE"/>
<path d="M487.367 262.344C485.966 262.344 485.323 262.928 484.448 263.513C483.572 262.928 482.929 262.344 481.528 262.344C479.776 262.344 478.759 264.18 479.192 265.265C479.776 266.726 481.917 268.186 484.448 268.77C486.978 268.186 489.119 266.726 489.703 265.265C490.136 264.18 489.119 262.344 487.367 262.344Z" fill="#FFC0C1"/>
<g clip-path="url(#clip4_2006_3440)">
<path d="M444.647 314.435C444.956 314.916 445.362 315.108 445.526 315.144L461.3 307.999L474.377 296.647C474.413 296.482 474.408 296.033 474.1 295.552C473.714 294.951 473.075 291.969 471.68 292.439C470.285 292.91 469.661 294.582 467.858 295.738C466.054 296.894 465.369 296.486 462.664 298.22C459.959 299.954 459.443 301.133 457.64 302.289C455.836 303.445 454.549 303.422 452.446 304.771C450.342 306.12 448.924 307.877 447.121 309.033C445.318 310.189 443.837 309.866 442.828 310.937C441.819 312.008 444.262 313.834 444.647 314.435Z" fill="#E48174"/>
<path d="M468.926 352.299C468.617 351.818 468.612 351.369 468.648 351.204L481.725 339.852L497.499 332.707C497.663 332.743 498.07 332.935 498.378 333.416C498.763 334.017 501.207 335.843 500.197 336.914C499.187 337.986 497.407 337.855 495.604 339.011C493.801 340.167 493.886 340.961 491.181 342.695C488.476 344.429 487.189 344.406 485.386 345.562C483.583 346.718 483.066 347.897 480.963 349.246C478.859 350.595 476.67 351.15 474.867 352.306C473.064 353.462 472.74 354.942 471.345 355.412C469.95 355.882 469.311 352.9 468.926 352.299Z" fill="#E48174"/>
<path d="M459.552 305.303C453.914 308.918 445.62 314.66 445.512 315.153C445.452 315.426 446.266 317.876 448.218 321.9C449.788 325.134 453.293 328.616 456.471 333.571C459.648 338.527 461.362 343.157 463.647 345.933C466.488 349.386 468.375 351.149 468.648 351.208C469.141 351.316 477.82 346.176 483.459 342.56C489.097 338.945 497.392 333.204 497.499 332.711C497.559 332.434 496.787 330.027 494.807 325.955C493.255 322.761 489.743 319.322 486.525 314.302C483.307 309.283 481.633 304.666 479.379 301.922C476.504 298.423 474.64 296.716 474.363 296.656C473.87 296.547 465.191 301.688 459.552 305.303Z" fill="#FFC5AB"/>
<g filter="url(#filter0_d_2006_3440)">
<path d="M477.189 339.47C470.892 340.751 464.792 337.621 466.458 333.274C468.124 328.928 471.211 330.849 475.268 330.024C479.325 329.199 481.56 326.924 483.95 329.717C486.339 332.51 483.487 338.189 477.189 339.47Z" fill="#FFC53D"/>
</g>
<g filter="url(#filter1_d_2006_3440)">
<path d="M481.683 327.449C479.775 332.388 474.894 335.232 472.618 332.146C470.341 329.059 473.045 327.77 474.274 324.588C475.503 321.406 474.917 318.845 477.916 318.427C480.915 318.008 483.59 322.51 481.683 327.449Z" fill="#FFC53D"/>
</g>
<g filter="url(#filter2_d_2006_3440)">
<path d="M465.256 326.09C460.158 327.569 454.925 325.403 456.003 321.712C457.082 318.021 459.753 319.395 463.038 318.442C466.323 317.489 468.009 315.466 470.165 317.604C472.32 319.742 470.355 324.611 465.256 326.09Z" fill="#FFC53D"/>
</g>
</g>
<g clip-path="url(#clip5_2006_3440)">
<path d="M517.346 301.188L518.435 303.167L520.754 304.338L522.105 306.559L524.425 307.731L525.251 309.466L527.833 310.881L524.644 313.28L515.205 304.557L517.346 301.188Z" fill="#DAA427"/>
<path d="M499.242 341.815L498.154 339.837L495.834 338.666L494.483 336.445L492.163 335.273L491.337 333.537L488.755 332.123L491.945 329.724L501.383 338.447L499.242 341.815Z" fill="#DAA427"/>
<rect x="515.164" y="303.543" width="14.2799" height="35.6998" rx="1.42799" transform="rotate(42.7435 515.164 303.543)" fill="#FFC53D"/>
<path d="M515.888 312.851C516.265 312.734 516.665 312.944 516.782 313.321L518.203 317.894C518.32 318.271 518.109 318.671 517.732 318.788L509.054 321.484C509.215 321.432 509.367 321.382 509.511 321.337C509.738 320.905 510.131 319.842 509.886 319.051C509.578 318.061 508.358 317.626 508.128 316.884C507.944 316.294 508.072 315.554 508.16 315.252L515.888 312.851Z" fill="#935F3A"/>
<path d="M503.37 323.008C502.764 322.871 502.183 322.386 501.968 322.16L500.14 330.246C500.083 330.498 500.278 330.808 500.531 330.865L505.584 332.008C505.837 332.065 506.147 331.87 506.204 331.617L507.918 324.037C507.657 323.624 506.934 322.752 506.125 322.569C505.115 322.341 504.128 323.18 503.37 323.008Z" fill="#935F3A"/>
</g>
<g clip-path="url(#clip6_2006_3440)">
<path d="M483.844 299.336C485.054 299.245 489.664 299.331 494.561 299.933C499.715 300.566 503.307 301.487 505.104 301.948" stroke="#6DA442" stroke-width="2.14199" stroke-linecap="round"/>
<path d="M479.577 334.064C480.729 334.445 485.224 335.477 490.12 336.079C495.274 336.712 498.983 336.688 500.837 336.676" stroke="#6DA442" stroke-width="2.14199" stroke-linecap="round"/>
<path d="M482.123 301.629C482.249 300.606 483.084 299.83 484.115 299.842C486.001 299.865 489.414 300.014 494.474 300.636C499.534 301.258 502.882 301.939 504.718 302.374C505.721 302.611 506.343 303.567 506.218 304.59L502.562 334.34C502.435 335.375 501.581 336.159 500.538 336.144C498.596 336.115 495.111 335.963 490.207 335.361C485.303 334.758 481.886 334.062 479.995 333.62C478.979 333.382 478.34 332.415 478.467 331.379L482.123 301.629Z" fill="#AFD157"/>
<mask id="mask0_2006_3440" style="mask-type:alpha" maskUnits="userSpaceOnUse" x="478" y="299" width="29" height="38">
<path d="M482.124 301.628C482.25 300.605 483.085 299.829 484.116 299.841C486.002 299.864 489.416 300.013 494.475 300.635C499.535 301.257 502.884 301.938 504.719 302.373C505.722 302.61 506.345 303.566 506.219 304.589L502.563 334.339C502.436 335.375 501.582 336.158 500.539 336.143C498.597 336.114 495.113 335.962 490.209 335.36C485.305 334.757 481.887 334.061 479.996 333.619C478.98 333.381 478.342 332.414 478.469 331.378L482.124 301.628Z" fill="#AFD157"/>
</mask>
<g mask="url(#mask0_2006_3440)">
<path d="M494.002 327.916C499.709 325.38 502.77 306.333 502.795 297.344L509.969 297.506L509.263 341.301L475.782 338.626C474.193 333.994 472.647 326.083 476.69 328.306C481.744 331.085 490.355 329.537 494.002 327.916Z" fill="#A0C248"/>
</g>
<path d="M485.272 305.261L483.444 320.143" stroke="#C4E0AE" stroke-width="2.14199" stroke-linecap="round"/>
<path d="M483.009 323.691L482.748 325.817" stroke="#C4E0AE" stroke-width="2.14199" stroke-linecap="round"/>
<circle cx="497.059" cy="329.378" r="3.92698" transform="rotate(7.00501 497.059 329.378)" fill="#CCF2C2"/>
<path d="M493.87 328.985C494.086 327.224 495.689 325.972 497.451 326.188" stroke="white" stroke-width="0.571197" stroke-linecap="round" stroke-dasharray="0.71 0.71 1.43 1.43"/>
<circle cx="493.764" cy="321.049" r="2.49899" transform="rotate(7.00501 493.764 321.049)" fill="#CCF2C2"/>
<path d="M491.994 320.835C492.114 319.856 493.005 319.16 493.984 319.281" stroke="white" stroke-width="0.428398" stroke-linecap="round" stroke-dasharray="0.71 1.07 1.43 1.43"/>
<circle cx="500.666" cy="317.585" r="1.78499" transform="rotate(7.00501 500.666 317.585)" fill="#CCF2C2"/>
<path d="M499.602 317.457C499.674 316.87 500.208 316.453 500.795 316.525" stroke="white" stroke-width="0.285599" stroke-linecap="round" stroke-dasharray="0.71 1.43 1.43 1.43"/>
<path d="M493.671 318.887L494.38 318.974L494.293 319.683L493.895 319.993L493.23 319.552L493.671 318.887Z" fill="#CCF2C2"/>
<path d="M500.484 316.128L501.193 316.215L501.106 316.924L500.354 317.191L500.441 316.483L500.484 316.128Z" fill="#CCF2C2"/>
<path d="M497.14 325.789L497.849 325.876L497.718 326.939L496.966 327.206L496.388 326.056L497.14 325.789Z" fill="#CCF2C2"/>
</g>
<path d="M501.539 345.022C509.677 353.849 532.036 343.816 540.496 336.247C545.313 331.939 544.925 325.238 540.546 322.827C532.265 318.269 520.042 320.131 509.794 319.112C497.975 317.936 485.905 328.063 501.539 345.022Z" fill="#DBDEE3"/>
<path d="M430.713 327.46C432.248 318.721 442.401 314.652 453.275 316.563C464.15 318.473 471.629 325.64 470.094 334.378C468.558 343.117 458.59 350.118 447.716 348.208C436.841 346.297 429.178 336.198 430.713 327.46Z" fill="#DBDEE3"/>
</g>
<g clip-path="url(#clip7_2006_3440)">
<path d="M154.99 421.889C160.111 419.795 165.097 391.897 164.086 378.008L114.899 385.858C113.888 397.13 113.821 420.118 116.246 421.889C119.278 424.103 148.589 424.506 154.99 421.889Z" fill="#FFC532"/>
<path d="M188.806 349.701C171.056 354.747 145.514 337.594 134.961 328.387C134.555 326.857 134.167 323.029 135.871 319.955C138.002 316.112 182.15 317.89 192.202 320.132C202.254 322.374 210.993 343.393 188.806 349.701Z" fill="#FFC532"/>
<path d="M158.834 390.989C174.143 380.809 153.449 317.306 138.496 309.307C123.543 301.309 99.2236 302.52 88.543 309.307C77.8624 316.094 51.4691 380.567 66.7777 390.989C82.0864 401.411 143.525 401.169 158.834 390.989Z" fill="#FFDB40"/>
<path d="M31.8126 357.279C31.9022 356.895 32.2861 356.656 32.6701 356.746L74.4115 366.478C74.5346 366.507 74.6479 366.567 74.7398 366.654L80.0232 371.647C80.4206 372.023 80.2656 372.687 79.7431 372.848L72.7963 374.99C72.6755 375.027 72.547 375.032 72.4239 375.003L30.6825 365.271C30.2984 365.181 30.0597 364.797 30.1492 364.413L31.8126 357.279Z" fill="#FFB132"/>
<path d="M71.3451 421.889C66.2243 419.795 61.2381 391.897 62.2488 378.008L111.436 385.858C112.447 397.13 112.514 420.118 110.089 421.889C107.057 424.103 77.7462 424.506 71.3451 421.889Z" fill="#FFDB40"/>
<path d="M35.7822 353.598C39.2773 335.479 66.1011 320.409 79.0761 315.138C80.6251 315.465 84.2173 316.844 86.1932 319.751C88.6632 323.385 67.1789 361.994 60.6473 369.956C54.1156 377.919 31.4134 376.247 35.7822 353.598Z" fill="#FFDB40"/>
<path d="M116.787 381.581C116.934 381.582 117.08 381.554 117.215 381.499C117.351 381.444 117.475 381.363 117.579 381.26L122.538 376.271C122.721 376.059 122.816 375.786 122.806 375.507C122.795 375.228 122.678 374.964 122.48 374.766C122.281 374.569 122.015 374.453 121.735 374.442C121.454 374.431 121.18 374.526 120.967 374.708L115.996 379.641C115.892 379.744 115.809 379.867 115.752 380.002C115.696 380.137 115.666 380.282 115.666 380.428C115.666 380.575 115.696 380.72 115.752 380.855C115.809 380.99 115.892 381.112 115.996 381.215C116.096 381.326 116.218 381.416 116.354 381.479C116.49 381.542 116.638 381.576 116.787 381.581Z" fill="#FFBB4D"/>
<path d="M121.694 381.581C121.84 381.582 121.984 381.554 122.119 381.499C122.253 381.444 122.376 381.363 122.479 381.261C122.583 381.158 122.665 381.035 122.721 380.901C122.777 380.766 122.806 380.621 122.806 380.475C122.806 380.329 122.777 380.185 122.721 380.05C122.665 379.915 122.583 379.793 122.479 379.69L117.558 374.769C117.456 374.665 117.333 374.583 117.198 374.526C117.064 374.47 116.919 374.441 116.773 374.441C116.627 374.441 116.483 374.47 116.348 374.526C116.213 374.583 116.091 374.665 115.988 374.769C115.782 374.976 115.666 375.256 115.666 375.548C115.666 375.84 115.782 376.121 115.988 376.328L120.92 381.261C121.126 381.465 121.404 381.58 121.694 381.581Z" fill="#FFBB4D"/>
<path d="M199.204 271.266C199.204 308.53 158.341 320.887 108.677 320.887C59.0121 320.887 17.8488 308.53 17.8488 271.266C17.8488 207.726 59.0121 185.941 108.677 185.941C158.341 185.941 199.204 204.701 199.204 271.266Z" fill="#FFDB40"/>
<path d="M49.9787 289.475H60.6886" stroke="#FFA052" stroke-width="14.2799" stroke-linecap="round"/>
<path d="M168.502 289.475H179.211" stroke="#FFA052" stroke-width="14.2799" stroke-linecap="round"/>
<path d="M71.3986 263.767V275.191" stroke="#123041" stroke-width="10.7099" stroke-linecap="round"/>
<path d="M157.792 263.767V275.191" stroke="#123041" stroke-width="10.7099" stroke-linecap="round"/>
<path d="M132.802 280.191C132.802 286.697 124.65 289.473 114.595 289.473C104.54 289.473 96.3881 286.697 96.3881 280.191C96.3881 273.684 104.54 265.911 114.595 265.911C124.65 265.911 132.802 273.684 132.802 280.191Z" fill="#FFB132"/>
<path d="M95.1453 161.117C105.976 170.721 112.199 181.493 114.04 191.297L94.9787 189.265C87.1301 188.428 79.6118 179.176 79.9587 167.947C80.3057 156.718 89.6373 156.232 95.1453 161.117Z" fill="#FFDB40"/>
<path d="M115.037 176.277C111.665 179.569 110.812 186.745 110.808 189.922C117.34 189.318 128.302 187.309 130.268 183.126C132.234 178.943 131.007 173.742 128.614 172.502C126.221 171.262 119.252 172.161 115.037 176.277Z" fill="#FFDB40"/>
<path d="M222.053 304.114C215.271 300.901 208.131 304.114 203.133 303.043C200.286 302.433 196.707 303.043 190.638 300.187C189.924 313.039 188.496 316.252 188.496 319.822C188.496 326.056 189.21 332.674 188.496 339.457C192.066 340.885 195.359 341.242 199.92 341.242C206.235 341.242 213.486 339.457 222.053 340.528C222.053 329.461 220.626 330.553 220.625 323.035C220.625 315.398 222.053 312.325 222.053 304.114Z" fill="#FFE8AD"/>
</g>
</g>
<defs>
<filter id="filter0_d_2006_3440" x="466.18" y="328.367" width="19.3237" height="12.1066" filterUnits="userSpaceOnUse" color-interpolation-filters="sRGB">
<feFlood flood-opacity="0" result="BackgroundImageFix"/>
<feColorMatrix in="SourceAlpha" type="matrix" values="0 0 0 0 0 0 0 0 0 0 0 0 0 0 0 0 0 0 127 0" result="hardAlpha"/>
<feOffset dx="0.713996" dy="0.713996"/>
<feComposite in2="hardAlpha" operator="out"/>
<feColorMatrix type="matrix" values="0 0 0 0 0.822493 0 0 0 0 0.503639 0 0 0 0 0.129331 0 0 0 1 0"/>
<feBlend mode="normal" in2="BackgroundImageFix" result="effect1_dropShadow_2006_3440"/>
<feBlend mode="normal" in="SourceGraphic" in2="effect1_dropShadow_2006_3440" result="shape"/>
</filter>
<filter id="filter1_d_2006_3440" x="471.735" y="318.4" width="11.3024" height="15.7423" filterUnits="userSpaceOnUse" color-interpolation-filters="sRGB">
<feFlood flood-opacity="0" result="BackgroundImageFix"/>
<feColorMatrix in="SourceAlpha" type="matrix" values="0 0 0 0 0 0 0 0 0 0 0 0 0 0 0 0 0 0 127 0" result="hardAlpha"/>
<feOffset dx="0.713997" dy="0.713997"/>
<feComposite in2="hardAlpha" operator="out"/>
<feColorMatrix type="matrix" values="0 0 0 0 0.822493 0 0 0 0 0.503639 0 0 0 0 0.129331 0 0 0 1 0"/>
<feBlend mode="normal" in2="BackgroundImageFix" result="effect1_dropShadow_2006_3440"/>
<feBlend mode="normal" in="SourceGraphic" in2="effect1_dropShadow_2006_3440" result="shape"/>
</filter>
<filter id="filter2_d_2006_3440" x="455.861" y="316.658" width="15.8821" height="10.6149" filterUnits="userSpaceOnUse" color-interpolation-filters="sRGB">
<feFlood flood-opacity="0" result="BackgroundImageFix"/>
<feColorMatrix in="SourceAlpha" type="matrix" values="0 0 0 0 0 0 0 0 0 0 0 0 0 0 0 0 0 0 127 0" result="hardAlpha"/>
<feOffset dx="0.713996" dy="0.713996"/>
<feComposite in2="hardAlpha" operator="out"/>
<feColorMatrix type="matrix" values="0 0 0 0 0.822493 0 0 0 0 0.503639 0 0 0 0 0.129331 0 0 0 1 0"/>
<feBlend mode="normal" in2="BackgroundImageFix" result="effect1_dropShadow_2006_3440"/>
<feBlend mode="normal" in="SourceGraphic" in2="effect1_dropShadow_2006_3440" result="shape"/>
</filter>
<linearGradient id="paint0_linear_2006_3440" x1="258.437" y1="285.3" x2="314.724" y2="363.63" gradientUnits="userSpaceOnUse">
<stop offset="0.25" stop-color="#96FFFF" stop-opacity="0"/>
<stop offset="1" stop-color="#96FFFF" stop-opacity="0.5"/>
</linearGradient>
<clipPath id="clip0_2006_3440">
<rect width="611" height="424.321" fill="white"/>
</clipPath>
<clipPath id="clip1_2006_3440">
<rect width="200.633" height="263.465" fill="white" transform="translate(191.352 56)"/>
</clipPath>
<clipPath id="clip2_2006_3440">
<rect width="224.909" height="237.047" fill="white" transform="translate(181.356 187.371)"/>
</clipPath>
<clipPath id="clip3_2006_3440">
<rect width="232.763" height="314.872" fill="white" transform="matrix(-1 0 0 1 610.466 108.84)"/>
</clipPath>
<clipPath id="clip4_2006_3440">
<rect width="43.5538" height="58.5477" fill="white" transform="translate(437.68 310.843) rotate(-32.6653)"/>
</clipPath>
<clipPath id="clip5_2006_3440">
<rect width="19.9919" height="47.1238" fill="white" transform="translate(516.946 297.407) rotate(42.7435)"/>
</clipPath>
<clipPath id="clip6_2006_3440">
<rect width="31.4158" height="43.5538" fill="white" transform="translate(479.406 294.477) rotate(7.00501)"/>
</clipPath>
<clipPath id="clip7_2006_3440">
<rect width="247.043" height="277.031" fill="white" transform="translate(0 146.672)"/>
</clipPath>
</defs>
</svg>
