<svg width="440" height="311" viewBox="0 0 440 311" fill="none" xmlns="http://www.w3.org/2000/svg">
<g clip-path="url(#clip0_3564_3342)">
<rect width="440" height="311" rx="12" fill="#FAFAFF"/>
<path d="M220.009 10C249.475 10 273.363 31.9341 273.363 58.991C273.363 65.9199 271.796 72.5126 268.972 78.4872C278.669 66.2295 294.403 58.2595 312.167 58.2595C341.633 58.2596 365.52 80.1937 365.52 107.25C365.52 131.415 346.465 151.494 321.4 155.51C346.465 159.526 365.52 179.605 365.52 203.77C365.52 230.826 341.633 252.76 312.167 252.76C294.403 252.76 278.669 244.791 268.972 232.533C271.796 238.507 273.363 245.1 273.363 252.03C273.363 279.086 249.475 301.02 220.009 301.02C190.543 301.02 166.656 279.086 166.656 252.03C166.656 245.1 168.223 238.507 171.048 232.533C161.351 244.791 145.616 252.76 127.853 252.76C98.3872 252.76 74.5001 230.826 74.5 203.77C74.5 179.605 93.5538 159.526 118.619 155.51C93.5538 151.494 74.5 131.415 74.5 107.25C74.5 80.1937 98.3871 58.2595 127.853 58.2595C145.616 58.2595 161.351 66.2294 171.048 78.4872C168.223 72.5126 166.656 65.9199 166.656 58.991C166.656 31.9342 190.543 10.0001 220.009 10Z" fill="#93F5F3"/>
<path d="M282.211 199.988C271.134 205.574 252.093 197.493 243.958 192.755C243.495 191.797 242.753 189.318 243.488 187.073C244.406 184.265 273.778 179.833 280.698 180.036C287.619 180.24 296.057 193.007 282.211 199.988Z" fill="#E7EAEE"/>
<path d="M250.176 256.461C253.619 255.054 256.971 236.298 256.291 226.961L223.224 232.238C222.545 239.816 222.499 255.27 224.13 256.461C226.168 257.949 245.873 258.22 250.176 256.461Z" fill="#E7EAEE"/>
<path d="M252.761 235.685C263.052 228.841 249.14 186.15 239.088 180.773C229.036 175.396 212.686 176.21 205.506 180.773C198.326 185.335 180.582 228.678 190.874 235.685C201.165 242.692 242.469 242.529 252.761 235.685Z" fill="white"/>
<path d="M193.944 256.461C190.502 255.054 187.15 236.298 187.829 226.961L220.896 232.238C221.576 239.816 221.621 255.27 219.99 256.461C217.952 257.949 198.248 258.22 193.944 256.461Z" fill="white"/>
<path d="M248.22 221.157C248.22 233.962 237.26 237.037 223.74 237.037C210.22 237.037 199.26 233.962 199.26 221.157C199.26 204.325 210.22 194.797 223.74 194.797C237.26 194.797 248.22 204.325 248.22 221.157Z" fill="#E7EAEE"/>
<path d="M224.494 229.359C224.593 229.359 224.691 229.34 224.782 229.303C224.873 229.266 224.956 229.212 225.026 229.142L228.36 225.789C228.483 225.646 228.547 225.463 228.54 225.275C228.533 225.088 228.455 224.91 228.321 224.777C228.188 224.644 228.009 224.566 227.82 224.559C227.632 224.552 227.447 224.616 227.304 224.738L223.962 228.054C223.892 228.124 223.836 228.206 223.798 228.297C223.76 228.388 223.741 228.485 223.741 228.583C223.741 228.682 223.76 228.779 223.798 228.87C223.836 228.961 223.892 229.043 223.962 229.113C224.03 229.187 224.112 229.247 224.203 229.29C224.294 229.332 224.394 229.355 224.494 229.359Z" fill="#FFC0C1"/>
<path d="M227.793 229.359C227.891 229.359 227.988 229.34 228.078 229.303C228.169 229.266 228.251 229.212 228.321 229.143C228.39 229.074 228.446 228.992 228.483 228.901C228.521 228.81 228.541 228.713 228.541 228.615C228.541 228.517 228.521 228.42 228.483 228.329C228.446 228.239 228.39 228.156 228.321 228.087L225.013 224.779C224.943 224.709 224.861 224.654 224.771 224.616C224.68 224.578 224.583 224.559 224.485 224.559C224.387 224.559 224.289 224.578 224.199 224.616C224.108 224.654 224.026 224.709 223.957 224.779C223.818 224.918 223.741 225.106 223.741 225.303C223.741 225.499 223.818 225.688 223.957 225.827L227.273 229.143C227.411 229.28 227.598 229.358 227.793 229.359Z" fill="#FFC0C1"/>
<path d="M182.174 84.8613C186.014 97.3084 202.456 121.678 205.934 131.868H238.814C242.291 121.678 257.466 97.3084 262.334 84.8613C268.37 69.4238 262.092 49.3593 245.134 49.3594C231.134 49.3594 224.575 72.4794 222.734 84.8613C220.892 72.4794 213.854 49.3594 200.333 49.3594C183.375 49.3594 177.287 69.022 182.174 84.8613Z" fill="white"/>
<path d="M281.82 155.677C281.82 180.729 254.35 189.036 220.962 189.036C187.573 189.036 159.9 180.729 159.9 155.677C159.9 112.962 187.573 98.3164 220.962 98.3164C254.35 98.3164 281.82 110.928 281.82 155.677Z" fill="white"/>
<path d="M198.3 148.238V155.918" stroke="#123041" stroke-width="7.2" stroke-linecap="round"/>
<path d="M256.38 148.238V155.918" stroke="#123041" stroke-width="7.2" stroke-linecap="round"/>
<path d="M183.9 166.961H191.1" stroke="#FFC0C1" stroke-width="9.6" stroke-linecap="round"/>
<path d="M263.58 166.961H270.78" stroke="#FFC0C1" stroke-width="9.6" stroke-linecap="round"/>
<path d="M225.378 149.199C226.32 149.199 226.752 149.592 227.341 149.985C227.93 149.592 228.361 149.199 229.303 149.199C230.481 149.199 231.165 150.434 230.874 151.163C230.481 152.145 229.042 153.126 227.341 153.519C225.64 153.126 224.2 152.145 223.808 151.163C223.516 150.434 224.2 149.199 225.378 149.199Z" fill="#FFC0C1"/>
<path d="M218.46 160.738C219.85 163.125 224.035 167.689 229.659 166.847" stroke="#FFC0C1" stroke-width="2.4" stroke-linecap="round" stroke-linejoin="round"/>
<path d="M218.036 159.762C217.999 159.989 217.98 160.222 217.98 160.459C217.981 162.738 219.742 164.626 222.042 164.964C221.486 166.399 220.093 167.418 218.461 167.418C216.34 167.418 214.621 165.699 214.621 163.578C214.621 161.601 216.115 159.973 218.036 159.762Z" fill="#FFC0C1"/>
<path d="M173.234 216.258C185.626 216.844 199.721 201.706 205.22 194.064C205.252 193 204.919 190.435 203.333 188.683C201.35 186.494 172.722 194.415 166.485 197.421C160.249 200.427 157.745 215.524 173.234 216.258Z" fill="white"/>
<path d="M179.702 199.94C175.94 201.67 171.487 200.023 169.757 196.261L169.005 194.626C166.86 189.961 161.339 187.919 156.674 190.064L142.234 196.706C132.904 200.997 128.819 212.038 133.11 221.368C137.401 230.698 148.442 234.783 157.772 230.492L185.836 217.585C190.501 215.439 192.544 209.918 190.398 205.254L189.646 203.619C187.916 199.857 183.464 198.21 179.702 199.94Z" fill="#D4A65B"/>
<path d="M273.826 196.795C273.833 195.247 285.659 173.419 291.571 162.699L299.885 167.499C293.349 177.859 279.944 198.775 278.607 199.555C276.935 200.53 273.817 198.73 273.826 196.795Z" fill="#D70000"/>
<path d="M304.908 166.178C302.418 170.49 297.201 171.79 293.069 169.404C288.936 167.019 287.537 161.706 289.943 157.538C292.171 153.679 297.538 149.145 305.317 145.687C306.064 145.354 306.844 146.078 306.644 146.871C304.4 155.78 308.247 160.395 304.908 166.178Z" fill="#533023"/>
<mask id="mask0_3564_3342" style="mask-type:alpha" maskUnits="userSpaceOnUse" x="288" y="145" width="19" height="26">
<path d="M304.908 166.178C302.418 170.49 297.201 171.79 293.069 169.404C288.936 167.019 287.537 161.706 289.943 157.538C292.171 153.679 297.538 149.145 305.317 145.687C306.064 145.354 306.844 146.078 306.644 146.871C304.4 155.78 308.247 160.395 304.908 166.178Z" fill="#533023"/>
</mask>
<g mask="url(#mask0_3564_3342)">
<path d="M295.016 153.066C294.262 151.301 299.256 145.723 301.847 143.154L310.068 142.358L312.47 157.878C311.046 158.903 307.783 160.715 306.12 159.755C304.042 158.555 303.963 156.292 303.131 155.812C302.3 155.332 301.188 157.738 299.733 156.898C298.278 156.058 299.302 153.324 298.591 152.636C297.88 151.948 295.959 155.274 295.016 153.066Z" fill="#FFC5AB"/>
</g>
<path d="M188.613 115.401C183.976 114.138 185.738 120.668 182.954 121.04C180.169 121.412 175.658 118.456 174.726 120.463C173.795 122.471 179.632 124.98 179.793 126.489C179.953 127.999 175.077 134.545 177.582 136.569C180.086 138.593 181.212 131.223 183.636 132.492C186.061 133.761 187.181 134.252 189.262 133.726C191.344 133.199 187.85 131.204 188.313 129.095C188.775 126.985 197.581 129.408 197.832 126.023C198.083 122.638 190.519 126.876 189.393 124.172C188.266 121.467 193.25 116.664 188.613 115.401Z" fill="#9EE7E5"/>
<mask id="mask1_3564_3342" style="mask-type:alpha" maskUnits="userSpaceOnUse" x="180" y="49" width="85" height="83">
<path d="M182.173 84.8613C186.013 97.3084 202.455 121.678 205.933 131.868H238.813C242.291 121.678 257.466 97.3084 262.333 84.8613C268.37 69.4238 262.091 49.3593 245.134 49.3594C231.133 49.3594 224.574 72.4794 222.733 84.8613C220.892 72.4794 213.853 49.3594 200.332 49.3594C183.375 49.3594 177.287 69.022 182.173 84.8613Z" fill="white"/>
</mask>
<g mask="url(#mask1_3564_3342)">
<path d="M247.42 53.6692C249.66 52.0621 242.94 48.5263 244.86 45.6334C246.46 43.0619 248.7 45.9545 252.54 45.6331C254.319 45.4842 254.244 45.3354 253.937 45.2505C253.094 45.1446 253.631 45.1657 253.937 45.2505C254.073 45.2675 254.245 45.288 254.46 45.3119C256.764 45.5691 257.554 47.9906 257.66 49.1692L270.78 71.6695C269.607 77.241 266.236 88.2555 262.14 87.7412C257.02 87.0983 261.5 75.8481 259.58 75.2053C257.66 74.5624 256.7 83.5626 254.46 80.9911C252.22 78.4196 257.66 69.7409 256.06 69.098C254.46 68.4552 249.02 82.9197 245.5 78.741C241.98 74.5624 254.46 68.4552 252.54 65.2408C250.62 62.0265 242.3 69.4195 241.98 65.8837C241.66 62.3479 250.94 61.7051 250.94 59.1336C250.94 56.5621 238.14 60.0979 238.14 56.2407C238.14 52.3835 244.616 55.6814 247.42 53.6692Z" fill="#AFD157"/>
</g>
<path d="M241.022 208.958C238.622 207.998 236.942 199.838 234.302 201.998C231.662 204.158 240.302 212.077 240.302 213.277C240.302 214.477 233.102 212.077 233.102 214.717C233.102 217.357 240.062 215.917 241.022 217.357C241.982 218.797 237.182 221.197 238.862 222.397C240.542 223.597 241.022 222.157 243.422 222.397C245.822 222.637 246.782 225.277 248.462 224.077C250.142 222.877 246.782 220.237 247.262 218.797C247.742 217.357 251.822 219.517 252.062 216.877C252.302 214.237 245.102 213.997 245.342 212.077C245.582 210.157 250.862 208.958 249.902 207.277C248.942 205.597 245.822 209.677 244.622 207.997C243.422 206.317 245.822 201.277 242.942 201.277C240.062 201.277 243.422 209.918 241.022 208.958Z" fill="#FFC53D"/>
<circle cx="142.141" cy="220.719" r="3.36" fill="#9EE7E5"/>
<circle cx="154.141" cy="222.637" r="3.36" fill="#AFD157"/>
<circle cx="168.06" cy="218.321" r="3.36" fill="#FFC53D"/>
<path fill-rule="evenodd" clip-rule="evenodd" d="M144.061 204.406C147.709 204.214 143.581 207.526 141.421 211.367L141.391 211.314C140.775 212.072 139.835 212.558 138.781 212.558C136.926 212.558 135.421 211.053 135.421 209.197C135.421 207.5 136.68 206.097 138.315 205.87L138.301 205.846C139.741 204.886 140.413 204.598 144.061 204.406Z" fill="#FFC5AB"/>
<rect x="74.9672" y="10.4683" width="290.016" height="290.016" stroke="#009CFF" stroke-width="1.007"/>
<rect x="69.8316" y="5.33249" width="10.4728" height="10.4728" fill="white" stroke="#009CFF" stroke-width="0.8056"/>
<rect x="69.8316" y="295.348" width="10.4728" height="10.4728" fill="white" stroke="#009CFF" stroke-width="0.8056"/>
<rect x="359.847" y="295.348" width="10.4728" height="10.4728" fill="white" stroke="#009CFF" stroke-width="0.8056"/>
<rect x="359.847" y="5.33249" width="10.4728" height="10.4728" fill="white" stroke="#009CFF" stroke-width="0.8056"/>
<circle cx="87.0507" cy="22.551" r="4.028" fill="white" stroke="#009CFF" stroke-width="1.007"/>
<circle cx="353.906" cy="22.551" r="4.028" fill="white" stroke="#009CFF" stroke-width="1.007"/>
<circle cx="353.906" cy="288.399" r="4.028" fill="white" stroke="#009CFF" stroke-width="1.007"/>
<circle cx="87.0507" cy="288.399" r="4.028" fill="white" stroke="#009CFF" stroke-width="1.007"/>
<g filter="url(#filter0_d_3564_3342)">
<rect x="52.6996" y="73.8789" width="59.18" height="16.83" rx="3.3" fill="#426CF7" shape-rendering="crispEdges"/>
<path d="M61.2794 78.9125C62.012 78.9125 62.6522 79.0544 63.2 79.3382C63.7544 79.6154 64.1801 80.018 64.4771 80.546C64.7807 81.0674 64.9325 81.6779 64.9325 82.3775C64.9325 83.0771 64.7807 83.6843 64.4771 84.1991C64.1801 84.7139 63.7544 85.1099 63.2 85.3871C62.6522 85.6577 62.012 85.793 61.2794 85.793H59.0321V78.9125H61.2794ZM61.2794 84.8723C62.0846 84.8723 62.7017 84.6545 63.1307 84.2189C63.5597 83.7833 63.7742 83.1695 63.7742 82.3775C63.7742 81.5789 63.5597 80.9552 63.1307 80.5064C62.7017 80.0576 62.0846 79.8332 61.2794 79.8332H60.1607V84.8723H61.2794ZM67.1797 79.8233V81.8429H69.5557V82.7636H67.1797V84.8723H69.8527V85.793H66.0511V78.9026H69.8527V79.8233H67.1797ZM73.5099 85.8623C73.0479 85.8623 72.6321 85.7831 72.2625 85.6247C71.8929 85.4597 71.6025 85.2287 71.3913 84.9317C71.1801 84.6347 71.0745 84.2882 71.0745 83.8922H72.2823C72.3087 84.1892 72.4242 84.4334 72.6288 84.6248C72.84 84.8162 73.1337 84.9119 73.5099 84.9119C73.8993 84.9119 74.2029 84.8195 74.4207 84.6347C74.6385 84.4433 74.7474 84.1991 74.7474 83.9021C74.7474 83.6711 74.6781 83.483 74.5395 83.3378C74.4075 83.1926 74.2392 83.0804 74.0346 83.0012C73.8366 82.922 73.5594 82.8362 73.203 82.7438C72.7542 82.625 72.3879 82.5062 72.1041 82.3874C71.8269 82.262 71.5893 82.0706 71.3913 81.8132C71.1933 81.5558 71.0943 81.2126 71.0943 80.7836C71.0943 80.3876 71.1933 80.0411 71.3913 79.7441C71.5893 79.4471 71.8665 79.2194 72.2229 79.061C72.5793 78.9026 72.9918 78.8234 73.4604 78.8234C74.127 78.8234 74.6715 78.9917 75.0939 79.3283C75.5229 79.6583 75.7605 80.1137 75.8067 80.6945H74.5593C74.5395 80.4437 74.4207 80.2292 74.2029 80.051C73.9851 79.8728 73.698 79.7837 73.3416 79.7837C73.0182 79.7837 72.7542 79.8662 72.5496 80.0312C72.345 80.1962 72.2427 80.4338 72.2427 80.744C72.2427 80.9552 72.3054 81.1301 72.4308 81.2687C72.5628 81.4007 72.7278 81.5063 72.9258 81.5855C73.1238 81.6647 73.3944 81.7505 73.7376 81.8429C74.193 81.9683 74.5626 82.0937 74.8464 82.2191C75.1368 82.3445 75.381 82.5392 75.579 82.8032C75.7836 83.0606 75.8859 83.4071 75.8859 83.8427C75.8859 84.1925 75.7902 84.5225 75.5988 84.8327C75.414 85.1429 75.1401 85.3937 74.7771 85.5851C74.4207 85.7699 73.9983 85.8623 73.5099 85.8623ZM78.3462 78.9125V85.793H77.2176V78.9125H78.3462ZM84.8076 80.8925C84.6294 80.5493 84.3819 80.2919 84.0651 80.1203C83.7483 79.9421 83.382 79.853 82.9662 79.853C82.5108 79.853 82.1049 79.9553 81.7485 80.1599C81.3921 80.3645 81.1116 80.6549 80.907 81.0311C80.709 81.4073 80.61 81.8429 80.61 82.3379C80.61 82.8329 80.709 83.2718 80.907 83.6546C81.1116 84.0308 81.3921 84.3212 81.7485 84.5258C82.1049 84.7304 82.5108 84.8327 82.9662 84.8327C83.58 84.8327 84.0783 84.6611 84.4611 84.3179C84.8439 83.9747 85.0782 83.5094 85.164 82.922H82.5801V82.0211H86.3718V82.9022C86.2992 83.4368 86.1078 83.9285 85.7976 84.3773C85.494 84.8261 85.0947 85.1858 84.5997 85.4564C84.1113 85.7204 83.5668 85.8524 82.9662 85.8524C82.3194 85.8524 81.7287 85.7039 81.1941 85.4069C80.6595 85.1033 80.2338 84.6842 79.917 84.1496C79.6068 83.615 79.4517 83.0111 79.4517 82.3379C79.4517 81.6647 79.6068 81.0608 79.917 80.5262C80.2338 79.9916 80.6595 79.5758 81.1941 79.2788C81.7353 78.9752 82.326 78.8234 82.9662 78.8234C83.6988 78.8234 84.3489 79.0049 84.9165 79.3679C85.4907 79.7243 85.9065 80.2325 86.1639 80.8925H84.8076ZM93.1379 85.793H92.0093L88.6136 80.6549V85.793H87.485V78.9026H88.6136L92.0093 84.0308V78.9026H93.1379V85.793ZM95.7485 79.8233V81.8429H98.1245V82.7636H95.7485V84.8723H98.4215V85.793H94.6199V78.9026H98.4215V79.8233H95.7485ZM103.386 85.793L101.802 83.0408H100.94V85.793H99.8116V78.9125H102.188C102.716 78.9125 103.161 79.0049 103.524 79.1897C103.894 79.3745 104.168 79.622 104.346 79.9322C104.531 80.2424 104.623 80.5889 104.623 80.9717C104.623 81.4205 104.491 81.8297 104.227 82.1993C103.97 82.5623 103.57 82.8098 103.029 82.9418L104.732 85.793H103.386ZM100.94 82.1399H102.188C102.61 82.1399 102.927 82.0343 103.138 81.8231C103.356 81.6119 103.465 81.3281 103.465 80.9717C103.465 80.6153 103.359 80.3381 103.148 80.1401C102.937 79.9355 102.617 79.8332 102.188 79.8332H100.94V82.1399Z" fill="white"/>
</g>
<g clip-path="url(#clip1_3564_3342)">
<g filter="url(#filter1_dd_3564_3342)">
<path d="M52.3716 68.5797C53.1663 68.9024 53.1056 70.0475 52.2812 70.2844L48.1199 71.481L46.2191 75.3717C45.8423 76.1426 44.7038 76.0033 44.5236 75.1645L42.5865 66.1291C42.5519 65.9685 42.5617 65.8015 42.6149 65.646C42.6681 65.4906 42.7627 65.3526 42.8885 65.2469C43.0143 65.1413 43.1665 65.0719 43.3288 65.0462C43.491 65.0206 43.6572 65.0397 43.8095 65.1015L52.3716 68.5797Z" fill="#426CF7"/>
<path d="M52.3716 68.5797C53.1663 68.9024 53.1056 70.0475 52.2812 70.2844L48.1199 71.481L46.2191 75.3717C45.8423 76.1426 44.7038 76.0033 44.5236 75.1645L42.5865 66.1291C42.5519 65.9685 42.5617 65.8015 42.6149 65.646C42.6681 65.4906 42.7627 65.3526 42.8885 65.2469C43.0143 65.1413 43.1665 65.0719 43.3288 65.0462C43.491 65.0206 43.6572 65.0397 43.8095 65.1015L52.3716 68.5797Z" stroke="white" stroke-width="0.99"/>
</g>
</g>
<g filter="url(#filter2_d_3564_3342)">
<rect x="327.509" y="260.027" width="59.18" height="16.83" rx="3.3" fill="#F742CF" shape-rendering="crispEdges"/>
<path d="M336.089 265.061C336.822 265.061 337.462 265.203 338.01 265.487C338.564 265.764 338.99 266.166 339.287 266.694C339.591 267.216 339.742 267.826 339.742 268.526C339.742 269.226 339.591 269.833 339.287 270.348C338.99 270.862 338.564 271.258 338.01 271.536C337.462 271.806 336.822 271.941 336.089 271.941H333.842V265.061H336.089ZM336.089 271.021C336.894 271.021 337.512 270.803 337.941 270.367C338.37 269.932 338.584 269.318 338.584 268.526C338.584 267.727 338.37 267.104 337.941 266.655C337.512 266.206 336.894 265.982 336.089 265.982H334.971V271.021H336.089ZM341.99 265.972V267.991H344.366V268.912H341.99V271.021H344.663V271.941H340.861V265.051H344.663V265.972H341.99ZM348.32 272.011C347.858 272.011 347.442 271.932 347.072 271.773C346.703 271.608 346.412 271.377 346.201 271.08C345.99 270.783 345.884 270.437 345.884 270.041H347.092C347.119 270.338 347.234 270.582 347.439 270.773C347.65 270.965 347.944 271.06 348.32 271.06C348.709 271.06 349.013 270.968 349.231 270.783C349.448 270.592 349.557 270.348 349.557 270.051C349.557 269.82 349.488 269.631 349.349 269.486C349.217 269.341 349.049 269.229 348.844 269.15C348.646 269.07 348.369 268.985 348.013 268.892C347.564 268.773 347.198 268.655 346.914 268.536C346.637 268.41 346.399 268.219 346.201 267.962C346.003 267.704 345.904 267.361 345.904 266.932C345.904 266.536 346.003 266.19 346.201 265.893C346.399 265.596 346.676 265.368 347.033 265.209C347.389 265.051 347.802 264.972 348.27 264.972C348.937 264.972 349.481 265.14 349.904 265.477C350.333 265.807 350.57 266.262 350.617 266.843H349.369C349.349 266.592 349.231 266.378 349.013 266.199C348.795 266.021 348.508 265.932 348.151 265.932C347.828 265.932 347.564 266.015 347.359 266.18C347.155 266.345 347.053 266.582 347.053 266.892C347.053 267.104 347.115 267.279 347.241 267.417C347.373 267.549 347.538 267.655 347.736 267.734C347.934 267.813 348.204 267.899 348.547 267.991C349.003 268.117 349.372 268.242 349.656 268.368C349.947 268.493 350.191 268.688 350.389 268.952C350.593 269.209 350.696 269.556 350.696 269.991C350.696 270.341 350.6 270.671 350.409 270.981C350.224 271.291 349.95 271.542 349.587 271.734C349.231 271.918 348.808 272.011 348.32 272.011ZM353.156 265.061V271.941H352.027V265.061H353.156ZM359.617 267.041C359.439 266.698 359.192 266.44 358.875 266.269C358.558 266.091 358.192 266.001 357.776 266.001C357.321 266.001 356.915 266.104 356.558 266.308C356.202 266.513 355.921 266.803 355.717 267.18C355.519 267.556 355.42 267.991 355.42 268.486C355.42 268.981 355.519 269.42 355.717 269.803C355.921 270.179 356.202 270.47 356.558 270.674C356.915 270.879 357.321 270.981 357.776 270.981C358.39 270.981 358.888 270.81 359.271 270.466C359.654 270.123 359.888 269.658 359.974 269.07H357.39V268.17H361.182V269.051C361.109 269.585 360.918 270.077 360.607 270.526C360.304 270.975 359.905 271.334 359.41 271.605C358.921 271.869 358.377 272.001 357.776 272.001C357.129 272.001 356.539 271.852 356.004 271.555C355.469 271.252 355.044 270.833 354.727 270.298C354.417 269.763 354.262 269.16 354.262 268.486C354.262 267.813 354.417 267.209 354.727 266.675C355.044 266.14 355.469 265.724 356.004 265.427C356.545 265.124 357.136 264.972 357.776 264.972C358.509 264.972 359.159 265.153 359.726 265.516C360.301 265.873 360.716 266.381 360.974 267.041H359.617ZM367.948 271.941H366.819L363.423 266.803V271.941H362.295V265.051H363.423L366.819 270.179V265.051H367.948V271.941ZM370.558 265.972V267.991H372.934V268.912H370.558V271.021H373.231V271.941H369.43V265.051H373.231V265.972H370.558ZM378.195 271.941L376.611 269.189H375.75V271.941H374.621V265.061H376.997C377.525 265.061 377.971 265.153 378.334 265.338C378.704 265.523 378.977 265.77 379.156 266.081C379.34 266.391 379.433 266.737 379.433 267.12C379.433 267.569 379.301 267.978 379.037 268.348C378.779 268.711 378.38 268.958 377.839 269.09L379.542 271.941H378.195ZM375.75 268.288H376.997C377.42 268.288 377.737 268.183 377.948 267.972C378.166 267.76 378.275 267.477 378.275 267.12C378.275 266.764 378.169 266.487 377.958 266.289C377.747 266.084 377.426 265.982 376.997 265.982H375.75V268.288Z" fill="white"/>
</g>
<g clip-path="url(#clip2_3564_3342)">
<g filter="url(#filter3_dd_3564_3342)">
<path d="M327.182 254.728C327.977 255.051 327.916 256.196 327.092 256.433L322.931 257.629L321.03 261.52C320.653 262.291 319.514 262.152 319.334 261.313L317.397 252.278C317.363 252.117 317.372 251.95 317.426 251.794C317.479 251.639 317.573 251.501 317.699 251.395C317.825 251.29 317.977 251.22 318.139 251.195C318.302 251.169 318.468 251.188 318.62 251.25L327.182 254.728Z" fill="#F742CF"/>
<path d="M327.182 254.728C327.977 255.051 327.916 256.196 327.092 256.433L322.931 257.629L321.03 261.52C320.653 262.291 319.514 262.152 319.334 261.313L317.397 252.278C317.363 252.117 317.372 251.95 317.426 251.794C317.479 251.639 317.573 251.501 317.699 251.395C317.825 251.29 317.977 251.22 318.139 251.195C318.302 251.169 318.468 251.188 318.62 251.25L327.182 254.728Z" stroke="white" stroke-width="0.99"/>
</g>
</g>
</g>
<defs>
<filter id="filter0_d_3564_3342" x="46.0996" y="69.2589" width="72.38" height="30.0281" filterUnits="userSpaceOnUse" color-interpolation-filters="sRGB">
<feFlood flood-opacity="0" result="BackgroundImageFix"/>
<feColorMatrix in="SourceAlpha" type="matrix" values="0 0 0 0 0 0 0 0 0 0 0 0 0 0 0 0 0 0 127 0" result="hardAlpha"/>
<feOffset dy="1.98"/>
<feGaussianBlur stdDeviation="3.3"/>
<feComposite in2="hardAlpha" operator="out"/>
<feColorMatrix type="matrix" values="0 0 0 0 0.258824 0 0 0 0 0.423529 0 0 0 0 0.968627 0 0 0 0.5 0"/>
<feBlend mode="normal" in2="BackgroundImageFix" result="effect1_dropShadow_3564_3342"/>
<feBlend mode="normal" in="SourceGraphic" in2="effect1_dropShadow_3564_3342" result="shape"/>
</filter>
<filter id="filter1_dd_3564_3342" x="40.4212" y="63.5491" width="14.6587" height="15.1359" filterUnits="userSpaceOnUse" color-interpolation-filters="sRGB">
<feFlood flood-opacity="0" result="BackgroundImageFix"/>
<feColorMatrix in="SourceAlpha" type="matrix" values="0 0 0 0 0 0 0 0 0 0 0 0 0 0 0 0 0 0 127 0" result="hardAlpha"/>
<feOffset dy="0.33"/>
<feGaussianBlur stdDeviation="0.495"/>
<feColorMatrix type="matrix" values="0 0 0 0 0 0 0 0 0 0 0 0 0 0 0 0 0 0 0.3 0"/>
<feBlend mode="normal" in2="BackgroundImageFix" result="effect1_dropShadow_3564_3342"/>
<feColorMatrix in="SourceAlpha" type="matrix" values="0 0 0 0 0 0 0 0 0 0 0 0 0 0 0 0 0 0 127 0" result="hardAlpha"/>
<feOffset dy="0.66"/>
<feGaussianBlur stdDeviation="0.825"/>
<feColorMatrix type="matrix" values="0 0 0 0 0.196078 0 0 0 0 0.196078 0 0 0 0 0.364706 0 0 0 0.25 0"/>
<feBlend mode="normal" in2="effect1_dropShadow_3564_3342" result="effect2_dropShadow_3564_3342"/>
<feBlend mode="normal" in="SourceGraphic" in2="effect2_dropShadow_3564_3342" result="shape"/>
</filter>
<filter id="filter2_d_3564_3342" x="320.909" y="255.407" width="72.38" height="30.0281" filterUnits="userSpaceOnUse" color-interpolation-filters="sRGB">
<feFlood flood-opacity="0" result="BackgroundImageFix"/>
<feColorMatrix in="SourceAlpha" type="matrix" values="0 0 0 0 0 0 0 0 0 0 0 0 0 0 0 0 0 0 127 0" result="hardAlpha"/>
<feOffset dy="1.98"/>
<feGaussianBlur stdDeviation="3.3"/>
<feComposite in2="hardAlpha" operator="out"/>
<feColorMatrix type="matrix" values="0 0 0 0 0.970568 0 0 0 0 0.258361 0 0 0 0 0.812831 0 0 0 0.5 0"/>
<feBlend mode="normal" in2="BackgroundImageFix" result="effect1_dropShadow_3564_3342"/>
<feBlend mode="normal" in="SourceGraphic" in2="effect1_dropShadow_3564_3342" result="shape"/>
</filter>
<filter id="filter3_dd_3564_3342" x="315.232" y="249.697" width="14.6587" height="15.1359" filterUnits="userSpaceOnUse" color-interpolation-filters="sRGB">
<feFlood flood-opacity="0" result="BackgroundImageFix"/>
<feColorMatrix in="SourceAlpha" type="matrix" values="0 0 0 0 0 0 0 0 0 0 0 0 0 0 0 0 0 0 127 0" result="hardAlpha"/>
<feOffset dy="0.33"/>
<feGaussianBlur stdDeviation="0.495"/>
<feColorMatrix type="matrix" values="0 0 0 0 0 0 0 0 0 0 0 0 0 0 0 0 0 0 0.3 0"/>
<feBlend mode="normal" in2="BackgroundImageFix" result="effect1_dropShadow_3564_3342"/>
<feColorMatrix in="SourceAlpha" type="matrix" values="0 0 0 0 0 0 0 0 0 0 0 0 0 0 0 0 0 0 127 0" result="hardAlpha"/>
<feOffset dy="0.66"/>
<feGaussianBlur stdDeviation="0.825"/>
<feColorMatrix type="matrix" values="0 0 0 0 0.196078 0 0 0 0 0.196078 0 0 0 0 0.364706 0 0 0 0.25 0"/>
<feBlend mode="normal" in2="effect1_dropShadow_3564_3342" result="effect2_dropShadow_3564_3342"/>
<feBlend mode="normal" in="SourceGraphic" in2="effect2_dropShadow_3564_3342" result="shape"/>
</filter>
<clipPath id="clip0_3564_3342">
<rect width="440" height="311" rx="20" fill="white"/>
</clipPath>
<clipPath id="clip1_3564_3342">
<rect width="15.84" height="15.84" fill="white" transform="translate(39.4996 62)"/>
</clipPath>
<clipPath id="clip2_3564_3342">
<rect width="15.84" height="15.84" fill="white" transform="translate(314.309 248.145)"/>
</clipPath>
</defs>
</svg>
