<svg width="24" height="24" viewBox="0 0 24 24" fill="none" xmlns="http://www.w3.org/2000/svg">
<path d="M11 10C11.7957 10 12.5585 10.3163 13.1211 10.8789C13.6837 11.4415 14 12.2043 14 13V18C14 18.7957 13.6837 19.5585 13.1211 20.1211C12.5585 20.6837 11.7957 21 11 21H6C5.20435 21 4.44152 20.6837 3.87891 20.1211C3.3163 19.5585 3 18.7956 3 18V13C3 12.2044 3.3163 11.4415 3.87891 10.8789C4.44152 10.3163 5.20435 10 6 10H11ZM20 16C20.5523 16 21 16.4477 21 17V19C21 19.5304 20.7891 20.039 20.4141 20.4141C20.039 20.7891 19.5304 21 19 21H17C16.4477 21 16 20.5523 16 20C16 19.4477 16.4477 19 17 19H19V17C19 16.4477 19.4477 16 20 16ZM12 16.0967C11.4201 16.2112 10.837 16.4342 10.3496 16.7998C9.77964 17.2273 9.27442 17.9003 9.08301 19H11C11.2652 19 11.5195 18.8946 11.707 18.707C11.8946 18.5195 12 18.2652 12 18V16.0967ZM6 12C5.73478 12 5.48051 12.1054 5.29297 12.293C5.10543 12.4805 5 12.7348 5 13V18C5 18.2652 5.10543 18.5195 5.29297 18.707C5.48051 18.8946 5.73478 19 6 19H7.0625C7.28042 17.2511 8.07144 16.0094 9.15039 15.2002C10.0409 14.5324 11.068 14.2024 12 14.0713V13C12 12.7348 11.8946 12.4805 11.707 12.293C11.5195 12.1054 11.2652 12 11 12H6ZM20 10C20.5523 10 21 10.4477 21 11V13C21 13.5523 20.5523 14 20 14C19.4477 14 19 13.5523 19 13V11C19 10.4477 19.4477 10 20 10ZM7 3C7.55228 3 8 3.44772 8 4C8 4.55228 7.55228 5 7 5H5V7C5 7.55228 4.55228 8 4 8C3.44772 8 3 7.55228 3 7V5C3 4.46957 3.21087 3.96101 3.58594 3.58594C3.96101 3.21087 4.46957 3 5 3H7ZM19 3C19.5304 3 20.039 3.21087 20.4141 3.58594C20.7891 3.96101 21 4.46957 21 5V7C21 7.55228 20.5523 8 20 8C19.4477 8 19 7.55228 19 7V5H17C16.4477 5 16 4.55228 16 4C16 3.44772 16.4477 3 17 3H19ZM13 3C13.5523 3 14 3.44772 14 4C14 4.55228 13.5523 5 13 5H11C10.4477 5 10 4.55228 10 4C10 3.44772 10.4477 3 11 3H13Z" fill="black" fill-opacity="0.65"/>
</svg>
