<svg width="24" height="24" viewBox="0 0 24 24" fill="none" xmlns="http://www.w3.org/2000/svg">
<path d="M18 3.00049C18.7085 2.99943 19.3945 3.24915 19.9365 3.70541C20.4785 4.16167 20.8415 4.79503 20.9613 5.49331C21.0811 6.19159 20.9499 6.90973 20.5909 7.52053C20.2319 8.13134 19.6684 8.59538 19 8.83049V9.00049C19 10.0614 18.5786 11.0788 17.8285 11.8289C17.0783 12.5791 16.0609 13.0005 15 13.0005H9.00003C8.4696 13.0005 7.96089 13.2112 7.58582 13.5863C7.21074 13.9613 7.00003 14.4701 7.00003 15.0005V15.1705C7.66752 15.4064 8.23012 15.8707 8.58839 16.4813C8.94666 17.0919 9.07752 17.8095 8.95784 18.5073C8.83817 19.205 8.47566 19.838 7.9344 20.2944C7.39314 20.7507 6.70798 21.001 6.00003 21.001C5.29208 21.001 4.60692 20.7507 4.06566 20.2944C3.5244 19.838 3.16189 19.205 3.04222 18.5073C2.92254 17.8095 3.0534 17.0919 3.41167 16.4813C3.76994 15.8707 4.33254 15.4064 5.00003 15.1705V8.83049C4.33254 8.59458 3.76994 8.13029 3.41167 7.51968C3.0534 6.90907 2.92254 6.19146 3.04222 5.4937C3.16189 4.79593 3.5244 4.16294 4.06566 3.70661C4.60692 3.25028 5.29208 3 6.00003 3C6.70798 3 7.39314 3.25028 7.9344 3.70661C8.47566 4.16294 8.83817 4.79593 8.95784 5.4937C9.07752 6.19146 8.94666 6.90907 8.58839 7.51968C8.23012 8.13029 7.66752 8.59458 7.00003 8.83049V11.5355C7.60819 11.1847 8.29796 11.0002 9.00003 11.0005H15C15.5305 11.0005 16.0392 10.7898 16.4142 10.4147C16.7893 10.0396 17 9.53092 17 9.00049V8.83049C16.3329 8.59434 15.7707 8.13001 15.4127 7.51952C15.0547 6.90903 14.924 6.19167 15.0436 5.49415C15.1632 4.79662 15.5256 4.16383 16.0665 3.70753C16.6075 3.25124 17.2923 3.00081 18 3.00049ZM6.00003 17.0005C5.73481 17.0005 5.48046 17.1058 5.29292 17.2934C5.10539 17.4809 5.00003 17.7353 5.00003 18.0005C5.00003 18.2657 5.10539 18.5201 5.29292 18.7076C5.48046 18.8951 5.73481 19.0005 6.00003 19.0005C6.26525 19.0005 6.5196 18.8951 6.70714 18.7076C6.89467 18.5201 7.00003 18.2657 7.00003 18.0005C7.00003 17.7353 6.89467 17.4809 6.70714 17.2934C6.5196 17.1058 6.26525 17.0005 6.00003 17.0005ZM6.00003 5.00049C5.73481 5.00049 5.48046 5.10584 5.29292 5.29338C5.10539 5.48092 5.00003 5.73527 5.00003 6.00049C5.00003 6.2657 5.10539 6.52006 5.29292 6.70759C5.48046 6.89513 5.73481 7.00049 6.00003 7.00049C6.26525 7.00049 6.5196 6.89513 6.70714 6.70759C6.89467 6.52006 7.00003 6.2657 7.00003 6.00049C7.00003 5.73527 6.89467 5.48092 6.70714 5.29338C6.5196 5.10584 6.26525 5.00049 6.00003 5.00049ZM18 5.00049C17.7348 5.00049 17.4805 5.10584 17.2929 5.29338C17.1054 5.48092 17 5.73527 17 6.00049C17 6.2657 17.1054 6.52006 17.2929 6.70759C17.4805 6.89513 17.7348 7.00049 18 7.00049C18.2652 7.00049 18.5196 6.89513 18.7071 6.70759C18.8947 6.52006 19 6.2657 19 6.00049C19 5.73527 18.8947 5.48092 18.7071 5.29338C18.5196 5.10584 18.2652 5.00049 18 5.00049Z" fill="#ACACB9"/>
</svg>
