<svg width="940" height="400" viewBox="0 0 940 400" fill="none" xmlns="http://www.w3.org/2000/svg">
<line x1="99.5" y1="184" x2="812.5" y2="184" stroke="#F3F3FC" stroke-width="12" stroke-linecap="round"/>
<line x1="99.5" y1="184" x2="812.5" y2="184" stroke="black" stroke-opacity="0.1" stroke-width="12" stroke-linecap="round"/>
<line x1="756.5" y1="204" x2="756.5" y2="166" stroke="#FFC63D" stroke-width="12" stroke-linecap="round"/>
<line x1="316.5" y1="184" x2="611.5" y2="184" stroke="#AFD157" stroke-width="12" stroke-linecap="round"/>
<line x1="155.5" y1="184" x2="304.5" y2="184" stroke="#9EE7E5" stroke-width="12" stroke-linecap="round"/>
<line x1="613.5" y1="184" x2="751.5" y2="184" stroke="#FFC63D" stroke-width="12" stroke-linecap="round"/>
<line x1="310.5" y1="204" x2="310.5" y2="166" stroke="#AFD157" stroke-width="12" stroke-linecap="round"/>
<line x1="611.5" y1="204" x2="611.5" y2="166" stroke="#AFD157" stroke-width="12" stroke-linecap="round"/>
<line x1="152.5" y1="204" x2="152.5" y2="166" stroke="#9EE7E5" stroke-width="12" stroke-linecap="round"/>
<rect x="177.5" y="228" width="105" height="45" rx="20" fill="#9EE7E5"/>
<path d="M199.16 259V244.1H201.12V259H199.16ZM209.513 259.24C208.5 259.24 207.587 258.993 206.773 258.5C205.973 258.007 205.34 257.333 204.873 256.48C204.407 255.627 204.173 254.673 204.173 253.62C204.173 252.54 204.407 251.58 204.873 250.74C205.34 249.887 205.973 249.213 206.773 248.72C207.587 248.227 208.5 247.98 209.513 247.98C210.407 247.98 211.2 248.173 211.893 248.56C212.587 248.933 213.133 249.44 213.533 250.08L213.233 250.54V243.86H215.113V259H213.293V256.7L213.533 257.02C213.16 257.727 212.613 258.273 211.893 258.66C211.187 259.047 210.393 259.24 209.513 259.24ZM209.673 257.44C210.353 257.44 210.96 257.273 211.493 256.94C212.027 256.607 212.447 256.153 212.753 255.58C213.073 254.993 213.233 254.34 213.233 253.62C213.233 252.887 213.073 252.233 212.753 251.66C212.447 251.073 212.027 250.613 211.493 250.28C210.96 249.947 210.353 249.78 209.673 249.78C209.007 249.78 208.4 249.953 207.853 250.3C207.32 250.633 206.9 251.087 206.593 251.66C206.287 252.22 206.133 252.873 206.133 253.62C206.133 254.34 206.287 254.993 206.593 255.58C206.9 256.153 207.32 256.607 207.853 256.94C208.387 257.273 208.993 257.44 209.673 257.44ZM223.352 259.24C222.312 259.24 221.386 258.993 220.572 258.5C219.759 258.007 219.119 257.333 218.652 256.48C218.186 255.613 217.952 254.647 217.952 253.58C217.952 252.5 218.179 251.54 218.632 250.7C219.099 249.86 219.726 249.2 220.512 248.72C221.312 248.227 222.206 247.98 223.192 247.98C223.992 247.98 224.699 248.127 225.312 248.42C225.939 248.7 226.466 249.087 226.892 249.58C227.332 250.06 227.666 250.613 227.892 251.24C228.132 251.853 228.252 252.493 228.252 253.16C228.252 253.307 228.239 253.473 228.212 253.66C228.199 253.833 228.179 254 228.152 254.16H219.312V252.56H227.072L226.192 253.28C226.312 252.587 226.246 251.967 225.992 251.42C225.739 250.873 225.366 250.44 224.872 250.12C224.379 249.8 223.819 249.64 223.192 249.64C222.566 249.64 221.992 249.8 221.472 250.12C220.952 250.44 220.546 250.9 220.252 251.5C219.972 252.087 219.859 252.787 219.912 253.6C219.859 254.387 219.979 255.08 220.272 255.68C220.579 256.267 221.006 256.727 221.552 257.06C222.112 257.38 222.719 257.54 223.372 257.54C224.092 257.54 224.699 257.373 225.192 257.04C225.686 256.707 226.086 256.28 226.392 255.76L227.952 256.56C227.739 257.053 227.406 257.507 226.952 257.92C226.512 258.32 225.986 258.64 225.372 258.88C224.772 259.12 224.099 259.24 223.352 259.24ZM234.101 259.24C233.394 259.24 232.767 259.113 232.221 258.86C231.687 258.593 231.267 258.233 230.961 257.78C230.654 257.313 230.501 256.78 230.501 256.18C230.501 255.607 230.621 255.093 230.861 254.64C231.114 254.173 231.501 253.78 232.021 253.46C232.554 253.14 233.221 252.913 234.021 252.78L238.021 252.12V253.68L234.441 254.28C233.747 254.4 233.241 254.62 232.921 254.94C232.614 255.26 232.461 255.653 232.461 256.12C232.461 256.56 232.634 256.927 232.981 257.22C233.341 257.513 233.787 257.66 234.321 257.66C235.001 257.66 235.587 257.52 236.081 257.24C236.587 256.947 236.981 256.553 237.261 256.06C237.554 255.567 237.701 255.02 237.701 254.42V251.68C237.701 251.093 237.481 250.62 237.041 250.26C236.614 249.887 236.047 249.7 235.341 249.7C234.727 249.7 234.181 249.86 233.701 250.18C233.234 250.487 232.887 250.9 232.661 251.42L231.041 250.58C231.241 250.087 231.561 249.647 232.001 249.26C232.441 248.86 232.954 248.547 233.541 248.32C234.127 248.093 234.741 247.98 235.381 247.98C236.207 247.98 236.934 248.14 237.561 248.46C238.187 248.767 238.674 249.2 239.021 249.76C239.381 250.307 239.561 250.947 239.561 251.68V259H237.741V256.96L238.081 257.08C237.854 257.507 237.547 257.88 237.161 258.2C236.774 258.52 236.321 258.773 235.801 258.96C235.281 259.147 234.714 259.24 234.101 259.24ZM247.029 259.12C245.976 259.12 245.163 258.82 244.589 258.22C244.029 257.62 243.749 256.773 243.749 255.68V250H241.789V248.22H242.189C242.669 248.22 243.049 248.073 243.329 247.78C243.609 247.487 243.749 247.1 243.749 246.62V245.74H245.609V248.22H248.029V250H245.609V255.62C245.609 255.98 245.663 256.293 245.769 256.56C245.889 256.827 246.083 257.04 246.349 257.2C246.616 257.347 246.969 257.42 247.409 257.42C247.503 257.42 247.616 257.413 247.749 257.4C247.896 257.387 248.029 257.373 248.149 257.36V259C247.976 259.04 247.783 259.067 247.569 259.08C247.356 259.107 247.176 259.12 247.029 259.12ZM255.646 259.24C254.606 259.24 253.679 258.993 252.866 258.5C252.053 258.007 251.413 257.333 250.946 256.48C250.479 255.613 250.246 254.647 250.246 253.58C250.246 252.5 250.473 251.54 250.926 250.7C251.393 249.86 252.019 249.2 252.806 248.72C253.606 248.227 254.499 247.98 255.486 247.98C256.286 247.98 256.993 248.127 257.606 248.42C258.233 248.7 258.759 249.087 259.186 249.58C259.626 250.06 259.959 250.613 260.186 251.24C260.426 251.853 260.546 252.493 260.546 253.16C260.546 253.307 260.533 253.473 260.506 253.66C260.493 253.833 260.473 254 260.446 254.16H251.606V252.56H259.366L258.486 253.28C258.606 252.587 258.539 251.967 258.286 251.42C258.033 250.873 257.659 250.44 257.166 250.12C256.673 249.8 256.113 249.64 255.486 249.64C254.859 249.64 254.286 249.8 253.766 250.12C253.246 250.44 252.839 250.9 252.546 251.5C252.266 252.087 252.153 252.787 252.206 253.6C252.153 254.387 252.273 255.08 252.566 255.68C252.873 256.267 253.299 256.727 253.846 257.06C254.406 257.38 255.013 257.54 255.666 257.54C256.386 257.54 256.993 257.373 257.486 257.04C257.979 256.707 258.379 256.28 258.686 255.76L260.246 256.56C260.033 257.053 259.699 257.507 259.246 257.92C258.806 258.32 258.279 258.64 257.666 258.88C257.066 259.12 256.393 259.24 255.646 259.24Z" fill="#0B2638"/>
<rect x="367.5" y="228" width="183" height="45" rx="20" fill="#AFD157"/>
<path d="M389.16 259V244.1H394.04C395.547 244.1 396.86 244.407 397.98 245.02C399.1 245.633 399.967 246.5 400.58 247.62C401.193 248.727 401.5 250.033 401.5 251.54C401.5 253.033 401.193 254.34 400.58 255.46C399.967 256.58 399.1 257.453 397.98 258.08C396.86 258.693 395.547 259 394.04 259H389.16ZM391.12 257.2H394.06C395.167 257.2 396.12 256.967 396.92 256.5C397.733 256.033 398.36 255.38 398.8 254.54C399.24 253.687 399.46 252.687 399.46 251.54C399.46 250.38 399.233 249.38 398.78 248.54C398.34 247.7 397.713 247.053 396.9 246.6C396.1 246.133 395.153 245.9 394.06 245.9H391.12V257.2ZM409.124 259.24C408.084 259.24 407.158 258.993 406.344 258.5C405.531 258.007 404.891 257.333 404.424 256.48C403.958 255.613 403.724 254.647 403.724 253.58C403.724 252.5 403.951 251.54 404.404 250.7C404.871 249.86 405.498 249.2 406.284 248.72C407.084 248.227 407.978 247.98 408.964 247.98C409.764 247.98 410.471 248.127 411.084 248.42C411.711 248.7 412.238 249.087 412.664 249.58C413.104 250.06 413.438 250.613 413.664 251.24C413.904 251.853 414.024 252.493 414.024 253.16C414.024 253.307 414.011 253.473 413.984 253.66C413.971 253.833 413.951 254 413.924 254.16H405.084V252.56H412.844L411.964 253.28C412.084 252.587 412.018 251.967 411.764 251.42C411.511 250.873 411.138 250.44 410.644 250.12C410.151 249.8 409.591 249.64 408.964 249.64C408.338 249.64 407.764 249.8 407.244 250.12C406.724 250.44 406.318 250.9 406.024 251.5C405.744 252.087 405.631 252.787 405.684 253.6C405.631 254.387 405.751 255.08 406.044 255.68C406.351 256.267 406.778 256.727 407.324 257.06C407.884 257.38 408.491 257.54 409.144 257.54C409.864 257.54 410.471 257.373 410.964 257.04C411.458 256.707 411.858 256.28 412.164 255.76L413.724 256.56C413.511 257.053 413.178 257.507 412.724 257.92C412.284 258.32 411.758 258.64 411.144 258.88C410.544 259.12 409.871 259.24 409.124 259.24ZM420.709 259.24C419.629 259.24 418.689 258.973 417.889 258.44C417.089 257.907 416.523 257.187 416.189 256.28L417.669 255.56C417.976 256.2 418.396 256.707 418.929 257.08C419.463 257.453 420.056 257.64 420.709 257.64C421.296 257.64 421.783 257.5 422.169 257.22C422.556 256.94 422.749 256.573 422.749 256.12C422.749 255.8 422.656 255.547 422.469 255.36C422.296 255.16 422.083 255.007 421.829 254.9C421.576 254.78 421.343 254.693 421.129 254.64L419.509 254.18C418.536 253.9 417.823 253.5 417.369 252.98C416.929 252.46 416.709 251.853 416.709 251.16C416.709 250.52 416.869 249.967 417.189 249.5C417.523 249.02 417.969 248.647 418.529 248.38C419.103 248.113 419.743 247.98 420.449 247.98C421.396 247.98 422.243 248.22 422.989 248.7C423.749 249.18 424.289 249.853 424.609 250.72L423.089 251.42C422.849 250.86 422.489 250.42 422.009 250.1C421.529 249.767 420.989 249.6 420.389 249.6C419.843 249.6 419.409 249.74 419.089 250.02C418.769 250.287 418.609 250.627 418.609 251.04C418.609 251.347 418.689 251.6 418.849 251.8C419.009 251.987 419.203 252.133 419.429 252.24C419.656 252.333 419.876 252.413 420.089 252.48L421.849 253C422.729 253.253 423.409 253.647 423.889 254.18C424.383 254.713 424.629 255.353 424.629 256.1C424.629 256.7 424.463 257.24 424.129 257.72C423.796 258.2 423.336 258.573 422.749 258.84C422.163 259.107 421.483 259.24 420.709 259.24ZM427.464 259V248.22H429.324V259H427.464ZM427.464 246.5V244.1H429.324V246.5H427.464ZM437.75 263.4C436.99 263.4 436.284 263.28 435.63 263.04C434.99 262.8 434.437 262.467 433.97 262.04C433.517 261.627 433.17 261.14 432.93 260.58L434.67 259.78C434.857 260.287 435.21 260.713 435.73 261.06C436.264 261.42 436.93 261.6 437.73 261.6C438.344 261.6 438.897 261.48 439.39 261.24C439.897 261.013 440.297 260.667 440.59 260.2C440.884 259.747 441.03 259.193 441.03 258.54V256.12L441.37 256.48C440.997 257.213 440.457 257.773 439.75 258.16C439.057 258.547 438.29 258.74 437.45 258.74C436.437 258.74 435.53 258.507 434.73 258.04C433.93 257.56 433.304 256.913 432.85 256.1C432.397 255.273 432.17 254.36 432.17 253.36C432.17 252.347 432.397 251.433 432.85 250.62C433.304 249.807 433.924 249.167 434.71 248.7C435.51 248.22 436.417 247.98 437.43 247.98C438.27 247.98 439.03 248.173 439.71 248.56C440.404 248.933 440.957 249.453 441.37 250.12L441.09 250.62V248.22H442.91V258.54C442.91 259.473 442.69 260.307 442.25 261.04C441.81 261.773 441.197 262.347 440.41 262.76C439.637 263.187 438.75 263.4 437.75 263.4ZM437.61 256.94C438.25 256.94 438.824 256.78 439.33 256.46C439.85 256.14 440.264 255.713 440.57 255.18C440.877 254.633 441.03 254.027 441.03 253.36C441.03 252.707 440.877 252.107 440.57 251.56C440.264 251.013 439.85 250.58 439.33 250.26C438.824 249.94 438.25 249.78 437.61 249.78C436.957 249.78 436.364 249.94 435.83 250.26C435.297 250.58 434.877 251.013 434.57 251.56C434.277 252.093 434.13 252.693 434.13 253.36C434.13 254.027 434.277 254.633 434.57 255.18C434.877 255.713 435.29 256.14 435.81 256.46C436.344 256.78 436.944 256.94 437.61 256.94ZM446.194 259V248.22H448.014V250.32L447.714 250.14C447.981 249.46 448.407 248.933 448.994 248.56C449.594 248.173 450.294 247.98 451.094 247.98C451.867 247.98 452.554 248.153 453.154 248.5C453.767 248.847 454.247 249.327 454.594 249.94C454.954 250.553 455.134 251.247 455.134 252.02V259H453.254V252.62C453.254 252.02 453.147 251.513 452.934 251.1C452.721 250.687 452.414 250.367 452.014 250.14C451.627 249.9 451.181 249.78 450.674 249.78C450.167 249.78 449.714 249.9 449.314 250.14C448.927 250.367 448.621 250.693 448.394 251.12C448.167 251.533 448.054 252.033 448.054 252.62V259H446.194ZM466.193 259.24C465.353 259.24 464.606 259.087 463.953 258.78C463.299 258.46 462.786 258.013 462.413 257.44C462.053 256.853 461.873 256.18 461.873 255.42C461.873 254.767 461.993 254.193 462.233 253.7C462.473 253.193 462.766 252.76 463.113 252.4C463.473 252.04 463.833 251.74 464.193 251.5C464.566 251.247 464.873 251.047 465.113 250.9L466.253 250.24C466.639 250.013 467.013 249.767 467.373 249.5C467.733 249.233 468.033 248.927 468.273 248.58C468.513 248.22 468.633 247.82 468.633 247.38C468.633 246.86 468.459 246.427 468.113 246.08C467.766 245.733 467.333 245.56 466.813 245.56C466.293 245.56 465.859 245.733 465.513 246.08C465.166 246.427 464.993 246.867 464.993 247.4C464.993 247.76 465.079 248.113 465.253 248.46C465.426 248.807 465.639 249.14 465.893 249.46C466.146 249.767 466.399 250.053 466.653 250.32L474.753 259H472.293L465.193 251.52C464.873 251.187 464.553 250.82 464.233 250.42C463.913 250.02 463.639 249.58 463.413 249.1C463.199 248.607 463.093 248.067 463.093 247.48C463.093 246.76 463.259 246.133 463.593 245.6C463.939 245.053 464.393 244.627 464.953 244.32C465.513 244.013 466.133 243.86 466.813 243.86C467.479 243.86 468.086 244.013 468.633 244.32C469.193 244.613 469.639 245.027 469.973 245.56C470.306 246.093 470.473 246.707 470.473 247.4C470.473 248.107 470.306 248.727 469.973 249.26C469.639 249.78 469.239 250.227 468.773 250.6C468.306 250.96 467.866 251.26 467.453 251.5L466.333 252.18C465.999 252.393 465.646 252.647 465.273 252.94C464.899 253.22 464.579 253.56 464.313 253.96C464.046 254.347 463.913 254.82 463.913 255.38C463.913 256.047 464.126 256.567 464.553 256.94C464.993 257.313 465.559 257.5 466.253 257.5C466.693 257.5 467.086 257.427 467.433 257.28C467.779 257.133 468.086 256.94 468.353 256.7C468.633 256.46 468.879 256.2 469.093 255.92C469.306 255.627 469.506 255.34 469.693 255.06L471.993 251.64H474.133L471.433 255.76C471.233 256.093 470.979 256.46 470.673 256.86C470.366 257.26 470.006 257.64 469.593 258C469.179 258.36 468.693 258.66 468.133 258.9C467.586 259.127 466.939 259.24 466.193 259.24ZM481.608 259V244.1H487.868C488.761 244.1 489.528 244.26 490.168 244.58C490.821 244.9 491.321 245.353 491.668 245.94C492.028 246.513 492.208 247.2 492.208 248C492.208 248.733 492.014 249.4 491.628 250C491.254 250.587 490.701 251.047 489.968 251.38L489.948 250.64C490.588 250.88 491.114 251.2 491.528 251.6C491.954 251.987 492.274 252.44 492.488 252.96C492.701 253.467 492.808 254.007 492.808 254.58C492.808 255.953 492.368 257.033 491.488 257.82C490.608 258.607 489.408 259 487.888 259H481.608ZM483.568 257.2H487.968C488.834 257.2 489.528 256.967 490.048 256.5C490.568 256.033 490.828 255.4 490.828 254.6C490.828 253.8 490.568 253.167 490.048 252.7C489.528 252.22 488.834 251.98 487.968 251.98H483.568V257.2ZM483.568 250.22H487.828C488.548 250.22 489.128 250.013 489.568 249.6C490.008 249.173 490.228 248.633 490.228 247.98C490.228 247.3 490.008 246.78 489.568 246.42C489.128 246.06 488.548 245.88 487.828 245.88H483.568V250.22ZM499.455 259.24C498.682 259.24 497.982 259.06 497.355 258.7C496.742 258.34 496.262 257.84 495.915 257.2C495.582 256.547 495.415 255.8 495.415 254.96V248.22H497.275V254.76C497.275 255.293 497.382 255.76 497.595 256.16C497.822 256.56 498.129 256.873 498.515 257.1C498.915 257.327 499.369 257.44 499.875 257.44C500.382 257.44 500.829 257.327 501.215 257.1C501.615 256.873 501.922 256.547 502.135 256.12C502.362 255.693 502.475 255.187 502.475 254.6V248.22H504.355V259H502.535V256.9L502.835 257.08C502.582 257.76 502.149 258.293 501.535 258.68C500.935 259.053 500.242 259.24 499.455 259.24ZM507.637 259V248.22H509.497V259H507.637ZM507.637 246.5V244.1H509.497V246.5H507.637ZM512.783 259V243.86H514.643V259H512.783ZM522.829 259.24C521.816 259.24 520.902 258.993 520.089 258.5C519.289 258.007 518.656 257.333 518.189 256.48C517.722 255.627 517.489 254.673 517.489 253.62C517.489 252.54 517.722 251.58 518.189 250.74C518.656 249.887 519.289 249.213 520.089 248.72C520.902 248.227 521.816 247.98 522.829 247.98C523.722 247.98 524.516 248.173 525.209 248.56C525.902 248.933 526.449 249.44 526.849 250.08L526.549 250.54V243.86H528.429V259H526.609V256.7L526.849 257.02C526.476 257.727 525.929 258.273 525.209 258.66C524.502 259.047 523.709 259.24 522.829 259.24ZM522.989 257.44C523.669 257.44 524.276 257.273 524.809 256.94C525.342 256.607 525.762 256.153 526.069 255.58C526.389 254.993 526.549 254.34 526.549 253.62C526.549 252.887 526.389 252.233 526.069 251.66C525.762 251.073 525.342 250.613 524.809 250.28C524.276 249.947 523.669 249.78 522.989 249.78C522.322 249.78 521.716 249.953 521.169 250.3C520.636 250.633 520.216 251.087 519.909 251.66C519.602 252.22 519.449 252.873 519.449 253.62C519.449 254.34 519.602 254.993 519.909 255.58C520.216 256.153 520.636 256.607 521.169 256.94C521.702 257.273 522.309 257.44 522.989 257.44Z" fill="#0B2638"/>
<rect x="607.5" y="228" width="240" height="45" rx="20" fill="#FFC63D"/>
<path d="M636.02 259.24C634.967 259.24 633.993 259.053 633.1 258.68C632.22 258.293 631.447 257.753 630.78 257.06C630.127 256.367 629.62 255.553 629.26 254.62C628.9 253.687 628.72 252.667 628.72 251.56C628.72 250.44 628.9 249.413 629.26 248.48C629.62 247.547 630.127 246.733 630.78 246.04C631.433 245.347 632.207 244.813 633.1 244.44C633.993 244.053 634.967 243.86 636.02 243.86C637.047 243.86 637.967 244.04 638.78 244.4C639.607 244.76 640.3 245.227 640.86 245.8C641.433 246.373 641.84 246.987 642.08 247.64L640.28 248.46C639.933 247.633 639.393 246.967 638.66 246.46C637.927 245.94 637.047 245.68 636.02 245.68C634.98 245.68 634.053 245.927 633.24 246.42C632.44 246.913 631.813 247.6 631.36 248.48C630.907 249.36 630.68 250.387 630.68 251.56C630.68 252.72 630.907 253.74 631.36 254.62C631.813 255.5 632.44 256.187 633.24 256.68C634.053 257.173 634.98 257.42 636.02 257.42C637.047 257.42 637.927 257.167 638.66 256.66C639.393 256.14 639.933 255.467 640.28 254.64L642.08 255.46C641.84 256.113 641.433 256.727 640.86 257.3C640.3 257.873 639.607 258.34 638.78 258.7C637.967 259.06 637.047 259.24 636.02 259.24ZM644.926 259V248.22H646.746V250.2L646.546 249.92C646.799 249.307 647.186 248.853 647.706 248.56C648.226 248.253 648.859 248.1 649.606 248.1H650.266V249.86H649.326C648.566 249.86 647.953 250.1 647.486 250.58C647.019 251.047 646.786 251.713 646.786 252.58V259H644.926ZM657.278 259.24C656.238 259.24 655.311 258.993 654.498 258.5C653.685 258.007 653.045 257.333 652.578 256.48C652.111 255.613 651.878 254.647 651.878 253.58C651.878 252.5 652.105 251.54 652.558 250.7C653.025 249.86 653.651 249.2 654.438 248.72C655.238 248.227 656.131 247.98 657.118 247.98C657.918 247.98 658.625 248.127 659.238 248.42C659.865 248.7 660.391 249.087 660.818 249.58C661.258 250.06 661.591 250.613 661.818 251.24C662.058 251.853 662.178 252.493 662.178 253.16C662.178 253.307 662.165 253.473 662.138 253.66C662.125 253.833 662.105 254 662.078 254.16H653.238V252.56H660.998L660.118 253.28C660.238 252.587 660.171 251.967 659.918 251.42C659.665 250.873 659.291 250.44 658.798 250.12C658.305 249.8 657.745 249.64 657.118 249.64C656.491 249.64 655.918 249.8 655.398 250.12C654.878 250.44 654.471 250.9 654.178 251.5C653.898 252.087 653.785 252.787 653.838 253.6C653.785 254.387 653.905 255.08 654.198 255.68C654.505 256.267 654.931 256.727 655.478 257.06C656.038 257.38 656.645 257.54 657.298 257.54C658.018 257.54 658.625 257.373 659.118 257.04C659.611 256.707 660.011 256.28 660.318 255.76L661.878 256.56C661.665 257.053 661.331 257.507 660.878 257.92C660.438 258.32 659.911 258.64 659.298 258.88C658.698 259.12 658.025 259.24 657.278 259.24ZM668.027 259.24C667.32 259.24 666.693 259.113 666.147 258.86C665.613 258.593 665.193 258.233 664.887 257.78C664.58 257.313 664.427 256.78 664.427 256.18C664.427 255.607 664.547 255.093 664.787 254.64C665.04 254.173 665.427 253.78 665.947 253.46C666.48 253.14 667.147 252.913 667.947 252.78L671.947 252.12V253.68L668.367 254.28C667.673 254.4 667.167 254.62 666.847 254.94C666.54 255.26 666.387 255.653 666.387 256.12C666.387 256.56 666.56 256.927 666.907 257.22C667.267 257.513 667.713 257.66 668.247 257.66C668.927 257.66 669.513 257.52 670.007 257.24C670.513 256.947 670.907 256.553 671.187 256.06C671.48 255.567 671.627 255.02 671.627 254.42V251.68C671.627 251.093 671.407 250.62 670.967 250.26C670.54 249.887 669.973 249.7 669.267 249.7C668.653 249.7 668.107 249.86 667.627 250.18C667.16 250.487 666.813 250.9 666.587 251.42L664.967 250.58C665.167 250.087 665.487 249.647 665.927 249.26C666.367 248.86 666.88 248.547 667.467 248.32C668.053 248.093 668.667 247.98 669.307 247.98C670.133 247.98 670.86 248.14 671.487 248.46C672.113 248.767 672.6 249.2 672.947 249.76C673.307 250.307 673.487 250.947 673.487 251.68V259H671.667V256.96L672.007 257.08C671.78 257.507 671.473 257.88 671.087 258.2C670.7 258.52 670.247 258.773 669.727 258.96C669.207 259.147 668.64 259.24 668.027 259.24ZM680.955 259.12C679.902 259.12 679.088 258.82 678.515 258.22C677.955 257.62 677.675 256.773 677.675 255.68V250H675.715V248.22H676.115C676.595 248.22 676.975 248.073 677.255 247.78C677.535 247.487 677.675 247.1 677.675 246.62V245.74H679.535V248.22H681.955V250H679.535V255.62C679.535 255.98 679.588 256.293 679.695 256.56C679.815 256.827 680.008 257.04 680.275 257.2C680.542 257.347 680.895 257.42 681.335 257.42C681.428 257.42 681.542 257.413 681.675 257.4C681.822 257.387 681.955 257.373 682.075 257.36V259C681.902 259.04 681.708 259.067 681.495 259.08C681.282 259.107 681.102 259.12 680.955 259.12ZM689.572 259.24C688.532 259.24 687.605 258.993 686.792 258.5C685.979 258.007 685.339 257.333 684.872 256.48C684.405 255.613 684.172 254.647 684.172 253.58C684.172 252.5 684.399 251.54 684.852 250.7C685.319 249.86 685.945 249.2 686.732 248.72C687.532 248.227 688.425 247.98 689.412 247.98C690.212 247.98 690.919 248.127 691.532 248.42C692.159 248.7 692.685 249.087 693.112 249.58C693.552 250.06 693.885 250.613 694.112 251.24C694.352 251.853 694.472 252.493 694.472 253.16C694.472 253.307 694.459 253.473 694.432 253.66C694.419 253.833 694.399 254 694.372 254.16H685.532V252.56H693.292L692.412 253.28C692.532 252.587 692.465 251.967 692.212 251.42C691.959 250.873 691.585 250.44 691.092 250.12C690.599 249.8 690.039 249.64 689.412 249.64C688.785 249.64 688.212 249.8 687.692 250.12C687.172 250.44 686.765 250.9 686.472 251.5C686.192 252.087 686.079 252.787 686.132 253.6C686.079 254.387 686.199 255.08 686.492 255.68C686.799 256.267 687.225 256.727 687.772 257.06C688.332 257.38 688.939 257.54 689.592 257.54C690.312 257.54 690.919 257.373 691.412 257.04C691.905 256.707 692.305 256.28 692.612 255.76L694.172 256.56C693.959 257.053 693.625 257.507 693.172 257.92C692.732 258.32 692.205 258.64 691.592 258.88C690.992 259.12 690.319 259.24 689.572 259.24ZM701.374 259V244.1H706.634C707.621 244.1 708.487 244.287 709.234 244.66C709.981 245.033 710.561 245.567 710.974 246.26C711.401 246.953 711.614 247.767 711.614 248.7C711.614 249.633 711.401 250.447 710.974 251.14C710.561 251.82 709.981 252.353 709.234 252.74C708.501 253.113 707.634 253.3 706.634 253.3H703.334V259H701.374ZM703.334 251.5H706.694C707.294 251.5 707.814 251.387 708.254 251.16C708.694 250.933 709.034 250.607 709.274 250.18C709.514 249.753 709.634 249.26 709.634 248.7C709.634 248.127 709.514 247.633 709.274 247.22C709.034 246.793 708.694 246.467 708.254 246.24C707.814 246.013 707.294 245.9 706.694 245.9H703.334V251.5ZM714.445 259V248.22H716.265V250.2L716.065 249.92C716.318 249.307 716.705 248.853 717.225 248.56C717.745 248.253 718.378 248.1 719.125 248.1H719.785V249.86H718.845C718.085 249.86 717.471 250.1 717.005 250.58C716.538 251.047 716.305 251.713 716.305 252.58V259H714.445ZM726.797 259.24C725.757 259.24 724.83 258.993 724.017 258.5C723.204 258.007 722.564 257.333 722.097 256.48C721.63 255.613 721.397 254.647 721.397 253.58C721.397 252.5 721.624 251.54 722.077 250.7C722.544 249.86 723.17 249.2 723.957 248.72C724.757 248.227 725.65 247.98 726.637 247.98C727.437 247.98 728.144 248.127 728.757 248.42C729.384 248.7 729.91 249.087 730.337 249.58C730.777 250.06 731.11 250.613 731.337 251.24C731.577 251.853 731.697 252.493 731.697 253.16C731.697 253.307 731.684 253.473 731.657 253.66C731.644 253.833 731.624 254 731.597 254.16H722.757V252.56H730.517L729.637 253.28C729.757 252.587 729.69 251.967 729.437 251.42C729.184 250.873 728.81 250.44 728.317 250.12C727.824 249.8 727.264 249.64 726.637 249.64C726.01 249.64 725.437 249.8 724.917 250.12C724.397 250.44 723.99 250.9 723.697 251.5C723.417 252.087 723.304 252.787 723.357 253.6C723.304 254.387 723.424 255.08 723.717 255.68C724.024 256.267 724.45 256.727 724.997 257.06C725.557 257.38 726.164 257.54 726.817 257.54C727.537 257.54 728.144 257.373 728.637 257.04C729.13 256.707 729.53 256.28 729.837 255.76L731.397 256.56C731.184 257.053 730.85 257.507 730.397 257.92C729.957 258.32 729.43 258.64 728.817 258.88C728.217 259.12 727.544 259.24 726.797 259.24ZM738.382 259.24C737.302 259.24 736.362 258.973 735.562 258.44C734.762 257.907 734.195 257.187 733.862 256.28L735.342 255.56C735.649 256.2 736.069 256.707 736.602 257.08C737.135 257.453 737.729 257.64 738.382 257.64C738.969 257.64 739.455 257.5 739.842 257.22C740.229 256.94 740.422 256.573 740.422 256.12C740.422 255.8 740.329 255.547 740.142 255.36C739.969 255.16 739.755 255.007 739.502 254.9C739.249 254.78 739.015 254.693 738.802 254.64L737.182 254.18C736.209 253.9 735.495 253.5 735.042 252.98C734.602 252.46 734.382 251.853 734.382 251.16C734.382 250.52 734.542 249.967 734.862 249.5C735.195 249.02 735.642 248.647 736.202 248.38C736.775 248.113 737.415 247.98 738.122 247.98C739.069 247.98 739.915 248.22 740.662 248.7C741.422 249.18 741.962 249.853 742.282 250.72L740.762 251.42C740.522 250.86 740.162 250.42 739.682 250.1C739.202 249.767 738.662 249.6 738.062 249.6C737.515 249.6 737.082 249.74 736.762 250.02C736.442 250.287 736.282 250.627 736.282 251.04C736.282 251.347 736.362 251.6 736.522 251.8C736.682 251.987 736.875 252.133 737.102 252.24C737.329 252.333 737.549 252.413 737.762 252.48L739.522 253C740.402 253.253 741.082 253.647 741.562 254.18C742.055 254.713 742.302 255.353 742.302 256.1C742.302 256.7 742.135 257.24 741.802 257.72C741.469 258.2 741.009 258.573 740.422 258.84C739.835 259.107 739.155 259.24 738.382 259.24ZM750.097 259.24C749.057 259.24 748.13 258.993 747.317 258.5C746.504 258.007 745.864 257.333 745.397 256.48C744.93 255.613 744.697 254.647 744.697 253.58C744.697 252.5 744.924 251.54 745.377 250.7C745.844 249.86 746.47 249.2 747.257 248.72C748.057 248.227 748.95 247.98 749.937 247.98C750.737 247.98 751.444 248.127 752.057 248.42C752.684 248.7 753.21 249.087 753.637 249.58C754.077 250.06 754.41 250.613 754.637 251.24C754.877 251.853 754.997 252.493 754.997 253.16C754.997 253.307 754.984 253.473 754.957 253.66C754.944 253.833 754.924 254 754.897 254.16H746.057V252.56H753.817L752.937 253.28C753.057 252.587 752.99 251.967 752.737 251.42C752.484 250.873 752.11 250.44 751.617 250.12C751.124 249.8 750.564 249.64 749.937 249.64C749.31 249.64 748.737 249.8 748.217 250.12C747.697 250.44 747.29 250.9 746.997 251.5C746.717 252.087 746.604 252.787 746.657 253.6C746.604 254.387 746.724 255.08 747.017 255.68C747.324 256.267 747.75 256.727 748.297 257.06C748.857 257.38 749.464 257.54 750.117 257.54C750.837 257.54 751.444 257.373 751.937 257.04C752.43 256.707 752.83 256.28 753.137 255.76L754.697 256.56C754.484 257.053 754.15 257.507 753.697 257.92C753.257 258.32 752.73 258.64 752.117 258.88C751.517 259.12 750.844 259.24 750.097 259.24ZM757.822 259V248.22H759.642V250.32L759.342 250.14C759.609 249.46 760.035 248.933 760.622 248.56C761.222 248.173 761.922 247.98 762.722 247.98C763.495 247.98 764.182 248.153 764.782 248.5C765.395 248.847 765.875 249.327 766.222 249.94C766.582 250.553 766.762 251.247 766.762 252.02V259H764.882V252.62C764.882 252.02 764.775 251.513 764.562 251.1C764.349 250.687 764.042 250.367 763.642 250.14C763.255 249.9 762.809 249.78 762.302 249.78C761.795 249.78 761.342 249.9 760.942 250.14C760.555 250.367 760.249 250.693 760.022 251.12C759.795 251.533 759.682 252.033 759.682 252.62V259H757.822ZM774.204 259.12C773.15 259.12 772.337 258.82 771.764 258.22C771.204 257.62 770.924 256.773 770.924 255.68V250H768.964V248.22H769.364C769.844 248.22 770.224 248.073 770.504 247.78C770.784 247.487 770.924 247.1 770.924 246.62V245.74H772.784V248.22H775.204V250H772.784V255.62C772.784 255.98 772.837 256.293 772.944 256.56C773.064 256.827 773.257 257.04 773.524 257.2C773.79 257.347 774.144 257.42 774.584 257.42C774.677 257.42 774.79 257.413 774.924 257.4C775.07 257.387 775.204 257.373 775.324 257.36V259C775.15 259.04 774.957 259.067 774.744 259.08C774.53 259.107 774.35 259.12 774.204 259.12ZM781.177 259.24C780.47 259.24 779.843 259.113 779.297 258.86C778.763 258.593 778.343 258.233 778.037 257.78C777.73 257.313 777.577 256.78 777.577 256.18C777.577 255.607 777.697 255.093 777.937 254.64C778.19 254.173 778.577 253.78 779.097 253.46C779.63 253.14 780.297 252.913 781.097 252.78L785.097 252.12V253.68L781.517 254.28C780.823 254.4 780.317 254.62 779.997 254.94C779.69 255.26 779.537 255.653 779.537 256.12C779.537 256.56 779.71 256.927 780.057 257.22C780.417 257.513 780.863 257.66 781.397 257.66C782.077 257.66 782.663 257.52 783.157 257.24C783.663 256.947 784.057 256.553 784.337 256.06C784.63 255.567 784.777 255.02 784.777 254.42V251.68C784.777 251.093 784.557 250.62 784.117 250.26C783.69 249.887 783.123 249.7 782.417 249.7C781.803 249.7 781.257 249.86 780.777 250.18C780.31 250.487 779.963 250.9 779.737 251.42L778.117 250.58C778.317 250.087 778.637 249.647 779.077 249.26C779.517 248.86 780.03 248.547 780.617 248.32C781.203 248.093 781.817 247.98 782.457 247.98C783.283 247.98 784.01 248.14 784.637 248.46C785.263 248.767 785.75 249.2 786.097 249.76C786.457 250.307 786.637 250.947 786.637 251.68V259H784.817V256.96L785.157 257.08C784.93 257.507 784.623 257.88 784.237 258.2C783.85 258.52 783.397 258.773 782.877 258.96C782.357 259.147 781.79 259.24 781.177 259.24ZM794.105 259.12C793.052 259.12 792.238 258.82 791.665 258.22C791.105 257.62 790.825 256.773 790.825 255.68V250H788.865V248.22H789.265C789.745 248.22 790.125 248.073 790.405 247.78C790.685 247.487 790.825 247.1 790.825 246.62V245.74H792.685V248.22H795.105V250H792.685V255.62C792.685 255.98 792.738 256.293 792.845 256.56C792.965 256.827 793.158 257.04 793.425 257.2C793.692 257.347 794.045 257.42 794.485 257.42C794.578 257.42 794.692 257.413 794.825 257.4C794.972 257.387 795.105 257.373 795.225 257.36V259C795.052 259.04 794.858 259.067 794.645 259.08C794.432 259.107 794.252 259.12 794.105 259.12ZM798.055 259V248.22H799.915V259H798.055ZM798.055 246.5V244.1H799.915V246.5H798.055ZM808.321 259.24C807.281 259.24 806.341 259 805.501 258.52C804.661 258.027 803.994 257.353 803.501 256.5C803.008 255.647 802.761 254.68 802.761 253.6C802.761 252.52 803.001 251.56 803.481 250.72C803.974 249.88 804.641 249.213 805.481 248.72C806.321 248.227 807.268 247.98 808.321 247.98C809.361 247.98 810.301 248.227 811.141 248.72C811.981 249.2 812.641 249.86 813.121 250.7C813.614 251.54 813.861 252.507 813.861 253.6C813.861 254.693 813.608 255.667 813.101 256.52C812.594 257.36 811.921 258.027 811.081 258.52C810.254 259 809.334 259.24 808.321 259.24ZM808.321 257.44C808.988 257.44 809.588 257.273 810.121 256.94C810.668 256.607 811.094 256.147 811.401 255.56C811.721 254.973 811.881 254.32 811.881 253.6C811.881 252.867 811.721 252.22 811.401 251.66C811.094 251.087 810.668 250.633 810.121 250.3C809.588 249.953 808.988 249.78 808.321 249.78C807.641 249.78 807.028 249.953 806.481 250.3C805.948 250.633 805.521 251.087 805.201 251.66C804.881 252.22 804.721 252.867 804.721 253.6C804.721 254.32 804.881 254.973 805.201 255.56C805.521 256.147 805.948 256.607 806.481 256.94C807.028 257.273 807.641 257.44 808.321 257.44ZM816.687 259V248.22H818.507V250.32L818.207 250.14C818.474 249.46 818.9 248.933 819.487 248.56C820.087 248.173 820.787 247.98 821.587 247.98C822.36 247.98 823.047 248.153 823.647 248.5C824.26 248.847 824.74 249.327 825.087 249.94C825.447 250.553 825.627 251.247 825.627 252.02V259H823.747V252.62C823.747 252.02 823.64 251.513 823.427 251.1C823.214 250.687 822.907 250.367 822.507 250.14C822.12 249.9 821.674 249.78 821.167 249.78C820.66 249.78 820.207 249.9 819.807 250.14C819.42 250.367 819.114 250.693 818.887 251.12C818.66 251.533 818.547 252.033 818.547 252.62V259H816.687Z" fill="#0B2638"/>
<path d="M208.58 150V148.64L212.7 144.18C213.513 143.313 214.16 142.6 214.64 142.04C215.133 141.48 215.493 140.98 215.72 140.54C215.947 140.1 216.06 139.633 216.06 139.14C216.06 138.327 215.82 137.7 215.34 137.26C214.86 136.82 214.227 136.6 213.44 136.6C212.64 136.6 211.96 136.833 211.4 137.3C210.84 137.753 210.453 138.4 210.24 139.24L208.46 138.78C208.633 137.98 208.953 137.287 209.42 136.7C209.887 136.113 210.467 135.66 211.16 135.34C211.853 135.02 212.613 134.86 213.44 134.86C214.347 134.86 215.14 135.04 215.82 135.4C216.513 135.747 217.053 136.233 217.44 136.86C217.84 137.487 218.04 138.213 218.04 139.04C218.04 139.587 217.927 140.12 217.7 140.64C217.473 141.16 217.14 141.713 216.7 142.3C216.26 142.873 215.687 143.54 214.98 144.3L211.3 148.3H218.36V150H208.58ZM225.17 150V134.86H227.03V141.32L226.69 141.14C226.956 140.46 227.383 139.933 227.97 139.56C228.57 139.173 229.27 138.98 230.07 138.98C230.843 138.98 231.53 139.153 232.13 139.5C232.743 139.847 233.223 140.327 233.57 140.94C233.93 141.553 234.11 142.247 234.11 143.02V150H232.23V143.62C232.23 143.02 232.116 142.513 231.89 142.1C231.676 141.687 231.376 141.367 230.99 141.14C230.603 140.9 230.156 140.78 229.65 140.78C229.156 140.78 228.71 140.9 228.31 141.14C227.91 141.367 227.596 141.693 227.37 142.12C227.143 142.533 227.03 143.033 227.03 143.62V150H225.17ZM237.171 150V139.22H238.991V141.2L238.791 140.92C239.045 140.307 239.431 139.853 239.951 139.56C240.471 139.253 241.105 139.1 241.851 139.1H242.511V140.86H241.571C240.811 140.86 240.198 141.1 239.731 141.58C239.265 142.047 239.031 142.713 239.031 143.58V150H237.171ZM248.423 150.24C247.343 150.24 246.403 149.973 245.603 149.44C244.803 148.907 244.237 148.187 243.903 147.28L245.383 146.56C245.69 147.2 246.11 147.707 246.643 148.08C247.177 148.453 247.77 148.64 248.423 148.64C249.01 148.64 249.497 148.5 249.883 148.22C250.27 147.94 250.463 147.573 250.463 147.12C250.463 146.8 250.37 146.547 250.183 146.36C250.01 146.16 249.797 146.007 249.543 145.9C249.29 145.78 249.057 145.693 248.843 145.64L247.223 145.18C246.25 144.9 245.537 144.5 245.083 143.98C244.643 143.46 244.423 142.853 244.423 142.16C244.423 141.52 244.583 140.967 244.903 140.5C245.237 140.02 245.683 139.647 246.243 139.38C246.817 139.113 247.457 138.98 248.163 138.98C249.11 138.98 249.957 139.22 250.703 139.7C251.463 140.18 252.003 140.853 252.323 141.72L250.803 142.42C250.563 141.86 250.203 141.42 249.723 141.1C249.243 140.767 248.703 140.6 248.103 140.6C247.557 140.6 247.123 140.74 246.803 141.02C246.483 141.287 246.323 141.627 246.323 142.04C246.323 142.347 246.403 142.6 246.563 142.8C246.723 142.987 246.917 143.133 247.143 143.24C247.37 143.333 247.59 143.413 247.803 143.48L249.563 144C250.443 144.253 251.123 144.647 251.603 145.18C252.097 145.713 252.343 146.353 252.343 147.1C252.343 147.7 252.177 148.24 251.843 148.72C251.51 149.2 251.05 149.573 250.463 149.84C249.877 150.107 249.197 150.24 248.423 150.24Z" fill="#0B2638"/>
<path d="M433.06 150V136.8H430.24V135.1H435.04V150H433.06ZM438.617 150V148.64L442.737 144.18C443.55 143.313 444.197 142.6 444.677 142.04C445.17 141.48 445.53 140.98 445.757 140.54C445.983 140.1 446.097 139.633 446.097 139.14C446.097 138.327 445.857 137.7 445.377 137.26C444.897 136.82 444.263 136.6 443.477 136.6C442.677 136.6 441.997 136.833 441.437 137.3C440.877 137.753 440.49 138.4 440.277 139.24L438.497 138.78C438.67 137.98 438.99 137.287 439.457 136.7C439.923 136.113 440.503 135.66 441.197 135.34C441.89 135.02 442.65 134.86 443.477 134.86C444.383 134.86 445.177 135.04 445.857 135.4C446.55 135.747 447.09 136.233 447.477 136.86C447.877 137.487 448.077 138.213 448.077 139.04C448.077 139.587 447.963 140.12 447.737 140.64C447.51 141.16 447.177 141.713 446.737 142.3C446.297 142.873 445.723 143.54 445.017 144.3L441.337 148.3H448.397V150H438.617ZM455.206 150V134.86H457.066V141.32L456.726 141.14C456.993 140.46 457.42 139.933 458.006 139.56C458.606 139.173 459.306 138.98 460.106 138.98C460.88 138.98 461.566 139.153 462.166 139.5C462.78 139.847 463.26 140.327 463.606 140.94C463.966 141.553 464.146 142.247 464.146 143.02V150H462.266V143.62C462.266 143.02 462.153 142.513 461.926 142.1C461.713 141.687 461.413 141.367 461.026 141.14C460.64 140.9 460.193 140.78 459.686 140.78C459.193 140.78 458.746 140.9 458.346 141.14C457.946 141.367 457.633 141.693 457.406 142.12C457.18 142.533 457.066 143.033 457.066 143.62V150H455.206ZM467.208 150V139.22H469.028V141.2L468.828 140.92C469.081 140.307 469.468 139.853 469.988 139.56C470.508 139.253 471.141 139.1 471.888 139.1H472.548V140.86H471.608C470.848 140.86 470.235 141.1 469.768 141.58C469.301 142.047 469.068 142.713 469.068 143.58V150H467.208ZM478.46 150.24C477.38 150.24 476.44 149.973 475.64 149.44C474.84 148.907 474.273 148.187 473.94 147.28L475.42 146.56C475.727 147.2 476.147 147.707 476.68 148.08C477.213 148.453 477.807 148.64 478.46 148.64C479.047 148.64 479.533 148.5 479.92 148.22C480.307 147.94 480.5 147.573 480.5 147.12C480.5 146.8 480.407 146.547 480.22 146.36C480.047 146.16 479.833 146.007 479.58 145.9C479.327 145.78 479.093 145.693 478.88 145.64L477.26 145.18C476.287 144.9 475.573 144.5 475.12 143.98C474.68 143.46 474.46 142.853 474.46 142.16C474.46 141.52 474.62 140.967 474.94 140.5C475.273 140.02 475.72 139.647 476.28 139.38C476.853 139.113 477.493 138.98 478.2 138.98C479.147 138.98 479.993 139.22 480.74 139.7C481.5 140.18 482.04 140.853 482.36 141.72L480.84 142.42C480.6 141.86 480.24 141.42 479.76 141.1C479.28 140.767 478.74 140.6 478.14 140.6C477.593 140.6 477.16 140.74 476.84 141.02C476.52 141.287 476.36 141.627 476.36 142.04C476.36 142.347 476.44 142.6 476.6 142.8C476.76 142.987 476.953 143.133 477.18 143.24C477.407 143.333 477.627 143.413 477.84 143.48L479.6 144C480.48 144.253 481.16 144.647 481.64 145.18C482.133 145.713 482.38 146.353 482.38 147.1C482.38 147.7 482.213 148.24 481.88 148.72C481.547 149.2 481.087 149.573 480.5 149.84C479.913 150.107 479.233 150.24 478.46 150.24Z" fill="#0B2638"/>
<path d="M656.58 150V148.64L660.7 144.18C661.513 143.313 662.16 142.6 662.64 142.04C663.133 141.48 663.493 140.98 663.72 140.54C663.947 140.1 664.06 139.633 664.06 139.14C664.06 138.327 663.82 137.7 663.34 137.26C662.86 136.82 662.227 136.6 661.44 136.6C660.64 136.6 659.96 136.833 659.4 137.3C658.84 137.753 658.453 138.4 658.24 139.24L656.46 138.78C656.633 137.98 656.953 137.287 657.42 136.7C657.887 136.113 658.467 135.66 659.16 135.34C659.853 135.02 660.613 134.86 661.44 134.86C662.347 134.86 663.14 135.04 663.82 135.4C664.513 135.747 665.053 136.233 665.44 136.86C665.84 137.487 666.04 138.213 666.04 139.04C666.04 139.587 665.927 140.12 665.7 140.64C665.473 141.16 665.14 141.713 664.7 142.3C664.26 142.873 663.687 143.54 662.98 144.3L659.3 148.3H666.36V150H656.58ZM673.17 150V134.86H675.03V141.32L674.69 141.14C674.956 140.46 675.383 139.933 675.97 139.56C676.57 139.173 677.27 138.98 678.07 138.98C678.843 138.98 679.53 139.153 680.13 139.5C680.743 139.847 681.223 140.327 681.57 140.94C681.93 141.553 682.11 142.247 682.11 143.02V150H680.23V143.62C680.23 143.02 680.116 142.513 679.89 142.1C679.676 141.687 679.376 141.367 678.99 141.14C678.603 140.9 678.156 140.78 677.65 140.78C677.156 140.78 676.71 140.9 676.31 141.14C675.91 141.367 675.596 141.693 675.37 142.12C675.143 142.533 675.03 143.033 675.03 143.62V150H673.17ZM685.171 150V139.22H686.991V141.2L686.791 140.92C687.045 140.307 687.431 139.853 687.951 139.56C688.471 139.253 689.105 139.1 689.851 139.1H690.511V140.86H689.571C688.811 140.86 688.198 141.1 687.731 141.58C687.265 142.047 687.031 142.713 687.031 143.58V150H685.171ZM696.423 150.24C695.343 150.24 694.403 149.973 693.603 149.44C692.803 148.907 692.237 148.187 691.903 147.28L693.383 146.56C693.69 147.2 694.11 147.707 694.643 148.08C695.177 148.453 695.77 148.64 696.423 148.64C697.01 148.64 697.497 148.5 697.883 148.22C698.27 147.94 698.463 147.573 698.463 147.12C698.463 146.8 698.37 146.547 698.183 146.36C698.01 146.16 697.797 146.007 697.543 145.9C697.29 145.78 697.057 145.693 696.843 145.64L695.223 145.18C694.25 144.9 693.537 144.5 693.083 143.98C692.643 143.46 692.423 142.853 692.423 142.16C692.423 141.52 692.583 140.967 692.903 140.5C693.237 140.02 693.683 139.647 694.243 139.38C694.817 139.113 695.457 138.98 696.163 138.98C697.11 138.98 697.957 139.22 698.703 139.7C699.463 140.18 700.003 140.853 700.323 141.72L698.803 142.42C698.563 141.86 698.203 141.42 697.723 141.1C697.243 140.767 696.703 140.6 696.103 140.6C695.557 140.6 695.123 140.74 694.803 141.02C694.483 141.287 694.323 141.627 694.323 142.04C694.323 142.347 694.403 142.6 694.563 142.8C694.723 142.987 694.917 143.133 695.143 143.24C695.37 143.333 695.59 143.413 695.803 143.48L697.563 144C698.443 144.253 699.123 144.647 699.603 145.18C700.097 145.713 700.343 146.353 700.343 147.1C700.343 147.7 700.177 148.24 699.843 148.72C699.51 149.2 699.05 149.573 698.463 149.84C697.877 150.107 697.197 150.24 696.423 150.24Z" fill="#0B2638"/>
</svg>
