<svg width="563" height="449" viewBox="0 0 563 449" fill="none" xmlns="http://www.w3.org/2000/svg">
<g clip-path="url(#clip0_3452_1569)">
<rect width="563" height="449" rx="20" fill="#D5FDFF"/>
<g clip-path="url(#clip1_3452_1569)">
<ellipse cx="84.5355" cy="45.5745" rx="23.9831" ry="25.8448" transform="rotate(27.3125 84.5355 45.5745)" fill="#5BB42B"/>
<ellipse cx="23.9831" cy="25.8448" rx="23.9831" ry="25.8448" transform="matrix(-0.0925158 -0.995711 -0.995711 0.0925158 171.305 153.077)" fill="#5BB42B"/>
<path d="M86.7924 191.723C71.3072 190.901 55.673 170.308 49.7916 160.114C49.8849 158.787 50.6196 155.638 52.8117 153.659C55.5518 151.184 90.165 164.621 97.5453 169.141C104.926 173.661 106.149 192.751 86.7924 191.723Z" fill="#5C9A15"/>
<path d="M9.27891 75.8346C5.00591 90.7412 19.3734 112.237 27.0913 121.121C28.3762 121.466 31.5927 121.798 34.179 120.372C37.4118 118.589 35.9988 81.4857 34.1331 73.0349C32.2674 64.584 14.6202 57.2013 9.27891 75.8346Z" fill="#5C9A15"/>
<path d="M-7.00373 211.77C-3.13904 214.354 18.6407 204.719 27.842 197.488L-0.739695 166.909C-9.06784 171.501 -25.1145 182.256 -25.2088 184.778C-25.3266 187.931 -11.8346 208.54 -7.00373 211.77Z" fill="#5C9A15"/>
<path d="M16.3313 199.929C30.6169 205.811 65.1352 161.554 63.6816 147.378C62.2281 133.202 49.9562 116.828 40.2093 112.576C30.4624 108.324 -26.857 120.231 -26.9248 135.794C-26.9926 151.357 2.0457 194.047 16.3313 199.929Z" fill="#5BB42B"/>
<path d="M-46.3079 153.495C-47.2557 148.944 -30.1618 132.361 -20.0106 126.539L-2.36732 164.496C-9.74564 170.497 -25.729 181.345 -28.1028 180.488C-31.0702 179.416 -45.1232 159.184 -46.3079 153.495Z" fill="#5BB42B"/>
<path d="M30.4548 183.556C15.3759 193.726 4.09367 184.811 -5.35613 170.8C-14.8059 156.789 -18.8449 142.988 -3.76595 132.818C16.0566 119.448 34.9376 123.239 44.3874 137.25C53.8372 151.261 50.2774 170.187 30.4548 183.556Z" fill="#A1DC3C"/>
<path d="M3.12956 166.213C3.19789 166.316 3.28572 166.404 3.38796 166.473C3.4902 166.541 3.60485 166.589 3.72537 166.614L9.53145 167.725C9.765 167.752 9.9999 167.691 10.1892 167.552C10.3785 167.413 10.5082 167.208 10.5525 166.977C10.5968 166.746 10.5524 166.506 10.4281 166.306C10.3038 166.105 10.1088 165.959 9.88205 165.895L4.10935 164.75C3.98847 164.726 3.86409 164.726 3.74338 164.75C3.62268 164.774 3.50803 164.822 3.40607 164.891C3.30411 164.959 3.21685 165.048 3.14931 165.151C3.08178 165.254 3.03534 165.369 3.01262 165.49C2.9826 165.612 2.97747 165.739 2.99756 165.863C3.01766 165.988 3.06255 166.107 3.12956 166.213Z" fill="#5BB42B"/>
<path d="M5.43516 169.632C5.50296 169.734 5.59021 169.821 5.69186 169.889C5.79351 169.957 5.90758 170.004 6.02754 170.028C6.14788 170.052 6.27175 170.052 6.39202 170.028C6.5123 170.003 6.6266 169.956 6.72831 169.887C6.83003 169.818 6.91717 169.73 6.98468 169.628C7.0522 169.525 7.09877 169.411 7.12169 169.29L8.2382 163.549C8.26211 163.429 8.26197 163.305 8.23776 163.185C8.21356 163.064 8.16578 162.95 8.09718 162.848C8.02859 162.747 7.94055 162.66 7.83811 162.592C7.73567 162.525 7.62086 162.478 7.50033 162.455C7.25919 162.409 7.00958 162.46 6.80602 162.598C6.60246 162.735 6.46148 162.947 6.4139 163.188L5.29488 168.942C5.24931 169.181 5.2997 169.429 5.43516 169.632Z" fill="#5BB42B"/>
<path d="M122.678 176.358C96.4418 194.053 68.2385 171.004 44.5343 135.858C20.83 100.712 9.88342 65.7148 36.1197 48.0195C73.8088 22.6 109.622 40.826 133.326 75.9718C157.031 111.118 163.352 148.925 122.678 176.358Z" fill="#5BB42B"/>
<path d="M54.2647 55.3213L59.9682 63.7777" stroke="#A1DC3C" stroke-width="12" stroke-linecap="round"/>
<path d="M116.332 147.348L122.035 155.804" stroke="#A1DC3C" stroke-width="12" stroke-linecap="round"/>
<path d="M136.913 143.073C136.913 143.073 137.647 140.321 135.292 136.83C132.937 133.339 130.111 132.988 130.111 132.988" stroke="#123041" stroke-width="7.62955" stroke-linecap="round"/>
<path d="M81.2324 62.6621C81.2324 62.6621 81.9657 59.9101 79.611 56.419C77.2564 52.9278 74.4301 52.5766 74.4301 52.5766" stroke="#123041" stroke-width="7.62955" stroke-linecap="round"/>
<ellipse cx="97.7981" cy="104.845" rx="5.4" ry="6.6" transform="rotate(56.0021 97.7981 104.845)" fill="#123041"/>
<path d="M101.951 103.492C100.839 101.844 98.6019 101.409 96.9535 102.52C95.3052 103.632 94.8701 105.87 95.9819 107.518L98.9665 105.505L101.951 103.492ZM109.066 126.918L111.079 129.902L117.048 125.876L115.036 122.892L112.051 124.905L109.066 126.918ZM98.9665 105.505L95.9819 107.518L109.066 126.918L112.051 124.905L115.036 122.892L101.951 103.492L98.9665 105.505Z" fill="#FFC532"/>
<path d="M136.925 155.527L116.551 126.211L111.577 129.566L132.978 160.783L145.121 165.563L151.674 158.972L148.931 148.467L144.53 145.697L140.469 148.798L144.223 150.608L145.583 155.843L141.852 158.359L136.925 155.527Z" fill="#FFE36C"/>
<path d="M151.674 158.972L141.852 158.359L145.583 155.843L144.223 150.608L140.469 148.798L144.53 145.698L148.955 148.503L151.674 158.972Z" fill="#FFC532"/>
</g>
<g clip-path="url(#clip2_3452_1569)">
<path d="M499.779 183.213C513.706 176.394 520.031 151.324 521.453 139.642C520.847 138.457 518.938 135.847 516.146 134.884C512.656 133.679 486.066 159.594 481.044 166.642C476.022 173.691 482.37 191.736 499.779 183.213Z" fill="#FFC532"/>
<path d="M552.381 56.7362C557.084 71.5127 543.346 93.4158 535.889 102.52C534.614 102.902 531.409 103.328 528.782 101.977C525.499 100.288 525.836 63.1596 527.456 54.6582C529.076 46.1568 546.501 38.2656 552.381 56.7362Z" fill="#FFC532"/>
<path d="M585.529 186.104C582.221 189.37 559.015 184.015 548.616 178.649L570.918 143.229C579.963 146.168 597.75 153.704 598.318 156.163C599.028 159.237 589.664 182.021 585.529 186.104Z" fill="#FFC532"/>
<path d="M560.38 178.874C547.46 187.344 505.215 150.39 503.97 136.195C502.724 121.999 511.688 103.605 520.458 97.5913C529.228 91.5775 587.765 92.462 590.766 107.733C593.767 123.003 573.3 170.403 560.38 178.874Z" fill="#FFDB40"/>
<path d="M565.102 147.689C565.054 147.802 564.984 147.905 564.897 147.992C564.809 148.079 564.706 148.148 564.592 148.194L559.1 150.38C558.875 150.451 558.633 150.435 558.421 150.335C558.209 150.234 558.043 150.057 557.956 149.838C557.869 149.62 557.867 149.376 557.951 149.156C558.036 148.935 558.2 148.755 558.41 148.65L563.864 146.437C563.978 146.39 564.1 146.366 564.223 146.367C564.346 146.368 564.468 146.394 564.581 146.442C564.694 146.49 564.796 146.56 564.882 146.649C564.968 146.737 565.035 146.842 565.08 146.956C565.133 147.071 565.162 147.194 565.165 147.32C565.169 147.446 565.147 147.571 565.102 147.689Z" fill="#FFBB4D"/>
<path d="M563.482 151.481C563.435 151.593 563.365 151.696 563.278 151.782C563.191 151.868 563.088 151.935 562.975 151.981C562.861 152.028 562.74 152.051 562.617 152.05C562.494 152.049 562.373 152.023 562.26 151.975C562.147 151.927 562.045 151.857 561.96 151.769C561.874 151.681 561.807 151.577 561.761 151.463L559.582 146.036C559.536 145.922 559.513 145.8 559.514 145.678C559.515 145.555 559.54 145.434 559.589 145.321C559.637 145.208 559.707 145.106 559.795 145.02C559.883 144.935 559.987 144.867 560.101 144.822C560.329 144.731 560.584 144.735 560.809 144.831C561.035 144.927 561.214 145.109 561.306 145.337L563.49 150.777C563.58 151.003 563.577 151.256 563.482 151.481Z" fill="#FFBB4D"/>
<path d="M453.356 173.313C482.154 185.613 505.192 158.113 521.585 119.733C537.978 81.352 542.016 45.4622 513.218 33.162C464.115 12.1888 433.693 36.809 417.299 75.1898C400.906 113.57 401.915 151.341 453.356 173.313Z" fill="#FFDB40"/>
<path d="M516.682 64.001L513.147 72.2776" stroke="#FCA18E" stroke-width="12" stroke-linecap="round"/>
<path d="M477.56 155.596L474.024 163.872" stroke="#FCA18E" stroke-width="12" stroke-linecap="round"/>
<path d="M488.302 116.041C488.583 114.073 490.406 112.705 492.375 112.986C494.343 113.267 495.711 115.091 495.43 117.059L491.866 116.55L488.302 116.041ZM492.121 140.224L491.612 143.788L484.484 142.77L484.993 139.206L488.557 139.715L492.121 140.224ZM491.866 116.55L495.43 117.059L492.121 140.224L488.557 139.715L484.993 139.206L488.302 116.041L491.866 116.55Z" fill="#4DB7D9"/>
<path d="M479.537 178.123L485.078 142.854L491.018 143.703L485.382 181.13L476.542 190.728L467.769 187.657L465.654 177.009L468.405 172.596L473.412 173.614L470.824 176.881L471.885 182.184L476.339 182.82L479.537 178.123Z" fill="#9EE7E5"/>
<path d="M467.77 187.658L476.34 182.821L471.885 182.185L470.824 176.882L473.412 173.615L468.406 172.597L465.648 177.052L467.77 187.658Z" fill="#4DB7D9"/>
<path d="M482.17 124.943C487.198 127.091 492.034 121.707 495.353 113.936C498.672 106.166 499.218 98.9501 494.19 96.8024C489.162 94.6548 480.464 98.3883 477.145 106.159C473.825 113.93 477.142 122.795 482.17 124.943Z" fill="#FFB132"/>
<path d="M393.742 77.2187C404.739 72.0188 415.118 70.7659 423.302 72.5793L415.439 86.6386C412.202 92.4277 402.571 95.1841 394.007 91.2094C385.444 87.2347 388.149 79.8631 393.742 77.2187Z" fill="#FFDB40"/>
<path d="M412.033 66.8534C413.464 70.5464 418.728 73.5737 421.182 74.6258C422.871 69.378 424.938 60.2437 422.354 57.3439C419.77 54.444 415.346 53.6748 413.598 55.1151C411.85 56.5553 410.243 62.2371 412.033 66.8534Z" fill="#FFDB40"/>
<path d="M473.351 137.309C473.351 137.309 470.642 138.186 468.988 142.059C467.334 145.931 468.573 148.496 468.573 148.496" stroke="#123041" stroke-width="7.62955" stroke-linecap="round"/>
<path d="M501.868 70.5439C501.868 70.5439 499.159 71.4218 497.505 75.2943C495.851 79.1668 497.09 81.7312 497.09 81.7312" stroke="#123041" stroke-width="7.62955" stroke-linecap="round"/>
</g>
<path d="M191.975 388.588C192.754 388.091 193.778 388.624 193.819 389.547L193.979 393.166C194.02 394.089 193.047 394.71 192.227 394.284L189.013 392.613C188.193 392.187 188.142 391.033 188.921 390.536L191.975 388.588Z" fill="#9EE7E5"/>
<path d="M228.955 350.879C229.87 350.999 230.313 352.066 229.751 352.799L227.546 355.674C226.984 356.407 225.839 356.256 225.485 355.403L224.098 352.056C223.744 351.203 224.446 350.287 225.362 350.407L228.955 350.879Z" fill="#BBABDD"/>
<path d="M234.959 393.492C235.882 393.512 236.438 394.524 235.96 395.314L234.083 398.413C233.604 399.203 232.45 399.178 232.005 398.369L230.26 395.194C229.815 394.384 230.413 393.397 231.336 393.416L234.959 393.492Z" fill="#FFC5AB"/>
<rect x="168.995" y="384.799" width="2.85327" height="3.33946" rx="0.6" transform="rotate(36.6857 168.995 384.799)" fill="#FFC5AB"/>
<path d="M185.48 377.116C187.377 375.28 192.357 371.788 197.103 372.508C203.035 373.409 201.38 378.316 199.123 379.187C196.867 380.059 193.859 379.886 193.803 376.256C193.715 370.477 200.7 368.806 208.636 368.494" stroke="#AFD157" stroke-width="1.8" stroke-linecap="round"/>
<path d="M250.468 387.724C251.584 387.903 254.279 387.905 256.122 386.485C258.426 384.71 256.861 383.393 255.768 383.642C254.674 383.89 253.455 384.69 254.081 385.98C255.077 388.032 258.279 386.901 261.633 385.059" stroke="#FFC53D" stroke-width="1.8" stroke-linecap="round"/>
<rect x="219.681" y="378.799" width="2.85327" height="3.33946" rx="0.6" transform="rotate(59.7328 219.681 378.799)" fill="#FFC53D"/>
<rect x="248.251" y="370.221" width="2.85327" height="2.23315" rx="0.6" transform="rotate(22.5587 248.251 370.221)" fill="#9EE7E5"/>
<g clip-path="url(#clip3_3452_1569)">
<path d="M33.9753 287.491C52.1393 298.24 46.5279 303.599 41.835 311.529C37.142 319.459 34.7759 326.739 16.9805 316.207C7.94678 310.861 4.42787 300.099 9.12083 292.169C13.8138 284.239 24.9415 282.144 33.9753 287.491Z" fill="white"/>
<path d="M60.6001 289.328C60.6001 299.34 57.1079 299.399 52.8001 299.399C48.4922 299.399 45.0001 299.34 45.0001 289.328C45.0001 279.316 49.7807 271.199 52.8001 271.199C55.8194 271.199 60.6001 279.316 60.6001 289.328Z" fill="#6A5B3D"/>
<path d="M154.8 289.328C154.8 299.34 151.308 299.399 147 299.399C142.692 299.399 139.2 299.34 139.2 289.328C139.2 279.316 143.981 271.199 147 271.199C150.019 271.199 154.8 279.316 154.8 289.328Z" fill="#6A5B3D"/>
<path d="M167.539 287.491C149.375 298.24 154.987 303.599 159.68 311.529C164.373 319.459 166.739 326.739 184.534 316.207C193.568 310.861 197.087 300.099 192.394 292.169C187.701 284.239 176.573 282.144 167.539 287.491Z" fill="#123041"/>
<path d="M172.022 296.654C162.969 302.011 165.313 303.917 167.093 306.926C168.874 309.935 169.6 312.798 178.47 307.549C182.972 304.885 185.179 300.286 183.398 297.277C181.618 294.268 176.524 293.989 172.022 296.654Z" fill="#FFCACA"/>
<path d="M28.9537 296.654C38.0069 302.011 35.6628 303.917 33.8823 306.926C32.1017 309.935 31.3751 312.798 22.5057 307.549C18.0032 304.885 15.7966 300.286 17.5772 297.277C19.3578 294.268 24.4512 293.989 28.9537 296.654Z" fill="#FFCACA"/>
<path d="M148.362 404.345C134.392 411.077 127.869 401.522 116.561 398.264C115.707 397.244 114.05 394.467 114.255 391.52C114.511 387.837 131.915 381.209 140.433 380.624C154.462 379.661 163.197 397.197 148.362 404.345Z" fill="#E7EAEE"/>
<path d="M135.046 473.674C139.349 471.915 143.539 448.47 142.69 436.799L101.355 443.396C100.506 452.868 100.449 472.185 102.488 473.674C105.036 475.535 129.666 475.873 135.046 473.674Z" fill="#E7EAEE"/>
<path d="M138.276 447.708C151.141 439.153 133.751 385.789 121.185 379.067C108.62 372.346 88.183 373.364 79.2077 379.067C70.2324 384.771 48.053 438.95 60.9174 447.708C73.7819 456.466 125.412 456.262 138.276 447.708Z" fill="white"/>
<path fill-rule="evenodd" clip-rule="evenodd" d="M61.9811 411.918C65.2472 413.347 68.075 415.532 69.3004 418.8C72.1804 426.48 82.0998 429.8 86.6998 430.5C86.6998 430.5 98.1842 434.55 101.7 440.7C103.896 444.542 103.998 450.982 103.898 454.14C86.4223 454.587 67.9229 452.476 60.9176 447.707C54.4402 443.297 56.8485 427.372 61.9811 411.918Z" fill="#123041"/>
<path d="M64.7545 473.674C60.4513 471.915 56.2612 448.47 57.1106 436.799L98.4447 443.396C99.294 452.868 99.3506 472.185 97.3122 473.674C94.7643 475.535 70.1336 475.873 64.7545 473.674Z" fill="#123041"/>
<path d="M133.8 428.351C133.8 444.356 120.1 448.2 103.2 448.2C86.3001 448.2 72.6 444.356 72.6 428.351C72.6 407.31 86.3001 395.4 103.2 395.4C120.1 395.4 133.8 407.31 133.8 428.351Z" fill="#FFC0C1"/>
<path d="M102.942 442.314C103.065 442.315 103.188 442.291 103.302 442.245C103.416 442.199 103.52 442.131 103.607 442.045L107.775 437.864C107.928 437.686 108.008 437.457 107.999 437.223C107.99 436.99 107.893 436.768 107.726 436.602C107.559 436.437 107.335 436.34 107.1 436.331C106.864 436.322 106.633 436.401 106.454 436.553L102.277 440.688C102.189 440.774 102.12 440.877 102.072 440.99C102.025 441.104 102 441.225 102 441.348C102 441.47 102.025 441.592 102.072 441.705C102.12 441.818 102.189 441.921 102.277 442.007C102.361 442.1 102.464 442.175 102.578 442.228C102.692 442.281 102.816 442.31 102.942 442.314Z" fill="#FF8D8D"/>
<path d="M107.065 442.314C107.188 442.315 107.309 442.291 107.422 442.245C107.535 442.199 107.638 442.131 107.725 442.045C107.812 441.959 107.881 441.857 107.929 441.744C107.976 441.631 108 441.509 108 441.387C108 441.265 107.976 441.144 107.929 441.031C107.881 440.918 107.812 440.815 107.725 440.729L103.59 436.604C103.504 436.517 103.401 436.448 103.287 436.401C103.174 436.354 103.053 436.33 102.93 436.33C102.807 436.33 102.686 436.354 102.573 436.401C102.459 436.448 102.357 436.517 102.27 436.604C102.097 436.778 102 437.013 102 437.258C102 437.503 102.097 437.738 102.27 437.911L106.415 442.045C106.588 442.216 106.822 442.313 107.065 442.314Z" fill="#FF8D8D"/>
<path d="M175.8 349.501C175.8 380.816 141.462 391.2 99.7264 391.2C57.9912 391.2 23.4 380.816 23.4 349.501C23.4 296.107 57.9912 277.8 99.7264 277.8C141.462 277.8 175.8 293.564 175.8 349.501Z" fill="white"/>
<path d="M119.895 407.994C118.164 408.352 117.009 406.259 118.234 404.984L141.082 381.218C141.923 380.344 143.37 380.534 143.956 381.596L153.395 398.7C153.981 399.762 153.371 401.088 152.183 401.333L119.895 407.994Z" fill="#D52C2F"/>
<path d="M123.564 415.542C109.371 421.79 86.1314 410.46 76.2854 404.013C74.4556 402.21 75.0062 399.645 76.0702 396.889C77.4001 393.445 114.354 389.831 122.979 390.538C131.605 391.244 141.304 407.732 123.564 415.542Z" fill="white"/>
<path d="M105.031 277.89C141.204 279.115 170.74 293.387 175.213 337.403C155.075 339.041 151.526 323.72 145.031 317.725C138.421 311.623 124.692 314.928 114.014 306.284C107.467 300.985 105.382 287.881 105.031 277.89Z" fill="#123041"/>
<path d="M75.0001 366.119C75.0001 353.792 84.9931 343.799 97.3201 343.799H108.48C120.807 343.799 130.8 353.792 130.8 366.119C130.8 374.337 124.138 380.999 115.92 380.999H89.88C81.6621 380.999 75.0001 374.337 75.0001 366.119Z" fill="#FFC0C1"/>
<path d="M91.2 360.6V367.2" stroke="#123041" stroke-width="6" stroke-linecap="round"/>
<path d="M115.2 360.6L115.2 367.2" stroke="#123041" stroke-width="6" stroke-linecap="round"/>
<path d="M45.0001 367.199H54.0001" stroke="#FFC0C1" stroke-width="12" stroke-linecap="round"/>
<path d="M152.4 367.199H161.4" stroke="#FFC0C1" stroke-width="12" stroke-linecap="round"/>
<path d="M69.165 355.547C69.165 355.547 67.2935 353.4 63.0825 353.4C58.8716 353.4 57 355.547 57 355.547" stroke="#123041" stroke-width="7.62955" stroke-linecap="round"/>
<path d="M149.565 355.547C149.565 355.547 147.694 353.4 143.483 353.4C139.272 353.4 137.4 355.547 137.4 355.547" stroke="#123041" stroke-width="7.62955" stroke-linecap="round"/>
</g>
<path d="M421.814 407.947C435.783 414.678 442.307 405.123 453.615 401.866C454.469 400.845 456.125 398.068 455.921 395.122C455.665 391.438 438.261 384.811 429.743 384.226C415.714 383.263 406.978 400.799 421.814 407.947Z" fill="#E7EAEE"/>
<path d="M444.555 479.076C440.251 477.317 436.061 453.873 436.911 442.201L478.245 448.798C479.094 458.271 479.151 477.588 477.112 479.076C474.564 480.937 449.934 481.275 444.555 479.076Z" fill="#E7EAEE"/>
<path d="M441.324 453.108C428.459 444.554 445.85 391.189 458.415 384.468C470.98 377.746 491.417 378.765 500.392 384.468C509.368 390.171 531.547 444.35 518.683 453.108C505.818 461.867 454.188 461.663 441.324 453.108Z" fill="white"/>
<path d="M514.845 479.076C519.149 477.317 523.339 453.873 522.489 442.201L481.155 448.798C480.306 458.271 480.249 477.588 482.288 479.076C484.836 480.937 509.466 481.275 514.845 479.076Z" fill="white"/>
<path d="M447 434.95C447 450.956 460.7 454.8 477.6 454.8C494.5 454.8 508.2 450.956 508.2 434.95C508.2 413.91 494.5 402 477.6 402C460.7 402 447 413.91 447 434.95Z" fill="#E7EAEE"/>
<path d="M476.658 445.201C476.535 445.202 476.413 445.178 476.298 445.132C476.184 445.086 476.081 445.017 475.993 444.931L471.825 440.739C471.672 440.561 471.592 440.331 471.601 440.097C471.61 439.862 471.707 439.64 471.874 439.474C472.041 439.308 472.265 439.211 472.5 439.202C472.736 439.193 472.967 439.273 473.146 439.425L477.323 443.571C477.411 443.657 477.48 443.76 477.528 443.874C477.575 443.988 477.6 444.109 477.6 444.232C477.6 444.355 477.575 444.477 477.528 444.591C477.48 444.704 477.411 444.807 477.323 444.894C477.239 444.987 477.136 445.062 477.022 445.115C476.908 445.168 476.784 445.197 476.658 445.201Z" fill="#FFC0C1"/>
<path d="M472.535 445.201C472.412 445.202 472.291 445.178 472.178 445.132C472.065 445.086 471.962 445.018 471.875 444.932C471.788 444.845 471.719 444.742 471.671 444.629C471.624 444.516 471.6 444.394 471.6 444.272C471.6 444.149 471.624 444.028 471.671 443.914C471.719 443.801 471.788 443.698 471.875 443.612L476.01 439.476C476.097 439.389 476.199 439.32 476.313 439.273C476.426 439.225 476.547 439.201 476.67 439.201C476.793 439.201 476.914 439.225 477.027 439.273C477.141 439.32 477.243 439.389 477.33 439.476C477.503 439.65 477.6 439.886 477.6 440.131C477.6 440.377 477.503 440.612 477.33 440.787L473.185 444.932C473.012 445.103 472.778 445.2 472.535 445.201Z" fill="#FFC0C1"/>
<path d="M429.841 264.578C434.641 280.136 455.194 310.598 459.541 323.336H500.641C504.988 310.599 523.957 280.136 530.041 264.578C537.587 245.281 529.739 220.2 508.542 220.2C491.041 220.2 482.843 249.1 480.541 264.578C478.24 249.1 469.441 220.2 452.54 220.2C431.343 220.2 423.733 244.779 429.841 264.578Z" fill="white"/>
<path d="M402 353.102C402 384.416 436.339 394.8 478.074 394.8C519.809 394.8 554.4 384.416 554.4 353.102C554.4 299.707 519.809 281.4 478.074 281.4C436.339 281.4 402 297.165 402 353.102Z" fill="white"/>
<path d="M450.279 411.594C452.011 411.951 453.166 409.858 451.941 408.584L429.092 384.818C428.252 383.943 426.805 384.134 426.219 385.196L416.78 402.3C416.194 403.361 416.804 404.687 417.992 404.932L450.279 411.594Z" fill="#D52C2F"/>
<path d="M447.156 419.144C461.348 425.392 484.588 414.061 494.434 407.615C496.264 405.811 495.713 403.246 494.649 400.491C493.319 397.047 456.366 393.433 447.74 394.139C439.115 394.846 429.415 411.333 447.156 419.144Z" fill="white"/>
<path d="M524.4 367.201H515.4" stroke="#FFC0C1" stroke-width="12" stroke-linecap="round"/>
<path d="M424.8 367.201H415.8" stroke="#FFC0C1" stroke-width="12" stroke-linecap="round"/>
<path d="M480 361.526C480 356.119 480 353.401 470.1 353.401C460.2 353.401 460.2 355.636 460.2 361.526C460.2 367.416 464.632 376.801 470.1 376.801C475.568 376.801 480 366.933 480 361.526Z" fill="#FFC0C1"/>
<path d="M470.1 353.4C460.489 353.4 460.21 355.507 460.202 361.019C462.814 362.622 466.287 363.601 470.1 363.601C473.913 363.601 477.386 362.622 479.998 361.019C479.989 355.949 479.686 353.4 470.1 353.4Z" fill="#E7EAEE"/>
<path d="M472.553 345C471.376 345 470.836 345.491 470.1 345.982C469.364 345.491 468.824 345 467.646 345C466.174 345 465.319 346.543 465.684 347.455C466.175 348.682 467.974 349.909 470.1 350.4C472.226 349.909 474.025 348.682 474.516 347.455C474.881 346.543 474.026 345 472.553 345Z" fill="#FFC0C1"/>
<path d="M439.965 355.547C439.965 355.547 438.094 353.4 433.883 353.4C429.672 353.4 427.8 355.547 427.8 355.547" stroke="#123041" stroke-width="7.62955" stroke-linecap="round"/>
<path d="M512.565 355.547C512.565 355.547 510.694 353.4 506.483 353.4C502.272 353.4 500.4 355.547 500.4 355.547" stroke="#123041" stroke-width="7.62955" stroke-linecap="round"/>
<path d="M384.658 387.19C383.879 386.693 382.854 387.225 382.814 388.148L382.653 391.768C382.612 392.691 383.586 393.312 384.406 392.885L387.62 391.214C388.44 390.788 388.491 389.635 387.712 389.138L384.658 387.19Z" fill="#BBABDD"/>
<path d="M347.678 349.478C346.762 349.599 346.32 350.665 346.882 351.398L349.087 354.273C349.649 355.006 350.794 354.856 351.148 354.003L352.535 350.656C352.889 349.803 352.186 348.886 351.27 349.007L347.678 349.478Z" fill="#9EE7E5"/>
<path d="M341.674 392.094C340.751 392.113 340.194 393.125 340.673 393.915L342.55 397.014C343.029 397.804 344.183 397.78 344.628 396.97L346.373 393.795C346.818 392.986 346.22 391.998 345.296 392.018L341.674 392.094Z" fill="#9EE7E5"/>
<rect width="2.85327" height="3.33946" rx="0.6" transform="matrix(-0.801925 0.597425 0.597425 0.801925 407.638 383.4)" fill="#AFD157"/>
<path d="M391.153 375.716C389.256 373.88 384.275 370.388 379.53 371.108C373.598 372.009 375.253 376.916 377.509 377.787C379.766 378.658 382.774 378.486 382.83 374.855C382.918 369.076 375.933 367.406 367.997 367.094" stroke="#FFC53D" stroke-width="1.8" stroke-linecap="round"/>
<path d="M326.165 386.325C325.048 386.504 322.354 386.506 320.511 385.086C318.206 383.311 319.772 381.994 320.865 382.243C321.959 382.492 323.178 383.292 322.552 384.581C321.556 386.633 318.354 385.503 315 383.661" stroke="#BBABDD" stroke-width="1.8" stroke-linecap="round"/>
<rect width="2.85327" height="3.33946" rx="0.6" transform="matrix(-0.504033 0.863684 0.863684 0.504033 356.952 377.4)" fill="#FFC5AB"/>
<rect width="2.85327" height="2.23315" rx="0.6" transform="matrix(-0.923487 0.38363 0.38363 0.923487 328.381 368.822)" fill="#AFD157"/>
<path d="M266.941 200.006C269.419 199.584 271.961 199.723 274.378 200.414C276.795 201.104 279.026 202.329 280.908 203.996L280.916 204.004C280.971 204.052 281.052 204.053 281.106 204.005C282.902 202.429 285.012 201.254 287.298 200.559C289.583 199.864 291.99 199.664 294.359 199.973L295.048 200.073C298.033 200.589 300.824 201.902 303.124 203.874C305.424 205.846 307.148 208.404 308.114 211.276C309.079 214.148 309.25 217.227 308.608 220.188C307.966 223.149 306.535 225.882 304.467 228.096L303.963 228.614L303.828 228.729L282.968 249.39C282.487 249.866 281.849 250.152 281.173 250.194C280.497 250.237 279.829 250.032 279.292 249.619L279.029 249.39L258.048 228.608C255.826 226.446 254.245 223.71 253.481 220.705C252.718 217.699 252.801 214.541 253.722 211.58C254.642 208.618 256.365 205.97 258.698 203.927C261.031 201.884 263.884 200.527 266.941 200.006Z" fill="#0B2638"/>
</g>
<defs>
<clipPath id="clip0_3452_1569">
<rect width="563" height="449" fill="white"/>
</clipPath>
<clipPath id="clip1_3452_1569">
<rect width="168.6" height="221.4" fill="white" transform="translate(99.5537 -2.00098) rotate(56.0021)"/>
</clipPath>
<clipPath id="clip2_3452_1569">
<rect width="182.4" height="241.8" fill="white" transform="translate(350 148.739) rotate(-66.8715)"/>
</clipPath>
<clipPath id="clip3_3452_1569">
<rect width="189" height="223.8" fill="white" transform="translate(6 261)"/>
</clipPath>
</defs>
</svg>
