<svg width="320" height="153" viewBox="0 0 320 153" fill="none" xmlns="http://www.w3.org/2000/svg">
<g clip-path="url(#clip0_2839_1533)">
<rect width="567" height="343" fill="#F3F3FC"/>
<path d="M206.282 17.9902C212.541 17.9905 217.615 23.065 217.615 29.3242V53.8887C217.615 55.9378 217.071 57.8597 216.12 59.518C213.619 63.8783 209.696 68.1149 209.696 73.1416V92.1094C209.696 94.1206 211.327 95.751 213.338 95.751C219.597 95.7511 224.672 100.826 224.672 107.085V118.689C224.672 124.949 219.597 130.023 213.338 130.023H175.382C175.369 130.023 175.356 130.023 175.343 130.022H112.021C105.762 130.022 100.688 124.948 100.688 118.688V34.9912C100.688 25.6021 108.299 17.9904 117.688 17.9902H206.282Z" fill="#D52C2F"/>
<path d="M203.215 69.2559L169.231 69.2559M203.215 74.1519H169.231" stroke="#9A2C2C" stroke-width="1.44" stroke-linecap="round" stroke-linejoin="round"/>
<path d="M148.064 69.2559L107.168 69.2559M148.064 74.1519H107.168" stroke="#9A2C2C" stroke-width="1.44" stroke-linecap="round" stroke-linejoin="round"/>
<mask id="mask0_2839_1533" style="mask-type:alpha" maskUnits="userSpaceOnUse" x="194" y="95" width="31" height="36">
<path d="M213.338 95.75C219.597 95.75 224.672 100.825 224.672 107.084V118.688C224.672 124.948 219.597 130.022 213.338 130.022H205.622C199.363 130.022 194.288 124.948 194.288 118.688V107.084C194.288 100.825 199.363 95.75 205.622 95.75H213.338Z" fill="#C63030"/>
</mask>
<g mask="url(#mask0_2839_1533)">
<rect x="217.184" y="105.687" width="12.528" height="4.32" rx="2.16" fill="#FFB132"/>
</g>
<circle cx="199.112" cy="129.951" r="11.592" fill="#123041"/>
<circle cx="126.104" cy="129.951" r="11.592" fill="#123041"/>
<ellipse cx="199.169" cy="129.952" rx="4.07134" ry="4.12788" fill="#E7EAEE"/>
<ellipse cx="126.16" cy="129.952" rx="4.07134" ry="4.12788" fill="#E7EAEE"/>
<path d="M107.168 35.1274C107.168 28.7651 112.326 23.6074 118.688 23.6074H152.528C154.119 23.6074 155.408 24.8968 155.408 26.4874V56.5834C155.408 58.174 154.119 59.4634 152.528 59.4634H110.048C108.457 59.4634 107.168 58.174 107.168 56.5834V35.1274Z" fill="#173A52"/>
<path d="M107.168 35.1274C107.168 28.7651 112.326 23.6074 118.688 23.6074H152.528C154.119 23.6074 155.408 24.8968 155.408 26.4874V56.5834C155.408 58.174 154.119 59.4634 152.528 59.4634H110.048C108.457 59.4634 107.168 58.174 107.168 56.5834V35.1274Z" fill="black" fill-opacity="0.2"/>
<path d="M107.168 35.1274C107.168 28.7651 112.326 23.6074 118.688 23.6074H152.528C154.119 23.6074 155.408 24.8968 155.408 26.4874V56.5834C155.408 58.174 154.119 59.4634 152.528 59.4634H110.048C108.457 59.4634 107.168 58.174 107.168 56.5834V35.1274Z" fill="black" fill-opacity="0.2"/>
<path d="M162.607 26.4874C162.607 24.8968 163.897 23.6074 165.487 23.6074H203.647C207.624 23.6074 210.847 26.831 210.847 30.8074V52.2634C210.847 56.2399 207.624 59.4634 203.647 59.4634H165.487C163.897 59.4634 162.607 58.174 162.607 56.5834V26.4874Z" fill="#173A52"/>
<path d="M162.607 26.4874C162.607 24.8968 163.897 23.6074 165.487 23.6074H203.647C207.624 23.6074 210.847 26.831 210.847 30.8074V52.2634C210.847 56.2399 207.624 59.4634 203.647 59.4634H165.487C163.897 59.4634 162.607 58.174 162.607 56.5834V26.4874Z" fill="black" fill-opacity="0.2"/>
<path d="M162.607 26.4874C162.607 24.8968 163.897 23.6074 165.487 23.6074H203.647C207.624 23.6074 210.847 26.831 210.847 30.8074V52.2634C210.847 56.2399 207.624 59.4634 203.647 59.4634H165.487C163.897 59.4634 162.607 58.174 162.607 56.5834V26.4874Z" fill="black" fill-opacity="0.2"/>
<rect x="107.168" y="79.624" width="48.24" height="30.96" rx="2.88" fill="#173A52"/>
<rect x="107.168" y="79.624" width="48.24" height="30.96" rx="2.88" fill="black" fill-opacity="0.2"/>
<rect x="107.168" y="79.624" width="48.24" height="30.96" rx="2.88" fill="black" fill-opacity="0.2"/>
<mask id="mask1_2839_1533" style="mask-type:alpha" maskUnits="userSpaceOnUse" x="110" y="75" width="40" height="36">
<rect x="110.768" y="75.8789" width="38.304" height="34.704" fill="#D9D9D9"/>
</mask>
<g mask="url(#mask1_2839_1533)">
<path d="M139.058 123.426C142.145 121.373 137.972 108.565 134.956 106.952C131.94 105.339 127.035 105.583 124.881 106.952C122.727 108.321 117.404 121.324 120.492 123.426C123.579 125.528 135.97 125.479 139.058 123.426Z" fill="#FFDB40"/>
<path d="M148.064 99.2796C148.064 106.795 139.823 109.287 129.807 109.287C119.79 109.287 111.488 106.795 111.488 99.2796C111.488 86.4649 119.79 82.0713 129.807 82.0713C139.823 82.0713 148.064 85.8547 148.064 99.2796Z" fill="#FFDB40"/>
<path d="M117.968 102.952H120.128" stroke="#FCA18E" stroke-width="2.88" stroke-linecap="round"/>
<path d="M141.872 102.952H144.032" stroke="#FCA18E" stroke-width="2.88" stroke-linecap="round"/>
<path d="M122.288 97.7676V100.072" stroke="#123041" stroke-width="2.16" stroke-linecap="round"/>
<path d="M139.712 97.7676V100.072" stroke="#123041" stroke-width="2.16" stroke-linecap="round"/>
<path d="M134.672 101.079C134.672 102.391 133.028 102.951 131 102.951C128.972 102.951 127.328 102.391 127.328 101.079C127.328 99.767 128.972 98.1992 131 98.1992C133.028 98.1992 134.672 99.767 134.672 101.079Z" fill="#FFB132"/>
<path d="M127.077 77.0643C129.262 79.0014 130.517 81.1739 130.888 83.1512L127.044 82.7413C125.461 82.5725 123.944 80.7066 124.014 78.4419C124.084 76.1772 125.966 76.0793 127.077 77.0643Z" fill="#FFDB40"/>
<path d="M131.089 80.1235C130.408 80.7876 130.236 82.2349 130.236 82.8755C131.553 82.7537 133.764 82.3486 134.16 81.505C134.557 80.6613 134.309 79.6123 133.827 79.3623C133.344 79.1123 131.939 79.2934 131.089 80.1235Z" fill="#FFDB40"/>
</g>
<path d="M144.425 111.472C144.361 112.703 142.293 113.613 139.91 113.489C137.527 113.365 135.732 112.255 135.796 111.024C135.905 108.938 137.66 107.358 140.34 107.497C143.02 107.636 144.537 109.315 144.425 111.472Z" fill="#FFDB40"/>
<path d="M125.273 111.472C125.209 112.703 123.141 113.613 120.759 113.489C118.376 113.365 116.581 112.255 116.645 111.024C116.753 108.938 118.509 107.358 121.188 107.497C123.868 107.636 125.385 109.315 125.273 111.472Z" fill="#FFDB40"/>
<mask id="mask2_2839_1533" style="mask-type:alpha" maskUnits="userSpaceOnUse" x="164" y="27" width="45" height="33">
<path d="M208.976 30.8077C208.976 29.2172 207.686 27.9277 206.096 27.9277H175.568C169.205 27.9277 164.048 33.0854 164.048 39.4477V52.2637C164.048 56.2402 167.271 59.4637 171.248 59.4637H206.096C207.686 59.4637 208.976 58.1743 208.976 56.5837V30.8077Z" fill="#173A52"/>
</mask>
<g mask="url(#mask2_2839_1533)">
<g clip-path="url(#clip1_2839_1533)">
<ellipse cx="5.75594" cy="6.20275" rx="5.75594" ry="6.20275" transform="matrix(-0.877234 -0.480064 -0.480064 0.877234 208.832 34.9082)" fill="#5BB42B"/>
<ellipse cx="175.798" cy="37.4261" rx="5.75594" ry="6.20275" transform="rotate(-28.6896 175.798 37.4261)" fill="#5BB42B"/>
<path d="M170.478 59.1002C173.364 61.4494 179.463 60.3065 182.152 59.4414C182.349 59.1903 182.726 58.5118 182.655 57.8065C182.567 56.9249 174.245 53.7367 172.204 53.3512C170.163 52.9657 166.869 56.1637 170.478 59.1002Z" fill="#5C9A15"/>
<path d="M179.246 71.8711C176.158 69.818 180.332 57.0106 183.348 55.3974C186.363 53.7843 191.268 54.0287 193.422 55.3974C195.576 56.7662 200.899 69.7691 197.812 71.8711C194.725 73.9731 182.333 73.9242 179.246 71.8711Z" fill="#5BB42B"/>
<path d="M203.071 65.6845C203.134 61.9634 198.468 57.8737 196.126 56.2939C195.807 56.2939 195.041 56.4168 194.53 56.9083C193.891 57.5226 196.525 66.0356 197.483 67.8786C198.441 69.7216 202.991 70.3359 203.071 65.6845Z" fill="#5BB42B"/>
<path d="M180.608 66.8634C180.608 71.2285 183.896 72.277 187.952 72.277C192.008 72.277 195.296 71.2285 195.296 66.8634C195.296 61.1251 192.008 57.877 187.952 57.877C183.896 57.877 180.608 61.1251 180.608 66.8634Z" fill="#A1DC3C"/>
<path d="M169.663 47.5484C169.663 55.1435 178.034 57.662 188.209 57.662C198.383 57.662 206.815 55.1435 206.815 47.5484C206.815 36.638 198.383 31.958 188.209 31.958C178.034 31.958 169.663 35.774 169.663 47.5484Z" fill="#5BB42B"/>
<path d="M199.76 37.5732V39.8772" stroke="#123041" stroke-width="2.16" stroke-linecap="round"/>
<path d="M175.279 37.4297V39.7337" stroke="#123041" stroke-width="2.16" stroke-linecap="round"/>
<path d="M202.928 44.918H200.48" stroke="#A1DC3C" stroke-width="2.88" stroke-linecap="round"/>
<path d="M176.288 44.918H173.84" stroke="#A1DC3C" stroke-width="2.88" stroke-linecap="round"/>
<path d="M184.784 42.6218C184.784 40.8916 184.784 40.0218 188.024 40.0218C191.264 40.0218 191.264 40.737 191.264 42.6218C191.264 45.7098 189.813 47.5098 188.024 47.5098C186.234 47.5098 184.784 45.4938 184.784 42.6218Z" fill="#D52C2F"/>
<path d="M188.023 47.5078C186.77 47.5078 185.684 46.5188 185.146 44.9395C185.772 44.2076 186.698 43.5721 187.817 43.1797C189.039 42.7515 190.261 42.6927 191.258 42.9414C191.161 45.8327 189.75 47.5078 188.023 47.5078Z" fill="#FF686B"/>
</g>
</g>
<path d="M164.048 91.144C164.048 84.7817 169.206 79.624 175.568 79.624H200.48C202.07 79.624 203.36 80.9134 203.36 82.504V107.704C203.36 109.295 202.07 110.584 200.48 110.584H166.928C165.337 110.584 164.048 109.295 164.048 107.704V91.144Z" fill="#173A52"/>
<path d="M164.048 91.144C164.048 84.7817 169.206 79.624 175.568 79.624H200.48C202.07 79.624 203.36 80.9134 203.36 82.504V107.704C203.36 109.295 202.07 110.584 200.48 110.584H166.928C165.337 110.584 164.048 109.295 164.048 107.704V91.144Z" fill="black" fill-opacity="0.2"/>
<path d="M164.048 91.144C164.048 84.7817 169.206 79.624 175.568 79.624H200.48C202.07 79.624 203.36 80.9134 203.36 82.504V107.704C203.36 109.295 202.07 110.584 200.48 110.584H166.928C165.337 110.584 164.048 109.295 164.048 107.704V91.144Z" fill="black" fill-opacity="0.2"/>
<mask id="mask3_2839_1533" style="mask-type:alpha" maskUnits="userSpaceOnUse" x="156" y="77" width="50" height="34">
<rect x="156.848" y="77.3203" width="48.96" height="33.264" fill="#D9D9D9"/>
</mask>
<g mask="url(#mask3_2839_1533)">
<g clip-path="url(#clip2_2839_1533)">
<path d="M165.29 83.6773C169.649 86.2572 168.302 87.5434 167.176 89.4465C166.05 91.3497 165.482 93.0969 161.211 90.5693C159.043 89.2862 158.198 86.7033 159.325 84.8001C160.451 82.8969 163.121 82.3942 165.29 83.6773Z" fill="white"/>
<path d="M171.68 84.1184C171.68 86.5213 170.841 86.5356 169.808 86.5356C168.774 86.5356 167.936 86.5213 167.936 84.1184C167.936 81.7155 169.083 79.7676 169.808 79.7676C170.532 79.7676 171.68 81.7155 171.68 84.1184Z" fill="#6A5B3D"/>
<path d="M194.288 84.1184C194.288 86.5213 193.45 86.5356 192.416 86.5356C191.382 86.5356 190.544 86.5213 190.544 84.1184C190.544 81.7155 191.691 79.7676 192.416 79.7676C193.141 79.7676 194.288 81.7155 194.288 84.1184Z" fill="#6A5B3D"/>
<path d="M197.345 83.6773C192.986 86.2572 194.333 87.5434 195.459 89.4465C196.585 91.3497 197.153 93.0969 201.424 90.5693C203.592 89.2862 204.437 86.7033 203.31 84.8001C202.184 82.8969 199.513 82.3942 197.345 83.6773Z" fill="#123041"/>
<path d="M198.422 85.877C196.249 87.1628 196.811 87.6203 197.239 88.3424C197.666 89.0645 197.841 89.7517 199.969 88.4919C201.05 87.8524 201.579 86.7486 201.152 86.0265C200.725 85.3044 199.502 85.2375 198.422 85.877Z" fill="#FFCACA"/>
<path d="M164.085 85.877C166.258 87.1628 165.695 87.6203 165.268 88.3424C164.841 89.0645 164.666 89.7517 162.538 88.4919C161.457 87.8524 160.927 86.7486 161.355 86.0265C161.782 85.3044 163.005 85.2375 164.085 85.877Z" fill="#FFCACA"/>
<path d="M186.206 106.513C186.83 105.882 195.313 108.602 197.146 109.578C197.394 109.711 197.617 109.911 197.81 110.154C197.371 110.425 196.857 110.584 196.304 110.584H187.499C186.694 109.674 186.028 108.789 185.575 108.103C185.579 107.783 185.71 107.018 186.206 106.513Z" fill="#E7EAEE"/>
<path d="M190.322 122.129C193.41 120.076 189.236 107.268 186.221 105.655C183.205 104.042 178.3 104.286 176.146 105.655C173.992 107.024 168.669 120.027 171.756 122.129C174.844 124.231 187.235 124.182 190.322 122.129Z" fill="white"/>
<path d="M189.248 117.483C189.248 121.325 185.96 122.247 181.904 122.247C177.848 122.247 174.56 121.325 174.56 117.483C174.56 112.434 177.848 109.575 181.904 109.575C185.96 109.575 189.248 112.434 189.248 117.483Z" fill="#FFC0C1"/>
<path d="M199.328 98.5599C199.328 106.075 191.087 108.568 181.07 108.568C171.054 108.568 162.752 106.075 162.752 98.5599C162.752 85.7452 171.054 81.3516 181.07 81.3516C191.087 81.3516 199.328 85.135 199.328 98.5599Z" fill="white"/>
<path d="M182.345 81.374C191.025 81.6685 198.111 85.092 199.186 95.6533C194.354 96.0453 193.502 92.3723 191.943 90.9336C190.357 89.4694 187.063 90.2619 184.5 88.1875C182.929 86.9158 182.429 83.7718 182.345 81.374Z" fill="#123041"/>
<path d="M172.256 97.1914V99.4954" stroke="#123041" stroke-width="2.16" stroke-linecap="round"/>
<path d="M191.552 97.1914V99.4954" stroke="#123041" stroke-width="2.16" stroke-linecap="round"/>
<path d="M175.136 102.548C175.136 99.5897 177.534 97.1914 180.493 97.1914H183.171C186.129 97.1914 188.528 99.5897 188.528 102.548V102.548C188.528 104.521 186.929 106.119 184.957 106.119H178.707C176.735 106.119 175.136 104.521 175.136 102.548V102.548Z" fill="#FFC0C1"/>
<path d="M179.024 101.224V102.808" stroke="#123041" stroke-width="1.44" stroke-linecap="round"/>
<path d="M184.784 101.224L184.784 102.808" stroke="#123041" stroke-width="1.44" stroke-linecap="round"/>
<path d="M167.936 102.808H170.096" stroke="#FFC0C1" stroke-width="2.88" stroke-linecap="round"/>
<path d="M193.712 102.808H195.872" stroke="#FFC0C1" stroke-width="2.88" stroke-linecap="round"/>
<path d="M191.712 106.992C194.831 107.197 197.311 110.531 197.312 114.614C197.312 118.829 194.669 122.246 191.408 122.246L191.104 122.236C187.985 122.032 185.504 118.698 185.504 114.614C185.504 110.4 188.148 106.983 191.408 106.982L191.712 106.992ZM187.707 113.776C187.68 114.045 187.664 114.324 187.664 114.614C187.664 118.185 189.823 120.086 191.408 120.086C191.415 120.086 191.423 120.085 191.43 120.085L191.543 116.7C190.803 116.456 190.256 115.616 190.256 114.614C190.256 114.573 190.259 114.531 190.261 114.49L187.707 113.776ZM193.608 113.885C193.674 114.113 193.712 114.358 193.712 114.614C193.712 115.334 193.429 115.971 192.995 116.363L192.886 119.597C194.076 118.821 195.152 117.134 195.152 114.614C195.152 113.763 195.028 113.007 194.819 112.349L193.608 113.885ZM191.408 109.143C190.199 109.143 188.656 110.25 187.992 112.36L190.732 113.128C191.047 112.714 191.491 112.454 191.984 112.454C192.253 112.454 192.506 112.532 192.732 112.669L194.133 110.895C193.365 109.741 192.296 109.143 191.408 109.143Z" fill="black"/>
<path d="M183.945 115.32C180.254 115.796 175.672 111.611 173.842 109.46C173.532 109.094 173.65 108.138 174.276 107.805C175.022 107.408 183.568 108.777 185.506 109.524C187.444 110.272 188.559 114.725 183.945 115.32Z" fill="#E7EAEE"/>
</g>
</g>
<mask id="mask4_2839_1533" style="mask-type:alpha" maskUnits="userSpaceOnUse" x="114" y="11" width="40" height="49">
<rect x="153.104" y="59.4629" width="38.592" height="47.808" transform="rotate(180 153.104 59.4629)" fill="#C63030"/>
</mask>
<g mask="url(#mask4_2839_1533)">
<g clip-path="url(#clip3_2839_1533)">
<path d="M149.98 60.743C146.91 62.8463 140.926 61.2047 138.317 60.121C138.142 59.8546 137.822 59.1474 137.951 58.4503C138.112 57.5789 146.667 55.0872 148.733 54.8712C150.799 54.6553 153.818 58.1138 149.98 60.743Z" fill="#E7EAEE"/>
<path d="M136.561 73.3991C140.147 72.4578 140.35 58.989 138.021 56.4854C135.691 53.9817 130.971 52.6229 128.49 53.2195C126.008 53.816 116.758 64.3912 118.997 67.3806C121.236 70.3699 132.974 74.3405 136.561 73.3991Z" fill="white"/>
<path d="M136.684 68.8352C135.439 72.4691 132.029 72.276 128.192 70.9612C124.355 69.6463 121.544 67.7077 122.789 64.0738C124.426 59.2968 128.463 57.6587 132.3 58.9735C136.137 60.2883 138.321 64.0582 136.684 68.8352Z" fill="#E7EAEE"/>
<mask id="path-67-outside-1_2839_1533" maskUnits="userSpaceOnUse" x="127.519" y="9.88367" width="15.2155" height="12.7282" fill="black">
<rect fill="white" x="127.519" y="9.88367" width="15.2155" height="12.7282"/>
<path fill-rule="evenodd" clip-rule="evenodd" d="M128.942 17.7029L140.443 17.7029C138.733 13.7766 134.841 10.9587 131.042 13.1522C129.574 13.9995 129.006 15.7256 128.942 17.7029Z"/>
</mask>
<path d="M128.942 17.7029L128.942 17.9909L128.645 17.9909L128.654 17.6936L128.942 17.7029ZM140.443 17.7029L140.707 17.588L140.882 17.9909L140.443 17.9909L140.443 17.7029ZM131.042 13.1522L131.186 13.4016V13.4016L131.042 13.1522ZM128.942 17.7029L128.942 17.4149L140.443 17.4149L140.443 17.7029L140.443 17.9909L128.942 17.9909L128.942 17.7029ZM131.042 13.1522L130.898 12.9028C132.895 11.7496 134.926 11.9166 136.666 12.8807C138.394 13.8387 139.832 15.5797 140.707 17.588L140.443 17.7029L140.179 17.8179C139.344 15.8999 137.981 14.2687 136.386 13.3845C134.802 12.5065 132.988 12.3613 131.186 13.4016L131.042 13.1522ZM128.942 17.7029L128.654 17.6936C128.719 15.6845 129.298 13.8263 130.898 12.9028L131.042 13.1522L131.186 13.4016C129.85 14.1727 129.293 15.7666 129.23 17.7122L128.942 17.7029Z" fill="#E7EAEE" mask="url(#path-67-outside-1_2839_1533)"/>
<path d="M141.085 19.6522C141.954 23.462 141.338 32.2598 141.963 35.429L133.42 40.361C130.988 38.2351 123.39 34.1799 120.258 31.6762C116.374 28.571 114.996 22.4162 119.402 19.8727C123.039 17.7725 128.211 22.7955 130.547 25.7362C129.168 22.2431 127.529 15.1805 131.041 13.1524C135.447 10.6088 139.978 14.8041 141.085 19.6522Z" fill="white"/>
<path d="M152.352 50.7261C151.206 58.1537 142.681 59.3603 132.782 57.8332C122.883 56.3061 115.058 52.5774 116.204 45.1497C118.157 32.4848 127.032 29.4083 136.931 30.9354C146.831 32.4625 154.399 37.4581 152.352 50.7261Z" fill="white"/>
<path d="M127.929 44.6992L127.577 46.9763" stroke="#123041" stroke-width="2.16" stroke-linecap="round"/>
<path d="M145.149 47.3564L144.798 49.6335" stroke="#123041" stroke-width="2.16" stroke-linecap="round"/>
<path d="M122.803 49.5918L124.937 49.9211" stroke="#FFC0C1" stroke-width="2.88" stroke-linecap="round"/>
<path d="M146.428 53.2354L148.562 53.5647" stroke="#FFC0C1" stroke-width="2.88" stroke-linecap="round"/>
<path d="M138.239 50.5946C138.437 49.3121 138.536 48.6674 136.188 48.3051C133.84 47.9428 133.758 48.473 133.542 49.87C133.327 51.267 134.035 53.6554 135.332 53.8554C136.629 54.0555 138.041 51.877 138.239 50.5946Z" fill="#FFC0C1"/>
<path d="M135.788 50.7292C136.705 50.8706 137.575 50.7587 138.258 50.4649C138.439 49.2689 138.455 48.6566 136.188 48.3068C133.896 47.9533 133.765 48.4496 133.559 49.7727C134.118 50.239 134.896 50.5915 135.788 50.7292Z" fill="#E7EAEE"/>
<path d="M135.913 46.2223C136.192 46.2654 136.303 46.4016 136.459 46.545C136.652 46.4555 136.798 46.3588 137.077 46.4019C137.426 46.4558 137.573 46.853 137.453 47.0559C137.291 47.3291 136.82 47.5543 136.298 47.593C135.811 47.3987 135.429 47.0418 135.358 46.7327C135.305 46.5032 135.564 46.1685 135.913 46.2223Z" fill="#FFC0C1"/>
</g>
</g>
<path d="M117.719 58.7676C117.783 59.9987 119.851 60.9087 122.233 60.785C124.616 60.6613 126.411 59.5506 126.347 58.3196C126.239 56.2344 124.484 54.654 121.804 54.7932C119.124 54.9324 117.607 56.6105 117.719 58.7676Z" fill="white"/>
<path d="M155.79 69.6096V67.9164L152.239 71.4682L153.078 72.3247L155.79 69.6096ZM163.879 68.5513C163.616 67.2285 162.622 66.2364 162.508 66.119L160.068 63.6387L158.673 65.0326L158.574 65.1318V66.825L160.063 65.3369L161.451 66.7473L161.662 66.9623L161.677 66.9772C161.677 66.9772 161.77 67.0681 161.897 67.2202C162.288 67.669 162.566 68.2048 162.706 68.7828C162.905 69.7749 163.004 70.944 161.897 72.3627V74.1122C162.002 74.0212 162.063 73.9567 162.091 73.9336C163.084 72.9613 163.677 71.9791 163.911 70.9291C164.072 70.1436 164.062 69.3325 163.881 68.5513H163.879ZM156.488 73.7781L156.451 73.76H156.433C156.325 73.7035 156.222 73.6377 156.125 73.5632C156.034 73.4987 155.924 73.4127 155.794 73.3019C155.593 73.1366 155.341 72.9117 155.035 72.6124L154.349 71.9113L153.502 72.7579L154.185 73.4541V73.464C155.242 74.4958 155.785 74.7868 155.985 74.8711C156.619 75.1832 157.305 75.3733 158.01 75.4317C158.333 75.4569 158.659 75.4503 158.981 75.4118L159.059 75.4036V74.1899C158.18 74.3289 157.28 74.1847 156.489 73.7781H156.488Z" fill="white"/>
<path d="M157.977 65.7295V72.9587H156.391V67.3169L156.549 67.1581L156.635 67.0722L157.115 66.5926L157.439 66.2685L157.545 66.1627L157.871 65.837L157.977 65.7295Z" fill="white"/>
<path d="M161.299 67.3467V74.5594L161.279 74.5743C161.207 74.6206 161.129 74.6685 161.046 74.7148C161.02 74.7314 160.992 74.7462 160.963 74.7611C160.891 74.8025 160.813 74.8438 160.733 74.8835C160.654 74.9232 160.583 74.9562 160.503 74.991L160.373 75.0472L160.194 75.1166L160.049 75.1679C159.949 75.201 159.847 75.2324 159.741 75.2605L159.663 75.2803V67.3467H161.299Z" fill="white"/>
<path d="M159.662 69.2529H157.977V70.8899H159.662V69.2529Z" fill="white"/>
</g>
<defs>
<clipPath id="clip0_2839_1533">
<rect width="320" height="153" rx="20" fill="white"/>
</clipPath>
<clipPath id="clip1_2839_1533">
<rect width="40.464" height="53.136" fill="white" transform="matrix(-1 0 0 1 208.256 28.2148)"/>
</clipPath>
<clipPath id="clip2_2839_1533">
<rect width="45.36" height="53.856" fill="white" transform="translate(158.576 77.3203)"/>
</clipPath>
<clipPath id="clip3_2839_1533">
<rect width="47.801" height="67.9813" fill="white" transform="matrix(-0.945998 -0.324172 -0.324172 0.945998 166.263 20.9746)"/>
</clipPath>
</defs>
</svg>
