<svg width="16" height="16" viewBox="0 0 16 16" fill="none" xmlns="http://www.w3.org/2000/svg">
<path d="M8 12.3337L6 11.3337M6 11.3337L2 13.3337V4.66699L6 2.66699M6 11.3337V2.66699M6 2.66699L10 4.66699M10 4.66699L14 2.66699V7.66699M10 4.66699V8.33366M12.6667 12.0003V12.007M14.0807 13.4143C14.3604 13.1346 14.551 12.7783 14.6282 12.3903C14.7054 12.0023 14.6658 11.6002 14.5145 11.2347C14.3631 10.8692 14.1068 10.5568 13.7779 10.337C13.449 10.1172 13.0623 9.9999 12.6667 9.9999C12.2711 9.9999 11.8844 10.1172 11.5555 10.337C11.2266 10.5568 10.9702 10.8692 10.8189 11.2347C10.6675 11.6002 10.6279 12.0023 10.7051 12.3903C10.7824 12.7783 10.9729 13.1346 11.2527 13.4143C11.5313 13.6934 12.0027 14.111 12.6667 14.667C13.3676 14.0737 13.8389 13.6561 14.0807 13.4143Z" stroke="#5E5E65" stroke-width="1.33333" stroke-linecap="round" stroke-linejoin="round"/>
</svg>
