<svg width="600" height="183" viewBox="0 0 600 183" fill="none" xmlns="http://www.w3.org/2000/svg">
<rect x="13.8613" y="169.128" width="556.436" height="13.3663" fill="#005271"/>
<g clip-path="url(#clip0_2790_14911)">
<mask id="mask0_2790_14911" style="mask-type:alpha" maskUnits="userSpaceOnUse" x="133" y="-6" width="161" height="188">
<rect width="141.089" height="171.596" transform="matrix(0.9929 -0.118948 -0.118948 -0.9929 153.777 181.425)" fill="#D9D9D9"/>
</mask>
<g mask="url(#mask0_2790_14911)">
<path d="M261.576 199.583C271.276 191.313 251.792 149.302 240.839 145.029C229.885 140.755 213.243 143.595 206.449 149.148C199.656 154.701 186.804 201.263 198.202 207.175C209.601 213.088 251.877 207.854 261.576 199.583Z" fill="white"/>
<path d="M255.143 185.266C256.714 198.378 245.867 202.872 232.023 204.53C218.178 206.189 206.577 204.384 205.006 191.272C202.941 174.035 212.996 162.934 226.841 161.275C240.686 159.617 253.078 168.029 255.143 185.266Z" fill="#F4F4F4"/>
<path d="M170.786 53.7934C176.245 66.0686 196.072 89.0067 200.884 99.0153L234.554 94.9817C236.865 84.1198 249.415 57.303 252.873 43.9596C257.161 27.4106 248.27 7.63418 230.905 9.71448C216.568 11.4321 212.687 35.9124 212.321 48.8176C208.917 36.3641 198.872 13.5519 185.026 15.2106C167.662 17.2909 163.839 38.173 170.786 53.7934Z" fill="white"/>
<path d="M281.517 114.091C284.59 139.745 257.478 151.621 223.288 155.717C189.097 159.813 159.74 154.701 156.667 129.048C151.427 85.3054 177.968 66.9133 212.158 62.8173C246.349 58.7213 276.027 68.2657 281.517 114.091Z" fill="white"/>
<path d="M195.077 116.718L196.019 124.582" stroke="#123041" stroke-width="7.42575" stroke-linecap="round"/>
<path d="M254.553 109.593L255.495 117.458" stroke="#123041" stroke-width="7.42575" stroke-linecap="round"/>
<path d="M182.628 137.653L190.001 136.77" stroke="#FFD2D2" stroke-width="9.90099" stroke-linecap="round"/>
<path d="M264.224 127.879L271.597 126.996" stroke="#FFD2D2" stroke-width="9.90099" stroke-linecap="round"/>
<path d="M235.368 132.563C235.899 136.992 236.166 139.219 228.055 140.19C219.945 141.162 219.726 139.331 219.148 134.506C218.57 129.681 221.28 121.557 225.759 121.021C230.238 120.484 234.838 128.133 235.368 132.563Z" fill="#FFD2D2"/>
<path fill-rule="evenodd" clip-rule="evenodd" d="M219.672 128.735C220.666 124.95 222.835 121.371 225.757 121.021C228.639 120.676 231.571 123.72 233.437 127.115C231.601 128.255 229.304 129.07 226.758 129.375C224.187 129.683 221.739 129.426 219.672 128.735Z" fill="#E7EAEE"/>
<path d="M222.922 114.379C223.886 114.264 224.377 114.613 225.028 114.943C225.583 114.468 225.977 114.013 226.942 113.898C228.148 113.753 229 114.933 228.79 115.716C228.509 116.769 227.155 117.951 225.462 118.562C223.671 118.369 222.077 117.54 221.555 116.583C221.167 115.872 221.716 114.524 222.922 114.379Z" fill="#FFD2D2"/>
<rect x="158.415" y="169.128" width="123.267" height="13.3663" fill="#123041"/>
</g>
<path d="M213.234 172.677C213.015 176.909 205.905 180.037 197.714 179.612C189.522 179.187 183.352 175.368 183.571 171.136C183.944 163.968 189.978 158.535 199.191 159.013C208.404 159.492 213.619 165.261 213.234 172.677Z" fill="white"/>
<path d="M270.657 172.677C270.437 176.909 263.328 180.037 255.137 179.612C246.945 179.187 240.774 175.368 240.994 171.136C241.366 163.968 247.401 158.535 256.614 159.013C265.827 159.492 271.042 165.261 270.657 172.677Z" fill="white"/>
</g>
<g clip-path="url(#clip1_2790_14911)">
<mask id="mask1_2790_14911" style="mask-type:alpha" maskUnits="userSpaceOnUse" x="-3" y="60" width="160" height="110">
<rect width="159.406" height="108.416" transform="matrix(1 0 0 -1 -2.47363 169.124)" fill="#D9D9D9"/>
</mask>
<g mask="url(#mask1_2790_14911)">
<path d="M22.0932 77.1203C37.08 85.9895 32.4502 90.4112 28.5781 96.9541C24.706 103.497 22.7538 109.503 8.07113 100.814C0.617532 96.403 -2.28586 87.5231 1.58622 80.9802C5.4583 74.4374 14.6396 72.7092 22.0932 77.1203Z" fill="white"/>
<path d="M44.0598 78.6373C44.0598 86.8981 41.1784 86.947 37.6241 86.947C34.0698 86.947 31.1885 86.8981 31.1885 78.6373C31.1885 70.3764 35.1329 63.6797 37.6241 63.6797C40.1153 63.6797 44.0598 70.3764 44.0598 78.6373Z" fill="#6A5B3D"/>
<path d="M121.782 78.6373C121.782 86.8981 118.901 86.947 115.347 86.947C111.792 86.947 108.911 86.8981 108.911 78.6373C108.911 70.3764 112.856 63.6797 115.347 63.6797C117.838 63.6797 121.782 70.3764 121.782 78.6373Z" fill="#6A5B3D"/>
<path d="M132.295 77.1203C117.308 85.9895 121.938 90.4112 125.81 96.9541C129.682 103.497 131.634 109.503 146.317 100.814C153.77 96.403 156.674 87.5231 152.801 80.9802C148.929 74.4374 139.748 72.7092 132.295 77.1203Z" fill="#123041"/>
<path d="M135.992 84.6809C128.523 89.1014 130.457 90.6741 131.926 93.1566C133.395 95.639 133.995 98.0015 141.313 93.6707C145.027 91.4722 146.848 87.6775 145.379 85.195C143.91 82.7126 139.707 82.4824 135.992 84.6809Z" fill="#FFC0C1"/>
<path d="M17.953 84.6809C25.4225 89.1014 23.4885 90.6741 22.0194 93.1566C20.5503 95.639 19.9508 98.0015 12.6328 93.6707C8.91781 91.4722 7.09721 87.6775 8.56634 85.195C10.0355 82.7126 14.238 82.4824 17.953 84.6809Z" fill="#FFC0C1"/>
<path d="M108.149 209.313C118.763 202.255 104.415 158.225 94.0478 152.679C83.6804 147.134 66.8183 147.974 59.4129 152.679C52.0075 157.385 33.7076 202.087 44.3219 209.313C54.9362 216.54 97.535 216.372 108.149 209.313Z" fill="white"/>
<path d="M104.457 193.343C104.457 206.549 93.1533 209.721 79.2095 209.721C65.2656 209.721 53.9619 206.549 53.9619 193.343C53.9619 175.983 65.2656 166.156 79.2095 166.156C93.1533 166.156 104.457 175.983 104.457 193.343Z" fill="#FFC0C1"/>
<path d="M139.112 128.286C139.112 154.124 110.78 162.691 76.3447 162.691C41.9098 162.691 13.3691 154.124 13.3691 128.286C13.3691 84.2315 41.9098 69.127 76.3447 69.127C110.78 69.127 139.112 82.1337 139.112 128.286Z" fill="white"/>
<path fill-rule="evenodd" clip-rule="evenodd" d="M80.7197 69.2007C81.0092 77.4445 82.7311 88.2565 88.1326 92.6291C92.8828 96.4746 98.3649 97.4539 103.264 98.329C107.45 99.0769 111.211 99.7487 113.724 102.069C115.059 103.301 116.244 105.012 117.527 106.865C121.393 112.447 126.152 119.321 138.628 118.306C134.937 81.9879 110.566 70.2116 80.7197 69.2007Z" fill="#123041"/>
<path d="M55.9404 141.995C55.9404 131.825 64.1855 123.58 74.3563 123.58H83.5642C93.735 123.58 101.98 131.825 101.98 141.995C101.98 148.776 96.4833 154.273 89.7028 154.273H68.2176C61.4371 154.273 55.9404 148.776 55.9404 141.995Z" fill="#FFC0C1"/>
<path d="M69.3086 137.443V142.888" stroke="#123041" stroke-width="4.9505" stroke-linecap="round"/>
<path d="M89.1113 137.443L89.1113 142.888" stroke="#123041" stroke-width="4.9505" stroke-linecap="round"/>
<path d="M31.1885 142.888H38.6142" stroke="#FFC0C1" stroke-width="9.90099" stroke-linecap="round"/>
<path d="M119.805 142.888H127.23" stroke="#FFC0C1" stroke-width="9.90099" stroke-linecap="round"/>
<path d="M49.2373 130.583C49.2373 130.583 47.7387 128.864 44.3668 128.864C40.9948 128.864 39.4962 130.583 39.4962 130.583" stroke="#123041" stroke-width="6.10934" stroke-linecap="round"/>
<path d="M118.483 130.583C118.483 130.583 116.985 128.864 113.613 128.864C110.241 128.864 108.742 130.583 108.742 130.583" stroke="#123041" stroke-width="6.10934" stroke-linecap="round"/>
</g>
<path d="M64.7187 172.677C64.4989 176.909 57.3893 180.037 49.1981 179.612C41.0068 179.187 34.8359 175.368 35.0557 171.136C35.428 163.968 41.4623 158.535 50.6753 159.013C59.8883 159.492 65.1038 165.261 64.7187 172.677Z" fill="white"/>
<path d="M122.143 172.677C121.923 176.909 114.813 180.037 106.622 179.612C98.4307 179.187 92.2598 175.368 92.4795 171.136C92.8518 163.968 98.8862 158.535 108.099 159.013C117.312 159.492 122.528 165.261 122.143 172.677Z" fill="white"/>
</g>
<path d="M361.748 172.677C361.528 176.909 354.419 180.037 346.227 179.612C338.036 179.187 331.865 175.368 332.085 171.136C332.457 163.968 338.492 158.535 347.705 159.013C356.918 159.492 362.133 165.261 361.748 172.677Z" fill="#5BB42B"/>
<path d="M419.172 172.677C418.952 176.909 411.842 180.037 403.651 179.612C395.46 179.187 389.289 175.368 389.509 171.136C389.881 163.968 395.915 158.535 405.128 159.013C414.341 159.492 419.557 165.261 419.172 172.677Z" fill="#5BB42B"/>
<ellipse cx="19.788" cy="21.3241" rx="19.788" ry="21.3241" transform="matrix(-0.877234 -0.480064 -0.480064 0.877234 447.103 100.064)" fill="#5BB42B"/>
<ellipse cx="333.534" cy="108.721" rx="19.788" ry="21.3241" transform="rotate(-28.6896 333.534 108.721)" fill="#5BB42B"/>
<path d="M312.447 143.517C312.447 169.627 339.525 169.622 374.502 169.622C409.48 169.622 440.17 169.627 440.17 143.517C440.17 106.009 411.18 89.9194 376.203 89.9194C341.225 89.9194 312.447 103.038 312.447 143.517Z" fill="#5BB42B"/>
<path d="M426.804 134.474H418.388" stroke="#A1DC3C" stroke-width="9.90099" stroke-linecap="round"/>
<path d="M335.22 134.474H326.804" stroke="#A1DC3C" stroke-width="9.90099" stroke-linecap="round"/>
<path d="M335.643 115.662L331.683 116.652" stroke="#123041" stroke-width="7.42575" stroke-linecap="round"/>
<path d="M411.878 116.157L415.838 117.147" stroke="#123041" stroke-width="7.42575" stroke-linecap="round"/>
<path d="M354.947 117.89C356.02 118.633 358.957 120.118 362.125 120.118C366.086 120.118 367.571 116.652 371.779 116.652C375.987 116.652 377.472 120.118 381.432 120.118C384.601 120.118 387.538 118.633 388.611 117.89" stroke="#4B890D" stroke-width="2.47525" stroke-linecap="round"/>
<g clip-path="url(#clip2_2790_14911)">
<mask id="mask2_2790_14911" style="mask-type:alpha" maskUnits="userSpaceOnUse" x="447" y="35" width="160" height="153">
<rect x="586.81" y="187.261" width="141.089" height="132.839" transform="rotate(-171.59 586.81 187.261)" fill="#D9D9D9"/>
</mask>
<g mask="url(#mask2_2790_14911)">
<g clip-path="url(#clip3_2790_14911)">
<path d="M481.091 203.49C471.623 194.955 492.256 153.497 503.323 149.527C514.39 145.558 530.948 148.855 537.586 154.593C544.223 160.331 555.789 207.229 544.232 212.825C532.675 218.421 490.558 212.025 481.091 203.49Z" fill="#FFDB40"/>
<path d="M462.604 116.848C458.825 142.407 485.599 155.027 519.664 160.063C553.729 165.099 583.216 160.798 586.994 135.238C593.437 91.657 567.413 72.5407 533.348 67.5046C499.283 62.4684 469.354 71.1916 462.604 116.848Z" fill="#FFDB40"/>
<path d="M563.11 144.467L555.764 143.381" stroke="#FCA18E" stroke-width="9.90099" stroke-linecap="round"/>
<path d="M481.814 132.447L474.469 131.361" stroke="#FCA18E" stroke-width="9.90099" stroke-linecap="round"/>
<path d="M547.559 116.744L546.4 124.579" stroke="#123041" stroke-width="7.42575" stroke-linecap="round"/>
<path d="M488.303 107.982L487.144 115.818" stroke="#123041" stroke-width="7.42575" stroke-linecap="round"/>
<path d="M500.806 126.729C500.147 131.192 505.456 133.923 512.353 134.942C519.25 135.962 525.123 134.885 525.782 130.422C526.442 125.959 521.639 119.801 514.742 118.781C507.845 117.762 501.466 122.267 500.806 126.729Z" fill="#FFB132"/>
<path d="M531.365 49.8042C537.82 57.4904 540.996 65.5097 541.264 72.4208L528.397 69.0939C523.098 67.724 518.879 60.6161 520.256 52.9491C521.633 45.2822 528.082 45.8955 531.365 49.8042Z" fill="#FFDB40"/>
<path d="M543.472 62.23C540.825 64.1466 539.513 68.982 539.188 71.1602C543.73 71.4084 551.452 71.1425 553.224 68.4725C554.997 65.8025 554.683 62.1109 553.167 61.0179C551.652 59.9249 546.781 59.8344 543.472 62.23Z" fill="#FFDB40"/>
<rect x="446.037" y="169.132" width="123.267" height="13.3663" fill="#123041"/>
</g>
</g>
<path d="M535.279 172.678C535.499 176.91 542.609 180.039 550.8 179.613C558.991 179.188 565.162 175.37 564.942 171.138C564.57 163.969 558.536 158.536 549.323 159.015C540.11 159.493 534.894 165.262 535.279 172.678Z" fill="#FFDB40"/>
<path d="M477.856 172.678C478.076 176.91 485.186 180.039 493.377 179.613C501.568 179.188 507.739 175.37 507.519 171.138C507.147 163.969 501.113 158.536 491.9 159.015C482.687 159.493 477.471 165.262 477.856 172.678Z" fill="#FFDB40"/>
</g>
<defs>
<clipPath id="clip0_2790_14911">
<rect width="159.406" height="180.198" fill="white" transform="translate(148.515 0.316406)"/>
</clipPath>
<clipPath id="clip1_2790_14911">
<rect width="159.406" height="133.003" fill="white" transform="translate(0 47.5103)"/>
</clipPath>
<clipPath id="clip2_2790_14911">
<rect width="159.406" height="152.847" fill="white" transform="matrix(-1 0 0 1 600 27.668)"/>
</clipPath>
<clipPath id="clip3_2790_14911">
<rect width="139.109" height="237.949" fill="white" transform="matrix(-0.989247 -0.146252 -0.146252 0.989247 605.409 47.9062)"/>
</clipPath>
</defs>
</svg>
