<svg width="65" height="49" viewBox="0 0 65 49" fill="none" xmlns="http://www.w3.org/2000/svg">
<g id="stars">
<path id="Star 60" d="M50.0214 24.6324C50.3751 23.6767 51.7269 23.6767 52.0805 24.6324L54.468 31.0845C54.5792 31.385 54.8161 31.6219 55.1166 31.7331L61.5687 34.1205C62.5244 34.4742 62.5244 35.826 61.5687 36.1797L55.1166 38.5671C54.8161 38.6783 54.5792 38.9152 54.468 39.2157L52.0805 45.6678C51.7269 46.6235 50.3751 46.6235 50.0214 45.6678L47.6339 39.2157C47.5228 38.9152 47.2858 38.6783 46.9854 38.5671L40.5333 36.1797C39.5776 35.826 39.5776 34.4742 40.5333 34.1205L46.9854 31.7331C47.2858 31.6219 47.5228 31.385 47.6339 31.0845L50.0214 24.6324Z" fill="white"/>
<path id="Star 61" d="M12.9716 2.78232C13.3253 1.82658 14.6771 1.82658 15.0307 2.78232L17.4182 9.23439C17.5294 9.53487 17.7663 9.77178 18.0668 9.88297L24.5189 12.2704C25.4746 12.6241 25.4746 13.9759 24.5188 14.3296L18.0668 16.717C17.7663 16.8282 17.5294 17.0651 17.4182 17.3656L15.0307 23.8177C14.6771 24.7734 13.3253 24.7734 12.9716 23.8177L10.5841 17.3656C10.473 17.0651 10.236 16.8282 9.93556 16.717L3.48349 14.3296C2.52775 13.9759 2.52775 12.6241 3.4835 12.2704L9.93556 9.88297C10.236 9.77178 10.473 9.53487 10.5841 9.23439L12.9716 2.78232Z" fill="white"/>
</g>
</svg>
