<svg width="200" height="57" viewBox="0 0 200 57" fill="none" xmlns="http://www.w3.org/2000/svg">
<path d="M17.1188 28.7909V20.6264L0 37.7527L4.04434 41.8827L17.1188 28.7909ZM56.1268 23.6881C54.8584 17.3096 50.0642 12.5258 49.5137 11.9597L37.7475 0L31.0229 6.72135L30.5442 7.19971V15.3642L37.7236 8.1884L44.4164 14.9895L45.4375 16.0259L45.5092 16.0977C45.5092 16.0977 45.956 16.5362 46.5702 17.2698C48.4542 19.4336 49.7919 22.0173 50.4711 24.8043C51.4283 29.5882 51.9069 35.2252 46.5702 42.0661V50.5017C47.0728 50.0632 47.3679 49.7522 47.5035 49.6406C52.2898 44.9524 55.1535 40.2164 56.2783 35.1535C57.0566 31.3659 57.0077 27.455 56.1348 23.6881H56.1268ZM20.4851 48.8911L20.3096 48.8034H20.2219C19.7005 48.5311 19.204 48.2137 18.7382 47.8546C18.2994 47.5437 17.765 47.129 17.1428 46.5948C16.1695 45.7975 14.957 44.7132 13.4812 43.2701L10.1708 39.8895L6.08652 43.9717L9.38106 47.3284V47.3762C14.4784 52.3514 17.0949 53.7547 18.0601 54.1613C21.1165 55.666 24.4287 56.5829 27.8241 56.8642C29.3843 56.9859 30.9527 56.9539 32.5066 56.7685L32.8815 56.7287V50.8764C28.6459 51.547 24.3067 50.8516 20.4931 48.8911H20.4851Z" fill="white"/>
<path d="M27.6643 10.0859V44.9444H20.0143V17.7401L20.7801 16.9747L21.1949 16.5601L23.5083 14.2479L25.0717 12.6852L25.5823 12.1749L27.1538 10.6042L27.6643 10.0859Z" fill="white"/>
<path d="M43.6824 17.875V52.6537L43.5867 52.7254C43.2357 52.9487 42.8607 53.1799 42.4619 53.4032C42.3342 53.4829 42.1986 53.5547 42.063 53.6264C41.712 53.8257 41.3371 54.0251 40.9542 54.2164C40.5713 54.4078 40.2283 54.5672 39.8454 54.7347L39.2152 55.0058L38.3537 55.3406L37.6517 55.5878C37.173 55.7473 36.6785 55.8987 36.1679 56.0343L35.793 56.13V17.875H43.6824Z" fill="white"/>
<path d="M35.7932 27.0684H27.6645V34.9617H35.7932V27.0684Z" fill="white"/>
<path d="M78.7158 12.2168H82.3896V29.3857H78.7158V22.2882H70.8936V29.3857H67.2199V12.2168H70.8936V18.9644H78.7158V12.2168ZM91.9653 16.1654C95.3391 16.1654 97.6383 18.2896 97.6383 21.6635V29.3857H94.1145V28.0862C93.1899 29.1358 91.7154 29.6856 90.3159 29.6856C87.5668 29.6856 85.4426 28.0362 85.4426 25.5621C85.4426 23.013 87.8167 21.2636 90.8157 21.2636C91.8653 21.2636 93.0149 21.4885 94.1145 21.9134V21.6635C94.1145 20.2889 93.2648 19.0894 91.1406 19.0894C89.941 19.0894 88.8164 19.4892 87.7918 20.014L86.5672 17.5899C88.3915 16.6652 90.1659 16.1654 91.9653 16.1654ZM91.1406 27.1615C92.5401 27.1615 93.8646 26.5118 94.1145 25.3122V24.1126C93.2898 23.8127 92.3402 23.6378 91.3405 23.6378C90.016 23.6378 88.9663 24.4125 88.9663 25.4621C88.9663 26.5118 89.891 27.1615 91.1406 27.1615ZM107.536 29.6856C103.713 29.6856 100.489 26.5867 100.489 22.913C100.489 19.2393 103.738 16.1654 107.561 16.1654C109.66 16.1654 111.385 17.0151 112.634 18.3646L110.21 20.4389C109.56 19.7141 108.536 19.2393 107.536 19.2393C105.637 19.2393 104.037 20.9137 104.037 22.888C104.037 24.9123 105.637 26.6117 107.561 26.6117C108.561 26.6117 109.61 26.1119 110.285 25.3622L112.709 27.4114C111.435 28.8109 109.685 29.6856 107.536 29.6856ZM127.975 16.4653L122.952 22.1883L127.925 29.3857H123.727L120.528 24.5374L118.978 26.2119V29.3857H115.33V11.9169H118.978V22.0383L123.777 16.4653H127.975ZM130.432 29.3857V12.2168H136.579C142.352 12.2168 146.451 15.7655 146.451 20.7888C146.451 25.812 142.352 29.3857 136.579 29.3857H130.432ZM134.105 26.0369H137.054C140.328 26.0369 142.652 23.8627 142.652 20.7888C142.652 17.7398 140.328 15.5656 137.054 15.5656H134.105V26.0369ZM155.466 16.1654C158.84 16.1654 161.139 18.2896 161.139 21.6635V29.3857H157.616V28.0862C156.691 29.1358 155.216 29.6856 153.817 29.6856C151.068 29.6856 148.944 28.0362 148.944 25.5621C148.944 23.013 151.318 21.2636 154.317 21.2636C155.366 21.2636 156.516 21.4885 157.616 21.9134V21.6635C157.616 20.2889 156.766 19.0894 154.642 19.0894C153.442 19.0894 152.318 19.4892 151.293 20.014L150.068 17.5899C151.893 16.6652 153.667 16.1654 155.466 16.1654ZM154.642 27.1615C156.041 27.1615 157.366 26.5118 157.616 25.3122V24.1126C156.791 23.8127 155.841 23.6378 154.842 23.6378C153.517 23.6378 152.467 24.4125 152.467 25.4621C152.467 26.5118 153.392 27.1615 154.642 27.1615ZM169.038 29.3857L163.44 16.4653H167.264L170.737 25.1872L174.136 16.4653H177.935L172.412 29.3857H169.038ZM182.195 14.6909C181.07 14.6909 180.195 13.7912 180.195 12.6916C180.195 11.667 181.07 10.7423 182.195 10.7423C183.269 10.7423 184.144 11.667 184.144 12.6916C184.144 13.7912 183.269 14.6909 182.195 14.6909ZM180.345 29.3857V16.4653H183.994V29.3857H180.345ZM192.527 29.6856C190.453 29.6856 188.254 28.9859 186.704 27.7363L188.279 25.2122C189.428 26.0369 190.878 26.6617 192.602 26.6617C193.577 26.6617 194.277 26.2618 194.277 25.687C194.277 24.8873 193.327 24.6374 192.003 24.2875C189.354 23.6378 187.304 22.913 187.279 20.3639C187.254 17.9148 189.279 16.1654 192.327 16.1654C194.177 16.1654 196.001 16.8152 197.426 17.7648L195.951 20.3639C194.777 19.6392 193.427 19.2143 192.327 19.2143C191.428 19.2143 190.803 19.5392 190.803 19.989C190.803 20.6888 191.328 20.8887 193.077 21.3636C195.301 21.9384 197.776 22.6881 197.776 25.5121C197.776 28.0612 195.701 29.6856 192.527 29.6856Z" fill="white"/>
<path d="M66.2419 45.3321L69.2495 37.9434H70.0145L66.9982 45.3321H66.2419ZM71.6279 45.3321L74.6356 37.9434H75.4005L72.3842 45.3321H71.6279ZM78.9698 44.6541C78.5815 44.6541 78.2338 44.5643 77.9267 44.3846C77.6253 44.205 77.3848 43.9471 77.2052 43.611C77.0255 43.2691 76.9357 42.8634 76.9357 42.394C76.9357 41.9246 77.0255 41.5219 77.2052 41.1858C77.3848 40.8439 77.6282 40.5831 77.9353 40.4034C78.2483 40.2238 78.5931 40.134 78.9698 40.134C79.5029 40.134 79.9288 40.2673 80.2476 40.5338C80.5663 40.8004 80.7691 41.1568 80.8561 41.603H80.1085C80.039 41.3654 79.9057 41.1771 79.7086 41.038C79.5116 40.8931 79.2624 40.8207 78.9611 40.8207C78.7409 40.8207 78.5322 40.8786 78.3352 40.9945C78.1382 41.1104 77.9788 41.2843 77.8571 41.5161C77.7354 41.7479 77.6746 42.0405 77.6746 42.394C77.6746 42.7475 77.7354 43.0431 77.8571 43.2807C77.9788 43.5125 78.1382 43.6863 78.3352 43.8022C78.5322 43.9181 78.7409 43.9761 78.9611 43.9761C79.2798 43.9761 79.5319 43.9037 79.7173 43.7588C79.9086 43.6139 80.039 43.4227 80.1085 43.1851H80.8561C80.746 43.6429 80.5286 44.0022 80.2041 44.2629C79.8854 44.5237 79.4739 44.6541 78.9698 44.6541ZM82.4086 44.5498V43.9239H83.5126V41.0815C83.5126 40.9366 83.4431 40.8641 83.304 40.8641H82.5216V40.2383H83.5734C83.7647 40.2383 83.9182 40.2904 84.0342 40.3947C84.1501 40.4991 84.208 40.6526 84.208 40.8555V41.038H84.2428C84.3123 40.7482 84.4427 40.5251 84.6339 40.3687C84.831 40.2122 85.1033 40.134 85.451 40.134H86.2421V40.9076H85.3467C84.9932 40.9076 84.7209 41.0264 84.5296 41.264C84.3384 41.4958 84.2428 41.7943 84.2428 42.1593V43.9239H85.5988V44.5498H82.4086ZM89.7157 44.6541C89.3101 44.6541 88.9508 44.5614 88.6378 44.376C88.3307 44.1847 88.0873 43.921 87.9077 43.5849C87.728 43.243 87.6382 42.8461 87.6382 42.394C87.6382 41.942 87.7251 41.548 87.899 41.2118C88.0786 40.8699 88.3249 40.6063 88.6378 40.4208C88.9508 40.2296 89.3159 40.134 89.7331 40.134C90.1503 40.134 90.5067 40.2296 90.8023 40.4208C91.0978 40.6063 91.3238 40.8526 91.4803 41.1597C91.6368 41.4668 91.715 41.7971 91.715 42.1506C91.715 42.2144 91.7121 42.2781 91.7063 42.3419C91.7063 42.4056 91.7063 42.4781 91.7063 42.5592H88.3597C88.3771 42.8779 88.4495 43.1445 88.577 43.3589C88.7103 43.5675 88.8754 43.724 89.0725 43.8283C89.2753 43.9326 89.4897 43.9848 89.7157 43.9848C90.0344 43.9848 90.2836 43.9181 90.4633 43.7849C90.6429 43.6516 90.7791 43.4661 90.8718 43.2285H91.5933C91.4948 43.6284 91.2891 43.9674 90.9761 44.2456C90.6632 44.5179 90.2431 44.6541 89.7157 44.6541ZM89.7157 40.7859C89.3796 40.7859 89.0841 40.8873 88.8291 41.0902C88.5799 41.293 88.4263 41.5769 88.3684 41.942H90.9935C90.9703 41.5827 90.84 41.3017 90.6024 41.0988C90.3706 40.8902 90.075 40.7859 89.7157 40.7859ZM94.6932 44.6541C94.3513 44.6541 94.0673 44.5933 93.8413 44.4716C93.6153 44.3499 93.4472 44.1905 93.3371 43.9935C93.227 43.7907 93.172 43.5704 93.172 43.3328C93.172 42.8924 93.3313 42.5592 93.6501 42.3332C93.9746 42.1014 94.4063 41.9855 94.9453 41.9855H96.1275V41.8986C96.1275 41.1452 95.7826 40.7685 95.093 40.7685C94.8149 40.7685 94.5802 40.8294 94.3889 40.9511C94.2035 41.0728 94.0847 41.264 94.0325 41.5248H93.285C93.3139 41.235 93.4096 40.9858 93.5718 40.7772C93.7399 40.5686 93.9543 40.4092 94.2151 40.2991C94.4759 40.189 94.7685 40.134 95.093 40.134C95.7073 40.134 96.1535 40.2962 96.4317 40.6208C96.7157 40.9395 96.8576 41.3654 96.8576 41.8986V44.5498H96.2318L96.1709 43.8805H96.1101C95.9826 44.0891 95.8116 44.2716 95.5972 44.4281C95.3886 44.5788 95.0872 44.6541 94.6932 44.6541ZM94.8236 44.0109C95.1017 44.0109 95.3364 43.9442 95.5277 43.8109C95.7247 43.6776 95.8725 43.5009 95.971 43.2807C96.0753 43.0605 96.1275 42.82 96.1275 42.5592H95.0061C94.612 42.5592 94.3339 42.6258 94.1716 42.7591C94.0152 42.8924 93.9369 43.0692 93.9369 43.2894C93.9369 43.5154 94.0123 43.6921 94.1629 43.8196C94.3136 43.9471 94.5338 44.0109 94.8236 44.0109ZM100.896 44.5498C100.502 44.5498 100.192 44.4542 99.9662 44.2629C99.7402 44.0717 99.6272 43.7269 99.6272 43.2285V40.8641H98.5319V40.2383H99.1839C99.4794 40.2383 99.6504 40.0934 99.6967 39.8036L99.8184 39.1343H100.357V40.2383H102.078V40.8641H100.357V43.2285C100.357 43.4719 100.412 43.6429 100.523 43.7414C100.638 43.8399 100.835 43.8892 101.114 43.8892H102.078V44.5498H100.896ZM105.874 44.6541C105.468 44.6541 105.109 44.5614 104.796 44.376C104.489 44.1847 104.245 43.921 104.066 43.5849C103.886 43.243 103.796 42.8461 103.796 42.394C103.796 41.942 103.883 41.548 104.057 41.2118C104.237 40.8699 104.483 40.6063 104.796 40.4208C105.109 40.2296 105.474 40.134 105.891 40.134C106.308 40.134 106.665 40.2296 106.96 40.4208C107.256 40.6063 107.482 40.8526 107.638 41.1597C107.795 41.4668 107.873 41.7971 107.873 42.1506C107.873 42.2144 107.87 42.2781 107.864 42.3419C107.864 42.4056 107.864 42.4781 107.864 42.5592H104.518C104.535 42.8779 104.608 43.1445 104.735 43.3589C104.868 43.5675 105.033 43.724 105.231 43.8283C105.433 43.9326 105.648 43.9848 105.874 43.9848C106.192 43.9848 106.442 43.9181 106.621 43.7849C106.801 43.6516 106.937 43.4661 107.03 43.2285H107.751C107.653 43.6284 107.447 43.9674 107.134 44.2456C106.821 44.5179 106.401 44.6541 105.874 44.6541ZM105.874 40.7859C105.538 40.7859 105.242 40.8873 104.987 41.0902C104.738 41.293 104.584 41.5769 104.526 41.942H107.152C107.128 41.5827 106.998 41.3017 106.76 41.0988C106.529 40.8902 106.233 40.7859 105.874 40.7859ZM114.794 46.4622V45.7928H115.325C115.545 45.7928 115.701 45.7494 115.794 45.6625C115.887 45.5755 115.933 45.422 115.933 45.2017V40.8641H114.864V40.2383H115.933V39.5516C115.933 39.1053 116.04 38.7837 116.255 38.5867C116.469 38.3897 116.794 38.2911 117.228 38.2911H118.263V38.9518H117.272C117.057 38.9518 116.901 38.9981 116.802 39.0909C116.71 39.1778 116.663 39.3313 116.663 39.5516V40.2383H118.263V40.8641H116.663V45.2017C116.663 45.648 116.556 45.9696 116.342 46.1666C116.127 46.3637 115.805 46.4622 115.377 46.4622H114.794ZM121.988 44.6541C121.583 44.6541 121.223 44.5614 120.91 44.376C120.598 44.1905 120.351 43.9297 120.172 43.5936C119.992 43.2517 119.902 42.8519 119.902 42.394C119.902 41.9362 119.992 41.5393 120.172 41.2032C120.351 40.8612 120.598 40.5976 120.91 40.4121C121.223 40.2267 121.583 40.134 121.988 40.134C122.394 40.134 122.753 40.2267 123.066 40.4121C123.379 40.5976 123.625 40.8612 123.805 41.2032C123.985 41.5393 124.075 41.9362 124.075 42.394C124.075 42.8519 123.985 43.2517 123.805 43.5936C123.625 43.9297 123.379 44.1905 123.066 44.376C122.753 44.5614 122.394 44.6541 121.988 44.6541ZM121.988 43.9587C122.238 43.9587 122.464 43.9037 122.666 43.7935C122.869 43.6834 123.029 43.5125 123.144 43.2807C123.266 43.0489 123.327 42.7533 123.327 42.394C123.327 42.0347 123.266 41.7392 123.144 41.5074C123.029 41.2756 122.869 41.1046 122.666 40.9945C122.464 40.8844 122.238 40.8294 121.988 40.8294C121.745 40.8294 121.522 40.8844 121.319 40.9945C121.116 41.1046 120.954 41.2756 120.832 41.5074C120.711 41.7392 120.65 42.0347 120.65 42.394C120.65 42.933 120.78 43.3299 121.041 43.5849C121.302 43.8341 121.617 43.9587 121.988 43.9587ZM125.497 44.5498V43.9239H126.601V41.0815C126.601 40.9366 126.531 40.8641 126.392 40.8641H125.61V40.2383H126.662C126.853 40.2383 127.006 40.2904 127.122 40.3947C127.238 40.4991 127.296 40.6526 127.296 40.8555V41.038H127.331C127.4 40.7482 127.531 40.5251 127.722 40.3687C127.919 40.2122 128.191 40.134 128.539 40.134H129.33V40.9076H128.435C128.081 40.9076 127.809 41.0264 127.618 41.264C127.426 41.4958 127.331 41.7943 127.331 42.1593V43.9239H128.687V44.5498H125.497ZM138.19 44.6541C137.639 44.6541 137.193 44.5266 136.851 44.2716C136.515 44.0109 136.327 43.6545 136.286 43.2025H137.042C137.077 43.44 137.193 43.6342 137.39 43.7849C137.593 43.9355 137.865 44.0109 138.207 44.0109C138.532 44.0109 138.772 43.9413 138.929 43.8022C139.091 43.6632 139.172 43.5038 139.172 43.3241C139.172 43.0808 139.076 42.9156 138.885 42.8287C138.694 42.7359 138.407 42.6664 138.025 42.62C137.567 42.5679 137.187 42.4433 136.886 42.2463C136.585 42.0492 136.434 41.7537 136.434 41.3596C136.434 41.0061 136.582 40.7135 136.877 40.4817C137.173 40.2499 137.576 40.134 138.086 40.134C138.59 40.134 138.987 40.2499 139.276 40.4817C139.566 40.7077 139.731 41.0322 139.772 41.4552H139.05C139.033 41.2466 138.932 41.0815 138.746 40.9598C138.567 40.8323 138.341 40.7685 138.068 40.7685C137.784 40.7685 137.564 40.8236 137.407 40.9337C137.251 41.038 137.173 41.1771 137.173 41.3509C137.173 41.5248 137.26 41.6697 137.434 41.7856C137.613 41.8957 137.894 41.9681 138.277 42.0029C138.578 42.0376 138.853 42.0956 139.103 42.1767C139.352 42.2579 139.549 42.3853 139.694 42.5592C139.844 42.7331 139.92 42.9764 139.92 43.2894C139.925 43.5502 139.853 43.7849 139.702 43.9935C139.557 44.1963 139.355 44.3586 139.094 44.4803C138.833 44.5962 138.532 44.6541 138.19 44.6541ZM143.532 44.6541C143.127 44.6541 142.767 44.5614 142.455 44.376C142.142 44.1905 141.895 43.9297 141.716 43.5936C141.536 43.2517 141.446 42.8519 141.446 42.394C141.446 41.9362 141.536 41.5393 141.716 41.2032C141.895 40.8612 142.142 40.5976 142.455 40.4121C142.767 40.2267 143.127 40.134 143.532 40.134C143.938 40.134 144.297 40.2267 144.61 40.4121C144.923 40.5976 145.169 40.8612 145.349 41.2032C145.529 41.5393 145.619 41.9362 145.619 42.394C145.619 42.8519 145.529 43.2517 145.349 43.5936C145.169 43.9297 144.923 44.1905 144.61 44.376C144.297 44.5614 143.938 44.6541 143.532 44.6541ZM143.532 43.9587C143.782 43.9587 144.008 43.9037 144.21 43.7935C144.413 43.6834 144.573 43.5125 144.689 43.2807C144.81 43.0489 144.871 42.7533 144.871 42.394C144.871 42.0347 144.81 41.7392 144.689 41.5074C144.573 41.2756 144.413 41.1046 144.21 40.9945C144.008 40.8844 143.782 40.8294 143.532 40.8294C143.289 40.8294 143.066 40.8844 142.863 40.9945C142.66 41.1046 142.498 41.2756 142.376 41.5074C142.255 41.7392 142.194 42.0347 142.194 42.394C142.194 42.933 142.324 43.3299 142.585 43.5849C142.846 43.8341 143.162 43.9587 143.532 43.9587ZM148.988 44.6541C148.6 44.6541 148.252 44.5643 147.945 44.3846C147.643 44.205 147.403 43.9471 147.223 43.611C147.044 43.2691 146.954 42.8634 146.954 42.394C146.954 41.9246 147.044 41.5219 147.223 41.1858C147.403 40.8439 147.646 40.5831 147.954 40.4034C148.266 40.2238 148.611 40.134 148.988 40.134C149.521 40.134 149.947 40.2673 150.266 40.5338C150.584 40.8004 150.787 41.1568 150.874 41.603H150.127C150.057 41.3654 149.924 41.1771 149.727 41.038C149.53 40.8931 149.281 40.8207 148.979 40.8207C148.759 40.8207 148.55 40.8786 148.353 40.9945C148.156 41.1104 147.997 41.2843 147.875 41.5161C147.754 41.7479 147.693 42.0405 147.693 42.394C147.693 42.7475 147.754 43.0431 147.875 43.2807C147.997 43.5125 148.156 43.6863 148.353 43.8022C148.55 43.9181 148.759 43.9761 148.979 43.9761C149.298 43.9761 149.55 43.9037 149.735 43.7588C149.927 43.6139 150.057 43.4227 150.127 43.1851H150.874C150.764 43.6429 150.547 44.0022 150.222 44.2629C149.904 44.5237 149.492 44.6541 148.988 44.6541ZM154.252 39.4733C154.078 39.4733 153.934 39.4154 153.818 39.2995C153.702 39.1836 153.644 39.0445 153.644 38.8822C153.644 38.7142 153.702 38.5751 153.818 38.465C153.934 38.3491 154.078 38.2911 154.252 38.2911C154.42 38.2911 154.562 38.3491 154.678 38.465C154.8 38.5751 154.861 38.7142 154.861 38.8822C154.861 39.0445 154.8 39.1836 154.678 39.2995C154.562 39.4154 154.42 39.4733 154.252 39.4733ZM152.566 44.5498V43.9239H153.939V41.0815C153.939 40.9366 153.867 40.8641 153.722 40.8641H152.714V40.2383H153.896C154.412 40.2383 154.67 40.4962 154.67 41.0119V43.9239H156.043V44.5498H152.566ZM159.325 44.6541C158.983 44.6541 158.699 44.5933 158.473 44.4716C158.247 44.3499 158.079 44.1905 157.969 43.9935C157.859 43.7907 157.804 43.5704 157.804 43.3328C157.804 42.8924 157.963 42.5592 158.282 42.3332C158.607 42.1014 159.038 41.9855 159.577 41.9855H160.76V41.8986C160.76 41.1452 160.415 40.7685 159.725 40.7685C159.447 40.7685 159.212 40.8294 159.021 40.9511C158.836 41.0728 158.717 41.264 158.665 41.5248H157.917C157.946 41.235 158.042 40.9858 158.204 40.7772C158.372 40.5686 158.586 40.4092 158.847 40.2991C159.108 40.189 159.401 40.134 159.725 40.134C160.339 40.134 160.786 40.2962 161.064 40.6208C161.348 40.9395 161.49 41.3654 161.49 41.8986V44.5498H160.864L160.803 43.8805H160.742C160.615 44.0891 160.444 44.2716 160.229 44.4281C160.021 44.5788 159.719 44.6541 159.325 44.6541ZM159.456 44.0109C159.734 44.0109 159.969 43.9442 160.16 43.8109C160.357 43.6776 160.505 43.5009 160.603 43.2807C160.707 43.0605 160.76 42.82 160.76 42.5592H159.638C159.244 42.5592 158.966 42.6258 158.804 42.7591C158.647 42.8924 158.569 43.0692 158.569 43.2894C158.569 43.5154 158.644 43.6921 158.795 43.8196C158.946 43.9471 159.166 44.0109 159.456 44.0109ZM163.121 44.5498V43.9239H164.59V39.1343C164.59 38.9894 164.517 38.917 164.372 38.917H163.277V38.2911H164.546C164.795 38.2911 164.987 38.3578 165.12 38.4911C165.253 38.6244 165.32 38.8156 165.32 39.0648V43.9239H166.789V44.5498H163.121ZM175.77 43.2807C175.469 43.2807 175.199 43.2256 174.962 43.1155L174.666 43.4719C174.603 43.5588 174.585 43.6458 174.614 43.7327C174.649 43.8138 174.733 43.8544 174.866 43.8544H176.005C176.521 43.8544 176.938 43.9558 177.257 44.1586C177.575 44.3557 177.735 44.6715 177.735 45.1061C177.735 45.3669 177.668 45.6074 177.535 45.8276C177.402 46.0478 177.19 46.2246 176.9 46.3579C176.616 46.4969 176.243 46.5665 175.779 46.5665C175.176 46.5665 174.692 46.4535 174.327 46.2275C173.962 46.0015 173.78 45.6567 173.78 45.1931C173.78 45.025 173.82 44.8685 173.901 44.7237C173.988 44.5846 174.095 44.46 174.223 44.3499C174.055 44.2456 173.951 44.0891 173.91 43.8805C173.875 43.6719 173.939 43.4661 174.101 43.2633L174.492 42.7765C174.214 42.4868 174.075 42.1304 174.075 41.7073C174.075 41.4292 174.142 41.1713 174.275 40.9337C174.408 40.6903 174.6 40.4962 174.849 40.3513C175.104 40.2064 175.411 40.134 175.77 40.134C176.002 40.134 176.216 40.1687 176.413 40.2383H178.03V40.7859L177.222 40.812V40.8728C177.373 41.122 177.448 41.4002 177.448 41.7073C177.448 41.9855 177.381 42.2463 177.248 42.4897C177.12 42.7273 176.929 42.9185 176.674 43.0634C176.425 43.2082 176.124 43.2807 175.77 43.2807ZM175.77 42.6548C176.054 42.6548 176.286 42.5708 176.466 42.4027C176.651 42.2347 176.744 42.0029 176.744 41.7073C176.744 41.4118 176.651 41.1829 176.466 41.0206C176.286 40.8526 176.054 40.7685 175.77 40.7685C175.48 40.7685 175.243 40.8526 175.057 41.0206C174.872 41.1829 174.779 41.4118 174.779 41.7073C174.779 42.0029 174.872 42.2347 175.057 42.4027C175.243 42.5708 175.48 42.6548 175.77 42.6548ZM174.501 45.167C174.501 45.422 174.62 45.6132 174.858 45.7407C175.095 45.8682 175.402 45.9319 175.779 45.9319C176.144 45.9319 176.44 45.8595 176.666 45.7146C176.897 45.5697 177.013 45.3756 177.013 45.1322C177.013 44.941 176.932 44.7787 176.77 44.6454C176.608 44.5179 176.309 44.4542 175.875 44.4542H174.892C174.631 44.6454 174.501 44.883 174.501 45.167ZM181.234 44.6541C180.829 44.6541 180.47 44.5614 180.157 44.376C179.844 44.1905 179.597 43.9297 179.418 43.5936C179.238 43.2517 179.148 42.8519 179.148 42.394C179.148 41.9362 179.238 41.5393 179.418 41.2032C179.597 40.8612 179.844 40.5976 180.157 40.4121C180.47 40.2267 180.829 40.134 181.234 40.134C181.64 40.134 181.999 40.2267 182.312 40.4121C182.625 40.5976 182.872 40.8612 183.051 41.2032C183.231 41.5393 183.321 41.9362 183.321 42.394C183.321 42.8519 183.231 43.2517 183.051 43.5936C182.872 43.9297 182.625 44.1905 182.312 44.376C181.999 44.5614 181.64 44.6541 181.234 44.6541ZM181.234 43.9587C181.484 43.9587 181.71 43.9037 181.913 43.7935C182.115 43.6834 182.275 43.5125 182.391 43.2807C182.512 43.0489 182.573 42.7533 182.573 42.394C182.573 42.0347 182.512 41.7392 182.391 41.5074C182.275 41.2756 182.115 41.1046 181.913 40.9945C181.71 40.8844 181.484 40.8294 181.234 40.8294C180.991 40.8294 180.768 40.8844 180.565 40.9945C180.362 41.1046 180.2 41.2756 180.078 41.5074C179.957 41.7392 179.896 42.0347 179.896 42.394C179.896 42.933 180.026 43.3299 180.287 43.5849C180.548 43.8341 180.864 43.9587 181.234 43.9587ZM186.62 44.6541C186.215 44.6541 185.856 44.5614 185.543 44.376C185.23 44.1905 184.983 43.9297 184.804 43.5936C184.624 43.2517 184.534 42.8519 184.534 42.394C184.534 41.9362 184.624 41.5393 184.804 41.2032C184.983 40.8612 185.23 40.5976 185.543 40.4121C185.856 40.2267 186.215 40.134 186.62 40.134C187.026 40.134 187.385 40.2267 187.698 40.4121C188.011 40.5976 188.258 40.8612 188.437 41.2032C188.617 41.5393 188.707 41.9362 188.707 42.394C188.707 42.8519 188.617 43.2517 188.437 43.5936C188.258 43.9297 188.011 44.1905 187.698 44.376C187.385 44.5614 187.026 44.6541 186.62 44.6541ZM186.62 43.9587C186.87 43.9587 187.096 43.9037 187.299 43.7935C187.501 43.6834 187.661 43.5125 187.777 43.2807C187.898 43.0489 187.959 42.7533 187.959 42.394C187.959 42.0347 187.898 41.7392 187.777 41.5074C187.661 41.2756 187.501 41.1046 187.299 40.9945C187.096 40.8844 186.87 40.8294 186.62 40.8294C186.377 40.8294 186.154 40.8844 185.951 40.9945C185.748 41.1046 185.586 41.2756 185.464 41.5074C185.343 41.7392 185.282 42.0347 185.282 42.394C185.282 42.933 185.412 43.3299 185.673 43.5849C185.934 43.8341 186.25 43.9587 186.62 43.9587ZM191.859 44.6541C191.494 44.6541 191.166 44.5672 190.876 44.3933C190.593 44.2195 190.369 43.9645 190.207 43.6284C190.045 43.2865 189.964 42.8721 189.964 42.3853C189.964 41.9044 190.045 41.4958 190.207 41.1597C190.369 40.8236 190.593 40.5686 190.876 40.3947C191.166 40.2209 191.494 40.134 191.859 40.134C192.201 40.134 192.482 40.2006 192.702 40.3339C192.928 40.4672 193.096 40.641 193.206 40.8555V38.2911H193.936V44.5498H193.336L193.258 43.8805H193.206C193.09 44.1181 192.919 44.3064 192.693 44.4455C192.467 44.5846 192.189 44.6541 191.859 44.6541ZM191.954 43.9587C192.319 43.9587 192.621 43.8312 192.858 43.5762C193.096 43.3155 193.215 42.9214 193.215 42.394C193.215 41.8667 193.096 41.4755 192.858 41.2205C192.621 40.9598 192.319 40.8294 191.954 40.8294C191.589 40.8294 191.288 40.9598 191.05 41.2205C190.819 41.4755 190.703 41.8667 190.703 42.394C190.703 42.9214 190.819 43.3155 191.05 43.5762C191.288 43.8312 191.589 43.9587 191.954 43.9587ZM195.437 45.2191V44.5498H199.348V45.2191H195.437Z" fill="white"/>
</svg>
