<svg width="375" height="145" viewBox="0 0 375 145" fill="none" xmlns="http://www.w3.org/2000/svg">
<path d="M316.251 54.4385H319.1C325.394 54.4385 330.497 59.5409 330.497 65.835V68.6841H327.648C321.354 68.6841 316.251 63.5817 316.251 57.2876V54.4385Z" fill="#93CA45"/>
<path d="M348.302 63.0879H344.842C337.2 63.0879 331.004 69.2836 331.004 76.9265V80.3861H334.463C342.106 80.3861 348.302 74.1904 348.302 66.5475V63.0879Z" fill="#93CA45"/>
<path d="M332.022 87V46.807" stroke="#93CA45" stroke-width="4.07018" stroke-linecap="round"/>
<path fill-rule="evenodd" clip-rule="evenodd" d="M339.674 7.65394C335.447 3.42679 328.594 3.42679 324.367 7.65394C321.022 10.9989 320.324 15.9883 322.272 20.0196C322.346 20.172 322.174 20.3442 322.021 20.2706C317.99 18.3219 313.001 19.02 309.656 22.3649C305.428 26.592 305.428 33.4456 309.656 37.6728C313.001 41.0178 317.99 41.7159 322.022 39.7668C322.174 39.6932 322.346 39.8654 322.273 40.0178C320.323 44.0493 321.021 49.0394 324.367 52.3846C328.594 56.6118 335.447 56.6118 339.674 52.3846C343.02 49.0394 343.718 44.0493 341.768 40.0178C341.695 39.8654 341.867 39.6932 342.019 39.7668C346.051 41.7159 351.04 41.0178 354.385 37.6728C358.613 33.4456 358.613 26.592 354.385 22.3649C351.04 19.02 346.051 18.3219 342.02 20.2706C341.867 20.3442 341.695 20.172 341.769 20.0196C343.717 15.9883 343.019 10.9989 339.674 7.65394Z" fill="#FF686B"/>
<circle cx="332.021" cy="30.2182" r="4.49841" transform="rotate(45 332.021 30.2182)" fill="#E23636"/>
<path fill-rule="evenodd" clip-rule="evenodd" d="M168.001 92.5C168.001 88.9101 165.091 86 161.501 86H57.0012C54.7921 86 53.0012 87.7909 53.0012 90C53.0012 92.2091 51.2104 94 49.0012 94H-6.99878C-18.0445 94 -26.9988 102.954 -26.9988 114V125C-26.9988 136.046 -18.0445 145 -6.99878 145H77.5012C83.3002 145 88.0012 140.299 88.0012 134.5C88.0012 128.701 92.7022 124 98.5012 124H132.501C136.091 124 139.001 126.91 139.001 130.5C139.001 134.09 141.911 137 145.501 137H276.501C280.091 137 283.001 134.09 283.001 130.5C283.001 126.91 285.911 124 289.501 124H418.001C428.495 124 437.001 115.493 437.001 105C437.001 94.5066 428.495 86 418.001 86H261.501C257.911 86 255.001 88.9101 255.001 92.5C255.001 96.0899 252.091 99 248.501 99H174.501C170.911 99 168.001 96.0899 168.001 92.5Z" fill="#AFD157"/>
</svg>
