<svg width="45" height="32" viewBox="0 0 45 32" fill="none" xmlns="http://www.w3.org/2000/svg">
<g clip-path="url(#clip0_3564_2722)">
<path d="M6.57216 6.22319C10.8393 8.74847 9.52104 10.0074 8.41857 11.8704C7.31609 13.7333 6.76026 15.4434 2.57975 12.9694C0.457533 11.7134 -0.369132 9.18513 0.733341 7.32222C1.83581 5.45931 4.44994 4.96726 6.57216 6.22319Z" fill="white"/>
<path d="M12.8269 6.65331C12.8269 9.00536 12.0065 9.01929 10.9945 9.01929C9.98248 9.01929 9.16209 9.00536 9.16209 6.65331C9.16209 4.30125 10.2852 2.39453 10.9945 2.39453C11.7038 2.39453 12.8269 4.30125 12.8269 6.65331Z" fill="#6A5B3D"/>
<path d="M34.9564 6.65331C34.9564 9.00536 34.136 9.01929 33.124 9.01929C32.112 9.01929 31.2916 9.00536 31.2916 6.65331C31.2916 4.30125 32.4147 2.39453 33.124 2.39453C33.8333 2.39453 34.9564 4.30125 34.9564 6.65331Z" fill="#6A5B3D"/>
<path d="M37.9491 6.22319C33.682 8.74847 35.0002 10.0074 36.1027 11.8704C37.2052 13.7333 37.761 15.4434 41.9415 12.9694C44.0637 11.7134 44.8904 9.18513 43.7879 7.32222C42.6854 5.45931 40.0713 4.96726 37.9491 6.22319Z" fill="#123041"/>
<path d="M39.0021 8.37459C36.8753 9.63322 37.426 10.081 37.8443 10.7878C38.2626 11.4946 38.4333 12.1673 40.5169 10.9342C41.5746 10.3082 42.093 9.22779 41.6747 8.52098C41.2564 7.81416 40.0599 7.74862 39.0021 8.37459Z" fill="#FFC0C1"/>
<path d="M5.39251 8.37459C7.51927 9.63322 6.96861 10.081 6.55031 10.7878C6.13202 11.4946 5.96133 12.1673 3.87772 10.9342C2.81999 10.3082 2.30162 9.22779 2.71992 8.52098C3.13821 7.81416 4.33477 7.74862 5.39251 8.37459Z" fill="#FFC0C1"/>
<path d="M39.8897 20.7894C39.8897 28.1459 31.8229 30.5853 22.0185 30.5853C12.214 30.5853 4.08781 28.1459 4.08781 20.7894C4.08781 8.24594 12.214 3.94531 22.0185 3.94531C31.8229 3.94531 39.8897 7.64863 39.8897 20.7894Z" fill="white"/>
<path d="M23.2656 3.96875C31.7623 4.2569 38.6995 7.60788 39.751 17.9463C35.0207 18.3306 34.1868 14.7335 32.6611 13.3252C31.1081 11.8922 27.8833 12.6682 25.375 10.6377C23.8374 9.39292 23.3482 6.31575 23.2656 3.96875Z" fill="#123041"/>
<path d="M31.4326 19.4492V21.7045" stroke="#123041" stroke-width="2.11429" stroke-linecap="round"/>
<path d="M12.545 19.4492V21.7045" stroke="#123041" stroke-width="2.11429" stroke-linecap="round"/>
<path d="M28.6135 24.6926C28.6135 21.7968 26.266 19.4492 23.3701 19.4492H20.7484C17.8525 19.4492 15.505 21.7968 15.505 24.6926C15.505 26.6232 17.07 28.1883 19.0006 28.1883H25.1179C27.0485 28.1883 28.6135 26.6232 28.6135 24.6926Z" fill="#FFC0C1"/>
<path d="M24.8078 23.3984V24.9489" stroke="#123041" stroke-width="1.40952" stroke-linecap="round"/>
<path d="M19.1697 23.3984L19.1697 24.9489" stroke="#123041" stroke-width="1.40952" stroke-linecap="round"/>
<path d="M35.6611 24.9453H33.5469" stroke="#FFC0C1" stroke-width="2.81905" stroke-linecap="round"/>
<path d="M10.4307 24.9453H8.31638" stroke="#FFC0C1" stroke-width="2.81905" stroke-linecap="round"/>
</g>
<defs>
<clipPath id="clip0_3564_2722">
<rect width="44.4" height="31.5733" fill="white"/>
</clipPath>
</defs>
</svg>
