<svg width="256" height="162" viewBox="0 0 256 162" fill="none" xmlns="http://www.w3.org/2000/svg">
<g clip-path="url(#clip0_432_3687)">
<g clip-path="url(#clip1_432_3687)">
<path d="M23.6607 19.1241C36.7738 26.8844 32.7228 30.7533 29.3349 36.4782C25.9469 42.203 24.2388 47.4584 11.3918 39.8555C4.87013 35.996 2.32974 28.2263 5.71771 22.5015C9.10567 16.7766 17.139 15.2645 23.6607 19.1241Z" fill="white"/>
<path d="M42.8819 20.4508C42.8819 27.6788 40.3608 27.7216 37.2509 27.7216C34.141 27.7216 31.6199 27.6788 31.6199 20.4508C31.6199 13.2227 35.0711 7.36328 37.2509 7.36328C39.4306 7.36328 42.8819 13.2227 42.8819 20.4508Z" fill="#FFC145"/>
<path d="M110.887 20.4508C110.887 27.6788 108.366 27.7216 105.256 27.7216C102.146 27.7216 99.6254 27.6788 99.6254 20.4508C99.6254 13.2227 103.077 7.36328 105.256 7.36328C107.436 7.36328 110.887 13.2227 110.887 20.4508Z" fill="#FFC145"/>
<path d="M120.083 19.1241C106.97 26.8844 111.021 30.7533 114.409 36.4782C117.797 42.203 119.505 47.4584 132.352 39.8555C138.874 35.996 141.414 28.2263 138.026 22.5015C134.638 16.7766 126.605 15.2645 120.083 19.1241Z" fill="black"/>
<path d="M123.319 25.7393C116.783 29.6071 118.476 30.9832 119.761 33.1553C121.047 35.3274 121.571 37.3945 127.974 33.6051C131.225 31.6815 132.818 28.3612 131.532 26.1892C130.247 24.0171 126.57 23.8157 123.319 25.7393Z" fill="#FFCACA"/>
<path d="M20.0353 25.7393C26.571 29.6071 24.8787 30.9832 23.5933 33.1553C22.3079 35.3274 21.7833 37.3945 15.3803 33.6051C12.1298 31.6815 10.5368 28.3612 11.8223 26.1892C13.1077 24.0171 16.7848 23.8157 20.0353 25.7393Z" fill="#FFCACA"/>
<path d="M116.516 116.177C116.708 104.984 102.67 92.6815 95.6275 87.9297C94.6671 87.9297 92.3621 88.2993 90.8255 89.7776C88.9047 91.6256 96.828 117.233 99.7091 122.777C102.59 128.32 116.276 130.168 116.516 116.177Z" fill="#EFEFEF"/>
<path d="M96.6255 153.536C99.7321 152.266 102.757 135.341 102.144 126.915L72.3037 131.678C71.6906 138.516 71.6497 152.461 73.1213 153.536C74.9607 154.879 92.7422 155.124 96.6255 153.536Z" fill="#EFEFEF"/>
<path d="M98.9577 134.789C108.245 128.613 95.6905 90.0878 86.6194 85.2354C77.5482 80.3831 62.7942 81.1182 56.3147 85.2354C49.8352 89.3527 33.8233 128.466 43.1105 134.789C52.3977 141.112 89.6705 140.964 98.9577 134.789Z" fill="white"/>
<path fill-rule="evenodd" clip-rule="evenodd" d="M74.1415 139.435C74.2139 137.155 74.1388 132.505 72.5534 129.732C70.0154 125.292 61.7245 122.368 61.7245 122.368C58.4037 121.863 51.2422 119.466 49.163 113.922C48.2781 111.562 46.237 109.982 43.8781 108.95C40.1722 120.108 38.4338 131.606 43.1104 134.79C48.1679 138.233 61.5245 139.758 74.1415 139.435Z" fill="black"/>
<path d="M45.881 153.536C42.7744 152.266 39.7494 135.341 40.3626 126.915L70.2027 131.678C70.8159 138.516 70.8568 152.461 69.3852 153.536C67.5458 154.879 49.7643 155.124 45.881 153.536Z" fill="black"/>
<path d="M27.2903 116.177C27.0982 104.984 41.136 92.6815 48.1789 87.9297C49.1393 87.9297 51.4443 88.2993 52.9809 89.7776C54.9017 91.6256 46.9784 117.233 44.0973 122.777C41.2161 128.32 27.5304 130.168 27.2903 116.177Z" fill="white"/>
<path d="M95.7259 120.814C95.7259 132.369 85.8354 135.144 73.635 135.144C61.4345 135.144 51.5441 132.369 51.5441 120.814C51.5441 105.624 61.4345 97.0264 73.635 97.0264C85.8354 97.0264 95.7259 105.624 95.7259 120.814Z" fill="#FFD2D2"/>
<path d="M73.4498 131.247C73.5388 131.247 73.627 131.23 73.7094 131.197C73.7918 131.163 73.8667 131.114 73.9299 131.052L76.9387 128.025C77.0495 127.896 77.1074 127.731 77.1008 127.562C77.0942 127.392 77.0237 127.232 76.9033 127.112C76.7829 126.992 76.6214 126.922 76.4513 126.916C76.2811 126.909 76.1147 126.967 75.9854 127.077L72.9698 130.07C72.9064 130.132 72.8561 130.207 72.8218 130.288C72.7874 130.37 72.7698 130.458 72.7698 130.547C72.7698 130.636 72.7874 130.724 72.8218 130.806C72.8561 130.888 72.9064 130.962 72.9698 131.025C73.0307 131.092 73.1046 131.146 73.1871 131.184C73.2695 131.222 73.3589 131.244 73.4498 131.247Z" fill="#FF8D8D"/>
<path d="M76.4266 131.247C76.5148 131.247 76.6024 131.23 76.6841 131.197C76.7658 131.163 76.8402 131.114 76.9029 131.052C76.9657 130.99 77.0157 130.915 77.0497 130.834C77.0838 130.752 77.1013 130.664 77.1013 130.576C77.1013 130.487 77.0838 130.399 77.0497 130.318C77.0157 130.236 76.9657 130.162 76.9029 130.099L73.9175 127.114C73.8551 127.051 73.7809 127.001 73.6992 126.967C73.6174 126.933 73.5297 126.915 73.4412 126.915C73.3526 126.915 73.2649 126.933 73.1832 126.967C73.1014 127.001 73.0272 127.051 72.9649 127.114C72.8399 127.239 72.7698 127.409 72.7698 127.587C72.7698 127.764 72.8399 127.934 72.9649 128.06L75.9569 131.052C76.0819 131.176 76.2506 131.246 76.4266 131.247Z" fill="#FF8D8D"/>
<path d="M126.047 63.8909C126.047 86.4977 101.257 93.9942 71.1274 93.9942C40.9978 93.9942 16.0255 86.4977 16.0255 63.8909C16.0255 25.344 40.9978 12.1279 71.1274 12.1279C101.257 12.1279 126.047 23.5084 126.047 63.8909Z" fill="white"/>
<path fill-rule="evenodd" clip-rule="evenodd" d="M74.9565 12.1914C75.2097 19.4046 76.7163 28.8651 81.4426 32.6912C85.599 36.0559 90.3956 36.9127 94.6818 37.6784C98.345 38.3328 101.635 38.9206 103.834 40.9505C105.003 42.0291 106.039 43.5257 107.162 45.1469C110.544 50.0312 114.709 56.0452 125.624 55.1578C122.395 23.3803 101.071 13.0762 74.9565 12.1914Z" fill="black"/>
<path d="M44.6143 59.7754V66.7059" stroke="black" stroke-width="6.49733" stroke-linecap="round"/>
<path d="M102.657 59.7754V66.7059" stroke="black" stroke-width="6.49733" stroke-linecap="round"/>
<path d="M53.2773 75.8888C53.2773 66.9896 60.4915 59.7754 69.3907 59.7754H77.4474C86.3466 59.7754 93.5608 66.9896 93.5608 75.8888C93.5608 81.8215 88.7513 86.631 82.8185 86.631H64.0196C58.0868 86.631 53.2773 81.8215 53.2773 75.8888Z" fill="#FFCACA"/>
<path d="M64.9718 71.9033V76.668" stroke="black" stroke-width="4.33155" stroke-linecap="round"/>
<path d="M82.2993 71.9033L82.2993 76.668" stroke="black" stroke-width="4.33155" stroke-linecap="round"/>
<path d="M31.6199 76.6689H38.1172" stroke="#FFD2D2" stroke-width="8.6631" stroke-linecap="round"/>
<path d="M109.155 76.6689H115.652" stroke="#FFD2D2" stroke-width="8.6631" stroke-linecap="round"/>
</g>
<g clip-path="url(#clip2_432_3687)">
<path d="M234.792 144.789C232.193 147.388 209.524 146.954 197.54 146.521C190.176 141.973 189.094 120.532 194.075 117.5C199.056 114.468 221.518 124.881 224.829 127.246C227.861 129.412 237.824 141.757 234.792 144.789Z" fill="#4B9B3A"/>
<path d="M248.631 155.068C246.032 157.667 223.363 157.234 211.379 156.801C204.016 152.252 202.933 130.811 207.914 127.779C212.895 124.747 235.357 135.16 238.668 137.525C241.7 139.691 251.663 152.036 248.631 155.068Z" fill="#49B236"/>
<path d="M216.219 156.106C212.946 158.187 158.755 158.187 154.936 156.106C151.118 154.025 144.207 137.793 146.39 132.798C148.572 127.804 167.12 109.699 197.853 110.947C228.585 112.196 219.493 154.025 216.219 156.106Z" fill="#49B236"/>
<path d="M94.2021 140.747C104.741 136.972 120.899 146.317 127.66 151.461C127.968 152.371 128.358 154.673 127.452 156.603C126.318 159.015 99.5227 159.732 93.3474 158.783C87.1721 157.834 81.0283 145.466 94.2021 140.747Z" fill="#4B9B3A"/>
<ellipse cx="17.314" cy="18.658" rx="17.314" ry="18.658" transform="matrix(-0.877234 -0.480064 -0.480064 0.877234 203.647 89.0088)" fill="#49B236"/>
<ellipse cx="104.279" cy="96.581" rx="17.314" ry="18.658" transform="rotate(-28.6896 104.279 96.581)" fill="#49B236"/>
<path d="M85.8288 127.029C85.8288 149.875 111.009 157.451 141.613 157.451C172.217 157.451 197.583 149.875 197.583 127.029C197.583 94.2104 172.217 80.1328 141.613 80.1328C111.009 80.1328 85.8288 91.6114 85.8288 127.029Z" fill="#49B236"/>
<path d="M185.888 119.116H178.525" stroke="#9CD43D" stroke-width="8.6631" stroke-linecap="round"/>
<path d="M105.755 119.116H98.3911" stroke="#9CD43D" stroke-width="8.6631" stroke-linecap="round"/>
<path d="M106.123 102.656L102.658 103.523" stroke="black" stroke-width="6.49733" stroke-linecap="round"/>
<path d="M172.828 103.09L176.293 103.956" stroke="black" stroke-width="6.49733" stroke-linecap="round"/>
<path d="M160.041 140.747C170.58 136.972 186.738 146.317 193.499 151.461C193.807 152.371 194.197 154.673 193.291 156.603C192.157 159.015 165.362 159.732 159.186 158.783C153.011 157.834 146.867 145.466 160.041 140.747Z" fill="#4B9B3A"/>
<path d="M123.017 104.604C123.955 105.254 126.525 106.554 129.298 106.554C132.763 106.554 134.062 103.521 137.744 103.521C141.426 103.521 142.725 106.554 146.191 106.554C148.963 106.554 151.533 105.254 152.471 104.604" stroke="#2D8B1C" stroke-width="2.16578" stroke-linecap="round"/>
<path d="M135.894 83.237C135.702 86.94 129.481 89.6774 122.314 89.3052C115.147 88.933 109.747 85.5922 109.94 81.8892C110.265 75.6169 115.545 70.8632 123.606 71.2818C131.668 71.7004 136.231 76.7484 135.894 83.237Z" fill="white"/>
</g>
</g>
<defs>
<clipPath id="clip0_432_3687">
<rect width="255.995" height="162" fill="white"/>
</clipPath>
<clipPath id="clip1_432_3687">
<rect width="136.444" height="162" fill="white" transform="translate(3.4646)"/>
</clipPath>
<clipPath id="clip2_432_3687">
<rect width="179.326" height="96.1604" fill="white" transform="translate(83.1647 65.8389)"/>
</clipPath>
</defs>
</svg>
