<svg width="185" height="205" viewBox="0 0 185 205" fill="none" xmlns="http://www.w3.org/2000/svg">
<path d="M132.291 135.817C123.498 143.358 104.43 140.292 95.9947 137.816C95.3608 137.051 94.134 134.97 94.2978 132.77C94.5025 130.019 120.138 119.432 126.457 118.069C132.776 116.705 143.282 126.391 132.291 135.817Z" fill="#EFEFEF" stroke="#EFEFEF" stroke-width="1.19956"/>
<path d="M140.34 94.1135C141.286 91.9075 143.84 90.8858 146.046 91.8313C148.252 92.7769 149.274 95.3318 148.329 97.5378L135.61 127.21C134.664 129.415 132.109 130.437 129.903 129.492C127.697 128.546 126.676 125.991 127.621 123.785L140.34 94.1135Z" fill="#D4FFFE"/>
<circle cx="147.794" cy="87.986" r="24.8329" transform="rotate(23.2023 147.794 87.986)" fill="#D4FFFE"/>
<path fill-rule="evenodd" clip-rule="evenodd" d="M138.211 84.0223C137.754 82.6359 137.782 81.0838 138.402 79.6368C139.753 76.4854 143.403 75.0257 146.554 76.3766C148.813 77.3447 150.202 79.4934 150.311 81.7933C152.052 80.2867 154.566 79.8115 156.824 80.7795C159.976 82.1304 161.435 85.7801 160.084 88.9315C159.458 90.392 158.339 91.4891 157.003 92.1116L143.496 99.1548C143.078 99.3725 142.566 99.1529 142.435 98.7002L138.211 84.0223Z" fill="#E25047"/>
<path d="M103.167 196.513C106.382 195.199 109.512 177.686 108.877 168.968L78.0011 173.896C77.3667 180.971 77.3244 195.401 78.847 196.513C80.7503 197.903 99.149 198.155 103.167 196.513Z" fill="#EFEFEF" stroke="#EFEFEF" stroke-width="1.19956"/>
<path d="M105.58 177.116C115.19 170.726 102.2 130.863 92.8137 125.843C83.4276 120.822 68.1615 121.582 61.4571 125.843C54.7527 130.103 38.185 170.574 47.7946 177.116C57.4041 183.658 95.9707 183.506 105.58 177.116Z" fill="white" stroke="#F7F7F7" stroke-width="1.19956"/>
<path d="M50.661 196.513C47.4465 195.199 44.3166 177.686 44.9511 168.968L75.827 173.896C76.4615 180.971 76.5038 195.401 74.9811 196.513C73.0778 197.903 54.6791 198.155 50.661 196.513Z" fill="white" stroke="#F7F7F7" stroke-width="1.19956"/>
<path d="M31.4235 157.858C31.2248 146.277 45.7498 133.548 53.0372 128.631C54.031 128.631 56.416 129.013 58.0059 130.543C59.9934 132.455 51.7951 158.951 48.8139 164.687C45.8327 170.424 31.672 172.336 31.4235 157.858Z" fill="white" stroke="#F7F7F7" stroke-width="1.19956"/>
<path d="M101.343 163.552C101.343 175.508 91.1091 178.379 78.4851 178.379C65.8611 178.379 55.6274 175.508 55.6274 163.552C55.6274 147.835 65.8611 138.938 78.4851 138.938C91.1091 138.938 101.343 147.835 101.343 163.552Z" fill="#F4F4F4"/>
<path d="M79.1868 171.209C79.2789 171.21 79.3701 171.192 79.4554 171.158C79.5406 171.123 79.6181 171.072 79.6835 171.008L82.7968 167.876C82.9114 167.743 82.9713 167.572 82.9645 167.397C82.9577 167.221 82.8847 167.055 82.7601 166.931C82.6355 166.807 82.4685 166.735 82.2924 166.728C82.1163 166.721 81.9442 166.781 81.8103 166.895L78.6901 169.992C78.6245 170.056 78.5724 170.133 78.5369 170.218C78.5014 170.303 78.4831 170.394 78.4831 170.486C78.4831 170.578 78.5014 170.669 78.5369 170.753C78.5724 170.838 78.6245 170.915 78.6901 170.98C78.7531 171.049 78.8295 171.106 78.9149 171.145C79.0002 171.184 79.0927 171.206 79.1868 171.209Z" fill="#FFD2D2"/>
<path d="M82.2668 171.209C82.3582 171.21 82.4488 171.192 82.5333 171.158C82.6179 171.123 82.6948 171.072 82.7597 171.008C82.8248 170.944 82.8764 170.867 82.9116 170.782C82.9469 170.698 82.965 170.607 82.965 170.515C82.965 170.424 82.9469 170.333 82.9116 170.248C82.8764 170.164 82.8248 170.087 82.7597 170.022L79.6707 166.933C79.6062 166.868 79.5294 166.816 79.4448 166.781C79.3602 166.746 79.2695 166.728 79.1778 166.728C79.0862 166.728 78.9955 166.746 78.9109 166.781C78.8263 166.816 78.7495 166.868 78.685 166.933C78.5557 167.063 78.4831 167.239 78.4831 167.422C78.4831 167.606 78.5557 167.782 78.685 167.912L81.7809 171.008C81.9102 171.136 82.0847 171.209 82.2668 171.209Z" fill="#FFD2D2"/>
<path d="M37.4313 36.2859C41.0168 47.9082 56.3694 70.6629 59.6167 80.1779H90.3178C93.5651 70.6629 107.734 47.9082 112.279 36.2859C117.916 21.8715 112.053 3.13669 96.2198 3.13672C83.1467 3.13675 77.0226 24.7246 75.3034 36.2859C73.5842 24.7246 67.0119 3.13672 54.387 3.13672C38.5535 3.13672 32.8687 21.4963 37.4313 36.2859Z" fill="white" stroke="#F7F7F7" stroke-width="1.19956" stroke-linecap="round"/>
<path d="M129.874 102.413C129.874 108.144 128.306 112.891 125.492 116.798C122.674 120.712 118.584 123.817 113.496 126.217C103.305 131.024 89.2039 132.962 73.6481 132.962C58.0924 132.962 43.9432 131.024 33.7049 126.216C28.5925 123.816 24.4789 120.711 21.6437 116.797C18.8131 112.889 17.2333 108.143 17.2333 102.413C17.2333 82.6098 23.641 69.4088 33.8279 61.1423C44.0373 52.8575 58.1349 49.4533 73.6481 49.4533C89.1779 49.4533 103.224 52.3894 113.379 60.4345C123.508 68.4577 129.874 81.6502 129.874 102.413Z" fill="white" stroke="#F7F7F7" stroke-width="1.19956"/>
<path d="M39.0445 108.023H45.7674" stroke="#FFD2D2" stroke-width="8.96381" stroke-linecap="round"/>
<path d="M113.443 108.023H120.165" stroke="#FFD2D2" stroke-width="8.96381" stroke-linecap="round"/>
<path d="M87.0006 108.705C87.0006 104.666 86.6696 101.815 79.5922 102.933C72.5149 101.815 72.2103 104.669 72.2103 108.705C72.2103 112.742 75.5212 118.453 79.6054 118.453C83.6896 118.453 87.0006 112.744 87.0006 108.705Z" fill="#FFD2D2"/>
<path fill-rule="evenodd" clip-rule="evenodd" d="M86.9548 106.952C84.8966 107.477 82.5619 107.774 80.0875 107.774C77.2216 107.774 74.543 107.376 72.2644 106.686C72.4961 103.579 73.6851 101.999 79.5921 102.931C85.5922 101.984 86.7434 103.889 86.9548 106.952Z" fill="#EFEFEF"/>
<path d="M77.7702 96.3604C78.6499 96.3604 79.0531 96.7271 79.6029 97.0938C80.1528 96.7271 80.556 96.3604 81.4357 96.3604C82.5353 96.3604 83.174 97.5129 82.9018 98.1939C82.5352 99.1106 81.1913 100.027 79.6029 100.394C78.0146 100.027 76.6707 99.1106 76.3041 98.1939C76.0319 97.5129 76.6706 96.3604 77.7702 96.3604Z" fill="#FFD2D2"/>
<path d="M57.1162 99.8281C57.1162 99.8281 55.8173 98.3381 52.8946 98.3381C49.972 98.3381 48.673 99.8281 48.673 99.8281" stroke="black" stroke-width="5.29533" stroke-linecap="round"/>
<path d="M111.005 99.8281C111.005 99.8281 109.706 98.3381 106.783 98.3381C103.861 98.3381 102.562 99.8281 102.562 99.8281" stroke="black" stroke-width="5.29533" stroke-linecap="round"/>
</svg>
