<svg width="1000" height="300" viewBox="0 0 1000 300" fill="none" xmlns="http://www.w3.org/2000/svg">
<g clip-path="url(#clip0_3564_2915)">
<rect width="1000" height="300" rx="30" fill="#D5FDFF"/>
<path d="M499.647 28C554.677 28 599.289 68.9635 599.289 119.494C599.289 132.434 596.363 144.747 591.087 155.905C609.198 133.012 638.583 118.128 671.757 118.128C726.788 118.128 771.398 159.092 771.398 209.622C771.398 254.752 735.812 292.25 689.002 299.75C735.812 307.25 771.398 344.749 771.398 389.879C771.398 440.408 726.787 481.371 671.757 481.371C638.583 481.371 609.198 466.488 591.087 443.595C596.363 454.753 599.289 467.066 599.289 480.007C599.289 530.536 554.677 571.5 499.647 571.5C444.617 571.5 400.007 530.536 400.007 480.007C400.007 467.066 402.932 454.753 408.209 443.595C390.098 466.488 360.712 481.371 327.54 481.371C272.509 481.371 227.899 440.408 227.898 389.879C227.898 344.749 263.483 307.25 310.293 299.75C263.483 292.25 227.898 254.751 227.898 209.622C227.898 159.092 272.509 118.128 327.54 118.128C360.712 118.128 390.098 133.012 408.209 155.905C402.932 144.747 400.007 132.434 400.007 119.494C400.007 68.9636 444.617 28.0002 499.647 28Z" fill="#93F5F3"/>
<g clip-path="url(#clip1_3564_2915)">
<path d="M447.671 271.697C434.975 278.965 412.41 271.316 402.713 266.583C402.133 265.529 401.163 262.766 401.926 260.148C402.88 256.875 436.978 249.426 445.065 249.092C453.152 248.759 463.54 262.612 447.671 271.697Z" fill="#E7EAEE"/>
<path d="M415.145 310.967C426.102 303.322 410.034 257.521 399.04 251.953C388.047 246.385 370.397 247.661 362.748 252.766C355.098 257.87 336.971 305.141 348.263 312.464C359.555 319.787 404.188 318.612 415.145 310.967Z" fill="white"/>
<path fill-rule="evenodd" clip-rule="evenodd" d="M348.492 281.501C351.344 282.673 353.832 284.508 354.956 287.31C357.594 293.894 366.235 296.573 370.226 297.089C370.29 297.11 380.243 300.386 383.392 305.618C385.365 308.897 385.577 314.462 385.552 317.195C370.451 317.919 354.415 316.453 348.266 312.465C342.58 308.778 344.353 294.962 348.492 281.501Z" fill="#123041"/>
<path d="M328.815 290.598C328.285 277.198 344.766 262.089 353.074 256.21C354.224 256.184 356.994 256.565 358.874 258.294C361.224 260.456 352.421 291.335 349.12 298.051C345.818 304.768 329.477 307.348 328.815 290.598Z" fill="#F9F9F9"/>
<path d="M410.899 294.315C411.209 308.153 399.438 311.742 384.827 312.069C370.216 312.396 358.297 309.338 357.987 295.5C357.58 277.309 369.194 266.747 383.806 266.42C398.417 266.093 410.492 276.124 410.899 294.315Z" fill="#FFC0C1"/>
<path d="M321.869 174.466C337.781 183.409 333.033 188.15 329.129 195.097C325.225 202.044 323.321 208.384 307.732 199.623C299.818 195.176 296.567 185.939 300.471 178.992C304.375 172.045 313.955 170.019 321.869 174.466Z" fill="white"/>
<path d="M344.924 175.54C345.117 184.196 342.099 184.315 338.375 184.398C334.65 184.481 331.63 184.498 331.436 175.841C331.243 167.185 335.219 160.075 337.829 160.017C340.44 159.959 344.73 166.883 344.924 175.54Z" fill="#6A5B3D"/>
<path d="M426.366 173.715C426.56 182.372 423.542 182.49 419.818 182.574C416.093 182.657 413.073 182.673 412.879 174.017C412.685 165.361 416.662 158.251 419.272 158.193C421.882 158.134 426.173 165.059 426.366 173.715Z" fill="#6A5B3D"/>
<path d="M437.346 171.878C421.85 181.523 426.805 186.048 431.016 192.813C435.227 199.579 437.414 205.827 452.595 196.377C460.302 191.58 463.136 182.207 458.925 175.442C454.715 168.677 445.053 167.081 437.346 171.878Z" fill="#123041"/>
<path d="M441.397 179.717C433.674 184.525 435.737 186.127 437.335 188.694C438.932 191.261 439.616 193.722 447.183 189.013C451.024 186.622 452.843 182.603 451.245 180.036C449.647 177.469 445.238 177.326 441.397 179.717Z" fill="#FFC0C1"/>
<path d="M317.705 182.484C325.636 186.941 323.646 188.635 322.165 191.27C320.684 193.906 320.111 196.396 312.341 192.029C308.397 189.813 306.4 185.879 307.881 183.243C309.362 180.607 313.761 180.268 317.705 182.484Z" fill="#FFC0C1"/>
<path d="M445.686 225.335C446.292 252.409 416.805 262.051 380.722 262.858C344.639 263.666 314.532 255.358 313.926 228.284C312.892 182.12 342.445 165.624 378.528 164.816C414.611 164.008 444.604 176.973 445.686 225.335Z" fill="white"/>
<path d="M383.115 164.793C414.413 165.152 440.225 176.918 444.945 214.886C427.565 216.692 424.2 203.514 418.468 198.457C412.635 193.309 400.829 196.433 391.43 189.166C385.669 184.711 383.612 173.424 383.115 164.793Z" fill="#123041"/>
<path d="M358.863 241.653C358.625 230.995 367.071 222.162 377.728 221.924L387.377 221.708C398.035 221.469 406.868 229.915 407.106 240.573C407.265 247.678 401.634 253.567 394.529 253.726L372.016 254.23C364.911 254.389 359.022 248.758 358.863 241.653Z" fill="#FFC0C1"/>
<path d="M372.758 236.566L372.886 242.273" stroke="#123041" stroke-width="5.18873" stroke-linecap="round"/>
<path d="M393.51 236.102L393.637 241.808" stroke="#123041" stroke-width="5.18873" stroke-linecap="round"/>
<path d="M332.945 243.168L340.726 242.994" stroke="#FFC0C1" stroke-width="10.3775" stroke-linecap="round"/>
<path d="M425.801 241.09L433.582 240.916" stroke="#FFC0C1" stroke-width="10.3775" stroke-linecap="round"/>
<path d="M353.363 231.461C353.363 231.461 351.82 229.769 348.436 229.845C345.051 229.921 343.585 231.68 343.585 231.68" stroke="#123041" stroke-width="6.13407" stroke-linecap="round"/>
<path d="M422.873 229.906C422.873 229.906 421.33 228.214 417.945 228.29C414.561 228.366 413.095 230.125 413.095 230.125" stroke="#123041" stroke-width="6.13407" stroke-linecap="round"/>
</g>
<g clip-path="url(#clip2_3564_2915)">
<path d="M577.076 182.719C566.232 192.735 541.804 189.724 530.946 186.966C530.103 186.021 528.443 183.429 528.548 180.619C528.68 177.107 560.83 162.421 568.814 160.389C576.798 158.357 590.631 170.199 577.076 182.719Z" fill="#5C9A15"/>
<path d="M547.982 255.615C551.337 253.647 552.022 233.734 549.932 224.169L516.486 234.543C516.908 242.488 519.155 258.492 521.02 259.482C523.351 260.72 543.789 258.075 547.982 255.615Z" fill="#5C9A15"/>
<path d="M559.175 232.745C568.812 224.133 548.072 182.006 536.868 177.933C525.663 173.859 508.86 177.13 502.105 182.919C495.35 188.708 483.418 236.21 495.112 241.935C506.806 247.659 549.538 241.358 559.175 232.745Z" fill="#5BB42B"/>
<path d="M489.773 263.964C486.001 263.018 479.746 244.101 479.063 234.335L514.076 234.888C515.905 242.631 518.246 258.621 516.735 260.096C514.846 261.94 494.489 265.146 489.773 263.964Z" fill="#5BB42B"/>
<path d="M433.433 187.896C442.45 197.377 464.131 196.215 473.844 194.449C474.637 193.669 476.238 191.487 476.295 189.007C476.367 185.906 448.829 171.013 441.904 168.736C434.98 166.46 422.16 176.044 433.433 187.896Z" fill="#5BB42B"/>
<path d="M540.396 217.121C542.556 232.183 531.73 237.428 517.735 239.435C503.739 241.443 491.875 239.453 489.715 224.391C486.874 204.591 496.612 191.755 510.607 189.748C524.603 187.74 537.556 197.321 540.396 217.121Z" fill="#A1DC3C"/>
<path d="M517.375 231.374C517.477 231.36 517.576 231.326 517.665 231.274C517.754 231.222 517.832 231.153 517.894 231.072L520.847 227.105C520.953 226.939 520.992 226.74 520.957 226.546C520.922 226.353 520.814 226.181 520.656 226.063C520.499 225.946 520.302 225.892 520.106 225.912C519.909 225.933 519.728 226.026 519.598 226.174L516.631 230.103C516.568 230.185 516.523 230.279 516.497 230.379C516.471 230.478 516.465 230.582 516.48 230.684C516.495 230.786 516.529 230.884 516.582 230.972C516.635 231.06 516.705 231.137 516.788 231.199C516.869 231.266 516.963 231.316 517.064 231.346C517.164 231.376 517.27 231.386 517.375 231.374Z" fill="#5BB42B"/>
<path d="M520.79 230.884C520.891 230.871 520.989 230.837 521.077 230.785C521.165 230.733 521.243 230.665 521.304 230.583C521.366 230.501 521.411 230.408 521.437 230.308C521.462 230.209 521.468 230.105 521.453 230.004C521.439 229.902 521.404 229.804 521.352 229.716C521.299 229.628 521.23 229.551 521.147 229.49L517.232 226.556C517.15 226.494 517.056 226.449 516.957 226.424C516.858 226.398 516.754 226.392 516.653 226.407C516.551 226.422 516.453 226.456 516.365 226.509C516.277 226.561 516.2 226.631 516.139 226.713C516.016 226.878 515.964 227.084 515.993 227.288C516.022 227.491 516.13 227.675 516.294 227.798L520.219 230.739C520.383 230.86 520.588 230.913 520.79 230.884Z" fill="#5BB42B"/>
<ellipse cx="456.212" cy="126.096" rx="20.0643" ry="21.6218" transform="rotate(-36.8526 456.212 126.096)" fill="#5BB42B"/>
<ellipse cx="20.0643" cy="21.6218" rx="20.0643" ry="21.6218" transform="matrix(-0.93651 -0.35064 -0.35064 0.93651 568.794 99.9531)" fill="#5BB42B"/>
<path d="M568.598 145.055C572.357 171.262 544.72 184.095 509.613 189.131C474.507 194.167 444.163 189.65 440.404 163.444C435.004 125.797 461.785 105.475 496.891 100.439C531.997 95.403 562.77 104.427 568.598 145.055Z" fill="#5BB42B"/>
<path d="M459.815 125.531L460.956 133.481" stroke="#123041" stroke-width="7.52943" stroke-linecap="round"/>
<path d="M544.21 112.922L545.351 120.872" stroke="#123041" stroke-width="7.52943" stroke-linecap="round"/>
<path d="M452.515 152.441L460.962 151.23" stroke="#A1DC3C" stroke-width="10.0392" stroke-linecap="round"/>
<path d="M544.436 139.254L552.882 138.042" stroke="#A1DC3C" stroke-width="10.0392" stroke-linecap="round"/>
<path d="M513.985 135.54C513.129 129.57 512.699 126.568 501.519 128.172C490.339 129.776 490.693 132.244 491.626 138.747C493.154 149.402 499.051 154.895 505.225 154.01C511.4 153.124 515.407 145.45 513.985 135.54Z" fill="#D52C2F"/>
<path d="M505.225 154.009C509.55 153.388 512.808 149.437 513.885 143.721C511.361 141.506 507.85 139.771 503.792 138.971C499.366 138.098 495.119 138.498 491.804 139.849C493.57 149.779 499.268 154.863 505.225 154.009Z" fill="#FF686B"/>
</g>
<g clip-path="url(#clip3_3564_2915)">
<path d="M614.271 322.552C618.926 310.579 608.703 291.757 603.01 283.843C601.976 283.461 599.348 282.943 597.106 283.924C594.304 285.15 592.657 315.865 593.555 322.978C594.454 330.091 608.452 337.519 614.271 322.552Z" fill="#E7EAEE"/>
<path d="M587.973 335.611C600.425 332.654 602.22 286.192 594.383 277.363C586.546 268.535 570.371 263.463 561.76 265.32C553.148 267.178 520.368 302.92 527.853 313.417C535.338 323.915 575.521 338.569 587.973 335.611Z" fill="white"/>
<path d="M514.971 283.286C520.947 271.914 541.857 267.271 551.565 266.371C552.531 266.901 554.647 268.543 555.379 270.878C556.294 273.797 534.204 295.201 528.248 299.193C522.292 303.184 507.499 297.5 514.971 283.286Z" fill="#F9F9F9"/>
<path d="M588.77 319.873C584.178 332.311 572.428 331.368 559.294 326.52C546.16 321.672 536.616 314.754 541.207 302.315C547.244 285.963 561.308 280.638 574.442 285.486C587.576 290.334 594.806 303.521 588.77 319.873Z" fill="#E7EAEE"/>
<path d="M573.49 163.781C572.757 177.25 579.99 206.82 579.714 217.967L611.655 229.758C618.688 221.106 642.169 202.874 651.361 192.528C662.762 179.696 663.858 157.953 647.385 151.871C633.784 146.851 619.121 166.958 612.892 178.326C615.544 165.638 616.997 140.654 603.862 135.805C587.389 129.724 574.423 146.642 573.49 163.781Z" fill="white"/>
<path d="M644.893 268.311C635.909 292.648 606.244 290.867 573.809 278.893C541.374 266.919 521.024 254.164 536.969 210.971C543.632 192.921 545.313 188.245 557.105 182.812C560.942 181.044 571.097 179.922 576.076 184.196C579.823 188.763 592.836 185.777 606.343 190.763C638.777 202.737 660.941 224.839 644.893 268.311Z" fill="white"/>
<path d="M566.427 231.133L563.673 238.594" stroke="#123041" stroke-width="7.45581" stroke-linecap="round"/>
<path d="M622.848 251.961L620.093 259.422" stroke="#123041" stroke-width="7.45581" stroke-linecap="round"/>
<path d="M551.419 239.598L558.414 242.18" stroke="white" stroke-width="14.9116" stroke-linecap="round"/>
<path d="M560.383 234.918C561.294 235.088 563.411 235.926 564.595 237.92C565.778 239.913 565.901 242.068 565.814 242.896" stroke="#123041" stroke-width="2.48527" stroke-linecap="round"/>
<path d="M551.419 239.598L558.414 242.18" stroke="#FFC0C1" stroke-width="9.94108" stroke-linecap="round"/>
<path d="M623.128 272.727L630.122 275.309" stroke="#FFC0C1" stroke-width="9.94108" stroke-linecap="round"/>
<path d="M595.192 263.716C593.641 267.918 592.861 270.03 585.168 267.19C577.474 264.35 578.115 262.612 579.805 258.035C581.494 253.458 587.632 247.436 591.881 249.004C596.13 250.573 596.744 259.514 595.192 263.716Z" fill="#FFC0C1"/>
<path d="M591.886 249.006C594.619 250.015 595.846 254.076 595.962 257.962C593.799 258.143 591.372 257.823 588.956 256.931C586.518 256.031 584.45 254.68 582.918 253.119C585.538 250.19 589.114 247.983 591.886 249.006Z" fill="#E7EAEE"/>
<path d="M592.388 241.775C593.303 242.112 593.582 242.649 594.013 243.242C594.726 243.071 595.286 242.845 596.201 243.182C597.345 243.605 597.567 245.049 597.022 245.653C596.289 246.466 594.539 246.904 592.745 246.675C591.234 245.684 590.188 244.214 590.158 243.119C590.137 242.306 591.244 241.352 592.388 241.775Z" fill="#FFC0C1"/>
</g>
<path d="M560.408 256.866C554.587 270.175 532.328 277.557 521.926 279.585C520.856 279.097 518.49 277.488 517.576 274.962C516.434 271.804 539.058 245.609 545.254 240.531C551.45 235.453 567.683 240.23 560.408 256.866Z" fill="#FFC532"/>
<path d="M531.513 320.332C541.548 312.389 523.54 269.521 512.706 264.832C501.872 260.143 485.069 262.382 478.049 267.705C471.03 273.027 456.426 319.275 467.646 325.625C478.866 331.976 521.477 328.274 531.513 320.332Z" fill="#FFDB40"/>
<path d="M447.791 305.842C446.511 293.06 461.398 277.661 469.002 271.559C470.101 271.468 472.772 271.672 474.669 273.217C477.041 275.148 470.407 305.184 467.637 311.797C464.868 318.41 449.392 321.82 447.791 305.842Z" fill="#FFDB40"/>
<path d="M555.608 234.705C557.751 260.558 530.112 271.481 495.656 274.337C461.2 277.193 431.931 270.987 429.788 245.134C426.135 201.051 453.44 183.571 487.896 180.715C522.352 177.859 551.781 188.524 555.608 234.705Z" fill="#FFDB40"/>
<path d="M453.129 255.914L460.56 255.298" stroke="#FCA18E" stroke-width="9.94108" stroke-linecap="round"/>
<path d="M535.354 249.102L542.785 248.486" stroke="#FCA18E" stroke-width="9.94108" stroke-linecap="round"/>
<path d="M466.509 236.848L467.166 244.773" stroke="#123041" stroke-width="7.45581" stroke-linecap="round"/>
<path d="M526.444 231.883L527.101 239.808" stroke="#123041" stroke-width="7.45581" stroke-linecap="round"/>
<path d="M510.052 244.716C510.426 249.23 504.93 251.624 497.954 252.202C490.978 252.78 485.163 251.323 484.789 246.809C484.415 242.295 489.623 236.434 496.599 235.855C503.576 235.277 509.678 240.202 510.052 244.716Z" fill="#FFB132"/>
<path d="M477.079 164.263C485.146 170.304 490.082 177.419 491.923 184.115L478.582 183.801C473.089 183.672 467.341 177.686 466.936 169.875C466.531 162.064 472.977 161.191 477.079 164.263Z" fill="#FFDB40"/>
<path d="M491.753 173.644C489.603 176.122 489.424 181.15 489.603 183.354C494.101 182.559 501.59 180.536 502.714 177.52C503.837 174.505 502.687 170.967 500.955 170.245C499.224 169.522 494.441 170.546 491.753 173.644Z" fill="#FFDB40"/>
</g>
<defs>
<clipPath id="clip0_3564_2915">
<rect width="1000" height="300" rx="30" fill="white"/>
</clipPath>
<clipPath id="clip1_3564_2915">
<rect width="163.445" height="185.238" fill="white" transform="translate(297.17 152.102) rotate(-1.28217)"/>
</clipPath>
<clipPath id="clip2_3564_2915">
<rect width="149.847" height="175.185" fill="white" transform="translate(417.159 98.6875) rotate(-8.1631)"/>
</clipPath>
<clipPath id="clip3_3564_2915">
<rect width="162.04" height="226.657" fill="white" transform="translate(548.998 111.844) rotate(20.262)"/>
</clipPath>
</defs>
</svg>
