<svg width="229" height="103" viewBox="0 0 229 103" fill="none" xmlns="http://www.w3.org/2000/svg">
<g clip-path="url(#clip0_3002_264)">
<path d="M20.7144 18.6726C32.417 25.5982 28.8018 29.051 25.7782 34.1601C22.7546 39.2692 21.2302 43.9593 9.76505 37.1742C3.94481 33.7298 1.67765 26.7958 4.70122 21.6867C7.72479 16.5776 14.8941 15.2281 20.7144 18.6726Z" fill="white"/>
<path d="M37.871 19.8576C37.871 26.3082 35.6211 26.3464 32.8457 26.3464C30.0702 26.3464 27.8203 26.3082 27.8203 19.8576C27.8203 13.407 30.9004 8.17773 32.8457 8.17773C34.791 8.17773 37.871 13.407 37.871 19.8576Z" fill="#FFC145"/>
<path d="M98.5624 19.8576C98.5624 26.3082 96.3125 26.3464 93.5371 26.3464C90.7617 26.3464 88.5117 26.3082 88.5117 19.8576C88.5117 13.407 91.5918 8.17773 93.5371 8.17773C95.4824 8.17773 98.5624 13.407 98.5624 19.8576Z" fill="#FFC145"/>
<path d="M106.766 18.6726C95.0634 25.5982 98.6787 29.051 101.702 34.1601C104.726 39.2692 106.25 43.9593 117.715 37.1742C123.536 33.7298 125.803 26.7958 122.779 21.6867C119.756 16.5776 112.586 15.2281 106.766 18.6726Z" fill="black"/>
<path d="M109.656 24.5769C103.823 28.0287 105.333 29.2568 106.48 31.1952C107.628 33.1337 108.096 34.9785 113.81 31.5967C116.711 29.88 118.133 26.9168 116.985 24.9784C115.838 23.0399 112.557 22.8602 109.656 24.5769Z" fill="#FFCACA"/>
<path d="M17.4811 24.5769C23.3138 28.0287 21.8036 29.2568 20.6564 31.1952C19.5092 33.1337 19.0411 34.9785 13.3267 31.5967C10.4258 29.88 9.0042 26.9168 10.1514 24.9784C11.2986 23.0399 14.5802 22.8602 17.4811 24.5769Z" fill="#FFCACA"/>
<path d="M86.3822 121.898C94.6705 116.387 83.4665 82.0053 75.3709 77.6748C67.2754 73.3443 54.1084 74.0004 48.3258 77.6748C42.5432 81.3492 28.2535 116.256 36.5418 121.898C44.8301 127.541 78.0939 127.41 86.3822 121.898Z" fill="white"/>
<path fill-rule="evenodd" clip-rule="evenodd" d="M64.2354 126.04C64.3 124.005 64.2327 119.857 62.8181 117.382C60.5531 113.42 53.154 110.811 53.154 110.811C50.1903 110.36 43.7991 108.221 41.9435 103.273C41.1533 101.165 39.33 99.7544 37.2232 98.834C33.9157 108.792 32.3641 119.054 36.5378 121.895C41.0519 124.968 52.9743 126.329 64.2354 126.04Z" fill="black"/>
<path d="M22.4275 105.289C22.2561 95.2997 34.784 84.3208 41.0694 80.0801C41.9265 80.0801 43.9836 80.4099 45.355 81.7293C47.0692 83.3784 39.9981 106.231 37.4268 111.179C34.8555 116.126 22.6418 117.776 22.4275 105.289Z" fill="white"/>
<path d="M83.5001 109.424C83.5001 119.736 74.6734 122.213 63.7852 122.213C52.897 122.213 44.0703 119.736 44.0703 109.424C44.0703 95.8685 52.897 88.1953 63.7852 88.1953C74.6734 88.1953 83.5001 95.8685 83.5001 109.424Z" fill="#FFD2D2"/>
<path d="M63.5938 82.9785C63.6732 82.9788 63.7519 82.9683 63.8254 82.9475C63.8989 82.9268 63.9657 82.8962 64.0221 82.8576L66.7065 80.9812C66.8053 80.9014 66.857 80.7988 66.8511 80.6939C66.8452 80.5889 66.7823 80.4894 66.6749 80.4151C66.5674 80.3408 66.4234 80.2973 66.2716 80.2933C66.1198 80.2892 65.9713 80.3249 65.8559 80.3932L63.1655 82.2488C63.109 82.2875 63.0641 82.3337 63.0335 82.3845C63.0028 82.4353 62.9871 82.4898 62.9871 82.5448C62.9871 82.5999 63.0028 82.6544 63.0335 82.7052C63.0641 82.756 63.109 82.8021 63.1655 82.8409C63.2198 82.8825 63.2858 82.9162 63.3594 82.9399C63.433 82.9635 63.5127 82.9766 63.5938 82.9785Z" fill="#FF8D8D"/>
<path d="M66.2496 82.9785C66.3283 82.9788 66.4064 82.9683 66.4793 82.9476C66.5523 82.9269 66.6186 82.8964 66.6745 82.8578C66.7306 82.8192 66.7751 82.7732 66.8055 82.7225C66.8359 82.6718 66.8516 82.6174 66.8516 82.5625C66.8516 82.5076 66.8359 82.4532 66.8055 82.4025C66.7751 82.3518 66.7306 82.3058 66.6745 82.2671L64.011 80.416C63.9554 80.377 63.8892 80.3461 63.8163 80.325C63.7433 80.3038 63.6651 80.293 63.5861 80.293C63.5071 80.293 63.4288 80.3038 63.3559 80.325C63.283 80.3461 63.2168 80.377 63.1611 80.416C63.0496 80.494 62.9871 80.5994 62.9871 80.7093C62.9871 80.8192 63.0496 80.9246 63.1611 81.0026L65.8306 82.8578C65.9421 82.9347 66.0925 82.978 66.2496 82.9785Z" fill="#FF8D8D"/>
<path d="M112.09 58.6272C112.09 78.8025 89.9667 85.4927 63.0777 85.4927C36.1887 85.4927 13.9023 78.8025 13.9023 58.6272C13.9023 24.2263 36.1887 12.4316 63.0777 12.4316C89.9667 12.4316 112.09 22.5881 112.09 58.6272Z" fill="white"/>
<path fill-rule="evenodd" clip-rule="evenodd" d="M66.4972 12.4883C66.723 18.9258 68.0675 27.3697 72.2857 30.7844C75.995 33.7872 80.2757 34.5519 84.1009 35.2352C87.3701 35.8192 90.3066 36.3438 92.2692 38.1554C93.3119 39.1179 94.2368 40.4536 95.2387 41.9004C98.2569 46.2591 101.973 51.6259 111.713 50.8348C108.832 22.4749 89.8022 13.2784 66.4972 12.4883Z" fill="black"/>
<path d="M39.4141 54.9512V61.1362" stroke="black" stroke-width="5.7985" stroke-linecap="round"/>
<path d="M91.2148 54.9512V61.1362" stroke="black" stroke-width="5.7985" stroke-linecap="round"/>
<path d="M47.1445 69.3314C47.1445 61.3894 53.5828 54.9512 61.5248 54.9512H68.7149C76.6569 54.9512 83.0952 61.3894 83.0952 69.3314C83.0952 74.6261 78.803 78.9183 73.5084 78.9183H56.7314C51.4367 78.9183 47.1445 74.6261 47.1445 69.3314Z" fill="#FFCACA"/>
<path d="M57.5822 65.7773V70.0296" stroke="black" stroke-width="3.86566" stroke-linecap="round"/>
<path d="M73.047 65.7773L73.047 70.0296" stroke="black" stroke-width="3.86566" stroke-linecap="round"/>
<path d="M27.8203 70.0312H33.6188" stroke="#FFD2D2" stroke-width="7.73133" stroke-linecap="round"/>
<path d="M97.0117 70.0312H102.81" stroke="#FFD2D2" stroke-width="7.73133" stroke-linecap="round"/>
<path d="M78.0752 72.957C85.3175 74.8137 87.9123 81.4983 89.2672 88.4076C89.0353 89.2328 88.2413 91.1464 86.92 92.1997C85.2684 93.5162 72.6439 89.682 69.7754 86.2052C66.9068 82.7284 69.0223 70.6362 78.0752 72.957Z" fill="#EFEFEF"/>
</g>
<g clip-path="url(#clip1_3002_264)">
<ellipse cx="16.3907" cy="17.663" rx="16.3907" ry="17.663" transform="matrix(-0.877234 -0.480064 -0.480064 0.877234 228.383 19.0645)" fill="#49B236"/>
<ellipse cx="134.311" cy="26.2315" rx="16.3907" ry="17.663" transform="rotate(-28.6896 134.311 26.2315)" fill="#49B236"/>
<path d="M123.196 95.7441C133.092 99.5387 148.58 91.0334 155.087 86.3065C155.398 85.4521 155.816 83.2819 154.998 81.4363C153.976 79.1294 128.631 77.8878 122.766 78.6561C116.902 79.4244 110.827 91.0009 123.196 95.7441Z" fill="#35923E"/>
<path d="M145.162 124.319C136.37 118.473 148.255 82.0019 156.842 77.4083C165.43 72.8147 179.397 73.5106 185.531 77.4083C191.665 81.306 206.823 118.333 198.031 124.319C189.239 130.305 153.954 130.166 145.162 124.319Z" fill="#49B236"/>
<path d="M213.006 106.702C213.188 96.1053 199.899 84.4594 193.231 79.9609C192.322 79.9609 190.14 80.3108 188.685 81.7103C186.867 83.4597 194.368 107.701 197.095 112.95C199.823 118.198 212.779 119.947 213.006 106.702Z" fill="#49B236"/>
<path d="M149.041 110.059C149.041 122.489 158.404 125.474 169.954 125.474C181.504 125.474 190.867 122.489 190.867 110.059C190.867 93.7181 181.504 84.4688 169.954 84.4688C158.404 84.4688 149.041 93.7181 149.041 110.059Z" fill="#9CD43D"/>
<path d="M169.268 80.1951C169.183 80.1955 169.1 80.1846 169.022 80.1633C168.944 80.1419 168.873 80.1104 168.813 80.0706L165.963 78.1384C165.858 78.0562 165.803 77.9506 165.809 77.8425C165.815 77.7344 165.882 77.6319 165.996 77.5555C166.11 77.479 166.263 77.4342 166.424 77.43C166.586 77.4258 166.743 77.4626 166.866 77.5329L169.722 79.4437C169.782 79.4836 169.83 79.5311 169.863 79.5834C169.895 79.6358 169.912 79.6919 169.912 79.7486C169.912 79.8053 169.895 79.8614 169.863 79.9137C169.83 79.966 169.782 80.0135 169.722 80.0534C169.665 80.0963 169.595 80.131 169.517 80.1554C169.438 80.1797 169.354 80.1932 169.268 80.1951Z" fill="#49B236"/>
<path d="M166.448 80.1951C166.364 80.1955 166.281 80.1847 166.204 80.1633C166.126 80.142 166.056 80.1106 165.997 80.0709C165.937 80.0311 165.89 79.9837 165.857 79.9315C165.825 79.8793 165.809 79.8233 165.809 79.7668C165.809 79.7102 165.825 79.6542 165.857 79.602C165.89 79.5498 165.937 79.5024 165.997 79.4626L168.825 77.5564C168.884 77.5163 168.954 77.4844 169.031 77.4626C169.109 77.4409 169.192 77.4297 169.276 77.4297C169.36 77.4297 169.443 77.4409 169.52 77.4626C169.598 77.4844 169.668 77.5163 169.727 77.5564C169.845 77.6367 169.912 77.7452 169.912 77.8584C169.912 77.9716 169.845 78.0801 169.727 78.1604L166.893 80.0709C166.774 80.1501 166.615 80.1947 166.448 80.1951Z" fill="#49B236"/>
<path d="M116.846 55.0557C116.846 76.6833 140.684 83.8552 169.656 83.8552C198.628 83.8552 222.641 76.6833 222.641 55.0557C222.641 23.987 198.628 10.6602 169.656 10.6602C140.684 10.6602 116.846 21.5266 116.846 55.0557Z" fill="#49B236"/>
<path d="M202.551 26.6543V33.2152" stroke="black" stroke-width="6.15085" stroke-linecap="round"/>
<path d="M132.84 26.2422V32.8031" stroke="black" stroke-width="6.15085" stroke-linecap="round"/>
<path d="M211.57 47.5645H204.599" stroke="#9CD43D" stroke-width="8.20113" stroke-linecap="round"/>
<path d="M135.711 47.5645H128.74" stroke="#9CD43D" stroke-width="8.20113" stroke-linecap="round"/>
<path d="M159.899 41.0262C159.899 36.0993 159.899 33.6224 169.125 33.6224C178.352 33.6224 178.352 35.6592 178.352 41.0262C178.352 49.8196 174.221 54.9453 169.125 54.9453C164.03 54.9453 159.899 49.2045 159.899 41.0262Z" fill="#FFD2D2"/>
<path fill-rule="evenodd" clip-rule="evenodd" d="M178.34 41.9397C178.065 50.176 174.046 54.9492 169.129 54.9492C165.559 54.9492 162.463 52.1311 160.929 47.631C162.713 45.5465 165.353 43.7389 168.542 42.6212C172.02 41.4017 175.502 41.2309 178.34 41.9397Z" fill="#FF2D2D"/>
</g>
<defs>
<clipPath id="clip0_3002_264">
<rect width="121.732" height="100.439" fill="white" transform="translate(0 1.60742)"/>
</clipPath>
<clipPath id="clip1_3002_264">
<rect width="115.304" height="102.046" fill="white" transform="matrix(-1 0 0 1 229 0)"/>
</clipPath>
</defs>
</svg>
