<svg width="315" height="348" viewBox="0 0 315 348" fill="none" xmlns="http://www.w3.org/2000/svg">
<g clip-path="url(#clip0_432_4943)">
<path d="M45.7679 44.151C76.0413 62.0668 66.6891 70.9988 58.8675 84.2153C51.0459 97.4319 47.1024 109.565 17.4434 92.0125C2.38716 83.1022 -3.4777 65.1648 4.3439 51.9482C12.1655 38.7316 30.7117 35.2407 45.7679 44.151Z" fill="white"/>
<path d="M224 47.2143C224 63.9012 229.82 64 237 64C244.18 64 250 63.9012 250 47.2143C250 30.5274 242.032 17 237 17C231.968 17 224 30.5274 224 47.2143Z" fill="#6A5B3D"/>
<path d="M67 47.2143C67 63.9012 72.8203 64 80 64C87.1797 64 93 63.9012 93 47.2143C93 30.5274 85.0323 17 80 17C74.9677 17 67 30.5274 67 47.2143Z" fill="#6A5B3D"/>
<path d="M268.375 44.151C238.101 62.0668 247.454 70.9988 255.275 84.2153C263.097 97.4319 267.04 109.565 296.699 92.0125C311.755 83.1022 317.62 65.1648 309.799 51.9482C301.977 38.7316 283.431 35.2407 268.375 44.151Z" fill="#123041"/>
<path d="M275.845 59.4247C260.757 68.3542 264.664 71.531 267.631 76.5456C270.599 81.5601 271.81 86.3324 286.592 77.5841C294.096 73.1431 297.774 65.4778 294.806 60.4633C291.839 55.4487 283.35 54.9837 275.845 59.4247Z" fill="#FFC0C1"/>
<path d="M37.3988 59.4247C52.4873 68.3542 48.5806 71.531 45.613 76.5456C42.6453 81.5601 41.4344 86.3324 26.652 77.5841C19.1478 73.1431 15.4702 65.4778 18.4378 60.4633C21.4055 55.4487 29.8946 54.9837 37.3988 59.4247Z" fill="#FFC0C1"/>
<path d="M282.384 190.767C270.802 213.872 228.923 224.022 209.431 226.209C207.466 225.181 203.146 221.959 201.584 217.291C199.631 211.455 243.235 167.545 255.061 159.285C266.886 151.026 296.861 161.887 282.384 190.767Z" fill="#EFEFEF"/>
<path d="M216.076 354.458C223.248 351.526 230.231 312.452 228.816 293L159.926 303.995C158.51 319.782 158.416 351.977 161.813 354.458C166.06 357.559 207.111 358.123 216.076 354.458Z" fill="#EFEFEF"/>
<path d="M221.46 311.179C242.901 296.921 213.917 207.981 192.975 196.778C172.033 185.576 137.972 187.273 123.013 196.778C108.054 206.284 71.0882 296.582 92.529 311.179C113.97 325.776 200.019 325.437 221.46 311.179Z" fill="white"/>
<path fill-rule="evenodd" clip-rule="evenodd" d="M164.166 321.903C164.333 316.64 164.16 305.904 160.5 299.501C154.641 289.251 135.5 282.501 135.5 282.501C127.833 281.334 111.3 275.801 106.5 263.001C104.457 257.554 99.7462 253.905 94.3013 251.524C85.7457 277.283 81.7325 303.829 92.529 311.179C104.205 319.128 135.039 322.648 164.166 321.903Z" fill="#123041"/>
<path d="M98.9241 354.458C91.752 351.526 84.7685 312.452 86.1842 293L155.074 303.995C156.49 319.782 156.584 351.977 153.187 354.458C148.94 357.559 107.889 358.123 98.9241 354.458Z" fill="#123041"/>
<path d="M214 278.917C214 305.593 191.167 312 163 312C134.833 312 112 305.593 112 278.917C112 243.85 134.833 224 163 224C191.167 224 214 243.85 214 278.917Z" fill="#FFC0C1"/>
<path d="M162.57 281.936C162.775 281.937 162.979 281.9 163.169 281.828C163.359 281.756 163.532 281.651 163.678 281.517L170.625 275.015C170.88 274.739 171.014 274.383 170.999 274.02C170.984 273.656 170.821 273.311 170.543 273.054C170.265 272.797 169.892 272.646 169.499 272.632C169.106 272.618 168.722 272.742 168.424 272.978L161.462 279.407C161.315 279.542 161.199 279.701 161.12 279.877C161.041 280.054 161 280.242 161 280.433C161 280.624 161.041 280.813 161.12 280.989C161.199 281.165 161.315 281.325 161.462 281.459C161.602 281.603 161.773 281.72 161.963 281.802C162.154 281.884 162.36 281.929 162.57 281.936Z" fill="#FF8D8D"/>
<path d="M169.442 281.936C169.646 281.937 169.848 281.9 170.037 281.829C170.226 281.757 170.397 281.651 170.542 281.518C170.687 281.384 170.802 281.224 170.881 281.049C170.96 280.873 171 280.685 171 280.494C171 280.304 170.96 280.116 170.881 279.94C170.802 279.764 170.687 279.605 170.542 279.471L163.65 273.057C163.506 272.922 163.334 272.815 163.146 272.742C162.957 272.669 162.754 272.631 162.55 272.631C162.346 272.631 162.143 272.669 161.954 272.742C161.766 272.815 161.594 272.922 161.45 273.057C161.162 273.327 161 273.693 161 274.073C161 274.454 161.162 274.819 161.45 275.089L168.358 281.518C168.647 281.784 169.036 281.934 169.442 281.936Z" fill="#FF8D8D"/>
<path d="M28.1426 147.502C28.1426 199.693 85.3734 217 154.932 217C224.491 217 282.143 199.693 282.143 147.502C282.143 58.5112 224.491 28 154.932 28C85.3734 28 28.1426 54.2735 28.1426 147.502Z" fill="white"/>
<path fill-rule="evenodd" clip-rule="evenodd" d="M164.191 28.1465C164.776 44.7992 168.254 66.6407 179.165 75.4737C188.761 83.2415 199.835 85.2197 209.73 86.9874C218.187 88.4982 225.783 89.8552 230.86 94.5415C233.558 97.0315 235.95 100.487 238.542 104.229C246.35 115.506 255.965 129.391 281.166 127.341C273.711 53.977 224.481 30.1886 164.191 28.1465Z" fill="#123041"/>
<path d="M105.677 141.473C105.677 141.473 102.65 138 95.8383 138C89.027 138 85.9998 141.473 85.9998 141.473" stroke="#123041" stroke-width="12.3409" stroke-linecap="round"/>
<path d="M243.677 141.473C243.677 141.473 240.65 138 233.838 138C227.027 138 224 141.473 224 141.473" stroke="#123041" stroke-width="12.3409" stroke-linecap="round"/>
<path d="M118 175.2C118 154.655 134.655 138 155.2 138H173.8C194.345 138 211 154.655 211 175.2C211 188.897 199.897 200 186.2 200H142.8C129.103 200 118 188.897 118 175.2Z" fill="#FFC0C1"/>
<path d="M145 166V177" stroke="#123041" stroke-width="10" stroke-linecap="round"/>
<path d="M185 166L185 177" stroke="#123041" stroke-width="10" stroke-linecap="round"/>
<path d="M68 177H83" stroke="#FFC0C1" stroke-width="20" stroke-linecap="round"/>
<path d="M247 177H262" stroke="#FFC0C1" stroke-width="20" stroke-linecap="round"/>
<path d="M47.2553 201.491C57.537 225.203 85.2566 225.573 104.597 228.839C106.616 227.922 111.108 224.944 112.927 220.37C115.201 214.652 87.6322 180.476 76.2836 171.573C64.9349 162.671 34.4032 171.851 47.2553 201.491Z" fill="#EFEFEF"/>
</g>
<defs>
<clipPath id="clip0_432_4943">
<rect width="315" height="348" fill="white" transform="matrix(-1 0 0 1 315 0)"/>
</clipPath>
</defs>
</svg>
