<svg width="303" height="250" viewBox="0 0 303 250" fill="none" xmlns="http://www.w3.org/2000/svg">
<g clip-path="url(#clip0_432_4520)">
<path d="M51.5616 42.4803C80.6905 59.7189 71.6918 68.3131 64.1659 81.0301C56.64 93.747 52.8456 105.421 24.3078 88.5325C9.82076 79.959 4.17762 62.6997 11.7035 49.9827C19.2294 37.2658 37.0745 33.9068 51.5616 42.4803Z" fill="white"/>
<path d="M94.2607 45.4305C94.2607 61.4865 88.6605 61.5816 81.7522 61.5816C74.8439 61.5816 69.2437 61.4865 69.2437 45.4305C69.2437 29.3744 76.9102 16.3584 81.7522 16.3584C86.5942 16.3584 94.2607 29.3744 94.2607 45.4305Z" fill="#6A5B3D"/>
<path d="M245.326 45.4305C245.326 61.4865 239.726 61.5816 232.818 61.5816C225.909 61.5816 220.309 61.4865 220.309 45.4305C220.309 29.3744 227.976 16.3584 232.818 16.3584C237.66 16.3584 245.326 29.3744 245.326 45.4305Z" fill="#6A5B3D"/>
<path d="M265.754 42.4803C236.625 59.7189 245.624 68.3131 253.15 81.0301C260.675 93.747 264.47 105.421 293.008 88.5325C307.495 79.959 313.138 62.6997 305.612 49.9827C298.086 37.2658 280.241 33.9068 265.754 42.4803Z" fill="#123041"/>
<path d="M272.945 57.1764C258.427 65.7682 262.186 68.825 265.042 73.65C267.897 78.475 269.062 83.0668 283.286 74.6493C290.506 70.3762 294.045 63.0007 291.19 58.1757C288.334 53.3506 280.166 52.9033 272.945 57.1764Z" fill="#FFC0C1"/>
<path d="M43.5125 57.1764C58.0307 65.7682 54.2716 68.825 51.4162 73.65C48.5607 78.475 47.3956 83.0668 33.172 74.6493C25.9515 70.3762 22.4129 63.0007 25.2684 58.1757C28.1238 53.3506 36.292 52.9033 43.5125 57.1764Z" fill="#FFC0C1"/>
<path d="M215.012 299.416C235.643 285.697 207.755 200.119 187.604 189.34C167.454 178.561 134.68 180.194 120.287 189.34C105.893 198.486 70.325 285.37 90.9552 299.416C111.585 313.461 194.382 313.134 215.012 299.416Z" fill="white"/>
<path fill-rule="evenodd" clip-rule="evenodd" d="M159.883 309.733C160.044 304.67 159.878 294.337 156.355 288.175C150.717 278.312 132.3 271.817 132.3 271.817C124.923 270.695 109.015 265.371 104.396 253.055C102.431 247.814 97.8992 244.304 92.6611 242.013C84.4284 266.799 80.5663 292.342 90.955 299.415C102.189 307.063 131.857 310.449 159.883 309.733Z" fill="#123041"/>
<path d="M55.812 258.072C55.3853 233.208 86.5683 205.881 102.213 195.325C104.347 195.325 109.467 196.146 112.88 199.43C117.147 203.535 99.5466 260.418 93.1464 272.733C86.7462 285.048 56.3453 289.153 55.812 258.072Z" fill="white"/>
<path d="M207.835 268.373C207.835 294.041 185.865 300.205 158.763 300.205C131.662 300.205 109.691 294.041 109.691 268.373C109.691 234.631 131.662 215.532 158.763 215.532C185.865 215.532 207.835 234.631 207.835 268.373Z" fill="#FFC0C1"/>
<path d="M158.302 202.54C158.499 202.541 158.695 202.515 158.878 202.463C159.061 202.411 159.228 202.335 159.368 202.239L166.05 197.568C166.296 197.37 166.424 197.115 166.41 196.853C166.395 196.592 166.238 196.344 165.971 196.159C165.703 195.975 165.345 195.866 164.967 195.856C164.589 195.846 164.22 195.935 163.932 196.105L157.236 200.724C157.095 200.82 156.983 200.935 156.907 201.061C156.831 201.188 156.792 201.324 156.792 201.461C156.792 201.598 156.831 201.733 156.907 201.86C156.983 201.986 157.095 202.101 157.236 202.197C157.371 202.301 157.535 202.385 157.718 202.444C157.901 202.503 158.1 202.535 158.302 202.54Z" fill="#FF8D8D"/>
<path d="M164.912 202.54C165.108 202.541 165.303 202.515 165.484 202.463C165.666 202.412 165.831 202.336 165.97 202.24C166.11 202.143 166.22 202.029 166.296 201.903C166.372 201.777 166.411 201.641 166.411 201.505C166.411 201.368 166.372 201.232 166.296 201.106C166.22 200.98 166.11 200.866 165.97 200.769L159.34 196.162C159.202 196.065 159.037 195.988 158.856 195.935C158.674 195.883 158.479 195.855 158.283 195.855C158.086 195.855 157.891 195.883 157.71 195.935C157.528 195.988 157.363 196.065 157.225 196.162C156.947 196.356 156.792 196.618 156.792 196.892C156.792 197.165 156.947 197.428 157.225 197.622L163.869 202.24C164.147 202.431 164.521 202.539 164.912 202.54Z" fill="#FF8D8D"/>
<path d="M279.003 141.925C279.003 192.143 223.936 208.795 157.007 208.795C90.078 208.795 34.6055 192.143 34.6055 141.925C34.6055 56.2982 90.078 26.9404 157.007 26.9404C223.936 26.9404 279.003 52.2207 279.003 141.925Z" fill="white"/>
<path fill-rule="evenodd" clip-rule="evenodd" d="M165.508 27.082C166.07 43.1055 169.417 64.1225 179.916 72.622C189.149 80.0961 199.804 81.9995 209.325 83.7004C217.463 85.1541 224.772 86.4598 229.657 90.9689C232.252 93.3648 234.555 96.6895 237.048 100.291C244.561 111.14 253.812 124.5 278.058 122.529C270.886 51.9377 223.518 29.0477 165.508 27.082Z" fill="#123041"/>
<path d="M98.1094 132.782V148.177" stroke="#123041" stroke-width="14.4329" stroke-linecap="round"/>
<path d="M227.041 132.782V148.177" stroke="#123041" stroke-width="14.4329" stroke-linecap="round"/>
<path d="M117.353 168.576C117.353 148.808 133.378 132.782 153.147 132.782H171.044C190.812 132.782 206.837 148.808 206.837 168.576C206.837 181.755 196.154 192.438 182.975 192.438H141.216C128.037 192.438 117.353 181.755 117.353 168.576Z" fill="#FFC0C1"/>
<path d="M143.332 159.724V170.308" stroke="#123041" stroke-width="9.62196" stroke-linecap="round"/>
<path d="M181.819 159.724L181.819 170.308" stroke="#123041" stroke-width="9.62196" stroke-linecap="round"/>
<path d="M69.2437 170.31H83.6766" stroke="#FFC0C1" stroke-width="19.2439" stroke-linecap="round"/>
<path d="M241.474 170.31H255.907" stroke="#FFC0C1" stroke-width="19.2439" stroke-linecap="round"/>
<path d="M194.343 177.599C212.369 182.22 218.828 198.859 222.2 216.057C221.623 218.11 224 224 216.358 225.495C211.199 226.505 180.824 219.228 173.684 210.574C166.544 201.921 171.809 171.822 194.343 177.599Z" fill="#EFEFEF"/>
</g>
<defs>
<clipPath id="clip0_432_4520">
<rect width="303" height="250" fill="white"/>
</clipPath>
</defs>
</svg>
