<svg width="287" height="254" viewBox="0 0 287 254" fill="none" xmlns="http://www.w3.org/2000/svg">
<g clip-path="url(#clip0_432_4549)">
<ellipse cx="40.7978" cy="43.9648" rx="40.7978" ry="43.9648" transform="matrix(-0.877234 -0.480064 -0.480064 0.877234 285.464 47.4502)" fill="#5BB42B"/>
<ellipse cx="51.3179" cy="65.2973" rx="40.7978" ry="43.9648" transform="rotate(-28.6896 51.3179 65.2973)" fill="#5BB42B"/>
<path d="M23.6471 238.32C48.2772 247.765 86.8292 226.594 103.026 214.828C103.8 212.702 104.839 207.3 102.804 202.706C100.26 196.964 37.174 193.874 22.5768 195.786C7.97948 197.698 -7.14058 226.513 23.6471 238.32Z" fill="#5C9A15"/>
<path d="M78.3158 309.443C56.4319 294.891 86.0143 204.112 107.389 192.678C128.764 181.244 163.53 182.977 178.798 192.678C194.065 202.38 231.795 294.544 209.911 309.443C188.027 324.342 100.2 323.995 78.3158 309.443Z" fill="#5BB42B"/>
<path d="M247.189 265.588C247.642 239.213 214.564 210.225 197.968 199.028C195.705 199.028 190.274 199.899 186.653 203.383C182.127 207.737 200.797 268.076 207.586 281.14C214.375 294.203 246.623 298.557 247.189 265.588Z" fill="#5BB42B"/>
<path d="M87.9699 273.95C87.9699 304.89 111.275 312.321 140.024 312.321C168.772 312.321 192.078 304.89 192.078 273.95C192.078 233.277 168.772 210.255 140.024 210.255C111.275 210.255 87.9699 233.277 87.9699 273.95Z" fill="#A1DC3C"/>
<path d="M138.321 199.62C138.112 199.621 137.904 199.594 137.709 199.54C137.515 199.487 137.338 199.409 137.189 199.31L130.095 194.5C129.834 194.296 129.697 194.033 129.713 193.764C129.728 193.495 129.894 193.24 130.178 193.049C130.462 192.859 130.843 192.748 131.244 192.737C131.645 192.727 132.038 192.818 132.343 192.993L139.453 197.749C139.603 197.849 139.721 197.967 139.802 198.097C139.883 198.227 139.925 198.367 139.925 198.508C139.925 198.649 139.883 198.789 139.802 198.919C139.721 199.05 139.603 199.168 139.453 199.267C139.31 199.374 139.136 199.46 138.941 199.521C138.747 199.581 138.536 199.615 138.321 199.62Z" fill="#5BB42B"/>
<path d="M131.302 199.62C131.094 199.621 130.888 199.594 130.695 199.541C130.502 199.488 130.327 199.409 130.179 199.311C130.031 199.211 129.913 199.094 129.833 198.964C129.753 198.834 129.711 198.694 129.711 198.554C129.711 198.413 129.753 198.273 129.833 198.143C129.913 198.014 130.031 197.896 130.179 197.796L137.219 193.052C137.366 192.952 137.541 192.872 137.733 192.818C137.926 192.764 138.133 192.736 138.342 192.736C138.551 192.736 138.757 192.764 138.95 192.818C139.143 192.872 139.318 192.952 139.465 193.052C139.76 193.252 139.925 193.522 139.925 193.803C139.925 194.085 139.76 194.355 139.465 194.555L132.41 199.311C132.115 199.508 131.717 199.619 131.302 199.62Z" fill="#5BB42B"/>
<path d="M7.84341 137.04C7.84341 190.873 67.1768 208.725 139.291 208.725C211.405 208.725 271.175 190.873 271.175 137.04C271.175 59.7077 211.405 26.5361 139.291 26.5361C67.1768 26.5361 7.84341 53.5837 7.84341 137.04Z" fill="#5BB42B"/>
<path d="M221.164 66.3418V82.6724" stroke="black" stroke-width="15.31" stroke-linecap="round"/>
<path d="M47.6484 65.3213V81.6519" stroke="black" stroke-width="15.31" stroke-linecap="round"/>
<path d="M243.616 118.396H226.265" stroke="#A1DC3C" stroke-width="20.4133" stroke-linecap="round"/>
<path d="M54.7944 118.396H37.4431" stroke="#A1DC3C" stroke-width="20.4133" stroke-linecap="round"/>
<path d="M115.013 102.122C115.013 89.8584 115.013 83.693 137.978 83.693C160.943 83.693 160.943 88.7628 160.943 102.122C160.943 124.009 150.662 136.768 137.978 136.768C125.295 136.768 115.013 122.478 115.013 102.122Z" fill="#D52C2F"/>
<path fill-rule="evenodd" clip-rule="evenodd" d="M160.905 104.387C160.22 124.888 150.217 136.769 137.978 136.769C129.093 136.769 121.386 129.756 117.568 118.558C122.009 113.368 128.583 108.867 136.52 106.085C145.177 103.05 153.842 102.624 160.905 104.387Z" fill="#FF686B"/>
</g>
<defs>
<clipPath id="clip0_432_4549">
<rect width="287" height="254" fill="white" transform="matrix(-1 0 0 1 287 0)"/>
</clipPath>
</defs>
</svg>
