<svg width="277" height="331" viewBox="0 0 277 331" fill="none" xmlns="http://www.w3.org/2000/svg">
<g clip-path="url(#clip0_432_4922)">
<ellipse cx="39.3762" cy="42.4329" rx="39.3762" ry="42.4329" transform="matrix(-0.877234 -0.480064 -0.480064 0.877234 275.519 46.7129)" fill="#5BB42B"/>
<ellipse cx="49.5308" cy="63.9387" rx="39.3762" ry="42.4329" transform="rotate(-28.6896 49.5308 63.9387)" fill="#5BB42B"/>
<path d="M22.822 230.932C46.5939 240.048 83.8026 219.615 99.4355 208.259C100.182 206.207 101.185 200.994 99.221 196.56C96.7656 191.018 35.8776 188.035 21.7889 189.881C7.70028 191.726 -6.89296 219.537 22.822 230.932Z" fill="#5C9A15"/>
<path d="M80.8903 342.213C73.825 339.324 66.9456 300.833 68.3401 281.67L136.204 292.501C137.598 308.053 137.691 339.769 134.345 342.213C130.161 345.268 89.7219 345.823 80.8903 342.213Z" fill="#5C9A15"/>
<path d="M75.5862 299.578C54.4649 285.532 83.0165 197.917 103.647 186.881C124.277 175.846 157.831 177.518 172.567 186.881C187.303 196.245 223.718 285.198 202.596 299.578C181.475 313.957 96.7076 313.623 75.5862 299.578Z" fill="#5BB42B"/>
<path d="M196.297 342.213C203.362 339.324 210.241 300.833 208.847 281.67L140.983 292.501C139.589 308.053 139.496 339.769 142.842 342.213C147.026 345.268 187.465 345.823 196.297 342.213Z" fill="#5BB42B"/>
<path d="M238.576 257.251C239.013 231.794 207.088 203.817 191.07 193.01C188.886 193.01 183.644 193.85 180.149 197.212C175.781 201.415 193.8 259.652 200.353 272.26C206.905 284.868 238.03 289.071 238.576 257.251Z" fill="#5BB42B"/>
<path d="M84.9054 265.322C84.9054 295.184 107.399 302.356 135.146 302.356C162.892 302.356 185.386 295.184 185.386 265.322C185.386 226.066 162.892 203.846 135.146 203.846C107.399 203.846 84.9054 226.066 84.9054 265.322Z" fill="#A1DC3C"/>
<path d="M133.501 260.33C133.299 260.331 133.098 260.296 132.911 260.227C132.723 260.158 132.553 260.056 132.409 259.927L125.561 253.677C125.309 253.411 125.178 253.07 125.193 252.72C125.208 252.371 125.368 252.039 125.642 251.792C125.916 251.544 126.284 251.399 126.671 251.386C127.058 251.372 127.437 251.491 127.731 251.719L134.594 257.899C134.738 258.029 134.853 258.182 134.931 258.351C135.009 258.521 135.049 258.702 135.049 258.886C135.049 259.069 135.009 259.251 134.931 259.42C134.853 259.589 134.738 259.743 134.594 259.872C134.455 260.011 134.287 260.123 134.099 260.201C133.912 260.28 133.708 260.324 133.501 260.33Z" fill="#5BB42B"/>
<path d="M126.727 260.33C126.526 260.331 126.327 260.296 126.141 260.227C125.955 260.158 125.786 260.057 125.643 259.928C125.5 259.799 125.386 259.646 125.309 259.477C125.231 259.309 125.191 259.127 125.191 258.944C125.191 258.762 125.231 258.58 125.309 258.412C125.386 258.243 125.5 258.089 125.643 257.961L132.437 251.795C132.579 251.665 132.748 251.562 132.934 251.491C133.12 251.421 133.32 251.385 133.521 251.385C133.723 251.385 133.922 251.421 134.108 251.491C134.294 251.562 134.463 251.665 134.605 251.795C134.889 252.054 135.049 252.405 135.049 252.771C135.049 253.138 134.889 253.489 134.605 253.748L127.796 259.928C127.511 260.184 127.128 260.329 126.727 260.33Z" fill="#5BB42B"/>
<path d="M7.56902 133.182C7.56902 185.139 64.835 202.369 134.436 202.369C204.038 202.369 261.725 185.139 261.725 133.182C261.725 58.5441 204.038 26.5283 134.436 26.5283C64.835 26.5283 7.56902 52.6335 7.56902 133.182Z" fill="#5BB42B"/>
<path d="M213.458 64.9463V80.7079" stroke="#123041" stroke-width="14.7765" stroke-linecap="round"/>
<path d="M45.9883 63.9619V79.7235" stroke="#123041" stroke-width="14.7765" stroke-linecap="round"/>
<path d="M235.127 115.187H218.38" stroke="#A1DC3C" stroke-width="19.702" stroke-linecap="round"/>
<path d="M52.8857 115.187H36.139" stroke="#A1DC3C" stroke-width="19.702" stroke-linecap="round"/>
<path d="M111.006 99.4802C111.006 87.6442 111.006 81.6937 133.171 81.6937C155.335 81.6937 155.335 86.5868 155.335 99.4802C155.335 120.605 145.412 132.919 133.171 132.919C120.929 132.919 111.006 119.128 111.006 99.4802Z" fill="#D52C2F"/>
<path fill-rule="evenodd" clip-rule="evenodd" d="M155.3 101.666C154.639 121.452 144.984 132.919 133.172 132.919C124.596 132.919 117.158 126.151 113.472 115.343C117.76 110.334 124.104 105.99 131.764 103.304C140.119 100.375 148.483 99.9644 155.3 101.666Z" fill="#FF686B"/>
</g>
<defs>
<clipPath id="clip0_432_4922">
<rect width="277" height="330.084" fill="white" transform="matrix(-1 0 0 1 277 0.916016)"/>
</clipPath>
</defs>
</svg>
