<svg width="1090" height="651" viewBox="0 0 1090 651" fill="none" xmlns="http://www.w3.org/2000/svg">
<g clip-path="url(#clip0_497_41)">
<rect x="183" width="723" height="443" fill="#005271"/>
<rect x="229.74" y="235.386" width="131.523" height="197.002" fill="#123041"/>
<path d="M0 0H194.179V491.657L0 650.274V0Z" fill="#123041"/>
<path d="M1090 0H895.822V491.657L1090 650.274V0Z" fill="#123041"/>
<path d="M486.576 141.683H603.987" stroke="#005271" stroke-width="22.579" stroke-linecap="round"/>
<path d="M1090 650.274L895.821 432.387H194.179L0 650.274H1090Z" fill="#173A52"/>
<path d="M574.918 562.78C574.918 563.627 575.127 565.074 575.2 565.885C576.047 575.199 587.619 595.52 604.553 609.914C621.487 624.308 675.113 635.736 736.076 628.259C778.411 623.067 795.628 597.213 813.127 597.213C815.384 597.213 819.712 597.213 821.594 597.213" stroke="#071C28" stroke-width="1.69342" stroke-linecap="round"/>
<path d="M382.15 257.399V442.265" stroke="#123041" stroke-width="11.2895" stroke-linecap="round"/>
<rect x="384.971" y="282.801" width="335.862" height="11.2895" fill="#123041"/>
<rect x="384.971" y="382.147" width="335.862" height="11.2895" fill="#123041"/>
<path d="M717.731 507.462C718.389 507.462 719.966 507.819 721.4 508.591C728.738 512.542 739.321 551.25 750.752 554.596C773.895 561.369 790.83 557.982 797.039 567.014C803.248 576.046 772.767 586.206 754.139 579.997C735.511 573.788 721.682 590.44 730.431 604.552C739.18 618.663 780.105 592.698 810.304 592.698C815.497 592.698 819.053 592.698 820.182 592.698" stroke="#071C28" stroke-width="1.69342" stroke-linecap="round"/>
<rect x="816.796" y="510.849" width="64.3501" height="96.5251" rx="5.64474" fill="#071C28"/>
<circle cx="848.688" cy="578.304" r="22.8612" fill="#9EE7E5"/>
<circle cx="848.687" cy="578.304" r="4.79803" fill="#071C28"/>
<circle cx="848.687" cy="534.84" r="17.2165" fill="#9EE7E5"/>
<circle cx="848.687" cy="534.839" r="4.79803" fill="#071C28"/>
<path d="M720.834 257.964V442.829" stroke="#123041" stroke-width="11.2895" stroke-linecap="round"/>
<path d="M878.041 595.238C887.637 595.238 944.367 577.739 932.23 530.323C920.094 482.907 824.133 511.978 809.175 485.729C794.216 459.481 824.133 440.289 828.085 432.669C831.246 426.573 833.164 379.138 833.729 356.183" stroke="#071C28" stroke-width="1.12895"/>
<path d="M843.605 435.491C837.396 435.491 836.267 436.056 835.138 431.822C834.009 427.589 841.63 375.657 841.912 356.183" stroke="#071C28" stroke-width="1.12895"/>
<rect x="753.009" y="365.778" width="132.651" height="9.59606" rx="4.79803" fill="#123041"/>
<rect x="773.893" y="366.908" width="75.6396" height="9.59606" rx="4.79803" transform="rotate(90 773.893 366.908)" fill="#123041"/>
<rect x="876.063" y="366.908" width="75.6396" height="9.59606" rx="4.79803" transform="rotate(90 876.063 366.908)" fill="#123041"/>
<rect opacity="0.9" x="785.185" y="316.105" width="68.3014" height="40.6422" rx="2.31111" fill="#173A52"/>
<rect x="786.877" y="317.799" width="64.9146" height="37.2553" rx="1.54074" fill="#081F2B"/>
<rect x="814.537" y="356.747" width="9.59606" height="7.90264" fill="#173A52"/>
<rect x="809.457" y="364.085" width="19.1921" height="1.69342" fill="#173A52"/>
<path fill-rule="evenodd" clip-rule="evenodd" d="M799.295 265.304C794.619 265.304 790.828 269.095 790.828 273.771V283.931C790.828 288.608 794.619 292.398 799.295 292.398H813.098L819.616 303.688L826.134 292.398H839.373C844.049 292.398 847.84 288.608 847.84 283.931V273.771C847.84 269.095 844.049 265.304 839.373 265.304H799.295Z" fill="#D9D9D9"/>
<path d="M813.068 276.135H807.906V278.154H812.58V279.956H807.906V283.641H805.901V274.334H813.068V276.135ZM821.014 283.641L820.364 282.042H816.326L815.676 283.641H813.441L817.221 274.334H819.469L823.249 283.641H821.014ZM816.963 280.484H819.727L818.345 277.097L816.963 280.484ZM833.27 278.98C833.27 279.996 832.931 280.945 832.348 281.73L833.188 282.462L832.172 283.641L831.251 282.841C830.425 283.437 829.409 283.803 828.325 283.803C825.642 283.803 823.38 281.595 823.38 278.98C823.38 276.366 825.642 274.171 828.325 274.171C831.007 274.171 833.27 276.366 833.27 278.98ZM828.325 281.988C828.853 281.988 829.354 281.825 829.774 281.568L828.664 280.592L829.68 279.414L830.845 280.43C831.075 279.996 831.21 279.495 831.21 278.98C831.21 277.368 829.896 275.986 828.325 275.986C826.767 275.986 825.439 277.368 825.439 278.98C825.439 280.606 826.767 281.988 828.325 281.988Z" fill="black"/>
<rect x="842.633" y="395.496" width="22.6952" height="46.8088" rx="2.73736" fill="#071C28"/>
<g clip-path="url(#clip1_497_41)">
<path d="M422.783 273.976V278.268" stroke="#E3B133" stroke-width="5.36574"/>
<path d="M402.127 226.221L408.431 221.392M402.127 226.221L397.432 232.392M402.127 226.221L409.102 225.684M408.431 221.392L416.078 218.575M408.431 221.392L409.102 225.684M416.078 218.575L425.199 217.636M416.078 218.575L409.102 225.684M416.078 218.575L420.236 223.404M425.199 217.636L436.333 221.392M425.199 217.636L420.236 223.404M425.199 217.636L432.845 226.221M436.333 221.392L443.309 228.099M436.333 221.392L432.845 226.221M443.309 228.099L448.272 236.148M443.309 228.099L432.845 226.221M443.309 228.099L437.406 234.94M448.272 236.148L450.016 245.672M448.272 236.148L437.406 234.94M448.272 236.148L441.699 242.318M450.016 245.672L448.272 255.196M450.016 245.672L441.699 242.318M448.272 255.196L443.309 263.781M448.272 255.196H441.699M443.309 263.781L436.333 270.086M443.309 263.781L439.15 263.379M443.309 263.781L441.699 255.196M436.333 270.086L428.419 273.305M436.333 270.086L439.15 263.379M436.333 270.086L431.772 265.525M428.419 273.305H423.053M428.419 273.305L424.126 269.281M428.419 273.305L431.772 265.525M417.687 273.305L408.431 269.415M417.687 273.305L412.053 263.379M417.687 273.305H422.785H423.053M408.431 269.415L399.31 261.367M408.431 269.415L412.053 263.379M399.31 261.367L395.419 250.903M399.31 261.367L401.724 254.659M399.31 261.367L412.053 263.379M395.419 250.903V239.233M395.419 250.903L400.919 249.964M395.419 239.233L397.432 232.392M395.419 239.233L403.87 242.318M397.432 232.392L409.102 234.94M397.432 232.392L403.87 242.318M427.48 233.465L423.053 236.818L416.748 233.465M427.48 233.465L437.406 234.94M427.48 233.465L422.248 228.099M427.48 233.465L432.845 226.221M437.406 234.94L441.699 242.318M441.699 242.318L439.687 249.964M439.687 249.964L431.772 255.733M439.687 249.964L441.699 255.196M431.772 255.733L423.053 262.44M431.772 255.733V265.525M431.772 255.733L439.15 263.379M423.053 262.44L419.096 259.623M423.053 262.44L424.126 269.281M407.224 251.44L415.139 256.806L419.096 259.623M407.224 251.44L403.87 242.318M407.224 251.44L401.724 254.659M407.224 251.44L412.053 263.379M403.87 242.318L409.102 234.94M403.87 242.318L400.919 249.964M409.102 234.94L416.748 233.465M409.102 234.94V225.684M416.748 233.465L409.102 225.684M416.748 233.465L422.248 228.099M409.102 225.684L420.236 223.404M420.236 223.404L422.248 228.099M422.248 228.099L432.845 226.221M400.919 249.964L401.724 254.659M412.053 263.379L419.096 259.623M424.126 269.281L423.053 273.305" stroke="#C79622" stroke-width="1.34144" stroke-linecap="round"/>
<path fill-rule="evenodd" clip-rule="evenodd" d="M413.925 276.391C413.48 276.391 413.12 276.751 413.12 277.195V279.073H410.976C410.531 279.073 410.171 279.434 410.171 279.878V282.293C410.171 282.737 410.531 283.098 410.976 283.098H434.585C435.03 283.098 435.39 282.737 435.39 282.293V279.878C435.39 279.434 435.03 279.073 434.585 279.073H432.436V277.195C432.436 276.751 432.076 276.391 431.631 276.391H413.925Z" fill="#C79622"/>
</g>
<g clip-path="url(#clip2_497_41)">
<path d="M508.939 273.784V278.077" stroke="#E3B133" stroke-width="5.36574"/>
<path fill-rule="evenodd" clip-rule="evenodd" d="M500.08 276.468C499.636 276.468 499.275 276.828 499.275 277.273V279.151H497.132C496.687 279.151 496.327 279.511 496.327 279.955V282.37C496.327 282.815 496.687 283.175 497.132 283.175H520.741C521.185 283.175 521.546 282.815 521.546 282.37V279.955C521.546 279.511 521.185 279.151 520.741 279.151H518.592V277.273C518.592 276.828 518.231 276.468 517.787 276.468H500.08Z" fill="#C79622"/>
<path d="M493.913 256.347L508.937 261.057V275.932L493.913 271.221V256.347Z" fill="#C79622"/>
<path d="M523.963 256.347L508.939 261.176V276.018L523.963 271.308V256.347Z" fill="#C79622"/>
<path d="M523.963 261.53L508.939 266.225V270.92L523.963 266.225V261.53Z" fill="#E3B133"/>
<path d="M493.913 261.53L508.937 266.225V270.92L493.913 266.225V261.53Z" fill="#E3B133"/>
<path d="M493.913 256.347L508.979 252.078L523.961 256.347L508.937 261.176L493.913 256.347Z" fill="#E3B133"/>
<path d="M501.49 233.897L508.982 231.751L516.473 233.897L508.982 236.09L501.49 233.897Z" fill="#E3B133"/>
<path d="M505.873 228.601L508.979 227.687L512.085 228.601L508.979 229.514L505.873 228.601Z" fill="#E3B133"/>
<path d="M516.45 233.896L508.938 236.098V258.847L516.45 256.467V233.896Z" fill="#C79622"/>
<path d="M512.161 228.531L508.942 229.442V233.629L512.161 232.627V228.531Z" fill="#C79622"/>
<path d="M505.987 228.531L508.938 229.442V233.629L505.987 232.627V228.531Z" fill="#C79622"/>
<path d="M501.428 233.896L508.94 236.098V258.847L501.428 256.467V233.896Z" fill="#C79622"/>
</g>
<path fill-rule="evenodd" clip-rule="evenodd" d="M664.752 276.288C664.308 276.288 663.948 276.648 663.948 277.093V278.971H661.804C661.359 278.971 660.999 279.331 660.999 279.776V282.19C660.999 282.635 661.359 282.995 661.804 282.995H685.413C685.858 282.995 686.218 282.635 686.218 282.19V279.776C686.218 279.331 685.858 278.971 685.413 278.971H683.264V277.093C683.264 276.648 682.904 276.288 682.459 276.288H664.752Z" fill="#C79622"/>
<path fill-rule="evenodd" clip-rule="evenodd" d="M686.45 239.276H660.999V267.762V267.835H661C661.086 271.029 666.75 273.607 673.725 273.607C680.7 273.607 686.364 271.029 686.449 267.835H686.45V267.762V239.276Z" fill="#E3B133"/>
<rect x="661.001" y="242.385" width="25.4513" height="5.47499" fill="#C79622"/>
<rect x="661.001" y="258.662" width="25.4513" height="5.47499" fill="#C79622"/>
<rect x="661.001" y="241.941" width="25.4513" height="2.81148" fill="#E3B133"/>
<rect x="661.001" y="258.218" width="25.4513" height="2.81148" fill="#E3B133"/>
<rect x="661.001" y="239.129" width="25.4513" height="2.81148" fill="#C79622"/>
<ellipse cx="673.727" cy="247.786" rx="12.7257" ry="5.84492" fill="#C79622"/>
<ellipse cx="673.727" cy="264.063" rx="12.7257" ry="5.84492" fill="#C79622"/>
<ellipse cx="673.727" cy="244.678" rx="12.7257" ry="5.84492" fill="#E3B133"/>
<ellipse cx="673.727" cy="260.954" rx="12.7257" ry="5.84492" fill="#E3B133"/>
<ellipse cx="673.727" cy="241.866" rx="12.7257" ry="5.84492" fill="#C79622"/>
<ellipse cx="673.727" cy="239.352" rx="12.7257" ry="5.84492" fill="#C79622"/>
<ellipse cx="9.02634" cy="4.21722" rx="9.02634" ry="4.21722" transform="matrix(1 0 0 -1 664.7 243.568)" fill="#E3B133"/>
<rect x="664.7" y="219.448" width="18.0527" height="19.8284" fill="url(#paint0_linear_497_41)"/>
<path d="M668.696 221.865L673.667 220.23L678.61 221.884L673.667 223.503L668.696 221.865Z" fill="#E3B133"/>
<path d="M678.608 221.858L673.752 223.477V229.345L678.608 227.549V221.858Z" fill="#C79622"/>
<path d="M668.696 221.858L673.754 223.477V229.345L668.696 227.55V221.858Z" fill="#C79622"/>
<g clip-path="url(#clip3_497_41)">
<path fill-rule="evenodd" clip-rule="evenodd" d="M413.665 375.425C413.22 375.425 412.86 375.785 412.86 376.23V378.109H410.716C410.272 378.109 409.911 378.469 409.911 378.913V381.328C409.911 381.773 410.272 382.133 410.716 382.133H434.326C434.77 382.133 435.13 381.773 435.13 381.328V378.913C435.13 378.469 434.77 378.109 434.326 378.109H432.177V376.23C432.177 375.785 431.816 375.425 431.372 375.425H413.665Z" fill="#C79622"/>
<rect x="395.695" y="332.767" width="53.6574" height="32.1944" rx="5.36574" fill="#E3B133"/>
<path d="M424.362 327.14C423.299 328.292 421.479 328.292 420.416 327.14L415.038 321.305C413.453 319.586 414.672 316.804 417.01 316.804L427.768 316.804C430.106 316.804 431.325 319.586 429.74 321.305L424.362 327.14Z" fill="#E3B133"/>
<path d="M415.817 370.328C415.817 368.847 417.018 367.646 418.5 367.646H426.28C427.762 367.646 428.963 368.847 428.963 370.328V375.426H415.817V370.328Z" fill="#E3B133"/>
<circle cx="401.732" cy="337.731" r="1.74387" fill="#C79622"/>
<circle cx="407.367" cy="337.731" r="1.74387" fill="#C79622"/>
<circle cx="413" cy="337.731" r="1.74387" fill="#C79622"/>
<line x1="400.927" y1="342.829" x2="444.658" y2="342.829" stroke="#C79622" stroke-width="1.87801" stroke-linecap="round"/>
<line x1="420.781" y1="347.121" x2="440.098" y2="347.121" stroke="#C79622" stroke-width="1.87801" stroke-linecap="round"/>
<line x1="415.683" y1="351.413" x2="444.658" y2="351.413" stroke="#C79622" stroke-width="1.87801" stroke-linecap="round"/>
<line x1="408.44" y1="347.121" x2="415.952" y2="347.121" stroke="#C79622" stroke-width="1.87801" stroke-linecap="round"/>
<line x1="408.44" y1="351.413" x2="410.318" y2="351.413" stroke="#C79622" stroke-width="1.87801" stroke-linecap="round"/>
<line x1="400.927" y1="356.241" x2="411.39" y2="356.241" stroke="#C79622" stroke-width="1.87801" stroke-linecap="round"/>
<line x1="415.683" y1="356.241" x2="418.903" y2="356.241" stroke="#C79622" stroke-width="1.87801" stroke-linecap="round"/>
<line x1="424.806" y1="356.241" x2="444.66" y2="356.241" stroke="#C79622" stroke-width="1.87801" stroke-linecap="round"/>
<line x1="415.692" y1="360.007" x2="444.667" y2="360.259" stroke="#C79622" stroke-width="1.87801" stroke-linecap="round"/>
<line x1="408.44" y1="359.998" x2="412.196" y2="359.999" stroke="#C79622" stroke-width="1.87801" stroke-linecap="round"/>
</g>
<path fill-rule="evenodd" clip-rule="evenodd" d="M499.155 375.199C498.695 375.199 498.322 375.572 498.322 376.032V377.976H496.101C495.641 377.976 495.268 378.349 495.268 378.809V381.307C495.268 381.767 495.641 382.14 496.101 382.14H520.531C520.991 382.14 521.364 381.767 521.364 381.307V378.809C521.364 378.349 520.991 377.976 520.531 377.976H518.31V376.032C518.31 375.572 517.937 375.199 517.477 375.199H499.155Z" fill="#C79622"/>
<path d="M505.546 356.549L499.838 356.526L499.806 364.663L505.514 364.686L505.546 356.549Z" fill="#E3B133"/>
<path d="M518.048 356.599L512.34 356.576L512.306 365.056L518.014 365.079L518.048 356.599Z" fill="#E3B133"/>
<path d="M499.57 355.7L505.589 355.704L506.392 356.671C506.438 356.727 506.468 356.796 506.477 356.869C506.487 356.942 506.475 357.015 506.444 357.082C506.413 357.148 506.363 357.205 506.301 357.244C506.239 357.283 506.168 357.304 506.094 357.304L499.063 357.301C498.99 357.3 498.918 357.279 498.856 357.24C498.794 357.2 498.745 357.144 498.714 357.078C498.683 357.011 498.671 356.937 498.68 356.865C498.69 356.792 498.719 356.723 498.766 356.667L499.57 355.7Z" fill="#C79622"/>
<path d="M512.431 355.7L518.45 355.704L519.253 356.671C519.299 356.727 519.329 356.796 519.338 356.869C519.348 356.942 519.336 357.015 519.305 357.082C519.274 357.148 519.224 357.205 519.162 357.244C519.1 357.283 519.029 357.304 518.955 357.304L511.924 357.301C511.851 357.3 511.779 357.279 511.717 357.24C511.655 357.2 511.606 357.144 511.575 357.078C511.544 357.011 511.532 356.937 511.541 356.865C511.551 356.792 511.58 356.723 511.627 356.667L512.431 355.7Z" fill="#C79622"/>
<rect x="505.935" y="342.453" width="6.30852" height="6.93937" fill="#E3B133"/>
<path d="M507.626 339.884L507.669 354.488C507.669 354.817 507.539 355.134 507.306 355.367C507.074 355.601 506.758 355.733 506.428 355.734L498.953 355.755C498.789 355.756 498.628 355.724 498.477 355.662C498.326 355.6 498.188 355.509 498.072 355.394C497.957 355.279 497.865 355.142 497.802 354.992C497.739 354.841 497.707 354.679 497.706 354.516L497.663 339.909C497.659 337.16 499.869 331.671 502.62 331.665C505.37 331.658 507.615 337.135 507.626 339.884Z" fill="#C79622"/>
<path d="M520.485 339.884L520.528 354.488C520.528 354.817 520.398 355.134 520.165 355.367C519.933 355.601 519.617 355.733 519.287 355.734L511.812 355.755C511.648 355.756 511.487 355.724 511.336 355.662C511.185 355.6 511.047 355.509 510.932 355.394C510.816 355.279 510.724 355.142 510.661 354.992C510.598 354.841 510.566 354.679 510.565 354.516L510.522 339.909C510.518 337.16 512.728 331.671 515.479 331.665C518.229 331.658 520.474 337.135 520.485 339.884Z" fill="#C79622"/>
<circle cx="500.68" cy="365.343" r="3.19253" fill="#E3B133"/>
<circle cx="506.51" cy="367.286" r="5.13581" fill="#E3B133"/>
<circle cx="513.589" cy="365.206" r="4.16417" fill="#E3B133"/>
<circle cx="512.479" cy="370.481" r="4.16417" fill="#E3B133"/>
<circle cx="499.571" cy="371.73" r="1.24925" fill="#E3B133"/>
<circle cx="517.199" cy="366.315" r="3.05372" fill="#E3B133"/>
<path d="M516.868 339.097C516.782 338.992 516.857 338.831 516.993 338.831H518.619C518.664 338.831 518.706 338.849 518.736 338.883C519.154 339.368 522.313 343.123 522.313 346.077C522.313 349.031 519.154 352.786 518.736 353.271C518.706 353.305 518.664 353.323 518.619 353.323H516.993C516.857 353.323 516.782 353.162 516.868 353.057C517.661 352.102 520.265 348.759 520.265 346.077C520.265 343.395 517.661 340.052 516.868 339.097Z" fill="#E3B133"/>
<path d="M501.822 339.097C501.909 338.992 501.834 338.831 501.698 338.831H500.071C500.026 338.831 499.984 338.849 499.955 338.883C499.537 339.368 496.378 343.123 496.378 346.077C496.378 349.031 499.537 352.786 499.955 353.271C499.984 353.305 500.026 353.323 500.071 353.323H501.698C501.834 353.323 501.909 353.162 501.822 353.057C501.03 352.102 498.425 348.759 498.425 346.077C498.425 343.395 501.03 340.052 501.822 339.097Z" fill="#E3B133"/>
<path d="M591.487 359.423L591.487 377.398" stroke="#E3B133" stroke-width="5.36574"/>
<path fill-rule="evenodd" clip-rule="evenodd" d="M582.634 375.521C582.189 375.521 581.829 375.882 581.829 376.326V378.205H579.685C579.241 378.205 578.88 378.566 578.88 379.01V381.425C578.88 381.869 579.241 382.23 579.685 382.23H603.294C603.739 382.23 604.099 381.869 604.099 381.425V379.01C604.099 378.566 603.739 378.205 603.294 378.205H601.145V376.326C601.145 375.882 600.785 375.521 600.341 375.521H582.634Z" fill="#C79622"/>
<path d="M608.469 371.814L594.9 345.92L582.575 358.245L608.469 371.814Z" fill="#C79622"/>
<rect x="580.31" y="352.049" width="3.37654" height="8.86343" rx="1.68827" transform="rotate(-45 580.31 352.049)" fill="#E3B133"/>
<rect x="575.913" y="357.799" width="26.2268" height="5.18437" rx="2.59219" transform="rotate(-45 575.913 357.799)" fill="#E3B133"/>
<path fill-rule="evenodd" clip-rule="evenodd" d="M582.294 357.885C579.047 357.988 575.783 356.811 573.321 354.349C568.557 349.586 568.605 341.814 573.429 336.99C578.252 332.167 586.024 332.119 590.788 336.882C593.249 339.344 594.426 342.609 594.323 345.855L582.294 357.885Z" fill="#E3B133"/>
<path d="M676.2 361.069L676.2 379.045" stroke="#E3B133" stroke-width="5.36574"/>
<path fill-rule="evenodd" clip-rule="evenodd" d="M667.345 375.558C666.901 375.558 666.54 375.918 666.54 376.362V378.241H664.397C663.952 378.241 663.592 378.602 663.592 379.046V381.461C663.592 381.905 663.952 382.266 664.397 382.266H688.006C688.451 382.266 688.811 381.905 688.811 381.461V379.046C688.811 378.602 688.451 378.241 688.006 378.241H685.857V376.362C685.857 375.918 685.497 375.558 685.052 375.558H667.345Z" fill="#C79622"/>
<rect x="653.66" y="343.779" width="35.6821" height="27.916" rx="2.34893" transform="rotate(-15.5054 653.66 343.779)" fill="#C79622"/>
<path d="M658.881 362.589L693.264 353.05L695.15 359.848C695.348 360.562 694.93 361.301 694.216 361.499L662.418 370.32C661.704 370.519 660.965 370.1 660.767 369.386L658.881 362.589Z" fill="#E3B133"/>
<rect x="663.033" y="365.794" width="29.3852" height="1.25937" rx="0.587231" transform="rotate(-15.5054 663.033 365.794)" fill="#C79622"/>
<circle cx="673.672" cy="348.79" r="6.61168" transform="rotate(-15.5054 673.672 348.79)" fill="#C79622" stroke="#E3B133" stroke-width="1.87914"/>
<circle cx="660.376" cy="347.579" r="3.7781" transform="rotate(-15.5054 660.376 347.579)" fill="#E3B133"/>
<circle cx="662.493" cy="355.598" r="1.7841" transform="rotate(-15.5054 662.493 355.598)" fill="#E3B133"/>
<circle cx="671.865" cy="347.768" r="1.15442" transform="rotate(-15.5054 671.865 347.768)" fill="#E3B133"/>
<path d="M683.039 333.819C683.085 333.323 683.723 333.152 684.011 333.558L686.778 337.465C686.869 337.593 687.011 337.675 687.167 337.689L691.934 338.132C692.43 338.178 692.601 338.816 692.194 339.104L688.287 341.871C688.159 341.962 688.077 342.104 688.063 342.26L687.62 347.027C687.574 347.523 686.936 347.694 686.648 347.287L683.881 343.38C683.791 343.252 683.649 343.17 683.493 343.156L678.726 342.713C678.23 342.667 678.059 342.029 678.465 341.741L682.372 338.974C682.5 338.884 682.582 338.742 682.596 338.586L683.039 333.819Z" fill="#E3B133"/>
<g clip-path="url(#clip4_497_41)">
<g clip-path="url(#clip5_497_41)">
<ellipse cx="316.602" cy="358.518" rx="17.0333" ry="18.3555" transform="rotate(-28.6896 316.602 358.518)" fill="#49B236"/>
<ellipse cx="17.0333" cy="18.3555" rx="17.0333" ry="18.3555" transform="matrix(-0.877234 -0.480064 -0.480064 0.877234 414.356 350.118)" fill="#49B236"/>
<path d="M402.308 431.96C391.747 435.085 376.394 425.01 370.038 419.582C369.786 418.671 369.53 416.389 370.528 414.544C371.775 412.237 398.134 413.018 404.147 414.292C410.16 415.567 415.509 428.055 402.308 431.96Z" fill="#4B9B3A"/>
<path d="M379.383 478.418C382.44 477.168 385.416 460.518 384.812 452.229L355.456 456.914C354.853 463.641 354.813 477.361 356.26 478.418C358.07 479.739 375.563 479.98 379.383 478.418Z" fill="#4B9B3A"/>
<path d="M381.678 459.976C390.814 453.9 378.464 415.999 369.539 411.226C360.615 406.452 346.101 407.175 339.726 411.226C333.352 415.276 317.599 453.755 326.736 459.976C335.873 466.196 372.541 466.051 381.678 459.976Z" fill="#49B236"/>
<path d="M329.458 478.418C326.402 477.168 323.426 460.518 324.029 452.229L353.386 456.914C353.989 463.641 354.029 477.361 352.581 478.418C350.772 479.739 333.279 479.98 329.458 478.418Z" fill="#49B236"/>
<path d="M307.57 431.235C317.973 434.851 333.781 425.508 340.385 420.384C340.68 419.486 341.042 417.218 340.132 415.328C338.995 412.966 312.628 412.509 306.562 413.5C300.496 414.49 294.567 426.714 307.57 431.235Z" fill="#49B236"/>
<path d="M377.647 445.159C377.647 458.076 367.917 461.179 355.915 461.179C343.912 461.179 334.182 458.076 334.182 445.159C334.182 428.177 343.912 418.565 355.915 418.565C367.917 418.565 377.647 428.177 377.647 445.159Z" fill="#9CD43D"/>
<path d="M356.581 454.358C356.668 454.358 356.755 454.342 356.836 454.309C356.917 454.276 356.991 454.227 357.053 454.166L360.013 451.189C360.122 451.062 360.179 450.899 360.173 450.733C360.166 450.566 360.097 450.408 359.978 450.29C359.86 450.173 359.701 450.104 359.534 450.097C359.366 450.091 359.203 450.147 359.075 450.256L356.109 453.2C356.046 453.262 355.997 453.335 355.963 453.415C355.929 453.496 355.912 453.583 355.912 453.67C355.912 453.757 355.929 453.844 355.963 453.924C355.997 454.005 356.046 454.078 356.109 454.14C356.169 454.206 356.241 454.259 356.322 454.297C356.404 454.334 356.491 454.355 356.581 454.358Z" fill="#49B236"/>
<path d="M359.509 454.358C359.596 454.358 359.682 454.342 359.763 454.309C359.843 454.276 359.916 454.228 359.978 454.167C360.04 454.105 360.089 454.032 360.122 453.952C360.156 453.871 360.173 453.785 360.173 453.698C360.173 453.611 360.156 453.524 360.122 453.444C360.089 453.364 360.04 453.291 359.978 453.229L357.041 450.292C356.98 450.23 356.907 450.181 356.826 450.147C356.746 450.114 356.66 450.097 356.572 450.097C356.485 450.097 356.399 450.114 356.319 450.147C356.238 450.181 356.165 450.23 356.104 450.292C355.981 450.416 355.912 450.583 355.912 450.757C355.912 450.932 355.981 451.099 356.104 451.223L359.047 454.167C359.17 454.289 359.336 454.357 359.509 454.358V454.358Z" fill="#49B236"/>
<path d="M408.754 387.996C408.754 410.472 383.982 417.925 353.874 417.925C323.766 417.925 298.811 410.472 298.811 387.996C298.811 355.71 323.766 341.86 353.874 341.86C383.982 341.86 408.754 353.153 408.754 387.996Z" fill="#49B236"/>
<path d="M319.693 358.48V365.299" stroke="black" stroke-width="6.39198" stroke-linecap="round"/>
<path d="M392.134 358.055V364.873" stroke="black" stroke-width="6.39198" stroke-linecap="round"/>
<path d="M310.316 380.213H317.561" stroke="#9CD43D" stroke-width="8.52264" stroke-linecap="round"/>
<path d="M389.152 380.213H396.397" stroke="#9CD43D" stroke-width="8.52264" stroke-linecap="round"/>
<path d="M364.011 373.419C364.011 368.299 364.011 365.725 354.423 365.725C344.835 365.725 344.835 367.842 344.835 373.419C344.835 382.557 349.127 387.884 354.423 387.884C359.718 387.884 364.011 381.918 364.011 373.419Z" fill="#FFD2D2"/>
<path fill-rule="evenodd" clip-rule="evenodd" d="M344.847 374.36C345.133 382.92 349.31 387.881 354.42 387.881C358.129 387.881 361.346 384.953 362.941 380.279C361.086 378.111 358.341 376.231 355.027 375.069C351.413 373.802 347.796 373.624 344.847 374.36Z" fill="#FF2D2D"/>
<path fill-rule="evenodd" clip-rule="evenodd" d="M412.064 387.527C411.584 386.88 411.415 386.018 411.688 385.195C412.132 383.855 413.579 383.128 414.919 383.573C416.26 384.017 416.986 385.464 416.542 386.804C416.276 387.606 415.651 388.189 414.904 388.432C414.897 388.457 414.89 388.481 414.881 388.506L402.01 427.344C401.751 428.126 400.907 428.55 400.125 428.291C399.343 428.032 398.919 427.188 399.179 426.406L412.05 387.568C412.054 387.554 412.059 387.54 412.064 387.527Z" fill="#9CD43D"/>
<path fill-rule="evenodd" clip-rule="evenodd" d="M295.998 387.527C296.478 386.88 296.647 386.018 296.374 385.195C295.93 383.855 294.483 383.128 293.143 383.573C291.802 384.017 291.076 385.464 291.52 386.804C291.786 387.606 292.411 388.189 293.158 388.432C293.165 388.457 293.172 388.481 293.181 388.506L306.052 427.344C306.311 428.126 307.155 428.55 307.937 428.291C308.719 428.032 309.143 427.188 308.883 426.406L296.012 387.568C296.008 387.554 296.003 387.54 295.998 387.527Z" fill="#9CD43D"/>
</g>
<rect x="271.87" y="427.592" width="50.2837" height="60.6872" fill="#347162"/>
<path d="M271.87 488.278H322.153" stroke="#82A6B2" stroke-width="2.88987" stroke-linecap="round"/>
<path d="M271.87 427.592H322.153" stroke="#82A6B2" stroke-width="2.88987" stroke-linecap="round"/>
<path d="M319.265 428.17V432.505" stroke="#AFD157" stroke-width="2.88987" stroke-linecap="round"/>
<path d="M319.265 482.5V486.835" stroke="#AFD157" stroke-width="2.88987" stroke-linecap="round"/>
<rect x="307.129" y="406.208" width="39.8802" height="30.0546" fill="#347162"/>
<path d="M344.119 406.208V410.543" stroke="#82A6B2" stroke-width="2.88987" stroke-linecap="round"/>
<rect x="376.469" y="427.014" width="42.1921" height="19.0731" fill="#347162"/>
<path d="M376.484 427.014H418.676" stroke="#82A6B2" stroke-width="2.88987" stroke-linecap="round"/>
<rect x="364.925" y="407.939" width="39.3022" height="26.5868" fill="#347162"/>
<path d="M342.96 421.233H352.208V438.573" stroke="#A6BFC7" stroke-width="3.46784" stroke-linecap="round" stroke-linejoin="round"/>
<path d="M369.546 421.233H360.298V438.573" stroke="#A6BFC7" stroke-width="3.46784" stroke-linecap="round" stroke-linejoin="round"/>
<path d="M307.129 406.208H347.009" stroke="#82A6B2" stroke-width="2.88987" stroke-linecap="round"/>
<path d="M364.925 407.939H404.227" stroke="#82A6B2" stroke-width="2.88987" stroke-linecap="round"/>
<path d="M364.925 434.528H404.227" stroke="#82A6B2" stroke-width="2.88987" stroke-linecap="round"/>
<path d="M307.129 436.262H347.009" stroke="#82A6B2" stroke-width="2.88987" stroke-linecap="round"/>
<path d="M268.114 449.555V486.834C268.114 489.628 267.363 495.619 264.357 497.238C260.601 499.26 258 503.595 258 508.797" stroke="#A6BFC7" stroke-width="2.88987" stroke-linecap="round"/>
<path d="M264.937 461.114C264.937 460.156 265.713 459.38 266.671 459.38H271.873V469.205H266.671C265.713 469.205 264.937 468.429 264.937 467.472V461.114Z" fill="#A6BFC7"/>
<rect x="301.927" y="459.67" width="6.93568" height="9.82555" rx="1.73392" fill="#A6BFC7"/>
<rect x="255.111" y="505.617" width="5.77974" height="6.35771" rx="1.15595" fill="#347162"/>
<path d="M296.722 428.17V432.505" stroke="#82A6B2" stroke-width="2.88987" stroke-linecap="round"/>
<path d="M326.78 406.208V410.543" stroke="#82A6B2" stroke-width="2.88987" stroke-linecap="round"/>
<path d="M384.578 408.52V412.854" stroke="#82A6B2" stroke-width="2.88987" stroke-linecap="round"/>
<path d="M310.019 406.208V410.543" stroke="#82A6B2" stroke-width="2.88987" stroke-linecap="round"/>
<path d="M367.815 408.52V412.854" stroke="#82A6B2" stroke-width="2.88987" stroke-linecap="round"/>
<path d="M401.913 408.52V412.854" stroke="#82A6B2" stroke-width="2.88987" stroke-linecap="round"/>
<path d="M326.78 430.481V434.816" stroke="#82A6B2" stroke-width="2.88987" stroke-linecap="round"/>
<path d="M384.578 428.748V433.083" stroke="#82A6B2" stroke-width="2.88987" stroke-linecap="round"/>
<path d="M367.815 428.748V433.083" stroke="#82A6B2" stroke-width="2.88987" stroke-linecap="round"/>
<path d="M397.87 441.464V445.799" stroke="#82A6B2" stroke-width="2.88987" stroke-linecap="round"/>
<path d="M401.913 428.748V433.083" stroke="#82A6B2" stroke-width="2.88987" stroke-linecap="round"/>
<path d="M310.019 430.481V434.816" stroke="#82A6B2" stroke-width="2.88987" stroke-linecap="round"/>
<path d="M379.374 441.464V445.799" stroke="#82A6B2" stroke-width="2.88987" stroke-linecap="round"/>
<path d="M344.119 430.481V434.816" stroke="#82A6B2" stroke-width="2.88987" stroke-linecap="round"/>
<path d="M415.788 441.464V445.799" stroke="#82A6B2" stroke-width="2.88987" stroke-linecap="round"/>
<path d="M415.788 427.592V431.927" stroke="#82A6B2" stroke-width="2.88987" stroke-linecap="round"/>
<path d="M274.76 428.17V432.505" stroke="#82A6B2" stroke-width="2.88987" stroke-linecap="round"/>
<path d="M296.722 482.5V486.835" stroke="#82A6B2" stroke-width="2.88987" stroke-linecap="round"/>
<path d="M274.76 482.5V486.835" stroke="#82A6B2" stroke-width="2.88987" stroke-linecap="round"/>
<path d="M397.696 446.376V455.913M397.696 481.343L384.403 496.66C384.114 497.045 383.478 497.931 383.247 498.394C383.015 498.856 382.958 500.32 382.958 500.994M397.696 481.343L410.989 496.66C411.278 497.045 411.914 497.931 412.145 498.394C412.377 498.856 412.434 500.32 412.434 500.994M397.696 481.343V455.913M397.696 481.343V503.595M397.696 455.913L411.567 446.376M397.696 455.913L383.825 446.376" stroke="#A6BFC7" stroke-width="2.31189" stroke-linecap="round" stroke-linejoin="round"/>
<path d="M376.484 446.087H418.676" stroke="#82A6B2" stroke-width="2.88987" stroke-linecap="round"/>
<path d="M305.392 449.844V487.123C305.392 489.917 306.143 495.908 309.149 497.527C312.905 499.55 315.506 503.884 315.506 509.086" stroke="#A6BFC7" stroke-width="2.88987" stroke-linecap="round"/>
<rect x="312.328" y="505.907" width="5.77974" height="6.35771" rx="1.15595" fill="#347162"/>
<path d="M325.191 511.108L322.301 520.934" stroke="#A6BFC7" stroke-width="2.31189" stroke-linecap="round" stroke-linejoin="round"/>
<path d="M384.722 511.108L387.612 520.934" stroke="#A6BFC7" stroke-width="2.31189" stroke-linecap="round" stroke-linejoin="round"/>
<circle cx="355.101" cy="480.764" r="42.1921" fill="#E5E5E5" stroke="#82A6B2" stroke-width="2.88987"/>
<path d="M344.816 480.81V473.586L329.668 488.74L333.247 492.395L344.816 480.81ZM379.331 476.295C378.209 470.651 373.967 466.418 373.48 465.917L363.069 455.335L357.118 461.282L356.695 461.706V468.93L363.048 462.58L368.97 468.598L369.873 469.515L369.937 469.579C369.937 469.579 370.332 469.967 370.875 470.616C372.542 472.531 373.726 474.817 374.327 477.283C375.174 481.516 375.598 486.504 370.875 492.557V500.021C371.32 499.633 371.581 499.358 371.701 499.259C375.936 495.111 378.47 490.92 379.466 486.44C380.154 483.089 380.111 479.628 379.339 476.295H379.331ZM347.794 498.596L347.639 498.518H347.561C347.1 498.277 346.661 497.996 346.248 497.679C345.86 497.404 345.387 497.037 344.837 496.564C343.976 495.859 342.903 494.899 341.597 493.622L338.668 490.631L335.054 494.243L337.969 497.213V497.255C342.479 501.658 344.794 502.899 345.648 503.259C348.353 504.591 351.284 505.402 354.288 505.651C355.669 505.759 357.056 505.73 358.431 505.566L358.763 505.531V500.353C355.015 500.946 351.176 500.331 347.801 498.596H347.794Z" fill="#347162"/>
<path d="M354.15 464.261V495.105H347.381V471.033L348.058 470.356L348.425 469.989L350.472 467.943L351.856 466.561L352.307 466.109L353.698 464.719L354.15 464.261Z" fill="#347162"/>
<path d="M368.323 471.151V501.925L368.238 501.989C367.927 502.186 367.595 502.391 367.243 502.588C367.13 502.659 367.01 502.722 366.89 502.786C366.579 502.962 366.247 503.138 365.908 503.308C365.57 503.477 365.266 503.618 364.927 503.766L364.37 504.006L363.607 504.303L362.986 504.521C362.563 504.662 362.125 504.796 361.673 504.916L361.342 505.001V471.151H368.323Z" fill="#347162"/>
<path d="M361.342 479.286H354.149V486.271H361.342V479.286Z" fill="#347162"/>
<path d="M288.632 381.064V482.788M288.632 482.788L276.206 499.26M288.632 482.788V509.953M288.632 482.788L300.77 499.26M265.224 517.177C265.224 517.177 265.357 514.837 265.802 513.42C266.136 512.36 267.247 510.82 267.247 510.82L276.206 499.26M312.04 517.177C312.04 517.177 311.974 514.814 311.462 513.42C311.062 512.33 310.017 510.82 310.017 510.82L300.77 499.26M288.632 522.379V509.953M276.206 499.26L288.632 509.953M288.632 509.953L300.77 499.26" stroke="#A6BFC7" stroke-width="2.88987" stroke-linecap="round"/>
<rect x="309.438" y="516.311" width="5.77974" height="6.35771" rx="1.15595" fill="#347162"/>
<rect x="262.624" y="516.311" width="5.77974" height="6.35771" rx="1.15595" fill="#347162"/>
<rect x="285.743" y="520.934" width="5.77974" height="6.35771" rx="1.15595" fill="#347162"/>
<path d="M443.53 386.556V469.206M443.53 469.206L431.103 485.678M443.53 469.206V496.371M443.53 469.206L455.667 485.678M420.122 503.595C420.122 503.595 420.255 501.255 420.7 499.839C421.033 498.778 422.145 497.238 422.145 497.238L431.103 485.678M466.938 503.595C466.938 503.595 466.871 501.232 466.36 499.839C465.959 498.748 464.915 497.238 464.915 497.238L455.667 485.678M443.53 508.797V496.371M431.103 485.678L443.53 496.371M443.53 496.371L455.667 485.678" stroke="#A6BFC7" stroke-width="2.88987" stroke-linecap="round"/>
<rect x="285.743" y="398.404" width="5.77974" height="5.77974" rx="1.15595" fill="#347162"/>
<path d="M286.896 386.844H290.363" stroke="#347162" stroke-width="2.31189" stroke-linecap="round"/>
<path d="M439.416 405.629C438.099 406.4 422.723 407.652 422.723 409.097C422.723 410.542 431.392 411.987 443.53 411.987C455.667 411.987 464.337 410.542 464.337 409.097C464.337 407.652 448.96 406.593 447.644 405.822C446.327 405.051 445.833 403.896 443.53 403.896C441.226 403.896 440.732 404.859 439.416 405.629Z" fill="#C79622"/>
<path d="M281.534 390.602C279.222 391.758 252.219 394.359 252.219 395.804C252.219 397.249 274.484 398.405 288.758 398.405C303.032 398.405 325.297 397.538 325.297 396.093C325.297 394.648 298.295 392.047 295.983 390.891C293.671 389.735 292.804 388.001 288.758 388.001C284.712 388.001 283.846 389.446 281.534 390.602Z" fill="#C79622"/>
<rect x="417.519" y="500.994" width="5.77974" height="6.35771" rx="1.15595" fill="#347162"/>
<rect x="410.037" y="499.684" width="4.62379" height="4.62379" rx="1.15595" fill="#347162"/>
<rect x="395.477" y="501.996" width="4.62379" height="4.62379" rx="1.15595" fill="#347162"/>
<rect x="320.334" y="517.116" width="5.77974" height="6.35771" rx="1.15595" transform="rotate(15 320.334 517.116)" fill="#347162"/>
<rect width="5.77974" height="6.35771" rx="1.15595" transform="matrix(-0.965926 0.258819 0.258819 0.965926 389.578 517.116)" fill="#347162"/>
<rect x="440.64" y="505.617" width="5.77974" height="6.35771" rx="1.15595" fill="#347162"/>
<rect x="440.64" y="411.985" width="5.77974" height="3.46784" rx="1.15595" fill="#347162"/>
<rect x="464.336" y="500.994" width="5.77974" height="6.35771" rx="1.15595" fill="#347162"/>
<path d="M441.795 403.317H445.263" stroke="#347162" stroke-width="2.31189" stroke-linecap="round"/>
<rect x="337.761" y="417.188" width="8.09163" height="8.09163" rx="1.73392" fill="#A6BFC7"/>
<rect x="348.74" y="424.703" width="6.93568" height="4.04582" rx="1.73392" fill="#A6BFC7"/>
<rect x="356.833" y="424.703" width="6.93568" height="4.04582" rx="1.73392" fill="#A6BFC7"/>
<rect x="366.658" y="417.188" width="8.09163" height="8.09163" rx="1.73392" fill="#A6BFC7"/>
</g>
<g clip-path="url(#clip6_497_41)">
<path d="M246.682 526.294C236.811 523.121 231.103 519.459 222.891 521.015C222.22 521.68 220.865 523.534 220.814 525.631C220.751 528.252 238.858 537.261 244.942 538.139C251.644 539.107 256.405 529.419 246.682 526.294Z" fill="#EFEFEF"/>
<path d="M230.834 584.794C233.89 583.544 236.866 566.894 236.263 558.604L206.907 563.29C206.304 570.017 206.263 583.737 207.711 584.794C209.521 586.115 227.014 586.356 230.834 584.794Z" fill="#EFEFEF"/>
<path d="M233.129 566.353C242.265 560.277 229.914 522.376 220.99 517.603C212.066 512.829 197.551 513.552 191.177 517.603C184.803 521.653 169.05 560.132 178.187 566.353C187.323 572.573 223.992 572.428 233.129 566.353Z" fill="white"/>
<path d="M180.911 584.794C177.855 583.544 174.879 566.894 175.482 558.604L204.839 563.29C205.442 570.017 205.482 583.737 204.034 584.794C202.225 586.115 184.732 586.356 180.911 584.794Z" fill="white"/>
<path d="M229.094 553.457C229.094 564.824 219.364 567.554 207.362 567.554C195.359 567.554 185.629 564.824 185.629 553.457C185.629 538.513 195.359 530.055 207.362 530.055C219.364 530.055 229.094 538.513 229.094 553.457Z" fill="#F4F4F4"/>
<path d="M227.767 560.736C227.877 560.736 227.987 560.72 228.089 560.687C228.192 560.654 228.285 560.605 228.364 560.544L232.104 557.567C232.242 557.44 232.314 557.277 232.306 557.111C232.298 556.944 232.21 556.786 232.06 556.668C231.911 556.551 231.71 556.482 231.498 556.475C231.287 556.469 231.08 556.525 230.919 556.634L227.17 559.578C227.091 559.64 227.028 559.713 226.986 559.793C226.943 559.874 226.921 559.96 226.921 560.048C226.921 560.135 226.943 560.222 226.986 560.302C227.028 560.383 227.091 560.456 227.17 560.518C227.246 560.584 227.337 560.637 227.44 560.675C227.543 560.712 227.654 560.733 227.767 560.736Z" fill="#FFD2D2"/>
<path d="M231.468 560.736C231.577 560.736 231.686 560.72 231.788 560.687C231.89 560.654 231.982 560.606 232.06 560.544C232.138 560.483 232.2 560.41 232.242 560.33C232.285 560.249 232.307 560.163 232.307 560.076C232.307 559.989 232.285 559.902 232.242 559.822C232.2 559.742 232.138 559.669 232.06 559.607L228.348 556.67C228.271 556.608 228.178 556.559 228.077 556.525C227.975 556.492 227.866 556.475 227.756 556.475C227.646 556.475 227.537 556.492 227.435 556.525C227.334 556.559 227.241 556.608 227.164 556.67C227.008 556.794 226.921 556.961 226.921 557.135C226.921 557.31 227.008 557.477 227.164 557.601L230.884 560.544C231.039 560.666 231.249 560.735 231.468 560.736V560.736Z" fill="#FFD2D2"/>
<path d="M168.33 432.455C171.739 443.505 186.336 465.14 189.424 474.187H218.614C221.701 465.14 235.173 443.505 239.494 432.455C244.854 418.75 239.28 400.937 224.225 400.938C211.796 400.938 205.973 421.463 204.338 432.455C202.704 421.463 196.455 400.938 184.451 400.938C169.397 400.938 163.992 418.394 168.33 432.455Z" fill="white"/>
<path d="M256.792 495.326C256.792 517.566 232.404 524.941 202.763 524.941C173.122 524.941 148.555 517.566 148.555 495.326C148.555 457.404 173.122 444.402 202.763 444.402C232.404 444.402 256.792 455.598 256.792 495.326Z" fill="white"/>
<path d="M182.649 488.72V495.538" stroke="black" stroke-width="6.39198" stroke-linecap="round"/>
<path d="M234.208 488.72V495.538" stroke="black" stroke-width="6.39198" stroke-linecap="round"/>
<path d="M169.862 505.339H176.254" stroke="#FFD2D2" stroke-width="8.52264" stroke-linecap="round"/>
<path d="M240.599 505.339H246.991" stroke="#FFD2D2" stroke-width="8.52264" stroke-linecap="round"/>
<path d="M215.458 506.387C215.458 510.227 215.458 512.157 208.426 512.157C201.395 512.157 201.395 510.57 201.395 506.387C201.395 502.204 204.543 495.538 208.426 495.538C212.31 495.538 215.458 502.547 215.458 506.387Z" fill="#FFD2D2"/>
<path fill-rule="evenodd" clip-rule="evenodd" d="M202.436 501.512C203.673 498.377 205.894 495.539 208.428 495.539C210.927 495.539 213.122 498.442 214.369 501.535C212.682 502.323 210.635 502.784 208.427 502.784C206.198 502.784 204.132 502.313 202.436 501.512Z" fill="#EFEFEF"/>
<path d="M206.684 489.572C207.521 489.572 207.904 489.921 208.427 490.27C208.95 489.921 209.333 489.572 210.169 489.572C211.215 489.572 211.822 490.668 211.563 491.316C211.215 492.187 209.937 493.059 208.427 493.407C206.917 493.059 205.639 492.187 205.29 491.316C205.032 490.668 205.639 489.572 206.684 489.572Z" fill="#FFD2D2"/>
<g clip-path="url(#clip7_497_41)">
<path d="M219.524 563.92C227.848 561.111 233.984 551.456 228.382 534.85C222.779 518.244 212.048 514.28 203.723 517.088C198.247 518.936 196.919 524.041 188.376 526.924C179.832 529.806 173.022 521.192 159.769 525.664C146.516 530.135 146.25 547.79 150.724 561.051C155.198 574.312 166.105 588.197 179.358 583.725C192.612 579.254 192.811 568.275 201.355 565.393C209.898 562.51 214.047 565.768 219.524 563.92Z" fill="#FFC5AB"/>
<circle cx="202.615" cy="543.541" r="8.80859" transform="rotate(71.3563 202.615 543.541)" fill="#7B5341"/>
<circle cx="202.616" cy="543.541" r="10.3405" transform="rotate(71.3563 202.616 543.541)" stroke="black" stroke-width="0.765964"/>
<path d="M282.813 508.803C283.499 508.572 284.257 508.747 284.743 509.284C285.792 510.446 287.56 512.59 288.193 514.465C288.826 516.341 288.717 519.117 288.587 520.677C288.526 521.399 288.029 521.998 287.343 522.23L270.79 527.815C270.26 527.993 269.679 527.932 269.198 527.646L267.678 526.741C267.197 526.455 266.616 526.393 266.086 526.572L265.651 526.719C264.649 527.057 263.562 526.519 263.224 525.517L261.632 520.799C261.294 519.797 261.833 518.711 262.835 518.373L263.404 518.181C263.961 517.993 264.401 517.56 264.597 517.006L265.114 515.547C265.31 514.993 265.75 514.56 266.307 514.372L282.813 508.803Z" fill="#563628"/>
<path d="M208.401 535.527L263.201 518.251L266.017 526.597L212.074 546.414L208.401 535.527Z" fill="#D07C57"/>
<path d="M173.892 538.682L182.585 564.446L177.142 566.283C177.142 566.283 176.54 564.267 176.04 563.017C174.53 559.244 171.948 557.975 170.618 554.135C169.241 550.157 170.584 547.469 169.429 543.421C169.1 542.271 168.449 540.518 168.449 540.518L173.892 538.682Z" fill="#563628"/>
<path d="M173.806 547.402L269.373 517.382" stroke="#968779" stroke-width="0.382982"/>
<path d="M177.479 558.287L271.213 523.429" stroke="#968779" stroke-width="0.382982"/>
<path d="M175.274 551.757L282.688 515.517" stroke="#968779" stroke-width="0.382982"/>
<path d="M283.179 516.967L176.01 553.933" stroke="#968779" stroke-width="0.382982"/>
<path d="M176.746 556.111L277.016 520.261" stroke="#968779" stroke-width="0.382982"/>
<path d="M275.789 516.631L174.54 549.578" stroke="#968779" stroke-width="0.382982"/>
<circle cx="173.805" cy="547.402" r="0.574473" transform="rotate(71.3563 173.805 547.402)" fill="black"/>
<circle cx="174.54" cy="549.579" r="0.574473" transform="rotate(71.3563 174.54 549.579)" fill="black"/>
<circle cx="175.273" cy="551.755" r="0.574473" transform="rotate(71.3563 175.273 551.755)" fill="black"/>
<circle cx="176.009" cy="553.934" r="0.574473" transform="rotate(71.3563 176.009 553.934)" fill="black"/>
<circle cx="176.744" cy="556.111" r="0.574473" transform="rotate(71.3563 176.744 556.111)" fill="black"/>
<circle cx="177.479" cy="558.287" r="0.574473" transform="rotate(71.3563 177.479 558.287)" fill="black"/>
<circle cx="269.252" cy="517.623" r="0.574473" transform="rotate(71.3563 269.252 517.623)" fill="#B9B9B9"/>
<circle cx="275.79" cy="516.631" r="0.574473" transform="rotate(71.3563 275.79 516.631)" fill="#B9B9B9"/>
<circle cx="282.689" cy="515.516" r="0.574473" transform="rotate(71.3563 282.689 515.516)" fill="#B9B9B9"/>
<circle cx="283.178" cy="516.966" r="0.574473" transform="rotate(71.3563 283.178 516.966)" fill="#B9B9B9"/>
<circle cx="277.015" cy="520.26" r="0.574473" transform="rotate(71.3563 277.015 520.26)" fill="#B9B9B9"/>
<circle cx="271.214" cy="523.43" r="0.574473" transform="rotate(71.3563 271.214 523.43)" fill="#B9B9B9"/>
<path d="M253.245 533.655C252.821 537.226 248.902 539.695 244.491 539.171C235.373 539.63 236.105 535.089 237.35 532.73C238.594 530.371 241.238 527.6 245.892 527.382C250.546 527.163 253.67 530.084 253.245 533.655Z" fill="#EFEFEF"/>
</g>
<path d="M198.37 546.608C192.447 545.607 184 534.904 180.677 527.235C180.202 526.139 179.673 523.582 183.331 522.925C185.912 522.461 204.166 528.713 207.788 531.547C212.629 535.334 211.944 548.903 198.37 546.608Z" fill="white"/>
</g>
<g clip-path="url(#clip8_497_41)">
<path d="M716.663 506.55C706.092 509.64 690.772 499.516 684.434 494.067C684.184 493.156 683.936 490.873 684.94 489.031C686.194 486.728 712.55 487.594 718.559 488.888C724.568 490.182 729.876 502.687 716.663 506.55Z" fill="#FFD058"/>
<path d="M695.928 556.001C698.984 554.751 701.96 538.101 701.357 529.812L672.001 534.497C671.398 541.224 671.357 554.944 672.805 556.001C674.615 557.322 692.108 557.563 695.928 556.001Z" fill="#FFD058"/>
<path d="M698.223 537.56C707.359 531.484 695.008 493.583 686.084 488.81C677.16 484.036 662.645 484.759 656.271 488.81C649.897 492.86 634.144 531.339 643.281 537.56C652.417 543.78 689.086 543.635 698.223 537.56Z" fill="#FFE36C"/>
<path d="M646.005 556.001C642.949 554.751 639.973 538.101 640.576 529.812L669.932 534.497C670.536 541.224 670.576 554.944 669.128 556.001C667.319 557.322 649.825 557.563 646.005 556.001Z" fill="#FFE36C"/>
<path d="M673.128 531.942C673.215 531.942 673.302 531.926 673.383 531.893C673.464 531.86 673.538 531.811 673.6 531.75L676.56 528.773C676.669 528.646 676.726 528.483 676.72 528.317C676.713 528.15 676.644 527.992 676.525 527.874C676.407 527.757 676.248 527.688 676.081 527.681C675.913 527.675 675.749 527.731 675.622 527.84L672.655 530.784C672.593 530.846 672.544 530.919 672.51 530.999C672.476 531.08 672.459 531.167 672.459 531.254C672.459 531.341 672.476 531.428 672.51 531.508C672.544 531.589 672.593 531.662 672.655 531.724C672.715 531.79 672.788 531.843 672.869 531.881C672.95 531.918 673.038 531.939 673.128 531.942Z" fill="#FFBB4D"/>
<path d="M676.056 531.942C676.143 531.942 676.229 531.926 676.31 531.893C676.39 531.86 676.463 531.812 676.525 531.751C676.587 531.689 676.636 531.616 676.669 531.536C676.703 531.455 676.72 531.369 676.72 531.282C676.72 531.195 676.703 531.108 676.669 531.028C676.636 530.948 676.587 530.875 676.525 530.813L673.588 527.876C673.526 527.814 673.453 527.765 673.373 527.731C673.293 527.698 673.206 527.681 673.119 527.681C673.032 527.681 672.946 527.698 672.865 527.731C672.785 527.765 672.712 527.814 672.651 527.876C672.528 528 672.459 528.167 672.459 528.341C672.459 528.516 672.528 528.683 672.651 528.807L675.594 531.751C675.717 531.872 675.883 531.941 676.056 531.942V531.942Z" fill="#FFBB4D"/>
<path d="M722.318 466.105C722.318 488.346 697.93 495.721 668.289 495.721C638.648 495.721 614.08 488.346 614.08 466.105C614.08 428.183 638.648 415.182 668.289 415.182C697.93 415.182 722.318 426.378 722.318 466.105Z" fill="#FFE36C"/>
<path d="M633.252 476.972H639.644" stroke="#FFA052" stroke-width="8.52264" stroke-linecap="round"/>
<path d="M703.991 476.972H710.383" stroke="#FFA052" stroke-width="8.52264" stroke-linecap="round"/>
<path d="M646.039 461.631V468.449" stroke="black" stroke-width="6.39198" stroke-linecap="round"/>
<path d="M697.598 461.631V468.449" stroke="black" stroke-width="6.39198" stroke-linecap="round"/>
<path d="M682.684 471.431C682.684 475.314 677.819 476.971 671.818 476.971C665.817 476.971 660.952 475.314 660.952 471.431C660.952 467.548 665.817 462.908 671.818 462.908C677.819 462.908 682.684 467.548 682.684 471.431Z" fill="#FFBB4D"/>
<path d="M660.21 400.362C666.674 406.094 670.388 412.523 671.487 418.374L660.111 417.161C655.426 416.662 650.939 411.14 651.146 404.438C651.353 397.736 656.923 397.447 660.21 400.362Z" fill="#FFE36C"/>
<path d="M672.082 409.417C670.07 411.382 669.561 415.665 669.558 417.56C673.457 417.2 679.999 416.001 681.172 413.505C682.346 411.008 681.614 407.904 680.186 407.164C678.757 406.424 674.598 406.96 672.082 409.417Z" fill="#FFE36C"/>
<path d="M675.817 506.714C665.997 511.7 649.073 504.575 641.839 500.388C641.426 499.539 641.779 497.001 642.628 495.083C644.913 489.92 668.28 488.841 674.424 489.005C680.568 489.168 688.092 500.481 675.817 506.714Z" fill="#FFD058"/>
<rect x="603.849" y="497.818" width="161.93" height="12.1205" rx="2.4241" fill="#F18549"/>
<rect x="663.967" y="476.972" width="45.0884" height="10.1812" rx="2.4241" fill="#F18549"/>
<rect x="670.27" y="512.814" width="2.4241" height="51.9933" rx="0.969642" transform="rotate(-35.8752 670.27 512.814)" fill="#FFA052"/>
<rect width="2.4241" height="51.9933" rx="0.969642" transform="matrix(-0.810295 -0.586022 -0.586022 0.810295 702.753 512.814)" fill="#FFA052"/>
<rect width="2.42411" height="29.5138" rx="0.969642" transform="matrix(-0.956396 -0.292074 -0.292074 0.956396 681.206 484.467)" fill="#FFA052"/>
<rect x="691.814" y="484.467" width="2.42411" height="29.5138" rx="0.969642" transform="rotate(-16.9822 691.814 484.467)" fill="#FFA052"/>
<ellipse cx="671.243" cy="512.847" rx="2.90893" ry="2.90893" fill="#FFC53D"/>
<ellipse cx="2.90893" cy="2.90893" rx="2.90893" ry="2.90893" transform="matrix(-1 0 0 1 704.695 509.938)" fill="#FFC53D"/>
<ellipse cx="686.754" cy="533.212" rx="3.87857" ry="3.87857" fill="#FFC53D"/>
<ellipse cx="701.783" cy="554.058" rx="2.90893" ry="2.90893" fill="#FFA052"/>
<ellipse cx="2.90893" cy="2.90893" rx="2.90893" ry="2.90893" transform="matrix(-1 0 0 1 674.149 551.149)" fill="#FFA052"/>
</g>
<g clip-path="url(#clip9_497_41)">
<path d="M592.254 438.867C591.784 441.453 588.424 443.633 584.039 442.836C579.655 442.038 577.278 438.814 577.749 436.228C578.22 433.641 581.579 431.461 585.964 432.259C590.349 433.057 592.725 436.281 592.254 438.867Z" stroke="#FFC5AB" stroke-width="3.07152"/>
<path d="M592.391 438.111L596.625 414.843" stroke="#FFC5AB" stroke-width="3.07152" stroke-linecap="round" stroke-linejoin="round"/>
</g>
<g clip-path="url(#clip10_497_41)">
<ellipse cx="785.246" cy="456.15" rx="19.4788" ry="15.1129" transform="rotate(-13.1752 785.246 456.15)" fill="#AFD157"/>
<path d="M800.559 450.841L788.771 400.482" stroke="#AFD157" stroke-width="6.71683" stroke-linecap="round" stroke-linejoin="round"/>
</g>
<g clip-path="url(#clip11_497_41)">
<path d="M482.173 461.925C495.074 469.56 491.088 473.366 487.755 478.998C484.422 484.63 482.742 489.8 470.103 482.32C463.687 478.523 461.188 470.88 464.521 465.248C467.854 459.616 475.757 458.128 482.173 461.925Z" fill="white"/>
<path d="M501.083 463.232C501.083 470.343 498.603 470.385 495.543 470.385C492.484 470.385 490.003 470.343 490.003 463.232C490.003 456.121 493.399 450.356 495.543 450.356C497.688 450.356 501.083 456.121 501.083 463.232Z" fill="#FFC145"/>
<path d="M567.986 463.232C567.986 470.343 565.506 470.385 562.446 470.385C559.387 470.385 556.907 470.343 556.907 463.232C556.907 456.121 560.302 450.356 562.446 450.356C564.591 450.356 567.986 456.121 567.986 463.232Z" fill="#FFC145"/>
<path d="M577.033 461.925C564.133 469.56 568.118 473.366 571.451 478.998C574.784 484.63 576.464 489.8 589.103 482.32C595.519 478.523 598.018 470.88 594.685 465.248C591.352 459.616 583.449 458.128 577.033 461.925Z" fill="black"/>
<path d="M580.217 468.433C573.788 472.239 575.452 473.592 576.717 475.729C577.982 477.866 578.498 479.9 584.797 476.172C587.995 474.279 589.562 471.013 588.297 468.876C587.033 466.739 583.415 466.541 580.217 468.433Z" fill="#FFCACA"/>
<path d="M478.608 468.433C485.038 472.239 483.373 473.592 482.108 475.729C480.844 477.866 480.328 479.9 474.028 476.172C470.831 474.279 469.264 471.013 470.528 468.876C471.793 466.739 475.41 466.541 478.608 468.433Z" fill="#FFCACA"/>
<path d="M573.112 556.089C562.122 556.809 549.367 543.599 544.364 536.904C544.318 535.96 544.572 533.677 545.952 532.097C547.676 530.122 573.215 536.693 578.799 539.261C584.384 541.829 586.849 555.19 573.112 556.089Z" fill="#EFEFEF"/>
<path d="M555.235 594.158C558.291 592.909 561.267 576.258 560.664 567.969L531.308 572.654C530.704 579.382 530.664 593.101 532.112 594.158C533.921 595.48 551.415 595.72 555.235 594.158Z" fill="#EFEFEF"/>
<path d="M557.529 575.715C566.666 569.639 554.315 531.739 545.391 526.965C536.467 522.191 521.952 522.915 515.578 526.965C509.203 531.015 493.451 569.495 502.588 575.715C511.724 581.935 548.393 581.79 557.529 575.715Z" fill="white"/>
<path fill-rule="evenodd" clip-rule="evenodd" d="M533.111 580.284C533.182 578.042 533.108 573.466 531.548 570.738C529.051 566.37 520.895 563.493 520.895 563.493C517.628 562.996 510.583 560.638 508.537 555.184C507.667 552.863 505.66 551.309 503.341 550.294C499.695 561.271 497.985 572.582 502.586 575.715C507.561 579.102 520.699 580.602 533.111 580.284Z" fill="black"/>
<path d="M505.314 594.158C502.258 592.909 499.282 576.258 499.885 567.969L529.241 572.654C529.844 579.382 529.885 593.101 528.437 594.158C526.627 595.48 509.134 595.72 505.314 594.158Z" fill="black"/>
<path d="M487.02 557.406C486.831 546.395 500.641 534.292 507.57 529.617C508.515 529.617 510.782 529.981 512.294 531.435C514.183 533.253 506.389 558.445 503.554 563.899C500.72 569.353 487.256 571.171 487.02 557.406Z" fill="white"/>
<path d="M554.349 561.967C554.349 573.335 544.619 576.065 532.616 576.065C520.614 576.065 510.883 573.335 510.883 561.967C510.883 547.024 520.614 538.565 532.616 538.565C544.619 538.565 554.349 547.024 554.349 561.967Z" fill="#FFD2D2"/>
<path d="M532.432 572.23C532.52 572.231 532.607 572.214 532.688 572.181C532.769 572.148 532.843 572.099 532.905 572.038L535.865 569.061C535.974 568.934 536.031 568.771 536.024 568.605C536.018 568.438 535.948 568.28 535.83 568.163C535.711 568.045 535.553 567.976 535.385 567.969C535.218 567.963 535.054 568.019 534.927 568.128L531.96 571.072C531.898 571.134 531.848 571.207 531.815 571.287C531.781 571.368 531.763 571.455 531.763 571.542C531.763 571.629 531.781 571.716 531.815 571.796C531.848 571.877 531.898 571.95 531.96 572.012C532.02 572.078 532.093 572.131 532.174 572.169C532.255 572.206 532.343 572.227 532.432 572.23Z" fill="#FF8D8D"/>
<path d="M535.361 572.23C535.448 572.231 535.534 572.214 535.614 572.181C535.695 572.148 535.768 572.1 535.83 572.039C535.891 571.977 535.941 571.904 535.974 571.824C536.008 571.743 536.025 571.657 536.025 571.57C536.025 571.483 536.008 571.397 535.974 571.316C535.941 571.236 535.891 571.163 535.83 571.101L532.893 568.164C532.831 568.102 532.758 568.053 532.678 568.02C532.597 567.986 532.511 567.969 532.424 567.969C532.337 567.969 532.251 567.986 532.17 568.02C532.09 568.053 532.017 568.102 531.955 568.164C531.832 568.288 531.763 568.455 531.763 568.629C531.763 568.804 531.832 568.971 531.955 569.095L534.899 572.039C535.022 572.161 535.188 572.229 535.361 572.23V572.23Z" fill="#FF8D8D"/>
<path d="M582.901 505.967C582.901 528.207 558.513 535.582 528.871 535.582C499.23 535.582 474.663 528.207 474.663 505.967C474.663 468.045 499.23 455.043 528.871 455.043C558.513 455.043 582.901 466.239 582.901 505.967Z" fill="white"/>
<path fill-rule="evenodd" clip-rule="evenodd" d="M532.636 455.104C532.885 462.201 534.367 471.508 539.017 475.272C543.106 478.582 547.825 479.425 552.041 480.179C555.645 480.822 558.882 481.401 561.046 483.398C562.195 484.459 563.215 485.931 564.319 487.526C567.646 492.331 571.743 498.247 582.481 497.375C579.304 466.112 558.327 455.975 532.636 455.104Z" fill="black"/>
<path d="M502.786 501.918V508.736" stroke="black" stroke-width="6.39198" stroke-linecap="round"/>
<path d="M559.888 501.918V508.736" stroke="black" stroke-width="6.39198" stroke-linecap="round"/>
<path d="M511.309 517.77C511.309 509.015 518.407 501.918 527.161 501.918H535.088C543.842 501.918 550.94 509.015 550.94 517.77V517.77C550.94 523.607 546.208 528.338 540.372 528.338H521.877C516.041 528.338 511.309 523.607 511.309 517.77V517.77Z" fill="#FFCACA"/>
<path d="M522.816 513.85V518.537" stroke="black" stroke-width="4.26132" stroke-linecap="round"/>
<path d="M539.859 513.85L539.859 518.537" stroke="black" stroke-width="4.26132" stroke-linecap="round"/>
<path d="M490.003 518.537H496.395" stroke="#FFD2D2" stroke-width="8.52264" stroke-linecap="round"/>
<path d="M566.28 518.537H572.672" stroke="#FFD2D2" stroke-width="8.52264" stroke-linecap="round"/>
<g clip-path="url(#clip12_497_41)">
<path d="M561.004 521.839C562.663 529.372 565.889 530.939 571.111 530.353C576.333 529.768 579.132 527.524 579.081 519.811C579.04 513.812 574.703 509.797 568.878 510.45C563.054 511.104 559.714 515.981 561.004 521.839Z" fill="#9EE7E5"/>
<path d="M561.03 520.764L578.816 518.768" stroke="#005271" stroke-width="2.13066" stroke-linecap="round"/>
<rect x="570.225" y="558.754" width="7.67038" height="5.11359" rx="0.852264" transform="rotate(-6.40172 570.225 558.754)" fill="#005271"/>
<path d="M564.44 529.848C564.368 529.37 564.708 528.928 565.188 528.874L576.134 527.646C576.614 527.592 577.043 527.948 577.079 528.43L579.483 560.749C579.517 561.206 579.183 561.608 578.728 561.659L570.196 562.617C569.741 562.668 569.326 562.35 569.258 561.896L564.44 529.848Z" fill="#005271"/>
</g>
</g>
<g clip-path="url(#clip13_497_41)">
<path d="M581.374 213.233L581.374 275.935" stroke="#E3B133" stroke-width="2.16211"/>
<path fill-rule="evenodd" clip-rule="evenodd" d="M577.857 275.935C577.409 275.935 577.046 276.298 577.046 276.745V278.638H574.885C574.437 278.638 574.074 279.001 574.074 279.449V281.881C574.074 282.329 574.437 282.692 574.885 282.692H598.668C599.116 282.692 599.479 282.329 599.479 281.881V279.449C599.479 279.001 599.116 278.638 598.668 278.638H596.505V276.745C596.505 276.298 596.142 275.935 595.694 275.935H577.857Z" fill="#C79622"/>
<circle cx="595.428" cy="247.017" r="8.37817" fill="#E3B133"/>
<g filter="url(#filter0_d_497_41)">
<circle cx="595.428" cy="247.017" r="8.37817" fill="#E3B133"/>
</g>
<circle cx="595.427" cy="247.017" r="10.27" stroke="#C79622" stroke-width="0.540527"/>
<circle cx="595.43" cy="230.531" r="7.29711" stroke="#C79622" stroke-width="0.540527"/>
<ellipse cx="595.427" cy="247.017" rx="5.13501" ry="10.27" stroke="#C79622" stroke-width="0.540527"/>
<path d="M588.4 257.016C588.4 257.016 592.597 257.275 595.292 257.275C597.987 257.275 602.184 257.016 602.184 257.016V262.973C602.184 262.973 597.987 263.232 595.292 263.232C592.597 263.232 588.4 262.973 588.4 262.973V257.016Z" fill="#E3B133"/>
<path d="M590.292 234.585C590.292 234.585 593.419 234.844 595.427 234.844C597.434 234.844 600.562 234.585 600.562 234.585V240.542C600.562 240.542 597.434 240.801 595.427 240.801C593.419 240.801 590.292 240.542 590.292 240.542V234.585Z" fill="#C79622"/>
<path d="M588.48 262.963C588.48 262.963 592.687 263.287 595.43 263.287C598.172 263.287 602.379 262.963 602.379 262.963L602.727 263.936L602.446 265.557C602.446 265.557 598.172 266.206 595.43 266.206C592.687 266.206 588.413 265.557 588.413 265.557L588.132 263.936L588.48 262.963Z" fill="#C79622"/>
<path d="M591.157 254.584C591.157 254.584 593.671 254.914 595.292 254.914C596.912 254.914 599.427 254.584 599.427 254.584C599.427 254.584 599.599 254.914 600.461 256.401C600.748 256.896 602.184 256.896 602.184 256.896C602.184 256.896 596.912 257.557 595.292 257.557C593.671 257.557 588.4 256.896 588.4 256.896C588.4 256.896 589.693 256.797 589.951 256.401C590.812 255.079 591.157 254.584 591.157 254.584Z" fill="#C79622"/>
<path d="M592.346 232.152C592.346 232.152 594.219 232.152 595.427 232.152C596.634 232.152 598.508 232.152 598.508 232.152L600.562 234.601C600.562 234.601 596.634 235.125 595.427 235.125C594.219 235.125 590.292 234.601 590.292 234.601L592.346 232.152Z" fill="#E3B133"/>
<path d="M592.346 230.26C592.346 230.26 594.219 230.26 595.427 230.26C596.634 230.26 598.508 230.26 598.508 230.26L600.562 232.692C600.562 232.692 596.634 232.692 595.427 232.692C594.219 232.692 590.292 232.692 590.292 232.692L592.346 230.26Z" fill="#C79622"/>
<path d="M584.076 247.017H606.778" stroke="#C79622" stroke-width="0.540527" stroke-linecap="round"/>
<path d="M596.507 224.314C596.507 224.898 596.43 225.384 596.254 225.717C596.169 225.879 596.063 225.998 595.935 226.077C595.808 226.156 595.644 226.206 595.426 226.206C595.208 226.206 595.044 226.156 594.917 226.077C594.789 225.998 594.683 225.879 594.597 225.717C594.421 225.384 594.345 224.898 594.345 224.314C594.345 223.731 594.421 223.244 594.597 222.912C594.683 222.75 594.789 222.631 594.917 222.552C595.044 222.473 595.208 222.423 595.426 222.423C595.644 222.423 595.808 222.473 595.935 222.552C596.063 222.631 596.169 222.75 596.254 222.912C596.43 223.244 596.507 223.731 596.507 224.314Z" stroke="#E3B133" stroke-width="0.540527"/>
<path d="M596.507 218.775C596.507 219.319 596.431 219.77 596.258 220.075C596.174 220.224 596.069 220.335 595.941 220.409C595.813 220.484 595.647 220.532 595.426 220.532C595.205 220.532 595.038 220.484 594.91 220.409C594.782 220.335 594.677 220.224 594.594 220.075C594.421 219.77 594.345 219.319 594.345 218.775C594.345 218.231 594.421 217.78 594.594 217.475C594.677 217.326 594.782 217.216 594.91 217.141C595.038 217.066 595.205 217.018 595.426 217.018C595.647 217.018 595.813 217.066 595.941 217.141C596.069 217.216 596.174 217.326 596.258 217.475C596.431 217.78 596.507 218.231 596.507 218.775Z" stroke="#E3B133" stroke-width="0.540527"/>
<path d="M595.427 219.72V223.233" stroke="#E3B133" stroke-width="0.540527" stroke-linecap="round"/>
<path d="M595.427 214.315V217.829" stroke="#E3B133" stroke-width="0.540527" stroke-linecap="round"/>
<path d="M595.427 225.396V228.639" stroke="#E3B133" stroke-width="0.540527" stroke-linecap="round"/>
<path d="M593.446 229.72H597.409L598.4 230.26H592.455L593.446 229.72Z" fill="#E3B133"/>
<path fill-rule="evenodd" clip-rule="evenodd" d="M596.256 229.807C596.256 229.806 596.256 229.806 596.256 229.806C596.256 229.266 596.178 228.863 596.036 228.611C595.97 228.494 595.895 228.418 595.811 228.369C595.727 228.32 595.605 228.281 595.419 228.281C595.233 228.281 595.111 228.32 595.027 228.369C594.943 228.418 594.868 228.494 594.802 228.611C594.66 228.863 594.582 229.266 594.582 229.806C594.582 229.806 594.582 229.806 594.582 229.807H594.042C594.042 229.806 594.042 229.806 594.042 229.806C594.042 228.665 594.354 227.74 595.419 227.74C596.484 227.74 596.796 228.665 596.796 229.806C596.796 229.806 596.796 229.806 596.796 229.807H596.256Z" fill="#E3B133"/>
<rect x="577.862" y="210.531" width="24.8642" height="2.70263" rx="0.540527" fill="#C79622"/>
<path d="M590.833 213.233H600.022V214.585C600.022 214.883 599.78 215.125 599.481 215.125H591.373C591.075 215.125 590.833 214.883 590.833 214.585V213.233Z" fill="#C79622"/>
</g>
<ellipse cx="879.806" cy="164.902" rx="29" ry="22.5" transform="rotate(6.48263 879.806 164.902)" fill="#FFC53D"/>
<ellipse cx="952.971" cy="185.292" rx="29" ry="22.5" transform="rotate(6.48263 952.971 185.292)" fill="#FFC53D"/>
<path d="M976.705 188.995L985.399 112.488L912.628 88.6191L903.935 165.127" stroke="#FFC53D" stroke-width="10" stroke-linecap="round" stroke-linejoin="round"/>
<ellipse cx="884.675" cy="365.355" rx="21.1138" ry="16.3814" fill="#9EE7E5"/>
<path d="M902.149 363.535V307.474C907.245 314.876 919.477 329.752 927.631 330.044" stroke="#9EE7E5" stroke-width="7.28064" stroke-linecap="round" stroke-linejoin="round"/>
</g>
<defs>
<filter id="filter0_d_497_41" x="585.428" y="237.017" width="19.9995" height="19.999" filterUnits="userSpaceOnUse" color-interpolation-filters="sRGB">
<feFlood flood-opacity="0" result="BackgroundImageFix"/>
<feColorMatrix in="SourceAlpha" type="matrix" values="0 0 0 0 0 0 0 0 0 0 0 0 0 0 0 0 0 0 127 0" result="hardAlpha"/>
<feMorphology radius="0.540527" operator="dilate" in="SourceAlpha" result="effect1_dropShadow_497_41"/>
<feOffset/>
<feGaussianBlur stdDeviation="0.540527"/>
<feComposite in2="hardAlpha" operator="out"/>
<feColorMatrix type="matrix" values="0 0 0 0 0.890196 0 0 0 0 0.694118 0 0 0 0 0.2 0 0 0 1 0"/>
<feBlend mode="normal" in2="BackgroundImageFix" result="effect1_dropShadow_497_41"/>
<feBlend mode="normal" in="SourceGraphic" in2="effect1_dropShadow_497_41" result="shape"/>
</filter>
<linearGradient id="paint0_linear_497_41" x1="673.727" y1="219.448" x2="673.727" y2="239.277" gradientUnits="userSpaceOnUse">
<stop stop-color="#E3B133" stop-opacity="0"/>
<stop offset="1" stop-color="#E3B133" stop-opacity="0.7"/>
</linearGradient>
<clipPath id="clip0_497_41">
<path d="M0 12C0 5.37256 5.37258 0 12 0H1078C1084.63 0 1090 5.37258 1090 12V650.274H0V12Z" fill="white"/>
</clipPath>
<clipPath id="clip1_497_41">
<rect width="69.4863" height="70.2912" fill="white" transform="translate(390.051 212.807)"/>
</clipPath>
<clipPath id="clip2_497_41">
<rect width="30.0482" height="57.95" fill="white" transform="translate(493.914 225.225)"/>
</clipPath>
<clipPath id="clip3_497_41">
<rect width="53.6574" height="65.4621" fill="white" transform="translate(395.696 316.67)"/>
</clipPath>
<clipPath id="clip4_497_41">
<rect width="232.242" height="199.856" fill="white" transform="translate(245.547 330.782)"/>
</clipPath>
<clipPath id="clip5_497_41">
<rect width="126.561" height="157.243" fill="white" transform="translate(290.715 330.782)"/>
</clipPath>
<clipPath id="clip6_497_41">
<rect width="175.566" height="194.316" fill="white" transform="translate(133.216 397.954)"/>
</clipPath>
<clipPath id="clip7_497_41">
<rect width="66.2559" height="155.874" fill="white" transform="translate(284.745 481.476) rotate(71.3563)"/>
</clipPath>
<clipPath id="clip8_497_41">
<rect width="162.356" height="171.731" fill="white" transform="translate(603.423 391.744)"/>
</clipPath>
<clipPath id="clip9_497_41">
<rect width="30.7152" height="43.9227" fill="white" transform="translate(577.863 403) rotate(10.3133)"/>
</clipPath>
<clipPath id="clip10_497_41">
<rect width="64.4816" height="85.3037" fill="white" transform="translate(741 402.697) rotate(-13.1752)"/>
</clipPath>
<clipPath id="clip11_497_41">
<rect width="134.232" height="159.373" fill="white" transform="translate(462.304 443.11)"/>
</clipPath>
<clipPath id="clip12_497_41">
<rect width="24.2895" height="58.3801" fill="white" transform="translate(556.053 508.888) rotate(-6.40172)"/>
</clipPath>
<clipPath id="clip13_497_41">
<rect width="44.5935" height="78.9169" fill="white" transform="translate(567.863 203.774)"/>
</clipPath>
</defs>
</svg>
