<svg width="335" height="372" viewBox="0 0 335 372" fill="none" xmlns="http://www.w3.org/2000/svg">
<path d="M239.862 247.19C223.859 260.915 189.155 255.334 173.803 250.828C172.649 249.435 170.416 245.648 170.715 241.643C171.087 236.638 217.743 217.368 229.244 214.887C240.746 212.406 259.866 230.035 239.862 247.19Z" fill="#EFEFEF"/>
<path d="M254.512 171.289C256.233 167.274 260.883 165.414 264.898 167.135C268.913 168.856 270.772 173.506 269.051 177.521L245.903 231.524C244.182 235.539 239.532 237.398 235.518 235.677C231.503 233.956 229.643 229.306 231.364 225.291L254.512 171.289Z" fill="#9EE7E5"/>
<circle cx="268.078" cy="160.134" r="45.1961" transform="rotate(23.2023 268.078 160.134)" fill="#9EE7E5"/>
<path d="M186.859 357.654C192.709 355.262 198.405 323.389 197.251 307.521L141.056 316.49C139.902 329.368 139.825 355.63 142.596 357.654C146.06 360.183 179.546 360.643 186.859 357.654Z" fill="#EFEFEF"/>
<path d="M191.251 322.352C208.74 310.722 185.098 238.172 168.015 229.034C150.933 219.896 123.148 221.281 110.946 229.034C98.744 236.788 68.5907 310.445 86.0801 322.352C103.57 334.259 173.761 333.982 191.251 322.352Z" fill="white"/>
<path d="M91.2968 357.654C85.4464 355.262 79.7499 323.389 80.9046 307.521L137.099 316.49C138.254 329.368 138.331 355.63 135.559 357.654C132.095 360.183 98.6097 360.643 91.2968 357.654Z" fill="white"/>
<path d="M56.2869 287.304C55.9252 266.225 82.3609 243.058 95.6239 234.109C97.4326 234.109 101.773 234.805 104.667 237.589C108.284 241.069 93.3633 289.292 87.9375 299.732C82.5117 310.172 56.739 313.652 56.2869 287.304Z" fill="white"/>
<path d="M183.534 297.668C183.534 319.427 164.908 324.654 141.933 324.654C118.957 324.654 100.332 319.427 100.332 297.668C100.332 269.063 118.957 252.871 141.933 252.871C164.908 252.871 183.534 269.063 183.534 297.668Z" fill="#F4F4F4"/>
<path d="M143.213 311.6C143.381 311.601 143.547 311.569 143.702 311.506C143.857 311.443 143.998 311.351 144.117 311.233L149.784 305.534C149.992 305.291 150.101 304.98 150.089 304.661C150.077 304.342 149.944 304.04 149.717 303.814C149.49 303.589 149.186 303.457 148.866 303.444C148.545 303.432 148.232 303.54 147.988 303.748L142.309 309.384C142.19 309.502 142.095 309.642 142.031 309.796C141.966 309.95 141.933 310.116 141.933 310.283C141.933 310.45 141.966 310.616 142.031 310.77C142.095 310.925 142.19 311.065 142.309 311.182C142.424 311.309 142.563 311.411 142.719 311.483C142.874 311.555 143.042 311.595 143.213 311.6Z" fill="#FFD2D2"/>
<path d="M148.819 311.6C148.985 311.601 149.15 311.57 149.304 311.507C149.458 311.444 149.598 311.351 149.716 311.234C149.835 311.117 149.929 310.977 149.993 310.823C150.057 310.669 150.09 310.504 150.09 310.337C150.09 310.17 150.057 310.005 149.993 309.851C149.929 309.697 149.835 309.557 149.716 309.44L144.094 303.817C143.977 303.699 143.837 303.605 143.683 303.541C143.529 303.476 143.364 303.443 143.197 303.443C143.03 303.443 142.865 303.476 142.711 303.541C142.557 303.605 142.418 303.699 142.3 303.817C142.065 304.054 141.933 304.374 141.933 304.708C141.933 305.042 142.065 305.362 142.3 305.599L147.935 311.234C148.17 311.467 148.488 311.599 148.819 311.6Z" fill="#FFD2D2"/>
<path d="M67.2164 66.0407C73.742 87.1933 101.684 128.607 107.594 145.924H163.47C169.38 128.607 195.168 87.1933 203.44 66.0407C213.699 39.8065 203.029 5.70893 174.212 5.70898C150.419 5.70903 139.273 44.9991 136.144 66.0407C133.015 44.9991 121.053 5.70898 98.0758 5.70898C69.2587 5.70898 58.9124 39.1236 67.2164 66.0407Z" fill="white"/>
<path d="M236.556 186.391C236.556 228.964 189.872 243.081 133.132 243.081C76.3926 243.081 29.3652 228.964 29.3652 186.391C29.3652 113.8 76.3926 88.9121 133.132 88.9121C189.872 88.9121 236.556 110.344 236.556 186.391Z" fill="white"/>
<path d="M70.1509 196.604H82.3865" stroke="#FFD2D2" stroke-width="16.3142" stroke-linecap="round"/>
<path d="M205.559 196.604H217.795" stroke="#FFD2D2" stroke-width="16.3142" stroke-linecap="round"/>
<path d="M157.433 197.844C157.433 190.494 156.83 185.305 143.949 187.338C131.069 185.305 130.514 190.498 130.514 197.844C130.514 205.191 136.54 215.586 143.973 215.586C151.407 215.586 157.433 205.195 157.433 197.844Z" fill="#FFD2D2"/>
<path fill-rule="evenodd" clip-rule="evenodd" d="M157.349 194.656C153.604 195.612 149.356 196.151 144.853 196.151C139.636 196.151 134.76 195.427 130.613 194.17C131.035 188.517 133.199 185.641 143.949 187.338C154.87 185.614 156.965 189.081 157.349 194.656Z" fill="#EFEFEF"/>
<path d="M140.637 175.377C142.238 175.377 142.972 176.044 143.973 176.712C144.973 176.044 145.707 175.377 147.308 175.377C149.31 175.377 150.472 177.475 149.977 178.714C149.31 180.382 146.864 182.051 143.973 182.718C141.082 182.051 138.636 180.382 137.969 178.714C137.473 177.475 138.636 175.377 140.637 175.377Z" fill="#FFD2D2"/>
<path d="M103.047 181.688C103.047 181.688 100.683 178.976 95.3635 178.976C90.0443 178.976 87.6802 181.688 87.6802 181.688" stroke="black" stroke-width="9.63754" stroke-linecap="round"/>
<path d="M201.123 181.688C201.123 181.688 198.758 178.976 193.439 178.976C188.12 178.976 185.756 181.688 185.756 181.688" stroke="black" stroke-width="9.63754" stroke-linecap="round"/>
<circle cx="202.026" cy="281.12" r="16.2706" fill="#FF686B"/>
<path d="M185.756 280.668H218.297" stroke="black" stroke-width="4.51961" stroke-linecap="round"/>
<rect x="272.235" y="134.623" width="9" height="30" rx="4.5" transform="rotate(19.8118 272.235 134.623)" fill="#FF686B"/>
<circle cx="261.833" cy="175.317" r="5" transform="rotate(15 261.833 175.317)" fill="#FF686B"/>
</svg>
