<svg width="332" height="329" viewBox="0 0 332 329" fill="none" xmlns="http://www.w3.org/2000/svg">
<path d="M228.796 207.869C212.737 221.528 178.055 215.803 162.722 211.234C161.574 209.836 159.357 206.04 159.672 202.037C160.065 197.033 206.8 177.956 218.311 175.523C229.822 173.089 248.87 190.796 228.796 207.869Z" fill="#FFC532"/>
<path d="M243.448 131.453C245.169 127.438 249.819 125.578 253.834 127.299C257.849 129.02 259.708 133.67 257.987 137.685L234.839 191.688C233.118 195.703 228.468 197.562 224.454 195.841C220.439 194.12 218.579 189.47 220.3 185.456L243.448 131.453Z" fill="#9EE7E5"/>
<circle cx="257.014" cy="120.298" r="45.1961" transform="rotate(23.2023 257.014 120.298)" fill="#9EE7E5"/>
<path d="M177.321 314.81C183.171 312.418 188.868 280.545 187.713 264.678L131.519 273.646C130.364 286.524 130.287 312.786 133.058 314.81C136.522 317.34 170.008 317.799 177.321 314.81Z" fill="#FFC532"/>
<path d="M181.713 279.506C199.202 267.876 175.56 195.327 158.478 186.189C141.395 177.051 113.611 178.435 101.408 186.189C89.2064 193.942 59.0531 267.599 76.5425 279.506C94.032 291.413 164.223 291.137 181.713 279.506Z" fill="#FFDB40"/>
<path d="M81.7592 314.81C75.9088 312.418 70.2123 280.545 71.367 264.678L127.561 273.646C128.716 286.524 128.793 312.786 126.022 314.81C122.558 317.34 89.0721 317.799 81.7592 314.81Z" fill="#FFDB40"/>
<path d="M46.7493 244.458C46.3876 223.379 72.8233 200.212 86.0863 191.264C87.895 191.264 92.2357 191.96 95.1294 194.744C98.7466 198.224 83.8257 246.447 78.3999 256.887C72.9741 267.327 47.2014 270.807 46.7493 244.458Z" fill="#FFDB40"/>
<path d="M133.676 268.757C133.843 268.758 134.01 268.726 134.165 268.663C134.32 268.6 134.461 268.507 134.58 268.389L140.246 262.69C140.455 262.448 140.564 262.136 140.551 261.817C140.539 261.499 140.406 261.196 140.179 260.971C139.953 260.745 139.649 260.613 139.328 260.601C139.008 260.588 138.694 260.697 138.451 260.904L132.772 266.54C132.652 266.658 132.558 266.798 132.493 266.952C132.428 267.107 132.395 267.272 132.395 267.439C132.395 267.607 132.428 267.772 132.493 267.927C132.558 268.081 132.652 268.221 132.772 268.339C132.886 268.465 133.026 268.568 133.181 268.639C133.336 268.711 133.505 268.751 133.676 268.757Z" fill="#FFB132"/>
<path d="M139.282 268.757C139.448 268.758 139.613 268.726 139.767 268.663C139.92 268.6 140.06 268.507 140.179 268.39C140.297 268.273 140.391 268.133 140.455 267.979C140.519 267.825 140.552 267.66 140.552 267.493C140.552 267.326 140.519 267.161 140.455 267.007C140.391 266.853 140.297 266.713 140.179 266.596L134.557 260.973C134.439 260.855 134.299 260.761 134.145 260.697C133.991 260.633 133.826 260.6 133.66 260.6C133.493 260.6 133.328 260.633 133.174 260.697C133.02 260.761 132.88 260.855 132.763 260.973C132.527 261.21 132.395 261.53 132.395 261.864C132.395 262.198 132.527 262.518 132.763 262.755L138.397 268.39C138.632 268.624 138.95 268.755 139.282 268.757Z" fill="#FFB132"/>
<path d="M227.833 142.731C227.833 185.304 181.15 199.421 124.41 199.421C67.6704 199.421 20.6431 185.304 20.6431 142.731C20.6431 70.1402 67.6704 45.252 124.41 45.252C181.15 45.252 227.833 66.6835 227.833 142.731Z" fill="#FFDB40"/>
<path d="M57.3506 153.15H69.5862" stroke="#FCA18E" stroke-width="16.3142" stroke-linecap="round"/>
<path d="M192.759 153.15H204.994" stroke="#FCA18E" stroke-width="16.3142" stroke-linecap="round"/>
<path d="M151.972 152.926C151.972 160.359 142.66 163.53 131.172 163.53C119.684 163.53 110.371 160.359 110.371 152.926C110.371 145.492 119.684 136.611 131.172 136.611C142.66 136.611 151.972 145.492 151.972 152.926Z" fill="#FFB132"/>
<path d="M108.95 16.882C121.324 27.855 128.433 40.1614 130.536 51.3619L108.76 49.0399C99.7933 48.0837 91.204 37.5143 91.6003 24.6854C91.9967 11.8564 102.658 11.3019 108.95 16.882Z" fill="#FFDB40"/>
<path d="M131.675 34.2155C127.822 37.9774 126.849 46.1755 126.843 49.8043C134.307 49.1144 146.83 46.82 149.076 42.0408C151.321 37.2615 149.921 31.3197 147.186 29.9034C144.452 28.4871 136.491 29.5132 131.675 34.2155Z" fill="#FFDB40"/>
<path d="M89.7383 139.141C89.7383 139.141 87.3742 136.429 82.0549 136.429C76.7357 136.429 74.3716 139.141 74.3716 139.141" stroke="#123041" stroke-width="9.63754" stroke-linecap="round"/>
<path d="M187.813 139.141C187.813 139.141 185.449 136.429 180.13 136.429C174.811 136.429 172.447 139.141 172.447 139.141" stroke="#123041" stroke-width="9.63754" stroke-linecap="round"/>
<circle cx="188.718" cy="238.12" r="16.2706" fill="#FF686B"/>
<path d="M172.447 237.668H204.988" stroke="#123041" stroke-width="4.51961" stroke-linecap="round"/>
<rect x="261.237" y="96.623" width="9" height="30" rx="4.5" transform="rotate(19.8118 261.237 96.623)" fill="#FF686B"/>
<circle cx="250.835" cy="137.317" r="5" transform="rotate(15 250.835 137.317)" fill="#FF686B"/>
</svg>
