<svg width="461" height="759" viewBox="0 0 461 759" fill="none" xmlns="http://www.w3.org/2000/svg">
<g clip-path="url(#clip0_1471_160)">
<path d="M185.057 395.479C173.142 383.965 174.958 356.399 177.356 344.054C178.361 343.049 181.16 341.024 184.316 340.963C188.26 340.887 206.768 375.979 209.554 384.796C212.341 393.613 199.952 409.87 185.057 395.479Z" fill="#EFEFEF"/>
<path d="M244.97 413.76C240.389 415.682 219.51 401.134 211.333 391.674L247.548 365.429C255.346 371.944 269.984 386.496 269.569 389.161C269.049 392.492 250.695 411.357 244.97 413.76Z" fill="#EFEFEF"/>
<path d="M222.912 396.583C206.729 399.839 179.548 346.38 183.964 331.808C188.379 317.236 204.589 302.565 215.68 300.092C226.77 297.62 284.462 321.797 281.36 338.134C278.258 354.471 239.095 393.326 222.912 396.583Z" fill="white"/>
<path d="M298.081 360.653C300.003 356.073 285.456 335.194 275.996 327.017L249.75 363.231C256.265 371.03 270.817 385.668 273.482 385.252C276.813 384.733 295.678 366.379 298.081 360.653Z" fill="white"/>
<path d="M278.44 302.098C266.926 290.182 239.359 291.999 227.015 294.397C226.01 295.402 223.985 298.201 223.924 301.356C223.847 305.301 258.94 323.808 267.757 326.595C276.574 329.381 292.831 316.992 278.44 302.098Z" fill="white"/>
<path d="M213.48 378.575C225.573 390.668 238.828 383.221 251.597 370.452C264.366 357.684 271.812 344.428 259.72 332.335C243.822 316.438 224.473 317.791 211.704 330.559C198.935 343.328 197.583 362.677 213.48 378.575Z" fill="#F4F4F4"/>
<path d="M243.633 363.911C243.54 364.005 243.43 364.079 243.309 364.13C243.187 364.182 243.057 364.208 242.926 364.209L236.61 364.191C236.359 364.172 236.125 364.059 235.955 363.875C235.785 363.691 235.691 363.449 235.691 363.198C235.692 362.947 235.787 362.704 235.959 362.519C236.13 362.334 236.364 362.221 236.615 362.201L242.903 362.177C243.035 362.176 243.166 362.201 243.287 362.251C243.409 362.301 243.519 362.374 243.612 362.467C243.705 362.56 243.779 362.671 243.829 362.792C243.878 362.914 243.904 363.044 243.903 363.176C243.909 363.31 243.889 363.444 243.842 363.571C243.796 363.697 243.725 363.813 243.633 363.911Z" fill="#FFD2D2"/>
<path d="M240.517 367.026C240.425 367.119 240.316 367.193 240.196 367.244C240.075 367.294 239.946 367.321 239.815 367.321C239.684 367.322 239.554 367.296 239.433 367.246C239.312 367.196 239.202 367.123 239.109 367.03C239.016 366.938 238.943 366.827 238.893 366.706C238.843 366.585 238.817 366.455 238.818 366.324L238.818 360.075C238.817 359.944 238.843 359.814 238.892 359.693C238.942 359.571 239.016 359.461 239.108 359.369C239.201 359.276 239.311 359.203 239.432 359.153C239.554 359.103 239.684 359.077 239.815 359.078C240.077 359.079 240.328 359.183 240.514 359.369C240.699 359.554 240.804 359.806 240.805 360.068L240.805 366.331C240.804 366.592 240.701 366.841 240.517 367.026V367.026Z" fill="#FFD2D2"/>
<path d="M147.132 187.472C155.261 202.854 162.748 241.398 169.088 254.307L138.035 285.36C125.126 279.02 87.7791 270.336 71.4265 263.178C51.1454 254.3 38.1256 229.42 54.1407 213.405C67.3637 200.182 95.3934 215.823 108.826 225.778C98.8712 212.345 83.6835 183.862 96.4531 171.093C112.468 155.078 136.788 167.898 147.132 187.472Z" fill="white"/>
<path d="M119.906 348.466C143.566 372.126 177.356 354.027 208.889 322.494C240.422 290.961 257.376 265.035 215.384 223.043C197.837 205.495 193.344 200.925 176.597 200.925C171.148 200.925 158.646 205.092 155.12 212.785C153.197 220.158 136.341 223.684 123.21 236.815C91.677 268.348 77.6432 306.203 119.906 348.466Z" fill="white"/>
<path d="M191.758 262.561L199.011 269.814" stroke="black" stroke-width="9.61656" stroke-linecap="round"/>
<path d="M136.904 317.412L144.157 324.665" stroke="black" stroke-width="9.61656" stroke-linecap="round"/>
<path d="M213.909 264.377L207.109 271.177" stroke="white" stroke-width="19.2331" stroke-linecap="round"/>
<path d="M200.876 263.734C199.901 264.425 197.874 266.549 197.563 269.524C197.253 272.498 198.272 275.088 198.82 276.011" stroke="black" stroke-width="3.20552" stroke-linecap="round"/>
<path d="M213.909 264.377L207.109 271.177" stroke="#FFD2D2" stroke-width="12.8221" stroke-linecap="round"/>
<path d="M147.785 341.893L140.985 348.693" stroke="#FFD2D2" stroke-width="12.8221" stroke-linecap="round"/>
<path d="M175.646 316.261C179.731 320.346 181.785 322.399 189.265 314.92C196.745 307.44 195.056 305.751 190.606 301.301C186.156 296.851 175.716 293.109 171.585 297.24C167.454 301.371 171.561 312.176 175.646 316.261Z" fill="#FFD2D2"/>
<path fill-rule="evenodd" clip-rule="evenodd" d="M184.31 297.218C179.66 295.2 174.278 294.544 171.583 297.24C168.924 299.898 169.678 305.321 171.641 309.937C174.273 308.981 176.942 307.294 179.29 304.946C181.662 302.574 183.359 299.875 184.31 297.218Z" fill="#EFEFEF"/>
<path d="M167.094 289.04C166.204 289.93 166.167 290.709 165.982 291.636C165.055 291.821 164.276 291.858 163.386 292.748C162.274 293.86 162.794 295.672 163.758 296.085C165.056 296.642 167.343 296.21 169.32 294.974C170.556 292.997 170.988 290.71 170.431 289.412C170.018 288.448 168.206 287.928 167.094 289.04Z" fill="#FFD2D2"/>
</g>
<g clip-path="url(#clip1_1471_160)">
<path d="M214.382 289.66C229.498 296.446 254.417 284.518 264.986 277.706C265.546 276.399 266.387 273.048 265.271 270.095C263.877 266.405 224.42 262.26 215.199 262.948C205.977 263.637 195.486 281.179 214.382 289.66Z" fill="#EFD565"/>
<path d="M286.969 360.5C282.006 360.306 269.231 338.298 265.818 326.268L309.731 317.786C314.046 326.987 321.162 346.362 319.659 348.601C317.781 351.401 293.174 360.742 286.969 360.5Z" fill="#EFD565"/>
<path d="M274.236 335.607C258.193 331.719 256.151 271.782 266.311 260.441C276.471 249.1 297.364 242.654 308.46 245.1C319.556 247.547 361.625 293.841 351.909 307.336C342.193 320.831 290.279 339.495 274.236 335.607Z" fill="#FFE36C"/>
<path d="M357.546 334.812C361.224 331.473 356.863 306.402 351.745 294.994L312.654 316.723C315.263 326.544 322.265 345.961 324.856 346.71C328.094 347.647 352.949 338.986 357.546 334.812Z" fill="#FFE36C"/>
<path d="M364.49 273.44C359.091 257.775 333.339 247.771 321.139 244.728C319.803 245.214 316.784 246.895 315.395 249.729C313.659 253.271 337.642 284.875 344.455 291.127C351.269 297.379 371.239 293.021 364.49 273.44Z" fill="#FFE36C"/>
<path d="M306.822 314.752C306.699 314.798 306.568 314.819 306.436 314.814C306.304 314.809 306.175 314.779 306.056 314.724L300.339 312.038C300.12 311.915 299.956 311.714 299.879 311.475C299.803 311.236 299.819 310.977 299.926 310.75C300.033 310.522 300.222 310.343 300.455 310.248C300.689 310.153 300.949 310.148 301.185 310.236L306.894 312.872C307.014 312.927 307.122 313.005 307.211 313.102C307.3 313.198 307.369 313.312 307.414 313.435C307.459 313.559 307.479 313.69 307.473 313.821C307.466 313.952 307.434 314.081 307.378 314.2C307.327 314.325 307.252 314.438 307.156 314.532C307.061 314.627 306.947 314.702 306.822 314.752Z" fill="#FFBB4D"/>
<path d="M302.682 316.259C302.56 316.304 302.429 316.325 302.299 316.32C302.168 316.315 302.04 316.284 301.921 316.229C301.802 316.175 301.695 316.097 301.606 316C301.518 315.904 301.449 315.791 301.404 315.667C301.359 315.544 301.339 315.413 301.345 315.282C301.351 315.151 301.383 315.023 301.439 314.904L304.08 309.241C304.135 309.121 304.212 309.014 304.309 308.926C304.405 308.837 304.518 308.768 304.642 308.723C304.765 308.679 304.896 308.659 305.027 308.665C305.158 308.671 305.286 308.702 305.405 308.758C305.642 308.87 305.826 309.071 305.915 309.317C306.005 309.564 305.994 309.836 305.883 310.074L303.237 315.751C303.126 315.986 302.927 316.169 302.682 316.259V316.259Z" fill="#FFBB4D"/>
<path d="M199.79 248.305C211.234 279.747 249.507 277.624 291.412 262.372C333.317 247.12 364.254 224.052 352.81 192.61C333.297 138.998 291.875 133.259 249.97 148.511C208.065 163.763 179.348 192.14 199.79 248.305Z" fill="#FFE36C"/>
<path d="M331.293 217.838L322.257 221.127" stroke="#FFA052" stroke-width="12.8221" stroke-linecap="round"/>
<path d="M231.289 254.236L222.252 257.525" stroke="#FFA052" stroke-width="12.8221" stroke-linecap="round"/>
<path d="M305.325 202.729L308.834 212.368" stroke="black" stroke-width="9.61656" stroke-linecap="round"/>
<path d="M232.432 229.26L235.94 238.899" stroke="black" stroke-width="9.61656" stroke-linecap="round"/>
<path d="M258.559 235.441C260.557 240.93 268.288 240.769 276.772 237.681C285.256 234.593 291.282 229.748 289.284 224.258C287.285 218.768 278.02 214.712 269.536 217.8C261.052 220.888 256.561 229.951 258.559 235.441Z" fill="#FFBB4D"/>
<path d="M253.763 123.402C247.574 134.833 245.632 145.832 247.09 154.67L262.548 147.101C268.913 143.985 272.416 133.87 268.675 124.501C264.933 115.133 256.911 117.589 253.763 123.402Z" fill="#FFE36C"/>
<path d="M241.638 142.313C245.495 144.055 248.418 149.848 249.397 152.527C243.7 154.024 233.834 155.695 230.89 152.769C227.947 149.843 227.385 145.078 229.023 143.297C230.662 141.516 236.817 140.134 241.638 142.313Z" fill="#FFE36C"/>
</g>
<g clip-path="url(#clip2_1471_160)">
<ellipse cx="25.6261" cy="27.6154" rx="25.6261" ry="27.6154" transform="matrix(-0.99996 -0.00896114 -0.00896114 0.99996 311.066 261.57)" fill="#49B236"/>
<ellipse cx="186.713" cy="340.895" rx="25.6261" ry="27.6154" transform="rotate(-56.8657 186.713 340.895)" fill="#49B236"/>
<path d="M236.742 456.817C228.669 442.348 238.387 416.487 244.255 405.365C245.508 404.694 248.773 403.565 251.811 404.42C255.609 405.489 263.167 444.435 263.283 453.682C263.398 462.929 246.834 474.904 236.742 456.817Z" fill="#4B9B3A"/>
<path d="M288.8 491.658C283.859 492.172 268.084 472.204 262.995 460.782L305.256 446.141C310.835 454.635 320.634 472.801 319.466 475.231C318.004 478.269 294.976 491.015 288.8 491.658Z" fill="#4B9B3A"/>
<path d="M272.659 468.83C256.226 467.263 245.682 408.225 254.126 395.555C262.569 382.884 282.333 373.533 293.664 374.376C304.995 375.219 353.22 415.06 345.522 429.8C337.824 444.539 289.092 470.396 272.659 468.83Z" fill="#49B236"/>
<path d="M355.008 456.193C358.173 452.365 350.292 428.169 343.603 417.605L307.999 444.672C311.978 454.023 321.671 472.246 324.342 472.62C327.681 473.087 351.051 460.978 355.008 456.193Z" fill="#49B236"/>
<path d="M353.155 394.461C345.583 379.723 318.67 373.483 306.161 372.205C304.907 372.876 302.158 374.97 301.187 377.972C299.972 381.726 328.206 409.598 335.839 414.817C343.473 420.036 362.62 412.883 353.155 394.461Z" fill="#49B236"/>
<path d="M267.479 446.313C276.655 463.444 291.763 460.647 307.681 452.12C323.599 443.593 334.299 432.567 325.122 415.436C313.059 392.915 293.327 387.08 277.409 395.607C261.491 404.133 255.416 423.793 267.479 446.313Z" fill="#9CD43D"/>
<path d="M301.948 443.553C301.832 443.615 301.705 443.655 301.574 443.669C301.444 443.683 301.311 443.671 301.185 443.634L295.145 441.788C294.91 441.697 294.719 441.522 294.609 441.296C294.5 441.071 294.479 440.812 294.553 440.572C294.626 440.331 294.788 440.127 295.005 439.999C295.223 439.872 295.48 439.831 295.726 439.884L301.752 441.681C301.878 441.719 301.996 441.781 302.098 441.864C302.2 441.947 302.284 442.049 302.346 442.165C302.408 442.281 302.447 442.408 302.459 442.538C302.472 442.669 302.458 442.802 302.419 442.927C302.387 443.058 302.328 443.18 302.247 443.288C302.166 443.395 302.065 443.485 301.948 443.553Z" fill="#49B236"/>
<path d="M298.064 445.633C297.949 445.695 297.823 445.734 297.693 445.748C297.563 445.761 297.432 445.749 297.307 445.712C297.181 445.674 297.064 445.613 296.963 445.53C296.861 445.447 296.777 445.345 296.715 445.229C296.653 445.114 296.615 444.987 296.602 444.856C296.589 444.726 296.603 444.594 296.641 444.469L298.449 438.487C298.487 438.361 298.549 438.244 298.632 438.143C298.714 438.041 298.817 437.957 298.932 437.895C299.048 437.833 299.174 437.795 299.305 437.782C299.435 437.769 299.567 437.783 299.692 437.821C299.943 437.898 300.153 438.071 300.277 438.302C300.401 438.533 300.429 438.804 300.353 439.056L298.541 445.051C298.465 445.3 298.293 445.509 298.064 445.633V445.633Z" fill="#49B236"/>
<path d="M183.919 393.513C199.886 423.32 238.033 415.607 277.962 394.218C317.891 372.83 345.69 345.219 329.724 315.412C306.788 272.593 263.855 271.954 223.926 293.342C183.997 314.73 159.167 347.304 183.919 393.513Z" fill="#49B236"/>
<path d="M281.067 291.102L285.91 300.144" stroke="black" stroke-width="9.61656" stroke-linecap="round"/>
<path d="M184.69 341.996L189.534 351.038" stroke="black" stroke-width="9.61656" stroke-linecap="round"/>
<path d="M308.937 313.262L299.329 318.408" stroke="#9CD43D" stroke-width="12.8221" stroke-linecap="round"/>
<path d="M204.386 369.266L194.779 374.412" stroke="#9CD43D" stroke-width="12.8221" stroke-linecap="round"/>
<path d="M232.904 342.396C229.267 335.606 227.438 332.192 240.154 325.381C252.869 318.57 254.373 321.377 258.335 328.774C264.827 340.893 262.918 351.006 255.895 354.768C248.873 358.53 238.942 353.668 232.904 342.396Z" fill="#FFD2D2"/>
<path fill-rule="evenodd" clip-rule="evenodd" d="M258.985 330.036C264.686 341.591 262.672 351.137 255.895 354.767C250.974 357.402 244.627 355.805 239.191 350.736C240.111 346.545 242.415 342.104 245.985 338.209C249.878 333.961 254.551 331.155 258.985 330.036Z" fill="#FF2D2D"/>
</g>
<g clip-path="url(#clip3_1471_160)">
<path d="M284.855 375.94C288.514 385.993 292.042 384.777 296.368 383.202C300.693 381.628 304.178 380.292 300.519 370.239C296.86 360.187 289.094 353.784 286.062 354.888C283.03 355.991 281.196 365.888 284.855 375.94Z" fill="#FFC145"/>
<path d="M190.273 410.364C193.932 420.417 197.46 419.2 201.786 417.626C206.111 416.052 209.596 414.716 205.937 404.663C202.278 394.61 194.511 388.208 191.48 389.311C188.448 390.415 186.614 400.311 190.273 410.364Z" fill="#FFC145"/>
<path d="M310.918 364.365C296.608 381.797 304.201 385.127 311.811 391.374C319.421 397.621 324.457 404.066 338.476 386.988C345.593 378.319 345.193 366.227 337.583 359.98C329.973 353.732 318.035 355.696 310.918 364.365Z" fill="white"/>
<path d="M176.811 413.176C198.977 417.331 195.302 424.763 193.488 434.44C191.674 444.117 191.958 452.291 170.242 448.22C159.217 446.154 151.751 436.634 153.565 426.956C155.379 417.279 165.787 411.109 176.811 413.176Z" fill="black"/>
<path d="M175.657 424.014C186.705 426.085 185.048 428.855 184.36 432.527C183.672 436.199 183.988 439.339 173.165 437.31C167.67 436.28 163.774 432.469 164.462 428.797C165.15 425.125 170.163 422.984 175.657 424.014Z" fill="#FFCACA"/>
<path d="M319.309 371.73C312.177 380.418 315.227 381.476 318.115 383.846C321.002 386.216 322.778 388.826 329.765 380.314C333.312 375.993 333.847 370.569 330.96 368.198C328.072 365.828 322.856 367.409 319.309 371.73Z" fill="#FFCACA"/>
<path d="M191.177 478.457C202.621 509.899 240.894 507.777 282.799 492.524C324.704 477.272 355.641 454.205 344.197 422.763C324.684 369.151 283.262 363.411 241.357 378.663C199.452 393.915 170.735 422.293 191.177 478.457Z" fill="white"/>
<path fill-rule="evenodd" clip-rule="evenodd" d="M236.062 380.691C239.362 390.852 242.055 404.773 237.419 412.487C233.341 419.27 227.104 422.89 221.53 426.125C216.766 428.889 212.488 431.373 210.457 435.309C209.378 437.401 208.694 440.007 207.953 442.83C205.722 451.335 202.974 461.809 187.342 466.099C175.746 420.267 200.189 395.141 236.062 380.691Z" fill="black"/>
<path d="M302.353 431.51L305.861 441.149" stroke="black" stroke-width="9.61656" stroke-linecap="round"/>
<path d="M221.626 460.893L225.134 470.532" stroke="black" stroke-width="9.61656" stroke-linecap="round"/>
<path d="M298.461 458.305C293.956 445.928 280.27 439.546 267.893 444.051L256.688 448.13C244.31 452.635 237.929 466.32 242.434 478.698V478.698C245.437 486.949 254.561 491.203 262.812 488.2L288.958 478.684C297.209 475.681 301.464 466.557 298.461 458.305V458.305Z" fill="#FFCACA"/>
<path d="M280.178 458.684L282.59 465.31" stroke="black" stroke-width="6.41104" stroke-linecap="round"/>
<path d="M256.08 467.455L258.492 474.082" stroke="black" stroke-width="6.41104" stroke-linecap="round"/>
<path d="M328.978 448.426L319.941 451.715" stroke="#FFD2D2" stroke-width="12.8221" stroke-linecap="round"/>
<path d="M221.138 487.676L212.102 490.965" stroke="#FFD2D2" stroke-width="12.8221" stroke-linecap="round"/>
<path d="M272.445 544.746C268.908 547.635 259.874 552.914 252.027 550.917C244.18 548.92 239.867 544.296 238.691 542.234" stroke="black" stroke-width="5.12883"/>
<path d="M243.086 540.777C242.051 546.476 235.727 549.732 231.128 545.134C225.582 539.588 225.534 534.581 226.361 533.755C227.015 533.102 228.494 535.374 228.93 535.222C229.366 535.07 225.005 529.921 227.937 528.72C232.027 527.043 244.34 533.866 243.086 540.777Z" fill="#A8A8A8"/>
<path d="M350.982 551.928C349.732 546.325 313.595 480.018 307.42 478.202C301.244 476.386 254.083 495.24 251.143 502.752C248.203 510.264 258.109 546.158 290.165 571.482C325.886 599.702 352.232 557.532 350.982 551.928Z" fill="white"/>
<path d="M293.923 594.242C290.554 590.592 291.038 572.445 282.063 564.431L329.426 554.777C334.32 563.683 330.782 591.911 329.426 594.242C327.73 597.156 297.769 598.409 293.923 594.242Z" fill="white"/>
<path d="M294.138 540.17C301.739 555.49 313.534 554.223 325.831 548.121C338.128 542.02 346.272 533.394 338.67 518.074C328.678 497.935 313.053 491.481 300.755 497.583C288.458 503.685 284.146 520.03 294.138 540.17Z" fill="#FFD2D2"/>
<path d="M323.505 540.033C323.391 540.1 323.265 540.143 323.135 540.162C323.005 540.18 322.872 540.172 322.745 540.139L316.649 538.486C316.411 538.403 316.215 538.234 316.098 538.012C315.981 537.79 315.953 537.532 316.018 537.29C316.084 537.047 316.239 536.837 316.452 536.703C316.666 536.569 316.921 536.52 317.169 536.565L323.249 538.17C323.376 538.203 323.496 538.261 323.601 538.341C323.705 538.42 323.793 538.52 323.859 538.634C323.924 538.747 323.967 538.873 323.983 539.004C324 539.134 323.991 539.267 323.956 539.394C323.927 539.525 323.873 539.649 323.795 539.759C323.718 539.869 323.619 539.962 323.505 540.033Z" fill="#FF8D8D"/>
<path d="M319.689 542.236C319.576 542.302 319.452 542.345 319.322 542.363C319.193 542.381 319.061 542.373 318.935 542.339C318.808 542.306 318.689 542.248 318.585 542.168C318.481 542.089 318.393 541.989 318.328 541.876C318.262 541.762 318.22 541.637 318.203 541.507C318.186 541.377 318.195 541.245 318.229 541.118L319.847 535.082C319.88 534.955 319.938 534.836 320.018 534.732C320.097 534.628 320.197 534.54 320.31 534.475C320.424 534.409 320.549 534.367 320.679 534.35C320.809 534.333 320.941 534.342 321.068 534.377C321.321 534.446 321.537 534.612 321.668 534.839C321.799 535.066 321.835 535.336 321.768 535.589L320.147 541.639C320.079 541.891 319.914 542.105 319.689 542.236V542.236Z" fill="#FF8D8D"/>
</g>
<path d="M454 12C454 5.37257 448.628 0 442 0H321V597H442C448.628 597 454 591.627 454 585V12Z" fill="#005271"/>
<path d="M337.508 487.215C329.344 501.634 302.2 506.775 289.649 507.543C288.424 506.822 285.763 504.619 284.914 501.579C283.853 497.78 313.195 471.077 321.034 466.172C328.873 461.267 347.714 469.193 337.508 487.215Z" fill="white"/>
<defs>
<clipPath id="clip0_1471_160">
<rect width="209" height="292.344" fill="white" transform="matrix(-0.707107 0.707107 0.707107 0.707107 147.785 113.414)"/>
</clipPath>
<clipPath id="clip1_1471_160">
<rect width="194.896" height="258.365" fill="white" transform="matrix(-0.939693 0.34202 0.34202 0.939693 329.61 82)"/>
</clipPath>
<clipPath id="clip2_1471_160">
<rect width="180.15" height="236.567" fill="white" transform="matrix(-0.8815 0.472183 0.472183 0.8815 294.731 236.506)"/>
</clipPath>
<clipPath id="clip3_1471_160">
<rect width="201.948" height="384.793" fill="white" transform="matrix(-0.939693 0.34202 0.34202 0.939693 329.323 327.543)"/>
</clipPath>
</defs>
</svg>
