<svg width="25" height="25" viewBox="0 0 25 25" fill="none" xmlns="http://www.w3.org/2000/svg">
<path d="M11.3607 0.928762C11.733 -0.0772852 13.1559 -0.0772852 13.5282 0.928762L16.1614 8.04481C16.2784 8.36111 16.5278 8.61049 16.8441 8.72753L23.9601 11.3607C24.9662 11.733 24.9662 13.1559 23.9601 13.5282L16.8441 16.1614C16.5278 16.2784 16.2784 16.5278 16.1614 16.8441L13.5282 23.9601C13.1559 24.9662 11.733 24.9662 11.3607 23.9601L8.72753 16.8441C8.61049 16.5278 8.36111 16.2784 8.04481 16.1614L0.928762 13.5282C-0.0772852 13.1559 -0.0772852 11.733 0.928762 11.3607L8.04481 8.72753C8.36111 8.61049 8.61049 8.36111 8.72753 8.04481L11.3607 0.928762Z" fill="#005271"/>
</svg>
