<svg width="611" height="486" viewBox="0 0 611 486" fill="none" xmlns="http://www.w3.org/2000/svg">
<g clip-path="url(#clip0_2129_1709)">
<ellipse cx="295.097" cy="265.972" rx="302.026" ry="140.583" transform="rotate(-20.396 295.097 265.972)" fill="#D1F76E"/>
<g clip-path="url(#clip1_2129_1709)">
<ellipse cx="228.296" cy="133.471" rx="28.5397" ry="30.7552" transform="rotate(-28.6896 228.296 133.471)" fill="#5BB42B"/>
<ellipse cx="28.5397" cy="30.7552" rx="28.5397" ry="30.7552" transform="matrix(-0.877234 -0.480064 -0.480064 0.877234 392.09 119.398)" fill="#5BB42B"/>
<path d="M333.491 334.368C338.611 332.274 343.598 304.376 342.587 290.487L293.399 298.337C292.389 309.609 292.321 332.597 294.747 334.368C297.779 336.582 327.089 336.985 333.491 334.368Z" fill="#4B9B3A"/>
<path d="M337.335 303.468C352.644 293.288 331.949 229.785 316.997 221.786C302.044 213.788 277.724 214.999 267.044 221.786C256.363 228.573 229.97 293.046 245.279 303.468C260.587 313.89 322.026 313.648 337.335 303.468Z" fill="#49B236"/>
<path d="M249.845 334.368C244.724 332.274 239.738 304.376 240.749 290.487L289.936 298.337C290.947 309.609 291.014 332.597 288.588 334.368C285.556 336.582 256.246 336.985 249.845 334.368Z" fill="#49B236"/>
<path d="M330.581 278.635C330.581 300.279 314.278 305.477 294.167 305.477C274.056 305.477 257.753 300.279 257.753 278.635C257.753 250.183 274.056 234.078 294.167 234.078C314.278 234.078 330.581 250.183 330.581 278.635Z" fill="#9CD43D"/>
<path d="M295.288 294.056C295.435 294.057 295.58 294.029 295.716 293.974C295.852 293.918 295.975 293.837 296.08 293.734L301.039 288.746C301.222 288.534 301.317 288.261 301.306 287.982C301.296 287.703 301.179 287.438 300.981 287.241C300.782 287.043 300.516 286.928 300.236 286.917C299.955 286.906 299.681 287.001 299.468 287.183L294.497 292.116C294.392 292.219 294.31 292.342 294.253 292.477C294.196 292.612 294.167 292.757 294.167 292.903C294.167 293.049 294.196 293.194 294.253 293.329C294.31 293.464 294.392 293.587 294.497 293.69C294.597 293.801 294.719 293.89 294.855 293.953C294.991 294.016 295.138 294.051 295.288 294.056Z" fill="#49B236"/>
<path d="M300.195 294.056C300.34 294.057 300.485 294.029 300.619 293.974C300.754 293.919 300.877 293.838 300.98 293.735C301.084 293.632 301.166 293.51 301.222 293.375C301.278 293.241 301.307 293.096 301.307 292.95C301.307 292.804 301.278 292.659 301.222 292.525C301.166 292.39 301.084 292.268 300.98 292.165L296.059 287.243C295.956 287.14 295.834 287.057 295.699 287.001C295.564 286.945 295.42 286.916 295.274 286.916C295.128 286.916 294.983 286.945 294.849 287.001C294.714 287.057 294.592 287.14 294.489 287.243C294.283 287.45 294.167 287.731 294.167 288.023C294.167 288.315 294.283 288.595 294.489 288.803L299.421 293.735C299.627 293.94 299.905 294.055 300.195 294.056Z" fill="#49B236"/>
<path d="M382.704 182.86C382.704 220.519 341.198 233.006 290.751 233.006C240.304 233.006 198.493 220.519 198.493 182.86C198.493 128.763 240.304 105.558 290.751 105.558C341.198 105.558 382.704 124.479 382.704 182.86Z" fill="#5BB42B"/>
<path d="M233.479 144.118V155.542" stroke="#123041" stroke-width="10.7099" stroke-linecap="round"/>
<path d="M354.857 142.687V154.111" stroke="#123041" stroke-width="10.7099" stroke-linecap="round"/>
<path d="M217.771 169.822H229.909" stroke="#A1DC3C" stroke-width="14.2799" stroke-linecap="round"/>
<path d="M349.86 169.822H361.998" stroke="#A1DC3C" stroke-width="14.2799" stroke-linecap="round"/>
<path d="M307.735 158.438C307.735 149.859 307.735 145.546 291.67 145.546C275.605 145.546 275.605 149.093 275.605 158.438C275.605 173.749 282.798 182.674 291.67 182.674C300.543 182.674 307.735 172.678 307.735 158.438Z" fill="#D52C2F"/>
<path d="M291.667 182.672C297.883 182.672 303.273 177.765 305.945 169.931C302.837 166.3 298.241 163.152 292.689 161.205C286.633 159.082 280.571 158.785 275.63 160.019C276.109 174.36 283.105 182.672 291.667 182.672Z" fill="#FF686B"/>
</g>
<g clip-path="url(#clip2_2129_1709)">
<path d="M214.645 249.894C236.26 262.686 229.583 269.063 223.998 278.5C218.413 287.936 215.598 296.599 194.421 284.067C183.671 277.705 179.484 264.897 185.068 255.461C190.653 246.024 203.895 243.532 214.645 249.894Z" fill="white"/>
<path d="M246.329 252.08C246.329 263.994 242.173 264.065 237.047 264.065C231.921 264.065 227.765 263.994 227.765 252.08C227.765 240.165 233.454 230.507 237.047 230.507C240.64 230.507 246.329 240.165 246.329 252.08Z" fill="#6A5B3D"/>
<path d="M358.427 252.08C358.427 263.994 354.271 264.065 349.145 264.065C344.019 264.065 339.863 263.994 339.863 252.08C339.863 240.165 345.552 230.507 349.145 230.507C352.738 230.507 358.427 240.165 358.427 252.08Z" fill="#6A5B3D"/>
<path d="M373.585 249.894C351.97 262.686 358.647 269.063 364.232 278.5C369.816 287.936 372.632 296.599 393.808 284.067C404.558 277.705 408.746 264.897 403.161 255.461C397.577 246.024 384.335 243.532 373.585 249.894Z" fill="#123041"/>
<path d="M378.92 260.807C368.147 267.182 370.937 269.451 373.055 273.031C375.174 276.611 376.039 280.019 386.594 273.773C391.951 270.602 394.577 265.129 392.458 261.548C390.34 257.968 384.278 257.636 378.92 260.807Z" fill="#FFC0C1"/>
<path d="M208.67 260.807C219.443 267.182 216.654 269.451 214.535 273.031C212.416 276.611 211.551 280.019 200.997 273.773C195.639 270.602 193.013 265.129 195.132 261.548C197.251 257.968 203.312 257.636 208.67 260.807Z" fill="#FFC0C1"/>
<path d="M357.752 450.89C354.197 452.992 314.6 452.78 306.601 447.511C296.867 441.1 293.302 432.477 295.648 425.03C300.684 409.042 312.015 409.368 324.51 410.439C337.005 411.51 372.584 413.301 375.204 420.078C378.241 427.932 366.993 445.425 357.752 450.89Z" fill="#E7EAEE"/>
<path d="M338.763 440.551C354.071 430.371 333.377 366.868 318.424 358.87C303.472 350.871 279.152 352.083 268.471 358.87C257.791 365.656 231.397 430.129 246.706 440.551C262.015 450.974 323.454 450.731 338.763 440.551Z" fill="white"/>
<path fill-rule="evenodd" clip-rule="evenodd" d="M247.972 397.965C251.86 399.665 255.224 402.268 256.682 406.157C260.11 415.296 271.914 419.247 277.388 420.08C277.401 420.084 291.056 424.904 295.238 432.219C297.853 436.793 297.973 444.465 297.853 448.22C277.056 448.752 255.04 446.24 246.704 440.564C238.994 435.316 241.862 416.359 247.972 397.965Z" fill="#123041"/>
<path d="M333.435 417.517C333.435 436.564 317.132 441.138 297.021 441.138C276.91 441.138 260.607 436.564 260.607 417.517C260.607 392.479 276.91 378.307 297.021 378.307C317.132 378.307 333.435 392.479 333.435 417.517Z" fill="#FFC0C1"/>
<path d="M296.716 434.71C296.863 434.711 297.008 434.683 297.144 434.628C297.28 434.573 297.403 434.492 297.507 434.389L302.467 429.4C302.649 429.188 302.745 428.915 302.734 428.636C302.723 428.357 302.607 428.092 302.408 427.895C302.21 427.698 301.944 427.582 301.663 427.571C301.383 427.56 301.109 427.655 300.895 427.837L295.925 432.77C295.82 432.873 295.737 432.996 295.681 433.131C295.624 433.266 295.595 433.411 295.595 433.557C295.595 433.704 295.624 433.849 295.681 433.984C295.737 434.119 295.82 434.241 295.925 434.344C296.025 434.455 296.147 434.545 296.283 434.608C296.419 434.67 296.566 434.705 296.716 434.71Z" fill="#FF8D8D"/>
<path d="M301.623 434.71C301.768 434.711 301.912 434.683 302.047 434.628C302.182 434.573 302.304 434.492 302.408 434.39C302.511 434.287 302.594 434.164 302.65 434.03C302.706 433.895 302.735 433.75 302.735 433.604C302.735 433.458 302.706 433.314 302.65 433.179C302.594 433.044 302.511 432.922 302.408 432.819L297.487 427.897C297.384 427.794 297.262 427.712 297.127 427.655C296.992 427.599 296.848 427.57 296.702 427.57C296.556 427.57 296.411 427.599 296.276 427.655C296.142 427.712 296.019 427.794 295.916 427.897C295.71 428.105 295.595 428.385 295.595 428.677C295.595 428.969 295.71 429.25 295.916 429.457L300.848 434.39C301.054 434.594 301.332 434.709 301.623 434.71Z" fill="#FF8D8D"/>
<path d="M305.63 453.029C302.075 455.132 262.478 454.92 254.479 449.651C244.745 443.239 241.18 434.616 243.526 427.169C248.562 411.182 259.893 411.508 272.388 412.579C284.883 413.65 320.462 415.441 323.082 422.218C326.118 430.072 314.871 447.564 305.63 453.029Z" fill="#123041"/>
<path d="M383.418 323.69C383.418 360.954 342.556 373.311 292.891 373.311C243.227 373.311 202.063 360.954 202.063 323.69C202.063 260.151 243.227 238.366 292.891 238.366C342.556 238.366 383.418 257.125 383.418 323.69Z" fill="white"/>
<path d="M299.203 238.46C342.25 239.919 377.399 256.902 382.719 309.288C358.755 311.237 354.531 293.006 346.802 285.872C338.936 278.611 322.599 282.544 309.892 272.257C302.1 265.95 299.62 250.351 299.203 238.46Z" fill="#123041"/>
<path d="M249.185 316.904V328.328" stroke="#123041" stroke-width="10.7099" stroke-linecap="round"/>
<path d="M344.86 316.904V328.328" stroke="#123041" stroke-width="10.7099" stroke-linecap="round"/>
<path d="M263.465 343.465C263.465 328.796 275.356 316.904 290.025 316.904H303.306C317.975 316.904 329.866 328.796 329.866 343.465C329.866 353.244 321.939 361.172 312.159 361.172H281.172C271.392 361.172 263.465 353.244 263.465 343.465Z" fill="#FFC0C1"/>
<path d="M282.743 336.897V344.751" stroke="black" stroke-width="7.13996" stroke-linecap="round"/>
<path d="M311.303 336.897L311.303 344.751" stroke="black" stroke-width="7.13996" stroke-linecap="round"/>
<path d="M227.765 344.748H238.475" stroke="#FFC0C1" stroke-width="14.2799" stroke-linecap="round"/>
<path d="M355.57 344.748H366.28" stroke="#FFC0C1" stroke-width="14.2799" stroke-linecap="round"/>
<path d="M289.008 405.469C270.906 409.052 257.042 392.103 249.152 380.654C247.173 376.441 249.003 370.629 252.367 369.611C258.358 367.797 284.967 373.222 294.803 376.275C304.638 379.329 311.636 400.991 289.008 405.469Z" fill="#E7EAEE"/>
<rect width="116.381" height="9.99595" rx="1.42799" transform="matrix(-1 0 0 1 380.014 405.441)" fill="#173A52"/>
<path d="M392.698 339.815L238.436 264.074L192.065 374.502L290.056 410.443L392.698 339.815Z" fill="url(#paint0_linear_2129_1709)"/>
<rect width="116.381" height="76.3976" rx="3.56998" transform="matrix(-1 0 0 1 394.293 339.037)" fill="#005271"/>
<path d="M330.978 377.693V371.794L318.609 384.169L321.531 387.153L330.978 377.693ZM359.162 374.006C358.246 369.398 354.782 365.941 354.384 365.532L345.882 356.891L341.024 361.747L340.678 362.093V367.992L345.865 362.807L350.701 367.721L351.439 368.47L351.49 368.522C351.49 368.522 351.813 368.839 352.257 369.369C353.618 370.932 354.585 372.799 355.076 374.813C355.767 378.269 356.113 382.342 352.257 387.285V393.38C352.62 393.063 352.833 392.839 352.931 392.758C356.39 389.371 358.459 385.949 359.271 382.29C359.834 379.554 359.798 376.728 359.168 374.006H359.162ZM333.41 392.216L333.283 392.153H333.22C332.843 391.956 332.484 391.727 332.148 391.467C331.831 391.243 331.444 390.943 330.995 390.557C330.292 389.981 329.416 389.198 328.349 388.155L325.957 385.712L323.006 388.662L325.387 391.087V391.122C329.07 394.717 330.96 395.73 331.658 396.024C333.866 397.111 336.259 397.774 338.712 397.977C339.84 398.065 340.973 398.042 342.096 397.908L342.367 397.879V393.651C339.306 394.135 336.171 393.633 333.416 392.216H333.41Z" fill="white"/>
<path d="M338.599 364.179V389.365H333.072V369.709L333.625 369.156L333.925 368.856L335.596 367.186L336.726 366.057L337.095 365.688L338.23 364.553L338.599 364.179Z" fill="white"/>
<path d="M350.172 369.803V394.932L350.103 394.984C349.849 395.145 349.578 395.312 349.29 395.473C349.198 395.531 349.1 395.583 349.002 395.635C348.748 395.779 348.477 395.923 348.201 396.061C347.924 396.199 347.676 396.314 347.4 396.435L346.944 396.631L346.322 396.873L345.814 397.052C345.469 397.167 345.111 397.276 344.742 397.374L344.472 397.444V369.803H350.172Z" fill="white"/>
<path d="M344.471 376.45H338.598V382.153H344.471V376.45Z" fill="white"/>
<path d="M282.535 236.58C284.117 242.484 275.755 249.94 264.329 253.002C252.902 256.064 242.737 253.572 241.155 247.668C238.475 237.668 244.336 227.529 257.188 224.085C270.04 220.642 279.763 226.235 282.535 236.58Z" fill="#4F9A15"/>
<path d="M304.342 236.369C302.76 242.273 311.122 249.729 322.549 252.791C333.975 255.853 344.14 253.361 345.722 247.457C348.402 237.457 342.541 227.318 329.689 223.874C316.837 220.431 307.114 226.024 304.342 236.369Z" fill="#4F9A15"/>
</g>
<g clip-path="url(#clip3_2129_1709)">
<path d="M446.908 452.889C441.787 450.795 436.801 422.897 437.812 409.008L486.999 416.858C488.01 428.13 488.077 451.117 485.652 452.889C482.619 455.103 453.309 455.506 446.908 452.889Z" fill="#E7EAEE"/>
<path d="M443.064 421.989C427.755 411.809 448.449 348.306 463.402 340.307C478.354 332.309 502.674 333.52 513.355 340.307C524.035 347.094 550.429 411.567 535.12 421.989C519.811 432.411 458.372 432.169 443.064 421.989Z" fill="white"/>
<path d="M530.554 452.889C535.675 450.795 540.661 422.897 539.65 409.008L490.463 416.858C489.452 428.13 489.385 451.118 491.81 452.889C494.842 455.103 524.153 455.506 530.554 452.889Z" fill="white"/>
<path d="M449.818 400.386C449.818 419.432 466.121 424.006 486.232 424.006C506.343 424.006 522.646 419.432 522.646 400.386C522.646 375.347 506.343 361.175 486.232 361.175C466.121 361.175 449.818 375.347 449.818 400.386Z" fill="#E7EAEE"/>
<path d="M485.112 412.581C484.965 412.582 484.819 412.554 484.684 412.499C484.548 412.444 484.424 412.363 484.32 412.26L479.361 407.271C479.178 407.059 479.083 406.786 479.093 406.507C479.104 406.228 479.22 405.964 479.419 405.766C479.617 405.569 479.884 405.453 480.164 405.442C480.445 405.431 480.719 405.526 480.932 405.708L485.903 410.641C486.007 410.744 486.09 410.867 486.147 411.002C486.203 411.137 486.232 411.282 486.232 411.428C486.232 411.575 486.203 411.72 486.147 411.855C486.09 411.99 486.007 412.112 485.903 412.215C485.802 412.326 485.681 412.416 485.545 412.479C485.409 412.542 485.261 412.576 485.112 412.581Z" fill="#FFC0C1"/>
<path d="M480.205 412.581C480.059 412.582 479.915 412.554 479.78 412.499C479.646 412.444 479.523 412.363 479.42 412.261C479.316 412.158 479.234 412.035 479.178 411.901C479.121 411.766 479.093 411.621 479.093 411.475C479.093 411.329 479.121 411.185 479.178 411.05C479.234 410.915 479.316 410.793 479.42 410.69L484.341 405.769C484.443 405.665 484.566 405.583 484.7 405.526C484.835 405.47 484.98 405.441 485.126 405.441C485.272 405.441 485.416 405.47 485.551 405.526C485.686 405.583 485.808 405.665 485.911 405.769C486.117 405.976 486.232 406.256 486.232 406.548C486.232 406.84 486.117 407.121 485.911 407.328L480.979 412.261C480.773 412.465 480.495 412.58 480.205 412.581Z" fill="#FFC0C1"/>
<path d="M551.634 197.644C545.923 216.159 521.465 252.409 516.292 267.567H467.383C462.21 252.409 439.637 216.159 432.397 197.644C423.417 174.681 432.757 144.835 457.981 144.835C478.807 144.835 488.563 179.226 491.302 197.644C494.04 179.226 504.511 144.835 524.623 144.835C549.847 144.835 558.903 174.084 551.634 197.644Z" fill="white"/>
<path d="M403.409 302.983C403.409 340.247 444.272 352.605 493.937 352.605C543.601 352.605 584.765 340.247 584.765 302.983C584.765 239.444 543.601 217.659 493.937 217.659C444.272 217.659 403.409 236.418 403.409 302.983Z" fill="white"/>
<path d="M527.644 291.914V303.338" stroke="#123041" stroke-width="10.7099" stroke-linecap="round"/>
<path d="M441.25 291.914V303.338" stroke="#123041" stroke-width="10.7099" stroke-linecap="round"/>
<path d="M549.064 319.762H538.354" stroke="#FFC0C1" stroke-width="14.2799" stroke-linecap="round"/>
<path d="M430.542 319.762H419.832" stroke="#FFC0C1" stroke-width="14.2799" stroke-linecap="round"/>
<path d="M472.667 321.516C472.667 327.95 472.667 331.185 484.448 331.185C496.228 331.185 496.228 328.525 496.228 321.516C496.228 314.507 490.954 303.339 484.448 303.339C477.941 303.339 472.667 315.082 472.667 321.516Z" fill="#FFC0C1"/>
<path d="M484.447 303.342C480.261 303.342 476.587 308.205 474.498 313.386C477.323 314.705 480.751 315.479 484.448 315.479C488.183 315.479 491.644 314.689 494.485 313.346C492.411 308.096 488.691 303.342 484.447 303.342Z" fill="#E7EAEE"/>
<path d="M487.367 293.344C485.966 293.344 485.323 293.928 484.448 294.513C483.572 293.928 482.929 293.344 481.528 293.344C479.776 293.344 478.759 295.18 479.192 296.265C479.776 297.726 481.917 299.186 484.448 299.77C486.978 299.186 489.119 297.726 489.703 296.265C490.136 295.18 489.119 293.344 487.367 293.344Z" fill="#FFC0C1"/>
<g clip-path="url(#clip4_2129_1709)">
<path d="M444.647 345.435C444.956 345.916 445.362 346.108 445.526 346.144L461.3 338.999L474.377 327.647C474.413 327.482 474.408 327.033 474.1 326.552C473.714 325.951 473.075 322.969 471.68 323.439C470.285 323.91 469.661 325.582 467.858 326.738C466.054 327.894 465.369 327.486 462.664 329.22C459.959 330.954 459.443 332.133 457.639 333.289C455.836 334.445 454.549 334.422 452.446 335.771C450.342 337.12 448.924 338.877 447.121 340.033C445.318 341.189 443.837 340.866 442.828 341.937C441.819 343.008 444.262 344.834 444.647 345.435Z" fill="#E48174"/>
<path d="M468.926 383.299C468.617 382.818 468.612 382.369 468.648 382.204L481.725 370.852L497.499 363.707C497.663 363.743 498.07 363.935 498.378 364.416C498.763 365.017 501.207 366.843 500.197 367.914C499.187 368.986 497.407 368.855 495.604 370.011C493.801 371.167 493.886 371.961 491.181 373.695C488.476 375.429 487.189 375.406 485.386 376.562C483.583 377.718 483.066 378.897 480.963 380.246C478.859 381.595 476.67 382.15 474.867 383.306C473.064 384.462 472.74 385.942 471.345 386.412C469.95 386.882 469.311 383.9 468.926 383.299Z" fill="#E48174"/>
<path d="M459.552 336.303C453.914 339.918 445.62 345.66 445.512 346.153C445.452 346.426 446.266 348.876 448.219 352.9C449.788 356.134 453.293 359.616 456.471 364.571C459.648 369.527 461.362 374.157 463.647 376.933C466.488 380.386 468.375 382.149 468.648 382.208C469.141 382.316 477.82 377.176 483.459 373.56C489.097 369.945 497.392 364.204 497.499 363.711C497.559 363.434 496.787 361.027 494.807 356.955C493.255 353.761 489.743 350.322 486.525 345.302C483.307 340.283 481.633 335.666 479.379 332.922C476.504 329.423 474.64 327.716 474.363 327.656C473.87 327.547 465.191 332.688 459.552 336.303Z" fill="#FFC5AB"/>
<g filter="url(#filter0_d_2129_1709)">
<path d="M477.189 370.47C470.892 371.751 464.792 368.621 466.458 364.274C468.124 359.928 471.211 361.849 475.268 361.024C479.325 360.199 481.56 357.924 483.95 360.717C486.339 363.51 483.487 369.189 477.189 370.47Z" fill="#FFC53D"/>
</g>
<g filter="url(#filter1_d_2129_1709)">
<path d="M481.683 358.449C479.775 363.388 474.894 366.232 472.618 363.146C470.341 360.059 473.045 358.77 474.274 355.588C475.503 352.406 474.917 349.845 477.916 349.427C480.915 349.008 483.59 353.51 481.683 358.449Z" fill="#FFC53D"/>
</g>
<g filter="url(#filter2_d_2129_1709)">
<path d="M465.256 357.09C460.158 358.569 454.925 356.403 456.003 352.712C457.082 349.021 459.753 350.395 463.038 349.442C466.323 348.489 468.009 346.466 470.165 348.604C472.32 350.742 470.355 355.611 465.256 357.09Z" fill="#FFC53D"/>
</g>
</g>
<g clip-path="url(#clip5_2129_1709)">
<path d="M517.346 332.188L518.435 334.167L520.754 335.338L522.105 337.559L524.425 338.731L525.251 340.466L527.833 341.881L524.644 344.28L515.205 335.557L517.346 332.188Z" fill="#DAA427"/>
<path d="M499.242 372.815L498.154 370.837L495.834 369.666L494.483 367.445L492.163 366.273L491.337 364.537L488.755 363.123L491.945 360.724L501.383 369.447L499.242 372.815Z" fill="#DAA427"/>
<rect x="515.164" y="334.543" width="14.2799" height="35.6998" rx="1.42799" transform="rotate(42.7435 515.164 334.543)" fill="#FFC53D"/>
<path d="M515.888 343.851C516.265 343.734 516.665 343.944 516.782 344.321L518.203 348.894C518.32 349.271 518.109 349.671 517.732 349.788L509.054 352.484C509.215 352.432 509.367 352.382 509.511 352.337C509.738 351.905 510.131 350.842 509.886 350.051C509.578 349.061 508.358 348.626 508.128 347.884C507.944 347.294 508.072 346.554 508.16 346.252L515.888 343.851Z" fill="#935F3A"/>
<path d="M503.37 354.008C502.764 353.871 502.183 353.386 501.968 353.16L500.14 361.246C500.083 361.498 500.278 361.808 500.531 361.865L505.584 363.008C505.837 363.065 506.147 362.87 506.204 362.617L507.918 355.037C507.657 354.624 506.934 353.752 506.125 353.569C505.115 353.341 504.128 354.18 503.37 354.008Z" fill="#935F3A"/>
</g>
<g clip-path="url(#clip6_2129_1709)">
<path d="M483.844 330.336C485.054 330.245 489.664 330.331 494.561 330.933C499.715 331.566 503.307 332.487 505.104 332.948" stroke="#6DA442" stroke-width="2.14199" stroke-linecap="round"/>
<path d="M479.577 365.064C480.729 365.445 485.224 366.477 490.12 367.079C495.274 367.712 498.983 367.688 500.837 367.676" stroke="#6DA442" stroke-width="2.14199" stroke-linecap="round"/>
<path d="M482.123 332.629C482.249 331.606 483.084 330.83 484.115 330.842C486.001 330.865 489.414 331.014 494.474 331.636C499.534 332.258 502.882 332.939 504.718 333.374C505.721 333.611 506.343 334.567 506.218 335.59L502.562 365.34C502.435 366.375 501.581 367.159 500.538 367.144C498.596 367.115 495.111 366.963 490.207 366.361C485.303 365.758 481.886 365.062 479.995 364.62C478.979 364.382 478.34 363.415 478.467 362.379L482.123 332.629Z" fill="#AFD157"/>
<mask id="mask0_2129_1709" style="mask-type:alpha" maskUnits="userSpaceOnUse" x="478" y="330" width="29" height="38">
<path d="M482.124 332.628C482.25 331.605 483.085 330.829 484.116 330.841C486.002 330.864 489.416 331.013 494.475 331.635C499.535 332.257 502.884 332.938 504.719 333.373C505.722 333.61 506.345 334.566 506.219 335.589L502.563 365.339C502.436 366.375 501.582 367.158 500.539 367.143C498.597 367.114 495.113 366.962 490.209 366.36C485.305 365.757 481.887 365.061 479.996 364.619C478.98 364.381 478.342 363.414 478.469 362.378L482.124 332.628Z" fill="#AFD157"/>
</mask>
<g mask="url(#mask0_2129_1709)">
<path d="M494.002 358.916C499.709 356.38 502.77 337.333 502.795 328.344L509.969 328.506L509.263 372.301L475.782 369.626C474.193 364.994 472.647 357.083 476.69 359.306C481.744 362.085 490.355 360.537 494.002 358.916Z" fill="#A0C248"/>
</g>
<path d="M485.272 336.261L483.444 351.143" stroke="#C4E0AE" stroke-width="2.14199" stroke-linecap="round"/>
<path d="M483.009 354.691L482.748 356.817" stroke="#C4E0AE" stroke-width="2.14199" stroke-linecap="round"/>
<circle cx="497.059" cy="360.378" r="3.92698" transform="rotate(7.00501 497.059 360.378)" fill="#CCF2C2"/>
<path d="M493.87 359.985C494.086 358.224 495.689 356.972 497.451 357.188" stroke="white" stroke-width="0.571197" stroke-linecap="round" stroke-dasharray="0.71 0.71 1.43 1.43"/>
<circle cx="493.764" cy="352.049" r="2.49899" transform="rotate(7.00501 493.764 352.049)" fill="#CCF2C2"/>
<path d="M491.994 351.835C492.114 350.856 493.005 350.16 493.984 350.281" stroke="white" stroke-width="0.428398" stroke-linecap="round" stroke-dasharray="0.71 1.07 1.43 1.43"/>
<circle cx="500.666" cy="348.585" r="1.78499" transform="rotate(7.00501 500.666 348.585)" fill="#CCF2C2"/>
<path d="M499.602 348.457C499.674 347.87 500.208 347.453 500.795 347.525" stroke="white" stroke-width="0.285599" stroke-linecap="round" stroke-dasharray="0.71 1.43 1.43 1.43"/>
<path d="M493.671 349.887L494.38 349.974L494.293 350.683L493.895 350.993L493.23 350.552L493.671 349.887Z" fill="#CCF2C2"/>
<path d="M500.484 347.128L501.193 347.215L501.106 347.924L500.354 348.191L500.441 347.483L500.484 347.128Z" fill="#CCF2C2"/>
<path d="M497.14 356.789L497.849 356.876L497.718 357.939L496.966 358.206L496.388 357.056L497.14 356.789Z" fill="#CCF2C2"/>
</g>
<path d="M501.539 376.022C509.677 384.849 532.036 374.816 540.496 367.247C545.313 362.939 544.925 356.238 540.546 353.827C532.265 349.269 520.042 351.131 509.794 350.112C497.975 348.936 485.905 359.063 501.539 376.022Z" fill="#DBDEE3"/>
<path d="M430.713 358.46C432.248 349.721 442.401 345.652 453.275 347.563C464.15 349.473 471.629 356.64 470.094 365.378C468.558 374.117 458.59 381.118 447.716 379.208C436.841 377.297 429.178 367.198 430.713 358.46Z" fill="#DBDEE3"/>
</g>
<g clip-path="url(#clip7_2129_1709)">
<path d="M154.99 452.889C160.111 450.795 165.097 422.897 164.086 409.008L114.899 416.858C113.888 428.13 113.821 451.118 116.246 452.889C119.278 455.103 148.589 455.506 154.99 452.889Z" fill="#FFC532"/>
<path d="M188.806 380.701C171.056 385.747 145.514 368.594 134.961 359.387C134.555 357.857 134.167 354.029 135.871 350.955C138.002 347.112 182.15 348.89 192.202 351.132C202.254 353.374 210.993 374.393 188.806 380.701Z" fill="#FFC532"/>
<path d="M158.834 421.989C174.143 411.809 153.449 348.306 138.496 340.307C123.543 332.309 99.2236 333.52 88.543 340.307C77.8624 347.094 51.4691 411.567 66.7777 421.989C82.0864 432.411 143.525 432.169 158.834 421.989Z" fill="#FFDB40"/>
<path d="M31.8126 388.279C31.9022 387.895 32.2861 387.656 32.6701 387.746L74.4115 397.478C74.5346 397.507 74.6479 397.567 74.7398 397.654L80.0232 402.647C80.4206 403.023 80.2656 403.687 79.7431 403.848L72.7963 405.99C72.6755 406.027 72.547 406.032 72.4239 406.003L30.6825 396.271C30.2984 396.181 30.0597 395.797 30.1492 395.413L31.8126 388.279Z" fill="#FFB132"/>
<path d="M71.3451 452.889C66.2243 450.795 61.2381 422.897 62.2488 409.008L111.436 416.858C112.447 428.13 112.514 451.118 110.089 452.889C107.057 455.103 77.7462 455.506 71.3451 452.889Z" fill="#FFDB40"/>
<path d="M35.7822 384.598C39.2773 366.479 66.1011 351.409 79.0761 346.138C80.6251 346.465 84.2173 347.844 86.1932 350.751C88.6632 354.385 67.1789 392.994 60.6473 400.956C54.1156 408.919 31.4134 407.247 35.7822 384.598Z" fill="#FFDB40"/>
<path d="M116.787 412.581C116.934 412.582 117.08 412.554 117.215 412.499C117.351 412.444 117.475 412.363 117.579 412.26L122.538 407.271C122.721 407.059 122.816 406.786 122.806 406.507C122.795 406.228 122.678 405.964 122.48 405.766C122.281 405.569 122.015 405.453 121.735 405.442C121.454 405.431 121.18 405.526 120.967 405.708L115.996 410.641C115.892 410.744 115.809 410.867 115.752 411.002C115.696 411.137 115.666 411.282 115.666 411.428C115.666 411.575 115.696 411.72 115.752 411.855C115.809 411.99 115.892 412.112 115.996 412.215C116.096 412.326 116.218 412.416 116.354 412.479C116.49 412.542 116.638 412.576 116.787 412.581Z" fill="#FFBB4D"/>
<path d="M121.694 412.581C121.84 412.582 121.984 412.554 122.119 412.499C122.253 412.444 122.376 412.363 122.479 412.261C122.583 412.158 122.665 412.035 122.721 411.901C122.777 411.766 122.806 411.621 122.806 411.475C122.806 411.329 122.777 411.185 122.721 411.05C122.665 410.915 122.583 410.793 122.479 410.69L117.558 405.769C117.456 405.665 117.333 405.583 117.198 405.526C117.064 405.47 116.919 405.441 116.773 405.441C116.627 405.441 116.483 405.47 116.348 405.526C116.213 405.583 116.091 405.665 115.988 405.769C115.782 405.976 115.666 406.256 115.666 406.548C115.666 406.84 115.782 407.121 115.988 407.328L120.92 412.261C121.126 412.465 121.404 412.58 121.694 412.581Z" fill="#FFBB4D"/>
<path d="M199.204 302.266C199.204 339.53 158.341 351.887 108.677 351.887C59.0121 351.887 17.8488 339.53 17.8488 302.266C17.8488 238.726 59.0121 216.941 108.677 216.941C158.341 216.941 199.204 235.701 199.204 302.266Z" fill="#FFDB40"/>
<path d="M49.9787 320.475H60.6886" stroke="#FFA052" stroke-width="14.2799" stroke-linecap="round"/>
<path d="M168.502 320.475H179.211" stroke="#FFA052" stroke-width="14.2799" stroke-linecap="round"/>
<path d="M71.3986 294.767V306.191" stroke="#123041" stroke-width="10.7099" stroke-linecap="round"/>
<path d="M157.792 294.767V306.191" stroke="#123041" stroke-width="10.7099" stroke-linecap="round"/>
<path d="M132.802 311.191C132.802 317.697 124.65 320.473 114.595 320.473C104.54 320.473 96.3881 317.697 96.3881 311.191C96.3881 304.684 104.54 296.911 114.595 296.911C124.65 296.911 132.802 304.684 132.802 311.191Z" fill="#FFB132"/>
<path d="M95.1453 192.117C105.976 201.721 112.199 212.493 114.04 222.297L94.9787 220.265C87.1301 219.428 79.6118 210.176 79.9587 198.947C80.3057 187.718 89.6373 187.232 95.1453 192.117Z" fill="#FFDB40"/>
<path d="M115.037 207.277C111.665 210.569 110.812 217.745 110.808 220.922C117.34 220.318 128.302 218.309 130.268 214.126C132.234 209.943 131.007 204.742 128.614 203.502C126.221 202.262 119.252 203.161 115.037 207.277Z" fill="#FFDB40"/>
<path d="M222.053 335.114C215.271 331.901 208.131 335.114 203.133 334.043C200.286 333.433 196.707 334.043 190.638 331.187C189.924 344.039 188.496 347.252 188.496 350.822C188.496 357.056 189.21 363.674 188.496 370.457C192.066 371.885 195.359 372.242 199.92 372.242C206.235 372.242 213.486 370.457 222.053 371.528C222.053 360.461 220.626 361.553 220.625 354.035C220.625 346.398 222.053 343.325 222.053 335.114Z" fill="#FFE8AD"/>
</g>
</g>
<defs>
<filter id="filter0_d_2129_1709" x="466.18" y="359.367" width="19.3237" height="12.1066" filterUnits="userSpaceOnUse" color-interpolation-filters="sRGB">
<feFlood flood-opacity="0" result="BackgroundImageFix"/>
<feColorMatrix in="SourceAlpha" type="matrix" values="0 0 0 0 0 0 0 0 0 0 0 0 0 0 0 0 0 0 127 0" result="hardAlpha"/>
<feOffset dx="0.713996" dy="0.713996"/>
<feComposite in2="hardAlpha" operator="out"/>
<feColorMatrix type="matrix" values="0 0 0 0 0.822493 0 0 0 0 0.503639 0 0 0 0 0.129331 0 0 0 1 0"/>
<feBlend mode="normal" in2="BackgroundImageFix" result="effect1_dropShadow_2129_1709"/>
<feBlend mode="normal" in="SourceGraphic" in2="effect1_dropShadow_2129_1709" result="shape"/>
</filter>
<filter id="filter1_d_2129_1709" x="471.735" y="349.4" width="11.3024" height="15.7423" filterUnits="userSpaceOnUse" color-interpolation-filters="sRGB">
<feFlood flood-opacity="0" result="BackgroundImageFix"/>
<feColorMatrix in="SourceAlpha" type="matrix" values="0 0 0 0 0 0 0 0 0 0 0 0 0 0 0 0 0 0 127 0" result="hardAlpha"/>
<feOffset dx="0.713997" dy="0.713997"/>
<feComposite in2="hardAlpha" operator="out"/>
<feColorMatrix type="matrix" values="0 0 0 0 0.822493 0 0 0 0 0.503639 0 0 0 0 0.129331 0 0 0 1 0"/>
<feBlend mode="normal" in2="BackgroundImageFix" result="effect1_dropShadow_2129_1709"/>
<feBlend mode="normal" in="SourceGraphic" in2="effect1_dropShadow_2129_1709" result="shape"/>
</filter>
<filter id="filter2_d_2129_1709" x="455.861" y="347.658" width="15.8821" height="10.6149" filterUnits="userSpaceOnUse" color-interpolation-filters="sRGB">
<feFlood flood-opacity="0" result="BackgroundImageFix"/>
<feColorMatrix in="SourceAlpha" type="matrix" values="0 0 0 0 0 0 0 0 0 0 0 0 0 0 0 0 0 0 127 0" result="hardAlpha"/>
<feOffset dx="0.713996" dy="0.713996"/>
<feComposite in2="hardAlpha" operator="out"/>
<feColorMatrix type="matrix" values="0 0 0 0 0.822493 0 0 0 0 0.503639 0 0 0 0 0.129331 0 0 0 1 0"/>
<feBlend mode="normal" in2="BackgroundImageFix" result="effect1_dropShadow_2129_1709"/>
<feBlend mode="normal" in="SourceGraphic" in2="effect1_dropShadow_2129_1709" result="shape"/>
</filter>
<linearGradient id="paint0_linear_2129_1709" x1="258.437" y1="316.3" x2="314.724" y2="394.63" gradientUnits="userSpaceOnUse">
<stop offset="0.25" stop-color="#96FFFF" stop-opacity="0"/>
<stop offset="1" stop-color="#96FFFF" stop-opacity="0.5"/>
</linearGradient>
<clipPath id="clip0_2129_1709">
<rect width="611" height="486" fill="white"/>
</clipPath>
<clipPath id="clip1_2129_1709">
<rect width="200.633" height="263.465" fill="white" transform="translate(191.352 87)"/>
</clipPath>
<clipPath id="clip2_2129_1709">
<rect width="224.909" height="237.047" fill="white" transform="translate(181.356 218.371)"/>
</clipPath>
<clipPath id="clip3_2129_1709">
<rect width="232.763" height="314.872" fill="white" transform="matrix(-1 0 0 1 610.466 139.84)"/>
</clipPath>
<clipPath id="clip4_2129_1709">
<rect width="43.5538" height="58.5477" fill="white" transform="translate(437.68 341.843) rotate(-32.6653)"/>
</clipPath>
<clipPath id="clip5_2129_1709">
<rect width="19.9919" height="47.1238" fill="white" transform="translate(516.946 328.407) rotate(42.7435)"/>
</clipPath>
<clipPath id="clip6_2129_1709">
<rect width="31.4158" height="43.5538" fill="white" transform="translate(479.406 325.477) rotate(7.00501)"/>
</clipPath>
<clipPath id="clip7_2129_1709">
<rect width="247.043" height="277.031" fill="white" transform="translate(0 177.672)"/>
</clipPath>
</defs>
</svg>
