<svg width="390" height="162" viewBox="0 0 390 162" fill="none" xmlns="http://www.w3.org/2000/svg">
<path d="M-249 123.501C-249 110.522 -259.521 100.001 -272.5 100.001L-771 100.001C-793.091 100.001 -811 82.0926 -811 60.0012L-811 16.0012C-811 -6.09019 -793.091 -23.9988 -771 -23.9988L-291 -23.9989C-268.909 -23.9989 -251 -41.9075 -251 -63.9989L-251 -98.3045C-251 -105.76 -244.956 -111.805 -237.5 -111.805C-230.044 -111.805 -224 -105.76 -224 -98.3045L-224 -91.1678C-224 -79.7705 -214.761 -70.5311 -203.363 -70.5311L-131.046 -70.5311C-122.736 -70.5311 -116 -63.7946 -116 -55.4847C-116 -47.1748 -109.264 -40.4383 -100.954 -40.4383L-59 -40.4383C-36.9086 -40.4383 -19 -58.3469 -19 -80.4383L-19 -116.499C-19 -123.402 -13.4036 -128.999 -6.50002 -128.999C0.40354 -128.999 5.99998 -123.402 5.99998 -116.499L5.99998 -93.7459C5.99998 -74.2763 21.7833 -58.493 41.2529 -58.493L164.673 -58.493C172.033 -58.493 178 -64.4598 178 -71.8202C178 -79.1806 183.967 -85.1473 191.327 -85.1473L455.523 -85.1474C464.071 -85.1474 471 -92.0764 471 -100.624L471 -103.6C471 -110.504 476.596 -116.1 483.5 -116.1C490.404 -116.1 496 -110.504 496 -103.6L496 -93.3153C496 -80.7314 506.201 -70.5302 518.785 -70.5302L607.625 -70.5302C623.296 -70.5302 636 -83.2341 636 -98.9052L636 -114.78C636 -121.684 641.596 -127.28 648.5 -127.28C655.404 -127.28 661 -121.684 661 -114.78L661 -92.0282C661 -72.5591 676.783 -56.7763 696.252 -56.7763L715.664 -56.7763C724.686 -56.7763 732 -64.0904 732 -73.1127C732 -82.1351 739.314 -89.4491 748.336 -89.4491L887.374 -89.4492C897.109 -89.4492 905 -81.5577 905 -71.8232C905 -62.0886 912.891 -54.1972 922.626 -54.1972L1015.6 -54.1972C1036.25 -54.1972 1053 -70.9424 1053 -91.5986L1053 -116.5C1053 -123.404 1058.6 -129 1065.5 -129C1072.4 -129 1078 -123.404 1078 -116.5L1078 -75.999C1078 -53.9076 1095.91 -35.999 1118 -35.999L1629 -35.999C1651.09 -35.999 1669 -18.0904 1669 4.00098L1669 86.001C1669 108.092 1651.09 126.001 1629 126.001L1030.91 126.001C1014.39 126.001 1001 112.609 1001 96.0889C1001 79.5689 987.608 66.1768 971.088 66.1768L923.916 66.1768C913.469 66.1768 905 74.6458 905 85.0928C905 95.5399 896.531 104.009 886.084 104.009L762.953 104.009C745.858 104.009 732 90.1507 732 73.0557C732 55.9608 718.142 42.1026 701.047 42.1026L651.494 42.1026C639.623 42.1026 630 32.4794 630 20.6085C630 8.73761 620.377 -0.885651 608.506 -0.885649L241.393 -0.885617C222.398 -0.885616 207 14.5125 207 33.507C207 52.5015 191.602 67.8995 172.607 67.8995L129.766 67.8995C120.506 67.8995 113 75.4058 113 84.6652C113 93.9246 105.494 101.431 96.2344 101.431L-93.2148 101.431C-105.799 101.431 -116 111.632 -116 124.216C-116 136.8 -126.201 147.001 -138.785 147.001L-225.5 147.001C-238.479 147.001 -249 136.48 -249 123.501Z" fill="#AFD157"/>
<path d="M178 73.001L168 73.001C145.909 73.001 128 55.0924 128 33.001L128 23.001L138 23.001C160.091 23.001 178 40.9096 178 63.001L178 73.001Z" fill="#7BAD34"/>
<path d="M78 73.001L88 73.001C110.091 73.001 128 55.0924 128 33.001L128 23.001L118 23.001C95.9086 23.001 78 40.9096 78 63.001L78 73.001Z" fill="#7BAD34"/>
<path d="M188 162.001L178 162.001C155.909 162.001 138 144.092 138 122.001L138 112.001L148 112.001C170.091 112.001 188 129.91 188 152.001L188 162.001Z" fill="#AFD157"/>
<path d="M232.921 119.427C228.296 114.802 227.332 107.903 230.028 102.329C230.13 102.118 229.891 101.88 229.681 101.982C224.107 104.677 217.208 103.712 212.583 99.0874C206.739 93.2431 206.739 83.7668 212.583 77.9225C217.208 73.2975 224.107 72.3341 229.681 75.0296C229.891 75.1315 230.129 74.8933 230.027 74.6826C227.331 69.1084 228.296 62.2083 232.921 57.5828C238.765 51.7389 248.24 51.7389 254.085 57.5828C258.71 62.2085 259.675 69.1087 256.978 74.683C256.876 74.8938 257.114 75.132 257.325 75.03C262.899 72.3338 269.798 73.2977 274.424 77.9232C280.268 83.7675 280.268 93.2424 274.424 99.0867C269.798 103.712 262.899 104.677 257.325 101.981C257.114 101.879 256.876 102.117 256.978 102.328C259.674 107.902 258.71 114.802 254.085 119.427C248.24 125.271 238.765 125.271 232.921 119.427Z" fill="#FFC53D"/>
<circle cx="243.506" cy="88.229" r="6.21932" transform="rotate(-135 243.506 88.229)" fill="#E98B2D"/>
</svg>
