<svg width="518" height="276" viewBox="0 0 518 276" fill="none" xmlns="http://www.w3.org/2000/svg">
<g clip-path="url(#clip0_2486_79)">
<path d="M202.562 65.5108C217.861 74.5645 213.135 79.0783 209.182 85.7572C205.229 92.4362 203.236 98.5675 188.248 89.6975C180.64 85.1947 177.676 76.1301 181.629 69.4511C185.581 62.7721 194.953 61.008 202.562 65.5108Z" fill="white"/>
<path d="M224.987 67.0588C224.987 75.4914 222.045 75.5414 218.417 75.5414C214.789 75.5414 211.848 75.4914 211.848 67.0588C211.848 58.6261 215.874 51.79 218.417 51.79C220.96 51.79 224.987 58.6261 224.987 67.0588Z" fill="#6A5B3D"/>
<path d="M304.326 67.0588C304.326 75.4914 301.385 75.5414 297.757 75.5414C294.128 75.5414 291.187 75.4914 291.187 67.0588C291.187 58.6261 295.213 51.79 297.757 51.79C300.3 51.79 304.326 58.6261 304.326 67.0588Z" fill="#6A5B3D"/>
<path d="M315.056 65.5108C299.757 74.5645 304.483 79.0783 308.436 85.7572C312.388 92.4362 314.381 98.5675 329.369 89.6975C336.978 85.1947 339.942 76.1301 335.989 69.4511C332.037 62.7721 322.664 61.008 315.056 65.5108Z" fill="#123041"/>
<path d="M318.831 73.2295C311.206 77.742 313.18 79.3474 314.68 81.8815C316.18 84.4156 316.792 86.8272 324.262 82.4063C328.054 80.1621 329.913 76.2885 328.413 73.7544C326.913 71.2203 322.623 70.9853 318.831 73.2295Z" fill="#FFCACA"/>
<path d="M198.333 73.2295C205.958 77.742 203.984 79.3474 202.484 81.8815C200.984 84.4156 200.372 86.8272 192.902 82.4063C189.11 80.1621 187.251 76.2885 188.751 73.7544C190.251 71.2203 194.541 70.9853 198.333 73.2295Z" fill="#FFCACA"/>
<path d="M310.894 178.74C311.118 165.681 294.74 151.328 286.524 145.785C285.403 145.785 282.714 146.216 280.921 147.941C278.68 150.097 287.924 179.972 291.286 186.439C294.647 192.907 310.614 195.063 310.894 178.74Z" fill="#E7EAEE"/>
<path d="M287.688 222.324C291.312 220.842 294.842 201.096 294.126 191.266L259.313 196.822C258.597 204.8 258.55 221.07 260.266 222.324C262.413 223.891 283.158 224.176 287.688 222.324Z" fill="#E7EAEE"/>
<path d="M290.409 200.453C301.244 193.248 286.597 148.302 276.014 142.641C265.431 136.98 248.218 137.837 240.659 142.641C233.099 147.444 214.419 193.076 225.254 200.453C236.089 207.829 279.574 207.658 290.409 200.453Z" fill="white"/>
<path fill-rule="evenodd" clip-rule="evenodd" d="M226.15 170.31C228.901 171.513 231.282 173.354 232.315 176.107C234.74 182.575 243.096 185.371 246.97 185.96C247.012 185.975 256.649 189.384 259.604 194.552C261.453 197.787 261.539 203.211 261.454 205.871C246.735 206.247 231.154 204.469 225.254 200.453C219.799 196.738 221.827 183.326 226.15 170.31Z" fill="#123041"/>
<path d="M228.486 222.324C224.861 220.842 221.332 201.096 222.048 191.266L256.861 196.822C257.577 204.8 257.624 221.07 255.907 222.324C253.761 223.891 233.016 224.176 228.486 222.324Z" fill="#123041"/>
<path d="M286.639 184.149C286.639 197.63 275.1 200.868 260.866 200.868C246.633 200.868 235.094 197.63 235.094 184.149C235.094 166.428 246.633 156.397 260.866 156.397C275.1 156.397 286.639 166.428 286.639 184.149Z" fill="#FFC0C1"/>
<path d="M260.649 196.32C260.753 196.32 260.856 196.3 260.952 196.261C261.048 196.222 261.135 196.165 261.209 196.092L264.719 192.561C264.849 192.411 264.916 192.218 264.909 192.02C264.901 191.823 264.819 191.636 264.678 191.496C264.538 191.356 264.349 191.274 264.151 191.267C263.952 191.259 263.758 191.326 263.607 191.455L260.089 194.946C260.015 195.019 259.956 195.106 259.916 195.202C259.876 195.297 259.856 195.4 259.856 195.504C259.856 195.607 259.876 195.71 259.916 195.805C259.956 195.901 260.015 195.988 260.089 196.061C260.16 196.139 260.246 196.202 260.343 196.247C260.439 196.291 260.543 196.316 260.649 196.32Z" fill="#FF8D8D"/>
<path d="M264.122 196.32C264.225 196.32 264.327 196.3 264.422 196.261C264.518 196.223 264.605 196.165 264.678 196.093C264.751 196.02 264.809 195.933 264.849 195.838C264.889 195.742 264.909 195.64 264.909 195.537C264.909 195.433 264.889 195.331 264.849 195.236C264.809 195.14 264.751 195.054 264.678 194.981L261.195 191.498C261.122 191.424 261.035 191.366 260.94 191.326C260.845 191.287 260.742 191.266 260.639 191.266C260.536 191.266 260.433 191.287 260.338 191.326C260.243 191.366 260.156 191.424 260.083 191.498C259.938 191.644 259.856 191.843 259.856 192.05C259.856 192.256 259.938 192.455 260.083 192.601L263.574 196.093C263.72 196.237 263.917 196.319 264.122 196.32Z" fill="#FF8D8D"/>
<path d="M297.251 152.354C292.804 148.514 287.818 146.374 285.881 145.785L282.596 147.806L284.618 161.703L292.198 175.853C292.787 173.916 296.493 170.294 298.262 168.525C301.041 165.746 304.326 164.23 307.106 162.966C305.674 161.029 301.698 156.195 297.251 152.354Z" fill="#7FC7C5"/>
<path d="M307.106 162.967C304.326 164.23 301.042 165.746 298.262 168.526C296.494 170.294 294.556 173.663 293.967 175.6" stroke="#DEDEDE" stroke-width="2.52674" stroke-linecap="round"/>
<path d="M222.207 206.427C221.197 199.352 221.786 194.046 222.207 192.277L294.219 191.266C294.556 193.035 295.129 197.431 294.724 200.868C294.32 204.304 292.198 213.838 291.187 217.797C288.66 218.808 281.838 219.818 276.532 219.818C269.71 219.818 259.35 219.06 259.097 218.808C258.845 218.555 258.592 206.679 258.087 206.679C257.581 206.679 257.581 218.302 257.329 218.808C257.076 219.313 246.969 219.818 241.41 219.818C236.963 219.818 228.777 219.144 225.239 218.808C224.65 217.628 223.218 213.501 222.207 206.427Z" fill="#9EE7E5"/>
<path d="M225.239 218.808C228.777 219.144 236.963 219.818 241.41 219.818C246.969 219.818 256.571 219.313 256.823 218.808M259.856 218.808C260.108 219.06 270.468 219.818 277.29 219.818C282.596 219.818 288.913 218.808 291.44 217.797" stroke="#EEEEEE" stroke-width="2.52674" stroke-linecap="round"/>
<path d="M239.894 200.615C231.202 200.009 224.987 197.583 221.196 195.056C221.196 190.256 221.954 178.582 222.965 171.305C223.976 164.028 226.924 152.102 228.777 146.038C231.388 148.564 238.025 154.376 243.684 157.408C249.344 160.44 258.003 162.377 261.624 162.967V200.615C258.003 200.868 248.586 201.222 239.894 200.615Z" fill="#9EE7E5"/>
<path d="M221.197 195.056C224.987 197.583 231.203 200.009 239.895 200.615C248.587 201.221 258.003 200.868 261.625 200.615" stroke="#EEEEEE" stroke-width="4.04278" stroke-linecap="round" stroke-linejoin="round"/>
<path d="M277.543 155.892C274.511 157.913 260.867 164.398 256.824 165.999L257.834 200.615C261.54 200.362 274.359 199.604 279.817 198.593C285.275 197.583 291.608 195.646 294.219 194.803C294.641 193.119 295.878 188.84 294.977 182.422C292.956 168.02 287.06 158.166 283.354 150.08C282.681 151.175 280.575 153.87 277.543 155.892Z" fill="#9EE7E5"/>
<path d="M262.13 163.219C266.173 161.619 272.449 158.705 275.269 156.397C278.048 154.123 281.67 151.428 282.344 150.333M294.219 194.804C291.609 195.646 285.275 197.583 279.817 198.594C274.359 199.604 261.035 200.615 257.329 200.868" stroke="#EEEEEE" stroke-width="4.04278" stroke-linecap="round" stroke-linejoin="round"/>
<path d="M206.796 178.74C206.572 165.681 222.95 151.328 231.166 145.785C232.287 145.785 234.976 146.216 236.769 147.941C239.01 150.097 229.766 179.972 226.404 186.439C223.043 192.907 207.076 195.063 206.796 178.74Z" fill="white"/>
<path d="M220.186 169.79C215.335 166.353 209.658 167.094 208.058 167.516C213.532 161.115 223.291 145.031 233.072 150.08C240.905 154.124 233.999 170.885 229.788 179.897C228.777 177.201 225.037 173.226 220.186 169.79Z" fill="#9EE7E5"/>
<path d="M261.624 162.967C258.003 162.377 249.345 160.44 243.685 157.408C238.025 154.376 231.388 148.564 228.777 146.038" stroke="#EEEEEE" stroke-width="4.04278" stroke-linecap="round" stroke-linejoin="round"/>
<path d="M209.321 167.393C210.772 166.959 215.921 166.195 220.321 169.735C224.721 173.276 228.113 177.372 229.029 180.148" stroke="#EEEEEE" stroke-width="2.52674" stroke-linecap="round" stroke-linejoin="round"/>
<path d="M322.014 117.739C322.014 144.114 293.092 152.86 257.941 152.86C222.79 152.86 193.655 144.114 193.655 117.739C193.655 72.7679 222.79 57.3491 257.941 57.3491C293.092 57.3491 322.014 70.6264 322.014 117.739Z" fill="white"/>
<path d="M262.409 57.4238C292.875 58.4561 317.751 70.4754 321.518 107.549C304.558 108.927 301.568 96.024 296.098 90.9746C290.531 85.8356 278.968 88.6192 269.974 81.3389C264.461 76.8753 262.704 65.839 262.409 57.4238Z" fill="#123041"/>
<path d="M227.008 112.937V121.023" stroke="#123041" stroke-width="7.58021" stroke-linecap="round"/>
<path d="M294.725 112.937V121.023" stroke="#123041" stroke-width="7.58021" stroke-linecap="round"/>
<path d="M237.115 131.736C237.115 121.354 245.532 112.937 255.914 112.937H265.314C275.696 112.937 284.113 121.354 284.113 131.736C284.113 138.658 278.502 144.269 271.58 144.269H249.648C242.726 144.269 237.115 138.658 237.115 131.736Z" fill="#FFC0C1"/>
<path d="M250.759 127.087V132.646" stroke="#123041" stroke-width="5.05348" stroke-linecap="round"/>
<path d="M270.973 127.087L270.973 132.646" stroke="#123041" stroke-width="5.05348" stroke-linecap="round"/>
<path d="M211.848 132.646H219.428" stroke="#FFC0C1" stroke-width="10.107" stroke-linecap="round"/>
<path d="M302.305 132.646H309.885" stroke="#FFC0C1" stroke-width="10.107" stroke-linecap="round"/>
<circle cx="263.393" cy="172.568" r="2.02139" fill="white"/>
<circle cx="264.404" cy="193.288" r="2.02139" fill="white"/>
<circle cx="263.898" cy="181.664" r="2.02139" fill="white"/>
<circle cx="294.472" cy="116.725" r="10.865" fill="#337A37"/>
<circle cx="294.472" cy="116.725" r="9.85428" fill="#B3D875"/>
<circle cx="294.472" cy="116.725" r="8.84358" fill="#D9EC9C"/>
<path d="M289.699 118.631C290.87 118.631 292.918 117.62 293.503 117.115C292.918 116.609 290.87 115.599 289.699 115.599C288.822 115.599 287.944 115.851 287.944 117.115C287.944 118.378 288.822 118.631 289.699 118.631Z" fill="white"/>
<path d="M291.583 113.005C291.945 114.118 293.539 115.754 294.201 116.154C294.5 115.442 294.829 113.181 294.467 112.068C294.196 111.234 293.684 110.477 292.483 110.867C291.281 111.258 291.312 112.171 291.583 113.005Z" fill="white"/>
<path d="M297.517 113.062C296.57 113.75 295.507 115.771 295.331 116.524C296.101 116.589 298.352 116.203 299.299 115.515C300.009 114.999 300.571 114.279 299.828 113.257C299.086 112.235 298.227 112.546 297.517 113.062Z" fill="white"/>
<path d="M299.3 118.72C298.353 118.032 296.102 117.646 295.331 117.711C295.508 118.464 296.571 120.485 297.517 121.173C298.227 121.689 299.086 122.001 299.829 120.978C300.571 119.956 300.01 119.236 299.3 118.72Z" fill="white"/>
<path d="M294.468 122.165C294.829 121.052 294.501 118.792 294.201 118.079C293.54 118.48 291.946 120.115 291.584 121.228C291.313 122.063 291.282 122.976 292.483 123.366C293.685 123.756 294.197 123 294.468 122.165Z" fill="white"/>
<circle cx="227.261" cy="116.223" r="10.865" fill="#337A37"/>
<circle cx="227.261" cy="116.223" r="9.85428" fill="#B3D875"/>
<circle cx="227.261" cy="116.223" r="8.84358" fill="#D9EC9C"/>
<path d="M222.7 117.633C223.87 117.633 225.918 116.622 226.503 116.117C225.918 115.611 223.87 114.601 222.7 114.601C221.822 114.601 220.944 114.853 220.944 116.117C220.944 117.38 221.822 117.633 222.7 117.633Z" fill="white"/>
<path d="M224.584 112.007C224.946 113.12 226.54 114.756 227.201 115.156C227.501 114.444 227.829 112.183 227.468 111.07C227.196 110.236 226.685 109.479 225.483 109.869C224.282 110.26 224.313 111.173 224.584 112.007Z" fill="white"/>
<path d="M230.517 112.064C229.571 112.752 228.508 114.773 228.331 115.526C229.102 115.591 231.353 115.205 232.3 114.517C233.01 114.001 233.571 113.281 232.829 112.259C232.086 111.237 231.227 111.548 230.517 112.064Z" fill="white"/>
<path d="M232.3 117.722C231.353 117.034 229.102 116.648 228.332 116.713C228.508 117.466 229.571 119.487 230.518 120.175C231.228 120.691 232.087 121.002 232.829 119.98C233.572 118.958 233.01 118.238 232.3 117.722Z" fill="white"/>
<path d="M227.468 121.167C227.83 120.054 227.502 117.794 227.202 117.081C226.54 117.482 224.946 119.117 224.585 120.23C224.313 121.065 224.282 121.978 225.484 122.368C226.685 122.758 227.197 122.002 227.468 121.167Z" fill="white"/>
</g>
<path d="M398.062 48.7337C398.384 47.8631 399.616 47.8631 399.938 48.7337L403.972 59.6363C404.073 59.91 404.289 60.1258 404.563 60.2271L415.465 64.2614C416.336 64.5835 416.336 65.8149 415.465 66.1371L404.563 70.1714C404.289 70.2727 404.073 70.4885 403.972 70.7622L399.938 81.6647C399.616 82.5353 398.384 82.5353 398.062 81.6647L394.028 70.7622C393.927 70.4885 393.711 70.2727 393.437 70.1714L382.535 66.1371C381.664 65.8149 381.664 64.5835 382.535 64.2614L393.437 60.2271C393.711 60.1258 393.927 59.91 394.028 59.6363L398.062 48.7337Z" fill="white"/>
<path d="M370 65.1992L378 65.1992" stroke="white" stroke-width="2" stroke-linecap="round"/>
<path d="M364 65.1992L365 65.1992" stroke="white" stroke-width="2" stroke-linecap="round"/>
<path d="M420 65.1992L428 65.1992" stroke="white" stroke-width="2" stroke-linecap="round"/>
<path d="M433 65.1992L434 65.1992" stroke="white" stroke-width="2" stroke-linecap="round"/>
<path d="M399 36.1992L399 44.1992" stroke="white" stroke-width="2" stroke-linecap="round"/>
<path d="M399 30.1992L399 31.1992" stroke="white" stroke-width="2" stroke-linecap="round"/>
<path d="M399 87.1992L399 94.1992" stroke="white" stroke-width="2" stroke-linecap="round"/>
<path d="M399 99.1992L399 101.199" stroke="white" stroke-width="2" stroke-linecap="round"/>
<circle cx="398.773" cy="65.4336" r="21.3743" transform="rotate(-45 398.773 65.4336)" stroke="white" stroke-width="2" stroke-linecap="round" stroke-linejoin="round" stroke-dasharray="50 50"/>
<path d="M135.062 159.734C135.384 158.863 136.616 158.863 136.938 159.734L139.082 165.527C139.183 165.801 139.399 166.016 139.672 166.118L145.465 168.261C146.336 168.584 146.336 169.815 145.465 170.137L139.672 172.281C139.399 172.382 139.183 172.598 139.082 172.872L136.938 178.665C136.616 179.535 135.384 179.535 135.062 178.665L132.918 172.872C132.817 172.598 132.601 172.382 132.328 172.281L126.535 170.137C125.664 169.815 125.664 168.584 126.535 168.261L132.328 166.118C132.601 166.016 132.817 165.801 132.918 165.527L135.062 159.734Z" fill="white"/>
<path d="M142 169.199H152" stroke="white" stroke-width="2" stroke-linecap="round"/>
<path d="M120 169.199H128" stroke="white" stroke-width="2" stroke-linecap="round"/>
<path d="M136 175.199L136 185.199" stroke="white" stroke-width="2" stroke-linecap="round"/>
<path d="M136 153.199L136 163.199" stroke="white" stroke-width="2" stroke-linecap="round"/>
<ellipse cx="136.5" cy="168.699" rx="11.5" ry="11.5" transform="rotate(-90 136.5 168.699)" stroke="white" stroke-width="2" stroke-linecap="round" stroke-linejoin="round"/>
<path d="M437.34 129.486C438.221 129.486 438.935 130.2 438.935 131.081V137.282C438.935 138.163 438.221 138.877 437.34 138.877C436.459 138.877 435.745 138.163 435.745 137.282V131.081C435.745 130.2 436.459 129.486 437.34 129.486ZM433.796 126.119C434.677 126.119 435.391 126.833 435.391 127.714C435.39 128.594 434.676 129.309 433.796 129.309H427.595C426.714 129.309 426 128.594 426 127.714C426 126.833 426.714 126.119 427.595 126.119H433.796ZM447.085 126.119C447.966 126.119 448.679 126.833 448.68 127.714C448.68 128.595 447.966 129.309 447.085 129.309H440.884C440.003 129.309 439.289 128.595 439.289 127.714C439.289 126.833 440.003 126.119 440.884 126.119H447.085ZM437.34 116.199C438.22 116.199 438.935 116.913 438.935 117.794V123.995C438.935 124.876 438.22 125.59 437.34 125.59C436.459 125.59 435.745 124.876 435.745 123.995V117.794C435.745 116.913 436.459 116.199 437.34 116.199Z" fill="white"/>
<defs>
<clipPath id="clip0_2486_79">
<rect width="159.184" height="189" fill="white" transform="translate(179 43.1992)"/>
</clipPath>
</defs>
</svg>
