<svg width="518" height="276" viewBox="0 0 518 276" fill="none" xmlns="http://www.w3.org/2000/svg">
<g clip-path="url(#clip0_2486_252)">
<path d="M221.452 148.177C224.087 148.309 235.943 137.166 242.113 131.166C243.843 125.2 234.097 113.267 229.986 114.051C225.875 114.836 218.933 131.191 218.309 134.044C217.738 136.656 218.379 148.023 221.452 148.177Z" fill="#FFDB40"/>
<path d="M232.32 141.059C235.104 141.025 267.664 119.758 269.142 117.009C270.62 114.26 268.402 101.795 265.13 99.6504C261.859 97.5059 243.609 93.907 225.634 106.718C207.658 119.529 229.537 141.094 232.32 141.059Z" fill="#FFDB40"/>
<path d="M278.094 55.6328C256.471 55.6328 238.55 65.1174 238.55 92.781C238.55 95.8118 236.572 98.0788 237.552 102.489C241.478 120.147 260.38 114.385 277.963 114.385C295.546 114.385 314.579 120.147 318.505 102.489C319.485 98.0788 317.507 95.8118 317.507 92.781C317.507 63.8001 299.717 55.6328 278.094 55.6328Z" fill="#FFDB40"/>
<path d="M252.538 100.709C252.538 100.709 253.862 100.191 254.805 100.041C255.848 99.874 257.5 100.041 257.5 100.041" stroke="#FFA052" stroke-width="6.21715" stroke-linecap="round"/>
<path d="M306.01 100.039C306.01 100.039 307.518 99.8695 308.46 100.039C309.256 100.182 310.42 100.707 310.42 100.707" stroke="#FFA052" stroke-width="6.21715" stroke-linecap="round"/>
<path d="M288.597 96.6669C288.597 99.4996 285.048 100.708 280.671 100.708C276.293 100.708 272.744 99.4996 272.744 96.6669C272.744 93.8341 276.293 90.4497 280.671 90.4497C285.048 90.4497 288.597 93.8341 288.597 96.6669Z" fill="#FFB132"/>
<path d="M272.204 44.8227C276.919 49.0044 279.628 53.6942 280.43 57.9626L272.131 57.0777C268.714 56.7133 265.441 52.6855 265.592 47.7965C265.743 42.9075 269.806 42.6962 272.204 44.8227Z" fill="#FFDB40"/>
<path d="M220.347 106.08C222.815 108.048 224.292 110.322 224.804 112.436L220.631 112.21C218.913 112.117 217.17 110.189 217.118 107.74C217.066 105.291 219.092 105.079 220.347 106.08Z" fill="#FFDB40"/>
<path d="M217.054 110.638C219.319 110.736 221.139 111.431 222.331 112.441L219.813 114.076C218.776 114.75 216.949 114.367 215.882 112.968C214.815 111.568 215.902 110.588 217.054 110.638Z" fill="#FFDB40"/>
<path d="M280.864 51.4293C279.396 52.8628 279.025 55.9869 279.023 57.3698C281.867 57.1069 286.64 56.2325 287.495 54.4113C288.351 52.59 287.817 50.3257 286.775 49.786C285.734 49.2463 282.7 49.6373 280.864 51.4293Z" fill="#FFDB40"/>
<path d="M297.923 92.3145L300.409 92.9362" stroke="#123041" stroke-width="4.66286" stroke-linecap="round"/>
<path d="M265.283 92.3145L262.796 92.9362" stroke="#123041" stroke-width="4.66286" stroke-linecap="round"/>
</g>
<path d="M170.407 205.03C173.347 207.97 198.991 207.48 212.548 206.99C220.878 201.845 222.103 177.59 216.468 174.16C210.833 170.73 185.423 182.509 181.677 185.185C178.247 187.635 166.977 201.6 170.407 205.03Z" fill="#E7EAEE"/>
<path d="M154.752 216.659C157.692 219.599 183.336 219.109 196.892 218.619C205.222 213.474 206.447 189.219 200.812 185.789C195.177 182.359 169.768 194.138 166.022 196.814C162.592 199.264 151.322 213.229 154.752 216.659Z" fill="white"/>
<path d="M191.417 217.834C195.12 220.188 256.422 220.188 260.742 217.834C265.062 215.48 272.879 197.118 270.411 191.468C267.942 185.818 246.959 165.337 212.194 166.749C177.428 168.162 187.714 215.48 191.417 217.834Z" fill="white"/>
<path d="M327.826 200.46C315.904 196.189 297.626 206.761 289.978 212.58C289.629 213.609 289.188 216.213 290.213 218.396C291.496 221.125 321.807 221.936 328.793 220.863C335.779 219.79 342.729 205.798 327.826 200.46Z" fill="#E7EAEE"/>
<path d="M303.25 99.5508C283.454 99.5508 282.099 121.437 283.895 132.381L293.205 129.686C297.452 136.137 309.032 147.032 321.38 138.996C336.815 128.951 327.995 99.5508 303.25 99.5508Z" fill="#EFEFEF"/>
<path d="M335.9 185.544C335.9 211.118 307.857 219.598 273.773 219.598C239.689 219.598 211.44 211.118 211.44 185.544C211.44 141.939 239.689 126.988 273.773 126.988C307.857 126.988 335.9 139.862 335.9 185.544Z" fill="white"/>
<path d="M306.01 184.809L309.929 185.789" stroke="#123041" stroke-width="7.35" stroke-linecap="round"/>
<path d="M254.56 184.809L250.64 185.789" stroke="#123041" stroke-width="7.35" stroke-linecap="round"/>
<path d="M235.94 197.059H243.29" stroke="#FFC0C1" stroke-width="9.8" stroke-linecap="round"/>
<path d="M317.28 197.059H324.63" stroke="#FFC0C1" stroke-width="9.8" stroke-linecap="round"/>
<path d="M278.281 178.93C279.243 178.93 279.684 179.331 280.285 179.732C280.886 179.331 281.327 178.93 282.289 178.93C283.491 178.93 284.189 180.19 283.891 180.934C283.491 181.937 282.021 182.939 280.285 183.34C278.548 182.939 277.079 181.937 276.678 180.934C276.381 180.19 277.079 178.93 278.281 178.93Z" fill="#FFC0C1"/>
<path d="M253.346 200.46C241.424 196.189 223.146 206.761 215.497 212.58C215.148 213.609 214.707 216.213 215.733 218.396C217.015 221.125 247.327 221.936 254.313 220.863C261.298 219.79 268.248 205.798 253.346 200.46Z" fill="#E7EAEE"/>
<circle cx="8.085" cy="8.085" r="8.085" transform="matrix(-1 0 0 1 205.712 158.348)" fill="white"/>
<mask id="mask0_2486_252" style="mask-type:alpha" maskUnits="userSpaceOnUse" x="211" y="126" width="125" height="94">
<path d="M335.9 185.545C335.9 211.119 307.857 219.599 273.773 219.599C239.689 219.599 211.44 211.119 211.44 185.545C211.44 141.94 239.689 126.989 273.773 126.989C307.857 126.989 335.9 139.863 335.9 185.545Z" fill="white"/>
</mask>
<g mask="url(#mask0_2486_252)">
<path d="M303.25 98.8145C298.157 98.8145 294.198 100.226 291.173 102.559C288.156 104.885 286.117 108.089 284.788 111.601C282.138 118.603 282.259 126.953 283.17 132.499L283.479 134.387L284.514 132.777L289.082 125.663C289.3 125.822 289.642 126.131 290.137 126.712C290.739 127.419 291.539 128.49 292.591 130.089C294.763 133.389 298.808 137.829 303.922 140.428C309.072 143.045 315.341 143.802 321.781 139.611C329.876 134.343 331.522 124.063 328.067 115.237C324.598 106.376 315.952 98.8145 303.25 98.8145Z" stroke="#DCDCDC" stroke-width="1.47"/>
<path d="M262.645 98.8145C257.621 98.8145 254.046 99.7198 251.572 101.339C249.072 102.975 247.776 105.287 247.214 107.91C246.659 110.507 246.819 113.42 247.212 116.324C247.603 119.204 248.251 122.23 248.69 124.904L248.714 125.056L248.798 125.186L251.984 130.085L251.986 130.089C254.158 133.389 258.203 137.829 263.317 140.428C268.467 143.045 274.736 143.802 281.176 139.611C289.271 134.343 290.917 124.063 287.462 115.237C283.993 106.376 275.347 98.8145 262.645 98.8145Z" stroke="#DCDCDC" stroke-width="1.47"/>
</g>
<path d="M303.25 99.5508C283.454 99.5508 282.099 121.437 283.895 132.381L288.615 125.031C288.615 125.031 288.958 123.234 293.205 129.686C297.452 136.137 309.032 147.032 321.38 138.996C336.815 128.951 327.995 99.5508 303.25 99.5508Z" fill="#E7EAEE"/>
<path d="M262.645 99.5508C242.849 99.5508 241.494 121.437 243.29 132.381L252.6 129.686C256.847 136.137 268.427 147.032 280.775 138.996C296.21 128.951 287.39 99.5508 262.645 99.5508Z" fill="white"/>
<path d="M247.065 124.858C240.083 120.883 241.11 114.779 242.846 109.282C243.197 108.689 244.268 107.401 245.743 106.993C247.586 106.483 254.917 113.087 257.287 116.893C259.656 120.7 255.792 129.826 247.065 124.858Z" fill="#FFDB40"/>
<defs>
<clipPath id="clip0_2486_252">
<rect width="149.45" height="128.38" fill="white" transform="matrix(-1 0 0 1 341.29 43.1992)"/>
</clipPath>
</defs>
</svg>
