<svg width="518" height="276" viewBox="0 0 518 276" fill="none" xmlns="http://www.w3.org/2000/svg">
<path d="M229.612 179.177C232.247 179.309 244.103 168.166 250.273 162.166C252.003 156.2 242.257 144.267 238.146 145.051C234.035 145.836 227.093 162.191 226.47 165.044C225.898 167.656 226.539 179.023 229.612 179.177Z" fill="#FFDB40"/>
<path d="M240.481 172.059C243.264 172.025 275.824 150.758 277.302 148.009C278.78 145.26 276.562 132.795 273.29 130.65C270.019 128.506 251.769 124.907 233.794 137.718C215.818 150.529 237.697 172.094 240.481 172.059Z" fill="#FFDB40"/>
<path d="M286.254 86.6328C264.631 86.6328 246.71 96.1174 246.71 123.781C246.71 126.812 244.732 129.079 245.712 133.489C249.638 151.147 268.54 145.385 286.123 145.385C303.706 145.385 322.739 151.147 326.665 133.489C327.645 129.079 325.667 126.812 325.667 123.781C325.667 94.8001 307.877 86.6328 286.254 86.6328Z" fill="#FFDB40"/>
<path d="M260.698 131.709C260.698 131.709 262.022 131.191 262.965 131.041C264.009 130.874 265.66 131.041 265.66 131.041" stroke="#FFA052" stroke-width="6.21715" stroke-linecap="round"/>
<path d="M314.17 131.039C314.17 131.039 315.678 130.869 316.62 131.039C317.416 131.182 318.58 131.707 318.58 131.707" stroke="#FFA052" stroke-width="6.21715" stroke-linecap="round"/>
<path d="M296.758 127.667C296.758 130.5 293.209 131.708 288.831 131.708C284.453 131.708 280.904 130.5 280.904 127.667C280.904 124.834 284.453 121.45 288.831 121.45C293.209 121.45 296.758 124.834 296.758 127.667Z" fill="#FFB132"/>
<path d="M280.364 75.8227C285.079 80.0044 287.788 84.6942 288.59 88.9626L280.291 88.0777C276.874 87.7133 273.601 83.6855 273.752 78.7965C273.903 73.9075 277.966 73.6962 280.364 75.8227Z" fill="#FFDB40"/>
<path d="M228.507 137.08C230.975 139.048 232.452 141.322 232.965 143.436L228.791 143.21C227.073 143.117 225.331 141.189 225.278 138.74C225.226 136.291 227.252 136.079 228.507 137.08Z" fill="#FFDB40"/>
<path d="M225.214 141.638C227.479 141.736 229.3 142.431 230.491 143.441L227.973 145.076C226.936 145.75 225.109 145.367 224.042 143.968C222.976 142.568 224.062 141.588 225.214 141.638Z" fill="#FFDB40"/>
<path d="M289.025 82.4293C287.556 83.8628 287.185 86.9869 287.183 88.3698C290.027 88.1069 294.8 87.2325 295.656 85.4113C296.511 83.59 295.978 81.3257 294.936 80.786C293.894 80.2463 290.86 80.6373 289.025 82.4293Z" fill="#FFDB40"/>
<path d="M306.083 123.314L308.57 123.936" stroke="#123041" stroke-width="4.66286" stroke-linecap="round"/>
<path d="M273.443 123.314L270.956 123.936" stroke="#123041" stroke-width="4.66286" stroke-linecap="round"/>
<g clip-path="url(#clip0_2486_334)">
<path d="M191.276 213.6C194.116 216.441 218.893 215.967 231.991 215.494C240.039 210.523 241.223 187.088 235.778 183.774C230.334 180.46 205.784 191.841 202.165 194.426C198.851 196.794 187.962 210.286 191.276 213.6Z" fill="#5C9A15"/>
<path d="M176.15 224.837C178.99 227.678 203.767 227.204 216.865 226.731C224.913 221.76 226.097 198.325 220.652 195.011C215.208 191.697 190.658 203.078 187.039 205.663C183.725 208.03 172.836 221.523 176.15 224.837Z" fill="#5BB42B"/>
<path d="M211.574 225.969C215.152 228.244 274.381 228.244 278.555 225.969C282.729 223.694 290.282 205.953 287.897 200.494C285.512 195.035 265.239 175.247 231.649 176.612C198.059 177.976 207.997 223.694 211.574 225.969Z" fill="#5BB42B"/>
<path d="M344.938 209.184C333.419 205.058 315.759 215.272 308.369 220.895C308.032 221.889 307.606 224.405 308.597 226.514C309.836 229.151 339.123 229.934 345.872 228.897C352.622 227.86 359.337 214.342 344.938 209.184Z" fill="#5C9A15"/>
<ellipse cx="251.707" cy="161.437" rx="18.9238" ry="20.3928" transform="rotate(-28.6896 251.707 161.437)" fill="#5BB42B"/>
<ellipse cx="18.9238" cy="20.3928" rx="18.9238" ry="20.3928" transform="matrix(-0.877234 -0.480064 -0.480064 0.877234 360.314 152.105)" fill="#5BB42B"/>
<path d="M354.089 194.191C354.089 219.161 326.568 227.441 293.118 227.441C259.668 227.441 231.944 219.161 231.944 194.191C231.944 158.321 259.668 142.934 293.118 142.934C326.568 142.934 354.089 155.48 354.089 194.191Z" fill="#5BB42B"/>
<path d="M244.727 185.541H252.775" stroke="#A1DC3C" stroke-width="9.4686" stroke-linecap="round"/>
<path d="M332.312 185.541H340.36" stroke="#A1DC3C" stroke-width="9.4686" stroke-linecap="round"/>
<path d="M331.908 167.551L335.695 168.498" stroke="#123041" stroke-width="7.10145" stroke-linecap="round"/>
<path d="M259 168.027L255.213 168.974" stroke="#123041" stroke-width="7.10145" stroke-linecap="round"/>
<path d="M272.977 209.184C261.458 205.058 243.798 215.272 236.408 220.895C236.071 221.889 235.645 224.405 236.636 226.514C237.875 229.151 267.161 229.934 273.911 228.897C280.66 227.86 287.375 214.342 272.977 209.184Z" fill="#5C9A15"/>
<path d="M313.444 169.68C312.419 170.39 309.61 171.81 306.58 171.81C302.792 171.81 301.372 168.496 297.348 168.496C293.324 168.496 291.903 171.81 288.116 171.81C285.086 171.81 282.277 170.39 281.251 169.68" stroke="#4B890D" stroke-width="2.36715" stroke-linecap="round"/>
</g>
<path d="M305.397 144.747C305.527 147.252 309.735 149.104 314.584 148.852C319.433 148.6 323.086 146.34 322.956 143.835C322.735 139.592 319.163 136.376 313.71 136.659C308.256 136.942 305.169 140.357 305.397 144.747Z" fill="#FFC532"/>
<path d="M263.397 145.747C263.527 148.252 267.735 150.104 272.584 149.852C277.433 149.6 281.086 147.34 280.956 144.835C280.735 140.592 277.163 137.376 271.71 137.659C266.256 137.942 263.169 141.357 263.397 145.747Z" fill="#FFC532"/>
<defs>
<clipPath id="clip0_2486_334">
<rect width="196" height="94.2126" fill="white" transform="matrix(-1 0 0 1 357 138.199)"/>
</clipPath>
</defs>
</svg>
