<svg width="16" height="20" viewBox="0 0 16 20" fill="none" xmlns="http://www.w3.org/2000/svg">
<path d="M8.35865 6.44545C8.1041 6.44545 7.88592 6.36364 7.7041 6.2C7.52228 6.03636 7.43137 5.81364 7.43137 5.53182C7.43137 5.23182 7.54047 4.98182 7.75865 4.78182C7.97683 4.58182 8.22228 4.48182 8.49501 4.48182C8.75865 4.48182 8.97683 4.56818 9.14956 4.74091C9.32228 4.90455 9.40865 5.11818 9.40865 5.38182C9.40865 5.67273 9.29956 5.92273 9.08137 6.13182C8.87228 6.34091 8.63137 6.44545 8.35865 6.44545ZM7.1041 14.1909C6.83137 14.1909 6.6041 14.1227 6.42228 13.9864C6.24956 13.8409 6.16319 13.6318 6.16319 13.3591C6.16319 13.2045 6.18137 13.0182 6.21774 12.8C6.2541 12.5818 6.29501 12.3591 6.34047 12.1318L6.98137 9.05C7.06319 8.66818 6.92228 8.40909 6.55865 8.27273L6.36774 8.19091L6.39501 7.94545L8.84956 7.23636L8.98592 7.37273L7.94956 12.2409C7.91319 12.3955 7.88592 12.5318 7.86774 12.65C7.84956 12.7591 7.84047 12.8636 7.84047 12.9636C7.84047 13.1636 7.93137 13.2636 8.11319 13.2636C8.33137 13.2636 8.61774 13.0909 8.97228 12.7455L9.14956 12.9227C8.92228 13.2591 8.63592 13.5545 8.29047 13.8091C7.9541 14.0636 7.55865 14.1909 7.1041 14.1909Z" fill="#C6C6C7"/>
<circle cx="7.72727" cy="9.54539" r="7.04545" stroke="#C6C6C7" stroke-width="1.36364"/>
</svg>
