<svg width="358" height="250" viewBox="0 0 358 250" fill="none" xmlns="http://www.w3.org/2000/svg">
<rect width="358" height="250" rx="20" fill="#D5FDFF"/>
<path d="M144.307 67.6289C154.973 67.629 163.62 76.2767 163.62 86.9434C163.62 97.6098 154.973 106.257 144.307 106.257H100.314C89.6479 106.257 81.0002 97.6099 81 86.9434C81 76.2767 89.6478 67.6289 100.314 67.6289H144.307ZM144.307 29C154.973 29.0001 163.62 37.6468 163.62 48.3135C163.62 58.9801 154.973 67.6269 144.307 67.627H100.314C89.6478 67.627 81.0001 58.9801 81 48.3135C81 37.6468 89.6478 29 100.314 29H144.307Z" fill="#93F5F3"/>
<path d="M115.27 62.7847C115.324 62.756 115.391 62.7358 115.462 62.719C115.608 62.6834 115.769 62.6621 115.903 62.6095C116.736 62.2827 117.066 62.2117 117.816 61.9173C118.292 61.7292 119.104 61.3477 119.909 60.9495C119.918 60.9449 119.943 60.9327 119.951 60.9285C120.7 60.6025 121.39 60.335 121.782 60.2486C121.79 60.2434 121.815 60.2292 121.823 60.2244C122.2 60.1171 122.28 60.2006 122.354 60.3079C122.354 60.308 122.354 60.308 122.354 60.308C122.357 60.3137 122.36 60.3196 122.362 60.3257C122.418 60.4382 122.193 60.6884 122.203 60.8436C122.209 60.8834 122.246 60.9692 122.293 61.0774C122.434 61.3612 122.629 61.8247 122.338 62.0282C121.993 62.2648 121.333 62.5063 120.798 62.6986L120.825 62.6849C120.466 62.8315 120.14 62.9573 120.017 63.0225C119.808 63.1344 119.583 63.3343 119.315 63.4756C118.455 63.9266 117.972 64.0685 117.262 64.613C116.933 64.6373 116.604 64.6597 116.274 64.6814C116.24 64.6834 116.205 64.6855 116.171 64.6876C115.776 64.9097 115.086 65.0231 114.838 65.1324C114.633 65.2229 114.546 65.3583 114.332 65.4488C114.091 65.5519 113.683 65.6073 113.248 65.7975C112.534 66.1085 112.495 66.3843 112.072 66.5853C111.634 66.7936 110.886 66.9478 110.343 67.2544C110.281 67.3077 110.219 67.3609 110.157 67.4141C110.231 67.4498 110.304 67.4855 110.378 67.5212C110.1 67.6614 109.931 67.5955 109.663 67.6989C109.351 67.8197 109.235 67.9916 109.024 68.0747C108.853 68.1418 108.585 68.147 108.363 68.2415C108.042 68.3777 108.161 68.4762 107.998 68.5686C107.931 68.6052 106.673 69.1896 106.604 69.2202C106.558 69.2392 106.516 69.2553 106.477 69.2689C106.039 69.424 105.908 69.3078 105.508 69.4603C105.241 69.563 104.975 69.6782 104.723 69.8006C104.597 69.8618 104.477 69.924 104.367 69.9862C104.315 70.0163 104.264 70.0472 104.23 70.0704C104.215 70.0812 104.202 70.0923 104.216 70.0848C104.227 70.0775 104.235 70.0777 104.301 70.0198C104.335 69.9771 104.379 69.9907 104.543 69.6956C104.594 69.5769 104.659 69.4663 104.657 69.1539C104.663 68.8146 104.408 68.3999 104.17 68.2548C103.733 67.992 103.633 68.0664 103.526 68.0464C104.262 67.9917 105.05 67.9888 105.726 68.007C106.281 68.0237 106.856 68.0856 107.398 68.1665C106.495 68.5584 108.357 69.1071 107.719 68.2991C107.92 68.3539 108.096 68.3727 108.277 68.3779C108.625 68.387 108.95 68.3378 109.33 68.3996C109.697 68.4594 109.942 68.5883 110.471 68.6414C111.408 68.7344 112.467 68.5584 112.676 69.1157C113.787 69.148 114.715 69.457 115.17 69.0439C115.459 69.0513 116.151 69.4232 116.463 69.5048C116.761 69.5746 119.051 70.0472 119.429 70.1324C119.805 70.2048 120.469 70.341 120.799 70.3724C120.887 70.3806 120.973 70.3691 121.058 70.3526C121.387 70.2941 121.755 70.1593 122.213 70.7714C123.077 71.0325 123.473 71.1527 124.164 71.9396C124.28 72.0906 124.223 72.1608 124.286 72.2464C124.414 72.4221 124.65 72.7235 124.77 73.0687C124.961 73.6321 124.809 73.9519 125.071 73.8481C125.18 74.1929 125.266 74.5276 125.347 74.8562C125.308 74.9799 125.268 75.0989 125.228 75.2204C125.274 75.3276 125.319 75.4282 125.365 75.5361C125.393 75.5986 125.421 75.6621 125.449 75.7266C125.04 75.5617 125.385 76.7607 125.571 76.3426C125.549 76.9788 125.525 77.6157 125.5 78.2506C125.05 78.203 125.571 79.6341 125.801 79.4898C125.807 79.5616 125.813 79.6335 125.819 79.7055C125.756 80.345 125.903 80.9137 125.891 81.6872C125.879 82.4601 125.829 82.3923 125.646 82.6425C125.673 82.8227 125.701 83.0012 125.729 83.1804C126.372 84.0753 125.387 83.9987 125.967 85.5723C125.924 85.6496 125.894 85.7435 125.874 85.8423C125.813 86.1542 125.843 86.5686 125.924 86.9758C125.945 87.0803 125.968 87.1754 125.996 87.2685C126.012 87.3396 126.097 87.5014 126.038 87.3676C126.009 87.3348 126.001 87.2967 125.864 87.2301C125.731 87.1675 125.548 87.2011 125.471 87.2504C125.34 87.3329 125.351 87.3528 125.339 87.3576C125.328 87.3641 125.339 87.3293 125.345 87.2954C125.358 87.2263 125.374 87.1366 125.385 87.0558C125.399 86.964 125.333 86.9472 125.345 86.8198C125.375 86.5195 125.637 85.7446 125.416 85.7212C125.539 85.4608 125.66 85.2015 125.782 84.9336C125.782 84.9308 125.782 84.928 125.782 84.9252C125.79 84.6974 125.799 84.4645 125.808 84.2286C125.74 84.2156 125.672 84.2025 125.605 84.1896C125.93 83.7814 125.991 83.0459 126.119 82.7003C126.145 82.6325 126.241 82.6379 126.312 82.4227C126.395 82.1719 126.466 81.689 126.558 81.3877C126.48 81.2482 126.401 81.1079 126.323 80.9668C126.379 80.4091 126.691 80.2717 126.779 79.955C126.794 79.898 126.993 78.8378 126.999 78.7796C127.05 78.3042 126.79 78.3883 127.122 77.0503C127.181 76.8127 127.302 76.6344 127.351 76.4189C127.437 76.0361 127.502 74.8447 127.355 74.7151C127.665 74.2953 127.855 73.0307 128.001 72.6768C128.044 72.5724 128.184 72.5734 128.291 72.2433C128.337 72.0994 128.376 71.8285 128.419 71.5577C128.459 71.3019 128.501 71.0521 128.554 70.8843C128.67 70.5163 128.82 70.4085 128.873 70.2467C128.926 70.0865 128.877 69.9195 128.946 69.6971C129.038 69.4088 129.157 69.1352 129.31 68.857C129.389 68.716 129.465 68.5813 129.607 68.4007C129.69 68.3104 129.752 68.1952 130.032 68.0543C130.169 67.9869 130.404 67.9554 130.571 68.0008C130.739 68.0423 130.825 68.1068 130.862 68.1299C131.045 68.2557 131.096 68.327 131.171 68.3968C131.745 69.0019 132.369 69.2497 132.92 69.5884C133.022 69.7069 133.096 69.854 133.218 69.9626C133.578 70.287 133.958 70.6144 134.353 70.9449C135.628 72.0076 136.973 73.132 138.198 74.1517C138.55 74.4443 139.109 74.9947 139.589 75.3916C140.136 75.8481 140.543 76.0558 140.479 75.6133C140.54 75.6276 140.686 75.7214 140.783 75.7793C140.801 75.7914 140.823 75.7995 140.766 75.7803C140.734 75.7732 140.686 75.7456 140.499 75.741C140.399 75.7418 140.244 75.7531 140.052 75.8457C139.853 75.9379 139.675 76.1308 139.601 76.2745C139.455 76.5721 139.492 76.6658 139.486 76.7172C139.488 76.7671 139.493 76.7743 139.494 76.7721C139.497 76.7645 139.492 76.7151 139.483 76.6601C139.36 75.996 139.091 75.0653 139.004 74.8283C138.844 74.3985 138.605 74.1026 138.466 73.7749C138.462 73.7639 138.457 73.7531 138.453 73.7423C138.054 72.7821 137.79 72.2082 136.953 71.1599C136.922 71.1212 136.888 71.0826 136.852 71.044C136.647 70.8266 136.398 70.6392 136.298 70.4955C136.158 70.2922 136.108 70.0005 135.927 69.7334C135.498 69.0975 134.625 67.9576 134.211 67.3432C134.136 67.2306 134.199 67.1263 134.115 66.9491C133.934 66.567 133.699 66.1859 133.492 65.9781C133.324 65.8084 133.172 65.75 133.08 65.8983C132.961 65.6237 132.819 65.3748 132.659 65.1207C132.579 64.9935 132.496 64.8678 132.401 64.7114C132.353 64.6303 132.302 64.5473 132.241 64.411C132.187 64.287 132.084 64.0336 132.11 63.6921C132.108 63.4888 132.269 63.0907 132.414 62.9412C132.555 62.7735 132.654 62.7047 132.733 62.6439C132.889 62.5309 132.99 62.4735 133.092 62.4145C133.29 62.3021 133.458 62.2182 133.635 62.1388C133.84 62.0466 134.062 61.9527 134.298 61.8546C135.84 61.2164 138.025 60.3959 139.368 59.7245C139.602 59.6069 139.806 59.4942 139.95 59.3968C140.013 59.3543 140.062 59.3156 140.082 59.2915C140.093 59.2817 140.12 59.2131 139.93 59.3987C139.882 59.4565 139.799 59.541 139.711 59.7652C139.61 59.978 139.595 60.5148 139.799 60.8337C139.992 61.1557 140.148 61.2313 140.241 61.2976C140.333 61.3538 140.385 61.3753 140.422 61.3921C140.552 61.4456 140.524 61.4389 140.509 61.4478C140.313 61.4815 139.979 61.4848 139.088 61.4283C138.908 61.4177 138.728 61.4058 138.534 61.3961C138.383 61.3885 138.221 61.3825 138.043 61.3793C137.087 61.3661 136.158 61.1338 135.433 61.5246C135.115 61.5126 134.817 61.5108 134.533 61.5074C133.844 61.4986 133.244 61.4818 132.673 61.2749C132.581 61.3499 132.487 61.4249 132.394 61.4998C132.262 61.5037 132.13 61.5074 131.997 61.5109C131.955 61.4415 131.913 61.372 131.871 61.3024C130.925 61.2956 129.727 61.5862 128.912 61.5711C128.731 61.5678 128.512 61.5616 128.263 61.5501C128.011 61.5345 127.752 61.5374 127.306 61.4513C127.085 61.4033 126.768 61.3182 126.446 61.0756C126.121 60.8329 125.925 60.4986 125.824 60.2568C125.488 59.3242 125.516 58.7976 125.425 58.1893C125.334 57.3974 125.261 56.6844 125.225 56.2379C125.173 55.5674 125.019 55.5525 125.266 55.1264C125.222 54.9811 125.178 54.8355 125.134 54.6905C125.053 54.6079 124.972 54.5249 124.891 54.4423C124.757 53.5907 124.706 52.5643 124.579 51.7535C124.492 51.1949 124.363 50.5314 124.228 49.8495C124.167 49.5397 124.106 49.2286 124.046 48.9208C124.016 48.7667 123.987 48.6134 123.958 48.4662C123.944 48.3938 123.929 48.3204 123.916 48.2572C123.91 48.2293 123.902 48.1926 123.902 48.1982C123.903 48.2024 123.904 48.2061 123.915 48.2417C123.927 48.2702 123.913 48.2622 123.988 48.4112C124.018 48.4596 124.018 48.4767 124.123 48.6017C124.194 48.6777 124.303 48.7919 124.53 48.8828C124.647 48.9264 124.771 48.9577 124.949 48.9524C125.131 48.9464 125.309 48.8864 125.436 48.8117C125.687 48.6652 125.792 48.4706 125.813 48.4386C125.847 48.3811 125.867 48.3364 125.882 48.2996C125.912 48.226 125.922 48.1827 125.927 48.1624C125.963 47.995 125.949 48.0321 125.953 48.0173C125.953 48.0147 125.952 48.0236 125.951 48.0385C125.916 48.3591 125.893 48.3997 125.866 48.5449C125.84 48.6684 125.813 48.7862 125.786 48.901C125.731 49.1323 125.677 49.3457 125.619 49.5489C125.516 49.9068 125.293 50.3363 125.229 50.6978C125.137 51.2192 125.341 51.3909 125.234 52.0533C125.216 52.1632 125.196 52.2727 125.172 52.3977C124.938 53.5909 124.428 55.4187 124.311 56.4098C124.272 56.7341 124.337 56.896 124.318 57.1192C124.275 57.6025 124.232 58.0395 124.214 58.4621C124.196 58.8747 124.192 59.2814 124.225 59.7184C123.939 60.659 123.666 60.5606 123.364 60.8498C123.134 61.0643 122.623 61.7742 122.434 61.8764C122.3 61.9477 122.128 61.6814 121.981 61.7815C121.868 60.5537 122.046 60.0376 122.325 59.0911C122.346 58.8249 122.368 58.5589 122.391 58.294C122.535 56.7513 122.762 55.2666 122.988 53.7726C123.093 53.6258 123.197 53.4799 123.302 53.333C123.302 53.333 123.303 53.333 123.303 53.3331C123.482 52.7421 123.373 52.4255 123.358 52.0997C123.357 52.0629 123.356 52.0261 123.358 51.9891C123.388 50.8951 123.638 49.2002 123.902 47.8903C123.902 47.8857 123.902 47.8757 123.904 47.8542C123.909 47.8213 123.896 47.8387 123.935 47.6584C123.941 47.6381 123.952 47.5897 123.982 47.5163C123.998 47.4792 124.019 47.4344 124.054 47.3773C124.088 47.3244 124.197 47.1375 124.463 47.0027C124.595 46.9355 124.774 46.8913 124.945 46.8988C125.086 46.9037 125.215 46.9398 125.315 46.9842C125.516 47.0764 125.609 47.18 125.672 47.2507C125.754 47.3512 125.765 47.3801 125.791 47.4246C125.865 47.5696 125.856 47.5732 125.87 47.6077C125.886 47.6587 125.891 47.679 125.897 47.7029C125.916 47.7796 125.924 47.8213 125.933 47.8661C125.951 47.9557 125.965 48.035 125.979 48.1145C126.007 48.274 126.033 48.4301 126.059 48.5879C126.11 48.9022 126.158 49.217 126.206 49.5381C126.632 52.424 126.973 55.484 127.273 57.6019C127.284 57.6805 127.301 57.7846 127.319 57.8942C127.391 58.3078 127.501 59.0463 127.646 59.4139C127.68 59.4959 127.696 59.4893 127.658 59.4555C127.617 59.4242 127.62 59.4403 127.7 59.4559C127.857 59.4886 128.127 59.5037 128.324 59.5234C128.472 59.5378 128.595 59.5542 128.671 59.5742C128.817 59.6111 128.855 59.7358 129.01 59.7434C130.4 59.6869 131.799 59.5996 133.19 59.4967C133.613 59.516 134.04 59.5254 134.465 59.5255C135.772 59.5309 137.053 59.4145 138.407 59.2948C139.199 59.2421 139.915 59.1699 140.843 59.2632C140.916 59.2743 140.991 59.2831 141.124 59.3229C141.193 59.3476 141.272 59.3627 141.437 59.4786C141.518 59.54 141.642 59.6436 141.732 59.8494C141.828 60.0592 141.811 60.3226 141.762 60.4611C141.659 60.7469 141.571 60.7972 141.511 60.8682C141.452 60.9274 141.405 60.9642 141.366 60.9946C141.285 61.0556 141.222 61.0953 141.163 61.1319C140.928 61.2737 140.737 61.3659 140.535 61.4632C140.426 61.5156 140.319 61.5651 140.21 61.6152C138.488 62.3884 136.779 63.0718 135.096 63.7861C134.824 63.9018 134.554 64.0174 134.302 64.1335C134.176 64.1913 134.052 64.2509 133.963 64.3007C133.921 64.3233 133.883 64.3509 133.906 64.3352C133.918 64.3246 133.953 64.304 134.018 64.2142C134.084 64.1315 134.143 63.94 134.143 63.8749C134.155 63.6717 134.103 63.6119 134.12 63.639C134.13 63.6585 134.16 63.712 134.193 63.766C134.261 63.8769 134.349 64.0069 134.436 64.1332C134.614 64.3913 134.801 64.652 134.991 64.9156C136.177 66.5525 137.391 68.1817 138.568 69.8537C139.21 70.7627 139.921 71.8407 140.353 72.9443C140.784 73.9922 141.179 74.9643 141.506 76.151C141.531 76.2558 141.559 76.3607 141.58 76.5408C141.587 76.6389 141.61 76.7351 141.56 76.9936C141.529 77.1219 141.474 77.3284 141.254 77.5485C141.038 77.7676 140.716 77.8494 140.558 77.8522C140.212 77.8575 140.118 77.7905 140.011 77.7567C139.913 77.7179 139.846 77.6829 139.788 77.6515C139.669 77.587 139.58 77.5298 139.492 77.4723C139.15 77.2442 138.849 77.0195 138.53 76.7859C137.508 76.0333 136.405 75.2144 135.554 74.4798C135.09 74.0787 135.016 73.7642 134.295 73.3761C134.322 73.329 134.349 73.2819 134.376 73.2348C133.917 72.93 133.558 72.7501 133.126 72.4516C133.001 72.3645 132.875 72.2709 132.738 72.1599C132.204 71.7461 130.858 70.5221 130.463 70.0563C130.256 69.826 130.405 69.8355 130.214 69.6364C130.175 69.5952 130.125 69.5469 130.079 69.5077C130.041 69.4724 129.963 69.423 130.037 69.483C130.026 69.4752 130.092 69.5393 130.283 69.5736C130.478 69.6115 130.711 69.5345 130.798 69.4756C130.979 69.3544 130.952 69.3457 130.959 69.3593C130.951 69.3938 130.909 69.5109 130.877 69.6267C130.808 69.8663 130.741 70.1414 130.673 70.3643C130.541 70.8004 130.287 71.4817 130.145 71.9785C130.111 72.0981 130.081 72.2117 130.063 72.3035C129.74 73.9242 129.528 75.7431 129.117 77.474C129.004 77.9526 128.747 78.5458 128.72 78.6975C128.666 78.9937 128.771 79.1073 128.746 79.3086C128.618 80.3311 128.148 81.8708 127.938 82.8578C127.77 83.6494 127.601 84.463 127.43 85.2756C127.266 86.0368 127.134 86.7562 126.889 87.6089C126.854 87.7186 126.821 87.8349 126.735 88.0193C126.71 88.0711 126.688 88.1175 126.63 88.2074C126.564 88.2798 126.549 88.413 126.146 88.6295C125.929 88.743 125.519 88.7707 125.243 88.6305C124.956 88.4843 124.909 88.3932 124.822 88.2936C124.705 88.136 124.672 88.0391 124.648 87.9826C124.555 87.7347 124.544 87.627 124.518 87.5058C124.496 87.3866 124.48 87.2825 124.465 87.1742C124.408 86.7616 124.37 86.3802 124.33 85.9932C124.23 84.9891 124.142 83.9976 124.063 83.0247C123.897 80.9885 123.588 77.6242 123.495 75.7169C123.494 75.6933 123.492 75.67 123.491 75.6472C123.472 75.2412 123.621 75.3358 123.585 74.999C123.544 74.6304 123.423 74.4506 123.39 74.2933C123.335 74.037 123.257 73.7168 123.138 73.4619C123.014 73.2027 122.881 73.0461 122.632 72.8836C122.126 72.5554 121.215 72.337 120.644 72.1696C120.57 72.1481 120.499 72.1271 120.432 72.1065C120.227 72.0433 120.09 71.9051 119.966 71.8808C119.903 71.8682 119.739 71.9113 119.537 71.8812C117.718 71.6184 116.382 71.3977 114.576 71.142C112.546 70.8595 110.308 70.6553 108.069 70.4506C106.509 70.3165 104.95 70.1457 103.511 70.128C103.434 70.1225 103.36 70.1366 103.14 70.0501C103.052 70.0147 102.841 69.8951 102.713 69.678C102.574 69.4704 102.564 69.1523 102.59 69.0457C102.647 68.7696 102.717 68.713 102.756 68.6469C102.805 68.5798 102.82 68.5667 102.847 68.5373C103.082 68.3213 103.089 68.3533 103.166 68.3021C103.229 68.2674 103.279 68.2441 103.332 68.22C103.432 68.1751 103.523 68.141 103.609 68.112C103.781 68.0534 103.932 68.0155 104.062 67.9874C104.325 67.93 104.497 67.9142 104.552 67.8894C104.781 67.7861 104.876 67.5884 105.33 67.3626C105.434 67.3113 105.531 67.2642 105.642 67.2135C107.126 66.5272 109.092 65.8946 110.445 65.2852C111.162 64.9634 112.096 64.3955 112.796 64.072C113.356 63.8141 114.729 63.3367 114.948 63.159C115.084 63.051 115.093 62.8786 115.27 62.7847ZM111.02 68.821C110.884 69.0568 112.058 68.9765 111.641 68.7962C111.546 68.7552 111.056 68.7597 111.02 68.821ZM135.064 72.0652C135.1 72.0031 135.137 71.941 135.173 71.8789C135.037 71.8072 134.9 71.7348 134.765 71.6635C134.802 71.7492 134.844 71.8378 134.882 71.9234C134.942 71.9704 135.004 72.0185 135.064 72.0652Z" fill="black"/>
<path d="M250.13 86.4727C271.891 124.166 182.714 100.272 220.407 78.5085C182.714 100.272 206.609 11.0948 228.371 48.7843C206.609 11.0948 295.786 34.9897 258.094 56.7486C295.786 34.9897 271.891 124.166 250.13 86.4727Z" fill="#FF99D3"/>
<path d="M244.853 60.3354C244.855 60.3763 244.76 60.4015 244.742 60.4415C244.659 60.6153 244.583 60.6604 244.487 60.8175C244.417 60.9284 244.394 61.0586 244.18 61.3813C244.176 61.3902 244.158 61.4145 244.153 61.4231C244.044 61.5747 243.72 61.8307 243.563 61.834C243.392 61.8592 243.283 61.7912 243.204 61.6483C243.204 61.6483 243.204 61.6482 243.204 61.6482C243.201 61.6434 243.199 61.6384 243.196 61.6334C243.149 61.5375 243.154 61.4012 243.101 61.2915C243.046 61.1833 242.661 60.5025 242.663 60.4489C242.677 60.3902 242.659 60.5014 242.756 60.4596L242.738 60.4866C242.767 60.5035 242.821 60.4571 242.824 60.4422C242.834 60.4066 242.787 60.3371 242.795 60.2846C242.819 60.1194 242.902 60.0469 242.774 59.8338C242.891 59.8101 243.008 59.7838 243.126 59.7552C243.109 59.6612 243.278 59.5813 243.287 59.5295C243.295 59.4877 243.227 59.4379 243.237 59.3944C243.248 59.3469 243.355 59.2998 243.37 59.2096C243.396 59.0612 243.203 58.9714 243.204 58.8795C243.206 58.7819 243.357 58.6794 243.321 58.5441C243.303 58.5232 243.285 58.5017 243.267 58.4813C243.214 58.4761 243.161 58.4714 243.108 58.4665C243.102 58.4025 243.212 58.4099 243.229 58.3576C243.25 58.2953 243.162 58.2369 243.174 58.1952C243.185 58.1614 243.277 58.1376 243.285 58.0926C243.297 58.0264 243.18 58.0076 243.169 57.9667C243.165 57.9503 243.175 57.6774 243.178 57.663C243.205 57.5516 243.362 57.5862 243.401 57.502C243.506 57.2685 243.448 56.9833 243.461 56.7446C243.463 56.6998 243.471 56.6553 243.483 56.6116L243.452 56.7824C243.459 56.7227 243.475 56.6646 243.495 56.6079C243.89 56.8075 244.242 56.481 243.588 56.555C243.69 56.4515 243.523 56.3572 243.56 56.254C243.585 56.1875 243.677 56.146 243.681 56.0482C243.688 55.8726 243.443 55.675 243.903 55.6436C243.831 55.4364 244 55.2607 243.596 55.1843C243.572 55.1328 243.813 55.0012 243.845 54.9419C243.878 54.8867 243.974 54.4585 243.975 54.3885C243.977 54.3185 243.976 54.1969 243.935 54.142C243.885 54.0706 243.464 54.0645 243.939 53.8877C243.883 53.7431 243.891 53.6901 243.927 53.5448C243.934 53.5186 244.005 53.5047 244.003 53.4902C243.998 53.4601 243.937 53.4176 243.921 53.3663C243.896 53.2819 244.036 53.2032 243.808 53.2579C243.758 53.21 243.708 53.163 243.658 53.1182C243.698 53.0893 243.737 53.0601 243.777 53.0306C243.722 53.0131 243.667 52.9958 243.612 52.9803C243.85 52.9455 243.797 52.8566 243.686 52.8521C243.64 52.8478 243.583 52.8586 243.534 52.8946C243.534 52.8951 243.533 52.8956 243.532 52.8962C243.532 52.8958 243.532 52.8955 243.532 52.8952C243.567 52.7603 243.602 52.6277 243.636 52.4964C244.011 52.4005 243.603 52.239 243.411 52.3301C243.408 52.3182 243.404 52.3062 243.401 52.2945C243.463 52.159 243.352 52.0974 243.37 51.964C243.386 51.8296 243.424 51.8253 243.567 51.7131C243.545 51.6914 243.522 51.6707 243.5 51.6508C243.199 51.7194 243.362 51.6104 243.421 51.4917C243.453 51.4087 243.446 51.3277 243.257 51.3095C243.453 51.0544 243.18 50.9418 243.012 50.8713C242.992 50.863 242.944 50.898 242.915 50.8896C242.845 50.8684 242.814 50.7045 242.667 50.8273C242.68 50.7539 242.691 50.6802 242.702 50.606C242.649 50.5966 242.596 50.5881 242.544 50.581C242.499 50.6204 242.454 50.6598 242.409 50.6991C242.511 50.506 242.369 50.4675 242.362 50.3927C242.361 50.3774 242.418 50.3174 242.406 50.2749C242.393 50.2246 242.317 50.187 242.296 50.1341C242.221 50.1897 242.147 50.2467 242.075 50.3052C241.982 50.2925 242.107 50.0857 242.075 50.0395C242.07 50.0297 241.924 49.954 241.914 49.956C241.833 49.957 241.751 50.1388 241.615 50.0299C241.61 50.0257 241.606 50.0188 241.602 50.0105C241.591 49.9812 241.585 49.932 241.562 49.9215C241.51 49.8954 241.286 49.9979 241.237 50.14C241.216 49.9403 240.997 49.9717 240.948 49.9098C240.933 49.8905 240.948 49.7725 240.894 49.7385C240.85 49.7103 240.717 49.7886 240.66 49.767C240.599 49.7434 240.585 49.6424 240.556 49.633C240.529 49.6243 240.498 49.7027 240.462 49.7001C240.349 49.6904 240.246 49.5591 240.152 49.5576C240.016 49.5553 239.911 49.8004 239.822 49.9152C239.795 49.9022 239.765 49.854 239.738 49.8566C239.465 49.8817 239.17 49.9191 238.899 49.9855C238.827 50.0056 238.758 50.0239 238.688 50.0424C238.503 50.0903 237.953 49.9689 238.275 50.4194C238.251 50.5301 237.751 50.5112 237.675 50.5461C237.597 50.5793 237.582 50.6948 237.526 50.7247C237.36 50.8145 237.207 50.8185 237.073 51.0048C237.039 51.0534 237.059 51.1792 237.035 51.1953C237.005 51.2144 236.907 51.1487 236.865 51.1726C236.764 51.2292 236.641 51.3925 236.56 51.4557C236.544 51.467 236.468 51.4066 236.426 51.4079C236.262 51.413 236.19 51.5296 236.455 51.6937C236.251 51.698 236.286 51.8726 236.256 51.9887C236.251 52.0026 236.246 52.016 236.24 52.0288C236.068 52.3681 235.779 52.8167 235.849 53.0835C235.89 53.2508 236.026 53.2681 235.869 53.4598C235.835 53.5043 235.792 53.5479 235.753 53.6063C235.661 53.739 235.395 53.8782 235.702 54.0098C235.616 54.1831 235.676 54.3232 235.417 54.4729C235.482 54.4866 235.546 54.5001 235.61 54.5132C235.613 54.5364 235.616 54.5583 235.619 54.5808C235.559 54.5914 235.498 54.6022 235.438 54.6132C235.434 54.7451 235.592 54.8864 235.672 55.0092C235.696 55.0468 235.713 55.0819 235.716 55.1143C235.734 55.3594 235.742 55.9023 235.737 56.1292C235.73 56.2495 235.855 56.2111 235.624 56.3616C235.65 56.3801 235.677 56.3978 235.703 56.4155C235.764 56.4102 235.824 56.4049 235.884 56.3983C235.937 56.5303 235.923 56.7272 235.986 56.8566C236.044 56.9778 236.16 57.1105 236.267 57.247C236.375 57.3899 236.47 57.5377 236.493 57.686C236.506 57.7638 236.444 57.9008 236.481 57.9639C236.533 58.0534 236.721 57.9791 236.788 58.0921C236.905 58.2883 236.911 58.7724 237.033 58.9504C237.07 59.0047 237.148 58.9918 237.177 59.0273C237.299 59.1712 237.369 59.3064 237.557 59.4009C237.485 59.6609 237.264 59.7716 237.077 59.9476C236.939 60.0858 236.619 60.4048 236.512 60.544C236.499 60.5546 236.549 60.6422 236.548 60.6595C236.509 60.6448 236.453 60.5948 236.436 60.597C236.391 60.5875 236.367 60.6117 236.332 60.6191C236.268 60.6447 236.203 60.6711 236.155 60.7151C235.938 60.5483 235.992 60.4166 236.052 60.1607C235.872 59.8625 235.695 59.5649 235.518 59.2661C235.563 59.2042 235.609 59.1433 235.654 59.0814C235.654 59.0814 235.654 59.0813 235.654 59.0812C235.659 58.9259 235.475 58.964 235.405 58.922C235.136 58.759 234.914 58.4542 234.723 58.0988C234.401 57.5144 234.227 56.755 234.136 56.2487C234.093 56.0706 233.903 55.4968 234.008 55.3688C234.033 55.3347 234.139 55.3141 234.14 55.2817C234.128 55.2472 234.116 55.2126 234.104 55.1786C234.022 54.9341 233.946 54.6835 233.882 54.4228C234.031 53.8112 233.939 53.1502 234.114 52.4918C234.245 51.9843 234.474 51.5112 234.667 51.1206C235.233 49.886 236.534 49.1441 237.532 48.7643C237.768 48.6693 238.028 48.5053 238.274 48.42C238.334 48.3985 238.393 48.3817 238.451 48.3703C238.599 48.3419 238.703 48.4891 238.85 48.3163C238.864 48.3608 238.877 48.4053 238.891 48.4499C239.031 48.3561 239.112 48.23 239.292 48.1886C239.443 48.1504 239.847 48.1054 239.981 48.1221C240.051 48.1286 240.027 48.2162 240.091 48.2144C240.198 48.2101 240.435 48.0937 240.588 48.1046C240.726 48.1125 240.944 48.2371 241.048 48.2381C241.417 48.2421 241.835 48.1827 242.262 48.3805C242.275 48.3869 242.289 48.3935 242.302 48.4004C242.426 48.4639 242.525 48.6434 242.56 48.66C242.632 48.6925 242.708 48.6107 242.762 48.6273C243.043 48.7122 243.282 49.0794 243.442 49.2503C243.906 49.7315 244.281 50.2354 244.593 50.6982C244.668 50.8086 244.733 50.9225 244.788 51.0349C245.002 51.4606 245.175 52.0359 245.233 52.419C245.245 52.4911 245.253 52.5594 245.256 52.6205C245.26 52.7142 245.138 52.7171 245.154 52.7907C245.172 52.871 245.261 52.8994 245.275 52.9359C245.378 53.1904 245.534 53.7678 245.467 54.0197C245.455 54.0682 245.363 54.1081 245.365 54.1359C245.366 54.1498 245.433 54.1778 245.442 54.2213C245.523 54.6089 245.49 54.8948 245.463 55.2706C245.425 55.8086 245.445 56.4064 245.39 56.9831C245.389 57.0085 245.372 57.0818 245.367 57.1069C245.32 57.2938 245.267 57.4732 245.202 57.6487C245.147 57.7987 244.939 57.8533 244.934 57.8757C244.925 57.9243 245.037 57.9883 245.04 58.0917C245.048 58.4393 244.794 58.8301 244.761 59.1503C244.745 59.3078 244.831 59.5626 244.817 59.7221C244.805 59.8493 244.652 60.1107 244.7 60.1857C244.728 60.2321 244.851 60.2913 244.853 60.3354ZM243.792 55.95C244.007 55.9832 243.839 55.7572 243.719 55.8322C243.692 55.849 243.736 55.9413 243.792 55.95ZM239.216 49.5672C239.233 49.6267 239.25 49.6862 239.266 49.7457C239.284 49.7148 239.303 49.684 239.322 49.6534C239.3 49.6203 239.277 49.5874 239.254 49.5547C239.242 49.5588 239.229 49.5629 239.216 49.5672Z" fill="black"/>
<path d="M247.417 59.8817C247.434 59.7187 247.551 59.4962 247.578 59.2902C247.603 59.1109 247.621 58.9506 247.639 58.8022C247.63 58.9139 247.661 59.1149 247.751 59.2674C247.84 59.4216 247.943 59.4995 247.999 59.5348C248.115 59.6011 248.106 59.5729 248.076 59.5617C247.886 59.4932 247.685 59.4396 247.399 59.4367C247.254 59.4344 247.028 59.4636 246.877 59.5169L246.992 59.466C246.331 59.8256 245.164 60.7127 244.392 61.1756C244.132 61.3356 243.972 61.4141 243.871 61.4463C243.753 61.495 243.624 61.5536 243.55 61.4964C243.55 61.4964 243.55 61.4963 243.55 61.4963C243.545 61.4932 243.541 61.4896 243.537 61.4858C243.459 61.4064 243.534 61.1093 243.48 60.999C243.417 60.8962 242.84 60.3316 243.224 59.9606C243.263 59.9241 243.306 59.8861 243.353 59.8469C243.942 59.3583 245.208 58.6382 245.498 58.4409C245.693 58.3037 245.878 58.1 246.19 57.911C246.205 57.9036 246.25 57.8831 246.266 57.8775C246.301 57.8625 246.336 57.8485 246.371 57.836C247.281 57.5454 247.867 57.6286 248.559 57.7284C248.705 57.7591 248.87 57.7847 249.114 57.9271C249.234 58.0001 249.385 58.1199 249.503 58.3157C249.623 58.51 249.672 58.7575 249.669 58.9451C249.67 58.9557 249.671 58.9664 249.673 58.9771C249.543 59.3584 249.399 59.7437 249.227 60.1153C249.191 60.6391 248.812 61.3629 248.682 61.6478C248.581 61.8871 248.584 62.0617 248.449 62.3036C248.344 62.4918 248.151 62.719 247.923 62.9782C247.831 63.0817 247.737 63.1948 247.646 63.319C247.157 63.9926 247.239 64.2378 246.964 64.6523C246.681 65.0811 246.111 65.6684 245.81 66.2398C245.796 66.28 245.784 66.3191 245.774 66.3548C245.77 66.3796 245.73 66.4714 245.783 66.3997C245.785 66.5031 245.896 66.421 245.96 66.4212C245.943 66.4505 245.928 66.4764 245.915 66.4949C245.908 66.5058 245.904 66.5125 245.901 66.5148C245.902 66.5136 245.899 66.5179 245.91 66.4981C245.92 66.4774 245.908 66.5086 245.953 66.406C245.968 66.353 246.008 66.3346 246.029 66.0499C246.029 65.9731 246.028 65.868 245.978 65.7146C245.931 65.5656 245.807 65.3511 245.596 65.2101C245.146 64.9377 244.878 65.055 244.738 65.0863C244.47 65.1863 244.452 65.2405 244.402 65.2732C244.364 65.3063 244.347 65.3237 244.334 65.3372C244.423 65.265 244.604 65.1542 244.764 64.9786C245.019 64.6987 245.077 64.4906 245.257 64.3058C245.403 64.1557 245.662 64.0123 245.854 63.8228C246.136 63.5468 245.994 63.52 246.137 63.3597C246.168 63.3244 246.516 62.9824 246.854 62.6823C247.115 62.4466 247.377 62.2152 247.409 62.1899C247.943 61.7633 248.092 61.8499 248.583 61.5465C249.298 61.1138 250.196 60.7103 251.167 60.6664C251.843 60.6208 252.594 60.5781 253.331 60.6803C253.626 60.7201 253.927 60.7858 254.223 60.8773C254.55 60.9786 254.881 61.0906 255.204 61.2121C254.18 61.3082 256.061 62.2734 255.527 61.4129C256.139 61.7234 256.664 61.7354 257.283 62.0812C257.562 62.2422 257.763 62.4112 258.05 62.6466C258.159 62.7386 258.284 62.8393 258.441 62.9663C258.875 63.3015 259.426 63.8533 259.64 64.4478C259.83 64.9202 259.906 65.3463 259.714 65.5686C259.952 66.2659 260.011 66.965 260.061 67.5148C260.1 67.8792 260.177 68.1773 260.352 68.3735C260.354 68.6898 260.244 69.5517 259.708 70.2509C259.701 70.2586 259.694 70.2661 259.688 70.2736C259.481 70.6644 257.886 71.667 257.005 71.8977C256.78 71.9755 256.599 72.0299 256.512 72.0567C256.089 72.1966 255.336 72.3492 254.981 72.4316C254.542 72.5379 254.243 72.999 253.416 72.5495C252.948 72.5909 252.631 72.6 252.323 72.5946C252.024 72.5886 251.732 72.5654 251.319 72.5204C251.168 72.5035 251.153 72.4297 251.064 72.4252C250.882 72.4163 250.566 72.4524 250.24 72.4367C249.705 72.4106 249.414 72.2321 249.455 72.4708C249.101 72.4825 248.747 72.4924 248.395 72.5023C248.277 72.447 248.159 72.3917 248.04 72.3364C247.85 72.37 247.661 72.4039 247.471 72.4382C247.715 72.1155 246.4 72.2187 246.809 72.4438C246.157 72.3305 245.471 72.2126 244.917 72.1934C244.919 72.1655 244.915 72.1419 244.906 72.1224C244.902 72.1061 244.896 72.0925 244.898 72.0797C244.9 72.0731 244.905 72.0667 244.921 72.0572C244.927 72.0528 244.947 72.045 244.974 72.0312C244.995 72.0156 245.055 72.0069 245.167 71.8789C245.207 71.8422 245.313 71.6394 245.285 71.4825C245.26 71.3104 245.215 71.2703 245.177 71.2142C245.092 71.1158 245.084 71.1279 245.057 71.1079C245.021 71.089 245.016 71.0918 245.015 71.0933C245.014 71.0984 245.035 71.1098 245.061 71.12C245.167 71.162 245.348 71.193 245.521 71.2093C245.87 71.2395 246.239 71.2397 246.207 71.1253C246.291 71.1557 246.376 71.1886 246.464 71.2255C246.544 71.2717 246.627 71.3189 246.715 71.3719C247.234 71.7041 247.818 71.9635 248.418 72.4804C249.08 73.0681 248.976 73.058 249.063 73.36C249.066 73.3626 249.069 73.3652 249.073 73.3679C249.224 73.4859 249.375 73.6051 249.526 73.7255C250.549 74.0462 250.02 74.4562 251.17 75.3773C251.248 75.4435 251.332 75.511 251.428 75.5835C251.488 75.8522 251.71 76.1762 251.986 76.5356C252.246 76.9149 252.64 77.235 252.754 77.9378C252.773 78.1096 252.778 78.2821 252.766 78.4483C252.753 78.5809 252.814 78.5947 252.78 78.7833C252.744 78.9714 252.606 79.286 252.387 79.5318C252.162 79.8029 251.875 80.0545 251.96 80.1289C251.614 80.3298 251.198 80.4728 250.787 80.4881C250.727 80.5055 250.666 80.5205 250.604 80.533C250.395 80.582 250.164 80.6257 249.928 80.6496C249.929 80.7094 249.929 80.7691 249.93 80.8288C249.322 80.6269 248.493 80.5119 248.111 80.3563C248.035 80.3252 248.039 80.2423 247.806 80.1516C247.69 80.1058 247.527 80.0547 247.353 79.9992C247.129 79.9276 246.886 79.8513 246.708 79.7783C246.554 79.8247 246.402 79.8711 246.249 79.9175C245.66 79.7778 245.535 79.4829 245.205 79.3552C245.145 79.3322 244.038 78.9876 243.977 78.9735C243.481 78.8561 243.549 79.0865 242.169 78.6059C242.127 78.5912 242.086 78.5755 242.049 78.5595C241.862 78.4801 241.71 78.3836 241.531 78.3321C241.459 78.3114 241.358 78.2895 241.255 78.2769C241.208 78.2711 241.15 78.2679 241.148 78.2755C241.165 78.2699 241.123 78.3184 241.39 78.2441C241.465 78.2154 241.582 78.1617 241.696 78.0247C241.808 77.8918 241.852 77.7225 241.86 77.6354C241.872 77.456 241.853 77.4531 241.864 77.474C241.952 77.8785 241.969 78.0732 242.019 78.2878C242.063 78.4883 242.109 78.633 242.155 78.6646C242.135 78.7194 242.118 78.7829 242.103 78.8558C241.979 79.4436 242.033 80.5872 241.976 80.9521C241.957 81.0753 241.839 81.1004 241.804 81.4797C241.783 81.7006 241.813 82.1713 241.796 82.5884C241.791 82.7465 241.78 82.8939 241.762 83.0079C241.695 83.436 241.564 83.5822 241.518 83.778C241.471 83.9653 241.509 84.1623 241.411 84.4379C241.272 84.8275 241.013 85.2023 240.717 85.4613C240.432 85.7047 240.139 85.9482 239.81 86.1703C239.57 86.3313 239.286 86.4878 238.956 86.5632C238.451 86.6686 238.034 86.9607 237.148 86.7265C237.065 86.7052 236.981 86.6816 236.897 86.6548C236.729 86.5577 236.579 86.4237 236.398 86.319C235.779 85.9641 235.17 85.4528 234.715 84.8204C234.049 83.9449 233.588 82.8321 233.302 81.8276C233.1 81.1315 232.916 80.4524 232.735 79.8006C232.62 79.3897 232.478 78.7015 232.312 78.1414C232.269 77.9987 232.221 77.8593 232.183 77.7754C232.174 77.7556 232.166 77.7403 232.166 77.7415C232.18 77.7462 232.137 77.7538 232.325 77.8817C232.407 77.9571 232.77 77.9927 232.913 77.8824C233.057 77.7938 233.07 77.7477 233.088 77.7299C233.112 77.6957 233.094 77.7261 233.066 77.7751C232.851 78.1574 232.781 78.3916 233.112 78.2681C233.031 78.5876 231.648 80.1958 230.548 80.6324C230.366 80.7165 230.222 80.7847 230.14 80.8266C229.681 81.0629 229.341 81.3403 228.915 81.509C228.486 81.673 228.05 81.8091 227.493 81.8037C226.784 81.7575 226.107 81.8829 224.828 81.5712C224.331 81.4533 223.641 81.0576 223.433 80.6722C223.339 80.5201 223.275 80.3524 223.234 80.1785C223.193 79.9587 223.173 79.7227 223.117 79.47C222.877 78.5545 222.791 76.7327 223.32 75.7388C223.408 75.5622 223.522 75.5431 223.699 75.3232C223.73 75.2869 223.761 75.2509 223.793 75.2154C224.381 74.5857 224.977 73.977 224.651 73.8803C225.436 73.2943 226.018 72.6447 226.665 72.059C226.752 71.9798 226.842 71.9006 226.933 71.8247C227.8 71.0935 229.097 70.0885 230.284 69.1363C230.41 69.0343 230.534 68.9339 230.65 68.8372C230.706 68.79 230.766 68.7395 230.801 68.707C230.809 68.6999 230.816 68.6928 230.81 68.6982C230.806 68.7022 230.802 68.7053 230.775 68.7351C230.761 68.7527 230.746 68.7629 230.688 68.8526C230.661 68.917 230.604 68.9159 230.54 69.2741C230.535 69.3184 230.532 69.3665 230.534 69.4234C230.536 69.5083 230.55 69.6077 230.585 69.7123C230.648 69.922 230.831 70.142 230.981 70.2363C231.25 70.413 231.46 70.4074 231.531 70.4123C231.826 70.4021 231.802 70.3742 231.846 70.3684C231.876 70.3588 231.886 70.3547 231.896 70.3513C231.911 70.3455 231.911 70.3453 231.909 70.3464C231.903 70.349 231.885 70.3574 231.863 70.3673C231.263 70.6249 230.873 70.7207 230.466 70.8605C230.155 70.9634 229.858 71.0705 229.604 71.1664C228.517 71.5515 228.652 71.7458 226.786 71.94C226.779 71.9405 226.772 71.9409 226.765 71.9413C226.404 71.9584 226.041 71.969 225.583 71.9834C224.475 71.9886 223.435 71.8949 222.186 71.5194C222.08 71.4476 221.979 71.3692 221.885 71.2856C221.127 70.5646 220.236 69.9215 220.077 68.6642C219.974 68.5358 219.879 68.3838 219.805 68.2093C219.787 67.9595 219.814 67.6957 219.882 67.4537C219.886 67.4508 219.89 67.4479 219.894 67.445C219.962 67.4186 220.031 67.3897 220.1 67.3635C220.416 66.3306 220.896 64.8556 221.841 64.1338C221.99 64.0158 222.174 63.8872 222.395 63.7668C223.281 63.2635 224.632 62.9074 225.836 62.7273C226.938 62.557 227.967 62.4348 228.563 62.3799C229.292 62.3147 229.315 62.1816 229.767 62.3899C229.771 62.3888 229.775 62.3877 229.78 62.3867C229.933 62.3482 230.085 62.3096 230.232 62.2702C230.321 62.1984 230.408 62.1263 230.489 62.0537C230.605 62.0345 230.737 62.0103 230.787 61.9983C230.796 61.9969 230.802 61.9935 230.762 62.0122C230.74 62.0238 230.706 62.0371 230.628 62.0977C230.581 62.1374 230.532 62.1743 230.453 62.2908C230.385 62.3874 230.298 62.6048 230.315 62.8119C230.369 63.2518 230.548 63.3334 230.594 63.3908C230.658 63.4447 230.681 63.4542 230.698 63.464C230.729 63.4799 230.723 63.4737 230.713 63.4685C230.075 63.1867 229.407 62.8842 228.819 62.6574C228.2 62.3943 227.617 62.301 226.624 61.7053C226.164 61.3775 225.446 60.8385 225.167 59.9734C224.96 59.3541 224.801 58.7444 224.732 58.1768C224.688 57.7172 224.689 57.1709 224.86 56.5105C224.92 56.3115 225.018 56.0893 225.208 55.8989C225.488 55.5905 225.662 55.2648 226.375 54.9911C227.235 54.6669 228.447 54.7115 229.478 54.9237C230.275 55.0739 231.108 55.2922 231.666 55.495C232.036 55.6257 232.235 55.6368 232.485 55.7494C232.587 55.7966 232.686 55.8447 232.783 55.8948C233.601 56.3182 234.287 56.7122 235.124 57.1858C235.932 58.0369 235.673 58.2052 235.741 58.6204C235.752 58.7139 235.778 58.8574 235.789 59.0144C235.805 59.3733 235.856 59.9375 235.696 59.8942C235.672 59.892 235.632 59.7255 235.623 59.7287C235.602 59.7575 235.613 59.9004 235.608 59.9206C235.6 59.9908 235.568 59.9933 235.534 60.0047C235.465 60.0199 235.389 60.0286 235.351 60.0892C235.243 59.9513 235.092 59.761 234.976 59.6076C234.642 59.2095 234.284 58.8156 233.734 58.2686C233.193 57.9104 232.619 57.5776 232.034 57.2599C231.197 56.7952 230.303 56.5927 229.265 56.4642C229.112 56.4437 228.964 56.4274 228.814 56.4151C228.665 56.3322 228.506 56.2532 228.35 56.1803C228.35 56.1801 228.35 56.18 228.35 56.1798C227.672 56.0927 227.412 56.332 227.118 56.4474C226.788 56.5842 226.508 56.7537 226.236 57.0411C226.409 56.8394 226.292 57.0013 226.324 57.1837C226.335 57.3732 226.371 57.6083 226.422 57.8519C226.525 58.3429 226.681 58.879 226.861 59.4245C226.946 59.6965 227.207 59.9671 227.687 60.331C228.505 60.797 230.124 61.3658 231.34 61.8939C231.394 61.9167 231.445 61.9382 231.527 61.9838C231.565 62.0057 231.613 62.0333 231.684 62.0902C231.744 62.1502 231.871 62.2153 231.978 62.5266C232.03 62.6925 232.018 62.9156 231.95 63.0747C231.889 63.2239 231.803 63.3176 231.752 63.3678C231.631 63.4798 231.569 63.5048 231.515 63.5347C231.41 63.586 231.346 63.6039 231.291 63.6209C231.075 63.6814 230.939 63.6982 230.788 63.7218C230.499 63.7637 230.232 63.7926 229.969 63.822C228.902 63.9418 227.9 64.0829 227.05 64.218C226.839 64.2517 226.517 64.3111 226.143 64.3857C225.09 64.5753 223.749 65.0325 223.243 65.2943C223.187 65.3178 223.14 65.3378 223.102 65.3513C222.985 65.3939 222.891 65.3288 222.778 65.4146C222.121 66.0258 221.724 66.9607 221.489 67.9133C221.452 68.1037 221.517 68.3081 221.713 68.5804C221.966 69.0405 222.465 69.5013 222.99 69.948C223.638 70.5182 225.211 70.2473 226.536 70.0709C227.487 69.9274 228.488 69.5967 229.487 69.2885C229.644 69.2397 229.804 69.1901 229.965 69.1417C230.379 69.0151 230.843 68.8817 231.139 68.7481C231.154 68.7411 231.172 68.7326 231.2 68.7201C231.215 68.7136 231.231 68.7065 231.261 68.695C231.276 68.6892 231.295 68.6817 231.33 68.6714C231.348 68.6661 231.376 68.6582 231.415 68.651C231.439 68.6468 231.475 68.6411 231.523 68.6392C231.564 68.6407 231.646 68.6254 231.825 68.6891C231.911 68.7246 232.017 68.7718 232.139 68.9174C232.253 69.0544 232.304 69.2362 232.307 69.3627C232.31 69.5348 232.271 69.624 232.246 69.6884C232.207 69.7767 232.182 69.8085 232.163 69.836C232.133 69.8778 232.113 69.8997 232.101 69.9139C232.072 69.9453 232.057 69.9597 232.044 69.9727C232.015 70.0004 231.997 70.0172 231.976 70.0355C231.901 70.1028 231.839 70.1554 231.774 70.2097C231.646 70.317 231.521 70.4187 231.395 70.5219C230.191 71.5011 228.985 72.4642 227.821 73.447C226.816 74.3058 225.828 75.2029 225.11 76.1854C224.572 76.9419 224.621 78.4329 225.02 79.5563C224.991 79.9262 226.298 80.0679 227.511 80.0316C228.018 80.0349 228.933 79.5556 229.744 79.1222C230.394 78.7765 230.981 78.1555 231.474 77.4521C231.578 77.3035 231.681 77.1462 231.783 76.9784C231.783 76.9836 231.783 76.9563 231.903 76.7989C231.969 76.7337 232.093 76.5215 232.526 76.457C232.969 76.4289 233.156 76.6298 233.242 76.6965C233.527 76.9965 233.491 77.0397 233.557 77.1472C233.643 77.3296 233.697 77.4713 233.754 77.6225C234.209 78.8877 234.592 80.1705 234.889 81.2459C234.896 81.2738 234.903 81.3007 234.91 81.3266C235.051 81.8671 234.991 82.1963 235.422 82.8131C235.384 82.841 235.346 82.869 235.308 82.8974C235.546 83.2835 235.774 83.5211 236.051 83.8318C236.179 83.9707 236.319 84.1123 236.49 84.2705C236.728 84.5015 237.248 84.8665 237.863 85.1286C237.836 85.1282 238.034 85.1599 238.204 85.1465C238.381 85.1383 238.557 85.1173 238.681 85.1039C238.705 85.1013 238.725 85.0995 238.745 85.0983C238.819 85.1002 238.809 85.1871 238.939 85.1273C239.079 85.0633 239.34 84.7977 239.641 84.4278C239.791 84.2351 239.868 84.0241 239.94 83.7925C240.039 83.497 240.162 82.9435 240.228 82.4501C240.263 82.2033 240.283 81.9675 240.285 81.8008C240.296 80.868 240.235 79.872 240.201 78.8428C240.195 78.6386 240.188 78.4363 240.181 78.2369C240.174 78.0525 240.161 77.7981 240.149 77.7787C240.148 77.7708 240.137 77.7367 240.129 77.62C240.124 77.5198 240.119 77.2185 240.351 76.9306C240.585 76.6582 240.804 76.6148 240.914 76.5846C241.025 76.5599 241.095 76.558 241.148 76.5563C241.352 76.5564 241.416 76.5754 241.502 76.5882C241.659 76.6164 241.778 76.6466 241.896 76.6772C242.131 76.7391 242.346 76.8047 242.564 76.8746C242.607 76.8885 242.652 76.9033 242.696 76.918C243.211 77.0889 243.824 77.4071 243.984 77.4557C244.296 77.5502 244.422 77.476 244.634 77.5305C245.536 77.762 246.806 78.2695 247.79 78.6133C247.975 78.6779 248.15 78.7345 248.309 78.7807C249.083 79.001 249.75 79.1524 250.461 79.0615C250.722 79.0356 250.969 78.8882 251.276 78.538C251.353 78.4543 251.42 78.2687 251.41 77.9701C251.422 78.0457 251.391 77.9018 251.303 77.766C251.218 77.6239 251.1 77.4605 250.973 77.297C250.717 76.9685 250.423 76.6316 250.127 76.2953C249.605 75.7116 248.967 75.1381 248.341 74.5826C248.282 74.5298 248.22 74.4759 248.158 74.4209C247.56 73.892 246.821 73.3636 245.923 72.9111C245.761 72.8264 245.493 72.7331 245.225 72.6499C245.089 72.6074 244.949 72.5665 244.794 72.5187C244.714 72.4936 244.641 72.472 244.522 72.4271C244.491 72.4149 244.456 72.4012 244.405 72.3768C244.379 72.3646 244.34 72.3447 244.294 72.3163C244.265 72.2983 244.226 72.2723 244.179 72.2334C244.146 72.2018 244.043 72.1279 243.944 71.9337C243.902 71.8498 243.834 71.6722 243.855 71.4554C243.866 71.2484 243.995 71.03 244.05 70.9704C244.188 70.8001 244.337 70.7342 244.372 70.7165C244.482 70.6654 244.545 70.6535 244.579 70.6446C244.666 70.6256 244.695 70.6237 244.74 70.6183C246.083 70.5362 247.069 70.7007 247.894 70.7851C248.335 70.8394 248.207 70.9493 248.577 70.9803C248.988 71.0147 249.216 70.952 249.407 70.9607C250.106 70.9904 251.258 71.0511 252.32 71.0369C253.288 71.0256 254.2 70.9587 254.746 70.9134C254.967 70.8967 255.142 70.9594 255.272 70.9326C255.338 70.919 255.472 70.8261 255.668 70.768C255.948 70.6851 256.206 70.5918 256.463 70.4876C257.279 70.1564 258.009 69.7465 258.39 69.2691C258.367 69.3348 258.451 69.1172 258.461 68.8835C258.481 68.6424 258.482 68.3552 258.478 68.0496C258.475 67.8896 258.472 67.7265 258.468 67.5594C258.454 66.7586 258.254 65.9201 257.935 65.0761C257.808 64.7179 257.494 64.4233 257.019 64.0915C256.129 63.4825 254.874 63.1151 253.653 62.74C252.897 62.5056 252.089 62.4819 251.195 62.489C251.104 62.4888 251.016 62.4932 250.926 62.5023C250.284 62.5692 249.74 62.7009 249.643 62.7503C249.437 62.8753 249.373 63.0547 248.989 63.3773C248.711 63.6128 248.406 63.8797 248.07 64.1621C247.208 64.8821 246.377 65.6631 245.602 66.5613C245.572 66.586 245.582 66.6047 245.408 66.7092C245.357 66.7348 245.288 66.7749 245.134 66.7963C245.057 66.8054 244.954 66.8071 244.832 66.7733C244.713 66.7451 244.534 66.6397 244.441 66.5182C244.245 66.2606 244.269 66.0795 244.267 65.9895C244.272 65.8943 244.286 65.8488 244.296 65.8127C244.337 65.6839 244.347 65.6853 244.35 65.6745C244.355 65.6643 244.359 65.6564 244.363 65.6494C244.379 65.6212 244.386 65.6091 244.392 65.6C244.404 65.5795 244.414 65.5644 244.422 65.5513C244.442 65.5207 244.454 65.5015 244.471 65.4766C244.5 65.4317 244.531 65.3866 244.559 65.3451C244.616 65.2597 244.673 65.1766 244.727 65.0964C244.838 64.9342 244.943 64.7779 245.043 64.6279C245.514 63.9162 246.089 62.8807 246.577 62.194C246.612 62.1439 246.653 62.0879 246.699 62.0272C247.096 61.5568 247.539 60.5597 247.515 60.3129C247.513 60.156 247.398 60.0591 247.417 59.8817ZM258.92 63.5715C258.788 63.5849 259.026 63.8582 259.209 64.1314C259.392 64.3992 259.547 64.6384 259.479 64.3084C259.464 64.1436 258.997 63.5437 258.92 63.5715ZM234.375 83.622C234.326 83.6621 234.278 83.7024 234.23 83.7429C234.338 83.8877 234.452 84.0283 234.57 84.1626C234.547 84.059 234.526 83.9554 234.509 83.8519C234.463 83.7761 234.418 83.6991 234.375 83.622Z" fill="black"/>
<circle cx="114.63" cy="181.892" r="38.63" fill="#D1F76E"/>
<path d="M117.103 187.27C117.144 187.137 117.321 186.991 117.377 186.837C117.435 186.678 117.475 186.541 117.496 186.475C117.54 186.389 117.596 186.204 117.437 185.779C117.324 185.462 116.965 184.916 116.443 184.217L116.719 184.49C116.619 184.397 116.469 184.321 116.131 184.242L116.21 184.249C115.392 184.13 114.599 183.985 114.613 183.651C114.613 183.651 114.613 183.651 114.613 183.651C114.613 183.644 114.613 183.636 114.614 183.629C114.628 183.484 114.959 183.328 115.009 183.165C115.059 183.002 115.025 181.945 115.506 181.891C115.715 181.871 116.005 181.881 116.357 181.924C116.369 181.925 116.404 181.928 116.416 181.93C116.934 182.011 117.671 182.296 118.072 182.677C118.111 182.708 118.212 182.805 118.242 182.845C118.361 183.042 118.467 183.208 118.53 183.287C118.692 183.489 118.963 183.698 119.168 183.99C119.766 184.924 120.088 185.515 120.18 186.886C120.182 186.941 120.182 187.004 120.183 187.057C119.949 187.517 119.678 187.863 119.383 188.195C119.227 188.733 118.609 189.336 118.396 189.584C118.225 189.797 118.191 189.991 117.975 190.195C117.731 190.424 117.258 190.648 116.725 190.913C116.409 191.07 116.187 191.183 116.002 191.289C115.716 191.463 115.563 191.63 115.232 191.726C114.694 191.884 113.822 191.874 113.115 192.023C113.027 192.061 112.939 192.098 112.849 192.134C112.918 192.201 112.989 192.267 113.059 192.333C112.689 192.39 112.523 192.251 112.18 192.249C111.775 192.244 111.556 192.367 111.271 192.342C111.038 192.32 110.736 192.172 110.43 192.118C109.982 192.032 110.04 192.203 109.782 192.164C109.734 192.154 109.289 192.055 108.81 191.839C108.331 191.634 107.844 191.27 107.716 191.151C107.705 191.141 107.697 191.134 107.693 191.13C107.158 190.632 107.258 190.425 106.875 189.929C106.427 189.328 105.998 188.578 105.813 187.732C105.608 186.874 105.446 185.994 105.393 185.159C105.351 184.511 105.395 183.83 105.499 183.192C105.944 184.231 106.625 182.125 105.664 182.818C105.719 182.641 105.753 182.476 105.775 182.314C105.834 181.876 105.783 181.471 105.912 181.001C106.026 180.591 106.205 180.331 106.369 179.732C106.606 178.816 106.869 177.61 107.491 177.342C107.568 177.316 107.65 177.307 107.735 177.319C108.364 176.18 109.354 175.536 109.37 174.811C109.524 174.649 109.941 174.465 110.316 174.33C110.514 174.267 110.703 174.202 110.82 174.14C111.055 173.969 113.454 172.66 113.967 172.61C114.387 172.464 115.144 172.311 115.562 172.244C115.58 172.241 115.598 172.237 115.615 172.233C116.044 172.139 116.328 171.543 117.158 172.172C118.088 172.094 118.428 172.105 119.334 172.275C119.5 172.31 119.504 172.411 119.602 172.426C119.8 172.458 120.161 172.446 120.551 172.573C120.671 172.613 120.784 172.665 120.881 172.719C121.204 172.909 121.342 173.081 121.414 172.829C121.773 172.953 122.134 173.095 122.494 173.262C122.577 173.388 122.657 173.515 122.734 173.643C122.942 173.708 123.151 173.782 123.361 173.866C122.893 174.047 124.16 174.842 123.993 174.329C124.203 174.59 124.397 174.864 124.571 175.15C124.778 175.502 124.986 175.865 125.182 176.237C124.713 176.445 125.991 177.57 126.156 177.327C126.199 177.4 126.24 177.472 126.281 177.545C126.519 178.248 126.916 178.799 127.16 179.649C127.185 179.735 127.205 179.812 127.223 179.882C127.364 180.459 127.291 180.444 127.173 180.734C127.256 180.91 127.34 181.087 127.423 181.264C128.403 181.989 127.289 182.212 128.364 183.704C128.162 184.383 128.83 185.598 129.08 186.613C129.109 186.732 129.19 186.725 129.226 186.894C129.236 186.942 129.243 187 129.247 187.064C129.282 187.464 129.228 188.173 129.455 188.148C129.378 188.467 129.294 188.786 129.2 189.105C129.23 189.372 129.253 189.645 129.263 189.924C129.343 189.933 129.423 189.943 129.503 189.952C129.169 190.473 129.046 191.367 128.804 191.765C128.758 191.843 128.651 191.822 128.511 192.057C128.439 192.176 128.352 192.346 128.252 192.523C128.117 192.761 127.967 192.984 127.835 193.139C127.855 193.324 127.871 193.51 127.883 193.698C127.539 194.256 127.141 194.213 126.883 194.474C126.841 194.527 126.036 195.423 125.99 195.468C125.649 195.876 125.97 195.995 124.774 196.978C124.558 197.151 124.328 197.219 124.134 197.373C124.13 197.377 124.125 197.381 124.12 197.385C123.782 197.672 122.878 198.622 122.891 198.843C122.315 198.968 121.055 199.815 120.585 199.91C120.449 199.943 120.36 199.814 119.961 199.927C119.94 199.933 119.917 199.94 119.892 199.948C119.575 200.053 118.941 200.399 118.577 200.498C118.166 200.609 117.978 200.524 117.791 200.569C117.614 200.611 117.479 200.762 117.23 200.822C116.683 200.954 116.13 200.957 115.626 200.933C115.431 200.923 115.244 200.915 115.066 200.919C114.198 200.938 113.426 201.234 112.679 201.327C112.499 201.294 112.326 201.211 112.136 201.194C111.049 201.094 109.904 200.911 108.774 200.646C107.503 200.345 106.172 200.008 104.947 199.42C104.734 199.318 104.464 199.162 104.184 198.975C103.182 198.317 101.914 197.28 102.083 198.086C101.818 198.019 100.71 197.138 100.004 196.291C99.6951 195.926 99.4363 195.611 99.3201 195.487C98.9648 195.107 98.5867 194.886 98.3097 194.57C97.569 193.707 97.0953 192.999 96.3888 191.852C96.3117 191.725 96.2306 191.591 96.1452 191.449C95.9355 191.104 95.6092 190.758 95.5143 190.521C95.3996 190.237 95.4217 189.874 95.314 189.49C95.0963 188.78 94.8659 187.518 94.9023 186.575C94.9066 186.338 94.9135 186.123 94.9238 185.944C94.9326 185.796 95.0651 185.748 95.1124 185.538C95.2952 184.722 95.3361 183.798 94.9086 183.937C95.2094 182.884 95.0814 181.876 95.2447 180.841C95.3272 180.334 95.4502 179.722 95.6784 179.04C96.2915 177.103 97.4064 174.635 98.18 173.332C98.2654 173.177 98.3379 173.043 98.4024 172.923C98.7564 172.259 98.7532 172.028 99.7903 170.952C100.062 170.675 100.347 170.41 100.694 170.087C101.513 169.321 102.476 168.886 102.859 168.022C103.083 167.865 103.296 167.715 103.502 167.572C104.202 167.091 104.804 166.671 105.533 166.509C105.57 166.379 105.608 166.249 105.648 166.119C105.769 166.035 105.892 165.951 106.015 165.869C106.099 165.912 106.182 165.956 106.265 165.999C106.676 165.748 107.105 165.411 107.568 165.087C108.083 164.719 108.607 164.354 109.066 164.153C110.204 163.578 113.182 162.823 114.979 162.867C115.33 162.862 115.637 162.863 115.874 162.869C116.616 162.891 116.652 162.717 117.086 163.064C117.251 163.035 117.416 163.006 117.581 162.979C117.684 162.898 117.788 162.818 117.892 162.739C118.784 162.73 119.831 162.861 120.75 162.992C120.819 163.002 120.887 163.011 120.953 163.02C122.586 163.189 125.33 163.706 126.766 164.944C127.074 165.189 127.37 165.573 127.647 165.86C127.691 165.907 127.737 165.952 127.783 165.992C128.233 166.393 128.532 166.292 129.093 166.861C129.652 167.431 130.356 168.447 130.838 169.479C131.162 170.167 131.459 170.821 131.706 171.269C131.879 171.585 132.046 171.691 132.169 171.909C132.684 172.828 133.044 173.611 133.587 174.491C133.77 175.608 133.41 175.641 133.215 176.071C133.069 176.4 132.75 177.305 132.561 177.462C132.432 177.575 132.161 177.381 132.027 177.528C131.532 176.451 131.47 175.929 131.296 174.913C130.626 173.415 129.854 171.947 129.027 170.51C128.93 170.341 128.827 170.175 128.719 170.012C128.712 169.83 128.7 169.645 128.681 169.458C128.681 169.458 128.681 169.458 128.682 169.458C128.362 168.839 127.973 168.776 127.689 168.543C127.278 168.212 126.81 167.839 126.279 167.432C124.869 166.3 122.811 165.531 120.469 165.214C118.662 164.962 116.697 164.991 115.135 165.059C114.832 165.073 114.544 165.095 114.272 165.125C113.408 165.145 110.846 166.019 110.268 166.169C110.114 166.192 110.017 166.076 109.866 166.137C109.41 166.374 108.962 166.63 108.514 166.898C107.736 167.37 106.973 167.947 106.23 168.543C105.784 168.813 105.346 169.106 104.916 169.414C103.115 170.689 101.73 172.508 100.44 174.388C100.292 174.603 100.15 174.822 100.014 175.044C99.1251 176.487 98.526 178.11 97.9846 179.81C97.3822 181.839 97.3623 184.277 97.3229 186.62C97.2964 188.06 97.7457 189.359 98.4997 190.722C99.2604 192.119 100.434 193.381 101.675 194.633C102.136 195.1 102.667 195.523 103.242 195.917C103.81 196.31 104.51 196.697 105.241 197.085C105.982 197.48 106.812 197.743 107.577 197.987C108.168 198.172 108.377 198.459 109.24 198.471C109.241 198.471 109.243 198.471 109.245 198.471C109.241 198.534 109.236 198.597 109.232 198.66C109.959 198.734 110.44 198.675 111.241 198.77C111.916 198.864 113.714 198.977 114.309 198.987C114.619 198.999 114.505 199.117 114.794 199.112C114.976 199.108 115.234 199.079 115.513 199.034C115.939 198.963 116.446 198.798 116.843 198.694C117.405 198.557 118.449 198.333 118.916 198.143C119.011 198.105 119.107 198.066 119.204 198.026C120.405 197.534 121.502 196.584 122.673 195.618C122.855 195.469 123.034 195.321 123.215 195.173C123.606 194.857 124.181 194.521 124.291 194.407C124.506 194.185 124.467 194.014 124.596 193.855C125.139 193.19 126.103 192.248 126.542 191.563C126.631 191.423 126.704 191.286 126.762 191.157C127.27 190.067 127.286 188.648 127.247 187.099C127.115 185.598 126.183 183.481 125.513 181.658C125.4 181.361 125.275 181.035 125.142 180.689C124.63 179.304 123.746 177.806 122.774 176.561C122.448 176.124 122.075 175.764 121.738 175.476C121.444 175.232 121.618 175.158 121.338 174.976C121.022 174.778 120.788 174.778 120.629 174.704C120.471 174.63 120.282 174.547 120.068 174.458C119.221 174.089 116.816 174.299 115.8 174.297C115.78 174.297 115.759 174.296 115.739 174.294C115.571 174.274 115.429 174.189 115.322 174.209C115.262 174.219 115.146 174.328 114.968 174.384C113.739 174.782 112.837 175.449 111.658 176.247C111.363 176.446 111.072 176.668 110.783 176.928C110.265 177.393 109.803 177.953 109.378 178.6C108.723 179.61 108.415 181.188 108.17 182.714C107.929 184.239 107.959 185.782 108.192 187.253C108.194 187.268 108.197 187.282 108.199 187.297C108.266 187.831 108.351 188.34 108.407 188.424C108.543 188.602 108.751 188.611 109.104 188.917C109.221 189.017 109.345 189.122 109.477 189.233C110.266 189.948 112.386 190.145 113.765 189.845C114.277 189.745 114.9 189.514 115.455 189.278C115.664 189.179 115.842 189.067 115.994 188.966C116.378 188.787 117.172 187.971 117.176 187.698C117.193 187.552 117.059 187.416 117.103 187.27ZM106.704 179.133C106.915 179.356 107.223 177.966 106.875 178.393C106.787 178.493 106.639 179.079 106.704 179.133ZM109.119 200.239C109.113 200.323 109.108 200.407 109.103 200.491C109.276 200.491 109.448 200.488 109.619 200.485C109.536 200.419 109.451 200.352 109.369 200.285C109.286 200.27 109.202 200.255 109.119 200.239Z" fill="black"/>
<mask id="mask0_3599_1118" style="mask-type:alpha" maskUnits="userSpaceOnUse" x="190" y="148" width="93" height="68">
<rect width="91.8" height="66.3537" transform="matrix(1 0 0 -1 190.26 215.07)" fill="#D9D9D9"/>
</mask>
<g mask="url(#mask0_3599_1118)">
<g clip-path="url(#clip0_3599_1118)">
<ellipse cx="208.216" cy="165.811" rx="12.8751" ry="13.8746" transform="rotate(-28.6896 208.216 165.811)" fill="#5BB42B"/>
<ellipse cx="12.8751" cy="13.8746" rx="12.8751" ry="13.8746" transform="matrix(-0.877234 -0.480064 -0.480064 0.877234 282.109 159.461)" fill="#5BB42B"/>
<path d="M277.873 188.096C277.873 205.085 259.149 210.718 236.391 210.718C213.632 210.718 194.77 205.085 194.77 188.096C194.77 163.691 213.632 153.223 236.391 153.223C259.149 153.223 277.873 161.758 277.873 188.096Z" fill="#5BB42B"/>
<path d="M210.553 165.781V170.935" stroke="#123041" stroke-width="4.83158" stroke-linecap="round"/>
<path d="M265.311 165.461V170.615" stroke="#123041" stroke-width="4.83158" stroke-linecap="round"/>
<path d="M203.468 182.211H208.943" stroke="#A1DC3C" stroke-width="6.4421" stroke-linecap="round"/>
<path d="M263.057 182.211H268.533" stroke="#A1DC3C" stroke-width="6.4421" stroke-linecap="round"/>
<path d="M244.054 177.074C244.054 173.204 244.054 171.258 236.806 171.258C229.559 171.258 229.559 172.858 229.559 177.074C229.559 183.981 232.804 188.008 236.806 188.008C240.809 188.008 244.054 183.498 244.054 177.074Z" fill="#D52C2F"/>
<path d="M236.807 188.012C239.611 188.012 242.041 185.798 243.246 182.264C241.844 180.626 239.772 179.205 237.267 178.327C234.535 177.369 231.801 177.236 229.572 177.793C229.788 184.262 232.944 188.012 236.807 188.012Z" fill="#FF686B"/>
</g>
</g>
<path d="M289.495 203.574C289.562 203.321 289.719 203.071 289.856 202.902C289.898 202.849 289.928 202.904 289.96 202.87C290.022 202.802 290.04 202.719 290.106 202.657C290.128 202.637 290.181 202.711 290.202 202.689C290.235 202.655 290.262 202.621 290.289 202.585C290.364 202.481 290.428 202.373 290.519 202.275C291.132 201.609 291.894 201.136 292.742 200.919C292.881 200.884 293.041 200.866 293.202 200.855C293.388 200.839 293.575 200.844 293.749 200.844C293.789 200.844 293.773 200.768 293.782 200.763C293.917 200.686 293.857 200.829 293.93 200.861C294.22 200.992 294.499 201.128 294.738 201.244C294.84 201.294 294.825 201.11 294.875 201.242C294.879 201.251 294.812 201.3 294.832 201.324C294.879 201.377 294.989 201.442 295.026 201.479C295.096 201.551 295.108 201.561 295.178 201.621C295.272 201.705 295.351 201.833 295.455 201.911C295.477 201.927 295.508 201.845 295.548 201.866C295.59 201.888 295.665 201.975 295.678 202.015C295.68 202.02 295.68 202.025 295.68 202.029C295.69 202.076 295.638 202.095 295.636 202.111C295.606 202.251 295.837 202.312 295.852 202.338C296.107 202.715 296.02 203.039 296.033 203.345C296.038 203.581 296.055 203.828 296.029 204.043C296.023 204.091 296.015 204.138 296.007 204.182C295.912 204.54 295.824 204.526 295.748 204.628C295.672 204.706 295.599 204.773 295.529 204.848C295.51 204.867 295.599 204.912 295.576 204.936C295.336 205.187 295.084 205.392 294.795 205.557C294.766 205.573 294.744 205.483 294.712 205.496C294.516 205.575 294.174 205.649 294.314 206.001C294.201 206.078 294.068 206.169 293.928 206.19C293.839 206.203 293.84 206.086 293.791 206.175C293.78 206.196 293.852 206.239 293.832 206.265C293.781 206.327 293.721 206.376 293.659 206.43C293.613 206.472 293.567 206.516 293.532 206.566C293.515 206.59 293.565 206.641 293.567 206.656C293.577 206.779 293.384 206.713 293.358 206.717C293.156 206.754 293.071 206.861 292.932 206.958C292.9 206.981 292.993 207.031 292.964 207.055C292.812 207.181 292.641 207.29 292.459 207.362C292.419 207.378 292.405 207.289 292.384 207.294C292.289 207.313 292.358 207.45 292.269 207.471C292.25 207.475 292.22 207.412 292.213 207.407C292.104 207.337 292.161 207.502 292.152 207.513C292.041 207.648 291.854 207.559 291.734 207.668C291.719 207.681 291.804 207.731 291.761 207.764C291.472 207.981 291.139 208.167 290.805 208.3C290.753 208.321 290.75 208.245 290.743 208.24C290.625 208.165 290.689 208.326 290.677 208.342C290.617 208.418 290.513 208.424 290.461 208.483C290.432 208.514 290.418 208.559 290.429 208.634C289.888 208.908 289.437 209.349 288.794 209.467C288.786 209.469 288.761 209.387 288.746 209.391C288.557 209.429 288.647 209.53 288.592 209.729C288.577 209.779 288.413 209.639 288.4 209.628C288.353 209.591 288.336 209.464 288.323 209.458C288.26 209.432 288.292 209.557 288.304 209.671C288.271 209.781 288.026 209.827 287.924 209.729C287.918 209.722 287.995 209.686 287.98 209.665C287.936 209.6 287.889 209.585 287.884 209.535C287.88 209.422 288.049 209.311 287.898 209.271C287.879 209.264 287.676 209.386 287.64 209.277C287.625 209.234 287.553 209.06 287.55 209.006C287.547 208.953 287.63 208.961 287.632 208.956C287.68 208.793 287.737 208.831 287.854 208.719C287.973 208.61 287.646 208.739 287.6 208.725C287.554 208.71 287.603 208.592 287.622 208.56C287.642 208.528 287.697 208.543 287.706 208.517C287.765 208.353 287.522 208.51 287.454 208.482C287.296 208.415 287.52 208.257 287.516 208.154C287.515 208.126 287.465 208.164 287.452 208.143C287.405 208.056 287.467 207.979 287.366 207.894C287.349 207.881 287.174 207.837 287.27 207.752C287.283 207.74 287.352 207.745 287.355 207.702C287.359 207.636 287.344 207.528 287.305 207.47C287.277 207.428 287.189 207.51 287.205 207.443C287.212 207.413 287.285 207.444 287.294 207.39C287.302 207.334 287.266 207.212 287.251 207.164C287.236 207.118 287.164 207.165 287.158 207.163C287.122 207.148 287.059 207.067 287.057 207.059C286.989 206.828 286.97 206.594 286.938 206.365C286.916 206.199 286.881 206.036 286.809 205.883C286.796 205.855 286.722 205.903 286.719 205.899C286.65 205.812 286.892 205.815 286.938 205.718C286.779 205.787 286.794 205.735 286.749 205.672C286.727 205.641 286.672 205.684 286.664 205.683C286.55 205.672 286.659 205.59 286.68 205.57C286.758 205.5 286.635 205.51 286.686 205.461C286.736 205.412 286.848 205.426 286.817 205.358C286.752 205.365 286.626 205.479 286.58 205.441C286.457 205.338 286.389 205.106 286.335 204.915C286.307 204.823 286.297 204.751 286.285 204.7C286.245 204.523 286.224 204.47 286.222 204.366C286.224 204.18 286.12 204.27 286.044 204.168C285.968 204.066 286.27 204.066 286.329 204.039C286.389 204.012 286.321 204.007 286.352 203.981C286.383 203.956 286.433 203.99 286.438 203.942C286.443 203.896 286.31 203.792 286.242 203.787C286.097 203.776 285.961 203.857 285.992 203.727C285.994 203.72 286.075 203.73 286.078 203.702C286.103 203.481 286.075 203.263 286.097 203.045C286.1 203.014 286.19 203.028 286.193 203.011C286.223 202.828 286.087 202.912 285.913 202.837C286.13 202.829 286.254 202.759 286.237 202.626C286.227 202.546 286.135 202.572 286.063 202.529C286.041 202.517 286.097 202.451 286.052 202.447C285.904 202.432 285.75 202.507 285.796 202.361C285.798 202.355 285.88 202.363 285.882 202.342C285.887 202.289 285.867 202.256 285.839 202.228C285.794 202.182 285.728 202.147 285.707 202.054C285.68 201.933 285.759 201.71 285.777 201.572C286.019 201.575 285.966 201.455 285.803 201.39C285.816 201.3 285.818 201.199 285.857 201.114C285.871 201.085 285.936 201.118 285.944 201.116C286.071 201.084 285.922 201.012 285.921 200.99C285.921 200.805 286.044 200.685 286.136 200.533C286.156 200.498 286.173 200.459 286.185 200.412C286.187 200.404 286.077 200.275 286.204 200.324C286.212 200.328 286.217 200.429 286.29 200.368C286.365 200.304 286.555 200.266 286.619 200.131C286.633 200.098 286.632 199.936 286.744 199.995C286.759 200.004 286.775 200.05 286.799 200.067C286.874 200.123 286.812 199.963 286.92 200.069C286.938 200.087 286.957 200.104 286.975 200.119C287.069 200.191 287.136 200.228 287.208 200.128C287.21 200.125 287.213 199.986 287.255 199.983C287.319 199.977 287.41 200.001 287.475 200.002C287.506 200.003 287.489 199.919 287.495 199.917C287.721 199.881 287.867 199.988 288.073 200.082C288.11 200.099 288.264 200.029 288.308 200.144C288.354 200.269 288.122 200.616 288.327 200.598C288.404 200.589 288.732 200.167 288.736 200.476C288.824 200.5 288.899 200.544 288.968 200.596L288.957 200.586C289.078 200.729 289.172 200.891 289.348 200.99C289.36 200.996 289.496 200.93 289.515 200.955C289.542 200.99 289.507 201.054 289.524 201.081C289.596 201.196 289.719 201.253 289.791 201.362C289.818 201.403 289.752 201.432 289.783 201.481C289.814 201.529 289.913 201.507 289.921 201.599C289.927 201.668 289.801 201.82 289.82 201.894C289.98 201.799 290.006 201.845 290.095 201.906C290.113 201.917 290.16 201.868 290.171 201.872C290.219 201.889 290.187 201.944 290.235 201.959C290.247 201.962 290.304 201.934 290.317 201.935C290.429 201.949 290.341 202.103 290.324 202.127C290.261 202.223 290.349 202.219 290.331 202.278C290.313 202.336 290.244 202.285 290.242 202.345C290.236 202.467 290.284 202.601 290.305 202.713C290.314 202.758 290.391 202.71 290.394 202.716C290.414 202.76 290.407 202.809 290.414 202.851C290.416 202.895 290.436 202.933 290.525 202.958C290.089 203.041 290.571 203.015 290.485 203.158C290.478 203.169 290.27 203.183 290.24 203.143C290.209 203.103 290.272 203.04 290.223 202.986C290.211 202.972 290.013 202.908 290.001 202.899C289.99 202.891 289.984 202.884 289.983 202.877L289.988 202.921C289.97 202.871 290.21 202.817 290.224 202.81C290.396 202.727 290.17 202.679 290.151 202.662C290.061 202.575 290.076 202.478 290.002 202.412C289.953 202.369 289.762 202.44 289.753 202.401C289.721 202.274 289.946 202.091 289.665 202.091C289.604 202.092 289.429 202.23 289.527 202.055C289.533 202.045 289.626 201.892 289.516 201.909C289.502 201.912 289.448 201.948 289.44 201.945C289.383 201.925 289.406 201.868 289.354 201.838C289.302 201.808 289.233 201.778 289.211 201.715C289.197 201.677 289.26 201.562 289.27 201.528C289.301 201.432 289.157 201.477 289.213 201.385C289.269 201.291 289.434 201.241 289.423 201.127C289.294 201.234 289.159 201.342 289.028 201.449C288.906 201.3 288.811 201.119 288.666 200.98C288.648 200.963 288.601 201.044 288.58 201.027C288.566 201.016 288.554 201.004 288.543 200.991L288.657 201.084C288.593 201.037 288.549 200.962 288.462 200.939C288.382 200.919 288.262 200.966 288.181 200.956C288.215 200.76 288.074 200.772 288 200.727C287.973 200.712 287.992 200.664 287.976 200.641C287.916 200.556 287.902 200.731 287.874 200.75C287.757 200.835 287.85 200.46 287.732 200.445C287.724 200.443 287.62 200.633 287.611 200.645C287.546 200.72 287.613 200.573 287.579 200.553C287.52 200.518 287.473 200.466 287.406 200.528C287.385 200.546 287.36 200.676 287.32 200.583C287.314 200.571 287.305 200.503 287.301 200.5C287.225 200.448 287.277 200.657 287.292 200.728C287.298 200.755 287.295 200.751 287.284 200.736C287.243 200.722 287.184 200.68 287.163 200.662C287.074 200.587 287.168 200.606 287.165 200.596C287.129 200.47 287.087 200.517 287.042 200.531C286.931 200.353 286.875 200.402 286.995 200.547C287.008 200.563 287.029 200.527 287.042 200.531C287.109 200.729 287.078 200.778 286.905 200.667C286.823 200.616 286.788 200.51 286.718 200.613C286.687 200.66 286.795 200.758 286.788 200.816C286.778 200.906 286.692 200.926 286.621 200.966C286.607 200.964 286.591 200.971 286.589 200.988C286.586 201.008 286.663 201.032 286.664 201.045C286.671 201.078 286.601 201.091 286.616 201.149C286.617 201.154 286.699 201.167 286.696 201.181C286.677 201.287 286.609 201.413 286.606 201.582C286.603 201.665 286.656 201.814 286.655 201.905C286.654 201.971 286.637 202.048 286.622 202.126C286.603 202.242 286.586 202.354 286.614 202.439C286.645 202.535 286.724 202.503 286.786 202.537C286.904 202.604 286.731 202.774 286.704 202.797C286.703 202.798 286.672 202.716 286.636 202.767C286.553 202.806 286.703 202.797 286.704 202.797C286.686 202.812 286.691 202.984 286.712 203.015C286.723 203.032 286.799 203.011 286.803 203.02C286.904 203.235 286.957 203.453 286.958 203.681C286.957 203.685 286.87 203.694 286.869 203.703C286.853 203.839 286.973 203.901 287.055 203.99C287.137 204.08 287.132 204.157 286.999 204.248C287.034 204.316 286.996 204.43 286.974 204.49C286.952 204.553 287.113 204.496 287.117 204.498C287.141 204.507 287.157 204.512 287.164 204.508C287.254 204.609 287.24 204.73 287.305 204.893C287.343 204.986 287.452 205.167 287.512 205.267C287.56 205.346 287.542 205.412 287.595 205.481C287.602 205.49 287.669 205.454 287.673 205.456C287.79 205.514 287.6 205.533 287.575 205.562C287.485 205.667 287.437 205.725 287.525 205.816C287.546 205.837 287.823 205.832 287.852 205.876C287.889 205.931 287.791 205.936 287.831 205.992C287.834 205.997 287.891 205.98 287.899 206.02C287.905 206.047 287.91 206.074 287.915 206.102C287.941 206.253 287.959 206.413 288.004 206.561C288.011 206.585 288.093 206.53 288.105 206.563C288.159 206.722 288.203 206.898 288.204 207.064C288.203 207.105 288.134 207.099 288.117 207.112C288.018 207.195 288.203 207.222 288.209 207.232C288.367 207.494 288.278 207.752 288.433 208.013C288.442 208.027 288.652 208.089 288.519 208.187C288.51 208.194 288.372 208.292 288.491 208.305C288.499 208.305 288.567 208.249 288.577 208.306C288.586 208.362 288.667 208.432 288.606 208.532C288.586 208.563 288.455 208.672 288.599 208.693C288.61 208.696 288.913 208.68 288.741 208.784C288.713 208.8 288.518 208.883 288.644 208.899C288.668 208.9 288.702 208.862 288.741 208.875C288.769 208.883 288.777 208.902 288.78 208.901C288.776 208.896 288.807 208.887 288.704 208.737C288.69 208.72 288.667 208.666 288.554 208.592C288.455 208.519 288.146 208.431 287.879 208.537C287.891 208.531 287.907 208.535 287.93 208.561C287.942 208.574 287.955 208.644 287.98 208.643C288.097 208.638 288.184 208.548 288.309 208.541C288.354 208.539 288.385 208.65 288.439 208.657C288.492 208.665 288.588 208.648 288.605 208.579C288.622 208.51 288.49 208.376 288.544 208.33C288.778 208.127 289.106 208.046 289.394 207.876C289.437 207.851 289.368 207.819 289.427 207.778C289.531 207.708 289.665 207.602 289.806 207.506C289.975 207.392 290.15 207.299 290.298 207.29C290.52 207.277 290.361 207.481 290.51 207.438C290.581 207.418 290.531 207.199 290.542 207.184C290.645 207.037 290.793 207.052 290.902 206.947C290.925 206.925 290.853 206.87 290.873 206.852C290.94 206.791 291.039 206.772 291.106 206.72C291.136 206.696 291.095 206.645 291.126 206.63C291.203 206.594 291.279 206.576 291.381 206.582C291.39 206.583 291.394 206.678 291.447 206.647C291.533 206.595 291.67 206.576 291.73 206.46C291.747 206.426 291.665 206.301 291.783 206.346C291.807 206.355 291.893 206.514 291.875 206.338C291.873 206.309 291.87 206.057 292.004 206.128C292.039 206.146 292.161 206.24 292.181 206.197C292.184 206.191 292.12 206.138 292.142 206.113C292.223 206.023 292.328 205.959 292.409 205.868C292.431 205.843 292.344 205.805 292.377 205.77C292.469 205.677 292.608 205.597 292.72 205.541C292.762 205.52 292.78 205.594 292.787 205.597C292.905 205.659 292.827 205.511 292.834 205.493C292.841 205.478 292.848 205.465 292.857 205.453C292.919 205.374 293.015 205.367 293.077 205.292C293.097 205.269 293.03 205.222 293.031 205.213C293.035 205.121 293.089 205.259 293.129 205.246C293.243 205.209 293.333 205.126 293.412 205.047C293.441 205.018 293.347 204.978 293.374 204.952C293.531 204.801 293.707 204.664 293.898 204.566C293.935 204.548 293.961 204.617 293.978 204.624C294.094 204.671 294.057 204.502 294.061 204.479C294.082 204.373 294.148 204.398 294.197 204.339C294.312 204.2 294.454 204.065 294.584 203.945C294.648 203.886 294.711 203.829 294.752 203.79C294.772 203.772 294.787 203.756 294.786 203.763C294.788 203.783 294.755 203.761 294.709 204.028C294.711 204.019 294.713 204.01 294.714 204C294.792 203.598 294.866 203.253 294.792 202.997C294.788 202.982 294.701 203.018 294.696 203.007C294.669 202.935 294.641 202.915 294.701 202.979C294.601 202.872 294.505 202.773 294.402 202.696C294.385 202.683 294.348 202.769 294.319 202.75C294.258 202.713 294.199 202.656 294.167 202.595C294.151 202.565 294.231 202.532 294.214 202.502C294.173 202.434 294.113 202.384 294.048 202.36C294.02 202.35 294.008 202.449 293.978 202.431C293.758 202.316 293.656 202.306 293.475 202.206C293.464 202.201 293.437 202.078 293.411 202.057C293.404 202.053 293.397 202.054 293.391 202.061C293.397 202.112 293.408 202.171 293.416 202.224C293.024 202.327 292.592 202.45 292.245 202.706C292.23 202.717 292.314 202.775 292.287 202.795C292.131 202.917 292.02 203.063 291.817 203.162C291.797 203.172 291.669 203.057 291.651 203.124C291.647 203.135 291.609 203.227 291.627 203.268C291.629 203.273 291.704 203.305 291.69 203.33C291.672 203.361 291.654 203.391 291.634 203.422C291.547 203.563 291.447 203.695 291.34 203.813C291.319 203.838 291.259 203.768 291.243 203.785C291.128 203.908 291.114 204.09 291.001 204.181C290.925 204.241 290.796 204.167 290.643 204.174C290.621 204.177 290.607 204.224 290.525 204.212C290.314 204.19 290.094 204.106 289.869 204.084C289.845 204.082 289.837 204.123 289.826 204.172C289.815 204.226 289.797 204.27 289.744 204.161C289.736 204.134 289.722 203.993 289.691 203.961C289.669 203.935 289.577 203.95 289.553 203.901C289.53 203.851 289.61 203.83 289.589 203.762C289.567 203.694 289.467 203.684 289.495 203.574ZM286.906 204.78C286.861 204.874 287.133 204.749 287.038 204.719C287.033 204.718 286.908 204.776 286.906 204.78ZM288.975 200.966C289.014 200.815 288.836 200.909 288.801 201.021C288.766 201.131 288.963 201.012 288.975 200.966ZM289.598 201.542C289.622 201.403 289.28 201.654 289.407 201.678C289.414 201.679 289.596 201.55 289.598 201.542ZM290.688 203.924C290.684 203.923 290.663 203.966 290.666 203.969C290.745 204.027 290.787 203.944 290.688 203.924ZM290.115 202.193C290.155 202.143 290.059 202.093 290.01 202.157C289.97 202.207 290.063 202.255 290.115 202.193ZM287.655 208.11C287.651 208.112 287.658 208.149 287.682 208.141C287.759 208.115 287.723 208.073 287.655 208.11ZM290.31 203.575C290.342 203.372 290.694 203.238 290.644 203.486C290.634 203.529 290.537 203.384 290.503 203.439C290.44 203.535 290.654 203.623 290.524 203.717C290.501 203.731 290.308 203.585 290.309 203.575C290.309 203.575 290.31 203.575 290.31 203.575ZM286.601 204.974C286.598 204.977 286.618 205.025 286.622 205.024C286.719 205.007 286.679 204.91 286.601 204.974ZM288.883 209.33C288.89 209.336 289.001 209.286 289.001 209.277C288.982 209.111 288.761 209.21 288.883 209.33ZM285.783 201.57C285.688 201.509 285.68 201.43 285.803 201.39C285.793 201.45 285.79 201.51 285.783 201.57Z" fill="black"/>
<path d="M175.452 154.985C175.54 154.833 175.703 154.657 175.84 154.527C175.882 154.487 175.909 154.541 175.941 154.514C176.002 154.461 176.021 154.385 176.084 154.333C176.105 154.316 176.158 154.389 176.179 154.37C176.291 154.264 176.349 154.132 176.443 154.011C176.681 153.701 176.892 153.373 177.082 153.033C177.238 152.759 177.353 152.438 177.439 152.094C177.499 151.861 177.614 151.57 177.602 151.307C177.601 151.276 177.526 151.288 177.52 151.282C177.435 151.185 177.581 151.227 177.605 151.169C177.699 150.939 177.715 150.67 177.689 150.439C177.678 150.339 177.53 150.437 177.613 150.339C177.619 150.332 177.697 150.358 177.706 150.331C177.725 150.269 177.711 150.152 177.717 150.103C177.728 150.011 177.728 149.996 177.728 149.907C177.728 149.787 177.765 149.642 177.745 149.511C177.741 149.483 177.661 149.521 177.647 149.477C177.633 149.431 177.638 149.311 177.657 149.271C177.676 149.229 177.739 149.247 177.753 149.239C177.786 149.223 177.798 149.201 177.797 149.178C177.796 149.115 177.706 149.035 177.704 149.011C177.703 149.004 177.702 148.996 177.702 148.984C177.702 148.977 177.702 148.97 177.703 148.955C177.704 148.946 177.705 148.938 177.709 148.917C177.712 148.901 177.715 148.881 177.73 148.842C177.747 148.834 177.705 148.774 177.921 148.616C178.026 148.533 178.29 148.556 178.342 148.6C178.426 148.643 178.466 148.689 178.493 148.721C178.585 148.855 178.555 148.835 178.569 148.86C178.575 148.875 178.578 148.887 178.58 148.893C178.583 148.905 178.585 148.912 178.586 148.919C178.589 148.929 178.59 148.937 178.592 148.942C178.594 148.953 178.596 148.96 178.598 148.967C178.604 148.992 178.609 149.01 178.613 149.028C178.622 149.064 178.628 149.096 178.633 149.128C178.663 149.297 178.664 149.522 178.724 149.733C178.784 149.945 178.885 150.164 178.946 150.368C179.019 150.612 179.046 150.83 179.134 151.063C179.144 151.088 179.223 151.028 179.234 151.058C179.339 151.332 179.43 151.608 179.49 151.899C179.499 151.943 179.507 151.986 179.514 152.03C179.52 152.062 179.428 152.053 179.429 152.087C179.433 152.293 179.432 152.667 179.803 152.584C179.852 152.7 179.919 152.828 179.929 152.956C179.936 153.04 179.823 153.045 179.91 153.088C179.929 153.098 179.972 153.027 179.996 153.044C180.04 153.075 180.077 153.11 180.123 153.153C180.169 153.197 180.223 153.241 180.29 153.262C180.314 153.27 180.351 153.209 180.364 153.202C180.465 153.15 180.447 153.341 180.461 153.364C180.554 153.528 180.689 153.555 180.836 153.622C180.871 153.638 180.868 153.533 180.902 153.545C181.078 153.606 181.259 153.68 181.427 153.778C181.465 153.799 181.403 153.865 181.42 153.879C181.496 153.942 181.559 153.801 181.632 153.857C181.648 153.869 181.619 153.932 181.62 153.941C181.638 154.07 181.728 153.919 181.741 153.919C181.918 153.914 181.981 154.112 182.15 154.125C182.17 154.126 182.146 154.031 182.201 154.039C182.568 154.098 182.951 154.19 183.31 154.314C183.366 154.333 183.315 154.393 183.317 154.401C183.356 154.535 183.422 154.373 183.44 154.369C183.532 154.355 183.609 154.403 183.684 154.409C183.729 154.411 183.775 154.39 183.828 154.31C183.847 154.314 183.849 154.314 183.905 154.324C183.914 154.327 183.923 154.328 183.957 154.339C183.988 154.363 183.979 154.3 184.141 154.478C184.169 154.503 184.232 154.681 184.186 154.789C184.141 154.908 184.102 154.925 184.083 154.947C184.039 154.986 184.004 155 183.994 155.005C183.903 155.041 183.918 155.028 183.9 155.034C183.879 155.037 183.87 155.037 183.858 155.038C183.257 155.065 182.696 155.269 182.086 155.266C182.078 155.267 182.068 155.182 182.051 155.183C181.855 155.193 181.927 155.308 181.864 155.497C181.849 155.544 181.698 155.395 181.685 155.385C181.638 155.347 181.623 155.219 181.61 155.214C181.499 155.172 181.663 155.55 181.569 155.591C181.565 155.592 181.548 155.516 181.536 155.513C181.501 155.503 181.489 155.542 181.454 155.53C181.402 155.513 181.338 155.44 181.288 155.428C181.261 155.42 181.237 155.435 181.238 155.489C181.239 155.508 181.391 155.683 181.346 155.711C181.326 155.72 181.255 155.824 181.223 155.857C181.19 155.886 181.137 155.826 181.133 155.826C180.987 155.891 180.972 155.832 180.808 155.835C180.644 155.844 180.975 155.962 181.001 156.002C181.027 156.041 180.915 156.103 180.88 156.117C180.844 156.131 180.81 156.085 180.787 156.1C180.748 156.127 180.739 156.149 180.747 156.166C180.773 156.214 180.939 156.234 180.97 156.275C181.071 156.394 180.802 156.419 180.76 156.521C180.749 156.547 180.811 156.534 180.813 156.559C180.82 156.658 180.732 156.709 180.794 156.829C180.804 156.85 180.951 156.954 180.832 157.003C180.814 157.01 180.752 156.98 180.734 157.021C180.707 157.084 180.684 157.198 180.702 157.268C180.714 157.32 180.825 157.269 180.788 157.33C180.771 157.357 180.712 157.301 180.686 157.353C180.66 157.405 180.656 157.542 180.656 157.594C180.655 157.645 180.738 157.621 180.743 157.625C180.773 157.652 180.807 157.753 180.807 157.762C180.799 158.203 180.653 158.61 180.691 159.044C180.693 159.078 180.779 159.057 180.78 159.062C180.814 159.178 180.589 159.083 180.511 159.163C180.685 159.154 180.653 159.202 180.67 159.284C180.679 159.323 180.747 159.303 180.753 159.307C180.854 159.366 180.722 159.406 180.695 159.416C180.596 159.453 180.712 159.497 180.645 159.522C180.579 159.548 180.483 159.485 180.483 159.565C180.545 159.588 180.707 159.531 180.733 159.591C180.815 159.785 180.731 160.119 180.695 160.326C180.689 160.361 180.684 160.392 180.682 160.418C180.668 160.597 180.68 160.656 180.658 160.76C180.62 160.949 180.74 160.878 180.797 160.993C180.855 161.108 180.558 161.06 180.495 161.078C180.432 161.096 180.498 161.114 180.463 161.135C180.429 161.157 180.384 161.114 180.373 161.163C180.361 161.214 180.48 161.343 180.548 161.356C180.691 161.384 180.835 161.319 180.79 161.447C180.788 161.455 180.708 161.436 180.702 161.464C180.659 161.661 180.683 161.844 180.642 162.07C180.64 162.081 180.639 162.091 180.631 162.107C180.631 162.107 180.609 162.151 180.564 162.154C180.516 162.153 180.518 162.142 180.507 162.136C180.476 162.105 180.485 162.106 180.477 162.091C180.47 162.073 180.465 162.053 180.462 162.038C180.456 162.004 180.547 161.997 180.544 161.977C180.528 161.787 180.416 161.898 180.228 161.857C180.439 161.805 180.543 161.707 180.496 161.573C180.469 161.493 180.385 161.537 180.304 161.507C180.279 161.498 180.32 161.419 180.275 161.423C180.126 161.437 179.992 161.545 180.004 161.384C180.005 161.377 180.086 161.37 180.084 161.348C180.065 161.201 179.917 161.235 179.848 161.095C179.794 160.986 179.808 160.751 179.774 160.615C180.003 160.536 179.905 160.429 179.73 160.439C179.706 160.351 179.663 160.265 179.654 160.174C179.651 160.144 179.724 160.137 179.729 160.131C179.821 160.035 179.654 160.056 179.641 160.04C179.509 159.866 179.562 159.661 179.375 159.519C179.369 159.514 179.208 159.565 179.303 159.47C179.309 159.464 179.405 159.497 179.375 159.407C179.346 159.317 179.362 159.118 179.24 159.026C179.21 159.004 179.053 158.984 179.127 158.883C179.135 158.871 179.174 158.861 179.197 158.844C179.2 158.842 179.202 158.84 179.205 158.837C179.268 158.766 179.103 158.814 179.217 158.713C179.331 158.613 179.389 158.475 179.24 158.396C179.236 158.393 179.101 158.423 179.084 158.384C179.058 158.323 179.041 158.226 179.008 158.165C178.992 158.136 178.928 158.193 178.924 158.189C178.779 158.015 178.767 157.842 178.668 157.621C178.65 157.58 178.486 157.537 178.514 157.418C178.543 157.284 178.94 157.133 178.73 157.004C178.642 156.95 178.161 157.176 178.28 156.888C178.04 156.691 177.956 156.389 177.675 156.233C177.662 156.226 177.527 156.296 177.507 156.272C177.476 156.236 177.506 156.169 177.486 156.142C177.44 156.08 177.38 156.036 177.321 155.994C177.27 155.956 177.219 155.921 177.176 155.874C177.141 155.837 177.202 155.797 177.159 155.752C177.115 155.707 177.023 155.748 176.989 155.659C176.964 155.593 177.037 155.406 176.982 155.333C176.862 155.476 176.818 155.435 176.706 155.412C176.685 155.408 176.663 155.473 176.65 155.473C176.601 155.478 176.605 155.414 176.554 155.423C176.542 155.425 176.505 155.477 176.493 155.481C176.392 155.524 176.393 155.353 176.392 155.322C176.389 155.207 176.318 155.261 176.295 155.204C176.27 155.146 176.36 155.144 176.319 155.094C176.274 155.041 176.213 154.998 176.139 154.964C176.067 154.931 175.989 154.919 175.922 154.913C175.866 154.909 175.901 154.996 175.892 154.997C175.794 155.014 175.666 154.946 175.653 155.124C175.556 154.894 175.544 154.944 175.536 155.02C175.531 155.085 175.553 155.154 175.484 155.165C175.473 155.166 175.312 155.032 175.334 154.971C175.348 154.932 175.401 154.913 175.456 154.888C175.462 154.885 175.481 154.876 175.489 154.874C175.514 154.868 175.539 154.858 175.561 154.834C175.57 154.819 175.637 154.607 175.656 154.593C175.777 154.483 175.816 154.797 175.82 154.812C175.884 154.991 176.007 154.795 176.057 154.792C176.108 154.783 176.158 154.788 176.205 154.8C176.312 154.829 176.373 154.878 176.462 154.89C176.542 154.901 176.654 154.732 176.703 154.771C176.864 154.9 176.745 155.165 177.037 155.078C177.099 155.06 177.208 154.862 177.209 155.087C177.21 155.102 177.186 155.289 177.297 155.251C177.31 155.246 177.352 155.197 177.363 155.199C177.437 155.216 177.436 155.285 177.506 155.315C177.576 155.345 177.666 155.379 177.709 155.452C177.729 155.484 177.712 155.562 177.7 155.616C177.695 155.636 177.691 155.652 177.689 155.662C177.673 155.766 177.819 155.715 177.773 155.815C177.727 155.916 177.562 155.972 177.585 156.091C177.708 155.976 177.837 155.862 177.962 155.748C178.119 155.916 178.237 156.122 178.396 156.296C178.416 156.317 178.465 156.236 178.489 156.257C178.587 156.35 178.611 156.482 178.717 156.575C178.799 156.647 178.947 156.685 179.034 156.765C178.918 156.933 179.066 157.032 179.118 157.144C179.137 157.183 179.092 157.209 179.094 157.243C179.102 157.372 179.218 157.236 179.257 157.248C179.426 157.304 179.103 157.514 179.188 157.641C179.193 157.647 179.421 157.634 179.439 157.64C179.556 157.678 179.384 157.688 179.398 157.744C179.422 157.846 179.411 157.93 179.518 158.008C179.55 158.031 179.702 158.049 179.642 158.153C179.634 158.167 179.571 158.192 179.571 158.2C179.565 158.343 179.76 158.257 179.856 158.294C179.953 158.333 179.864 158.498 179.834 158.535C179.757 158.634 179.773 158.511 179.762 158.513C179.644 158.527 179.672 158.58 179.69 158.635C179.692 158.642 179.694 158.649 179.696 158.656C179.507 158.746 179.551 158.818 179.711 158.718C179.728 158.707 179.692 158.671 179.696 158.656C179.906 158.626 179.966 158.702 179.828 158.87C179.764 158.949 179.65 158.947 179.74 159.066C179.781 159.121 179.905 159.043 179.963 159.083C180.096 159.173 180.035 159.384 180.104 159.504C180.13 159.548 180.186 159.474 180.205 159.503C180.258 159.579 180.232 159.676 180.292 159.749C180.298 159.756 180.367 159.708 180.378 159.734C180.464 159.931 180.479 160.125 180.554 160.335C180.591 160.438 180.698 160.601 180.727 160.711C180.778 160.897 180.743 161.162 180.824 161.305C180.877 161.398 180.947 161.35 181.015 161.372C181.147 161.419 181.014 161.624 180.992 161.652C180.991 161.652 180.944 161.58 180.92 161.637C180.846 161.692 180.992 161.652 180.992 161.652C180.968 161.655 181.056 161.891 180.998 161.751C180.992 161.723 180.889 161.597 180.873 161.57C180.86 161.549 180.859 161.536 180.827 161.511C180.81 161.499 180.787 161.484 180.737 161.466C180.661 161.441 180.498 161.404 180.3 161.489C180.087 161.58 179.995 161.766 179.984 161.787C179.963 161.829 179.952 161.861 179.943 161.888C179.927 161.941 179.923 161.972 179.919 161.995C179.887 162.065 179.854 161.87 179.836 161.762C179.817 161.637 179.813 161.505 179.824 161.377C179.826 161.372 179.913 161.375 179.915 161.364C179.947 161.211 179.837 161.12 179.771 160.997C179.704 160.874 179.725 160.774 179.874 160.701C179.855 160.608 179.921 160.477 179.962 160.401C179.99 160.35 179.92 160.328 179.871 160.316C179.849 160.311 179.831 160.309 179.83 160.307C179.725 160.102 179.823 159.986 179.841 159.775C179.85 159.675 179.828 159.475 179.811 159.366C179.797 159.28 179.838 159.23 179.814 159.149C179.81 159.138 179.735 159.148 179.732 159.145C179.643 159.055 179.827 159.1 179.86 159.083C179.982 159.019 180.046 158.978 179.992 158.864C179.979 158.838 179.715 158.756 179.7 158.708C179.682 158.645 179.777 158.671 179.755 158.605C179.753 158.599 179.694 158.599 179.698 158.559C179.713 158.372 179.753 158.169 179.754 157.973C179.754 157.946 179.66 157.977 179.659 157.938C179.654 157.756 179.666 157.555 179.72 157.377C179.733 157.333 179.797 157.365 179.817 157.356C179.938 157.303 179.772 157.21 179.77 157.195C179.713 156.851 179.88 156.623 179.882 156.211C179.879 156.195 179.743 155.958 179.935 155.889C179.936 155.889 179.939 155.888 179.943 155.886C179.979 155.883 180.112 155.868 180.038 155.783C180.033 155.777 179.94 155.789 179.975 155.72C180.009 155.652 180.008 155.505 180.145 155.43C180.19 155.404 180.368 155.402 180.329 155.224C180.316 155.221 180.224 154.847 180.45 154.902C180.489 154.912 180.616 155.069 180.694 154.857C180.713 154.815 180.622 154.826 180.694 154.734C180.728 154.691 180.776 154.654 180.831 154.621C180.915 154.568 181.004 154.533 181.058 154.437C181.071 154.413 181.102 154.244 181.209 154.319C181.225 154.331 181.232 154.404 181.268 154.398C181.443 154.371 181.589 154.274 181.758 154.274C181.817 154.274 181.822 154.392 181.886 154.405C181.951 154.418 182.068 154.416 182.114 154.35C182.158 154.285 182.049 154.126 182.134 154.089C182.507 153.93 182.908 153.959 183.292 153.914C183.349 153.907 183.292 153.85 183.375 153.836C183.466 153.821 183.576 153.799 183.694 153.779C183.681 153.782 183.724 153.768 183.595 153.799C183.576 153.804 183.537 153.812 183.45 153.853C183.427 153.863 183.372 153.891 183.309 153.936C183.277 153.959 183.24 153.988 183.198 154.03C183.177 154.051 183.155 154.075 183.132 154.103C183.093 154.151 183.048 154.217 183.011 154.299C182.932 154.46 182.9 154.714 182.959 154.916C183.029 155.143 183.083 155.19 183.144 155.271C183.263 155.408 183.358 155.457 183.409 155.486C183.555 155.56 183.586 155.557 183.616 155.567C183.647 155.574 183.656 155.576 183.669 155.578C183.709 155.586 183.712 155.586 183.718 155.587C183.73 155.588 183.705 155.587 183.687 155.586C183.644 155.583 183.591 155.579 183.527 155.57C183.33 155.542 183.129 155.494 183.007 155.404C182.815 155.262 183.091 155.221 182.939 155.151C182.866 155.118 182.746 155.311 182.727 155.315C182.532 155.35 182.42 155.233 182.25 155.228C182.214 155.227 182.231 155.318 182.201 155.316C182.098 155.31 182.001 155.25 181.903 155.235C181.86 155.229 181.853 155.294 181.814 155.28C181.721 155.246 181.644 155.199 181.567 155.116C181.56 155.108 181.636 155.044 181.568 155.023C181.456 154.989 181.334 154.893 181.186 154.913C181.142 154.919 181.096 155.062 181.043 154.937C181.032 154.91 181.11 154.748 180.965 154.863C180.942 154.883 180.705 155.023 180.669 154.865C180.66 154.823 180.658 154.666 180.604 154.669C180.596 154.67 180.592 154.755 180.55 154.746C180.401 154.715 180.259 154.643 180.103 154.592C180.061 154.578 180.082 154.682 180.019 154.658C179.847 154.594 179.648 154.45 179.501 154.305C179.447 154.251 179.531 154.229 179.531 154.219C179.538 154.071 179.396 154.164 179.366 154.151C179.307 154.124 179.262 154.087 179.223 154.046C179.168 153.986 179.117 153.888 179.037 153.815C179.004 153.784 178.964 153.859 178.953 153.857C178.841 153.827 178.994 153.792 178.969 153.737C178.903 153.584 178.803 153.447 178.718 153.323C178.686 153.278 178.64 153.378 178.612 153.336C178.448 153.087 178.334 152.816 178.284 152.553C178.275 152.504 178.352 152.507 178.363 152.492C178.426 152.407 178.324 152.366 178.27 152.342C178.257 152.337 178.247 152.333 178.243 152.33C178.148 152.262 178.194 152.206 178.154 152.13C177.96 151.76 177.83 151.26 177.732 150.875C177.604 150.366 177.547 149.993 177.413 149.429C177.405 149.39 177.321 149.447 177.313 149.412C177.306 149.381 177.299 149.345 177.293 149.31C177.286 149.273 177.281 149.238 177.277 149.205C177.275 149.189 177.258 149.089 177.277 149.192C177.279 149.203 177.281 149.212 177.287 149.235C177.291 149.25 177.296 149.269 177.306 149.296C177.325 149.334 177.295 149.314 177.411 149.503C177.484 149.584 177.544 149.762 177.978 149.875C178.246 149.936 178.558 149.821 178.695 149.702C178.842 149.584 178.893 149.488 178.93 149.423C179.007 149.265 178.994 149.266 179.009 149.22C179.027 149.144 179.024 149.147 179.027 149.126C179.034 149.072 179.032 149.074 179.033 149.066C179.034 149.056 179.033 149.059 179.033 149.062C179.033 149.069 179.033 149.081 179.033 149.094C179.032 149.121 179.031 149.15 179.031 149.18C179.027 149.354 179.026 149.543 179.044 149.735C179.046 149.763 179.134 149.721 179.141 149.766C179.155 149.859 179.152 149.979 179.124 150.075C179.111 150.122 179.035 150.06 179.023 150.107C178.995 150.217 178.988 150.334 179.001 150.449C179.007 150.498 179.098 150.426 179.098 150.489C179.101 150.921 179.095 151.365 178.923 151.807C178.911 151.837 178.726 151.841 178.752 151.91C178.802 151.922 178.861 151.93 178.915 151.94C178.859 152.513 178.682 153.091 178.39 153.659C178.35 153.736 178.31 153.813 178.27 153.889C178.258 153.913 178.365 153.915 178.342 153.962C178.204 154.231 178.086 154.504 177.846 154.721C177.822 154.743 177.683 154.642 177.66 154.732C177.656 154.748 177.605 154.875 177.619 154.924C177.621 154.931 177.702 154.952 177.681 154.99C177.557 155.213 177.394 155.426 177.207 155.607C177.177 155.636 177.133 155.551 177.111 155.571C176.955 155.713 176.871 155.933 176.683 156.043C176.557 156.115 176.475 155.983 176.32 155.944C176.298 155.937 176.241 155.998 176.175 155.945C176.011 155.811 175.862 155.631 175.684 155.492C175.645 155.464 175.631 155.555 175.575 155.443C175.572 155.436 175.582 155.366 175.563 155.327C175.549 155.301 175.472 155.259 175.459 155.221C175.446 155.182 175.516 155.21 175.508 155.154C175.499 155.099 175.414 155.05 175.452 154.985ZM180.146 160.068C180.228 160 179.929 159.987 180 160.061C180.004 160.065 180.142 160.071 180.146 160.068ZM178.067 156.275C178.03 156.431 178.218 156.351 178.25 156.233C178.281 156.115 178.077 156.227 178.067 156.275ZM177.335 155.664C177.341 155.813 177.649 155.521 177.503 155.5C177.495 155.499 177.335 155.655 177.335 155.664ZM176.488 155.67C176.484 155.668 176.447 155.71 176.449 155.714C176.505 155.797 176.581 155.711 176.488 155.67ZM176.531 155.152C176.528 155.218 176.644 155.218 176.65 155.136C176.654 155.069 176.535 155.069 176.531 155.152ZM180.615 156.501C180.62 156.501 180.63 156.462 180.605 156.459C180.525 156.449 180.539 156.508 180.615 156.501ZM175.052 155.336C175.222 155.251 175.604 155.355 175.34 155.536C175.294 155.562 175.36 155.377 175.288 155.394C175.168 155.416 175.219 155.641 175.061 155.596C175.034 155.586 175.044 155.34 175.052 155.335C175.052 155.336 175.052 155.336 175.052 155.336ZM180.505 160.032C180.509 160.031 180.514 159.976 180.51 159.975C180.415 159.944 180.406 160.055 180.505 160.032ZM182.201 155.148C182.207 155.155 182.33 155.131 182.332 155.122C182.357 154.955 182.103 155.006 182.201 155.148ZM179.779 160.611C179.67 160.588 179.634 160.524 179.73 160.439C179.745 160.496 179.765 160.554 179.779 160.611Z" fill="black"/>
<defs>
<clipPath id="clip0_3599_1118">
<rect width="90.5116" height="118.857" fill="white" transform="translate(191.549 144.848)"/>
</clipPath>
</defs>
</svg>
