<svg width="358" height="250" viewBox="0 0 358 250" fill="none" xmlns="http://www.w3.org/2000/svg">
<g clip-path="url(#clip0_3599_1025)">
<rect width="358" height="250" rx="20" fill="#D5FDFF"/>
<path d="M176.573 -1.933C176.926 -4.32392 180.375 -4.32393 180.728 -1.93301L188.605 51.4037C188.907 53.4539 191.682 53.8728 192.576 52.0034L215.858 3.3511C216.901 1.1709 220.196 2.18928 219.827 4.57795L211.603 57.8537C211.287 59.9022 213.815 61.1216 215.221 59.5989L251.833 19.9611C253.473 18.1854 256.322 20.1311 255.264 22.3047L231.677 70.7823C230.77 72.6468 232.827 74.5583 234.62 73.5172L281.3 46.4167C283.391 45.2028 285.54 47.9024 283.888 49.6677L247.041 89.0433C245.624 90.5578 247.026 92.9914 249.047 92.5242L301.645 80.3629C304.001 79.8182 305.259 83.0315 303.16 84.2319L256.328 111.015C254.527 112.045 255.151 114.784 257.22 114.932L311.061 118.783C313.473 118.955 313.73 122.397 311.371 122.927L258.709 134.743C256.684 135.197 256.475 137.999 258.409 138.749L308.718 158.267C310.973 159.141 310.206 162.506 307.795 162.318L253.975 158.117C251.907 157.956 250.882 160.572 252.509 161.858L294.821 195.31C296.718 196.809 294.995 199.799 292.747 198.91L242.547 179.059C240.619 178.296 238.869 180.493 240.045 182.202L270.603 226.623C271.974 228.615 269.447 230.964 267.56 229.452L225.443 195.707C223.825 194.41 221.507 195.993 222.125 197.972L238.211 249.423C238.933 251.73 235.826 253.229 234.469 251.229L204.184 206.585C203.021 204.87 200.34 205.698 200.346 207.771L200.522 261.68C200.53 264.097 197.12 264.612 196.414 262.3L180.659 210.729C180.053 208.747 177.247 208.747 176.642 210.728L160.886 262.3C160.18 264.612 156.77 264.097 156.778 261.68L156.954 207.771C156.961 205.698 154.28 204.87 153.116 206.585L122.831 251.229C121.474 253.229 118.368 251.73 119.089 249.423L135.175 197.972C135.794 195.993 133.476 194.41 131.858 195.707L89.7403 229.452C87.8536 230.964 85.3269 228.615 86.697 226.623L117.256 182.202C118.432 180.493 116.682 178.296 114.754 179.059L64.5535 198.91C62.305 199.799 60.5821 196.809 62.4789 195.31L104.792 161.858C106.419 160.572 105.394 157.956 103.326 158.117L49.5049 162.318C47.0941 162.506 46.3275 159.141 48.582 158.267L98.8911 138.75C100.825 137.999 100.616 135.197 98.5914 134.743L45.9293 122.927C43.5697 122.397 43.8272 118.955 46.2393 118.783L100.081 114.932C102.15 114.784 102.774 112.045 100.973 111.015L54.1402 84.2319C52.0412 83.0315 53.2999 79.8182 55.6558 80.3629L108.254 92.5242C110.274 92.9914 111.677 90.5577 110.26 89.0433L73.4123 49.6678C71.7604 47.9025 73.9091 45.2029 76 46.4168L122.681 73.5172C124.474 74.5583 126.53 72.6468 125.623 70.7823L102.036 22.3048C100.979 20.1311 103.827 18.1854 105.467 19.9611L142.079 59.5989C143.486 61.1216 146.013 59.9022 145.697 57.8537L137.473 4.57794C137.104 2.18927 140.4 1.17091 141.443 3.35111L164.724 52.0034C165.619 53.8728 168.393 53.4539 168.696 51.4037L176.573 -1.933Z" fill="#93F5F3"/>
<rect x="242" y="164" width="54" height="54" fill="#F1FFCC"/>
<path d="M270.719 180.47C270.638 180.383 270.591 180.214 270.51 180.102C270.173 179.636 270.08 179.439 269.784 179.014C269.563 178.697 269.087 178.103 268.696 177.593C268.694 177.59 268.687 177.581 268.684 177.579C268.505 177.336 268.378 177.118 268.289 176.937C268.153 176.656 268.099 176.449 268.205 176.363C268.205 176.363 268.205 176.363 268.205 176.363C268.208 176.36 268.212 176.357 268.216 176.355C268.288 176.308 268.479 176.4 268.574 176.365C268.668 176.329 269.155 175.931 269.354 176.14C269.356 176.142 269.358 176.144 269.36 176.147C269.478 176.276 269.616 176.498 269.747 176.697L269.739 176.687C269.963 176.999 270.161 177.326 270.242 177.421C270.339 177.534 270.498 177.641 270.623 177.784C271.025 178.245 271.183 178.522 271.638 178.863C271.705 179.086 271.772 179.308 271.839 179.531C272.042 179.735 272.216 180.141 272.326 180.276C272.371 180.33 272.419 180.364 272.468 180.4C272.515 180.433 272.565 180.471 272.61 180.528C272.714 180.658 272.812 180.904 273.002 181.138C273.314 181.524 273.5 181.494 273.696 181.719C273.897 181.953 274.11 182.393 274.39 182.675C274.434 182.703 274.479 182.732 274.523 182.761C274.536 182.708 274.548 182.654 274.561 182.601C274.694 182.749 274.675 182.869 274.782 183.017C274.907 183.191 275.037 183.232 275.121 183.348C275.191 183.444 275.232 183.612 275.325 183.734C275.461 183.912 275.508 183.817 275.593 183.905C275.627 183.939 276.187 184.632 276.216 184.673C276.28 184.762 276.319 184.834 276.345 184.896C276.411 185.054 276.4 185.158 276.518 185.34C276.976 186.047 277.55 186.698 278.022 187.31C278.234 187.583 278.433 187.882 278.613 188.175C278.032 187.921 278.511 189.05 278.676 188.386C278.835 188.741 279.106 188.882 279.296 189.191C279.421 189.392 279.455 189.563 279.653 189.835C280 190.314 280.55 190.722 280.352 191.075C280.375 191.101 280.397 191.127 280.419 191.153C280.84 191.654 281.089 192.168 281.479 192.177C281.602 192.31 281.722 192.798 281.821 192.975C281.915 193.143 282.721 194.374 282.861 194.57C283.001 194.766 283.248 195.107 283.391 195.252C283.572 195.435 283.948 195.376 283.903 195.975C284.243 196.378 284.346 196.536 284.602 196.957C284.648 197.033 284.607 197.076 284.638 197.117C284.702 197.203 284.844 197.323 284.963 197.473C285.156 197.719 285.164 197.938 285.294 197.797C285.441 197.944 285.59 198.092 285.739 198.241C285.753 198.321 285.766 198.4 285.78 198.48C285.879 198.547 285.975 198.611 286.073 198.678C285.777 198.734 286.367 199.268 286.343 198.972C286.535 199.329 286.726 199.689 286.914 200.048C286.879 200.065 286.86 200.089 286.854 200.117C286.811 200.32 287.408 200.775 287.489 200.637C287.515 200.675 287.542 200.714 287.568 200.754C287.73 201.153 288 201.378 288.215 201.99C288.266 202.158 288.305 202.327 288.276 202.542C288.248 202.758 288.111 202.935 288.022 202.997C287.838 203.122 287.766 203.089 287.637 203.069C287.581 203.093 287.536 203.11 287.492 203.126C287.415 203.154 287.339 203.18 287.263 203.204C286.714 203.722 286.703 203.042 285.714 203.485C285.392 203.311 284.739 203.465 284.221 203.592C284.154 203.609 284.087 203.626 284.026 203.641C283.964 203.656 283.968 203.704 283.885 203.727C283.684 203.784 283.157 203.774 283.188 203.924C283.003 203.897 282.818 203.869 282.633 203.841C282.487 203.881 282.342 203.921 282.195 203.961C282.2 204.009 282.204 204.056 282.209 204.104C281.897 203.965 281.434 204.062 281.199 204.038C281.152 204.033 281.139 203.968 280.994 203.959C280.826 203.949 280.516 203.988 280.315 203.978C280.243 204.056 280.169 204.133 280.094 204.21C279.741 204.269 279.606 204.083 279.395 204.078C279.36 204.078 278.669 204.123 278.635 204.128C278.333 204.173 278.425 204.335 277.547 204.331C277.393 204.33 277.26 204.278 277.121 204.28C276.872 204.284 276.126 204.433 276.069 204.554C275.764 204.413 274.952 204.491 274.717 204.452C274.654 204.442 274.633 204.368 274.478 204.339C274.457 204.335 274.432 204.331 274.405 204.329C274.227 204.316 273.767 204.4 273.539 204.39C273.297 204.379 273.212 204.301 273.103 204.296C273.001 204.292 272.907 204.358 272.769 204.359C272.334 204.362 271.94 204.262 271.599 204.262C271.102 204.263 270.667 204.456 270.251 204.542C270.148 204.53 270.047 204.49 269.939 204.489C268.603 204.487 267.097 204.447 265.757 204.391C265.135 204.367 263.593 204.082 263.999 204.521C263.781 204.595 262.21 204.386 261.911 204.373C261.614 204.362 261.371 204.433 261.138 204.426C260.426 204.405 259.932 204.332 259.057 204.355C258.832 204.361 258.585 204.438 258.453 204.429C258.297 204.418 258.121 204.318 257.918 204.298C257.818 204.288 257.704 204.279 257.584 204.269C257.072 204.23 256.396 204.176 256.001 204.106C255.91 204.09 255.895 204.009 255.769 203.964C255.295 203.801 254.718 203.648 254.746 203.912C254.5 203.78 254.257 203.702 253.92 203.459C253.758 203.34 253.518 203.091 253.45 202.745C253.385 202.407 253.467 202.179 253.464 202.126C253.487 201.959 253.516 201.793 253.559 201.629C253.746 200.874 254.19 199.933 254.528 199.085C254.788 198.426 255.066 197.789 255.223 197.362C255.458 196.729 255.351 196.689 255.886 195.861C256.006 195.676 256.133 195.495 256.277 195.277C256.621 194.754 257.067 194.362 257.074 193.83C257.32 193.464 257.494 193.14 257.706 192.853C257.824 192.695 257.958 192.543 258.114 192.423C258.098 192.346 258.082 192.27 258.067 192.192C258.106 192.119 258.148 192.042 258.186 191.97C258.241 191.972 258.297 191.973 258.352 191.974C258.655 191.458 258.854 190.697 259.104 190.257C259.523 189.519 260.674 187.656 261.131 186.991C261.373 186.637 261.294 186.566 261.602 186.46C261.636 186.37 261.671 186.28 261.705 186.189C261.694 186.114 261.684 186.039 261.673 185.964C261.944 185.487 262.331 184.96 262.591 184.507C263.063 183.682 263.665 182.382 264.217 181.595C264.354 181.401 264.59 181.186 264.704 180.985C264.876 180.686 264.776 180.538 264.991 180.159C265.281 179.651 265.876 178.851 266.278 178.24C266.391 178.066 266.483 177.919 266.558 177.783C266.657 177.604 266.658 177.483 266.722 177.358C267.002 176.818 267.255 176.389 267.463 175.84C267.905 175.377 268.049 175.523 268.319 175.453C268.421 175.426 268.604 175.358 268.778 175.297C268.866 175.265 268.951 175.235 269.025 175.21C269.102 175.172 269.155 175.205 269.229 175.065C269.255 174.988 269.261 174.966 269.274 174.973C269.286 174.966 269.303 174.995 269.303 175.071C269.302 175.191 269.311 175.216 269.324 175.256C269.352 175.324 269.387 175.377 269.452 175.361C269.132 176.126 268.912 176.309 268.48 176.777C268.092 177.462 267.702 178.146 267.308 178.835C267.147 179.119 266.977 179.416 266.814 179.702C266.715 179.761 266.612 179.826 266.515 179.884C266.515 179.884 266.514 179.884 266.514 179.884C266.243 180.224 266.277 180.452 266.187 180.673C265.344 182.754 262.945 186.423 261.702 188.533C261.433 188.987 260.652 190.515 260.395 190.786C260.328 190.855 260.241 190.835 260.188 190.921C259.793 191.723 259.405 192.52 259.016 193.326C258.976 193.388 258.936 193.45 258.896 193.511C257.951 194.999 257.171 196.642 256.439 198.222C256.225 198.688 256.032 199.143 255.845 199.624C255.465 200.602 255.038 201.506 254.864 202.428C254.838 202.54 254.84 202.569 254.842 202.527C254.847 202.483 254.807 202.379 254.784 202.358C254.739 202.315 254.833 202.39 254.942 202.425C255.171 202.511 255.477 202.576 255.783 202.627C256.404 202.729 257.042 202.787 257.698 202.835C259.743 202.974 261.817 203.016 263.88 203.066C264.826 203.087 266.03 203.036 266.957 203.084C267.344 203.104 267.505 203.243 268.014 203.142C268.019 203.179 268.025 203.216 268.03 203.253C268.474 203.21 268.758 203.125 269.256 203.117C269.675 203.11 270.784 203.101 271.154 203.112C271.345 203.118 271.276 203.188 271.455 203.186C271.761 203.183 272.416 203.081 272.838 203.076C273.224 203.072 273.867 203.143 274.164 203.126C274.261 203.121 274.359 203.114 274.456 203.108C275.439 203.042 276.474 202.921 277.501 202.915C277.814 202.913 278.218 202.988 278.313 202.982C278.506 202.969 278.558 202.879 278.684 202.862C279.333 202.778 280.345 202.829 280.98 202.791C282.006 202.731 283.056 202.635 284.105 202.515C285.158 202.389 286.274 202.273 287.149 202.052C287.156 202.05 287.164 202.048 287.171 202.046C287.245 202.04 287.294 201.953 287.097 202.139C287.001 202.244 286.968 202.421 286.975 202.472C286.978 202.532 286.984 202.53 286.979 202.515C286.955 202.436 286.838 202.22 286.721 202.033C286.476 201.639 286.178 201.214 285.892 200.803C285.512 200.258 285.149 199.74 284.886 199.339C284.743 199.12 284.862 199.12 284.732 198.943C284.587 198.747 284.457 198.68 284.385 198.592C283.889 197.982 282.799 196.628 282.408 195.992C282.334 195.871 282.333 195.744 282.282 195.676C282.256 195.641 282.157 195.594 282.072 195.489C281.325 194.563 280.831 193.849 280.151 192.899C279.915 192.568 279.669 192.23 279.416 191.886C278.277 190.338 277.032 188.658 275.979 187.056C275.698 186.631 275.621 186.26 275.578 186.202C275.486 186.075 275.346 186.05 275.143 185.804C275.133 185.792 275.123 185.779 275.112 185.766C274.447 184.951 273.709 183.762 273.079 182.995C272.763 182.61 272.253 182.139 271.936 181.766C271.818 181.627 271.641 181.385 271.473 181.159C271.278 180.898 271.094 180.656 271.013 180.599C270.923 180.536 270.806 180.561 270.719 180.47ZM279.793 190.173C279.611 190.218 280.157 190.727 280.071 190.449C280.052 190.388 279.839 190.161 279.793 190.173ZM268.153 204.186C268.159 204.235 268.166 204.285 268.172 204.334C268.269 204.314 268.365 204.294 268.462 204.273C268.408 204.243 268.354 204.214 268.299 204.184C268.25 204.184 268.201 204.185 268.153 204.186Z" fill="black"/>
<path d="M269.366 195.03C269.378 195.041 269.313 195.058 269.309 195.072C269.294 195.129 269.249 195.15 269.224 195.202C269.186 195.28 269.271 195.509 268.821 195.509C268.821 195.509 268.821 195.509 268.821 195.509C268.816 195.509 268.812 195.509 268.807 195.509C268.722 195.508 268.628 195.488 268.531 195.485C268.434 195.482 267.807 195.485 267.771 195.457C267.725 195.417 267.886 195.321 267.879 195.299C267.874 195.285 267.817 195.267 267.807 195.248C267.774 195.188 267.816 195.156 267.661 195.102C267.742 195.08 267.824 195.058 267.906 195.036C267.868 195.008 267.975 194.965 267.969 194.948C267.965 194.934 267.9 194.926 267.897 194.911C267.893 194.894 267.963 194.869 267.952 194.839C267.936 194.79 267.767 194.781 267.746 194.751C267.724 194.721 267.815 194.673 267.756 194.634C267.738 194.629 267.719 194.624 267.701 194.619C267.659 194.623 267.617 194.626 267.575 194.63C267.555 194.61 267.641 194.601 267.643 194.583C267.645 194.562 267.563 194.551 267.564 194.537C267.564 194.525 267.629 194.509 267.625 194.494C267.62 194.472 267.525 194.477 267.508 194.465C267.501 194.46 267.449 194.372 267.448 194.367C267.445 194.329 267.573 194.326 267.585 194.296C267.615 194.212 267.511 194.126 267.472 194.049C267.454 194.014 267.462 193.978 267.482 193.944C267.812 193.998 268.069 193.878 267.553 193.923C267.626 193.885 267.487 193.858 267.51 193.821C267.526 193.798 267.597 193.781 267.596 193.748C267.592 193.688 267.388 193.623 267.756 193.606C267.691 193.536 267.825 193.476 267.5 193.451C267.48 193.433 267.674 193.387 267.7 193.366C267.725 193.347 267.812 193.201 267.817 193.177C267.822 193.153 267.827 193.111 267.798 193.09C267.763 193.065 267.426 193.047 267.82 193.002C267.788 192.95 267.8 192.931 267.845 192.882C267.854 192.873 267.912 192.872 267.912 192.867C267.912 192.856 267.869 192.838 267.864 192.819C267.855 192.788 267.978 192.77 267.79 192.774C267.759 192.753 267.727 192.732 267.696 192.712C267.732 192.705 267.768 192.697 267.804 192.69C267.765 192.679 267.725 192.668 267.686 192.657C267.958 192.67 267.797 192.593 267.641 192.618C267.698 192.578 267.754 192.538 267.81 192.498C268.119 192.503 267.846 192.41 267.678 192.418C267.678 192.413 267.678 192.409 267.678 192.404C267.761 192.364 267.693 192.328 267.749 192.279C267.804 192.23 267.834 192.235 267.976 192.22C267.968 192.208 267.96 192.197 267.951 192.185C267.562 192.125 268.236 192.136 267.937 192.033C268.182 192 268.054 191.919 267.979 191.865C267.971 191.858 267.923 191.858 267.909 191.85C267.873 191.83 267.935 191.778 267.781 191.779C267.826 191.761 267.87 191.743 267.914 191.725C267.886 191.711 267.859 191.696 267.831 191.681C267.783 191.681 267.735 191.681 267.687 191.681C267.85 191.652 267.788 191.605 267.827 191.582C267.834 191.577 267.9 191.576 267.918 191.562C267.94 191.546 267.92 191.515 267.941 191.495C267.868 191.487 267.795 191.479 267.722 191.472C267.682 191.436 267.875 191.424 267.89 191.403C267.892 191.399 267.879 191.331 267.874 191.327C267.842 191.297 267.677 191.306 267.713 191.219C267.719 191.203 267.776 191.191 267.778 191.177C267.782 191.152 267.653 191.077 267.534 191.071C267.683 191.041 267.622 190.961 267.665 190.937C267.679 190.93 267.774 190.928 267.794 190.906C267.81 190.888 267.734 190.843 267.747 190.82C267.761 190.796 267.841 190.787 267.846 190.777C267.852 190.767 267.787 190.757 267.788 190.743C267.79 190.7 267.894 190.661 267.895 190.627C267.898 190.578 267.708 190.534 267.623 190.493C267.635 190.482 267.676 190.472 267.677 190.462C267.683 190.329 267.718 190.179 267.759 190.045C267.777 189.983 268.036 189.829 267.604 189.871C267.529 189.849 267.703 189.693 267.705 189.663C267.708 189.633 267.631 189.61 267.629 189.586C267.626 189.516 267.682 189.466 267.614 189.38C267.597 189.358 267.505 189.334 267.506 189.321C267.507 189.305 267.596 189.288 267.602 189.268C267.615 189.219 267.585 189.128 267.601 189.081C267.604 189.072 267.682 189.069 267.706 189.057C267.801 189.009 267.793 188.956 267.544 188.965C267.686 188.904 267.557 188.848 267.549 188.791C267.533 188.671 267.591 188.453 267.486 188.349C267.42 188.283 267.308 188.285 267.405 188.188C267.426 188.167 267.455 188.145 267.48 188.119C267.54 188.058 267.747 188.002 267.498 187.955C267.563 187.887 267.517 187.833 267.729 187.783C267.678 187.777 267.628 187.771 267.577 187.765C267.575 187.757 267.574 187.749 267.573 187.74C267.621 187.738 267.67 187.735 267.719 187.733C267.732 187.673 267.532 187.597 267.533 187.547C267.536 187.462 267.613 187.244 267.679 187.164C267.714 187.122 267.61 187.119 267.824 187.095C267.809 187.085 267.794 187.076 267.779 187.066C267.732 187.06 267.685 187.054 267.638 187.048C267.636 186.994 267.709 186.929 267.708 186.877C267.707 186.782 267.578 186.64 267.663 186.544C267.684 186.521 267.781 186.491 267.78 186.467C267.778 186.433 267.618 186.425 267.615 186.382C267.61 186.307 267.796 186.169 267.782 186.098C267.778 186.077 267.718 186.068 267.712 186.053C267.684 185.993 267.689 185.943 267.597 185.885C267.751 185.823 267.949 185.828 268.149 185.809C268.301 185.794 268.651 185.749 268.783 185.743C268.876 185.738 268.996 185.755 269.098 185.749C269.18 185.824 269.09 185.855 268.946 185.916C268.952 186.027 268.957 186.139 268.963 186.251C268.907 186.262 268.851 186.272 268.795 186.282C268.795 186.282 268.795 186.282 268.795 186.282C268.731 186.325 268.874 186.343 268.907 186.366C269.22 186.588 268.975 187.025 268.94 187.269C268.932 187.322 269.008 187.493 268.917 187.529C268.893 187.539 268.807 187.541 268.803 187.551C268.855 187.64 268.906 187.729 268.957 187.818C268.823 188.001 268.934 188.19 268.954 188.374C269.01 188.872 269.078 189.366 269.057 189.856C269.053 189.951 269.118 190.071 269.076 190.164C269.059 190.203 268.921 190.219 269.024 190.27C268.987 190.27 268.949 190.271 268.912 190.271C268.957 190.316 269.042 190.344 269.05 190.394C269.058 190.436 269.063 190.546 269.049 190.583C269.042 190.603 268.972 190.595 268.972 190.613C268.974 190.644 269.07 190.71 269.07 190.752C269.07 190.79 268.99 190.855 269.001 190.884C269.042 190.99 269.161 191.106 269.13 191.219C269.12 191.25 269.03 191.29 269.033 191.3C269.038 191.319 269.126 191.325 269.137 191.338C269.194 191.403 269.09 191.505 269.086 191.568C269.072 191.777 269.11 191.997 269.094 192.204C269.084 192.335 269.1 192.553 269.034 192.674C269.019 192.7 268.923 192.693 268.923 192.715C268.923 192.739 268.988 192.752 268.993 192.764C269.03 192.842 269.096 193.016 269.029 193.09C269.017 193.104 268.941 193.114 268.942 193.123C268.942 193.127 268.993 193.137 268.998 193.15C269.045 193.269 269.015 193.355 268.997 193.471C268.964 193.694 269.059 193.952 269.008 194.186C268.996 194.237 268.847 194.272 268.849 194.279C268.852 194.295 268.952 194.305 268.977 194.337C269.058 194.442 268.951 194.585 269.002 194.686C269.026 194.736 269.153 194.804 269.182 194.853C269.204 194.892 269.154 194.984 269.21 195.002C269.244 195.012 269.352 195.017 269.366 195.03ZM267.679 193.712C267.852 193.719 267.708 193.646 267.615 193.673C267.595 193.68 267.634 193.71 267.679 193.712ZM267.98 190.284C267.93 190.284 267.881 190.285 267.832 190.286C267.852 190.295 267.873 190.305 267.893 190.315C267.923 190.309 267.953 190.304 267.983 190.298C267.982 190.293 267.981 190.289 267.98 190.284Z" fill="black"/>
<path d="M270 197.604C270.014 197.594 269.934 197.642 269.929 197.644C269.908 197.651 269.853 197.686 269.822 197.705C269.776 197.733 269.875 197.662 269.356 198.051C269.356 198.051 269.356 198.051 269.356 198.051C269.351 198.055 269.346 198.059 269.341 198.063C269.241 198.136 269.131 198.214 269.018 198.297C268.905 198.379 268.179 198.915 268.132 198.937C268.07 198.965 268.24 198.805 268.228 198.806C268.219 198.806 268.148 198.847 268.133 198.85C268.082 198.859 268.126 198.817 267.927 198.919C268.021 198.848 268.117 198.779 268.212 198.711C268.16 198.73 268.285 198.637 268.275 198.637C268.267 198.636 268.185 198.681 268.178 198.678C268.17 198.675 268.253 198.617 268.235 198.615C268.205 198.612 267.989 198.723 267.955 198.724C267.92 198.725 268.028 198.648 267.943 198.666C267.918 198.676 267.892 198.685 267.867 198.693C267.813 198.721 267.76 198.748 267.706 198.776C267.676 198.777 267.785 198.72 267.783 198.71C267.781 198.698 267.671 198.739 267.667 198.73C267.665 198.722 267.747 198.676 267.738 198.67C267.725 198.66 267.601 198.713 267.574 198.715C267.564 198.717 267.469 198.677 267.467 198.672C267.451 198.644 267.627 198.582 267.635 198.555C267.659 198.481 267.495 198.442 267.425 198.36C267.395 198.324 267.401 198.278 267.428 198.234C267.905 198.253 268.268 198.131 267.528 198.203C267.631 198.156 267.431 198.126 267.467 198.077C267.49 198.046 267.594 198.034 267.596 197.993C267.596 197.928 267.332 197.765 267.851 197.874C267.781 197.774 267.98 197.79 267.558 197.587C267.541 197.552 267.818 197.616 267.859 197.619C267.901 197.611 268.067 197.575 268.079 197.572C268.094 197.562 268.114 197.547 268.088 197.514C268.053 197.475 267.677 197.168 268.14 197.496C268.119 197.448 268.138 197.451 268.2 197.48C268.211 197.485 268.276 197.538 268.277 197.537C268.279 197.535 268.235 197.49 268.233 197.481C268.23 197.466 268.367 197.578 268.161 197.402C268.136 197.374 268.11 197.346 268.084 197.318C268.078 197.313 268.073 197.307 268.068 197.302C268.109 197.335 268.149 197.367 268.19 197.4C268.148 197.361 268.107 197.322 268.066 197.283C268.36 197.542 268.197 197.377 268.024 197.234C268.091 197.279 268.159 197.325 268.226 197.371C268.559 197.666 268.279 197.389 268.097 197.229C268.098 197.229 268.099 197.228 268.1 197.227C268.196 197.298 268.131 197.226 268.199 197.268C268.267 197.311 268.298 197.341 268.452 197.477C268.445 197.467 268.439 197.457 268.432 197.446C268.035 197.05 268.739 197.719 268.448 197.4C268.708 197.639 268.589 197.496 268.529 197.405C268.522 197.394 268.475 197.345 268.463 197.328C268.433 197.285 268.508 197.336 268.359 197.173C268.409 197.215 268.457 197.257 268.506 197.299C268.484 197.265 268.463 197.23 268.443 197.194C268.398 197.142 268.354 197.089 268.309 197.037C268.474 197.204 268.437 197.118 268.485 197.152C268.494 197.159 268.553 197.234 268.575 197.25C268.601 197.269 268.602 197.234 268.631 197.25C268.577 197.16 268.524 197.068 268.474 196.975C268.479 196.904 268.635 197.135 268.664 197.144C268.665 197.146 268.743 197.088 268.752 197.079C268.803 197.022 268.645 196.777 269.023 196.796C269.097 196.805 269.154 196.893 269.222 196.912C269.247 196.919 269.282 196.922 269.326 196.925C269.512 196.928 269.797 196.988 269.911 196.912C269.882 197.181 270.043 197.323 270.002 197.391C269.99 197.413 269.865 197.467 269.849 197.508C269.835 197.541 269.957 197.571 269.945 197.602C269.932 197.634 269.82 197.664 269.814 197.675C269.808 197.685 269.901 197.679 269.902 197.692C269.905 197.733 269.758 197.775 269.757 197.796C269.754 197.825 270.029 197.848 270.15 197.883C270.133 197.89 270.073 197.896 270.073 197.903C270.061 197.995 269.998 198.075 269.926 198.132C269.892 198.164 269.513 198.133 270.118 198.282C270.19 198.312 270.076 198.335 270 198.344C269.97 198.345 269.946 198.346 269.944 198.349C269.936 198.36 270.036 198.409 270.034 198.421C270.026 198.455 269.943 198.445 270.015 198.524C270.033 198.544 270.148 198.612 270.143 198.618C270.137 198.626 270.018 198.579 270.006 198.585C269.978 198.6 269.991 198.665 269.958 198.679C269.952 198.681 269.853 198.627 269.82 198.615C269.688 198.568 269.685 198.595 269.991 198.782C269.799 198.706 269.936 198.835 269.92 198.877C269.889 198.962 269.716 199.031 269.735 199.211C269.747 199.324 269.843 199.456 269.67 199.409C269.632 199.398 269.588 199.377 269.544 199.362C269.433 199.328 269.259 199.084 269.364 199.43C269.268 199.385 269.225 199.443 269.121 199.277C269.111 199.25 269.099 199.219 269.085 199.181C269.106 199.252 269.127 199.322 269.147 199.393C269.146 199.395 269.144 199.398 269.142 199.4C269.121 199.333 269.099 199.267 269.077 199.2C269.058 199.187 269.123 199.468 269.109 199.47C269.086 199.474 268.996 199.383 268.95 199.298C268.926 199.252 268.964 199.397 268.877 199.101C268.881 199.123 268.884 199.144 268.887 199.166C268.903 199.231 268.919 199.297 268.935 199.362C268.921 199.369 268.877 199.272 268.863 199.277C268.839 199.285 268.842 199.475 268.787 199.363C268.773 199.334 268.734 199.2 268.728 199.203C268.719 199.207 268.765 199.434 268.752 199.441C268.73 199.453 268.636 199.198 268.618 199.221C268.612 199.228 268.623 199.314 268.619 199.324C268.604 199.366 268.586 199.362 268.573 199.497C268.512 199.282 268.483 198.997 268.447 198.711C268.419 198.496 268.364 197.993 268.401 197.801C268.415 197.667 268.362 197.496 268.376 197.348C268.253 197.237 268.309 197.365 268.325 197.571C268.324 197.563 268.333 197.553 268.343 197.543C268.359 197.622 268.375 197.7 268.392 197.779C268.392 197.779 268.392 197.78 268.392 197.78C268.416 197.87 268.378 197.666 268.371 197.619C268.3 197.175 268.426 197.506 268.481 197.543C268.492 197.552 268.485 197.44 268.528 197.564C268.539 197.596 268.576 197.715 268.579 197.719C268.572 197.649 268.564 197.578 268.556 197.508C268.552 197.505 268.548 197.502 268.545 197.498C268.533 197.706 268.42 197.594 268.347 197.616C268.197 197.656 268.109 197.669 268.106 197.691C268.103 197.7 268.103 197.708 268.103 197.717C268.105 197.732 268.009 197.735 268.065 197.764C268.088 197.776 268.285 197.804 268.137 197.794C268.19 197.8 268.244 197.807 268.297 197.813C268.232 197.81 268.11 197.805 268.096 197.816C268.085 197.824 268.077 197.858 268.098 197.873C268.108 197.88 268.208 197.873 268.208 197.879C268.207 197.888 268.071 197.929 268.076 197.961C268.079 197.988 268.204 198.017 268.198 198.053C268.19 198.107 268.169 198.187 268.207 198.319C268.242 198.443 268.376 198.665 268.669 198.78C268.798 198.83 268.929 198.845 269.03 198.836C269.198 198.821 269.272 198.658 269.29 198.657C269.332 198.652 269.386 198.766 269.418 198.771C269.587 198.789 269.572 198.61 269.586 198.593C269.64 198.525 269.662 198.573 269.637 198.567C269.619 198.565 269.616 198.602 269.53 198.556C269.512 198.546 269.408 198.455 269.405 198.458C269.405 198.458 269.406 198.459 269.407 198.46C269.416 198.473 269.472 198.524 269.477 198.53C269.506 198.577 269.588 198.627 269.524 198.552C269.511 198.539 269.424 198.474 269.425 198.473C269.426 198.473 269.488 198.513 269.496 198.514C269.571 198.523 269.56 198.458 269.56 198.387C269.568 198.259 269.701 198.059 269.604 197.989C269.583 197.974 269.375 198.026 269.377 198.025C269.38 198.021 269.518 197.977 269.549 197.958C269.65 197.892 269.498 197.929 269.561 197.892C269.591 197.873 269.75 197.781 269.782 197.756C269.808 197.736 269.742 197.766 269.81 197.724C269.852 197.698 269.984 197.616 270 197.604ZM267.721 197.966C267.966 198.01 267.774 197.902 267.638 197.906C267.606 197.908 267.657 197.956 267.721 197.966ZM269.63 197.968C269.701 197.976 269.772 197.983 269.842 197.991C269.814 197.983 269.785 197.975 269.756 197.967C269.713 197.965 269.67 197.963 269.627 197.961C269.628 197.963 269.629 197.966 269.63 197.968Z" fill="black"/>
<rect x="62.5" y="36" width="75" height="75" fill="#FF99D3"/>
<path d="M92.325 57.7889C94.49 57.7708 96.4493 57.9824 97.8898 59.0143C98.2643 57.8586 98.7097 56.8544 99.3393 55.748C99.7523 55.0221 100.185 54.1896 100.71 53.5303C100.557 52.8478 100.54 52.1262 100.709 51.391C101.038 49.9623 101.684 48.4733 103.028 47.9705C104.202 47.5315 105.792 47.207 107.509 47.6876C109.083 48.1283 110.94 49.0899 112.278 51.1178C112.961 52.1525 113.436 53.3568 113.599 55.2308C113.702 56.4196 113.682 57.8477 113.524 59.3142C113.602 59.3115 113.681 59.3104 113.76 59.3108C116.018 59.323 118.313 59.5557 120.177 60.953C121.235 61.7459 122.359 62.9209 123.016 64.5337C123.674 66.1465 123.86 68.1367 123.776 69.9767C123.692 71.8167 123.348 73.4567 122.597 75.232C122.264 76.0183 121.858 76.82 121.412 77.5797C122.046 77.8223 122.693 78.1159 123.345 78.4695C124.519 79.1065 125.4 79.8159 126.162 80.8292C126.924 81.8426 127.549 83.1212 127.765 84.2822C127.982 85.4431 127.796 86.4559 127.174 87.6804C126.552 88.9049 125.526 90.299 124.28 91.4831C123.033 92.6673 121.61 93.6128 119.42 94.4892C117.229 95.3656 114.359 96.1492 111.428 96.2979C109.312 96.4052 107.21 96.1892 105.515 95.8708C104.483 96.3201 103.34 96.7806 102.147 97.2025C99.8856 98.0023 97.5188 98.6439 94.8054 98.9164C92.0921 99.1889 89.1223 99.0951 86.2216 98.0052C83.3208 96.9152 80.5724 94.8903 79.1222 92.9104C77.672 90.9304 77.4358 89.0491 77.5355 87.513C77.6292 86.0692 77.7784 84.7194 78.101 83.5624C77.4085 83.2427 76.7335 82.8893 76.1658 82.5411C75.0278 81.8431 74.2118 81.2428 73.9046 80.3694C73.2847 78.6069 73.0206 76.8567 73.7878 75.7202C74.6074 74.506 76.3024 72.8122 78.9315 71.3818C80.1922 70.6959 81.4064 70.249 82.5348 69.998C82.5548 69.9936 82.5748 69.9892 82.5947 69.9849C82.1852 69.0233 81.9878 67.8208 82.2902 66.4396C82.6676 64.7162 83.7892 62.7735 84.7953 61.4581C85.8014 60.1427 86.6658 59.4748 87.9834 58.92C89.301 58.3652 91.0114 57.7998 92.325 57.7889Z" fill="#FF89CC"/>
<path d="M86.975 61.1561C86.7894 61.4929 86.5095 62.1383 86.3688 62.73C86.1228 63.7596 85.9927 64.5754 85.8591 65.318C85.6949 66.2897 85.6388 67.1286 85.8337 68.459C85.8506 68.5704 85.8701 68.689 85.8928 68.8149C86.0877 69.9263 86.586 71.5728 87.5623 73.0379C88.4303 74.3474 89.6861 75.568 90.8307 76.4578C91.6045 77.0619 92.2921 77.4384 92.8991 77.657C93.6589 77.9445 94.1701 78.0836 94.153 78.1895C94.153 78.1895 94.153 78.1895 94.153 78.1895C94.1522 78.1939 94.1503 78.1981 94.1474 78.2021C94.0887 78.2829 93.2003 78.1928 93.0462 78.24C92.9562 78.2731 92.8967 78.502 92.6054 78.6167C92.399 78.6972 92.0415 78.7256 91.492 78.4792C91.0619 78.2845 90.539 77.9667 90.012 77.5683C88.6001 76.5255 87.1207 74.8632 86.4546 73.7787C86.2708 73.4928 86.137 73.2596 86.0506 73.1118C85.6886 72.4947 85.2608 71.7155 84.9624 70.8469C84.7428 70.2099 84.5958 69.6264 84.4895 69.0788C84.2192 67.6731 84.1627 66.4695 84.3265 65.0761C84.3737 64.6702 84.4201 64.2441 84.4746 63.776C84.7439 62.7708 85.0102 61.7448 85.5418 60.7548C85.7253 60.3445 86.0046 59.8227 86.5797 59.4822C87.5877 58.8888 88.8031 58.6718 89.3937 58.6341C89.9689 58.5873 90.3597 58.5656 90.8857 58.6325C90.9953 58.6471 91.1153 58.665 91.2433 58.6873C92.0174 58.8234 93.2306 59.1292 94.5629 59.7447C95.8739 60.3677 96.4803 60.7971 97.0392 61.1767C97.3895 61.4228 97.7166 61.6579 98.1425 62.0196C99.219 63.0162 100.99 64.4013 101.84 66.4935C101.876 66.5976 101.907 66.7061 101.93 66.8199C101.966 66.9925 101.99 67.1688 101.999 67.3543C102.039 67.1695 102.063 66.9859 102.075 66.7997C102.076 66.7714 102.076 66.7431 102.076 66.7147C102.082 66.7425 102.086 66.7701 102.09 66.7976C102.147 67.1818 102.139 67.5054 102.065 67.8403C101.975 68.151 101.885 68.62 101.239 68.9185C100.973 69.016 100.703 69.0725 100.39 69.106C99.1626 69.1852 98.5461 68.9981 97.8259 68.6382C97.7656 68.6052 97.7054 68.5698 97.6432 68.5307C97.122 68.2461 96.3598 67.415 96.2784 66.5247C96.2696 66.4665 96.263 66.4126 96.2576 66.3604C96.1735 65.4156 96.1086 65.6142 96.0793 65.0491C95.952 64.8021 96.4153 60.4986 96.5813 60.2773C96.7225 59.6839 96.857 59.2766 96.9788 58.9469C97.2346 58.276 97.4159 57.9136 97.8222 57.0036C98.0777 56.4427 98.362 55.8955 98.6639 55.3637C99.3495 54.2342 99.8417 52.8052 101.421 51.859C102.985 51.0962 104.756 50.0906 106.93 50.8966C107.208 51.0196 107.468 51.1616 107.716 51.322C108.276 51.689 108.815 52.1527 109.212 52.8368C109.767 53.782 109.774 55.0108 109.354 55.9459C109.228 56.2396 109.078 56.5207 108.9 56.7912C109.468 55.3769 108.97 56.1775 108.389 56.9035C107.823 57.6449 106.599 58.2033 108.022 57.6825C107.72 57.9103 107.358 58.0966 106.96 58.1744C105.408 58.4342 104.036 58.4479 102.509 57.585C101.958 57.2481 101.545 56.8516 101.186 56.354C100.842 55.8624 100.486 55.2918 100.168 54.4257C99.7991 53.4221 99.6858 52.2475 99.9161 51.2087C100.217 49.3312 101.525 47.6969 102.293 47.6477C102.458 47.5462 102.632 47.4599 102.811 47.3906C104.526 46.7022 106.351 46.6941 107.685 47.0597C108.709 47.3215 109.493 47.6591 110.033 47.8177C110.832 48.1928 112.327 49.7565 112.842 50.7456C112.888 50.821 112.93 50.8918 112.968 50.9568C113.233 51.326 114.123 53.1926 114.201 55.1784C114.363 57.3013 114.074 59.4703 113.987 60.0623C113.914 60.5827 113.797 61.2791 113.643 61.9686C113.462 62.7915 113.227 63.5977 113.074 64.1052C112.716 65.2187 112.75 66.1813 111.427 67.808C111.378 67.8662 111.328 67.9226 111.274 67.9815C110.505 69.2159 109.752 69.954 108.786 70.398C108.118 70.6894 107.228 70.9371 106.191 70.4832C106.109 70.4455 106.028 70.4031 105.947 70.3559C105.515 70.0827 105.526 69.981 105.321 69.782C105.071 69.5221 104.751 69.0966 104.576 68.5326C104.467 68.1888 104.403 67.8108 104.39 67.4267C104.368 66.7746 104.491 66.2414 104.62 65.856C104.801 65.3252 104.907 65.0688 104.763 65.1256C105.083 64.1621 105.552 63.2057 106.221 62.3786C106.491 62.1189 106.778 61.8815 107.079 61.6685C107.206 61.5413 107.336 61.42 107.473 61.3017C107.744 61.0635 108.023 60.8297 108.31 60.6026C108.13 60.8932 108.78 60.4654 109.387 60.089C109.99 59.7099 110.559 59.3716 109.957 59.5735C111.116 59.0289 112.421 58.648 113.763 58.6937C114.441 58.7174 115.126 58.7603 115.812 58.849C115.663 58.9944 116.715 59.0742 117.756 59.3111C118.802 59.5252 119.806 59.9818 119.67 59.8104C119.877 59.9234 120.079 60.046 120.275 60.178C120.38 60.2546 120.481 60.3325 120.582 60.4129C121.806 61.4098 122.903 62.5581 123.604 64.2938C123.722 64.5916 123.824 64.9036 123.91 65.2285C124.425 67.5941 124.208 67.3844 124.155 68.1065C124.196 68.6572 124.211 69.2092 124.2 69.7604C124.209 69.8416 124.216 69.9209 124.221 69.9971C124.294 72.3251 123.978 72.3634 122.929 75.3726C122.764 75.7916 122.569 76.2664 122.329 76.808C121.785 77.5472 120.964 78.9855 119.831 80.3273C118.997 81.3188 117.929 82.2277 116.831 82.6435C116.715 82.6884 116.644 82.7202 116.578 82.7516C116.473 82.7994 116.38 82.8517 116.121 82.9121C115.575 83.0687 114.424 83.0132 113.671 82.5844C113.044 82.2679 112.609 81.9187 112.594 82.0019C112.231 81.6635 111.867 81.3018 111.651 80.7129C111.515 80.2937 111.418 79.8528 111.404 79.3895C111.328 78.771 111.454 78.0225 111.915 77.4689C112.026 77.3313 112.148 77.2109 112.274 77.102C112.241 77.0673 112.207 77.0328 112.174 76.9983C113.396 76.1661 115.293 75.8965 116.528 75.9885C116.742 76.0011 116.935 76.0185 117.103 76.0387C117.323 76.0683 117.367 76.1282 118.045 76.2397C118.838 76.362 120.301 76.6889 121.19 77.0433C121.564 77.0987 121.939 77.1676 122.313 77.25C122.884 77.4827 123.3 77.7129 123.639 77.9262C124.257 78.3199 124.627 78.659 125.141 79.0819C125.217 79.1393 125.991 79.7792 126.548 80.5389C127.061 81.2077 127.43 81.9215 127.47 81.9974C127.903 82.8648 128.072 82.9665 128.387 84.1662C128.525 84.7944 128.667 85.9302 128.033 87.3837C127.942 87.5962 127.844 87.7889 127.743 87.9696C127.499 88.4079 127.241 88.782 126.972 89.1878C126.579 89.8027 125.626 91.098 124.758 91.9869C124.193 92.5838 123.691 93.022 123.627 93.1305C122.828 93.6519 121.145 94.6113 119.688 95.1602C118.844 95.4952 118.088 95.7397 117.681 95.8496C117.348 95.9354 117.249 95.8811 116.225 96.1279C115.4 96.3433 113.241 96.8199 112.144 96.8714C111.881 96.89 111.656 96.8975 111.459 96.8991C110.791 96.9025 110.455 96.8521 110.056 96.8451C109.569 96.8337 109.118 96.8839 108.455 96.8361C106.663 96.6998 105.052 96.3394 103.632 95.9302C103.414 95.8665 103.199 95.8024 102.988 95.7366C101.982 95.4027 100.775 95.0691 100.142 93.9313C99.5695 92.9055 99.0549 91.8813 98.8795 90.6694C98.8461 90.1623 98.8914 89.6211 99.1155 89.0521C99.1323 89.0108 99.1501 88.9658 99.1668 88.9222C99.6393 87.6356 100.51 85.619 102.574 85.3555C104.462 85.1469 106.462 84.778 108.579 85.6167C110.194 86.4166 111.968 86.992 113.252 88.7671C113.427 89.0583 113.603 89.4208 113.631 89.8639C113.664 90.3081 113.499 90.7529 113.282 91.0628C112.818 91.7457 112.278 92.3676 111.694 92.9148C110.928 93.6513 109.604 94.5657 108.217 95.2115C105.662 96.434 103.137 97.3516 104.432 97.1523C104.168 97.2818 103.406 97.5903 102.406 97.9344C99.9789 98.8507 95.984 99.5339 94.8716 99.575C94.8506 99.577 94.8307 99.5789 94.8118 99.5808C93.3896 99.716 92.2456 99.8108 91.1067 99.749C89.21 99.6356 87.6219 99.2965 85.9683 98.6791C84.6361 98.1693 83.2641 97.4909 81.7157 96.4224C80.8212 95.8083 79.8861 95.0862 79.432 94.6042C79.0985 94.256 78.7872 93.8519 78.4767 93.3832C78.2768 93.0804 78.0774 92.752 77.8763 92.3927C77.2071 91.2687 76.6096 89.3211 76.7697 87.4633C76.8614 85.903 77.0599 84.3411 77.3903 83.2597C77.5202 82.8441 77.6319 82.7187 77.9065 82.1498C78.1797 81.6015 78.5424 81.0557 78.9807 80.6148C79.7932 79.7698 80.8334 79.3782 81.3975 79.2708C81.6876 79.2018 81.8077 79.1459 81.6636 79.086C83.434 78.9991 85.3509 79.4608 86.6128 80.7903C87.3146 81.5395 87.7351 82.433 87.7641 83.5222C87.7838 83.9644 87.5812 84.7492 86.9832 85.1126C86.7024 85.2968 86.4198 85.3798 86.1633 85.4291C84.4441 85.7643 82.1451 85.9324 79.8908 85.1614C78.4593 84.6698 77.0755 84.0418 75.7388 83.2372C74.8327 82.6478 73.6644 82.0421 73.1301 80.6418C72.5602 78.9428 72.0123 76.9766 73.0821 75.2438C73.5026 74.611 73.947 74.1039 74.3553 73.672C76.1154 71.9372 76.5737 71.5873 78.4538 70.5038C79.0847 70.1665 79.8924 69.7726 81.0407 69.4141C81.4598 69.2849 81.8853 69.1756 82.3322 69.0868C82.988 68.9554 83.7052 68.8715 84.4846 68.8595C85.0669 68.8497 85.627 68.8817 86.166 68.9262C87.9074 69.0712 89.5783 69.2383 91.1327 69.6114C91.5525 69.7126 91.964 69.8024 92.3677 69.8809C94.4424 70.5917 96.5384 71.3567 97.6269 73.2393C98.0561 74.0217 98.326 74.8359 98.3735 75.7032C98.4635 76.0186 98.5255 76.3589 98.5209 76.7344C98.5163 76.7653 98.5112 76.7961 98.5057 76.8269C98.4328 77.2327 98.3251 77.6309 98.1891 78.015C98.0976 78.1267 98.0038 78.2342 97.9081 78.3378C97.2803 79.8761 96.034 81.4147 94.5091 82.3864C93.2344 83.2528 91.6321 83.5659 90.4427 83.4566C90.4132 83.4545 90.3833 83.4522 90.353 83.4497C89.1642 83.3268 87.5749 83.0447 85.9184 81.9157C85.0191 81.3175 84.3246 80.0711 84.2254 78.9775C84.0484 77.8588 84.2412 76.6726 84.5381 75.6718C85.0316 74.0078 85.7044 72.5056 86.4187 71.2357C87.0492 70.1154 87.7537 69.2182 88.3163 68.6166C88.7588 68.1414 89.0883 67.8264 89.3477 67.5818C89.932 67.0427 90.1669 66.8414 90.8957 66.4571C91.2485 66.1649 91.6091 65.8827 91.9801 65.6103C92.191 65.4091 92.4068 65.2111 92.6302 65.0168C92.8 64.9108 92.9751 64.8062 93.1559 64.704C94.0335 64.1976 95.2186 63.6619 96.4398 63.6863C98.0186 63.6798 99.5973 63.9009 100.951 64.3713C101.742 64.6488 102.607 65.0529 103.368 65.7513C103.604 65.9768 103.97 66.3435 103.993 66.9492C103.988 67.5267 103.756 67.8443 103.601 68.1288C102.728 69.5966 101.229 70.3614 99.8887 71.0189C97.5422 72.1046 95.1679 72.8697 93.1714 73.367C92.4363 73.5471 91.5637 73.7068 90.7256 73.8198C90.296 73.8778 89.8787 73.9227 89.4927 73.9584C87.8472 74.034 87.2961 74.327 85.2055 73.4992C85.1968 73.4953 85.1881 73.4914 85.1793 73.4875C84.2662 73.0947 83.0175 72.3089 82.3132 71.0223C81.5108 69.6676 81.2668 67.8606 81.6586 66.3013C82.2302 64.0768 83.4091 62.3655 84.2725 61.1788C84.2921 61.1527 84.3112 61.1272 84.33 61.1022C84.9103 60.3431 85.2108 59.9475 85.7586 59.4765C86.3756 58.9557 87.063 58.5819 87.7225 58.3004C89.191 57.6955 90.577 57.1582 92.3189 57.0562C92.7496 57.0423 93.1894 57.0347 93.6455 57.0416C96.706 57.4501 96.3931 57.8611 97.1822 58.3486C97.361 58.4842 97.6486 58.7088 97.9219 58.9958C98.5334 59.6275 99.2589 60.4778 99.2747 60.6466C99.2735 60.6538 99.2672 60.6564 99.2518 60.6461C99.2364 60.6381 99.1999 60.585 99.1993 60.596C99.211 60.6486 99.2383 60.6979 99.2208 60.6973C99.1964 60.7085 99.1324 60.6833 99.072 60.6651C98.9479 60.6255 98.8239 60.5927 98.8924 60.7202C98.3992 60.3126 97.9023 59.9576 97.4576 59.6397C95.8736 58.6177 94.456 58.5079 92.3299 58.3749C92.2878 58.3728 92.2437 58.3714 92.1999 58.3705C90.8894 58.442 89.5082 58.9188 88.2098 59.4577C86.9931 59.9436 86.0585 60.7455 85.2622 61.8153C84.1907 63.2474 83.2606 64.8874 82.8705 66.5667C82.7629 67.0603 82.7191 67.5611 82.7478 68.0572C82.7161 68.4885 82.7391 68.9291 82.8211 69.3671C82.821 69.3672 82.8208 69.3672 82.8207 69.3672C82.9431 69.798 83.1115 70.1516 83.2891 70.4438C83.8698 71.3657 84.455 71.66 85.12 72.016C85.3086 72.1126 85.5079 72.2034 85.7171 72.2905C87.0481 72.8943 88.6936 72.9143 90.5122 72.5716C93.2434 72.0333 96.3291 71.0554 99.2922 69.7336C100.535 69.1441 101.811 68.4616 102.427 67.416C102.564 67.2035 102.642 66.9884 102.63 66.9799C102.64 66.9977 102.613 66.8964 102.443 66.7401C100.969 65.3967 98.5888 65.0267 96.463 65.036C95.5351 65.028 94.7026 65.393 93.8284 65.8866C92.5086 66.6396 91.2807 67.5667 90.2211 68.526C89.0893 69.5478 88.2194 70.6859 87.5646 71.8703C87.262 72.4115 86.9972 72.9561 86.7622 73.4878C86.515 74.0507 86.1425 74.9609 85.842 76.0375C85.6008 76.904 85.4447 77.8407 85.5999 78.7743C85.7159 79.663 86.11 80.3221 86.7495 80.7747C87.9243 81.5891 89.2643 81.8566 89.7821 81.9832C90.0863 82.052 90.2209 82.1209 90.458 82.1686C90.535 82.1836 90.6222 82.1954 90.729 82.2007C91.8474 82.24 92.9301 81.9374 93.8677 81.3371C95.5799 80.2769 96.8502 78.5211 97.1782 76.5846C97.281 75.9412 97.0643 75.1532 96.7347 74.4644C96.6544 74.283 96.5641 74.1048 96.4654 73.9335C95.4254 72.1943 92.9659 71.5234 90.7731 70.862C89.3101 70.4486 87.7043 70.3715 86.0977 70.2944C84.914 70.2357 83.7686 70.2644 82.6527 70.5279C81.4511 70.8017 80.2902 71.2753 79.2002 71.8756C77.4687 72.834 75.8584 74.0493 74.6531 75.5371C74.5193 75.7048 74.3921 75.8763 74.2758 76.0496C73.5975 77.0834 73.9736 78.7549 74.471 80.1702C74.7192 80.9044 75.6028 81.4821 76.4838 82.0226C77.6854 82.7434 79.0153 83.3466 80.3467 83.7976C82.11 84.3922 84.021 84.3683 85.896 84.0007C86.0892 83.9656 86.2033 83.8981 86.2355 83.8538C86.2722 83.8147 86.3164 83.6995 86.3172 83.5024C86.3159 82.9194 86.0227 82.2151 85.586 81.7632C84.6164 80.7171 83.0538 80.3901 81.5554 80.5815C80.9633 80.6542 80.3582 81.0088 79.8965 81.4945C78.5618 82.9388 78.3655 85.3458 78.2056 87.5565C78.0715 89.3402 78.5996 91.0769 79.6713 92.5082C81.3422 94.6948 83.8501 96.353 86.4644 97.3589C89.0663 98.3412 91.9271 98.5138 94.7361 98.2258C97.1846 97.9851 99.5803 97.3806 101.916 96.5506C102.369 96.3908 102.819 96.224 103.267 96.0504C104.663 95.5097 106.168 94.8475 107.664 94.097C109.474 93.1988 111.115 91.8999 112.165 90.3115C112.265 90.1588 112.29 90.059 112.283 89.9464C112.277 89.8325 112.215 89.6633 112.098 89.4727C111.91 89.1601 111.577 88.8522 111.223 88.5851C110.119 87.7972 109.435 87.3977 108.054 86.7872C107.792 86.675 107.469 86.5883 107.078 86.5407C107.062 86.5002 107.046 86.4597 107.029 86.4193C105.49 86.2506 104.316 86.4685 102.76 86.6945C102.456 86.7438 102.165 86.852 101.883 87.058C101.401 87.3693 100.847 88.279 100.403 89.5523C100.012 90.6154 100.759 92.3696 101.257 93.3719C101.38 93.6198 101.54 93.779 101.695 93.9022C102.284 94.296 102.027 94.2237 102.734 94.5149C103.039 94.6279 103.448 94.7507 103.923 94.8721C105.391 95.2573 107.475 95.5089 108.934 95.5826C109.625 95.6232 110.504 95.6546 111.394 95.6231C112.753 95.5812 114.145 95.3681 114.941 95.1882C116.352 94.8747 117.777 94.4286 119.165 93.8528C120.866 93.1526 122.452 92.2267 123.762 90.9382C124.847 89.8832 125.809 88.6471 126.491 87.3339C126.578 87.1642 126.659 86.9945 126.731 86.8251C127.088 86.037 127.213 85.1127 127.088 84.4084C127.033 84.0403 126.948 83.7489 126.901 83.6121C126.619 82.8391 126.409 82.6573 126.132 82.1794C125.959 81.8928 125.76 81.5948 125.536 81.3003C124.916 80.4719 124.05 79.7329 122.976 79.1485C121.197 78.1459 119.166 77.546 117.604 77.3576C117.227 77.3093 116.846 77.2751 116.467 77.2564C115.133 77.1808 113.584 77.4886 112.849 78.2765C112.462 78.6903 112.499 79.4931 112.804 80.2767C112.951 80.6593 113.619 81.2098 114.229 81.5223C114.849 81.8526 115.534 81.8847 116.254 81.6653C117.31 81.349 118.262 80.5685 119.061 79.6532C120.243 78.2778 121.202 76.6274 121.923 74.9472C122.611 73.3433 122.976 71.6628 123.048 69.9434C123.065 69.582 123.071 69.2208 123.065 68.8618C123.042 67.6115 122.891 66.1607 122.347 64.8067C121.848 63.5658 120.923 62.4098 119.745 61.5291C118.117 60.279 115.858 60.027 113.756 60.018C111.656 60.0097 109.802 61.1984 108.439 62.1621C108.362 62.2168 108.294 62.266 108.231 62.3104C107.57 62.8166 107.641 62.6306 107.065 63.283C106.409 64.107 106.247 64.6838 106.051 65.138C105.926 65.4437 105.804 65.7943 105.687 66.1856C105.515 66.7623 105.471 67.5291 105.674 68.2151C105.821 68.7203 106.192 69.1812 106.675 69.386C107.133 69.5888 107.709 69.5302 108.265 69.267C109.135 68.8689 109.809 68.0106 110.337 67.145C111.088 65.8994 111.574 64.6457 111.897 63.7434C112.111 63.1375 112.307 62.7069 112.403 62.3317C112.433 62.2152 112.466 62.0023 112.514 61.7161C112.543 61.5382 112.578 61.3312 112.62 61.1C112.991 59.0183 113.09 57.092 112.946 55.2877C112.827 53.8922 112.495 52.606 111.738 51.4743C110.984 50.3171 109.896 49.3314 108.474 48.7002C108.11 48.538 107.73 48.4013 107.34 48.2909C106.042 47.9162 104.596 48.0425 103.246 48.5539C102.217 48.9202 101.614 50.2161 101.321 51.5316C101.003 52.8689 101.446 54.3296 102.336 55.4749C103.25 56.6979 105.087 57.0827 106.671 56.7592C107.128 56.6811 107.651 56.025 107.927 55.3458C108.174 54.7652 108.152 54.1238 107.854 53.6078C107.548 53.0718 106.929 52.5928 106.292 52.3005C105.14 51.7963 103.464 52.4567 102.088 53.1522C101.944 53.2252 101.802 53.3245 101.665 53.4439C100.782 54.264 100.24 55.3722 99.8026 56.0117C99.5315 56.4302 99.3625 56.7143 99.3043 56.8305C98.9937 57.4789 98.8653 57.922 98.4375 59.3032C98.4284 59.3334 98.4194 59.3638 98.4104 59.3943C97.8192 61.4028 97.434 63.8441 97.6321 66.2343C97.6748 66.7135 97.8951 67.0082 98.3839 67.3055C99.105 67.7589 100.079 67.9081 100.719 67.6576C100.568 67.7584 100.687 67.6948 100.697 67.5307C100.721 67.3748 100.716 67.1793 100.69 66.9926C100.588 66.3675 99.9948 65.6248 99.4697 65.0467C98.6216 64.1182 97.4189 63.1098 96.2167 62.1604C95.3286 61.4566 94.3547 60.9442 93.4832 60.6166C92.8369 60.3613 91.8108 60.0776 90.6696 59.8949C89.2243 59.6089 87.7609 60.2627 87.4308 60.5001C87.365 60.5426 87.3081 60.585 87.2566 60.627C87.1679 60.7402 87.1361 60.8582 86.975 61.1561ZM99.9016 52.5342C99.9884 52.7062 99.959 51.9454 100.11 51.2531C100.253 50.5164 100.452 49.8171 100.165 50.5145C100.123 50.6252 100.041 50.908 99.9759 51.2224C99.845 51.793 99.8686 52.4765 99.9016 52.5342ZM106.562 85.4266C106.533 85.3747 106.503 85.3229 106.473 85.2712C105.995 85.2589 105.526 85.2812 105.063 85.3213C105.325 85.34 105.587 85.3646 105.848 85.3975C106.085 85.3996 106.323 85.4084 106.562 85.4266Z" fill="black"/>
<path d="M127.405 143.969C127.405 167.511 153.219 175.317 184.595 175.317C215.97 175.317 241.974 167.511 241.974 143.969C241.974 103.829 215.97 90.0664 184.595 90.0664C153.219 90.0664 127.405 101.917 127.405 143.969Z" fill="white"/>
<path d="M143.434 148.445H136.668" stroke="#FFC0C1" stroke-width="9.02124" stroke-linecap="round"/>
<path d="M133.065 172.605C138.14 183.1 156.963 187.946 165.741 189.058C166.633 188.607 171.735 183.259 171.795 181.039C171.952 175.191 157.073 173.25 145.59 158.581C141.579 153.459 126.721 159.487 133.065 172.605Z" fill="#F2F2F2"/>
<path d="M155.546 236.553C152.539 234.684 152.042 215.235 153.981 205.855L184.025 215.454C183.597 223.225 181.477 238.9 179.793 239.898C177.687 241.146 159.306 238.889 155.546 236.553Z" fill="#F2F2F2"/>
<path d="M156.966 219.149C147.295 212.718 160.368 172.601 169.815 167.548C179.261 162.495 194.625 163.26 201.372 167.548C208.119 171.835 224.793 212.565 215.122 219.149C205.451 225.734 166.637 225.58 156.966 219.149Z" fill="white"/>
<path d="M212.239 238.671C215.474 237.348 218.624 219.723 217.986 210.949L186.912 215.909C186.274 223.03 186.231 237.552 187.763 238.671C189.679 240.07 208.195 240.324 212.239 238.671Z" fill="white"/>
<path d="M231.599 199.766C231.799 188.11 217.181 175.3 209.847 170.352C208.847 170.352 206.446 170.736 204.846 172.276C202.846 174.2 211.097 200.866 214.097 206.639C217.097 212.412 231.349 214.336 231.599 199.766Z" fill="white"/>
<path d="M161.235 205.498C161.235 217.53 171.534 220.42 184.239 220.42C196.944 220.42 207.243 217.53 207.243 205.498C207.243 189.68 196.944 180.727 184.239 180.727C171.534 180.727 161.235 189.68 161.235 205.498Z" fill="#F2F2F2"/>
<path d="M185.749 213.511C185.633 213.511 185.518 213.493 185.411 213.459C185.304 213.424 185.206 213.372 185.124 213.307L181.211 210.156C181.067 210.022 180.992 209.85 181.001 209.673C181.009 209.497 181.101 209.33 181.258 209.205C181.414 209.08 181.624 209.007 181.845 209.001C182.067 208.994 182.283 209.054 182.451 209.168L186.373 212.285C186.455 212.35 186.521 212.428 186.565 212.513C186.61 212.598 186.633 212.69 186.633 212.782C186.633 212.875 186.61 212.966 186.565 213.052C186.521 213.137 186.455 213.214 186.373 213.279C186.294 213.349 186.198 213.406 186.09 213.446C185.983 213.485 185.867 213.508 185.749 213.511Z" fill="#FFC0C1"/>
<path d="M181.878 213.511C181.763 213.511 181.649 213.493 181.543 213.459C181.436 213.424 181.34 213.373 181.258 213.308C181.176 213.243 181.111 213.166 181.067 213.081C181.023 212.995 181 212.904 181 212.812C181 212.72 181.023 212.628 181.067 212.543C181.111 212.458 181.176 212.381 181.258 212.316L185.14 209.207C185.222 209.141 185.318 209.089 185.424 209.054C185.531 209.018 185.645 209 185.76 209C185.875 209 185.989 209.018 186.095 209.054C186.202 209.089 186.298 209.141 186.379 209.207C186.542 209.338 186.633 209.515 186.633 209.699C186.633 209.884 186.542 210.061 186.379 210.192L182.488 213.308C182.326 213.437 182.106 213.51 181.878 213.511Z" fill="#FFC0C1"/>
<path d="M162.331 68.5633C162.789 80.7954 171.787 106.915 172.465 117.01L202.31 125.007C207.945 116.603 227.646 98.1738 235.092 88.0595C244.326 75.5153 243.507 55.7758 228.115 51.6516C215.407 48.2464 203.83 67.6371 199.147 78.4282C200.488 66.7415 199.722 44.0436 187.449 40.7551C172.057 36.6309 161.748 52.9978 162.331 68.5633Z" fill="white"/>
<path d="M205.484 130.855V138.072" stroke="#123041" stroke-width="6.76593" stroke-linecap="round"/>
<path d="M150.906 130.855V138.072" stroke="#123041" stroke-width="6.76593" stroke-linecap="round"/>
<path d="M218.309 148.445H211.543" stroke="#FFC0C1" stroke-width="9.02124" stroke-linecap="round"/>
<path d="M170.045 149.55C170.045 153.614 170.045 155.658 177.487 155.658C184.93 155.658 184.93 153.977 184.93 149.55C184.93 145.122 181.597 138.066 177.487 138.066C173.377 138.066 170.045 145.485 170.045 149.55Z" fill="#FFC0C1"/>
<path d="M177.489 138.066C174.844 138.066 172.523 141.139 171.203 144.412C172.987 145.245 175.153 145.734 177.489 145.734C179.849 145.734 182.035 145.234 183.83 144.386C182.52 141.069 180.17 138.066 177.489 138.066Z" fill="#F0F0F0"/>
<path d="M179.332 131.754C178.447 131.754 178.041 132.123 177.488 132.492C176.934 132.123 176.529 131.754 175.643 131.754C174.537 131.754 173.894 132.914 174.168 133.599C174.537 134.522 175.889 135.444 177.488 135.813C179.086 135.444 180.439 134.522 180.808 133.599C181.082 132.914 180.439 131.754 179.332 131.754Z" fill="#FFC0C1"/>
<path d="M303.238 172.403C303.152 172.397 303.048 172.308 302.949 172.283C302.539 172.179 302.395 172.101 302.026 171.994C301.479 171.835 299.817 171.546 299.918 171.106C299.918 171.106 299.918 171.106 299.918 171.106C299.919 171.102 299.92 171.097 299.922 171.093C299.946 171.011 300.107 170.951 300.149 170.861C300.191 170.771 300.315 170.157 300.521 170.167C300.817 170.187 301.469 170.499 301.624 170.526C301.729 170.544 301.871 170.518 302.007 170.537C302.445 170.601 302.662 170.692 303.083 170.625C303.221 170.739 303.36 170.852 303.497 170.966C303.709 170.973 303.994 171.143 304.118 171.164C304.221 171.181 304.293 171.13 304.399 171.149C304.519 171.171 304.686 171.277 304.903 171.311C305.26 171.368 305.357 171.216 305.572 171.238C305.795 171.261 306.12 171.419 306.411 171.416C306.45 171.404 306.488 171.393 306.527 171.382C306.51 171.336 306.493 171.29 306.476 171.244C306.619 171.252 306.665 171.348 306.793 171.374C306.946 171.405 307.038 171.34 307.14 171.36C307.225 171.376 307.325 171.461 307.436 171.477C307.595 171.501 307.577 171.402 307.666 171.4C307.701 171.4 308.336 171.458 308.373 171.463C308.632 171.503 308.645 171.626 308.835 171.675C308.842 171.677 308.849 171.678 308.856 171.68C309.432 171.8 310.111 171.788 310.468 171.725C310.529 171.721 310.603 171.662 310.418 171.762C310.325 171.806 310.124 172.055 310.118 172.263C310.104 172.463 310.153 172.52 310.161 172.536C310.272 172.341 310.468 172.471 310.478 172.382C310.485 172.308 310.376 172.271 310.215 172.491C310.198 172.332 309.961 172.283 309.815 172.111C309.757 172.045 309.728 171.985 309.677 171.91C309.638 171.852 309.583 171.783 309.503 171.715C309.184 171.446 308.686 171.307 308.821 170.943C308.384 170.674 308.119 170.293 307.771 170.429C307.655 170.362 307.511 169.996 307.412 169.882C307.316 169.775 306.535 169.012 306.404 168.888C306.272 168.768 306.04 168.557 305.909 168.476C305.745 168.376 305.414 168.531 305.436 168.008C305.128 167.755 305.035 167.646 304.812 167.342C304.772 167.287 304.81 167.242 304.784 167.213C304.728 167.152 304.605 167.08 304.504 166.969C304.341 166.791 304.352 166.602 304.221 166.74C304.097 166.633 303.972 166.517 303.851 166.392C303.847 166.322 303.845 166.252 303.845 166.184C303.762 166.126 303.681 166.067 303.601 166.003C303.885 165.976 303.457 165.445 303.405 165.703C303.371 165.573 303.341 165.431 303.323 165.291C303.291 165.039 303.296 164.779 303.346 164.53C303.5 164.562 303.515 164.365 303.517 164.158C303.515 163.951 303.503 163.717 303.411 163.717C303.43 163.675 303.45 163.634 303.47 163.593C303.723 163.282 303.887 162.979 304.234 162.731C304.582 162.498 304.573 162.559 304.753 162.597C304.821 162.537 304.891 162.478 304.961 162.421C305.155 161.835 305.423 162.444 305.978 161.827C306.309 161.935 306.806 161.576 307.154 161.36C307.194 161.335 307.177 161.291 307.229 161.254C307.342 161.177 307.647 161.104 307.673 160.997C307.678 160.981 307.676 160.964 307.668 160.947C307.806 160.94 307.944 160.934 308.079 160.927C308.168 160.861 308.251 160.796 308.329 160.731C308.309 160.687 308.289 160.644 308.27 160.6C308.387 160.638 308.524 160.597 308.558 160.583C308.564 160.583 308.56 160.582 308.525 160.624C308.499 160.649 308.381 160.842 308.451 161.054C308.521 161.244 308.587 161.256 308.607 161.276C308.628 161.288 308.631 161.285 308.631 161.279C308.627 161.269 308.659 161.208 308.593 161.166C308.513 161.115 308.299 161.084 308.167 161.035C308.097 161.094 308.031 161.155 307.961 161.216C307.737 161.206 307.672 161.046 307.556 160.978C307.541 160.969 307.526 160.962 307.509 160.957C307.482 160.949 306.988 160.873 306.96 160.872C306.734 160.863 306.77 161.039 306.139 160.881C306.028 160.853 305.945 160.778 305.845 160.756C305.665 160.716 305.092 160.724 305.021 160.829C304.833 160.635 304.229 160.547 304.065 160.455C304.017 160.428 304.03 160.334 303.875 160.268C303.75 160.216 303.393 160.187 303.232 160.118C303.062 160.046 303.025 159.948 302.95 159.914C302.88 159.883 302.788 159.918 302.688 159.878C302.375 159.753 302.138 159.53 301.9 159.4C301.56 159.213 301.151 159.173 300.802 158.958C300.756 158.902 300.724 158.834 300.685 158.772C300.669 158.747 300.653 158.722 300.633 158.699C299.685 157.613 300.071 156.019 300.508 155.129C300.706 154.662 301.495 153.782 300.967 153.845C300.969 153.8 301.02 153.701 301.091 153.586C301.299 153.25 301.688 152.706 301.714 152.618C301.746 152.561 301.699 152.515 301.701 152.721C301.697 152.781 301.756 152.981 301.938 153.095C302.113 153.203 302.23 153.186 302.273 153.183C302.273 153.183 302.274 153.183 302.275 153.182C302.455 153.131 302.274 153.19 302.205 153.236C302.115 153.285 302.019 153.339 301.922 153.398C301.728 153.514 301.522 153.651 301.279 153.85C301.236 153.886 301.2 153.926 301.163 153.97C301.092 154.055 301.032 154.143 300.977 154.178C300.881 154.239 300.726 154.235 300.598 154.312C300.292 154.499 299.749 154.891 299.453 155.067C299.398 155.099 299.337 155.046 299.249 155.075C298.903 155.188 298.579 155.41 298.773 155.58C298.319 155.708 298.04 156.042 297.691 156.275C297.47 156.422 297.193 156.597 296.885 156.783C296.696 156.894 296.523 157.008 296.23 157.139C296.069 157.186 295.901 157.349 295.353 157.222C295.083 157.143 294.874 156.925 294.791 156.787C294.699 156.642 294.665 156.539 294.635 156.449C294.469 155.826 294.47 155.542 294.394 155.258C294.393 155.256 294.393 155.253 294.392 155.251C294.278 154.786 294.17 154.806 294.192 154.095C294.196 153.935 294.209 153.778 294.214 153.584C294.226 153.133 294.387 152.702 294.104 152.39C294.114 151.889 294.025 151.5 294.195 151.111C294.14 151.073 294.084 151.036 294.029 150.998C294.021 150.939 294.012 150.877 294.004 150.817C294.051 150.793 294.097 150.769 294.143 150.745C294.114 150.401 293.946 150.004 293.853 149.674C293.828 149.584 293.808 149.499 293.799 149.424C293.781 149.277 293.76 149.075 293.735 148.848C293.723 148.737 293.71 148.616 293.695 148.503C293.688 148.447 293.68 148.391 293.674 148.351C293.671 148.331 293.667 148.313 293.671 148.321C293.675 148.327 293.675 148.334 293.703 148.389C293.722 148.419 293.734 148.459 293.83 148.561C293.88 148.61 293.962 148.69 294.136 148.75C294.304 148.812 294.546 148.787 294.664 148.732C294.939 148.607 294.987 148.474 295.02 148.434C295.048 148.387 295.054 148.37 295.058 148.359C295.066 148.339 295.062 148.344 295.059 148.35C295.052 148.365 295.041 148.394 295.03 148.423C295.008 148.481 294.985 148.547 294.962 148.611C294.915 148.74 294.869 148.869 294.826 148.988C294.738 149.226 294.658 149.434 294.598 149.575C294.497 149.813 294.543 149.885 294.421 149.967C294.394 149.984 294.359 150.001 294.313 150.021C294.306 150.094 294.301 150.163 294.295 150.236C294.326 150.293 294.359 150.346 294.391 150.402C294.276 150.787 294.067 151.221 293.956 151.587C293.754 152.253 293.571 153.29 293.287 153.933C293.215 154.094 293.059 154.276 293.01 154.44C292.939 154.68 293.075 154.784 292.986 155.087C292.899 155.387 292.705 155.821 292.533 156.227C292.406 156.529 292.291 156.814 292.236 157.026C292.198 157.172 292.236 157.258 292.213 157.361C292.12 157.791 292.018 158.139 292.001 158.567C291.739 158.963 291.557 158.878 291.329 158.966C291.156 159.032 290.737 159.269 290.597 159.283C290.499 159.292 290.412 159.145 290.302 159.165C290.354 158.612 290.5 158.403 290.755 158.006C290.941 157.289 291.141 156.582 291.345 155.875C291.369 155.79 291.395 155.701 291.419 155.617C291.495 155.56 291.569 155.505 291.644 155.449C291.645 155.449 291.645 155.449 291.645 155.449C291.797 155.165 291.698 154.995 291.716 154.823C291.853 153.494 292.645 151.299 293.23 149.608C293.373 149.194 293.502 148.811 293.607 148.476C293.628 148.41 293.655 148.314 293.685 148.202C293.701 148.144 293.717 148.084 293.736 148.015C293.746 147.98 293.756 147.944 293.772 147.898C293.78 147.873 293.787 147.849 293.806 147.806C293.816 147.784 293.827 147.756 293.856 147.709C293.889 147.666 293.936 147.555 294.151 147.459C294.24 147.419 294.404 147.397 294.534 147.435C294.672 147.474 294.747 147.539 294.789 147.577C294.881 147.666 294.897 147.707 294.92 147.746C294.956 147.814 294.967 147.846 294.979 147.879C295 147.94 295.011 147.982 295.021 148.022C295.042 148.103 295.056 148.171 295.069 148.239C295.095 148.374 295.115 148.498 295.13 148.614C295.161 148.844 295.173 149.032 295.155 149.121C295.14 149.192 295.058 149.223 295.063 149.296C295.079 149.37 295.094 149.444 295.109 149.52C295.224 150.09 295.335 150.66 295.444 151.229C295.458 152.516 295.692 153.819 295.85 155.102C295.858 155.168 295.866 155.228 295.873 155.292C295.894 155.467 295.915 155.638 295.94 155.794C295.948 155.928 296.055 156.147 295.96 155.982C295.926 155.937 295.82 155.867 295.74 155.854C295.659 155.839 295.626 155.849 295.62 155.849C295.61 155.851 295.668 155.83 295.724 155.799C295.845 155.736 295.989 155.646 296.135 155.554C297.545 154.647 298.946 153.675 300.355 152.737C300.59 152.581 300.823 152.426 301.061 152.272C301.182 152.195 301.301 152.118 301.431 152.04C301.586 151.962 301.611 151.875 302.057 151.768C302.191 151.75 302.408 151.729 302.668 151.881C302.932 152.039 303.04 152.318 303.064 152.47C303.109 152.737 303.045 152.901 303.019 152.993C302.987 153.092 302.956 153.164 302.926 153.234C302.866 153.372 302.807 153.49 302.746 153.609C302.626 153.845 302.504 154.068 302.38 154.293C302.351 154.344 302.321 154.399 302.292 154.45C301.952 155.049 301.65 155.81 301.488 156.349C301.422 156.569 301.262 156.661 301.36 156.95C301.323 156.953 301.285 156.956 301.248 156.96C301.301 157.216 301.411 157.341 301.511 157.546C301.548 157.618 301.617 157.733 301.719 157.845C301.859 158.003 302.098 158.17 302.207 158.246C302.306 158.315 302.231 158.351 302.332 158.409C302.504 158.508 302.94 158.605 303.21 158.705C303.451 158.801 303.855 159.017 304.059 159.064C304.789 159.239 305.62 159.304 306.413 159.491C306.633 159.543 306.903 159.686 306.974 159.696C307.111 159.717 307.169 159.638 307.263 159.644C307.419 159.654 307.6 159.685 307.79 159.727C308.196 159.821 308.602 159.933 309.024 160.081C309.122 160.124 309.205 160.131 309.423 160.307C309.472 160.351 309.554 160.431 309.618 160.558C309.69 160.694 309.724 160.899 309.687 161.067C309.606 161.389 309.479 161.463 309.414 161.535C309.148 161.754 309.038 161.775 308.893 161.849C308.623 161.972 308.379 162.067 308.129 162.167C307.162 162.545 306.226 162.936 305.499 163.438C305.24 163.616 304.944 163.872 304.778 164.14C304.61 164.411 304.578 164.65 304.64 164.93C304.678 165.1 304.758 165.286 304.834 165.445C304.907 165.593 304.801 165.604 304.881 165.725C304.971 165.857 305.079 165.89 305.128 165.946C305.461 166.348 306.373 167.16 306.73 167.559C306.796 167.636 306.801 167.741 306.847 167.781C306.87 167.802 306.956 167.809 307.032 167.869C307.706 168.394 308.175 168.811 308.827 169.357C309.384 169.826 310.01 170.295 310.64 170.838C310.837 171.012 311.033 171.19 311.232 171.416C311.329 171.529 311.43 171.65 311.531 171.839C311.581 171.939 311.637 172.051 311.66 172.247C311.692 172.43 311.612 172.761 311.431 172.934C311.08 173.255 310.871 173.223 310.697 173.261C310.523 173.281 310.377 173.281 310.237 173.277C309.954 173.267 309.705 173.237 309.458 173.201C309.069 173.142 308.838 172.954 308.785 172.948C308.734 172.941 308.689 172.954 308.632 172.97C308.563 172.99 308.474 173.015 308.341 173.007C307.549 172.961 306.534 172.66 305.795 172.564C305.431 172.516 304.912 172.54 304.552 172.494C304.265 172.457 303.61 172.267 303.473 172.295C303.391 172.311 303.333 172.41 303.238 172.403ZM309.365 171.488C309.515 171.387 309.016 171.162 309.11 171.36C309.131 171.404 309.326 171.514 309.365 171.488ZM300.319 157.077C300.27 157.085 300.221 157.093 300.172 157.102C300.197 157.187 300.226 157.27 300.259 157.352C300.282 157.3 300.305 157.25 300.331 157.201C300.326 157.16 300.322 157.118 300.319 157.077Z" fill="black"/>
<path d="M65.4557 92.0068C65.6798 91.9973 65.9952 92.067 66.2597 92.0759C66.3914 92.0804 66.5138 92.0853 66.6287 92.0907C67.1229 92.1173 67.5262 92.174 67.9986 92.3904C68.2295 92.502 68.5007 92.6729 68.7235 92.977C68.9499 93.2785 69.0569 93.6964 69.049 94.0445C69.0482 94.1897 69.0331 94.3376 69.0099 94.4795C68.9025 95.1581 68.5783 95.8855 68.2989 96.5611C67.6965 98.065 67.073 99.8213 66.7906 99.7204C66.7906 99.7204 66.7905 99.7204 66.7905 99.7204C66.7863 99.719 66.7822 99.7172 66.7782 99.7149C66.7025 99.6709 66.7311 99.2922 66.6572 99.2076C66.5829 99.1242 65.975 98.9641 66.1108 98.4522C66.2671 97.8812 66.7421 96.7366 67.0545 96.0669C67.1442 95.872 67.2134 95.7219 67.2461 95.6362C67.3449 95.3778 67.4178 95.047 67.5023 94.738C67.5506 94.5607 67.5842 94.4043 67.6025 94.2658C67.6408 93.9294 67.593 93.8794 67.5064 93.822C67.4018 93.753 67.1222 93.6978 66.7681 93.7403C66.7094 93.7225 66.6532 93.7062 66.5904 93.6909C66.2488 93.6149 65.9098 93.5406 65.5672 93.4683C65.0293 93.4981 64.2178 93.3907 63.8903 93.401C63.6221 93.4087 63.4675 93.4756 63.1892 93.4847C62.8774 93.4957 62.396 93.4391 61.832 93.481C60.9064 93.5548 60.7649 93.7434 60.2287 93.8307C59.955 93.8785 59.598 93.9159 59.2581 93.9897C59.0863 94.0272 58.9177 94.0755 58.7893 94.135C58.6594 94.1839 58.5892 94.2984 58.6666 94.2041C58.6704 94.1998 58.6742 94.1949 58.678 94.1896C58.6986 94.1815 58.7191 94.1608 58.7315 94.1328C58.7761 94.1461 58.819 94.1776 58.8516 94.2212C58.9051 93.9864 58.6723 94.0019 58.8183 94.083C58.9963 94.1652 59.1971 94.1069 59.4019 94.1199C59.4196 94.1209 59.4382 94.1225 59.458 94.1244C59.6582 94.1425 59.9229 94.1998 60.176 94.1962C60.5905 94.1894 60.495 94.0947 60.7187 94.0739C60.8047 94.0742 62.4471 93.9525 62.5403 93.939C63.2469 93.8901 63.3178 94.0126 63.8838 93.9773C64.4858 93.9377 65.0864 93.8697 65.6829 93.78C65.9787 93.7352 66.2712 93.6856 66.5503 93.629C66.6806 93.6021 66.8307 93.5694 66.932 93.5396C66.9598 93.5316 66.977 93.5255 66.988 93.5207C66.9916 93.5189 66.9893 93.5185 66.9761 93.5228C66.9661 93.5264 66.948 93.533 66.916 93.5494C66.8998 93.5577 66.8799 93.5686 66.8544 93.5852C66.8255 93.6081 66.815 93.5983 66.6966 93.7217C66.6009 93.8191 66.4233 94.1212 66.5087 94.4682C66.608 94.8008 66.7103 94.8435 66.797 94.9288C66.9617 95.0558 67.0533 95.0641 67.0576 95.0697C67.1041 95.0841 67.1189 95.0859 67.1224 95.0874C67.1256 95.0892 67.108 95.0883 67.0797 95.0879C66.9047 95.0923 66.5683 95.1479 66.3025 95.2236C65.7704 95.369 65.2165 95.6007 64.7039 95.8806C65.3577 95.1079 63.4078 96.0033 64.3633 96.0103C63.7681 96.32 63.4889 96.7386 63.018 97.1643C62.7139 97.4467 62.4614 97.6071 62.0789 98.0757C61.9857 98.1913 61.8981 98.3098 61.8102 98.4357C61.2548 99.2281 60.8001 100.063 60.381 100.111C59.685 101.224 58.9666 102.124 58.9976 102.695C58.8356 102.994 58.2297 103.637 58.0205 103.956C57.8029 104.244 56.4545 106.65 56.2829 107.069C56.0872 107.475 55.7681 108.196 55.6522 108.558C55.5049 109.015 55.6953 109.435 55.0405 110.096C54.7475 111.035 54.6337 111.364 54.3452 112.233C54.2942 112.39 54.2332 112.393 54.2087 112.487C54.1584 112.68 54.1179 113.02 54.0459 113.367C53.9279 113.938 53.7513 114.244 53.9469 114.214C53.9073 114.597 53.8772 114.979 53.8573 115.361C53.8034 115.488 53.7507 115.616 53.6991 115.745C53.7147 115.953 53.7333 116.16 53.7551 116.366C53.4965 116.103 53.5656 117.551 53.7498 117.092C53.6752 117.677 53.6273 118.266 53.6093 118.858C53.6051 119.009 53.601 119.16 53.5969 119.311C53.2826 119.22 53.6416 120.98 53.8027 120.822C53.8068 120.909 53.811 120.995 53.8152 121.082C53.7723 121.847 53.8768 122.539 53.8778 123.467C53.8799 124.396 53.8456 124.31 53.7222 124.601C53.7449 124.819 53.7678 125.034 53.7915 125.252C54.265 126.362 53.5678 126.216 54.0413 128.14C53.8536 128.784 54.1432 130.311 54.3551 131.309C54.3793 131.424 54.4267 131.421 54.4628 131.576C54.5478 131.953 54.6384 132.933 54.7861 132.876C54.7965 133.218 54.8108 133.562 54.8281 133.902C54.9063 134.173 54.9854 134.435 55.0689 134.703C55.1155 134.692 55.1621 134.682 55.2087 134.671C55.1575 135.247 55.4191 136.086 55.494 136.51C55.5086 136.595 55.448 136.628 55.5024 136.891C55.5649 137.199 55.7502 137.742 55.8524 138.101C55.9677 138.213 56.0839 138.323 56.2016 138.432C56.4613 139.019 56.383 139.303 56.5197 139.652C56.5212 139.655 56.5228 139.659 56.5244 139.663C56.5521 139.732 57.1094 140.903 57.1433 140.964C57.4163 141.467 57.4908 141.256 58.1747 142.758C58.2974 143.026 58.3505 143.263 58.4665 143.503C58.6674 143.928 59.4309 145.117 59.5909 145.151C59.719 145.724 60.5325 146.971 60.7546 147.311C60.8182 147.416 60.7572 147.509 60.9839 147.805C61.028 147.861 61.0927 147.93 61.1679 147.998C61.4729 148.277 61.9248 148.663 62.153 148.901C62.4683 149.23 62.5286 149.4 62.6706 149.546C62.8053 149.684 62.9769 149.761 63.1654 149.941C63.7526 150.505 64.2268 151.074 64.7143 151.488C65.4194 152.089 66.1852 152.423 66.8588 152.76C67.0082 152.872 67.1418 153.004 67.3093 153.104C68.4825 153.813 69.8391 154.382 71.257 154.608C72.4008 154.794 73.5421 154.978 74.6218 155.138C75.7805 155.327 78.6541 155.868 77.9206 155.361C78.3309 155.343 81.2453 155.693 81.7994 155.66C82.3522 155.66 82.7851 155.565 83.2094 155.534C84.4384 155.414 85.5462 155.379 86.4646 154.601C86.5657 154.499 86.6274 154.381 86.6591 154.277C86.6562 154.231 86.6379 154.199 86.6406 154.165C86.6477 154.099 86.6979 153.921 86.5933 153.739C86.5828 153.722 86.572 153.705 86.5608 153.688C86.1285 152.893 85.048 152.201 84.2694 152.226C84.2625 152.225 84.2557 152.225 84.2489 152.224C84.0913 152.212 84.0397 152.131 83.8138 152.098C82.9326 151.961 81.9427 152.016 82.1294 152.258C81.0112 152.166 79.9964 152.437 79.0911 152.748C78.7045 152.882 78.2718 153.067 77.8818 153.333C77.2714 153.747 76.9263 154.136 76.8566 154.792C76.6063 156.445 76.5497 157.936 76.6945 158.913C76.8845 160.075 76.9442 160.029 77.287 161.721C77.3749 162.099 77.4674 162.474 77.6086 162.917C77.9423 163.964 78.244 164.987 78.8932 165.589C79.4782 166.69 80.1079 167.455 80.5282 168.31C80.6376 168.364 80.7496 168.419 80.8584 168.47C80.9561 168.585 81.0559 168.7 81.1579 168.815C81.1527 168.884 81.1479 168.952 81.1434 169.021C81.8423 169.843 82.9373 170.667 83.6444 171.293C83.6648 171.311 83.685 171.33 83.7048 171.348C84.836 172.449 88.045 174.968 89.3167 175.77C89.9775 176.217 90.0678 176.143 90.3567 176.557C90.5192 176.633 90.6822 176.707 90.8456 176.78C90.9659 176.792 91.0861 176.804 91.2061 176.815C92.1018 177.296 93.1633 177.874 94.0633 178.227C94.4473 178.379 94.8822 178.532 95.3457 178.674C96.8929 179.153 98.7332 179.624 100.048 180.037C100.48 180.174 101.002 180.408 101.433 180.514C102.059 180.667 102.246 180.548 103.044 180.73C104.413 181.05 106.951 181.752 108.267 181.959C108.661 182.023 108.848 181.994 109.121 182.033C110.251 182.191 111.186 182.334 112.28 182.377C113.425 182.669 113.303 182.847 113.65 183.084C113.912 183.264 114.733 183.673 114.865 183.804C114.949 183.901 114.617 184.007 114.737 184.115C113.25 184.108 112.675 183.93 111.532 183.641C109.402 183.363 107.288 183.001 105.183 182.576C105.005 182.483 104.826 182.388 104.645 182.293C104.645 182.293 104.645 182.293 104.645 182.293C103.855 182.059 103.486 182.123 103.043 182.056C100.96 181.743 97.9325 180.993 94.9187 179.97C91.7575 178.904 88.8966 177.1 86.9523 175.724C86.1008 175.168 83.4648 173.156 83.026 172.598C82.9068 172.46 82.9263 172.362 82.7892 172.232C82.7889 172.231 82.7885 172.231 82.7882 172.231C81.4832 171.111 80.2516 169.891 79.1554 168.555C77.0795 165.677 75.3569 162.216 75.2009 158.528C75.1268 157.209 75.2774 155.848 75.4395 154.627C75.4971 153.59 76.3089 152.609 77.0648 152.139C79.3753 150.677 81.9542 150.716 84.353 150.797C85.775 150.802 87.1535 151.853 87.795 152.935C88.1597 153.474 88.3778 154.292 87.9488 155.037C86.5608 156.906 84.6101 156.8 82.9964 156.981C81.3264 157.07 79.6872 156.976 78.0638 156.833C76.2449 156.672 73.9483 156.43 72.2032 156.13C71.7392 156.05 71.4555 155.948 71.0668 155.873C70.8242 155.827 70.5463 155.784 70.17 155.735C70.168 155.696 70.1661 155.657 70.1643 155.618C69.2923 155.446 68.7161 155.338 67.8038 154.926C67.0136 154.609 65.168 153.393 64.629 152.908C64.3387 152.668 64.4917 152.702 64.2215 152.48C63.7567 152.105 62.7471 151.323 62.1627 150.756C61.628 150.245 60.81 149.32 60.4029 148.94C60.3763 148.915 60.3496 148.89 60.323 148.865C58.7716 147.22 57.8392 145.296 56.8973 143.371C56.6428 142.827 56.3963 142.093 56.3153 141.927C56.1548 141.597 56.0292 141.535 55.9158 141.319C55.7427 140.987 55.56 140.599 55.3723 140.178C54.9063 139.145 54.5737 137.936 54.346 137.088C53.3008 133.153 52.8939 128.923 52.6261 124.968C52.5185 123.33 52.3891 120.987 52.3101 118.918C52.2649 117.783 52.3371 116.731 52.4438 115.918C52.5132 115.41 52.5934 115.558 52.6494 115.134C52.715 114.665 52.6961 114.402 52.7296 114.182C52.9119 112.651 53.8617 109.391 54.5092 108.101C54.6253 107.852 54.7723 107.699 54.8364 107.549C54.8692 107.473 54.8964 107.28 54.9977 107.041C55.9036 104.929 56.738 103.471 57.9311 101.573C58.7598 100.268 59.6834 98.913 60.6842 97.5807C62.1885 95.6208 64.2672 93.6532 67.1835 93.5789C67.2327 93.5825 67.2784 93.5869 67.325 93.5933C67.3475 93.5963 67.3944 93.6036 67.4363 93.6135C67.4876 93.6398 67.4944 93.5796 67.7682 93.7811C67.836 93.8535 67.9026 93.8849 67.9734 94.1292C68.0309 94.3644 67.9281 94.5902 67.8515 94.6819C67.7694 94.785 67.714 94.8148 67.6998 94.8267C67.6764 94.8432 67.656 94.8556 67.6375 94.866C67.566 94.9061 67.5111 94.9244 67.4898 94.9323C67.434 94.9521 67.3748 94.968 67.3409 94.9766C67.1709 95.0186 67.0493 95.0388 66.9038 95.0635C66.6321 95.108 66.3753 95.1414 66.1149 95.1726C65.1282 95.2877 64.4499 95.1934 64.3116 95.2088C64.0102 95.2386 63.8271 95.3566 63.2168 95.4261C62.0901 95.55 60.7438 95.6104 59.4068 95.5553C59.0313 95.5348 58.6408 95.4936 58.2143 95.2869C58.005 95.1808 57.772 95.018 57.608 94.7427C57.4409 94.4701 57.398 94.0909 57.5087 93.7851C57.693 93.3235 57.9822 93.1991 58.1763 93.0819C58.3822 92.9735 58.5649 92.9081 58.7432 92.8494C59.7674 92.5254 61.0808 92.318 62.0367 92.2395C62.7986 92.1716 64.5799 92.2075 64.9139 92.158C65.1173 92.1253 65.2118 92.0177 65.4557 92.0068ZM61.6133 98.5393C61.5514 98.3275 60.8469 99.527 61.2299 99.1628C61.3151 99.0802 61.6281 98.593 61.6133 98.5393ZM70.1582 154.656C70.1589 154.605 70.1598 154.554 70.1609 154.503C69.9877 154.478 69.8144 154.448 69.6414 154.414C69.7264 154.473 69.8114 154.53 69.8985 154.587C69.9848 154.611 70.0717 154.634 70.1582 154.656Z" fill="black"/>
</g>
<defs>
<clipPath id="clip0_3599_1025">
<rect width="358" height="250" rx="20" fill="white"/>
</clipPath>
</defs>
</svg>
