<svg width="1090" height="149" viewBox="0 0 1090 149" fill="none" xmlns="http://www.w3.org/2000/svg">
<path d="M1078 149C1084.63 149 1090 143.627 1090 137V33L0 33V137C0 143.627 5.37256 149 12 149L1078 149Z" fill="#123041"/>
<g clip-path="url(#clip0_432_4569)">
<path d="M390.665 41.1799C393.145 64.7111 402.445 70.5939 418.566 70.5939C434.687 70.5939 443.987 64.7111 446.468 41.1799C448.397 22.8779 436.547 9.15137 418.566 9.15137C400.585 9.15137 388.736 22.8779 390.665 41.1799Z" fill="#9EE7E5"/>
<path d="M391.112 37.9111H446.018" stroke="#005271" stroke-width="6.53644" stroke-linecap="round"/>
<path d="M398.404 66.7692C398.348 65.2878 399.534 64.0566 401.017 64.0566H434.806C436.289 64.0566 437.475 65.2878 437.419 66.7692L433.693 166.123C433.641 167.528 432.487 168.64 431.081 168.64H404.742C403.337 168.64 402.182 167.528 402.13 166.123L398.404 66.7692Z" fill="#005271"/>
</g>
<g clip-path="url(#clip1_432_4569)">
<path d="M490.662 79.1789C493.142 102.71 502.443 108.593 518.564 108.593C534.685 108.593 543.985 102.71 546.465 79.1789C548.394 60.8769 536.545 47.1504 518.564 47.1504C500.583 47.1504 488.733 60.8769 490.662 79.1789Z" fill="#FFC5AB"/>
<path d="M491.11 75.9102H546.016" stroke="#AD2626" stroke-width="6.53644" stroke-linecap="round"/>
<path d="M498.402 104.768C498.346 103.287 499.532 102.056 501.015 102.056H534.804C536.287 102.056 537.473 103.287 537.417 104.768L533.691 204.122C533.639 205.527 532.485 206.639 531.079 206.639H504.741C503.335 206.639 502.18 205.527 502.128 204.122L498.402 104.768Z" fill="#AD2626"/>
</g>
<g clip-path="url(#clip2_432_4569)">
<path d="M597.664 79.1789C600.144 102.71 609.445 108.593 625.566 108.593C641.687 108.593 650.987 102.71 653.467 79.1789C655.396 60.8769 643.547 47.1504 625.566 47.1504C607.585 47.1504 595.735 60.8769 597.664 79.1789Z" fill="#AFD157"/>
<path d="M598.113 75.9102H653.019" stroke="#107752" stroke-width="6.53644" stroke-linecap="round"/>
<path d="M605.405 104.768C605.349 103.287 606.535 102.056 608.018 102.056H641.807C643.29 102.056 644.476 103.287 644.42 104.768L640.694 204.122C640.642 205.527 639.487 206.639 638.082 206.639H611.743C610.338 206.639 609.183 205.527 609.131 204.122L605.405 104.768Z" fill="#107752"/>
</g>
<g clip-path="url(#clip3_432_4569)">
<path d="M703.663 79.1789C706.143 102.71 715.444 108.593 731.565 108.593C747.686 108.593 756.986 102.71 759.466 79.1789C761.395 60.8769 749.546 47.1504 731.565 47.1504C713.584 47.1504 701.734 60.8769 703.663 79.1789Z" fill="#FFC53D"/>
<path d="M704.112 75.9102H759.018" stroke="#C55313" stroke-width="6.53644" stroke-linecap="round"/>
<path d="M711.404 104.768C711.349 103.287 712.535 102.056 714.017 102.056H747.807C749.289 102.056 750.475 103.287 750.42 104.768L746.694 204.122C746.641 205.527 745.487 206.639 744.081 206.639H717.743C716.337 206.639 715.183 205.527 715.13 204.122L711.404 104.768Z" fill="#C55313"/>
</g>
<defs>
<clipPath id="clip0_432_4569">
<rect width="75" height="149" fill="white" transform="translate(380)"/>
</clipPath>
<clipPath id="clip1_432_4569">
<rect width="75" height="111" fill="white" transform="translate(480 38)"/>
</clipPath>
<clipPath id="clip2_432_4569">
<rect width="75" height="111" fill="white" transform="translate(587 38)"/>
</clipPath>
<clipPath id="clip3_432_4569">
<rect width="75" height="111" fill="white" transform="translate(693 38)"/>
</clipPath>
</defs>
</svg>
