<svg width="264" height="170" viewBox="0 0 264 170" fill="none" xmlns="http://www.w3.org/2000/svg">
<g clip-path="url(#clip0_1641_881)">
<g clip-path="url(#clip1_1641_881)">
<path d="M99.9695 11.5541C107.894 16.2438 105.446 18.5819 103.399 22.0416C101.351 25.5012 100.319 28.6772 92.5552 24.0826C88.6139 21.7502 87.0787 17.0548 89.1261 13.5951C91.1736 10.1355 96.0283 9.22167 99.9695 11.5541Z" fill="white"/>
<path d="M111.586 12.3583C111.586 16.7263 110.062 16.7522 108.183 16.7522C106.303 16.7522 104.78 16.7263 104.78 12.3583C104.78 7.99023 106.865 4.44922 108.183 4.44922C109.5 4.44922 111.586 7.99023 111.586 12.3583Z" fill="#FFC145"/>
<path d="M152.687 12.3583C152.687 16.7263 151.163 16.7522 149.284 16.7522C147.405 16.7522 145.881 16.7263 145.881 12.3583C145.881 7.99023 147.967 4.44922 149.284 4.44922C150.601 4.44922 152.687 7.99023 152.687 12.3583Z" fill="#FFC145"/>
<path d="M158.246 11.5541C150.321 16.2438 152.769 18.5819 154.817 22.0416C156.864 25.5012 157.896 28.6772 165.66 24.0826C169.601 21.7502 171.136 17.0548 169.089 13.5951C167.042 10.1355 162.187 9.22167 158.246 11.5541Z" fill="black"/>
<path d="M160.2 15.5542C156.25 17.8919 157.273 18.7236 158.05 20.0364C158.827 21.3492 159.144 22.5985 163.014 20.3083C164.978 19.1456 165.941 17.1389 165.164 15.8261C164.387 14.5133 162.165 14.3915 160.2 15.5542Z" fill="#FFCACA"/>
<path d="M97.7864 15.5542C101.737 17.8919 100.714 18.7236 99.9369 20.0364C99.16 21.3492 98.843 22.5985 94.973 20.3083C93.0084 19.1456 92.0456 17.1389 92.8225 15.8261C93.5994 14.5133 95.8219 14.3915 97.7864 15.5542Z" fill="#FFCACA"/>
<path d="M160.951 62.7323C155.008 65.9655 144.492 61.8854 139.977 59.4412C139.708 58.9267 139.262 57.5885 139.624 56.3519C140.077 54.8061 156.011 51.8896 159.786 51.8828C163.562 51.8759 168.379 58.6909 160.951 62.7323Z" fill="#EFEFEF"/>
<path d="M144.068 92.783C145.945 92.0155 147.773 81.7873 147.403 76.6953L129.37 79.5734C128.999 83.706 128.974 92.1336 129.864 92.783C130.975 93.5948 141.721 93.7424 144.068 92.783Z" fill="#EFEFEF"/>
<path d="M145.477 81.455C151.09 77.7228 143.503 54.4412 138.021 51.5088C132.539 48.5764 123.623 49.0206 119.707 51.5088C115.791 53.9969 106.115 77.6339 111.727 81.455C117.34 85.276 139.865 85.1871 145.477 81.455Z" fill="white"/>
<path fill-rule="evenodd" clip-rule="evenodd" d="M130.481 84.2676C130.525 82.8908 130.48 80.0785 129.522 78.4015C127.988 75.7184 122.978 73.9515 122.978 73.9515C120.971 73.6461 116.643 72.1976 115.386 68.847C114.852 67.4218 113.62 66.4671 112.195 65.8438C109.955 72.5869 108.905 79.5363 111.731 81.4605C114.787 83.5411 122.857 84.4624 130.481 84.2676Z" fill="black"/>
<path d="M113.4 92.783C111.522 92.0155 109.694 81.7873 110.065 76.6953L128.098 79.5734C128.468 83.706 128.493 92.1336 127.604 92.783C126.492 93.5948 115.746 93.7424 113.4 92.783Z" fill="black"/>
<path d="M102.169 70.209C102.053 63.4447 110.536 56.0103 114.792 53.1387C115.373 53.1387 116.766 53.362 117.694 54.2554C118.855 55.3722 114.067 70.8472 112.326 74.1974C110.584 77.5477 102.314 78.6645 102.169 70.209Z" fill="white"/>
<path d="M143.523 73.0122C143.523 79.995 137.546 81.6721 130.173 81.6721C122.8 81.6721 116.823 79.995 116.823 73.0122C116.823 63.8327 122.8 58.6367 130.173 58.6367C137.546 58.6367 143.523 63.8327 143.523 73.0122Z" fill="#FFD2D2"/>
<path d="M130.056 79.3139C130.11 79.3142 130.163 79.304 130.213 79.2838C130.263 79.2635 130.308 79.2337 130.347 79.196L132.166 77.3664C132.232 77.2886 132.267 77.1885 132.263 77.0862C132.26 76.9839 132.217 76.8868 132.144 76.8144C132.071 76.742 131.974 76.6996 131.871 76.6956C131.768 76.6917 131.667 76.7265 131.589 76.7931L129.766 78.6024C129.728 78.6402 129.697 78.6852 129.677 78.7347C129.656 78.7843 129.645 78.8374 129.645 78.8911C129.645 78.9448 129.656 78.9979 129.677 79.0475C129.697 79.097 129.728 79.142 129.766 79.1798C129.803 79.2204 129.848 79.2532 129.897 79.2763C129.947 79.2993 130.001 79.3121 130.056 79.3139Z" fill="#FF8D8D"/>
<path d="M131.856 79.3139C131.909 79.3142 131.962 79.304 132.012 79.2838C132.061 79.2636 132.106 79.2339 132.144 79.1963C132.182 79.1586 132.212 79.1137 132.233 79.0643C132.253 79.0149 132.264 78.9619 132.264 78.9083C132.264 78.8548 132.253 78.8018 132.233 78.7523C132.212 78.7029 132.182 78.658 132.144 78.6203L130.339 76.8153C130.301 76.7773 130.256 76.7471 130.207 76.7265C130.158 76.7059 130.105 76.6953 130.051 76.6953C129.998 76.6953 129.945 76.7059 129.895 76.7265C129.846 76.7471 129.801 76.7773 129.763 76.8153C129.688 76.8913 129.645 76.9941 129.645 77.1013C129.645 77.2084 129.688 77.3112 129.763 77.3872L131.572 79.1963C131.648 79.2712 131.749 79.3135 131.856 79.3139Z" fill="#FF8D8D"/>
<path d="M161.841 38.6097C161.841 52.2715 146.86 56.8019 128.652 56.8019C110.444 56.8019 95.3527 52.2715 95.3527 38.6097C95.3527 15.3149 110.444 7.32812 128.652 7.32812C146.86 7.32812 161.841 14.2056 161.841 38.6097Z" fill="white"/>
<path fill-rule="evenodd" clip-rule="evenodd" d="M130.978 7.375C131.131 11.7341 132.041 17.4511 134.897 19.7633C137.409 21.7966 140.308 22.3145 142.898 22.7772C145.112 23.1726 147.1 23.5279 148.429 24.7546C149.136 25.4064 149.762 26.3109 150.44 27.2905C152.484 30.242 155 33.8761 161.596 33.3405C159.644 14.1373 146.759 7.91001 130.978 7.375Z" fill="black"/>
<path d="M117.874 45.8627C117.874 40.4847 122.234 36.125 127.612 36.125H132.48C137.858 36.125 142.218 40.4847 142.218 45.8627C142.218 49.448 139.312 52.3545 135.726 52.3545H124.366C120.78 52.3545 117.874 49.448 117.874 45.8627Z" fill="#FFCACA"/>
<path d="M124.938 43.4512V46.3313" stroke="black" stroke-width="2.61766" stroke-linecap="round"/>
<path d="M135.407 43.4512L135.407 46.3313" stroke="black" stroke-width="2.61766" stroke-linecap="round"/>
<path d="M104.78 46.332H108.708" stroke="#FFD2D2" stroke-width="5.23532" stroke-linecap="round"/>
<path d="M151.637 46.332H155.565" stroke="#FFD2D2" stroke-width="5.23532" stroke-linecap="round"/>
<path d="M115.22 40.6582C115.22 40.6582 114.461 39.7874 112.753 39.7874C111.045 39.7874 110.285 40.6582 110.285 40.6582" stroke="black" stroke-width="3.09457" stroke-linecap="round"/>
<path d="M150.287 40.6582C150.287 40.6582 149.528 39.7874 147.82 39.7874C146.112 39.7874 145.353 40.6582 145.353 40.6582" stroke="black" stroke-width="3.09457" stroke-linecap="round"/>
</g>
<g clip-path="url(#clip2_1641_881)">
<path d="M158.89 32.0612C159.125 31.0674 160.121 30.4523 161.115 30.6874L171.912 33.2416C172.906 33.4767 173.521 34.4729 173.286 35.4668L171.158 44.4642C170.217 48.4396 166.232 50.8999 162.257 49.9595C158.281 49.0191 155.821 45.0341 156.762 41.0587L158.89 32.0612Z" fill="#E6AD25"/>
<path d="M165.018 48.7179L160.159 47.5684C160.159 47.5684 160.708 49.288 160.573 50.2846C160.394 51.5992 158.796 53.3275 158.796 53.3275L163.656 54.477C163.656 54.477 163.002 52.2161 163.431 50.9608C163.756 50.0091 165.018 48.7179 165.018 48.7179Z" fill="#E6AD25"/>
<path d="M156.176 55.5541C156.646 53.5664 158.639 52.3363 160.626 52.8065L162.427 53.2324C164.415 53.7026 165.645 55.6951 165.175 57.6828L165.004 58.4032C164.887 58.9001 164.389 59.2077 163.892 59.0901L156.693 57.3871C156.196 57.2696 155.888 56.7714 156.006 56.2745L156.176 55.5541Z" fill="#E6AD25"/>
<path fill-rule="evenodd" clip-rule="evenodd" d="M174.77 36.3885C172.782 35.9183 170.79 37.1484 170.319 39.1361L169.042 44.5346C168.807 45.5284 169.422 46.5247 170.416 46.7598C173.398 47.4651 176.386 45.6199 177.092 42.6384L177.517 40.8389C177.988 38.8512 176.757 36.8587 174.77 36.3885ZM174.006 39.6278C173.211 39.4397 172.414 39.9319 172.226 40.7271L171.715 42.8871C171.62 43.2847 171.867 43.6833 172.264 43.7774C173.457 44.0595 174.653 43.3213 174.935 42.1284L175.105 41.4084C175.294 40.6131 174.801 39.8159 174.006 39.6278Z" fill="#E6AD25"/>
<path fill-rule="evenodd" clip-rule="evenodd" d="M157.141 32.217C159.129 32.6872 160.359 34.6797 159.889 36.6674L158.612 42.0659C158.377 43.0597 157.38 43.6748 156.386 43.4397C153.405 42.7344 151.56 39.7456 152.265 36.7641L152.691 34.9646C153.161 32.9769 155.153 31.7468 157.141 32.217ZM156.377 35.4562C157.172 35.6443 157.664 36.4415 157.476 37.2368L156.965 39.3967C156.871 39.7943 156.472 40.0404 156.075 39.9463C154.882 39.6642 154.143 38.4684 154.426 37.2755L154.596 36.5555C154.784 35.7602 155.581 35.2681 156.377 35.4562Z" fill="#E6AD25"/>
<path d="M154.745 55.9751C154.792 55.7764 154.992 55.6534 155.19 55.7004L165.987 58.2545C166.186 58.3015 166.309 58.5008 166.262 58.6996L164.772 64.9978L153.256 62.2734L154.745 55.9751Z" fill="black"/>
<rect x="155.89" y="57.5762" width="8.87707" height="3.51384" rx="0.369833" transform="rotate(13.3093 155.89 57.5762)" fill="#E6AD25"/>
<path d="M152.81 62.5494C152.857 62.3506 153.056 62.2276 153.255 62.2746L164.772 64.999C164.971 65.046 165.094 65.2453 165.047 65.4441L164.919 65.9839L152.682 63.0892L152.81 62.5494Z" fill="black"/>
<path d="M152.058 63.3189C152.105 63.1201 152.305 62.9971 152.503 63.0441L165.1 66.024C165.299 66.071 165.422 66.2702 165.375 66.469L165.247 67.0089L151.931 63.8587L152.058 63.3189Z" fill="black"/>
<rect x="151.392" y="63.7324" width="14.7933" height="0.924582" rx="0.369833" transform="rotate(13.3093 151.392 63.7324)" fill="black"/>
</g>
<path d="M171.175 135.882C171.175 131.981 174.337 128.818 178.238 128.818H231.217C235.118 128.818 238.281 131.981 238.281 135.882V172.967H171.175V135.882Z" fill="#D69E84"/>
<path d="M95.2469 100.562C95.2469 96.6606 98.4095 93.498 102.311 93.498H155.289C159.191 93.498 162.353 96.6606 162.353 100.562V172.966H95.2469V100.562Z" fill="#E6AD25"/>
<path d="M19.3069 118.222C19.3069 114.321 22.4695 111.158 26.3707 111.158H79.3493C83.2505 111.158 86.4131 114.321 86.4131 118.222V172.967H19.3069V118.222Z" fill="#B2B7BB"/>
<path d="M129.535 142.34V123.522L125.721 126.001L124.64 124.158L130.012 120.502H132.015V142.34H129.535Z" fill="#A66E1C"/>
<path d="M45.2697 151.174V149.108L53.2482 142.305C56.3316 139.667 57.6031 137.569 57.6031 135.407C57.6031 132.737 55.378 131.18 53.0575 131.18C50.5145 131.18 48.7027 132.547 47.2087 134.581L45.4604 133.151C47.2722 130.576 49.7199 128.955 53.1529 128.955C56.9355 128.955 60.1143 131.466 60.1143 135.376C60.1143 138.332 58.652 140.684 54.9647 143.863L49.243 148.822H60.3368V151.174H45.2697Z" fill="#78848E"/>
<path d="M204.81 160.381C201.218 160.381 198.453 158.729 196.863 156.631L198.58 155.009C200.01 156.853 202.14 158.125 204.81 158.125C207.862 158.125 209.896 156.44 209.896 153.96C209.896 151.386 207.703 150.082 204.27 150.082H201.949V147.794L204.302 147.826C207.226 147.857 209.419 146.459 209.419 143.979C209.419 141.691 207.321 140.038 204.588 140.038C202.172 140.038 200.455 141.246 198.898 143.121L197.245 141.627C198.898 139.434 201.314 137.781 204.715 137.781C208.879 137.781 211.93 140.197 211.93 143.693C211.93 146.49 209.96 148.143 207.703 148.811C209.928 149.32 212.407 150.941 212.407 154.088C212.407 157.743 209.356 160.381 204.81 160.381Z" fill="#936651"/>
<g clip-path="url(#clip3_1641_881)">
<ellipse cx="29.8447" cy="36.8506" rx="10.4632" ry="11.2755" transform="rotate(-28.6896 29.8447 36.8506)" fill="#49B236"/>
<ellipse cx="10.4632" cy="11.2755" rx="10.4632" ry="11.2755" transform="matrix(-0.877234 -0.480064 -0.480064 0.877234 89.8973 31.6875)" fill="#49B236"/>
<path d="M82.5951 81.1216C76.4582 83.9692 66.2236 79.2268 61.8734 76.4996C61.6382 75.9691 61.2779 74.6051 61.7183 73.3941C62.2687 71.8803 78.3564 69.9859 82.1249 70.2199C85.8933 70.4539 90.2662 77.5622 82.5951 81.1216Z" fill="#4B9B3A"/>
<path d="M67.6269 110.5C69.5043 109.732 71.3324 99.5041 70.9618 94.4121L52.9287 97.2902C52.5582 101.423 52.5334 109.85 53.4228 110.5C54.5344 111.312 65.2801 111.459 67.6269 110.5Z" fill="#4B9B3A"/>
<path d="M69.0363 99.1718C74.6488 95.4396 67.0619 72.158 61.58 69.2256C56.098 66.2931 47.1819 66.7374 43.2662 69.2256C39.3504 71.7137 29.6741 95.3507 35.2866 99.1718C40.899 102.993 63.4239 102.904 69.0363 99.1718Z" fill="#49B236"/>
<path d="M36.9588 110.5C35.0814 109.732 33.2533 99.5041 33.6239 94.4121L51.657 97.2902C52.0275 101.423 52.0522 109.85 51.1629 110.5C50.0513 111.312 39.3056 111.459 36.9588 110.5Z" fill="#49B236"/>
<path d="M25.7279 87.9258C25.6118 81.1615 34.0952 73.7271 38.3514 70.8555C38.9317 70.8555 40.3247 71.0788 41.2533 71.9722C42.4141 73.089 37.6259 88.564 35.8847 91.9142C34.1435 95.2645 25.873 96.3812 25.7279 87.9258Z" fill="#49B236"/>
<path d="M66.555 90.0701C66.555 98.0051 60.578 99.911 53.2049 99.911C45.8319 99.911 39.8549 98.0051 39.8549 90.0701C39.8549 79.6389 45.8319 73.7344 53.2049 73.7344C60.578 73.7344 66.555 79.6389 66.555 90.0701Z" fill="#9CD43D"/>
<path d="M53.6194 95.7221C53.6732 95.7225 53.7265 95.7122 53.7763 95.692C53.8261 95.6717 53.8714 95.6419 53.9096 95.6042L55.7286 93.7746C55.7956 93.6968 55.8306 93.5967 55.8266 93.4944C55.8226 93.3921 55.78 93.295 55.7072 93.2226C55.6344 93.1502 55.5368 93.1078 55.4339 93.1038C55.331 93.0999 55.2305 93.1347 55.1523 93.2013L53.3292 95.0106C53.2909 95.0484 53.2605 95.0934 53.2397 95.1429C53.219 95.1925 53.2083 95.2456 53.2083 95.2993C53.2083 95.353 53.219 95.4061 53.2397 95.4557C53.2605 95.5052 53.2909 95.5502 53.3292 95.588C53.366 95.6286 53.4107 95.6614 53.4605 95.6845C53.5104 95.7075 53.5644 95.7203 53.6194 95.7221Z" fill="#49B236"/>
<path d="M55.419 95.7221C55.4724 95.7225 55.5253 95.7122 55.5747 95.692C55.6241 95.6718 55.669 95.6421 55.7069 95.6045C55.7449 95.5668 55.7751 95.5219 55.7957 95.4725C55.8163 95.4231 55.8269 95.3701 55.8269 95.3165C55.8269 95.263 55.8163 95.21 55.7957 95.1605C55.7751 95.1111 55.7449 95.0662 55.7069 95.0285L53.9021 93.2235C53.8644 93.1855 53.8196 93.1553 53.7701 93.1347C53.7207 93.1141 53.6677 93.1035 53.6142 93.1035C53.5606 93.1035 53.5076 93.1141 53.4582 93.1347C53.4088 93.1553 53.3639 93.1855 53.3262 93.2235C53.2507 93.2995 53.2083 93.4023 53.2083 93.5095C53.2083 93.6166 53.2507 93.7194 53.3262 93.7954L55.1351 95.6045C55.2106 95.6794 55.3126 95.7217 55.419 95.7221Z" fill="#49B236"/>
<path d="M86.4515 54.9578C86.4515 68.7641 71.2345 73.3424 52.7397 73.3424C34.2449 73.3424 18.9159 68.7641 18.9159 54.9578C18.9159 35.1246 34.2449 26.6172 52.7397 26.6172C71.2345 26.6172 86.4515 33.554 86.4515 54.9578Z" fill="#49B236"/>
<path d="M31.7443 36.8242V41.0135" stroke="black" stroke-width="3.92649" stroke-linecap="round"/>
<path d="M76.2427 36.5625V40.7518" stroke="black" stroke-width="3.92649" stroke-linecap="round"/>
<path d="M25.9883 50.1758H30.4394" stroke="#9CD43D" stroke-width="5.23532" stroke-linecap="round"/>
<path d="M74.4111 50.1758H78.8622" stroke="#9CD43D" stroke-width="5.23532" stroke-linecap="round"/>
<path d="M58.9683 46.0012C58.9683 42.8561 58.9683 41.2749 53.0786 41.2749C47.1888 41.2749 47.1888 42.5751 47.1888 46.0012C47.1888 51.6146 49.8258 54.8867 53.0786 54.8867C56.3314 54.8867 58.9683 51.222 58.9683 46.0012Z" fill="#FFD2D2"/>
<path fill-rule="evenodd" clip-rule="evenodd" d="M47.2013 46.5826C47.3772 51.8399 49.9426 54.8867 53.0814 54.8867C55.3597 54.8867 57.3359 53.0889 58.3155 50.2177C57.1763 48.8864 55.4903 47.7319 53.4544 47.0182C51.2346 46.24 49.0126 46.1307 47.2013 46.5826Z" fill="#FF2D2D"/>
</g>
<g clip-path="url(#clip4_1641_881)">
<path d="M80.9772 52.1884C81.177 51.3174 82.0451 50.7733 82.916 50.9732L92.3782 53.1442C93.2492 53.344 93.7932 54.2121 93.5934 55.0831L91.7842 62.9682C90.9849 66.4521 87.5126 68.6284 84.0287 67.829C80.5449 67.0297 78.3686 63.5574 79.168 60.0735L80.9772 52.1884Z" fill="#B2B7BB"/>
<path d="M86.4405 66.7232L82.182 65.7461C82.182 65.7461 82.6728 67.2475 82.5602 68.1203C82.4116 69.2716 81.024 70.7932 81.024 70.7932L85.2825 71.7703C85.2825 71.7703 84.6971 69.7959 85.0652 68.6951C85.3443 67.8605 86.4405 66.7232 86.4405 66.7232Z" fill="#B2B7BB"/>
<path d="M78.7465 72.7595C79.1462 71.0176 80.8823 69.9295 82.6243 70.3291L84.2023 70.6912C85.9442 71.0909 87.0323 72.827 86.6327 74.5689L86.4878 75.2003C86.3879 75.6358 85.9539 75.9078 85.5184 75.8079L79.2093 74.3603C78.7738 74.2604 78.5018 73.8264 78.6017 73.3909L78.7465 72.7595Z" fill="#B2B7BB"/>
<path fill-rule="evenodd" clip-rule="evenodd" d="M94.8958 55.8838C93.1538 55.4842 91.4177 56.5723 91.018 58.3142L89.9325 63.0453C89.7327 63.9163 90.2767 64.7844 91.1477 64.9842C93.7606 65.5837 96.3648 63.9515 96.9643 61.3386L97.3262 59.7616C97.7258 58.0196 96.6377 56.2835 94.8958 55.8838ZM94.2455 58.7243C93.5485 58.5644 92.8538 58.9998 92.6938 59.6968L92.2595 61.59C92.1795 61.9385 92.3972 62.2858 92.7457 62.3658C93.7913 62.6057 94.8333 61.9526 95.0732 60.907L95.218 60.276C95.378 59.5789 94.9425 58.8842 94.2455 58.7243Z" fill="#B2B7BB"/>
<path fill-rule="evenodd" clip-rule="evenodd" d="M79.4471 52.3349C81.1891 52.7346 82.2772 54.4707 81.8775 56.2127L80.792 60.9438C80.5922 61.8147 79.7241 62.3588 78.8531 62.159C76.2402 61.5594 74.608 58.9553 75.2076 56.3423L75.5694 54.7653C75.9691 53.0234 77.7052 51.9352 79.4471 52.3349ZM78.7892 55.1736C79.4863 55.3335 79.9217 56.0282 79.7617 56.7252L79.3274 58.6184C79.2474 58.9669 78.9001 59.1846 78.5515 59.1046C77.506 58.8647 76.8529 57.8227 77.0928 56.7771L77.2376 56.1461C77.3975 55.449 78.0922 55.0136 78.7892 55.1736Z" fill="#B2B7BB"/>
<path d="M77.4957 73.1416C77.5357 72.9674 77.7093 72.8586 77.8835 72.8985L87.3457 75.0696C87.5199 75.1095 87.6287 75.2831 87.5888 75.4573L86.3223 80.977L76.2293 78.6612L77.4957 73.1416Z" fill="black"/>
<rect x="78.4984" y="74.5293" width="7.7674" height="3.07459" rx="0.323602" transform="rotate(12.9224 78.4984 74.5293)" fill="#B2B7BB"/>
<path d="M75.8429 78.9013C75.8829 78.7271 76.0565 78.6183 76.2307 78.6583L86.3237 80.9741C86.4979 81.014 86.6067 81.1876 86.5667 81.3618L86.4582 81.8349L75.7344 79.3745L75.8429 78.9013Z" fill="black"/>
<path d="M75.1868 79.5791C75.2268 79.4049 75.4004 79.2961 75.5746 79.336L86.6138 81.8689C86.788 81.9089 86.8968 82.0825 86.8568 82.2567L86.7483 82.7298L75.0782 80.0522L75.1868 79.5791Z" fill="black"/>
<rect x="74.6071" y="79.9453" width="12.9441" height="0.809005" rx="0.323602" transform="rotate(12.9224 74.6071 79.9453)" fill="black"/>
</g>
<g clip-path="url(#clip5_1641_881)">
<path d="M178.666 100.326C184.905 102.943 194.956 97.8215 199.201 94.9338C199.416 94.3948 199.725 93.0183 199.24 91.8246C198.633 90.3324 182.486 89.0402 178.729 89.4148C174.972 89.7893 170.868 97.056 178.666 100.326Z" fill="#EFD565"/>
<path d="M192.507 128.939C190.63 128.172 188.802 117.944 189.173 112.852L207.206 115.73C207.576 119.862 207.601 128.29 206.712 128.939C205.6 129.751 194.854 129.899 192.507 128.939Z" fill="#EFD565"/>
<path d="M191.098 117.609C185.486 113.877 193.072 90.5955 198.554 87.6631C204.036 84.7306 212.953 85.1749 216.868 87.6631C220.784 90.1512 230.46 113.788 224.848 117.609C219.235 121.43 196.711 121.341 191.098 117.609Z" fill="#FFE36C"/>
<path d="M223.176 128.939C225.053 128.172 226.881 117.944 226.511 112.852L208.477 115.73C208.107 119.862 208.082 128.29 208.971 128.939C210.083 129.751 220.829 129.899 223.176 128.939Z" fill="#FFE36C"/>
<path d="M234.407 106.363C234.523 99.599 226.039 92.1646 221.783 89.293C221.203 89.293 219.81 89.5163 218.881 90.4097C217.72 91.5265 222.509 107.001 224.25 110.352C225.991 113.702 234.261 114.819 234.407 106.363Z" fill="#FFE36C"/>
<path d="M204.418 114.162C204.364 114.162 204.311 114.152 204.261 114.131C204.211 114.111 204.166 114.081 204.127 114.044L202.308 112.214C202.242 112.136 202.207 112.036 202.211 111.934C202.214 111.832 202.257 111.734 202.33 111.662C202.403 111.59 202.5 111.547 202.603 111.543C202.706 111.539 202.807 111.574 202.885 111.641L204.708 113.45C204.746 113.488 204.777 113.533 204.797 113.582C204.818 113.632 204.829 113.685 204.829 113.739C204.829 113.792 204.818 113.846 204.797 113.895C204.777 113.945 204.746 113.99 204.708 114.027C204.671 114.068 204.626 114.101 204.577 114.124C204.527 114.147 204.473 114.16 204.418 114.162Z" fill="#FFBB4D"/>
<path d="M202.618 114.162C202.565 114.162 202.512 114.152 202.462 114.131C202.413 114.111 202.368 114.082 202.33 114.044C202.292 114.006 202.262 113.961 202.241 113.912C202.221 113.863 202.21 113.81 202.21 113.756C202.21 113.702 202.221 113.649 202.241 113.6C202.262 113.551 202.292 113.506 202.33 113.468L204.135 111.663C204.173 111.625 204.218 111.595 204.267 111.574C204.316 111.554 204.369 111.543 204.423 111.543C204.476 111.543 204.529 111.554 204.579 111.574C204.628 111.595 204.673 111.625 204.711 111.663C204.786 111.739 204.829 111.842 204.829 111.949C204.829 112.056 204.786 112.159 204.711 112.235L202.902 114.044C202.826 114.119 202.725 114.161 202.618 114.162Z" fill="#FFBB4D"/>
<path d="M175.104 73.7152C175.104 87.377 190.085 91.9073 208.293 91.9073C226.501 91.9073 241.592 87.377 241.592 73.7152C241.592 50.4204 226.501 42.4336 208.293 42.4336C190.085 42.4336 175.104 49.3111 175.104 73.7152Z" fill="#FFE36C"/>
<path d="M229.815 80.3926H225.887" stroke="#FFA052" stroke-width="5.23532" stroke-linecap="round"/>
<path d="M186.359 80.3926H182.431" stroke="#FFA052" stroke-width="5.23532" stroke-linecap="round"/>
<path d="M199.45 76.9912C199.45 79.3766 202.439 80.3941 206.125 80.3941C209.812 80.3941 212.8 79.3766 212.8 76.9912C212.8 74.6058 209.812 71.7559 206.125 71.7559C202.439 71.7559 199.45 74.6058 199.45 76.9912Z" fill="#FFBB4D"/>
<path d="M203.444 33.3316C207.415 36.8529 209.696 40.802 210.371 44.3964L203.383 43.6512C200.505 43.3444 197.749 39.9526 197.876 35.8357C198.003 31.7188 201.425 31.5409 203.444 33.3316Z" fill="#FFE36C"/>
<path d="M210.738 38.8935C209.502 40.1008 209.189 42.7319 209.188 43.8966C211.583 43.6752 215.602 42.9388 216.323 41.4049C217.044 39.8711 216.594 37.964 215.717 37.5095C214.839 37.0549 212.284 37.3843 210.738 38.8935Z" fill="#FFE36C"/>
<path d="M192.766 75.7324C192.766 75.7324 192.007 74.8616 190.299 74.8616C188.591 74.8616 187.832 75.7324 187.832 75.7324" stroke="black" stroke-width="3.09457" stroke-linecap="round"/>
<path d="M224.374 75.7324C224.374 75.7324 223.615 74.8616 221.907 74.8616C220.199 74.8616 219.439 75.7324 219.439 75.7324" stroke="black" stroke-width="3.09457" stroke-linecap="round"/>
</g>
<g clip-path="url(#clip6_1641_881)">
<path d="M169.101 75.8669C168.965 75.1131 169.466 74.392 170.22 74.2563L178.41 72.7822C179.164 72.6465 179.885 73.1476 180.02 73.9014L181.249 80.7261C181.792 83.7414 179.787 86.6258 176.772 87.1686C173.756 87.7113 170.872 85.7069 170.329 82.6916L169.101 75.8669Z" fill="#D69E84"/>
<path d="M178.306 85.483L174.62 86.1465C174.62 86.1465 175.512 87.1649 175.717 87.8909C175.987 88.8485 175.406 90.5153 175.406 90.5153L179.092 89.8518C179.092 89.8518 177.966 88.4924 177.885 87.5006C177.824 86.7487 178.306 85.483 178.306 85.483Z" fill="#D69E84"/>
<path d="M174.272 92.8314C174.001 91.3238 175.003 89.8816 176.511 89.6102L177.876 89.3644C179.384 89.093 180.826 90.0952 181.098 91.6029L181.196 92.1493C181.264 92.5262 181.013 92.8868 180.636 92.9546L175.176 93.9375C174.799 94.0054 174.438 93.7548 174.37 93.3779L174.272 92.8314Z" fill="#D69E84"/>
<path fill-rule="evenodd" clip-rule="evenodd" d="M181.322 74.0906C179.815 74.362 178.812 75.8042 179.083 77.3119L179.821 81.4077C179.956 82.1615 180.678 82.6626 181.431 82.5269C183.693 82.1199 185.197 79.9565 184.79 77.695L184.544 76.3291C184.272 74.8214 182.83 73.8192 181.322 74.0906ZM181.765 76.547C181.162 76.6556 180.761 77.2327 180.869 77.836L181.164 79.4745C181.218 79.7761 181.507 79.9767 181.809 79.9224C182.714 79.7595 183.315 78.8938 183.152 77.9889L183.054 77.4427C182.945 76.8394 182.368 76.4384 181.765 76.547Z" fill="#D69E84"/>
<path fill-rule="evenodd" clip-rule="evenodd" d="M167.949 76.4992C169.457 76.2279 170.899 77.23 171.17 78.7377L171.908 82.8335C172.043 83.5873 171.542 84.3084 170.788 84.4441C168.527 84.8512 166.363 83.348 165.956 81.0865L165.71 79.7205C165.439 78.2129 166.441 76.7706 167.949 76.4992ZM168.391 78.9557C168.994 78.8471 169.571 79.2482 169.68 79.8515L169.975 81.49C170.029 81.7916 169.828 82.0802 169.527 82.1345C168.622 82.2974 167.756 81.6958 167.593 80.7909L167.495 80.2447C167.386 79.6414 167.787 79.0643 168.391 78.9557Z" fill="#D69E84"/>
<path d="M173.414 93.5523C173.387 93.4015 173.488 93.2573 173.638 93.2302L181.829 91.7559C181.98 91.7287 182.124 91.829 182.151 91.9797L183.011 96.7576L174.274 98.3302L173.414 93.5523Z" fill="black"/>
<rect x="174.682" y="94.3105" width="6.65778" height="2.63537" rx="0.277374" transform="rotate(-10.2037 174.682 94.3105)" fill="#D69E84"/>
<path d="M174.054 98.6519C174.027 98.5011 174.127 98.3569 174.278 98.3298L183.015 96.7572C183.165 96.7301 183.31 96.8303 183.337 96.9811L183.41 97.3906L174.128 99.0615L174.054 98.6519Z" fill="black"/>
<path d="M173.768 99.4078C173.74 99.257 173.841 99.1128 173.991 99.0856L183.546 97.3659C183.697 97.3387 183.841 97.4389 183.868 97.5897L183.942 97.9992L173.841 99.8172L173.768 99.4078Z" fill="black"/>
<rect x="173.428" y="99.8887" width="11.095" height="0.693434" rx="0.277374" transform="rotate(-10.2037 173.428 99.8887)" fill="black"/>
</g>
</g>
<defs>
<clipPath id="clip0_1641_881">
<rect width="263.205" height="173.131" fill="white"/>
</clipPath>
<clipPath id="clip1_1641_881">
<rect width="82.4563" height="93.4504" fill="white" transform="translate(87.7676)"/>
</clipPath>
<clipPath id="clip2_1641_881">
<rect width="26.4893" height="37.6148" fill="white" transform="translate(153.994 27.3711) rotate(13.3093)"/>
</clipPath>
<clipPath id="clip3_1641_881">
<rect width="73.5562" height="91.3563" fill="white" transform="translate(16.3002 19.8105)"/>
</clipPath>
<clipPath id="clip4_1641_881">
<rect width="25.9595" height="35.1424" fill="white" transform="translate(75.8986 46.8281) rotate(12.9224)"/>
</clipPath>
<clipPath id="clip5_1641_881">
<rect width="79.5768" height="101.565" fill="white" transform="translate(167.134 27.332)"/>
</clipPath>
<clipPath id="clip6_1641_881">
<rect width="23.134" height="28.9616" fill="white" transform="translate(162.744 74.168) rotate(-10.2037)"/>
</clipPath>
</defs>
</svg>
