<svg width="599" height="392" viewBox="0 0 599 392" fill="none" xmlns="http://www.w3.org/2000/svg">
<g clip-path="url(#clip0_432_4615)">
<path d="M227.649 26.3161C245.694 36.9954 240.119 42.3195 235.457 50.1977C230.795 58.0758 228.444 65.308 210.765 54.8454C201.79 49.5342 198.294 38.842 202.957 30.9639C207.619 23.0857 218.674 21.0048 227.649 26.3161Z" fill="white"/>
<path d="M254.1 28.1439C254.1 38.0907 250.631 38.1496 246.351 38.1496C242.071 38.1496 238.602 38.0907 238.602 28.1439C238.602 18.1972 243.351 10.1338 246.351 10.1338C249.351 10.1338 254.1 18.1972 254.1 28.1439Z" fill="#6A5B3D"/>
<path d="M347.683 28.1439C347.683 38.0907 344.213 38.1496 339.934 38.1496C335.654 38.1496 332.185 38.0907 332.185 28.1439C332.185 18.1972 336.934 10.1338 339.934 10.1338C342.933 10.1338 347.683 18.1972 347.683 28.1439Z" fill="#6A5B3D"/>
<path d="M360.594 26.7464C351.572 32.0856 348.676 35.9704 348.418 39.3455C348.289 41.0396 348.814 42.6808 349.693 44.4189C350.276 45.5734 350.992 46.7298 351.751 47.9572C352.147 48.5966 352.554 49.2553 352.961 49.943C353.299 50.5147 353.623 51.0772 353.938 51.6265C354.726 52.998 355.466 54.2868 356.277 55.4293C357.405 57.0169 358.624 58.2508 360.197 58.9416C363.33 60.318 368.135 59.6429 376.968 54.4151C385.76 49.2123 389.092 38.808 384.601 31.2185C380.109 23.629 369.385 21.5436 360.594 26.7464Z" fill="#123041" stroke="#005271"/>
<path d="M364.792 35.4218C355.798 40.7445 358.126 42.6381 359.895 45.6272C361.664 48.6163 362.386 51.461 371.198 46.2463C375.671 43.5991 377.863 39.03 376.094 36.0409C374.325 33.0518 369.265 32.7746 364.792 35.4218Z" fill="#FFC0C1"/>
<path d="M222.661 35.4218C231.655 40.7445 229.326 42.6381 227.557 45.6272C225.788 48.6163 225.066 51.461 216.255 46.2463C211.781 43.5991 209.589 39.03 211.358 36.0409C213.127 33.0518 218.187 32.7746 222.661 35.4218Z" fill="#FFC0C1"/>
<path d="M366.503 142.854C352.97 150.216 329.023 140.926 318.741 135.36C318.13 134.188 317.113 131.141 317.938 128.325C318.969 124.805 355.253 118.164 363.851 118.148C372.449 118.132 383.419 133.651 366.503 142.854Z" fill="#EFEFEF"/>
<path d="M328.059 211.286C332.334 209.538 336.497 186.247 335.653 174.651L294.589 181.205C293.745 190.616 293.689 209.807 295.714 211.286C298.245 213.134 322.715 213.47 328.059 211.286Z" fill="#EFEFEF"/>
<path d="M331.268 185.488C344.049 176.989 326.772 123.973 314.289 117.296C301.806 110.618 281.502 111.63 272.586 117.296C263.669 122.962 241.635 176.787 254.415 185.488C267.195 194.189 318.488 193.986 331.268 185.488Z" fill="white"/>
<path d="M258.226 211.286C253.951 209.538 249.788 186.247 250.632 174.651L291.696 181.205C292.54 190.616 292.596 209.807 290.571 211.286C288.04 213.134 263.57 213.47 258.226 211.286Z" fill="#123041" stroke="#005271"/>
<path d="M368.548 87.9224C368.548 119.032 334.433 129.349 292.971 129.349C251.508 129.349 217.143 119.032 217.143 87.9224C217.143 34.8766 251.508 16.6895 292.971 16.6895C334.433 16.6895 368.548 32.3506 368.548 87.9224Z" fill="white"/>
<path fill-rule="evenodd" clip-rule="evenodd" d="M298.239 16.7832C298.587 26.7093 300.661 39.7271 307.164 44.9919C312.884 49.6222 319.485 50.8013 325.383 51.855C330.424 52.7555 334.952 53.5644 337.979 56.3578C339.587 57.8421 341.013 59.9017 342.558 62.1326C347.212 68.8547 352.944 77.1317 367.967 75.9087C363.523 32.1787 334.177 17.9998 298.239 16.7832Z" fill="#123041"/>
<path d="M307.164 44.9919L306.85 45.3805L307.164 44.9919ZM298.239 16.7832L298.256 16.2835L297.72 16.2654L297.739 16.8008L298.239 16.7832ZM325.383 51.855L325.471 51.3628L325.383 51.855ZM337.979 56.3578L338.318 55.9904H338.318L337.979 56.3578ZM342.558 62.1326L342.969 61.848V61.848L342.558 62.1326ZM367.967 75.9087L368.008 76.4071L368.516 76.3657L368.465 75.8582L367.967 75.9087ZM307.479 44.6033C304.352 42.0718 302.243 37.6277 300.877 32.5066C299.515 27.4019 298.912 21.7063 298.738 16.7657L297.739 16.8008C297.914 21.7862 298.523 27.5625 299.91 32.7644C301.294 37.95 303.473 42.6471 306.85 45.3805L307.479 44.6033ZM325.471 51.3628C319.561 50.3069 313.085 49.1418 307.479 44.6033L306.85 45.3805C312.683 50.1025 319.409 51.2957 325.295 52.3472L325.471 51.3628ZM338.318 55.9904C336.73 54.5249 334.765 53.5953 332.585 52.919C330.409 52.2441 327.984 51.8117 325.471 51.3628L325.295 52.3472C327.823 52.7988 330.183 53.2211 332.288 53.8741C334.389 54.5258 336.201 55.3973 337.64 56.7253L338.318 55.9904ZM342.969 61.848C341.433 59.6303 339.975 57.5197 338.318 55.9904L337.64 56.7253C339.199 58.1645 340.593 60.1731 342.147 62.4173L342.969 61.848ZM367.927 75.4104C360.523 76.0131 355.453 74.2757 351.663 71.592C347.853 68.8938 345.302 65.2177 342.969 61.848L342.147 62.4173C344.468 65.7696 347.11 69.5931 351.085 72.4081C355.081 75.2377 360.388 77.0274 368.008 76.4071L367.927 75.4104ZM298.222 17.2829C316.14 17.8895 332.346 21.7267 344.616 30.8054C356.868 39.8705 365.259 54.2088 367.47 75.9593L368.465 75.8582C366.231 53.8787 357.727 39.2624 345.211 30.0015C332.712 20.7541 316.276 16.8935 298.256 16.2835L298.222 17.2829Z" fill="#123041"/>
<path d="M268.406 104.432C268.406 92.1855 278.333 82.2578 290.58 82.2578H301.667C313.914 82.2578 323.841 92.1855 323.841 104.432C323.841 112.596 317.223 119.215 309.058 119.215H283.189C275.024 119.215 268.406 112.596 268.406 104.432Z" fill="#FFC0C1"/>
<path d="M284.5 98.9492V105.507" stroke="#123041" stroke-width="5.96081" stroke-linecap="round"/>
<path d="M308.341 98.9492L308.341 105.507" stroke="#123041" stroke-width="5.96081" stroke-linecap="round"/>
<path d="M238.602 105.508H247.544" stroke="#FFC0C1" stroke-width="11.9216" stroke-linecap="round"/>
<path d="M345.298 105.508H354.241" stroke="#FFC0C1" stroke-width="11.9216" stroke-linecap="round"/>
<path d="M262.356 92.5859C262.356 92.5859 260.627 90.6031 256.738 90.6031C252.849 90.6031 251.12 92.5859 251.12 92.5859" stroke="#123041" stroke-width="7.04681" stroke-linecap="round"/>
<path d="M342.229 92.5859C342.229 92.5859 340.5 90.6031 336.611 90.6031C332.722 90.6031 330.993 92.5859 330.993 92.5859" stroke="#123041" stroke-width="7.04681" stroke-linecap="round"/>
<path fill-rule="evenodd" clip-rule="evenodd" d="M297.113 191.881C297.212 188.743 297.109 182.345 294.927 178.528C291.435 172.418 280.025 168.395 280.025 168.395C275.455 167.699 265.6 164.401 262.739 156.771C261.522 153.525 258.715 151.351 255.471 149.932C250.372 165.285 247.98 181.107 254.415 185.488C261.374 190.226 279.752 192.324 297.113 191.881Z" fill="#123041"/>
<path d="M326.822 166.255C326.822 182.156 313.211 185.975 296.422 185.975C279.632 185.975 266.021 182.156 266.021 166.255C266.021 145.352 279.632 133.52 296.422 133.52C313.211 133.52 326.822 145.352 326.822 166.255Z" fill="#FFC0C1"/>
<path d="M296.164 180.614C296.286 180.614 296.408 180.591 296.521 180.545C296.634 180.499 296.738 180.431 296.825 180.345L300.966 176.179C301.119 176.002 301.198 175.774 301.189 175.541C301.18 175.308 301.083 175.087 300.917 174.923C300.752 174.758 300.529 174.661 300.295 174.652C300.061 174.643 299.832 174.722 299.654 174.874L295.503 178.994C295.416 179.08 295.346 179.182 295.299 179.295C295.252 179.408 295.228 179.529 295.228 179.651C295.228 179.773 295.252 179.894 295.299 180.007C295.346 180.12 295.416 180.222 295.503 180.308C295.587 180.401 295.688 180.475 295.802 180.528C295.916 180.58 296.039 180.61 296.164 180.614Z" fill="#FF8D8D"/>
<path d="M300.261 180.614C300.383 180.614 300.503 180.591 300.616 180.545C300.728 180.499 300.83 180.431 300.917 180.346C301.003 180.26 301.072 180.158 301.119 180.045C301.166 179.933 301.19 179.812 301.19 179.69C301.19 179.568 301.166 179.447 301.119 179.335C301.072 179.222 301.003 179.12 300.917 179.034L296.807 174.925C296.722 174.838 296.619 174.769 296.507 174.722C296.394 174.676 296.274 174.651 296.152 174.651C296.03 174.651 295.909 174.676 295.797 174.722C295.684 174.769 295.582 174.838 295.496 174.925C295.324 175.098 295.228 175.332 295.228 175.576C295.228 175.82 295.324 176.054 295.496 176.227L299.615 180.346C299.787 180.516 300.019 180.613 300.261 180.614Z" fill="#FF8D8D"/>
<path d="M232.642 159.876C232.378 144.472 251.695 127.543 261.387 121.004C262.709 121.004 265.881 121.513 267.996 123.547C270.639 126.09 259.735 161.329 255.771 168.958C251.806 176.587 232.972 179.13 232.642 159.876Z" fill="white"/>
</g>
<g clip-path="url(#clip1_432_4615)">
<path d="M361.8 73.0079C362.336 70.7448 364.604 69.3442 366.867 69.8795L391.454 75.6957C393.717 76.2311 395.117 78.4997 394.582 80.7628L389.735 101.251C387.594 110.304 378.519 115.906 369.467 113.765C360.414 111.623 354.812 102.549 356.953 93.4965L361.8 73.0079Z" fill="#E6AD25"/>
<path d="M375.762 110.931L364.698 108.313C364.698 108.313 365.949 112.229 365.641 114.498C365.234 117.491 361.596 121.426 361.596 121.426L372.66 124.044C372.66 124.044 371.171 118.896 372.149 116.038C372.89 113.871 375.762 110.931 375.762 110.931Z" fill="#E6AD25"/>
<path d="M355.637 126.503C356.708 121.977 361.245 119.176 365.771 120.246L369.869 121.216C374.395 122.286 377.196 126.824 376.126 131.35L375.738 132.989C375.47 134.121 374.336 134.821 373.204 134.553L356.813 130.676C355.682 130.408 354.982 129.274 355.249 128.142L355.637 126.503Z" fill="#E6AD25"/>
<path fill-rule="evenodd" clip-rule="evenodd" d="M397.983 82.8665C393.456 81.7957 388.919 84.597 387.848 89.1232L384.94 101.416C384.405 103.68 385.806 105.948 388.069 106.483C394.858 108.09 401.664 103.888 403.27 97.0984L404.239 93.0007C405.31 88.4744 402.509 83.9372 397.983 82.8665ZM396.235 90.243C394.425 89.8148 392.61 90.9352 392.181 92.7457L391.018 97.663C390.804 98.5683 391.364 99.4757 392.27 99.6899C394.985 100.332 397.708 98.6516 398.35 95.9358L398.738 94.2967C399.166 92.4862 398.046 90.6713 396.235 90.243Z" fill="#E6AD25"/>
<path fill-rule="evenodd" clip-rule="evenodd" d="M357.825 73.363C362.351 74.4338 365.153 78.971 364.082 83.4972L361.174 95.7904C360.638 98.0535 358.37 99.4541 356.107 98.9188C349.317 97.3127 345.115 90.5068 346.721 83.7175L347.691 79.6198C348.762 75.0935 353.299 72.2923 357.825 73.363ZM356.079 80.7394C357.889 81.1677 359.01 82.9826 358.581 84.7931L357.418 89.7104C357.204 90.6156 356.296 91.1759 355.391 90.9617C352.675 90.3193 350.995 87.597 351.637 84.8812L352.025 83.2421C352.453 81.4316 354.268 80.3111 356.079 80.7394Z" fill="#E6AD25"/>
<path d="M352.381 127.464C352.488 127.011 352.942 126.731 353.394 126.838L377.981 132.655C378.433 132.762 378.713 133.215 378.606 133.668L375.214 148.01L348.988 141.806L352.381 127.464Z" fill="#123041"/>
<rect x="354.98" y="131.108" width="20.212" height="8.00058" rx="0.842166" transform="rotate(13.3093 354.98 131.108)" fill="#E6AD25"/>
<path d="M347.975 142.433C348.082 141.98 348.536 141.7 348.988 141.807L375.214 148.011C375.667 148.118 375.947 148.572 375.84 149.025L375.549 150.254L347.684 143.662L347.975 142.433Z" fill="#123041"/>
<path d="M346.26 144.191C346.367 143.738 346.821 143.458 347.273 143.565L375.957 150.351C376.41 150.458 376.69 150.911 376.583 151.364L376.292 152.593L345.969 145.42L346.26 144.191Z" fill="#123041"/>
<rect x="344.741" y="145.129" width="33.6866" height="2.10541" rx="0.842166" transform="rotate(13.3093 344.741 145.129)" fill="#123041"/>
</g>
<path d="M389.802 309.427C389.802 300.543 397.003 293.342 405.887 293.342H526.527C535.411 293.342 542.613 300.543 542.613 309.427V393.875H389.802V309.427Z" fill="#D69E84"/>
<path d="M216.887 228.998C216.887 220.115 224.088 212.913 232.972 212.913H353.612C362.496 212.913 369.698 220.115 369.698 228.998V393.873H216.887V228.998Z" fill="#E6AD25"/>
<path d="M43.9692 269.213C43.9692 260.33 51.1709 253.128 60.0546 253.128H180.695C189.579 253.128 196.78 260.33 196.78 269.213V393.875H43.9692V269.213Z" fill="#B2B7BB"/>
<path d="M294.97 324.201V281.35L286.284 286.996L283.822 282.797L296.055 274.473H300.616V324.201H294.97Z" fill="#A66E1C"/>
<path d="M103.083 344.311V339.606L121.251 324.115C128.272 318.107 131.168 313.33 131.168 308.408C131.168 302.328 126.101 298.781 120.817 298.781C115.026 298.781 110.9 301.893 107.498 306.526L103.517 303.269C107.643 297.406 113.216 293.714 121.034 293.714C129.648 293.714 136.886 299.432 136.886 308.336C136.886 315.067 133.556 320.424 125.16 327.662L112.131 338.954H137.393V344.311H103.083Z" fill="#78848E"/>
<path d="M466.394 365.284C458.214 365.284 451.917 361.52 448.298 356.742L452.206 353.051C455.464 357.249 460.313 360.144 466.394 360.144C473.342 360.144 477.975 356.308 477.975 350.662C477.975 344.799 472.981 341.831 465.163 341.831H459.879V336.62L465.235 336.692C471.895 336.764 476.889 333.579 476.889 327.933C476.889 322.722 472.112 318.958 465.887 318.958C460.386 318.958 456.477 321.708 452.93 325.979L449.166 322.577C452.93 317.582 458.431 313.819 466.176 313.819C475.659 313.819 482.608 319.32 482.608 327.282C482.608 333.652 478.12 337.416 472.981 338.936C478.047 340.094 483.693 343.786 483.693 350.952C483.693 359.276 476.745 365.284 466.394 365.284Z" fill="#936651"/>
<g clip-path="url(#clip2_432_4615)">
<ellipse cx="67.9574" cy="83.9109" rx="23.8264" ry="25.676" transform="rotate(-28.6896 67.9574 83.9109)" fill="#5BB42B"/>
<ellipse cx="23.8264" cy="25.676" rx="23.8264" ry="25.676" transform="matrix(-0.877234 -0.480064 -0.480064 0.877234 204.705 72.1611)" fill="#5BB42B"/>
<path d="M188.079 184.726C174.104 191.21 150.798 180.411 140.892 174.201C140.357 172.993 139.536 169.887 140.539 167.129C141.792 163.682 178.427 159.368 187.008 159.901C195.589 160.434 205.547 176.62 188.079 184.726Z" fill="#5C9A15"/>
<path d="M153.993 251.63C158.268 249.883 162.431 226.591 161.587 214.996L120.523 221.55C119.679 230.961 119.623 250.151 121.648 251.63C124.179 253.479 148.649 253.815 153.993 251.63Z" fill="#5C9A15"/>
<path d="M157.202 225.832C169.983 217.334 152.706 164.318 140.223 157.64C127.74 150.963 107.437 151.975 98.5198 157.64C89.6031 163.306 67.5686 217.131 80.349 225.832C93.1295 234.534 144.422 234.331 157.202 225.832Z" fill="#5BB42B"/>
<path d="M84.1609 251.63C79.8857 249.883 75.723 226.591 76.5668 214.996L117.631 221.55C118.475 230.961 118.531 250.151 116.506 251.63C113.975 253.479 89.5048 253.815 84.1609 251.63Z" fill="#5BB42B"/>
<path d="M58.5764 200.22C58.3121 184.817 77.63 167.888 87.322 161.349C88.6437 161.349 91.8156 161.857 93.9303 163.892C96.5735 166.435 85.67 201.674 81.7051 209.303C77.7402 216.932 58.9068 219.475 58.5764 200.22Z" fill="#5BB42B"/>
<path d="M151.562 205.103C151.562 223.173 137.951 227.512 121.162 227.512C104.372 227.512 90.7617 223.173 90.7617 205.103C90.7617 181.35 104.372 167.904 121.162 167.904C137.951 167.904 151.562 181.35 151.562 205.103Z" fill="#A1DC3C"/>
<path d="M122.098 217.975C122.22 217.976 122.342 217.952 122.455 217.906C122.569 217.86 122.672 217.792 122.759 217.707L126.9 213.541C127.053 213.364 127.132 213.136 127.123 212.903C127.114 212.67 127.017 212.449 126.851 212.284C126.686 212.119 126.463 212.022 126.229 212.013C125.995 212.004 125.766 212.084 125.588 212.235L121.437 216.355C121.35 216.441 121.281 216.543 121.233 216.656C121.186 216.769 121.162 216.89 121.162 217.012C121.162 217.134 121.186 217.255 121.233 217.368C121.281 217.481 121.35 217.583 121.437 217.669C121.521 217.762 121.623 217.837 121.736 217.889C121.85 217.942 121.973 217.971 122.098 217.975Z" fill="#5BB42B"/>
<path d="M126.195 217.975C126.317 217.976 126.437 217.952 126.55 217.906C126.662 217.86 126.765 217.793 126.851 217.707C126.937 217.621 127.006 217.519 127.053 217.407C127.1 217.294 127.124 217.173 127.124 217.051C127.124 216.93 127.1 216.809 127.053 216.696C127.006 216.584 126.937 216.482 126.851 216.396L122.742 212.286C122.656 212.199 122.554 212.131 122.441 212.084C122.329 212.037 122.208 212.013 122.086 212.013C121.964 212.013 121.843 212.037 121.731 212.084C121.618 212.131 121.516 212.199 121.43 212.286C121.258 212.459 121.162 212.693 121.162 212.937C121.162 213.181 121.258 213.415 121.43 213.588L125.549 217.707C125.721 217.878 125.953 217.974 126.195 217.975Z" fill="#5BB42B"/>
<path d="M196.864 125.145C196.864 156.584 162.212 167.01 120.097 167.01C77.9812 167.01 43.0747 156.584 43.0747 125.145C43.0747 79.982 77.9812 60.6094 120.097 60.6094C162.212 60.6094 196.864 76.4055 196.864 125.145Z" fill="#5BB42B"/>
<path d="M72.2832 83.8555V93.3928" stroke="#123041" stroke-width="8.94121" stroke-linecap="round"/>
<path d="M173.618 83.2598V92.7971" stroke="#123041" stroke-width="8.94121" stroke-linecap="round"/>
<path d="M59.1719 114.257H69.3052" stroke="#A1DC3C" stroke-width="11.9216" stroke-linecap="round"/>
<path d="M169.446 114.257H179.58" stroke="#A1DC3C" stroke-width="11.9216" stroke-linecap="round"/>
<path d="M134.275 104.75C134.275 97.5878 134.275 93.9872 120.863 93.9872C107.452 93.9872 107.452 96.948 107.452 104.75C107.452 117.532 113.456 124.983 120.863 124.983C128.271 124.983 134.275 116.638 134.275 104.75Z" fill="#D52C2F"/>
<path fill-rule="evenodd" clip-rule="evenodd" d="M107.476 106.079C107.877 118.051 113.718 124.989 120.866 124.989C126.055 124.989 130.557 120.893 132.787 114.352C130.193 111.322 126.354 108.694 121.72 107.07C116.663 105.297 111.602 105.049 107.476 106.079Z" fill="#FF686B"/>
</g>
<g clip-path="url(#clip3_432_4615)">
<path d="M184.388 118.845C184.843 116.862 186.82 115.623 188.803 116.078L210.35 121.022C212.333 121.477 213.572 123.453 213.117 125.437L208.997 143.392C207.177 151.326 199.27 156.281 191.337 154.461C183.404 152.641 178.448 144.734 180.268 136.801L184.388 118.845Z" fill="#B2B7BB"/>
<path d="M196.832 151.938L187.136 149.713C187.136 149.713 188.253 153.131 187.997 155.119C187.658 157.74 184.499 161.205 184.499 161.205L194.195 163.429C194.195 163.429 192.862 158.934 193.7 156.427C194.336 154.527 196.832 151.938 196.832 151.938Z" fill="#B2B7BB"/>
<path d="M179.312 165.686C180.222 161.72 184.175 159.242 188.142 160.152L191.733 160.976C195.7 161.886 198.177 165.839 197.267 169.806L196.938 171.242C196.71 172.234 195.722 172.854 194.73 172.626L180.366 169.33C179.374 169.103 178.754 168.114 178.982 167.123L179.312 165.686Z" fill="#B2B7BB"/>
<path fill-rule="evenodd" clip-rule="evenodd" d="M216.106 127.254C212.139 126.344 208.186 128.822 207.276 132.789L204.804 143.562C204.349 145.545 205.588 147.522 207.571 147.977C213.521 149.342 219.451 145.626 220.817 139.676L221.64 136.085C222.551 132.118 220.073 128.164 216.106 127.254ZM214.624 133.717C213.038 133.353 211.456 134.344 211.092 135.931L210.103 140.241C209.921 141.035 210.417 141.825 211.21 142.007C213.59 142.553 215.963 141.067 216.509 138.686L216.838 137.25C217.203 135.663 216.211 134.081 214.624 133.717Z" fill="#B2B7BB"/>
<path fill-rule="evenodd" clip-rule="evenodd" d="M180.911 119.181C184.878 120.091 187.356 124.045 186.446 128.011L183.974 138.785C183.519 140.768 181.542 142.007 179.559 141.552C173.609 140.187 169.892 134.257 171.257 128.307L172.081 124.716C172.991 120.749 176.945 118.271 180.911 119.181ZM179.429 125.645C181.016 126.009 182.007 127.591 181.643 129.178L180.654 133.488C180.472 134.281 179.681 134.777 178.888 134.595C176.507 134.049 175.021 131.676 175.567 129.296L175.896 127.859C176.26 126.272 177.842 125.281 179.429 125.645Z" fill="#B2B7BB"/>
<path d="M176.468 166.546C176.559 166.15 176.954 165.902 177.351 165.993L198.898 170.937C199.295 171.028 199.542 171.423 199.451 171.82L196.567 184.389L173.584 179.115L176.468 166.546Z" fill="#123041"/>
<rect x="178.762" y="169.721" width="17.6854" height="7.00047" rx="0.736891" transform="rotate(12.9224 178.762 169.721)" fill="#B2B7BB"/>
<path d="M172.7 179.668C172.791 179.272 173.186 179.024 173.583 179.115L196.566 184.388C196.963 184.479 197.211 184.875 197.12 185.271L196.873 186.349L172.453 180.746L172.7 179.668Z" fill="#123041"/>
<path d="M171.214 181.218C171.305 180.822 171.7 180.574 172.097 180.665L197.235 186.433C197.632 186.524 197.88 186.919 197.789 187.316L197.541 188.393L170.967 182.296L171.214 181.218Z" fill="#123041"/>
<rect x="169.887" y="182.049" width="29.4756" height="1.84223" rx="0.736891" transform="rotate(12.9224 169.887 182.049)" fill="#123041"/>
</g>
<g clip-path="url(#clip4_432_4615)">
<path d="M406.831 228.462C421.038 234.419 443.924 222.757 453.592 216.182C454.082 214.954 454.786 211.82 453.681 209.102C452.299 205.704 415.53 202.761 406.974 203.614C398.419 204.467 389.073 221.014 406.831 228.462Z" fill="#FFC532"/>
<path d="M438.368 293.614C434.093 291.866 429.93 268.575 430.774 256.979L471.838 263.533C472.682 272.944 472.738 292.135 470.713 293.614C468.182 295.462 443.712 295.798 438.368 293.614Z" fill="#FFC532"/>
<path d="M435.159 267.814C422.378 259.315 439.655 206.299 452.138 199.622C464.621 192.944 484.925 193.956 493.842 199.622C502.758 205.288 524.793 259.113 512.012 267.814C499.232 276.515 447.939 276.313 435.159 267.814Z" fill="#FFDB40"/>
<path d="M508.201 293.614C512.476 291.866 516.639 268.575 515.795 256.979L474.731 263.533C473.887 272.944 473.831 292.135 475.856 293.614C478.387 295.462 502.857 295.798 508.201 293.614Z" fill="#FFDB40"/>
<path d="M533.785 242.207C534.05 226.803 514.732 209.874 505.04 203.335C503.718 203.335 500.546 203.844 498.432 205.878C495.788 208.421 506.692 243.66 510.657 251.289C514.622 258.918 533.455 261.461 533.785 242.207Z" fill="#FFDB40"/>
<path d="M465.494 259.962C465.372 259.963 465.251 259.94 465.137 259.894C465.024 259.847 464.921 259.78 464.834 259.694L460.692 255.528C460.54 255.351 460.46 255.123 460.469 254.89C460.478 254.657 460.575 254.436 460.741 254.271C460.907 254.106 461.129 254.01 461.363 254.001C461.597 253.992 461.826 254.071 462.004 254.223L466.155 258.342C466.242 258.428 466.312 258.531 466.359 258.643C466.406 258.756 466.431 258.877 466.431 258.999C466.431 259.122 466.406 259.243 466.359 259.356C466.312 259.468 466.242 259.571 466.155 259.657C466.071 259.749 465.97 259.824 465.856 259.877C465.743 259.929 465.62 259.958 465.494 259.962Z" fill="#FFB132"/>
<path d="M461.397 259.962C461.276 259.963 461.155 259.94 461.043 259.894C460.93 259.848 460.828 259.78 460.741 259.694C460.655 259.609 460.586 259.506 460.539 259.394C460.492 259.281 460.468 259.161 460.468 259.039C460.468 258.917 460.492 258.796 460.539 258.684C460.586 258.571 460.655 258.469 460.741 258.383L464.851 254.273C464.937 254.187 465.039 254.118 465.151 254.071C465.264 254.024 465.384 254 465.506 254C465.628 254 465.749 254.024 465.862 254.071C465.974 254.118 466.076 254.187 466.162 254.273C466.334 254.446 466.431 254.68 466.431 254.924C466.431 255.168 466.334 255.402 466.162 255.575L462.043 259.694C461.871 259.865 461.639 259.961 461.397 259.962Z" fill="#FFB132"/>
<path d="M398.739 167.867C398.739 198.977 432.853 209.293 474.315 209.293C515.778 209.293 550.143 198.977 550.143 167.867C550.143 114.821 515.778 96.6338 474.315 96.6338C432.853 96.6338 398.739 112.295 398.739 167.867Z" fill="#FFDB40"/>
<path d="M523.319 183.064H514.377" stroke="#FCA18E" stroke-width="11.9216" stroke-linecap="round"/>
<path d="M424.37 183.064H415.427" stroke="#FCA18E" stroke-width="11.9216" stroke-linecap="round"/>
<path d="M454.173 175.319C454.173 180.751 460.978 183.068 469.373 183.068C477.767 183.068 484.573 180.751 484.573 175.319C484.573 169.887 477.767 163.397 469.373 163.397C460.978 163.397 454.173 169.887 454.173 175.319Z" fill="#FFB132"/>
<path d="M463.27 75.9023C472.312 83.9208 477.507 92.9137 479.044 101.099L463.131 99.4017C456.579 98.7029 450.302 90.9794 450.591 81.6046C450.881 72.2298 458.672 71.8246 463.27 75.9023Z" fill="#FFDB40"/>
<path d="M479.875 88.5691C477.06 91.3181 476.348 97.3088 476.344 99.9606C481.798 99.4565 490.95 97.7798 492.591 94.2874C494.232 90.795 493.208 86.4529 491.21 85.418C489.212 84.383 483.395 85.1329 479.875 88.5691Z" fill="#FFDB40"/>
<path d="M438.954 172.451C438.954 172.451 437.226 170.468 433.336 170.468C429.447 170.468 427.718 172.451 427.718 172.451" stroke="#123041" stroke-width="7.04681" stroke-linecap="round"/>
<path d="M510.938 172.451C510.938 172.451 509.209 170.468 505.32 170.468C501.431 170.468 499.702 172.451 499.702 172.451" stroke="#123041" stroke-width="7.04681" stroke-linecap="round"/>
</g>
<g clip-path="url(#clip5_432_4615)">
<path d="M385.083 172.76C384.774 171.043 385.915 169.401 387.632 169.092L406.281 165.735C407.997 165.426 409.639 166.567 409.948 168.284L412.745 183.825C413.981 190.691 409.417 197.259 402.551 198.495C395.684 199.731 389.116 195.167 387.88 188.3L385.083 172.76Z" fill="#D69E84"/>
<path d="M406.032 194.658L397.64 196.169C397.64 196.169 399.672 198.487 400.139 200.14C400.754 202.32 399.43 206.115 399.43 206.115L407.822 204.605C407.822 204.605 405.258 201.51 405.075 199.252C404.936 197.54 406.032 194.658 406.032 194.658Z" fill="#D69E84"/>
<path d="M396.851 211.394C396.233 207.961 398.516 204.677 401.949 204.059L405.057 203.499C408.49 202.881 411.774 205.164 412.392 208.597L412.616 209.84C412.77 210.698 412.2 211.519 411.342 211.674L398.909 213.912C398.051 214.066 397.23 213.496 397.075 212.637L396.851 211.394Z" fill="#D69E84"/>
<path fill-rule="evenodd" clip-rule="evenodd" d="M412.912 168.714C409.479 169.332 407.197 172.616 407.815 176.049L409.493 185.374C409.802 187.09 411.444 188.232 413.161 187.923C418.31 186.996 421.734 182.069 420.807 176.92L420.247 173.812C419.629 170.378 416.345 168.096 412.912 168.714ZM413.92 174.31C412.547 174.557 411.634 175.871 411.881 177.245L412.552 180.975C412.676 181.662 413.333 182.118 414.02 181.994C416.08 181.624 417.449 179.653 417.079 177.593L416.855 176.349C416.607 174.976 415.294 174.063 413.92 174.31Z" fill="#D69E84"/>
<path fill-rule="evenodd" clip-rule="evenodd" d="M382.454 174.198C385.887 173.58 389.171 175.862 389.789 179.295L391.467 188.62C391.776 190.337 390.635 191.979 388.918 192.288C383.769 193.214 378.843 189.791 377.916 184.641L377.356 181.533C376.738 178.1 379.02 174.816 382.454 174.198ZM383.461 179.793C384.835 179.545 386.148 180.458 386.396 181.832L387.067 185.562C387.191 186.249 386.734 186.906 386.047 187.029C383.987 187.4 382.017 186.031 381.646 183.97L381.422 182.727C381.175 181.354 382.088 180.04 383.461 179.793Z" fill="#D69E84"/>
<path d="M394.901 213.03C394.839 212.687 395.067 212.358 395.411 212.296L414.06 208.94C414.403 208.878 414.731 209.106 414.793 209.449L416.751 220.328L396.859 223.908L394.901 213.03Z" fill="#123041"/>
<rect x="397.777" y="214.759" width="15.1589" height="6.00041" rx="0.631622" transform="rotate(-10.2037 397.777 214.759)" fill="#D69E84"/>
<path d="M396.345 224.639C396.283 224.296 396.511 223.967 396.855 223.906L416.747 220.325C417.09 220.263 417.419 220.492 417.48 220.835L417.648 221.767L396.513 225.572L396.345 224.639Z" fill="#123041"/>
<path d="M395.694 226.366C395.632 226.022 395.86 225.694 396.204 225.632L417.961 221.716C418.304 221.654 418.633 221.882 418.694 222.226L418.862 223.158L395.862 227.298L395.694 226.366Z" fill="#123041"/>
<rect x="394.931" y="227.462" width="25.2649" height="1.57906" rx="0.631622" transform="rotate(-10.2037 394.931 227.462)" fill="#123041"/>
</g>
<defs>
<clipPath id="clip0_432_4615">
<rect width="187.765" height="212.801" fill="white" transform="translate(199.854)"/>
</clipPath>
<clipPath id="clip1_432_4615">
<rect width="60.3201" height="85.6546" fill="white" transform="translate(350.667 62.3291) rotate(13.3093)"/>
</clipPath>
<clipPath id="clip2_432_4615">
<rect width="167.499" height="208.032" fill="white" transform="translate(37.1182 45.1104)"/>
</clipPath>
<clipPath id="clip3_432_4615">
<rect width="59.1137" height="80.0247" fill="white" transform="translate(172.836 106.636) rotate(12.9224)"/>
</clipPath>
<clipPath id="clip4_432_4615">
<rect width="181.209" height="231.279" fill="white" transform="translate(380.592 62.2402)"/>
</clipPath>
<clipPath id="clip5_432_4615">
<rect width="52.6796" height="65.95" fill="white" transform="translate(370.587 168.892) rotate(-10.2037)"/>
</clipPath>
</defs>
</svg>
