<svg width="450" height="257" viewBox="0 0 450 257" fill="none" xmlns="http://www.w3.org/2000/svg">
<path d="M223.336 36.3971C223.673 34.1201 226.957 34.1201 227.294 36.3971L248.706 181.384C248.994 183.337 251.636 183.736 252.488 181.955L315.773 49.7064C316.766 47.63 319.905 48.5999 319.553 50.8749L297.195 195.711C296.894 197.662 299.302 198.824 300.641 197.374L400.168 89.6204C401.73 87.9292 404.442 89.7823 403.435 91.8524L339.301 223.666C338.437 225.442 340.396 227.262 342.104 226.271L469.021 152.588C471.013 151.432 473.059 154.003 471.486 155.684L371.28 262.766C369.93 264.208 371.266 266.526 373.191 266.081L516.219 233.011C518.463 232.492 519.661 235.553 517.662 236.696L390.289 309.539C388.574 310.52 389.168 313.129 391.139 313.27L537.568 323.741C539.865 323.906 540.11 327.184 537.863 327.688L394.635 359.825C392.707 360.257 392.507 362.926 394.349 363.641L531.179 416.723C533.326 417.556 532.596 420.761 530.3 420.582L383.936 409.158C381.966 409.004 380.99 411.496 382.54 412.721L497.614 503.697C499.421 505.125 497.78 507.973 495.639 507.126L359.142 453.149C357.305 452.422 355.639 454.515 356.759 456.142L439.857 576.937C441.162 578.834 438.755 581.071 436.959 579.631L322.457 487.889C320.916 486.654 318.708 488.162 319.297 490.046L363.032 629.934C363.719 632.131 360.761 633.559 359.469 631.654L277.144 510.296C276.036 508.663 273.482 509.452 273.489 511.426L273.968 657.975C273.975 660.277 270.728 660.768 270.055 658.566L227.228 518.381C226.651 516.494 223.979 516.494 223.402 518.381L180.575 658.566C179.902 660.768 176.655 660.277 176.662 657.975L177.141 511.426C177.148 509.452 174.594 508.663 173.486 510.296L91.1608 631.654C89.8685 633.559 86.9099 632.131 87.5968 629.934L131.333 490.046C131.922 488.162 129.714 486.654 128.173 487.889L13.671 579.631C11.8742 581.071 9.46771 578.834 10.7726 576.937L93.8722 456.142C94.9916 454.515 93.3257 452.422 91.489 453.149L-45.0096 507.126C-47.151 507.973 -48.7918 505.125 -46.9854 503.697L68.0902 412.721C69.64 411.496 68.6638 409.004 66.6942 409.158L-79.6705 420.582C-81.9665 420.761 -82.6966 417.556 -80.5495 416.723L56.2798 363.641C58.122 362.926 57.9223 360.257 55.9943 359.825L-87.234 327.688C-89.4812 327.184 -89.236 323.906 -86.9388 323.741L59.4919 313.27C61.4627 313.129 62.0573 310.52 60.3421 309.539L-67.0323 236.696C-69.0314 235.553 -67.8326 232.492 -65.5889 233.011L77.44 266.081C79.3646 266.526 80.7006 264.208 79.3509 262.766L-20.8561 155.685C-22.4294 154.003 -20.3829 151.432 -18.3916 152.588L108.526 226.271C110.234 227.262 112.193 225.442 111.329 223.666L47.1944 91.8524C46.1872 89.7823 48.8999 87.9292 50.462 89.6204L149.989 197.374C151.328 198.824 153.736 197.662 153.435 195.711L131.077 50.8749C130.725 48.6 133.864 47.6301 134.857 49.7064L198.142 181.955C198.994 183.736 201.636 183.337 201.924 181.384L223.336 36.3971Z" fill="#93F5F3"/>
<g clip-path="url(#clip0_4086_1182)">
<g clip-path="url(#clip1_4086_1182)">
<path d="M176.653 18.4215C189.284 25.897 185.382 29.6239 182.119 35.1386C178.855 40.6533 177.209 45.7158 164.834 38.392C158.552 34.6741 156.105 27.1896 159.368 21.6749C162.632 16.1602 170.37 14.7036 176.653 18.4215Z" fill="white"/>
<path d="M195.169 19.697C195.169 26.6597 192.74 26.7009 189.745 26.7009C186.749 26.7009 184.32 26.6597 184.32 19.697C184.32 12.7342 187.645 7.08984 189.745 7.08984C191.844 7.08984 195.169 12.7342 195.169 19.697Z" fill="#6A5B3D"/>
<path d="M260.677 19.697C260.677 26.6597 258.248 26.7009 255.252 26.7009C252.256 26.7009 249.828 26.6597 249.828 19.697C249.828 12.7342 253.153 7.08984 255.252 7.08984C257.352 7.08984 260.677 12.7342 260.677 19.697Z" fill="#6A5B3D"/>
<path d="M286.52 21.8532C283.376 16.5405 275.869 15.0808 269.715 18.7228C263.399 22.4601 261.373 25.1794 261.192 27.5419C261.101 28.7278 261.469 29.8767 262.084 31.0934C262.705 32.3226 263.54 33.5554 264.372 34.9607C265.2 36.36 265.898 37.6811 266.693 38.801C267.482 39.9122 268.336 40.7755 269.437 41.259C271.63 42.2224 274.993 41.7504 281.177 38.0911C287.331 34.4491 289.664 27.1658 286.52 21.8532Z" fill="#123041" stroke="#005271" stroke-width="0.7"/>
<path d="M272.653 24.7937C266.357 28.5196 267.987 29.8451 269.226 31.9375C270.464 34.0299 270.969 36.0211 277.137 32.3708C280.268 30.5178 281.803 27.3194 280.565 25.2271C279.326 23.1347 275.784 22.9407 272.653 24.7937Z" fill="#FFC0C1"/>
<path d="M173.161 24.7937C179.457 28.5196 177.827 29.8451 176.589 31.9375C175.35 34.0299 174.845 36.0211 168.677 32.3708C165.546 30.5178 164.011 27.3194 165.25 25.2271C166.488 23.1347 170.03 22.9407 173.161 24.7937Z" fill="#FFC0C1"/>
<path d="M273.851 99.9964C264.378 105.15 247.615 98.6464 240.418 94.7504C239.99 93.9303 239.278 91.7972 239.855 89.826C240.577 87.3619 265.976 82.7131 271.995 82.7022C278.013 82.6913 285.692 93.5544 273.851 99.9964Z" fill="#EFEFEF"/>
<path d="M246.94 147.898C249.933 146.674 252.847 130.371 252.256 122.254L223.511 126.842C222.92 133.429 222.881 146.863 224.299 147.898C226.07 149.192 243.199 149.427 246.94 147.898Z" fill="#EFEFEF"/>
<path d="M249.187 129.839C258.133 123.89 246.039 86.7792 237.301 82.1049C228.563 77.4307 214.351 78.1388 208.109 82.1049C201.867 86.0711 186.443 123.749 195.389 129.839C204.336 135.93 240.24 135.788 249.187 129.839Z" fill="white"/>
<path d="M198.057 147.898C195.065 146.674 192.151 130.371 192.742 122.254L221.486 126.842C222.077 133.429 222.116 146.863 220.699 147.898C218.927 149.192 201.798 149.427 198.057 147.898Z" fill="#123041" stroke="#005271" stroke-width="0.7"/>
<path d="M275.282 61.5467C275.282 83.3237 251.402 90.5451 222.379 90.5451C193.355 90.5451 169.299 83.3237 169.299 61.5467C169.299 24.4146 193.355 11.6836 222.379 11.6836C251.402 11.6836 275.282 22.6464 275.282 61.5467Z" fill="white"/>
<path fill-rule="evenodd" clip-rule="evenodd" d="M226.066 11.7461C226.31 18.6942 227.762 27.8057 232.314 31.4909C236.318 34.732 240.938 35.5574 245.067 36.295C248.596 36.9254 251.765 37.4916 253.884 39.447C255.009 40.486 256.008 41.9277 257.089 43.4894C260.347 48.1948 264.359 53.9887 274.876 53.1326C271.764 22.5227 251.222 12.5977 226.066 11.7461Z" fill="#123041"/>
<path d="M232.314 31.4909L232.094 31.7629V31.7629L232.314 31.4909ZM226.066 11.7461L226.078 11.3963L225.703 11.3836L225.716 11.7584L226.066 11.7461ZM245.067 36.295L245.129 35.9505V35.9505L245.067 36.295ZM253.884 39.447L254.121 39.1898V39.1898L253.884 39.447ZM257.089 43.4894L256.801 43.6886V43.6886L257.089 43.4894ZM274.876 53.1326L274.904 53.4815L275.26 53.4525L275.224 53.0972L274.876 53.1326ZM232.314 31.4909L232.534 31.2188C230.345 29.4469 228.869 26.3363 227.913 22.7519C226.959 19.1788 226.537 15.1922 226.416 11.7338L226.066 11.7461L225.716 11.7584C225.839 15.2481 226.265 19.2913 227.236 22.9323C228.205 26.5619 229.73 29.8496 232.094 31.7629L232.314 31.4909ZM245.067 36.295L245.129 35.9505C240.991 35.2114 236.458 34.3958 232.534 31.2188L232.314 31.4909L232.094 31.7629C236.177 35.0683 240.885 35.9035 245.005 36.6396L245.067 36.295ZM253.884 39.447L254.121 39.1898C253.01 38.164 251.634 37.5132 250.108 37.0398C248.585 36.5674 246.888 36.2647 245.129 35.9505L245.067 36.295L245.005 36.6396C246.775 36.9557 248.427 37.2513 249.901 37.7084C251.371 38.1646 252.639 38.7747 253.646 39.7042L253.884 39.447ZM257.089 43.4894L257.377 43.2901C256.302 41.7377 255.281 40.2603 254.121 39.1898L253.884 39.447L253.646 39.7042C254.738 40.7116 255.714 42.1177 256.801 43.6886L257.089 43.4894ZM274.876 53.1326L274.847 52.7838C269.665 53.2057 266.116 51.9895 263.463 50.1109C260.796 48.2221 259.01 45.6489 257.377 43.2901L257.089 43.4894L256.801 43.6886C258.426 46.0352 260.276 48.7116 263.058 50.6822C265.855 52.6629 269.57 53.9156 274.904 53.4815L274.876 53.1326ZM226.066 11.7461L226.054 12.0959C238.596 12.5205 249.94 15.2065 258.529 21.5614C267.106 27.9068 272.98 37.9432 274.528 53.168L274.876 53.1326L275.224 53.0972C273.66 37.7121 267.707 27.4811 258.946 20.9986C250.197 14.5256 238.692 11.8233 226.078 11.3963L226.066 11.7461Z" fill="#123041"/>
<path d="M205.183 73.1001C205.183 64.5275 212.132 57.5781 220.705 57.5781H228.466C237.038 57.5781 243.988 64.5275 243.988 73.1001C243.988 78.8151 239.355 83.448 233.64 83.448H215.531C209.816 83.448 205.183 78.8151 205.183 73.1001Z" fill="#FFC0C1"/>
<path d="M216.449 69.2617V73.8521" stroke="#123041" stroke-width="4.17257" stroke-linecap="round"/>
<path d="M233.138 69.2617L233.138 73.8521" stroke="#123041" stroke-width="4.17257" stroke-linecap="round"/>
<path d="M184.32 73.8555H190.58" stroke="#FFC0C1" stroke-width="8.34513" stroke-linecap="round"/>
<path d="M259.008 73.8555H265.267" stroke="#FFC0C1" stroke-width="8.34513" stroke-linecap="round"/>
<path d="M200.948 64.8086C200.948 64.8086 199.738 63.4206 197.016 63.4206C194.293 63.4206 193.083 64.8086 193.083 64.8086" stroke="#123041" stroke-width="4.93277" stroke-linecap="round"/>
<path d="M256.859 64.8086C256.859 64.8086 255.649 63.4206 252.926 63.4206C250.204 63.4206 248.994 64.8086 248.994 64.8086" stroke="#123041" stroke-width="4.93277" stroke-linecap="round"/>
<path fill-rule="evenodd" clip-rule="evenodd" d="M196.128 104.953C198.399 105.947 200.364 107.466 201.216 109.738C203.219 115.079 210.118 117.387 213.317 117.874C213.343 117.883 221.308 120.698 223.748 124.968C225.275 127.639 225.345 132.117 225.276 134.313C213.124 134.624 200.26 133.157 195.389 129.841C190.885 126.774 192.559 115.7 196.128 104.953Z" fill="#123041"/>
<path d="M246.074 116.376C246.074 127.506 236.546 130.18 224.794 130.18C213.041 130.18 203.514 127.506 203.514 116.376C203.514 101.743 213.041 93.4609 224.794 93.4609C236.546 93.4609 246.074 101.743 246.074 116.376Z" fill="#FFC0C1"/>
<path d="M224.613 126.428C224.699 126.428 224.784 126.412 224.863 126.379C224.943 126.347 225.015 126.3 225.076 126.24L227.975 123.323C228.082 123.199 228.137 123.04 228.131 122.877C228.125 122.714 228.057 122.559 227.941 122.444C227.825 122.328 227.669 122.261 227.505 122.254C227.341 122.248 227.181 122.304 227.056 122.41L224.151 125.293C224.09 125.354 224.041 125.425 224.008 125.504C223.975 125.583 223.958 125.668 223.958 125.754C223.958 125.839 223.975 125.924 224.008 126.003C224.041 126.082 224.09 126.153 224.151 126.214C224.209 126.278 224.281 126.331 224.36 126.367C224.44 126.404 224.526 126.425 224.613 126.428Z" fill="#FF8D8D"/>
<path d="M227.481 126.428C227.567 126.428 227.651 126.412 227.73 126.38C227.808 126.347 227.88 126.3 227.94 126.24C228.001 126.18 228.049 126.108 228.082 126.03C228.115 125.951 228.132 125.866 228.132 125.781C228.132 125.696 228.115 125.611 228.082 125.532C228.049 125.454 228.001 125.382 227.94 125.322L225.064 122.445C225.004 122.385 224.932 122.336 224.853 122.304C224.775 122.271 224.69 122.254 224.605 122.254C224.52 122.254 224.435 122.271 224.356 122.304C224.278 122.336 224.206 122.385 224.146 122.445C224.026 122.566 223.958 122.73 223.958 122.901C223.958 123.072 224.026 123.236 224.146 123.357L227.029 126.24C227.149 126.359 227.312 126.427 227.481 126.428Z" fill="#FF8D8D"/>
<path d="M180.148 111.913C179.963 101.131 193.486 89.2806 200.27 84.7031C201.195 84.7031 203.416 85.0591 204.896 86.4832C206.746 88.2633 199.114 112.931 196.338 118.271C193.563 123.611 180.38 125.391 180.148 111.913Z" fill="white"/>
</g>
<g clip-path="url(#clip2_4086_1182)">
<path d="M270.559 51.1028C270.934 49.5186 272.522 48.5382 274.106 48.9129L291.316 52.9843C292.9 53.359 293.881 54.9471 293.506 56.5312L290.113 70.8733C288.614 77.21 282.262 81.1317 275.925 79.6327C269.589 78.1337 265.667 71.7816 267.166 65.4449L270.559 51.1028Z" fill="#FFC53D"/>
<path d="M280.332 77.6485L272.587 75.8164C272.587 75.8164 273.463 78.5572 273.247 80.1456C272.962 82.2407 270.416 84.9953 270.416 84.9953L278.161 86.8274C278.161 86.8274 277.119 83.224 277.803 81.2233C278.321 79.7065 280.332 77.6485 280.332 77.6485Z" fill="#FFC53D"/>
<path d="M266.245 88.5493C266.994 85.381 270.17 83.4201 273.339 84.1696L276.207 84.8482C279.376 85.5977 281.336 88.7737 280.587 91.9421L280.315 93.0895C280.128 93.8816 279.334 94.3718 278.542 94.1844L267.068 91.4702C266.276 91.2828 265.786 90.4888 265.973 89.6967L266.245 88.5493Z" fill="#FFC53D"/>
<path d="M295.887 58.0015C299.055 58.751 301.016 61.9275 300.267 65.0959L299.588 67.964C298.464 72.7165 293.7 75.6577 288.947 74.5336C287.363 74.1588 286.383 72.571 286.757 70.987L288.793 62.3817C289.543 59.2134 292.718 57.2521 295.887 58.0015ZM294.663 63.1642C293.396 62.8646 292.126 63.6494 291.826 64.9166L291.012 68.3587C290.862 68.9923 291.254 69.6272 291.888 69.7771C293.789 70.2268 295.694 69.0503 296.144 67.1492L296.415 66.0022C296.715 64.7349 295.931 63.464 294.663 63.1642Z" fill="#FFC53D"/>
<path d="M267.777 51.354C264.608 50.6045 261.432 52.5656 260.682 55.7339L260.004 58.602C258.879 63.3545 261.821 68.1187 266.573 69.243C268.157 69.6177 269.745 68.6373 270.12 67.0534L272.156 58.4481C272.905 55.2798 270.945 52.1036 267.777 51.354ZM266.554 56.5188C267.821 56.8186 268.606 58.0886 268.306 59.3558L267.492 62.7979C267.342 63.4316 266.706 63.8243 266.072 63.6744C264.172 63.2245 262.995 61.3188 263.444 59.418L263.716 58.27C264.016 57.0029 265.287 56.2191 266.554 56.5188Z" fill="#FFC53D"/>
<path d="M263.965 89.2221C264.04 88.9053 264.358 88.7092 264.675 88.7841L281.885 92.8555C282.202 92.9304 282.398 93.248 282.323 93.5649L279.948 103.604L261.59 99.2616L263.965 89.2221Z" fill="#123041"/>
<rect x="265.785" y="91.7734" width="14.1484" height="5.6004" rx="0.589516" transform="rotate(13.3093 265.785 91.7734)" fill="#FFC53D"/>
<path d="M260.882 99.7026C260.956 99.3858 261.274 99.1897 261.591 99.2646L279.949 103.607C280.266 103.682 280.462 104 280.387 104.317L280.183 105.177L260.678 100.563L260.882 99.7026Z" fill="#123041"/>
<path d="M259.681 100.933C259.756 100.616 260.073 100.42 260.39 100.495L280.469 105.245C280.786 105.32 280.982 105.638 280.907 105.954L280.703 106.815L259.477 101.794L259.681 100.933Z" fill="#123041"/>
<rect x="258.618" y="101.59" width="23.5806" height="1.47379" rx="0.589516" transform="rotate(13.3093 258.618 101.59)" fill="#123041"/>
</g>
<path d="M290.16 216.6C290.16 210.381 295.201 205.34 301.42 205.34H385.868C392.086 205.34 397.128 210.381 397.128 216.6V275.713H290.16V216.6Z" fill="#D69E84"/>
<path d="M169.12 160.299C169.12 154.08 174.161 149.039 180.379 149.039H264.827C271.046 149.039 276.087 154.08 276.087 160.299V275.711H169.12V160.299Z" fill="#FFC53D"/>
<path d="M48.0773 188.447C48.0773 182.229 53.1184 177.188 59.337 177.188H143.785C150.004 177.188 155.045 182.229 155.045 188.447V275.71H48.0773V188.447Z" fill="#B2B7BB"/>
<path d="M223.777 227.039V197.043L217.697 200.995L215.974 198.056L224.537 192.23H227.73V227.039H223.777Z" fill="#A66E1C"/>
<path d="M89.4567 241.117V237.824L102.175 226.981C107.09 222.775 109.116 219.431 109.116 215.985C109.116 211.729 105.569 209.246 101.871 209.246C97.8171 209.246 94.929 211.425 92.5475 214.668L89.7607 212.388C92.6489 208.284 96.5504 205.7 102.023 205.7C108.052 205.7 113.119 209.702 113.119 215.935C113.119 220.647 110.788 224.396 104.911 229.463L95.7903 237.368H113.474V241.117H89.4567Z" fill="#78848E"/>
<path d="M343.774 255.796C338.049 255.796 333.64 253.161 331.107 249.817L333.843 247.232C336.123 250.171 339.518 252.198 343.774 252.198C348.638 252.198 351.881 249.513 351.881 245.56C351.881 241.456 348.385 239.379 342.913 239.379H339.214V235.731L342.964 235.781C347.625 235.832 351.121 233.603 351.121 229.65C351.121 226.002 347.777 223.367 343.42 223.367C339.569 223.367 336.833 225.293 334.35 228.282L331.715 225.901C334.35 222.405 338.201 219.77 343.622 219.77C350.26 219.77 355.124 223.621 355.124 229.194C355.124 233.653 351.983 236.288 348.385 237.352C351.932 238.163 355.884 240.747 355.884 245.763C355.884 251.59 351.02 255.796 343.774 255.796Z" fill="#936651"/>
<g clip-path="url(#clip3_4086_1182)">
<ellipse cx="64.8692" cy="58.7365" rx="16.6785" ry="17.9732" transform="rotate(-28.6896 64.8692 58.7365)" fill="#5BB42B"/>
<ellipse cx="16.6785" cy="17.9732" rx="16.6785" ry="17.9732" transform="matrix(-0.877234 -0.480064 -0.480064 0.877234 160.592 50.5117)" fill="#5BB42B"/>
<path d="M148.954 129.306C139.172 133.845 122.858 126.286 115.923 121.939C115.548 121.093 114.974 118.919 115.676 116.989C116.554 114.576 142.197 111.556 148.204 111.929C154.211 112.302 161.182 123.633 148.954 129.306Z" fill="#5C9A15"/>
<path d="M125.094 176.14C128.087 174.917 131.001 158.613 130.41 150.496L101.665 155.084C101.074 161.671 101.035 175.105 102.453 176.14C104.225 177.434 121.353 177.669 125.094 176.14Z" fill="#5C9A15"/>
<path d="M127.341 158.082C136.287 152.132 124.194 115.021 115.455 110.347C106.717 105.673 92.5046 106.381 86.2629 110.347C80.0213 114.313 64.5971 151.991 73.5434 158.082C82.4897 164.172 118.394 164.031 127.341 158.082Z" fill="#5BB42B"/>
<path d="M76.2115 176.14C73.2189 174.917 70.3049 158.613 70.8956 150.496L99.6405 155.084C100.231 161.671 100.271 175.105 98.853 176.14C97.081 177.434 79.9522 177.669 76.2115 176.14Z" fill="#5BB42B"/>
<path d="M58.3024 140.152C58.1173 129.369 71.6399 117.519 78.4243 112.941C79.3494 112.941 81.5698 113.297 83.05 114.722C84.9003 116.502 77.2679 141.169 74.4924 146.509C71.717 151.85 58.5336 153.63 58.3024 140.152Z" fill="#5BB42B"/>
<path d="M123.392 143.571C123.392 156.219 113.865 159.257 102.112 159.257C90.3597 159.257 80.8323 156.219 80.8323 143.571C80.8323 126.943 90.3597 117.531 102.112 117.531C113.865 117.531 123.392 126.943 123.392 143.571Z" fill="#A1DC3C"/>
<path d="M102.767 152.58C102.853 152.58 102.938 152.564 103.018 152.532C103.097 152.499 103.169 152.452 103.23 152.392L106.129 149.476C106.236 149.352 106.292 149.192 106.285 149.029C106.279 148.866 106.211 148.711 106.095 148.596C105.979 148.481 105.823 148.413 105.659 148.407C105.495 148.4 105.335 148.456 105.211 148.562L102.305 151.446C102.244 151.506 102.195 151.578 102.162 151.657C102.129 151.736 102.112 151.82 102.112 151.906C102.112 151.991 102.129 152.076 102.162 152.155C102.195 152.234 102.244 152.306 102.305 152.366C102.364 152.431 102.435 152.483 102.514 152.52C102.594 152.557 102.68 152.577 102.767 152.58Z" fill="#5BB42B"/>
<path d="M105.636 152.58C105.721 152.58 105.805 152.564 105.884 152.532C105.963 152.5 106.034 152.452 106.095 152.392C106.155 152.332 106.203 152.261 106.236 152.182C106.269 152.103 106.286 152.019 106.286 151.933C106.286 151.848 106.269 151.764 106.236 151.685C106.203 151.606 106.155 151.534 106.095 151.474L103.218 148.597C103.158 148.537 103.086 148.489 103.008 148.456C102.929 148.423 102.844 148.406 102.759 148.406C102.674 148.406 102.589 148.423 102.51 148.456C102.432 148.489 102.36 148.537 102.3 148.597C102.18 148.719 102.112 148.882 102.112 149.053C102.112 149.224 102.18 149.388 102.3 149.509L105.183 152.392C105.304 152.512 105.466 152.579 105.636 152.58Z" fill="#5BB42B"/>
<path d="M155.104 87.6008C155.104 109.608 130.848 116.906 101.367 116.906C71.8859 116.906 47.4514 109.608 47.4514 87.6008C47.4514 55.9866 71.8859 42.4258 101.367 42.4258C130.848 42.4258 155.104 53.4831 155.104 87.6008Z" fill="#5BB42B"/>
<path d="M67.8972 58.6953V65.3714" stroke="#123041" stroke-width="6.25885" stroke-linecap="round"/>
<path d="M138.831 58.2773V64.9534" stroke="#123041" stroke-width="6.25885" stroke-linecap="round"/>
<path d="M58.7192 79.9805H65.8125" stroke="#A1DC3C" stroke-width="8.34513" stroke-linecap="round"/>
<path d="M135.911 79.9805H143.005" stroke="#A1DC3C" stroke-width="8.34513" stroke-linecap="round"/>
<path d="M111.292 73.3247C111.292 68.3114 111.292 65.7909 101.903 65.7909C92.5151 65.7909 92.5151 67.8635 92.5151 73.3247C92.5151 82.2726 96.7183 87.4883 101.903 87.4883C107.088 87.4883 111.292 81.6467 111.292 73.3247Z" fill="#D52C2F"/>
<path d="M101.905 87.4883C105.537 87.4882 108.684 84.6205 110.245 80.043C108.429 77.9228 105.746 76.0822 102.503 74.9453C98.9633 73.7044 95.4209 73.5328 92.5331 74.2539C92.8142 82.6326 96.9023 87.4883 101.905 87.4883Z" fill="#FF686B"/>
</g>
<g clip-path="url(#clip4_4086_1182)">
<path d="M146.37 83.1896C146.689 81.8012 148.073 80.934 149.461 81.2526L164.544 84.7132C165.932 85.0317 166.799 86.4154 166.481 87.8038L163.597 100.373C162.323 105.926 156.788 109.395 151.235 108.121C145.681 106.847 142.212 101.312 143.487 95.7586L146.37 83.1896Z" fill="#B2B7BB"/>
<path d="M155.081 106.358L148.294 104.801C148.294 104.801 149.076 107.194 148.896 108.585C148.66 110.42 146.448 112.845 146.448 112.845L153.235 114.402C153.235 114.402 152.302 111.255 152.889 109.501C153.334 108.171 155.081 106.358 155.081 106.358Z" fill="#B2B7BB"/>
<path d="M142.817 115.977C143.454 113.2 146.221 111.466 148.998 112.103L151.512 112.68C154.288 113.317 156.023 116.084 155.386 118.861L155.155 119.866C154.996 120.56 154.304 120.994 153.61 120.835L143.555 118.528C142.86 118.368 142.427 117.677 142.586 116.982L142.817 115.977Z" fill="#B2B7BB"/>
<path d="M168.573 89.0754C171.35 89.7125 173.084 92.48 172.447 95.2565L171.87 97.7703C170.915 101.935 166.764 104.537 162.599 103.581C161.21 103.263 160.343 101.879 160.662 100.491L162.392 92.9494C163.029 90.173 165.797 88.4384 168.573 89.0754ZM167.536 93.6006C166.425 93.3459 165.318 94.0398 165.063 95.1504L164.371 98.1677C164.243 98.7231 164.591 99.2772 165.146 99.4046C166.812 99.7867 168.472 98.7454 168.855 97.0794L169.086 96.0733C169.34 94.9626 168.646 93.8555 167.536 93.6006Z" fill="#B2B7BB"/>
<path d="M143.937 83.4246C141.16 82.7875 138.393 84.522 137.756 87.2986L137.179 89.8124C136.224 93.9774 138.825 98.1284 142.99 99.0841C144.378 99.4024 145.762 98.5352 146.081 97.147L147.811 89.6057C148.448 86.8291 146.714 84.0618 143.937 83.4246ZM142.899 87.9496C144.01 88.2044 144.703 89.3116 144.449 90.4223L143.756 93.4396C143.629 93.9949 143.076 94.3424 142.52 94.215C140.854 93.8327 139.813 92.1716 140.195 90.5054L140.426 89.4993C140.681 88.3889 141.788 87.6949 142.899 87.9496Z" fill="#B2B7BB"/>
<path d="M140.826 116.581C140.89 116.303 141.167 116.13 141.444 116.193L156.527 119.654C156.805 119.718 156.978 119.995 156.915 120.272L154.896 129.071L138.808 125.379L140.826 116.581Z" fill="#123041"/>
<rect x="142.432" y="118.805" width="12.3798" height="4.90033" rx="0.515824" transform="rotate(12.9224 142.432 118.805)" fill="#B2B7BB"/>
<path d="M138.189 125.768C138.252 125.491 138.529 125.317 138.807 125.381L154.895 129.072C155.173 129.136 155.346 129.413 155.283 129.69L155.11 130.445L138.016 126.523L138.189 125.768Z" fill="#123041"/>
<path d="M137.149 126.85C137.212 126.573 137.489 126.399 137.767 126.463L155.363 130.5C155.641 130.564 155.814 130.841 155.751 131.119L155.578 131.873L136.975 127.605L137.149 126.85Z" fill="#123041"/>
<rect x="136.22" y="127.434" width="20.633" height="1.28956" rx="0.515824" transform="rotate(12.9224 136.22 127.434)" fill="#123041"/>
</g>
<g clip-path="url(#clip5_4086_1182)">
<path d="M302.081 159.923C312.026 164.093 328.046 155.93 334.813 151.327C335.156 150.468 335.649 148.274 334.876 146.371C333.909 143.992 308.17 141.932 302.181 142.529C296.192 143.126 289.65 154.71 302.081 159.923Z" fill="#FFC532"/>
<path d="M324.157 205.527C321.164 204.303 318.25 187.999 318.841 179.883L347.586 184.47C348.177 191.058 348.216 204.492 346.798 205.527C345.026 206.821 327.898 207.056 324.157 205.527Z" fill="#FFC532"/>
<path d="M321.91 187.468C312.964 181.519 325.058 144.408 333.796 139.734C342.534 135.06 356.746 135.768 362.988 139.734C369.23 143.7 384.654 181.378 375.708 187.468C366.761 193.559 330.857 193.417 321.91 187.468Z" fill="#FFDB40"/>
<path d="M373.04 205.527C376.032 204.303 378.946 187.999 378.355 179.883L349.611 184.47C349.02 191.058 348.98 204.492 350.398 205.527C352.17 206.821 369.299 207.056 373.04 205.527Z" fill="#FFDB40"/>
<path d="M390.949 169.542C391.134 158.76 377.611 146.909 370.827 142.332C369.902 142.332 367.681 142.688 366.201 144.112C364.351 145.892 371.983 170.56 374.759 175.9C377.534 181.24 390.717 183.02 390.949 169.542Z" fill="#FFDB40"/>
<path d="M343.145 181.97C343.059 181.971 342.974 181.955 342.895 181.922C342.816 181.89 342.743 181.843 342.683 181.783L339.783 178.866C339.677 178.742 339.621 178.583 339.627 178.42C339.634 178.257 339.702 178.102 339.818 177.987C339.934 177.871 340.089 177.804 340.253 177.797C340.417 177.791 340.577 177.847 340.702 177.953L343.608 180.836C343.669 180.897 343.717 180.968 343.75 181.047C343.783 181.126 343.8 181.211 343.8 181.297C343.8 181.382 343.783 181.467 343.75 181.546C343.717 181.625 343.669 181.696 343.608 181.757C343.549 181.821 343.478 181.874 343.398 181.91C343.319 181.947 343.233 181.968 343.145 181.97Z" fill="#FFB132"/>
<path d="M340.277 181.97C340.192 181.971 340.108 181.955 340.029 181.922C339.95 181.89 339.878 181.843 339.818 181.783C339.757 181.723 339.709 181.651 339.676 181.573C339.644 181.494 339.627 181.409 339.627 181.324C339.627 181.239 339.644 181.154 339.676 181.075C339.709 180.997 339.757 180.925 339.818 180.865L342.694 177.988C342.755 177.928 342.826 177.879 342.905 177.847C342.984 177.814 343.068 177.797 343.153 177.797C343.239 177.797 343.323 177.814 343.402 177.847C343.481 177.879 343.552 177.928 343.612 177.988C343.733 178.109 343.8 178.273 343.8 178.444C343.8 178.615 343.733 178.779 343.612 178.9L340.729 181.783C340.609 181.902 340.447 181.97 340.277 181.97Z" fill="#FFB132"/>
<path d="M296.416 117.504C296.416 139.281 320.296 146.502 349.32 146.502C378.343 146.502 402.399 139.281 402.399 117.504C402.399 80.3716 378.343 67.6406 349.32 67.6406C320.296 67.6406 296.416 78.6034 296.416 117.504Z" fill="#FFDB40"/>
<path d="M383.623 128.141H377.363" stroke="#FCA18E" stroke-width="8.34513" stroke-linecap="round"/>
<path d="M314.358 128.141H308.098" stroke="#FCA18E" stroke-width="8.34513" stroke-linecap="round"/>
<path d="M335.22 122.72C335.22 126.522 339.984 128.144 345.86 128.144C351.736 128.144 356.5 126.522 356.5 122.72C356.5 118.918 351.736 114.375 345.86 114.375C339.984 114.375 335.22 118.918 335.22 122.72Z" fill="#FFB132"/>
<path d="M341.588 53.1278C347.918 58.7408 351.554 65.0358 352.63 70.7652L341.491 69.5774C336.904 69.0883 332.51 63.6818 332.713 57.1194C332.916 50.557 338.369 50.2734 341.588 53.1278Z" fill="#FFDB40"/>
<path d="M353.212 61.9947C351.241 63.919 350.743 68.1125 350.74 69.9687C354.558 69.6158 360.964 68.4422 362.113 65.9975C363.261 63.5528 362.545 60.5133 361.146 59.7889C359.748 59.0644 355.675 59.5893 353.212 61.9947Z" fill="#FFDB40"/>
<path d="M324.567 120.711C324.567 120.711 323.357 119.323 320.634 119.323C317.912 119.323 316.702 120.711 316.702 120.711" stroke="#123041" stroke-width="4.93277" stroke-linecap="round"/>
<path d="M374.955 120.711C374.955 120.711 373.745 119.323 371.023 119.323C368.3 119.323 367.09 120.711 367.09 120.711" stroke="#123041" stroke-width="4.93277" stroke-linecap="round"/>
</g>
<g clip-path="url(#clip6_4086_1182)">
<path d="M286.857 120.93C286.641 119.728 287.439 118.579 288.641 118.362L301.695 116.013C302.897 115.796 304.046 116.595 304.263 117.797L306.221 128.675C307.086 133.482 303.891 138.079 299.084 138.945C294.278 139.81 289.68 136.615 288.815 131.808L286.857 120.93Z" fill="#D69E84"/>
<path d="M301.521 136.259L295.647 137.316C295.647 137.316 297.069 138.939 297.396 140.096C297.827 141.622 296.9 144.279 296.9 144.279L302.775 143.221C302.775 143.221 300.98 141.055 300.852 139.474C300.754 138.276 301.521 136.259 301.521 136.259Z" fill="#D69E84"/>
<path d="M295.095 147.973C294.662 145.569 296.26 143.27 298.663 142.838L300.839 142.446C303.242 142.014 305.541 143.611 305.973 146.014L306.13 146.885C306.238 147.486 305.839 148.06 305.238 148.168L296.535 149.735C295.934 149.843 295.36 149.444 295.252 148.843L295.095 147.973Z" fill="#D69E84"/>
<path d="M306.338 118.096C308.741 117.663 311.039 119.261 311.472 121.664L311.863 123.839C312.512 127.444 310.116 130.892 306.511 131.541C305.31 131.757 304.16 130.959 303.944 129.758L302.769 123.23C302.337 120.827 303.935 118.528 306.338 118.096ZM307.043 122.014C306.082 122.187 305.443 123.107 305.616 124.068L306.086 126.679C306.172 127.16 306.632 127.479 307.113 127.392C308.555 127.133 309.514 125.753 309.254 124.311L309.098 123.441C308.925 122.48 308.004 121.841 307.043 122.014Z" fill="#D69E84"/>
<path d="M285.016 121.936C282.613 122.368 281.016 124.667 281.448 127.07L281.84 129.246C282.489 132.851 285.937 135.247 289.542 134.598C290.743 134.382 291.542 133.232 291.326 132.03L290.151 125.503C289.719 123.1 287.419 121.503 285.016 121.936ZM285.722 125.851C286.683 125.678 287.603 126.318 287.776 127.279L288.246 129.89C288.332 130.37 288.013 130.831 287.532 130.917C286.09 131.177 284.711 130.218 284.451 128.776L284.295 127.906C284.122 126.945 284.761 126.024 285.722 125.851Z" fill="#D69E84"/>
<path d="M293.73 149.119C293.686 148.878 293.846 148.649 294.086 148.605L307.141 146.256C307.381 146.212 307.611 146.372 307.654 146.612L309.025 154.227L295.1 156.734L293.73 149.119Z" fill="#123041"/>
<rect x="295.743" y="150.328" width="10.6113" height="4.20029" rx="0.442136" transform="rotate(-10.2037 295.743 150.328)" fill="#D69E84"/>
<path d="M294.74 157.244C294.697 157.003 294.857 156.774 295.097 156.73L309.022 154.224C309.262 154.181 309.492 154.34 309.535 154.581L309.653 155.233L294.858 157.896L294.74 157.244Z" fill="#123041"/>
<path d="M294.285 158.455C294.242 158.214 294.401 157.984 294.642 157.941L309.872 155.2C310.112 155.157 310.342 155.316 310.385 155.557L310.503 156.209L294.402 159.107L294.285 158.455Z" fill="#123041"/>
<rect x="293.751" y="159.223" width="17.6854" height="1.10534" rx="0.442136" transform="rotate(-10.2037 293.751 159.223)" fill="#123041"/>
</g>
</g>
<defs>
<clipPath id="clip0_4086_1182">
<rect width="419.296" height="275.8" fill="white" transform="translate(17.2988)"/>
</clipPath>
<clipPath id="clip1_4086_1182">
<rect width="131.436" height="148.961" fill="white" transform="translate(157.197)"/>
</clipPath>
<clipPath id="clip2_4086_1182">
<rect width="42.2241" height="59.9582" fill="white" transform="translate(262.766 43.6289) rotate(13.3093)"/>
</clipPath>
<clipPath id="clip3_4086_1182">
<rect width="117.249" height="145.623" fill="white" transform="translate(43.2817 31.5742)"/>
</clipPath>
<clipPath id="clip4_4086_1182">
<rect width="41.3796" height="56.0173" fill="white" transform="translate(138.284 74.6445) rotate(12.9224)"/>
</clipPath>
<clipPath id="clip5_4086_1182">
<rect width="126.846" height="161.896" fill="white" transform="translate(283.714 43.5664)"/>
</clipPath>
<clipPath id="clip6_4086_1182">
<rect width="36.8757" height="46.165" fill="white" transform="translate(276.71 118.223) rotate(-10.2037)"/>
</clipPath>
</defs>
</svg>
