<svg width="24" height="25" viewBox="0 0 24 25" fill="none" xmlns="http://www.w3.org/2000/svg">
<path fill-rule="evenodd" clip-rule="evenodd" d="M20 12.5C20 16.9183 16.4183 20.5 12 20.5C7.58172 20.5 4 16.9183 4 12.5C4 8.08172 7.58172 4.5 12 4.5C16.4183 4.5 20 8.08172 20 12.5ZM22 12.5C22 18.0228 17.5228 22.5 12 22.5C6.47715 22.5 2 18.0228 2 12.5C2 6.97715 6.47715 2.5 12 2.5C17.5228 2.5 22 6.97715 22 12.5ZM14 15.5C14 16.0523 14.4477 16.5 15 16.5C15.5523 16.5 16 16.0523 16 15.5L16 9.5C16 8.94772 15.5523 8.5 15 8.5L8.99999 8.5C8.44771 8.5 7.99999 8.94772 7.99999 9.5C7.99999 10.0523 8.44771 10.5 8.99999 10.5L12.5858 10.5L8.29289 14.7929C7.90236 15.1834 7.90236 15.8166 8.29289 16.2071C8.68341 16.5976 9.31658 16.5976 9.7071 16.2071L14 11.9142V15.5Z" fill="#FCFCFC"/>
</svg>
