<svg width="1440" height="222" viewBox="0 0 1440 222" fill="none" xmlns="http://www.w3.org/2000/svg">
<g clip-path="url(#clip0_1948_256)">
<path fill-rule="evenodd" clip-rule="evenodd" d="M1254 68.5C1254 53.8645 1265.86 42 1280.5 42H1359.5C1374.69 42 1387 54.3122 1387 69.5V69.5C1387 84.6878 1399.31 97 1414.5 97H1509C1531.09 97 1549 114.909 1549 137V201C1549 223.091 1531.09 241 1509 241H1429C1406.91 241 1389 258.909 1389 281V329.5C1389 336.956 1382.96 343 1375.5 343V343C1368.04 343 1362 336.956 1362 329.5V319C1362 305.745 1351.25 295 1338 295H1271.5C1261.84 295 1254 287.165 1254 277.5V277.5C1254 267.835 1246.16 260 1236.5 260H1197C1174.91 260 1157 277.909 1157 300V350.5C1157 357.404 1151.4 363 1144.5 363V363C1137.6 363 1132 357.404 1132 350.5V321C1132 298.909 1114.09 281 1092 281H975.5C966.94 281 960 287.94 960 296.5V296.5C960 305.06 953.06 312 944.5 312H685C675.059 312 667 320.059 667 330V335.5C667 342.404 661.404 348 654.5 348V348C647.596 348 642 342.404 642 335.5V321.5C642 306.864 630.136 295 615.5 295H535C516.775 295 502 309.775 502 328V348.5C502 355.404 496.404 361 489.5 361V361C482.596 361 477 355.404 477 348.5V314.5C477 294.894 461.106 279 441.5 279H425C414.507 279 406 287.507 406 298V298C406 308.493 397.493 317 387 317H253.5C242.178 317 233 307.822 233 296.5V296.5C233 285.178 223.822 276 212.5 276H125C102.909 276 85 293.909 85 316V350.5C85 357.404 79.4036 363 72.5 363V363C65.5964 363 60 357.404 60 350.5V295C60 272.909 42.0914 255 20 255H6C-16.0914 255 -34 237.091 -34 215V107C-34 84.9086 -16.0914 67 6 67H102.5C121.554 67 137 82.4462 137 101.5V101.5C137 120.554 152.446 136 171.5 136H211C223.15 136 233 126.15 233 114V114C233 101.85 242.85 92 255 92H370C389.882 92 406 108.118 406 128V128C406 147.882 422.118 164 442 164H483C496.807 164 508 175.193 508 189V189C508 202.807 519.193 214 533 214H648H658H891C913.091 214 931 196.091 931 174V174C931 151.909 948.909 134 971 134H1005.5C1016.27 134 1025 125.27 1025 114.5V114.5C1025 103.73 1033.73 95 1044.5 95H1227.5C1242.14 95 1254 83.1355 1254 68.5V68.5Z" fill="#AFD157"/>
<path d="M1078 30H1088C1110.09 30 1128 47.9086 1128 70V80H1118C1095.91 80 1078 62.0914 1078 40V30Z" fill="#AFD157"/>
<path d="M1178 30H1168C1145.91 30 1128 47.9086 1128 70V80H1138C1160.09 80 1178 62.0914 1178 40V30Z" fill="#AFD157"/>
<path d="M960 161H970C992.091 161 1010 178.909 1010 201V211H1000C977.909 211 960 193.091 960 171V161Z" fill="#7BAD34"/>
<path d="M1060 161H1050C1027.91 161 1010 178.909 1010 201V211H1020C1042.09 211 1060 193.091 1060 171V161Z" fill="#7BAD34"/>
<path d="M1372 114H1382C1404.09 114 1422 131.909 1422 154V164H1412C1389.91 164 1372 146.091 1372 124V114Z" fill="#7BAD34"/>
<path d="M64 181H54C31.9086 181 14 198.909 14 221V231H24C46.0914 231 64 213.091 64 191V181Z" fill="#7BAD34"/>
<path d="M37 0H47C69.0914 0 87 17.9086 87 40V50H77C54.9086 50 37 32.0914 37 10V0Z" fill="#7BAD34"/>
<path d="M137 0H127C104.909 0 87 17.9086 87 40V50H97C119.091 50 137 32.0914 137 10V0Z" fill="#7BAD34"/>
<path d="M955 65H965C987.091 65 1005 82.9086 1005 105V115H995C972.909 115 955 97.0914 955 75V65Z" fill="#AFD157"/>
<path fill-rule="evenodd" clip-rule="evenodd" d="M218.085 111.582C212.241 105.738 202.766 105.738 196.921 111.582C192.297 116.207 191.332 123.105 194.026 128.679C194.128 128.89 193.89 129.128 193.679 129.026C188.106 126.332 181.207 127.297 176.583 131.922C170.739 137.766 170.739 147.241 176.583 153.086C181.207 157.71 188.105 158.675 193.679 155.981C193.89 155.879 194.128 156.118 194.026 156.328C191.332 161.902 192.297 168.8 196.921 173.425C202.766 179.269 212.241 179.269 218.085 173.425C222.71 168.8 223.675 161.902 220.981 156.328C220.879 156.118 221.117 155.879 221.328 155.981C226.901 158.675 233.799 157.71 238.424 153.086C244.268 147.241 244.268 137.766 238.424 131.922C233.799 127.297 226.901 126.332 221.328 129.026C221.117 129.128 220.879 128.89 220.981 128.679C223.675 123.105 222.71 116.207 218.085 111.582Z" fill="#FF686B"/>
<circle cx="207.501" cy="142.778" r="6.21932" transform="rotate(45 207.501 142.778)" fill="#E23636"/>
<path fill-rule="evenodd" clip-rule="evenodd" d="M1192.09 125.582C1186.24 119.738 1176.77 119.738 1170.92 125.582C1166.3 130.207 1165.33 137.105 1168.03 142.679C1168.13 142.89 1167.89 143.128 1167.68 143.026C1162.11 140.332 1155.21 141.297 1150.58 145.922C1144.74 151.766 1144.74 161.241 1150.58 167.086C1155.21 171.71 1162.11 172.675 1167.68 169.981C1167.89 169.879 1168.13 170.118 1168.03 170.328C1165.33 175.902 1166.3 182.8 1170.92 187.425C1176.77 193.269 1186.24 193.269 1192.09 187.425C1196.71 182.8 1197.68 175.902 1194.98 170.328C1194.88 170.118 1195.12 169.879 1195.33 169.981C1200.9 172.675 1207.8 171.71 1212.42 167.086C1218.27 161.241 1218.27 151.766 1212.42 145.922C1207.8 141.297 1200.9 140.332 1195.33 143.026C1195.12 143.128 1194.88 142.89 1194.98 142.679C1197.68 137.105 1196.71 130.207 1192.09 125.582Z" fill="#FFC53D"/>
<circle cx="1181.5" cy="156.778" r="6.21932" transform="rotate(45 1181.5 156.778)" fill="#E98B2D"/>
</g>
<defs>
<clipPath id="clip0_1948_256">
<rect width="1440" height="222" fill="white"/>
</clipPath>
</defs>
</svg>
