<svg width="1440" height="719" viewBox="0 0 1440 719" fill="none" xmlns="http://www.w3.org/2000/svg">
<g clip-path="url(#clip0_1966_1671)">
<path fill-rule="evenodd" clip-rule="evenodd" d="M1254 565.5C1254 550.864 1265.86 539 1280.5 539H1359.5C1374.69 539 1387 551.312 1387 566.5C1387 581.688 1399.31 594 1414.5 594H1509C1531.09 594 1549 611.909 1549 634V698C1549 720.091 1531.09 738 1509 738H1429C1406.91 738 1389 755.909 1389 778V826.5C1389 833.956 1382.96 840 1375.5 840C1368.04 840 1362 833.956 1362 826.5V816C1362 802.745 1351.25 792 1338 792H1271.5C1261.83 792 1254 784.165 1254 774.5C1254 764.835 1246.17 757 1236.5 757H1197C1174.91 757 1157 774.909 1157 797V847.5C1157 854.404 1151.4 860 1144.5 860C1137.6 860 1132 854.404 1132 847.5V818C1132 795.909 1114.09 778 1092 778H975.5C966.94 778 960 784.94 960 793.5C960 802.06 953.06 809 944.5 809H685C675.059 809 667 817.059 667 827V832.5C667 839.404 661.404 845 654.5 845C647.596 845 642 839.404 642 832.5V818.5C642 803.864 630.136 792 615.5 792H535C516.775 792 502 806.775 502 825V845.5C502 852.404 496.404 858 489.5 858C482.596 858 477 852.404 477 845.5V811.5C477 791.894 461.106 776 441.5 776H425C414.507 776 406 784.507 406 795C406 805.493 397.493 814 387 814H253.5C242.178 814 233 804.822 233 793.5C233 782.178 223.822 773 212.5 773H125C102.909 773 85 790.909 85 813V847.5C85 854.404 79.4036 860 72.5 860C65.5964 860 60 854.404 60 847.5V792C60 769.909 42.0914 752 20 752H6C-16.0914 752 -34 734.091 -34 712V604C-34 581.909 -16.0914 564 6 564H102.5C121.554 564 137 579.446 137 598.5C137 617.554 152.446 633 171.5 633H211C223.15 633 233 623.15 233 611C233 598.85 242.85 589 255 589H370C389.882 589 406 605.118 406 625C406 644.882 422.118 661 442 661H483C496.807 661 508 672.193 508 686C508 699.807 519.193 711 533 711H648H658H891C913.091 711 931 693.091 931 671C931 648.909 948.909 631 971 631H1005.5C1016.27 631 1025 622.27 1025 611.5C1025 600.73 1033.73 592 1044.5 592H1227.5C1242.14 592 1254 580.136 1254 565.5Z" fill="#AFD157"/>
<path d="M1078 527H1088C1110.09 527 1128 544.909 1128 567V577H1118C1095.91 577 1078 559.091 1078 537V527Z" fill="#AFD157"/>
<path d="M1178 527H1168C1145.91 527 1128 544.909 1128 567V577H1138C1160.09 577 1178 559.091 1178 537V527Z" fill="#AFD157"/>
<path d="M960 658H970C992.091 658 1010 675.909 1010 698V708H1000C977.909 708 960 690.091 960 668V658Z" fill="#7BAD34"/>
<path d="M1060 658H1050C1027.91 658 1010 675.909 1010 698V708H1020C1042.09 708 1060 690.091 1060 668V658Z" fill="#7BAD34"/>
<path d="M1372 611H1382C1404.09 611 1422 628.909 1422 651V661H1412C1389.91 661 1372 643.091 1372 621V611Z" fill="#7BAD34"/>
<path d="M64 678H54C31.9086 678 14 695.909 14 718V728H24C46.0914 728 64 710.091 64 688V678Z" fill="#7BAD34"/>
<path d="M37 497H47C69.0914 497 87 514.909 87 537V547H77C54.9086 547 37 529.091 37 507V497Z" fill="#7BAD34"/>
<path d="M137 497H127C104.909 497 87 514.909 87 537V547H97C119.091 547 137 529.091 137 507V497Z" fill="#7BAD34"/>
<path d="M955 562H965C987.091 562 1005 579.909 1005 602V612H995C972.909 612 955 594.091 955 572V562Z" fill="#AFD157"/>
<path fill-rule="evenodd" clip-rule="evenodd" d="M218.085 608.582C212.241 602.738 202.766 602.738 196.921 608.582C192.297 613.207 191.332 620.105 194.026 625.679C194.128 625.89 193.89 626.128 193.679 626.026C188.106 623.332 181.207 624.297 176.583 628.922C170.739 634.766 170.739 644.241 176.583 650.086C181.207 654.71 188.105 655.675 193.679 652.981C193.89 652.879 194.128 653.118 194.026 653.328C191.332 658.902 192.297 665.8 196.921 670.425C202.766 676.269 212.241 676.269 218.085 670.425C222.71 665.8 223.675 658.902 220.981 653.328C220.879 653.118 221.117 652.879 221.328 652.981C226.901 655.675 233.799 654.71 238.424 650.086C244.268 644.241 244.268 634.766 238.424 628.922C233.799 624.297 226.901 623.332 221.328 626.026C221.117 626.128 220.879 625.89 220.981 625.679C223.675 620.105 222.71 613.207 218.085 608.582Z" fill="#FF686B"/>
<circle cx="207.501" cy="639.778" r="6.21932" transform="rotate(45 207.501 639.778)" fill="#E23636"/>
<path fill-rule="evenodd" clip-rule="evenodd" d="M1192.09 622.582C1186.24 616.738 1176.77 616.738 1170.92 622.582C1166.3 627.207 1165.33 634.105 1168.03 639.679C1168.13 639.89 1167.89 640.128 1167.68 640.026C1162.11 637.332 1155.21 638.297 1150.58 642.922C1144.74 648.766 1144.74 658.241 1150.58 664.086C1155.21 668.71 1162.11 669.675 1167.68 666.981C1167.89 666.879 1168.13 667.118 1168.03 667.328C1165.33 672.902 1166.3 679.8 1170.92 684.425C1176.77 690.269 1186.24 690.269 1192.09 684.425C1196.71 679.8 1197.68 672.902 1194.98 667.328C1194.88 667.118 1195.12 666.879 1195.33 666.981C1200.9 669.675 1207.8 668.71 1212.42 664.086C1218.27 658.241 1218.27 648.766 1212.42 642.922C1207.8 638.297 1200.9 637.332 1195.33 640.026C1195.12 640.128 1194.88 639.89 1194.98 639.679C1197.68 634.105 1196.71 627.207 1192.09 622.582Z" fill="#FFC53D"/>
<circle cx="1181.5" cy="653.778" r="6.21932" transform="rotate(45 1181.5 653.778)" fill="#E98B2D"/>
</g>
<g clip-path="url(#clip1_1966_1671)">
<g clip-path="url(#clip2_1966_1671)">
<path d="M1294.56 484.871C1281.16 471.832 1279.55 444.4 1280.41 432.314C1281.3 431.431 1283.85 429.748 1287.01 430.081C1290.96 430.496 1313.91 468.015 1317.8 477.209C1321.7 486.404 1311.3 501.169 1294.56 484.871Z" fill="#EFEFEF"/>
<path d="M1355.36 512.282C1350.19 514.451 1326.63 498.039 1317.41 487.367L1358.26 457.759C1367.06 465.109 1383.58 481.525 1383.11 484.531C1382.52 488.289 1361.82 509.572 1355.36 512.282Z" fill="#EFEFEF"/>
<path d="M1330.47 492.904C1312.22 496.578 1281.55 436.27 1286.53 419.831C1291.51 403.392 1309.8 386.84 1322.31 384.051C1334.82 381.262 1399.91 408.537 1396.41 426.967C1392.91 445.397 1348.73 489.231 1330.47 492.904Z" fill="white"/>
<path d="M1415.27 452.371C1417.44 447.204 1401.03 423.65 1390.36 414.425L1360.75 455.28C1368.1 464.077 1384.52 480.591 1387.52 480.122C1391.28 479.536 1412.56 458.831 1415.27 452.371Z" fill="white"/>
<path d="M1393.11 386.314C1380.13 372.871 1349.03 374.921 1335.1 377.626C1333.97 378.76 1331.68 381.917 1331.61 385.477C1331.53 389.927 1371.12 410.806 1381.06 413.949C1391.01 417.093 1409.35 403.116 1393.11 386.314Z" fill="white"/>
<path d="M1319.83 472.589C1333.47 486.231 1348.43 477.83 1362.83 463.426C1377.24 449.021 1385.64 434.067 1372 420.425C1354.06 402.491 1332.23 404.017 1317.83 418.421C1303.42 432.826 1301.9 454.655 1319.83 472.589Z" fill="#F4F4F4"/>
<path d="M1353.85 456.046C1353.74 456.152 1353.62 456.236 1353.48 456.294C1353.35 456.352 1353.2 456.382 1353.05 456.383L1345.93 456.362C1345.64 456.341 1345.38 456.214 1345.19 456.006C1344.99 455.799 1344.89 455.526 1344.89 455.242C1344.89 454.959 1345 454.685 1345.19 454.477C1345.38 454.268 1345.65 454.14 1345.93 454.117L1353.03 454.09C1353.17 454.089 1353.32 454.117 1353.46 454.174C1353.6 454.23 1353.72 454.313 1353.83 454.418C1353.93 454.523 1354.01 454.647 1354.07 454.784C1354.13 454.922 1354.15 455.069 1354.15 455.218C1354.16 455.369 1354.14 455.52 1354.08 455.663C1354.03 455.805 1353.95 455.936 1353.85 456.046Z" fill="#FFD2D2"/>
<path d="M1350.33 459.561C1350.23 459.666 1350.11 459.749 1349.97 459.806C1349.83 459.863 1349.69 459.893 1349.54 459.894C1349.39 459.894 1349.25 459.866 1349.11 459.809C1348.97 459.753 1348.85 459.67 1348.74 459.565C1348.64 459.461 1348.56 459.337 1348.5 459.2C1348.44 459.063 1348.42 458.917 1348.42 458.769L1348.42 451.719C1348.42 451.571 1348.44 451.424 1348.5 451.288C1348.56 451.151 1348.64 451.027 1348.74 450.922C1348.85 450.818 1348.97 450.735 1349.11 450.678C1349.25 450.622 1349.39 450.593 1349.54 450.594C1349.84 450.595 1350.12 450.713 1350.33 450.922C1350.54 451.131 1350.66 451.415 1350.66 451.711L1350.66 458.777C1350.66 459.071 1350.54 459.352 1350.33 459.561Z" fill="#FFD2D2"/>
<path d="M1244.98 257.001C1254.15 274.354 1262.6 317.837 1269.75 332.399L1234.72 367.431C1220.16 360.279 1178.03 350.482 1159.58 342.407C1136.7 332.391 1122.01 304.324 1140.08 286.257C1154.99 271.34 1186.62 288.985 1201.77 300.215C1190.54 285.062 1173.41 252.929 1187.81 238.523C1205.88 220.456 1233.31 234.919 1244.98 257.001Z" fill="white"/>
<path d="M1214.27 438.624C1240.96 465.315 1279.08 444.897 1314.65 409.324C1350.23 373.751 1369.35 344.503 1321.98 297.131C1302.18 277.335 1297.12 272.179 1278.22 272.179C1272.08 272.179 1257.97 276.88 1254 285.559C1251.83 293.876 1232.81 297.854 1218 312.667C1182.42 348.24 1166.59 390.945 1214.27 438.624Z" fill="white"/>
<path d="M1295.33 341.709L1303.51 349.892" stroke="black" stroke-width="10.8487" stroke-linecap="round"/>
<path d="M1233.45 403.592L1241.63 411.775" stroke="black" stroke-width="10.8487" stroke-linecap="round"/>
<path d="M1320.32 343.76L1312.65 351.431" stroke="white" stroke-width="21.6974" stroke-linecap="round"/>
<path d="M1305.61 343.035C1304.51 343.814 1302.23 346.21 1301.88 349.566C1301.53 352.921 1302.67 355.843 1303.29 356.884" stroke="black" stroke-width="3.61623" stroke-linecap="round"/>
<path d="M1320.32 343.76L1312.65 351.431" stroke="#FFD2D2" stroke-width="14.4649" stroke-linecap="round"/>
<path d="M1245.72 431.207L1238.05 438.878" stroke="#FFD2D2" stroke-width="14.4649" stroke-linecap="round"/>
<path d="M1277.15 402.291C1281.76 406.899 1284.08 409.216 1292.51 400.778C1300.95 392.34 1299.05 390.435 1294.03 385.414C1289.01 380.394 1277.23 376.173 1272.57 380.833C1267.91 385.493 1272.54 397.682 1277.15 402.291Z" fill="#FFD2D2"/>
<path fill-rule="evenodd" clip-rule="evenodd" d="M1286.93 380.809C1281.68 378.532 1275.61 377.792 1272.57 380.833C1269.57 383.832 1270.42 389.949 1272.63 395.158C1275.6 394.079 1278.61 392.175 1281.26 389.526C1283.94 386.851 1285.85 383.806 1286.93 380.809Z" fill="#EFEFEF"/>
<path d="M1267.5 371.583C1266.5 372.587 1266.46 373.465 1266.25 374.511C1265.2 374.72 1264.32 374.762 1263.32 375.766C1262.07 377.02 1262.65 379.064 1263.74 379.531C1265.2 380.158 1267.78 379.671 1270.01 378.277C1271.41 376.046 1271.9 373.467 1271.27 372.002C1270.8 370.915 1268.76 370.328 1267.5 371.583Z" fill="#FFD2D2"/>
</g>
<g clip-path="url(#clip3_1966_1671)">
<path d="M1320.85 372.283C1337.9 379.937 1366.01 366.481 1377.94 358.796C1378.57 357.322 1379.52 353.541 1378.26 350.211C1376.69 346.048 1332.17 341.371 1321.77 342.148C1311.37 342.925 1299.53 362.714 1320.85 372.283Z" fill="#FFC532"/>
<path d="M1402.74 452.198C1397.14 451.98 1382.73 427.151 1378.88 413.581L1428.42 404.012C1433.28 414.392 1441.31 436.249 1439.62 438.775C1437.5 441.933 1409.74 452.471 1402.74 452.198Z" fill="#FFC532"/>
<path d="M1388.37 424.117C1370.27 419.731 1367.97 352.114 1379.43 339.321C1390.89 326.527 1414.46 319.255 1426.98 322.014C1439.5 324.774 1486.96 376.999 1476 392.224C1465.04 407.448 1406.47 428.503 1388.37 424.117Z" fill="#FFDB40"/>
<path d="M1482.36 423.219C1486.51 419.452 1481.59 391.169 1475.81 378.299L1431.71 402.812C1434.66 413.892 1442.56 435.796 1445.48 436.642C1449.13 437.699 1477.17 427.928 1482.36 423.219Z" fill="#FFDB40"/>
<path d="M1490.19 353.985C1484.1 336.313 1455.05 325.027 1441.28 321.594C1439.78 322.142 1436.37 324.038 1434.8 327.235C1432.85 331.232 1459.9 366.885 1467.59 373.938C1475.28 380.991 1497.8 376.075 1490.19 353.985Z" fill="#FFDB40"/>
<path d="M1425.13 400.589C1424.99 400.641 1424.85 400.665 1424.7 400.659C1424.55 400.654 1424.4 400.619 1424.27 400.557L1417.82 397.527C1417.57 397.388 1417.39 397.162 1417.3 396.892C1417.21 396.623 1417.23 396.331 1417.35 396.074C1417.47 395.817 1417.69 395.615 1417.95 395.508C1418.21 395.4 1418.51 395.396 1418.77 395.495L1425.21 398.468C1425.35 398.53 1425.47 398.618 1425.57 398.727C1425.67 398.836 1425.75 398.964 1425.8 399.103C1425.85 399.243 1425.87 399.391 1425.87 399.539C1425.86 399.687 1425.82 399.832 1425.76 399.967C1425.7 400.107 1425.62 400.234 1425.51 400.341C1425.4 400.448 1425.27 400.533 1425.13 400.589Z" fill="#FFB132"/>
<path d="M1420.46 402.289C1420.32 402.34 1420.18 402.364 1420.03 402.358C1419.88 402.352 1419.74 402.318 1419.6 402.256C1419.47 402.194 1419.35 402.106 1419.25 401.997C1419.15 401.888 1419.07 401.761 1419.02 401.622C1418.97 401.483 1418.95 401.335 1418.95 401.187C1418.96 401.04 1419 400.895 1419.06 400.761L1422.04 394.371C1422.1 394.237 1422.19 394.116 1422.3 394.016C1422.41 393.916 1422.53 393.839 1422.67 393.788C1422.81 393.737 1422.96 393.715 1423.11 393.722C1423.26 393.728 1423.4 393.764 1423.53 393.827C1423.8 393.953 1424.01 394.18 1424.11 394.458C1424.21 394.736 1424.2 395.043 1424.07 395.312L1421.09 401.716C1420.96 401.981 1420.74 402.187 1420.46 402.289Z" fill="#FFB132"/>
<path d="M1304.39 325.627C1317.3 361.098 1360.48 358.703 1407.75 341.497C1455.02 324.29 1489.92 298.267 1477.01 262.797C1455 202.316 1408.27 195.841 1361 213.047C1313.72 230.253 1281.33 262.266 1304.39 325.627Z" fill="#FFDB40"/>
<path d="M1452.74 291.258L1442.55 294.968" stroke="#FCA18E" stroke-width="14.4649" stroke-linecap="round"/>
<path d="M1339.92 332.32L1329.73 336.03" stroke="#FCA18E" stroke-width="14.4649" stroke-linecap="round"/>
<path d="M1423.44 274.213L1427.4 285.087" stroke="#123041" stroke-width="10.8487" stroke-linecap="round"/>
<path d="M1341.21 304.143L1345.17 315.017" stroke="#123041" stroke-width="10.8487" stroke-linecap="round"/>
<path d="M1370.69 311.117C1372.94 317.31 1381.66 317.128 1391.23 313.644C1400.8 310.161 1407.6 304.695 1405.35 298.501C1403.09 292.308 1392.64 287.733 1383.07 291.216C1373.5 294.7 1368.43 304.924 1370.69 311.117Z" fill="#FFB132"/>
<path d="M1365.28 184.722C1358.29 197.617 1356.1 210.026 1357.75 219.996L1375.19 211.458C1382.37 207.942 1386.32 196.531 1382.1 185.963C1377.88 175.394 1368.83 178.165 1365.28 184.722Z" fill="#FFDB40"/>
<path d="M1351.6 206.056C1355.95 208.022 1359.25 214.557 1360.35 217.579C1353.92 219.267 1342.79 221.153 1339.47 217.852C1336.15 214.551 1335.52 209.176 1337.37 207.167C1339.21 205.158 1346.16 203.598 1351.6 206.056Z" fill="#FFDB40"/>
</g>
<g clip-path="url(#clip4_1966_1671)">
<ellipse cx="28.9079" cy="31.1552" rx="28.9079" ry="31.1552" transform="matrix(-1.00001 -0.00896163 -0.00896066 0.999906 1429.92 340.593)" fill="#5BB42B"/>
<ellipse cx="1289.64" cy="430.082" rx="28.9094" ry="31.1536" transform="matrix(0.546604 -0.837302 0.837481 0.546604 224.53 1274.81)" fill="#5BB42B"/>
<path d="M1346.07 560.856C1336.97 544.533 1347.93 515.359 1354.55 502.812C1355.96 502.055 1359.65 500.781 1363.07 501.746C1367.36 502.951 1375.89 546.888 1376.02 557.319C1376.15 567.751 1357.46 581.26 1346.07 560.856Z" fill="#4B9B3A"/>
<path d="M1404.8 600.161C1399.23 600.741 1381.43 578.214 1375.69 565.329L1423.37 548.813C1429.66 558.394 1440.72 578.888 1439.4 581.63C1437.75 585.057 1411.77 599.436 1404.8 600.161Z" fill="#4B9B3A"/>
<path d="M1386.59 574.408C1368.06 572.64 1356.16 506.039 1365.69 491.745C1375.21 477.451 1397.51 466.901 1410.29 467.852C1423.07 468.804 1477.48 513.749 1468.79 530.377C1460.11 547.006 1405.13 576.175 1386.59 574.408Z" fill="#5BB42B"/>
<path d="M1479.49 560.153C1483.06 555.834 1474.17 528.538 1466.63 516.62L1426.46 547.156C1430.95 557.704 1441.89 578.262 1444.9 578.684C1448.66 579.21 1475.03 565.551 1479.49 560.153Z" fill="#5BB42B"/>
<path d="M1477.4 490.51C1468.86 473.884 1438.5 466.845 1424.39 465.403C1422.97 466.161 1419.87 468.522 1418.78 471.909C1417.41 476.143 1449.26 507.587 1457.87 513.475C1466.48 519.363 1488.08 511.293 1477.4 490.51Z" fill="#5BB42B"/>
<path d="M1380.75 549.006C1391.1 568.332 1408.14 565.176 1426.1 555.557C1444.06 545.938 1456.13 533.499 1445.78 514.173C1432.17 488.767 1409.91 482.184 1391.95 491.803C1373.99 501.422 1367.14 523.6 1380.75 549.006Z" fill="#A1DC3C"/>
<path d="M1419.63 545.892C1419.5 545.963 1419.36 546.007 1419.21 546.023C1419.07 546.039 1418.92 546.025 1418.77 545.983L1411.96 543.901C1411.69 543.799 1411.48 543.601 1411.36 543.347C1411.23 543.092 1411.21 542.801 1411.29 542.529C1411.37 542.258 1411.56 542.028 1411.8 541.884C1412.05 541.74 1412.34 541.694 1412.61 541.754L1419.41 543.781C1419.56 543.823 1419.69 543.893 1419.8 543.987C1419.92 544.08 1420.01 544.196 1420.08 544.326C1420.15 544.457 1420.2 544.6 1420.21 544.748C1420.23 544.896 1420.21 545.045 1420.17 545.187C1420.13 545.334 1420.06 545.472 1419.97 545.593C1419.88 545.714 1419.77 545.816 1419.63 545.892Z" fill="#5BB42B"/>
<path d="M1415.25 548.239C1415.12 548.309 1414.98 548.353 1414.83 548.369C1414.69 548.384 1414.54 548.37 1414.4 548.328C1414.26 548.286 1414.12 548.216 1414.01 548.122C1413.9 548.029 1413.8 547.914 1413.73 547.783C1413.66 547.653 1413.62 547.51 1413.6 547.363C1413.59 547.216 1413.6 547.067 1413.65 546.926L1415.69 540.177C1415.73 540.036 1415.8 539.904 1415.89 539.789C1415.99 539.675 1416.1 539.58 1416.23 539.51C1416.36 539.44 1416.51 539.397 1416.65 539.382C1416.8 539.368 1416.95 539.383 1417.09 539.426C1417.37 539.513 1417.61 539.708 1417.75 539.969C1417.89 540.23 1417.92 540.535 1417.84 540.819L1415.79 547.582C1415.7 547.863 1415.51 548.099 1415.25 548.239Z" fill="#5BB42B"/>
<path d="M1286.48 489.443C1304.5 523.069 1347.53 514.367 1392.58 490.238C1437.62 466.109 1468.98 434.96 1450.97 401.334C1425.09 353.03 1376.66 352.308 1331.62 376.437C1286.57 400.566 1258.56 437.313 1286.48 489.443Z" fill="#5BB42B"/>
<path d="M1396.08 373.908L1401.54 384.109" stroke="black" stroke-width="10.8487" stroke-linecap="round"/>
<path d="M1287.35 431.324L1292.82 441.524" stroke="black" stroke-width="10.8487" stroke-linecap="round"/>
<path d="M1427.52 398.908L1416.68 404.713" stroke="#A1DC3C" stroke-width="14.4649" stroke-linecap="round"/>
<path d="M1309.57 462.087L1298.73 467.893" stroke="#A1DC3C" stroke-width="14.4649" stroke-linecap="round"/>
<path d="M1341.74 431.775C1337.64 424.115 1335.58 420.264 1349.92 412.58C1364.27 404.896 1365.96 408.063 1370.43 416.407C1377.76 430.079 1375.6 441.489 1367.68 445.732C1359.76 449.976 1348.56 444.49 1341.74 431.775Z" fill="#D52C2F"/>
<path fill-rule="evenodd" clip-rule="evenodd" d="M1371.17 417.831C1377.6 430.866 1375.33 441.635 1367.68 445.73C1362.13 448.703 1354.97 446.901 1348.84 441.182C1349.87 436.454 1352.47 431.444 1356.5 427.051C1360.89 422.258 1366.16 419.093 1371.17 417.831Z" fill="#FF686B"/>
</g>
<g clip-path="url(#clip5_1966_1671)">
<path d="M1400.35 469.619C1404.48 480.96 1408.46 479.588 1413.34 477.812C1418.22 476.036 1422.15 474.529 1418.02 463.188C1413.89 451.847 1405.13 444.624 1401.71 445.869C1398.29 447.114 1396.22 458.279 1400.35 469.619Z" fill="#6A5B3D"/>
<path d="M1293.65 508.452C1297.78 519.792 1301.76 518.42 1306.64 516.644C1311.52 514.868 1315.45 513.361 1311.32 502.02C1307.19 490.679 1298.43 483.457 1295.01 484.701C1291.59 485.946 1289.52 497.111 1293.65 508.452Z" fill="#6A5B3D"/>
<path d="M1429.75 456.559C1413.61 476.224 1422.18 479.981 1430.76 487.028C1439.35 494.076 1445.03 501.346 1460.84 482.081C1468.87 472.3 1468.42 458.659 1459.84 451.611C1451.25 444.564 1437.78 446.779 1429.75 456.559Z" fill="#123041"/>
<path d="M1278.46 511.626C1303.47 516.313 1299.32 524.697 1297.28 535.614C1295.23 546.531 1295.55 555.753 1271.05 551.16C1258.62 548.829 1250.19 538.089 1252.24 527.172C1254.29 516.255 1266.03 509.294 1278.46 511.626Z" fill="white"/>
<path d="M1277.16 523.851C1289.63 526.187 1287.76 529.312 1286.98 533.454C1286.21 537.596 1286.56 541.139 1274.35 538.85C1268.15 537.688 1263.76 533.388 1264.53 529.246C1265.31 525.104 1270.96 522.689 1277.16 523.851Z" fill="#FFC0C1"/>
<path d="M1439.22 464.867C1431.17 474.668 1434.62 475.86 1437.87 478.535C1441.13 481.209 1443.13 484.152 1451.02 474.551C1455.02 469.676 1455.62 463.557 1452.36 460.883C1449.11 458.209 1443.22 459.993 1439.22 464.867Z" fill="#FFC0C1"/>
<path d="M1294.67 585.269C1307.58 620.739 1350.76 618.345 1398.03 601.138C1445.31 583.932 1480.21 557.909 1467.3 522.438C1445.28 461.957 1398.55 455.482 1351.28 472.689C1304.01 489.895 1271.61 521.908 1294.67 585.269Z" fill="white"/>
<path fill-rule="evenodd" clip-rule="evenodd" d="M1349.93 473.185C1352.92 482.06 1357.4 490.61 1363.68 494.063C1371.51 498.362 1379.65 498.35 1386.92 498.339C1393.13 498.33 1398.71 498.322 1402.92 501.006C1405.16 502.433 1407.31 504.586 1409.63 506.917C1416.8 514.108 1425.67 523.002 1444.21 517.547C1450.33 515.743 1455.84 511.932 1460.65 507.162C1436.72 460.97 1394.22 457.058 1351.28 472.689C1350.83 472.853 1350.38 473.018 1349.93 473.185Z" fill="#123041"/>
<path d="M1420.09 532.306L1424.05 543.18" stroke="#123041" stroke-width="10.8487" stroke-linecap="round"/>
<path d="M1329.02 565.454L1332.98 576.328" stroke="#123041" stroke-width="10.8487" stroke-linecap="round"/>
<path d="M1415.7 562.535C1410.62 548.572 1395.18 541.373 1381.22 546.455L1368.58 551.056C1354.61 556.138 1347.41 571.577 1352.5 585.54C1355.88 594.849 1366.18 599.648 1375.48 596.26L1404.98 585.525C1414.29 582.136 1419.09 571.844 1415.7 562.535Z" fill="#FFC0C1"/>
<path d="M1395.08 562.962L1397.8 570.438" stroke="#123041" stroke-width="7.23246" stroke-linecap="round"/>
<path d="M1367.89 572.857L1370.61 580.333" stroke="#123041" stroke-width="7.23246" stroke-linecap="round"/>
<path d="M1450.13 551.39L1439.93 555.1" stroke="#FFC0C1" stroke-width="14.4649" stroke-linecap="round"/>
<path d="M1328.47 595.669L1318.28 599.379" stroke="#FFC0C1" stroke-width="14.4649" stroke-linecap="round"/>
<path d="M1386.35 660.052C1382.36 663.311 1372.17 669.266 1363.32 667.012C1354.47 664.759 1349.6 659.543 1348.27 657.216" stroke="#123041" stroke-width="5.78597"/>
<path d="M1353.23 655.574C1352.06 662.003 1344.93 665.676 1339.74 660.489C1333.49 654.232 1333.43 648.583 1334.36 647.652C1335.1 646.915 1336.77 649.479 1337.26 649.307C1337.75 649.136 1332.83 643.327 1336.14 641.971C1340.75 640.08 1354.65 647.778 1353.23 655.574Z" fill="#A8A8A8"/>
<path d="M1474.95 668.154C1473.54 661.833 1432.77 587.03 1425.81 584.981C1418.84 582.932 1365.64 604.202 1362.32 612.677C1359 621.151 1370.18 661.644 1406.34 690.213C1446.64 722.049 1476.36 674.475 1474.95 668.154Z" fill="white"/>
<path d="M1410.58 715.889C1406.78 711.771 1407.33 691.299 1397.2 682.258L1450.63 671.367C1456.15 681.415 1452.16 713.26 1450.63 715.889C1448.72 719.176 1414.92 720.59 1410.58 715.889Z" fill="white"/>
<path d="M1410.83 654.888C1419.4 672.171 1432.71 670.742 1446.58 663.859C1460.45 656.976 1469.64 647.245 1461.06 629.962C1449.79 607.242 1432.16 599.962 1418.29 606.845C1404.42 613.728 1399.55 632.169 1410.83 654.888Z" fill="#FFC0C1"/>
<path d="M1443.95 654.733C1443.83 654.808 1443.68 654.857 1443.54 654.877C1443.39 654.897 1443.24 654.889 1443.1 654.851L1436.22 652.987C1435.95 652.893 1435.73 652.702 1435.6 652.452C1435.47 652.202 1435.43 651.911 1435.51 651.637C1435.58 651.363 1435.76 651.127 1436 650.975C1436.24 650.824 1436.53 650.768 1436.81 650.82L1443.66 652.63C1443.81 652.667 1443.94 652.733 1444.06 652.823C1444.18 652.913 1444.28 653.025 1444.35 653.153C1444.43 653.282 1444.47 653.424 1444.49 653.571C1444.51 653.718 1444.5 653.868 1444.46 654.011C1444.43 654.159 1444.37 654.299 1444.28 654.423C1444.19 654.547 1444.08 654.652 1443.95 654.733Z" fill="#FF8D8D"/>
<path d="M1439.65 657.218C1439.52 657.292 1439.38 657.341 1439.24 657.361C1439.09 657.381 1438.94 657.372 1438.8 657.334C1438.65 657.296 1438.52 657.231 1438.4 657.141C1438.29 657.051 1438.19 656.939 1438.11 656.811C1438.04 656.683 1437.99 656.541 1437.97 656.395C1437.95 656.248 1437.96 656.099 1438 655.956L1439.83 649.146C1439.86 649.003 1439.93 648.869 1440.02 648.752C1440.11 648.634 1440.22 648.536 1440.35 648.462C1440.48 648.388 1440.62 648.34 1440.77 648.321C1440.91 648.302 1441.06 648.312 1441.2 648.351C1441.49 648.429 1441.73 648.616 1441.88 648.872C1442.03 649.129 1442.07 649.433 1441.99 649.719L1440.17 656.544C1440.09 656.828 1439.9 657.07 1439.65 657.218Z" fill="#FF8D8D"/>
</g>
<path d="M1459.81 595.149C1450.6 611.415 1419.97 617.215 1405.81 618.082C1404.43 617.268 1401.43 614.783 1400.47 611.354C1399.27 607.067 1432.38 576.944 1441.22 571.41C1450.07 565.877 1471.32 574.817 1459.81 595.149Z" fill="white"/>
</g>
<ellipse cx="1207.59" cy="141.333" rx="8.11115" ry="6.29313" transform="rotate(-14.1104 1207.59 141.333)" fill="white"/>
<ellipse cx="1228.75" cy="139.475" rx="8.11115" ry="6.29313" transform="rotate(-14.1104 1228.75 139.475)" fill="white"/>
<path d="M1235.33 138.11L1230.08 117.223L1208.67 118.132L1213.92 139.019" stroke="white" stroke-width="2.79695" stroke-linecap="round" stroke-linejoin="round"/>
<ellipse cx="1050.71" cy="267.893" rx="8.11115" ry="6.29313" fill="white"/>
<path d="M1057.41 267.191V245.655C1059.37 248.498 1064.07 254.213 1067.2 254.325" stroke="white" stroke-width="2.79695" stroke-linecap="round" stroke-linejoin="round"/>
<g clip-path="url(#clip6_1966_1671)">
<ellipse cx="1143.75" cy="31.7678" rx="8.11115" ry="6.29313" transform="rotate(18.0245 1143.75 31.7678)" fill="white"/>
<path d="M1150.35 33.1787L1157.01 12.6991C1157.99 16.0089 1160.69 22.8975 1163.64 23.9732" stroke="white" stroke-width="2.79695" stroke-linecap="round" stroke-linejoin="round"/>
</g>
<defs>
<clipPath id="clip0_1966_1671">
<rect width="1440" height="222" fill="white" transform="translate(0 497)"/>
</clipPath>
<clipPath id="clip1_1966_1671">
<rect width="361" height="673.491" fill="white" transform="translate(1079 45.5094)"/>
</clipPath>
<clipPath id="clip2_1966_1671">
<rect width="235.796" height="329.825" fill="white" transform="matrix(-0.707161 0.707053 0.707161 0.707053 1245.75 173.455)"/>
</clipPath>
<clipPath id="clip3_1966_1671">
<rect width="219.896" height="291.473" fill="white" transform="matrix(-0.939709 0.341974 0.342066 0.939676 1450.9 138.016)"/>
</clipPath>
<clipPath id="clip4_1966_1671">
<rect width="203.256" height="266.887" fill="white" transform="matrix(-0.88153 0.472127 0.472239 0.881471 1411.54 312.318)"/>
</clipPath>
<clipPath id="clip5_1966_1671">
<rect width="227.853" height="434.103" fill="white" transform="matrix(-0.939709 0.341974 0.342066 0.939676 1450.57 415.019)"/>
</clipPath>
<clipPath id="clip6_1966_1671">
<rect width="34.4025" height="37.4791" fill="white" transform="translate(1139.67) rotate(18.0245)"/>
</clipPath>
</defs>
</svg>
