<svg width="1999" height="741" viewBox="0 0 1999 741" fill="none" xmlns="http://www.w3.org/2000/svg">
<g opacity="0.3">
<circle cx="458.078" cy="246.596" r="246.596" fill="#EBF9FF"/>
<circle cx="228.352" cy="293.852" r="128.211" fill="#EBF9FF"/>
<ellipse cx="794.066" cy="278.884" rx="195.124" ry="192.784" fill="#EBF9FF"/>
<circle cx="1021.95" cy="364.983" r="128.211" fill="#EBF9FF"/>
<rect y="318.178" width="1270.88" height="206.822" rx="100" fill="#EBF9FF"/>
</g>
<g opacity="0.8">
<circle cx="597.28" cy="369.609" r="158.609" fill="#EBF9FF"/>
<circle cx="449.545" cy="399.999" r="82.4645" fill="#EBF9FF"/>
<ellipse cx="813.409" cy="390.375" rx="125.503" ry="123.998" fill="#EBF9FF"/>
<circle cx="959.984" cy="445.753" r="82.4645" fill="#EBF9FF"/>
<rect x="302.669" y="415.653" width="817.422" height="133.027" rx="66.5133" fill="#EBF9FF"/>
</g>
<g opacity="0.3">
<circle cx="458.078" cy="246.596" r="246.596" fill="#EBF9FF"/>
<circle cx="228.352" cy="293.852" r="128.211" fill="#EBF9FF"/>
<ellipse cx="794.066" cy="278.884" rx="195.124" ry="192.784" fill="#EBF9FF"/>
<circle cx="1021.95" cy="364.983" r="128.211" fill="#EBF9FF"/>
<rect y="318.178" width="1270.88" height="206.822" rx="100" fill="#EBF9FF"/>
</g>
<g opacity="0.5">
<circle cx="59.3923" cy="59.3923" r="59.3923" transform="matrix(-1 1.23066e-09 -8.1095e-09 1 1766.15 0)" fill="#EBF9FF"/>
<circle cx="30.8795" cy="30.8795" r="30.8795" transform="matrix(-1 1.23066e-09 -8.1095e-09 1 1792.97 39.8962)" fill="#EBF9FF"/>
<ellipse cx="46.9954" cy="46.4319" rx="46.9954" ry="46.4319" transform="matrix(-1 1.23066e-09 -8.1095e-09 1 1672.83 20.7366)" fill="#EBF9FF"/>
<circle cx="30.8795" cy="30.8795" r="30.8795" transform="matrix(-1 1.23066e-09 -8.1095e-09 1 1601.84 57.0249)" fill="#EBF9FF"/>
<rect width="306.09" height="49.8129" rx="24.9065" transform="matrix(-1 1.23066e-09 -8.1095e-09 1 1817.09 76.635)" fill="#EBF9FF"/>
</g>
<g opacity="0.3">
<circle cx="149.601" cy="149.601" r="149.601" transform="matrix(-1 -1.23066e-09 -6.67576e-09 1 1870.7 422)" fill="#EBF9FF"/>
<circle cx="77.7813" cy="77.7813" r="77.7813" transform="matrix(-1 -1.23066e-09 -6.67576e-09 1 1938.25 522.489)" fill="#EBF9FF"/>
<ellipse cx="118.375" cy="116.956" rx="118.375" ry="116.956" transform="matrix(-1 -1.23066e-09 -6.67576e-09 1 1635.64 474.234)" fill="#EBF9FF"/>
<circle cx="77.7813" cy="77.7813" r="77.7813" transform="matrix(-1 -1.23066e-09 -6.67576e-09 1 1456.8 565.641)" fill="#EBF9FF"/>
<rect width="771" height="125.472" rx="60.6666" transform="matrix(-1 -1.23066e-09 -6.67576e-09 1 1999 615.028)" fill="#EBF9FF"/>
</g>
</svg>
