<svg width="202" height="223" viewBox="0 0 202 223" fill="none" xmlns="http://www.w3.org/2000/svg">
<g clip-path="url(#clip0_1490_4734)">
<path d="M29.3285 28.2922C48.7278 39.7727 42.7348 45.4963 37.7227 53.9656C32.7106 62.4348 30.1836 70.2096 11.178 58.962C1.52985 53.2522 -2.22838 41.7579 2.78374 33.2886C7.79586 24.8194 19.6803 22.5824 29.3285 28.2922Z" fill="white"/>
<path d="M143.54 30.255C143.54 40.948 147.27 41.0114 151.871 41.0114C156.471 41.0114 160.201 40.948 160.201 30.255C160.201 19.562 155.095 10.8936 151.871 10.8936C148.646 10.8936 143.54 19.562 143.54 30.255Z" fill="#FFC145"/>
<path d="M42.9338 30.255C42.9338 40.948 46.6635 41.0114 51.2643 41.0114C55.8651 41.0114 59.5947 40.948 59.5947 30.255C59.5947 19.562 54.489 10.8936 51.2643 10.8936C48.0396 10.8936 42.9338 19.562 42.9338 30.255Z" fill="#FFC145"/>
<path d="M171.976 28.2922C152.576 39.7727 158.569 45.4963 163.582 53.9656C168.594 62.4348 171.121 70.2096 190.126 58.962C199.774 53.2522 203.533 41.7579 198.52 33.2886C193.508 24.8194 181.624 22.5824 171.976 28.2922Z" fill="black"/>
<path d="M176.763 38.0797C167.094 43.8017 169.598 45.8374 171.499 49.0508C173.401 52.2641 174.177 55.3222 183.649 49.7163C188.458 46.8705 190.815 41.9585 188.913 38.7452C187.011 35.5318 181.572 35.2338 176.763 38.0797Z" fill="#FFCACA"/>
<path d="M23.9651 38.0797C33.634 43.8017 31.1305 45.8374 29.2288 49.0508C27.3271 52.2641 26.5512 55.3222 17.0786 49.7163C12.2698 46.8705 9.9132 41.9585 11.8149 38.7452C13.7165 35.5318 19.1564 35.2338 23.9651 38.0797Z" fill="#FFCACA"/>
<path d="M180.953 122.244C173.531 137.05 146.695 143.554 134.204 144.955C132.945 144.297 130.177 142.232 129.176 139.241C127.924 135.501 155.866 107.363 163.444 102.07C171.021 96.7777 190.23 103.737 180.953 122.244Z" fill="#EFEFEF"/>
<path d="M138.462 227.139C143.058 225.26 147.533 200.221 146.626 187.756L102.481 194.801C101.574 204.918 101.513 225.549 103.69 227.139C106.412 229.126 132.717 229.487 138.462 227.139Z" fill="#EFEFEF"/>
<path d="M141.913 199.405C155.652 190.269 137.079 133.275 123.659 126.097C110.24 118.918 88.4127 120.006 78.827 126.097C69.2413 132.188 45.5535 190.051 59.2929 199.405C73.0323 208.759 128.173 208.542 141.913 199.405Z" fill="white"/>
<path fill-rule="evenodd" clip-rule="evenodd" d="M105.198 206.276C105.305 202.904 105.194 196.025 102.849 191.921C99.0941 185.353 86.8287 181.028 86.8287 181.028C81.9159 180.28 71.3212 176.734 68.2454 168.532C66.9364 165.041 63.9175 162.704 60.4284 161.178C54.9459 177.684 52.3742 194.695 59.2927 199.405C66.7745 204.498 86.5332 206.754 105.198 206.276Z" fill="black"/>
<path d="M63.3912 227.139C58.7953 225.26 54.3202 200.221 55.2274 187.756L99.3726 194.801C100.28 204.918 100.34 225.549 98.1631 227.139C95.4418 229.126 69.1361 229.487 63.3912 227.139Z" fill="black"/>
<path d="M137.132 178.731C137.132 195.825 122.5 199.931 104.451 199.931C86.4018 199.931 71.77 195.825 71.77 178.731C71.77 156.26 86.4018 143.54 104.451 143.54C122.5 143.54 137.132 156.26 137.132 178.731Z" fill="#FFD2D2"/>
<path d="M104.176 180.666C104.307 180.666 104.438 180.643 104.56 180.597C104.682 180.551 104.792 180.483 104.886 180.397L109.337 176.231C109.501 176.054 109.587 175.826 109.577 175.593C109.567 175.36 109.463 175.139 109.285 174.974C109.107 174.809 108.868 174.713 108.616 174.704C108.364 174.695 108.118 174.774 107.927 174.926L103.465 179.046C103.372 179.132 103.297 179.234 103.247 179.347C103.196 179.46 103.17 179.581 103.17 179.703C103.17 179.825 103.196 179.946 103.247 180.059C103.297 180.172 103.372 180.274 103.465 180.36C103.556 180.453 103.665 180.527 103.787 180.58C103.909 180.632 104.041 180.662 104.176 180.666Z" fill="#FF8D8D"/>
<path d="M108.579 180.666C108.71 180.666 108.84 180.643 108.96 180.597C109.081 180.551 109.191 180.483 109.284 180.398C109.377 180.312 109.451 180.21 109.501 180.097C109.552 179.985 109.578 179.864 109.578 179.742C109.578 179.62 109.552 179.499 109.501 179.387C109.451 179.274 109.377 179.172 109.284 179.086L104.868 174.976C104.775 174.89 104.665 174.821 104.545 174.774C104.424 174.727 104.294 174.703 104.163 174.703C104.032 174.703 103.902 174.727 103.781 174.774C103.66 174.821 103.55 174.89 103.458 174.976C103.273 175.149 103.17 175.383 103.17 175.627C103.17 175.871 103.273 176.106 103.458 176.279L107.885 180.398C108.07 180.568 108.319 180.665 108.579 180.666Z" fill="#FF8D8D"/>
<path d="M18.034 94.52C18.034 127.964 54.7077 139.054 99.2812 139.054C143.855 139.054 180.798 127.964 180.798 94.52C180.798 37.4941 143.855 17.9424 99.2812 17.9424C54.7077 17.9424 18.034 34.7786 18.034 94.52Z" fill="white"/>
<path fill-rule="evenodd" clip-rule="evenodd" d="M105.215 18.0366C105.589 28.7078 107.818 42.7039 114.81 48.3641C120.959 53.3418 128.055 54.6094 134.396 55.7422C139.816 56.7103 144.683 57.5798 147.937 60.5829C149.665 62.1785 151.198 64.3926 152.859 66.7909C157.863 74.0169 164.024 82.9143 180.173 81.6009C175.396 34.589 143.849 19.3452 105.215 18.0366Z" fill="black"/>
<path d="M67.7183 90.6562C67.7183 90.6562 65.7784 88.4311 61.4137 88.4311C57.049 88.4311 55.1092 90.6562 55.1092 90.6562" stroke="black" stroke-width="7.90808" stroke-linecap="round"/>
<path d="M156.149 90.6562C156.149 90.6562 154.21 88.4311 149.845 88.4311C145.48 88.4311 143.54 90.6562 143.54 90.6562" stroke="black" stroke-width="7.90808" stroke-linecap="round"/>
<path d="M75.6147 112.269C75.6147 99.1038 86.2873 88.4312 99.4527 88.4312H111.372C124.537 88.4312 135.21 99.1038 135.21 112.269C135.21 121.046 128.095 128.161 119.318 128.161H91.5067C82.7298 128.161 75.6147 121.046 75.6147 112.269Z" fill="#FFCACA"/>
<path d="M92.9165 106.374V113.422" stroke="black" stroke-width="6.40805" stroke-linecap="round"/>
<path d="M118.549 106.374L118.549 113.422" stroke="black" stroke-width="6.40805" stroke-linecap="round"/>
<path d="M43.5747 113.422H53.1868" stroke="#FFD2D2" stroke-width="12.8161" stroke-linecap="round"/>
<path d="M158.279 113.422H167.891" stroke="#FFD2D2" stroke-width="12.8161" stroke-linecap="round"/>
<path d="M30.2812 129.116C36.8698 144.311 54.6327 144.549 67.0262 146.641C68.3199 146.053 71.1986 144.146 72.364 141.214C73.8209 137.55 56.1549 115.65 48.8827 109.945C41.6104 104.24 22.0455 110.123 30.2812 129.116Z" fill="#EFEFEF"/>
</g>
<defs>
<clipPath id="clip0_1490_4734">
<rect width="201.853" height="223" fill="white" transform="matrix(-1 0 0 1 201.854 0)"/>
</clipPath>
</defs>
</svg>
