<svg width="196" height="204" viewBox="0 0 196 204" fill="none" xmlns="http://www.w3.org/2000/svg">
<path d="M158.55 146.167C148.035 151.469 129.962 143.799 122.239 139.301C121.8 138.391 121.096 136.039 121.793 133.907C122.665 131.242 150.545 127.035 157.114 127.228C163.683 127.422 171.693 139.54 158.55 146.167Z" fill="#E7EAEE"/>
<path d="M128.143 199.773C131.411 198.438 134.592 180.634 133.947 171.771L102.559 176.781C101.914 183.974 101.871 198.643 103.419 199.773C105.354 201.186 124.058 201.443 128.143 199.773Z" fill="#E7EAEE"/>
<path d="M130.596 180.054C140.365 173.558 127.159 133.034 117.618 127.93C108.076 122.826 92.5566 123.599 85.7409 127.93C78.9253 132.261 62.0828 173.403 71.8518 180.054C81.6207 186.705 120.827 186.55 130.596 180.054Z" fill="white"/>
<path d="M74.7656 199.773C71.4978 198.438 68.316 180.634 68.961 171.771L100.349 176.781C100.994 183.974 101.037 198.643 99.4891 199.773C97.5543 201.186 78.8504 201.443 74.7656 199.773Z" fill="white"/>
<path d="M126.285 166.265C126.285 178.419 115.882 181.338 103.049 181.338C90.2151 181.338 79.8116 178.419 79.8116 166.265C79.8116 150.287 90.2151 141.243 103.049 141.243C115.882 141.243 126.285 150.287 126.285 166.265Z" fill="#E7EAEE"/>
<path d="M101.017 170.896C101.108 170.896 101.198 170.879 101.283 170.844C101.367 170.809 101.443 170.758 101.508 170.694L104.584 167.568C104.697 167.435 104.756 167.265 104.75 167.09C104.743 166.915 104.671 166.749 104.548 166.625C104.425 166.502 104.26 166.429 104.086 166.422C103.912 166.416 103.742 166.475 103.609 166.589L100.526 169.68C100.462 169.745 100.41 169.821 100.375 169.906C100.34 169.991 100.322 170.081 100.322 170.173C100.322 170.265 100.34 170.356 100.375 170.44C100.41 170.525 100.462 170.602 100.526 170.666C100.589 170.736 100.664 170.792 100.749 170.831C100.833 170.871 100.924 170.892 101.017 170.896Z" fill="#FFC0C1"/>
<path d="M104.06 170.896C104.151 170.896 104.24 170.879 104.324 170.844C104.407 170.81 104.483 170.759 104.547 170.695C104.612 170.63 104.663 170.554 104.697 170.469C104.732 170.385 104.75 170.294 104.75 170.203C104.75 170.111 104.732 170.021 104.697 169.936C104.663 169.852 104.612 169.775 104.547 169.711L101.495 166.627C101.432 166.562 101.356 166.51 101.272 166.475C101.189 166.44 101.099 166.422 101.008 166.422C100.918 166.422 100.828 166.44 100.745 166.475C100.661 166.51 100.585 166.562 100.521 166.627C100.394 166.757 100.322 166.932 100.322 167.115C100.322 167.298 100.394 167.474 100.521 167.604L103.58 170.695C103.708 170.823 103.88 170.895 104.06 170.896V170.896Z" fill="#FFC0C1"/>
<path d="M63.5927 36.889C67.2377 48.7041 82.845 71.8362 86.1461 81.509H117.356C120.658 71.8362 135.062 48.7041 139.682 36.889C145.412 22.2355 139.453 3.18991 123.356 3.18994C110.066 3.18997 103.841 25.1359 102.093 36.889C100.345 25.1359 93.6639 3.18994 80.8296 3.18994C64.7335 3.18994 58.9544 21.8541 63.5927 36.889Z" fill="white"/>
<path d="M158.179 104.111C158.179 127.891 132.103 135.776 100.411 135.776C68.7179 135.776 42.4502 127.891 42.4502 104.111C42.4502 63.5648 68.7179 49.6631 100.411 49.6631C132.103 49.6631 158.179 61.634 158.179 104.111Z" fill="white"/>
<path d="M78.9001 97.0483V104.338" stroke="#123041" stroke-width="6.83437" stroke-linecap="round"/>
<path d="M134.031 97.0483V104.338" stroke="#123041" stroke-width="6.83437" stroke-linecap="round"/>
<path d="M65.2314 114.818H72.0658" stroke="#FFC0C1" stroke-width="9.1125" stroke-linecap="round"/>
<path d="M140.866 114.818H147.7" stroke="#FFC0C1" stroke-width="9.1125" stroke-linecap="round"/>
<path d="M104.603 97.959C105.497 97.959 105.907 98.3318 106.466 98.7046C107.025 98.3318 107.435 97.959 108.329 97.959C109.447 97.959 110.096 99.1307 109.82 99.8229C109.447 100.755 108.081 101.687 106.466 102.06C104.851 101.687 103.485 100.755 103.113 99.8229C102.836 99.1307 103.485 97.959 104.603 97.959Z" fill="#FFC0C1"/>
<path d="M98.0366 108.914C99.3558 111.179 103.329 115.511 108.666 114.712" stroke="#FFC0C1" stroke-width="2.27813" stroke-linecap="round" stroke-linejoin="round"/>
<path fill-rule="evenodd" clip-rule="evenodd" d="M97.6346 107.982C95.8108 108.182 94.392 109.728 94.392 111.605C94.392 113.618 96.0239 115.25 98.037 115.25C99.5856 115.25 100.909 114.284 101.437 112.922C99.2532 112.602 97.5815 110.809 97.5815 108.645C97.5815 108.419 97.5996 108.198 97.6346 107.982Z" fill="#FFC0C1"/>
<path d="M55.1076 161.615C66.87 162.172 80.2493 147.803 85.4686 140.548C85.4991 139.539 85.1835 137.103 83.6779 135.441C81.7959 133.363 54.6214 140.882 48.7014 143.735C42.7813 146.589 40.4045 160.919 55.1076 161.615Z" fill="white"/>
<path d="M61.2458 146.128C57.6748 147.77 53.4486 146.207 51.8063 142.636L51.0926 141.084C49.0561 136.656 43.8156 134.717 39.3876 136.754L25.6802 143.058C16.8242 147.131 12.9468 157.612 17.0198 166.468V166.468C21.0928 175.324 31.5737 179.201 40.4297 175.128L67.0687 162.877C71.4967 160.84 73.4354 155.6 71.3989 151.172L70.6852 149.62C69.0429 146.049 64.8167 144.486 61.2458 146.128V146.128Z" fill="#D4A65B"/>
<path d="M150.59 143.141C150.597 141.671 161.822 120.953 167.434 110.777L175.326 115.333C169.122 125.167 156.397 145.02 155.128 145.761C153.541 146.686 150.582 144.977 150.59 143.141Z" fill="#D70000"/>
<path d="M180.094 114.077C177.731 118.17 172.778 119.405 168.856 117.14C164.933 114.875 163.605 109.832 165.889 105.876C168.004 102.213 173.098 97.9091 180.482 94.6265C181.191 94.311 181.932 94.9977 181.742 95.7507C179.611 104.208 183.263 108.588 180.094 114.077Z" fill="#533023"/>
<mask id="mask0_4002_555" style="mask-type:alpha" maskUnits="userSpaceOnUse" x="164" y="94" width="18" height="25">
<path d="M180.093 114.078C177.73 118.171 172.778 119.405 168.855 117.141C164.933 114.876 163.604 109.833 165.888 105.877C168.003 102.214 173.098 97.9101 180.481 94.6275C181.191 94.312 181.931 94.9987 181.742 95.7517C179.611 104.209 183.263 108.589 180.093 114.078Z" fill="#533023"/>
</mask>
<g mask="url(#mask0_4002_555)">
<path d="M170.703 101.635C169.987 99.9588 174.728 94.6638 177.187 92.2259L184.99 91.4698L187.27 106.202C185.919 107.175 182.822 108.895 181.243 107.983C179.271 106.844 179.195 104.697 178.406 104.241C177.617 103.785 176.561 106.069 175.18 105.272C173.799 104.475 174.772 101.879 174.096 101.226C173.421 100.574 171.598 103.73 170.703 101.635Z" fill="#FFC5AB"/>
</g>
<path d="M69.7053 65.8818C65.3036 64.683 66.9763 70.8812 64.3333 71.2343C61.6897 71.5876 57.408 68.7816 56.5236 70.6868C55.6392 72.5921 61.1804 74.974 61.3325 76.4068C61.4847 77.8396 56.8567 84.0537 59.2341 85.9746C61.6114 87.8955 62.6798 80.8997 64.9811 82.1042C67.2824 83.3088 68.346 83.7753 70.3214 83.2757C72.2968 82.7761 68.9805 80.8825 69.4198 78.8798C69.8592 76.8771 78.2174 79.177 78.4557 75.9641C78.694 72.7512 71.5144 76.7738 70.4449 74.2069C69.3754 71.64 74.1069 67.0806 69.7053 65.8818Z" fill="#9EE7E5"/>
<mask id="mask1_4002_555" style="mask-type:alpha" maskUnits="userSpaceOnUse" x="62" y="3" width="80" height="79">
<path d="M63.5917 36.8897C67.2367 48.7048 82.844 71.8369 86.1452 81.5098H117.355C120.657 71.8369 135.061 48.7048 139.681 36.8897C145.411 22.2362 139.452 3.19064 123.355 3.19067C110.065 3.1907 103.84 25.1367 102.092 36.8897C100.344 25.1367 93.663 3.19067 80.8287 3.19067C64.7325 3.19067 58.9535 21.8548 63.5917 36.8897Z" fill="white"/>
</mask>
<g mask="url(#mask1_4002_555)">
<path d="M125.526 7.2825C127.652 5.75694 121.273 2.40073 123.096 -0.345268C124.614 -2.78615 126.741 -0.0404441 130.386 -0.345555C132.074 -0.486873 132.003 -0.628132 131.711 -0.708753C130.911 -0.809275 131.421 -0.789207 131.711 -0.708753C131.841 -0.692525 132.004 -0.673153 132.208 -0.650385C134.395 -0.406292 135.144 1.89221 135.246 3.01095L147.699 24.3687C146.586 29.6573 143.386 40.1124 139.498 39.6243C134.638 39.014 138.891 28.3351 137.068 27.7249C135.246 27.1147 134.334 35.6578 132.208 33.2169C130.082 30.776 135.246 22.538 133.727 21.9278C132.208 21.3176 127.044 35.0476 123.703 31.0811C120.362 27.1147 132.208 21.3176 130.386 18.2665C128.563 15.2154 120.666 22.2329 120.362 18.8767C120.058 15.5205 128.867 14.9103 128.867 12.4694C128.867 10.0285 116.717 13.3847 116.717 9.72339C116.717 6.06206 122.863 9.19254 125.526 7.2825Z" fill="#AFD157"/>
</g>
<path d="M119.451 154.686C117.173 153.775 115.578 146.029 113.072 148.079C110.566 150.13 118.767 157.647 118.767 158.786C118.767 159.925 111.933 157.647 111.933 160.153C111.933 162.659 118.54 161.292 119.451 162.659C120.362 164.026 115.806 166.304 117.4 167.443C118.995 168.582 119.451 167.215 121.729 167.443C124.007 167.671 124.918 170.177 126.513 169.038C128.108 167.899 124.918 165.393 125.374 164.026C125.83 162.659 129.702 164.709 129.93 162.203C130.158 159.697 123.324 159.47 123.551 157.647C123.779 155.825 128.791 154.686 127.88 153.091C126.969 151.496 124.007 155.369 122.868 153.774C121.729 152.18 124.007 147.396 121.273 147.396C118.54 147.396 121.729 155.597 119.451 154.686Z" fill="#FFC53D"/>
<ellipse cx="25.5926" cy="165.848" rx="3.18937" ry="3.18938" fill="#9EE7E5"/>
<ellipse cx="36.9832" cy="167.671" rx="3.18937" ry="3.18938" fill="#AFD157"/>
<ellipse cx="50.1958" cy="163.57" rx="3.18937" ry="3.18938" fill="#FFC53D"/>
<path fill-rule="evenodd" clip-rule="evenodd" d="M21.947 151.732C23.3139 150.82 23.9518 150.547 27.4145 150.365C29.7822 150.24 28.699 151.671 27.1216 153.753C26.3921 154.716 25.557 155.819 24.9086 156.972L24.8807 156.923C24.2959 157.643 23.4032 158.104 22.403 158.104C20.6416 158.104 19.2136 156.676 19.2136 154.914C19.2136 153.303 20.4085 151.971 21.9604 151.755L21.947 151.732Z" fill="#FFC5AB"/>
</svg>
