<svg width="188" height="208" viewBox="0 0 188 208" fill="none" xmlns="http://www.w3.org/2000/svg">
<g id="art major bunny">
<path id="Vector 21" d="M152.55 146.167C142.035 151.468 123.962 143.798 116.239 139.301C115.8 138.391 115.096 136.039 115.793 133.907C116.665 131.242 144.545 127.035 151.114 127.228C157.683 127.421 165.693 139.539 152.55 146.167Z" fill="#E7EAEE"/>
<path id="Vector 19" d="M122.143 199.773C125.411 198.437 128.592 180.634 127.947 171.771L96.5593 176.781C95.9143 183.974 95.8713 198.643 97.4193 199.773C99.3541 201.186 118.058 201.443 122.143 199.773Z" fill="#E7EAEE"/>
<path id="Vector 17" d="M124.596 180.054C134.365 173.558 121.159 133.034 111.618 127.93C102.076 122.826 86.5565 123.599 79.7409 127.93C72.9252 132.261 56.0827 173.403 65.8517 180.054C75.6207 186.705 114.827 186.55 124.596 180.054Z" fill="white"/>
<path id="Vector 18" d="M68.7657 199.773C65.4979 198.437 62.316 180.634 62.9611 171.771L94.3491 176.781C94.9941 183.974 95.0371 198.643 93.4892 199.773C91.5543 201.186 72.8505 201.443 68.7657 199.773Z" fill="white"/>
<path id="Ellipse 19" d="M120.285 166.265C120.285 178.419 109.882 181.338 97.0485 181.338C84.2151 181.338 73.8116 178.419 73.8116 166.265C73.8116 150.287 84.2151 141.243 97.0485 141.243C109.882 141.243 120.285 150.287 120.285 166.265Z" fill="#E7EAEE"/>
<path id="Vector" d="M97.7643 174.049C97.8579 174.05 97.9507 174.032 98.0374 173.997C98.124 173.962 98.2028 173.91 98.2693 173.844L101.434 170.661C101.551 170.525 101.612 170.351 101.605 170.173C101.598 169.995 101.524 169.826 101.397 169.7C101.27 169.574 101.1 169.501 100.921 169.494C100.742 169.487 100.567 169.547 100.431 169.663L97.2594 172.811C97.1927 172.877 97.1398 172.955 97.1037 173.042C97.0676 173.128 97.049 173.22 97.049 173.314C97.049 173.407 97.0676 173.5 97.1037 173.586C97.1398 173.672 97.1927 173.75 97.2594 173.816C97.3234 173.887 97.4011 173.944 97.4879 173.984C97.5747 174.024 97.6687 174.046 97.7643 174.049Z" fill="#FFC0C1"/>
<path id="Vector_2" d="M100.895 174.049C100.988 174.05 101.08 174.032 101.166 173.997C101.252 173.962 101.331 173.91 101.396 173.845C101.463 173.779 101.515 173.701 101.551 173.615C101.587 173.529 101.605 173.437 101.605 173.344C101.605 173.25 101.587 173.158 101.551 173.072C101.515 172.986 101.463 172.908 101.396 172.843L98.2563 169.702C98.1906 169.636 98.1126 169.583 98.0266 169.547C97.9406 169.512 97.8484 169.493 97.7552 169.493C97.6621 169.493 97.5698 169.512 97.4838 169.547C97.3978 169.583 97.3198 169.636 97.2542 169.702C97.1228 169.834 97.049 170.013 97.049 170.199C97.049 170.386 97.1228 170.565 97.2542 170.697L100.401 173.845C100.533 173.975 100.71 174.049 100.895 174.049Z" fill="#FFC0C1"/>
<path id="Vector 9" d="M57.5927 36.889C61.2377 48.7041 76.845 71.8362 80.1461 81.509H111.356C114.658 71.8362 129.062 48.7041 133.682 36.889C139.412 22.2355 133.453 3.18991 117.356 3.18994C104.066 3.18997 97.8407 25.1359 96.093 36.889C94.3453 25.1359 87.6639 3.18994 74.8296 3.18994C58.7335 3.18994 52.9544 21.8541 57.5927 36.889Z" fill="white"/>
<path id="Ellipse 9" d="M152.179 104.111C152.179 127.891 126.103 135.776 94.4105 135.776C62.7179 135.776 36.4502 127.891 36.4502 104.111C36.4502 63.5648 62.7179 49.6631 94.4105 49.6631C126.103 49.6631 152.179 61.634 152.179 104.111Z" fill="white"/>
<path id="Vector 7" d="M72.9001 97.0483V104.338" stroke="#123041" stroke-width="6.83437" stroke-linecap="round"/>
<path id="Vector 8" d="M128.031 97.0483V104.338" stroke="#123041" stroke-width="6.83437" stroke-linecap="round"/>
<path id="Line 3" d="M59.2314 114.818H66.0658" stroke="#FFC0C1" stroke-width="9.1125" stroke-linecap="round"/>
<path id="Line 4" d="M134.866 114.818H141.7" stroke="#FFC0C1" stroke-width="9.1125" stroke-linecap="round"/>
<path id="Vector 10" d="M98.6031 97.959C99.4974 97.959 99.9073 98.3318 100.466 98.7046C101.025 98.3318 101.435 97.959 102.329 97.959C103.447 97.959 104.097 99.1307 103.82 99.8229C103.447 100.755 102.081 101.687 100.466 102.06C98.8515 101.687 97.4853 100.755 97.1127 99.8229C96.8359 99.1307 97.4852 97.959 98.6031 97.959Z" fill="#FFC0C1"/>
<path id="Vector 936" d="M92.0366 108.914C93.3558 111.179 97.3286 115.511 102.666 114.712" stroke="#FFC0C1" stroke-width="2.27813" stroke-linecap="round" stroke-linejoin="round"/>
<path id="Subtract" fill-rule="evenodd" clip-rule="evenodd" d="M91.6346 107.982C89.8108 108.182 88.392 109.728 88.392 111.605C88.392 113.618 90.0239 115.25 92.037 115.25C93.5856 115.25 94.9087 114.284 95.4368 112.922C93.2532 112.602 91.5815 110.809 91.5815 108.645C91.5815 108.419 91.5996 108.198 91.6346 107.982Z" fill="#FFC0C1"/>
<path id="Vector 20" d="M49.1076 161.615C60.87 162.172 74.2493 147.803 79.4686 140.549C79.4991 139.539 79.1835 137.104 77.6779 135.441C75.7959 133.363 48.6214 140.882 42.7014 143.735C36.7813 146.589 34.4045 160.92 49.1076 161.615Z" fill="white"/>
<path id="Rectangle 1610" d="M55.2458 146.128C51.6748 147.771 47.4486 146.207 45.8063 142.636L45.0926 141.084C43.0561 136.656 37.8156 134.718 33.3876 136.754L19.6802 143.058C10.8242 147.131 6.94683 157.612 11.0198 166.468C15.0928 175.324 25.5737 179.202 34.4297 175.129L61.0687 162.877C65.4967 160.841 67.4354 155.6 65.3989 151.172L64.6852 149.62C63.0429 146.049 58.8167 144.486 55.2458 146.128Z" fill="#D4A65B"/>
<path id="Vector 937" d="M144.59 143.141C144.597 141.671 155.822 120.953 161.434 110.777L169.326 115.333C163.122 125.167 150.397 145.02 149.128 145.761C147.541 146.686 144.582 144.977 144.59 143.141Z" fill="#D70000"/>
<path id="Ellipse 781" d="M174.094 114.077C171.731 118.17 166.778 119.405 162.856 117.14C158.933 114.875 157.605 109.832 159.889 105.876C162.004 102.213 167.098 97.9091 174.482 94.6265C175.191 94.311 175.932 94.9977 175.742 95.7507C173.611 104.208 177.263 108.588 174.094 114.077Z" fill="#533023"/>
<g id="Group 1261">
<mask id="mask0_1824_1005" style="mask-type:alpha" maskUnits="userSpaceOnUse" x="158" y="94" width="18" height="25">
<path id="Ellipse 782" d="M174.093 114.078C171.73 118.171 166.778 119.405 162.855 117.141C158.933 114.876 157.604 109.833 159.888 105.877C162.003 102.214 167.098 97.9101 174.481 94.6275C175.191 94.312 175.931 94.9987 175.742 95.7517C173.611 104.209 177.263 108.589 174.093 114.078Z" fill="#533023"/>
</mask>
<g mask="url(#mask0_1824_1005)">
<path id="Vector 938" d="M164.703 101.635C163.987 99.9588 168.728 94.6638 171.187 92.2259L178.99 91.4698L181.27 106.202C179.919 107.175 176.822 108.895 175.243 107.983C173.271 106.844 173.195 104.697 172.406 104.241C171.617 103.785 170.561 106.069 169.18 105.272C167.799 104.475 168.772 101.879 168.096 101.226C167.421 100.574 165.598 103.73 164.703 101.635Z" fill="#FFC5AB"/>
</g>
</g>
<path id="Vector 939" d="M63.7052 65.8818C59.3036 64.683 60.9762 70.8812 58.3333 71.2343C55.6897 71.5876 51.408 68.7816 50.5236 70.6868C49.6391 72.5921 55.1803 74.974 55.3325 76.4068C55.4846 77.8396 50.8566 84.0537 53.234 85.9746C55.6114 87.8955 56.6798 80.8997 58.9811 82.1042C61.2824 83.3088 62.3459 83.7753 64.3213 83.2757C66.2968 82.7761 62.9805 80.8825 63.4198 78.8798C63.8591 76.8771 72.2173 79.177 72.4556 75.9641C72.694 72.7512 65.5144 76.7738 64.4448 74.2069C63.3753 71.64 68.1068 67.0806 63.7052 65.8818Z" fill="#9EE7E5"/>
<g id="Group 1262">
<mask id="mask1_1824_1005" style="mask-type:alpha" maskUnits="userSpaceOnUse" x="56" y="3" width="80" height="79">
<path id="Vector 941" d="M57.5917 36.8897C61.2367 48.7048 76.844 71.8369 80.1452 81.5098H111.355C114.657 71.8369 129.061 48.7048 133.681 36.8897C139.411 22.2362 133.452 3.19064 117.355 3.19067C104.065 3.1907 97.8397 25.1367 96.092 36.8897C94.3444 25.1367 87.663 3.19067 74.8287 3.19067C58.7325 3.19067 52.9535 21.8548 57.5917 36.8897Z" fill="white"/>
</mask>
<g mask="url(#mask1_1824_1005)">
<path id="Vector 940" d="M119.525 7.2825C121.652 5.75694 115.273 2.40073 117.095 -0.345268C118.614 -2.78615 120.74 -0.0404441 124.385 -0.345555C126.074 -0.486873 126.003 -0.628132 125.711 -0.708753C124.911 -0.809275 125.421 -0.789207 125.711 -0.708753C125.841 -0.692525 126.004 -0.673153 126.208 -0.650385C128.395 -0.406292 129.144 1.89221 129.245 3.01095L141.699 24.3687C140.585 29.6573 137.386 40.1124 133.498 39.6243C128.638 39.014 132.89 28.3351 131.068 27.7249C129.245 27.1147 128.334 35.6578 126.208 33.2169C124.082 30.776 129.245 22.538 127.727 21.9278C126.208 21.3176 121.044 35.0476 117.703 31.0811C114.362 27.1147 126.208 21.3176 124.385 18.2665C122.563 15.2154 114.665 22.2329 114.362 18.8767C114.058 15.5205 122.867 14.9103 122.867 12.4694C122.867 10.0285 110.717 13.3847 110.717 9.72339C110.717 6.06206 116.863 9.19254 119.525 7.2825Z" fill="#AFD157"/>
</g>
</g>
<path id="Vector 942" d="M113.451 154.686C111.173 153.775 109.578 146.029 107.072 148.08C104.566 150.131 112.767 157.647 112.767 158.786C112.767 159.925 105.933 157.647 105.933 160.153C105.933 162.659 112.54 161.292 113.451 162.659C114.362 164.026 109.806 166.304 111.4 167.443C112.995 168.582 113.451 167.215 115.729 167.443C118.007 167.671 118.918 170.177 120.513 169.038C122.108 167.899 118.918 165.393 119.374 164.026C119.83 162.659 123.702 164.71 123.93 162.204C124.158 159.698 117.324 159.47 117.551 157.647C117.779 155.825 122.791 154.686 121.88 153.091C120.969 151.496 118.007 155.369 116.868 153.775C115.729 152.18 118.007 147.396 115.273 147.396C112.54 147.396 115.729 155.598 113.451 154.686Z" fill="#FFC53D"/>
<ellipse id="Ellipse 783" cx="19.5926" cy="165.848" rx="3.18937" ry="3.18938" fill="#9EE7E5"/>
<ellipse id="Ellipse 785" cx="30.9832" cy="167.671" rx="3.18937" ry="3.18938" fill="#AFD157"/>
<ellipse id="Ellipse 786" cx="44.1958" cy="163.57" rx="3.18937" ry="3.18938" fill="#FFC53D"/>
<path id="Union" fill-rule="evenodd" clip-rule="evenodd" d="M15.947 151.732C17.3139 150.821 17.9518 150.547 21.4145 150.365C23.7822 150.241 22.699 151.671 21.1216 153.753C20.3921 154.717 19.557 155.819 18.9086 156.972L18.8807 156.923C18.2959 157.644 17.4032 158.104 16.403 158.104C14.6416 158.104 13.2136 156.676 13.2136 154.915C13.2136 153.303 14.4085 151.971 15.9604 151.756L15.947 151.732Z" fill="#FFC5AB"/>
</g>
</svg>
