<svg width="144" height="152" viewBox="0 0 144 152" fill="none" xmlns="http://www.w3.org/2000/svg">
<g id="Cow sitting" clip-path="url(#clip0_2104_1035)">
<path id="Ellipse 4" d="M21.2445 20.1177C35.0378 28.2806 30.7767 32.3502 27.2129 38.372C23.6492 44.3938 21.8525 49.9218 8.33912 41.9246C1.47911 37.8648 -1.19307 29.6921 2.37065 23.6703C5.93437 17.6485 14.3845 16.0579 21.2445 20.1177Z" fill="white"/>
<path id="Ellipse 5" d="M41.4622 21.5125C41.4622 29.1154 38.8103 29.1605 35.5391 29.1605C32.2678 29.1605 29.616 29.1154 29.616 21.5125C29.616 13.9095 33.2463 7.74609 35.5391 7.74609C37.8319 7.74609 41.4622 13.9095 41.4622 21.5125Z" fill="#6A5B3D"/>
<path id="Ellipse 6" d="M112.996 21.5125C112.996 29.1154 110.344 29.1605 107.073 29.1605C103.801 29.1605 101.149 29.1154 101.149 21.5125C101.149 13.9095 104.78 7.74609 107.073 7.74609C109.365 7.74609 112.996 13.9095 112.996 21.5125Z" fill="#6A5B3D"/>
<path id="Ellipse 3" d="M122.669 20.1177C108.876 28.2806 113.137 32.3502 116.701 38.372C120.265 44.3938 122.061 49.9218 135.575 41.9246C142.435 37.8648 145.107 29.6921 141.543 23.6703C137.979 17.6485 129.529 16.0579 122.669 20.1177Z" fill="#123041"/>
<path id="Ellipse 7" d="M126.073 27.074C119.199 31.1424 120.979 32.5899 122.331 34.8746C123.683 37.1594 124.235 39.3337 130.97 35.3478C134.389 33.3244 136.065 29.8319 134.712 27.5471C133.36 25.2624 129.492 25.0505 126.073 27.074Z" fill="#FFC0C1"/>
<path id="Ellipse 8" d="M17.4316 27.074C24.3063 31.1424 22.5263 32.5899 21.1742 34.8746C19.822 37.1594 19.2703 39.3337 12.5351 35.3478C9.11597 33.3244 7.44036 29.8319 8.79249 27.5471C10.1446 25.2624 14.0125 25.0505 17.4316 27.074Z" fill="#FFC0C1"/>
<path id="Vector 23" d="M112.566 148.375C110.298 149.717 85.0299 149.582 79.925 146.219C73.7136 142.128 71.4386 136.625 72.9356 131.873C76.1495 121.671 83.3802 121.879 91.3536 122.562C99.327 123.246 122.031 124.389 123.703 128.713C125.641 133.725 118.463 144.888 112.566 148.375Z" fill="#E7EAEE"/>
<path id="Vector 17" d="M100.448 141.781C110.217 135.284 97.0116 94.7609 87.4698 89.6568C77.9281 84.5527 62.4087 85.326 55.5931 89.6568C48.7775 93.9876 31.935 135.13 41.7039 141.781C51.4729 148.431 90.6792 148.277 100.448 141.781Z" fill="white"/>
<path id="Intersect" fill-rule="evenodd" clip-rule="evenodd" d="M74.3432 146.669C74.4196 144.272 74.3413 139.378 72.6729 136.459C70.0032 131.789 61.2823 128.713 61.2823 128.713C57.7891 128.182 50.2561 125.661 48.0691 119.829C47.1385 117.347 44.9925 115.685 42.5121 114.6C38.6134 126.337 36.7843 138.434 41.7038 141.783C47.0234 145.405 61.0722 147.008 74.3432 146.669Z" fill="#123041"/>
<path id="Ellipse 19" d="M97.0489 127.082C97.0489 139.236 86.6454 142.155 73.8121 142.155C60.9787 142.155 50.5752 139.236 50.5752 127.082C50.5752 111.104 60.9787 102.06 73.8121 102.06C86.6454 102.06 97.0489 111.104 97.0489 127.082Z" fill="#FFC0C1"/>
<path id="Vector" d="M73.6156 138.055C73.7092 138.055 73.802 138.037 73.8887 138.002C73.9753 137.967 74.0541 137.915 74.1206 137.849L77.2855 134.666C77.402 134.531 77.4629 134.356 77.456 134.178C77.4491 134 77.3749 133.831 77.2482 133.705C77.1216 133.58 76.9518 133.506 76.7728 133.499C76.5938 133.492 76.4188 133.553 76.2827 133.668L73.1107 136.817C73.044 136.882 72.9911 136.961 72.955 137.047C72.9189 137.133 72.9003 137.225 72.9003 137.319C72.9003 137.412 72.9189 137.505 72.955 137.591C72.9911 137.677 73.044 137.755 73.1107 137.821C73.1747 137.892 73.2525 137.949 73.3392 137.989C73.426 138.029 73.52 138.051 73.6156 138.055Z" fill="#FF8D8D"/>
<path id="Vector_2" d="M76.7468 138.055C76.8396 138.055 76.9317 138.037 77.0177 138.002C77.1037 137.967 77.1819 137.915 77.2478 137.85C77.3139 137.784 77.3664 137.706 77.4023 137.62C77.4381 137.534 77.4565 137.442 77.4565 137.349C77.4565 137.256 77.4381 137.163 77.4023 137.077C77.3664 136.991 77.3139 136.913 77.2478 136.848L74.1076 133.707C74.042 133.641 73.9639 133.588 73.8779 133.553C73.7919 133.517 73.6997 133.498 73.6065 133.498C73.5134 133.498 73.4212 133.517 73.3352 133.553C73.2492 133.588 73.1711 133.641 73.1055 133.707C72.9741 133.839 72.9003 134.018 72.9003 134.205C72.9003 134.391 72.9741 134.57 73.1055 134.702L76.2528 137.85C76.3842 137.98 76.5617 138.054 76.7468 138.055Z" fill="#FF8D8D"/>
<path id="Vector 18" d="M79.306 149.743C77.0375 151.085 51.7694 150.949 46.6645 147.587C40.4531 143.496 38.1781 137.993 39.6751 133.241C42.889 123.039 50.1197 123.247 58.0931 123.93C66.0665 124.614 88.7704 125.757 90.4425 130.081C92.3803 135.093 85.203 146.256 79.306 149.743Z" fill="#123041"/>
<path id="Ellipse 1" d="M128.943 67.2058C128.943 90.9853 102.867 98.8707 71.1742 98.8707C39.4816 98.8707 13.2139 90.9853 13.2139 67.2058C13.2139 26.6592 39.4816 12.7576 71.1742 12.7576C102.867 12.7576 128.943 24.7285 128.943 67.2058Z" fill="white"/>
<path id="Intersect_2" fill-rule="evenodd" clip-rule="evenodd" d="M75.2004 12.8247C75.4668 20.412 77.0516 30.3629 82.0229 34.3873C86.3949 37.9265 91.4404 38.8278 95.9489 39.6332C99.8022 40.3215 103.263 40.9398 105.576 43.075C106.805 44.2095 107.896 45.7839 109.076 47.4891C112.634 52.6269 117.015 58.9532 128.497 58.0193C125.1 24.5935 102.67 13.7551 75.2004 12.8247Z" fill="#123041"/>
<path id="Vector 5" d="M43.2847 62.8765V70.1665" stroke="#123041" stroke-width="6.83437" stroke-linecap="round"/>
<path id="Vector 6" d="M104.339 62.8765V70.1665" stroke="#123041" stroke-width="6.83437" stroke-linecap="round"/>
<path id="Rectangle 1" d="M52.3972 79.8257C52.3972 70.4649 59.9857 62.8765 69.3465 62.8765H77.8211C87.1819 62.8765 94.7703 70.4649 94.7703 79.8257C94.7703 86.0663 89.7114 91.1252 83.4708 91.1252H63.6967C57.4562 91.1252 52.3972 86.0663 52.3972 79.8257Z" fill="#FFC0C1"/>
<path id="Vector 3" d="M64.6992 75.6328V80.6447" stroke="#123041" stroke-width="4.55625" stroke-linecap="round"/>
<path id="Vector 4" d="M82.9243 75.6328L82.9243 80.6447" stroke="#123041" stroke-width="4.55625" stroke-linecap="round"/>
<path id="Line 1" d="M29.616 80.646H36.4503" stroke="#FFC0C1" stroke-width="9.1125" stroke-linecap="round"/>
<path id="Line 2" d="M111.173 80.646H118.008" stroke="#FFC0C1" stroke-width="9.1125" stroke-linecap="round"/>
<path id="Vector 24" d="M68.6976 119.394C57.1461 121.68 48.2992 110.864 43.2639 103.558C42.0011 100.87 43.1689 97.1609 45.3157 96.5111C49.1388 95.3539 66.119 98.8153 72.3953 100.764C78.6717 102.713 83.137 116.536 68.6976 119.394Z" fill="#E7EAEE"/>
<rect id="Rectangle 1732" width="74.2669" height="6.37875" rx="0.91125" transform="matrix(-1 0 0 1 126.771 119.374)" fill="#173A52"/>
<path id="Vector_3" d="M134.865 77.4924L36.4258 29.1597L6.83472 99.6277L69.3665 122.563L134.865 77.4924Z" fill="url(#paint0_linear_2104_1035)"/>
<path id="Union" fill-rule="evenodd" clip-rule="evenodd" d="M19.0504 54.1226C18.9535 54.3236 18.8186 54.6732 18.6744 55.2197C18.4757 55.9728 18.2981 56.9444 18.154 58.0821C17.8661 60.354 17.7263 63.1731 17.782 65.9983C17.8378 68.8299 18.089 71.6039 18.5588 73.8017C18.794 74.9025 19.0738 75.8086 19.3842 76.4878C19.7076 77.1955 19.9934 77.5001 20.1478 77.6031C20.2093 77.644 20.4091 77.7463 20.8309 77.8715C21.2314 77.9904 21.7509 78.1068 22.3883 78.216C23.6624 78.4344 25.3086 78.6078 27.2207 78.7341C31.0393 78.9863 35.8016 79.0435 40.5254 78.9304C45.25 78.8172 49.8965 78.5346 53.4845 78.1149C55.2835 77.9045 56.7779 77.664 57.8694 77.4037C58.4175 77.2729 58.8233 77.1467 59.0993 77.0337C59.2053 76.9903 59.2732 76.9563 59.3127 76.935L59.3186 76.9248C59.3484 76.8727 59.3853 76.7994 59.4271 76.7008C59.512 76.5011 59.6026 76.2326 59.6935 75.8893C59.8756 75.201 60.0346 74.3039 60.1632 73.2391C60.4198 71.1143 60.5395 68.4578 60.5255 65.7533C60.5115 63.051 60.3642 60.3436 60.0988 58.1207C59.966 57.0081 59.8064 56.0404 59.626 55.2667C59.4668 54.5838 59.3113 54.1418 59.1918 53.8958C59.159 53.8772 59.1116 53.8524 59.0459 53.8226C58.7859 53.7044 58.3809 53.571 57.8084 53.4372C56.6698 53.1712 55.0847 52.9522 53.1586 52.7857C49.3203 52.4539 44.3313 52.3469 39.3044 52.4177C34.2812 52.4884 29.2636 52.7361 25.3758 53.1048C23.4276 53.2896 21.7938 53.502 20.5959 53.731C19.9941 53.846 19.5384 53.9586 19.2227 54.0618C19.1516 54.085 19.0949 54.1055 19.0504 54.1226ZM60.3654 50.9189C60.4955 50.978 60.6382 51.0483 60.7846 51.1324C63.8604 50.5686 69.6781 49.6628 73.4832 49.6628C77.5348 49.6628 84.3129 50.6919 87.4045 51.2369C87.6101 51.1046 87.8149 51.001 87.9956 50.9189C88.5225 50.6795 89.1522 50.4892 89.8269 50.3315C91.1827 50.0147 92.9418 49.7798 94.9277 49.6081C98.9134 49.2636 104.019 49.157 109.102 49.2286C114.188 49.3003 119.293 49.551 123.286 49.9297C125.279 50.1187 127.025 50.3423 128.364 50.5983C129.031 50.7258 129.633 50.868 130.129 51.0301C130.547 51.1668 131.159 51.3974 131.593 51.8313L131.666 51.9045L131.729 51.9865C132.218 52.6228 132.538 53.5266 132.77 54.4061C133.017 55.3393 133.216 56.459 133.371 57.6813C133.681 60.1294 133.826 63.1054 133.768 66.0611C133.71 69.0104 133.448 72.003 132.921 74.4684C132.658 75.6993 132.318 76.8489 131.878 77.8133C131.45 78.7493 130.853 79.6763 129.982 80.2568C129.531 80.5575 128.978 80.7686 128.438 80.929C127.876 81.0957 127.224 81.2374 126.511 81.3596C125.086 81.6039 123.318 81.7865 121.35 81.9165C117.409 82.1768 112.547 82.2335 107.759 82.1189C102.973 82.0042 98.2222 81.7173 94.506 81.2827C92.6529 81.066 91.0184 80.8081 89.7517 80.506C89.1207 80.3555 88.5402 80.1846 88.0532 79.9852C87.6202 79.8079 87.0425 79.5239 86.639 79.0396C86.1184 78.4149 85.8027 77.5309 85.5842 76.7051C85.3507 75.8226 85.1698 74.7673 85.0314 73.6215C84.7541 71.3253 84.6317 68.5285 84.6462 65.7368C84.6607 62.9431 84.8124 60.1117 85.0953 57.7427C85.2365 56.5593 85.4132 55.4678 85.6289 54.5426C85.6568 54.4227 85.686 54.3031 85.7164 54.1844C82.3641 53.6302 76.8185 52.8522 73.4832 52.8522C70.4138 52.8522 65.7517 53.5125 62.6091 54.0488C62.6525 54.2118 62.6935 54.3768 62.7321 54.5426C62.9478 55.4678 63.1245 56.5593 63.2657 57.7427C63.5485 60.1117 63.7003 62.9431 63.7148 65.7368C63.7292 68.5285 63.6069 71.3253 63.3295 73.6215C63.1912 74.7673 63.0102 75.8226 62.7768 76.7051C62.5583 77.5309 62.2426 78.4149 61.722 79.0396C61.3184 79.5239 60.7408 79.8079 60.3078 79.9852C59.8208 80.1846 59.2402 80.3555 58.6093 80.506C57.3425 80.8081 55.7081 81.066 53.855 81.2827C50.1388 81.7173 45.3882 82.0042 40.6017 82.1189C35.8144 82.2335 30.9517 82.1768 27.0105 81.9165C25.0427 81.7865 23.2753 81.6039 21.8495 81.3596C21.1369 81.2374 20.4849 81.0957 19.9232 80.929C19.3828 80.7686 18.8298 80.5575 18.3787 80.2568C17.5079 79.6763 16.911 78.7493 16.4833 77.8133C16.0426 76.8489 15.7029 75.6993 15.4398 74.4684C14.9129 72.003 14.6514 69.0104 14.5932 66.0611C14.5349 63.1054 14.6797 60.1294 14.9899 57.6813C15.1447 56.459 15.3444 55.3393 15.5906 54.4061C15.8226 53.5266 16.1426 52.6228 16.6321 51.9865L16.6952 51.9045L16.7684 51.8313C17.2023 51.3974 17.8138 51.1668 18.232 51.0301C18.7282 50.868 19.3304 50.7258 19.9971 50.5983C21.3363 50.3423 23.0823 50.1187 25.0746 49.9297C29.0676 49.551 34.1735 49.3003 39.2595 49.2286C44.3417 49.157 49.4476 49.2636 53.4333 49.6081C55.4191 49.7798 57.1783 50.0147 58.5341 50.3315C59.2088 50.4892 59.8384 50.6795 60.3654 50.9189ZM129.687 55.2197C129.542 54.6732 129.407 54.3236 129.311 54.1226C129.266 54.1055 129.209 54.085 129.138 54.0618C128.823 53.9586 128.367 53.846 127.765 53.731C126.567 53.502 124.933 53.2896 122.985 53.1048C119.097 52.7361 114.08 52.4884 109.057 52.4177C104.03 52.3469 99.0407 52.4539 95.2024 52.7857C93.2763 52.9522 91.6912 53.1712 90.5526 53.4372C89.9801 53.571 89.5751 53.7044 89.315 53.8226C89.2494 53.8524 89.202 53.8772 89.1692 53.8958C89.0497 54.1418 88.8942 54.5838 88.735 55.2667C88.5546 56.0404 88.395 57.0081 88.2621 58.1207C87.9968 60.3436 87.8495 63.051 87.8355 65.7533C87.8215 68.4578 87.9412 71.1143 88.1978 73.2391C88.3264 74.3039 88.4854 75.201 88.6675 75.8893C88.7583 76.2326 88.849 76.5011 88.9338 76.7008C88.9757 76.7994 89.0126 76.8727 89.0424 76.9248L89.0483 76.935C89.0877 76.9563 89.1557 76.9903 89.2617 77.0337C89.5377 77.1467 89.9435 77.2729 90.4916 77.4037C91.5831 77.664 93.0774 77.9045 94.8765 78.1149C98.4645 78.5346 103.111 78.8172 107.836 78.9304C112.559 79.0435 117.322 78.9863 121.14 78.7341C123.052 78.6078 124.699 78.4344 125.973 78.216C126.61 78.1068 127.13 77.9904 127.53 77.8715C127.952 77.7463 128.152 77.644 128.213 77.6031C128.368 77.5001 128.653 77.1955 128.977 76.4878C129.287 75.8086 129.567 74.9025 129.802 73.8017C130.272 71.6039 130.523 68.8299 130.579 65.9983C130.635 63.1731 130.495 60.354 130.207 58.0821C130.063 56.9444 129.885 55.9728 129.687 55.2197Z" fill="black"/>
<rect id="Rectangle 1731" width="74.2669" height="48.7519" rx="2.27813" transform="matrix(-1 0 0 1 135.884 77.0005)" fill="#005271"/>
<g id="Group 1220">
<path id="Vector_4" d="M95.4799 101.666V97.9016L87.5869 105.798L89.4516 107.702L95.4799 101.666ZM113.465 99.3132C112.88 96.3723 110.67 94.1666 110.416 93.9056L104.991 88.3914L101.891 91.4904L101.67 91.7109V95.4753L104.98 92.1668L108.066 95.3025L108.537 95.7804L108.57 95.8135C108.57 95.8135 108.776 96.0157 109.059 96.3539C109.928 97.3516 110.544 98.5429 110.858 99.8279C111.299 102.034 111.52 104.633 109.059 107.787V111.676C109.291 111.474 109.427 111.331 109.489 111.279C111.696 109.118 113.017 106.934 113.535 104.6C113.894 102.853 113.871 101.05 113.469 99.3132H113.465ZM97.032 110.934L96.9511 110.893H96.9106C96.6702 110.768 96.4413 110.621 96.2265 110.456C96.0242 110.312 95.7778 110.121 95.4909 109.875C95.0422 109.507 94.4831 109.007 93.8027 108.342L92.2764 106.783L90.3932 108.665L91.9122 110.213V110.235C94.2625 112.529 95.4689 113.176 95.9139 113.364C97.3231 114.057 98.8503 114.48 100.416 114.61C101.135 114.666 101.858 114.651 102.575 114.566L102.748 114.547V111.849C100.795 112.158 98.794 111.837 97.0357 110.934H97.032Z" fill="white"/>
<path id="Vector_5" d="M100.342 93.0425V109.115H96.8145V96.5716L97.1675 96.2187L97.3588 96.0275L98.4254 94.9614L99.1463 94.2409L99.3817 94.0056L100.106 93.2814L100.342 93.0425Z" fill="white"/>
<path id="Vector_6" d="M107.728 96.6338V112.669L107.683 112.702C107.522 112.805 107.349 112.912 107.165 113.015C107.106 113.052 107.044 113.085 106.981 113.118C106.819 113.21 106.646 113.301 106.47 113.39C106.293 113.478 106.135 113.551 105.958 113.629L105.668 113.754L105.271 113.908L104.947 114.022C104.726 114.096 104.498 114.165 104.263 114.228L104.09 114.272V96.6338H107.728Z" fill="white"/>
<path id="Vector_7" d="M104.089 100.872H100.342V104.511H104.089V100.872Z" fill="white"/>
</g>
</g>
<defs>
<linearGradient id="paint0_linear_2104_1035" x1="49.1894" y1="62.4869" x2="85.1078" y2="112.472" gradientUnits="userSpaceOnUse">
<stop offset="0.25" stop-color="#96FFFF" stop-opacity="0"/>
<stop offset="1" stop-color="#96FFFF" stop-opacity="0.5"/>
</linearGradient>
<clipPath id="clip0_2104_1035">
<rect width="143.522" height="151.268" fill="white"/>
</clipPath>
</defs>
</svg>
