<svg width="144" height="152" viewBox="0 0 144 152" fill="none" xmlns="http://www.w3.org/2000/svg">
<g clip-path="url(#clip0_1824_961)">
<path d="M21.2444 20.1177C35.0377 28.2806 30.7765 32.3502 27.2128 38.372C23.6491 44.3938 21.8524 49.9218 8.33899 41.9246C1.47898 37.8648 -1.19319 29.6921 2.37053 23.6703C5.93424 17.6485 14.3843 16.0579 21.2444 20.1177Z" fill="white"/>
<path d="M41.4622 21.5125C41.4622 29.1154 38.8104 29.1605 35.5391 29.1605C32.2679 29.1605 29.616 29.1154 29.616 21.5125C29.616 13.9095 33.2463 7.74609 35.5391 7.74609C37.8319 7.74609 41.4622 13.9095 41.4622 21.5125Z" fill="#6A5B3D"/>
<path d="M112.996 21.5125C112.996 29.1154 110.344 29.1605 107.072 29.1605C103.801 29.1605 101.149 29.1154 101.149 21.5125C101.149 13.9095 104.78 7.74609 107.072 7.74609C109.365 7.74609 112.996 13.9095 112.996 21.5125Z" fill="#6A5B3D"/>
<path d="M122.669 20.1177C108.876 28.2806 113.137 32.3502 116.701 38.372C120.265 44.3938 122.061 49.9218 135.575 41.9246C142.435 37.8648 145.107 29.6921 141.543 23.6703C137.979 17.6485 129.529 16.0579 122.669 20.1177Z" fill="#123041"/>
<path d="M126.073 27.074C119.199 31.1424 120.979 32.5899 122.331 34.8746C123.683 37.1594 124.235 39.3337 130.97 35.3478C134.389 33.3244 136.065 29.8319 134.712 27.5471C133.36 25.2624 129.492 25.0505 126.073 27.074Z" fill="#FFC0C1"/>
<path d="M17.4317 27.074C24.3064 31.1424 22.5264 32.5899 21.1742 34.8746C19.8221 37.1594 19.2704 39.3337 12.5352 35.3478C9.11606 33.3244 7.44045 29.8319 8.79258 27.5471C10.1447 25.2624 14.0126 25.0505 17.4317 27.074Z" fill="#FFC0C1"/>
<path d="M112.567 148.375C110.298 149.717 85.0299 149.582 79.925 146.219C73.7136 142.128 71.4386 136.625 72.9357 131.873C76.1495 121.671 83.3802 121.879 91.3536 122.562C99.3271 123.246 122.031 124.389 123.703 128.713C125.641 133.725 118.464 144.888 112.567 148.375Z" fill="#E7EAEE"/>
<path d="M100.448 141.781C110.217 135.284 97.0116 94.7609 87.4698 89.6568C77.9281 84.5527 62.4088 85.326 55.5931 89.6568C48.7775 93.9876 31.935 135.13 41.704 141.781C51.4729 148.431 90.6793 148.277 100.448 141.781Z" fill="white"/>
<path fill-rule="evenodd" clip-rule="evenodd" d="M74.3433 146.669C74.4196 144.272 74.3414 139.378 72.673 136.459C70.0033 131.789 61.2823 128.713 61.2823 128.713C57.7892 128.182 50.2562 125.661 48.0692 119.829C47.1386 117.347 44.9926 115.685 42.5122 114.6C38.6135 126.337 36.7843 138.434 41.7038 141.783C47.0235 145.405 61.0722 147.008 74.3433 146.669Z" fill="#123041"/>
<path d="M97.049 127.082C97.049 139.236 86.6455 142.155 73.8121 142.155C60.9788 142.155 50.5753 139.236 50.5753 127.082C50.5753 111.104 60.9788 102.06 73.8121 102.06C86.6455 102.06 97.049 111.104 97.049 127.082Z" fill="#FFC0C1"/>
<path d="M73.6157 138.055C73.7093 138.055 73.8021 138.037 73.8887 138.002C73.9754 137.967 74.0542 137.915 74.1207 137.849L77.2856 134.666C77.4021 134.531 77.463 134.356 77.4561 134.178C77.4492 134 77.375 133.831 77.2483 133.705C77.1216 133.58 76.9518 133.506 76.7728 133.499C76.5938 133.492 76.4188 133.553 76.2828 133.668L73.1107 136.817C73.0441 136.882 72.9912 136.961 72.955 137.047C72.9189 137.133 72.9004 137.225 72.9004 137.319C72.9004 137.412 72.9189 137.505 72.955 137.591C72.9912 137.677 73.0441 137.755 73.1107 137.821C73.1748 137.892 73.2525 137.949 73.3393 137.989C73.4261 138.029 73.5201 138.051 73.6157 138.055Z" fill="#FF8D8D"/>
<path d="M76.7468 138.055C76.8397 138.055 76.9318 138.037 77.0178 138.002C77.1037 137.967 77.1819 137.915 77.2479 137.85C77.314 137.784 77.3665 137.706 77.4023 137.62C77.4382 137.534 77.4566 137.442 77.4566 137.349C77.4566 137.256 77.4382 137.163 77.4023 137.077C77.3665 136.991 77.314 136.913 77.2479 136.848L74.1076 133.707C74.042 133.641 73.964 133.588 73.878 133.553C73.792 133.517 73.6997 133.498 73.6066 133.498C73.5134 133.498 73.4212 133.517 73.3352 133.553C73.2492 133.588 73.1712 133.641 73.1056 133.707C72.9741 133.839 72.9004 134.018 72.9004 134.205C72.9004 134.391 72.9741 134.57 73.1056 134.702L76.2529 137.85C76.3843 137.98 76.5617 138.054 76.7468 138.055Z" fill="#FF8D8D"/>
<path d="M79.3061 149.743C77.0375 151.085 51.7694 150.949 46.6646 147.587C40.4532 143.496 38.1781 137.993 39.6752 133.241C42.8891 123.039 50.1197 123.247 58.0932 123.93C66.0666 124.614 88.7705 125.757 90.4425 130.081C92.3804 135.093 85.2031 146.256 79.3061 149.743Z" fill="#123041"/>
<path d="M128.943 67.2058C128.943 90.9853 102.867 98.8707 71.1742 98.8707C39.4816 98.8707 13.2138 90.9853 13.2138 67.2058C13.2138 26.6592 39.4816 12.7576 71.1742 12.7576C102.867 12.7576 128.943 24.7285 128.943 67.2058Z" fill="white"/>
<path fill-rule="evenodd" clip-rule="evenodd" d="M75.2005 12.8247C75.4669 20.412 77.0517 30.3629 82.023 34.3873C86.395 37.9265 91.4404 38.8278 95.9489 39.6332C99.8022 40.3215 103.263 40.9398 105.576 43.075C106.806 44.2095 107.896 45.7839 109.076 47.4891C112.634 52.6269 117.015 58.9532 128.497 58.0193C125.1 24.5935 102.67 13.7551 75.2005 12.8247Z" fill="#123041"/>
<path d="M43.2847 62.8765V70.1665" stroke="#123041" stroke-width="6.83437" stroke-linecap="round"/>
<path d="M104.339 62.8765V70.1665" stroke="#123041" stroke-width="6.83437" stroke-linecap="round"/>
<path d="M52.3972 79.8257C52.3972 70.4649 59.9857 62.8765 69.3465 62.8765H77.8211C87.1819 62.8765 94.7704 70.4649 94.7704 79.8257C94.7704 86.0663 89.7114 91.1252 83.4709 91.1252H63.6967C57.4562 91.1252 52.3972 86.0663 52.3972 79.8257Z" fill="#FFC0C1"/>
<path d="M64.6993 75.6328V80.6447" stroke="#123041" stroke-width="4.55625" stroke-linecap="round"/>
<path d="M82.9243 75.6328L82.9243 80.6447" stroke="#123041" stroke-width="4.55625" stroke-linecap="round"/>
<path d="M29.616 80.646H36.4504" stroke="#FFC0C1" stroke-width="9.1125" stroke-linecap="round"/>
<path d="M111.173 80.646H118.008" stroke="#FFC0C1" stroke-width="9.1125" stroke-linecap="round"/>
<path d="M68.6977 119.394C57.1462 121.68 48.2993 110.864 43.264 103.558C42.0012 100.87 43.169 97.1609 45.3157 96.5111C49.1389 95.3539 66.119 98.8153 72.3954 100.764C78.6717 102.713 83.1371 116.536 68.6977 119.394Z" fill="#E7EAEE"/>
<rect width="74.2669" height="6.37875" rx="0.91125" transform="matrix(-1 0 0 1 126.771 119.374)" fill="#173A52"/>
<path d="M134.865 77.4924L36.4258 29.1597L6.83475 99.6277L69.3666 122.563L134.865 77.4924Z" fill="url(#paint0_linear_1824_961)"/>
<path fill-rule="evenodd" clip-rule="evenodd" d="M19.0504 54.1226C18.9535 54.3236 18.8186 54.6732 18.6744 55.2197C18.4757 55.9728 18.2981 56.9444 18.1539 58.0821C17.8661 60.354 17.7262 63.1731 17.7819 65.9983C17.8378 68.8299 18.089 71.6039 18.5587 73.8017C18.794 74.9025 19.0738 75.8086 19.3841 76.4878C19.7075 77.1955 19.9934 77.5001 20.1478 77.6031C20.2092 77.644 20.4091 77.7463 20.8309 77.8715C21.2314 77.9904 21.7509 78.1068 22.3883 78.216C23.6623 78.4344 25.3086 78.6078 27.2207 78.7341C31.0392 78.9863 35.8016 79.0435 40.5253 78.9304C45.2499 78.8172 49.8965 78.5346 53.4845 78.1149C55.2835 77.9045 56.7779 77.664 57.8693 77.4037C58.4174 77.2729 58.8233 77.1467 59.0992 77.0337C59.2052 76.9903 59.2732 76.9563 59.3127 76.935L59.3186 76.9248C59.3484 76.8727 59.3852 76.7994 59.4271 76.7008C59.512 76.5011 59.6026 76.2326 59.6935 75.8893C59.8755 75.201 60.0346 74.3039 60.1632 73.2391C60.4198 71.1143 60.5394 68.4578 60.5254 65.7533C60.5114 63.051 60.3642 60.3436 60.0988 58.1207C59.966 57.0081 59.8063 56.0404 59.626 55.2667C59.4668 54.5838 59.3113 54.1418 59.1918 53.8958C59.159 53.8772 59.1116 53.8524 59.0459 53.8226C58.7859 53.7044 58.3808 53.571 57.8083 53.4372C56.6698 53.1712 55.0847 52.9522 53.1586 52.7857C49.3203 52.4539 44.3312 52.3469 39.3043 52.4177C34.2812 52.4884 29.2636 52.7361 25.3757 53.1048C23.4275 53.2896 21.7937 53.502 20.5959 53.731C19.9941 53.846 19.5384 53.9586 19.2226 54.0618C19.1516 54.085 19.0948 54.1055 19.0504 54.1226ZM60.3654 50.9189C60.4955 50.978 60.6381 51.0483 60.7846 51.1324C63.8604 50.5686 69.678 49.6628 73.4831 49.6628C77.5348 49.6628 84.3128 50.6919 87.4044 51.2369C87.6101 51.1046 87.8149 51.001 87.9956 50.9189C88.5225 50.6795 89.1522 50.4892 89.8269 50.3315C91.1827 50.0147 92.9418 49.7798 94.9277 49.6081C98.9133 49.2636 104.019 49.157 109.101 49.2286C114.188 49.3003 119.293 49.551 123.286 49.9297C125.279 50.1187 127.025 50.3423 128.364 50.5983C129.031 50.7258 129.633 50.868 130.129 51.0301C130.547 51.1668 131.159 51.3974 131.593 51.8313L131.666 51.9045L131.729 51.9865C132.218 52.6228 132.538 53.5266 132.77 54.4061C133.017 55.3393 133.216 56.459 133.371 57.6813C133.681 60.1294 133.826 63.1054 133.768 66.0611C133.71 69.0104 133.448 72.003 132.921 74.4684C132.658 75.6993 132.318 76.8489 131.878 77.8133C131.45 78.7493 130.853 79.6763 129.982 80.2568C129.531 80.5575 128.978 80.7686 128.438 80.929C127.876 81.0957 127.224 81.2374 126.511 81.3596C125.086 81.6039 123.318 81.7865 121.35 81.9165C117.409 82.1768 112.547 82.2335 107.759 82.1189C102.973 82.0042 98.2221 81.7173 94.5059 81.2827C92.6529 81.066 91.0184 80.8081 89.7517 80.506C89.1207 80.3555 88.5401 80.1846 88.0532 79.9852C87.6202 79.8079 87.0425 79.5239 86.6389 79.0396C86.1184 78.4149 85.8027 77.5309 85.5842 76.7051C85.3507 75.8226 85.1698 74.7673 85.0314 73.6215C84.7541 71.3253 84.6317 68.5285 84.6462 65.7368C84.6606 62.9431 84.8124 60.1117 85.0952 57.7427C85.2365 56.5593 85.4132 55.4678 85.6288 54.5426C85.6568 54.4227 85.686 54.3031 85.7164 54.1844C82.3641 53.6302 76.8184 52.8522 73.4831 52.8522C70.4138 52.8522 65.7517 53.5125 62.609 54.0488C62.6525 54.2118 62.6934 54.3768 62.7321 54.5426C62.9477 55.4678 63.1244 56.5593 63.2657 57.7427C63.5485 60.1117 63.7003 62.9431 63.7148 65.7368C63.7292 68.5285 63.6068 71.3253 63.3295 73.6215C63.1911 74.7673 63.0102 75.8226 62.7767 76.7051C62.5582 77.5309 62.2425 78.4149 61.722 79.0396C61.3184 79.5239 60.7407 79.8079 60.3077 79.9852C59.8208 80.1846 59.2402 80.3555 58.6092 80.506C57.3425 80.8081 55.708 81.066 53.855 81.2827C50.1388 81.7173 45.3882 82.0042 40.6017 82.1189C35.8143 82.2335 30.9517 82.1768 27.0105 81.9165C25.0426 81.7865 23.2753 81.6039 21.8495 81.3596C21.1369 81.2374 20.4848 81.0957 19.9232 80.929C19.3828 80.7686 18.8298 80.5575 18.3786 80.2568C17.5079 79.6763 16.9109 78.7493 16.4833 77.8133C16.0426 76.8489 15.7029 75.6993 15.4398 74.4684C14.9128 72.003 14.6514 69.0104 14.5932 66.0611C14.5349 63.1054 14.6797 60.1294 14.9898 57.6813C15.1447 56.459 15.3443 55.3393 15.5906 54.4061C15.8226 53.5266 16.1425 52.6228 16.6321 51.9865L16.6952 51.9045L16.7684 51.8313C17.2023 51.3974 17.8138 51.1668 18.232 51.0301C18.7282 50.868 19.3303 50.7258 19.9971 50.5983C21.3363 50.3423 23.0823 50.1187 25.0746 49.9297C29.0676 49.551 34.1734 49.3003 39.2594 49.2286C44.3417 49.157 49.4476 49.2636 53.4333 49.6081C55.4191 49.7798 57.1782 50.0147 58.5341 50.3315C59.2087 50.4892 59.8384 50.6795 60.3654 50.9189ZM129.687 55.2197C129.542 54.6732 129.407 54.3236 129.311 54.1226C129.266 54.1055 129.209 54.085 129.138 54.0618C128.823 53.9586 128.367 53.846 127.765 53.731C126.567 53.502 124.933 53.2896 122.985 53.1048C119.097 52.7361 114.08 52.4884 109.057 52.4177C104.03 52.3469 99.0406 52.4539 95.2023 52.7857C93.2762 52.9522 91.6911 53.1712 90.5526 53.4372C89.9801 53.571 89.575 53.7044 89.315 53.8226C89.2494 53.8524 89.2019 53.8772 89.1692 53.8958C89.0496 54.1418 88.8941 54.5838 88.7349 55.2667C88.5546 56.0404 88.3949 57.0081 88.2621 58.1207C87.9967 60.3436 87.8495 63.051 87.8355 65.7533C87.8215 68.4578 87.9412 71.1143 88.1978 73.2391C88.3264 74.3039 88.4854 75.201 88.6675 75.8893C88.7583 76.2326 88.849 76.5011 88.9338 76.7008C88.9757 76.7994 89.0126 76.8727 89.0423 76.9248L89.0482 76.935C89.0877 76.9563 89.1557 76.9903 89.2617 77.0337C89.5376 77.1467 89.9435 77.2729 90.4916 77.4037C91.5831 77.664 93.0774 77.9045 94.8765 78.1149C98.4644 78.5346 103.111 78.8172 107.836 78.9304C112.559 79.0435 117.322 78.9863 121.14 78.7341C123.052 78.6078 124.699 78.4344 125.973 78.216C126.61 78.1068 127.13 77.9904 127.53 77.8715C127.952 77.7463 128.152 77.644 128.213 77.6031C128.368 77.5001 128.653 77.1955 128.977 76.4878C129.287 75.8086 129.567 74.9025 129.802 73.8017C130.272 71.6039 130.523 68.8299 130.579 65.9983C130.635 63.1731 130.495 60.354 130.207 58.0821C130.063 56.9444 129.885 55.9728 129.687 55.2197Z" fill="black"/>
<rect width="74.2669" height="48.7519" rx="2.27813" transform="matrix(-1 0 0 1 135.884 77.0005)" fill="#005271"/>
<path d="M95.4798 101.666V97.9016L87.5869 105.798L89.4516 107.702L95.4798 101.666ZM113.465 99.3132C112.88 96.3723 110.67 94.1666 110.416 93.9056L104.991 88.3914L101.891 91.4904L101.67 91.7109V95.4753L104.98 92.1668L108.066 95.3025L108.537 95.7804L108.57 95.8135C108.57 95.8135 108.776 96.0157 109.059 96.3539C109.928 97.3516 110.544 98.5429 110.858 99.8279C111.299 102.034 111.52 104.633 109.059 107.787V111.676C109.291 111.474 109.427 111.331 109.489 111.279C111.696 109.118 113.016 106.934 113.535 104.6C113.894 102.853 113.871 101.05 113.469 99.3132H113.465ZM97.0319 110.934L96.951 110.893H96.9106C96.6702 110.768 96.4412 110.621 96.2265 110.456C96.0242 110.312 95.7777 110.121 95.4909 109.875C95.0421 109.507 94.4831 109.007 93.8026 108.342L92.2763 106.783L90.3932 108.665L91.9122 110.213V110.235C94.2624 112.529 95.4688 113.176 95.9138 113.364C97.323 114.057 98.8502 114.48 100.416 114.61C101.135 114.666 101.858 114.651 102.575 114.566L102.748 114.547V111.849C100.795 112.158 98.7939 111.837 97.0356 110.934H97.0319Z" fill="white"/>
<path d="M100.342 93.0425V109.115H96.8145V96.5716L97.1676 96.2187L97.3588 96.0275L98.4254 94.9614L99.1463 94.2409L99.3817 94.0056L100.106 93.2814L100.342 93.0425Z" fill="white"/>
<path d="M107.728 96.6338V112.669L107.683 112.702C107.522 112.805 107.349 112.912 107.165 113.015C107.106 113.052 107.044 113.085 106.981 113.118C106.819 113.21 106.646 113.301 106.47 113.39C106.293 113.478 106.135 113.551 105.958 113.629L105.668 113.754L105.271 113.908L104.947 114.022C104.726 114.096 104.498 114.165 104.263 114.228L104.09 114.272V96.6338H107.728Z" fill="white"/>
<path d="M104.089 100.872H100.342V104.511H104.089V100.872Z" fill="white"/>
</g>
<defs>
<linearGradient id="paint0_linear_1824_961" x1="49.1894" y1="62.4869" x2="85.1079" y2="112.472" gradientUnits="userSpaceOnUse">
<stop offset="0.25" stop-color="#96FFFF" stop-opacity="0"/>
<stop offset="1" stop-color="#96FFFF" stop-opacity="0.5"/>
</linearGradient>
<clipPath id="clip0_1824_961">
<rect width="143.522" height="151.268" fill="white"/>
</clipPath>
</defs>
</svg>
