<svg width="196" height="204" viewBox="0 0 196 204" fill="none" xmlns="http://www.w3.org/2000/svg">
<g clip-path="url(#clip0_4002_556)">
<path d="M41.2444 69.1177C55.0377 77.2806 50.7765 81.3502 47.2128 87.372C43.6491 93.3938 41.8524 98.9218 28.339 90.9246C21.479 86.8648 18.8068 78.6921 22.3705 72.6703C25.9342 66.6485 34.3843 65.0579 41.2444 69.1177Z" fill="white"/>
<path d="M61.4622 70.5125C61.4622 78.1154 58.8103 78.1605 55.5391 78.1605C52.2678 78.1605 49.616 78.1154 49.616 70.5125C49.616 62.9095 53.2463 56.7461 55.5391 56.7461C57.8319 56.7461 61.4622 62.9095 61.4622 70.5125Z" fill="#6A5B3D"/>
<path d="M132.996 70.5125C132.996 78.1154 130.344 78.1605 127.072 78.1605C123.801 78.1605 121.149 78.1154 121.149 70.5125C121.149 62.9095 124.78 56.7461 127.072 56.7461C129.365 56.7461 132.996 62.9095 132.996 70.5125Z" fill="#6A5B3D"/>
<path d="M142.669 69.1177C128.876 77.2806 133.137 81.3502 136.701 87.372C140.265 93.3938 142.061 98.9218 155.575 90.9246C162.435 86.8648 165.107 78.6921 161.543 72.6703C157.979 66.6485 149.529 65.0579 142.669 69.1177Z" fill="#123041"/>
<path d="M146.073 76.074C139.199 80.1424 140.979 81.5899 142.331 83.8746C143.683 86.1594 144.235 88.3337 150.97 84.3478C154.389 82.3244 156.065 78.8319 154.713 76.5471C153.36 74.2624 149.493 74.0505 146.073 76.074Z" fill="#FFC0C1"/>
<path d="M37.4317 76.074C44.3064 80.1424 42.5264 81.5899 41.1743 83.8746C39.8221 86.1594 39.2704 88.3337 32.5352 84.3478C29.1161 82.3244 27.4405 78.8319 28.7926 76.5471C30.1447 74.2624 34.0126 74.0505 37.4317 76.074Z" fill="#FFC0C1"/>
<path d="M132.566 197.375C130.298 198.717 105.03 198.582 99.925 195.219C93.7136 191.128 91.4386 185.625 92.9356 180.873C96.1495 170.671 103.38 170.879 111.354 171.562C119.327 172.246 142.031 173.389 143.703 177.713C145.641 182.725 138.463 193.888 132.566 197.375Z" fill="#E7EAEE"/>
<path d="M120.448 190.781C130.217 184.284 117.012 143.761 107.47 138.657C97.9281 133.553 82.4087 134.326 75.5931 138.657C68.7775 142.988 51.935 184.13 61.7039 190.781C71.4729 197.431 110.679 197.277 120.448 190.781Z" fill="white"/>
<path fill-rule="evenodd" clip-rule="evenodd" d="M94.3433 195.669C94.4197 193.272 94.3414 188.378 92.673 185.459C90.0034 180.789 81.2824 177.713 81.2824 177.713C77.7893 177.182 70.2563 174.661 68.0693 168.829C67.1387 166.347 64.9926 164.685 62.5123 163.6C58.6135 175.337 56.7844 187.434 61.7039 190.783C67.0236 194.405 81.0723 196.008 94.3433 195.669Z" fill="#123041"/>
<path d="M117.049 176.082C117.049 188.236 106.646 191.155 93.8122 191.155C80.9788 191.155 70.5753 188.236 70.5753 176.082C70.5753 160.104 80.9788 151.06 93.8122 151.06C106.646 151.06 117.049 160.104 117.049 176.082Z" fill="#FFC0C1"/>
<path d="M93.8609 190.461C93.9548 190.461 94.0479 190.443 94.1349 190.407C94.2218 190.371 94.3009 190.318 94.3675 190.251L97.543 186.989C97.6599 186.85 97.721 186.672 97.7141 186.489C97.7071 186.307 97.6327 186.134 97.5056 186.005C97.3785 185.875 97.2081 185.8 97.0286 185.793C96.849 185.786 96.6734 185.848 96.5368 185.967L93.3543 189.192C93.2874 189.26 93.2343 189.34 93.198 189.428C93.1618 189.517 93.1432 189.611 93.1432 189.707C93.1432 189.803 93.1618 189.897 93.198 189.986C93.2343 190.074 93.2874 190.154 93.3543 190.222C93.4185 190.294 93.4965 190.353 93.5836 190.394C93.6706 190.435 93.7649 190.458 93.8609 190.461Z" fill="#FF8D8D"/>
<path d="M97.0025 190.461C97.0957 190.461 97.188 190.443 97.2743 190.407C97.3606 190.371 97.439 190.318 97.5052 190.251C97.5715 190.184 97.6242 190.104 97.6601 190.016C97.6961 189.928 97.7146 189.833 97.7146 189.738C97.7146 189.642 97.6961 189.548 97.6601 189.46C97.6242 189.371 97.5715 189.291 97.5052 189.224L94.3545 186.006C94.2886 185.938 94.2103 185.885 94.1241 185.848C94.0378 185.811 93.9452 185.792 93.8518 185.792C93.7583 185.792 93.6658 185.811 93.5795 185.848C93.4932 185.885 93.4149 185.938 93.3491 186.006C93.2172 186.142 93.1432 186.325 93.1432 186.516C93.1432 186.707 93.2172 186.89 93.3491 187.026L96.5068 190.251C96.6387 190.385 96.8167 190.46 97.0025 190.461V190.461Z" fill="#FF8D8D"/>
<path d="M99.3061 198.743C97.0376 200.085 71.7695 199.949 66.6646 196.587C60.4532 192.496 58.1782 186.993 59.6752 182.241C62.8891 172.039 70.1198 172.247 78.0932 172.93C86.0667 173.614 108.771 174.757 110.443 179.081C112.38 184.093 105.203 195.256 99.3061 198.743Z" fill="#123041"/>
<path d="M148.943 116.206C148.943 139.985 122.867 147.871 91.1742 147.871C59.4816 147.871 33.2139 139.985 33.2139 116.206C33.2139 75.6592 59.4816 61.7576 91.1742 61.7576C122.867 61.7576 148.943 73.7285 148.943 116.206Z" fill="white"/>
<path fill-rule="evenodd" clip-rule="evenodd" d="M95.2004 61.8247C95.4668 69.412 97.0516 79.3629 102.023 83.3873C106.395 86.9265 111.44 87.8278 115.949 88.6332C119.802 89.3215 123.263 89.9398 125.576 92.075C126.805 93.2095 127.896 94.7839 129.076 96.4891C132.634 101.627 137.015 107.953 148.497 107.019C145.1 73.5935 122.67 62.7551 95.2004 61.8247Z" fill="#123041"/>
<path d="M63.2848 111.876V119.166" stroke="#123041" stroke-width="6.83437" stroke-linecap="round"/>
<path d="M124.339 111.876V119.166" stroke="#123041" stroke-width="6.83437" stroke-linecap="round"/>
<path d="M72.3972 128.826C72.3972 119.465 79.9857 111.876 89.3465 111.876H97.8211C107.182 111.876 114.77 119.465 114.77 128.826V128.826C114.77 135.066 109.711 140.125 103.471 140.125H83.6967C77.4562 140.125 72.3972 135.066 72.3972 128.826V128.826Z" fill="#FFC0C1"/>
<path d="M84.6993 124.633V129.645" stroke="#123041" stroke-width="4.55625" stroke-linecap="round"/>
<path d="M102.924 124.633L102.924 129.645" stroke="#123041" stroke-width="4.55625" stroke-linecap="round"/>
<path d="M49.616 129.646H56.4503" stroke="#FFC0C1" stroke-width="9.1125" stroke-linecap="round"/>
<path d="M131.173 129.646H138.008" stroke="#FFC0C1" stroke-width="9.1125" stroke-linecap="round"/>
<path d="M88.6977 168.394C77.1462 170.68 68.2993 159.864 63.264 152.558C62.0012 149.87 63.1691 146.161 65.3158 145.511C69.139 144.354 86.1191 147.815 92.3954 149.764C98.6718 151.713 103.137 165.536 88.6977 168.394Z" fill="#E7EAEE"/>
<rect width="74.2669" height="6.37875" rx="0.91125" transform="matrix(-1 0 0 1 146.771 168.374)" fill="#173A52"/>
<path d="M155.315 128.404L56.5472 78.8792L26.8575 151.086L89.5977 174.587L155.315 128.404Z" fill="url(#paint0_linear_4002_556)"/>
<path fill-rule="evenodd" clip-rule="evenodd" d="M39.0504 103.123C38.9535 103.324 38.8186 103.673 38.6744 104.22C38.4757 104.973 38.2981 105.944 38.154 107.082C37.8661 109.354 37.7263 112.173 37.782 114.998C37.8378 117.83 38.089 120.604 38.5588 122.802C38.794 123.902 39.0738 124.809 39.3842 125.488C39.7076 126.196 39.9934 126.5 40.1478 126.603C40.2093 126.644 40.4091 126.746 40.8309 126.872C41.2314 126.99 41.7509 127.107 42.3883 127.216C43.6624 127.434 45.3086 127.608 47.2207 127.734C51.0393 127.986 55.8016 128.044 60.5254 127.93C65.25 127.817 69.8965 127.535 73.4845 127.115C75.2835 126.904 76.7779 126.664 77.8694 126.404C78.4175 126.273 78.8233 126.147 79.0993 126.034C79.2053 125.99 79.2732 125.956 79.3127 125.935L79.3186 125.925C79.3484 125.873 79.3853 125.799 79.4271 125.701C79.512 125.501 79.6026 125.233 79.6935 124.889C79.8756 124.201 80.0346 123.304 80.1632 122.239C80.4198 120.114 80.5395 117.458 80.5255 114.753C80.5115 112.051 80.3642 109.344 80.0988 107.121C79.966 106.008 79.8064 105.04 79.626 104.267C79.4668 103.584 79.3113 103.142 79.1918 102.896C79.159 102.877 79.1116 102.852 79.0459 102.823C78.7859 102.704 78.3809 102.571 77.8084 102.437C76.6698 102.171 75.0847 101.952 73.1586 101.786C69.3203 101.454 64.3313 101.347 59.3044 101.418C54.2812 101.488 49.2636 101.736 45.3758 102.105C43.4276 102.29 41.7938 102.502 40.5959 102.731C39.9941 102.846 39.5384 102.959 39.2227 103.062C39.1516 103.085 39.0949 103.105 39.0504 103.123ZM80.3654 99.9189C80.4955 99.978 80.6382 100.048 80.7846 100.132C83.8604 99.5686 89.6781 98.6628 93.4832 98.6628C97.5348 98.6628 104.313 99.6919 107.404 100.237C107.61 100.105 107.815 100.001 107.996 99.9189C108.523 99.6795 109.152 99.4892 109.827 99.3315C111.183 99.0147 112.942 98.7798 114.928 98.6081C118.913 98.2636 124.019 98.157 129.102 98.2286C134.188 98.3003 139.293 98.551 143.286 98.9297C145.279 99.1187 147.025 99.3423 148.364 99.5983C149.031 99.7258 149.633 99.868 150.129 100.03C150.547 100.167 151.159 100.397 151.593 100.831L151.666 100.904L151.729 100.987C152.218 101.623 152.538 102.527 152.77 103.406C153.017 104.339 153.216 105.459 153.371 106.681C153.681 109.129 153.826 112.105 153.768 115.061C153.71 118.01 153.448 121.003 152.921 123.468C152.658 124.699 152.318 125.849 151.878 126.813C151.45 127.749 150.853 128.676 149.982 129.257C149.531 129.558 148.978 129.769 148.438 129.929C147.876 130.096 147.224 130.237 146.511 130.36C145.086 130.604 143.318 130.787 141.35 130.917C137.409 131.177 132.547 131.234 127.759 131.119C122.973 131.004 118.222 130.717 114.506 130.283C112.653 130.066 111.018 129.808 109.752 129.506C109.121 129.356 108.54 129.185 108.053 128.985C107.62 128.808 107.043 128.524 106.639 128.04C106.118 127.415 105.803 126.531 105.584 125.705C105.351 124.823 105.17 123.767 105.031 122.622C104.754 120.325 104.632 117.528 104.646 114.737C104.661 111.943 104.812 109.112 105.095 106.743C105.237 105.559 105.413 104.468 105.629 103.543C105.657 103.423 105.686 103.303 105.716 103.184C102.364 102.63 96.8185 101.852 93.4832 101.852C90.4138 101.852 85.7517 102.513 82.6091 103.049C82.6525 103.212 82.6935 103.377 82.7321 103.543C82.9478 104.468 83.1245 105.559 83.2657 106.743C83.5485 109.112 83.7003 111.943 83.7148 114.737C83.7292 117.528 83.6069 120.325 83.3295 122.622C83.1912 123.767 83.0102 124.823 82.7768 125.705C82.5583 126.531 82.2426 127.415 81.722 128.04C81.3184 128.524 80.7408 128.808 80.3078 128.985C79.8208 129.185 79.2402 129.356 78.6093 129.506C77.3425 129.808 75.7081 130.066 73.855 130.283C70.1388 130.717 65.3882 131.004 60.6017 131.119C55.8144 131.234 50.9517 131.177 47.0105 130.917C45.0427 130.787 43.2753 130.604 41.8495 130.36C41.1369 130.237 40.4849 130.096 39.9232 129.929C39.3828 129.769 38.8298 129.558 38.3787 129.257C37.5079 128.676 36.911 127.749 36.4833 126.813C36.0426 125.849 35.7029 124.699 35.4398 123.468C34.9129 121.003 34.6514 118.01 34.5932 115.061C34.5349 112.105 34.6797 109.129 34.9899 106.681C35.1447 105.459 35.3444 104.339 35.5906 103.406C35.8226 102.527 36.1426 101.623 36.6321 100.987L36.6952 100.904L36.7684 100.831C37.2023 100.397 37.8138 100.167 38.232 100.03C38.7282 99.868 39.3304 99.7258 39.9971 99.5983C41.3363 99.3423 43.0823 99.1187 45.0746 98.9297C49.0676 98.551 54.1735 98.3003 59.2595 98.2286C64.3417 98.157 69.4476 98.2636 73.4333 98.6081C75.4191 98.7798 77.1783 99.0147 78.5341 99.3315C79.2088 99.4892 79.8384 99.6795 80.3654 99.9189ZM149.687 104.22C149.542 103.673 149.407 103.324 149.311 103.123C149.266 103.105 149.209 103.085 149.138 103.062C148.823 102.959 148.367 102.846 147.765 102.731C146.567 102.502 144.933 102.29 142.985 102.105C139.097 101.736 134.08 101.488 129.057 101.418C124.03 101.347 119.041 101.454 115.202 101.786C113.276 101.952 111.691 102.171 110.553 102.437C109.98 102.571 109.575 102.704 109.315 102.823C109.249 102.852 109.202 102.877 109.169 102.896C109.05 103.142 108.894 103.584 108.735 104.267C108.555 105.04 108.395 106.008 108.262 107.121C107.997 109.344 107.85 112.051 107.836 114.753C107.822 117.458 107.941 120.114 108.198 122.239C108.326 123.304 108.485 124.201 108.668 124.889C108.758 125.233 108.849 125.501 108.934 125.701C108.976 125.799 109.013 125.873 109.042 125.925L109.048 125.935C109.088 125.956 109.156 125.99 109.262 126.034C109.538 126.147 109.944 126.273 110.492 126.404C111.583 126.664 113.077 126.904 114.876 127.115C118.464 127.535 123.111 127.817 127.836 127.93C132.559 128.044 137.322 127.986 141.14 127.734C143.052 127.608 144.699 127.434 145.973 127.216C146.61 127.107 147.13 126.99 147.53 126.872C147.952 126.746 148.152 126.644 148.213 126.603C148.368 126.5 148.653 126.196 148.977 125.488C149.287 124.809 149.567 123.902 149.802 122.802C150.272 120.604 150.523 117.83 150.579 114.998C150.635 112.173 150.495 109.354 150.207 107.082C150.063 105.944 149.885 104.973 149.687 104.22Z" fill="black"/>
<rect width="74.2669" height="48.7519" rx="2.27813" transform="matrix(-1 0 0 1 155.884 126)" fill="#005271"/>
<path d="M115.798 153.175V149.317L107.879 157.409L109.75 159.36L115.798 153.175ZM133.843 150.764C133.256 147.75 131.039 145.49 130.784 145.223L125.341 139.573L122.23 142.748L122.009 142.974V146.831L125.33 143.441L128.426 146.654L128.898 147.144L128.932 147.178C128.932 147.178 129.138 147.385 129.422 147.732C130.294 148.754 130.913 149.975 131.227 151.291C131.67 153.551 131.891 156.215 129.422 159.447V163.432C129.655 163.225 129.791 163.078 129.854 163.025C132.068 160.81 133.393 158.573 133.913 156.181C134.273 154.391 134.251 152.544 133.847 150.764H133.843ZM117.355 162.671L117.274 162.63H117.233C116.992 162.501 116.763 162.351 116.547 162.181C116.344 162.034 116.097 161.838 115.809 161.586C115.359 161.209 114.798 160.697 114.115 160.015L112.584 158.418L110.694 160.347L112.218 161.933V161.955C114.576 164.306 115.787 164.969 116.233 165.161C117.647 165.872 119.18 166.305 120.75 166.438C121.472 166.495 122.198 166.48 122.916 166.393L123.09 166.374V163.609C121.13 163.926 119.123 163.597 117.359 162.671H117.355Z" fill="white"/>
<path d="M120.676 144.338V160.807H117.137V147.955L117.491 147.593L117.683 147.397L118.753 146.305L119.477 145.566L119.713 145.325L120.44 144.583L120.676 144.338Z" fill="white"/>
<path d="M128.087 148.018V164.449L128.042 164.483C127.88 164.589 127.706 164.698 127.522 164.803C127.463 164.841 127.4 164.875 127.337 164.909C127.175 165.003 127.002 165.097 126.824 165.188C126.647 165.278 126.489 165.353 126.312 165.433L126.02 165.561L125.621 165.719L125.297 165.836C125.075 165.911 124.846 165.983 124.61 166.047L124.437 166.092V148.018H128.087Z" fill="white"/>
<path d="M124.436 152.361H120.676V156.09H124.436V152.361Z" fill="white"/>
</g>
<defs>
<linearGradient id="paint0_linear_4002_556" x1="69.3533" y1="113.029" x2="106.399" y2="163.508" gradientUnits="userSpaceOnUse">
<stop offset="0.25" stop-color="#96FFFF" stop-opacity="0"/>
<stop offset="1" stop-color="#96FFFF" stop-opacity="0.5"/>
</linearGradient>
<clipPath id="clip0_4002_556">
<rect width="144" height="155" fill="white" transform="translate(20 49)"/>
</clipPath>
</defs>
</svg>
