<svg width="1440" height="222" viewBox="0 0 1440 222" fill="none" xmlns="http://www.w3.org/2000/svg">
<path fill-rule="evenodd" clip-rule="evenodd" d="M1271 68.5C1271 53.8645 1282.86 42 1297.5 42H1376.5C1391.69 42 1404 54.3122 1404 69.5C1404 84.6878 1416.31 97 1431.5 97H1526C1548.09 97 1566 114.909 1566 137V201C1566 223.091 1548.09 241 1526 241H1446C1423.91 241 1406 258.909 1406 281V329.5C1406 336.956 1399.96 343 1392.5 343C1385.04 343 1379 336.956 1379 329.5V319C1379 305.745 1368.25 295 1355 295H1288.5C1278.83 295 1271 287.165 1271 277.5C1271 267.835 1263.17 260 1253.5 260H1214C1191.91 260 1174 277.909 1174 300V350.5C1174 357.404 1168.4 363 1161.5 363C1154.6 363 1149 357.404 1149 350.5V321C1149 298.909 1131.09 281 1109 281H992.5C983.94 281 977 287.94 977 296.5C977 305.06 970.06 312 961.5 312H702C692.059 312 684 320.059 684 330V335.5C684 342.404 678.404 348 671.5 348C664.596 348 659 342.404 659 335.5V321.5C659 306.864 647.136 295 632.5 295H552C533.775 295 519 309.775 519 328V348.5C519 355.404 513.404 361 506.5 361C499.596 361 494 355.404 494 348.5V314.5C494 294.894 478.106 279 458.5 279H442C431.507 279 423 287.507 423 298C423 308.493 414.493 317 404 317H270.5C259.178 317 250 307.822 250 296.5C250 285.178 240.822 276 229.5 276H142C119.909 276 102 293.909 102 316V350.5C102 357.404 96.4036 363 89.5 363C82.5964 363 77 357.404 77 350.5V295C77 272.909 59.0914 255 37 255H23C0.908611 255 -17 237.091 -17 215V107C-17 84.9086 0.908611 67 23 67H119.5C138.554 67 154 82.4462 154 101.5C154 120.554 169.446 136 188.5 136H228C240.15 136 250 126.15 250 114C250 101.85 259.85 92 272 92H387C406.882 92 423 108.118 423 128C423 147.882 439.118 164 459 164H500C513.807 164 525 175.193 525 189C525 202.807 536.193 214 550 214H665H675H908C930.091 214 948 196.091 948 174C948 151.909 965.909 134 988 134H1022.5C1033.27 134 1042 125.27 1042 114.5C1042 103.73 1050.73 95 1061.5 95H1244.5C1259.14 95 1271 83.1355 1271 68.5Z" fill="#AFD157"/>
<path d="M1095 30H1105C1127.09 30 1145 47.9086 1145 70V80H1135C1112.91 80 1095 62.0914 1095 40V30Z" fill="#AFD157"/>
<path d="M1195 30H1185C1162.91 30 1145 47.9086 1145 70V80H1155C1177.09 80 1195 62.0914 1195 40V30Z" fill="#AFD157"/>
<path d="M977 161H987C1009.09 161 1027 178.909 1027 201V211H1017C994.909 211 977 193.091 977 171V161Z" fill="#7BAD34"/>
<path d="M1077 161H1067C1044.91 161 1027 178.909 1027 201V211H1037C1059.09 211 1077 193.091 1077 171V161Z" fill="#7BAD34"/>
<path d="M1389 114H1399C1421.09 114 1439 131.909 1439 154V164H1429C1406.91 164 1389 146.091 1389 124V114Z" fill="#7BAD34"/>
<path d="M81 181H71C48.9086 181 31 198.909 31 221V231H41C63.0914 231 81 213.091 81 191V181Z" fill="#7BAD34"/>
<path d="M54 0H64C86.0914 0 104 17.9086 104 40V50H94C71.9086 50 54 32.0914 54 10V0Z" fill="#7BAD34"/>
<path d="M154 0H144C121.909 0 104 17.9086 104 40V50H114C136.091 50 154 32.0914 154 10V0Z" fill="#7BAD34"/>
<path d="M972 65H982C1004.09 65 1022 82.9086 1022 105V115H1012C989.909 115 972 97.0914 972 75V65Z" fill="#AFD157"/>
<path fill-rule="evenodd" clip-rule="evenodd" d="M235.085 111.582C229.241 105.738 219.766 105.738 213.921 111.582C209.297 116.207 208.332 123.105 211.026 128.679C211.128 128.89 210.89 129.128 210.679 129.026C205.106 126.332 198.207 127.297 193.583 131.922C187.739 137.766 187.739 147.241 193.583 153.086C198.207 157.71 205.105 158.675 210.679 155.981C210.89 155.879 211.128 156.118 211.026 156.328C208.332 161.902 209.297 168.8 213.921 173.425C219.766 179.269 229.241 179.269 235.085 173.425C239.71 168.8 240.675 161.902 237.981 156.328C237.879 156.118 238.117 155.879 238.328 155.981C243.901 158.675 250.799 157.71 255.424 153.086C261.268 147.241 261.268 137.766 255.424 131.922C250.799 127.297 243.901 126.332 238.328 129.026C238.117 129.128 237.879 128.89 237.981 128.679C240.675 123.105 239.71 116.207 235.085 111.582Z" fill="#FF686B"/>
<circle cx="224.501" cy="142.778" r="6.21932" transform="rotate(45 224.501 142.778)" fill="#E23636"/>
<path fill-rule="evenodd" clip-rule="evenodd" d="M1209.09 125.582C1203.24 119.738 1193.77 119.738 1187.92 125.582C1183.3 130.207 1182.33 137.105 1185.03 142.679C1185.13 142.89 1184.89 143.128 1184.68 143.026C1179.11 140.332 1172.21 141.297 1167.58 145.922C1161.74 151.766 1161.74 161.241 1167.58 167.086C1172.21 171.71 1179.11 172.675 1184.68 169.981C1184.89 169.879 1185.13 170.118 1185.03 170.328C1182.33 175.902 1183.3 182.8 1187.92 187.425C1193.77 193.269 1203.24 193.269 1209.09 187.425C1213.71 182.8 1214.68 175.902 1211.98 170.328C1211.88 170.118 1212.12 169.879 1212.33 169.981C1217.9 172.675 1224.8 171.71 1229.42 167.086C1235.27 161.241 1235.27 151.766 1229.42 145.922C1224.8 141.297 1217.9 140.332 1212.33 143.026C1212.12 143.128 1211.88 142.89 1211.98 142.679C1214.68 137.105 1213.71 130.207 1209.09 125.582Z" fill="#FFC53D"/>
<circle cx="1198.5" cy="156.778" r="6.21932" transform="rotate(45 1198.5 156.778)" fill="#E98B2D"/>
</svg>
