<svg width="103" height="29" viewBox="0 0 103 29" fill="none" xmlns="http://www.w3.org/2000/svg">
<path d="M0 15C0 13.3431 1.34315 12 3 12H69C70.6569 12 72 13.3431 72 15C72 16.6569 70.6569 18 69 18H3C1.34315 18 0 16.6569 0 15Z" fill="#7BAD34"/>
<rect x="80.8809" y="21.7188" width="21.7198" height="6.61036" rx="3.30518" fill="#7BAD34"/>
<path d="M61.0488 3.30518C61.0488 1.47978 62.5286 0 64.354 0H86.0738C87.8992 0 89.3789 1.47978 89.3789 3.30518C89.3789 5.13058 87.8992 6.61036 86.0738 6.61036H64.354C62.5286 6.61036 61.0488 5.13058 61.0488 3.30518Z" fill="#7BAD34"/>
<path d="M29 0H31.5263C37.1073 0 41.6316 4.52428 41.6316 10.1053V12.6316H39.1053C33.5243 12.6316 29 8.1073 29 2.52632V0Z" fill="#7BAD34"/>
<path d="M54.2632 0H51.7369C46.1559 0 41.6316 4.52428 41.6316 10.1053V12.6316H44.1579C49.7389 12.6316 54.2632 8.1073 54.2632 2.52632V0Z" fill="#7BAD34"/>
</svg>
