<svg width="371" height="258" viewBox="0 0 371 258" fill="none" xmlns="http://www.w3.org/2000/svg">
<g clip-path="url(#clip0_1490_2495)">
<ellipse cx="142.584" cy="66.1505" rx="13.0198" ry="14.0305" transform="rotate(-28.6896 142.584 66.1505)" fill="#5BB42B"/>
<ellipse cx="13.0198" cy="14.0305" rx="13.0198" ry="14.0305" transform="matrix(-0.877234 -0.480064 -0.480064 0.877234 217.307 59.7305)" fill="#5BB42B"/>
<path d="M190.574 157.8C192.91 156.845 195.185 144.117 194.724 137.781L172.284 141.363C171.823 146.505 171.793 156.992 172.899 157.8C174.282 158.81 187.654 158.994 190.574 157.8Z" fill="#4B9B3A"/>
<path d="M192.328 143.703C199.312 139.058 189.871 110.088 183.05 106.439C176.228 102.79 165.134 103.343 160.261 106.439C155.389 109.535 143.348 138.948 150.332 143.703C157.316 148.457 185.344 148.347 192.328 143.703Z" fill="#49B236"/>
<path d="M152.414 157.8C150.078 156.845 147.803 144.117 148.265 137.781L170.704 141.363C171.165 146.505 171.196 156.992 170.089 157.8C168.706 158.81 155.334 158.994 152.414 157.8Z" fill="#49B236"/>
<path d="M189.246 132.376C189.246 142.25 181.809 144.622 172.634 144.622C163.46 144.622 156.022 142.25 156.022 132.376C156.022 119.396 163.46 112.049 172.634 112.049C181.809 112.049 189.246 119.396 189.246 132.376Z" fill="#9CD43D"/>
<path d="M173.146 139.41C173.213 139.41 173.279 139.397 173.341 139.372C173.403 139.347 173.459 139.31 173.507 139.263L175.769 136.987C175.853 136.89 175.896 136.766 175.891 136.639C175.886 136.511 175.833 136.391 175.743 136.3C175.652 136.21 175.531 136.158 175.403 136.153C175.275 136.148 175.15 136.191 175.052 136.274L172.785 138.525C172.737 138.572 172.699 138.627 172.673 138.689C172.648 138.751 172.634 138.817 172.634 138.884C172.634 138.95 172.648 139.016 172.673 139.078C172.699 139.14 172.737 139.196 172.785 139.243C172.831 139.293 172.886 139.334 172.948 139.363C173.01 139.391 173.077 139.407 173.146 139.41Z" fill="#49B236"/>
<path d="M175.384 139.41C175.451 139.41 175.516 139.397 175.578 139.372C175.639 139.347 175.695 139.31 175.742 139.263C175.79 139.216 175.827 139.161 175.853 139.099C175.878 139.038 175.892 138.972 175.892 138.905C175.892 138.838 175.878 138.772 175.853 138.711C175.827 138.65 175.79 138.594 175.742 138.547L173.497 136.302C173.451 136.254 173.395 136.217 173.333 136.191C173.272 136.166 173.206 136.152 173.139 136.152C173.073 136.152 173.007 136.166 172.945 136.191C172.884 136.217 172.828 136.254 172.781 136.302C172.687 136.396 172.634 136.524 172.634 136.657C172.634 136.791 172.687 136.918 172.781 137.013L175.031 139.263C175.125 139.356 175.252 139.409 175.384 139.41Z" fill="#49B236"/>
<path d="M213.025 88.6836C213.025 105.863 194.09 111.56 171.076 111.56C148.062 111.56 128.988 105.863 128.988 88.6836C128.988 64.0045 148.062 53.4185 171.076 53.4185C194.09 53.4185 213.025 62.0502 213.025 88.6836Z" fill="#5BB42B"/>
<path d="M144.948 71.0078V76.2194" stroke="#123041" stroke-width="4.88587" stroke-linecap="round"/>
<path d="M200.321 70.356V75.5676" stroke="#123041" stroke-width="4.88587" stroke-linecap="round"/>
<path d="M137.782 82.7339H143.32" stroke="#A1DC3C" stroke-width="6.51449" stroke-linecap="round"/>
<path d="M198.042 82.7339H203.579" stroke="#A1DC3C" stroke-width="6.51449" stroke-linecap="round"/>
<path d="M178.824 77.5401C178.824 73.6265 178.824 71.659 171.495 71.659C164.166 71.659 164.166 73.2769 164.166 77.5401C164.166 84.5251 167.447 88.5967 171.495 88.5967C175.542 88.5967 178.824 84.0365 178.824 77.5401Z" fill="#D52C2F"/>
<path fill-rule="evenodd" clip-rule="evenodd" d="M164.178 78.2629C164.396 84.8052 167.589 88.5967 171.495 88.5967C174.33 88.5967 176.789 86.3589 178.008 82.7853C176.591 81.129 174.493 79.6927 171.96 78.8046C169.197 77.8361 166.432 77.7003 164.178 78.2629Z" fill="#FF686B"/>
</g>
<g clip-path="url(#clip1_1490_2495)">
<path d="M136.356 119.264C146.217 125.1 143.171 128.009 140.623 132.314C138.075 136.619 136.791 140.571 127.13 134.854C122.226 131.951 120.316 126.109 122.863 121.804C125.411 117.499 131.452 116.362 136.356 119.264Z" fill="white"/>
<path d="M150.811 120.262C150.811 125.697 148.915 125.729 146.576 125.729C144.238 125.729 142.342 125.697 142.342 120.262C142.342 114.827 144.937 110.42 146.576 110.42C148.215 110.42 150.811 114.827 150.811 120.262Z" fill="#6A5B3D"/>
<path d="M201.95 120.262C201.95 125.697 200.054 125.729 197.715 125.729C195.377 125.729 193.481 125.697 193.481 120.262C193.481 114.827 196.076 110.42 197.715 110.42C199.355 110.42 201.95 114.827 201.95 120.262Z" fill="#6A5B3D"/>
<path d="M208.865 119.264C199.004 125.1 202.05 128.009 204.598 132.314C207.146 136.619 208.43 140.571 218.091 134.854C222.995 131.951 224.905 126.109 222.358 121.804C219.81 117.499 213.769 116.362 208.865 119.264Z" fill="#123041"/>
<path d="M211.299 124.239C206.384 127.147 207.657 128.182 208.623 129.816C209.59 131.449 209.984 133.003 214.799 130.154C217.244 128.707 218.441 126.211 217.475 124.577C216.508 122.944 213.743 122.792 211.299 124.239Z" fill="#FFC0C1"/>
<path d="M133.631 124.239C138.546 127.147 137.273 128.182 136.306 129.816C135.34 131.449 134.945 133.003 130.13 130.154C127.686 128.707 126.488 126.211 127.455 124.577C128.421 122.944 131.187 122.792 133.631 124.239Z" fill="#FFC0C1"/>
<path d="M201.642 210.956C200.02 211.915 181.956 211.819 178.307 209.415C173.866 206.49 172.24 202.556 173.31 199.159C175.608 191.866 180.777 192.014 186.477 192.503C192.177 192.991 208.408 193.808 209.603 196.9C210.989 200.483 205.858 208.463 201.642 210.956Z" fill="#E7EAEE"/>
<path d="M192.979 206.242C199.962 201.597 190.522 172.627 183.7 168.978C176.879 165.33 165.784 165.882 160.912 168.978C156.039 172.075 143.999 201.487 150.983 206.242C157.966 210.996 185.995 210.886 192.979 206.242Z" fill="white"/>
<path fill-rule="evenodd" clip-rule="evenodd" d="M174.317 209.735C174.372 208.021 174.315 204.523 173.123 202.437C171.215 199.099 164.98 196.9 164.98 196.9C162.483 196.52 157.097 194.718 155.534 190.548C154.869 188.774 153.334 187.586 151.56 186.81C148.773 195.201 147.466 203.847 150.983 206.242C154.786 208.831 164.83 209.977 174.317 209.735Z" fill="#123041"/>
<path d="M190.548 195.733C190.548 204.422 183.111 206.509 173.936 206.509C164.762 206.509 157.324 204.422 157.324 195.733C157.324 184.311 164.762 177.845 173.936 177.845C183.111 177.845 190.548 184.311 190.548 195.733Z" fill="#FFC0C1"/>
<path d="M173.797 203.578C173.864 203.578 173.93 203.565 173.992 203.54C174.054 203.515 174.11 203.478 174.158 203.431L176.42 201.155C176.504 201.058 176.547 200.934 176.542 200.807C176.537 200.679 176.484 200.559 176.394 200.468C176.303 200.378 176.182 200.326 176.054 200.321C175.926 200.316 175.801 200.359 175.703 200.442L173.436 202.692C173.388 202.74 173.35 202.795 173.324 202.857C173.299 202.919 173.285 202.985 173.285 203.052C173.285 203.118 173.299 203.184 173.324 203.246C173.35 203.308 173.388 203.364 173.436 203.411C173.481 203.461 173.537 203.502 173.599 203.531C173.661 203.559 173.728 203.575 173.797 203.578Z" fill="#FF8D8D"/>
<path d="M176.035 203.578C176.101 203.578 176.167 203.565 176.229 203.54C176.29 203.515 176.346 203.478 176.393 203.431C176.441 203.384 176.478 203.329 176.504 203.267C176.529 203.206 176.542 203.14 176.542 203.073C176.542 203.006 176.529 202.94 176.504 202.879C176.478 202.817 176.441 202.762 176.393 202.715L174.148 200.47C174.101 200.422 174.046 200.385 173.984 200.359C173.923 200.333 173.857 200.32 173.79 200.32C173.724 200.32 173.658 200.333 173.596 200.359C173.535 200.385 173.479 200.422 173.432 200.47C173.338 200.564 173.285 200.692 173.285 200.825C173.285 200.959 173.338 201.086 173.432 201.181L175.682 203.431C175.776 203.524 175.903 203.577 176.035 203.578Z" fill="#FF8D8D"/>
<path d="M177.864 211.934C176.242 212.893 158.178 212.796 154.529 210.392C150.088 207.468 148.462 203.534 149.532 200.137C151.83 192.843 156.999 192.992 162.699 193.48C168.399 193.969 184.63 194.786 185.826 197.878C187.211 201.46 182.08 209.441 177.864 211.934Z" fill="#123041"/>
<path d="M213.35 152.928C213.35 169.928 194.709 175.565 172.052 175.565C149.395 175.565 130.616 169.928 130.616 152.928C130.616 123.942 149.395 114.003 172.052 114.003C194.709 114.003 213.35 122.561 213.35 152.928Z" fill="white"/>
<path fill-rule="evenodd" clip-rule="evenodd" d="M174.931 114.051C175.121 119.476 176.254 126.59 179.808 129.467C182.934 131.997 186.541 132.642 189.764 133.218C192.518 133.71 194.993 134.152 196.646 135.678C197.525 136.489 198.304 137.615 199.149 138.834C201.692 142.507 204.824 147.029 213.032 146.362C210.604 122.465 194.569 114.716 174.931 114.051Z" fill="#123041"/>
<path d="M152.113 149.833V155.045" stroke="#123041" stroke-width="4.88587" stroke-linecap="round"/>
<path d="M195.76 149.833V155.045" stroke="#123041" stroke-width="4.88587" stroke-linecap="round"/>
<path d="M158.628 161.95C158.628 155.258 164.053 149.833 170.745 149.833H176.803C183.495 149.833 188.92 155.258 188.92 161.95C188.92 166.411 185.304 170.028 180.842 170.028H166.706C162.245 170.028 158.628 166.411 158.628 161.95Z" fill="#FFC0C1"/>
<path d="M167.422 158.954V162.537" stroke="black" stroke-width="3.25725" stroke-linecap="round"/>
<path d="M180.451 158.954L180.451 162.537" stroke="black" stroke-width="3.25725" stroke-linecap="round"/>
<path d="M142.342 162.536H147.228" stroke="#FFC0C1" stroke-width="6.51449" stroke-linecap="round"/>
<path d="M200.646 162.536H205.532" stroke="#FFC0C1" stroke-width="6.51449" stroke-linecap="round"/>
<path d="M170.281 190.237C162.023 191.872 155.698 184.14 152.098 178.917C151.195 176.995 152.03 174.343 153.565 173.879C156.298 173.051 168.437 175.526 172.924 176.919C177.411 178.312 180.603 188.194 170.281 190.237Z" fill="#E7EAEE"/>
<rect width="53.0931" height="4.56015" rx="0.651449" transform="matrix(-1 0 0 1 211.798 190.223)" fill="#173A52"/>
<path d="M217.584 160.282L147.21 125.729L126.055 176.107L170.759 192.503L217.584 160.282Z" fill="url(#paint0_linear_1490_2495)"/>
<rect width="53.0931" height="34.8525" rx="1.62862" transform="matrix(-1 0 0 1 218.312 159.93)" fill="#005271"/>
<path d="M189.427 177.564V174.873L183.785 180.518L185.118 181.879L189.427 177.564ZM202.285 175.882C201.867 173.779 200.287 172.202 200.105 172.016L196.227 168.074L194.01 170.289L193.853 170.447V173.138L196.219 170.773L198.425 173.015L198.762 173.356L198.785 173.38C198.785 173.38 198.933 173.524 199.135 173.766C199.756 174.479 200.197 175.331 200.421 176.25C200.736 177.827 200.894 179.685 199.135 181.939V184.72C199.301 184.575 199.398 184.473 199.443 184.436C201.02 182.891 201.964 181.33 202.335 179.661C202.592 178.412 202.575 177.123 202.288 175.882H202.285ZM190.537 184.189L190.479 184.16H190.45C190.278 184.07 190.115 183.966 189.961 183.847C189.816 183.745 189.64 183.608 189.435 183.432C189.114 183.169 188.715 182.812 188.228 182.336L187.137 181.222L185.791 182.568L186.877 183.674V183.69C188.557 185.33 189.419 185.792 189.738 185.926C190.745 186.422 191.837 186.724 192.956 186.817C193.47 186.857 193.987 186.847 194.499 186.786L194.623 186.772V184.843C193.227 185.065 191.797 184.835 190.54 184.189H190.537Z" fill="white"/>
<path d="M192.904 171.398V182.888H190.382V173.921L190.635 173.669L190.771 173.532L191.534 172.77L192.049 172.255L192.218 172.087L192.736 171.569L192.904 171.398Z" fill="white"/>
<path d="M198.183 173.966V185.429L198.152 185.453C198.036 185.527 197.913 185.603 197.781 185.677C197.739 185.703 197.694 185.726 197.65 185.75C197.534 185.816 197.41 185.882 197.284 185.945C197.158 186.008 197.045 186.06 196.919 186.115L196.711 186.205L196.427 186.315L196.196 186.397C196.038 186.449 195.875 186.499 195.707 186.544L195.583 186.575V173.966H198.183Z" fill="white"/>
<path d="M195.583 176.996H192.903V179.598H195.583V176.996Z" fill="white"/>
<path d="M167.328 113.189C168.049 115.882 164.235 119.284 159.022 120.681C153.809 122.077 149.172 120.941 148.45 118.247C147.228 113.685 149.901 109.06 155.764 107.489C161.628 105.918 166.063 108.47 167.328 113.189Z" fill="#4F9A15"/>
<path d="M177.276 113.092C176.554 115.786 180.369 119.187 185.582 120.584C190.794 121.981 195.432 120.844 196.153 118.151C197.376 113.589 194.702 108.963 188.839 107.392C182.976 105.821 178.54 108.373 177.276 113.092Z" fill="#4F9A15"/>
</g>
<g clip-path="url(#clip2_1490_2495)">
<path d="M242.314 211.871C239.978 210.916 237.703 198.188 238.164 191.852L260.604 195.433C261.065 200.576 261.096 211.062 259.989 211.871C258.606 212.881 245.234 213.064 242.314 211.871Z" fill="#E7EAEE"/>
<path d="M240.56 197.773C233.577 193.129 243.017 164.159 249.839 160.51C256.66 156.861 267.755 157.414 272.627 160.51C277.5 163.606 289.54 193.019 282.556 197.773C275.573 202.528 247.544 202.417 240.56 197.773Z" fill="white"/>
<path d="M280.474 211.871C282.81 210.916 285.085 198.188 284.624 191.852L262.184 195.433C261.723 200.576 261.693 211.062 262.799 211.871C264.182 212.881 277.554 213.064 280.474 211.871Z" fill="white"/>
<path d="M243.642 187.916C243.642 196.605 251.08 198.692 260.254 198.692C269.429 198.692 276.866 196.605 276.866 187.916C276.866 176.494 269.429 170.028 260.254 170.028C251.08 170.028 243.642 176.494 243.642 187.916Z" fill="#E7EAEE"/>
<path d="M259.743 193.481C259.676 193.481 259.61 193.468 259.548 193.443C259.486 193.418 259.429 193.381 259.382 193.334L257.119 191.058C257.036 190.962 256.993 190.837 256.997 190.71C257.002 190.583 257.055 190.462 257.146 190.372C257.237 190.282 257.358 190.229 257.486 190.224C257.614 190.219 257.739 190.262 257.836 190.345L260.104 192.596C260.152 192.643 260.189 192.699 260.215 192.76C260.241 192.822 260.254 192.888 260.254 192.955C260.254 193.022 260.241 193.088 260.215 193.149C260.189 193.211 260.152 193.267 260.104 193.314C260.058 193.365 260.003 193.405 259.941 193.434C259.878 193.463 259.811 193.479 259.743 193.481Z" fill="#FFC0C1"/>
<path d="M257.504 193.481C257.438 193.481 257.372 193.469 257.311 193.443C257.249 193.418 257.193 193.381 257.146 193.335C257.099 193.288 257.061 193.232 257.036 193.17C257.01 193.109 256.997 193.043 256.997 192.976C256.997 192.91 257.01 192.844 257.036 192.782C257.061 192.721 257.099 192.665 257.146 192.618L259.391 190.373C259.438 190.326 259.494 190.288 259.555 190.262C259.617 190.237 259.683 190.224 259.749 190.224C259.816 190.224 259.882 190.237 259.943 190.262C260.005 190.288 260.061 190.326 260.108 190.373C260.202 190.467 260.254 190.595 260.254 190.729C260.254 190.862 260.202 190.99 260.108 191.084L257.858 193.335C257.764 193.428 257.637 193.48 257.504 193.481Z" fill="#FFC0C1"/>
<path d="M290.091 95.4253C287.485 103.872 276.327 120.409 273.967 127.324H251.655C249.295 120.409 238.998 103.872 235.695 95.4253C231.598 84.9496 235.859 71.334 247.366 71.334C256.867 71.334 261.318 87.0231 262.567 95.4253C263.816 87.0231 268.593 71.334 277.768 71.334C289.275 71.334 293.407 84.6769 290.091 95.4253Z" fill="white"/>
<path d="M222.471 143.482C222.471 160.482 241.112 166.12 263.769 166.12C286.426 166.12 305.205 160.482 305.205 143.482C305.205 114.496 286.426 104.558 263.769 104.558C241.112 104.558 222.471 113.116 222.471 143.482Z" fill="white"/>
<path d="M279.146 138.433V143.645" stroke="#123041" stroke-width="4.88587" stroke-linecap="round"/>
<path d="M239.734 138.433V143.645" stroke="#123041" stroke-width="4.88587" stroke-linecap="round"/>
<path d="M288.918 151.136H284.032" stroke="#FFC0C1" stroke-width="6.51449" stroke-linecap="round"/>
<path d="M234.848 151.136H229.962" stroke="#FFC0C1" stroke-width="6.51449" stroke-linecap="round"/>
<path d="M254.066 151.937C254.066 154.873 254.066 156.348 259.44 156.348C264.814 156.348 264.814 155.135 264.814 151.937C264.814 148.74 262.408 143.645 259.44 143.645C256.472 143.645 254.066 149.002 254.066 151.937Z" fill="#FFC0C1"/>
<path fill-rule="evenodd" clip-rule="evenodd" d="M264.02 148.21C263.074 145.814 261.377 143.645 259.44 143.645C257.53 143.645 255.852 145.864 254.899 148.228C256.188 148.83 257.753 149.182 259.44 149.182C261.144 149.182 262.724 148.822 264.02 148.21Z" fill="#E7EAEE"/>
<path d="M260.772 139.084C260.132 139.084 259.839 139.351 259.44 139.617C259.04 139.351 258.747 139.084 258.108 139.084C257.309 139.084 256.845 139.922 257.042 140.417C257.309 141.083 258.286 141.749 259.44 142.016C260.594 141.749 261.571 141.083 261.837 140.417C262.035 139.922 261.571 139.084 260.772 139.084Z" fill="#FFC0C1"/>
<g clip-path="url(#clip3_1490_2495)">
<path d="M241.283 162.847C241.424 163.066 241.609 163.154 241.684 163.17L248.881 159.911L254.846 154.732C254.862 154.657 254.86 154.452 254.72 154.232C254.544 153.958 254.252 152.598 253.616 152.812C252.979 153.027 252.695 153.79 251.872 154.317C251.049 154.844 250.736 154.658 249.502 155.449C248.269 156.24 248.033 156.778 247.21 157.306C246.388 157.833 245.801 157.823 244.841 158.438C243.881 159.053 243.234 159.855 242.412 160.382C241.589 160.91 240.914 160.762 240.453 161.251C239.993 161.74 241.108 162.573 241.283 162.847Z" fill="#E48174"/>
<path d="M252.359 180.122C252.219 179.902 252.216 179.698 252.233 179.623L258.198 174.444L265.394 171.184C265.469 171.2 265.655 171.288 265.795 171.507C265.971 171.782 267.086 172.615 266.625 173.103C266.164 173.592 265.352 173.532 264.53 174.06C263.707 174.587 263.746 174.949 262.512 175.741C261.278 176.532 260.691 176.521 259.868 177.049C259.046 177.576 258.81 178.114 257.85 178.729C256.891 179.344 255.892 179.598 255.07 180.125C254.247 180.653 254.099 181.328 253.463 181.542C252.827 181.757 252.535 180.396 252.359 180.122Z" fill="#E48174"/>
<path d="M248.083 158.681C245.511 160.33 241.727 162.95 241.678 163.174C241.651 163.299 242.022 164.417 242.913 166.252C243.629 167.728 245.228 169.316 246.677 171.577C248.127 173.837 248.909 175.95 249.951 177.216C251.247 178.791 252.108 179.596 252.232 179.623C252.457 179.672 256.417 177.327 258.989 175.678C261.562 174.028 265.346 171.409 265.394 171.184C265.422 171.058 265.069 169.96 264.166 168.102C263.458 166.645 261.856 165.076 260.388 162.786C258.92 160.496 258.156 158.39 257.128 157.138C255.817 155.542 254.966 154.764 254.84 154.736C254.615 154.686 250.655 157.032 248.083 158.681Z" fill="#FFC5AB"/>
<g filter="url(#filter0_d_1490_2495)">
<path d="M256.129 174.271C253.256 174.855 250.473 173.427 251.234 171.444C251.994 169.461 253.402 170.338 255.253 169.961C257.104 169.585 258.123 168.547 259.213 169.821C260.303 171.095 259.002 173.686 256.129 174.271Z" fill="#FFC53D"/>
</g>
<g filter="url(#filter1_d_1490_2495)">
<path d="M258.179 168.784C257.309 171.037 255.082 172.334 254.044 170.926C253.005 169.518 254.238 168.93 254.799 167.478C255.36 166.027 255.092 164.859 256.46 164.668C257.829 164.477 259.049 166.53 258.179 168.784Z" fill="#FFC53D"/>
</g>
<g filter="url(#filter2_d_1490_2495)">
<path d="M250.685 168.162C248.359 168.837 245.972 167.849 246.464 166.165C246.956 164.482 248.174 165.108 249.673 164.674C251.172 164.239 251.941 163.316 252.924 164.291C253.908 165.267 253.011 167.488 250.685 168.162Z" fill="#FFC53D"/>
</g>
</g>
<g clip-path="url(#clip4_1490_2495)">
<path d="M274.448 156.803L274.945 157.705L276.003 158.24L276.619 159.253L277.678 159.787L278.055 160.579L279.232 161.224L277.777 162.319L273.472 158.339L274.448 156.803Z" fill="#DAA427"/>
<path d="M266.189 175.337L265.693 174.435L264.635 173.9L264.018 172.887L262.96 172.353L262.583 171.561L261.405 170.916L262.86 169.821L267.166 173.801L266.189 175.337Z" fill="#DAA427"/>
<rect x="273.454" y="157.879" width="6.51449" height="16.2862" rx="0.651449" transform="rotate(42.7435 273.454 157.879)" fill="#FFC53D"/>
<path fill-rule="evenodd" clip-rule="evenodd" d="M270.259 163.213C270.218 163.349 270.159 163.689 270.243 163.96C270.292 164.117 270.438 164.244 270.595 164.38C270.775 164.537 270.97 164.706 271.045 164.948C271.157 165.309 270.978 165.793 270.875 165.991L274.625 164.826C274.797 164.772 274.893 164.59 274.839 164.418L274.191 162.332C274.138 162.16 273.955 162.064 273.784 162.117L270.108 163.259C270.16 163.243 270.21 163.228 270.259 163.213Z" fill="#935F3A"/>
<path d="M268.073 166.761C267.797 166.699 267.532 166.477 267.434 166.374L266.6 170.063C266.573 170.178 266.663 170.32 266.778 170.346L269.083 170.867C269.199 170.893 269.34 170.804 269.366 170.689L270.148 167.231C270.029 167.042 269.699 166.644 269.33 166.561C268.869 166.457 268.419 166.84 268.073 166.761Z" fill="#935F3A"/>
</g>
<g clip-path="url(#clip5_1490_2495)">
<path d="M259.165 155.96C259.717 155.918 261.82 155.958 264.054 156.233C266.405 156.521 268.044 156.942 268.864 157.152" stroke="#6DA442" stroke-width="0.977174" stroke-linecap="round"/>
<path d="M257.218 171.802C257.744 171.976 259.794 172.446 262.028 172.721C264.379 173.01 266.071 172.999 266.917 172.993" stroke="#6DA442" stroke-width="0.977174" stroke-linecap="round"/>
<path d="M258.379 157.009C258.437 156.542 258.818 156.188 259.288 156.194C260.148 156.204 261.706 156.272 264.014 156.556C266.322 156.839 267.85 157.15 268.687 157.348C269.145 157.457 269.429 157.893 269.371 158.359L267.704 171.931C267.646 172.404 267.256 172.761 266.78 172.754C265.894 172.741 264.305 172.672 262.068 172.397C259.83 172.122 258.271 171.805 257.408 171.603C256.945 171.494 256.654 171.053 256.712 170.581L258.379 157.009Z" fill="#AFD157"/>
<mask id="mask0_1490_2495" style="mask-type:alpha" maskUnits="userSpaceOnUse" x="256" y="156" width="14" height="17">
<path d="M258.38 157.009C258.438 156.542 258.819 156.188 259.289 156.194C260.149 156.204 261.707 156.272 264.015 156.556C266.323 156.839 267.851 157.15 268.688 157.348C269.146 157.457 269.43 157.893 269.372 158.359L267.705 171.931C267.647 172.404 267.257 172.761 266.781 172.754C265.895 172.741 264.306 172.672 262.069 172.397C259.831 172.122 258.272 171.805 257.409 171.603C256.946 171.494 256.655 171.053 256.713 170.581L258.38 157.009Z" fill="#AFD157"/>
</mask>
<g mask="url(#mask0_1490_2495)">
<path d="M263.799 169C266.402 167.843 267.798 159.153 267.81 155.053L271.082 155.127L270.761 175.106L255.487 173.885C254.762 171.773 254.056 168.163 255.901 169.178C258.206 170.446 262.135 169.739 263.799 169Z" fill="#A0C248"/>
</g>
<path d="M259.817 158.666L258.983 165.455" stroke="#C4E0AE" stroke-width="0.977174" stroke-linecap="round"/>
<path d="M258.784 167.071L258.665 168.041" stroke="#C4E0AE" stroke-width="0.977174" stroke-linecap="round"/>
<circle cx="265.193" cy="169.664" r="1.79149" transform="rotate(7.00501 265.193 169.664)" fill="#CCF2C2"/>
<path d="M263.739 169.485C263.837 168.681 264.569 168.11 265.372 168.209" stroke="white" stroke-width="0.26058" stroke-linecap="round" stroke-dasharray="0.33 0.33 0.65 0.65"/>
<circle cx="263.691" cy="165.869" r="1.14004" transform="rotate(7.00501 263.691 165.869)" fill="#CCF2C2"/>
<path d="M262.883 165.77C262.937 165.323 263.344 165.006 263.79 165.061" stroke="white" stroke-width="0.195435" stroke-linecap="round" stroke-dasharray="0.33 0.49 0.65 0.65"/>
<circle cx="266.839" cy="164.286" r="0.814312" transform="rotate(7.00501 266.839 164.286)" fill="#CCF2C2"/>
<path d="M266.354 164.227C266.386 163.959 266.63 163.769 266.898 163.802" stroke="white" stroke-width="0.13029" stroke-linecap="round" stroke-dasharray="0.33 0.65 0.65 0.65"/>
<path d="M263.648 164.879L263.972 164.919L263.932 165.242L263.75 165.384L263.447 165.183L263.648 164.879Z" fill="#CCF2C2"/>
<path d="M266.756 163.62L267.079 163.66L267.039 163.983L266.696 164.105L266.736 163.782L266.756 163.62Z" fill="#CCF2C2"/>
<path d="M265.23 168.027L265.553 168.067L265.494 168.552L265.151 168.674L264.887 168.149L265.23 168.027Z" fill="#CCF2C2"/>
</g>
<path d="M267.238 176.8C270.95 180.827 281.15 176.25 285.01 172.797C287.207 170.832 287.03 167.775 285.033 166.675C281.255 164.596 275.679 165.445 271.004 164.98C265.612 164.444 260.105 169.064 267.238 176.8Z" fill="#DBDEE3"/>
<path d="M234.926 168.788C235.627 164.801 240.258 162.945 245.219 163.816C250.18 164.688 253.592 167.957 252.892 171.944C252.191 175.93 247.644 179.124 242.683 178.253C237.722 177.381 234.226 172.774 234.926 168.788Z" fill="#DBDEE3"/>
</g>
<g clip-path="url(#clip6_1490_2495)">
<path d="M109.142 211.87C111.478 210.915 113.753 198.188 113.292 191.852L90.8523 195.433C90.3913 200.575 90.3605 211.062 91.4671 211.87C92.8503 212.88 106.222 213.064 109.142 211.87Z" fill="#FFC532"/>
<path d="M124.568 178.937C116.471 181.239 104.818 173.414 100.004 169.214C99.8189 168.516 99.6422 166.769 100.42 165.367C101.392 163.614 121.532 164.425 126.118 165.447C130.703 166.47 134.69 176.059 124.568 178.937Z" fill="#FFC532"/>
<path d="M110.896 197.773C117.879 193.129 108.439 164.159 101.617 160.51C94.7961 156.861 83.7014 157.414 78.8289 160.51C73.9564 163.606 61.9158 193.019 68.8996 197.773C75.8834 202.528 103.912 202.417 110.896 197.773Z" fill="#FFDB40"/>
<path d="M52.948 182.397C52.9889 182.222 53.164 182.113 53.3392 182.154L72.3816 186.594C72.4378 186.607 72.4894 186.635 72.5314 186.674L74.9416 188.952C75.1229 189.123 75.0522 189.427 74.8139 189.5L71.6447 190.477C71.5896 190.494 71.531 190.496 71.4748 190.483L52.4324 186.043C52.2572 186.002 52.1483 185.827 52.1892 185.652L52.948 182.397Z" fill="#FFB132"/>
<path d="M70.9827 211.87C68.6465 210.915 66.3718 198.188 66.8329 191.852L89.2722 195.433C89.7333 200.575 89.764 211.062 88.6574 211.87C87.2742 212.88 73.9028 213.064 70.9827 211.87Z" fill="#FFDB40"/>
<path d="M54.7597 180.716C56.3542 172.45 68.5911 165.575 74.5103 163.17C75.217 163.319 76.8557 163.949 77.7572 165.275C78.884 166.932 69.0829 184.546 66.1031 188.178C63.1234 191.811 52.7667 191.048 54.7597 180.716Z" fill="#FFDB40"/>
<path d="M91.7136 193.48C91.7805 193.481 91.8469 193.468 91.9088 193.443C91.9708 193.418 92.0271 193.381 92.0746 193.334L94.3372 191.058C94.4205 190.961 94.464 190.837 94.4591 190.709C94.4542 190.582 94.4011 190.461 94.3106 190.371C94.22 190.281 94.0986 190.228 93.9706 190.224C93.8427 190.219 93.7176 190.262 93.6203 190.345L91.3526 192.595C91.305 192.642 91.2671 192.698 91.2413 192.76C91.2155 192.822 91.2022 192.888 91.2022 192.954C91.2022 193.021 91.2155 193.087 91.2413 193.149C91.2671 193.211 91.305 193.266 91.3526 193.313C91.3984 193.364 91.454 193.405 91.516 193.434C91.578 193.462 91.6453 193.478 91.7136 193.48Z" fill="#FFBB4D"/>
<path d="M93.9521 193.48C94.0185 193.481 94.0843 193.468 94.1457 193.443C94.2072 193.418 94.2631 193.381 94.3102 193.334C94.3575 193.287 94.3951 193.231 94.4207 193.17C94.4463 193.108 94.4595 193.042 94.4595 192.976C94.4595 192.909 94.4463 192.843 94.4207 192.782C94.3951 192.72 94.3575 192.665 94.3102 192.618L92.0653 190.372C92.0184 190.325 91.9626 190.288 91.9011 190.262C91.8396 190.236 91.7737 190.223 91.7071 190.223C91.6405 190.223 91.5746 190.236 91.5131 190.262C91.4516 190.288 91.3958 190.325 91.3489 190.372C91.255 190.467 91.2022 190.595 91.2022 190.728C91.2022 190.861 91.255 190.989 91.3489 191.084L93.5989 193.334C93.6929 193.427 93.8197 193.48 93.9521 193.48Z" fill="#FFBB4D"/>
<path d="M129.313 143.157C129.313 160.157 110.671 165.794 88.0143 165.794C65.3573 165.794 46.5786 160.157 46.5786 143.157C46.5786 114.17 65.3573 104.232 88.0143 104.232C110.671 104.232 129.313 112.79 129.313 143.157Z" fill="#FFDB40"/>
<path d="M61.2358 151.462H66.1217" stroke="#FFA052" stroke-width="6.51449" stroke-linecap="round"/>
<path d="M115.306 151.462H120.192" stroke="#FFA052" stroke-width="6.51449" stroke-linecap="round"/>
<path d="M71.0073 139.736V144.947" stroke="#123041" stroke-width="4.88587" stroke-linecap="round"/>
<path d="M110.42 139.736V144.947" stroke="#123041" stroke-width="4.88587" stroke-linecap="round"/>
<path d="M99.0197 147.227C99.0197 150.196 95.301 151.462 90.7137 151.462C86.1264 151.462 82.4077 150.196 82.4077 147.227C82.4077 144.259 86.1264 140.713 90.7137 140.713C95.301 140.713 99.0197 144.259 99.0197 147.227Z" fill="#FFB132"/>
<path d="M81.8407 92.9038C86.7819 97.2855 89.6205 102.2 90.4603 106.672L81.7647 105.745C78.1842 105.363 74.7544 101.143 74.9126 96.0198C75.0709 90.897 79.328 90.6756 81.8407 92.9038Z" fill="#FFDB40"/>
<path d="M90.9154 99.8251C89.377 101.327 88.9881 104.601 88.986 106.05C91.9662 105.774 96.967 104.858 97.8637 102.95C98.7605 101.041 98.2011 98.6687 97.1093 98.1031C96.0175 97.5376 92.8385 97.9473 90.9154 99.8251Z" fill="#FFDB40"/>
<path d="M139.736 158.139C136.641 156.673 133.384 158.139 131.104 157.651C129.806 157.372 128.173 157.651 125.404 156.348C125.078 162.211 124.427 163.676 124.427 165.305C124.427 168.149 124.753 171.168 124.427 174.263C126.055 174.914 127.558 175.077 129.638 175.077C132.52 175.077 135.827 174.263 139.736 174.751C139.736 169.702 139.084 170.201 139.084 166.771C139.084 163.287 139.736 161.885 139.736 158.139Z" fill="#FFE8AD"/>
</g>
<defs>
<filter id="filter0_d_1490_2495" x="251.106" y="169.206" width="8.81547" height="5.52299" filterUnits="userSpaceOnUse" color-interpolation-filters="sRGB">
<feFlood flood-opacity="0" result="BackgroundImageFix"/>
<feColorMatrix in="SourceAlpha" type="matrix" values="0 0 0 0 0 0 0 0 0 0 0 0 0 0 0 0 0 0 127 0" result="hardAlpha"/>
<feOffset dx="0.325725" dy="0.325725"/>
<feComposite in2="hardAlpha" operator="out"/>
<feColorMatrix type="matrix" values="0 0 0 0 0.822493 0 0 0 0 0.503639 0 0 0 0 0.129331 0 0 0 1 0"/>
<feBlend mode="normal" in2="BackgroundImageFix" result="effect1_dropShadow_1490_2495"/>
<feBlend mode="normal" in="SourceGraphic" in2="effect1_dropShadow_1490_2495" result="shape"/>
</filter>
<filter id="filter1_d_1490_2495" x="253.641" y="164.655" width="5.1558" height="7.18168" filterUnits="userSpaceOnUse" color-interpolation-filters="sRGB">
<feFlood flood-opacity="0" result="BackgroundImageFix"/>
<feColorMatrix in="SourceAlpha" type="matrix" values="0 0 0 0 0 0 0 0 0 0 0 0 0 0 0 0 0 0 127 0" result="hardAlpha"/>
<feOffset dx="0.325725" dy="0.325725"/>
<feComposite in2="hardAlpha" operator="out"/>
<feColorMatrix type="matrix" values="0 0 0 0 0.822493 0 0 0 0 0.503639 0 0 0 0 0.129331 0 0 0 1 0"/>
<feBlend mode="normal" in2="BackgroundImageFix" result="effect1_dropShadow_1490_2495"/>
<feBlend mode="normal" in="SourceGraphic" in2="effect1_dropShadow_1490_2495" result="shape"/>
</filter>
<filter id="filter2_d_1490_2495" x="246.399" y="163.86" width="7.24516" height="4.84233" filterUnits="userSpaceOnUse" color-interpolation-filters="sRGB">
<feFlood flood-opacity="0" result="BackgroundImageFix"/>
<feColorMatrix in="SourceAlpha" type="matrix" values="0 0 0 0 0 0 0 0 0 0 0 0 0 0 0 0 0 0 127 0" result="hardAlpha"/>
<feOffset dx="0.325725" dy="0.325725"/>
<feComposite in2="hardAlpha" operator="out"/>
<feColorMatrix type="matrix" values="0 0 0 0 0.822493 0 0 0 0 0.503639 0 0 0 0 0.129331 0 0 0 1 0"/>
<feBlend mode="normal" in2="BackgroundImageFix" result="effect1_dropShadow_1490_2495"/>
<feBlend mode="normal" in="SourceGraphic" in2="effect1_dropShadow_1490_2495" result="shape"/>
</filter>
<linearGradient id="paint0_linear_1490_2495" x1="156.334" y1="149.555" x2="182.012" y2="185.289" gradientUnits="userSpaceOnUse">
<stop offset="0.25" stop-color="#96FFFF" stop-opacity="0"/>
<stop offset="1" stop-color="#96FFFF" stop-opacity="0.5"/>
</linearGradient>
<clipPath id="clip0_1490_2495">
<rect width="91.5286" height="120.192" fill="white" transform="translate(125.73 44.9497)"/>
</clipPath>
<clipPath id="clip1_1490_2495">
<rect width="102.603" height="108.141" fill="white" transform="translate(121.17 104.883)"/>
</clipPath>
<clipPath id="clip2_1490_2495">
<rect width="106.186" height="143.645" fill="white" transform="matrix(-1 0 0 1 316.93 69.0537)"/>
</clipPath>
<clipPath id="clip3_1490_2495">
<rect width="19.8692" height="26.7094" fill="white" transform="translate(238.104 161.209) rotate(-32.6653)"/>
</clipPath>
<clipPath id="clip4_1490_2495">
<rect width="9.12029" height="21.4978" fill="white" transform="translate(274.266 155.081) rotate(42.7435)"/>
</clipPath>
<clipPath id="clip5_1490_2495">
<rect width="14.3319" height="19.8692" fill="white" transform="translate(257.14 153.742) rotate(7.00501)"/>
</clipPath>
<clipPath id="clip6_1490_2495">
<rect width="112.701" height="126.381" fill="white" transform="translate(38.4351 86.3169)"/>
</clipPath>
</defs>
</svg>
