<svg width="403" height="719" viewBox="0 0 403 719" fill="none" xmlns="http://www.w3.org/2000/svg">
<g clip-path="url(#clip0_1948_349)">
<g clip-path="url(#clip1_1948_349)">
<path d="M257.556 484.871C244.164 471.832 242.547 444.4 243.412 432.314C244.295 431.431 246.851 429.748 250.009 430.081C253.957 430.496 276.905 468.015 280.802 477.209C284.698 486.404 274.296 501.169 257.556 484.871Z" fill="#EFEFEF"/>
<path d="M318.356 512.282C313.189 514.451 289.635 498.039 280.41 487.367L321.265 457.759C330.062 465.109 346.576 481.525 346.107 484.531C345.521 488.289 324.815 509.572 318.356 512.282Z" fill="#EFEFEF"/>
<path d="M293.472 492.904C275.216 496.578 244.553 436.27 249.534 419.831C254.515 403.392 272.802 386.84 285.313 384.051C297.825 381.262 362.909 408.537 359.409 426.967C355.909 445.397 311.729 489.231 293.472 492.904Z" fill="white"/>
<path d="M378.273 452.371C380.441 447.204 364.03 423.65 353.358 414.426L323.749 455.28C331.099 464.078 347.516 480.591 350.522 480.122C354.28 479.536 375.562 458.831 378.273 452.371Z" fill="white"/>
<path d="M356.115 386.314C343.126 372.871 312.027 374.921 298.102 377.626C296.968 378.76 294.683 381.917 294.614 385.477C294.528 389.927 334.116 410.805 344.063 413.949C354.01 417.093 372.35 403.116 356.115 386.314Z" fill="white"/>
<path d="M282.832 472.589C296.475 486.231 311.429 477.83 325.833 463.426C340.238 449.021 348.639 434.067 334.996 420.425C317.062 402.491 295.234 404.017 280.829 418.421C266.424 432.826 264.898 454.655 282.832 472.589Z" fill="#F4F4F4"/>
<path d="M316.848 456.046C316.744 456.152 316.619 456.236 316.483 456.294C316.346 456.352 316.199 456.382 316.051 456.383L308.925 456.362C308.643 456.341 308.379 456.214 308.187 456.006C307.995 455.799 307.888 455.526 307.889 455.242C307.89 454.959 307.998 454.685 308.191 454.477C308.384 454.268 308.649 454.139 308.931 454.117L316.025 454.09C316.174 454.089 316.321 454.117 316.458 454.174C316.596 454.23 316.72 454.313 316.825 454.418C316.93 454.522 317.013 454.647 317.069 454.784C317.125 454.922 317.154 455.069 317.153 455.218C317.16 455.369 317.137 455.52 317.085 455.663C317.032 455.805 316.952 455.936 316.848 456.046Z" fill="#FFD2D2"/>
<path d="M313.334 459.561C313.23 459.666 313.107 459.749 312.971 459.806C312.835 459.863 312.689 459.893 312.542 459.894C312.394 459.894 312.247 459.865 312.11 459.809C311.974 459.753 311.849 459.67 311.745 459.565C311.64 459.461 311.557 459.337 311.501 459.2C311.445 459.063 311.416 458.917 311.417 458.769L311.416 451.719C311.416 451.571 311.444 451.424 311.501 451.288C311.557 451.151 311.64 451.027 311.744 450.922C311.849 450.817 311.973 450.735 312.11 450.678C312.247 450.622 312.393 450.593 312.541 450.594C312.837 450.595 313.12 450.713 313.33 450.922C313.539 451.131 313.657 451.415 313.658 451.711L313.658 458.777C313.657 459.071 313.541 459.352 313.334 459.561V459.561Z" fill="#FFD2D2"/>
<path d="M207.984 257.001C217.154 274.354 225.6 317.837 232.752 332.399L197.72 367.431C183.158 360.279 141.026 350.482 122.578 342.407C99.6983 332.391 85.0103 304.324 103.077 286.257C117.995 271.34 149.616 288.985 164.769 300.215C153.539 285.062 136.405 252.929 150.811 238.523C168.878 220.456 196.314 234.919 207.984 257.001Z" fill="white"/>
<path d="M177.269 438.624C203.961 465.315 242.08 444.897 277.653 409.324C313.226 373.751 332.352 344.503 284.98 297.131C265.184 277.335 260.116 272.179 241.224 272.179C235.076 272.179 220.973 276.88 216.995 285.559C214.825 293.876 195.81 297.854 180.996 312.667C145.423 348.24 129.591 390.945 177.269 438.624Z" fill="white"/>
<path d="M258.327 341.709L266.51 349.892" stroke="black" stroke-width="10.8487" stroke-linecap="round"/>
<path d="M196.445 403.592L204.628 411.775" stroke="black" stroke-width="10.8487" stroke-linecap="round"/>
<path d="M283.316 343.76L275.645 351.431" stroke="white" stroke-width="21.6974" stroke-linecap="round"/>
<path d="M268.614 343.035C267.514 343.814 265.226 346.21 264.876 349.566C264.525 352.921 265.675 355.843 266.293 356.884" stroke="black" stroke-width="3.61623" stroke-linecap="round"/>
<path d="M283.316 343.76L275.645 351.431" stroke="#FFD2D2" stroke-width="14.4649" stroke-linecap="round"/>
<path d="M208.72 431.207L201.049 438.878" stroke="#FFD2D2" stroke-width="14.4649" stroke-linecap="round"/>
<path d="M240.15 402.291C244.759 406.899 247.076 409.216 255.514 400.778C263.952 392.34 262.047 390.434 257.027 385.414C252.007 380.394 240.229 376.173 235.569 380.833C230.909 385.493 235.542 397.682 240.15 402.291Z" fill="#FFD2D2"/>
<path fill-rule="evenodd" clip-rule="evenodd" d="M249.925 380.809C244.678 378.533 238.608 377.792 235.567 380.833C232.568 383.832 233.418 389.949 235.633 395.158C238.602 394.079 241.613 392.175 244.262 389.526C246.937 386.851 248.852 383.806 249.925 380.809Z" fill="#EFEFEF"/>
<path d="M230.503 371.583C229.499 372.587 229.457 373.465 229.248 374.511C228.203 374.72 227.324 374.762 226.32 375.766C225.066 377.02 225.652 379.064 226.74 379.531C228.204 380.158 230.784 379.671 233.014 378.277C234.408 376.046 234.896 373.467 234.268 372.002C233.802 370.915 231.758 370.328 230.503 371.583Z" fill="#FFD2D2"/>
</g>
<g clip-path="url(#clip2_1948_349)">
<path d="M283.849 372.283C300.902 379.937 329.013 366.481 340.937 358.796C341.569 357.322 342.517 353.541 341.259 350.211C339.685 346.048 295.174 341.371 284.771 342.148C274.368 342.925 262.533 362.714 283.849 372.283Z" fill="#FFC532"/>
<path d="M365.737 452.198C360.137 451.98 345.726 427.151 341.876 413.581L391.415 404.012C396.283 414.392 404.311 436.249 402.615 438.775C400.496 441.934 372.736 452.471 365.737 452.198Z" fill="#FFC532"/>
<path d="M351.372 424.117C333.273 419.731 330.97 352.115 342.432 339.321C353.894 326.527 377.463 319.255 389.981 322.014C402.498 324.774 449.958 376.999 438.997 392.224C428.036 407.448 369.47 428.503 351.372 424.117Z" fill="#FFDB40"/>
<path d="M445.356 423.219C449.505 419.452 444.586 391.169 438.812 378.299L394.712 402.812C397.655 413.892 405.555 435.796 408.478 436.642C412.131 437.699 440.17 427.928 445.356 423.219Z" fill="#FFDB40"/>
<path d="M453.19 353.985C447.099 336.313 418.048 325.027 404.284 321.594C402.777 322.142 399.372 324.038 397.805 327.235C395.846 331.232 422.902 366.885 430.588 373.938C438.275 380.991 460.803 376.075 453.19 353.985Z" fill="#FFDB40"/>
<path d="M388.133 400.589C387.994 400.641 387.846 400.664 387.698 400.659C387.549 400.654 387.404 400.619 387.269 400.557L380.82 397.527C380.572 397.388 380.387 397.162 380.301 396.892C380.214 396.623 380.233 396.331 380.354 396.074C380.474 395.817 380.688 395.615 380.951 395.508C381.214 395.4 381.508 395.396 381.774 395.495L388.215 398.468C388.35 398.53 388.471 398.618 388.572 398.727C388.672 398.836 388.75 398.964 388.801 399.103C388.852 399.243 388.874 399.391 388.867 399.539C388.86 399.687 388.824 399.832 388.76 399.967C388.703 400.107 388.618 400.234 388.51 400.341C388.403 400.448 388.274 400.533 388.133 400.589Z" fill="#FFB132"/>
<path d="M383.463 402.289C383.325 402.34 383.178 402.364 383.03 402.358C382.883 402.352 382.738 402.318 382.604 402.256C382.47 402.194 382.35 402.106 382.249 401.997C382.149 401.888 382.072 401.761 382.021 401.622C381.97 401.483 381.948 401.335 381.955 401.187C381.961 401.04 381.997 400.895 382.06 400.761L385.039 394.371C385.101 394.237 385.189 394.116 385.298 394.016C385.407 393.916 385.534 393.838 385.673 393.788C385.812 393.737 385.96 393.715 386.108 393.722C386.255 393.728 386.4 393.764 386.534 393.827C386.802 393.953 387.009 394.18 387.11 394.458C387.212 394.736 387.199 395.043 387.074 395.312L384.089 401.716C383.963 401.981 383.739 402.187 383.463 402.289V402.289Z" fill="#FFB132"/>
<path d="M267.388 325.627C280.298 361.098 323.475 358.703 370.749 341.497C418.023 324.29 452.924 298.267 440.014 262.797C418.001 202.316 371.271 195.841 323.997 213.047C276.723 230.253 244.327 262.266 267.388 325.627Z" fill="#FFDB40"/>
<path d="M415.74 291.258L405.545 294.968" stroke="#FCA18E" stroke-width="14.4649" stroke-linecap="round"/>
<path d="M302.922 332.32L292.728 336.03" stroke="#FCA18E" stroke-width="14.4649" stroke-linecap="round"/>
<path d="M386.445 274.212L390.403 285.087" stroke="#123041" stroke-width="10.8487" stroke-linecap="round"/>
<path d="M304.212 304.143L308.17 315.017" stroke="#123041" stroke-width="10.8487" stroke-linecap="round"/>
<path d="M333.687 311.117C335.941 317.31 344.661 317.128 354.233 313.644C363.804 310.161 370.602 304.695 368.348 298.501C366.093 292.308 355.641 287.733 346.07 291.217C336.498 294.7 331.432 304.924 333.687 311.117Z" fill="#FFB132"/>
<path d="M328.277 184.722C321.295 197.617 319.104 210.026 320.748 219.996L338.187 211.458C345.368 207.942 349.319 196.531 345.099 185.963C340.878 175.394 331.827 178.165 328.277 184.722Z" fill="#FFDB40"/>
<path d="M314.597 206.056C318.948 208.022 322.246 214.557 323.351 217.579C316.923 219.267 305.793 221.153 302.473 217.852C299.153 214.551 298.518 209.176 300.366 207.167C302.215 205.158 309.159 203.598 314.597 206.056Z" fill="#FFDB40"/>
</g>
<g clip-path="url(#clip3_1948_349)">
<ellipse cx="28.9079" cy="31.1552" rx="28.9079" ry="31.1552" transform="matrix(-1.00001 -0.00896163 -0.00896066 0.999906 392.921 340.593)" fill="#5BB42B"/>
<ellipse cx="252.635" cy="430.082" rx="28.9094" ry="31.1536" transform="matrix(0.546604 -0.837302 0.837481 0.546604 -245.642 406.529)" fill="#5BB42B"/>
<path d="M309.075 560.856C299.967 544.533 310.93 515.359 317.549 502.812C318.963 502.055 322.647 500.781 326.074 501.746C330.358 502.951 338.885 546.888 339.015 557.319C339.145 567.751 320.459 581.26 309.075 560.856Z" fill="#4B9B3A"/>
<path d="M367.802 600.161C362.228 600.741 344.432 578.214 338.691 565.329L386.367 548.813C392.661 558.394 403.715 578.888 402.397 581.63C400.748 585.057 374.769 599.436 367.802 600.161Z" fill="#4B9B3A"/>
<path d="M349.593 574.408C331.055 572.64 319.159 506.039 328.685 491.745C338.211 477.451 360.506 466.901 373.289 467.852C386.072 468.804 440.477 513.749 431.792 530.377C423.108 547.006 368.132 576.175 349.593 574.408Z" fill="#5BB42B"/>
<path d="M442.493 560.153C446.064 555.834 437.173 528.538 429.627 516.62L389.461 547.156C393.95 557.704 404.885 578.262 407.898 578.684C411.665 579.21 438.029 565.551 442.493 560.153Z" fill="#5BB42B"/>
<path d="M440.402 490.51C431.86 473.884 401.5 466.845 387.387 465.403C385.973 466.161 382.872 468.522 381.776 471.909C380.406 476.144 412.257 507.587 420.868 513.475C429.48 519.363 451.08 511.293 440.402 490.51Z" fill="#5BB42B"/>
<path d="M343.749 549.006C354.101 568.332 371.145 565.176 389.102 555.557C407.059 545.938 419.13 533.499 408.778 514.173C395.169 488.767 372.909 482.184 354.952 491.803C336.994 501.422 330.14 523.6 343.749 549.006Z" fill="#A1DC3C"/>
<path d="M382.634 545.892C382.504 545.963 382.361 546.007 382.213 546.023C382.065 546.039 381.916 546.025 381.774 545.983L374.959 543.901C374.695 543.799 374.479 543.601 374.355 543.347C374.232 543.092 374.209 542.801 374.292 542.529C374.375 542.258 374.557 542.028 374.802 541.884C375.047 541.74 375.338 541.694 375.615 541.754L382.413 543.781C382.556 543.823 382.688 543.893 382.803 543.987C382.919 544.08 383.014 544.196 383.084 544.326C383.154 544.457 383.197 544.6 383.211 544.748C383.225 544.896 383.21 545.045 383.166 545.187C383.129 545.334 383.063 545.472 382.972 545.593C382.881 545.714 382.766 545.816 382.634 545.892Z" fill="#5BB42B"/>
<path d="M378.253 548.239C378.124 548.309 377.981 548.353 377.835 548.369C377.688 548.384 377.54 548.37 377.399 548.328C377.257 548.286 377.125 548.216 377.01 548.122C376.896 548.029 376.801 547.914 376.731 547.783C376.661 547.653 376.618 547.51 376.604 547.363C376.589 547.216 376.604 547.067 376.648 546.926L378.688 540.177C378.73 540.036 378.8 539.904 378.893 539.789C378.987 539.675 379.102 539.58 379.232 539.51C379.363 539.44 379.505 539.397 379.653 539.382C379.8 539.368 379.948 539.383 380.09 539.426C380.373 539.513 380.61 539.708 380.75 539.969C380.89 540.23 380.92 540.535 380.836 540.819L378.791 547.582C378.705 547.863 378.512 548.099 378.253 548.239V548.239Z" fill="#5BB42B"/>
<path d="M249.484 489.443C267.496 523.069 310.53 514.367 355.575 490.238C400.62 466.109 431.981 434.96 413.969 401.334C388.095 353.03 339.661 352.308 294.617 376.437C249.572 400.566 221.56 437.313 249.484 489.443Z" fill="#5BB42B"/>
<path d="M359.078 373.908L364.542 384.109" stroke="black" stroke-width="10.8487" stroke-linecap="round"/>
<path d="M250.354 431.324L255.818 441.524" stroke="black" stroke-width="10.8487" stroke-linecap="round"/>
<path d="M390.519 398.908L379.681 404.713" stroke="#A1DC3C" stroke-width="14.4649" stroke-linecap="round"/>
<path d="M272.573 462.087L261.734 467.893" stroke="#A1DC3C" stroke-width="14.4649" stroke-linecap="round"/>
<path d="M304.744 431.775C300.641 424.115 298.578 420.264 312.923 412.58C327.268 404.896 328.964 408.063 333.434 416.407C340.757 430.079 338.604 441.489 330.681 445.732C322.759 449.976 311.556 444.491 304.744 431.775Z" fill="#D52C2F"/>
<path fill-rule="evenodd" clip-rule="evenodd" d="M334.166 417.831C340.599 430.866 338.326 441.635 330.68 445.73C325.13 448.703 317.969 446.901 311.836 441.182C312.874 436.454 315.474 431.444 319.501 427.051C323.893 422.258 329.164 419.093 334.166 417.831Z" fill="#FF686B"/>
</g>
<g clip-path="url(#clip4_1948_349)">
<path d="M363.352 469.619C367.48 480.96 371.46 479.588 376.339 477.812C381.219 476.036 385.15 474.529 381.022 463.188C376.895 451.847 368.133 444.624 364.713 445.869C361.293 447.114 359.224 458.279 363.352 469.619Z" fill="#6A5B3D"/>
<path d="M256.652 508.452C260.779 519.792 264.759 518.42 269.639 516.644C274.518 514.868 278.45 513.361 274.322 502.02C270.194 490.679 261.433 483.457 258.013 484.701C254.593 485.946 252.524 497.111 256.652 508.452Z" fill="#6A5B3D"/>
<path d="M392.754 456.559C376.611 476.224 385.176 479.981 393.762 487.028C402.347 494.076 408.028 501.346 423.843 482.081C431.872 472.3 431.421 458.659 422.836 451.611C414.25 444.564 400.782 446.779 392.754 456.559Z" fill="#123041"/>
<path d="M241.464 511.626C266.471 516.313 262.324 524.697 260.278 535.614C258.231 546.531 258.552 555.753 234.053 551.16C221.617 548.829 213.194 538.089 215.24 527.172C217.286 516.255 229.027 509.294 241.464 511.626Z" fill="white"/>
<path d="M240.163 523.851C252.627 526.187 250.758 529.312 249.981 533.454C249.205 537.596 249.563 541.139 237.352 538.85C231.153 537.688 226.757 533.388 227.533 529.246C228.31 525.104 233.964 522.689 240.163 523.851Z" fill="#FFC0C1"/>
<path d="M402.22 464.867C394.175 474.668 397.616 475.86 400.873 478.534C404.131 481.209 406.134 484.152 414.017 474.551C418.018 469.676 418.621 463.557 415.364 460.883C412.106 458.209 406.222 459.993 402.22 464.867Z" fill="#FFC0C1"/>
<path d="M257.671 585.269C270.581 620.739 313.758 618.345 361.032 601.138C408.306 583.932 443.207 557.909 430.297 522.438C408.284 461.958 361.554 455.482 314.28 472.689C267.006 489.895 234.61 521.908 257.671 585.269Z" fill="white"/>
<path fill-rule="evenodd" clip-rule="evenodd" d="M312.93 473.185C315.917 482.06 320.396 490.61 326.683 494.063C334.509 498.362 342.645 498.35 349.915 498.339C356.129 498.33 361.71 498.322 365.924 501.006C368.164 502.433 370.31 504.586 372.634 506.917C379.804 514.108 388.671 523.002 407.205 517.547C413.332 515.743 418.839 511.932 423.645 507.162C399.72 460.97 357.223 457.058 314.277 472.689C313.827 472.853 313.378 473.018 312.93 473.185Z" fill="#123041"/>
<path d="M383.091 532.306L387.049 543.18" stroke="#123041" stroke-width="10.8487" stroke-linecap="round"/>
<path d="M292.021 565.454L295.979 576.328" stroke="#123041" stroke-width="10.8487" stroke-linecap="round"/>
<path d="M378.7 562.535C373.618 548.572 358.179 541.373 344.216 546.455L331.575 551.056C317.612 556.138 310.413 571.577 315.495 585.54V585.54C318.883 594.849 329.176 599.648 338.484 596.26L367.98 585.525C377.289 582.136 382.089 571.844 378.7 562.535V562.535Z" fill="#FFC0C1"/>
<path d="M358.076 562.962L360.797 570.438" stroke="#123041" stroke-width="7.23246" stroke-linecap="round"/>
<path d="M330.891 572.857L333.612 580.333" stroke="#123041" stroke-width="7.23246" stroke-linecap="round"/>
<path d="M413.128 551.39L402.934 555.1" stroke="#FFC0C1" stroke-width="14.4649" stroke-linecap="round"/>
<path d="M291.471 595.669L281.277 599.379" stroke="#FFC0C1" stroke-width="14.4649" stroke-linecap="round"/>
<path d="M349.353 660.052C345.363 663.311 335.171 669.266 326.319 667.012C317.467 664.759 312.601 659.543 311.274 657.216" stroke="#123041" stroke-width="5.78597"/>
<path d="M316.231 655.574C315.065 662.003 307.93 665.676 302.742 660.489C296.485 654.232 296.43 648.583 297.363 647.652C298.101 646.915 299.77 649.479 300.262 649.307C300.754 649.136 295.834 643.327 299.141 641.971C303.754 640.08 317.645 647.778 316.231 655.574Z" fill="#A8A8A8"/>
<path d="M437.951 668.154C436.541 661.833 395.774 587.03 388.808 584.981C381.841 582.932 328.637 604.202 325.32 612.677C322.003 621.151 333.179 661.644 369.342 690.213C409.64 722.049 439.362 674.475 437.951 668.154Z" fill="white"/>
<path d="M373.581 715.889C369.78 711.771 370.327 691.299 360.201 682.258L413.633 671.367C419.153 681.415 415.163 713.26 413.633 715.889C411.72 719.176 377.921 720.59 373.581 715.889Z" fill="white"/>
<path d="M373.825 654.888C382.4 672.171 395.706 670.742 409.578 663.859C423.451 656.976 432.638 647.245 424.062 629.962C412.789 607.242 395.162 599.962 381.29 606.845C367.417 613.728 362.552 632.169 373.825 654.888Z" fill="#FFC0C1"/>
<path d="M406.953 654.733C406.825 654.808 406.683 654.857 406.536 654.877C406.389 654.897 406.24 654.889 406.096 654.851L399.219 652.987C398.951 652.893 398.729 652.702 398.597 652.452C398.466 652.202 398.434 651.911 398.508 651.637C398.582 651.363 398.757 651.127 398.997 650.975C399.238 650.824 399.527 650.768 399.806 650.82L406.665 652.63C406.809 652.667 406.943 652.733 407.062 652.823C407.18 652.913 407.279 653.025 407.353 653.153C407.427 653.282 407.475 653.424 407.493 653.571C407.512 653.718 407.502 653.868 407.462 654.011C407.43 654.159 407.369 654.299 407.281 654.423C407.194 654.547 407.082 654.652 406.953 654.733Z" fill="#FF8D8D"/>
<path d="M402.649 657.218C402.522 657.292 402.381 657.341 402.235 657.361C402.089 657.381 401.94 657.372 401.798 657.334C401.655 657.296 401.521 657.231 401.403 657.141C401.286 657.051 401.187 656.939 401.113 656.811C401.039 656.683 400.991 656.541 400.972 656.395C400.953 656.248 400.963 656.099 401.002 655.956L402.826 649.146C402.864 649.003 402.93 648.869 403.019 648.752C403.109 648.634 403.221 648.536 403.349 648.462C403.478 648.388 403.619 648.34 403.766 648.321C403.912 648.302 404.061 648.312 404.204 648.351C404.49 648.429 404.733 648.616 404.881 648.872C405.029 649.129 405.069 649.433 404.994 649.719L403.166 656.544C403.088 656.828 402.903 657.07 402.649 657.218V657.218Z" fill="#FF8D8D"/>
</g>
<path d="M422.81 595.149C413.598 611.415 382.972 617.215 368.81 618.082C367.428 617.268 364.425 614.783 363.467 611.354C362.27 607.067 395.377 576.944 404.222 571.41C413.067 565.877 434.324 574.817 422.81 595.149Z" fill="white"/>
</g>
<ellipse cx="170.588" cy="141.333" rx="8.11115" ry="6.29313" transform="rotate(-14.1104 170.588 141.333)" fill="white"/>
<ellipse cx="191.753" cy="139.475" rx="8.11115" ry="6.29313" transform="rotate(-14.1104 191.753 139.475)" fill="white"/>
<path d="M198.326 138.11L193.075 117.223L171.674 118.132L176.924 139.019" stroke="white" stroke-width="2.79695" stroke-linecap="round" stroke-linejoin="round"/>
<ellipse cx="13.7061" cy="267.893" rx="8.11115" ry="6.29313" fill="white"/>
<path d="M20.4136 267.191V245.655C22.3714 248.498 27.0703 254.213 30.2029 254.325" stroke="white" stroke-width="2.79695" stroke-linecap="round" stroke-linejoin="round"/>
<g clip-path="url(#clip5_1948_349)">
<ellipse cx="106.75" cy="31.7678" rx="8.11115" ry="6.29313" transform="rotate(18.0245 106.75 31.7678)" fill="white"/>
<path d="M113.345 33.1787L120.009 12.6991C120.991 16.0089 123.691 22.8975 126.635 23.9732" stroke="white" stroke-width="2.79695" stroke-linecap="round" stroke-linejoin="round"/>
</g>
<defs>
<clipPath id="clip0_1948_349">
<rect width="361" height="673.491" fill="white" transform="translate(42 45.5094)"/>
</clipPath>
<clipPath id="clip1_1948_349">
<rect width="235.796" height="329.825" fill="white" transform="matrix(-0.707161 0.707053 0.707161 0.707053 208.746 173.455)"/>
</clipPath>
<clipPath id="clip2_1948_349">
<rect width="219.896" height="291.473" fill="white" transform="matrix(-0.939709 0.341974 0.342066 0.939676 413.897 138.016)"/>
</clipPath>
<clipPath id="clip3_1948_349">
<rect width="203.256" height="266.887" fill="white" transform="matrix(-0.88153 0.472127 0.472239 0.881471 374.543 312.318)"/>
</clipPath>
<clipPath id="clip4_1948_349">
<rect width="227.853" height="434.103" fill="white" transform="matrix(-0.939709 0.341974 0.342066 0.939676 413.574 415.019)"/>
</clipPath>
<clipPath id="clip5_1948_349">
<rect width="34.4025" height="37.4791" fill="white" transform="translate(102.674) rotate(18.0245)"/>
</clipPath>
</defs>
</svg>
