<svg width="196" height="204" viewBox="0 0 196 204" fill="none" xmlns="http://www.w3.org/2000/svg">
<g clip-path="url(#clip0_4001_505)">
<ellipse cx="137.945" cy="145.752" rx="2.05031" ry="6.83437" fill="#AAAAAA"/>
<path d="M149.263 144.337C138.338 148.732 120.977 139.564 113.662 134.43C113.301 133.486 112.798 131.083 113.673 129.018C114.767 126.436 142.902 124.598 149.431 125.345C155.961 126.093 162.919 138.844 149.263 144.337Z" fill="#FFC532"/>
<path d="M123.172 195.625C126.44 194.289 129.621 176.486 128.976 167.623L97.5883 172.633C96.9433 179.826 96.9003 194.495 98.4482 195.625C100.383 197.038 119.087 197.295 123.172 195.625Z" fill="#FFC532"/>
<path d="M125.625 175.905C135.394 169.409 122.188 128.885 112.647 123.781C103.105 118.677 87.5855 119.451 80.7699 123.781C73.9542 128.112 57.1117 169.254 66.8807 175.905C76.6497 182.556 115.856 182.401 125.625 175.905Z" fill="#FFDB40"/>
<path d="M69.7938 195.625C66.526 194.289 63.3442 176.486 63.9892 167.623L95.3773 172.633C96.0222 179.826 96.0652 194.495 94.5173 195.625C92.5825 197.038 73.8786 197.295 69.7938 195.625Z" fill="#FFDB40"/>
<path d="M88.737 169.444C90.5595 159.238 90.8633 138.158 90.7873 128.894L74.8405 127.982C74.3089 129.349 72.7446 133.906 70.7398 141.196C68.7351 148.486 59.8808 174.608 55.7042 186.758C56.9952 187.593 60.8528 189.674 65.9558 191.314C71.0588 192.955 77.0427 193.213 79.3967 193.137C81.7508 189.492 86.9145 179.65 88.737 169.444Z" fill="white"/>
<path d="M113.569 170.128C113.569 160.104 111.225 138.158 111.301 128.894L127.248 127.982C127.779 129.349 129.343 133.906 131.348 141.196C136.673 160.56 135.894 176.279 133.616 188.125C132.704 189.72 131.201 190.585 126.098 192.226C120.995 193.866 113.655 193.441 111.301 193.365C112.429 189.264 113.569 180.495 113.569 170.128Z" fill="white"/>
<path d="M50.2385 156.329C50.0365 144.555 64.8025 131.615 72.2107 126.617C73.2209 126.617 75.6455 127.005 77.2618 128.56C79.2823 130.504 70.948 157.44 67.9173 163.271C64.8867 169.103 50.4911 171.046 50.2385 156.329Z" fill="#FFDB40"/>
<path d="M98.7925 169.901C98.8861 169.902 98.9789 169.884 99.0656 169.848C99.1522 169.813 99.231 169.761 99.2975 169.696L102.462 166.512C102.579 166.377 102.64 166.203 102.633 166.025C102.626 165.847 102.552 165.678 102.425 165.552C102.298 165.426 102.129 165.352 101.95 165.345C101.771 165.338 101.596 165.399 101.46 165.515L98.2876 168.663C98.2209 168.729 98.168 168.807 98.1319 168.893C98.0958 168.979 98.0772 169.072 98.0772 169.165C98.0772 169.259 98.0958 169.351 98.1319 169.437C98.168 169.523 98.2209 169.602 98.2876 169.667C98.3516 169.738 98.4293 169.795 98.5161 169.835C98.6029 169.876 98.6969 169.898 98.7925 169.901Z" fill="#FFBB4D"/>
<path d="M101.924 169.901C102.017 169.902 102.109 169.884 102.195 169.849C102.281 169.813 102.359 169.762 102.425 169.696C102.491 169.631 102.543 169.553 102.579 169.467C102.615 169.381 102.633 169.288 102.633 169.195C102.633 169.102 102.615 169.01 102.579 168.924C102.543 168.838 102.491 168.76 102.425 168.694L99.2844 165.553C99.2188 165.487 99.1408 165.435 99.0548 165.399C98.9688 165.363 98.8766 165.345 98.7834 165.345C98.6902 165.345 98.598 165.363 98.512 165.399C98.426 165.435 98.348 165.487 98.2824 165.553C98.151 165.686 98.0772 165.865 98.0772 166.051C98.0772 166.237 98.151 166.416 98.2824 166.549L101.43 169.696C101.561 169.827 101.739 169.9 101.924 169.901V169.901Z" fill="#FFBB4D"/>
<path d="M137.034 141.197C137.034 135.547 139.16 128.06 140.223 125.022H131.566C129.926 125.022 125.415 125.934 123.365 126.389L128.605 151.677C131.414 152.208 137.262 153.18 138.173 152.816C139.312 152.36 137.034 148.259 137.034 141.197Z" fill="white"/>
<path d="M50.9203 148.259C50.9203 147.165 58.2103 133.177 63.9056 127.983C69.6009 122.79 76.4353 125.139 80.0803 127.071C87.8259 131.172 81.5231 152.511 78.9412 160.333C77.1187 160.637 73.1092 160.606 71.6512 158.055C69.8287 154.865 50.9203 149.626 50.9203 148.259Z" fill="white"/>
<path d="M154.119 99.5078C154.119 123.287 128.044 131.173 96.351 131.173C64.6583 131.173 38.3906 123.287 38.3906 99.5078C38.3906 58.9612 64.6583 45.0596 96.351 45.0596C128.044 45.0596 154.119 57.0305 154.119 99.5078Z" fill="#FFDB40"/>
<path d="M58.8937 111.125H65.7281" stroke="#FCA18E" stroke-width="9.1125" stroke-linecap="round"/>
<path d="M134.527 111.125H141.361" stroke="#FCA18E" stroke-width="9.1125" stroke-linecap="round"/>
<path d="M72.5625 94.7227V102.013" stroke="#123041" stroke-width="6.83437" stroke-linecap="round"/>
<path d="M127.693 94.7227V102.013" stroke="#123041" stroke-width="6.83437" stroke-linecap="round"/>
<path d="M154.836 81.3365C152.035 70.4914 117.445 67.5169 100.501 67.3853C84.8526 68.7892 59.5218 67.3853 48.2399 77.3881C42.3664 82.5957 41.2373 101.079 48.2399 107.133C55.2426 113.188 83.2517 110.292 87.1421 107.133C91.0325 103.974 92.3308 95.6826 100.501 95.6826C108.67 95.6826 108.167 102.132 116.986 107.133C125.804 112.135 148.093 110.029 151.724 107.133C155.355 104.238 158.337 94.8929 154.836 81.3365Z" fill="#BDFEFF" fill-opacity="0.2" stroke="#115A30" stroke-width="4.55625"/>
<path d="M111.746 105.201C111.746 109.353 106.545 111.124 100.128 111.124C93.7112 111.124 88.5094 109.353 88.5094 105.201C88.5094 101.049 93.7112 96.0889 100.128 96.0889C106.545 96.0889 111.746 101.049 111.746 105.201Z" fill="#FFB132"/>
<path d="M87.7152 29.2134C94.6269 35.3425 98.5975 42.2163 99.7722 48.4726L87.6089 47.1755C82.6004 46.6415 77.8027 40.7378 78.0241 33.572C78.2455 26.4062 84.2003 26.0965 87.7152 29.2134Z" fill="#FFDB40"/>
<path d="M100.411 38.8942C98.2585 40.9954 97.7146 45.5745 97.7116 47.6014C101.88 47.2161 108.876 45.9345 110.13 43.265C111.384 40.5955 110.602 37.2766 109.075 36.4855C107.547 35.6945 103.101 36.2676 100.411 38.8942Z" fill="#FFDB40"/>
<mask id="mask0_4001_505" style="mask-type:alpha" maskUnits="userSpaceOnUse" x="113" y="125" width="45" height="21">
<path d="M149.263 144.336C138.338 148.731 120.977 139.563 113.662 134.429C113.301 133.485 112.798 131.082 113.673 129.017C114.766 126.435 142.902 124.597 149.431 125.344C155.96 126.092 162.919 138.843 149.263 144.336Z" fill="#FFC532"/>
</mask>
<g mask="url(#mask0_4001_505)">
<path d="M141.362 136.413C141.544 132.95 142.677 126.01 143.436 122.972L165.99 122.061L171.685 145.07L142.069 150.765C141.614 147.424 141.179 139.876 141.362 136.413Z" fill="#86D8D6"/>
</g>
<mask id="mask1_4001_505" style="mask-type:alpha" maskUnits="userSpaceOnUse" x="50" y="126" width="28" height="42">
<path d="M50.2395 156.329C50.0374 144.555 64.8034 131.615 72.2117 126.616C73.2219 126.616 75.6465 127.005 77.2628 128.56C79.2833 130.504 70.949 157.439 67.9183 163.271C64.8877 169.102 50.492 171.046 50.2395 156.329Z" fill="#FFDB40"/>
</mask>
<g mask="url(#mask1_4001_505)">
<path d="M60.7172 154.865C56.5254 153.225 47.8078 150.309 43.8591 149.397L40.6697 174.457L55.4775 186.075L74.8416 161.927C72.1078 160.029 64.9089 156.505 60.7172 154.865Z" fill="#86D8D6"/>
</g>
<path d="M147.437 134.944C148.338 133.586 150.332 133.586 151.234 134.944L162.179 151.441C163.184 152.955 162.098 154.979 160.281 154.979H138.389C136.572 154.979 135.486 152.955 136.491 151.441L147.437 134.944Z" fill="#C0E4E3"/>
<path d="M148.197 136.987C148.738 136.173 149.933 136.173 150.474 136.987L159.959 151.262C160.563 152.17 159.911 153.385 158.821 153.385H139.85C138.759 153.385 138.108 152.17 138.711 151.262L148.197 136.987Z" fill="#AFD157"/>
<rect x="145.463" y="127.072" width="7.74563" height="14.1244" fill="#C0E4E3"/>
<rect x="142.729" y="125.249" width="13.2131" height="3.18938" rx="1.59469" fill="#C0E4E3"/>
<circle cx="146.374" cy="148.942" r="1.8225" fill="#D9D9D9"/>
<circle cx="146.374" cy="148.942" r="1.8225" fill="#CCEE74"/>
<circle cx="152.752" cy="148.487" r="1.36687" fill="#CCEE74"/>
<circle cx="150.93" cy="145.297" r="0.91125" fill="#CCEE74"/>
</g>
<defs>
<clipPath id="clip0_4001_505">
<rect width="138.51" height="183.617" fill="white" transform="translate(27 20)"/>
</clipPath>
</defs>
</svg>
