<svg width="139" height="184" viewBox="0 0 139 184" fill="none" xmlns="http://www.w3.org/2000/svg">
<g id="chem Ducky" clip-path="url(#clip0_1824_1083)">
<ellipse id="Ellipse 787" cx="110.945" cy="125.752" rx="2.05031" ry="6.83437" fill="#AAAAAA"/>
<path id="Vector 21" d="M122.263 124.338C111.338 128.733 93.9771 119.564 86.662 114.43C86.3011 113.487 85.798 111.083 86.673 109.018C87.7667 106.436 115.902 104.598 122.431 105.345C128.961 106.093 135.919 118.844 122.263 124.338Z" fill="#FFC532"/>
<path id="Vector 19" d="M96.1717 175.625C99.4395 174.289 102.621 156.486 101.976 147.623L70.5883 152.632C69.9433 159.825 69.9003 174.494 71.4482 175.625C73.3831 177.038 92.087 177.295 96.1717 175.625Z" fill="#FFC532"/>
<path id="Vector 17" d="M98.625 155.905C108.394 149.409 95.1883 108.886 85.6466 103.782C76.1048 98.6775 60.5855 99.4508 53.7699 103.782C46.9542 108.112 30.1117 149.255 39.8807 155.905C49.6497 162.556 88.856 162.402 98.625 155.905Z" fill="#FFDB40"/>
<path id="Vector 18" d="M42.7938 175.625C39.526 174.289 36.3442 156.486 36.9892 147.623L68.3773 152.632C69.0222 159.825 69.0652 174.494 67.5173 175.625C65.5825 177.038 46.8786 177.295 42.7938 175.625Z" fill="#FFDB40"/>
<path id="Vector 948" d="M61.737 149.444C63.5595 139.238 63.8633 118.158 63.7873 108.894L47.8405 107.982C47.3089 109.349 45.7446 113.906 43.7398 121.196C41.7351 128.486 32.8808 154.608 28.7042 166.758C29.9952 167.593 33.8528 169.674 38.9558 171.314C44.0588 172.955 50.0427 173.213 52.3967 173.137C54.7508 169.492 59.9145 159.65 61.737 149.444Z" fill="white"/>
<path id="Vector 949" d="M86.5691 150.128C86.5691 140.104 84.2248 118.158 84.3007 108.894L100.248 107.982C100.779 109.349 102.343 113.906 104.348 121.196C109.673 140.56 108.894 156.279 106.616 168.125C105.704 169.72 104.201 170.585 99.0978 172.226C93.9948 173.866 86.6548 173.441 84.3007 173.365C85.4291 169.264 86.5691 160.495 86.5691 150.128Z" fill="white"/>
<path id="Vector 20" d="M23.2385 136.329C23.0365 124.555 37.8025 111.615 45.2107 106.617C46.2209 106.617 48.6455 107.005 50.2618 108.56C52.2823 110.504 43.948 137.44 40.9173 143.271C37.8867 149.103 23.4911 151.046 23.2385 136.329Z" fill="#FFDB40"/>
<path id="Vector" d="M71.7925 149.901C71.8861 149.902 71.9789 149.884 72.0656 149.848C72.1522 149.813 72.231 149.761 72.2975 149.696L75.4624 146.512C75.5789 146.377 75.6398 146.203 75.6329 146.025C75.626 145.847 75.5518 145.678 75.4251 145.552C75.2984 145.426 75.1286 145.352 74.9497 145.345C74.7707 145.338 74.5956 145.399 74.4596 145.515L71.2876 148.663C71.2209 148.729 71.168 148.807 71.1319 148.893C71.0958 148.979 71.0772 149.072 71.0772 149.165C71.0772 149.259 71.0958 149.351 71.1319 149.437C71.168 149.523 71.2209 149.602 71.2876 149.667C71.3516 149.738 71.4293 149.795 71.5161 149.835C71.6029 149.876 71.6969 149.898 71.7925 149.901Z" fill="#FFBB4D"/>
<path id="Vector_2" d="M74.9237 149.901C75.0165 149.902 75.1086 149.884 75.1946 149.849C75.2806 149.813 75.3587 149.762 75.4247 149.696C75.4908 149.631 75.5433 149.553 75.5792 149.467C75.615 149.381 75.6334 149.288 75.6334 149.195C75.6334 149.102 75.615 149.01 75.5792 148.924C75.5433 148.838 75.4908 148.76 75.4247 148.694L72.2844 145.553C72.2188 145.487 72.1408 145.435 72.0548 145.399C71.9688 145.363 71.8766 145.345 71.7834 145.345C71.6902 145.345 71.598 145.363 71.512 145.399C71.426 145.435 71.348 145.487 71.2824 145.553C71.151 145.686 71.0772 145.865 71.0772 146.051C71.0772 146.237 71.151 146.416 71.2824 146.549L74.4297 149.696C74.5611 149.827 74.7385 149.9 74.9237 149.901Z" fill="#FFBB4D"/>
<path id="Vector 950" d="M110.034 121.197C110.034 115.547 112.16 108.06 113.223 105.022H104.566C102.926 105.022 98.4153 105.933 96.365 106.389L101.605 131.676C104.414 132.208 110.262 133.18 111.173 132.815C112.312 132.36 110.034 128.259 110.034 121.197Z" fill="white"/>
<path id="Vector 946" d="M23.9203 128.259C23.9203 127.165 31.2103 113.177 36.9056 107.983C42.6009 102.79 49.4353 105.139 53.0803 107.071C60.8259 111.172 54.5231 132.511 51.9412 140.333C50.1187 140.636 46.1092 140.606 44.6512 138.055C42.8287 134.865 23.9203 129.626 23.9203 128.259Z" fill="white"/>
<path id="Ellipse 11" d="M127.119 79.5075C127.119 103.287 101.044 111.172 69.351 111.172C37.6583 111.172 11.3906 103.287 11.3906 79.5075C11.3906 38.961 37.6583 25.0593 69.351 25.0593C101.044 25.0593 127.119 37.0302 127.119 79.5075Z" fill="#FFDB40"/>
<path id="Line 3" d="M31.8937 91.125H38.7281" stroke="#FCA18E" stroke-width="9.1125" stroke-linecap="round"/>
<path id="Line 4" d="M107.527 91.125H114.361" stroke="#FCA18E" stroke-width="9.1125" stroke-linecap="round"/>
<path id="Vector 7" d="M45.5625 74.7229V82.0129" stroke="#123041" stroke-width="6.83437" stroke-linecap="round"/>
<path id="Vector 8" d="M100.693 74.7229V82.0129" stroke="#123041" stroke-width="6.83437" stroke-linecap="round"/>
<path id="Vector 955" d="M127.836 61.3365C125.035 50.4914 90.4453 47.5169 73.5006 47.3853C57.8526 48.7892 32.5218 47.3853 21.2399 57.3881C15.3664 62.5957 14.2373 81.0789 21.2399 87.1332C28.2426 93.1875 56.2517 90.292 60.1421 87.1332C64.0325 83.9744 65.3308 75.6826 73.5006 75.6826C81.6703 75.6826 81.1674 82.1318 89.9855 87.1332C98.8037 92.1346 121.093 90.0288 124.724 87.1332C128.355 84.2377 131.337 74.8929 127.836 61.3365Z" fill="#BDFEFF" fill-opacity="0.2" stroke="#115A30" stroke-width="4.55625"/>
<path id="Ellipse 15" d="M84.7463 85.2011C84.7463 89.3531 79.5445 91.1242 73.1278 91.1242C66.7112 91.1242 61.5094 89.3531 61.5094 85.2011C61.5094 81.0491 66.7112 76.0886 73.1278 76.0886C79.5445 76.0886 84.7463 81.0491 84.7463 85.2011Z" fill="#FFB132"/>
<path id="Vector 13" d="M60.7152 9.21337C67.6269 15.3425 71.5975 22.2163 72.7722 28.4726L60.6089 27.1755C55.6004 26.6415 50.8027 20.7378 51.0241 13.572C51.2455 6.40623 57.2003 6.09651 60.7152 9.21337Z" fill="#FFDB40"/>
<path id="Vector 14" d="M73.4105 18.8944C71.2585 20.9957 70.7146 25.5748 70.7116 27.6017C74.8804 27.2164 81.8755 25.9348 83.1299 23.2653C84.3842 20.5958 83.6018 17.2769 82.0746 16.4858C80.5474 15.6947 76.1005 16.2679 73.4105 18.8944Z" fill="#FFDB40"/>
<g id="Group 1263">
<mask id="mask0_1824_1083" style="mask-type:alpha" maskUnits="userSpaceOnUse" x="86" y="105" width="45" height="21">
<path id="Vector 951" d="M122.263 124.337C111.338 128.732 93.9769 119.563 86.6618 114.429C86.3009 113.486 85.7978 111.082 86.6728 109.017C87.7665 106.436 115.902 104.597 122.431 105.345C128.96 106.092 135.919 118.843 122.263 124.337Z" fill="#FFC532"/>
</mask>
<g mask="url(#mask0_1824_1083)">
<path id="Vector 952" d="M114.362 116.413C114.544 112.951 115.677 106.01 116.436 102.973L138.99 102.061L144.685 125.07L115.069 130.766C114.614 127.424 114.179 119.876 114.362 116.413Z" fill="#86D8D6"/>
</g>
</g>
<g id="Group 1264">
<mask id="mask1_1824_1083" style="mask-type:alpha" maskUnits="userSpaceOnUse" x="23" y="106" width="28" height="42">
<path id="Vector 954" d="M23.2395 136.328C23.0374 124.554 37.8034 111.614 45.2117 106.616C46.2219 106.616 48.6465 107.005 50.2628 108.56C52.2833 110.504 43.949 137.439 40.9183 143.27C37.8877 149.102 23.492 151.046 23.2395 136.328Z" fill="#FFDB40"/>
</mask>
<g mask="url(#mask1_1824_1083)">
<path id="Vector 953" d="M33.7172 134.865C29.5254 133.224 20.8078 130.308 16.8591 129.397L13.6697 154.457L28.4775 166.075L47.8416 141.927C45.1078 140.028 37.9089 136.505 33.7172 134.865Z" fill="#86D8D6"/>
</g>
</g>
<path id="Polygon 43" d="M120.437 114.944C121.338 113.586 123.332 113.586 124.234 114.944L135.179 131.441C136.184 132.955 135.098 134.979 133.281 134.979H111.389C109.572 134.979 108.486 132.955 109.491 131.441L120.437 114.944Z" fill="#C0E4E3"/>
<path id="Polygon 44" d="M121.197 116.987C121.738 116.173 122.933 116.173 123.474 116.987L132.959 131.262C133.563 132.17 132.911 133.385 131.821 133.385H112.85C111.759 133.385 111.108 132.17 111.711 131.262L121.197 116.987Z" fill="#AFD157"/>
<rect id="Rectangle 1613" x="118.463" y="107.072" width="7.74563" height="14.1244" fill="#C0E4E3"/>
<rect id="Rectangle 1614" x="115.729" y="105.249" width="13.2131" height="3.18938" rx="1.59469" fill="#C0E4E3"/>
<circle id="Ellipse 788" cx="119.374" cy="128.942" r="1.8225" fill="#D9D9D9"/>
<circle id="Ellipse 790" cx="119.374" cy="128.942" r="1.8225" fill="#CCEE74"/>
<circle id="Ellipse 791" cx="125.752" cy="128.487" r="1.36687" fill="#CCEE74"/>
<circle id="Ellipse 789" cx="123.93" cy="125.297" r="0.91125" fill="#CCEE74"/>
</g>
<defs>
<clipPath id="clip0_1824_1083">
<rect width="138.51" height="183.617" fill="white"/>
</clipPath>
</defs>
</svg>
