<svg width="139" height="184" viewBox="0 0 139 184" fill="none" xmlns="http://www.w3.org/2000/svg">
<g id="chem Ducky" clip-path="url(#clip0_2104_1156)">
<ellipse id="Ellipse 787" cx="110.945" cy="125.752" rx="2.05031" ry="6.83437" fill="#AAAAAA"/>
<path id="Vector 21" d="M122.263 124.338C111.338 128.733 93.977 119.564 86.6619 114.43C86.301 113.487 85.7979 111.083 86.6729 109.018C87.7666 106.436 115.902 104.598 122.431 105.345C128.961 106.093 135.919 118.844 122.263 124.338Z" fill="#FFC532"/>
<path id="Vector 19" d="M96.1717 175.625C99.4395 174.289 102.621 156.486 101.976 147.623L70.5883 152.632C69.9433 159.825 69.9003 174.494 71.4482 175.625C73.3831 177.038 92.087 177.295 96.1717 175.625Z" fill="#FFC532"/>
<path id="Vector 17" d="M98.625 155.905C108.394 149.409 95.1883 108.886 85.6466 103.782C76.1048 98.6775 60.5855 99.4508 53.7699 103.782C46.9542 108.112 30.1117 149.255 39.8807 155.905C49.6497 162.556 88.856 162.402 98.625 155.905Z" fill="#FFDB40"/>
<path id="Vector 18" d="M42.7938 175.625C39.526 174.289 36.3442 156.486 36.9892 147.623L68.3773 152.632C69.0222 159.825 69.0652 174.494 67.5173 175.625C65.5825 177.038 46.8786 177.295 42.7938 175.625Z" fill="#FFDB40"/>
<path id="Vector 948" d="M61.7369 149.444C63.5594 139.238 63.8632 118.158 63.7872 108.894L47.8404 107.982C47.3088 109.349 45.7445 113.906 43.7397 121.196C41.735 128.486 32.8807 154.608 28.7041 166.758C29.995 167.593 33.8527 169.674 38.9557 171.314C44.0587 172.955 50.0425 173.213 52.3966 173.137C54.7507 169.492 59.9144 159.65 61.7369 149.444Z" fill="white"/>
<path id="Vector 949" d="M86.5692 150.128C86.5692 140.104 84.2249 118.158 84.3008 108.894L100.248 107.982C100.779 109.349 102.344 113.906 104.348 121.196C109.673 140.56 108.894 156.279 106.616 168.125C105.704 169.72 104.201 170.585 99.098 172.226C93.995 173.866 86.6549 173.441 84.3008 173.365C85.4292 169.264 86.5692 160.495 86.5692 150.128Z" fill="white"/>
<path id="Vector 20" d="M23.2386 136.329C23.0366 124.555 37.8026 111.615 45.2108 106.617C46.2211 106.617 48.6456 107.005 50.262 108.56C52.2824 110.504 43.9481 137.44 40.9175 143.271C37.8868 149.103 23.4912 151.046 23.2386 136.329Z" fill="#FFDB40"/>
<path id="Vector" d="M71.7924 149.901C71.886 149.902 71.9788 149.884 72.0654 149.848C72.1521 149.813 72.2309 149.761 72.2974 149.696L75.4623 146.512C75.5788 146.377 75.6397 146.203 75.6328 146.025C75.6259 145.847 75.5517 145.678 75.425 145.552C75.2983 145.426 75.1285 145.352 74.9495 145.345C74.7705 145.338 74.5955 145.399 74.4595 145.515L71.2874 148.663C71.2208 148.729 71.1679 148.807 71.1317 148.893C71.0956 148.979 71.0771 149.072 71.0771 149.165C71.0771 149.259 71.0956 149.351 71.1317 149.437C71.1679 149.523 71.2208 149.602 71.2874 149.667C71.3515 149.738 71.4292 149.795 71.516 149.835C71.6028 149.876 71.6968 149.898 71.7924 149.901Z" fill="#FFBB4D"/>
<path id="Vector_2" d="M74.9235 149.901C75.0164 149.902 75.1085 149.884 75.1945 149.849C75.2804 149.813 75.3586 149.762 75.4246 149.696C75.4907 149.631 75.5432 149.553 75.579 149.467C75.6149 149.381 75.6333 149.288 75.6333 149.195C75.6333 149.102 75.6149 149.01 75.579 148.924C75.5432 148.838 75.4907 148.76 75.4246 148.694L72.2843 145.553C72.2187 145.487 72.1407 145.435 72.0547 145.399C71.9687 145.363 71.8764 145.345 71.7833 145.345C71.6901 145.345 71.5979 145.363 71.5119 145.399C71.4259 145.435 71.3479 145.487 71.2823 145.553C71.1508 145.686 71.0771 145.865 71.0771 146.051C71.0771 146.237 71.1508 146.416 71.2823 146.549L74.4296 149.696C74.561 149.827 74.7384 149.9 74.9235 149.901Z" fill="#FFBB4D"/>
<path id="Vector 950" d="M110.034 121.197C110.034 115.547 112.16 108.06 113.223 105.022H104.566C102.926 105.022 98.4153 105.933 96.365 106.389L101.605 131.676C104.414 132.208 110.262 133.18 111.173 132.815C112.312 132.36 110.034 128.259 110.034 121.197Z" fill="white"/>
<path id="Vector 946" d="M23.9204 128.259C23.9204 127.165 31.2104 113.177 36.9057 107.983C42.601 102.79 49.4354 105.139 53.0804 107.071C60.826 111.172 54.5232 132.511 51.9413 140.333C50.1188 140.636 46.1093 140.606 44.6513 138.055C42.8288 134.865 23.9204 129.626 23.9204 128.259Z" fill="white"/>
<path id="Ellipse 11" d="M127.119 79.5075C127.119 103.287 101.044 111.172 69.351 111.172C37.6583 111.172 11.3906 103.287 11.3906 79.5075C11.3906 38.961 37.6583 25.0593 69.351 25.0593C101.044 25.0593 127.119 37.0302 127.119 79.5075Z" fill="#FFDB40"/>
<path id="Line 3" d="M31.8938 91.125H38.7282" stroke="#FCA18E" stroke-width="9.1125" stroke-linecap="round"/>
<path id="Line 4" d="M107.527 91.125H114.361" stroke="#FCA18E" stroke-width="9.1125" stroke-linecap="round"/>
<path id="Vector 7" d="M45.5625 74.7229V82.0129" stroke="#123041" stroke-width="6.83437" stroke-linecap="round"/>
<path id="Vector 8" d="M100.693 74.7229V82.0129" stroke="#123041" stroke-width="6.83437" stroke-linecap="round"/>
<path id="Vector 955" d="M127.836 61.3365C125.035 50.4914 90.4453 47.5169 73.5006 47.3853C57.8526 48.7892 32.5218 47.3853 21.2399 57.3881C15.3664 62.5957 14.2373 81.0789 21.2399 87.1332C28.2426 93.1875 56.2517 90.292 60.1421 87.1332C64.0325 83.9744 65.3308 75.6826 73.5006 75.6826C81.6703 75.6826 81.1674 82.1318 89.9855 87.1332C98.8037 92.1346 121.093 90.0288 124.724 87.1332C128.355 84.2377 131.337 74.8929 127.836 61.3365Z" fill="#BDFEFF" fill-opacity="0.2" stroke="#115A30" stroke-width="4.55625"/>
<path id="Ellipse 15" d="M84.7462 85.2011C84.7462 89.3531 79.5444 91.1242 73.1277 91.1242C66.711 91.1242 61.5093 89.3531 61.5093 85.2011C61.5093 81.0491 66.711 76.0886 73.1277 76.0886C79.5444 76.0886 84.7462 81.0491 84.7462 85.2011Z" fill="#FFB132"/>
<path id="Vector 13" d="M60.7152 9.21337C67.6269 15.3425 71.5975 22.2163 72.7722 28.4726L60.6089 27.1755C55.6004 26.6415 50.8027 20.7378 51.0241 13.572C51.2455 6.40623 57.2003 6.09651 60.7152 9.21337Z" fill="#FFDB40"/>
<path id="Vector 14" d="M73.4105 18.8944C71.2585 20.9957 70.7146 25.5748 70.7116 27.6017C74.8804 27.2164 81.8755 25.9348 83.1299 23.2653C84.3842 20.5958 83.6018 17.2769 82.0746 16.4858C80.5474 15.6947 76.1005 16.2679 73.4105 18.8944Z" fill="#FFDB40"/>
<g id="Group 1263">
<mask id="mask0_2104_1156" style="mask-type:alpha" maskUnits="userSpaceOnUse" x="86" y="105" width="45" height="21">
<path id="Vector 951" d="M122.263 124.337C111.338 128.732 93.9767 119.563 86.6616 114.429C86.3007 113.486 85.7977 111.082 86.6726 109.017C87.7664 106.436 115.902 104.597 122.431 105.345C128.96 106.092 135.919 118.843 122.263 124.337Z" fill="#FFC532"/>
</mask>
<g mask="url(#mask0_2104_1156)">
<path id="Vector 952" d="M114.362 116.413C114.544 112.951 115.677 106.01 116.436 102.973L138.99 102.061L144.685 125.07L115.069 130.766C114.614 127.424 114.179 119.876 114.362 116.413Z" fill="#86D8D6"/>
</g>
</g>
<g id="Group 1264">
<mask id="mask1_2104_1156" style="mask-type:alpha" maskUnits="userSpaceOnUse" x="23" y="106" width="28" height="42">
<path id="Vector 954" d="M23.2396 136.328C23.0376 124.554 37.8036 111.614 45.2118 106.616C46.222 106.616 48.6466 107.005 50.2629 108.56C52.2834 110.504 43.9491 137.439 40.9184 143.27C37.8878 149.102 23.4922 151.046 23.2396 136.328Z" fill="#FFDB40"/>
</mask>
<g mask="url(#mask1_2104_1156)">
<path id="Vector 953" d="M33.7172 134.865C29.5254 133.224 20.8078 130.308 16.8591 129.397L13.6697 154.457L28.4775 166.075L47.8416 141.927C45.1078 140.028 37.9089 136.505 33.7172 134.865Z" fill="#86D8D6"/>
</g>
</g>
<path id="Polygon 43" d="M120.437 114.944C121.338 113.586 123.332 113.586 124.234 114.944L135.179 131.441C136.184 132.955 135.098 134.979 133.281 134.979H111.389C109.572 134.979 108.486 132.955 109.491 131.441L120.437 114.944Z" fill="#C0E4E3"/>
<path id="Polygon 44" d="M121.197 116.987C121.737 116.173 122.933 116.173 123.473 116.987L132.959 131.262C133.563 132.17 132.911 133.385 131.82 133.385H112.85C111.759 133.385 111.108 132.17 111.711 131.262L121.197 116.987Z" fill="#AFD157"/>
<rect id="Rectangle 1613" x="118.462" y="107.072" width="7.74563" height="14.1244" fill="#C0E4E3"/>
<rect id="Rectangle 1614" x="115.729" y="105.249" width="13.2131" height="3.18938" rx="1.59469" fill="#C0E4E3"/>
<circle id="Ellipse 788" cx="119.374" cy="128.942" r="1.8225" fill="#D9D9D9"/>
<circle id="Ellipse 790" cx="119.374" cy="128.942" r="1.8225" fill="#CCEE74"/>
<circle id="Ellipse 791" cx="125.752" cy="128.487" r="1.36687" fill="#CCEE74"/>
<circle id="Ellipse 789" cx="123.93" cy="125.297" r="0.91125" fill="#CCEE74"/>
</g>
<defs>
<clipPath id="clip0_2104_1156">
<rect width="138.51" height="183.617" fill="white"/>
</clipPath>
</defs>
</svg>
