<svg width="350" height="567" viewBox="0 0 350 567" fill="none" xmlns="http://www.w3.org/2000/svg">
<g clip-path="url(#clip0_448_2836)">
<path d="M204.103 344.832C190.995 332.167 192.994 301.843 195.631 288.265C196.737 287.159 199.816 284.931 203.287 284.864C207.626 284.78 227.984 323.382 231.05 333.081C234.115 342.78 220.487 360.663 204.103 344.832Z" fill="#EFEFEF"/>
<path d="M270.008 364.941C264.969 367.056 242.002 351.053 233.008 340.647L272.844 311.777C281.422 318.943 297.524 334.951 297.067 337.882C296.496 341.546 276.306 362.298 270.008 364.941Z" fill="#EFEFEF"/>
<path d="M245.742 346.044C227.94 349.626 198.041 290.821 202.898 274.792C207.755 258.762 225.587 242.623 237.786 239.904C249.986 237.184 313.448 263.779 310.036 281.75C306.623 299.721 263.543 342.462 245.742 346.044Z" fill="white"/>
<path d="M328.429 306.521C330.543 301.482 314.541 278.515 304.135 269.52L275.264 309.357C282.431 317.935 298.439 334.037 301.37 333.58C305.034 333.009 325.786 312.819 328.429 306.521Z" fill="white"/>
<path d="M306.824 242.111C294.159 229.004 263.835 231.002 250.257 233.639C249.151 234.745 246.923 237.824 246.856 241.295C246.772 245.634 285.374 265.992 295.073 269.058C304.772 272.123 322.655 258.495 306.824 242.111Z" fill="white"/>
<path d="M235.368 326.237C248.67 339.539 263.252 331.347 277.297 317.302C291.343 303.256 299.535 288.675 286.232 275.372C268.745 257.885 247.46 259.373 233.415 273.419C219.369 287.465 217.881 308.749 235.368 326.237Z" fill="#F4F4F4"/>
<path d="M268.536 310.105C268.434 310.208 268.313 310.29 268.18 310.346C268.046 310.403 267.903 310.432 267.759 310.433L260.811 310.413C260.535 310.392 260.278 310.268 260.091 310.066C259.903 309.863 259.8 309.597 259.8 309.321C259.801 309.044 259.906 308.778 260.095 308.574C260.283 308.371 260.541 308.245 260.816 308.223L267.734 308.197C267.879 308.196 268.022 308.224 268.156 308.279C268.29 308.334 268.411 308.414 268.514 308.517C268.616 308.619 268.697 308.74 268.752 308.874C268.806 309.008 268.834 309.152 268.833 309.297C268.84 309.444 268.818 309.592 268.767 309.731C268.716 309.87 268.637 309.997 268.536 310.105Z" fill="#FFD2D2"/>
<path d="M265.109 313.532C265.008 313.634 264.888 313.715 264.755 313.771C264.623 313.827 264.48 313.856 264.337 313.856C264.193 313.857 264.05 313.829 263.916 313.774C263.783 313.719 263.662 313.638 263.56 313.536C263.458 313.434 263.377 313.313 263.322 313.18C263.267 313.046 263.239 312.903 263.24 312.759L263.239 305.885C263.239 305.741 263.267 305.598 263.322 305.465C263.377 305.331 263.457 305.21 263.559 305.108C263.661 305.006 263.782 304.926 263.916 304.871C264.049 304.816 264.192 304.788 264.336 304.788C264.625 304.789 264.901 304.904 265.105 305.108C265.309 305.312 265.424 305.589 265.425 305.877L265.426 312.767C265.425 313.054 265.311 313.328 265.109 313.532Z" fill="#FFD2D2"/>
<path d="M162.385 116.02C171.327 132.941 179.562 175.34 186.536 189.54L152.377 223.698C138.177 216.725 97.0951 207.172 79.107 199.298C56.7975 189.532 42.4755 162.164 60.0923 144.547C74.6378 130.002 105.471 147.207 120.247 158.158C109.297 143.381 92.5898 112.05 106.637 98.0028C124.253 80.3861 151.006 94.4884 162.385 116.02Z" fill="white"/>
<path d="M132.436 293.116C158.462 319.142 195.631 299.233 230.318 264.547C265.005 229.86 283.654 201.341 237.462 155.149C218.16 135.847 213.218 130.819 194.797 130.819C188.802 130.819 175.05 135.403 171.172 143.865C169.056 151.975 150.514 155.854 136.07 170.298C101.383 204.985 85.9456 246.626 132.436 293.116Z" fill="white"/>
<path d="M211.474 198.618L219.453 206.597" stroke="black" stroke-width="10.5784" stroke-linecap="round"/>
<path d="M151.135 258.958L159.114 266.936" stroke="black" stroke-width="10.5784" stroke-linecap="round"/>
<path d="M235.839 200.617L228.359 208.097" stroke="white" stroke-width="21.1567" stroke-linecap="round"/>
<path d="M221.503 199.91C220.43 200.67 218.2 203.007 217.858 206.279C217.517 209.55 218.638 212.4 219.241 213.415" stroke="#EFEFEF" stroke-width="3.52612" stroke-linecap="round"/>
<path d="M235.839 200.617L228.359 208.097" stroke="#FFD2D2" stroke-width="14.1045" stroke-linecap="round"/>
<path d="M163.103 285.884L155.623 293.364" stroke="#FFD2D2" stroke-width="14.1045" stroke-linecap="round"/>
<path d="M193.751 257.689C198.245 262.183 200.504 264.442 208.732 256.214C216.96 247.986 215.102 246.128 210.207 241.233C205.312 236.338 193.828 232.222 189.284 236.766C184.74 241.31 189.258 253.196 193.751 257.689Z" fill="#FFD2D2"/>
<path fill-rule="evenodd" clip-rule="evenodd" d="M203.283 236.743C198.167 234.523 192.247 233.801 189.282 236.766C186.358 239.691 187.187 245.656 189.347 250.735C192.242 249.682 195.177 247.826 197.76 245.243C200.369 242.634 202.236 239.666 203.283 236.743Z" fill="#EFEFEF"/>
<path d="M184.342 227.746C183.363 228.725 183.322 229.581 183.119 230.601C182.099 230.805 181.242 230.845 180.263 231.824C179.04 233.048 179.612 235.041 180.672 235.495C182.1 236.107 184.615 235.632 186.791 234.273C188.15 232.098 188.625 229.582 188.013 228.155C187.558 227.094 185.565 226.522 184.342 227.746Z" fill="#FFD2D2"/>
</g>
<g clip-path="url(#clip1_448_2836)">
<path d="M236.356 228.429C252.985 235.892 280.395 222.772 292.022 215.278C292.638 213.841 293.563 210.154 292.336 206.907C290.802 202.847 247.399 198.287 237.255 199.045C227.111 199.802 215.571 219.099 236.356 228.429Z" fill="#EFD565"/>
<path d="M316.204 306.352C310.744 306.139 296.692 281.929 292.938 268.697L341.243 259.367C345.989 269.487 353.817 290.8 352.164 293.264C350.098 296.343 323.03 306.618 316.204 306.352Z" fill="#EFD565"/>
<path d="M302.198 278.971C284.55 274.694 282.304 208.763 293.481 196.288C304.657 183.813 327.639 176.722 339.844 179.413C352.05 182.104 398.327 233.028 387.639 247.873C376.952 262.717 319.845 283.248 302.198 278.971Z" fill="#FFE36C"/>
<path d="M393.84 278.095C397.885 274.423 393.089 246.844 387.459 234.294L344.457 258.197C347.327 269.001 355.03 290.359 357.88 291.184C361.442 292.214 388.782 282.687 393.84 278.095Z" fill="#FFE36C"/>
<path d="M401.479 210.588C395.54 193.356 367.213 182.352 353.792 179.004C352.322 179.538 349.002 181.387 347.474 184.505C345.564 188.402 371.945 223.167 379.441 230.044C386.936 236.921 408.903 232.127 401.479 210.588Z" fill="#FFE36C"/>
<path d="M338.044 256.032C337.908 256.082 337.763 256.106 337.619 256.1C337.474 256.095 337.332 256.061 337.201 256.001L330.912 253.046C330.671 252.911 330.49 252.69 330.406 252.427C330.322 252.165 330.34 251.88 330.458 251.63C330.575 251.379 330.783 251.182 331.04 251.077C331.297 250.973 331.583 250.968 331.843 251.065L338.123 253.964C338.254 254.024 338.373 254.11 338.471 254.217C338.569 254.323 338.645 254.447 338.695 254.583C338.744 254.719 338.766 254.863 338.759 255.008C338.752 255.152 338.717 255.294 338.655 255.425C338.599 255.562 338.516 255.686 338.411 255.79C338.306 255.895 338.181 255.977 338.044 256.032Z" fill="#FFBB4D"/>
<path d="M333.489 257.69C333.355 257.74 333.211 257.762 333.068 257.757C332.924 257.751 332.783 257.717 332.652 257.657C332.521 257.597 332.404 257.511 332.306 257.405C332.209 257.299 332.133 257.174 332.084 257.039C332.034 256.903 332.012 256.759 332.019 256.615C332.025 256.471 332.06 256.33 332.122 256.2L335.027 249.969C335.087 249.838 335.173 249.721 335.279 249.623C335.385 249.525 335.509 249.45 335.645 249.4C335.78 249.351 335.924 249.329 336.068 249.336C336.212 249.342 336.354 249.377 336.484 249.439C336.745 249.562 336.947 249.783 337.046 250.054C337.145 250.325 337.132 250.624 337.011 250.886L334.1 257.13C333.977 257.39 333.758 257.591 333.489 257.69Z" fill="#FFBB4D"/>
<path d="M220.308 182.936C232.897 217.522 274.997 215.187 321.093 198.41C367.19 181.632 401.221 156.257 388.632 121.671C367.168 62.6969 321.603 56.383 275.507 73.1606C229.411 89.9382 197.821 121.154 220.308 182.936Z" fill="#FFE36C"/>
<path d="M364.961 149.423L355.021 153.041" stroke="#FFA052" stroke-width="14.1045" stroke-linecap="round"/>
<path d="M254.955 189.463L245.014 193.081" stroke="#FFA052" stroke-width="14.1045" stroke-linecap="round"/>
<path d="M336.396 132.802L340.256 143.406" stroke="black" stroke-width="10.5784" stroke-linecap="round"/>
<path d="M256.212 161.987L260.071 172.59" stroke="black" stroke-width="10.5784" stroke-linecap="round"/>
<path d="M284.954 168.787C287.152 174.826 295.655 174.648 304.988 171.252C314.321 167.855 320.949 162.525 318.751 156.486C316.553 150.447 306.361 145.986 297.028 149.383C287.695 152.78 282.756 162.748 284.954 168.787Z" fill="#FFBB4D"/>
<path d="M279.678 45.542C272.87 58.1155 270.734 70.2154 272.337 79.9367L289.342 71.6112C296.344 68.183 300.196 57.0565 296.081 46.7512C291.965 36.446 283.14 39.1479 279.678 45.542Z" fill="#FFE36C"/>
<path d="M266.34 66.3443C270.582 68.2613 273.798 74.6335 274.875 77.5801C268.608 79.2265 257.755 81.0656 254.517 77.8469C251.28 74.6282 250.661 69.3867 252.463 67.4277C254.266 65.4686 261.037 63.9481 266.34 66.3443Z" fill="#FFE36C"/>
</g>
<g clip-path="url(#clip2_448_2836)">
<ellipse cx="28.1891" cy="30.3773" rx="28.1891" ry="30.3773" transform="matrix(-0.99996 -0.00896114 -0.00896114 0.99996 342.713 197.529)" fill="#49B236"/>
<ellipse cx="205.924" cy="284.788" rx="28.189" ry="30.3773" transform="rotate(-56.8657 205.924 284.788)" fill="#49B236"/>
<path d="M260.956 412.304C252.076 396.387 262.765 367.94 269.22 355.706C270.598 354.968 274.19 353.726 277.532 354.666C281.709 355.842 290.024 398.684 290.151 408.855C290.278 419.026 272.057 432.2 260.956 412.304Z" fill="#4B9B3A"/>
<path d="M318.221 450.629C312.787 451.194 295.434 429.229 289.836 416.665L336.323 400.56C342.461 409.903 353.24 429.886 351.954 432.56C350.347 435.902 325.015 449.922 318.221 450.629Z" fill="#4B9B3A"/>
<path d="M300.464 425.517C282.387 423.794 270.788 358.852 280.077 344.914C289.365 330.977 311.105 320.689 323.569 321.617C336.034 322.545 389.083 366.37 380.615 382.584C372.147 398.798 318.54 427.241 300.464 425.517Z" fill="#49B236"/>
<path d="M391.05 411.617C394.532 407.406 385.862 380.79 378.505 369.169L339.34 398.944C343.717 409.23 354.379 429.275 357.317 429.686C360.99 430.2 386.697 416.881 391.05 411.617Z" fill="#49B236"/>
<path d="M389.012 343.71C380.683 327.498 351.079 320.634 337.318 319.229C335.939 319.967 332.916 322.27 331.847 325.573C330.511 329.702 361.568 360.361 369.965 366.103C378.362 371.844 399.424 363.975 389.012 343.71Z" fill="#49B236"/>
<path d="M294.765 400.75C304.859 419.595 321.478 416.517 338.988 407.138C356.498 397.759 368.268 385.629 358.174 366.785C344.904 342.012 323.199 335.593 305.689 344.972C288.179 354.352 281.496 375.977 294.765 400.75Z" fill="#9CD43D"/>
<path d="M332.685 397.713C332.557 397.783 332.418 397.826 332.274 397.841C332.13 397.857 331.984 397.843 331.846 397.803L325.201 395.772C324.943 395.673 324.733 395.48 324.612 395.232C324.491 394.984 324.469 394.699 324.55 394.435C324.631 394.17 324.808 393.945 325.048 393.805C325.287 393.665 325.57 393.62 325.84 393.678L332.469 395.655C332.608 395.696 332.737 395.764 332.85 395.856C332.962 395.947 333.055 396.059 333.123 396.187C333.191 396.314 333.234 396.454 333.247 396.598C333.261 396.742 333.246 396.887 333.203 397.026C333.167 397.169 333.103 397.304 333.014 397.422C332.925 397.54 332.813 397.639 332.685 397.713Z" fill="#49B236"/>
<path d="M328.413 400.002C328.286 400.07 328.148 400.113 328.005 400.128C327.862 400.143 327.717 400.13 327.579 400.089C327.441 400.048 327.313 399.98 327.201 399.888C327.089 399.797 326.996 399.685 326.928 399.558C326.86 399.431 326.818 399.291 326.804 399.148C326.79 399.004 326.805 398.859 326.847 398.721L328.836 392.141C328.877 392.003 328.945 391.874 329.037 391.763C329.128 391.651 329.24 391.558 329.367 391.49C329.494 391.422 329.634 391.38 329.777 391.366C329.921 391.352 330.066 391.367 330.203 391.409C330.479 391.493 330.711 391.683 330.847 391.938C330.983 392.192 331.013 392.49 330.931 392.767L328.937 399.362C328.853 399.636 328.665 399.866 328.413 400.002Z" fill="#49B236"/>
<path d="M202.851 342.669C220.414 375.457 262.376 366.972 306.299 343.445C350.221 319.917 380.801 289.544 363.238 256.756C338.008 209.655 290.781 208.952 246.859 232.479C202.937 256.007 175.623 291.838 202.851 342.669Z" fill="#49B236"/>
<path d="M309.712 230.013L315.04 239.96" stroke="black" stroke-width="10.5784" stroke-linecap="round"/>
<path d="M203.697 286L209.025 295.946" stroke="black" stroke-width="10.5784" stroke-linecap="round"/>
<path d="M340.372 254.392L329.803 260.052" stroke="#9CD43D" stroke-width="14.1045" stroke-linecap="round"/>
<path d="M225.365 315.995L214.797 321.656" stroke="#9CD43D" stroke-width="14.1045" stroke-linecap="round"/>
<path d="M256.734 286.438C252.733 278.969 250.721 275.214 264.709 267.721C278.696 260.229 280.35 263.317 284.708 271.453C291.849 284.784 289.749 295.909 282.024 300.047C274.299 304.185 263.375 298.837 256.734 286.438Z" fill="#FFD2D2"/>
<path fill-rule="evenodd" clip-rule="evenodd" d="M285.423 272.843C291.694 285.553 289.478 296.053 282.023 300.046C276.611 302.945 269.629 301.188 263.649 295.612C264.661 291.002 267.197 286.117 271.123 281.833C275.405 277.16 280.545 274.073 285.423 272.843Z" fill="#FF2D2D"/>
</g>
<g clip-path="url(#clip3_448_2836)">
<path d="M313.877 323.339C317.902 334.398 321.783 333.059 326.541 331.328C331.299 329.596 335.132 328.126 331.107 317.068C327.082 306.01 318.539 298.967 315.205 300.181C311.87 301.395 309.852 312.281 313.877 323.339Z" fill="#FFC145"/>
<path d="M209.835 361.207C213.86 372.265 217.741 370.927 222.499 369.195C227.257 367.463 231.09 365.994 227.065 354.935C223.04 343.877 214.497 336.834 211.162 338.048C207.828 339.262 205.81 350.148 209.835 361.207Z" fill="#FFC145"/>
<path d="M342.547 310.605C326.806 329.78 335.158 333.443 343.529 340.315C351.9 347.187 357.44 354.276 372.861 335.491C380.69 325.955 380.25 312.653 371.879 305.781C363.508 298.909 350.375 301.069 342.547 310.605Z" fill="white"/>
<path d="M195.026 364.299C219.41 368.87 215.366 377.045 213.371 387.69C211.375 398.335 211.689 407.326 187.8 402.848C175.673 400.575 167.46 390.103 169.456 379.458C171.451 368.812 182.9 362.026 195.026 364.299Z" fill="black"/>
<path d="M193.759 376.222C205.912 378.5 204.089 381.547 203.332 385.586C202.575 389.625 202.923 393.08 191.017 390.848C184.973 389.715 180.687 385.522 181.444 381.483C182.201 377.444 187.715 375.089 193.759 376.222Z" fill="#FFCACA"/>
<path d="M351.776 318.709C343.931 328.266 347.286 329.429 350.462 332.036C353.639 334.643 355.592 337.514 363.278 328.151C367.18 323.398 367.768 317.431 364.592 314.824C361.416 312.216 355.678 313.956 351.776 318.709Z" fill="#FFCACA"/>
<path d="M210.831 436.109C223.419 470.696 265.52 468.361 311.616 451.583C357.712 434.806 391.744 409.431 379.155 374.844C357.69 315.87 312.125 309.557 266.029 326.334C219.933 343.112 188.344 374.327 210.831 436.109Z" fill="white"/>
<path fill-rule="evenodd" clip-rule="evenodd" d="M260.207 328.565C263.836 339.741 266.799 355.054 261.699 363.54C257.213 371.002 250.352 374.984 244.221 378.542C238.981 381.583 234.274 384.315 232.04 388.645C230.853 390.945 230.101 393.812 229.286 396.918C226.832 406.273 223.809 417.793 206.616 422.514C193.861 372.099 220.747 344.46 260.207 328.565Z" fill="black"/>
<path d="M333.124 384.467L336.983 395.07" stroke="black" stroke-width="10.5784" stroke-linecap="round"/>
<path d="M244.324 416.787L248.183 427.391" stroke="black" stroke-width="10.5784" stroke-linecap="round"/>
<path d="M328.844 413.943C323.888 400.328 308.834 393.308 295.219 398.263L282.893 402.749C269.278 407.705 262.258 422.759 267.213 436.374C270.517 445.451 280.553 450.131 289.63 446.827L318.391 436.359C327.467 433.056 332.147 423.019 328.844 413.943Z" fill="#FFCACA"/>
<path d="M308.732 414.358L311.385 421.647" stroke="black" stroke-width="7.05224" stroke-linecap="round"/>
<path d="M282.224 424.006L284.877 431.296" stroke="black" stroke-width="7.05224" stroke-linecap="round"/>
<path d="M362.412 403.076L352.471 406.694" stroke="#FFD2D2" stroke-width="14.1045" stroke-linecap="round"/>
<path d="M243.789 446.25L233.849 449.868" stroke="#FFD2D2" stroke-width="14.1045" stroke-linecap="round"/>
<path d="M300.227 509.028C296.337 512.206 286.399 518.012 277.767 515.815C269.136 513.618 264.391 508.532 263.098 506.264" stroke="black" stroke-width="5.64179"/>
<path d="M267.93 504.662C266.792 510.932 259.835 514.514 254.777 509.455C248.676 503.355 248.623 497.847 249.532 496.938C250.252 496.22 251.879 498.72 252.359 498.552C252.838 498.385 248.041 492.721 251.266 491.399C255.765 489.555 269.309 497.061 267.93 504.662Z" fill="#A8A8A8"/>
<path d="M386.618 516.929C385.242 510.766 345.491 437.827 338.698 435.829C331.905 433.832 280.027 454.571 276.793 462.835C273.559 471.098 284.456 510.582 319.717 538.438C359.012 569.481 387.993 523.093 386.618 516.929Z" fill="white"/>
<path d="M323.853 563.475C320.147 559.46 320.68 539.497 310.807 530.682L362.907 520.063C368.29 529.859 364.399 560.911 362.907 563.475C361.042 566.68 328.084 568.059 323.853 563.475Z" fill="white"/>
<path d="M324.089 503.995C332.45 520.847 345.424 519.454 358.951 512.742C372.478 506.03 381.436 496.542 373.074 479.69C362.082 457.536 344.895 450.437 331.368 457.149C317.841 463.861 313.097 481.842 324.089 503.995Z" fill="#FFD2D2"/>
<path d="M356.392 503.844C356.267 503.917 356.129 503.965 355.986 503.985C355.842 504.005 355.696 503.996 355.557 503.96L348.851 502.142C348.59 502.051 348.373 501.864 348.245 501.62C348.116 501.376 348.085 501.092 348.157 500.826C348.23 500.559 348.4 500.328 348.635 500.181C348.869 500.033 349.151 499.979 349.423 500.029L356.111 501.794C356.251 501.83 356.383 501.894 356.498 501.982C356.613 502.069 356.71 502.179 356.782 502.304C356.854 502.429 356.901 502.568 356.919 502.711C356.937 502.855 356.927 503 356.888 503.14C356.857 503.284 356.797 503.421 356.712 503.542C356.627 503.663 356.518 503.766 356.392 503.844Z" fill="#FF8D8D"/>
<path d="M352.195 506.267C352.071 506.34 351.934 506.387 351.791 506.407C351.649 506.426 351.504 506.417 351.365 506.38C351.226 506.344 351.095 506.28 350.98 506.192C350.866 506.105 350.77 505.995 350.698 505.87C350.625 505.745 350.579 505.608 350.56 505.465C350.542 505.322 350.552 505.176 350.59 505.037L352.368 498.397C352.405 498.258 352.469 498.127 352.557 498.012C352.644 497.898 352.754 497.802 352.878 497.729C353.003 497.657 353.141 497.611 353.284 497.592C353.427 497.574 353.572 497.584 353.712 497.622C353.99 497.697 354.227 497.88 354.372 498.13C354.516 498.38 354.556 498.676 354.482 498.955L352.699 505.61C352.624 505.887 352.443 506.123 352.195 506.267Z" fill="#FF8D8D"/>
</g>
<path d="M373.863 437.106C364.882 452.966 335.024 458.622 321.217 459.467C319.87 458.673 316.942 456.25 316.008 452.906C314.841 448.727 347.118 419.354 355.741 413.958C364.364 408.562 385.089 417.28 373.863 437.106Z" fill="white"/>
<defs>
<clipPath id="clip0_448_2836">
<rect width="229.903" height="321.582" fill="white" transform="matrix(-0.707107 0.707107 0.707107 0.707107 163.103 34.5559)"/>
</clipPath>
<clipPath id="clip1_448_2836">
<rect width="214.388" height="284.205" fill="white" transform="matrix(-0.939693 0.34202 0.34202 0.939693 363.109 0)"/>
</clipPath>
<clipPath id="clip2_448_2836">
<rect width="198.168" height="260.228" fill="white" transform="matrix(-0.8815 0.472183 0.472183 0.8815 324.745 169.959)"/>
</clipPath>
<clipPath id="clip3_448_2836">
<rect width="222.146" height="423.278" fill="white" transform="matrix(-0.939693 0.34202 0.34202 0.939693 362.794 270.101)"/>
</clipPath>
</defs>
</svg>
