<svg width="461" height="597" viewBox="0 0 461 597" fill="none" xmlns="http://www.w3.org/2000/svg">
<g clip-path="url(#clip0_1481_160)">
<g clip-path="url(#clip1_1481_160)">
<path d="M185.057 395.48C173.142 383.966 174.958 356.399 177.356 344.055C178.361 343.05 181.16 341.025 184.316 340.964C188.26 340.887 206.768 375.98 209.554 384.797C212.341 393.614 199.952 409.871 185.057 395.48Z" fill="#EFEFEF"/>
<path d="M244.97 413.761C240.389 415.683 219.51 401.135 211.333 391.675L247.548 365.43C255.346 371.945 269.984 386.497 269.569 389.162C269.049 392.493 250.695 411.358 244.97 413.761Z" fill="#EFEFEF"/>
<path d="M222.912 396.582C206.729 399.838 179.548 346.379 183.964 331.807C188.379 317.235 204.589 302.564 215.68 300.091C226.77 297.619 284.462 321.796 281.36 338.133C278.258 354.47 239.095 393.325 222.912 396.582Z" fill="white"/>
<path d="M298.081 360.652C300.003 356.072 285.456 335.193 275.996 327.016L249.75 363.23C256.265 371.029 270.817 385.667 273.482 385.251C276.813 384.732 295.678 366.378 298.081 360.652Z" fill="white"/>
<path d="M278.44 302.098C266.926 290.182 239.359 291.999 227.015 294.397C226.01 295.402 223.985 298.201 223.924 301.356C223.847 305.301 258.94 323.808 267.757 326.595C276.574 329.381 292.831 316.992 278.44 302.098Z" fill="white"/>
<path d="M213.48 378.575C225.573 390.668 238.829 383.221 251.597 370.452C264.366 357.684 271.813 344.428 259.72 332.335C243.823 316.438 224.473 317.791 211.704 330.559C198.936 343.328 197.583 362.677 213.48 378.575Z" fill="#F4F4F4"/>
<path d="M243.633 363.911C243.54 364.005 243.43 364.079 243.309 364.13C243.187 364.182 243.057 364.208 242.926 364.209L236.61 364.191C236.359 364.172 236.125 364.059 235.955 363.875C235.785 363.691 235.691 363.449 235.691 363.198C235.692 362.947 235.787 362.704 235.959 362.519C236.13 362.334 236.364 362.221 236.615 362.201L242.903 362.177C243.035 362.176 243.166 362.201 243.287 362.251C243.409 362.301 243.519 362.374 243.612 362.467C243.705 362.56 243.779 362.671 243.829 362.792C243.878 362.914 243.904 363.044 243.903 363.176C243.909 363.31 243.889 363.444 243.842 363.571C243.796 363.697 243.725 363.813 243.633 363.911Z" fill="#FFD2D2"/>
<path d="M240.517 367.026C240.425 367.119 240.316 367.193 240.196 367.244C240.075 367.294 239.946 367.321 239.815 367.321C239.684 367.322 239.554 367.296 239.433 367.246C239.312 367.196 239.202 367.123 239.109 367.03C239.016 366.938 238.943 366.827 238.893 366.706C238.843 366.585 238.817 366.455 238.818 366.324L238.818 360.075C238.817 359.944 238.843 359.814 238.892 359.693C238.942 359.571 239.016 359.461 239.108 359.369C239.201 359.276 239.311 359.203 239.432 359.153C239.554 359.103 239.684 359.077 239.815 359.078C240.077 359.079 240.328 359.183 240.514 359.369C240.699 359.554 240.804 359.806 240.805 360.068L240.805 366.331C240.804 366.592 240.701 366.841 240.517 367.026Z" fill="#FFD2D2"/>
<path d="M147.132 187.472C155.261 202.854 162.748 241.398 169.088 254.307L138.035 285.36C125.126 279.02 87.779 270.336 71.4264 263.178C51.1453 254.3 38.1255 229.42 54.1405 213.405C67.3635 200.182 95.3933 215.823 108.826 225.778C98.8711 212.345 83.6834 183.862 96.453 171.093C112.468 155.078 136.788 167.898 147.132 187.472Z" fill="white"/>
<path d="M119.906 348.467C143.566 372.127 177.356 354.028 208.889 322.495C240.422 290.962 257.376 265.036 215.384 223.044C197.837 205.496 193.344 200.926 176.597 200.926C171.148 200.926 158.646 205.093 155.12 212.786C153.197 220.159 136.341 223.685 123.21 236.816C91.677 268.349 77.6432 306.204 119.906 348.467Z" fill="white"/>
<path d="M191.758 262.56L199.012 269.813" stroke="black" stroke-width="9.61656" stroke-linecap="round"/>
<path d="M136.904 317.413L144.157 324.666" stroke="black" stroke-width="9.61656" stroke-linecap="round"/>
<path d="M213.909 264.377L207.109 271.177" stroke="white" stroke-width="19.2331" stroke-linecap="round"/>
<path d="M200.876 263.734C199.901 264.425 197.874 266.549 197.563 269.524C197.253 272.498 198.272 275.088 198.82 276.011" stroke="black" stroke-width="3.20552" stroke-linecap="round"/>
<path d="M213.909 264.377L207.109 271.177" stroke="#FFD2D2" stroke-width="12.8221" stroke-linecap="round"/>
<path d="M147.785 341.892L140.985 348.692" stroke="#FFD2D2" stroke-width="12.8221" stroke-linecap="round"/>
<path d="M175.646 316.261C179.731 320.346 181.785 322.399 189.265 314.92C196.745 307.44 195.056 305.751 190.606 301.301C186.156 296.851 175.716 293.109 171.585 297.24C167.454 301.371 171.561 312.176 175.646 316.261Z" fill="#FFD2D2"/>
<path fill-rule="evenodd" clip-rule="evenodd" d="M184.31 297.217C179.66 295.2 174.278 294.543 171.583 297.239C168.924 299.897 169.678 305.32 171.641 309.936C174.273 308.98 176.942 307.293 179.29 304.945C181.662 302.573 183.359 299.874 184.31 297.217Z" fill="#EFEFEF"/>
<path d="M167.094 289.04C166.204 289.93 166.167 290.709 165.982 291.636C165.055 291.821 164.276 291.858 163.386 292.748C162.274 293.86 162.794 295.672 163.758 296.085C165.056 296.642 167.343 296.21 169.32 294.974C170.556 292.997 170.988 290.71 170.431 289.412C170.018 288.448 168.206 287.928 167.094 289.04Z" fill="#FFD2D2"/>
</g>
<g clip-path="url(#clip2_1481_160)">
<path d="M214.381 289.659C229.498 296.445 254.416 284.517 264.986 277.705C265.546 276.398 266.387 273.047 265.271 270.095C263.876 266.404 224.42 262.259 215.199 262.947C205.977 263.636 195.486 281.178 214.381 289.659Z" fill="#EFD565"/>
<path d="M286.969 360.5C282.005 360.306 269.23 338.298 265.818 326.268L309.731 317.786C314.046 326.987 321.162 346.362 319.659 348.601C317.781 351.401 293.174 360.742 286.969 360.5Z" fill="#EFD565"/>
<path d="M274.235 335.608C258.192 331.72 256.151 271.783 266.311 260.442C276.471 249.101 297.363 242.655 308.459 245.101C319.555 247.548 361.625 293.842 351.909 307.337C342.193 320.832 290.279 339.496 274.235 335.608Z" fill="#FFE36C"/>
<path d="M357.546 334.812C361.224 331.473 356.863 306.402 351.745 294.994L312.654 316.723C315.263 326.544 322.265 345.961 324.856 346.71C328.094 347.647 352.949 338.986 357.546 334.812Z" fill="#FFE36C"/>
<path d="M364.49 273.441C359.091 257.776 333.339 247.772 321.138 244.728C319.803 245.215 316.784 246.896 315.395 249.73C313.659 253.272 337.642 284.876 344.455 291.128C351.269 297.38 371.239 293.022 364.49 273.441Z" fill="#FFE36C"/>
<path d="M306.822 314.753C306.699 314.799 306.567 314.82 306.436 314.815C306.304 314.81 306.175 314.78 306.056 314.725L300.339 312.039C300.12 311.916 299.955 311.715 299.879 311.476C299.802 311.237 299.819 310.978 299.926 310.751C300.033 310.523 300.222 310.344 300.455 310.249C300.689 310.154 300.949 310.149 301.185 310.237L306.894 312.873C307.014 312.928 307.121 313.006 307.211 313.103C307.3 313.199 307.369 313.313 307.414 313.436C307.459 313.559 307.479 313.691 307.472 313.822C307.466 313.953 307.434 314.082 307.377 314.201C307.327 314.326 307.251 314.439 307.156 314.533C307.061 314.628 306.947 314.703 306.822 314.753Z" fill="#FFBB4D"/>
<path d="M302.682 316.26C302.559 316.305 302.429 316.326 302.299 316.321C302.168 316.316 302.04 316.285 301.921 316.23C301.802 316.176 301.695 316.098 301.606 316.001C301.517 315.905 301.449 315.792 301.404 315.668C301.359 315.545 301.339 315.414 301.345 315.283C301.351 315.152 301.383 315.024 301.439 314.905L304.079 309.241C304.134 309.122 304.212 309.015 304.309 308.927C304.405 308.838 304.518 308.769 304.641 308.724C304.765 308.679 304.895 308.659 305.026 308.665C305.157 308.671 305.286 308.703 305.404 308.759C305.642 308.871 305.825 309.072 305.915 309.318C306.005 309.565 305.993 309.837 305.883 310.075L303.237 315.752C303.126 315.987 302.926 316.17 302.682 316.26Z" fill="#FFBB4D"/>
<path d="M199.79 248.304C211.234 279.746 249.507 277.623 291.412 262.371C333.317 247.119 364.254 224.051 352.81 192.609C333.297 138.997 291.875 133.258 249.97 148.51C208.065 163.762 179.348 192.139 199.79 248.304Z" fill="#FFE36C"/>
<path d="M331.293 217.838L322.256 221.127" stroke="#FFA052" stroke-width="12.8221" stroke-linecap="round"/>
<path d="M231.289 254.236L222.252 257.525" stroke="#FFA052" stroke-width="12.8221" stroke-linecap="round"/>
<path d="M305.325 202.729L308.834 212.368" stroke="black" stroke-width="9.61656" stroke-linecap="round"/>
<path d="M232.432 229.26L235.94 238.899" stroke="black" stroke-width="9.61656" stroke-linecap="round"/>
<path d="M258.559 235.442C260.557 240.931 268.287 240.77 276.772 237.682C285.256 234.594 291.282 229.749 289.283 224.259C287.285 218.769 278.02 214.713 269.536 217.801C261.051 220.889 256.561 229.952 258.559 235.442Z" fill="#FFBB4D"/>
<path d="M253.763 123.402C247.574 134.833 245.632 145.832 247.09 154.67L262.548 147.101C268.913 143.985 272.416 133.87 268.675 124.501C264.933 115.133 256.911 117.589 253.763 123.402Z" fill="#FFE36C"/>
<path d="M241.638 142.313C245.494 144.055 248.417 149.848 249.397 152.527C243.699 154.024 233.833 155.695 230.89 152.769C227.947 149.843 227.384 145.078 229.023 143.297C230.661 141.516 236.817 140.134 241.638 142.313Z" fill="#FFE36C"/>
</g>
<g clip-path="url(#clip3_1481_160)">
<ellipse cx="25.6261" cy="27.6154" rx="25.6261" ry="27.6154" transform="matrix(-0.99996 -0.00896114 -0.00896114 0.99996 311.065 261.57)" fill="#49B236"/>
<ellipse cx="186.713" cy="340.895" rx="25.6261" ry="27.6154" transform="rotate(-56.8657 186.713 340.895)" fill="#49B236"/>
<path d="M236.742 456.817C228.669 442.348 238.386 416.487 244.254 405.365C245.507 404.694 248.773 403.565 251.811 404.42C255.608 405.489 263.167 444.435 263.282 453.682C263.398 462.929 246.834 474.904 236.742 456.817Z" fill="#4B9B3A"/>
<path d="M288.8 491.658C283.859 492.172 268.084 472.204 262.995 460.782L305.256 446.141C310.835 454.635 320.634 472.801 319.465 475.231C318.004 478.269 294.976 491.015 288.8 491.658Z" fill="#4B9B3A"/>
<path d="M272.659 468.83C256.226 467.263 245.682 408.225 254.126 395.555C262.569 382.884 282.333 373.533 293.664 374.376C304.995 375.219 353.22 415.06 345.522 429.8C337.824 444.539 289.092 470.396 272.659 468.83Z" fill="#49B236"/>
<path d="M355.008 456.193C358.173 452.365 350.292 428.169 343.603 417.605L307.999 444.672C311.978 454.023 321.671 472.246 324.342 472.62C327.681 473.087 351.051 460.978 355.008 456.193Z" fill="#49B236"/>
<path d="M353.154 394.461C345.582 379.723 318.67 373.483 306.16 372.205C304.907 372.876 302.158 374.97 301.187 377.972C299.972 381.726 328.205 409.598 335.839 414.817C343.472 420.036 362.619 412.883 353.154 394.461Z" fill="#49B236"/>
<path d="M267.478 446.314C276.655 463.445 291.763 460.647 307.681 452.121C323.598 443.594 334.298 432.568 325.122 415.437C313.059 392.916 293.327 387.081 277.409 395.608C261.491 404.134 255.415 423.794 267.478 446.314Z" fill="#9CD43D"/>
<path d="M301.947 443.553C301.832 443.615 301.705 443.655 301.574 443.669C301.443 443.683 301.311 443.671 301.185 443.634L295.144 441.788C294.91 441.697 294.719 441.522 294.609 441.296C294.499 441.071 294.479 440.812 294.552 440.572C294.626 440.331 294.787 440.127 295.005 439.999C295.222 439.872 295.479 439.831 295.725 439.884L301.751 441.681C301.878 441.719 301.995 441.781 302.097 441.864C302.199 441.947 302.284 442.049 302.346 442.165C302.408 442.281 302.446 442.408 302.459 442.538C302.471 442.669 302.458 442.802 302.419 442.927C302.386 443.058 302.328 443.18 302.247 443.288C302.166 443.395 302.064 443.485 301.947 443.553Z" fill="#49B236"/>
<path d="M298.064 445.633C297.949 445.695 297.823 445.734 297.693 445.748C297.563 445.761 297.432 445.749 297.306 445.712C297.181 445.674 297.064 445.613 296.962 445.53C296.861 445.447 296.776 445.345 296.715 445.229C296.653 445.114 296.614 444.987 296.602 444.856C296.589 444.726 296.602 444.594 296.641 444.469L298.449 438.487C298.486 438.361 298.548 438.244 298.631 438.143C298.714 438.041 298.816 437.957 298.932 437.895C299.047 437.833 299.174 437.795 299.304 437.782C299.435 437.769 299.566 437.783 299.692 437.821C299.943 437.898 300.153 438.071 300.277 438.302C300.401 438.533 300.428 438.804 300.353 439.056L298.541 445.051C298.464 445.3 298.293 445.509 298.064 445.633Z" fill="#49B236"/>
<path d="M183.919 393.514C199.885 423.321 238.032 415.608 277.961 394.219C317.89 372.831 345.69 345.22 329.724 315.413C306.788 272.594 263.855 271.955 223.926 293.343C183.997 314.731 159.167 347.305 183.919 393.514Z" fill="#49B236"/>
<path d="M281.066 291.101L285.91 300.143" stroke="black" stroke-width="9.61656" stroke-linecap="round"/>
<path d="M184.69 341.997L189.534 351.039" stroke="black" stroke-width="9.61656" stroke-linecap="round"/>
<path d="M308.937 313.262L299.329 318.408" stroke="#9CD43D" stroke-width="12.8221" stroke-linecap="round"/>
<path d="M204.386 369.266L194.778 374.412" stroke="#9CD43D" stroke-width="12.8221" stroke-linecap="round"/>
<path d="M232.904 342.396C229.267 335.606 227.438 332.192 240.153 325.381C252.869 318.57 254.373 321.377 258.335 328.774C264.826 340.893 262.917 351.006 255.895 354.768C248.872 358.53 238.941 353.668 232.904 342.396Z" fill="#FFD2D2"/>
<path fill-rule="evenodd" clip-rule="evenodd" d="M258.984 330.036C264.686 341.591 262.671 351.137 255.894 354.767C250.974 357.402 244.626 355.805 239.19 350.736C240.11 346.545 242.415 342.104 245.984 338.209C249.878 333.961 254.55 331.155 258.984 330.036Z" fill="#FF2D2D"/>
</g>
<g clip-path="url(#clip4_1481_160)">
<path d="M284.855 375.941C288.514 385.994 292.042 384.778 296.368 383.203C300.693 381.629 304.178 380.293 300.519 370.24C296.86 360.188 289.093 353.785 286.062 354.889C283.03 355.992 281.196 365.889 284.855 375.941Z" fill="#FFC145"/>
<path d="M190.273 410.365C193.932 420.418 197.46 419.201 201.786 417.627C206.111 416.053 209.596 414.717 205.937 404.664C202.278 394.611 194.511 388.209 191.48 389.312C188.448 390.416 186.614 400.312 190.273 410.365Z" fill="#FFC145"/>
<path d="M310.918 364.364C296.608 381.796 304.201 385.126 311.811 391.373C319.421 397.62 324.457 404.065 338.476 386.987C345.593 378.318 345.193 366.226 337.583 359.979C329.973 353.731 318.035 355.695 310.918 364.364Z" fill="white"/>
<path d="M176.811 413.177C198.977 417.332 195.302 424.764 193.488 434.441C191.674 444.118 191.958 452.292 170.242 448.221C159.217 446.155 151.751 436.635 153.565 426.957C155.379 417.28 165.787 411.11 176.811 413.177Z" fill="black"/>
<path d="M175.657 424.015C186.705 426.086 185.048 428.856 184.36 432.528C183.672 436.2 183.988 439.34 173.165 437.311C167.67 436.281 163.774 432.47 164.462 428.798C165.15 425.126 170.163 422.985 175.657 424.015Z" fill="#FFCACA"/>
<path d="M319.309 371.73C312.177 380.418 315.228 381.476 318.115 383.846C321.002 386.216 322.778 388.826 329.765 380.314C333.313 375.993 333.847 370.569 330.96 368.198C328.073 365.828 322.856 367.409 319.309 371.73Z" fill="#FFCACA"/>
<path d="M191.177 478.457C202.621 509.899 240.894 507.777 282.799 492.524C324.704 477.272 355.641 454.205 344.197 422.763C324.684 369.151 283.262 363.411 241.357 378.663C199.452 393.915 170.735 422.293 191.177 478.457Z" fill="white"/>
<path fill-rule="evenodd" clip-rule="evenodd" d="M236.062 380.69C239.362 390.851 242.056 404.772 237.419 412.486C233.342 419.269 227.104 422.889 221.53 426.124C216.767 428.888 212.488 431.372 210.457 435.308C209.378 437.4 208.694 440.006 207.953 442.829C205.722 451.334 202.974 461.808 187.342 466.098C175.747 420.266 200.189 395.14 236.062 380.69Z" fill="black"/>
<path d="M302.353 431.51L305.861 441.149" stroke="black" stroke-width="9.61656" stroke-linecap="round"/>
<path d="M221.626 460.893L225.134 470.532" stroke="black" stroke-width="9.61656" stroke-linecap="round"/>
<path d="M298.461 458.306C293.956 445.929 280.27 439.547 267.893 444.052L256.688 448.131C244.31 452.636 237.929 466.321 242.434 478.698C245.437 486.95 254.561 491.204 262.812 488.201L288.958 478.685C297.209 475.681 301.464 466.558 298.461 458.306Z" fill="#FFCACA"/>
<path d="M280.178 458.683L282.59 465.309" stroke="black" stroke-width="6.41104" stroke-linecap="round"/>
<path d="M256.081 467.454L258.493 474.081" stroke="black" stroke-width="6.41104" stroke-linecap="round"/>
<path d="M328.978 448.427L319.941 451.716" stroke="#FFD2D2" stroke-width="12.8221" stroke-linecap="round"/>
<path d="M221.138 487.676L212.102 490.965" stroke="#FFD2D2" stroke-width="12.8221" stroke-linecap="round"/>
<path d="M272.445 544.746C268.909 547.635 259.874 552.914 252.027 550.917C244.181 548.92 239.867 544.296 238.691 542.234" stroke="black" stroke-width="5.12883"/>
<path d="M243.085 540.777C242.051 546.476 235.726 549.732 231.128 545.134C225.582 539.588 225.534 534.581 226.361 533.755C227.014 533.102 228.494 535.374 228.93 535.222C229.366 535.07 225.005 529.921 227.937 528.72C232.026 527.043 244.339 533.866 243.085 540.777Z" fill="#A8A8A8"/>
<path d="M350.982 551.928C349.732 546.325 313.595 480.018 307.42 478.202C301.244 476.386 254.083 495.24 251.143 502.752C248.203 510.264 258.109 546.158 290.165 571.482C325.886 599.702 352.232 557.532 350.982 551.928Z" fill="white"/>
<path d="M293.923 594.242C290.553 590.592 291.038 572.445 282.062 564.431L329.426 554.777C334.319 563.683 330.782 591.911 329.426 594.242C327.73 597.156 297.769 598.409 293.923 594.242Z" fill="white"/>
<path d="M294.138 540.171C301.739 555.49 313.534 554.224 325.831 548.122C338.128 542.021 346.272 533.395 338.67 518.075C328.678 497.936 313.053 491.482 300.755 497.584C288.458 503.686 284.146 520.031 294.138 540.171Z" fill="#FFD2D2"/>
<path d="M323.505 540.032C323.391 540.099 323.265 540.143 323.135 540.161C323.005 540.179 322.872 540.171 322.745 540.138L316.649 538.485C316.411 538.402 316.215 538.233 316.098 538.011C315.981 537.789 315.953 537.531 316.018 537.289C316.084 537.046 316.239 536.837 316.452 536.702C316.666 536.568 316.921 536.519 317.169 536.564L323.249 538.169C323.376 538.202 323.496 538.26 323.601 538.34C323.705 538.419 323.793 538.519 323.859 538.633C323.924 538.746 323.967 538.872 323.983 539.003C324 539.133 323.991 539.266 323.956 539.393C323.927 539.524 323.873 539.648 323.795 539.758C323.718 539.868 323.619 539.961 323.505 540.032Z" fill="#FF8D8D"/>
<path d="M319.689 542.235C319.576 542.301 319.452 542.344 319.322 542.362C319.193 542.38 319.061 542.372 318.935 542.338C318.808 542.305 318.689 542.247 318.585 542.167C318.481 542.088 318.393 541.988 318.328 541.875C318.262 541.761 318.22 541.636 318.203 541.506C318.186 541.376 318.195 541.244 318.229 541.117L319.847 535.081C319.88 534.954 319.938 534.835 320.018 534.731C320.097 534.627 320.197 534.54 320.31 534.474C320.424 534.408 320.549 534.366 320.679 534.349C320.809 534.332 320.941 534.341 321.068 534.376C321.321 534.445 321.537 534.611 321.668 534.838C321.799 535.065 321.835 535.335 321.768 535.588L320.147 541.638C320.079 541.89 319.914 542.104 319.689 542.235Z" fill="#FF8D8D"/>
</g>
<rect width="133" height="597" transform="matrix(-1 0 0 1 454 0)" fill="#005271"/>
<path d="M337.508 487.216C329.344 501.635 302.2 506.776 289.649 507.544C288.424 506.823 285.762 504.62 284.913 501.58C283.852 497.781 313.195 471.078 321.034 466.173C328.873 461.268 347.714 469.194 337.508 487.216Z" fill="white"/>
</g>
<defs>
<clipPath id="clip0_1481_160">
<rect width="461" height="597" fill="white"/>
</clipPath>
<clipPath id="clip1_1481_160">
<rect width="209" height="292.344" fill="white" transform="matrix(-0.707107 0.707107 0.707107 0.707107 147.785 113.414)"/>
</clipPath>
<clipPath id="clip2_1481_160">
<rect width="194.896" height="258.365" fill="white" transform="matrix(-0.939693 0.34202 0.34202 0.939693 329.609 82)"/>
</clipPath>
<clipPath id="clip3_1481_160">
<rect width="180.15" height="236.567" fill="white" transform="matrix(-0.8815 0.472183 0.472183 0.8815 294.73 236.506)"/>
</clipPath>
<clipPath id="clip4_1481_160">
<rect width="201.948" height="384.793" fill="white" transform="matrix(-0.939693 0.34202 0.34202 0.939693 329.323 327.543)"/>
</clipPath>
</defs>
</svg>
