<svg width="196" height="204" viewBox="0 0 196 204" fill="none" xmlns="http://www.w3.org/2000/svg">
<ellipse cx="25.916" cy="69.0052" rx="18.5836" ry="20.0262" transform="rotate(-28.6896 25.916 69.0052)" fill="#5BB42B"/>
<ellipse cx="18.5836" cy="20.0262" rx="18.5836" ry="20.0262" transform="matrix(-0.877234 -0.480064 -0.480064 0.877234 132.571 59.8423)" fill="#5BB42B"/>
<path d="M121.558 148.327C110.185 152.205 92.9986 141.909 85.827 136.277C85.5111 135.295 85.1305 132.819 86.1354 130.763C87.3916 128.192 116.16 127.864 122.772 128.984C129.384 130.104 135.774 143.479 121.558 148.327Z" fill="#5C9A15"/>
<path d="M93.0192 199.818C96.3536 198.455 99.6004 180.289 98.9422 171.245L66.9139 176.357C66.2558 183.697 66.2119 198.665 67.7914 199.818C69.7657 201.26 88.8511 201.522 93.0192 199.818Z" fill="#5C9A15"/>
<path d="M95.5224 179.697C105.491 173.068 92.0157 131.718 82.2793 126.51C72.5429 121.302 56.7071 122.091 49.7524 126.51C42.7978 130.929 25.6118 172.91 35.58 179.697C45.5482 186.483 85.5542 186.325 95.5224 179.697Z" fill="#5BB42B"/>
<path d="M38.5532 199.818C35.2188 198.455 31.972 180.289 32.6302 171.245L64.6585 176.357C65.3166 183.697 65.3605 198.665 63.781 199.818C61.8067 201.26 42.7213 201.522 38.5532 199.818Z" fill="#5BB42B"/>
<path d="M18.5989 159.721C18.3927 147.707 33.4599 134.503 41.0193 129.402C42.0501 129.402 44.5241 129.799 46.1734 131.386C48.2351 133.369 39.7308 160.854 36.6383 166.804C33.5459 172.755 18.8566 174.738 18.5989 159.721Z" fill="#5BB42B"/>
<path d="M91.1238 163.53C91.1238 177.623 80.5081 181.008 67.413 181.008C54.3178 181.008 43.7021 177.623 43.7021 163.53C43.7021 145.003 54.3178 134.516 67.413 134.516C80.5081 134.516 91.1238 145.003 91.1238 163.53Z" fill="#A1DC3C"/>
<path d="M35.5359 114.966C35.6097 114.966 35.6828 114.954 35.7511 114.929C35.8194 114.904 35.8815 114.868 35.9338 114.822L38.428 112.597C38.5198 112.502 38.5678 112.38 38.5623 112.256C38.5569 112.131 38.4984 112.013 38.3986 111.925C38.2988 111.837 38.165 111.785 38.0239 111.781C37.8828 111.776 37.7449 111.818 37.6377 111.899L35.138 114.1C35.0854 114.146 35.0437 114.201 35.0153 114.261C34.9868 114.321 34.9722 114.386 34.9722 114.451C34.9722 114.517 34.9868 114.581 35.0153 114.642C35.0437 114.702 35.0854 114.757 35.138 114.803C35.1885 114.852 35.2497 114.892 35.3181 114.92C35.3865 114.948 35.4605 114.964 35.5359 114.966Z" fill="#5BB42B"/>
<path d="M38.0034 114.966C38.0766 114.966 38.1492 114.954 38.2169 114.929C38.2847 114.905 38.3463 114.868 38.3982 114.823C38.4504 114.777 38.4917 114.722 38.52 114.662C38.5482 114.602 38.5627 114.538 38.5627 114.472C38.5627 114.407 38.5482 114.343 38.52 114.283C38.4917 114.222 38.4504 114.168 38.3982 114.122L35.9236 111.926C35.8719 111.88 35.8104 111.843 35.7426 111.818C35.6748 111.793 35.6021 111.78 35.5287 111.78C35.4553 111.78 35.3826 111.793 35.3149 111.818C35.2471 111.843 35.1856 111.88 35.1339 111.926C35.0303 112.019 34.9722 112.144 34.9722 112.274C34.9722 112.404 35.0303 112.53 35.1339 112.622L37.6141 114.823C37.7177 114.914 37.8575 114.965 38.0034 114.966V114.966Z" fill="#5BB42B"/>
<path d="M52.5579 131.214L64.8853 132.128C66.328 132.235 66.6376 134.217 65.2963 134.758L50.6683 140.667C49.5852 141.105 48.4879 140.07 48.8612 138.963L51.1617 132.141C51.3611 131.55 51.9356 131.168 52.5579 131.214Z" fill="white"/>
<path d="M87.4173 131.679L75.0899 132.592C73.6472 132.699 73.3376 134.681 74.6789 135.223L89.3069 141.132C90.39 141.569 91.4873 140.535 91.1141 139.428L88.8135 132.605C88.6141 132.014 88.0396 131.633 87.4173 131.679Z" fill="white"/>
<path d="M63.8102 164.029L67.558 140.186C67.6063 139.878 67.5482 139.563 67.3933 139.293L64.9508 135.036C64.6199 134.459 64.752 133.728 65.2638 133.304L66.2254 132.506C66.4707 132.303 66.7794 132.191 67.098 132.191H73.4464C73.7837 132.191 74.109 132.316 74.3599 132.542L75.1847 133.283C75.6727 133.721 75.7804 134.444 75.4412 135.006L72.8603 139.28C72.6923 139.558 72.6289 139.887 72.6815 140.207L76.584 164.001C76.6626 164.48 76.4813 164.965 76.1078 165.274L70.9266 169.572C70.4103 170 69.6594 169.99 69.1544 169.549L64.2609 165.271C63.9075 164.962 63.7373 164.493 63.8102 164.029Z" fill="#E22323"/>
<path d="M126.457 101.166C126.457 125.688 99.4308 133.819 66.5825 133.819C33.7341 133.819 6.50854 125.688 6.50854 101.166C6.50854 65.9409 33.7341 50.8311 66.5825 50.8311C99.4308 50.8311 126.457 63.1514 126.457 101.166Z" fill="#5BB42B"/>
<path d="M29.29 68.9634V76.4021" stroke="#123041" stroke-width="6.83437" stroke-linecap="round"/>
<path d="M108.326 68.4985V75.9372" stroke="#123041" stroke-width="6.83437" stroke-linecap="round"/>
<path d="M19.0618 92.6733H26.9654" stroke="#A1DC3C" stroke-width="9.1125" stroke-linecap="round"/>
<path d="M105.072 92.6733H112.975" stroke="#A1DC3C" stroke-width="9.1125" stroke-linecap="round"/>
<path d="M77.641 85.2616C77.641 79.6756 77.641 76.8672 67.1804 76.8672C56.7197 76.8672 56.7197 79.1765 56.7197 85.2616C56.7197 95.2315 61.4031 101.043 67.1804 101.043C72.9576 101.043 77.641 94.5341 77.641 85.2616Z" fill="#D52C2F"/>
<path fill-rule="evenodd" clip-rule="evenodd" d="M56.7372 86.2929C57.0495 95.6305 61.6059 101.042 67.1808 101.042C71.2278 101.042 74.738 97.848 76.4776 92.7474C74.4543 90.3835 71.4603 88.3335 67.845 87.0661C63.9018 85.6836 59.9546 85.4898 56.7372 86.2929Z" fill="#FF686B"/>
<path fill-rule="evenodd" clip-rule="evenodd" d="M13.8352 63.7252C13.7342 63.9319 13.5936 64.294 13.4437 64.8621C13.2405 65.6323 13.059 66.6252 12.9118 67.787C12.6179 70.1071 12.4751 72.9853 12.532 75.8694C12.589 78.76 12.8454 81.5928 13.3253 83.8382C13.5657 84.9627 13.8517 85.8898 14.1698 86.5857C14.5009 87.3103 14.7957 87.6274 14.9606 87.7373C15.0272 87.7818 15.2347 87.8872 15.6664 88.0154C16.0767 88.1372 16.6082 88.2562 17.2593 88.3678C18.5609 88.5909 20.242 88.7679 22.1936 88.8968C26.0913 89.1542 30.9518 89.2126 35.7725 89.0972C40.5942 88.9817 45.3366 88.6932 48.999 88.2649C50.8353 88.0501 52.3616 87.8045 53.4771 87.5384C54.0372 87.4048 54.4531 87.2755 54.7368 87.1594C54.8533 87.1117 54.9257 87.0749 54.9658 87.0528L54.9766 87.0343C55.0077 86.9798 55.0459 86.9039 55.089 86.8023C55.1764 86.5967 55.2694 86.3212 55.3623 85.9698C55.5487 85.2656 55.7111 84.3485 55.8424 83.2612C56.1045 81.0913 56.2266 78.3792 56.2123 75.6187C56.198 72.8602 56.0478 70.0964 55.7768 67.8267C55.6412 66.6907 55.4781 65.7019 55.2937 64.9109C55.1293 64.2055 54.9681 63.7492 54.8438 63.4962C54.8094 63.4763 54.7575 63.4487 54.6836 63.4151C54.4155 63.2933 53.9999 63.1566 53.4147 63.0198C52.2507 62.7478 50.6315 62.5242 48.6655 62.3543C44.7474 62.0156 39.6554 61.9064 34.5254 61.9787C29.3992 62.0509 24.2783 62.3036 20.3101 62.68C18.3217 62.8686 16.6535 63.0854 15.4297 63.3193C14.815 63.4368 14.3485 63.552 14.0245 63.6579C13.9449 63.6838 13.8827 63.7066 13.8352 63.7252ZM56.003 60.5115C56.1383 60.5729 56.2864 60.646 56.4381 60.7337C59.5729 60.1587 65.5172 59.2324 69.4018 59.2324C73.5386 59.2324 80.4656 60.2849 83.6143 60.8404C83.8256 60.7034 84.037 60.5963 84.2237 60.5115C84.7587 60.2683 85.3989 60.0747 86.0863 59.9141C87.4676 59.5913 89.2608 59.3519 91.2866 59.1767C95.352 58.8253 100.561 58.7166 105.746 58.7896C110.935 58.8627 116.144 59.1185 120.218 59.5048C122.25 59.6976 124.031 59.9257 125.396 60.1867C126.076 60.3166 126.688 60.4614 127.193 60.6262C127.619 60.7656 128.237 60.999 128.673 61.4358L128.747 61.509L128.81 61.5911C129.305 62.2349 129.63 63.1517 129.867 64.0484C130.118 64.9989 130.321 66.1398 130.479 67.3862C130.795 69.8824 130.943 72.9176 130.884 75.9323C130.824 78.9405 130.557 81.9919 130.02 84.5049C129.752 85.7595 129.406 86.9301 128.958 87.9113C128.522 88.864 127.917 89.8036 127.035 90.3911C126.579 90.6953 126.018 90.9095 125.468 91.0728C124.897 91.2425 124.233 91.3868 123.506 91.5113C122.053 91.7604 120.251 91.9466 118.243 92.0792C114.223 92.3448 109.262 92.4026 104.378 92.2856C99.4944 92.1687 94.6479 91.876 90.8572 91.4326C88.9669 91.2115 87.3005 90.9486 86.0098 90.6408C85.3668 90.4874 84.7761 90.3135 84.2814 90.1109C83.8406 89.9304 83.2574 89.643 82.851 89.1553C82.3246 88.5236 82.0039 87.6275 81.7812 86.7856C81.5434 85.8872 81.3591 84.812 81.2179 83.6436C80.9352 81.3023 80.8103 78.4499 80.8251 75.6022C80.8399 72.7524 80.9947 69.8645 81.2831 67.4486C81.4271 66.2418 81.6073 65.1293 81.827 64.1869C81.8582 64.053 81.8908 63.9196 81.925 63.7875C78.5075 63.2215 72.8195 62.4218 69.4018 62.4218C66.2557 62.4218 61.4731 63.1009 58.2652 63.6493C58.3129 63.8264 58.3577 64.0061 58.3998 64.1869C58.6195 65.1293 58.7996 66.2418 58.9437 67.4486C59.2321 69.8645 59.3869 72.7524 59.4017 75.6022C59.4164 78.4499 59.2916 81.3023 59.0088 83.6436C58.8677 84.812 58.6833 85.8872 58.4456 86.7856C58.2229 87.6275 57.9022 88.5236 57.3758 89.1553C56.9693 89.643 56.3862 89.9304 55.9454 90.1109C55.4506 90.3135 54.86 90.4874 54.217 90.6408C52.9262 90.9486 51.2598 91.2115 49.3695 91.4326C45.5788 91.876 40.7324 92.1687 35.8489 92.2856C30.9646 92.4026 26.0038 92.3448 21.9834 92.0792C19.976 91.9466 18.1739 91.7604 16.7205 91.5113C15.9941 91.3868 15.3301 91.2425 14.7587 91.0728C14.2085 90.9095 13.6478 90.6953 13.1914 90.3911C12.3102 89.8036 11.7043 88.864 11.2689 87.9113C10.8206 86.9301 10.4746 85.7595 10.2064 84.5049C9.66927 81.9919 9.40255 78.9405 9.34323 75.9323C9.28379 72.9176 9.43149 69.8824 9.74772 67.3862C9.90561 66.1398 10.1091 64.9989 10.3599 64.0484C10.5965 63.1517 10.9216 62.2349 11.417 61.5911L11.4801 61.509L11.5533 61.4358C11.99 60.999 12.6074 60.7656 13.0339 60.6262C13.5383 60.4614 14.1512 60.3166 14.8309 60.1867C16.196 59.9257 17.9765 59.6976 20.0089 59.5048C24.0823 59.1185 29.2914 58.8627 34.4805 58.7896C39.6659 58.7166 44.8747 58.8253 48.9402 59.1767C50.9659 59.3519 52.7592 59.5913 54.1404 59.9141C54.8278 60.0747 55.468 60.2683 56.003 60.5115ZM126.783 64.8621C126.633 64.294 126.493 63.9319 126.392 63.7252C126.344 63.7066 126.282 63.6838 126.202 63.6579C125.878 63.552 125.412 63.4368 124.797 63.3193C123.573 63.0854 121.905 62.8686 119.917 62.68C115.948 62.3036 110.828 62.0509 105.701 61.9787C100.571 61.9064 95.4793 62.0156 91.5612 62.3543C89.5952 62.5242 87.976 62.7478 86.8121 63.0198C86.2268 63.1566 85.8112 63.2933 85.5432 63.4151C85.4692 63.4487 85.4174 63.4763 85.383 63.4962C85.2586 63.7492 85.0975 64.2055 84.9331 64.9109C84.7487 65.7019 84.5856 66.6907 84.45 67.8267C84.179 70.0964 84.0287 72.8602 84.0144 75.6187C84.0001 78.3792 84.1223 81.0913 84.3843 83.2612C84.5156 84.3485 84.6781 85.2656 84.8644 85.9698C84.9574 86.3212 85.0504 86.5967 85.1377 86.8023C85.1809 86.9039 85.219 86.9798 85.2501 87.0343L85.2609 87.0528C85.301 87.0749 85.3734 87.1117 85.4899 87.1594C85.7736 87.2755 86.1895 87.4048 86.7497 87.5384C87.8652 87.8045 89.3914 88.0501 91.2277 88.2649C94.8902 88.6932 99.6326 88.9817 104.454 89.0972C109.275 89.2126 114.135 89.1542 118.033 88.8968C119.985 88.7679 121.666 88.5909 122.967 88.3678C123.619 88.2562 124.15 88.1372 124.56 88.0154C124.992 87.8872 125.2 87.7818 125.266 87.7373C125.431 87.6274 125.726 87.3103 126.057 86.5857C126.375 85.8898 126.661 84.9627 126.901 83.8382C127.381 81.5928 127.638 78.76 127.695 75.8694C127.752 72.9853 127.609 70.1071 127.315 67.787C127.168 66.6252 126.986 65.6323 126.783 64.8621Z" fill="black"/>
<rect x="136.292" y="80.1587" width="61.3692" height="61.3692" rx="0.91125" transform="rotate(15.002 136.292 80.1587)" fill="white"/>
<path d="M136.537 125.948L154.184 113.497L161.056 123.451L181.239 110.01" stroke="#FF1C1C" stroke-width="2.27813" stroke-linecap="round" stroke-linejoin="round"/>
<path d="M141.432 89.7153L129.578 133.949L174.261 145.923" stroke="black" stroke-width="2.27813" stroke-linecap="round" stroke-linejoin="round"/>
<path d="M152.949 95.3717C152.157 95.1594 151.407 94.6848 150.968 94.1049L151.877 93.2449C152.235 93.6709 152.825 94.0743 153.309 94.204C153.626 94.2889 153.762 94.2403 153.802 94.0907C153.844 93.9323 153.604 93.7735 153.205 93.5723C152.425 93.1745 151.555 92.7244 151.842 91.6506C152.078 90.7704 152.975 90.2749 154.163 90.5933C154.868 90.782 155.477 91.2188 155.904 91.7013L155.054 92.5866C154.741 92.2387 154.286 91.8619 153.854 91.7463C153.617 91.6827 153.425 91.7634 153.39 91.8955C153.35 92.0451 153.545 92.1258 153.975 92.354C154.752 92.7606 155.63 93.2881 155.342 94.362C155.09 95.3038 154.181 95.7019 152.949 95.3717ZM158.703 95.2626L158.706 96.4143C158.351 96.6117 157.815 96.6756 157.41 96.5671C156.504 96.3242 156.04 95.5206 156.283 94.614L156.759 92.836L156.187 92.6827L156.546 91.3448L157.118 91.4981L157.453 90.2482L159.072 90.6822L158.737 91.9321L159.635 92.1726L159.277 93.5105L158.379 93.27L157.992 94.7135C157.919 94.9864 158.025 95.2225 158.254 95.2838C158.413 95.3262 158.594 95.3182 158.703 95.2626ZM161.609 97.6921C160.21 97.3171 159.331 95.912 159.678 94.6181C160.025 93.3242 161.486 92.5553 162.885 92.9302C164.276 93.3029 165.156 94.6992 164.81 95.9931C164.463 97.287 163 98.0648 161.609 97.6921ZM161.986 96.2838C162.515 96.4253 163.084 96.0967 163.225 95.5686C163.367 95.0405 163.036 94.4801 162.508 94.3386C161.971 94.1947 161.404 94.5145 161.262 95.0426C161.121 95.5708 161.45 96.1399 161.986 96.2838ZM169.106 94.5971C170.083 94.8589 170.582 95.7758 170.306 96.8056L169.531 99.7015L167.911 99.2675L168.581 96.7677C168.699 96.3276 168.5 95.9441 168.095 95.8356C167.716 95.7342 167.366 95.9515 167.257 96.3564L166.573 98.909L164.874 98.4538L166.094 93.9032L167.792 94.3584L167.67 94.8161C168.046 94.5395 168.56 94.4509 169.106 94.5971ZM174.272 98.1984L175.207 101.223L173.306 100.713L172.873 98.9839L172.381 99.3425L172.1 100.39L170.401 99.9348L172.05 93.7822L173.749 94.2374L172.89 97.4413L174.49 96.153L176.391 96.6625L174.272 98.1984Z" fill="black"/>
</svg>
