<svg width="226" height="180" viewBox="0 0 226 180" fill="none" xmlns="http://www.w3.org/2000/svg">
<ellipse cx="59.398" cy="41.4655" rx="18.2121" ry="19.6259" transform="rotate(-28.6896 59.398 41.4655)" fill="#5BB42B"/>
<ellipse cx="18.2121" cy="19.6259" rx="18.2121" ry="19.6259" transform="matrix(-0.877234 -0.480064 -0.480064 0.877234 163.921 32.4861)" fill="#5BB42B"/>
<path d="M153.128 119.202C141.982 123.002 125.14 112.912 118.111 107.392C117.802 106.431 117.429 104.004 118.414 101.989C119.645 99.4697 147.838 99.1482 154.318 100.246C160.797 101.344 167.059 114.451 153.128 119.202Z" fill="#5C9A15"/>
<path d="M125.16 169.664C128.428 168.328 131.609 150.525 130.964 141.662L99.5763 146.671C98.9314 153.865 98.8884 168.533 100.436 169.664C102.371 171.077 121.075 171.334 125.16 169.664Z" fill="#5C9A15"/>
<path d="M127.613 149.944C137.382 143.448 124.176 102.925 114.635 97.8206C105.093 92.7165 89.5735 93.4898 82.7579 97.8206C75.9423 102.151 59.0998 143.294 68.8687 149.944C78.6377 156.595 117.844 156.441 127.613 149.944Z" fill="#5BB42B"/>
<path d="M71.7826 169.664C68.5148 168.328 65.333 150.525 65.978 141.662L97.3661 146.671C98.011 153.865 98.054 168.533 96.5061 169.664C94.5712 171.077 75.8674 171.334 71.7826 169.664Z" fill="#5BB42B"/>
<path d="M52.2272 130.368C52.0251 118.594 66.7911 105.654 74.1994 100.656C75.2096 100.656 77.6341 101.044 79.2505 102.599C81.2709 104.543 72.9366 131.479 69.906 137.31C66.8753 143.141 52.4797 145.085 52.2272 130.368Z" fill="#5BB42B"/>
<path d="M123.302 134.101C123.302 147.913 112.899 151.23 100.065 151.23C87.2321 151.23 76.8286 147.913 76.8286 134.101C76.8286 115.944 87.2321 105.667 100.065 105.667C112.899 105.667 123.302 115.944 123.302 134.101Z" fill="#A1DC3C"/>
<path d="M99.7421 143.94C99.8786 143.94 100.014 143.922 100.14 143.887C100.266 143.852 100.381 143.8 100.478 143.735L105.092 140.551C105.262 140.416 105.351 140.242 105.341 140.064C105.331 139.886 105.223 139.717 105.038 139.591C104.853 139.465 104.606 139.391 104.345 139.384C104.084 139.377 103.829 139.438 103.63 139.554L99.0059 142.702C98.9087 142.768 98.8316 142.846 98.7789 142.932C98.7263 143.018 98.6992 143.111 98.6992 143.204C98.6992 143.297 98.7263 143.39 98.7789 143.476C98.8316 143.562 98.9087 143.641 99.0059 143.706C99.0993 143.777 99.2126 143.834 99.3391 143.874C99.4656 143.914 99.6027 143.937 99.7421 143.94Z" fill="#5BB42B"/>
<path d="M104.307 143.94C104.442 143.94 104.577 143.923 104.702 143.887C104.827 143.852 104.941 143.801 105.037 143.735C105.134 143.669 105.21 143.591 105.263 143.505C105.315 143.419 105.342 143.327 105.342 143.234C105.342 143.141 105.315 143.049 105.263 142.963C105.21 142.877 105.134 142.799 105.037 142.733L100.459 139.592C100.364 139.526 100.25 139.474 100.124 139.438C99.9991 139.402 99.8646 139.384 99.7288 139.384C99.593 139.384 99.4585 139.402 99.3332 139.438C99.2078 139.474 99.094 139.526 98.9984 139.592C98.8067 139.725 98.6992 139.903 98.6992 140.09C98.6992 140.276 98.8067 140.455 98.9984 140.587L103.587 143.735C103.778 143.865 104.037 143.939 104.307 143.94Z" fill="#5BB42B"/>
<path d="M85.5285 102.433L97.4714 103.318C98.9141 103.425 99.2237 105.406 97.8824 105.948L83.7106 111.673C82.6276 112.111 81.5302 111.076 81.9035 109.969L84.1323 103.359C84.3316 102.768 84.9062 102.387 85.5285 102.433Z" fill="white"/>
<path d="M119.649 102.888L107.706 103.773C106.263 103.88 105.954 105.862 107.295 106.403L121.467 112.128C122.55 112.566 123.647 111.531 123.274 110.424L121.045 103.814C120.846 103.223 120.271 102.842 119.649 102.888Z" fill="white"/>
<path d="M96.537 134.576L100.206 111.233C100.254 110.925 100.196 110.611 100.041 110.34L97.6639 106.197C97.333 105.62 97.4651 104.889 97.9769 104.464L98.894 103.704C99.1393 103.5 99.448 103.389 99.7666 103.389H105.968C106.305 103.389 106.63 103.514 106.881 103.739L107.665 104.443C108.153 104.882 108.261 105.605 107.922 106.167L105.409 110.327C105.241 110.605 105.178 110.934 105.23 111.255L109.051 134.547C109.129 135.026 108.948 135.511 108.574 135.821L103.527 140.007C103.01 140.435 102.26 140.426 101.754 139.984L96.9877 135.817C96.6343 135.508 96.4641 135.039 96.537 134.576Z" fill="#E22323"/>
<path d="M157.93 72.9836C157.93 97.0147 131.443 104.984 99.2515 104.984C67.0598 104.984 40.3784 97.0147 40.3784 72.9836C40.3784 38.4624 67.0598 23.6545 99.2515 23.6545C131.443 23.6545 157.93 35.7286 157.93 72.9836Z" fill="#5BB42B"/>
<path d="M62.7046 41.4246V48.7146" stroke="#123041" stroke-width="6.83437" stroke-linecap="round"/>
<path d="M140.161 40.969V48.259" stroke="#123041" stroke-width="6.83437" stroke-linecap="round"/>
<path d="M52.6807 64.6609H60.4263" stroke="#A1DC3C" stroke-width="9.1125" stroke-linecap="round"/>
<path d="M136.971 64.6609H144.717" stroke="#A1DC3C" stroke-width="9.1125" stroke-linecap="round"/>
<path d="M110.089 57.3971C110.089 51.9228 110.089 49.1705 99.8375 49.1705C89.5859 49.1705 89.5859 51.4337 89.5859 57.3971C89.5859 67.1677 94.1757 72.863 99.8375 72.863C105.499 72.863 110.089 66.4843 110.089 57.3971Z" fill="#D52C2F"/>
<path fill-rule="evenodd" clip-rule="evenodd" d="M89.603 58.4077C89.9091 67.5587 94.3744 72.8621 99.8378 72.8621C103.804 72.8621 107.244 69.7319 108.949 64.7333C106.966 62.4166 104.032 60.4076 100.489 59.1655C96.6244 57.8107 92.7561 57.6207 89.603 58.4077Z" fill="#FF686B"/>
<path fill-rule="evenodd" clip-rule="evenodd" d="M47.5817 36.3162C47.4848 36.5172 47.3499 36.8668 47.2057 37.4133C47.007 38.1664 46.8293 39.138 46.6852 40.2757C46.3974 42.5476 46.2575 45.3667 46.3132 48.1919C46.3691 51.0235 46.6202 53.7975 47.09 55.9953C47.3253 57.0961 47.605 58.0022 47.9154 58.6814C48.2388 59.3891 48.5247 59.6937 48.6791 59.7967C48.7405 59.8376 48.9403 59.9399 49.3622 60.0651C49.7627 60.184 50.2822 60.3004 50.9195 60.4096C52.1936 60.628 53.8399 60.8014 55.752 60.9277C59.5705 61.1799 64.3329 61.2371 69.0566 61.124C73.7812 61.0108 78.4278 60.7282 82.0158 60.3085C83.8148 60.0981 85.3091 59.8576 86.4006 59.5973C86.9487 59.4666 87.3546 59.3403 87.6305 59.2273C87.7365 59.1839 87.8045 59.1499 87.844 59.1286L87.8499 59.1184C87.8796 59.0663 87.9165 58.993 87.9584 58.8944C88.0432 58.6947 88.1339 58.4262 88.2247 58.0829C88.4068 57.3946 88.5658 56.4975 88.6944 55.4327C88.951 53.3079 89.0707 50.6514 89.0567 47.9469C89.0427 45.2446 88.8955 42.5372 88.6301 40.3143C88.4973 39.2017 88.3376 38.234 88.1573 37.4603C87.9981 36.7774 87.8426 36.3354 87.7231 36.0894C87.6903 36.0708 87.6429 36.046 87.5772 36.0162C87.3172 35.898 86.9121 35.7646 86.3396 35.6308C85.2011 35.3648 83.616 35.1458 81.6899 34.9793C77.8516 34.6475 72.8625 34.5405 67.8356 34.6113C62.8125 34.682 57.7949 34.9297 53.907 35.2984C51.9588 35.4832 50.325 35.6956 49.1272 35.9246C48.5254 36.0396 48.0697 36.1522 47.7539 36.2554C47.6829 36.2786 47.6261 36.2991 47.5817 36.3162ZM88.8967 33.1125C89.0268 33.1716 89.1694 33.2419 89.3159 33.326C92.3916 32.7622 98.2093 31.8564 102.014 31.8564C106.066 31.8564 112.844 32.8855 115.936 33.4305C116.141 33.2982 116.346 33.1946 116.527 33.1125C117.054 32.8731 117.683 32.6828 118.358 32.5251C119.714 32.2083 121.473 31.9734 123.459 31.8018C127.445 31.4572 132.55 31.3507 137.633 31.4222C142.719 31.4939 147.825 31.7446 151.818 32.1233C153.81 32.3123 155.556 32.5359 156.895 32.7919C157.562 32.9194 158.164 33.0616 158.66 33.2237C159.078 33.3604 159.69 33.591 160.124 34.0249L160.197 34.0981L160.26 34.1801C160.75 34.8164 161.07 35.7202 161.302 36.5997C161.548 37.5329 161.748 38.6526 161.902 39.8749C162.212 42.323 162.357 45.299 162.299 48.2547C162.241 51.204 161.979 54.1966 161.452 56.662C161.189 57.8929 160.85 59.0425 160.409 60.0069C159.981 60.9429 159.384 61.8699 158.514 62.4504C158.062 62.7511 157.509 62.9622 156.969 63.1226C156.407 63.2893 155.755 63.431 155.043 63.5532C153.617 63.7975 151.85 63.9801 149.882 64.1101C145.94 64.3705 141.078 64.4271 136.291 64.3125C131.504 64.1978 126.753 63.9109 123.037 63.4763C121.184 63.2596 119.55 63.0017 118.283 62.6996C117.652 62.5491 117.071 62.3782 116.584 62.1788C116.151 62.0015 115.574 61.7175 115.17 61.2332C114.65 60.6085 114.334 59.7245 114.115 58.8987C113.882 58.0162 113.701 56.9609 113.563 55.8151C113.285 53.5189 113.163 50.7221 113.177 47.9304C113.192 45.1367 113.344 42.3053 113.627 39.9363C113.768 38.7529 113.944 37.6614 114.16 36.7362C114.188 36.6163 114.217 36.4967 114.248 36.378C110.895 35.8238 105.35 35.0458 102.014 35.0458C98.9451 35.0458 94.283 35.7061 91.1403 36.2424C91.1838 36.4054 91.2247 36.5704 91.2634 36.7362C91.479 37.6614 91.6557 38.7529 91.797 39.9363C92.0798 42.3053 92.2316 45.1367 92.246 47.9304C92.2605 50.7221 92.1381 53.5189 91.8608 55.8151C91.7224 56.9609 91.5415 58.0162 91.308 58.8987C91.0895 59.7245 90.7738 60.6085 90.2533 61.2332C89.8497 61.7175 89.272 62.0015 88.839 62.1788C88.3521 62.3782 87.7715 62.5491 87.1405 62.6996C85.8738 63.0017 84.2393 63.2596 82.3863 63.4763C78.6701 63.9109 73.9194 64.1978 69.133 64.3125C64.3456 64.4271 59.483 64.3705 55.5417 64.1101C53.5739 63.9801 51.8066 63.7975 50.3808 63.5532C49.6681 63.431 49.0161 63.2893 48.4545 63.1226C47.9141 62.9622 47.361 62.7511 46.9099 62.4504C46.0392 61.8699 45.4422 60.9429 45.0146 60.0069C44.5738 59.0425 44.2342 57.8929 43.9711 56.662C43.4441 54.1966 43.1826 51.204 43.1245 48.2547C43.0662 45.299 43.211 42.323 43.5211 39.8749C43.676 38.6526 43.8756 37.5329 44.1218 36.5997C44.3539 35.7202 44.6738 34.8164 45.1634 34.1801L45.2265 34.0981L45.2997 34.0249C45.7335 33.591 46.3451 33.3604 46.7633 33.2237C47.2595 33.0616 47.8616 32.9194 48.5283 32.7919C49.8676 32.5359 51.6136 32.3123 53.6058 32.1233C57.5989 31.7446 62.7047 31.4939 67.7907 31.4222C72.873 31.3507 77.9789 31.4572 81.9645 31.8018C83.9504 31.9734 85.7095 32.2083 87.0653 32.5251C87.74 32.6828 88.3697 32.8731 88.8967 33.1125ZM158.218 37.4133C158.074 36.8668 157.939 36.5172 157.842 36.3162C157.797 36.2991 157.741 36.2786 157.67 36.2554C157.354 36.1522 156.898 36.0396 156.296 35.9246C155.098 35.6956 153.465 35.4832 151.516 35.2984C147.629 34.9297 142.611 34.682 137.588 34.6113C132.561 34.5405 127.572 34.6475 123.734 34.9793C121.808 35.1458 120.222 35.3648 119.084 35.6308C118.511 35.7646 118.106 35.898 117.846 36.0162C117.781 36.046 117.733 36.0708 117.7 36.0894C117.581 36.3354 117.425 36.7774 117.266 37.4603C117.086 38.234 116.926 39.2017 116.793 40.3143C116.528 42.5372 116.381 45.2446 116.367 47.9469C116.353 50.6514 116.472 53.3079 116.729 55.4327C116.858 56.4975 117.017 57.3946 117.199 58.0829C117.29 58.4262 117.38 58.6947 117.465 58.8944C117.507 58.993 117.544 59.0663 117.574 59.1184L117.58 59.1286C117.619 59.1499 117.687 59.1839 117.793 59.2273C118.069 59.3403 118.475 59.4666 119.023 59.5973C120.114 59.8576 121.609 60.0981 123.408 60.3085C126.996 60.7282 131.642 61.0108 136.367 61.124C141.091 61.2371 145.853 61.1799 149.672 60.9277C151.584 60.8014 153.23 60.628 154.504 60.4096C155.141 60.3004 155.661 60.184 156.061 60.0651C156.483 59.9399 156.683 59.8376 156.744 59.7967C156.899 59.6937 157.185 59.3891 157.508 58.6814C157.818 58.0022 158.098 57.0961 158.333 55.9953C158.803 53.7975 159.054 51.0235 159.11 48.1919C159.166 45.3667 159.026 42.5476 158.738 40.2757C158.594 39.138 158.416 38.1664 158.218 37.4133Z" fill="black"/>
<rect x="167.568" y="52.396" width="60.1425" height="60.1425" rx="0.91125" transform="rotate(15.002 167.568 52.396)" fill="white"/>
<path d="M167.808 97.2697L185.102 85.0681L191.837 94.8233L211.617 81.6511" stroke="#FF1C1C" stroke-width="2.27813" stroke-linecap="round" stroke-linejoin="round"/>
<path d="M172.605 61.7617L160.988 105.111L204.778 116.846" stroke="black" stroke-width="2.27813" stroke-linecap="round" stroke-linejoin="round"/>
<path d="M183.9 67.4542C183.108 67.2419 182.358 66.7673 181.919 66.1874L182.829 65.3274C183.186 65.7534 183.776 66.1568 184.26 66.2865C184.577 66.3714 184.713 66.3229 184.753 66.1732C184.795 66.0148 184.555 65.856 184.156 65.6548C183.376 65.2571 182.506 64.807 182.793 63.7331C183.029 62.8529 183.926 62.3574 185.114 62.6758C185.819 62.8645 186.428 63.3013 186.855 63.7838L186.005 64.6691C185.692 64.3212 185.237 63.9444 184.806 63.8289C184.568 63.7652 184.376 63.846 184.341 63.978C184.301 64.1276 184.496 64.2083 184.926 64.4365C185.704 64.8431 186.581 65.3707 186.293 66.4445C186.041 67.3863 185.132 67.7844 183.9 67.4542ZM189.654 67.3451L189.657 68.4968C189.302 68.6942 188.766 68.7581 188.362 68.6496C187.455 68.4067 186.991 67.6031 187.234 66.6965L187.71 64.9185L187.138 64.7652L187.497 63.4273L188.069 63.5806L188.404 62.3307L190.023 62.7647L189.688 64.0146L190.586 64.2551L190.228 65.5931L189.33 65.3525L188.943 66.796C188.87 67.0689 188.977 67.305 189.205 67.3663C189.364 67.4087 189.545 67.4007 189.654 67.3451ZM192.56 69.7747C191.161 69.3997 190.283 67.9945 190.629 66.7006C190.976 65.4067 192.437 64.6378 193.836 65.0128C195.227 65.3854 196.107 66.7817 195.761 68.0756C195.414 69.3695 193.951 70.1473 192.56 69.7747ZM192.938 68.3663C193.466 68.5078 194.035 68.1792 194.176 67.6511C194.318 67.123 193.987 66.5626 193.459 66.4211C192.922 66.2772 192.355 66.597 192.214 67.1252C192.072 67.6533 192.401 68.2225 192.938 68.3663ZM200.057 66.6796C201.034 66.9414 201.534 67.8583 201.258 68.8881L200.482 71.784L198.862 71.35L199.532 68.8503C199.65 68.4102 199.451 68.0266 199.046 67.9181C198.667 67.8167 198.317 68.0341 198.208 68.439L197.524 70.9915L195.825 70.5363L197.045 65.9857L198.744 66.4409L198.621 66.8986C198.997 66.622 199.511 66.5334 200.057 66.6796ZM205.223 70.2809L206.158 73.305L204.257 72.7956L203.824 71.0664L203.332 71.4251L203.051 72.4725L201.352 72.0173L203.001 65.8647L204.7 66.3199L203.841 69.5238L205.441 68.2355L207.342 68.745L205.223 70.2809Z" fill="black"/>
</svg>
