<svg width="198" height="180" viewBox="0 0 198 180" fill="none" xmlns="http://www.w3.org/2000/svg">
<ellipse cx="30.866" cy="41.047" rx="18.2121" ry="19.6259" transform="rotate(-28.6896 30.866 41.047)" fill="#5BB42B"/>
<ellipse cx="18.2121" cy="19.6259" rx="18.2121" ry="19.6259" transform="matrix(-0.877234 -0.480064 -0.480064 0.877234 135.389 32.0671)" fill="#5BB42B"/>
<path d="M124.596 118.783C113.45 122.584 96.6073 112.494 89.5791 106.974C89.2695 106.012 88.8965 103.585 89.8814 101.57C91.1125 99.0513 119.306 98.7297 125.786 99.8274C132.265 100.925 138.527 114.032 124.596 118.783Z" fill="#5C9A15"/>
<path d="M96.6273 169.245C99.8951 167.909 103.077 150.106 102.432 141.243L71.0439 146.253C70.3989 153.446 70.3559 168.115 71.9038 169.245C73.8387 170.658 92.5426 170.915 96.6273 169.245Z" fill="#5C9A15"/>
<path d="M99.0805 149.526C108.849 143.03 95.6439 102.506 86.1021 97.4019C76.5604 92.2978 61.0411 93.0711 54.2254 97.4019C47.4098 101.733 30.5673 142.875 40.3363 149.526C50.1052 156.177 89.3116 156.022 99.0805 149.526Z" fill="#5BB42B"/>
<path d="M43.2504 169.245C39.9826 167.909 36.8007 150.106 37.4457 141.243L68.8338 146.253C69.4788 153.446 69.5218 168.115 67.9739 169.245C66.039 170.658 47.3351 170.915 43.2504 169.245Z" fill="#5BB42B"/>
<path d="M23.6949 129.949C23.4929 118.175 38.2589 105.235 45.6671 100.237C46.6774 100.237 49.1019 100.626 50.7183 102.181C52.7387 104.124 44.4044 131.06 41.3738 136.891C38.3431 142.723 23.9475 144.667 23.6949 129.949Z" fill="#5BB42B"/>
<path d="M94.7699 133.682C94.7699 147.494 84.3664 150.811 71.533 150.811C58.6996 150.811 48.2961 147.494 48.2961 133.682C48.2961 115.526 58.6996 105.249 71.533 105.249C84.3664 105.249 94.7699 115.526 94.7699 133.682Z" fill="#A1DC3C"/>
<path d="M71.2099 143.521C71.3463 143.522 71.4816 143.504 71.6079 143.469C71.7343 143.434 71.8492 143.382 71.946 143.316L76.5602 140.133C76.7301 139.997 76.8189 139.823 76.8088 139.645C76.7987 139.467 76.6905 139.298 76.5059 139.172C76.3212 139.046 76.0737 138.972 75.8127 138.966C75.5517 138.959 75.2966 139.019 75.0982 139.135L70.4737 142.283C70.3765 142.349 70.2993 142.427 70.2467 142.514C70.1941 142.6 70.167 142.692 70.167 142.786C70.167 142.879 70.1941 142.971 70.2467 143.058C70.2993 143.144 70.3765 143.222 70.4737 143.288C70.5671 143.359 70.6804 143.416 70.8069 143.456C70.9334 143.496 71.0704 143.518 71.2099 143.521Z" fill="#5BB42B"/>
<path d="M75.7748 143.521C75.9102 143.522 76.0444 143.504 76.1698 143.469C76.2951 143.434 76.4091 143.382 76.5052 143.317C76.6017 143.251 76.6782 143.173 76.7305 143.087C76.7827 143.001 76.8096 142.909 76.8096 142.816C76.8096 142.722 76.7827 142.63 76.7305 142.544C76.6782 142.458 76.6017 142.38 76.5052 142.314L71.9271 139.174C71.8314 139.108 71.7176 139.055 71.5922 139.019C71.4669 138.984 71.3324 138.965 71.1966 138.965C71.0608 138.965 70.9263 138.984 70.801 139.019C70.6756 139.055 70.5618 139.108 70.4661 139.174C70.2745 139.306 70.167 139.485 70.167 139.671C70.167 139.858 70.2745 140.037 70.4661 140.169L75.0546 143.317C75.2462 143.447 75.5049 143.521 75.7748 143.521Z" fill="#5BB42B"/>
<path d="M56.9965 102.014L68.9394 102.899C70.3821 103.006 70.6917 104.988 69.3504 105.53L55.1787 111.254C54.0956 111.692 52.9982 110.657 53.3715 109.55L55.6003 102.941C55.7997 102.349 56.3742 101.968 56.9965 102.014Z" fill="white"/>
<path d="M91.1165 102.47L79.1736 103.354C77.7309 103.461 77.4213 105.443 78.7627 105.985L92.9344 111.71C94.0175 112.147 95.1148 111.112 94.7416 110.006L92.5128 103.396C92.3134 102.805 91.7388 102.423 91.1165 102.47Z" fill="white"/>
<path d="M68.005 134.157L71.6741 110.814C71.7224 110.507 71.6643 110.192 71.5094 109.922L69.1319 105.778C68.801 105.201 68.9331 104.47 69.4449 104.046L70.3621 103.285C70.6073 103.082 70.916 102.97 71.2347 102.97H77.4358C77.7731 102.97 78.0984 103.095 78.3493 103.32L79.133 104.024C79.621 104.463 79.7287 105.186 79.3895 105.748L76.8771 109.908C76.709 110.186 76.6456 110.515 76.6982 110.836L80.5186 134.129C80.5972 134.608 80.4159 135.092 80.0424 135.402L74.9947 139.588C74.4784 140.017 73.7276 140.007 73.2225 139.565L68.4557 135.398C68.1023 135.089 67.9322 134.621 68.005 134.157Z" fill="#E22323"/>
<path d="M129.397 72.5649C129.397 96.596 102.911 104.565 70.7193 104.565C38.5276 104.565 11.8462 96.596 11.8462 72.5649C11.8462 38.0437 38.5276 23.2358 70.7193 23.2358C102.911 23.2358 129.397 35.3099 129.397 72.5649Z" fill="#5BB42B"/>
<path d="M34.1721 41.0056V48.2956" stroke="#123041" stroke-width="6.83437" stroke-linecap="round"/>
<path d="M111.628 40.5503V47.8403" stroke="#123041" stroke-width="6.83437" stroke-linecap="round"/>
<path d="M24.1482 64.2422H31.8938" stroke="#A1DC3C" stroke-width="9.1125" stroke-linecap="round"/>
<path d="M108.439 64.2422H116.185" stroke="#A1DC3C" stroke-width="9.1125" stroke-linecap="round"/>
<path d="M81.5566 56.9782C81.5566 51.5038 81.5566 48.7516 71.305 48.7516C61.0535 48.7516 61.0535 51.0147 61.0535 56.9782C61.0535 66.7488 65.6432 72.4441 71.305 72.4441C76.9668 72.4441 81.5566 66.0653 81.5566 56.9782Z" fill="#D52C2F"/>
<path fill-rule="evenodd" clip-rule="evenodd" d="M61.0708 57.989C61.3769 67.14 65.8422 72.4434 71.3056 72.4434C75.2718 72.4434 78.7118 69.3132 80.4166 64.3146C78.4338 61.9979 75.4996 59.9889 71.9566 58.7468C68.0922 57.392 64.2239 57.202 61.0708 57.989Z" fill="#FF686B"/>
<path fill-rule="evenodd" clip-rule="evenodd" d="M19.0495 35.8977C18.9526 36.0988 18.8177 36.4483 18.6735 36.9949C18.4748 37.7479 18.2971 38.7195 18.153 39.8572C17.8652 42.1292 17.7253 44.9483 17.781 47.7734C17.8368 50.605 18.088 53.3791 18.5578 55.5769C18.7931 56.6776 19.0728 57.5837 19.3832 58.2629C19.7066 58.9707 19.9924 59.2753 20.1468 59.3782C20.2083 59.4192 20.4081 59.5214 20.8299 59.6466C21.2304 59.7656 21.75 59.8819 22.3873 59.9912C23.6614 60.2095 25.3077 60.3829 27.2197 60.5092C31.0383 60.7614 35.8006 60.8187 40.5244 60.7055C45.249 60.5924 49.8955 60.3097 53.4835 59.8901C55.2826 59.6796 56.7769 59.4391 57.8684 59.1788C58.4165 59.0481 58.8224 58.9218 59.0983 58.8088C59.2043 58.7654 59.2723 58.7315 59.3118 58.7101L59.3177 58.6999C59.3474 58.6479 59.3843 58.5746 59.4262 58.476C59.511 58.2762 59.6017 58.0077 59.6925 57.6644C59.8746 56.9762 60.0336 56.079 60.1622 55.0143C60.4188 52.8894 60.5385 50.2329 60.5245 47.5285C60.5105 44.8261 60.3632 42.1188 60.0979 39.8959C59.9651 38.7833 59.8054 37.8155 59.625 37.0418C59.4658 36.3589 59.3103 35.917 59.1908 35.671C59.1581 35.6524 59.1106 35.6275 59.045 35.5977C58.7849 35.4795 58.3799 35.3461 57.8074 35.2124C56.6688 34.9463 55.0837 34.7273 53.1576 34.5608C49.3194 34.229 44.3303 34.122 39.3034 34.1928C34.2802 34.2636 29.2626 34.5112 25.3748 34.88C23.4266 35.0648 21.7928 35.2772 20.595 35.5061C19.9931 35.6212 19.5374 35.7337 19.2217 35.8369C19.1506 35.8601 19.0939 35.8806 19.0495 35.8977ZM60.3644 32.6941C60.4945 32.7532 60.6372 32.8235 60.7836 32.9076C63.8594 32.3438 69.6771 31.4379 73.4822 31.4379C77.5338 31.4379 84.3119 32.467 87.4035 33.012C87.6091 32.8798 87.814 32.7761 87.9946 32.6941C88.5216 32.4546 89.1512 32.2643 89.8259 32.1066C91.1818 31.7898 92.9409 31.555 94.9267 31.3833C98.9124 31.0388 104.018 30.9322 109.101 31.0038C114.187 31.0754 119.292 31.3261 123.285 31.7049C125.278 31.8938 127.024 32.1175 128.363 32.3735C129.03 32.5009 129.632 32.6431 130.128 32.8053C130.546 32.9419 131.158 33.1725 131.592 33.6064L131.665 33.6796L131.728 33.7617C132.217 34.398 132.537 35.3017 132.769 36.1812C133.016 37.1145 133.215 38.2341 133.37 39.4564C133.68 41.9045 133.825 44.8805 133.767 47.8363C133.709 50.7855 133.447 53.7782 132.92 56.2435C132.657 57.4744 132.317 58.624 131.877 59.5885C131.449 60.5244 130.852 61.4514 129.981 62.0319C129.53 62.3327 128.977 62.5437 128.437 62.7041C127.875 62.8709 127.223 63.0126 126.511 63.1347C125.085 63.3791 123.317 63.5617 121.35 63.6917C117.408 63.952 112.546 64.0087 107.758 63.894C102.972 63.7794 98.2212 63.4925 94.505 63.0578C92.652 62.8411 91.0175 62.5833 89.7508 62.2812C89.1198 62.1307 88.5392 61.9598 88.0522 61.7604C87.6192 61.5831 87.0416 61.299 86.638 60.8147C86.1174 60.1901 85.8018 59.306 85.5832 58.4802C85.3498 57.5978 85.1688 56.5425 85.0305 55.3967C84.7532 53.1005 84.6308 50.3036 84.6452 47.512C84.6597 44.7183 84.8115 41.8868 85.0943 39.5178C85.2355 38.3344 85.4122 37.2429 85.6279 36.3178C85.6559 36.1978 85.685 36.0782 85.7155 35.9596C82.3631 35.4053 76.8175 34.6273 73.4822 34.6273C70.4128 34.6273 65.7507 35.2877 62.6081 35.8239C62.6516 35.9869 62.6925 36.152 62.7311 36.3178C62.9468 37.2429 63.1235 38.3344 63.2648 39.5178C63.5476 41.8868 63.6993 44.7183 63.7138 47.512C63.7283 50.3036 63.6059 53.1005 63.3286 55.3967C63.1902 56.5425 63.0093 57.5978 62.7758 58.4802C62.5573 59.306 62.2416 60.1901 61.7211 60.8147C61.3175 61.299 60.7398 61.5831 60.3068 61.7604C59.8198 61.9598 59.2393 62.1307 58.6083 62.2812C57.3416 62.5833 55.7071 62.8411 53.854 63.0578C50.1378 63.4925 45.3872 63.7794 40.6007 63.894C35.8134 64.0087 30.9508 63.952 27.0095 63.6917C25.0417 63.5617 23.2744 63.3791 21.8485 63.1347C21.1359 63.0126 20.4839 62.8709 19.9222 62.7041C19.3818 62.5437 18.8288 62.3327 18.3777 62.0319C17.5069 61.4514 16.91 60.5244 16.4823 59.5885C16.0416 58.624 15.702 57.4744 15.4389 56.2435C14.9119 53.7782 14.6504 50.7855 14.5922 47.8363C14.534 44.8805 14.6788 41.9045 14.9889 39.4564C15.1437 38.2341 15.3434 37.1145 15.5896 36.1812C15.8217 35.3017 16.1416 34.398 16.6311 33.7617L16.6942 33.6796L16.7674 33.6064C17.2013 33.1725 17.8129 32.9419 18.2311 32.8053C18.7272 32.6431 19.3294 32.5009 19.9961 32.3735C21.3353 32.1175 23.0814 31.8938 25.0736 31.7049C29.0666 31.3261 34.1725 31.0754 39.2585 31.0038C44.3408 30.9322 49.4466 31.0388 53.4323 31.3833C55.4182 31.555 57.1773 31.7898 58.5331 32.1066C59.2078 32.2643 59.8375 32.4546 60.3644 32.6941ZM129.686 36.9949C129.541 36.4483 129.406 36.0988 129.31 35.8977C129.265 35.8806 129.208 35.8601 129.137 35.8369C128.822 35.7337 128.366 35.6212 127.764 35.5061C126.566 35.2772 124.932 35.0648 122.984 34.88C119.096 34.5112 114.079 34.2636 109.056 34.1928C104.029 34.122 99.0397 34.229 95.2014 34.5608C93.2753 34.7273 91.6902 34.9463 90.5517 35.2124C89.9791 35.3461 89.5741 35.4795 89.3141 35.5977C89.2484 35.6275 89.201 35.6524 89.1682 35.671C89.0487 35.917 88.8932 36.3589 88.734 37.0418C88.5537 37.8155 88.394 38.7833 88.2612 39.8959C87.9958 42.1188 87.8486 44.8261 87.8346 47.5285C87.8205 50.2329 87.9402 52.8894 88.1968 55.0143C88.3254 56.079 88.4844 56.9762 88.6665 57.6644C88.7574 58.0077 88.848 58.2762 88.9329 58.476C88.9748 58.5746 89.0116 58.6479 89.0414 58.6999L89.0473 58.7101C89.0868 58.7315 89.1547 58.7654 89.2608 58.8088C89.5367 58.9218 89.9425 59.0481 90.4906 59.1788C91.5821 59.4391 93.0765 59.6796 94.8755 59.8901C98.4635 60.3097 103.11 60.5924 107.835 60.7055C112.558 60.8187 117.321 60.7614 121.139 60.5092C123.051 60.3829 124.698 60.2095 125.972 59.9912C126.609 59.8819 127.129 59.7656 127.529 59.6466C127.951 59.5214 128.151 59.4192 128.212 59.3782C128.367 59.2753 128.652 58.9707 128.976 58.2629C129.286 57.5837 129.566 56.6776 129.801 55.5769C130.271 53.3791 130.522 50.605 130.578 47.7734C130.634 44.9483 130.494 42.1292 130.206 39.8572C130.062 38.7195 129.884 37.7479 129.686 36.9949Z" fill="black"/>
<rect x="139.042" y="52.396" width="60.1425" height="60.1425" rx="0.91125" transform="rotate(15.002 139.042 52.396)" fill="white"/>
<path d="M139.282 97.2697L156.576 85.0681L163.311 94.8233L183.091 81.6511" stroke="#FF1C1C" stroke-width="2.27813" stroke-linecap="round" stroke-linejoin="round"/>
<path d="M144.079 61.7617L132.462 105.111L176.252 116.846" stroke="black" stroke-width="2.27813" stroke-linecap="round" stroke-linejoin="round"/>
<path d="M155.374 67.4542C154.582 67.2419 153.832 66.7673 153.393 66.1874L154.302 65.3274C154.66 65.7534 155.25 66.1568 155.734 66.2865C156.051 66.3714 156.187 66.3229 156.227 66.1732C156.269 66.0148 156.029 65.856 155.63 65.6548C154.849 65.2571 153.98 64.807 154.267 63.7331C154.503 62.8529 155.4 62.3574 156.588 62.6758C157.292 62.8645 157.902 63.3013 158.329 63.7838L157.479 64.6691C157.166 64.3212 156.711 63.9444 156.279 63.8289C156.042 63.7652 155.85 63.846 155.815 63.978C155.775 64.1276 155.97 64.2083 156.4 64.4365C157.177 64.8431 158.055 65.3707 157.767 66.4445C157.515 67.3863 156.606 67.7844 155.374 67.4542ZM161.128 67.3451L161.131 68.4968C160.776 68.6942 160.24 68.7581 159.835 68.6496C158.929 68.4067 158.465 67.6031 158.708 66.6965L159.184 64.9185L158.612 64.7652L158.971 63.4273L159.543 63.5806L159.878 62.3307L161.497 62.7647L161.162 64.0146L162.06 64.2551L161.702 65.5931L160.804 65.3525L160.417 66.796C160.344 67.0689 160.45 67.305 160.679 67.3663C160.838 67.4087 161.019 67.4007 161.128 67.3451ZM164.034 69.7747C162.635 69.3997 161.756 67.9945 162.103 66.7006C162.45 65.4067 163.91 64.6378 165.31 65.0128C166.701 65.3854 167.581 66.7817 167.235 68.0756C166.888 69.3695 165.425 70.1473 164.034 69.7747ZM164.411 68.3663C164.94 68.5078 165.509 68.1792 165.65 67.6511C165.792 67.123 165.461 66.5626 164.933 66.4211C164.396 66.2772 163.829 66.597 163.687 67.1252C163.546 67.6533 163.874 68.2225 164.411 68.3663ZM171.531 66.6796C172.508 66.9414 173.007 67.8583 172.731 68.8881L171.955 71.784L170.336 71.35L171.006 68.8503C171.124 68.4102 170.925 68.0266 170.52 67.9181C170.141 67.8167 169.79 68.0341 169.682 68.439L168.998 70.9915L167.299 70.5363L168.519 65.9857L170.217 66.4409L170.095 66.8986C170.471 66.622 170.985 66.5334 171.531 66.6796ZM176.697 70.2809L177.632 73.305L175.731 72.7956L175.298 71.0664L174.806 71.4251L174.525 72.4725L172.826 72.0173L174.475 65.8647L176.174 66.3199L175.315 69.5238L176.915 68.2355L178.816 68.745L176.697 70.2809Z" fill="black"/>
</svg>
