<svg width="440" height="332" viewBox="0 0 440 332" fill="none" xmlns="http://www.w3.org/2000/svg">
<rect width="440" height="332" rx="20" fill="#0B2638"/>
<ellipse cx="220.5" cy="301.5" rx="97.5" ry="19.5" fill="#031826"/>
<path d="M40 58H400V252C400 263.046 391.046 272 380 272H60C48.9543 272 40 263.046 40 252V58Z" fill="#123041" fill-opacity="0.8"/>
<path d="M40 58H400V252C400 263.046 391.046 272 380 272H60C48.9543 272 40 263.046 40 252V58Z" fill="white" fill-opacity="0.2"/>
<rect x="64" y="78" width="21" height="14" rx="7" fill="#B5D958"/>
<rect x="91" y="78" width="152" height="14" rx="7" fill="url(#paint0_linear_3564_3558)" fill-opacity="0.07"/>
<rect x="91" y="78" width="152" height="14" rx="7" fill="white" fill-opacity="0.1"/>
<rect x="64" y="110" width="95" height="14" rx="7" fill="url(#paint1_linear_3564_3558)" fill-opacity="0.07"/>
<rect x="64" y="110" width="95" height="14" rx="7" fill="white" fill-opacity="0.1"/>
<rect x="165" y="110" width="34" height="14" rx="7" fill="#FFC53D"/>
<rect x="205" y="110" width="83" height="14" rx="7" fill="url(#paint2_linear_3564_3558)" fill-opacity="0.07"/>
<rect x="205" y="110" width="83" height="14" rx="7" fill="white" fill-opacity="0.2"/>
<rect x="64" y="142" width="53" height="14" rx="7" fill="#9A63FF"/>
<rect x="123" y="142" width="165" height="14" rx="7" fill="url(#paint3_linear_3564_3558)" fill-opacity="0.07"/>
<rect x="64" y="174" width="172" height="14" rx="7" fill="url(#paint4_linear_3564_3558)" fill-opacity="0.07"/>
<rect x="64" y="174" width="172" height="14" rx="7" fill="white" fill-opacity="0.1"/>
<rect x="64" y="206" width="62" height="14" rx="7" fill="url(#paint5_linear_3564_3558)" fill-opacity="0.07"/>
<rect x="64" y="206" width="62" height="14" rx="7" fill="white" fill-opacity="0.1"/>
<rect x="132" y="206" width="46" height="14" rx="7" fill="#F95A5A"/>
<rect x="64" y="238" width="31" height="14" rx="7" fill="#FFC53D"/>
<rect x="101" y="238" width="109" height="14" rx="7" fill="url(#paint6_linear_3564_3558)" fill-opacity="0.07"/>
<rect x="101" y="238" width="109" height="14" rx="7" fill="white" fill-opacity="0.1"/>
<rect x="216" y="238" width="160.992" height="14" rx="7" fill="url(#paint7_linear_3564_3558)" fill-opacity="0.07"/>
<rect x="216" y="238" width="160.992" height="14" rx="7" fill="white" fill-opacity="0.1"/>
<path d="M40 35C40 23.9543 48.9543 15 60 15H380C391.046 15 400 23.9543 400 35V58.9149H40V35Z" fill="#123041"/>
<path d="M40 35C40 23.9543 48.9543 15 60 15H380C391.046 15 400 23.9543 400 35V58.9149H40V35Z" fill="white" fill-opacity="0.07"/>
<rect width="52" height="12" transform="translate(63.7209 31.4688)" fill="#123041"/>
<rect width="52" height="12" transform="translate(63.7209 31.4688)" fill="white" fill-opacity="0.07"/>
<circle cx="69.7209" cy="37.4688" r="6" fill="#F95A5A"/>
<circle cx="89.7209" cy="37.4688" r="6" fill="#FFC53D"/>
<circle cx="109.721" cy="37.4688" r="6" fill="#B5D958"/>
<g clip-path="url(#clip0_3564_3558)">
<path d="M150.2 122.653C169.16 133.873 163.303 139.467 158.404 147.744C153.506 156.022 151.036 163.62 132.461 152.628C123.032 147.047 119.359 135.813 124.257 127.536C129.156 119.259 140.771 117.072 150.2 122.653Z" fill="white"/>
<path d="M177.992 124.571C177.992 135.022 174.347 135.084 169.85 135.084C165.353 135.084 161.708 135.022 161.708 124.571C161.708 114.12 166.698 105.648 169.85 105.648C173.002 105.648 177.992 114.12 177.992 124.571Z" fill="#6A5B3D"/>
<path d="M276.319 124.571C276.319 135.022 272.673 135.084 268.177 135.084C263.68 135.084 260.035 135.022 260.035 124.571C260.035 114.12 265.025 105.648 268.177 105.648C271.328 105.648 276.319 114.12 276.319 124.571Z" fill="#6A5B3D"/>
<path d="M289.616 122.653C270.656 133.873 276.513 139.467 281.412 147.744C286.31 156.022 288.78 163.62 307.355 152.628C316.785 147.047 320.458 135.813 315.559 127.536C310.661 119.259 299.045 117.072 289.616 122.653Z" fill="#123041"/>
<path d="M294.295 132.218C284.845 137.81 287.292 139.8 289.15 142.94C291.009 146.081 291.767 149.07 301.025 143.591C305.725 140.809 308.028 136.009 306.17 132.868C304.311 129.728 298.994 129.436 294.295 132.218Z" fill="#FFC0C1"/>
<path d="M144.959 132.218C154.409 137.81 151.962 139.8 150.103 142.94C148.245 146.081 147.486 149.07 138.228 143.591C133.529 140.809 131.225 136.009 133.084 132.868C134.943 129.728 140.259 129.436 144.959 132.218Z" fill="#FFC0C1"/>
<path d="M275.728 298.954C272.61 300.798 237.877 300.612 230.86 295.99C222.322 290.366 219.195 282.803 221.253 276.271C225.671 262.247 235.61 262.533 246.57 263.472C257.53 264.412 288.738 265.983 291.036 271.927C293.7 278.816 283.834 294.16 275.728 298.954Z" fill="#E7EAEE"/>
<path d="M259.071 289.89C272.499 280.961 254.347 225.258 241.231 218.243C228.115 211.227 206.783 212.29 197.414 218.243C188.046 224.196 164.895 280.748 178.323 289.89C191.751 299.032 245.643 298.819 259.071 289.89Z" fill="white"/>
<path fill-rule="evenodd" clip-rule="evenodd" d="M179.433 252.527C182.842 254.019 185.793 256.301 187.072 259.712C190.079 267.728 200.434 271.194 205.236 271.925C205.32 271.955 217.236 276.175 220.893 282.571C223.185 286.581 223.291 293.302 223.187 296.599C204.945 297.065 185.636 294.862 178.323 289.884C171.562 285.281 174.075 268.659 179.433 252.527Z" fill="#123041"/>
<path d="M254.398 269.683C254.398 286.39 240.098 290.402 222.458 290.402C204.818 290.402 190.517 286.39 190.517 269.683C190.517 247.721 204.818 235.289 222.458 235.289C240.098 235.289 254.398 247.721 254.398 269.683Z" fill="#FFC0C1"/>
<path d="M222.189 284.767C222.317 284.767 222.445 284.743 222.564 284.695C222.683 284.646 222.791 284.575 222.883 284.485L227.233 280.109C227.393 279.923 227.477 279.684 227.467 279.439C227.458 279.194 227.356 278.962 227.182 278.789C227.008 278.616 226.774 278.514 226.528 278.505C226.282 278.495 226.042 278.578 225.855 278.738L221.495 283.065C221.403 283.155 221.33 283.263 221.281 283.381C221.231 283.5 221.205 283.627 221.205 283.755C221.205 283.884 221.231 284.011 221.281 284.129C221.33 284.248 221.403 284.355 221.495 284.446C221.583 284.543 221.689 284.622 221.809 284.677C221.928 284.732 222.057 284.762 222.189 284.767Z" fill="#FF8D8D"/>
<path d="M226.493 284.767C226.62 284.767 226.747 284.743 226.865 284.695C226.983 284.646 227.091 284.575 227.181 284.485C227.272 284.395 227.344 284.288 227.394 284.17C227.443 284.052 227.468 283.925 227.468 283.797C227.468 283.669 227.443 283.542 227.394 283.424C227.344 283.305 227.272 283.198 227.181 283.108L222.865 278.791C222.775 278.7 222.667 278.628 222.549 278.579C222.431 278.529 222.304 278.504 222.176 278.504C222.048 278.504 221.921 278.529 221.803 278.579C221.685 278.628 221.578 278.7 221.487 278.791C221.307 278.973 221.205 279.218 221.205 279.475C221.205 279.731 221.307 279.977 221.487 280.159L225.814 284.485C225.994 284.665 226.238 284.766 226.493 284.767Z" fill="#FF8D8D"/>
<path d="M230.009 300.833C226.891 302.677 192.158 302.491 185.141 297.869C176.604 292.245 173.476 284.682 175.534 278.15C179.952 264.126 189.891 264.412 200.851 265.351C211.811 266.291 243.019 267.862 245.317 273.806C247.981 280.695 238.115 296.039 230.009 300.833Z" fill="#123041"/>
<path d="M298.238 187.382C298.238 220.068 262.396 230.907 218.832 230.907C175.269 230.907 139.162 220.068 139.162 187.382C139.162 131.648 175.269 112.539 218.832 112.539C262.396 112.539 298.238 128.994 298.238 187.382Z" fill="white"/>
<path d="M224.369 112.633C262.127 113.912 292.956 128.809 297.625 174.755C276.605 176.464 272.9 160.473 266.121 154.215C259.221 147.846 244.891 151.295 233.745 142.272C226.912 136.74 224.735 123.062 224.369 112.633Z" fill="#123041"/>
<path d="M180.497 181.43V191.45" stroke="#123041" stroke-width="9.39429" stroke-linecap="round"/>
<path d="M264.419 181.43V191.45" stroke="#123041" stroke-width="9.39429" stroke-linecap="round"/>
<path d="M193.023 204.728C193.023 191.86 203.453 181.43 216.32 181.43H227.969C240.836 181.43 251.267 191.86 251.267 204.728C251.267 213.306 244.313 220.259 235.735 220.259H208.554C199.976 220.259 193.023 213.306 193.023 204.728Z" fill="#FFC0C1"/>
<path d="M209.932 198.965V205.854" stroke="#123041" stroke-width="6.26286" stroke-linecap="round"/>
<path d="M234.984 198.965L234.984 205.854" stroke="#123041" stroke-width="6.26286" stroke-linecap="round"/>
<path d="M161.708 205.855H171.103" stroke="#FFC0C1" stroke-width="12.5257" stroke-linecap="round"/>
<path d="M273.813 205.855H283.208" stroke="#FFC0C1" stroke-width="12.5257" stroke-linecap="round"/>
<path d="M215.428 259.115C199.549 262.258 187.389 247.391 180.467 237.348C178.732 233.653 180.337 228.555 183.288 227.662C188.543 226.071 211.883 230.829 220.51 233.508C229.138 236.186 235.276 255.187 215.428 259.115Z" fill="#E7EAEE"/>
<rect width="102.085" height="8.768" rx="1.25257" transform="matrix(-1 0 0 1 295.254 259.09)" fill="#173A52"/>
<path d="M306.38 201.518L171.069 135.082L130.394 231.945L216.348 263.471L306.38 201.518Z" fill="url(#paint8_linear_3564_3558)"/>
<path fill-rule="evenodd" clip-rule="evenodd" d="M251.482 163.191C256.961 162.718 263.98 162.571 270.965 162.67C277.956 162.768 284.975 163.113 290.464 163.634C293.202 163.893 295.602 164.201 297.443 164.552C298.359 164.728 299.187 164.923 299.869 165.146C300.444 165.334 301.284 165.651 301.881 166.247L301.981 166.348L302.068 166.461C302.741 167.335 303.181 168.578 303.5 169.787C303.838 171.07 304.113 172.609 304.326 174.289C304.752 177.654 304.951 181.745 304.871 185.807C304.791 189.861 304.431 193.974 303.707 197.363C303.345 199.055 302.878 200.636 302.272 201.962C301.684 203.248 300.864 204.522 299.668 205.32C299.048 205.733 298.287 206.023 297.545 206.244C296.773 206.473 295.876 206.668 294.896 206.836C292.936 207.172 290.507 207.423 287.802 207.601C282.385 207.959 275.701 208.037 269.121 207.88C262.542 207.722 256.011 207.328 250.903 206.73C248.356 206.432 246.109 206.078 244.368 205.663C243.501 205.456 242.702 205.221 242.033 204.947C241.438 204.703 240.644 204.312 240.09 203.647C239.374 202.789 238.94 201.573 238.639 200.438C238.318 199.225 238.07 197.774 237.88 196.199C237.498 193.043 237.33 189.198 237.35 185.361C237.37 181.521 237.579 177.629 237.967 174.373C238.162 172.746 238.404 171.246 238.701 169.974C238.739 169.81 238.779 169.645 238.821 169.482C234.213 168.72 226.589 167.651 222.005 167.651C217.786 167.651 211.378 168.562 207.058 169.299C207.118 169.522 207.175 169.747 207.228 169.974C207.525 171.246 207.767 172.746 207.962 174.373C208.35 177.629 208.559 181.521 208.579 185.361C208.599 189.198 208.431 193.043 208.049 196.199C207.859 197.774 207.611 199.225 207.29 200.438C206.989 201.573 206.555 202.789 205.84 203.647C205.285 204.312 204.491 204.703 203.896 204.947C203.227 205.221 202.428 205.456 201.561 205.663C199.82 206.078 197.573 206.432 195.026 206.73C189.918 207.328 183.387 207.722 176.808 207.88C170.228 208.037 163.544 207.959 158.127 207.601C155.422 207.423 152.993 207.172 151.033 206.836C150.054 206.668 149.156 206.473 148.384 206.244C147.642 206.023 146.881 205.733 146.261 205.32C145.065 204.522 144.245 203.248 143.657 201.962C143.051 200.636 142.584 199.055 142.222 197.363C141.498 193.974 141.138 189.861 141.058 185.807C140.978 181.745 141.177 177.654 141.603 174.289C141.816 172.609 142.091 171.07 142.429 169.787C142.748 168.578 143.188 167.335 143.861 166.461L143.948 166.348L144.048 166.247C144.645 165.651 145.486 165.334 146.06 165.146C146.742 164.923 147.57 164.728 148.486 164.552C150.327 164.201 152.727 163.893 155.465 163.634C160.954 163.113 167.973 162.768 174.964 162.67C181.949 162.571 188.969 162.718 194.447 163.191C197.176 163.427 199.594 163.75 201.458 164.185C202.385 164.402 203.251 164.664 203.975 164.993C204.154 165.074 204.35 165.173 204.551 165.289C208.779 164.514 216.775 163.266 222.005 163.266C227.574 163.266 236.89 164.682 241.14 165.431C241.423 165.249 241.705 165.106 241.954 164.993C242.678 164.664 243.544 164.402 244.471 164.185C246.335 163.75 248.753 163.427 251.482 163.191ZM194.069 167.559C188.793 167.103 181.935 166.956 175.025 167.053C168.121 167.151 161.223 167.491 155.88 167.998C153.202 168.252 150.956 168.543 149.309 168.858C148.482 169.016 147.856 169.171 147.422 169.313C147.324 169.345 147.246 169.375 147.185 169.398C147.052 169.675 146.867 170.155 146.669 170.905C146.395 171.94 146.151 173.276 145.953 174.84C145.557 177.962 145.364 181.837 145.441 185.72C145.518 189.613 145.864 193.426 146.509 196.447C146.833 197.96 147.218 199.206 147.644 200.139C148.089 201.112 148.482 201.531 148.694 201.673C148.779 201.729 149.055 201.869 149.632 202.041C150.183 202.204 150.897 202.364 151.773 202.514C153.524 202.815 155.788 203.054 158.416 203.227C163.664 203.574 170.211 203.652 176.704 203.497C183.198 203.341 189.585 202.953 194.517 202.376C196.99 202.087 199.044 201.756 200.545 201.398C201.298 201.219 201.856 201.045 202.235 200.889C202.381 200.83 202.474 200.781 202.528 200.752C202.53 200.748 202.534 200.744 202.537 200.74C202.578 200.668 202.628 200.568 202.685 200.432C202.802 200.158 202.927 199.788 203.051 199.316C203.302 198.37 203.52 197.137 203.697 195.674C204.05 192.753 204.214 189.102 204.195 185.385C204.176 181.67 203.974 177.948 203.609 174.892C203.426 173.363 203.207 172.033 202.959 170.969C202.74 170.032 202.526 169.425 202.362 169.087C202.317 169.061 202.252 169.025 202.162 168.984C201.804 168.822 201.247 168.639 200.461 168.455C198.896 168.089 196.716 167.788 194.069 167.559ZM270.904 167.053C263.994 166.956 257.136 167.103 251.86 167.559C249.213 167.788 247.033 168.089 245.468 168.455C244.682 168.639 244.125 168.822 243.767 168.984C243.677 169.025 243.612 169.061 243.567 169.087C243.403 169.425 243.189 170.032 242.97 170.969C242.722 172.033 242.503 173.363 242.32 174.892C241.955 177.948 241.753 181.67 241.734 185.385C241.715 189.102 241.879 192.753 242.232 195.674C242.409 197.137 242.627 198.37 242.878 199.316C243.002 199.788 243.127 200.158 243.244 200.432C243.301 200.568 243.351 200.668 243.392 200.74C243.395 200.744 243.399 200.748 243.401 200.752C243.455 200.781 243.548 200.83 243.694 200.889C244.073 201.045 244.631 201.219 245.384 201.398C246.885 201.756 248.939 202.087 251.412 202.376C256.344 202.953 262.731 203.341 269.225 203.497C275.718 203.652 282.265 203.574 287.513 203.227C290.141 203.054 292.405 202.815 294.156 202.514C295.032 202.364 295.746 202.204 296.297 202.041C296.875 201.869 297.15 201.729 297.235 201.673C297.447 201.531 297.84 201.112 298.285 200.139C298.711 199.206 299.096 197.96 299.42 196.447C300.065 193.426 300.411 189.613 300.488 185.72C300.564 181.837 300.372 177.962 299.976 174.84C299.778 173.276 299.533 171.94 299.26 170.905C299.062 170.155 298.877 169.675 298.744 169.398C298.683 169.375 298.605 169.345 298.507 169.313C298.074 169.171 297.447 169.016 296.62 168.858C294.973 168.543 292.727 168.252 290.049 167.998C284.706 167.491 277.808 167.151 270.904 167.053Z" fill="black"/>
<rect width="102.085" height="67.0126" rx="3.13143" transform="matrix(-1 0 0 1 307.78 200.844)" fill="#005271"/>
<path d="M252.242 234.747V229.572L241.393 240.427L243.956 243.044L252.242 234.747ZM276.965 231.513C276.161 227.47 273.122 224.438 272.773 224.08L265.316 216.5L261.054 220.76L260.751 221.063V226.237L265.301 221.69L269.543 226L270.19 226.657L270.235 226.702C270.235 226.702 270.519 226.98 270.908 227.445C272.102 228.816 272.95 230.454 273.38 232.22C273.987 235.252 274.29 238.825 270.908 243.16V248.506C271.226 248.229 271.413 248.031 271.499 247.961C274.533 244.989 276.348 241.988 277.061 238.779C277.554 236.379 277.523 233.9 276.97 231.513H276.965ZM254.376 247.486L254.265 247.43H254.209C253.879 247.258 253.564 247.056 253.269 246.829C252.991 246.632 252.652 246.369 252.258 246.03C251.641 245.525 250.872 244.838 249.937 243.923L247.839 241.781L245.251 244.368L247.339 246.495V246.526C250.569 249.679 252.227 250.568 252.839 250.826C254.776 251.779 256.875 252.361 259.027 252.539C260.016 252.616 261.01 252.596 261.995 252.478L262.232 252.453V248.744C259.548 249.169 256.798 248.728 254.381 247.486H254.376Z" fill="white"/>
<path d="M258.926 222.895V244.987H254.078V227.746L254.563 227.26L254.826 226.998L256.292 225.532L257.283 224.542L257.607 224.218L258.603 223.223L258.926 222.895Z" fill="white"/>
<path d="M269.078 227.832V249.874L269.017 249.919C268.794 250.061 268.557 250.207 268.304 250.349C268.223 250.399 268.137 250.445 268.051 250.49C267.829 250.617 267.591 250.743 267.349 250.864C267.106 250.985 266.888 251.086 266.646 251.193L266.246 251.364L265.7 251.577L265.256 251.733C264.952 251.834 264.639 251.93 264.315 252.016L264.078 252.077V227.832H269.078Z" fill="white"/>
<path d="M264.077 233.656H258.925V238.659H264.077V233.656Z" fill="white"/>
</g>
<path d="M400.611 277.809C400.61 277.809 400.61 277.808 400.61 277.808L402.668 274.419C402.715 274.333 402.794 274.268 402.875 274.224L406.454 272.274C406.83 272.067 406.83 271.549 406.454 271.331L402.887 269.369C402.796 269.325 402.726 269.251 402.68 269.174L400.612 265.796C400.396 265.438 399.845 265.438 399.618 265.796L397.559 269.186C397.512 269.272 397.433 269.337 397.352 269.381L393.774 271.331C393.397 271.537 393.397 272.056 393.774 272.274L397.352 274.224C397.443 274.268 397.512 274.342 397.559 274.419L399.618 277.809C399.845 278.166 400.395 278.167 400.611 277.81C400.612 277.809 400.611 277.809 400.611 277.809Z" fill="#FFC53D"/>
<path d="M390.619 262.968C390.619 262.968 390.618 262.967 390.618 262.967L391.954 260.768C391.984 260.712 392.035 260.67 392.088 260.642L394.409 259.377C394.653 259.243 394.653 258.907 394.409 258.765L392.095 257.493C392.037 257.464 391.991 257.416 391.961 257.366L390.62 255.174C390.479 254.942 390.122 254.942 389.974 255.174L388.639 257.373C388.609 257.429 388.557 257.471 388.505 257.5L386.183 258.765C385.939 258.899 385.939 259.235 386.183 259.377L388.505 260.642C388.563 260.67 388.609 260.718 388.639 260.768L389.974 262.968C390.122 263.2 390.479 263.2 390.619 262.968C390.619 262.968 390.619 262.968 390.619 262.968Z" fill="#FFC53D"/>
<defs>
<linearGradient id="paint0_linear_3564_3558" x1="91" y1="85" x2="243" y2="85" gradientUnits="userSpaceOnUse">
<stop stop-color="white"/>
<stop offset="1" stop-color="#999999"/>
</linearGradient>
<linearGradient id="paint1_linear_3564_3558" x1="64" y1="117" x2="159" y2="117" gradientUnits="userSpaceOnUse">
<stop stop-color="white"/>
<stop offset="1" stop-color="#999999"/>
</linearGradient>
<linearGradient id="paint2_linear_3564_3558" x1="205" y1="117" x2="288" y2="117" gradientUnits="userSpaceOnUse">
<stop stop-color="white"/>
<stop offset="1" stop-color="#999999"/>
</linearGradient>
<linearGradient id="paint3_linear_3564_3558" x1="123" y1="149" x2="288" y2="149" gradientUnits="userSpaceOnUse">
<stop stop-color="white"/>
<stop offset="1" stop-color="#999999"/>
</linearGradient>
<linearGradient id="paint4_linear_3564_3558" x1="64" y1="181" x2="236" y2="181" gradientUnits="userSpaceOnUse">
<stop stop-color="white"/>
<stop offset="1" stop-color="#999999"/>
</linearGradient>
<linearGradient id="paint5_linear_3564_3558" x1="64" y1="213" x2="126" y2="213" gradientUnits="userSpaceOnUse">
<stop stop-color="white"/>
<stop offset="1" stop-color="#999999"/>
</linearGradient>
<linearGradient id="paint6_linear_3564_3558" x1="101" y1="245" x2="210" y2="245" gradientUnits="userSpaceOnUse">
<stop stop-color="white"/>
<stop offset="1" stop-color="#999999"/>
</linearGradient>
<linearGradient id="paint7_linear_3564_3558" x1="216" y1="245" x2="376.992" y2="245" gradientUnits="userSpaceOnUse">
<stop stop-color="white"/>
<stop offset="1" stop-color="#999999"/>
</linearGradient>
<linearGradient id="paint8_linear_3564_3558" x1="188.613" y1="180.892" x2="237.985" y2="249.6" gradientUnits="userSpaceOnUse">
<stop offset="0.25" stop-color="#96FFFF" stop-opacity="0"/>
<stop offset="1" stop-color="#96FFFF" stop-opacity="0.5"/>
</linearGradient>
<clipPath id="clip0_3564_3558">
<rect width="197.28" height="207.927" fill="white" transform="translate(121 95)"/>
</clipPath>
</defs>
</svg>
