<svg width="99" height="99" viewBox="0 0 99 99" fill="none" xmlns="http://www.w3.org/2000/svg">
<path d="M45.8843 2.53167C47.0959 -0.742518 51.7268 -0.742522 52.9384 2.53166L64.0474 32.5534C64.4283 33.5828 65.2399 34.3944 66.2693 34.7753L96.2911 45.8843C99.5652 47.0959 99.5652 51.7268 96.2911 52.9384L66.2693 64.0474C65.24 64.4283 64.4283 65.2399 64.0474 66.2693L52.9384 96.2911C51.7268 99.5652 47.0959 99.5652 45.8843 96.2911L34.7753 66.2693C34.3944 65.24 33.5828 64.4283 32.5534 64.0474L2.53167 52.9384C-0.742518 51.7268 -0.742522 47.0959 2.53166 45.8843L32.5534 34.7753C33.5828 34.3944 34.3944 33.5828 34.7753 32.5534L45.8843 2.53167Z" fill="#FFC53D"/>
</svg>
