<svg width="42" height="42" viewBox="0 0 42 42" fill="none" xmlns="http://www.w3.org/2000/svg">
<path d="M22.9166 10.4154C24.0003 10.1283 25.0571 9.74769 26.075 9.27786C27.9729 8.36536 29.1875 7.16328 30.1104 5.25286C30.5416 4.3612 30.9062 3.31953 31.25 2.08203C31.5937 3.32161 31.9583 4.36328 32.3896 5.25078C33.3125 7.16328 34.5271 8.36536 36.425 9.27786C37.3125 9.70495 38.3521 10.0695 39.5833 10.4154C38.4995 10.7031 37.4428 11.0844 36.425 11.5549C34.5271 12.4674 33.3125 13.6695 32.3896 15.5799C31.9154 16.5999 31.534 17.6604 31.25 18.7487C30.9062 17.5112 30.5416 16.4674 30.1104 15.5799C29.1875 13.6674 27.9729 12.4674 26.075 11.5549C25.0584 11.0814 24.0014 10.7 22.9166 10.4154ZM2.08331 24.9987C3.24532 24.6768 4.39352 24.3071 5.52498 23.8904C10.8208 21.9049 13.5521 19.2279 15.5583 13.8779C15.978 12.7404 16.3478 11.5851 16.6666 10.4154C16.9855 11.5851 17.3553 12.7404 17.775 13.8779C19.7812 19.2258 22.5146 21.9049 27.8083 23.8904C28.85 24.2793 29.9972 24.6487 31.25 24.9987C30.088 25.3206 28.9398 25.6903 27.8083 26.107C22.5125 28.0924 19.7791 30.7695 17.775 36.1195C17.3553 37.257 16.9855 38.4123 16.6666 39.582C16.3478 38.4123 15.978 37.257 15.5583 36.1195C13.5521 30.7695 10.8187 28.0924 5.52498 26.107C4.39352 25.6903 3.24532 25.3206 2.08331 24.9987Z" stroke="#1F1F1F" stroke-width="4.16667" stroke-linecap="round" stroke-linejoin="round"/>
</svg>
