<svg width="38" height="40" viewBox="0 0 38 40" fill="none" xmlns="http://www.w3.org/2000/svg">
<path d="M13.7089 33.1382C5.28803 35.8799 5.28803 28.2424 1.95886 27.2632M25.4589 37.0549V30.2007C25.4589 28.2424 25.6547 27.4591 24.4797 26.2841C29.963 25.6966 35.2505 23.5424 35.2505 14.5341C35.2481 12.1938 34.3351 9.94629 32.7047 8.2674C33.4694 6.23458 33.399 3.98183 32.5089 2.00073C32.5089 2.00073 30.3547 1.41323 25.6547 4.54656C21.6739 3.5098 17.4939 3.5098 13.513 4.54656C8.81303 1.41323 6.65886 2.00073 6.65886 2.00073C5.76876 3.98183 5.69837 6.23458 6.46303 8.2674C4.83262 9.94629 3.91958 12.1938 3.9172 14.5341C3.9172 23.5424 9.2047 25.6966 14.688 26.2841C13.513 27.4591 13.513 28.6341 13.7089 30.2007V37.0549" stroke="#1F1F1F" stroke-width="3.91667" stroke-linecap="round" stroke-linejoin="round"/>
</svg>
