<svg width="40" height="38" viewBox="0 0 40 38" fill="none" xmlns="http://www.w3.org/2000/svg">
<path d="M2.08362 35.4154C9.02806 31.2487 12.5003 27.082 12.5003 22.9154C12.5003 16.6654 10.417 16.6654 8.33362 16.6654C6.25029 16.6654 4.10028 18.9258 4.16695 22.9154C4.23778 27.182 7.62112 28.9091 9.37529 31.2487C12.5003 35.4154 14.5836 36.457 16.667 33.332C18.0558 31.2487 19.0975 29.5126 19.792 28.1237C21.8753 32.9848 24.6531 35.4154 28.1253 35.4154H33.3336M33.3336 35.4154L29.167 31.2487V6.2487C29.167 3.91328 30.9982 2.08203 33.3336 2.08203C35.669 2.08203 37.5003 3.91328 37.5003 6.2487V31.2487L33.3336 35.4154ZM29.167 10.4154H37.5003" stroke="#ACACB9" stroke-width="4.16667" stroke-linecap="round" stroke-linejoin="round"/>
</svg>
