<svg width="30" height="42" viewBox="0 0 30 42" fill="none" xmlns="http://www.w3.org/2000/svg">
<path d="M14.5833 20.832C14.5833 22.4896 15.2418 24.0793 16.4139 25.2514C17.586 26.4236 19.1757 27.082 20.8333 27.082C22.4909 27.082 24.0806 26.4236 25.2527 25.2514C26.4248 24.0793 27.0833 22.4896 27.0833 20.832C27.0833 19.1744 26.4248 17.5847 25.2527 16.4126C24.0806 15.2405 22.4909 14.582 20.8333 14.582C19.1757 14.582 17.586 15.2405 16.4139 16.4126C15.2418 17.5847 14.5833 19.1744 14.5833 20.832Z" stroke="#1F1F1F" stroke-width="4.16667" stroke-linecap="round" stroke-linejoin="round"/>
<path d="M2.08331 8.33203C2.08331 6.67443 2.74179 5.08472 3.9139 3.91261C5.086 2.74051 6.67571 2.08203 8.33331 2.08203H20.8333C22.4909 2.08203 24.0806 2.74051 25.2527 3.91261C26.4248 5.08472 27.0833 6.67443 27.0833 8.33203C27.0833 9.98963 26.4248 11.5793 25.2527 12.7514C24.0806 13.9236 22.4909 14.582 20.8333 14.582H8.33331C6.67571 14.582 5.086 13.9236 3.9139 12.7514C2.74179 11.5793 2.08331 9.98963 2.08331 8.33203Z" stroke="#1F1F1F" stroke-width="4.16667" stroke-linecap="round" stroke-linejoin="round"/>
<path d="M8.33332 14.582C6.67571 14.582 5.086 15.2405 3.9139 16.4126C2.7418 17.5847 2.08332 19.1744 2.08332 20.832C2.08332 22.4896 2.7418 24.0793 3.9139 25.2514C5.086 26.4236 6.67571 27.082 8.33332 27.082M8.33332 27.082H14.5833M8.33332 27.082C7.09718 27.082 5.88881 27.4486 4.861 28.1353C3.83319 28.8221 3.03212 29.7982 2.55907 30.9403C2.08602 32.0823 1.96225 33.339 2.20341 34.5513C2.44457 35.7637 3.03982 36.8774 3.9139 37.7514C4.78798 38.6255 5.90162 39.2208 7.114 39.4619C8.32638 39.7031 9.58305 39.5793 10.7251 39.1063C11.8671 38.6332 12.8432 37.8321 13.53 36.8043C14.2168 35.7765 14.5833 34.5682 14.5833 33.332V2.08203" stroke="#1F1F1F" stroke-width="4.16667" stroke-linecap="round" stroke-linejoin="round"/>
</svg>
