<svg width="41" height="47" viewBox="0 0 41 47" fill="none" xmlns="http://www.w3.org/2000/svg">
<path d="M33.7523 0.00109756C35.3463 -0.0012773 36.8898 0.560586 38.1093 1.58717C39.3288 2.61376 40.1457 4.03882 40.4152 5.60995C40.6847 7.18108 40.3894 8.79689 39.5817 10.1712C38.774 11.5455 37.506 12.5896 36.0023 13.1186V13.5011C36.0023 15.888 35.0541 18.1772 33.3662 19.8651C31.6784 21.5529 29.3892 22.5011 27.0023 22.5011H13.5023C12.3088 22.5011 11.1642 22.9752 10.3203 23.8191C9.47637 24.663 9.00226 25.8076 9.00226 27.0011V27.3836C10.5041 27.9144 11.77 28.959 12.5761 30.3329C13.3822 31.7068 13.6766 33.3214 13.4073 34.8914C13.1381 36.4613 12.3224 37.8856 11.1046 38.9123C9.88677 39.9391 8.34516 40.5022 6.75226 40.5022C5.15937 40.5022 3.61776 39.9391 2.39993 38.9123C1.18209 37.8856 0.366458 36.4613 0.0971888 34.8914C-0.17208 33.3214 0.122356 31.7068 0.928454 30.3329C1.73455 28.959 3.00041 27.9144 4.50226 27.3836V13.1186C3.00041 12.5878 1.73455 11.5432 0.928454 10.1693C0.122356 8.79541 -0.17208 7.18079 0.0971888 5.61082C0.366458 4.04085 1.18209 2.61662 2.39993 1.58988C3.61776 0.563141 5.15937 0 6.75226 0C8.34516 0 9.88677 0.563141 11.1046 1.58988C12.3224 2.61662 13.1381 4.04085 13.4073 5.61082C13.6766 7.18079 13.3822 8.79541 12.5761 10.1693C11.77 11.5432 10.5041 12.5878 9.00226 13.1186V19.2048C10.3706 18.4156 11.9226 18.0005 13.5023 18.0011H27.0023C28.1957 18.0011 29.3403 17.527 30.1842 16.6831C31.0282 15.8392 31.5023 14.6946 31.5023 13.5011V13.1186C30.0012 12.5873 28.7362 11.5425 27.9307 10.1689C27.1252 8.79532 26.8311 7.18125 27.1003 5.61183C27.3695 4.0424 28.1847 2.61861 29.4019 1.59195C30.6191 0.56529 32.1599 0.00182882 33.7523 0.00109756ZM6.75226 31.5011C6.15553 31.5011 5.58323 31.7381 5.16127 32.1601C4.73932 32.5821 4.50226 33.1544 4.50226 33.7511C4.50226 34.3478 4.73932 34.9201 5.16127 35.3421C5.58323 35.764 6.15553 36.0011 6.75226 36.0011C7.349 36.0011 7.9213 35.764 8.34325 35.3421C8.76521 34.9201 9.00226 34.3478 9.00226 33.7511C9.00226 33.1544 8.76521 32.5821 8.34325 32.1601C7.9213 31.7381 7.349 31.5011 6.75226 31.5011ZM6.75226 4.5011C6.15553 4.5011 5.58323 4.73815 5.16127 5.16011C4.73932 5.58206 4.50226 6.15436 4.50226 6.7511C4.50226 7.34783 4.73932 7.92013 5.16127 8.34209C5.58323 8.76404 6.15553 9.0011 6.75226 9.0011C7.349 9.0011 7.9213 8.76404 8.34325 8.34209C8.76521 7.92013 9.00226 7.34783 9.00226 6.7511C9.00226 6.15436 8.76521 5.58206 8.34325 5.16011C7.9213 4.73815 7.349 4.5011 6.75226 4.5011ZM33.7523 4.5011C33.1555 4.5011 32.5832 4.73815 32.1613 5.16011C31.7393 5.58206 31.5023 6.15436 31.5023 6.7511C31.5023 7.34783 31.7393 7.92013 32.1613 8.34209C32.5832 8.76404 33.1555 9.0011 33.7523 9.0011C34.349 9.0011 34.9213 8.76404 35.3433 8.34209C35.7652 7.92013 36.0023 7.34783 36.0023 6.7511C36.0023 6.15436 35.7652 5.58206 35.3433 5.16011C34.9213 4.73815 34.349 4.5011 33.7523 4.5011Z" fill="#1F1F1F"/>
</svg>
