<svg width="561" height="369" viewBox="0 0 561 369" fill="none" xmlns="http://www.w3.org/2000/svg">
<g clip-path="url(#clip0_2535_235)">
<path d="M213.199 24.647C230.1 34.6487 224.879 39.635 220.512 47.0133C216.146 54.3915 213.944 61.1648 197.387 51.3661C188.982 46.3918 185.708 36.3781 190.074 28.9998C194.441 21.6216 204.794 19.6727 213.199 24.647Z" fill="white"/>
<path d="M237.976 26.3557C237.976 35.6713 234.726 35.7264 230.718 35.7264C226.71 35.7264 223.461 35.6713 223.461 26.3557C223.461 17.0401 227.909 9.48828 230.718 9.48828C233.528 9.48828 237.976 17.0401 237.976 26.3557Z" fill="#6A5B3D"/>
<path d="M325.624 26.3557C325.624 35.6713 322.375 35.7264 318.367 35.7264C314.359 35.7264 311.109 35.6713 311.109 26.3557C311.109 17.0401 315.557 9.48828 318.367 9.48828C321.176 9.48828 325.624 17.0401 325.624 26.3557Z" fill="#6A5B3D"/>
<path d="M337.476 24.647C320.576 34.6487 325.797 39.635 330.163 47.0133C334.53 54.3915 336.731 61.1648 353.289 51.3661C361.694 46.3918 364.968 36.3781 360.602 28.9998C356.235 21.6216 345.882 19.6727 337.476 24.647Z" fill="#123041"/>
<path d="M341.642 33.1717C333.218 38.1566 335.399 39.9301 337.056 42.7296C338.713 45.529 339.389 48.1931 347.641 43.3094C351.83 40.8301 353.884 36.5509 352.227 33.7515C350.57 30.9521 345.831 30.6925 341.642 33.1717Z" fill="#FFC0C1"/>
<path d="M208.53 33.1717C216.953 38.1566 214.772 39.9301 213.116 42.7296C211.459 45.529 210.783 48.1931 202.531 43.3094C198.341 40.8301 196.288 36.5509 197.945 33.7515C199.602 30.9521 204.341 30.6925 208.53 33.1717Z" fill="#FFC0C1"/>
<path d="M343.248 133.788C330.574 140.683 308.147 131.981 298.517 126.769C297.944 125.672 296.992 122.818 297.765 120.18C298.73 116.884 332.712 110.664 340.765 110.649C348.817 110.635 359.091 125.169 343.248 133.788Z" fill="#E7EAEE"/>
<path d="M307.242 197.88C311.246 196.243 315.145 174.43 314.354 163.57L275.896 169.708C275.105 178.522 275.053 196.495 276.949 197.88C279.32 199.611 302.237 199.926 307.242 197.88Z" fill="#E7EAEE"/>
<path d="M310.248 173.717C322.217 165.758 306.037 116.106 294.346 109.852C282.655 103.598 263.64 104.546 255.289 109.852C246.938 115.158 226.301 165.568 238.271 173.717C250.24 181.866 298.278 181.677 310.248 173.717Z" fill="white"/>
<path fill-rule="evenodd" clip-rule="evenodd" d="M278.271 179.702C278.364 176.764 278.268 170.771 276.224 167.197C272.953 161.475 262.268 157.706 262.268 157.706C257.988 157.055 248.758 153.966 246.078 146.82C244.938 143.778 242.306 141.741 239.265 140.412C234.489 154.793 232.248 169.612 238.276 173.716C244.794 178.154 262.009 180.118 278.271 179.702Z" fill="#123041"/>
<path d="M241.84 197.88C237.836 196.243 233.938 174.43 234.728 163.57L273.186 169.708C273.977 178.522 274.029 196.495 272.133 197.88C269.762 199.611 246.845 199.926 241.84 197.88Z" fill="#123041"/>
<path d="M217.881 149.732C217.634 135.305 235.726 119.45 244.803 113.326C246.041 113.326 249.012 113.803 250.992 115.708C253.468 118.089 243.256 151.092 239.543 158.237C235.829 165.382 218.191 167.764 217.881 149.732Z" fill="white"/>
<path d="M306.083 155.707C306.083 170.599 293.336 174.176 277.612 174.176C261.888 174.176 249.141 170.599 249.141 155.707C249.141 136.13 261.888 125.049 277.612 125.049C293.336 125.049 306.083 136.13 306.083 155.707Z" fill="#FFC0C1"/>
<path d="M277.368 169.154C277.482 169.154 277.596 169.132 277.702 169.089C277.808 169.046 277.905 168.983 277.986 168.902L281.865 165.001C282.007 164.835 282.082 164.622 282.074 164.404C282.065 164.186 281.974 163.979 281.819 163.824C281.664 163.67 281.456 163.579 281.236 163.571C281.017 163.563 280.803 163.637 280.636 163.779L276.749 167.637C276.667 167.717 276.602 167.813 276.558 167.919C276.514 168.024 276.491 168.138 276.491 168.252C276.491 168.366 276.514 168.48 276.558 168.585C276.602 168.691 276.667 168.787 276.749 168.867C276.827 168.954 276.922 169.024 277.029 169.073C277.135 169.122 277.25 169.15 277.368 169.154Z" fill="#FF8D8D"/>
<path d="M281.204 169.154C281.318 169.154 281.431 169.132 281.536 169.089C281.642 169.046 281.738 168.983 281.818 168.903C281.899 168.822 281.964 168.727 282.008 168.621C282.052 168.516 282.074 168.403 282.074 168.289C282.074 168.175 282.052 168.062 282.008 167.956C281.964 167.851 281.899 167.755 281.818 167.675L277.97 163.826C277.89 163.745 277.794 163.681 277.689 163.637C277.584 163.593 277.471 163.57 277.356 163.57C277.242 163.57 277.129 163.593 277.024 163.637C276.918 163.681 276.823 163.745 276.742 163.826C276.581 163.988 276.491 164.207 276.491 164.436C276.491 164.664 276.581 164.884 276.742 165.046L280.599 168.903C280.76 169.063 280.978 169.153 281.204 169.154V169.154Z" fill="#FF8D8D"/>
<path d="M345.165 82.344C345.165 111.48 313.215 121.142 274.384 121.142C235.552 121.142 203.367 111.48 203.367 82.344C203.367 32.664 235.552 15.6309 274.384 15.6309C313.215 15.6309 345.165 30.2983 345.165 82.344Z" fill="white"/>
<path fill-rule="evenodd" clip-rule="evenodd" d="M279.318 15.7129C279.645 25.0093 281.587 37.2015 287.678 42.1324C293.034 46.4688 299.216 47.5732 304.741 48.56C309.462 49.4034 313.703 50.161 316.537 52.7771C318.043 54.1672 319.378 56.0961 320.825 58.1855C325.184 64.4806 330.552 72.2318 344.62 71.0877C340.458 30.1329 312.975 16.853 279.318 15.7129Z" fill="#123041"/>
<path d="M251.375 97.8063C251.375 86.3369 260.673 77.0391 272.142 77.0391H282.526C293.995 77.0391 303.293 86.3369 303.293 97.8063V97.8063C303.293 105.453 297.095 111.651 289.448 111.651H265.22C257.574 111.651 251.375 105.453 251.375 97.8063V97.8063Z" fill="#FFC0C1"/>
<path d="M266.449 92.668V98.8096" stroke="#123041" stroke-width="5.58258" stroke-linecap="round"/>
<path d="M288.777 92.668L288.777 98.8096" stroke="#123041" stroke-width="5.58258" stroke-linecap="round"/>
<path d="M223.461 98.8125H231.836" stroke="#FFC0C1" stroke-width="11.1652" stroke-linecap="round"/>
<path d="M323.387 98.8125H331.762" stroke="#FFC0C1" stroke-width="11.1652" stroke-linecap="round"/>
<path d="M245.707 86.7109C245.707 86.7109 244.088 84.854 240.446 84.854C236.803 84.854 235.184 86.7109 235.184 86.7109" stroke="#123041" stroke-width="6.59968" stroke-linecap="round"/>
<path d="M320.516 86.7109C320.516 86.7109 318.897 84.854 315.254 84.854C311.612 84.854 309.993 86.7109 309.993 86.7109" stroke="#123041" stroke-width="6.59968" stroke-linecap="round"/>
</g>
<g clip-path="url(#clip1_2535_235)">
<path d="M338.842 68.3768C339.344 66.2573 341.468 64.9455 343.588 65.4469L366.614 70.8941C368.734 71.3955 370.045 73.5201 369.544 75.6396L365.005 94.8283C362.999 103.306 354.5 108.553 346.022 106.548V106.548C337.544 104.542 332.297 96.0435 334.303 87.5654L338.842 68.3768Z" fill="#E6AD25"/>
<path d="M351.92 103.891L341.559 101.439C341.559 101.439 342.73 105.106 342.441 107.232C342.06 110.035 338.653 113.72 338.653 113.72L349.015 116.171C349.015 116.171 347.621 111.35 348.536 108.674C349.23 106.644 351.92 103.891 351.92 103.891Z" fill="#E6AD25"/>
<path d="M333.071 118.478C334.074 114.239 338.323 111.616 342.562 112.618L346.4 113.526C350.639 114.529 353.262 118.778 352.26 123.017L351.896 124.553C351.646 125.612 350.583 126.268 349.524 126.017L334.173 122.386C333.113 122.135 332.457 121.073 332.708 120.013L333.071 118.478Z" fill="#E6AD25"/>
<path fill-rule="evenodd" clip-rule="evenodd" d="M372.73 77.6067C368.491 76.6039 364.242 79.2274 363.239 83.4665L360.515 94.9796C360.014 97.0991 361.326 99.2238 363.445 99.7252C369.804 101.229 376.178 97.2942 377.682 90.9356L378.59 87.0979C379.593 82.8589 376.969 78.6095 372.73 77.6067ZM371.098 84.5135C369.402 84.1123 367.702 85.1618 367.301 86.8577L366.211 91.4635C366.011 92.3114 366.536 93.1614 367.383 93.362C369.927 93.9637 372.477 92.3895 373.079 89.8457L373.442 88.3104C373.843 86.6146 372.794 84.9147 371.098 84.5135Z" fill="#E6AD25"/>
<path fill-rule="evenodd" clip-rule="evenodd" d="M335.118 68.7136C339.357 69.7164 341.98 73.9657 340.977 78.2047L338.254 89.7179C337.752 91.8374 335.628 93.1492 333.508 92.6478C327.15 91.1436 323.214 84.7696 324.719 78.411L325.626 74.5733C326.629 70.3343 330.878 67.7108 335.118 68.7136ZM333.48 75.6223C335.176 76.0234 336.226 77.7234 335.824 79.4192L334.735 84.025C334.534 84.873 333.684 85.3977 332.836 85.1971C330.293 84.5954 328.718 82.0455 329.32 79.5017L329.683 77.9664C330.084 76.2706 331.784 75.2211 333.48 75.6223Z" fill="#E6AD25"/>
<path d="M330.022 119.381C330.122 118.957 330.547 118.695 330.971 118.795L353.997 124.242C354.421 124.342 354.683 124.767 354.583 125.191L351.405 138.623L326.844 132.813L330.022 119.381Z" fill="black"/>
<rect x="332.457" y="122.791" width="18.9295" height="7.49292" rx="0.788729" transform="rotate(13.3093 332.457 122.791)" fill="#E6AD25"/>
<path d="M325.897 133.394C325.997 132.971 326.422 132.708 326.846 132.809L351.407 138.619C351.831 138.719 352.093 139.144 351.993 139.568L351.721 140.719L325.624 134.546L325.897 133.394Z" fill="black"/>
<path d="M324.287 135.043C324.387 134.619 324.812 134.357 325.236 134.457L352.1 140.812C352.524 140.912 352.787 141.337 352.686 141.761L352.414 142.912L324.015 136.194L324.287 135.043Z" fill="black"/>
<rect x="322.867" y="135.922" width="31.5491" height="1.97182" rx="0.788729" transform="rotate(13.3093 322.867 135.922)" fill="black"/>
</g>
<path d="M365.066 289.791C365.066 281.471 371.811 274.727 380.131 274.727H493.117C501.437 274.727 508.181 281.471 508.181 289.791V368.881H365.066V289.791Z" fill="#D69E84"/>
<path d="M203.125 214.469C203.125 206.149 209.87 199.404 218.19 199.404H331.175C339.495 199.404 346.24 206.149 346.24 214.469V368.882H203.125V214.469Z" fill="#E6AD25"/>
<path d="M41.1797 252.131C41.1797 243.811 47.9244 237.066 56.2444 237.066H169.23C177.55 237.066 184.295 243.811 184.295 252.131V368.883H41.1797V252.131Z" fill="#B2B7BB"/>
<path d="M276.255 304.246V264.114L268.12 269.401L265.815 265.47L277.272 257.674H281.543V304.246H276.255Z" fill="#A66E1C"/>
<path d="M96.5419 323.078V318.672L113.558 304.164C120.133 298.538 122.845 294.063 122.845 289.454C122.845 283.759 118.1 280.437 113.151 280.437C107.727 280.437 103.863 283.352 100.677 287.691L96.9487 284.64C100.813 279.149 106.033 275.692 113.354 275.692C121.421 275.692 128.2 281.048 128.2 289.386C128.2 295.69 125.082 300.707 117.218 307.486L105.016 318.062H128.675V323.078H96.5419Z" fill="#78848E"/>
<path d="M436.802 342.722C429.142 342.722 423.244 339.197 419.854 334.722L423.515 331.265C426.565 335.197 431.108 337.909 436.802 337.909C443.31 337.909 447.649 334.316 447.649 329.028C447.649 323.537 442.971 320.757 435.65 320.757H430.701V315.876L435.717 315.944C441.954 316.012 446.632 313.029 446.632 307.741C446.632 302.86 442.157 299.335 436.327 299.335C431.175 299.335 427.515 301.911 424.193 305.911L420.668 302.725C424.193 298.047 429.345 294.522 436.599 294.522C445.479 294.522 451.987 299.674 451.987 307.131C451.987 313.097 447.784 316.622 442.971 318.046C447.716 319.13 453.004 322.588 453.004 329.299C453.004 337.095 446.496 342.722 436.802 342.722Z" fill="#936651"/>
<g clip-path="url(#clip2_2535_235)">
<ellipse cx="63.6464" cy="78.5854" rx="22.3146" ry="24.0468" transform="rotate(-28.6896 63.6464 78.5854)" fill="#5BB42B"/>
<ellipse cx="22.3146" cy="24.0468" rx="22.3146" ry="24.0468" transform="matrix(-0.877234 -0.480064 -0.480064 0.877234 191.715 67.582)" fill="#5BB42B"/>
<path d="M176.144 173.005C163.056 179.078 141.229 168.964 131.951 163.148C131.45 162.016 130.681 159.107 131.62 156.525C132.794 153.296 167.104 149.256 175.141 149.755C183.178 150.254 192.504 165.414 176.144 173.005Z" fill="#5C9A15"/>
<path d="M144.222 235.661C148.226 234.024 152.125 212.211 151.335 201.352L112.876 207.49C112.086 216.303 112.033 234.276 113.93 235.661C116.301 237.392 139.218 237.707 144.222 235.661Z" fill="#5C9A15"/>
<path d="M147.228 211.5C159.198 203.541 143.018 153.889 131.326 147.635C119.635 141.381 100.62 142.329 92.2692 147.635C83.9183 152.942 63.2819 203.351 75.2514 211.5C87.2209 219.649 135.259 219.46 147.228 211.5Z" fill="#5BB42B"/>
<path d="M78.8205 235.661C74.8166 234.024 70.918 212.211 71.7083 201.352L110.167 207.49C110.957 216.303 111.01 234.276 109.113 235.661C106.742 237.392 83.8254 237.707 78.8205 235.661Z" fill="#5BB42B"/>
<path d="M54.858 187.515C54.6104 173.089 72.7026 157.234 81.7796 151.109C83.0174 151.109 85.9881 151.586 87.9686 153.491C90.4441 155.873 80.2325 188.876 76.5191 196.021C72.8058 203.166 55.1674 205.547 54.858 187.515Z" fill="#5BB42B"/>
<path d="M141.946 192.087C141.946 209.009 129.199 213.074 113.475 213.074C97.7509 213.074 85.0039 209.009 85.0039 192.087C85.0039 169.84 97.7509 157.248 113.475 157.248C129.199 157.248 141.946 169.84 141.946 192.087Z" fill="#A1DC3C"/>
<path d="M114.352 204.142C114.467 204.143 114.58 204.121 114.686 204.077C114.793 204.034 114.889 203.971 114.971 203.89L118.849 199.989C118.992 199.824 119.066 199.61 119.058 199.392C119.049 199.174 118.959 198.967 118.803 198.813C118.648 198.658 118.44 198.568 118.221 198.559C118.001 198.551 117.787 198.625 117.62 198.767L113.733 202.625C113.651 202.705 113.587 202.801 113.542 202.907C113.498 203.013 113.475 203.126 113.475 203.24C113.475 203.355 113.498 203.468 113.542 203.574C113.587 203.679 113.651 203.775 113.733 203.856C113.812 203.942 113.907 204.012 114.013 204.062C114.12 204.111 114.235 204.138 114.352 204.142Z" fill="#5BB42B"/>
<path d="M118.189 204.142C118.303 204.143 118.415 204.121 118.521 204.078C118.626 204.035 118.722 203.971 118.803 203.891C118.884 203.811 118.948 203.715 118.992 203.61C119.036 203.504 119.059 203.391 119.059 203.277C119.059 203.163 119.036 203.05 118.992 202.944C118.948 202.839 118.884 202.743 118.803 202.663L114.955 198.814C114.874 198.733 114.779 198.669 114.673 198.625C114.568 198.581 114.455 198.559 114.341 198.559C114.227 198.559 114.114 198.581 114.008 198.625C113.903 198.669 113.807 198.733 113.727 198.814C113.566 198.976 113.475 199.196 113.475 199.424C113.475 199.653 113.566 199.872 113.727 200.034L117.584 203.891C117.745 204.051 117.962 204.141 118.189 204.142V204.142Z" fill="#5BB42B"/>
<path d="M184.374 117.203C184.374 146.647 151.922 156.411 112.479 156.411C73.0353 156.411 40.3438 146.647 40.3438 117.203C40.3438 74.9051 73.0353 56.7617 112.479 56.7617C151.922 56.7617 184.374 71.5556 184.374 117.203Z" fill="#5BB42B"/>
<path d="M67.6953 78.5352V87.4684" stroke="#123041" stroke-width="8.37388" stroke-linecap="round"/>
<path d="M162.598 77.9766V86.9098" stroke="#123041" stroke-width="8.37388" stroke-linecap="round"/>
<path d="M55.418 107.004H64.9096" stroke="#A1DC3C" stroke-width="11.1652" stroke-linecap="round"/>
<path d="M158.695 107.004H168.187" stroke="#A1DC3C" stroke-width="11.1652" stroke-linecap="round"/>
<path d="M125.758 98.1049C125.758 91.3974 125.758 88.0252 113.198 88.0252C100.637 88.0252 100.637 90.7982 100.637 98.1049C100.637 110.076 106.26 117.055 113.198 117.055C120.135 117.055 125.758 109.239 125.758 98.1049Z" fill="#D52C2F"/>
<path fill-rule="evenodd" clip-rule="evenodd" d="M100.656 99.3422C101.031 110.556 106.502 117.055 113.197 117.055C118.056 117.055 122.27 113.22 124.359 107.097C121.93 104.257 118.334 101.794 113.991 100.271C109.257 98.6119 104.519 98.3788 100.656 99.3422Z" fill="#FF686B"/>
</g>
<g clip-path="url(#clip3_2535_235)">
<path d="M172.693 111.303C173.119 109.445 174.971 108.285 176.828 108.711L197.008 113.341C198.865 113.767 200.026 115.619 199.599 117.476L195.741 134.293C194.036 141.722 186.631 146.364 179.201 144.659V144.659C171.771 142.954 167.13 135.549 168.835 128.119L172.693 111.303Z" fill="#B2B7BB"/>
<path d="M184.343 142.298L175.262 140.215C175.262 140.215 176.308 143.416 176.068 145.278C175.751 147.733 172.792 150.977 172.792 150.977L181.873 153.061C181.873 153.061 180.625 148.851 181.41 146.503C182.005 144.724 184.343 142.298 184.343 142.298Z" fill="#B2B7BB"/>
<path d="M167.937 155.174C168.789 151.459 172.492 149.138 176.207 149.991L179.57 150.762C183.285 151.615 185.606 155.317 184.754 159.032L184.445 160.378C184.232 161.306 183.306 161.886 182.377 161.673L168.924 158.587C167.996 158.374 167.415 157.448 167.628 156.519L167.937 155.174Z" fill="#B2B7BB"/>
<path fill-rule="evenodd" clip-rule="evenodd" d="M202.391 119.18C198.676 118.328 194.973 120.648 194.121 124.363L191.806 134.453C191.379 136.311 192.54 138.162 194.397 138.588C199.97 139.867 205.524 136.386 206.802 130.813L207.574 127.45C208.426 123.735 206.106 120.032 202.391 119.18ZM201.003 125.234C199.517 124.893 198.036 125.821 197.695 127.307L196.769 131.344C196.598 132.087 197.063 132.827 197.806 132.998C200.035 133.509 202.257 132.117 202.768 129.887L203.077 128.542C203.418 127.056 202.49 125.575 201.003 125.234Z" fill="#B2B7BB"/>
<path fill-rule="evenodd" clip-rule="evenodd" d="M169.43 111.617C173.145 112.469 175.465 116.172 174.613 119.887L172.298 129.977C171.872 131.834 170.02 132.994 168.163 132.568C162.59 131.29 159.11 125.736 160.388 120.163L161.16 116.8C162.012 113.085 165.715 110.764 169.43 111.617ZM168.04 117.672C169.526 118.013 170.454 119.494 170.113 120.98L169.187 125.016C169.016 125.76 168.276 126.224 167.533 126.053C165.303 125.542 163.911 123.32 164.422 121.091L164.731 119.745C165.072 118.259 166.553 117.331 168.04 117.672Z" fill="#B2B7BB"/>
<path d="M165.271 155.979C165.357 155.608 165.727 155.376 166.098 155.461L186.278 160.091C186.65 160.176 186.882 160.547 186.796 160.918L184.096 172.69L162.571 167.751L165.271 155.979Z" fill="black"/>
<rect x="167.426" y="158.953" width="16.5632" height="6.55627" rx="0.690134" transform="rotate(12.9224 167.426 158.953)" fill="#B2B7BB"/>
<path d="M161.744 168.27C161.829 167.899 162.2 167.667 162.571 167.752L184.096 172.691C184.468 172.776 184.7 173.146 184.614 173.518L184.383 174.527L161.513 169.279L161.744 168.27Z" fill="black"/>
<path d="M160.346 169.72C160.431 169.348 160.801 169.116 161.173 169.201L184.716 174.603C185.087 174.688 185.319 175.058 185.234 175.43L185.002 176.439L160.114 170.729L160.346 169.72Z" fill="black"/>
<rect x="159.109" y="170.496" width="27.6054" height="1.72534" rx="0.690134" transform="rotate(12.9224 159.109 170.496)" fill="black"/>
</g>
<g clip-path="url(#clip4_2535_235)">
<path d="M381.016 213.965C394.321 219.545 415.755 208.623 424.809 202.465C425.268 201.315 425.928 198.38 424.893 195.834C423.599 192.651 389.162 189.896 381.15 190.694C373.137 191.493 364.384 206.99 381.016 213.965Z" fill="#FFC532"/>
<path d="M410.555 274.982C406.551 273.345 402.652 251.531 403.443 240.672L441.901 246.81C442.691 255.623 442.744 273.597 440.848 274.982C438.477 276.713 415.56 277.027 410.555 274.982Z" fill="#FFC532"/>
<path d="M407.549 250.823C395.58 242.863 411.76 193.211 423.451 186.958C435.142 180.704 454.157 181.651 462.508 186.958C470.859 192.264 491.495 242.674 479.526 250.823C467.556 258.972 419.519 258.782 407.549 250.823Z" fill="#FFDB40"/>
<path d="M475.957 274.982C479.961 273.345 483.859 251.531 483.069 240.672L444.611 246.81C443.82 255.623 443.768 273.597 445.664 274.982C448.035 276.713 470.952 277.027 475.957 274.982Z" fill="#FFDB40"/>
<path d="M499.915 226.835C500.163 212.409 482.071 196.554 472.994 190.43C471.756 190.43 468.785 190.906 466.805 192.811C464.329 195.193 474.541 228.196 478.254 235.341C481.968 242.486 499.606 244.868 499.915 226.835Z" fill="#FFDB40"/>
<path d="M435.961 243.466C435.846 243.467 435.732 243.445 435.626 243.402C435.52 243.359 435.423 243.295 435.342 243.215L431.463 239.314C431.321 239.148 431.246 238.934 431.255 238.716C431.263 238.498 431.354 238.291 431.509 238.137C431.664 237.982 431.872 237.892 432.092 237.883C432.311 237.875 432.526 237.949 432.692 238.091L436.579 241.949C436.661 242.03 436.726 242.125 436.77 242.231C436.814 242.337 436.837 242.45 436.837 242.564C436.837 242.679 436.814 242.792 436.77 242.898C436.726 243.004 436.661 243.099 436.579 243.18C436.501 243.267 436.406 243.337 436.299 243.386C436.193 243.435 436.078 243.462 435.961 243.466Z" fill="#FFB132"/>
<path d="M432.124 243.466C432.01 243.467 431.897 243.445 431.792 243.402C431.686 243.359 431.591 243.295 431.51 243.215C431.429 243.135 431.364 243.039 431.32 242.934C431.277 242.828 431.254 242.715 431.254 242.601C431.254 242.487 431.277 242.374 431.32 242.269C431.364 242.163 431.429 242.068 431.51 241.987L435.358 238.139C435.438 238.058 435.534 237.993 435.639 237.949C435.745 237.905 435.858 237.883 435.972 237.883C436.086 237.883 436.199 237.905 436.304 237.949C436.41 237.993 436.505 238.058 436.586 238.139C436.747 238.301 436.837 238.52 436.837 238.748C436.837 238.977 436.747 239.196 436.586 239.358L432.729 243.215C432.568 243.375 432.351 243.465 432.124 243.466V243.466Z" fill="#FFB132"/>
<path d="M373.437 157.215C373.437 186.351 405.386 196.013 444.218 196.013C483.05 196.013 515.234 186.351 515.234 157.215C515.234 107.535 483.05 90.502 444.218 90.502C405.386 90.502 373.437 105.169 373.437 157.215Z" fill="#FFDB40"/>
<path d="M490.113 171.449H481.738" stroke="#FCA18E" stroke-width="11.1652" stroke-linecap="round"/>
<path d="M397.441 171.449H389.066" stroke="#FCA18E" stroke-width="11.1652" stroke-linecap="round"/>
<path d="M425.357 164.193C425.357 169.28 431.73 171.45 439.593 171.45C447.455 171.45 453.828 169.28 453.828 164.193C453.828 159.105 447.455 153.027 439.593 153.027C431.73 153.027 425.357 159.105 425.357 164.193Z" fill="#FFB132"/>
<path d="M433.876 71.0866C442.345 78.5964 447.21 87.0186 448.649 94.6841L433.746 93.0949C427.609 92.4406 421.731 85.2071 422.002 76.4271C422.274 67.6472 429.57 67.2677 433.876 71.0866Z" fill="#FFDB40"/>
<path d="M449.427 82.9492C446.79 85.5238 446.124 91.1344 446.12 93.6178C451.228 93.1457 459.799 91.5755 461.336 88.3046C462.872 85.0338 461.914 80.9673 460.043 79.998C458.171 79.0287 452.723 79.731 449.427 82.9492Z" fill="#FFDB40"/>
<path d="M411.102 161.508C411.102 161.508 409.483 159.651 405.84 159.651C402.198 159.651 400.579 161.508 400.579 161.508" stroke="#123041" stroke-width="6.59968" stroke-linecap="round"/>
<path d="M478.52 161.508C478.52 161.508 476.901 159.651 473.258 159.651C469.616 159.651 467.997 161.508 467.997 161.508" stroke="#123041" stroke-width="6.59968" stroke-linecap="round"/>
</g>
<g clip-path="url(#clip5_2535_235)">
<path d="M360.653 161.796C360.363 160.188 361.432 158.65 363.04 158.361L380.506 155.217C382.113 154.928 383.651 155.996 383.94 157.604L386.56 172.159C387.718 178.589 383.443 184.741 377.012 185.898V185.898C370.582 187.056 364.43 182.781 363.273 176.35L360.653 161.796Z" fill="#D69E84"/>
<path d="M380.275 182.308L372.414 183.723C372.414 183.723 374.317 185.894 374.754 187.443C375.331 189.485 374.091 193.039 374.091 193.039L381.951 191.624C381.951 191.624 379.55 188.725 379.378 186.61C379.248 185.007 380.275 182.308 380.275 182.308Z" fill="#D69E84"/>
<path d="M371.673 197.98C371.094 194.765 373.232 191.689 376.447 191.11L379.358 190.586C382.573 190.008 385.649 192.145 386.228 195.36L386.437 196.525C386.582 197.329 386.048 198.097 385.244 198.242L373.6 200.338C372.796 200.483 372.027 199.948 371.882 199.144L371.673 197.98Z" fill="#D69E84"/>
<path fill-rule="evenodd" clip-rule="evenodd" d="M386.716 158.005C383.501 158.584 381.364 161.659 381.942 164.875L383.514 173.607C383.804 175.215 385.342 176.284 386.949 175.994C391.772 175.126 394.978 170.513 394.11 165.69L393.586 162.779C393.007 159.563 389.932 157.426 386.716 158.005ZM387.657 163.246C386.371 163.477 385.516 164.708 385.747 165.994L386.376 169.488C386.492 170.131 387.107 170.558 387.75 170.443C389.68 170.095 390.962 168.25 390.615 166.32L390.405 165.156C390.174 163.869 388.943 163.014 387.657 163.246Z" fill="#D69E84"/>
<path fill-rule="evenodd" clip-rule="evenodd" d="M358.186 163.142C361.401 162.563 364.477 164.7 365.056 167.916L366.628 176.648C366.917 178.256 365.848 179.794 364.241 180.083C359.418 180.951 354.804 177.745 353.936 172.922L353.412 170.011C352.833 166.796 354.971 163.72 358.186 163.142ZM359.128 168.382C360.414 168.151 361.645 169.006 361.876 170.292L362.505 173.786C362.621 174.429 362.193 175.044 361.55 175.16C359.621 175.507 357.775 174.224 357.428 172.295L357.218 171.13C356.987 169.844 357.842 168.614 359.128 168.382Z" fill="#D69E84"/>
<path d="M369.843 199.51C369.785 199.188 369.999 198.881 370.32 198.823L387.786 195.679C388.108 195.621 388.415 195.835 388.473 196.157L390.307 206.345L371.677 209.698L369.843 199.51Z" fill="black"/>
<rect x="372.539" y="201.127" width="14.1971" height="5.61967" rx="0.591545" transform="rotate(-10.2037 372.539 201.127)" fill="#D69E84"/>
<path d="M371.195 210.385C371.137 210.063 371.35 209.756 371.672 209.698L390.302 206.345C390.624 206.287 390.931 206.5 390.989 206.822L391.146 207.695L371.352 211.258L371.195 210.385Z" fill="black"/>
<path d="M370.589 212C370.531 211.679 370.745 211.371 371.067 211.313L391.443 207.645C391.765 207.588 392.072 207.801 392.13 208.123L392.287 208.996L370.746 212.873L370.589 212Z" fill="black"/>
<rect x="369.871" y="213.029" width="23.6618" height="1.47886" rx="0.591545" transform="rotate(-10.2037 369.871 213.029)" fill="black"/>
</g>
<defs>
<clipPath id="clip0_2535_235">
<rect width="175.851" height="199.298" fill="white" transform="translate(187.172)"/>
</clipPath>
<clipPath id="clip1_2535_235">
<rect width="56.4927" height="80.2196" fill="white" transform="translate(328.422 58.375) rotate(13.3093)"/>
</clipPath>
<clipPath id="clip2_2535_235">
<rect width="156.871" height="194.832" fill="white" transform="translate(34.7617 42.248)"/>
</clipPath>
<clipPath id="clip3_2535_235">
<rect width="55.3628" height="74.947" fill="white" transform="translate(161.871 99.8711) rotate(12.9224)"/>
</clipPath>
<clipPath id="clip4_2535_235">
<rect width="169.711" height="216.604" fill="white" transform="translate(356.445 58.291)"/>
</clipPath>
<clipPath id="clip5_2535_235">
<rect width="49.337" height="61.7654" fill="white" transform="translate(347.074 158.174) rotate(-10.2037)"/>
</clipPath>
</defs>
</svg>
