<svg width="133" height="147" viewBox="0 0 133 147" fill="none" xmlns="http://www.w3.org/2000/svg">
<g clip-path="url(#clip0_1641_1155)">
<path d="M19.2392 18.5602C31.9659 26.0919 28.0343 29.8469 24.7462 35.403C21.458 40.9592 19.8002 46.0598 7.33177 38.6809C1.00221 34.935 -1.46333 27.3943 1.82482 21.8381C5.11297 16.2819 12.9097 14.8144 19.2392 18.5602Z" fill="white"/>
<path d="M94.1674 19.8484C94.1674 26.8634 96.6142 26.905 99.6325 26.905C102.651 26.905 105.098 26.8634 105.098 19.8484C105.098 12.8333 101.748 7.14648 99.6325 7.14648C97.517 7.14648 94.1674 12.8333 94.1674 19.8484Z" fill="#FFC145"/>
<path d="M28.1674 19.8484C28.1674 26.8634 30.6142 26.905 33.6325 26.905C36.6508 26.905 39.0977 26.8634 39.0977 19.8484C39.0977 12.8333 35.7481 7.14648 33.6325 7.14648C31.517 7.14648 28.1674 12.8333 28.1674 19.8484Z" fill="#FFC145"/>
<path d="M112.823 18.5602C100.097 26.0919 104.028 29.8469 107.316 35.403C110.604 40.9592 112.262 46.0598 124.731 38.6809C131.06 34.935 133.526 27.3943 130.238 21.8381C126.95 16.2819 119.153 14.8144 112.823 18.5602Z" fill="black"/>
<path d="M115.965 24.9807C109.622 28.7346 111.265 30.0701 112.512 32.1782C113.76 34.2863 114.269 36.2925 120.483 32.6148C123.638 30.7479 125.184 27.5254 123.936 25.4173C122.689 23.3092 119.12 23.1138 115.965 24.9807Z" fill="#FFCACA"/>
<path d="M15.7222 24.9807C22.0653 28.7346 20.4229 30.0701 19.1754 32.1782C17.9278 34.2863 17.4187 36.2925 11.2043 32.6148C8.04959 30.7479 6.50355 27.5254 7.75112 25.4173C8.9987 23.3092 12.5675 23.1138 15.7222 24.9807Z" fill="#FFCACA"/>
<path d="M118.714 80.1956C113.845 89.9087 96.2392 94.1756 88.0449 95.0949C87.2189 94.6629 85.4027 93.3084 84.746 91.3459C83.9252 88.8927 102.256 70.4329 107.227 66.9607C112.199 63.4886 124.8 68.0543 118.714 80.1956Z" fill="#EFEFEF"/>
<path d="M90.8363 149.012C93.8514 147.78 96.7872 131.353 96.1921 123.176L67.2311 127.798C66.636 134.435 66.5963 147.97 68.0246 149.012C69.8098 150.316 87.0674 150.553 90.8363 149.012Z" fill="#EFEFEF"/>
<path d="M93.0998 130.818C102.113 124.825 89.9289 87.4345 81.125 82.7251C72.3211 78.0156 58.0018 78.7291 51.7132 82.7251C45.4246 86.721 29.8844 124.682 38.898 130.818C47.9116 136.955 84.0863 136.812 93.0998 130.818Z" fill="white"/>
<path fill-rule="evenodd" clip-rule="evenodd" d="M69.0159 135.327C69.0862 133.115 69.0136 128.601 67.4746 125.909C65.0114 121.599 56.9648 118.762 56.9648 118.762C53.7418 118.271 46.7913 115.945 44.7734 110.564C43.9149 108.275 41.9352 106.741 39.647 105.74C36.0503 116.569 34.3632 127.729 38.902 130.819C43.8101 134.16 56.7715 135.64 69.0159 135.327Z" fill="black"/>
<path d="M41.5856 149.012C38.5705 147.78 35.6346 131.353 36.2298 123.176L65.1908 127.798C65.7859 134.435 65.8255 147.97 64.3973 149.012C62.612 150.316 45.3545 150.553 41.5856 149.012Z" fill="black"/>
<path d="M89.9661 117.255C89.9661 128.469 80.367 131.163 68.526 131.163C56.685 131.163 47.0859 128.469 47.0859 117.255C47.0859 102.513 56.685 94.168 68.526 94.168C80.367 94.168 89.9661 102.513 89.9661 117.255Z" fill="#FFD2D2"/>
<path d="M68.3428 118.525C68.4292 118.525 68.5148 118.51 68.5947 118.48C68.6747 118.45 68.7474 118.405 68.8087 118.349L71.7289 115.616C71.8364 115.5 71.8926 115.35 71.8862 115.197C71.8799 115.044 71.8114 114.899 71.6945 114.791C71.5776 114.683 71.421 114.62 71.2558 114.614C71.0907 114.608 70.9292 114.66 70.8036 114.759L67.8769 117.462C67.8154 117.519 67.7666 117.586 67.7332 117.66C67.6999 117.734 67.6828 117.813 67.6828 117.893C67.6828 117.973 67.6999 118.053 67.7332 118.127C67.7666 118.201 67.8154 118.268 67.8769 118.325C67.936 118.385 68.0077 118.434 68.0878 118.469C68.1678 118.503 68.2546 118.522 68.3428 118.525Z" fill="#FF8D8D"/>
<path d="M71.2318 118.525C71.3175 118.525 71.4025 118.51 71.4818 118.48C71.5611 118.45 71.6333 118.405 71.6941 118.349C71.7551 118.293 71.8036 118.226 71.8366 118.152C71.8697 118.078 71.8867 117.999 71.8867 117.919C71.8867 117.839 71.8697 117.76 71.8366 117.686C71.8036 117.612 71.7551 117.545 71.6941 117.489L68.7967 114.793C68.7362 114.736 68.6642 114.691 68.5848 114.66C68.5055 114.629 68.4204 114.613 68.3344 114.613C68.2485 114.613 68.1634 114.629 68.084 114.66C68.0047 114.691 67.9327 114.736 67.8721 114.793C67.7509 114.906 67.6828 115.06 67.6828 115.22C67.6828 115.38 67.7509 115.533 67.8721 115.647L70.7761 118.349C70.8973 118.461 71.061 118.524 71.2318 118.525Z" fill="#FF8D8D"/>
<path d="M11.8294 62.0095C11.8294 83.9502 35.8889 91.2259 65.1309 91.2259C94.3728 91.2259 118.609 83.9502 118.609 62.0095C118.609 24.5982 94.3728 11.7715 65.1309 11.7715C35.8889 11.7715 11.8294 22.8167 11.8294 62.0095Z" fill="white"/>
<path fill-rule="evenodd" clip-rule="evenodd" d="M69.0276 11.8301C69.2731 18.831 70.7352 28.014 75.3226 31.7276C79.3565 34.9932 84.0118 35.8248 88.1717 36.5679C91.7271 37.203 94.9205 37.7735 97.0548 39.7436C98.1888 40.7904 99.1947 42.243 100.284 43.8163C103.567 48.5566 107.608 54.3934 118.201 53.5324C115.068 22.69 94.3727 12.6889 69.0276 11.8301Z" fill="black"/>
<path d="M44.4258 59.4746C44.4258 59.4746 43.1532 58.0148 40.2897 58.0148C37.4263 58.0148 36.1537 59.4746 36.1537 59.4746" stroke="black" stroke-width="5.18802" stroke-linecap="round"/>
<path d="M102.438 59.4746C102.438 59.4746 101.165 58.0148 98.3015 58.0148C95.438 58.0148 94.1654 59.4746 94.1654 59.4746" stroke="black" stroke-width="5.18802" stroke-linecap="round"/>
<path d="M49.6055 73.6523C49.6055 65.0153 56.6071 58.0137 65.2441 58.0137H73.0634C81.7004 58.0137 88.7021 65.0153 88.7021 73.6523C88.7021 79.4103 84.0343 84.0781 78.2763 84.0781H60.0312C54.2732 84.0781 49.6055 79.4103 49.6055 73.6523Z" fill="#FFCACA"/>
<path d="M60.957 69.7852V74.4095" stroke="black" stroke-width="4.20394" stroke-linecap="round"/>
<path d="M77.7734 69.7852L77.7734 74.4095" stroke="black" stroke-width="4.20394" stroke-linecap="round"/>
<path d="M28.5859 74.4102H34.8918" stroke="#FFD2D2" stroke-width="8.40787" stroke-linecap="round"/>
<path d="M103.836 74.4102H110.142" stroke="#FFD2D2" stroke-width="8.40787" stroke-linecap="round"/>
<path d="M19.8683 84.7045C24.1906 94.6728 35.8438 94.8288 43.9745 96.2014C44.8232 95.8159 46.7117 94.5643 47.4763 92.6412C48.432 90.2374 36.8425 75.8701 32.0716 72.1275C27.3007 68.3848 14.4653 72.2442 19.8683 84.7045Z" fill="#EFEFEF"/>
</g>
<defs>
<clipPath id="clip0_1641_1155">
<rect width="132.424" height="146.297" fill="white" transform="matrix(-1 0 0 1 132.426 0)"/>
</clipPath>
</defs>
</svg>
