<svg viewBox="0 0 66 45" fill="none" xmlns="http://www.w3.org/2000/svg">
<g id="Group 1466">
<path id="Ellipse 4" d="M10.9911 6.05316C16.9771 10.0475 15.1279 12.0389 13.5813 14.9856C12.0347 17.9322 11.255 20.6373 5.3905 16.724C2.41341 14.7374 1.25375 10.7382 2.80032 7.79155C4.34689 4.84489 8.01405 4.06659 10.9911 6.05316Z" fill="white"/>
<path id="Ellipse 5" d="M19.7582 6.73633C19.7582 10.4567 18.6073 10.4787 17.1877 10.4787C15.768 10.4787 14.6172 10.4567 14.6172 6.73633C14.6172 3.01596 16.1927 0 17.1877 0C18.1827 0 19.7582 3.01596 19.7582 6.73633Z" fill="#FFC145"/>
<path id="Ellipse 6" d="M50.8129 6.73633C50.8129 10.4567 49.662 10.4787 48.2424 10.4787C46.8227 10.4787 45.6719 10.4567 45.6719 6.73633C45.6719 3.01596 47.2473 0 48.2424 0C49.2374 0 50.8129 3.01596 50.8129 6.73633Z" fill="#FFC145"/>
<path id="Ellipse 3" d="M55.0089 6.05316C49.0229 10.0475 50.8721 12.0389 52.4187 14.9856C53.9653 17.9322 54.745 20.6373 60.6095 16.724C63.5866 14.7374 64.7463 10.7382 63.1997 7.79155C61.6531 4.84489 57.986 4.06659 55.0089 6.05316Z" fill="black"/>
<path id="Ellipse 7" d="M56.4852 9.45896C53.5017 11.4498 54.2742 12.1581 54.861 13.2761C55.4478 14.3941 55.6873 15.4581 58.6102 13.5076C60.094 12.5175 60.8212 10.8085 60.2344 9.69051C59.6476 8.5725 57.969 8.46883 56.4852 9.45896Z" fill="#FFCACA"/>
<path id="Ellipse 8" d="M9.33509 9.45896C12.3186 11.4498 11.5461 12.1581 10.9593 13.2761C10.3725 14.3941 10.1331 15.4581 7.21012 13.5076C5.72631 12.5175 4.99913 10.8085 5.58592 9.69051C6.17272 8.5725 7.85128 8.46883 9.33509 9.45896Z" fill="#FFCACA"/>
<path id="Ellipse 1" d="M57.7276 29.0964C57.7276 40.7324 46.4113 44.591 32.6574 44.591C18.9035 44.591 7.50391 40.7324 7.50391 29.0964C7.50391 9.25565 18.9035 2.45312 32.6574 2.45312C46.4113 2.45312 57.7276 8.31086 57.7276 29.0964Z" fill="white"/>
<path id="Intersect" fill-rule="evenodd" clip-rule="evenodd" d="M34.4062 2.48633C34.5218 6.19912 35.2095 11.0689 37.3671 13.0383C39.2644 14.7701 41.454 15.2112 43.4106 15.6053C45.0829 15.9421 46.5849 16.2447 47.5888 17.2895C48.1221 17.8446 48.5952 18.615 49.1077 19.4494C50.652 21.9641 52.5537 25.0607 57.5393 24.6019C56.0652 8.24373 46.329 2.94067 34.4062 2.48633Z" fill="black"/>
<path id="Vector 5" d="M45.8711 26.9766V30.5438" stroke="black" stroke-width="3.34428" stroke-linecap="round"/>
<path id="Vector 6" d="M19.3672 26.9766V30.5438" stroke="black" stroke-width="3.34428" stroke-linecap="round"/>
<path id="Rectangle 1" d="M41.9102 35.2704C41.9102 30.6898 38.1969 26.9766 33.6164 26.9766H31.815C27.2344 26.9766 23.5212 30.6898 23.5212 35.2704C23.5212 38.3241 25.9967 40.7996 29.0504 40.7996H36.381C39.4346 40.7996 41.9102 38.3241 41.9102 35.2704Z" fill="#FFCACA"/>
<path id="Vector 3" d="M36.5703 33.2188V35.6712" stroke="black" stroke-width="2.22952" stroke-linecap="round"/>
<path id="Vector 4" d="M28.668 33.2188L28.668 35.6712" stroke="black" stroke-width="2.22952" stroke-linecap="round"/>
<path id="Line 1" d="M51.793 35.6719H48.827" stroke="#FFD2D2" stroke-width="4.45904" stroke-linecap="round"/>
<path id="Line 2" d="M16.4062 35.6719H13.4403" stroke="#FFD2D2" stroke-width="4.45904" stroke-linecap="round"/>
</g>
</svg>
