<svg width="62" height="49" viewBox="0 0 62 49" fill="none" xmlns="http://www.w3.org/2000/svg">
<g clip-path="url(#clip0_2216_1722)">
<path d="M56.0238 35.0453C56.0238 45.5262 44.5307 49.0018 30.562 49.0018C16.5933 49.0018 5.01563 45.5262 5.01563 35.0453C5.01562 17.1741 16.5933 11.0469 30.562 11.0469C44.5307 11.0469 56.0238 16.3231 56.0238 35.0453Z" fill="#FFDB40"/>
<path d="M14.0586 40.1641H17.0709" stroke="#FCA18E" stroke-width="4.01639" stroke-linecap="round"/>
<path d="M47.3906 40.1641H50.4029" stroke="#FCA18E" stroke-width="4.01639" stroke-linecap="round"/>
<path d="M20.082 32.9355V36.1487" stroke="#123041" stroke-width="3.01229" stroke-linecap="round"/>
<path d="M44.3789 32.9355V36.1487" stroke="#123041" stroke-width="3.01229" stroke-linecap="round"/>
<path d="M37.3512 37.5535C37.3512 39.3835 35.0585 40.1642 32.2303 40.1642C29.4021 40.1642 27.1094 39.3835 27.1094 37.5535C27.1094 35.7235 29.4021 33.5371 32.2303 33.5371C35.0585 33.5371 37.3512 35.7235 37.3512 37.5535Z" fill="#FFB132"/>
<path d="M26.7591 4.06023C29.8055 6.76168 31.5556 9.79138 32.0734 12.5488L26.7123 11.9772C24.5048 11.7418 22.3902 9.13971 22.4878 5.98134C22.5853 2.82297 25.21 2.68646 26.7591 4.06023Z" fill="#FFDB40"/>
<path d="M32.353 8.32768C31.4045 9.25381 31.1648 11.2721 31.1635 12.1655C33.0009 11.9956 36.084 11.4308 36.6369 10.2542C37.1898 9.07757 36.8449 7.61474 36.1718 7.26606C35.4987 6.91738 33.5387 7.17001 32.353 8.32768Z" fill="#FFDB40"/>
</g>
<defs>
<clipPath id="clip0_2216_1722">
<rect width="61.0492" height="49" fill="white"/>
</clipPath>
</defs>
</svg>
