<svg viewBox="0 0 52 38" fill="none" xmlns="http://www.w3.org/2000/svg">
<g clip-path="url(#clip0_2216_1708)">
<ellipse cx="9.43574" cy="11.8722" rx="7.28989" ry="7.85578" transform="rotate(-28.6895 9.43574 11.8722)" fill="#5BB42B"/>
<ellipse cx="7.28989" cy="7.85578" rx="7.28989" ry="7.85578" transform="matrix(-0.877234 -0.480064 -0.480064 0.877234 51.2773 8.27539)" fill="#5BB42B"/>
<path d="M48.8733 24.4874C48.8733 34.1065 38.2714 37.2963 25.3858 37.2963C12.5002 37.2963 1.82031 34.1065 1.82031 24.4874C1.82031 10.6694 12.5002 4.74219 25.3858 4.74219C38.2714 4.74219 48.8733 9.57515 48.8733 24.4874Z" fill="#5BB42B"/>
<path d="M10.7617 11.8535V14.7715" stroke="#123041" stroke-width="2.73564" stroke-linecap="round"/>
<path d="M41.7695 11.6719V14.5899" stroke="#123041" stroke-width="2.73564" stroke-linecap="round"/>
<path d="M6.74609 21.1562H9.84648" stroke="#A1DC3C" stroke-width="3.64752" stroke-linecap="round"/>
<path d="M40.4883 21.1562H43.5887" stroke="#A1DC3C" stroke-width="3.64752" stroke-linecap="round"/>
<path d="M29.7264 18.2488C29.7264 16.0576 29.7264 14.9559 25.623 14.9559C21.5195 14.9559 21.5195 15.8618 21.5195 18.2488C21.5195 22.1598 23.3567 24.4395 25.623 24.4395C27.8893 24.4395 29.7264 21.8862 29.7264 18.2488Z" fill="#D52C2F"/>
<path fill-rule="evenodd" clip-rule="evenodd" d="M21.5215 18.6501C21.6435 22.314 23.4311 24.4375 25.6183 24.4375C27.2042 24.4375 28.58 23.1871 29.2632 21.1898C28.4694 20.26 27.2929 19.4534 25.8717 18.9552C24.3278 18.4139 22.7823 18.3371 21.5215 18.6501Z" fill="#FF686B"/>
</g>
<defs>
<clipPath id="clip0_2216_1708">
<rect width="51.2476" height="37.3871" fill="white"/>
</clipPath>
</defs>
</svg>
