<svg width="1440" height="380" viewBox="0 0 1440 380" fill="none" xmlns="http://www.w3.org/2000/svg">
<g clip-path="url(#clip0_2283_186)">
<path fill-rule="evenodd" clip-rule="evenodd" d="M1259 68.5C1259 53.8645 1270.86 42 1285.5 42H1364.5C1379.69 42 1392 54.3122 1392 69.5C1392 84.6878 1404.31 97 1419.5 97H1514C1536.09 97 1554 114.909 1554 137V201C1554 223.091 1536.09 241 1514 241H1434C1411.91 241 1394 258.909 1394 281V329.5C1394 336.956 1387.96 343 1380.5 343C1373.04 343 1367 336.956 1367 329.5V319C1367 305.745 1356.25 295 1343 295H1276.5C1266.83 295 1259 287.165 1259 277.5C1259 267.835 1251.17 260 1241.5 260H1202C1179.91 260 1162 277.909 1162 300V350.5C1162 357.404 1156.4 363 1149.5 363C1142.6 363 1137 357.404 1137 350.5V321C1137 298.909 1119.09 281 1097 281H980.5C971.94 281 965 287.94 965 296.5C965 305.06 958.06 312 949.5 312H690C680.059 312 672 320.059 672 330V335.5C672 342.404 666.404 348 659.5 348C652.596 348 647 342.404 647 335.5V321.5C647 306.864 635.136 295 620.5 295H540C521.775 295 507 309.775 507 328V348.5C507 355.404 501.404 361 494.5 361C487.596 361 482 355.404 482 348.5V314.5C482 294.894 466.106 279 446.5 279H430C419.507 279 411 287.507 411 298C411 308.493 402.493 317 392 317H258.5C247.178 317 238 307.822 238 296.5C238 285.178 228.822 276 217.5 276H130C107.909 276 90 293.909 90 316V350.5C90 357.404 84.4036 363 77.5 363C70.5964 363 65 357.404 65 350.5V295C65 272.909 47.0914 255 25 255H11C-11.0914 255 -29 237.091 -29 215V107C-29 84.9086 -11.0914 67 11 67H107.5C126.554 67 142 82.4462 142 101.5C142 120.554 157.446 136 176.5 136H216C228.15 136 238 126.15 238 114C238 101.85 247.85 92 260 92H375C394.882 92 411 108.118 411 128C411 147.882 427.118 164 447 164H488C501.807 164 513 175.193 513 189C513 202.807 524.193 214 538 214H653H663H896C918.091 214 936 196.091 936 174C936 151.909 953.909 134 976 134H1010.5C1021.27 134 1030 125.27 1030 114.5C1030 103.73 1038.73 95 1049.5 95H1232.5C1247.14 95 1259 83.1355 1259 68.5Z" fill="#AFD157"/>
<path d="M1148 31H1158C1180.09 31 1198 48.9086 1198 71V81H1188C1165.91 81 1148 63.0914 1148 41V31Z" fill="#AFD157"/>
<path d="M1248 31H1238C1215.91 31 1198 48.9086 1198 71V81H1208C1230.09 81 1248 63.0914 1248 41V31Z" fill="#AFD157"/>
<path d="M1292 371L1302 371C1324.09 371 1342 353.091 1342 331L1342 321L1332 321C1309.91 321 1292 338.909 1292 361L1292 371Z" fill="#AFD157"/>
<path d="M571 371L581 371C603.091 371 621 353.091 621 331L621 321L611 321C588.909 321 571 338.909 571 361L571 371Z" fill="#AFD157"/>
<path d="M1036 364L1026 364C1003.91 364 986 346.091 986 324L986 314L996 314C1018.09 314 1036 331.909 1036 354L1036 364Z" fill="#AFD157"/>
<path d="M165 380L155 380C132.909 380 115 362.091 115 340L115 330L125 330C147.091 330 165 347.909 165 370L165 380Z" fill="#AFD157"/>
<path d="M965 161H975C997.091 161 1015 178.909 1015 201V211H1005C982.909 211 965 193.091 965 171V161Z" fill="#7BAD34"/>
<path d="M1065 161H1055C1032.91 161 1015 178.909 1015 201V211H1025C1047.09 211 1065 193.091 1065 171V161Z" fill="#7BAD34"/>
<path d="M390 293L380 293C357.909 293 340 275.091 340 253L340 243L350 243C372.091 243 390 260.909 390 283L390 293Z" fill="#7BAD34"/>
<path d="M290 293L300 293C322.091 293 340 275.091 340 253L340 243L330 243C307.909 243 290 260.909 290 283L290 293Z" fill="#7BAD34"/>
<path d="M1377 114H1387C1409.09 114 1427 131.909 1427 154V164H1417C1394.91 164 1377 146.091 1377 124V114Z" fill="#7BAD34"/>
<path d="M69 181H59C36.9086 181 19 198.909 19 221V231H29C51.0914 231 69 213.091 69 191V181Z" fill="#7BAD34"/>
<path d="M42 0H52C74.0914 0 92 17.9086 92 40V50H82C59.9086 50 42 32.0914 42 10V0Z" fill="#7BAD34"/>
<path d="M142 0H132C109.909 0 92 17.9086 92 40V50H102C124.091 50 142 32.0914 142 10V0Z" fill="#7BAD34"/>
<path d="M960 65H970C992.091 65 1010 82.9086 1010 105V115H1000C977.909 115 960 97.0914 960 75V65Z" fill="#AFD157"/>
<path fill-rule="evenodd" clip-rule="evenodd" d="M223.085 111.582C217.241 105.738 207.765 105.738 201.921 111.582C197.296 116.207 196.331 123.105 199.026 128.679C199.128 128.89 198.89 129.128 198.679 129.026C193.105 126.332 186.207 127.297 181.583 131.922C175.739 137.766 175.739 147.242 181.583 153.086C186.207 157.71 193.105 158.675 198.678 155.982C198.889 155.88 199.127 156.118 199.025 156.329C196.331 161.902 197.296 168.8 201.921 173.425C207.765 179.269 217.241 179.269 223.085 173.425C227.709 168.8 228.674 161.902 225.981 156.329C225.879 156.118 226.117 155.88 226.327 155.982C231.901 158.676 238.799 157.71 243.423 153.086C249.267 147.242 249.267 137.766 243.423 131.922C238.798 127.297 231.9 126.332 226.327 129.026C226.116 129.128 225.878 128.89 225.98 128.679C228.675 123.105 227.71 116.207 223.085 111.582Z" fill="#FF686B"/>
<circle cx="212.501" cy="142.778" r="6.21932" transform="rotate(45 212.501 142.778)" fill="#E23636"/>
<path fill-rule="evenodd" clip-rule="evenodd" d="M1207.08 226.582C1201.24 220.738 1191.77 220.738 1185.92 226.582C1181.3 231.207 1180.33 238.105 1183.03 243.679C1183.13 243.89 1182.89 244.128 1182.68 244.026C1177.11 241.332 1170.21 242.297 1165.58 246.922C1159.74 252.766 1159.74 262.242 1165.58 268.086C1170.21 272.71 1177.1 273.675 1182.68 270.982C1182.89 270.88 1183.13 271.118 1183.02 271.329C1180.33 276.902 1181.3 283.8 1185.92 288.425C1191.77 294.269 1201.24 294.269 1207.08 288.425C1211.71 283.8 1212.67 276.902 1209.98 271.329C1209.88 271.118 1210.12 270.88 1210.33 270.982C1215.9 273.676 1222.8 272.71 1227.42 268.086C1233.27 262.242 1233.27 252.766 1227.42 246.922C1222.8 242.297 1215.9 241.332 1210.33 244.026C1210.12 244.128 1209.88 243.89 1209.98 243.679C1212.67 238.105 1211.71 231.207 1207.08 226.582Z" fill="#FFC53D"/>
<circle cx="1196.5" cy="257.778" r="6.21932" transform="rotate(45 1196.5 257.778)" fill="#E98B2D"/>
<path d="M710.088 162.974L711.718 146.601L725.083 156.199L710.088 162.974Z" fill="white"/>
<path d="M704.371 125C704.371 116.163 711.535 109 720.371 109H890.371C899.208 109 906.371 116.163 906.371 125V140C906.371 148.837 899.208 156 890.371 156H720.371C711.535 156 704.371 148.837 704.371 140V125Z" fill="white"/>
<path d="M752.136 139.5V127.44H748.428V126.09H757.248V127.44H753.576V139.5H752.136ZM759.385 139.5V126.09H760.825V139.5H759.385ZM764.35 139.5V126.09H768.958C769.834 126.09 770.602 126.264 771.262 126.612C771.922 126.948 772.432 127.428 772.792 128.052C773.164 128.664 773.35 129.378 773.35 130.194C773.35 131.01 773.164 131.724 772.792 132.336C772.432 132.948 771.922 133.428 771.262 133.776C770.614 134.112 769.846 134.28 768.958 134.28H765.79V139.5H764.35ZM765.79 132.93H769.03C769.606 132.93 770.11 132.822 770.542 132.606C770.974 132.378 771.31 132.06 771.55 131.652C771.79 131.232 771.91 130.74 771.91 130.176C771.91 129.612 771.79 129.126 771.55 128.718C771.31 128.31 770.974 127.998 770.542 127.782C770.11 127.554 769.606 127.44 769.03 127.44H765.79V132.93ZM780.795 139.716C779.943 139.716 779.169 139.554 778.473 139.23C777.777 138.906 777.189 138.474 776.709 137.934C776.229 137.382 775.887 136.776 775.683 136.116L776.979 135.63C777.291 136.542 777.777 137.238 778.437 137.718C779.097 138.186 779.883 138.42 780.795 138.42C781.371 138.42 781.875 138.33 782.307 138.15C782.751 137.958 783.093 137.694 783.333 137.358C783.573 137.022 783.693 136.632 783.693 136.188C783.693 135.528 783.513 135.018 783.153 134.658C782.793 134.298 782.277 134.022 781.605 133.83L779.193 133.11C778.245 132.834 777.513 132.372 776.997 131.724C776.493 131.076 776.241 130.338 776.241 129.51C776.241 128.802 776.415 128.178 776.763 127.638C777.111 127.086 777.585 126.654 778.185 126.342C778.797 126.03 779.487 125.874 780.255 125.874C781.059 125.874 781.779 126.024 782.415 126.324C783.063 126.612 783.609 126.996 784.053 127.476C784.497 127.956 784.815 128.49 785.007 129.078L783.747 129.582C783.459 128.79 783.009 128.19 782.397 127.782C781.797 127.374 781.089 127.17 780.273 127.17C779.757 127.17 779.301 127.26 778.905 127.44C778.521 127.62 778.221 127.878 778.005 128.214C777.789 128.55 777.681 128.946 777.681 129.402C777.681 129.954 777.855 130.452 778.203 130.896C778.551 131.328 779.085 131.652 779.805 131.868L781.929 132.498C782.985 132.81 783.783 133.26 784.323 133.848C784.863 134.436 785.133 135.174 785.133 136.062C785.133 136.782 784.947 137.418 784.575 137.97C784.215 138.51 783.705 138.936 783.045 139.248C782.397 139.56 781.647 139.716 780.795 139.716ZM791.692 139.5V126.09H797.326C798.082 126.09 798.736 126.234 799.288 126.522C799.852 126.798 800.284 127.188 800.584 127.692C800.896 128.196 801.052 128.784 801.052 129.456C801.052 130.152 800.878 130.77 800.53 131.31C800.194 131.838 799.708 132.24 799.072 132.516L799.054 132.084C799.582 132.276 800.032 132.546 800.404 132.894C800.788 133.242 801.082 133.65 801.286 134.118C801.49 134.574 801.592 135.066 801.592 135.594C801.592 136.794 801.208 137.748 800.44 138.456C799.684 139.152 798.652 139.5 797.344 139.5H791.692ZM793.132 138.15H797.344C798.196 138.15 798.874 137.928 799.378 137.484C799.894 137.028 800.152 136.404 800.152 135.612C800.152 134.832 799.894 134.214 799.378 133.758C798.874 133.29 798.196 133.056 797.344 133.056H793.132V138.15ZM793.132 131.76H797.218C797.938 131.76 798.514 131.55 798.946 131.13C799.39 130.71 799.612 130.17 799.612 129.51C799.612 128.838 799.39 128.328 798.946 127.98C798.514 127.62 797.938 127.44 797.218 127.44H793.132V131.76ZM804.533 139.5V126.09H813.173V127.44H805.973V132.102H812.813V133.452H805.973V138.15H813.173V139.5H804.533ZM815.914 139.5V126.09H817.354V138.15H823.294V139.5H815.914ZM831.803 139.716C830.867 139.716 829.991 139.548 829.175 139.212C828.371 138.864 827.663 138.384 827.051 137.772C826.439 137.148 825.959 136.416 825.611 135.576C825.263 134.724 825.089 133.794 825.089 132.786C825.089 131.778 825.263 130.854 825.611 130.014C825.959 129.162 826.439 128.43 827.051 127.818C827.663 127.194 828.371 126.714 829.175 126.378C829.991 126.042 830.867 125.874 831.803 125.874C832.739 125.874 833.609 126.048 834.413 126.396C835.229 126.732 835.943 127.212 836.555 127.836C837.167 128.448 837.647 129.174 837.995 130.014C838.343 130.854 838.517 131.778 838.517 132.786C838.517 133.794 838.343 134.724 837.995 135.576C837.647 136.416 837.167 137.148 836.555 137.772C835.943 138.384 835.229 138.864 834.413 139.212C833.609 139.548 832.739 139.716 831.803 139.716ZM831.803 138.366C832.583 138.366 833.291 138.222 833.927 137.934C834.575 137.646 835.133 137.244 835.601 136.728C836.069 136.212 836.429 135.618 836.681 134.946C836.945 134.274 837.077 133.554 837.077 132.786C837.077 132.03 836.945 131.316 836.681 130.644C836.429 129.972 836.069 129.378 835.601 128.862C835.133 128.346 834.575 127.944 833.927 127.656C833.291 127.368 832.583 127.224 831.803 127.224C831.023 127.224 830.309 127.368 829.661 127.656C829.025 127.944 828.473 128.346 828.005 128.862C827.537 129.378 827.171 129.972 826.907 130.644C826.655 131.316 826.529 132.03 826.529 132.786C826.529 133.554 826.655 134.274 826.907 134.946C827.171 135.618 827.537 136.212 828.005 136.728C828.473 137.244 829.031 137.646 829.679 137.934C830.327 138.222 831.035 138.366 831.803 138.366ZM843.762 139.5L839.91 126.09H841.368L844.698 138.096H844.392L847.812 126.09H849.342L852.744 138.096H852.42L855.768 126.09H857.226L853.374 139.5H851.844L848.406 127.44H848.73L845.292 139.5H843.762ZM859.699 135.648L859.609 126.09H861.049L860.959 135.648H859.699ZM859.609 139.5V137.52H861.049V139.5H859.609Z" fill="#005271"/>
<path d="M554.338 137.257C553.221 137.049 552.027 136.863 550.904 137.14C549.196 137.561 547.913 139.98 547.165 141.389C545.597 144.346 543.864 148.61 545.986 151.713C547.478 153.895 550.12 155.091 552.537 155.872C555.64 156.874 559.169 157.151 562.411 156.928C563.449 156.856 564.206 156.786 564.536 155.768C564.794 154.974 564.952 154.143 565.132 153.33C565.551 151.438 565.933 149.531 565.994 147.588C566.022 146.719 565.981 146.258 565.21 145.769C563.936 144.961 562.527 144.278 561.154 143.658C560.034 143.151 559.063 142.821 557.83 142.96C556.185 143.146 554.34 143.688 552.938 144.583C551.393 145.57 550.149 148.156 552.167 149.341C553.738 150.263 557.721 151.479 558.653 149.054C558.764 148.767 559.27 147.562 558.776 147.418C558.162 147.239 557.415 147.411 556.787 147.464" stroke="white" stroke-width="3" stroke-linecap="round"/>
<g clip-path="url(#clip1_2283_186)">
<path d="M703.87 204.802C701.878 206.795 684.501 206.463 675.314 206.131C669.669 202.644 668.839 186.208 672.658 183.884C676.476 181.559 693.695 189.542 696.233 191.355C698.557 193.015 706.194 202.478 703.87 204.802Z" fill="#E7EAEE"/>
<path d="M714.479 212.683C712.487 214.676 695.11 214.344 685.923 214.012C680.278 210.525 679.448 194.089 683.267 191.764C687.085 189.44 704.304 197.422 706.842 199.236C709.167 200.896 716.804 210.359 714.479 212.683Z" fill="white"/>
<path d="M689.635 213.479C687.125 215.074 645.584 215.074 642.657 213.479C639.729 211.884 634.432 199.441 636.105 195.612C637.778 191.783 651.996 177.904 675.555 178.862C699.114 179.819 692.144 211.884 689.635 213.479Z" fill="white"/>
<path d="M587.796 201.705C595.875 198.811 608.261 205.975 613.444 209.918C613.68 210.616 613.979 212.38 613.284 213.859C612.415 215.709 591.875 216.258 587.141 215.531C582.407 214.804 577.697 205.323 587.796 201.705Z" fill="#E7EAEE"/>
<path d="M604.449 133.324C617.864 133.324 618.782 148.156 617.565 155.571L611.256 153.745C608.378 158.117 600.531 165.5 592.163 160.054C581.704 153.247 587.681 133.324 604.449 133.324Z" fill="#EFEFEF"/>
<path d="M582.324 191.598C582.324 208.928 601.328 214.675 624.424 214.675C647.521 214.675 666.664 208.928 666.664 191.598C666.664 162.049 647.521 151.918 624.424 151.918C601.328 151.918 582.324 160.642 582.324 191.598Z" fill="white"/>
<path d="M602.58 191.102L599.924 191.766" stroke="#005271" stroke-width="4.98069" stroke-linecap="round"/>
<path d="M637.443 191.1L640.099 191.764" stroke="#005271" stroke-width="4.98069" stroke-linecap="round"/>
<mask id="mask0_2283_186" style="mask-type:alpha" maskUnits="userSpaceOnUse" x="582" y="151" width="85" height="64">
<path d="M582.324 191.598C582.324 208.928 601.328 214.675 624.424 214.675C647.521 214.675 666.664 208.928 666.664 191.598C666.664 162.049 647.521 151.918 624.424 151.918C601.328 151.918 582.324 160.642 582.324 191.598Z" fill="white"/>
</mask>
<g mask="url(#mask0_2283_186)">
<path d="M617.146 155.84L617.846 156.931L618.056 155.652C618.673 151.894 618.756 146.236 616.96 141.491C616.059 139.111 614.678 136.94 612.633 135.363C610.583 133.782 607.9 132.826 604.449 132.826C595.842 132.826 589.983 137.95 587.632 143.955C585.291 149.935 586.406 156.902 591.892 160.471C596.256 163.311 600.504 162.799 603.994 161.025C607.459 159.264 610.2 156.255 611.672 154.019C612.385 152.936 612.927 152.21 613.335 151.731C613.671 151.337 613.902 151.126 614.05 151.019L617.146 155.84Z" stroke="#DCDCDC" stroke-width="0.996139"/>
<path d="M641.348 150.696L641.405 150.608L641.422 150.505C641.536 149.809 641.671 149.077 641.81 148.329C642.031 147.131 642.26 145.893 642.423 144.691C642.69 142.723 642.798 140.749 642.421 138.989C642.041 137.212 641.163 135.645 639.469 134.537C637.792 133.439 635.37 132.826 631.965 132.826C623.357 132.826 617.498 137.95 615.148 143.955C612.806 149.935 613.922 156.902 619.407 160.471C623.771 163.311 628.02 162.799 631.51 161.025C634.975 159.264 637.716 156.255 639.188 154.019L639.189 154.017L641.348 150.696Z" stroke="#DCDCDC" stroke-width="0.996139"/>
</g>
<path d="M650.062 199.402H645.082" stroke="#FFC0C1" stroke-width="6.64093" stroke-linecap="round"/>
<path d="M594.941 199.402H589.961" stroke="#FFC0C1" stroke-width="6.64093" stroke-linecap="round"/>
<path d="M621.369 187.117C620.718 187.117 620.419 187.389 620.012 187.661C619.604 187.389 619.306 187.117 618.654 187.117C617.839 187.117 617.366 187.971 617.568 188.476C617.839 189.155 618.835 189.834 620.012 190.106C621.188 189.834 622.184 189.155 622.456 188.476C622.657 187.971 622.184 187.117 621.369 187.117Z" fill="#FFC0C1"/>
<path d="M638.267 201.707C646.346 198.813 658.732 205.977 663.915 209.92C664.151 210.618 664.45 212.382 663.755 213.861C662.886 215.711 642.345 216.26 637.611 215.533C632.878 214.806 628.168 205.325 638.267 201.707Z" fill="#E7EAEE"/>
<circle cx="685.426" cy="178.649" r="5.47876" fill="white"/>
<path d="M613.867 193.117C614.269 193.331 615.37 193.758 616.558 193.758C618.042 193.758 618.599 192.762 620.176 192.762C621.753 192.762 622.31 193.758 623.794 193.758C624.982 193.758 626.083 193.331 626.485 193.117" stroke="#DF9C9C" stroke-width="1.66023" stroke-linecap="round"/>
<path d="M604.449 133.324C617.864 133.324 618.782 148.156 617.565 155.571L614.366 150.591C614.366 150.591 614.134 149.373 611.256 153.745C608.378 158.117 600.531 165.5 592.163 160.054C581.704 153.247 587.681 133.324 604.449 133.324Z" fill="#E7EAEE"/>
<path d="M631.965 133.324C645.379 133.324 646.298 148.156 645.08 155.571L638.772 153.745C635.894 158.117 628.046 165.5 619.679 160.054C609.219 153.247 615.196 133.324 631.965 133.324Z" fill="white"/>
</g>
</g>
<defs>
<clipPath id="clip0_2283_186">
<rect width="1440" height="380" fill="white"/>
</clipPath>
<clipPath id="clip1_2283_186">
<rect width="137.135" height="86" fill="white" transform="translate(580 131)"/>
</clipPath>
</defs>
</svg>
