<svg width="451" height="327" viewBox="0 0 451 327" fill="none" xmlns="http://www.w3.org/2000/svg">
<g clip-path="url(#clip0_2216_1734)">
<ellipse cx="180.461" cy="83.7235" rx="16.4785" ry="17.7576" transform="rotate(-28.6896 180.461 83.7235)" fill="#5BB42B"/>
<ellipse cx="16.4785" cy="17.7576" rx="16.4785" ry="17.7576" transform="matrix(-0.877234 -0.480064 -0.480064 0.877234 275.035 75.5977)" fill="#5BB42B"/>
<path d="M241.199 199.719C244.156 198.51 247.035 182.402 246.451 174.383L218.051 178.915C217.468 185.424 217.429 198.696 218.829 199.719C220.58 200.998 237.503 201.23 241.199 199.719Z" fill="#5C9A15"/>
<path d="M243.419 181.876C252.258 175.999 240.31 139.333 231.676 134.714C223.043 130.096 209.001 130.796 202.834 134.714C196.667 138.633 181.428 175.859 190.267 181.876C199.106 187.894 234.58 187.754 243.419 181.876Z" fill="#5BB42B"/>
<path d="M192.902 199.719C189.946 198.51 187.067 182.402 187.65 174.383L216.05 178.915C216.634 185.424 216.673 198.696 215.272 199.719C213.522 200.998 196.598 201.23 192.902 199.719Z" fill="#5BB42B"/>
<path d="M239.522 167.541C239.522 180.038 230.109 183.04 218.498 183.04C206.886 183.04 197.473 180.038 197.473 167.541C197.473 151.113 206.886 141.814 218.498 141.814C230.109 141.814 239.522 151.113 239.522 167.541Z" fill="#A1DC3C"/>
<path d="M219.143 176.442C219.227 176.443 219.311 176.426 219.39 176.395C219.468 176.363 219.539 176.316 219.599 176.256L222.462 173.377C222.568 173.254 222.623 173.097 222.617 172.936C222.61 172.775 222.543 172.622 222.429 172.508C222.314 172.394 222.161 172.327 221.999 172.321C221.837 172.315 221.678 172.369 221.555 172.474L218.686 175.322C218.625 175.382 218.578 175.452 218.545 175.53C218.512 175.608 218.495 175.692 218.495 175.776C218.495 175.861 218.512 175.945 218.545 176.023C218.578 176.101 218.625 176.171 218.686 176.231C218.744 176.295 218.814 176.346 218.893 176.383C218.971 176.419 219.056 176.439 219.143 176.442Z" fill="#5BB42B"/>
<path d="M221.975 176.442C222.059 176.443 222.142 176.426 222.22 176.395C222.298 176.363 222.369 176.316 222.428 176.257C222.488 176.198 222.536 176.127 222.568 176.049C222.601 175.971 222.617 175.888 222.617 175.804C222.617 175.719 222.601 175.636 222.568 175.558C222.536 175.48 222.488 175.41 222.428 175.35L219.588 172.509C219.528 172.449 219.458 172.402 219.38 172.369C219.302 172.337 219.219 172.32 219.134 172.32C219.05 172.32 218.967 172.337 218.889 172.369C218.811 172.402 218.74 172.449 218.681 172.509C218.562 172.629 218.495 172.791 218.495 172.959C218.495 173.128 218.562 173.29 218.681 173.409L221.528 176.257C221.647 176.375 221.808 176.441 221.975 176.442Z" fill="#5BB42B"/>
<path d="M269.611 112.243C269.611 133.986 245.646 141.196 216.519 141.196C187.391 141.196 163.25 133.986 163.25 112.243C163.25 81.0076 187.391 67.6094 216.519 67.6094C245.646 67.6094 269.611 78.5341 269.611 112.243Z" fill="#5BB42B"/>
<path d="M183.449 89.8711V96.4671" stroke="#123041" stroke-width="6.18379" stroke-linecap="round"/>
<path d="M253.535 89.0469V95.6429" stroke="#123041" stroke-width="6.18379" stroke-linecap="round"/>
<path d="M174.387 104.711H181.395" stroke="#A1DC3C" stroke-width="8.24505" stroke-linecap="round"/>
<path d="M250.648 104.711H257.657" stroke="#A1DC3C" stroke-width="8.24505" stroke-linecap="round"/>
<path d="M226.329 98.1391C226.329 93.1859 226.329 90.6957 217.053 90.6957C207.777 90.6957 207.777 92.7434 207.777 98.1391C207.777 106.98 211.93 112.133 217.053 112.133C222.176 112.133 226.329 106.361 226.329 98.1391Z" fill="#D52C2F"/>
<path fill-rule="evenodd" clip-rule="evenodd" d="M207.789 99.0537C208.066 107.334 212.106 112.133 217.05 112.133C220.638 112.133 223.751 109.301 225.293 104.778C223.499 102.682 220.844 100.864 217.638 99.7395C214.142 98.5137 210.642 98.3418 207.789 99.0537Z" fill="#FF686B"/>
</g>
<g clip-path="url(#clip1_2216_1734)">
<path d="M172.576 150.947C185.056 158.333 181.201 162.015 177.976 167.464C174.752 172.913 173.126 177.914 160.899 170.678C154.692 167.005 152.274 159.61 155.499 154.162C158.723 148.713 166.369 147.274 172.576 150.947Z" fill="white"/>
<path d="M190.875 152.21C190.875 159.089 188.475 159.13 185.516 159.13C182.556 159.13 180.156 159.089 180.156 152.21C180.156 145.331 183.441 139.754 185.516 139.754C187.59 139.754 190.875 145.331 190.875 152.21Z" fill="#6A5B3D"/>
<path d="M255.597 152.21C255.597 159.089 253.198 159.13 250.238 159.13C247.278 159.13 244.879 159.089 244.879 152.21C244.879 145.331 248.164 139.754 250.238 139.754C252.313 139.754 255.597 145.331 255.597 152.21Z" fill="#6A5B3D"/>
<path d="M264.35 150.947C251.87 158.333 255.725 162.015 258.95 167.464C262.174 172.913 263.8 177.914 276.027 170.678C282.234 167.005 284.652 159.61 281.427 154.162C278.203 148.713 270.557 147.274 264.35 150.947Z" fill="#123041"/>
<path d="M267.433 157.243C261.213 160.924 262.823 162.234 264.047 164.301C265.27 166.368 265.769 168.336 271.863 164.729C274.957 162.898 276.473 159.738 275.25 157.671C274.026 155.604 270.527 155.412 267.433 157.243Z" fill="#FFC0C1"/>
<path d="M169.13 157.243C175.35 160.924 173.739 162.234 172.516 164.301C171.292 166.368 170.793 168.336 164.699 164.729C161.606 162.898 160.089 159.738 161.313 157.671C162.536 155.604 166.036 155.412 169.13 157.243Z" fill="#FFC0C1"/>
<path d="M255.209 266.998C253.156 268.211 230.294 268.089 225.675 265.047C220.055 261.345 217.996 256.366 219.351 252.066C222.259 242.836 228.801 243.024 236.015 243.642C243.23 244.26 263.772 245.295 265.285 249.207C267.039 253.742 260.544 263.842 255.209 266.998Z" fill="#E7EAEE"/>
<path d="M244.243 261.031C253.082 255.153 241.134 218.487 232.5 213.869C223.867 209.251 209.825 209.95 203.658 213.869C197.491 217.787 182.252 255.013 191.091 261.031C199.93 267.048 235.404 266.908 244.243 261.031Z" fill="white"/>
<path fill-rule="evenodd" clip-rule="evenodd" d="M220.629 265.451C220.698 263.281 220.626 258.855 219.117 256.216C216.702 251.99 208.811 249.207 208.811 249.207C205.651 248.726 198.835 246.445 196.856 241.168C196.013 238.922 194.069 237.417 191.823 236.436C188.296 247.055 186.641 258 191.092 261.03C195.906 264.307 208.62 265.758 220.629 265.451Z" fill="#123041"/>
<path d="M241.171 247.73C241.171 258.727 231.758 261.368 220.146 261.368C208.534 261.368 199.121 258.727 199.121 247.73C199.121 233.273 208.534 225.09 220.146 225.09C231.758 225.09 241.171 233.273 241.171 247.73Z" fill="#FFC0C1"/>
<path d="M219.967 257.657C220.051 257.657 220.135 257.641 220.214 257.609C220.292 257.578 220.363 257.531 220.424 257.471L223.287 254.591C223.392 254.469 223.447 254.312 223.441 254.15C223.435 253.989 223.368 253.837 223.253 253.723C223.138 253.609 222.985 253.542 222.823 253.536C222.661 253.529 222.503 253.584 222.38 253.689L219.51 256.537C219.45 256.596 219.402 256.667 219.369 256.745C219.336 256.823 219.32 256.907 219.32 256.991C219.32 257.076 219.336 257.159 219.369 257.237C219.402 257.315 219.45 257.386 219.51 257.446C219.568 257.51 219.638 257.561 219.717 257.598C219.795 257.634 219.88 257.654 219.967 257.657Z" fill="#FF8D8D"/>
<path d="M222.799 257.657C222.883 257.657 222.967 257.641 223.044 257.609C223.122 257.578 223.193 257.531 223.253 257.472C223.312 257.412 223.36 257.342 223.392 257.264C223.425 257.186 223.441 257.103 223.441 257.018C223.441 256.934 223.425 256.851 223.392 256.773C223.36 256.695 223.312 256.624 223.253 256.565L220.412 253.724C220.352 253.664 220.282 253.617 220.204 253.584C220.126 253.552 220.043 253.535 219.959 253.535C219.874 253.535 219.791 253.552 219.713 253.584C219.635 253.617 219.565 253.664 219.505 253.724C219.386 253.844 219.32 254.005 219.32 254.174C219.32 254.343 219.386 254.505 219.505 254.624L222.352 257.472C222.471 257.59 222.632 257.656 222.799 257.657Z" fill="#FF8D8D"/>
<path d="M225.111 268.236C223.059 269.45 200.196 269.328 195.577 266.285C189.957 262.583 187.898 257.605 189.253 253.305C192.161 244.074 198.703 244.262 205.918 244.88C213.132 245.499 233.675 246.533 235.188 250.446C236.941 254.98 230.447 265.081 225.111 268.236Z" fill="#123041"/>
<path d="M270.021 193.554C270.021 215.07 246.427 222.205 217.751 222.205C189.076 222.205 165.309 215.07 165.309 193.554C165.309 156.867 189.076 144.289 217.751 144.289C246.427 144.289 270.021 155.12 270.021 193.554Z" fill="white"/>
<path fill-rule="evenodd" clip-rule="evenodd" d="M221.402 144.348C221.643 151.213 223.077 160.217 227.575 163.859C231.531 167.061 236.096 167.876 240.176 168.605C243.662 169.228 246.794 169.787 248.887 171.719C249.999 172.746 250.985 174.17 252.054 175.713C255.273 180.362 259.237 186.086 269.626 185.241C266.553 154.996 246.257 145.189 221.402 144.348Z" fill="#123041"/>
<path d="M192.523 189.637V196.233" stroke="#123041" stroke-width="6.18379" stroke-linecap="round"/>
<path d="M247.766 189.637V196.233" stroke="#123041" stroke-width="6.18379" stroke-linecap="round"/>
<path d="M200.766 204.973C200.766 196.503 207.632 189.637 216.101 189.637H223.769C232.239 189.637 239.105 196.503 239.105 204.973C239.105 210.619 234.528 215.196 228.881 215.196H210.989C205.343 215.196 200.766 210.619 200.766 204.973Z" fill="#FFC0C1"/>
<path d="M211.898 201.18V205.714" stroke="#123041" stroke-width="4.12253" stroke-linecap="round"/>
<path d="M228.387 201.18L228.387 205.714" stroke="#123041" stroke-width="4.12253" stroke-linecap="round"/>
<path d="M180.156 205.715H186.34" stroke="#FFC0C1" stroke-width="8.24505" stroke-linecap="round"/>
<path d="M253.949 205.715H260.133" stroke="#FFC0C1" stroke-width="8.24505" stroke-linecap="round"/>
<path d="M215.514 240.775C205.063 242.844 197.058 233.058 192.502 226.447C191.359 224.015 192.416 220.659 194.358 220.071C197.818 219.024 213.181 222.156 218.86 223.919C224.539 225.682 228.579 238.189 215.514 240.775Z" fill="#E7EAEE"/>
<rect width="67.1972" height="5.77153" rx="0.824505" transform="matrix(-1 0 0 1 268.059 240.756)" fill="#173A52"/>
<path d="M275.382 202.861L186.313 159.129L159.539 222.889L216.118 243.641L275.382 202.861Z" fill="url(#paint0_linear_2216_1734)"/>
<rect width="67.1972" height="44.111" rx="2.06126" transform="matrix(-1 0 0 1 276.305 202.418)" fill="#005271"/>
<path d="M239.747 224.734V221.328L232.605 228.472L234.293 230.195L239.747 224.734ZM256.02 222.605C255.491 219.944 253.491 217.948 253.262 217.712L248.353 212.723L245.548 215.527L245.348 215.726V219.132L248.343 216.139L251.135 218.976L251.561 219.408L251.591 219.438C251.591 219.438 251.777 219.621 252.034 219.927C252.82 220.83 253.378 221.908 253.661 223.071C254.06 225.066 254.26 227.418 252.034 230.272V233.791C252.243 233.608 252.366 233.478 252.423 233.432C254.42 231.476 255.614 229.5 256.084 227.388C256.408 225.808 256.388 224.176 256.024 222.605H256.02ZM241.151 233.119L241.078 233.082H241.042C240.824 232.969 240.617 232.836 240.423 232.687C240.24 232.557 240.017 232.384 239.757 232.161C239.351 231.828 238.845 231.376 238.23 230.774L236.849 229.364L235.145 231.067L236.519 232.467V232.487C238.646 234.563 239.737 235.148 240.14 235.318C241.415 235.945 242.797 236.328 244.213 236.445C244.864 236.496 245.518 236.483 246.167 236.405L246.323 236.389V233.947C244.556 234.227 242.746 233.937 241.155 233.119H241.151Z" fill="white"/>
<path d="M244.148 216.93V231.472H240.957V220.123L241.276 219.804L241.45 219.631L242.415 218.666L243.067 218.014L243.28 217.801L243.935 217.146L244.148 216.93Z" fill="white"/>
<path d="M250.826 220.18V234.689L250.786 234.719C250.64 234.812 250.484 234.908 250.317 235.001C250.264 235.035 250.207 235.064 250.151 235.094C250.004 235.178 249.848 235.261 249.688 235.341C249.529 235.42 249.385 235.487 249.226 235.557L248.963 235.67L248.603 235.81L248.311 235.913C248.111 235.979 247.905 236.042 247.692 236.099L247.535 236.139V220.18H250.826Z" fill="white"/>
<path d="M247.535 224.016H244.145V227.308H247.535V224.016Z" fill="white"/>
<path d="M211.782 143.258C212.695 146.666 207.867 150.971 201.27 152.739C194.672 154.507 188.803 153.068 187.889 149.659C186.342 143.885 189.726 138.031 197.147 136.043C204.567 134.055 210.181 137.284 211.782 143.258Z" fill="#4F9A15"/>
<path d="M224.367 143.136C223.453 146.545 228.281 150.85 234.879 152.618C241.476 154.386 247.346 152.947 248.259 149.538C249.806 143.764 246.422 137.91 239.002 135.922C231.581 133.934 225.967 137.163 224.367 143.136Z" fill="#4F9A15"/>
</g>
<g clip-path="url(#clip2_2216_1734)">
<path d="M306.687 268.153C303.731 266.944 300.852 250.836 301.435 242.816L329.835 247.349C330.419 253.857 330.458 267.13 329.057 268.153C327.307 269.431 310.383 269.664 306.687 268.153Z" fill="#E7EAEE"/>
<path d="M304.468 250.312C295.629 244.434 307.577 207.768 316.211 203.15C324.844 198.532 338.886 199.231 345.053 203.15C351.22 207.069 366.459 244.294 357.62 250.312C348.781 256.33 313.307 256.19 304.468 250.312Z" fill="white"/>
<path d="M354.981 268.153C357.937 266.944 360.816 250.836 360.233 242.816L331.833 247.349C331.249 253.857 331.21 267.13 332.611 268.153C334.361 269.431 351.285 269.664 354.981 268.153Z" fill="white"/>
<path d="M308.364 237.835C308.364 248.832 317.777 251.474 329.389 251.474C341.001 251.474 350.414 248.832 350.414 237.835C350.414 223.378 341.001 215.195 329.389 215.195C317.777 215.195 308.364 223.378 308.364 237.835Z" fill="#E7EAEE"/>
<path d="M328.744 244.878C328.659 244.878 328.576 244.862 328.497 244.83C328.419 244.798 328.347 244.751 328.287 244.692L325.424 241.812C325.319 241.69 325.264 241.532 325.27 241.371C325.276 241.21 325.343 241.057 325.458 240.943C325.573 240.829 325.726 240.763 325.888 240.756C326.05 240.75 326.208 240.805 326.331 240.91L329.201 243.758C329.261 243.817 329.309 243.888 329.342 243.966C329.374 244.044 329.391 244.128 329.391 244.212C329.391 244.297 329.374 244.38 329.342 244.458C329.309 244.536 329.261 244.607 329.201 244.666C329.143 244.73 329.073 244.782 328.994 244.818C328.916 244.855 328.831 244.875 328.744 244.878Z" fill="#FFC0C1"/>
<path d="M325.912 244.878C325.828 244.878 325.744 244.862 325.667 244.83C325.589 244.798 325.518 244.752 325.458 244.692C325.399 244.633 325.351 244.562 325.319 244.485C325.286 244.407 325.27 244.323 325.27 244.239C325.27 244.155 325.286 244.071 325.319 243.994C325.351 243.916 325.399 243.845 325.458 243.786L328.299 240.945C328.358 240.885 328.429 240.837 328.507 240.805C328.585 240.773 328.668 240.756 328.752 240.756C328.837 240.756 328.92 240.773 328.998 240.805C329.076 240.837 329.146 240.885 329.206 240.945C329.325 241.064 329.391 241.226 329.391 241.395C329.391 241.563 329.325 241.725 329.206 241.845L326.358 244.692C326.24 244.81 326.079 244.877 325.912 244.878Z" fill="#FFC0C1"/>
<path d="M367.152 120.776C363.854 131.467 349.733 152.397 346.746 161.149H318.506C315.52 152.397 302.487 131.467 298.306 120.776C293.121 107.518 298.514 90.2851 313.078 90.2852C325.103 90.2852 330.736 110.142 332.317 120.776C333.898 110.142 339.944 90.2852 351.556 90.2852C366.12 90.2852 371.349 107.173 367.152 120.776Z" fill="white"/>
<path d="M281.565 181.599C281.565 203.115 305.159 210.25 333.834 210.25C362.51 210.25 386.277 203.115 386.277 181.599C386.277 144.912 362.51 132.334 333.834 132.334C305.159 132.334 281.565 143.165 281.565 181.599Z" fill="white"/>
<path d="M353.301 175.207V181.803" stroke="#123041" stroke-width="6.18379" stroke-linecap="round"/>
<path d="M303.418 175.207V181.803" stroke="#123041" stroke-width="6.18379" stroke-linecap="round"/>
<path d="M365.668 191.285H359.484" stroke="#FFC0C1" stroke-width="8.24505" stroke-linecap="round"/>
<path d="M297.238 191.285H291.054" stroke="#FFC0C1" stroke-width="8.24505" stroke-linecap="round"/>
<path d="M321.556 192.3C321.556 196.015 321.556 197.883 328.358 197.883C335.16 197.883 335.16 196.347 335.16 192.3C335.16 188.253 332.115 181.805 328.358 181.805C324.601 181.805 321.556 188.585 321.556 192.3Z" fill="#FFC0C1"/>
<path fill-rule="evenodd" clip-rule="evenodd" d="M334.158 187.578C332.961 184.547 330.813 181.803 328.362 181.803C325.944 181.803 323.82 184.612 322.614 187.605C324.245 188.366 326.224 188.811 328.357 188.811C330.516 188.811 332.517 188.355 334.158 187.578Z" fill="#E7EAEE"/>
<path d="M330.043 176.033C329.234 176.033 328.863 176.371 328.357 176.708C327.852 176.371 327.481 176.033 326.672 176.033C325.66 176.033 325.073 177.093 325.323 177.72C325.66 178.563 326.896 179.406 328.357 179.743C329.818 179.406 331.054 178.563 331.392 177.72C331.642 177.093 331.055 176.033 330.043 176.033Z" fill="#FFC0C1"/>
<g clip-path="url(#clip3_2216_1734)">
<path d="M305.379 206.107C305.557 206.385 305.792 206.496 305.887 206.516L314.995 202.391L322.545 195.836C322.566 195.741 322.563 195.482 322.385 195.204C322.162 194.857 321.793 193.135 320.988 193.407C320.182 193.678 319.822 194.644 318.781 195.311C317.739 195.979 317.343 195.743 315.782 196.744C314.22 197.746 313.922 198.427 312.881 199.094C311.84 199.762 311.097 199.748 309.882 200.527C308.667 201.306 307.849 202.32 306.807 202.988C305.766 203.655 304.912 203.469 304.329 204.087C303.746 204.706 305.157 205.76 305.379 206.107Z" fill="#E48174"/>
<path d="M319.394 227.973C319.216 227.695 319.213 227.436 319.234 227.341L326.784 220.786L335.892 216.661C335.987 216.681 336.222 216.792 336.4 217.07C336.622 217.417 338.033 218.471 337.45 219.09C336.867 219.709 335.839 219.633 334.798 220.3C333.757 220.968 333.806 221.426 332.244 222.428C330.682 223.429 329.939 223.415 328.898 224.083C327.857 224.751 327.559 225.431 326.344 226.21C325.13 226.989 323.866 227.309 322.825 227.977C321.784 228.644 321.596 229.499 320.791 229.77C319.986 230.042 319.617 228.32 319.394 227.973Z" fill="#E48174"/>
<path d="M313.985 200.835C310.73 202.922 305.941 206.238 305.879 206.522C305.844 206.68 306.314 208.094 307.441 210.418C308.348 212.285 310.372 214.295 312.206 217.157C314.04 220.018 315.031 222.691 316.349 224.294C317.99 226.288 319.079 227.306 319.237 227.34C319.522 227.402 324.533 224.434 327.789 222.347C331.044 220.26 335.834 216.945 335.895 216.66C335.93 216.5 335.484 215.11 334.341 212.759C333.445 210.915 331.417 208.929 329.559 206.031C327.701 203.133 326.735 200.467 325.433 198.883C323.773 196.862 322.697 195.877 322.537 195.842C322.252 195.779 317.241 198.748 313.985 200.835Z" fill="#FFC0C1"/>
<g filter="url(#filter0_d_2216_1734)">
<path d="M324.17 220.566C320.533 221.305 317.011 219.498 317.973 216.988C318.935 214.479 320.718 215.588 323.06 215.111C325.403 214.635 326.693 213.322 328.073 214.934C329.453 216.547 327.806 219.826 324.17 220.566Z" fill="#FFC53D"/>
</g>
<g filter="url(#filter1_d_2216_1734)">
<path d="M326.766 213.622C325.665 216.474 322.847 218.115 321.532 216.333C320.218 214.552 321.779 213.807 322.489 211.97C323.198 210.132 322.86 208.654 324.591 208.412C326.323 208.171 327.868 210.77 326.766 213.622Z" fill="#FFC53D"/>
</g>
<g filter="url(#filter2_d_2216_1734)">
<path d="M317.282 212.835C314.338 213.689 311.316 212.439 311.939 210.308C312.562 208.177 314.104 208.97 316.001 208.42C317.898 207.87 318.871 206.702 320.116 207.936C321.36 209.171 320.226 211.982 317.282 212.835Z" fill="#FFC53D"/>
</g>
</g>
<g clip-path="url(#clip4_2216_1734)">
<path d="M347.355 198.455L347.984 199.597L349.323 200.274L350.103 201.556L351.443 202.232L351.92 203.235L353.411 204.051L351.569 205.437L346.119 200.4L347.355 198.455Z" fill="#DAA427"/>
<path d="M336.902 221.916L336.274 220.774L334.934 220.097L334.155 218.815L332.815 218.139L332.338 217.136L330.847 216.32L332.689 214.935L338.139 219.971L336.902 221.916Z" fill="#DAA427"/>
<rect x="346.098" y="199.818" width="8.24505" height="20.6126" rx="0.824505" transform="rotate(42.7435 346.098 199.818)" fill="#FFC53D"/>
<path fill-rule="evenodd" clip-rule="evenodd" d="M342.047 206.57C341.996 206.743 341.921 207.173 342.028 207.515C342.089 207.714 342.274 207.875 342.472 208.047C342.701 208.246 342.948 208.46 343.043 208.766C343.185 209.223 342.958 209.837 342.826 210.086C342.784 210.099 342.741 210.113 342.696 210.127L347.577 208.611C347.794 208.544 347.916 208.313 347.848 208.095L347.028 205.454C346.96 205.237 346.729 205.115 346.512 205.183L342.047 206.57Z" fill="#935F3A"/>
<path d="M339.283 211.061C338.933 210.982 338.597 210.701 338.473 210.571L337.418 215.239C337.385 215.385 337.497 215.564 337.643 215.597L340.561 216.257C340.707 216.29 340.886 216.177 340.919 216.031L341.909 211.655C341.758 211.416 341.34 210.913 340.874 210.807C340.29 210.675 339.72 211.16 339.283 211.061Z" fill="#935F3A"/>
</g>
<g clip-path="url(#clip5_2216_1734)">
<path d="M328.012 197.392C328.711 197.339 331.373 197.389 334.2 197.737C337.176 198.102 339.25 198.634 340.287 198.9" stroke="#6DA442" stroke-width="1.23676" stroke-linecap="round"/>
<path d="M325.546 217.44C326.212 217.661 328.807 218.256 331.634 218.604C334.61 218.969 336.751 218.956 337.822 218.949" stroke="#6DA442" stroke-width="1.23676" stroke-linecap="round"/>
<path d="M327.02 198.717C327.092 198.126 327.575 197.678 328.17 197.685C329.259 197.698 331.23 197.785 334.151 198.144C337.073 198.503 339.006 198.896 340.066 199.147C340.645 199.284 341.004 199.836 340.932 200.427L338.821 217.604C338.748 218.202 338.255 218.654 337.652 218.646C336.531 218.629 334.519 218.541 331.688 218.193C328.856 217.845 326.883 217.444 325.791 217.188C325.204 217.051 324.836 216.492 324.909 215.895L327.02 198.717Z" fill="#AFD157"/>
<mask id="mask0_2216_1734" style="mask-type:alpha" maskUnits="userSpaceOnUse" x="324" y="197" width="17" height="22">
<path d="M327.012 198.719C327.085 198.128 327.567 197.68 328.162 197.687C329.251 197.7 331.222 197.787 334.143 198.146C337.065 198.505 338.998 198.898 340.058 199.149C340.637 199.286 340.997 199.838 340.924 200.429L338.813 217.606C338.74 218.204 338.247 218.656 337.645 218.648C336.523 218.631 334.511 218.543 331.68 218.195C328.848 217.847 326.875 217.446 325.783 217.19C325.197 217.053 324.828 216.494 324.901 215.897L327.012 198.719Z" fill="#AFD157"/>
</mask>
<g mask="url(#mask0_2216_1734)">
<path d="M333.864 213.894C337.159 212.43 338.927 201.432 338.941 196.242L343.083 196.336L342.676 221.622L323.344 220.077C322.427 217.403 321.534 212.836 323.868 214.119C326.786 215.724 331.758 214.83 333.864 213.894Z" fill="#A0C248"/>
</g>
<path d="M328.836 200.814L327.78 209.407" stroke="#C4E0AE" stroke-width="1.23676" stroke-linecap="round"/>
<path d="M327.527 211.453L327.377 212.68" stroke="#C4E0AE" stroke-width="1.23676" stroke-linecap="round"/>
<circle cx="335.638" cy="214.734" r="2.26697" transform="rotate(7.00501 335.638 214.734)" fill="#CCF2C2"/>
<path d="M333.801 214.507C333.926 213.49 334.852 212.767 335.868 212.892" stroke="white" stroke-width="0.329802" stroke-linecap="round" stroke-dasharray="0.41 0.41 0.82 0.82"/>
<circle cx="333.736" cy="209.932" r="1.44262" transform="rotate(7.00501 333.736 209.932)" fill="#CCF2C2"/>
<path d="M332.714 209.809C332.784 209.243 333.298 208.841 333.864 208.911" stroke="white" stroke-width="0.247351" stroke-linecap="round" stroke-dasharray="0.41 0.62 0.82 0.82"/>
<circle cx="337.721" cy="207.928" r="1.03044" transform="rotate(7.00501 337.721 207.928)" fill="#CCF2C2"/>
<path d="M337.108 207.854C337.15 207.515 337.459 207.274 337.798 207.316" stroke="white" stroke-width="0.164901" stroke-linecap="round" stroke-dasharray="0.41 0.82 0.82 0.82"/>
<path d="M333.685 208.679L334.095 208.73L334.044 209.139L333.814 209.319L333.43 209.064L333.685 208.679Z" fill="#CCF2C2"/>
<path d="M337.617 207.086L338.027 207.136L337.976 207.546L337.542 207.7L337.592 207.291L337.617 207.086Z" fill="#CCF2C2"/>
<path d="M335.687 212.664L336.096 212.714L336.021 213.328L335.586 213.483L335.252 212.818L335.687 212.664Z" fill="#CCF2C2"/>
</g>
<path d="M338.226 223.768C342.924 228.864 355.834 223.071 360.719 218.701C363.5 216.214 363.276 212.344 360.748 210.953C355.966 208.321 348.909 209.396 342.992 208.807C336.168 208.129 329.199 213.976 338.226 223.768Z" fill="#E7EAEE"/>
<path d="M297.33 213.628C298.217 208.582 304.079 206.233 310.357 207.336C316.636 208.439 320.954 212.577 320.068 217.622C319.182 222.668 313.426 226.711 307.147 225.607C300.868 224.504 296.444 218.673 297.33 213.628Z" fill="#E7EAEE"/>
</g>
<g clip-path="url(#clip6_2216_1734)">
<path d="M138.137 268.153C141.094 266.944 143.973 250.836 143.389 242.816L114.989 247.349C114.405 253.857 114.366 267.13 115.767 268.153C117.518 269.431 134.441 269.664 138.137 268.153Z" fill="#FFC532"/>
<path d="M157.661 226.47C147.412 229.384 132.664 219.48 126.571 214.164C126.337 213.28 126.113 211.07 127.097 209.295C128.327 207.077 153.818 208.103 159.621 209.397C165.425 210.692 170.471 222.828 157.661 226.47Z" fill="#FFC532"/>
<path d="M140.357 250.31C149.196 244.432 137.247 207.766 128.614 203.148C119.98 198.53 105.938 199.23 99.7713 203.148C93.6045 207.067 78.3653 244.292 87.2043 250.31C96.0434 256.328 131.517 256.188 140.357 250.31Z" fill="#FFDB40"/>
<path d="M67.0119 230.851C67.0636 230.629 67.2852 230.491 67.507 230.543L91.6079 236.162C91.679 236.179 91.7444 236.214 91.7975 236.264L94.848 239.147C95.0775 239.364 94.988 239.747 94.6863 239.84L90.6753 241.077C90.6056 241.098 90.5314 241.101 90.4603 241.084L66.3593 235.465C66.1376 235.413 65.9997 235.192 66.0514 234.97L67.0119 230.851Z" fill="#FFC53D"/>
<path d="M89.8436 268.153C86.8869 266.944 84.008 250.836 84.5916 242.816L112.992 247.349C113.575 253.857 113.614 267.13 112.214 268.153C110.463 269.431 93.5395 269.664 89.8436 268.153Z" fill="#FFDB40"/>
<path d="M69.3054 228.721C71.3234 218.259 86.8111 209.557 94.3027 206.514C95.1972 206.703 97.2712 207.499 98.4121 209.178C99.8382 211.276 87.4335 233.568 83.6622 238.166C79.8909 242.763 66.7829 241.798 69.3054 228.721Z" fill="#FFDB40"/>
<path d="M116.076 244.876C116.161 244.876 116.245 244.86 116.323 244.828C116.402 244.796 116.473 244.749 116.533 244.69L119.396 241.81C119.501 241.688 119.557 241.53 119.55 241.369C119.544 241.208 119.477 241.055 119.362 240.941C119.248 240.827 119.094 240.761 118.932 240.754C118.77 240.748 118.612 240.803 118.489 240.908L115.619 243.756C115.559 243.815 115.511 243.886 115.479 243.964C115.446 244.042 115.429 244.126 115.429 244.21C115.429 244.295 115.446 244.378 115.479 244.456C115.511 244.534 115.559 244.605 115.619 244.664C115.677 244.728 115.748 244.78 115.826 244.816C115.905 244.853 115.99 244.873 116.076 244.876Z" fill="#FFB132"/>
<path d="M118.909 244.876C118.993 244.876 119.076 244.86 119.154 244.828C119.232 244.796 119.302 244.75 119.362 244.69C119.422 244.631 119.469 244.561 119.502 244.483C119.534 244.405 119.551 244.321 119.551 244.237C119.551 244.153 119.534 244.069 119.502 243.992C119.469 243.914 119.422 243.843 119.362 243.784L116.521 240.943C116.462 240.883 116.391 240.835 116.313 240.803C116.236 240.771 116.152 240.754 116.068 240.754C115.984 240.754 115.9 240.771 115.822 240.803C115.745 240.835 115.674 240.883 115.615 240.943C115.496 241.062 115.429 241.224 115.429 241.393C115.429 241.562 115.496 241.723 115.615 241.843L118.462 244.69C118.581 244.808 118.741 244.875 118.909 244.876Z" fill="#FFB132"/>
<path d="M163.661 181.185C163.661 202.701 140.068 209.836 111.392 209.836C82.7164 209.836 58.9492 202.701 58.9492 181.185C58.9492 144.498 82.7164 131.92 111.392 131.92C140.068 131.92 163.661 142.751 163.661 181.185Z" fill="#FFDB40"/>
<path d="M77.5039 191.695H83.6877" stroke="#FCA18E" stroke-width="8.24505" stroke-linecap="round"/>
<path d="M145.938 191.695H152.121" stroke="#FCA18E" stroke-width="8.24505" stroke-linecap="round"/>
<path d="M89.8711 176.855V183.452" stroke="#123041" stroke-width="6.18379" stroke-linecap="round"/>
<path d="M139.754 176.855V183.452" stroke="#123041" stroke-width="6.18379" stroke-linecap="round"/>
<path d="M125.322 186.337C125.322 190.094 120.615 191.696 114.809 191.696C109.003 191.696 104.297 190.094 104.297 186.337C104.297 182.58 109.003 178.092 114.809 178.092C120.615 178.092 125.322 182.58 125.322 186.337Z" fill="#FFB132"/>
<path d="M103.58 117.582C109.833 123.128 113.426 129.347 114.489 135.008L103.483 133.834C98.9518 133.351 94.6108 128.01 94.8111 121.526C95.0115 115.042 100.399 114.762 103.58 117.582Z" fill="#FFDB40"/>
<path d="M115.068 126.342C113.121 128.243 112.629 132.386 112.626 134.22C116.398 133.872 122.727 132.712 123.862 130.297C124.997 127.881 124.289 124.878 122.907 124.162C121.525 123.447 117.502 123.965 115.068 126.342Z" fill="#FFDB40"/>
<path d="M176.855 200.146C172.939 198.291 168.817 200.146 165.931 199.528C164.287 199.176 162.221 199.528 158.716 197.879C158.304 205.299 157.48 207.155 157.48 209.216C157.48 212.816 157.892 216.636 157.48 220.553C159.541 221.377 161.442 221.583 164.076 221.583C167.722 221.583 171.908 220.553 176.855 221.171C176.855 214.781 176.031 215.412 176.031 211.071C176.031 206.661 176.855 204.887 176.855 200.146Z" fill="#FFE8AD"/>
</g>
<defs>
<filter id="filter0_d_2216_1734" x="317.812" y="214.154" width="11.1583" height="6.99038" filterUnits="userSpaceOnUse" color-interpolation-filters="sRGB">
<feFlood flood-opacity="0" result="BackgroundImageFix"/>
<feColorMatrix in="SourceAlpha" type="matrix" values="0 0 0 0 0 0 0 0 0 0 0 0 0 0 0 0 0 0 127 0" result="hardAlpha"/>
<feOffset dx="0.412252" dy="0.412252"/>
<feComposite in2="hardAlpha" operator="out"/>
<feColorMatrix type="matrix" values="0 0 0 0 0.822493 0 0 0 0 0.503639 0 0 0 0 0.129331 0 0 0 1 0"/>
<feBlend mode="normal" in2="BackgroundImageFix" result="effect1_dropShadow_2216_1734"/>
<feBlend mode="normal" in="SourceGraphic" in2="effect1_dropShadow_2216_1734" result="shape"/>
</filter>
<filter id="filter1_d_2216_1734" x="321.023" y="208.396" width="6.52553" height="9.08999" filterUnits="userSpaceOnUse" color-interpolation-filters="sRGB">
<feFlood flood-opacity="0" result="BackgroundImageFix"/>
<feColorMatrix in="SourceAlpha" type="matrix" values="0 0 0 0 0 0 0 0 0 0 0 0 0 0 0 0 0 0 127 0" result="hardAlpha"/>
<feOffset dx="0.412253" dy="0.412253"/>
<feComposite in2="hardAlpha" operator="out"/>
<feColorMatrix type="matrix" values="0 0 0 0 0.822493 0 0 0 0 0.503639 0 0 0 0 0.129331 0 0 0 1 0"/>
<feBlend mode="normal" in2="BackgroundImageFix" result="effect1_dropShadow_2216_1734"/>
<feBlend mode="normal" in="SourceGraphic" in2="effect1_dropShadow_2216_1734" result="shape"/>
</filter>
<filter id="filter2_d_2216_1734" x="311.857" y="207.391" width="9.17006" height="6.12905" filterUnits="userSpaceOnUse" color-interpolation-filters="sRGB">
<feFlood flood-opacity="0" result="BackgroundImageFix"/>
<feColorMatrix in="SourceAlpha" type="matrix" values="0 0 0 0 0 0 0 0 0 0 0 0 0 0 0 0 0 0 127 0" result="hardAlpha"/>
<feOffset dx="0.412252" dy="0.412252"/>
<feComposite in2="hardAlpha" operator="out"/>
<feColorMatrix type="matrix" values="0 0 0 0 0.822493 0 0 0 0 0.503639 0 0 0 0 0.129331 0 0 0 1 0"/>
<feBlend mode="normal" in2="BackgroundImageFix" result="effect1_dropShadow_2216_1734"/>
<feBlend mode="normal" in="SourceGraphic" in2="effect1_dropShadow_2216_1734" result="shape"/>
</filter>
<linearGradient id="paint0_linear_2216_1734" x1="197.862" y1="189.284" x2="230.361" y2="234.51" gradientUnits="userSpaceOnUse">
<stop offset="0.25" stop-color="#96FFFF" stop-opacity="0"/>
<stop offset="1" stop-color="#96FFFF" stop-opacity="0.5"/>
</linearGradient>
<clipPath id="clip0_2216_1734">
<rect width="115.843" height="152.121" fill="white" transform="translate(159.129 56.8906)"/>
</clipPath>
<clipPath id="clip1_2216_1734">
<rect width="129.86" height="136.868" fill="white" transform="translate(153.359 132.746)"/>
</clipPath>
<clipPath id="clip2_2216_1734">
<rect width="134.394" height="181.803" fill="white" transform="matrix(-1 0 0 1 401.125 87.3984)"/>
</clipPath>
<clipPath id="clip3_2216_1734">
<rect width="25.1474" height="33.8047" fill="white" transform="translate(301.359 204.035) rotate(-32.6653)"/>
</clipPath>
<clipPath id="clip4_2216_1734">
<rect width="11.5431" height="27.2087" fill="white" transform="translate(347.125 196.277) rotate(42.7435)"/>
</clipPath>
<clipPath id="clip5_2216_1734">
<rect width="18.1391" height="25.1474" fill="white" transform="translate(325.445 194.584) rotate(7.00501)"/>
</clipPath>
<clipPath id="clip6_2216_1734">
<rect width="142.639" height="159.954" fill="white" transform="translate(48.6445 109.246)"/>
</clipPath>
</defs>
</svg>
