<svg width="554" height="512" viewBox="0 0 554 512" fill="none" xmlns="http://www.w3.org/2000/svg">
<rect x="25.6875" y="321.663" width="138.788" height="62.4927" rx="19.1695" fill="#123041"/>
<rect x="290.996" y="321.663" width="138.788" height="62.4927" rx="19.1695" fill="#123041"/>
<path d="M203.472 329.687C189.897 341.33 160.458 336.595 147.435 332.773C146.456 331.591 144.562 328.379 144.815 324.982C145.131 320.736 184.709 304.39 194.465 302.285C204.221 300.181 220.441 315.134 203.472 329.687Z" fill="#E7EAEE"/>
<path fill-rule="evenodd" clip-rule="evenodd" d="M192.31 196.91C186.165 195.3 179.878 198.975 178.268 205.12L168.063 244.061C166.453 250.206 170.129 256.493 176.273 258.103L210.023 266.947L198.02 312.75C197.081 316.334 199.225 320.002 202.809 320.941C206.394 321.88 210.061 319.736 211 316.151L223.003 270.349L256.752 279.193C262.896 280.804 269.183 277.128 270.793 270.983L280.998 232.042C282.609 225.897 278.933 219.61 272.788 218L192.31 196.91Z" fill="#AFD157"/>
<path d="M201.245 241.879L205.447 225.844L201.233 227.155L200.251 223.457L207.747 220.856L211.4 221.813L205.827 243.079L201.245 241.879ZM217.777 246.641C214.217 245.708 211.896 243.711 210.434 241.21L213.94 238.689C215.152 240.627 216.843 242.129 218.886 242.664C221.269 243.289 223.097 242.246 223.576 240.42C224.063 238.563 222.901 236.935 220.58 236.327C218.97 235.905 217.439 236.066 216.067 236.633L213.327 234.591L216.646 223.188L230.761 226.887L229.682 231.004L219.808 228.417L218.42 233.081C219.667 232.614 221.175 232.414 222.939 232.876C226.685 233.858 229.333 237.132 228.198 241.466C227.013 245.985 222.885 247.98 217.777 246.641ZM237.398 251.783C233.591 250.785 231.048 248.498 229.796 245.953L233.284 243.626C234.379 245.633 236.156 247.058 238.291 247.617C240.613 248.226 242.29 247.507 242.687 245.991C243.117 244.35 242.036 243.174 239.18 242.458L236.735 241.817L237.757 237.917L240.194 238.589C242.516 239.197 244.136 238.696 244.533 237.179C244.939 235.631 243.713 234.251 241.608 233.7C239.627 233.18 237.789 233.757 235.975 234.87L234.074 231.394C236.398 229.721 239.367 228.746 243.143 229.735C247.91 230.984 250.272 234.217 249.388 237.591C248.747 240.036 246.644 241.371 244.113 241.435C246.296 242.57 248.002 244.77 247.264 247.587C246.299 251.271 242.382 253.089 237.398 251.783Z" fill="#123041"/>
<path d="M158.51 423.393C163.473 421.364 168.305 394.326 167.326 380.866L119.657 388.474C118.677 399.398 118.612 421.676 120.963 423.393C123.901 425.538 152.307 425.928 158.51 423.393Z" fill="#E7EAEE"/>
<path d="M162.236 393.446C177.072 383.58 157.017 322.037 142.526 314.286C128.035 306.534 104.466 307.708 94.1149 314.286C83.7641 320.863 58.1855 383.345 73.0216 393.446C87.8576 403.546 147.4 403.311 162.236 393.446Z" fill="white"/>
<path d="M77.4468 423.393C72.484 421.364 67.6518 394.326 68.6314 380.866L116.3 388.474C117.28 399.398 117.345 421.676 114.994 423.393C112.056 425.538 83.6503 425.928 77.4468 423.393Z" fill="white"/>
<path d="M47.7453 363.715C47.4385 345.834 69.8634 326.182 81.1143 318.591C82.6485 318.591 86.3307 319.181 88.7854 321.543C91.8538 324.495 79.1966 365.402 74.594 374.258C69.9914 383.114 48.1289 386.066 47.7453 363.715Z" fill="white"/>
<path d="M155.689 372.506C155.689 390.964 139.889 395.398 120.399 395.398C100.909 395.398 85.1094 390.964 85.1094 372.506C85.1094 348.241 100.909 334.506 120.399 334.506C139.889 334.506 155.689 348.241 155.689 372.506Z" fill="#E7EAEE"/>
<path d="M121.483 384.327C121.625 384.328 121.766 384.3 121.898 384.247C122.03 384.194 122.149 384.115 122.25 384.015L127.057 379.18C127.234 378.975 127.326 378.711 127.316 378.44C127.305 378.17 127.192 377.913 127 377.722C126.808 377.531 126.55 377.418 126.278 377.408C126.006 377.398 125.74 377.49 125.534 377.666L120.716 382.447C120.615 382.546 120.535 382.665 120.48 382.796C120.425 382.927 120.397 383.068 120.397 383.209C120.397 383.351 120.425 383.492 120.48 383.623C120.535 383.753 120.615 383.872 120.716 383.972C120.814 384.08 120.932 384.166 121.063 384.227C121.195 384.288 121.338 384.322 121.483 384.327Z" fill="#FFC0C1"/>
<path d="M126.238 384.327C126.38 384.328 126.519 384.301 126.65 384.247C126.781 384.194 126.899 384.115 126.999 384.016C127.1 383.916 127.18 383.798 127.234 383.667C127.288 383.537 127.316 383.396 127.316 383.255C127.316 383.113 127.288 382.973 127.234 382.843C127.18 382.712 127.1 382.594 126.999 382.494L122.23 377.724C122.131 377.624 122.012 377.544 121.882 377.49C121.751 377.435 121.611 377.407 121.469 377.407C121.328 377.407 121.188 377.435 121.057 377.49C120.927 377.544 120.808 377.624 120.709 377.724C120.509 377.925 120.397 378.197 120.397 378.48C120.397 378.763 120.509 379.035 120.709 379.236L125.488 384.016C125.688 384.214 125.957 384.326 126.238 384.327V384.327Z" fill="#FFC0C1"/>
<path d="M57.018 176.021C62.5536 193.965 86.2562 229.095 91.2697 243.785H138.668C143.682 229.095 165.557 193.965 172.574 176.021C181.277 153.767 172.226 124.843 147.781 124.843C127.597 124.843 118.142 158.172 115.488 176.021C112.834 158.172 102.687 124.843 83.1956 124.843C58.7505 124.843 49.9739 153.188 57.018 176.021Z" fill="white"/>
<path d="M200.666 278.114C200.666 314.228 161.065 326.203 112.934 326.203C64.8027 326.203 24.9102 314.228 24.9102 278.114C24.9102 216.536 64.8027 195.424 112.934 195.424C161.065 195.424 200.666 213.604 200.666 278.114Z" fill="white"/>
<path d="M59.5078 286.775H69.8871" stroke="#FFC0C1" stroke-width="13.8391" stroke-linecap="round"/>
<path d="M174.371 286.775H184.75" stroke="#FFC0C1" stroke-width="13.8391" stroke-linecap="round"/>
<path d="M133.549 287.827C133.549 281.592 133.038 277.19 122.112 278.915C111.185 277.19 110.715 281.595 110.715 287.827C110.715 294.059 115.827 302.877 122.132 302.877C128.438 302.877 133.549 294.063 133.549 287.827Z" fill="#FFC0C1"/>
<path fill-rule="evenodd" clip-rule="evenodd" d="M133.479 285.123C130.301 285.934 126.696 286.392 122.875 286.392C118.451 286.392 114.316 285.778 110.799 284.712C111.157 279.916 112.992 277.476 122.112 278.916C131.375 277.453 133.153 280.394 133.479 285.123Z" fill="#E7EAEE"/>
<path d="M119.302 268.771C120.66 268.771 121.282 269.337 122.131 269.903C122.98 269.337 123.602 268.771 124.961 268.771C126.658 268.771 127.644 270.55 127.224 271.601C126.658 273.017 124.583 274.432 122.131 274.998C119.679 274.432 117.604 273.017 117.038 271.601C116.618 270.55 117.604 268.771 119.302 268.771Z" fill="#FFC0C1"/>
<path d="M87.4141 274.123C87.4141 274.123 85.4086 271.823 80.8964 271.823C76.3842 271.823 74.3788 274.123 74.3788 274.123" stroke="#123041" stroke-width="8.17537" stroke-linecap="round"/>
<path d="M170.609 274.123C170.609 274.123 168.604 271.823 164.092 271.823C159.58 271.823 157.574 274.123 157.574 274.123" stroke="#123041" stroke-width="8.17537" stroke-linecap="round"/>
<circle cx="171.376" cy="358.469" r="13.8021" fill="#D15757"/>
<path d="M157.574 358.086H185.178" stroke="#123041" stroke-width="3.83391" stroke-linecap="round"/>
<path d="M467.231 332.808C453.608 344.395 424.189 339.539 411.182 335.663C410.208 334.477 408.327 331.257 408.594 327.861C408.928 323.616 448.572 307.434 458.337 305.369C468.102 303.305 484.259 318.326 467.231 332.808Z" fill="#FFC532"/>
<path fill-rule="evenodd" clip-rule="evenodd" d="M465.003 199.078C459.034 196.905 452.434 199.982 450.261 205.951L436.489 243.779C434.316 249.747 437.393 256.348 443.362 258.521L476.145 270.456L459.947 314.949C458.68 318.431 460.475 322.281 463.957 323.549C467.438 324.816 471.289 323.021 472.556 319.539L488.754 275.047L521.538 286.982C527.507 289.155 534.108 286.078 536.281 280.109L550.052 242.282C552.225 236.313 549.148 229.712 543.179 227.539L465.003 199.078Z" fill="#AFD157"/>
<path d="M481.004 249.399C476.433 247.735 473.493 244.213 474.85 240.484C475.737 238.049 478.078 236.858 480.782 236.82C479.055 235.204 478.128 233.164 478.982 230.819C480.307 227.18 484.758 226.553 488.787 228.02C492.907 229.52 495.79 232.919 494.498 236.467C493.655 238.783 491.665 239.761 489.261 239.907C491.347 241.756 492.314 244.152 491.449 246.527C490.08 250.286 485.544 251.052 481.004 249.399ZM485.58 236.83C487.247 237.301 489.342 236.974 489.9 235.44C490.415 234.027 489.384 232.46 487.43 231.749C485.445 231.026 483.679 231.575 483.164 232.988C482.584 234.582 484 236.119 485.58 236.83ZM482.361 245.671C484.556 246.47 486.574 245.979 487.144 244.415C487.735 242.791 486.062 241.024 484.31 240.318C482.514 239.733 480.097 240.011 479.506 241.634C478.937 243.198 480.136 244.861 482.361 245.671ZM500.502 256.498C495.931 254.834 492.991 251.311 494.349 247.583C495.235 245.147 497.576 243.956 500.28 243.919C498.553 242.302 497.627 240.263 498.48 237.917C499.805 234.279 504.256 233.652 508.285 235.119C512.405 236.618 515.288 240.018 513.996 243.566C513.153 245.881 511.163 246.859 508.759 247.006C510.845 248.855 511.812 251.25 510.947 253.626C509.578 257.384 505.042 258.151 500.502 256.498ZM505.078 243.929C506.745 244.4 508.84 244.072 509.398 242.539C509.913 241.126 508.882 239.559 506.928 238.847C504.943 238.125 503.177 238.674 502.663 240.087C502.082 241.68 503.498 243.217 505.078 243.929ZM501.859 252.769C504.054 253.568 506.072 253.077 506.642 251.513C507.233 249.89 505.56 248.123 503.808 247.417C502.012 246.831 499.595 247.109 499.004 248.733C498.435 250.296 499.634 251.959 501.859 252.769Z" fill="#123041"/>
<path d="M423.565 423.524C428.528 421.496 433.36 394.458 432.38 380.998L384.712 388.606C383.732 399.53 383.667 421.808 386.018 423.524C388.956 425.67 417.361 426.06 423.565 423.524Z" fill="#FFC532"/>
<path d="M427.291 393.577C442.127 383.712 422.071 322.169 407.58 314.417C393.089 306.666 369.52 307.84 359.17 314.417C348.819 320.995 323.24 383.477 338.076 393.577C352.912 403.678 412.455 403.443 427.291 393.577Z" fill="#FFDB40"/>
<path d="M342.502 423.524C337.539 421.496 332.706 394.458 333.686 380.998L381.355 388.606C382.334 399.53 382.4 421.808 380.049 423.524C377.11 425.67 348.705 426.06 342.502 423.524Z" fill="#FFDB40"/>
<path d="M312.804 363.847C312.497 345.966 334.922 326.314 346.173 318.723C347.707 318.723 351.389 319.313 353.844 321.675C356.912 324.627 344.255 365.533 339.653 374.39C335.05 383.246 313.187 386.198 312.804 363.847Z" fill="#FFDB40"/>
<path d="M386.542 384.458C386.684 384.458 386.825 384.431 386.957 384.378C387.088 384.324 387.208 384.246 387.309 384.146L392.115 379.311C392.292 379.106 392.385 378.841 392.374 378.571C392.364 378.301 392.251 378.044 392.059 377.853C391.866 377.661 391.608 377.549 391.337 377.539C391.065 377.528 390.799 377.62 390.592 377.796L385.775 382.577C385.674 382.677 385.593 382.796 385.539 382.927C385.484 383.058 385.455 383.198 385.455 383.34C385.455 383.482 385.484 383.623 385.539 383.753C385.593 383.884 385.674 384.003 385.775 384.103C385.872 384.21 385.99 384.297 386.122 384.358C386.254 384.419 386.397 384.453 386.542 384.458Z" fill="#FFBB4D"/>
<path d="M391.297 384.458C391.438 384.458 391.578 384.431 391.709 384.378C391.839 384.325 391.958 384.246 392.058 384.147C392.158 384.047 392.238 383.929 392.293 383.798C392.347 383.667 392.375 383.527 392.375 383.386C392.375 383.244 392.347 383.104 392.293 382.974C392.238 382.843 392.158 382.724 392.058 382.625L387.289 377.855C387.189 377.755 387.071 377.675 386.94 377.621C386.81 377.566 386.669 377.538 386.528 377.538C386.387 377.538 386.246 377.566 386.116 377.621C385.985 377.675 385.867 377.755 385.767 377.855C385.568 378.056 385.455 378.328 385.455 378.611C385.455 378.894 385.568 379.166 385.767 379.366L390.547 384.147C390.747 384.345 391.016 384.456 391.297 384.458V384.458Z" fill="#FFBB4D"/>
<path d="M466.412 277.553C466.412 313.667 426.811 325.643 378.68 325.643C330.549 325.643 290.656 313.667 290.656 277.553C290.656 215.976 330.549 194.863 378.68 194.863C426.811 194.863 466.412 213.043 466.412 277.553Z" fill="#FFDB40"/>
<path d="M321.793 286.392H332.172" stroke="#FCA18E" stroke-width="13.8391" stroke-linecap="round"/>
<path d="M436.66 286.392H447.039" stroke="#FCA18E" stroke-width="13.8391" stroke-linecap="round"/>
<path d="M402.059 286.2C402.059 292.506 394.159 295.196 384.414 295.196C374.669 295.196 366.77 292.506 366.77 286.2C366.77 279.895 374.669 272.361 384.414 272.361C394.159 272.361 402.059 279.895 402.059 286.2Z" fill="#FFBB4D"/>
<path d="M365.566 170.797C376.063 180.106 382.093 190.545 383.877 200.046L365.405 198.076C357.798 197.265 350.512 188.299 350.849 177.417C351.185 166.534 360.228 166.064 365.566 170.797Z" fill="#FFDB40"/>
<path d="M384.844 185.502C381.576 188.693 380.75 195.647 380.746 198.725C387.077 198.14 397.7 196.194 399.605 192.139C401.51 188.085 400.322 183.045 398.002 181.844C395.683 180.642 388.93 181.513 384.844 185.502Z" fill="#FFDB40"/>
<path d="M349.27 274.507C349.27 274.507 347.264 272.206 342.752 272.206C338.24 272.206 336.234 274.507 336.234 274.507" stroke="#123041" stroke-width="8.17537" stroke-linecap="round"/>
<path d="M432.465 274.507C432.465 274.507 430.459 272.206 425.947 272.206C421.435 272.206 419.43 274.507 419.43 274.507" stroke="#123041" stroke-width="8.17537" stroke-linecap="round"/>
<circle cx="433.232" cy="358.469" r="13.8021" fill="#D15757"/>
<path d="M419.43 358.086H447.034" stroke="#123041" stroke-width="3.83391" stroke-linecap="round"/>
<rect x="8.43359" y="378.022" width="537.131" height="133.037" fill="#173A52"/>
<rect y="358.469" width="554" height="19.5529" fill="#005271"/>
<path d="M81.872 454V436.272H75.024V432.016H93.456V436.272H86.576V454H81.872ZM101.274 437.072C105.594 437.072 108.57 439.792 108.57 444.112V454H104.058V452.336C102.874 453.648 100.986 454.384 99.162 454.384C95.642 454.384 92.954 452.272 92.954 449.104C92.954 445.84 95.994 443.6 99.802 443.6C101.146 443.6 102.65 443.888 104.058 444.464V444.112C104.058 442.352 102.938 440.816 100.218 440.816C98.682 440.816 97.242 441.328 95.93 442L94.362 438.896C96.698 437.712 98.97 437.072 101.274 437.072ZM100.218 451.152C102.01 451.152 103.706 450.32 104.058 448.784V447.28C103.002 446.864 101.754 446.64 100.474 446.64C98.778 446.64 97.402 447.632 97.402 448.976C97.402 450.32 98.618 451.152 100.218 451.152ZM122.224 437.072C126.64 437.072 129.808 440.656 129.808 445.712C129.808 450.8 126.64 454.384 122.224 454.384C119.92 454.384 117.968 453.36 116.656 451.664V454H111.984V431.632H116.656V439.792C117.968 438.096 119.92 437.072 122.224 437.072ZM120.88 450.448C123.44 450.448 125.264 448.496 125.264 445.712C125.264 442.96 123.44 441.008 120.88 441.008C118.384 441.008 116.656 442.96 116.656 445.712C116.656 448.496 118.384 450.448 120.88 450.448ZM132.734 454V431.632H137.406V454H132.734ZM148.911 450.768C150.415 450.768 152.143 450.096 153.199 449.136L155.823 451.824C154.351 453.36 151.503 454.384 149.071 454.384C144.143 454.384 140.207 450.768 140.207 445.68C140.207 440.688 143.983 437.072 148.815 437.072C153.999 437.072 157.135 440.816 157.135 446.96H144.655C145.071 449.2 146.639 450.768 148.911 450.768ZM148.847 440.688C146.767 440.688 145.199 442.064 144.687 444.176H152.655C152.271 442.128 150.959 440.688 148.847 440.688ZM176.387 454.416C172.707 454.416 169.955 453.072 167.907 451.024L170.659 447.696C172.323 449.264 174.339 450.288 176.451 450.288C178.915 450.288 180.419 448.816 180.419 446.928C180.419 445.008 178.883 443.728 176.483 443.728C174.819 443.728 173.379 444.272 172.195 445.168L169.027 443.888L169.347 432.016H183.939V436.272H173.731L173.571 441.136C174.659 440.368 176.067 439.792 177.891 439.792C181.763 439.792 185.155 442.288 185.155 446.768C185.155 451.44 181.667 454.416 176.387 454.416ZM198.175 454.384C192.351 454.384 188.287 449.68 188.287 442.992C188.287 436.336 192.351 431.632 198.175 431.632C203.935 431.632 208.031 436.336 208.031 442.992C208.031 449.68 203.935 454.384 198.175 454.384ZM198.175 450.096C201.119 450.096 203.167 447.12 203.167 442.992C203.167 438.864 201.119 435.92 198.175 435.92C195.199 435.92 193.119 438.864 193.119 442.992C193.119 447.12 195.199 450.096 198.175 450.096Z" fill="url(#paint0_linear_2492_273)"/>
<path d="M332.872 454V436.272H326.024V432.016H344.456V436.272H337.576V454H332.872ZM352.274 437.072C356.594 437.072 359.57 439.792 359.57 444.112V454H355.058V452.336C353.874 453.648 351.986 454.384 350.162 454.384C346.642 454.384 343.954 452.272 343.954 449.104C343.954 445.84 346.994 443.6 350.802 443.6C352.146 443.6 353.65 443.888 355.058 444.464V444.112C355.058 442.352 353.938 440.816 351.218 440.816C349.682 440.816 348.242 441.328 346.93 442L345.362 438.896C347.698 437.712 349.97 437.072 352.274 437.072ZM351.218 451.152C353.01 451.152 354.706 450.32 355.058 448.784V447.28C354.002 446.864 352.754 446.64 351.474 446.64C349.778 446.64 348.402 447.632 348.402 448.976C348.402 450.32 349.618 451.152 351.218 451.152ZM373.224 437.072C377.64 437.072 380.808 440.656 380.808 445.712C380.808 450.8 377.64 454.384 373.224 454.384C370.92 454.384 368.968 453.36 367.656 451.664V454H362.984V431.632H367.656V439.792C368.968 438.096 370.92 437.072 373.224 437.072ZM371.88 450.448C374.44 450.448 376.264 448.496 376.264 445.712C376.264 442.96 374.44 441.008 371.88 441.008C369.384 441.008 367.656 442.96 367.656 445.712C367.656 448.496 369.384 450.448 371.88 450.448ZM383.734 454V431.632H388.406V454H383.734ZM399.911 450.768C401.415 450.768 403.143 450.096 404.199 449.136L406.823 451.824C405.351 453.36 402.503 454.384 400.071 454.384C395.143 454.384 391.207 450.768 391.207 445.68C391.207 440.688 394.983 437.072 399.815 437.072C404.999 437.072 408.135 440.816 408.135 446.96H395.655C396.071 449.2 397.639 450.768 399.911 450.768ZM399.847 440.688C397.767 440.688 396.199 442.064 395.687 444.176H403.655C403.271 442.128 401.959 440.688 399.847 440.688ZM427.387 454.416C423.707 454.416 420.955 453.072 418.907 451.024L421.659 447.696C423.323 449.264 425.339 450.288 427.451 450.288C429.915 450.288 431.419 448.816 431.419 446.928C431.419 445.008 429.883 443.728 427.483 443.728C425.819 443.728 424.379 444.272 423.195 445.168L420.027 443.888L420.347 432.016H434.939V436.272H424.731L424.571 441.136C425.659 440.368 427.067 439.792 428.891 439.792C432.763 439.792 436.155 442.288 436.155 446.768C436.155 451.44 432.667 454.416 427.387 454.416ZM444.407 454V437.424L440.663 439.76L438.775 436.432L445.367 432.016H449.143V454H444.407Z" fill="url(#paint1_linear_2492_273)"/>
<rect x="34" width="485" height="83" rx="15" fill="#005271"/>
<path d="M63.852 53V35.08H58.308V32.14H72.588V35.08H67.128V53H63.852ZM80.4536 53.336C78.9416 53.336 77.5976 52.9907 76.4216 52.3C75.2643 51.5907 74.3589 50.6387 73.7056 49.444C73.0523 48.2307 72.7256 46.8773 72.7256 45.384C72.7256 43.8533 73.0523 42.5 73.7056 41.324C74.3776 40.148 75.2736 39.224 76.3936 38.552C77.5136 37.8613 78.7829 37.516 80.2016 37.516C81.3403 37.516 82.3576 37.712 83.2536 38.104C84.1496 38.496 84.9056 39.0373 85.5216 39.728C86.1376 40.4 86.6043 41.1747 86.9216 42.052C87.2576 42.9293 87.4256 43.8627 87.4256 44.852C87.4256 45.0947 87.4163 45.3467 87.3976 45.608C87.3789 45.8693 87.3416 46.112 87.2856 46.336H75.2176V43.816H85.4936L83.9816 44.964C84.1683 44.0493 84.1029 43.2373 83.7856 42.528C83.4869 41.8 83.0203 41.2307 82.3856 40.82C81.7696 40.3907 81.0416 40.176 80.2016 40.176C79.3616 40.176 78.6149 40.3907 77.9616 40.82C77.3083 41.2307 76.8043 41.828 76.4496 42.612C76.0949 43.3773 75.9549 44.3107 76.0296 45.412C75.9363 46.4387 76.0763 47.3347 76.4496 48.1C76.8416 48.8653 77.3829 49.4627 78.0736 49.892C78.7829 50.3213 79.5856 50.536 80.4816 50.536C81.3963 50.536 82.1709 50.3307 82.8056 49.92C83.4589 49.5093 83.9723 48.9773 84.3456 48.324L86.9216 49.584C86.6229 50.2933 86.1563 50.9373 85.5216 51.516C84.9056 52.076 84.1589 52.524 83.2816 52.86C82.4229 53.1773 81.4803 53.336 80.4536 53.336ZM95.4728 53.336C94.4461 53.336 93.5408 53.1587 92.7568 52.804C91.9914 52.4307 91.3941 51.9267 90.9648 51.292C90.5354 50.6387 90.3208 49.8733 90.3208 48.996C90.3208 48.1747 90.4981 47.4373 90.8528 46.784C91.2261 46.1307 91.7954 45.58 92.5608 45.132C93.3261 44.684 94.2874 44.3667 95.4448 44.18L100.709 43.312V45.804L96.0608 46.616C95.2208 46.7653 94.6048 47.036 94.2128 47.428C93.8208 47.8013 93.6248 48.2867 93.6248 48.884C93.6248 49.4627 93.8394 49.9387 94.2688 50.312C94.7168 50.6667 95.2861 50.844 95.9768 50.844C96.8354 50.844 97.5821 50.6573 98.2168 50.284C98.8701 49.9107 99.3741 49.416 99.7288 48.8C100.083 48.1653 100.261 47.4653 100.261 46.7V42.808C100.261 42.0613 99.9808 41.4547 99.4208 40.988C98.8794 40.5027 98.1514 40.26 97.2368 40.26C96.3968 40.26 95.6594 40.484 95.0248 40.932C94.4088 41.3613 93.9514 41.9213 93.6528 42.612L91.0208 41.296C91.3008 40.5493 91.7581 39.896 92.3928 39.336C93.0274 38.7573 93.7648 38.3093 94.6048 37.992C95.4634 37.6747 96.3688 37.516 97.3208 37.516C98.5154 37.516 99.5701 37.74 100.485 38.188C101.418 38.636 102.137 39.2613 102.641 40.064C103.163 40.848 103.425 41.7627 103.425 42.808V53H100.401V50.256L101.045 50.34C100.69 50.956 100.233 51.488 99.6728 51.936C99.1314 52.384 98.5061 52.7293 97.7968 52.972C97.1061 53.2147 96.3314 53.336 95.4728 53.336ZM107.684 53V37.852H110.708V41.128L110.316 40.624C110.634 39.5973 111.212 38.8227 112.052 38.3C112.892 37.7773 113.854 37.516 114.936 37.516C116.15 37.516 117.223 37.8427 118.156 38.496C119.108 39.1307 119.743 39.98 120.06 41.044L119.164 41.128C119.612 39.9147 120.294 39.0093 121.208 38.412C122.142 37.8147 123.206 37.516 124.4 37.516C125.446 37.516 126.388 37.7587 127.228 38.244C128.087 38.7293 128.768 39.4013 129.272 40.26C129.776 41.1187 130.028 42.0987 130.028 43.2V53H126.864V44.068C126.864 43.3027 126.724 42.6587 126.444 42.136C126.183 41.5947 125.81 41.184 125.324 40.904C124.858 40.6053 124.307 40.456 123.672 40.456C123.038 40.456 122.478 40.6053 121.992 40.904C121.507 41.184 121.124 41.5947 120.844 42.136C120.564 42.6773 120.424 43.3213 120.424 44.068V53H117.288V44.068C117.288 43.3027 117.148 42.6587 116.868 42.136C116.607 41.5947 116.234 41.184 115.748 40.904C115.282 40.6053 114.722 40.456 114.068 40.456C113.434 40.456 112.874 40.6053 112.388 40.904C111.903 41.184 111.52 41.5947 111.24 42.136C110.979 42.6773 110.848 43.3213 110.848 44.068V53H107.684ZM139.737 53V32.14H142.397L154.101 48.296L152.841 48.492V32.14H156.117V53H153.457L141.837 36.732L143.041 36.508V53H139.737ZM166.092 53.336C164.954 53.336 163.955 53.084 163.096 52.58C162.238 52.0573 161.566 51.3387 161.08 50.424C160.614 49.4907 160.38 48.4173 160.38 47.204V37.852H163.544V46.924C163.544 47.6147 163.684 48.2213 163.964 48.744C164.244 49.2667 164.636 49.6773 165.14 49.976C165.644 50.256 166.223 50.396 166.876 50.396C167.548 50.396 168.136 50.2467 168.64 49.948C169.144 49.6493 169.536 49.2293 169.816 48.688C170.115 48.1467 170.264 47.512 170.264 46.784V37.852H173.4V53H170.404V50.032L170.74 50.424C170.386 51.3573 169.798 52.076 168.976 52.58C168.155 53.084 167.194 53.336 166.092 53.336ZM177.655 53V37.852H180.679V41.128L180.287 40.624C180.604 39.5973 181.183 38.8227 182.023 38.3C182.863 37.7773 183.824 37.516 184.907 37.516C186.12 37.516 187.193 37.8427 188.127 38.496C189.079 39.1307 189.713 39.98 190.031 41.044L189.135 41.128C189.583 39.9147 190.264 39.0093 191.179 38.412C192.112 37.8147 193.176 37.516 194.371 37.516C195.416 37.516 196.359 37.7587 197.199 38.244C198.057 38.7293 198.739 39.4013 199.243 40.26C199.747 41.1187 199.999 42.0987 199.999 43.2V53H196.835V44.068C196.835 43.3027 196.695 42.6587 196.415 42.136C196.153 41.5947 195.78 41.184 195.295 40.904C194.828 40.6053 194.277 40.456 193.643 40.456C193.008 40.456 192.448 40.6053 191.963 40.904C191.477 41.184 191.095 41.5947 190.815 42.136C190.535 42.6773 190.395 43.3213 190.395 44.068V53H187.259V44.068C187.259 43.3027 187.119 42.6587 186.839 42.136C186.577 41.5947 186.204 41.184 185.719 40.904C185.252 40.6053 184.692 40.456 184.039 40.456C183.404 40.456 182.844 40.6053 182.359 40.904C181.873 41.184 181.491 41.5947 181.211 42.136C180.949 42.6773 180.819 43.3213 180.819 44.068V53H177.655ZM212.037 53.336C210.861 53.336 209.788 53.0933 208.817 52.608C207.865 52.1227 207.128 51.4227 206.605 50.508L206.969 49.92V53H203.945V31.804H207.109V40.988L206.605 40.26C207.165 39.4013 207.912 38.7293 208.845 38.244C209.779 37.7587 210.843 37.516 212.037 37.516C213.475 37.516 214.763 37.8613 215.901 38.552C217.059 39.2427 217.964 40.1853 218.617 41.38C219.289 42.5747 219.625 43.9187 219.625 45.412C219.625 46.9053 219.289 48.2493 218.617 49.444C217.964 50.6387 217.068 51.5907 215.929 52.3C214.791 52.9907 213.493 53.336 212.037 53.336ZM211.729 50.396C212.625 50.396 213.419 50.1813 214.109 49.752C214.8 49.3227 215.341 48.7347 215.733 47.988C216.144 47.2227 216.349 46.364 216.349 45.412C216.349 44.46 216.144 43.6107 215.733 42.864C215.341 42.1173 214.8 41.5293 214.109 41.1C213.419 40.6707 212.625 40.456 211.729 40.456C210.852 40.456 210.059 40.6707 209.349 41.1C208.659 41.5293 208.108 42.1173 207.697 42.864C207.305 43.6107 207.109 44.46 207.109 45.412C207.109 46.364 207.305 47.2227 207.697 47.988C208.108 48.7347 208.659 49.3227 209.349 49.752C210.059 50.1813 210.852 50.396 211.729 50.396ZM230.375 53.336C228.863 53.336 227.519 52.9907 226.343 52.3C225.186 51.5907 224.28 50.6387 223.627 49.444C222.974 48.2307 222.647 46.8773 222.647 45.384C222.647 43.8533 222.974 42.5 223.627 41.324C224.299 40.148 225.195 39.224 226.315 38.552C227.435 37.8613 228.704 37.516 230.123 37.516C231.262 37.516 232.279 37.712 233.175 38.104C234.071 38.496 234.827 39.0373 235.443 39.728C236.059 40.4 236.526 41.1747 236.843 42.052C237.179 42.9293 237.347 43.8627 237.347 44.852C237.347 45.0947 237.338 45.3467 237.319 45.608C237.3 45.8693 237.263 46.112 237.207 46.336H225.139V43.816H235.415L233.903 44.964C234.09 44.0493 234.024 43.2373 233.707 42.528C233.408 41.8 232.942 41.2307 232.307 40.82C231.691 40.3907 230.963 40.176 230.123 40.176C229.283 40.176 228.536 40.3907 227.883 40.82C227.23 41.2307 226.726 41.828 226.371 42.612C226.016 43.3773 225.876 44.3107 225.951 45.412C225.858 46.4387 225.998 47.3347 226.371 48.1C226.763 48.8653 227.304 49.4627 227.995 49.892C228.704 50.3213 229.507 50.536 230.403 50.536C231.318 50.536 232.092 50.3307 232.727 49.92C233.38 49.5093 233.894 48.9773 234.267 48.324L236.843 49.584C236.544 50.2933 236.078 50.9373 235.443 51.516C234.827 52.076 234.08 52.524 233.203 52.86C232.344 53.1773 231.402 53.336 230.375 53.336ZM240.995 53V37.852H244.019V40.904L243.739 40.456C244.075 39.4667 244.616 38.7573 245.363 38.328C246.11 37.88 247.006 37.656 248.051 37.656H248.975V40.54H247.659C246.614 40.54 245.764 40.8667 245.111 41.52C244.476 42.1547 244.159 43.0693 244.159 44.264V53H240.995Z" fill="#AFD157"/>
<path d="M267.004 53L261.068 37.852H264.512L269.076 50.2H267.816L272.38 37.852H275.852L269.888 53H267.004ZM284.163 53.336C282.614 53.336 281.251 52.9533 280.075 52.188C278.918 51.4227 278.106 50.396 277.639 49.108L280.075 47.96C280.486 48.8187 281.046 49.5 281.755 50.004C282.483 50.508 283.286 50.76 284.163 50.76C284.91 50.76 285.516 50.592 285.983 50.256C286.45 49.92 286.683 49.4627 286.683 48.884C286.683 48.5107 286.58 48.212 286.375 47.988C286.17 47.7453 285.908 47.5493 285.591 47.4C285.292 47.2507 284.984 47.1387 284.667 47.064L282.287 46.392C280.98 46.0187 280 45.4587 279.347 44.712C278.712 43.9467 278.395 43.06 278.395 42.052C278.395 41.1373 278.628 40.344 279.095 39.672C279.562 38.9813 280.206 38.4493 281.027 38.076C281.848 37.7027 282.772 37.516 283.799 37.516C285.18 37.516 286.412 37.8613 287.495 38.552C288.578 39.224 289.343 40.1667 289.791 41.38L287.355 42.528C287.056 41.8 286.58 41.2213 285.927 40.792C285.292 40.3627 284.574 40.148 283.771 40.148C283.08 40.148 282.53 40.316 282.119 40.652C281.708 40.9693 281.503 41.3893 281.503 41.912C281.503 42.2667 281.596 42.5653 281.783 42.808C281.97 43.032 282.212 43.2187 282.511 43.368C282.81 43.4987 283.118 43.6107 283.435 43.704L285.899 44.432C287.15 44.7867 288.111 45.3467 288.783 46.112C289.455 46.8587 289.791 47.7547 289.791 48.8C289.791 49.696 289.548 50.4893 289.063 51.18C288.596 51.852 287.943 52.384 287.103 52.776C286.263 53.1493 285.283 53.336 284.163 53.336Z" fill="white"/>
<path d="M308.364 53V35.08H302.82V32.14H317.1V35.08H311.64V53H308.364ZM322.691 53.336C321.664 53.336 320.759 53.1587 319.975 52.804C319.209 52.4307 318.612 51.9267 318.183 51.292C317.753 50.6387 317.539 49.8733 317.539 48.996C317.539 48.1747 317.716 47.4373 318.071 46.784C318.444 46.1307 319.013 45.58 319.779 45.132C320.544 44.684 321.505 44.3667 322.663 44.18L327.927 43.312V45.804L323.279 46.616C322.439 46.7653 321.823 47.036 321.431 47.428C321.039 47.8013 320.843 48.2867 320.843 48.884C320.843 49.4627 321.057 49.9387 321.487 50.312C321.935 50.6667 322.504 50.844 323.195 50.844C324.053 50.844 324.8 50.6573 325.435 50.284C326.088 49.9107 326.592 49.416 326.947 48.8C327.301 48.1653 327.479 47.4653 327.479 46.7V42.808C327.479 42.0613 327.199 41.4547 326.639 40.988C326.097 40.5027 325.369 40.26 324.455 40.26C323.615 40.26 322.877 40.484 322.243 40.932C321.627 41.3613 321.169 41.9213 320.871 42.612L318.239 41.296C318.519 40.5493 318.976 39.896 319.611 39.336C320.245 38.7573 320.983 38.3093 321.823 37.992C322.681 37.6747 323.587 37.516 324.539 37.516C325.733 37.516 326.788 37.74 327.703 38.188C328.636 38.636 329.355 39.2613 329.859 40.064C330.381 40.848 330.643 41.7627 330.643 42.808V53H327.619V50.256L328.263 50.34C327.908 50.956 327.451 51.488 326.891 51.936C326.349 52.384 325.724 52.7293 325.015 52.972C324.324 53.2147 323.549 53.336 322.691 53.336ZM342.994 53.336C341.818 53.336 340.745 53.0933 339.774 52.608C338.822 52.1227 338.085 51.4227 337.562 50.508L337.926 49.92V53H334.902V31.804H338.066V40.988L337.562 40.26C338.122 39.4013 338.869 38.7293 339.802 38.244C340.735 37.7587 341.799 37.516 342.994 37.516C344.431 37.516 345.719 37.8613 346.858 38.552C348.015 39.2427 348.921 40.1853 349.574 41.38C350.246 42.5747 350.582 43.9187 350.582 45.412C350.582 46.9053 350.246 48.2493 349.574 49.444C348.921 50.6387 348.025 51.5907 346.886 52.3C345.747 52.9907 344.45 53.336 342.994 53.336ZM342.686 50.396C343.582 50.396 344.375 50.1813 345.066 49.752C345.757 49.3227 346.298 48.7347 346.69 47.988C347.101 47.2227 347.306 46.364 347.306 45.412C347.306 44.46 347.101 43.6107 346.69 42.864C346.298 42.1173 345.757 41.5293 345.066 41.1C344.375 40.6707 343.582 40.456 342.686 40.456C341.809 40.456 341.015 40.6707 340.306 41.1C339.615 41.5293 339.065 42.1173 338.654 42.864C338.262 43.6107 338.066 44.46 338.066 45.412C338.066 46.364 338.262 47.2227 338.654 47.988C339.065 48.7347 339.615 49.3227 340.306 49.752C341.015 50.1813 341.809 50.396 342.686 50.396ZM354.22 53V31.804H357.384V53H354.22ZM368.755 53.336C367.243 53.336 365.899 52.9907 364.723 52.3C363.566 51.5907 362.66 50.6387 362.007 49.444C361.354 48.2307 361.027 46.8773 361.027 45.384C361.027 43.8533 361.354 42.5 362.007 41.324C362.679 40.148 363.575 39.224 364.695 38.552C365.815 37.8613 367.084 37.516 368.503 37.516C369.642 37.516 370.659 37.712 371.555 38.104C372.451 38.496 373.207 39.0373 373.823 39.728C374.439 40.4 374.906 41.1747 375.223 42.052C375.559 42.9293 375.727 43.8627 375.727 44.852C375.727 45.0947 375.718 45.3467 375.699 45.608C375.681 45.8693 375.643 46.112 375.587 46.336H363.519V43.816H373.795L372.283 44.964C372.47 44.0493 372.405 43.2373 372.087 42.528C371.788 41.8 371.322 41.2307 370.687 40.82C370.071 40.3907 369.343 40.176 368.503 40.176C367.663 40.176 366.916 40.3907 366.263 40.82C365.61 41.2307 365.106 41.828 364.751 42.612C364.396 43.3773 364.256 44.3107 364.331 45.412C364.238 46.4387 364.378 47.3347 364.751 48.1C365.143 48.8653 365.684 49.4627 366.375 49.892C367.084 50.3213 367.887 50.536 368.783 50.536C369.698 50.536 370.472 50.3307 371.107 49.92C371.76 49.5093 372.274 48.9773 372.647 48.324L375.223 49.584C374.924 50.2933 374.458 50.9373 373.823 51.516C373.207 52.076 372.461 52.524 371.583 52.86C370.725 53.1773 369.782 53.336 368.755 53.336ZM385.138 53V32.14H387.798L399.502 48.296L398.242 48.492V32.14H401.518V53H398.858L387.238 36.732L388.442 36.508V53H385.138ZM411.493 53.336C410.354 53.336 409.355 53.084 408.497 52.58C407.638 52.0573 406.966 51.3387 406.481 50.424C406.014 49.4907 405.781 48.4173 405.781 47.204V37.852H408.945V46.924C408.945 47.6147 409.085 48.2213 409.365 48.744C409.645 49.2667 410.037 49.6773 410.541 49.976C411.045 50.256 411.623 50.396 412.277 50.396C412.949 50.396 413.537 50.2467 414.041 49.948C414.545 49.6493 414.937 49.2293 415.217 48.688C415.515 48.1467 415.665 47.512 415.665 46.784V37.852H418.801V53H415.805V50.032L416.141 50.424C415.786 51.3573 415.198 52.076 414.377 52.58C413.555 53.084 412.594 53.336 411.493 53.336ZM423.055 53V37.852H426.079V41.128L425.687 40.624C426.004 39.5973 426.583 38.8227 427.423 38.3C428.263 37.7773 429.224 37.516 430.307 37.516C431.52 37.516 432.594 37.8427 433.527 38.496C434.479 39.1307 435.114 39.98 435.431 41.044L434.535 41.128C434.983 39.9147 435.664 39.0093 436.579 38.412C437.512 37.8147 438.576 37.516 439.771 37.516C440.816 37.516 441.759 37.7587 442.599 38.244C443.458 38.7293 444.139 39.4013 444.643 40.26C445.147 41.1187 445.399 42.0987 445.399 43.2V53H442.235V44.068C442.235 43.3027 442.095 42.6587 441.815 42.136C441.554 41.5947 441.18 41.184 440.695 40.904C440.228 40.6053 439.678 40.456 439.043 40.456C438.408 40.456 437.848 40.6053 437.363 40.904C436.878 41.184 436.495 41.5947 436.215 42.136C435.935 42.6773 435.795 43.3213 435.795 44.068V53H432.659V44.068C432.659 43.3027 432.519 42.6587 432.239 42.136C431.978 41.5947 431.604 41.184 431.119 40.904C430.652 40.6053 430.092 40.456 429.439 40.456C428.804 40.456 428.244 40.6053 427.759 40.904C427.274 41.184 426.891 41.5947 426.611 42.136C426.35 42.6773 426.219 43.3213 426.219 44.068V53H423.055ZM457.437 53.336C456.261 53.336 455.188 53.0933 454.217 52.608C453.265 52.1227 452.528 51.4227 452.005 50.508L452.369 49.92V53H449.345V31.804H452.509V40.988L452.005 40.26C452.565 39.4013 453.312 38.7293 454.245 38.244C455.179 37.7587 456.243 37.516 457.437 37.516C458.875 37.516 460.163 37.8613 461.301 38.552C462.459 39.2427 463.364 40.1853 464.017 41.38C464.689 42.5747 465.025 43.9187 465.025 45.412C465.025 46.9053 464.689 48.2493 464.017 49.444C463.364 50.6387 462.468 51.5907 461.329 52.3C460.191 52.9907 458.893 53.336 457.437 53.336ZM457.129 50.396C458.025 50.396 458.819 50.1813 459.509 49.752C460.2 49.3227 460.741 48.7347 461.133 47.988C461.544 47.2227 461.749 46.364 461.749 45.412C461.749 44.46 461.544 43.6107 461.133 42.864C460.741 42.1173 460.2 41.5293 459.509 41.1C458.819 40.6707 458.025 40.456 457.129 40.456C456.252 40.456 455.459 40.6707 454.749 41.1C454.059 41.5293 453.508 42.1173 453.097 42.864C452.705 43.6107 452.509 44.46 452.509 45.412C452.509 46.364 452.705 47.2227 453.097 47.988C453.508 48.7347 454.059 49.3227 454.749 49.752C455.459 50.1813 456.252 50.396 457.129 50.396ZM475.775 53.336C474.263 53.336 472.919 52.9907 471.743 52.3C470.586 51.5907 469.681 50.6387 469.027 49.444C468.374 48.2307 468.047 46.8773 468.047 45.384C468.047 43.8533 468.374 42.5 469.027 41.324C469.699 40.148 470.595 39.224 471.715 38.552C472.835 37.8613 474.105 37.516 475.523 37.516C476.662 37.516 477.679 37.712 478.575 38.104C479.471 38.496 480.227 39.0373 480.843 39.728C481.459 40.4 481.926 41.1747 482.243 42.052C482.579 42.9293 482.747 43.8627 482.747 44.852C482.747 45.0947 482.738 45.3467 482.719 45.608C482.701 45.8693 482.663 46.112 482.607 46.336H470.539V43.816H480.815L479.303 44.964C479.49 44.0493 479.425 43.2373 479.107 42.528C478.809 41.8 478.342 41.2307 477.707 40.82C477.091 40.3907 476.363 40.176 475.523 40.176C474.683 40.176 473.937 40.3907 473.283 40.82C472.63 41.2307 472.126 41.828 471.771 42.612C471.417 43.3773 471.277 44.3107 471.351 45.412C471.258 46.4387 471.398 47.3347 471.771 48.1C472.163 48.8653 472.705 49.4627 473.395 49.892C474.105 50.3213 474.907 50.536 475.803 50.536C476.718 50.536 477.493 50.3307 478.127 49.92C478.781 49.5093 479.294 48.9773 479.667 48.324L482.243 49.584C481.945 50.2933 481.478 50.9373 480.843 51.516C480.227 52.076 479.481 52.524 478.603 52.86C477.745 53.1773 476.802 53.336 475.775 53.336ZM486.395 53V37.852H489.419V40.904L489.139 40.456C489.475 39.4667 490.017 38.7573 490.763 38.328C491.51 37.88 492.406 37.656 493.451 37.656H494.375V40.54H493.059C492.014 40.54 491.165 40.8667 490.511 41.52C489.877 42.1547 489.559 43.0693 489.559 44.264V53H486.395Z" fill="url(#paint2_linear_2492_273)"/>
<path d="M480.403 105.012L484.749 82.627L448.416 82.4942L480.403 105.012Z" fill="#005271"/>
<defs>
<linearGradient id="paint0_linear_2492_273" x1="142" y1="429" x2="142" y2="461" gradientUnits="userSpaceOnUse">
<stop stop-color="#9EE7E5"/>
<stop offset="1" stop-color="#9EE7E5"/>
</linearGradient>
<linearGradient id="paint1_linear_2492_273" x1="388.5" y1="429" x2="388.5" y2="461" gradientUnits="userSpaceOnUse">
<stop stop-color="#9EE7E5"/>
<stop offset="1" stop-color="#9EE7E5"/>
</linearGradient>
<linearGradient id="paint2_linear_2492_273" x1="276.5" y1="24" x2="276.5" y2="59" gradientUnits="userSpaceOnUse">
<stop stop-color="#9EE7E5"/>
<stop offset="1" stop-color="#9EE7E5"/>
</linearGradient>
</defs>
</svg>
