<svg width="453" height="160" viewBox="0 0 453 160" fill="none" xmlns="http://www.w3.org/2000/svg">
<path d="M256.717 54.9742L258.347 38.6006L271.712 48.1986L256.717 54.9742Z" fill="white"/>
<path d="M251 17C251 8.16344 258.163 1 267 1L437 1C445.837 1 453 8.16344 453 17V32C453 40.8366 445.837 48 437 48H267C258.163 48 251 40.8366 251 32V17Z" fill="white"/>
<path d="M269.418 31.5L265.566 18.09H267.024L270.354 30.096H270.048L273.468 18.09H274.998L278.4 30.096H278.076L281.424 18.09H282.882L279.03 31.5H277.5L274.062 19.44H274.386L270.948 31.5H269.418ZM285.03 31.5V18.09H286.47V24.12H293.67V18.09H295.11V31.5H293.67V25.47H286.47V31.5H285.03ZM297.258 31.5L302.154 18.09H303.702L308.598 31.5H307.086L305.934 28.224H299.94L298.77 31.5H297.258ZM300.408 26.874H305.43L302.712 19.17H303.144L300.408 26.874ZM312.172 31.5V19.44H308.464V18.09H317.284V19.44H313.612V31.5H312.172ZM322.839 31.5V18.09H324.279V31.5H322.839ZM332.323 31.716C331.471 31.716 330.697 31.554 330.001 31.23C329.305 30.906 328.717 30.474 328.237 29.934C327.757 29.382 327.415 28.776 327.211 28.116L328.507 27.63C328.819 28.542 329.305 29.238 329.965 29.718C330.625 30.186 331.411 30.42 332.323 30.42C332.899 30.42 333.403 30.33 333.835 30.15C334.279 29.958 334.621 29.694 334.861 29.358C335.101 29.022 335.221 28.632 335.221 28.188C335.221 27.528 335.041 27.018 334.681 26.658C334.321 26.298 333.805 26.022 333.133 25.83L330.721 25.11C329.773 24.834 329.041 24.372 328.525 23.724C328.021 23.076 327.769 22.338 327.769 21.51C327.769 20.802 327.943 20.178 328.291 19.638C328.639 19.086 329.113 18.654 329.713 18.342C330.325 18.03 331.015 17.874 331.783 17.874C332.587 17.874 333.307 18.024 333.943 18.324C334.591 18.612 335.137 18.996 335.581 19.476C336.025 19.956 336.343 20.49 336.535 21.078L335.275 21.582C334.987 20.79 334.537 20.19 333.925 19.782C333.325 19.374 332.617 19.17 331.801 19.17C331.285 19.17 330.829 19.26 330.433 19.44C330.049 19.62 329.749 19.878 329.533 20.214C329.317 20.55 329.209 20.946 329.209 21.402C329.209 21.954 329.383 22.452 329.731 22.896C330.079 23.328 330.613 23.652 331.333 23.868L333.457 24.498C334.513 24.81 335.311 25.26 335.851 25.848C336.391 26.436 336.661 27.174 336.661 28.062C336.661 28.782 336.475 29.418 336.103 29.97C335.743 30.51 335.233 30.936 334.573 31.248C333.925 31.56 333.175 31.716 332.323 31.716ZM349.34 31.716C348.392 31.716 347.522 31.548 346.73 31.212C345.938 30.864 345.248 30.384 344.66 29.772C344.084 29.148 343.634 28.416 343.31 27.576C342.986 26.736 342.824 25.812 342.824 24.804C342.824 23.796 342.986 22.872 343.31 22.032C343.634 21.192 344.084 20.46 344.66 19.836C345.248 19.212 345.938 18.732 346.73 18.396C347.522 18.048 348.392 17.874 349.34 17.874C350.252 17.874 351.068 18.036 351.788 18.36C352.52 18.684 353.132 19.104 353.624 19.62C354.128 20.124 354.488 20.658 354.704 21.222L353.408 21.852C353.072 21.036 352.556 20.394 351.86 19.926C351.164 19.458 350.324 19.224 349.34 19.224C348.356 19.224 347.48 19.458 346.712 19.926C345.944 20.394 345.344 21.048 344.912 21.888C344.48 22.716 344.264 23.688 344.264 24.804C344.264 25.908 344.48 26.88 344.912 27.72C345.344 28.56 345.944 29.214 346.712 29.682C347.48 30.138 348.356 30.366 349.34 30.366C350.216 30.366 351.002 30.174 351.698 29.79C352.406 29.406 352.964 28.884 353.372 28.224C353.78 27.552 353.984 26.784 353.984 25.92V25.182L354.632 25.83H349.34V24.57H355.424V25.686C355.424 26.562 355.268 27.372 354.956 28.116C354.644 28.848 354.212 29.484 353.66 30.024C353.108 30.564 352.46 30.984 351.716 31.284C350.984 31.572 350.192 31.716 349.34 31.716ZM364.681 31.716C363.745 31.716 362.869 31.548 362.053 31.212C361.249 30.864 360.541 30.384 359.929 29.772C359.317 29.148 358.837 28.416 358.489 27.576C358.141 26.724 357.967 25.794 357.967 24.786C357.967 23.778 358.141 22.854 358.489 22.014C358.837 21.162 359.317 20.43 359.929 19.818C360.541 19.194 361.249 18.714 362.053 18.378C362.869 18.042 363.745 17.874 364.681 17.874C365.617 17.874 366.487 18.048 367.291 18.396C368.107 18.732 368.821 19.212 369.433 19.836C370.045 20.448 370.525 21.174 370.873 22.014C371.221 22.854 371.395 23.778 371.395 24.786C371.395 25.794 371.221 26.724 370.873 27.576C370.525 28.416 370.045 29.148 369.433 29.772C368.821 30.384 368.107 30.864 367.291 31.212C366.487 31.548 365.617 31.716 364.681 31.716ZM364.681 30.366C365.461 30.366 366.169 30.222 366.805 29.934C367.453 29.646 368.011 29.244 368.479 28.728C368.947 28.212 369.307 27.618 369.559 26.946C369.823 26.274 369.955 25.554 369.955 24.786C369.955 24.03 369.823 23.316 369.559 22.644C369.307 21.972 368.947 21.378 368.479 20.862C368.011 20.346 367.453 19.944 366.805 19.656C366.169 19.368 365.461 19.224 364.681 19.224C363.901 19.224 363.187 19.368 362.539 19.656C361.903 19.944 361.351 20.346 360.883 20.862C360.415 21.378 360.049 21.972 359.785 22.644C359.533 23.316 359.407 24.03 359.407 24.786C359.407 25.554 359.533 26.274 359.785 26.946C360.049 27.618 360.415 28.212 360.883 28.728C361.351 29.244 361.909 29.646 362.557 29.934C363.205 30.222 363.913 30.366 364.681 30.366ZM374.526 31.5V18.09H375.966V31.5H374.526ZM379.492 31.5V18.09H380.752L388.618 29.376H388.132V18.09H389.572V31.5H388.312L380.446 20.142H380.932V31.5H379.492ZM399.226 31.716C398.278 31.716 397.408 31.548 396.616 31.212C395.824 30.864 395.134 30.384 394.546 29.772C393.97 29.148 393.52 28.416 393.196 27.576C392.872 26.736 392.71 25.812 392.71 24.804C392.71 23.796 392.872 22.872 393.196 22.032C393.52 21.192 393.97 20.46 394.546 19.836C395.134 19.212 395.824 18.732 396.616 18.396C397.408 18.048 398.278 17.874 399.226 17.874C400.138 17.874 400.954 18.036 401.674 18.36C402.406 18.684 403.018 19.104 403.51 19.62C404.014 20.124 404.374 20.658 404.59 21.222L403.294 21.852C402.958 21.036 402.442 20.394 401.746 19.926C401.05 19.458 400.21 19.224 399.226 19.224C398.242 19.224 397.366 19.458 396.598 19.926C395.83 20.394 395.23 21.048 394.798 21.888C394.366 22.716 394.15 23.688 394.15 24.804C394.15 25.908 394.366 26.88 394.798 27.72C395.23 28.56 395.83 29.214 396.598 29.682C397.366 30.138 398.242 30.366 399.226 30.366C400.102 30.366 400.888 30.174 401.584 29.79C402.292 29.406 402.85 28.884 403.258 28.224C403.666 27.552 403.87 26.784 403.87 25.92V25.182L404.518 25.83H399.226V24.57H405.31V25.686C405.31 26.562 405.154 27.372 404.842 28.116C404.53 28.848 404.098 29.484 403.546 30.024C402.994 30.564 402.346 30.984 401.602 31.284C400.87 31.572 400.078 31.716 399.226 31.716ZM417.985 31.716C417.049 31.716 416.173 31.548 415.357 31.212C414.553 30.864 413.845 30.384 413.233 29.772C412.621 29.148 412.141 28.416 411.793 27.576C411.445 26.724 411.271 25.794 411.271 24.786C411.271 23.778 411.445 22.854 411.793 22.014C412.141 21.162 412.621 20.43 413.233 19.818C413.845 19.194 414.553 18.714 415.357 18.378C416.173 18.042 417.049 17.874 417.985 17.874C418.921 17.874 419.791 18.048 420.595 18.396C421.411 18.732 422.125 19.212 422.737 19.836C423.349 20.448 423.829 21.174 424.177 22.014C424.525 22.854 424.699 23.778 424.699 24.786C424.699 25.794 424.525 26.724 424.177 27.576C423.829 28.416 423.349 29.148 422.737 29.772C422.125 30.384 421.411 30.864 420.595 31.212C419.791 31.548 418.921 31.716 417.985 31.716ZM417.985 30.366C418.765 30.366 419.473 30.222 420.109 29.934C420.757 29.646 421.315 29.244 421.783 28.728C422.251 28.212 422.611 27.618 422.863 26.946C423.127 26.274 423.259 25.554 423.259 24.786C423.259 24.03 423.127 23.316 422.863 22.644C422.611 21.972 422.251 21.378 421.783 20.862C421.315 20.346 420.757 19.944 420.109 19.656C419.473 19.368 418.765 19.224 417.985 19.224C417.205 19.224 416.491 19.368 415.843 19.656C415.207 19.944 414.655 20.346 414.187 20.862C413.719 21.378 413.353 21.972 413.089 22.644C412.837 23.316 412.711 24.03 412.711 24.786C412.711 25.554 412.837 26.274 413.089 26.946C413.353 27.618 413.719 28.212 414.187 28.728C414.655 29.244 415.213 29.646 415.861 29.934C416.509 30.222 417.217 30.366 417.985 30.366ZM427.83 31.5V18.09H429.09L436.956 29.376H436.47V18.09H437.91V31.5H436.65L428.784 20.142H429.27V31.5H427.83Z" fill="#005271"/>
<path d="M120.338 2.25705C119.221 2.049 118.027 1.86253 116.904 2.13973C115.196 2.56107 113.913 4.98009 113.165 6.38932C111.597 9.34568 109.864 13.6101 111.986 16.7135C113.478 18.8946 116.12 20.0914 118.537 20.8718C121.64 21.8738 125.169 22.1507 128.411 21.9277C129.449 21.8563 130.206 21.7861 130.536 20.7675C130.794 19.9743 130.952 19.1432 131.132 18.3299C131.551 16.4382 131.933 14.5307 131.994 12.5877C132.022 11.7194 131.981 11.2582 131.21 10.7693C129.936 9.96102 128.527 9.27821 127.154 8.65751C126.034 8.15115 125.063 7.8206 123.83 7.96011C122.185 8.14632 120.34 8.68834 118.938 9.58303C117.393 10.5697 116.149 13.1564 118.167 14.341C119.738 15.2626 123.721 16.4794 124.653 14.0542C124.764 13.7667 125.27 12.5625 124.776 12.4183C124.162 12.2388 123.415 12.4113 122.787 12.4639" stroke="white" stroke-width="3" stroke-linecap="round"/>
<g clip-path="url(#clip0_2486_185)">
<g clip-path="url(#clip1_2486_185)">
<path d="M19.6019 43.7755C30.2689 50.0883 26.9736 53.2355 24.2176 57.8925C21.4616 62.5494 20.0721 66.8245 9.62151 60.6399C4.31633 57.5002 2.2498 51.1799 5.0058 46.5229C7.7618 41.8659 14.2967 40.6359 19.6019 43.7755Z" fill="white"/>
<path d="M35.2355 44.8542C35.2355 50.734 33.1847 50.7688 30.6549 50.7688C28.125 50.7688 26.0742 50.734 26.0742 44.8542C26.0742 38.9745 28.8817 34.208 30.6549 34.208C32.428 34.208 35.2355 38.9745 35.2355 44.8542Z" fill="#6A5B3D"/>
<path d="M90.5558 44.8542C90.5558 50.734 88.505 50.7688 85.9752 50.7688C83.4454 50.7688 81.3945 50.734 81.3945 44.8542C81.3945 38.9745 84.202 34.208 85.9752 34.208C87.7483 34.208 90.5558 38.9745 90.5558 44.8542Z" fill="#6A5B3D"/>
<path d="M98.0388 43.7755C87.3717 50.0883 90.667 53.2355 93.423 57.8925C96.179 62.5494 97.5685 66.8245 108.019 60.6399C113.324 57.5002 115.391 51.1799 112.635 46.5229C109.879 41.8659 103.344 40.6359 98.0388 43.7755Z" fill="#123041"/>
<path d="M100.668 49.1574C95.3512 52.3038 96.7278 53.4231 97.7735 55.1901C98.8192 56.957 99.2458 58.6385 104.455 55.556C107.099 53.9912 108.395 51.2903 107.349 49.5234C106.303 47.7564 103.312 47.5926 100.668 49.1574Z" fill="#FFC0C1"/>
<path d="M16.6525 49.1574C21.9691 52.3038 20.5925 53.4231 19.5468 55.1901C18.5012 56.957 18.0745 58.6385 12.8658 55.556C10.2216 53.9912 8.92581 51.2903 9.97148 49.5234C11.0171 47.7564 14.0083 47.5926 16.6525 49.1574Z" fill="#FFC0C1"/>
<path d="M95.5561 122.541C86.4498 122.457 76.7465 110.779 73.0332 104.95C73.0537 104.169 73.4036 102.302 74.6387 101.084C76.1825 99.5618 96.8363 106.553 101.283 109.015C105.729 111.476 106.939 122.645 95.5561 122.541Z" fill="#E7EAEE"/>
<path d="M78.9539 153.114C81.481 152.081 83.9417 138.313 83.4429 131.459L59.169 135.333C58.6702 140.896 58.6369 152.24 59.834 153.114C61.3303 154.207 75.795 154.406 78.9539 153.114Z" fill="#E7EAEE"/>
<path d="M80.8511 137.864C88.4059 132.84 78.1934 101.501 70.8143 97.5542C63.4352 93.607 51.4333 94.205 46.1624 97.5542C40.8916 100.903 27.8664 132.721 35.4213 137.864C42.9761 143.008 73.2963 142.888 80.8511 137.864Z" fill="white"/>
<path fill-rule="evenodd" clip-rule="evenodd" d="M60.6653 141.643C60.7242 139.789 60.6631 136.006 59.3735 133.75C57.3089 130.139 50.5646 127.76 50.5646 127.76C47.8631 127.349 42.0375 125.4 40.3462 120.889C39.6262 118.969 37.9655 117.684 36.0462 116.845C33.0315 125.921 31.6174 135.275 35.4216 137.865C39.5359 140.666 50.4016 141.906 60.6653 141.643Z" fill="#123041"/>
<path d="M37.675 153.114C35.1479 152.081 32.6872 138.313 33.186 131.459L57.46 135.333C57.9587 140.896 57.992 152.24 56.7949 153.114C55.2986 154.207 40.834 154.406 37.675 153.114Z" fill="#123041"/>
<path d="M22.5524 122.725C22.3961 113.62 33.8154 103.613 39.5446 99.7471C40.3258 99.7471 42.2008 100.048 43.4508 101.25C45.0134 102.754 38.568 123.584 36.2243 128.094C33.8805 132.604 22.7477 134.107 22.5524 122.725Z" fill="white"/>
<path d="M78.2217 126.497C78.2217 135.896 70.1762 138.154 60.2515 138.154C50.3268 138.154 42.2812 135.896 42.2812 126.497C42.2812 114.141 50.3268 107.146 60.2515 107.146C70.1762 107.146 78.2217 114.141 78.2217 126.497Z" fill="#FFC0C1"/>
<path d="M60.0999 134.983C60.1723 134.983 60.2441 134.969 60.3111 134.942C60.3781 134.915 60.4391 134.875 60.4905 134.824L62.9381 132.362C63.0282 132.257 63.0752 132.123 63.0699 131.985C63.0646 131.847 63.0072 131.717 62.9092 131.619C62.8113 131.522 62.6799 131.465 62.5415 131.459C62.4031 131.454 62.2677 131.501 62.1625 131.591L59.7094 134.025C59.6579 134.076 59.617 134.136 59.589 134.203C59.5611 134.27 59.5467 134.341 59.5467 134.414C59.5467 134.486 59.5611 134.557 59.589 134.624C59.617 134.691 59.6579 134.751 59.7094 134.802C59.759 134.857 59.8191 134.901 59.8862 134.932C59.9533 134.963 60.026 134.98 60.0999 134.983Z" fill="#FF8D8D"/>
<path d="M62.5214 134.983C62.5932 134.983 62.6644 134.969 62.7309 134.942C62.7974 134.915 62.8579 134.875 62.9089 134.824C62.96 134.774 63.0006 134.713 63.0283 134.647C63.056 134.58 63.0703 134.509 63.0703 134.437C63.0703 134.365 63.056 134.293 63.0283 134.227C63.0006 134.16 62.96 134.1 62.9089 134.049L60.4804 131.62C60.4297 131.569 60.3693 131.529 60.3028 131.501C60.2363 131.473 60.1649 131.459 60.0929 131.459C60.0209 131.459 59.9495 131.473 59.883 131.501C59.8165 131.529 59.7562 131.569 59.7054 131.62C59.6038 131.723 59.5467 131.861 59.5467 132.005C59.5467 132.149 59.6038 132.288 59.7054 132.39L62.1394 134.824C62.241 134.925 62.3782 134.982 62.5214 134.983Z" fill="#FF8D8D"/>
<path d="M102.889 80.1915C102.889 98.5813 82.7237 104.68 58.2142 104.68C33.7047 104.68 13.3906 98.5813 13.3906 80.1915C13.3906 48.8348 33.7047 38.084 58.2142 38.084C82.7237 38.084 102.889 47.3417 102.889 80.1915Z" fill="white"/>
<path fill-rule="evenodd" clip-rule="evenodd" d="M61.3301 38.1357C61.5361 44.0034 62.7616 51.6991 66.6063 54.8114C69.9873 57.5484 73.8892 58.2454 77.3759 58.8683C80.3558 59.4006 83.0325 59.8788 84.8213 61.53C85.7718 62.4074 86.6149 63.6249 87.528 64.9437C90.2792 68.9167 93.6668 73.8088 102.545 73.0873C99.9187 47.2378 82.5728 38.8556 61.3301 38.1357Z" fill="#123041"/>
<path d="M36.6445 76.8438V82.4815" stroke="#123041" stroke-width="5.28536" stroke-linecap="round"/>
<path d="M83.8594 76.8438V82.4815" stroke="#123041" stroke-width="5.28536" stroke-linecap="round"/>
<path d="M43.6914 89.9514C43.6914 82.7123 49.5599 76.8438 56.7991 76.8438H63.3529C70.5921 76.8438 76.4606 82.7123 76.4606 89.9514C76.4606 94.7776 72.5483 98.6899 67.7222 98.6899H52.4299C47.6037 98.6899 43.6914 94.7776 43.6914 89.9514Z" fill="#FFC0C1"/>
<path d="M53.207 86.71V90.5859" stroke="#123041" stroke-width="3.52357" stroke-linecap="round"/>
<path d="M67.3008 86.71L67.3008 90.5859" stroke="#123041" stroke-width="3.52357" stroke-linecap="round"/>
<path d="M26.0742 90.5859H31.3596" stroke="#FFC0C1" stroke-width="7.04715" stroke-linecap="round"/>
<path d="M89.1445 90.5859H94.4299" stroke="#FFC0C1" stroke-width="7.04715" stroke-linecap="round"/>
<path d="M32.7687 106.442C29.3962 104.675 30.2531 101.917 30.6546 100.98C31.3238 101.114 33.8522 102.069 35.94 102.39C38.0277 102.711 39.9911 103.227 41.664 103.361L41.2625 109.584C39.7234 109.383 36.1412 108.209 32.7687 106.442Z" fill="#173A52"/>
<ellipse cx="47.3283" cy="109.043" rx="4.0149" ry="8.43129" transform="rotate(-20 47.3283 109.043)" fill="#173A52"/>
<rect x="39.543" y="102.905" width="5.21937" height="16.8626" transform="rotate(-20 39.543 102.905)" fill="#173A52"/>
<path d="M46.1978 109.455C47.7904 113.831 47.3923 117.993 45.3087 118.751C43.225 119.509 39.7175 118.65 37.5204 112.613C35.3233 106.577 37.4577 103.664 39.5413 102.905C41.625 102.147 44.6052 105.079 46.1978 109.455Z" fill="#005271"/>
<ellipse cx="41.4837" cy="111.172" rx="3.01117" ry="6.42384" transform="rotate(-20 41.4837 111.172)" fill="#9EE7E5"/>
<ellipse cx="3.21192" cy="8.43129" rx="3.21192" ry="8.43129" transform="matrix(-0.939693 -0.34202 -0.34202 0.939693 80.5664 102.345)" fill="#173A52"/>
<rect width="4.41639" height="16.8626" transform="matrix(-0.939693 -0.34202 -0.34202 0.939693 81.6992 102.757)" fill="#173A52"/>
<path d="M76.5532 109.856C74.9606 114.231 74.6977 118.153 75.966 118.615C77.2343 119.076 79.638 117.815 81.8351 111.778C84.0322 105.742 83.0016 103.23 81.7333 102.769C80.465 102.307 78.1458 105.48 76.5532 109.856Z" fill="#005271"/>
<ellipse cx="1.8067" cy="6.42384" rx="1.8067" ry="6.42384" transform="matrix(-0.939693 -0.34202 -0.34202 0.939693 83.2773 105.467)" fill="#9EE7E5"/>
<g clip-path="url(#clip2_2486_185)">
<rect x="100.891" y="99.125" width="11.9801" height="17.6179" rx="1.76179" transform="rotate(29.3185 100.891 99.125)" fill="#005271"/>
<rect x="101.43" y="101.044" width="9.16129" height="5.99007" rx="0.704715" transform="rotate(29.3185 101.43 101.044)" fill="#123041"/>
<circle cx="99.9034" cy="113.117" r="3.87593" transform="rotate(29.3185 99.9034 113.117)" fill="#9EE7E5"/>
<circle cx="99.9019" cy="113.118" r="2.11414" transform="rotate(29.3185 99.9019 113.118)" fill="#005271"/>
</g>
</g>
<path d="M143.271 120.735C152.29 121.998 163.611 111.88 168.145 106.664C168.24 105.888 168.17 103.99 167.128 102.604C165.826 100.87 144.366 104.734 139.605 106.512C134.843 108.29 131.997 119.157 143.271 120.735Z" fill="#FFC532"/>
<path d="M159.945 153.819C157.417 152.786 154.957 139.018 155.456 132.164L179.729 136.038C180.228 141.601 180.262 152.945 179.064 153.819C177.568 154.912 163.103 155.111 159.945 153.819Z" fill="#FFC532"/>
<path d="M158.047 138.569C150.493 133.545 160.705 102.207 168.084 98.2593C175.463 94.3121 187.465 94.9101 192.736 98.2593C198.007 101.609 211.032 133.426 203.477 138.569C195.922 143.713 165.602 143.593 158.047 138.569Z" fill="#FFDB40"/>
<path d="M201.223 153.819C203.751 152.786 206.211 139.018 205.712 132.164L181.438 136.038C180.94 141.601 180.906 152.945 182.104 153.819C183.6 154.912 198.064 155.111 201.223 153.819Z" fill="#FFDB40"/>
<path d="M216.346 123.429C216.502 114.324 205.083 104.317 199.354 100.451C198.573 100.451 196.698 100.752 195.448 101.954C193.885 103.458 200.33 124.288 202.674 128.798C205.018 133.308 216.151 134.811 216.346 123.429Z" fill="#FFDB40"/>
<path d="M175.978 133.926C175.906 133.926 175.834 133.913 175.767 133.885C175.7 133.858 175.639 133.818 175.588 133.767L173.14 131.305C173.05 131.201 173.003 131.066 173.008 130.928C173.014 130.791 173.071 130.66 173.169 130.563C173.267 130.465 173.398 130.408 173.537 130.403C173.675 130.397 173.81 130.444 173.916 130.534L176.369 132.968C176.42 133.019 176.461 133.08 176.489 133.147C176.517 133.213 176.531 133.285 176.531 133.357C176.531 133.429 176.517 133.501 176.489 133.567C176.461 133.634 176.42 133.694 176.369 133.745C176.319 133.8 176.259 133.844 176.192 133.875C176.125 133.906 176.052 133.923 175.978 133.926Z" fill="#FFB132"/>
<path d="M173.557 133.926C173.485 133.926 173.414 133.913 173.347 133.885C173.281 133.858 173.22 133.818 173.169 133.768C173.118 133.717 173.077 133.657 173.05 133.59C173.022 133.524 173.008 133.452 173.008 133.38C173.008 133.308 173.022 133.237 173.05 133.17C173.077 133.104 173.118 133.043 173.169 132.993L175.598 130.564C175.648 130.513 175.709 130.472 175.775 130.444C175.842 130.417 175.913 130.402 175.985 130.402C176.057 130.402 176.129 130.417 176.195 130.444C176.262 130.472 176.322 130.513 176.373 130.564C176.474 130.666 176.531 130.804 176.531 130.949C176.531 131.093 176.474 131.231 176.373 131.333L173.939 133.768C173.837 133.868 173.7 133.925 173.557 133.926Z" fill="#FFB132"/>
<path d="M141.646 88.0703C140.061 88.9512 132.485 88.775 132.133 75.2093C132.485 61.6435 140.061 61.4673 141.646 62.3482C143.232 63.2291 144.289 69.7477 144.289 75.2093C144.289 80.6708 143.232 87.1894 141.646 88.0703Z" fill="#FFB132"/>
<path d="M134.599 79.4874C134.599 97.8772 154.765 103.975 179.274 103.975C203.784 103.975 224.098 97.8772 224.098 79.4874C224.098 48.1307 203.784 37.3799 179.274 37.3799C154.765 37.3799 134.599 46.6376 134.599 79.4874Z" fill="#FFDB40"/>
<path d="M208.242 88.4717H202.957" stroke="#FCA18E" stroke-width="7.04715" stroke-linecap="round"/>
<path d="M149.75 88.4717H144.465" stroke="#FCA18E" stroke-width="7.04715" stroke-linecap="round"/>
<path d="M197.672 75.7861V81.4238" stroke="#123041" stroke-width="5.28536" stroke-linecap="round"/>
<path d="M155.039 75.7861V81.4238" stroke="#123041" stroke-width="5.28536" stroke-linecap="round"/>
<path d="M167.37 83.8909C167.37 87.1018 171.392 88.4715 176.355 88.4715C181.317 88.4715 185.34 87.1018 185.34 83.8909C185.34 80.68 181.317 76.8438 176.355 76.8438C171.392 76.8438 167.37 80.68 167.37 83.8909Z" fill="#FFB132"/>
<path d="M229.033 75.9624C229.033 64.3753 225.576 62.749 220.873 62.749C217.83 62.749 214.234 64.3753 214.234 75.9624C214.234 87.5496 217.83 89.1758 220.873 89.1758C225.576 89.1758 229.033 87.5496 229.033 75.9624Z" stroke="#DB8A2A" stroke-width="2.81886"/>
<path d="M208.771 40.1981C219.87 45.1311 225.273 56.2303 225.86 62.9251L218.285 64.8631C217.991 62.5728 215.293 54.9251 208.771 48.1261C200.491 39.4934 183.636 38.0252 178.645 37.3792C181.64 37.203 198.516 35.6402 208.771 40.1981Z" fill="#FFB132"/>
<path d="M233.612 75.9624C233.612 64.3753 229.249 62.749 223.315 62.749C219.475 62.749 214.938 64.3753 214.938 75.9624C214.938 87.5496 219.475 89.1758 223.315 89.1758C229.249 89.1758 233.612 87.5496 233.612 75.9624Z" fill="#FFB132"/>
<path d="M172.747 25.1249C178.092 29.8648 181.163 35.1807 182.071 40.019L172.665 39.0159C168.792 38.6029 165.081 34.0373 165.253 28.4956C165.424 22.954 170.029 22.7145 172.747 25.1249Z" fill="#FFDB40"/>
<path d="M182.561 32.6124C180.897 34.2374 180.476 37.7787 180.474 39.3462C183.698 39.0482 189.107 38.0571 190.078 35.9927C191.048 33.9282 190.442 31.3615 189.261 30.7497C188.08 30.1379 184.641 30.5812 182.561 32.6124Z" fill="#FFDB40"/>
<g clip-path="url(#clip3_2486_185)">
<rect x="129.922" y="102.263" width="11.9801" height="17.6179" rx="1.76179" transform="rotate(-23.4127 129.922 102.263)" fill="#005271"/>
<rect x="131.773" y="102.996" width="9.16129" height="5.99007" rx="0.704715" transform="rotate(-23.4127 131.773 102.996)" fill="#123041"/>
<circle cx="140.456" cy="111.523" r="3.87593" transform="rotate(-23.4127 140.456 111.523)" fill="#FFB132"/>
<circle cx="140.46" cy="111.523" r="2.11414" transform="rotate(-23.4127 140.46 111.523)" fill="#005271"/>
</g>
</g>
<defs>
<clipPath id="clip0_2486_185">
<rect width="238.194" height="142" fill="white" transform="translate(0 18)"/>
</clipPath>
<clipPath id="clip1_2486_185">
<rect width="110.993" height="131.782" fill="white" transform="translate(3.17188 28.2188)"/>
</clipPath>
<clipPath id="clip2_2486_185">
<rect width="13.0372" height="19.0273" fill="white" transform="translate(100.93 98.3379) rotate(29.3185)"/>
</clipPath>
<clipPath id="clip3_2486_185">
<rect width="13.0372" height="19.0273" fill="white" transform="translate(129.316 101.756) rotate(-23.4127)"/>
</clipPath>
</defs>
</svg>
