<svg viewBox="0 0 272 227" fill="none" xmlns="http://www.w3.org/2000/svg">
<g clip-path="url(#clip0_2427_289)">
<mask id="mask0_2427_289" style="mask-type:alpha" maskUnits="userSpaceOnUse" x="-5" y="22" width="273" height="186">
<rect width="271.256" height="184.488" transform="matrix(1 0 0 -1 -4.21484 207.276)" fill="#D9D9D9"/>
</mask>
<g mask="url(#mask0_2427_289)">
<path d="M37.592 50.7155C63.0946 65.808 55.2162 73.3323 48.6272 84.466C42.0382 95.5998 38.7162 105.821 13.7312 91.0344C1.04766 83.5283 -3.89294 68.4177 2.69605 57.2839C9.28504 46.1501 24.9085 43.2093 37.592 50.7155Z" fill="white"/>
<path d="M74.973 53.2956C74.973 67.3528 70.0699 67.436 64.0216 67.436C57.9734 67.436 53.0703 67.3528 53.0703 53.2956C53.0703 39.2384 59.7824 27.8428 64.0216 27.8428C68.2609 27.8428 74.973 39.2384 74.973 53.2956Z" fill="#6A5B3D"/>
<path d="M207.231 53.2956C207.231 67.3528 202.328 67.436 196.279 67.436C190.231 67.436 185.328 67.3528 185.328 53.2956C185.328 39.2384 192.04 27.8428 196.279 27.8428C200.519 27.8428 207.231 39.2384 207.231 53.2956Z" fill="#6A5B3D"/>
<path d="M225.119 50.7155C199.616 65.808 207.495 73.3323 214.084 84.466C220.673 95.5998 223.995 105.821 248.98 91.0344C261.663 83.5283 266.604 68.4177 260.015 57.2839C253.426 46.1501 237.802 43.2093 225.119 50.7155Z" fill="#123041"/>
<path d="M231.415 63.5818C218.704 71.104 221.995 73.7802 224.495 78.0045C226.995 82.2288 228.015 86.249 240.468 78.8794C246.789 75.1383 249.887 68.681 247.387 64.4566C244.888 60.2323 237.736 59.8406 231.415 63.5818Z" fill="#FFC0C1"/>
<path d="M30.5424 63.5818C43.2532 71.104 39.9621 73.7802 37.4621 78.0045C34.9622 82.2288 33.9421 86.249 21.4893 78.8794C15.1676 75.1383 12.0696 68.681 14.5696 64.4566C17.0695 60.2323 24.2208 59.8406 30.5424 63.5818Z" fill="#FFC0C1"/>
<path d="M184.031 275.662C202.093 263.651 177.677 188.727 160.035 179.29C142.393 169.853 113.7 171.283 101.098 179.29C88.4967 187.297 57.3565 263.365 75.4184 275.662C93.4803 287.959 165.969 287.673 184.031 275.662Z" fill="white"/>
<path d="M177.75 248.485C177.75 270.956 158.515 276.354 134.787 276.354C111.059 276.354 91.8242 270.956 91.8242 248.485C91.8242 218.943 111.059 202.222 134.787 202.222C158.515 202.222 177.75 218.943 177.75 248.485Z" fill="#FFC0C1"/>
<path d="M236.718 137.779C236.718 181.745 188.506 196.325 129.909 196.325C71.3127 196.325 22.7461 181.745 22.7461 137.779C22.7461 62.8123 71.3127 37.1094 129.909 37.1094C188.506 37.1094 236.718 59.2425 236.718 137.779Z" fill="white"/>
<path fill-rule="evenodd" clip-rule="evenodd" d="M137.355 37.2334C137.848 51.2618 140.778 69.6611 149.97 77.1022C158.053 83.6459 167.382 85.3123 175.717 86.8014C182.842 88.0741 189.241 89.2173 193.518 93.1651C195.79 95.2627 197.806 98.1734 199.989 101.326C206.567 110.825 214.666 122.522 235.894 120.796C229.615 58.9938 188.143 38.954 137.355 37.2334Z" fill="#123041"/>
<path d="M95.1914 161.112C95.1914 143.805 109.222 129.774 126.529 129.774H142.198C159.505 129.774 173.535 143.805 173.535 161.112C173.535 172.65 164.182 182.004 152.644 182.004H116.083C104.545 182.004 95.1914 172.65 95.1914 161.112Z" fill="#FFC0C1"/>
<path d="M117.938 153.361V162.628" stroke="#123041" stroke-width="8.42409" stroke-linecap="round"/>
<path d="M151.633 153.361L151.633 162.628" stroke="#123041" stroke-width="8.42409" stroke-linecap="round"/>
<path d="M53.0703 162.628H65.7065" stroke="#FFC0C1" stroke-width="16.8482" stroke-linecap="round"/>
<path d="M203.863 162.628H216.499" stroke="#FFC0C1" stroke-width="16.8482" stroke-linecap="round"/>
<path d="M83.7773 141.688C83.7773 141.688 81.2272 138.763 75.4893 138.763C69.7514 138.763 67.2013 141.688 67.2013 141.688" stroke="#123041" stroke-width="10.3961" stroke-linecap="round"/>
<path d="M201.617 141.688C201.617 141.688 199.067 138.763 193.329 138.763C187.591 138.763 185.041 141.688 185.041 141.688" stroke="#123041" stroke-width="10.3961" stroke-linecap="round"/>
</g>
<path d="M110.13 213.315C109.756 220.517 97.6573 225.84 83.7186 225.117C69.7799 224.393 59.2791 217.895 59.6531 210.694C60.2865 198.495 70.555 189.25 86.2324 190.064C101.91 190.878 110.785 200.696 110.13 213.315Z" fill="white"/>
<path d="M207.848 213.315C207.474 220.517 195.376 225.84 181.437 225.117C167.499 224.393 156.998 217.895 157.372 210.694C158.005 198.495 168.274 189.25 183.951 190.064C199.629 190.878 208.504 200.696 207.848 213.315Z" fill="white"/>
</g>
<defs>
<clipPath id="clip0_2427_289">
<rect width="271.256" height="226.327" fill="white" transform="translate(0 0.325195)"/>
</clipPath>
</defs>
</svg>
