<svg width="272" height="307" viewBox="0 0 272 307" fill="none" xmlns="http://www.w3.org/2000/svg">
<g clip-path="url(#clip0_2216_1457)">
<mask id="mask0_2216_1457" style="mask-type:alpha" maskUnits="userSpaceOnUse" x="-26" y="-11" width="275" height="320">
<rect width="240.087" height="291.999" transform="matrix(0.9929 -0.118948 -0.118948 -0.9929 9.67578 308.202)" fill="#D9D9D9"/>
</mask>
<g mask="url(#mask0_2216_1457)">
<path d="M193.108 339.102C209.613 325.028 176.458 253.54 157.819 246.268C139.18 238.997 110.86 243.829 99.3005 253.279C87.741 262.728 65.8699 341.96 85.2663 352.021C104.663 362.082 176.603 353.176 193.108 339.102Z" fill="white"/>
<path d="M182.162 314.738C184.835 337.051 166.379 344.697 142.819 347.52C119.26 350.342 99.5196 347.271 96.8466 324.959C93.3327 295.627 110.442 276.736 134.002 273.914C157.561 271.092 178.648 285.407 182.162 314.738Z" fill="#F4F4F4"/>
<path d="M38.6199 91.0164C47.9097 111.905 81.6486 150.938 89.8361 167.969L147.131 161.105C151.064 142.622 172.42 96.9886 178.303 74.2826C185.6 46.1217 170.471 12.4689 140.922 16.0088C116.524 18.9317 109.922 60.5889 109.298 82.5493C103.505 61.3576 86.413 22.5389 62.852 25.3615C33.303 28.9014 26.7985 64.4357 38.6199 91.0164Z" fill="white"/>
<path d="M227.044 193.622C232.274 237.276 186.139 257.486 127.958 264.456C69.7773 271.426 19.8213 262.727 14.5916 219.073C5.67449 144.639 50.839 113.341 109.02 106.371C167.201 99.4014 217.703 115.643 227.044 193.622Z" fill="white"/>
<path d="M79.9531 198.091L81.5564 211.474" stroke="#123041" stroke-width="12.6361" stroke-linecap="round"/>
<path d="M181.16 185.966L182.763 199.349" stroke="#123041" stroke-width="12.6361" stroke-linecap="round"/>
<path d="M58.7656 233.717L71.3121 232.214" stroke="#FFD2D2" stroke-width="16.8482" stroke-linecap="round"/>
<path d="M197.617 217.084L210.164 215.581" stroke="#FFD2D2" stroke-width="16.8482" stroke-linecap="round"/>
<path d="M148.509 225.052C149.412 232.589 149.866 236.378 136.064 238.032C122.263 239.685 121.89 236.569 120.906 228.359C119.923 220.148 124.534 206.324 132.157 205.411C139.779 204.498 147.606 217.515 148.509 225.052Z" fill="#FFD2D2"/>
<path fill-rule="evenodd" clip-rule="evenodd" d="M121.809 218.543C123.501 212.1 127.192 206.008 132.165 205.412C137.07 204.825 142.06 210.006 145.235 215.783C142.11 217.725 138.199 219.112 133.866 219.631C129.491 220.155 125.325 219.717 121.809 218.543Z" fill="#E7EAEE"/>
<path d="M127.333 194.111C128.975 193.915 129.81 194.509 130.918 195.07C131.862 194.263 132.532 193.489 134.174 193.292C136.226 193.046 137.676 195.054 137.32 196.386C136.841 198.179 134.538 200.19 131.655 201.229C128.609 200.9 125.896 199.49 125.007 197.861C124.347 196.651 125.281 194.357 127.333 194.111Z" fill="#FFD2D2"/>
<rect x="17.5664" y="287.278" width="209.76" height="22.745" fill="#123041"/>
</g>
<path d="M110.852 293.316C110.478 300.518 98.38 305.841 84.4413 305.118C70.5026 304.394 60.0017 297.896 60.3757 290.695C61.0092 278.496 71.2776 269.251 86.955 270.065C102.632 270.879 111.508 280.697 110.852 293.316Z" fill="white"/>
<path d="M208.571 293.316C208.197 300.518 196.099 305.841 182.16 305.118C168.221 304.394 157.72 297.896 158.094 290.695C158.728 278.496 168.996 269.251 184.674 270.065C200.351 270.879 209.226 280.697 208.571 293.316Z" fill="white"/>
</g>
<defs>
<clipPath id="clip0_2216_1457">
<rect width="271.256" height="306.637" fill="white" transform="translate(0.722656 0.015625)"/>
</clipPath>
</defs>
</svg>
