<svg width="272" height="227" viewBox="0 0 272 227" fill="none" xmlns="http://www.w3.org/2000/svg">
<path d="M110.575 213.315C110.201 220.517 98.1026 225.84 84.1639 225.117C70.2252 224.393 59.7244 217.895 60.0984 210.694C60.7319 198.495 71.0003 189.25 86.6777 190.064C102.355 190.878 111.23 200.696 110.575 213.315Z" fill="#5BB42B"/>
<path d="M208.294 213.315C207.92 220.517 195.821 225.84 181.883 225.117C167.944 224.393 157.443 217.895 157.817 210.694C158.451 198.495 168.719 189.25 184.396 190.064C200.074 190.878 208.949 200.696 208.294 213.315Z" fill="#5BB42B"/>
<ellipse cx="33.6726" cy="36.2865" rx="33.6726" ry="36.2865" transform="matrix(-0.877234 -0.480064 -0.480064 0.877234 255.82 89.7529)" fill="#5BB42B"/>
<ellipse cx="62.5679" cy="104.482" rx="33.6726" ry="36.2865" transform="rotate(-28.6896 62.5679 104.482)" fill="#5BB42B"/>
<path d="M26.6858 163.695C26.6858 208.127 72.7635 208.118 132.283 208.118C191.803 208.118 244.027 208.127 244.027 163.695C244.027 99.8685 194.696 72.4902 135.176 72.4902C75.6568 72.4902 26.6858 94.8141 26.6858 163.695Z" fill="#5BB42B"/>
<path d="M221.281 148.308H206.96" stroke="#A1DC3C" stroke-width="16.8482" stroke-linecap="round"/>
<path d="M65.4375 148.308H51.1165" stroke="#A1DC3C" stroke-width="16.8482" stroke-linecap="round"/>
<path d="M66.1523 116.296L59.4137 117.981" stroke="#123041" stroke-width="12.6361" stroke-linecap="round"/>
<path d="M195.887 117.138L202.625 118.823" stroke="#123041" stroke-width="12.6361" stroke-linecap="round"/>
<path d="M99.0078 120.086C100.833 121.35 105.831 123.877 111.223 123.877C117.962 123.877 120.489 117.98 127.65 117.98C134.81 117.98 137.337 123.877 144.077 123.877C149.468 123.877 154.466 121.35 156.292 120.086" stroke="#4B890D" stroke-width="4.21205" stroke-linecap="round"/>
</svg>
