<svg width="272" height="261" viewBox="0 0 272 261" fill="none" xmlns="http://www.w3.org/2000/svg">
<g clip-path="url(#clip0_2427_327)">
<mask id="mask0_2427_327" style="mask-type:alpha" maskUnits="userSpaceOnUse" x="12" y="13" width="271" height="260">
<rect x="249.559" y="272.129" width="240.087" height="226.047" transform="rotate(-171.59 249.559 272.129)" fill="#D9D9D9"/>
</mask>
<g mask="url(#mask0_2427_327)">
<g clip-path="url(#clip1_2427_327)">
<path d="M69.6601 299.746C53.549 285.223 88.6602 214.675 107.493 207.92C126.325 201.164 154.501 206.775 165.796 216.539C177.091 226.303 196.771 306.108 177.105 315.631C157.439 325.154 85.7712 314.269 69.6601 299.746Z" fill="#FFDB40"/>
<path d="M38.2033 152.308C31.7732 195.802 77.3343 217.275 135.301 225.845C193.268 234.415 243.444 227.095 249.875 183.602C260.839 109.441 216.553 76.9117 158.587 68.3418C100.62 59.772 49.6895 74.616 38.2033 152.308Z" fill="#FFDB40"/>
<path d="M209.23 199.306L196.73 197.458" stroke="#FCA18E" stroke-width="16.8482" stroke-linecap="round"/>
<path d="M70.8945 178.853L58.3943 177.004" stroke="#FCA18E" stroke-width="16.8482" stroke-linecap="round"/>
<path d="M182.77 152.129L180.798 165.463" stroke="#123041" stroke-width="12.6361" stroke-linecap="round"/>
<path d="M81.9297 137.223L79.9584 150.556" stroke="#123041" stroke-width="12.6361" stroke-linecap="round"/>
<path d="M103.215 169.126C102.092 176.72 111.127 181.366 122.864 183.101C134.6 184.836 144.593 183.003 145.716 175.409C146.838 167.815 138.666 157.336 126.929 155.6C115.193 153.865 104.337 161.532 103.215 169.126Z" fill="#FFB132"/>
<path d="M155.214 38.2262C166.199 51.3055 171.602 64.9516 172.059 76.7121L150.163 71.0508C141.147 68.7196 133.968 56.6243 136.311 43.5778C138.653 30.5312 149.628 31.5749 155.214 38.2262Z" fill="#FFDB40"/>
<path d="M175.813 59.3672C171.309 62.6285 169.076 70.8568 168.522 74.5632C176.251 74.9857 189.392 74.5332 192.408 69.9898C195.424 65.4464 194.891 59.1644 192.311 57.3045C189.732 55.4447 181.444 55.2905 175.813 59.3672Z" fill="#FFDB40"/>
<rect x="10.0156" y="241.278" width="209.76" height="22.745" fill="#123041"/>
</g>
</g>
<path d="M161.87 247.316C162.244 254.518 174.343 259.841 188.281 259.118C202.22 258.394 212.721 251.896 212.347 244.695C211.713 232.496 201.445 223.251 185.768 224.065C170.09 224.879 161.215 234.697 161.87 247.316Z" fill="#FFDB40"/>
<path d="M64.1517 247.316C64.5256 254.518 76.6239 259.841 90.5626 259.118C104.501 258.394 115.002 251.896 114.628 244.695C113.995 232.496 103.726 223.251 88.0489 224.065C72.3715 224.879 63.4963 234.697 64.1517 247.316Z" fill="#FFDB40"/>
</g>
<defs>
<clipPath id="clip0_2427_327">
<rect width="271.256" height="260.094" fill="white" transform="matrix(-1 0 0 1 272 0.558594)"/>
</clipPath>
<clipPath id="clip1_2427_327">
<rect width="236.717" height="404.909" fill="white" transform="matrix(-0.989247 -0.146252 -0.146252 0.989247 281.211 34.9951)"/>
</clipPath>
</defs>
</svg>
