<svg width="110" height="73" viewBox="0 0 110 73" fill="none" xmlns="http://www.w3.org/2000/svg">
<g clip-path="url(#clip0_2790_14874)">
<path d="M55 0C68.8071 0 80 6.6038 80 14.75C80 22.8962 68.8071 29.5 55 29.5C41.1929 29.5 30 22.8962 30 14.75C30 6.6038 41.1929 0 55 0ZM55 8.5C46.9919 8.5 40.5 11.9698 40.5 16.25C40.5 20.5302 46.9919 24 55 24C63.0081 24 69.5 20.5302 69.5 16.25C69.5 11.9698 63.0081 8.5 55 8.5Z" fill="#123041"/>
<path d="M0 48.2402C0 29.8822 14.8822 15 33.2402 15H76.2598C94.6178 15 109.5 29.8822 109.5 48.2402V52.5559C109.5 63.5707 100.571 72.5 89.5559 72.5H19.9441C8.9293 72.5 0 63.5707 0 52.5559V48.2402Z" fill="#FFC53D"/>
<circle cx="30" cy="43.5" r="17.5" fill="#123041"/>
<circle cx="80" cy="44" r="16.75" fill="#123041" stroke="#123041" stroke-width="1.5"/>
<rect x="45" y="58" width="20" height="6" rx="2" fill="#173A52"/>
<path d="M36.9277 29.5L15.6722 50.7555" stroke="#005271" stroke-width="1.5" stroke-linecap="round"/>
<path d="M86.915 29.5L65.6595 50.7555" stroke="#005271" stroke-width="1.5" stroke-linecap="round"/>
<path d="M44.7725 37.3418L24.3595 58.051" stroke="#005271" stroke-width="1.5" stroke-linecap="round"/>
<path d="M94.7598 37.3418L74.3468 58.051" stroke="#005271" stroke-width="1.5" stroke-linecap="round"/>
<path d="M44.7725 50.8682L23.4009 29.5645" stroke="#005271" stroke-width="1.5" stroke-linecap="round"/>
<path d="M94.7598 50.8682L73.3882 29.5645" stroke="#005271" stroke-width="1.5" stroke-linecap="round"/>
<path d="M35.8018 57.5186L15.5124 37.2292" stroke="#005271" stroke-width="1.5" stroke-linecap="round"/>
<path d="M85.7891 57.5186L65.4997 37.2292" stroke="#005271" stroke-width="1.5" stroke-linecap="round"/>
</g>
<defs>
<clipPath id="clip0_2790_14874">
<rect width="109.5" height="72.5" fill="white"/>
</clipPath>
</defs>
</svg>
