<svg width="635" height="429" viewBox="0 0 635 429" fill="none" xmlns="http://www.w3.org/2000/svg">
<path d="M258.816 113.22C213.011 106.618 161.48 98.7237 141.44 95.6016C132.567 112.105 92.1994 154.031 79.8892 186.814C70.0411 213.04 68.7242 260.334 69.2968 280.702C85.5195 280.702 131.248 283.735 184.383 295.867C250.8 311.032 333.822 343.815 399.381 352.066C451.828 358.668 495.668 359.426 511.032 358.98C512.081 342.18 515.956 303.004 523.056 280.702C530.155 258.401 549.871 192.464 558.841 162.282C536.415 161.688 483.148 159.205 449.481 154.031C407.397 147.564 316.073 121.471 258.816 113.22Z" fill="white"/>
<path fill-rule="evenodd" clip-rule="evenodd" d="M157.158 290.279C157.706 262.335 160.008 228.64 166.184 202.584C173.903 170.021 201.384 144.045 226.418 120.382C230.099 116.902 233.728 113.472 237.233 110.079C244.471 111.142 251.711 112.196 258.812 113.22C272.457 115.186 288.035 118.165 304.422 121.651C300.668 125.298 296.566 129.217 292.095 133.408C254.788 168.383 240.798 188.591 236.134 220.458C234.592 230.999 233.815 244.346 232.987 258.558C232.046 274.722 231.04 292.006 228.768 307.553C213.437 303.13 198.531 299.099 184.379 295.867C175.036 293.734 165.923 291.882 157.158 290.279ZM175.069 100.772C160.765 98.5943 148.91 96.766 141.436 95.6016C138.281 101.469 131.144 110.551 122.703 121.294C107.404 140.763 87.8185 165.687 79.8853 186.814C70.0372 213.04 68.7203 260.334 69.2929 280.702C75.925 280.702 87.4887 281.209 102.474 282.638C102.673 256.36 105.035 223.005 112.941 200.14C122.47 172.586 134.013 157.82 146.505 141.841L146.505 141.841C152.864 133.706 159.47 125.256 166.181 114.645C169.361 109.616 172.334 104.991 175.069 100.772ZM373.923 347.881C352.869 343.711 330.602 337.771 308.072 331.237C306.618 304.806 306.774 274.029 311.915 252.325C317.971 226.752 333.869 204.546 349.069 183.315C359.954 168.11 370.481 153.406 376.779 138.323C401.22 144.133 423.848 149.446 440.914 152.576C431.22 173.762 419.529 189.247 408.559 203.776C390.928 227.128 375.16 248.012 372.539 286.135C370.908 309.861 371.923 330.936 373.923 347.881ZM511.458 160.074C530.603 161.293 548.194 162 558.837 162.282C549.867 192.464 530.151 258.401 523.052 280.702C515.952 303.004 512.077 342.18 511.028 358.98C501.74 359.25 482.045 359.079 456.332 357.444C452.762 334.091 451.739 305.393 459.978 282.637C467.022 263.183 475.151 245.9 483.273 228.633C493.383 207.141 503.48 185.673 511.458 160.074Z" fill="url(#paint0_linear_2216_1869)"/>
<path fill-rule="evenodd" clip-rule="evenodd" d="M327.386 178.498C337.2 144.382 334.103 115.507 306.757 102.537C241.288 71.484 203.775 102.923 180.606 151.77C172.634 168.579 167.668 185.601 167.13 201.907C157.256 198.786 148.245 200.023 146.819 203.03C145.143 206.564 151.988 216.665 163.707 222.223C165.969 223.296 167.869 224.01 169.479 224.429C169.67 225.171 169.872 225.91 170.086 226.647C166.344 227.623 161.621 229.945 155.453 234.107C144.181 241.712 140.455 255.899 147.131 265.794C153.807 275.689 168.357 277.545 179.629 269.939C185.047 266.284 188.714 263.115 191.065 260.269C199.104 267.898 209.368 274.842 222.155 280.907C231.98 285.567 241.424 286.483 250.431 284.386C253.384 285.93 257.256 286.844 262.207 286.788C277.863 286.613 294.288 270.896 304.638 257.876C316.464 271.367 332.265 285.588 344.541 290.738C358.363 297.966 386.144 305.35 390.429 301.438C395.989 296.363 409.266 267.348 408.503 263.333C408.081 261.116 397.165 255.352 386.641 250.591C387.824 248.111 388.963 245.608 390.048 243.107C402.646 245.261 418.998 247.02 420.808 245.118C423.625 242.157 428.186 210.575 426.263 203.297C424.948 198.322 403.281 190.8 387.561 188.177C371.741 180.782 345.316 177.067 327.386 178.498Z" fill="black" fill-opacity="0.3"/>
<g clip-path="url(#clip0_2216_1869)">
<path d="M180.05 196.346C191.768 201.904 189.899 206.025 187.508 211.067C185.116 216.108 183.108 220.163 171.39 214.605C159.671 209.047 152.826 198.946 154.502 195.412C156.178 191.878 168.332 190.788 180.05 196.346Z" fill="#6A5B3D"/>
<path d="M232.347 86.0944C244.065 91.6525 242.196 95.7727 239.804 100.815C237.413 105.857 235.405 109.911 223.687 104.353C211.968 98.7948 205.123 88.6937 206.799 85.1599C208.475 81.626 220.628 80.5363 232.347 86.0944Z" fill="#6A5B3D"/>
<path d="M237.263 70.1627C239.761 97.3895 249.148 93.7969 261.035 92.7064C272.922 91.6159 282.755 92.8878 280.308 66.2136C279.066 52.6725 268.423 42.5794 256.536 43.6699C244.65 44.7604 236.021 56.6217 237.263 70.1627Z" fill="#123041"/>
<path d="M250.481 70.0037C251.726 83.5738 255.258 81.8884 259.768 81.4747C264.278 81.0609 268.032 81.8 266.813 68.5053C266.193 61.7563 262.035 56.6206 257.525 57.0343C253.016 57.4481 249.861 63.2547 250.481 70.0037Z" fill="#FFC0C1"/>
<path d="M346.773 117.086C359.308 132.784 352.833 165.644 348.029 180.113C346.665 181.165 342.984 183.164 339.181 182.747C334.427 182.224 317.636 137.153 315.658 126.118C313.68 115.083 331.106 97.465 346.773 117.086Z" fill="#E7EAEE"/>
<path d="M269.898 279.17C289.984 278.945 311.335 253.141 319.499 240.266C319.451 238.544 318.67 234.428 315.941 231.747C312.528 228.396 267.002 243.911 257.205 249.36C247.408 254.81 244.79 279.452 269.898 279.17Z" fill="#E7EAEE"/>
<path d="M433.946 195.678C432.407 189.856 402.995 180.545 387.86 179.681L389.409 233.88C401.434 236.558 426.237 239.868 428.491 237.499C431.308 234.538 435.869 202.956 433.946 195.678Z" fill="#E7EAEE"/>
<path fill-rule="evenodd" clip-rule="evenodd" d="M335.058 170.88C344.871 136.765 341.775 107.889 314.429 94.9191C248.959 63.8665 211.446 95.3055 188.278 144.153C176.157 169.707 170.986 195.754 177.758 219.029C174.016 220.006 169.293 222.328 163.125 226.489C151.853 234.095 148.127 248.281 154.803 258.176C161.479 268.071 176.029 269.927 187.301 262.322C192.719 258.666 196.386 255.497 198.737 252.652C206.776 260.28 217.04 267.225 229.827 273.29C257.796 286.556 282.682 269.477 303.199 238.934C318.522 260.043 352.142 291.783 365.595 283.898C382.987 273.703 411.41 213.162 408.539 193.356C406.288 177.826 361.461 168.773 335.058 170.88Z" fill="white"/>
<path d="M171.062 237.453C182.359 229.832 183.288 233.633 185.821 237.387C188.354 241.142 191.302 243.582 180.235 251.049C174.617 254.839 168.009 254.869 165.476 251.114C162.943 247.36 165.444 241.244 171.062 237.453Z" fill="#FFC0C1"/>
<path fill-rule="evenodd" clip-rule="evenodd" d="M396.989 237.161C393.349 235.291 385.753 231.838 380.038 232.275C370.889 232.976 359.773 244.169 359.773 244.169C356.4 249.164 347.007 258.932 336.42 258.039C331.914 257.659 327.782 259.753 324.296 262.784C339.535 277.372 356.84 289.031 365.597 283.898C375.069 278.346 387.811 257.864 396.989 237.161Z" fill="#123041"/>
<path d="M398.112 293.822C393.664 297.882 363.899 289.772 350.71 282.298L381.377 237.583C392.935 241.847 415.575 252.504 416.186 255.716C416.949 259.732 403.672 288.747 398.112 293.822Z" fill="#123041"/>
<path d="M383.399 187.848C402.132 196.733 399.026 214.902 389.644 234.682C380.262 254.462 368.158 268.363 349.425 259.477C324.799 247.797 318.465 225.151 327.846 205.371C337.228 185.591 358.773 176.168 383.399 187.848Z" fill="#FFC0C1"/>
<path d="M383.179 231.985C383.249 231.841 383.289 231.685 383.298 231.526C383.307 231.367 383.285 231.207 383.232 231.057L380.639 223.852C380.516 223.573 380.292 223.352 380.013 223.232C379.733 223.113 379.419 223.104 379.132 223.207C378.845 223.31 378.607 223.518 378.466 223.789C378.324 224.06 378.29 224.374 378.369 224.668L380.902 231.858C380.955 232.009 381.037 232.148 381.143 232.267C381.25 232.385 381.379 232.482 381.523 232.55C381.666 232.618 381.823 232.657 381.982 232.664C382.141 232.672 382.3 232.647 382.45 232.593C382.606 232.546 382.751 232.468 382.876 232.363C383.002 232.259 383.105 232.13 383.179 231.985Z" fill="#FF8D8D"/>
<path d="M385.468 227.159C385.537 227.016 385.577 226.861 385.586 226.703C385.594 226.545 385.572 226.387 385.519 226.237C385.466 226.087 385.385 225.949 385.278 225.831C385.172 225.713 385.043 225.617 384.9 225.549C384.756 225.481 384.6 225.442 384.442 225.434C384.283 225.427 384.124 225.451 383.975 225.505L376.838 228.049C376.688 228.101 376.55 228.183 376.432 228.29C376.314 228.396 376.218 228.525 376.15 228.668C376.082 228.812 376.043 228.968 376.036 229.126C376.028 229.285 376.052 229.444 376.106 229.593C376.214 229.892 376.435 230.137 376.723 230.273C377.01 230.409 377.34 230.427 377.64 230.321L384.792 227.771C385.089 227.664 385.332 227.444 385.468 227.159Z" fill="#FF8D8D"/>
<path fill-rule="evenodd" clip-rule="evenodd" d="M191.324 137.996C203.213 143.132 219.709 147.964 229.547 143.244C238.198 139.093 243.275 131.975 247.812 125.615C251.69 120.179 255.173 115.297 260.155 113.293C262.802 112.228 266.026 111.698 269.517 111.125C280.037 109.398 292.99 107.27 299.944 88.8905C245.942 69.6896 212.839 96.3381 191.324 137.996Z" fill="#123041"/>
<path d="M278.338 205.369C263.911 198.526 257.762 181.283 264.605 166.855L270.801 153.793C277.644 139.365 294.887 133.217 309.315 140.06C318.933 144.622 323.032 156.118 318.47 165.736L304.015 196.214C299.452 205.832 287.957 209.931 278.338 205.369Z" fill="#FFC0C1"/>
<path d="M280.871 183.348L288.596 187.012" stroke="black" stroke-width="7.77234" stroke-linecap="round"/>
<path d="M294.195 155.258L301.92 158.922" stroke="black" stroke-width="7.77234" stroke-linecap="round"/>
<path fill-rule="evenodd" clip-rule="evenodd" d="M321.314 98.8494C319.675 99.5774 318.279 100.873 317.45 102.621L312.454 113.154C310.614 117.033 312.267 121.668 316.146 123.508C320.024 125.347 324.659 123.694 326.499 119.816L331.495 109.282C331.555 109.157 331.61 109.03 331.663 108.903C328.939 105.099 325.513 101.726 321.314 98.8494ZM256.517 249.21C252.638 247.37 250.985 242.735 252.825 238.856L257.821 228.323C259.661 224.444 264.296 222.792 268.174 224.631C272.053 226.471 273.706 231.106 271.866 234.984L266.87 245.518C265.03 249.396 260.395 251.049 256.517 249.21Z" fill="#FFC0C1"/>
<path d="M258.277 205.609C258.277 205.609 260.472 208.987 258.437 213.278C256.401 217.569 252.397 218.007 252.397 218.007" stroke="#123041" stroke-width="11.6585" stroke-linecap="round"/>
<path d="M302.906 111.51C302.906 111.51 305.101 114.887 303.066 119.178C301.03 123.47 297.026 123.907 297.026 123.907" stroke="#123041" stroke-width="11.6585" stroke-linecap="round"/>
<circle cx="300.529" cy="116.98" r="27.7907" fill="#337A37"/>
<circle cx="300.526" cy="116.979" r="25.2055" fill="#B3D875"/>
<circle cx="300.527" cy="116.978" r="22.6203" fill="#D9EC9C"/>
<circle cx="248.822" cy="213.923" r="27.7907" fill="#337A37"/>
<circle cx="248.823" cy="213.922" r="25.2055" fill="#B3D875"/>
<circle cx="248.823" cy="213.923" r="22.6203" fill="#D9EC9C"/>
<path d="M246.503 196.562C247.343 195.833 248.65 196.435 248.643 197.547L248.56 209.7C248.553 210.639 247.579 211.258 246.727 210.866L237.629 206.676C236.776 206.284 236.613 205.141 237.323 204.526L246.503 196.562Z" fill="#B4D875"/>
<path d="M252.543 196.467C251.717 195.723 250.399 196.302 250.386 197.414L250.25 209.566C250.239 210.505 251.202 211.142 252.062 210.765L261.234 206.74C262.093 206.363 262.277 205.224 261.579 204.596L252.543 196.467Z" fill="#B4D875"/>
<path d="M235.272 225.137C234.259 224.679 234.259 223.239 235.272 222.781L246.346 217.773C247.202 217.386 248.171 218.012 248.171 218.951L248.171 228.967C248.171 229.906 247.202 230.532 246.346 230.145L235.272 225.137Z" fill="#B4D875"/>
<path d="M232.111 220.514C231.93 221.611 233.128 222.409 234.071 221.82L244.38 215.383C245.176 214.886 245.194 213.732 244.412 213.211L236.078 207.656C235.297 207.135 234.239 207.595 234.086 208.522L232.111 220.514Z" fill="#B4D875"/>
<path d="M268.186 219.932C268.486 221.003 267.383 221.928 266.381 221.446L255.428 216.179C254.582 215.772 254.438 214.627 255.158 214.024L262.832 207.588C263.552 206.984 264.654 207.325 264.907 208.229L268.186 219.932Z" fill="#B4D875"/>
<path d="M262.368 225.137C263.382 224.679 263.382 223.239 262.368 222.781L251.295 217.773C250.439 217.386 249.469 218.012 249.469 218.951L249.469 228.967C249.469 229.906 250.439 230.532 251.295 230.145L262.368 225.137Z" fill="#B4D875"/>
</g>
<defs>
<linearGradient id="paint0_linear_2216_1869" x1="314.008" y1="95.6016" x2="314.008" y2="359.084" gradientUnits="userSpaceOnUse">
<stop stop-color="#9EE7E5"/>
<stop offset="1" stop-color="#9EE7E5"/>
</linearGradient>
<clipPath id="clip0_2216_1869">
<rect width="244.829" height="290.685" fill="white" transform="translate(116.586 244.523) rotate(-64.6248)"/>
</clipPath>
</defs>
</svg>
