<svg width="1279" height="655" viewBox="0 0 1279 655" fill="none" xmlns="http://www.w3.org/2000/svg">
<rect x="471" width="714" height="464" rx="12" fill="white"/>
<path d="M96.584 211V197.59H104.864V198.94H98.024V203.602H104.324V204.952H98.024V211H96.584ZM107.205 211V201.352H108.555V211H107.205ZM107.205 199.57V197.59H108.555V199.57H107.205ZM111.678 211V197.374H113.028V211H111.678ZM116.152 211V197.374H117.502V211H116.152ZM128.561 211.216C127.649 211.216 126.821 211 126.077 210.568C125.333 210.124 124.739 209.524 124.295 208.768C123.863 208 123.647 207.13 123.647 206.158C123.647 205.198 123.863 204.34 124.295 203.584C124.727 202.828 125.309 202.234 126.041 201.802C126.785 201.358 127.625 201.136 128.561 201.136C129.497 201.136 130.331 201.352 131.063 201.784C131.807 202.216 132.389 202.81 132.809 203.566C133.241 204.322 133.457 205.186 133.457 206.158C133.457 207.142 133.235 208.018 132.791 208.786C132.347 209.542 131.753 210.136 131.009 210.568C130.277 211 129.461 211.216 128.561 211.216ZM128.561 209.866C129.209 209.866 129.791 209.704 130.307 209.38C130.835 209.056 131.249 208.612 131.549 208.048C131.861 207.484 132.017 206.854 132.017 206.158C132.017 205.462 131.861 204.838 131.549 204.286C131.249 203.734 130.835 203.296 130.307 202.972C129.791 202.648 129.209 202.486 128.561 202.486C127.913 202.486 127.325 202.648 126.797 202.972C126.281 203.296 125.867 203.734 125.555 204.286C125.243 204.838 125.087 205.462 125.087 206.158C125.087 206.854 125.243 207.484 125.555 208.048C125.867 208.612 126.281 209.056 126.797 209.38C127.325 209.704 127.913 209.866 128.561 209.866ZM139.618 211.216C138.946 211.216 138.334 211.06 137.782 210.748C137.23 210.424 136.792 209.98 136.468 209.416C136.156 208.84 136 208.18 136 207.436V201.352H137.35V207.274C137.35 207.79 137.452 208.246 137.656 208.642C137.872 209.026 138.166 209.326 138.538 209.542C138.922 209.758 139.36 209.866 139.852 209.866C140.344 209.866 140.782 209.758 141.166 209.542C141.55 209.314 141.85 208.996 142.066 208.588C142.282 208.168 142.39 207.67 142.39 207.094V201.352H143.74V211H142.39V209.128L142.696 209.2C142.468 209.824 142.078 210.316 141.526 210.676C140.974 211.036 140.338 211.216 139.618 211.216ZM150.567 211.108C149.703 211.108 149.037 210.856 148.569 210.352C148.101 209.848 147.867 209.128 147.867 208.192V202.702H146.085V201.352H146.535C146.943 201.352 147.267 201.22 147.507 200.956C147.747 200.68 147.867 200.338 147.867 199.93V199.12H149.217V201.352H151.341V202.702H149.217V208.192C149.217 208.516 149.265 208.804 149.361 209.056C149.457 209.296 149.619 209.488 149.847 209.632C150.087 209.776 150.405 209.848 150.801 209.848C150.897 209.848 151.011 209.842 151.143 209.83C151.275 209.818 151.389 209.806 151.485 209.794V211C151.341 211.036 151.179 211.06 150.999 211.072C150.819 211.096 150.675 211.108 150.567 211.108ZM157.634 211V201.352H158.984V202.936L158.804 202.702C159.032 202.246 159.374 201.886 159.83 201.622C160.298 201.358 160.862 201.226 161.522 201.226H162.134V202.576H161.288C160.592 202.576 160.034 202.792 159.614 203.224C159.194 203.656 158.984 204.268 158.984 205.06V211H157.634ZM168.468 211.216C167.568 211.216 166.752 211 166.02 210.568C165.3 210.124 164.73 209.518 164.31 208.75C163.89 207.982 163.68 207.112 163.68 206.14C163.68 205.168 163.884 204.31 164.292 203.566C164.7 202.81 165.252 202.216 165.948 201.784C166.656 201.352 167.448 201.136 168.324 201.136C169.02 201.136 169.638 201.268 170.178 201.532C170.73 201.784 171.198 202.132 171.582 202.576C171.966 203.008 172.26 203.5 172.464 204.052C172.668 204.592 172.77 205.15 172.77 205.726C172.77 205.846 172.764 205.984 172.752 206.14C172.74 206.284 172.722 206.434 172.698 206.59H164.544V205.33H171.924L171.276 205.87C171.384 205.21 171.306 204.622 171.042 204.106C170.79 203.578 170.424 203.164 169.944 202.864C169.464 202.552 168.924 202.396 168.324 202.396C167.724 202.396 167.166 202.552 166.65 202.864C166.146 203.176 165.75 203.614 165.462 204.178C165.174 204.73 165.06 205.39 165.12 206.158C165.06 206.926 165.18 207.598 165.48 208.174C165.792 208.738 166.212 209.176 166.74 209.488C167.28 209.8 167.856 209.956 168.468 209.956C169.176 209.956 169.77 209.788 170.25 209.452C170.73 209.116 171.12 208.696 171.42 208.192L172.572 208.804C172.38 209.236 172.086 209.638 171.69 210.01C171.294 210.37 170.82 210.664 170.268 210.892C169.728 211.108 169.128 211.216 168.468 211.216ZM178.858 211.216C177.934 211.216 177.124 210.982 176.428 210.514C175.732 210.046 175.228 209.41 174.916 208.606L176.05 208.066C176.326 208.654 176.71 209.122 177.202 209.47C177.706 209.818 178.258 209.992 178.858 209.992C179.434 209.992 179.92 209.854 180.316 209.578C180.712 209.29 180.91 208.918 180.91 208.462C180.91 208.126 180.814 207.862 180.622 207.67C180.43 207.466 180.208 207.31 179.956 207.202C179.704 207.094 179.482 207.016 179.29 206.968L177.904 206.572C177.016 206.32 176.374 205.966 175.978 205.51C175.582 205.054 175.384 204.526 175.384 203.926C175.384 203.362 175.528 202.87 175.816 202.45C176.104 202.03 176.494 201.706 176.986 201.478C177.478 201.25 178.024 201.136 178.624 201.136C179.44 201.136 180.178 201.352 180.838 201.784C181.51 202.204 181.984 202.792 182.26 203.548L181.108 204.088C180.868 203.548 180.52 203.128 180.064 202.828C179.62 202.516 179.122 202.36 178.57 202.36C178.03 202.36 177.598 202.498 177.274 202.774C176.95 203.05 176.788 203.398 176.788 203.818C176.788 204.142 176.872 204.4 177.04 204.592C177.208 204.784 177.4 204.928 177.616 205.024C177.844 205.12 178.042 205.192 178.21 205.24L179.812 205.708C180.592 205.936 181.198 206.29 181.63 206.77C182.074 207.25 182.296 207.814 182.296 208.462C182.296 208.99 182.146 209.464 181.846 209.884C181.558 210.304 181.156 210.634 180.64 210.874C180.124 211.102 179.53 211.216 178.858 211.216ZM185.028 214.6V201.352H186.378V203.512L186.162 203.134C186.546 202.522 187.056 202.036 187.692 201.676C188.34 201.316 189.078 201.136 189.906 201.136C190.818 201.136 191.628 201.358 192.336 201.802C193.056 202.234 193.62 202.828 194.028 203.584C194.448 204.34 194.658 205.204 194.658 206.176C194.658 207.136 194.448 208 194.028 208.768C193.62 209.524 193.056 210.124 192.336 210.568C191.628 211 190.818 211.216 189.906 211.216C189.078 211.216 188.328 211.03 187.656 210.658C186.996 210.274 186.498 209.734 186.162 209.038L186.378 208.84V214.6H185.028ZM189.834 209.866C190.482 209.866 191.058 209.704 191.562 209.38C192.078 209.056 192.48 208.618 192.768 208.066C193.068 207.502 193.218 206.872 193.218 206.176C193.218 205.468 193.068 204.838 192.768 204.286C192.48 203.734 192.078 203.296 191.562 202.972C191.058 202.648 190.482 202.486 189.834 202.486C189.186 202.486 188.598 202.648 188.07 202.972C187.554 203.296 187.14 203.74 186.828 204.304C186.528 204.856 186.378 205.48 186.378 206.176C186.378 206.872 186.528 207.502 186.828 208.066C187.14 208.618 187.554 209.056 188.07 209.38C188.598 209.704 189.186 209.866 189.834 209.866ZM201.786 211.216C200.886 211.216 200.07 211 199.338 210.568C198.618 210.124 198.048 209.518 197.628 208.75C197.208 207.982 196.998 207.112 196.998 206.14C196.998 205.168 197.202 204.31 197.61 203.566C198.018 202.81 198.57 202.216 199.266 201.784C199.974 201.352 200.766 201.136 201.642 201.136C202.338 201.136 202.956 201.268 203.496 201.532C204.048 201.784 204.516 202.132 204.9 202.576C205.284 203.008 205.578 203.5 205.782 204.052C205.986 204.592 206.088 205.15 206.088 205.726C206.088 205.846 206.082 205.984 206.07 206.14C206.058 206.284 206.04 206.434 206.016 206.59H197.862V205.33H205.242L204.594 205.87C204.702 205.21 204.624 204.622 204.36 204.106C204.108 203.578 203.742 203.164 203.262 202.864C202.782 202.552 202.242 202.396 201.642 202.396C201.042 202.396 200.484 202.552 199.968 202.864C199.464 203.176 199.068 203.614 198.78 204.178C198.492 204.73 198.378 205.39 198.438 206.158C198.378 206.926 198.498 207.598 198.798 208.174C199.11 208.738 199.53 209.176 200.058 209.488C200.598 209.8 201.174 209.956 201.786 209.956C202.494 209.956 203.088 209.788 203.568 209.452C204.048 209.116 204.438 208.696 204.738 208.192L205.89 208.804C205.698 209.236 205.404 209.638 205.008 210.01C204.612 210.37 204.138 210.664 203.586 210.892C203.046 211.108 202.446 211.216 201.786 211.216ZM213.238 211.216C212.29 211.216 211.456 210.994 210.736 210.55C210.016 210.106 209.452 209.506 209.044 208.75C208.636 207.982 208.432 207.118 208.432 206.158C208.432 205.198 208.636 204.34 209.044 203.584C209.452 202.828 210.016 202.234 210.736 201.802C211.456 201.358 212.29 201.136 213.238 201.136C213.838 201.136 214.402 201.244 214.93 201.46C215.458 201.676 215.926 201.97 216.334 202.342C216.742 202.702 217.048 203.122 217.252 203.602L216.028 204.232C215.788 203.716 215.422 203.296 214.93 202.972C214.438 202.648 213.874 202.486 213.238 202.486C212.602 202.486 212.026 202.648 211.51 202.972C211.006 203.284 210.604 203.722 210.304 204.286C210.016 204.838 209.872 205.468 209.872 206.176C209.872 206.872 210.016 207.502 210.304 208.066C210.604 208.618 211.006 209.056 211.51 209.38C212.026 209.704 212.602 209.866 213.238 209.866C213.874 209.866 214.432 209.704 214.912 209.38C215.404 209.056 215.776 208.624 216.028 208.084L217.252 208.75C217.048 209.218 216.742 209.638 216.334 210.01C215.926 210.382 215.458 210.676 214.93 210.892C214.402 211.108 213.838 211.216 213.238 211.216ZM223.671 211.108C222.807 211.108 222.141 210.856 221.673 210.352C221.205 209.848 220.971 209.128 220.971 208.192V202.702H219.189V201.352H219.639C220.047 201.352 220.371 201.22 220.611 200.956C220.851 200.68 220.971 200.338 220.971 199.93V199.12H222.321V201.352H224.445V202.702H222.321V208.192C222.321 208.516 222.369 208.804 222.465 209.056C222.561 209.296 222.723 209.488 222.951 209.632C223.191 209.776 223.509 209.848 223.905 209.848C224.001 209.848 224.115 209.842 224.247 209.83C224.379 209.818 224.493 209.806 224.589 209.794V211C224.445 211.036 224.283 211.06 224.103 211.072C223.923 211.096 223.779 211.108 223.671 211.108ZM227.32 211V201.352H228.67V211H227.32ZM227.32 199.57V197.59H228.67V199.57H227.32ZM234.367 211L230.605 201.352H232.117L235.285 209.812H234.799L237.985 201.352H239.515L235.717 211H234.367ZM245.668 211.216C244.768 211.216 243.952 211 243.22 210.568C242.5 210.124 241.93 209.518 241.51 208.75C241.09 207.982 240.88 207.112 240.88 206.14C240.88 205.168 241.084 204.31 241.492 203.566C241.9 202.81 242.452 202.216 243.148 201.784C243.856 201.352 244.648 201.136 245.524 201.136C246.22 201.136 246.838 201.268 247.378 201.532C247.93 201.784 248.398 202.132 248.782 202.576C249.166 203.008 249.46 203.5 249.664 204.052C249.868 204.592 249.97 205.15 249.97 205.726C249.97 205.846 249.964 205.984 249.952 206.14C249.94 206.284 249.922 206.434 249.898 206.59H241.744V205.33H249.124L248.476 205.87C248.584 205.21 248.506 204.622 248.242 204.106C247.99 203.578 247.624 203.164 247.144 202.864C246.664 202.552 246.124 202.396 245.524 202.396C244.924 202.396 244.366 202.552 243.85 202.864C243.346 203.176 242.95 203.614 242.662 204.178C242.374 204.73 242.26 205.39 242.32 206.158C242.26 206.926 242.38 207.598 242.68 208.174C242.992 208.738 243.412 209.176 243.94 209.488C244.48 209.8 245.056 209.956 245.668 209.956C246.376 209.956 246.97 209.788 247.45 209.452C247.93 209.116 248.32 208.696 248.62 208.192L249.772 208.804C249.58 209.236 249.286 209.638 248.89 210.01C248.494 210.37 248.02 210.664 247.468 210.892C246.928 211.108 246.328 211.216 245.668 211.216ZM256.129 211V201.352H257.479V211H256.129ZM256.129 199.57V197.59H257.479V199.57H256.129ZM260.602 211V201.352H261.952V203.224L261.646 203.152C261.886 202.528 262.276 202.036 262.816 201.676C263.368 201.316 264.004 201.136 264.724 201.136C265.408 201.136 266.02 201.292 266.56 201.604C267.112 201.916 267.544 202.348 267.856 202.9C268.18 203.44 268.342 204.052 268.342 204.736V211H266.992V205.258C266.992 204.67 266.884 204.172 266.668 203.764C266.464 203.356 266.17 203.044 265.786 202.828C265.414 202.6 264.982 202.486 264.49 202.486C263.998 202.486 263.56 202.6 263.176 202.828C262.792 203.044 262.492 203.362 262.276 203.782C262.06 204.19 261.952 204.682 261.952 205.258V211H260.602ZM272.271 211V202.702H270.345V201.352H272.271V200.488C272.271 199.816 272.421 199.252 272.721 198.796C273.021 198.328 273.417 197.974 273.909 197.734C274.401 197.494 274.929 197.374 275.493 197.374C275.613 197.374 275.751 197.386 275.907 197.41C276.063 197.422 276.189 197.44 276.285 197.464V198.688C276.201 198.664 276.087 198.652 275.943 198.652C275.799 198.64 275.697 198.634 275.637 198.634C275.061 198.634 274.581 198.772 274.197 199.048C273.813 199.324 273.621 199.804 273.621 200.488V201.352H275.979V202.702H273.621V211H272.271ZM282.68 211.216C281.768 211.216 280.94 211 280.196 210.568C279.452 210.124 278.858 209.524 278.414 208.768C277.982 208 277.766 207.13 277.766 206.158C277.766 205.198 277.982 204.34 278.414 203.584C278.846 202.828 279.428 202.234 280.16 201.802C280.904 201.358 281.744 201.136 282.68 201.136C283.616 201.136 284.45 201.352 285.182 201.784C285.926 202.216 286.508 202.81 286.928 203.566C287.36 204.322 287.576 205.186 287.576 206.158C287.576 207.142 287.354 208.018 286.91 208.786C286.466 209.542 285.872 210.136 285.128 210.568C284.396 211 283.58 211.216 282.68 211.216ZM282.68 209.866C283.328 209.866 283.91 209.704 284.426 209.38C284.954 209.056 285.368 208.612 285.668 208.048C285.98 207.484 286.136 206.854 286.136 206.158C286.136 205.462 285.98 204.838 285.668 204.286C285.368 203.734 284.954 203.296 284.426 202.972C283.91 202.648 283.328 202.486 282.68 202.486C282.032 202.486 281.444 202.648 280.916 202.972C280.4 203.296 279.986 203.734 279.674 204.286C279.362 204.838 279.206 205.462 279.206 206.158C279.206 206.854 279.362 207.484 279.674 208.048C279.986 208.612 280.4 209.056 280.916 209.38C281.444 209.704 282.032 209.866 282.68 209.866ZM290.317 211V201.352H291.667V202.936L291.487 202.702C291.715 202.246 292.057 201.886 292.513 201.622C292.981 201.358 293.545 201.226 294.205 201.226H294.817V202.576H293.971C293.275 202.576 292.717 202.792 292.297 203.224C291.877 203.656 291.667 204.268 291.667 205.06V211H290.317ZM296.759 211V201.352H298.109V203.188L297.893 202.918C298.157 202.354 298.547 201.916 299.063 201.604C299.591 201.292 300.167 201.136 300.791 201.136C301.535 201.136 302.207 201.346 302.807 201.766C303.407 202.186 303.833 202.732 304.085 203.404L303.707 203.422C303.947 202.678 304.361 202.114 304.949 201.73C305.549 201.334 306.209 201.136 306.929 201.136C307.577 201.136 308.171 201.292 308.711 201.604C309.263 201.916 309.701 202.348 310.025 202.9C310.361 203.44 310.529 204.052 310.529 204.736V211H309.179V205.258C309.179 204.67 309.071 204.172 308.855 203.764C308.651 203.356 308.369 203.044 308.009 202.828C307.649 202.6 307.235 202.486 306.767 202.486C306.311 202.486 305.897 202.6 305.525 202.828C305.153 203.044 304.859 203.362 304.643 203.782C304.427 204.19 304.319 204.682 304.319 205.258V211H302.969V205.258C302.969 204.67 302.861 204.172 302.645 203.764C302.441 203.356 302.159 203.044 301.799 202.828C301.439 202.6 301.025 202.486 300.557 202.486C300.089 202.486 299.669 202.6 299.297 202.828C298.937 203.044 298.649 203.362 298.433 203.782C298.217 204.19 298.109 204.682 298.109 205.258V211H296.759ZM316.257 211.216C315.645 211.216 315.099 211.102 314.619 210.874C314.139 210.634 313.761 210.31 313.485 209.902C313.209 209.494 313.071 209.026 313.071 208.498C313.071 207.994 313.179 207.538 313.395 207.13C313.611 206.71 313.947 206.356 314.403 206.068C314.859 205.78 315.441 205.576 316.149 205.456L319.929 204.826V206.05L316.473 206.626C315.777 206.746 315.273 206.968 314.961 207.292C314.661 207.616 314.511 208 314.511 208.444C314.511 208.876 314.679 209.242 315.015 209.542C315.363 209.842 315.807 209.992 316.347 209.992C317.007 209.992 317.583 209.854 318.075 209.578C318.567 209.29 318.951 208.906 319.227 208.426C319.503 207.946 319.641 207.412 319.641 206.824V204.376C319.641 203.8 319.431 203.332 319.011 202.972C318.591 202.612 318.045 202.432 317.373 202.432C316.785 202.432 316.269 202.582 315.825 202.882C315.381 203.17 315.051 203.548 314.835 204.016L313.611 203.35C313.791 202.942 314.073 202.57 314.457 202.234C314.853 201.898 315.303 201.634 315.807 201.442C316.311 201.238 316.833 201.136 317.373 201.136C318.081 201.136 318.705 201.274 319.245 201.55C319.797 201.826 320.223 202.21 320.523 202.702C320.835 203.182 320.991 203.74 320.991 204.376V211H319.641V209.074L319.839 209.272C319.671 209.632 319.407 209.962 319.047 210.262C318.699 210.55 318.285 210.784 317.805 210.964C317.337 211.132 316.821 211.216 316.257 211.216ZM327.642 211.108C326.778 211.108 326.112 210.856 325.644 210.352C325.176 209.848 324.942 209.128 324.942 208.192V202.702H323.16V201.352H323.61C324.018 201.352 324.342 201.22 324.582 200.956C324.822 200.68 324.942 200.338 324.942 199.93V199.12H326.292V201.352H328.416V202.702H326.292V208.192C326.292 208.516 326.34 208.804 326.436 209.056C326.532 209.296 326.694 209.488 326.922 209.632C327.162 209.776 327.48 209.848 327.876 209.848C327.972 209.848 328.086 209.842 328.218 209.83C328.35 209.818 328.464 209.806 328.56 209.794V211C328.416 211.036 328.254 211.06 328.074 211.072C327.894 211.096 327.75 211.108 327.642 211.108ZM331.29 211V201.352H332.64V211H331.29ZM331.29 199.57V197.59H332.64V199.57H331.29ZM340.282 211.216C339.37 211.216 338.542 211 337.798 210.568C337.054 210.124 336.46 209.524 336.016 208.768C335.584 208 335.368 207.13 335.368 206.158C335.368 205.198 335.584 204.34 336.016 203.584C336.448 202.828 337.03 202.234 337.762 201.802C338.506 201.358 339.346 201.136 340.282 201.136C341.218 201.136 342.052 201.352 342.784 201.784C343.528 202.216 344.11 202.81 344.53 203.566C344.962 204.322 345.178 205.186 345.178 206.158C345.178 207.142 344.956 208.018 344.512 208.786C344.068 209.542 343.474 210.136 342.73 210.568C341.998 211 341.182 211.216 340.282 211.216ZM340.282 209.866C340.93 209.866 341.512 209.704 342.028 209.38C342.556 209.056 342.97 208.612 343.27 208.048C343.582 207.484 343.738 206.854 343.738 206.158C343.738 205.462 343.582 204.838 343.27 204.286C342.97 203.734 342.556 203.296 342.028 202.972C341.512 202.648 340.93 202.486 340.282 202.486C339.634 202.486 339.046 202.648 338.518 202.972C338.002 203.296 337.588 203.734 337.276 204.286C336.964 204.838 336.808 205.462 336.808 206.158C336.808 206.854 336.964 207.484 337.276 208.048C337.588 208.612 338.002 209.056 338.518 209.38C339.046 209.704 339.634 209.866 340.282 209.866ZM347.918 211V201.352H349.268V203.224L348.962 203.152C349.202 202.528 349.592 202.036 350.132 201.676C350.684 201.316 351.32 201.136 352.04 201.136C352.724 201.136 353.336 201.292 353.876 201.604C354.428 201.916 354.86 202.348 355.172 202.9C355.496 203.44 355.658 204.052 355.658 204.736V211H354.308V205.258C354.308 204.67 354.2 204.172 353.984 203.764C353.78 203.356 353.486 203.044 353.102 202.828C352.73 202.6 352.298 202.486 351.806 202.486C351.314 202.486 350.876 202.6 350.492 202.828C350.108 203.044 349.808 203.362 349.592 203.782C349.376 204.19 349.268 204.682 349.268 205.258V211H347.918ZM361.961 206.806V205.546H368.261V206.806H361.961ZM96.386 240.6V227.352H97.736V229.512L97.52 229.134C97.904 228.522 98.414 228.036 99.05 227.676C99.698 227.316 100.436 227.136 101.264 227.136C102.176 227.136 102.986 227.358 103.694 227.802C104.414 228.234 104.978 228.828 105.386 229.584C105.806 230.34 106.016 231.204 106.016 232.176C106.016 233.136 105.806 234 105.386 234.768C104.978 235.524 104.414 236.124 103.694 236.568C102.986 237 102.176 237.216 101.264 237.216C100.436 237.216 99.686 237.03 99.014 236.658C98.354 236.274 97.856 235.734 97.52 235.038L97.736 234.84V240.6H96.386ZM101.192 235.866C101.84 235.866 102.416 235.704 102.92 235.38C103.436 235.056 103.838 234.618 104.126 234.066C104.426 233.502 104.576 232.872 104.576 232.176C104.576 231.468 104.426 230.838 104.126 230.286C103.838 229.734 103.436 229.296 102.92 228.972C102.416 228.648 101.84 228.486 101.192 228.486C100.544 228.486 99.956 228.648 99.428 228.972C98.912 229.296 98.498 229.74 98.186 230.304C97.886 230.856 97.736 231.48 97.736 232.176C97.736 232.872 97.886 233.502 98.186 234.066C98.498 234.618 98.912 235.056 99.428 235.38C99.956 235.704 100.544 235.866 101.192 235.866ZM108.752 237V227.352H110.102V228.936L109.922 228.702C110.15 228.246 110.492 227.886 110.948 227.622C111.416 227.358 111.98 227.226 112.64 227.226H113.252V228.576H112.406C111.71 228.576 111.152 228.792 110.732 229.224C110.312 229.656 110.102 230.268 110.102 231.06V237H108.752ZM119.712 237.216C118.8 237.216 117.972 237 117.228 236.568C116.484 236.124 115.89 235.524 115.446 234.768C115.014 234 114.798 233.13 114.798 232.158C114.798 231.198 115.014 230.34 115.446 229.584C115.878 228.828 116.46 228.234 117.192 227.802C117.936 227.358 118.776 227.136 119.712 227.136C120.648 227.136 121.482 227.352 122.214 227.784C122.958 228.216 123.54 228.81 123.96 229.566C124.392 230.322 124.608 231.186 124.608 232.158C124.608 233.142 124.386 234.018 123.942 234.786C123.498 235.542 122.904 236.136 122.16 236.568C121.428 237 120.612 237.216 119.712 237.216ZM119.712 235.866C120.36 235.866 120.942 235.704 121.458 235.38C121.986 235.056 122.4 234.612 122.7 234.048C123.012 233.484 123.168 232.854 123.168 232.158C123.168 231.462 123.012 230.838 122.7 230.286C122.4 229.734 121.986 229.296 121.458 228.972C120.942 228.648 120.36 228.486 119.712 228.486C119.064 228.486 118.476 228.648 117.948 228.972C117.432 229.296 117.018 229.734 116.706 230.286C116.394 230.838 116.238 231.462 116.238 232.158C116.238 232.854 116.394 233.484 116.706 234.048C117.018 234.612 117.432 235.056 117.948 235.38C118.476 235.704 119.064 235.866 119.712 235.866ZM125.549 240.96C125.465 240.96 125.351 240.954 125.207 240.942C125.051 240.93 124.925 240.912 124.829 240.888V239.646C125.081 239.682 125.333 239.7 125.585 239.7C126.077 239.7 126.491 239.55 126.827 239.25C127.175 238.95 127.349 238.5 127.349 237.9V227.352H128.699V237.9C128.699 238.56 128.555 239.118 128.267 239.574C127.979 240.03 127.595 240.372 127.115 240.6C126.647 240.84 126.125 240.96 125.549 240.96ZM127.349 225.57V223.59H128.699V225.57H127.349ZM136.214 237.216C135.314 237.216 134.498 237 133.766 236.568C133.046 236.124 132.476 235.518 132.056 234.75C131.636 233.982 131.426 233.112 131.426 232.14C131.426 231.168 131.63 230.31 132.038 229.566C132.446 228.81 132.998 228.216 133.694 227.784C134.402 227.352 135.194 227.136 136.07 227.136C136.766 227.136 137.384 227.268 137.924 227.532C138.476 227.784 138.944 228.132 139.328 228.576C139.712 229.008 140.006 229.5 140.21 230.052C140.414 230.592 140.516 231.15 140.516 231.726C140.516 231.846 140.51 231.984 140.498 232.14C140.486 232.284 140.468 232.434 140.444 232.59H132.29V231.33H139.67L139.022 231.87C139.13 231.21 139.052 230.622 138.788 230.106C138.536 229.578 138.17 229.164 137.69 228.864C137.21 228.552 136.67 228.396 136.07 228.396C135.47 228.396 134.912 228.552 134.396 228.864C133.892 229.176 133.496 229.614 133.208 230.178C132.92 230.73 132.806 231.39 132.866 232.158C132.806 232.926 132.926 233.598 133.226 234.174C133.538 234.738 133.958 235.176 134.486 235.488C135.026 235.8 135.602 235.956 136.214 235.956C136.922 235.956 137.516 235.788 137.996 235.452C138.476 235.116 138.866 234.696 139.166 234.192L140.318 234.804C140.126 235.236 139.832 235.638 139.436 236.01C139.04 236.37 138.566 236.664 138.014 236.892C137.474 237.108 136.874 237.216 136.214 237.216ZM147.666 237.216C146.718 237.216 145.884 236.994 145.164 236.55C144.444 236.106 143.88 235.506 143.472 234.75C143.064 233.982 142.86 233.118 142.86 232.158C142.86 231.198 143.064 230.34 143.472 229.584C143.88 228.828 144.444 228.234 145.164 227.802C145.884 227.358 146.718 227.136 147.666 227.136C148.266 227.136 148.83 227.244 149.358 227.46C149.886 227.676 150.354 227.97 150.762 228.342C151.17 228.702 151.476 229.122 151.68 229.602L150.456 230.232C150.216 229.716 149.85 229.296 149.358 228.972C148.866 228.648 148.302 228.486 147.666 228.486C147.03 228.486 146.454 228.648 145.938 228.972C145.434 229.284 145.032 229.722 144.732 230.286C144.444 230.838 144.3 231.468 144.3 232.176C144.3 232.872 144.444 233.502 144.732 234.066C145.032 234.618 145.434 235.056 145.938 235.38C146.454 235.704 147.03 235.866 147.666 235.866C148.302 235.866 148.86 235.704 149.34 235.38C149.832 235.056 150.204 234.624 150.456 234.084L151.68 234.75C151.476 235.218 151.17 235.638 150.762 236.01C150.354 236.382 149.886 236.676 149.358 236.892C148.83 237.108 148.266 237.216 147.666 237.216ZM158.099 237.108C157.235 237.108 156.569 236.856 156.101 236.352C155.633 235.848 155.399 235.128 155.399 234.192V228.702H153.617V227.352H154.067C154.475 227.352 154.799 227.22 155.039 226.956C155.279 226.68 155.399 226.338 155.399 225.93V225.12H156.749V227.352H158.873V228.702H156.749V234.192C156.749 234.516 156.797 234.804 156.893 235.056C156.989 235.296 157.151 235.488 157.379 235.632C157.619 235.776 157.937 235.848 158.333 235.848C158.429 235.848 158.543 235.842 158.675 235.83C158.807 235.818 158.921 235.806 159.017 235.794V237C158.873 237.036 158.711 237.06 158.531 237.072C158.351 237.096 158.207 237.108 158.099 237.108ZM169.684 237.216C168.772 237.216 167.944 237 167.2 236.568C166.456 236.124 165.862 235.524 165.418 234.768C164.986 234 164.77 233.13 164.77 232.158C164.77 231.198 164.986 230.34 165.418 229.584C165.85 228.828 166.432 228.234 167.164 227.802C167.908 227.358 168.748 227.136 169.684 227.136C170.62 227.136 171.454 227.352 172.186 227.784C172.93 228.216 173.512 228.81 173.932 229.566C174.364 230.322 174.58 231.186 174.58 232.158C174.58 233.142 174.358 234.018 173.914 234.786C173.47 235.542 172.876 236.136 172.132 236.568C171.4 237 170.584 237.216 169.684 237.216ZM169.684 235.866C170.332 235.866 170.914 235.704 171.43 235.38C171.958 235.056 172.372 234.612 172.672 234.048C172.984 233.484 173.14 232.854 173.14 232.158C173.14 231.462 172.984 230.838 172.672 230.286C172.372 229.734 171.958 229.296 171.43 228.972C170.914 228.648 170.332 228.486 169.684 228.486C169.036 228.486 168.448 228.648 167.92 228.972C167.404 229.296 166.99 229.734 166.678 230.286C166.366 230.838 166.21 231.462 166.21 232.158C166.21 232.854 166.366 233.484 166.678 234.048C166.99 234.612 167.404 235.056 167.92 235.38C168.448 235.704 169.036 235.866 169.684 235.866ZM179.72 237L175.958 227.352H177.47L180.638 235.812H180.152L183.338 227.352H184.868L181.07 237H179.72ZM191.021 237.216C190.121 237.216 189.305 237 188.573 236.568C187.853 236.124 187.283 235.518 186.863 234.75C186.443 233.982 186.233 233.112 186.233 232.14C186.233 231.168 186.437 230.31 186.845 229.566C187.253 228.81 187.805 228.216 188.501 227.784C189.209 227.352 190.001 227.136 190.877 227.136C191.573 227.136 192.191 227.268 192.731 227.532C193.283 227.784 193.751 228.132 194.135 228.576C194.519 229.008 194.813 229.5 195.017 230.052C195.221 230.592 195.323 231.15 195.323 231.726C195.323 231.846 195.317 231.984 195.305 232.14C195.293 232.284 195.275 232.434 195.251 232.59H187.097V231.33H194.477L193.829 231.87C193.937 231.21 193.859 230.622 193.595 230.106C193.343 229.578 192.977 229.164 192.497 228.864C192.017 228.552 191.477 228.396 190.877 228.396C190.277 228.396 189.719 228.552 189.203 228.864C188.699 229.176 188.303 229.614 188.015 230.178C187.727 230.73 187.613 231.39 187.673 232.158C187.613 232.926 187.733 233.598 188.033 234.174C188.345 234.738 188.765 235.176 189.293 235.488C189.833 235.8 190.409 235.956 191.021 235.956C191.729 235.956 192.323 235.788 192.803 235.452C193.283 235.116 193.673 234.696 193.973 234.192L195.125 234.804C194.933 235.236 194.639 235.638 194.243 236.01C193.847 236.37 193.373 236.664 192.821 236.892C192.281 237.108 191.681 237.216 191.021 237.216ZM198.063 237V227.352H199.413V228.936L199.233 228.702C199.461 228.246 199.803 227.886 200.259 227.622C200.727 227.358 201.291 227.226 201.951 227.226H202.563V228.576H201.717C201.021 228.576 200.463 228.792 200.043 229.224C199.623 229.656 199.413 230.268 199.413 231.06V237H198.063ZM207.079 237L203.317 227.352H204.829L207.997 235.812H207.511L210.697 227.352H212.227L208.429 237H207.079ZM214.164 237V227.352H215.514V237H214.164ZM214.164 225.57V223.59H215.514V225.57H214.164ZM223.029 237.216C222.129 237.216 221.313 237 220.581 236.568C219.861 236.124 219.291 235.518 218.871 234.75C218.451 233.982 218.241 233.112 218.241 232.14C218.241 231.168 218.445 230.31 218.853 229.566C219.261 228.81 219.813 228.216 220.509 227.784C221.217 227.352 222.009 227.136 222.885 227.136C223.581 227.136 224.199 227.268 224.739 227.532C225.291 227.784 225.759 228.132 226.143 228.576C226.527 229.008 226.821 229.5 227.025 230.052C227.229 230.592 227.331 231.15 227.331 231.726C227.331 231.846 227.325 231.984 227.313 232.14C227.301 232.284 227.283 232.434 227.259 232.59H219.105V231.33H226.485L225.837 231.87C225.945 231.21 225.867 230.622 225.603 230.106C225.351 229.578 224.985 229.164 224.505 228.864C224.025 228.552 223.485 228.396 222.885 228.396C222.285 228.396 221.727 228.552 221.211 228.864C220.707 229.176 220.311 229.614 220.023 230.178C219.735 230.73 219.621 231.39 219.681 232.158C219.621 232.926 219.741 233.598 220.041 234.174C220.353 234.738 220.773 235.176 221.301 235.488C221.841 235.8 222.417 235.956 223.029 235.956C223.737 235.956 224.331 235.788 224.811 235.452C225.291 235.116 225.681 234.696 225.981 234.192L227.133 234.804C226.941 235.236 226.647 235.638 226.251 236.01C225.855 236.37 225.381 236.664 224.829 236.892C224.289 237.108 223.689 237.216 223.029 237.216ZM232.195 237L228.883 227.352H230.413L233.149 235.794H232.609L235.183 227.352H236.533L239.107 235.794H238.567L241.321 227.352H242.833L239.521 237H238.171L235.669 228.738H236.047L233.545 237H232.195ZM244.108 239.34V238.71C244.468 238.614 244.732 238.428 244.9 238.152C245.068 237.876 245.152 237.492 245.152 237H244.468V235.02H245.908V236.532C245.908 237.312 245.758 237.936 245.458 238.404C245.158 238.884 244.708 239.196 244.108 239.34ZM257.04 237.216C256.14 237.216 255.33 237 254.61 236.568C253.89 236.124 253.32 235.524 252.9 234.768C252.492 234 252.288 233.136 252.288 232.176C252.288 231.204 252.492 230.34 252.9 229.584C253.32 228.828 253.884 228.234 254.592 227.802C255.312 227.358 256.128 227.136 257.04 227.136C257.868 227.136 258.606 227.316 259.254 227.676C259.902 228.036 260.412 228.522 260.784 229.134L260.568 229.512V223.374H261.918V237H260.568V234.84L260.784 235.038C260.448 235.734 259.944 236.274 259.272 236.658C258.612 237.03 257.868 237.216 257.04 237.216ZM257.112 235.866C257.76 235.866 258.342 235.704 258.858 235.38C259.386 235.056 259.8 234.618 260.1 234.066C260.412 233.502 260.568 232.872 260.568 232.176C260.568 231.48 260.412 230.856 260.1 230.304C259.8 229.74 259.386 229.296 258.858 228.972C258.342 228.648 257.76 228.486 257.112 228.486C256.476 228.486 255.9 228.648 255.384 228.972C254.868 229.296 254.46 229.734 254.16 230.286C253.872 230.838 253.728 231.468 253.728 232.176C253.728 232.872 253.872 233.502 254.16 234.066C254.46 234.618 254.862 235.056 255.366 235.38C255.882 235.704 256.464 235.866 257.112 235.866ZM269.442 237.216C268.542 237.216 267.726 237 266.994 236.568C266.274 236.124 265.704 235.518 265.284 234.75C264.864 233.982 264.654 233.112 264.654 232.14C264.654 231.168 264.858 230.31 265.266 229.566C265.674 228.81 266.226 228.216 266.922 227.784C267.63 227.352 268.422 227.136 269.298 227.136C269.994 227.136 270.612 227.268 271.152 227.532C271.704 227.784 272.172 228.132 272.556 228.576C272.94 229.008 273.234 229.5 273.438 230.052C273.642 230.592 273.744 231.15 273.744 231.726C273.744 231.846 273.738 231.984 273.726 232.14C273.714 232.284 273.696 232.434 273.672 232.59H265.518V231.33H272.898L272.25 231.87C272.358 231.21 272.28 230.622 272.016 230.106C271.764 229.578 271.398 229.164 270.918 228.864C270.438 228.552 269.898 228.396 269.298 228.396C268.698 228.396 268.14 228.552 267.624 228.864C267.12 229.176 266.724 229.614 266.436 230.178C266.148 230.73 266.034 231.39 266.094 232.158C266.034 232.926 266.154 233.598 266.454 234.174C266.766 234.738 267.186 235.176 267.714 235.488C268.254 235.8 268.83 235.956 269.442 235.956C270.15 235.956 270.744 235.788 271.224 235.452C271.704 235.116 272.094 234.696 272.394 234.192L273.546 234.804C273.354 235.236 273.06 235.638 272.664 236.01C272.268 236.37 271.794 236.664 271.242 236.892C270.702 237.108 270.102 237.216 269.442 237.216ZM280.174 237.108C279.31 237.108 278.644 236.856 278.176 236.352C277.708 235.848 277.474 235.128 277.474 234.192V228.702H275.692V227.352H276.142C276.55 227.352 276.874 227.22 277.114 226.956C277.354 226.68 277.474 226.338 277.474 225.93V225.12H278.824V227.352H280.948V228.702H278.824V234.192C278.824 234.516 278.872 234.804 278.968 235.056C279.064 235.296 279.226 235.488 279.454 235.632C279.694 235.776 280.012 235.848 280.408 235.848C280.504 235.848 280.618 235.842 280.75 235.83C280.882 235.818 280.996 235.806 281.092 235.794V237C280.948 237.036 280.786 237.06 280.606 237.072C280.426 237.096 280.282 237.108 280.174 237.108ZM286.437 237.216C285.825 237.216 285.279 237.102 284.799 236.874C284.319 236.634 283.941 236.31 283.665 235.902C283.389 235.494 283.251 235.026 283.251 234.498C283.251 233.994 283.359 233.538 283.575 233.13C283.791 232.71 284.127 232.356 284.583 232.068C285.039 231.78 285.621 231.576 286.329 231.456L290.109 230.826V232.05L286.653 232.626C285.957 232.746 285.453 232.968 285.141 233.292C284.841 233.616 284.691 234 284.691 234.444C284.691 234.876 284.859 235.242 285.195 235.542C285.543 235.842 285.987 235.992 286.527 235.992C287.187 235.992 287.763 235.854 288.255 235.578C288.747 235.29 289.131 234.906 289.407 234.426C289.683 233.946 289.821 233.412 289.821 232.824V230.376C289.821 229.8 289.611 229.332 289.191 228.972C288.771 228.612 288.225 228.432 287.553 228.432C286.965 228.432 286.449 228.582 286.005 228.882C285.561 229.17 285.231 229.548 285.015 230.016L283.791 229.35C283.971 228.942 284.253 228.57 284.637 228.234C285.033 227.898 285.483 227.634 285.987 227.442C286.491 227.238 287.013 227.136 287.553 227.136C288.261 227.136 288.885 227.274 289.425 227.55C289.977 227.826 290.403 228.21 290.703 228.702C291.015 229.182 291.171 229.74 291.171 230.376V237H289.821V235.074L290.019 235.272C289.851 235.632 289.587 235.962 289.227 236.262C288.879 236.55 288.465 236.784 287.985 236.964C287.517 237.132 287.001 237.216 286.437 237.216ZM294.308 237V227.352H295.658V237H294.308ZM294.308 225.57V223.59H295.658V225.57H294.308ZM298.781 237V223.374H300.131V237H298.781ZM306.603 237.216C305.679 237.216 304.869 236.982 304.173 236.514C303.477 236.046 302.973 235.41 302.661 234.606L303.795 234.066C304.071 234.654 304.455 235.122 304.947 235.47C305.451 235.818 306.003 235.992 306.603 235.992C307.179 235.992 307.665 235.854 308.061 235.578C308.457 235.29 308.655 234.918 308.655 234.462C308.655 234.126 308.559 233.862 308.367 233.67C308.175 233.466 307.953 233.31 307.701 233.202C307.449 233.094 307.227 233.016 307.035 232.968L305.649 232.572C304.761 232.32 304.119 231.966 303.723 231.51C303.327 231.054 303.129 230.526 303.129 229.926C303.129 229.362 303.273 228.87 303.561 228.45C303.849 228.03 304.239 227.706 304.731 227.478C305.223 227.25 305.769 227.136 306.369 227.136C307.185 227.136 307.923 227.352 308.583 227.784C309.255 228.204 309.729 228.792 310.005 229.548L308.853 230.088C308.613 229.548 308.265 229.128 307.809 228.828C307.365 228.516 306.867 228.36 306.315 228.36C305.775 228.36 305.343 228.498 305.019 228.774C304.695 229.05 304.533 229.398 304.533 229.818C304.533 230.142 304.617 230.4 304.785 230.592C304.953 230.784 305.145 230.928 305.361 231.024C305.589 231.12 305.787 231.192 305.955 231.24L307.557 231.708C308.337 231.936 308.943 232.29 309.375 232.77C309.819 233.25 310.041 233.814 310.041 234.462C310.041 234.99 309.891 235.464 309.591 235.884C309.303 236.304 308.901 236.634 308.385 236.874C307.869 237.102 307.275 237.216 306.603 237.216ZM312.827 239.34V238.71C313.187 238.614 313.451 238.428 313.619 238.152C313.787 237.876 313.871 237.492 313.871 237H313.187V235.02H314.627V236.532C314.627 237.312 314.477 237.936 314.177 238.404C313.877 238.884 313.427 239.196 312.827 239.34ZM325.795 237.216C324.895 237.216 324.079 237 323.347 236.568C322.627 236.124 322.057 235.518 321.637 234.75C321.217 233.982 321.007 233.112 321.007 232.14C321.007 231.168 321.211 230.31 321.619 229.566C322.027 228.81 322.579 228.216 323.275 227.784C323.983 227.352 324.775 227.136 325.651 227.136C326.347 227.136 326.965 227.268 327.505 227.532C328.057 227.784 328.525 228.132 328.909 228.576C329.293 229.008 329.587 229.5 329.791 230.052C329.995 230.592 330.097 231.15 330.097 231.726C330.097 231.846 330.091 231.984 330.079 232.14C330.067 232.284 330.049 232.434 330.025 232.59H321.871V231.33H329.251L328.603 231.87C328.711 231.21 328.633 230.622 328.369 230.106C328.117 229.578 327.751 229.164 327.271 228.864C326.791 228.552 326.251 228.396 325.651 228.396C325.051 228.396 324.493 228.552 323.977 228.864C323.473 229.176 323.077 229.614 322.789 230.178C322.501 230.73 322.387 231.39 322.447 232.158C322.387 232.926 322.507 233.598 322.807 234.174C323.119 234.738 323.539 235.176 324.067 235.488C324.607 235.8 325.183 235.956 325.795 235.956C326.503 235.956 327.097 235.788 327.577 235.452C328.057 235.116 328.447 234.696 328.747 234.192L329.899 234.804C329.707 235.236 329.413 235.638 329.017 236.01C328.621 236.37 328.147 236.664 327.595 236.892C327.055 237.108 326.455 237.216 325.795 237.216ZM336.527 237.108C335.663 237.108 334.997 236.856 334.529 236.352C334.061 235.848 333.827 235.128 333.827 234.192V228.702H332.045V227.352H332.495C332.903 227.352 333.227 227.22 333.467 226.956C333.707 226.68 333.827 226.338 333.827 225.93V225.12H335.177V227.352H337.301V228.702H335.177V234.192C335.177 234.516 335.225 234.804 335.321 235.056C335.417 235.296 335.579 235.488 335.807 235.632C336.047 235.776 336.365 235.848 336.761 235.848C336.857 235.848 336.971 235.842 337.103 235.83C337.235 235.818 337.349 235.806 337.445 235.794V237C337.301 237.036 337.139 237.06 336.959 237.072C336.779 237.096 336.635 237.108 336.527 237.108ZM344.234 237.216C343.286 237.216 342.452 236.994 341.732 236.55C341.012 236.106 340.448 235.506 340.04 234.75C339.632 233.982 339.428 233.118 339.428 232.158C339.428 231.198 339.632 230.34 340.04 229.584C340.448 228.828 341.012 228.234 341.732 227.802C342.452 227.358 343.286 227.136 344.234 227.136C344.834 227.136 345.398 227.244 345.926 227.46C346.454 227.676 346.922 227.97 347.33 228.342C347.738 228.702 348.044 229.122 348.248 229.602L347.024 230.232C346.784 229.716 346.418 229.296 345.926 228.972C345.434 228.648 344.87 228.486 344.234 228.486C343.598 228.486 343.022 228.648 342.506 228.972C342.002 229.284 341.6 229.722 341.3 230.286C341.012 230.838 340.868 231.468 340.868 232.176C340.868 232.872 341.012 233.502 341.3 234.066C341.6 234.618 342.002 235.056 342.506 235.38C343.022 235.704 343.598 235.866 344.234 235.866C344.87 235.866 345.428 235.704 345.908 235.38C346.4 235.056 346.772 234.624 347.024 234.084L348.248 234.75C348.044 235.218 347.738 235.638 347.33 236.01C346.922 236.382 346.454 236.676 345.926 236.892C345.398 237.108 344.834 237.216 344.234 237.216Z" fill="black"/>
<g clip-path="url(#clip0_2295_998)">
<path d="M169.112 365.864C193.468 380.278 185.944 387.464 179.651 398.098C173.358 408.731 170.186 418.492 146.324 404.371C134.21 397.202 129.492 382.771 135.785 372.137C142.078 361.504 156.999 358.696 169.112 365.864Z" fill="white"/>
<path d="M204.816 368.33C204.816 381.755 200.134 381.835 194.357 381.835C188.581 381.835 183.898 381.755 183.898 368.33C183.898 354.905 190.309 344.021 194.357 344.021C198.406 344.021 204.816 354.905 204.816 368.33Z" fill="#FFC145"/>
<path d="M331.129 368.33C331.129 381.755 326.446 381.835 320.67 381.835C314.894 381.835 310.211 381.755 310.211 368.33C310.211 354.905 316.621 344.021 320.67 344.021C324.719 344.021 331.129 354.905 331.129 368.33Z" fill="#FFC145"/>
<path d="M348.208 365.864C323.852 380.278 331.376 387.464 337.669 398.098C343.962 408.731 347.135 418.492 370.997 404.371C383.11 397.202 387.828 382.771 381.536 372.137C375.243 361.504 360.322 358.696 348.208 365.864Z" fill="black"/>
<path d="M354.223 378.152C342.084 385.337 345.227 387.892 347.614 391.927C350.002 395.961 350.976 399.801 362.869 392.762C368.906 389.189 371.865 383.022 369.478 378.988C367.09 374.954 360.26 374.579 354.223 378.152Z" fill="#FFCACA"/>
<path d="M162.383 378.152C174.522 385.337 171.379 387.892 168.991 391.927C166.604 395.961 165.629 399.801 153.736 392.762C147.699 389.189 144.74 383.022 147.128 378.988C149.515 374.954 156.345 374.579 162.383 378.152Z" fill="#FFCACA"/>
<path d="M305.784 580.7C323.033 569.229 299.715 497.673 282.866 488.66C266.018 479.648 238.614 481.013 226.579 488.66C214.544 496.308 184.803 568.956 202.053 580.7C219.303 592.444 288.534 592.171 305.784 580.7Z" fill="white"/>
<path fill-rule="evenodd" clip-rule="evenodd" d="M259.686 589.326C259.821 585.093 259.682 576.453 256.737 571.3C252.023 563.053 236.623 557.623 236.623 557.623C230.455 556.684 217.153 552.232 213.292 541.934C211.648 537.552 207.858 534.617 203.478 532.701C196.594 553.426 193.365 574.784 202.052 580.698C211.445 587.093 236.252 589.925 259.686 589.326Z" fill="black"/>
<path d="M172.666 546.13C172.309 525.34 198.383 502.49 211.464 493.664C213.248 493.664 217.529 494.351 220.383 497.096C223.951 500.529 209.234 548.091 203.883 558.388C198.531 568.685 173.112 572.118 172.666 546.13Z" fill="white"/>
<path d="M299.782 554.744C299.782 576.205 281.411 581.36 258.75 581.36C236.089 581.36 217.719 576.205 217.719 554.744C217.719 526.53 236.089 510.561 258.75 510.561C281.411 510.561 299.782 526.53 299.782 554.744Z" fill="#FFD2D2"/>
<path d="M258.364 499.697C258.53 499.697 258.693 499.675 258.846 499.632C258.999 499.589 259.138 499.525 259.256 499.445L264.843 495.54C265.048 495.374 265.156 495.16 265.144 494.942C265.131 494.723 265 494.516 264.777 494.362C264.553 494.207 264.253 494.117 263.937 494.108C263.622 494.1 263.313 494.174 263.072 494.316L257.473 498.178C257.355 498.259 257.262 498.355 257.198 498.46C257.134 498.566 257.102 498.68 257.102 498.794C257.102 498.909 257.134 499.022 257.198 499.128C257.262 499.234 257.355 499.33 257.473 499.41C257.586 499.497 257.723 499.567 257.876 499.616C258.03 499.665 258.196 499.693 258.364 499.697Z" fill="#FF8D8D"/>
<path d="M263.892 499.697C264.056 499.697 264.218 499.675 264.37 499.632C264.522 499.589 264.66 499.526 264.776 499.446C264.893 499.365 264.985 499.269 265.049 499.164C265.112 499.058 265.145 498.945 265.145 498.831C265.145 498.717 265.112 498.603 265.049 498.498C264.985 498.392 264.893 498.297 264.776 498.216L259.233 494.364C259.117 494.282 258.979 494.218 258.827 494.174C258.676 494.13 258.513 494.107 258.348 494.107C258.184 494.107 258.021 494.13 257.869 494.174C257.717 494.218 257.58 494.282 257.464 494.364C257.232 494.526 257.102 494.745 257.102 494.974C257.102 495.203 257.232 495.422 257.464 495.584L263.02 499.446C263.252 499.606 263.565 499.696 263.892 499.697V499.697Z" fill="#FF8D8D"/>
<path d="M359.288 449.013C359.288 491.003 313.244 504.927 257.281 504.927C201.319 504.927 154.936 491.003 154.936 449.013C154.936 377.417 201.319 352.869 257.281 352.869C313.244 352.869 359.288 374.007 359.288 449.013Z" fill="white"/>
<path fill-rule="evenodd" clip-rule="evenodd" d="M264.391 352.988C264.861 366.386 267.659 383.96 276.438 391.067C284.158 397.316 293.067 398.908 301.028 400.33C307.832 401.545 313.944 402.637 318.028 406.407C320.199 408.411 322.124 411.191 324.209 414.202C330.491 423.274 338.226 434.444 358.499 432.796C352.502 373.771 312.895 354.632 264.391 352.988Z" fill="black"/>
<path d="M208.033 441.369V454.242" stroke="black" stroke-width="12.0681" stroke-linecap="round"/>
<path d="M315.84 441.369V454.242" stroke="black" stroke-width="12.0681" stroke-linecap="round"/>
<path d="M224.125 471.298C224.125 454.769 237.525 441.369 254.054 441.369H269.018C285.548 441.369 298.947 454.769 298.947 471.298V471.298C298.947 482.317 290.014 491.251 278.995 491.251H244.078C233.058 491.251 224.125 482.317 224.125 471.298V471.298Z" fill="#FFCACA"/>
<path d="M245.848 463.896V472.746" stroke="black" stroke-width="8.04539" stroke-linecap="round"/>
<path d="M278.029 463.896L278.029 472.746" stroke="black" stroke-width="8.04539" stroke-linecap="round"/>
<path d="M183.898 472.748H195.967" stroke="#FFD2D2" stroke-width="16.0908" stroke-linecap="round"/>
<path d="M327.908 472.748H339.976" stroke="#FFD2D2" stroke-width="16.0908" stroke-linecap="round"/>
<path d="M288.5 478.844C303.573 482.708 308.974 496.62 311.793 511C311.311 512.717 309.658 516.7 306.908 518.892C303.471 521.632 277.196 513.652 271.226 506.416C265.256 499.18 269.659 474.013 288.5 478.844Z" fill="#EFEFEF"/>
</g>
<g clip-path="url(#clip1_2295_998)">
<ellipse cx="34.113" cy="36.7611" rx="34.113" ry="36.7611" transform="matrix(-0.877234 -0.480064 -0.480064 0.877234 619.717 366.676)" fill="#49B236"/>
<ellipse cx="423.936" cy="381.598" rx="34.113" ry="36.7611" transform="rotate(-28.6896 423.936 381.598)" fill="#49B236"/>
<path d="M400.797 526.271C421.391 534.168 453.626 516.466 467.17 506.628C467.817 504.85 468.685 500.334 466.984 496.493C464.856 491.691 412.107 489.107 399.902 490.706C387.696 492.305 375.054 516.399 400.797 526.271Z" fill="#35923E"/>
<path d="M446.509 585.74C428.211 573.572 452.946 497.667 470.819 488.107C488.691 478.547 517.76 479.995 530.527 488.107C543.293 496.219 574.84 573.282 556.542 585.74C538.244 598.197 464.807 597.908 446.509 585.74Z" fill="#49B236"/>
<path d="M587.711 549.072C588.089 527.018 560.431 502.78 546.555 493.418C544.663 493.418 540.121 494.146 537.094 497.059C533.309 500.7 548.92 551.152 554.597 562.075C560.274 572.998 587.238 576.639 587.711 549.072Z" fill="#49B236"/>
<path d="M454.581 556.064C454.581 581.934 474.068 588.147 498.106 588.147C522.144 588.147 541.631 581.934 541.631 556.064C541.631 522.055 522.144 502.805 498.106 502.805C474.068 502.805 454.581 522.055 454.581 556.064Z" fill="#9CD43D"/>
<path d="M496.682 493.912C496.506 493.913 496.332 493.89 496.17 493.845C496.007 493.801 495.86 493.735 495.735 493.653L489.803 489.631C489.585 489.46 489.47 489.24 489.483 489.015C489.496 488.791 489.635 488.577 489.873 488.418C490.11 488.259 490.429 488.166 490.764 488.157C491.1 488.148 491.428 488.225 491.683 488.371L497.628 492.348C497.753 492.431 497.852 492.53 497.92 492.639C497.988 492.748 498.022 492.864 498.022 492.982C498.022 493.1 497.988 493.217 497.92 493.326C497.852 493.435 497.753 493.534 497.628 493.617C497.508 493.706 497.362 493.778 497.2 493.829C497.037 493.88 496.861 493.908 496.682 493.912Z" fill="#49B236"/>
<path d="M490.813 493.912C490.639 493.913 490.466 493.89 490.305 493.846C490.144 493.801 489.997 493.736 489.874 493.653C489.75 493.57 489.651 493.472 489.584 493.363C489.517 493.255 489.482 493.138 489.482 493.02C489.482 492.903 489.517 492.786 489.584 492.677C489.651 492.569 489.75 492.47 489.874 492.387L495.76 488.42C495.883 488.336 496.029 488.27 496.19 488.225C496.351 488.18 496.524 488.156 496.699 488.156C496.873 488.156 497.046 488.18 497.207 488.225C497.369 488.27 497.515 488.336 497.638 488.42C497.884 488.587 498.022 488.813 498.022 489.048C498.022 489.284 497.884 489.51 497.638 489.677L491.739 493.653C491.492 493.818 491.16 493.911 490.813 493.912V493.912Z" fill="#49B236"/>
<path d="M387.583 441.585C387.583 486.598 437.195 501.524 497.493 501.524C557.791 501.524 607.768 486.598 607.768 441.585C607.768 376.924 557.791 349.188 497.493 349.188C437.195 349.188 387.583 371.803 387.583 441.585Z" fill="#49B236"/>
<path d="M565.951 382.473V396.127" stroke="black" stroke-width="12.8014" stroke-linecap="round"/>
<path d="M420.867 381.619V395.274" stroke="black" stroke-width="12.8014" stroke-linecap="round"/>
<path d="M584.725 425.996H570.216" stroke="#9CD43D" stroke-width="17.0685" stroke-linecap="round"/>
<path d="M426.842 425.996H412.334" stroke="#9CD43D" stroke-width="17.0685" stroke-linecap="round"/>
<path d="M477.193 412.388C477.193 402.134 477.193 396.979 496.396 396.979C515.598 396.979 515.598 401.218 515.598 412.388C515.598 430.69 507.001 441.357 496.396 441.357C485.791 441.357 477.193 429.409 477.193 412.388Z" fill="#FFD2D2"/>
<path fill-rule="evenodd" clip-rule="evenodd" d="M515.566 414.284C514.993 431.425 506.629 441.359 496.396 441.359C488.966 441.359 482.523 435.496 479.33 426.133C483.044 421.793 488.54 418.03 495.176 415.703C502.415 413.166 509.66 412.81 515.566 414.284Z" fill="#FF2D2D"/>
</g>
<path d="M1267 655C1273.63 655 1279 649.627 1279 643V539H0V643C0 649.627 5.37258 655 12 655H1267Z" fill="#123041"/>
<g clip-path="url(#clip2_2295_998)">
<path d="M162.664 547.179C165.144 570.71 174.445 576.593 190.566 576.593C206.687 576.593 215.987 570.71 218.467 547.179C220.396 528.877 208.547 515.15 190.566 515.15C172.585 515.15 160.735 528.877 162.664 547.179Z" fill="#9EE7E5"/>
<path d="M163.111 543.912H218.017" stroke="#005271" stroke-width="6.53644" stroke-linecap="round"/>
<path d="M170.404 572.769C170.349 571.288 171.535 570.057 173.017 570.057H206.807C208.289 570.057 209.475 571.288 209.42 572.769L205.694 672.123C205.641 673.528 204.487 674.64 203.081 674.64H176.743C175.337 674.64 174.183 673.528 174.13 672.123L170.404 572.769Z" fill="#005271"/>
</g>
<g clip-path="url(#clip3_2295_998)">
<path d="M280 585.179C282.48 608.71 291.781 614.593 307.902 614.593C324.022 614.593 333.323 608.71 335.803 585.179C337.732 566.877 325.883 553.15 307.902 553.15C289.921 553.15 278.071 566.877 280 585.179Z" fill="#FFC5AB"/>
<path d="M280.447 581.91H335.353" stroke="#AD2626" stroke-width="6.53644" stroke-linecap="round"/>
<path d="M287.74 610.769C287.685 609.288 288.871 608.057 290.353 608.057H324.143C325.625 608.057 326.811 609.288 326.756 610.769L323.03 710.123C322.977 711.528 321.823 712.64 320.417 712.64H294.079C292.673 712.64 291.519 711.528 291.466 710.123L287.74 610.769Z" fill="#AD2626"/>
</g>
<g clip-path="url(#clip4_2295_998)">
<path d="M405.557 585.179C408.037 608.71 417.337 614.593 433.458 614.593C449.579 614.593 458.88 608.71 461.36 585.179C463.289 566.877 451.439 553.15 433.458 553.15C415.477 553.15 403.628 566.877 405.557 585.179Z" fill="#AFD157"/>
<path d="M406.006 581.91H460.912" stroke="#107752" stroke-width="6.53644" stroke-linecap="round"/>
<path d="M413.297 610.769C413.241 609.288 414.427 608.057 415.91 608.057H449.699C451.182 608.057 452.368 609.288 452.312 610.769L448.586 710.123C448.534 711.528 447.38 712.64 445.974 712.64H419.636C418.23 712.64 417.075 711.528 417.023 710.123L413.297 610.769Z" fill="#107752"/>
</g>
<g clip-path="url(#clip5_2295_998)">
<path d="M529.936 585.179C532.416 608.71 541.716 614.593 557.837 614.593C573.958 614.593 583.258 608.71 585.739 585.179C587.668 566.877 575.818 553.15 557.837 553.15C539.856 553.15 528.007 566.877 529.936 585.179Z" fill="#FFC53D"/>
<path d="M530.383 581.91H585.289" stroke="#C55313" stroke-width="6.53644" stroke-linecap="round"/>
<path d="M537.676 610.769C537.62 609.288 538.806 608.057 540.289 608.057H574.078C575.561 608.057 576.747 609.288 576.691 610.769L572.965 710.123C572.913 711.528 571.758 712.64 570.353 712.64H544.014C542.609 712.64 541.454 711.528 541.402 710.123L537.676 610.769Z" fill="#C55313"/>
</g>
<defs>
<clipPath id="clip0_2295_998">
<rect width="253.353" height="209.037" fill="white" transform="translate(126 330.344)"/>
</clipPath>
<clipPath id="clip1_2295_998">
<rect width="239.975" height="212.382" fill="white" transform="matrix(-1 0 0 1 621 327)"/>
</clipPath>
<clipPath id="clip2_2295_998">
<rect width="88.0046" height="149" fill="white" transform="translate(152 506)"/>
</clipPath>
<clipPath id="clip3_2295_998">
<rect width="88.0046" height="111" fill="white" transform="translate(269.338 544)"/>
</clipPath>
<clipPath id="clip4_2295_998">
<rect width="88.0046" height="111" fill="white" transform="translate(394.893 544)"/>
</clipPath>
<clipPath id="clip5_2295_998">
<rect width="88.0046" height="111" fill="white" transform="translate(519.271 544)"/>
</clipPath>
</defs>
</svg>
