<svg width="1279" height="328" viewBox="0 0 1279 328" fill="none" xmlns="http://www.w3.org/2000/svg">
<g clip-path="url(#clip0_2467_1279)">
<path d="M169.112 38.8633C193.468 53.2773 185.944 60.4634 179.651 71.0966C173.358 81.7299 170.186 91.4912 146.324 77.3697C134.21 70.201 129.492 55.7697 135.785 45.1364C142.078 34.5032 156.999 31.6946 169.112 38.8633Z" fill="white"/>
<path d="M204.816 41.3301C204.816 54.7553 200.134 54.8348 194.357 54.8348C188.581 54.8348 183.898 54.7553 183.898 41.3301C183.898 27.9048 190.309 17.0215 194.357 17.0215C198.406 17.0215 204.816 27.9048 204.816 41.3301Z" fill="#FFC145"/>
<path d="M331.129 41.3301C331.129 54.7553 326.446 54.8348 320.67 54.8348C314.894 54.8348 310.211 54.7553 310.211 41.3301C310.211 27.9048 316.621 17.0215 320.67 17.0215C324.719 17.0215 331.129 27.9048 331.129 41.3301Z" fill="#FFC145"/>
<path d="M348.208 38.8633C323.852 53.2773 331.376 60.4634 337.669 71.0966C343.962 81.7299 347.135 91.4912 370.997 77.3697C383.11 70.201 387.828 55.7697 381.536 45.1364C375.243 34.5032 360.322 31.6946 348.208 38.8633Z" fill="black"/>
<path d="M354.223 51.1515C342.084 58.3355 345.227 60.8914 347.614 64.9259C350.002 68.9603 350.976 72.7997 362.869 65.7614C368.906 62.1884 371.865 56.0214 369.478 51.987C367.09 47.9526 360.26 47.5785 354.223 51.1515Z" fill="#FFCACA"/>
<path d="M162.383 51.1515C174.522 58.3355 171.379 60.8914 168.991 64.9259C166.604 68.9603 165.629 72.7997 153.736 65.7614C147.699 62.1884 144.74 56.0214 147.128 51.987C149.515 47.9526 156.345 47.5785 162.383 51.1515Z" fill="#FFCACA"/>
<path d="M305.784 253.7C323.033 242.229 299.715 170.673 282.866 161.66C266.018 152.648 238.614 154.013 226.579 161.66C214.544 169.308 184.803 241.956 202.053 253.7C219.303 265.444 288.534 265.171 305.784 253.7Z" fill="white"/>
<path fill-rule="evenodd" clip-rule="evenodd" d="M259.686 262.327C259.821 258.094 259.682 249.454 256.737 244.301C252.023 236.054 236.623 230.624 236.623 230.624C230.455 229.685 217.153 225.233 213.292 214.935C211.648 210.553 207.858 207.618 203.478 205.702C196.594 226.427 193.365 247.785 202.052 253.699C211.445 260.094 236.252 262.926 259.686 262.327Z" fill="black"/>
<path d="M172.666 219.131C172.309 198.341 198.383 175.491 211.464 166.665C213.248 166.665 217.529 167.352 220.383 170.097C223.951 173.53 209.234 221.092 203.883 231.389C198.531 241.686 173.112 245.119 172.666 219.131Z" fill="white"/>
<path d="M299.782 227.744C299.782 249.205 281.411 254.36 258.75 254.36C236.089 254.36 217.719 249.205 217.719 227.744C217.719 199.53 236.089 183.561 258.75 183.561C281.411 183.561 299.782 199.53 299.782 227.744Z" fill="#FFD2D2"/>
<path d="M258.364 172.698C258.53 172.698 258.693 172.676 258.846 172.633C258.999 172.59 259.138 172.526 259.256 172.446L264.843 168.541C265.048 168.375 265.156 168.161 265.144 167.943C265.131 167.724 265 167.517 264.777 167.363C264.553 167.208 264.253 167.117 263.937 167.109C263.622 167.101 263.313 167.175 263.072 167.317L257.473 171.179C257.355 171.26 257.262 171.356 257.198 171.461C257.134 171.567 257.102 171.681 257.102 171.795C257.102 171.91 257.134 172.023 257.198 172.129C257.262 172.235 257.355 172.331 257.473 172.411C257.586 172.498 257.723 172.568 257.876 172.617C258.03 172.666 258.196 172.694 258.364 172.698Z" fill="#FF8D8D"/>
<path d="M263.892 172.698C264.056 172.698 264.218 172.676 264.37 172.633C264.522 172.59 264.66 172.527 264.776 172.447C264.893 172.366 264.985 172.27 265.049 172.165C265.112 172.059 265.145 171.946 265.145 171.832C265.145 171.718 265.112 171.604 265.049 171.499C264.985 171.393 264.893 171.298 264.776 171.217L259.233 167.364C259.117 167.283 258.979 167.219 258.827 167.175C258.676 167.131 258.513 167.108 258.348 167.108C258.184 167.108 258.021 167.131 257.869 167.175C257.717 167.219 257.58 167.283 257.464 167.364C257.232 167.527 257.102 167.746 257.102 167.975C257.102 168.204 257.232 168.423 257.464 168.585L263.02 172.447C263.252 172.606 263.565 172.697 263.892 172.698V172.698Z" fill="#FF8D8D"/>
<path d="M359.288 122.014C359.288 164.004 313.244 177.928 257.281 177.928C201.319 177.928 154.936 164.004 154.936 122.014C154.936 50.4176 201.319 25.8701 257.281 25.8701C313.244 25.8701 359.288 47.0082 359.288 122.014Z" fill="white"/>
<path fill-rule="evenodd" clip-rule="evenodd" d="M264.391 25.9883C264.861 39.3863 267.659 56.9597 276.438 64.0666C284.158 70.3161 293.067 71.9076 301.028 73.3298C307.832 74.5452 313.944 75.637 318.028 79.4073C320.199 81.4106 322.124 84.1905 324.209 87.2016C330.491 96.2736 338.226 107.444 358.499 105.796C352.502 46.7713 312.895 27.6318 264.391 25.9883Z" fill="black"/>
<path d="M208.033 114.369V127.242" stroke="black" stroke-width="12.0681" stroke-linecap="round"/>
<path d="M315.84 114.369V127.242" stroke="black" stroke-width="12.0681" stroke-linecap="round"/>
<path d="M224.125 144.298C224.125 127.769 237.525 114.369 254.054 114.369H269.018C285.548 114.369 298.947 127.769 298.947 144.298V144.298C298.947 155.317 290.014 164.251 278.995 164.251H244.078C233.058 164.251 224.125 155.317 224.125 144.298V144.298Z" fill="#FFCACA"/>
<path d="M245.848 136.896V145.746" stroke="black" stroke-width="8.04539" stroke-linecap="round"/>
<path d="M278.029 136.896L278.029 145.746" stroke="black" stroke-width="8.04539" stroke-linecap="round"/>
<path d="M183.898 145.748H195.967" stroke="#FFD2D2" stroke-width="16.0908" stroke-linecap="round"/>
<path d="M327.908 145.748H339.976" stroke="#FFD2D2" stroke-width="16.0908" stroke-linecap="round"/>
<path d="M288.5 151.843C303.573 155.707 308.974 169.619 311.793 183.999C311.311 185.716 309.658 189.699 306.908 191.891C303.471 194.631 277.196 186.651 271.226 179.415C265.256 172.179 269.659 147.012 288.5 151.843Z" fill="#EFEFEF"/>
</g>
<g clip-path="url(#clip1_2467_1279)">
<ellipse cx="34.113" cy="36.7611" rx="34.113" ry="36.7611" transform="matrix(-0.877234 -0.480064 -0.480064 0.877234 619.717 39.6758)" fill="#49B236"/>
<ellipse cx="423.936" cy="54.5982" rx="34.113" ry="36.7611" transform="rotate(-28.6896 423.936 54.5982)" fill="#49B236"/>
<path d="M400.797 199.271C421.391 207.168 453.626 189.466 467.17 179.628C467.817 177.85 468.685 173.334 466.984 169.493C464.856 164.691 412.107 162.107 399.902 163.706C387.696 165.305 375.054 189.399 400.797 199.271Z" fill="#35923E"/>
<path d="M446.509 258.741C428.211 246.573 452.946 170.668 470.819 161.108C488.691 151.548 517.76 152.996 530.527 161.108C543.293 169.22 574.84 246.283 556.542 258.741C538.244 271.198 464.807 270.909 446.509 258.741Z" fill="#49B236"/>
<path d="M587.711 222.071C588.089 200.017 560.431 175.779 546.555 166.417C544.663 166.417 540.121 167.145 537.094 170.058C533.309 173.699 548.92 224.151 554.597 235.074C560.274 245.997 587.238 249.638 587.711 222.071Z" fill="#49B236"/>
<path d="M454.581 229.064C454.581 254.934 474.068 261.147 498.106 261.147C522.144 261.147 541.631 254.934 541.631 229.064C541.631 195.055 522.144 175.805 498.106 175.805C474.068 175.805 454.581 195.055 454.581 229.064Z" fill="#9CD43D"/>
<path d="M496.682 166.912C496.506 166.913 496.332 166.89 496.17 166.845C496.007 166.801 495.86 166.735 495.735 166.653L489.803 162.631C489.585 162.46 489.47 162.24 489.483 162.015C489.496 161.791 489.635 161.577 489.873 161.418C490.11 161.259 490.429 161.166 490.764 161.157C491.1 161.148 491.428 161.225 491.683 161.371L497.628 165.348C497.753 165.431 497.852 165.53 497.92 165.639C497.988 165.748 498.022 165.864 498.022 165.982C498.022 166.1 497.988 166.217 497.92 166.326C497.852 166.435 497.753 166.534 497.628 166.617C497.508 166.706 497.362 166.778 497.2 166.829C497.037 166.88 496.861 166.908 496.682 166.912Z" fill="#49B236"/>
<path d="M490.813 166.912C490.639 166.913 490.466 166.89 490.305 166.846C490.144 166.801 489.997 166.736 489.874 166.653C489.75 166.57 489.651 166.472 489.584 166.363C489.517 166.255 489.482 166.138 489.482 166.02C489.482 165.903 489.517 165.786 489.584 165.677C489.651 165.569 489.75 165.47 489.874 165.387L495.76 161.42C495.883 161.336 496.029 161.27 496.19 161.225C496.351 161.18 496.524 161.156 496.699 161.156C496.873 161.156 497.046 161.18 497.207 161.225C497.369 161.27 497.515 161.336 497.638 161.42C497.884 161.587 498.022 161.813 498.022 162.048C498.022 162.284 497.884 162.51 497.638 162.677L491.739 166.653C491.492 166.818 491.16 166.911 490.813 166.912V166.912Z" fill="#49B236"/>
<path d="M387.583 114.586C387.583 159.599 437.195 174.525 497.493 174.525C557.791 174.525 607.768 159.599 607.768 114.586C607.768 49.9249 557.791 22.1885 497.493 22.1885C437.195 22.1885 387.583 44.8043 387.583 114.586Z" fill="#49B236"/>
<path d="M565.951 55.4717V69.1265" stroke="black" stroke-width="12.8014" stroke-linecap="round"/>
<path d="M420.867 54.6182V68.273" stroke="black" stroke-width="12.8014" stroke-linecap="round"/>
<path d="M584.725 98.9961H570.216" stroke="#9CD43D" stroke-width="17.0685" stroke-linecap="round"/>
<path d="M426.842 98.9961H412.334" stroke="#9CD43D" stroke-width="17.0685" stroke-linecap="round"/>
<path d="M477.193 85.3893C477.193 75.1353 477.193 69.9802 496.396 69.9802C515.598 69.9802 515.598 74.2193 515.598 85.3893C515.598 103.691 507.001 114.358 496.396 114.358C485.791 114.358 477.193 102.41 477.193 85.3893Z" fill="#FFD2D2"/>
<path fill-rule="evenodd" clip-rule="evenodd" d="M515.566 87.2829C514.993 104.424 506.629 114.358 496.396 114.358C488.966 114.358 482.523 108.495 479.33 99.1317C483.044 94.7921 488.54 91.0289 495.176 88.7022C502.415 86.1646 509.66 85.8087 515.566 87.2829Z" fill="#FF2D2D"/>
</g>
<path d="M1267 328C1273.63 328 1279 322.627 1279 316V212L0 212V316C0 322.627 5.37258 328 12 328L1267 328Z" fill="#123041"/>
<g clip-path="url(#clip2_2467_1279)">
<path d="M162.664 220.18C165.144 243.711 174.445 249.594 190.566 249.594C206.687 249.594 215.987 243.711 218.467 220.18C220.396 201.878 208.547 188.151 190.566 188.151C172.585 188.151 160.735 201.878 162.664 220.18Z" fill="#9EE7E5"/>
<path d="M163.111 216.911H218.017" stroke="#005271" stroke-width="6.53644" stroke-linecap="round"/>
<path d="M170.404 245.769C170.349 244.288 171.535 243.057 173.017 243.057H206.807C208.289 243.057 209.475 244.288 209.42 245.769L205.694 345.123C205.641 346.528 204.487 347.64 203.081 347.64H176.743C175.337 347.64 174.183 346.528 174.13 345.123L170.404 245.769Z" fill="#005271"/>
</g>
<g clip-path="url(#clip3_2467_1279)">
<path d="M280 258.179C282.48 281.71 291.781 287.593 307.902 287.593C324.022 287.593 333.323 281.71 335.803 258.179C337.732 239.877 325.883 226.15 307.902 226.15C289.921 226.15 278.071 239.877 280 258.179Z" fill="#FFC5AB"/>
<path d="M280.447 254.91H335.353" stroke="#AD2626" stroke-width="6.53644" stroke-linecap="round"/>
<path d="M287.74 283.768C287.685 282.287 288.871 281.056 290.353 281.056H324.143C325.625 281.056 326.811 282.287 326.756 283.768L323.03 383.122C322.977 384.527 321.823 385.639 320.417 385.639H294.079C292.673 385.639 291.519 384.527 291.466 383.122L287.74 283.768Z" fill="#AD2626"/>
</g>
<g clip-path="url(#clip4_2467_1279)">
<path d="M405.557 258.179C408.037 281.71 417.337 287.593 433.458 287.593C449.579 287.593 458.88 281.71 461.36 258.179C463.289 239.877 451.439 226.15 433.458 226.15C415.477 226.15 403.628 239.877 405.557 258.179Z" fill="#AFD157"/>
<path d="M406.006 254.91H460.912" stroke="#107752" stroke-width="6.53644" stroke-linecap="round"/>
<path d="M413.297 283.768C413.241 282.287 414.427 281.056 415.91 281.056H449.699C451.182 281.056 452.368 282.287 452.312 283.768L448.586 383.122C448.534 384.527 447.38 385.639 445.974 385.639H419.636C418.23 385.639 417.075 384.527 417.023 383.122L413.297 283.768Z" fill="#107752"/>
</g>
<g clip-path="url(#clip5_2467_1279)">
<path d="M529.936 258.179C532.416 281.71 541.716 287.593 557.837 287.593C573.958 287.593 583.258 281.71 585.739 258.179C587.668 239.877 575.818 226.15 557.837 226.15C539.856 226.15 528.007 239.877 529.936 258.179Z" fill="#FFC53D"/>
<path d="M530.383 254.91H585.289" stroke="#C55313" stroke-width="6.53644" stroke-linecap="round"/>
<path d="M537.676 283.768C537.62 282.287 538.806 281.056 540.289 281.056H574.078C575.561 281.056 576.747 282.287 576.691 283.768L572.965 383.122C572.913 384.527 571.758 385.639 570.353 385.639H544.014C542.609 385.639 541.454 384.527 541.402 383.122L537.676 283.768Z" fill="#C55313"/>
</g>
<defs>
<clipPath id="clip0_2467_1279">
<rect width="253.353" height="209.037" fill="white" transform="translate(126 3.34375)"/>
</clipPath>
<clipPath id="clip1_2467_1279">
<rect width="239.975" height="212.382" fill="white" transform="matrix(-1 0 0 1 621 0)"/>
</clipPath>
<clipPath id="clip2_2467_1279">
<rect width="88.0046" height="149" fill="white" transform="translate(152 179)"/>
</clipPath>
<clipPath id="clip3_2467_1279">
<rect width="88.0046" height="111" fill="white" transform="translate(269.338 217)"/>
</clipPath>
<clipPath id="clip4_2467_1279">
<rect width="88.0046" height="111" fill="white" transform="translate(394.893 217)"/>
</clipPath>
<clipPath id="clip5_2467_1279">
<rect width="88.0046" height="111" fill="white" transform="translate(519.271 217)"/>
</clipPath>
</defs>
</svg>
