<svg width="1214" height="464" viewBox="0 0 1214 464" fill="none" xmlns="http://www.w3.org/2000/svg">
<g clip-path="url(#clip0_2292_424)">
<path d="M31.9718 237.295C52.7307 249.58 46.3177 255.704 40.9543 264.767C35.5909 273.83 32.8869 282.15 12.5493 270.114C2.22497 264.004 -1.79665 251.704 3.56673 242.641C8.93012 233.578 21.6475 231.185 31.9718 237.295Z" fill="white"/>
<path d="M62.4008 239.394C62.4008 250.837 58.4098 250.904 53.4866 250.904C48.5633 250.904 44.5723 250.837 44.5723 239.394C44.5723 227.952 50.0359 218.676 53.4866 218.676C56.9372 218.676 62.4008 227.952 62.4008 239.394Z" fill="#6A5B3D"/>
<path d="M170.055 239.394C170.055 250.837 166.064 250.904 161.141 250.904C156.218 250.904 152.227 250.837 152.227 239.394C152.227 227.952 157.69 218.676 161.141 218.676C164.592 218.676 170.055 227.952 170.055 239.394Z" fill="#6A5B3D"/>
<path d="M184.618 237.295C163.859 249.58 170.272 255.704 175.636 264.767C180.999 273.83 183.703 282.15 204.041 270.114C214.365 264.004 218.386 251.704 213.023 242.641C207.66 233.578 194.942 231.185 184.618 237.295Z" fill="#123041"/>
<path d="M189.739 247.767C179.393 253.89 182.072 256.068 184.107 259.507C186.142 262.945 186.972 266.218 197.109 260.219C202.254 257.174 204.776 251.918 202.741 248.479C200.706 245.04 194.885 244.722 189.739 247.767Z" fill="#FFC0C1"/>
<path d="M26.2333 247.767C36.5797 253.89 33.9008 256.068 31.8659 259.507C29.8309 262.945 29.0005 266.218 18.8641 260.219C13.7183 257.174 11.1965 251.918 13.2315 248.479C15.2664 245.04 21.0875 244.722 26.2333 247.767Z" fill="#FFC0C1"/>
<path d="M179.788 390.578C162.066 390.416 143.183 367.688 135.956 356.345C135.996 354.825 136.677 351.192 139.081 348.822C142.085 345.86 182.279 359.465 190.932 364.256C199.585 369.046 201.939 390.781 179.788 390.578Z" fill="#E7EAEE"/>
<path d="M147.48 450.076C152.398 448.066 157.186 421.272 156.215 407.934L108.977 415.473C108.006 426.299 107.941 448.375 110.271 450.076C113.183 452.203 141.332 452.59 147.48 450.076Z" fill="#E7EAEE"/>
<path d="M151.172 420.399C165.874 410.622 145.999 349.635 131.639 341.953C117.279 334.271 93.9223 335.435 83.6648 341.953C73.4073 348.471 48.0594 410.39 62.7617 420.399C77.4639 430.409 136.469 430.176 151.172 420.399Z" fill="white"/>
<path fill-rule="evenodd" clip-rule="evenodd" d="M111.885 427.752C112 424.143 111.881 416.782 109.371 412.392C105.353 405.363 92.2283 400.735 92.2283 400.735C86.9712 399.935 75.6341 396.14 72.3426 387.363C70.942 383.628 67.7121 381.127 63.9789 379.494C58.1126 397.157 55.361 415.359 62.7641 420.399C70.77 425.849 91.9127 428.263 111.885 427.752Z" fill="#123041"/>
<path d="M67.1494 450.076C62.2314 448.066 57.4427 421.272 58.4134 407.934L105.652 415.473C106.623 426.299 106.688 448.375 104.358 450.076C101.446 452.203 73.2969 452.59 67.1494 450.076Z" fill="#123041"/>
<path d="M37.7179 390.936C37.4139 373.216 59.6366 353.741 70.786 346.219C72.3064 346.219 75.9554 346.804 78.388 349.144C81.4287 352.07 68.8856 392.607 64.3245 401.384C59.7634 410.16 38.098 413.085 37.7179 390.936Z" fill="white"/>
<path d="M146.056 398.277C146.056 416.569 130.399 420.962 111.085 420.962C91.7705 420.962 76.1133 416.569 76.1133 398.277C76.1133 374.23 91.7705 360.619 111.085 360.619C130.399 360.619 146.056 374.23 146.056 398.277Z" fill="#FFC0C1"/>
<path d="M110.79 414.791C110.931 414.792 111.07 414.765 111.201 414.712C111.331 414.659 111.45 414.581 111.55 414.482L116.313 409.691C116.488 409.487 116.58 409.225 116.57 408.957C116.559 408.689 116.447 408.435 116.257 408.245C116.066 408.056 115.811 407.945 115.541 407.934C115.272 407.924 115.008 408.015 114.804 408.19L110.03 412.928C109.929 413.026 109.85 413.144 109.795 413.274C109.741 413.404 109.713 413.543 109.713 413.683C109.713 413.824 109.741 413.963 109.795 414.093C109.85 414.223 109.929 414.34 110.03 414.439C110.126 414.546 110.243 414.632 110.374 414.692C110.504 414.752 110.646 414.786 110.79 414.791Z" fill="#FF8D8D"/>
<path d="M115.502 414.791C115.642 414.792 115.78 414.765 115.91 414.712C116.039 414.659 116.157 414.581 116.256 414.483C116.356 414.384 116.435 414.266 116.489 414.137C116.543 414.008 116.57 413.869 116.57 413.729C116.57 413.588 116.543 413.45 116.489 413.32C116.435 413.191 116.356 413.073 116.256 412.974L111.53 408.248C111.431 408.148 111.314 408.069 111.184 408.015C111.055 407.961 110.916 407.934 110.776 407.934C110.636 407.934 110.497 407.961 110.368 408.015C110.238 408.069 110.121 408.148 110.022 408.248C109.824 408.447 109.713 408.716 109.713 408.997C109.713 409.277 109.824 409.546 110.022 409.745L114.759 414.483C114.956 414.679 115.224 414.79 115.502 414.791V414.791Z" fill="#FF8D8D"/>
<path d="M194.058 308.163C194.058 343.951 154.814 355.819 107.117 355.819C59.4195 355.819 19.8867 343.951 19.8867 308.163C19.8867 247.141 59.4195 226.219 107.117 226.219C154.814 226.219 194.058 244.235 194.058 308.163Z" fill="white"/>
<path fill-rule="evenodd" clip-rule="evenodd" d="M113.178 226.319C113.578 237.739 115.963 252.717 123.446 258.774C130.025 264.101 137.619 265.457 144.404 266.669C150.203 267.705 155.412 268.636 158.894 271.849C160.743 273.557 162.384 275.926 164.161 278.492C169.515 286.225 176.108 295.745 193.388 294.34C188.277 244.033 154.519 227.72 113.178 226.319Z" fill="#123041"/>
<path d="M65.1426 301.648V312.62" stroke="#123041" stroke-width="10.2857" stroke-linecap="round"/>
<path d="M157.027 301.648V312.62" stroke="#123041" stroke-width="10.2857" stroke-linecap="round"/>
<path d="M78.8574 327.157C78.8574 313.069 90.278 301.648 104.366 301.648H117.12C131.208 301.648 142.629 313.069 142.629 327.157V327.157C142.629 336.549 135.015 344.163 125.623 344.163H95.8631C86.4711 344.163 78.8574 336.549 78.8574 327.157V327.157Z" fill="#FFC0C1"/>
<path d="M97.3711 320.848V328.391" stroke="#123041" stroke-width="6.85714" stroke-linecap="round"/>
<path d="M124.801 320.848L124.801 328.391" stroke="#123041" stroke-width="6.85714" stroke-linecap="round"/>
<path d="M44.5723 328.391H54.858" stroke="#FFC0C1" stroke-width="13.7143" stroke-linecap="round"/>
<path d="M167.316 328.391H177.602" stroke="#FFC0C1" stroke-width="13.7143" stroke-linecap="round"/>
<path d="M57.601 359.248C51.0378 355.81 52.7055 350.442 53.4869 348.619C54.7892 348.88 59.7097 350.737 63.7726 351.362C67.8355 351.987 71.6564 352.991 74.912 353.251L74.1306 365.362C71.1354 364.971 64.1641 362.686 57.601 359.248Z" fill="#173A52"/>
<ellipse cx="85.9403" cy="364.311" rx="7.8133" ry="16.4079" transform="rotate(-20 85.9403 364.311)" fill="#173A52"/>
<rect x="70.7832" y="352.367" width="10.1573" height="32.8159" transform="rotate(-20 70.7832 352.367)" fill="#173A52"/>
<path d="M83.737 365.112C86.8363 373.627 86.0616 381.727 82.0067 383.203C77.9518 384.679 71.1258 383.006 66.8501 371.258C62.5744 359.511 66.7281 353.842 70.783 352.366C74.8379 350.89 80.6376 356.597 83.737 365.112Z" fill="#005271"/>
<ellipse cx="74.5616" cy="368.452" rx="5.85998" ry="12.5013" transform="rotate(-20 74.5616 368.452)" fill="#9EE7E5"/>
<ellipse cx="6.25064" cy="16.4079" rx="6.25064" ry="16.4079" transform="matrix(-0.939693 -0.34202 -0.34202 0.939693 150.621 351.275)" fill="#173A52"/>
<rect width="8.59463" height="32.8159" transform="matrix(-0.939693 -0.34202 -0.34202 0.939693 152.822 352.076)" fill="#173A52"/>
<path d="M142.805 365.892C139.705 374.407 139.194 382.039 141.662 382.937C144.13 383.835 148.808 381.381 153.083 369.633C157.359 357.886 155.354 352.999 152.885 352.1C150.417 351.202 145.904 357.377 142.805 365.892Z" fill="#005271"/>
<ellipse cx="3.51599" cy="12.5013" rx="3.51599" ry="12.5013" transform="matrix(-0.939693 -0.34202 -0.34202 0.939693 155.891 357.352)" fill="#9EE7E5"/>
<g clip-path="url(#clip1_2292_424)">
<rect x="190.172" y="345.008" width="23.3143" height="34.2857" rx="3.42857" transform="rotate(29.3185 190.172 345.008)" fill="#005271"/>
<rect x="191.221" y="348.742" width="17.8286" height="11.6571" rx="1.37143" transform="rotate(29.3185 191.221 348.742)" fill="#123041"/>
<circle cx="188.25" cy="372.239" r="7.54286" transform="rotate(29.3185 188.25 372.239)" fill="#9EE7E5"/>
<circle cx="188.248" cy="372.241" r="4.11429" transform="rotate(29.3185 188.248 372.241)" fill="#005271"/>
</g>
</g>
<path d="M137.897 377.569C138.2 376.798 137.82 375.927 137.049 375.624C136.278 375.322 135.408 375.701 135.105 376.472L137.897 377.569ZM192 439.501L192.253 440.98L192 439.501ZM1002 235.002L1002.38 233.552L1002 235.002ZM1055 346.002L1055.1 344.505L1055 346.002ZM135.105 376.472C133.61 380.277 132.934 386.787 133.553 394.151C134.175 401.558 136.121 410.017 140.037 417.751C143.958 425.493 149.876 432.549 158.444 437.043C167.021 441.541 178.115 443.4 192.253 440.98L191.747 438.023C178.135 440.353 167.73 438.525 159.838 434.386C151.938 430.243 146.418 423.71 142.714 416.395C139.005 409.072 137.139 401.004 136.542 393.9C135.942 386.751 136.642 380.764 137.897 377.569L135.105 376.472ZM192.253 440.98C199.935 439.665 206.116 434.728 211.247 427.417C216.368 420.118 220.54 410.323 224.199 398.998C231.508 376.377 236.926 347.112 243.606 318.492C250.311 289.763 258.296 261.626 270.732 240.84C283.131 220.119 299.809 206.913 323.963 207.52L324.038 204.521C298.441 203.878 280.897 218.008 268.158 239.3C255.457 260.528 247.389 289.081 240.684 317.81C233.953 346.649 228.603 375.611 221.345 398.076C217.72 409.294 213.658 418.757 208.791 425.693C203.933 432.616 198.369 436.89 191.747 438.023L192.253 440.98ZM323.963 207.52C373.454 208.764 445.134 228.062 502.788 252.579C531.609 264.835 556.823 278.353 573.962 291.5C582.537 298.078 589.012 304.503 592.923 310.565C596.832 316.623 598.076 322.141 596.566 327.062L599.434 327.942C601.299 321.863 599.622 315.413 595.444 308.939C591.269 302.468 584.494 295.798 575.788 289.119C558.364 275.754 532.891 262.12 503.962 249.818C446.116 225.22 374.046 205.778 324.038 204.521L323.963 207.52ZM596.566 327.062C596.085 328.629 595.983 330.13 596.393 331.5C596.809 332.893 597.706 333.99 598.927 334.813C601.274 336.396 604.937 337.048 609.417 337.121C618.475 337.269 632.081 335.044 648.763 331.224C682.183 323.572 728.496 309.382 776.715 294.252C824.964 279.112 875.14 263.024 916.373 251.54C936.99 245.797 955.336 241.216 970.065 238.48C977.43 237.113 983.864 236.211 989.209 235.854C994.582 235.494 998.742 235.693 1001.62 236.452L1002.38 233.552C999.034 232.667 994.487 232.494 989.009 232.86C983.505 233.229 976.946 234.151 969.517 235.531C954.66 238.29 936.215 242.899 915.568 248.65C874.274 260.151 824.03 276.26 775.816 291.389C727.572 306.528 681.377 320.679 648.093 328.3C631.422 332.117 618.127 334.262 609.466 334.121C605.086 334.05 602.185 333.392 600.604 332.326C599.861 331.825 599.453 331.264 599.267 330.641C599.074 329.996 599.071 329.125 599.434 327.942L596.566 327.062ZM1001.62 236.452C1008 238.138 1012.71 240.997 1016.2 244.678C1019.71 248.368 1022.07 252.955 1023.65 258.186C1026.83 268.712 1026.77 281.571 1026.72 294.415C1026.68 307.107 1026.64 319.853 1030.09 329.629C1031.83 334.566 1034.49 338.832 1038.55 341.974C1042.61 345.117 1047.96 347.04 1054.9 347.499L1055.1 344.505C1048.61 344.077 1043.88 342.303 1040.39 339.602C1036.89 336.899 1034.52 333.173 1032.92 328.63C1029.68 319.449 1029.68 307.29 1029.72 294.426C1029.77 281.714 1029.85 268.362 1026.52 257.319C1024.84 251.764 1022.29 246.725 1018.38 242.612C1014.46 238.489 1009.25 235.365 1002.38 233.552L1001.62 236.452ZM1054.9 347.499C1061.85 347.958 1067.55 346.216 1072.14 342.735C1076.69 339.275 1080.03 334.183 1082.46 328.113C1087.29 316.006 1088.63 299.618 1088.38 283.167C1088.12 266.674 1086.27 249.936 1084.61 237.037C1083.78 230.523 1083.01 225.148 1082.49 221.065C1082.24 219.047 1082.05 217.423 1081.96 216.233C1081.92 215.637 1081.9 215.178 1081.9 214.848C1081.91 214.446 1081.95 214.426 1081.89 214.559L1079.11 213.445C1078.93 213.89 1078.91 214.429 1078.9 214.814C1078.9 215.27 1078.92 215.827 1078.97 216.46C1079.07 217.73 1079.26 219.419 1079.52 221.442C1080.02 225.438 1080.82 231.051 1081.64 237.42C1083.29 250.287 1085.13 266.892 1085.38 283.212C1085.62 299.573 1084.27 315.467 1079.67 327.001C1077.37 332.751 1074.31 337.319 1070.32 340.346C1066.37 343.351 1061.4 344.921 1055.1 344.505L1054.9 347.499Z" fill="#005271"/>
<rect x="1090.56" y="15" width="130.349" height="191.69" rx="24.1304" transform="rotate(20 1090.56 15)" fill="#005271"/>
<rect x="1099.73" y="34.6543" width="99.6786" height="65.1745" rx="9.65218" transform="rotate(20 1099.73 34.6543)" fill="#123041"/>
<circle cx="1104.6" cy="166.984" r="42.1717" transform="rotate(20 1104.6 166.984)" fill="#9EE7E5"/>
<circle cx="1104.6" cy="166.985" r="23.0028" transform="rotate(20 1104.6 166.985)" fill="#005271"/>
<rect x="1106.59" y="94.2695" width="46.0055" height="3.83379" transform="rotate(20 1106.59 94.2695)" fill="#9EE7E5"/>
<rect x="1104.3" y="89.3555" width="3.83379" height="3.83379" transform="rotate(20 1104.3 89.3555)" fill="#9EE7E5"/>
<rect x="1151.13" y="106.402" width="3.83379" height="3.83379" transform="rotate(20 1151.13 106.402)" fill="#9EE7E5"/>
<rect x="1105.94" y="73.6348" width="3.83379" height="15.3352" transform="rotate(20 1105.94 73.6348)" fill="#9EE7E5"/>
<rect x="1159.98" y="93.3027" width="3.83379" height="15.3352" transform="rotate(20 1159.98 93.3027)" fill="#9EE7E5"/>
<rect x="1112.16" y="67.7402" width="3.83379" height="7.66758" transform="rotate(20 1112.16 67.7402)" fill="#9EE7E5"/>
<rect x="1159" y="84.7852" width="3.83379" height="7.66758" transform="rotate(20 1159 84.7852)" fill="#9EE7E5"/>
<rect x="1118.39" y="61.8457" width="3.83379" height="7.66758" transform="rotate(20 1118.39 61.8457)" fill="#9EE7E5"/>
<rect x="1108.56" y="66.4277" width="3.83379" height="3.83379" transform="rotate(20 1108.56 66.4277)" fill="#9EE7E5"/>
<rect x="1162.6" y="86.0977" width="3.83379" height="3.83379" transform="rotate(20 1162.6 86.0977)" fill="#9EE7E5"/>
<rect x="1103.98" y="56.6016" width="3.83379" height="3.83379" transform="rotate(20 1103.98 56.6016)" fill="#9EE7E5"/>
<rect x="1108.89" y="54.3086" width="11.5014" height="3.83379" transform="rotate(20 1108.89 54.3086)" fill="#9EE7E5"/>
<rect x="1162.93" y="73.9785" width="11.5014" height="3.83379" transform="rotate(20 1162.93 73.9785)" fill="#9EE7E5"/>
<rect x="1172.43" y="81.5137" width="3.83379" height="3.83379" transform="rotate(20 1172.43 81.5137)" fill="#9EE7E5"/>
<rect x="1099.06" y="58.8926" width="3.83379" height="7.66758" transform="rotate(20 1099.06 58.8926)" fill="#9EE7E5"/>
<rect x="1174.72" y="86.4277" width="3.83379" height="7.66758" transform="rotate(20 1174.72 86.4277)" fill="#9EE7E5"/>
<rect x="1100.04" y="67.4082" width="7.66758" height="3.83379" transform="rotate(20 1100.04 67.4082)" fill="#9EE7E5"/>
<rect x="1164.89" y="91.0117" width="7.66758" height="3.83379" transform="rotate(20 1164.89 91.0117)" fill="#9EE7E5"/>
<rect x="1158.02" y="76.2695" width="3.83379" height="7.66758" transform="rotate(20 1158.02 76.2695)" fill="#9EE7E5"/>
<rect x="1125.92" y="52.3496" width="3.83379" height="15.3352" transform="rotate(20 1125.92 52.3496)" fill="#9EE7E5"/>
<rect x="1118.06" y="73.9648" width="3.83379" height="7.66758" transform="rotate(20 1118.06 73.9648)" fill="#9EE7E5"/>
<rect x="1150.48" y="85.7656" width="3.83379" height="7.66758" transform="rotate(20 1150.48 85.7656)" fill="#9EE7E5"/>
<rect x="1127.55" y="81.502" width="15.3352" height="3.83379" transform="rotate(20 1127.55 81.502)" fill="#9EE7E5"/>
<rect x="1122.64" y="83.793" width="3.83379" height="3.83379" transform="rotate(20 1122.64 83.793)" fill="#9EE7E5"/>
<rect x="1120.02" y="90.998" width="23.0028" height="3.83379" transform="rotate(20 1120.02 90.998)" fill="#9EE7E5"/>
<rect x="1140.65" y="90.3477" width="3.83379" height="3.83379" transform="rotate(20 1140.65 90.3477)" fill="#9EE7E5"/>
<rect x="1142.95" y="95.2617" width="3.83379" height="3.83379" transform="rotate(20 1142.95 95.2617)" fill="#9EE7E5"/>
<rect x="1117.73" y="86.084" width="3.83379" height="3.83379" transform="rotate(20 1117.73 86.084)" fill="#9EE7E5"/>
<rect x="1124.93" y="88.707" width="3.83379" height="3.83379" transform="rotate(20 1124.93 88.707)" fill="#9EE7E5"/>
<rect x="1135.74" y="92.6406" width="3.83379" height="3.83379" transform="rotate(20 1135.74 92.6406)" fill="#9EE7E5"/>
<rect x="1158.35" y="64.1504" width="3.83379" height="15.3352" transform="rotate(20 1158.35 64.1504)" fill="#9EE7E5"/>
<rect x="1126.9" y="60.8652" width="7.66758" height="3.83379" transform="rotate(20 1126.9 60.8652)" fill="#9EE7E5"/>
<rect x="1148.52" y="68.7324" width="7.66758" height="3.83379" transform="rotate(20 1148.52 68.7324)" fill="#9EE7E5"/>
<rect x="1135.42" y="59.8848" width="15.3352" height="3.83379" transform="rotate(20 1135.42 59.8848)" fill="#9EE7E5"/>
<rect x="1133.13" y="54.9727" width="3.83379" height="3.83379" transform="rotate(20 1133.13 54.9727)" fill="#9EE7E5"/>
<rect x="1151.14" y="61.5273" width="3.83379" height="3.83379" transform="rotate(20 1151.14 61.5273)" fill="#9EE7E5"/>
<rect x="1130.84" y="50.0586" width="3.83379" height="3.83379" transform="rotate(20 1130.84 50.0586)" fill="#9EE7E5"/>
<rect x="1156.06" y="59.2363" width="3.83379" height="3.83379" transform="rotate(20 1156.06 59.2363)" fill="#9EE7E5"/>
<rect x="254" width="714" height="464" rx="12" fill="white"/>
<defs>
<clipPath id="clip0_2292_424">
<rect width="216" height="256.457" fill="white" transform="translate(0 207.02)"/>
</clipPath>
<clipPath id="clip1_2292_424">
<rect width="25.3714" height="37.0286" fill="white" transform="translate(190.246 343.477) rotate(29.3185)"/>
</clipPath>
</defs>
</svg>
