<svg width="189" height="469" viewBox="0 0 189 469" fill="none" xmlns="http://www.w3.org/2000/svg">
<g clip-path="url(#clip0_2467_1280)">
<g clip-path="url(#clip1_2467_1280)">
<path d="M70.7584 195.905C60.0565 189.873 70.7289 146.537 80.3007 140.472C89.8726 134.407 106.139 134.021 113.59 138.019C121.041 142.017 141.797 183.687 132.107 191.384C122.416 199.082 81.4603 201.937 70.7584 195.905Z" fill="white"/>
<path d="M50.6359 47.0657C55.3517 59.1239 73.431 82.0803 77.6229 91.9278L110.217 89.5259C112.92 79.1703 126.182 53.9043 130.098 41.21C134.955 25.466 127.265 6.03485 110.455 7.27361C96.5762 8.2964 91.7634 31.6942 90.8428 44.1028C88.1131 31.9632 79.4467 9.55868 66.0435 10.5464C49.2339 11.7851 44.635 31.7213 50.6359 47.0657Z" fill="white"/>
<path d="M33.7302 118.895C35.5602 143.728 63.3987 149.957 96.4961 147.518C129.593 145.079 156.419 134.822 154.589 109.989C151.468 67.6448 122.966 55.1485 89.869 57.5875C56.7716 60.0265 30.4612 74.5347 33.7302 118.895Z" fill="white"/>
<path d="M131.621 122.923L124.484 123.449" stroke="#FFC0C1" stroke-width="9.54222" stroke-linecap="round"/>
<path d="M52.6348 128.742L45.4975 129.268" stroke="#FFC0C1" stroke-width="9.54222" stroke-linecap="round"/>
<path d="M89.2071 108.346C88.2732 108.415 87.8738 108.836 87.3188 109.268C86.7064 108.922 86.2497 108.564 85.3157 108.633C84.1483 108.719 83.5604 109.993 83.9027 110.694C84.3636 111.639 85.8621 112.507 87.577 112.772C89.2346 112.258 90.5896 111.18 90.907 110.178C91.1428 109.434 90.3745 108.26 89.2071 108.346Z" fill="#FFC0C1"/>
<path d="M62.7012 116.041L58.9651 117.273" stroke="#123041" stroke-width="7.15666" stroke-linecap="round"/>
<path d="M112.664 112.359L116.54 113.031" stroke="#123041" stroke-width="7.15666" stroke-linecap="round"/>
<path d="M79.0923 117.738C79.6909 118.002 81.3137 118.497 83.0154 118.372C85.1426 118.215 85.8351 116.729 88.0953 116.562C90.3554 116.396 91.2583 117.764 93.3855 117.608C95.0873 117.482 96.6199 116.754 97.1734 116.406" stroke="#DF9C9C" stroke-width="2.38555" stroke-linecap="round"/>
</g>
<g clip-path="url(#clip2_2467_1280)">
<path d="M132.636 277.44C129.49 274.613 87.6764 215.743 88.7415 211.122C89.8065 206.5 131.043 202.9 136.93 203.727C142.816 204.553 166.969 212.25 174.677 244.896C182.385 277.541 135.783 280.267 132.636 277.44Z" fill="#5BB42B"/>
<path d="M45.5537 202.744C57.1622 198.585 74.9594 208.879 82.4069 214.545C82.7465 215.547 83.176 218.082 82.1772 220.208C80.9288 222.865 51.4143 223.655 44.6123 222.61C37.8103 221.565 31.043 207.942 45.5537 202.744Z" fill="#5C9A15"/>
<ellipse cx="19.071" cy="20.5514" rx="19.071" ry="20.5514" transform="matrix(-0.877234 -0.480064 -0.480064 0.877234 166.582 150.048)" fill="#5BB42B"/>
<ellipse cx="57.1308" cy="158.39" rx="19.071" ry="20.5514" transform="rotate(-28.6896 57.1308 158.39)" fill="#5BB42B"/>
<path d="M38.47 174.861C50.3977 155.538 53.9131 140.271 98.2532 140.271C142.593 140.271 146.108 155.538 158.036 174.861C166.491 188.558 162.615 204.915 144.979 215.24C134.429 221.417 118.956 216.847 98.2531 216.847C77.55 216.847 62.0772 221.417 51.5275 215.24C33.891 204.915 30.0149 188.558 38.47 174.861Z" fill="#5BB42B"/>
<path d="M147.021 183.211H138.911" stroke="#A1DC3C" stroke-width="9.54222" stroke-linecap="round"/>
<path d="M58.7559 183.211H50.645" stroke="#A1DC3C" stroke-width="9.54222" stroke-linecap="round"/>
<path d="M59.1621 165.08L55.3456 166.034" stroke="#123041" stroke-width="7.15666" stroke-linecap="round"/>
<path d="M132.637 165.558L136.453 166.512" stroke="#123041" stroke-width="7.15666" stroke-linecap="round"/>
<path d="M77.7695 167.227C78.8033 167.943 81.6341 169.374 84.6876 169.374C88.5045 169.374 89.9359 166.034 93.9913 166.034C98.0467 166.034 99.4781 169.374 103.295 169.374C106.348 169.374 109.179 167.943 110.213 167.227" stroke="#4B890D" stroke-width="2.38555" stroke-linecap="round"/>
<path d="M138.782 149.189C137.661 153.116 130.307 154.517 122.706 152.347C115.104 150.176 110.134 145.256 111.256 141.329C113.155 134.676 119.997 130.879 128.547 133.32C137.096 135.761 140.747 142.307 138.782 149.189Z" fill="white"/>
</g>
<path d="M150.625 294.434C143 304.125 122.454 304.86 113.134 304.017C112.314 303.348 110.603 301.429 110.319 299.097C109.965 296.183 134.55 279.832 140.867 277.104C147.185 274.375 160.156 282.321 150.625 294.434Z" fill="#E7EAEE"/>
<path d="M30.6238 223.965C45.6395 231.462 41.4922 236.031 38.2188 242.586C34.9455 249.142 33.4809 255.05 18.77 247.704C11.302 243.975 7.90161 235.638 11.175 229.082C14.4483 222.527 23.1558 220.236 30.6238 223.965Z" fill="white"/>
<path d="M51.8451 223.916C52.4119 231.857 49.6454 232.102 46.2286 232.346C42.8118 232.59 40.0385 232.74 39.4717 224.799C38.9048 216.858 42.2372 210.149 44.632 209.978C47.0269 209.807 51.2782 215.974 51.8451 223.916Z" fill="#6A5B3D"/>
<path d="M126.562 218.583C127.129 226.524 124.362 226.769 120.945 227.013C117.529 227.257 114.755 227.407 114.188 219.466C113.622 211.525 116.954 204.816 119.349 204.645C121.744 204.474 125.995 210.641 126.562 218.583Z" fill="#6A5B3D"/>
<path d="M136.562 216.403C122.764 225.958 127.518 229.891 131.689 235.915C135.861 241.939 138.149 247.579 151.668 238.218C158.531 233.466 160.712 224.731 156.541 218.707C152.37 212.683 143.425 211.651 136.562 216.403Z" fill="#123041"/>
<path d="M140.636 223.418C133.759 228.18 135.726 229.559 137.309 231.844C138.891 234.13 139.63 236.36 146.367 231.695C149.788 229.326 151.278 225.553 149.695 223.268C148.112 220.982 144.057 221.049 140.636 223.418Z" fill="#FFC0C1"/>
<path d="M27.1589 231.517C34.6428 235.254 32.8915 236.899 31.6496 239.386C30.4076 241.873 29.9935 244.186 22.6614 240.524C18.9392 238.666 16.9287 235.143 18.1706 232.656C19.4126 230.168 23.4368 229.659 27.1589 231.517Z" fill="#FFC0C1"/>
<path d="M118.524 345.514C128.753 338.711 114.925 296.277 104.933 290.932C94.9416 285.587 78.6905 286.397 71.5534 290.932C64.4164 295.467 46.7797 338.549 57.0093 345.514C67.2389 352.478 108.294 352.316 118.524 345.514Z" fill="white"/>
<path fill-rule="evenodd" clip-rule="evenodd" d="M91.1885 350.63C91.2683 348.119 91.1857 342.997 89.4393 339.942C86.6437 335.052 77.5115 331.831 77.5115 331.831C73.8537 331.274 65.9654 328.634 63.6753 322.527C62.7007 319.928 60.453 318.188 57.8552 317.052C53.7732 329.342 51.8584 342.007 57.0096 345.514C62.5801 349.306 77.2915 350.985 91.1885 350.63Z" fill="#123041"/>
<path d="M114.964 330.122C114.964 342.849 104.07 345.906 90.6315 345.906C77.1929 345.906 66.2988 342.849 66.2988 330.122C66.2988 313.39 77.1929 303.92 90.6315 303.92C104.07 303.92 114.964 313.39 114.964 330.122Z" fill="#FFC0C1"/>
<path d="M90.4272 341.611C90.5252 341.612 90.6224 341.593 90.7131 341.556C90.8038 341.519 90.8864 341.465 90.956 341.396L94.2701 338.063C94.3921 337.921 94.4559 337.738 94.4487 337.552C94.4414 337.366 94.3637 337.189 94.2311 337.057C94.0984 336.925 93.9206 336.848 93.7332 336.84C93.5458 336.833 93.3625 336.897 93.22 337.018L89.8984 340.315C89.8286 340.383 89.7732 340.465 89.7354 340.556C89.6976 340.646 89.6781 340.743 89.6781 340.841C89.6781 340.938 89.6976 341.035 89.7354 341.125C89.7732 341.216 89.8286 341.298 89.8984 341.366C89.9655 341.44 90.0469 341.5 90.1377 341.542C90.2286 341.584 90.327 341.608 90.4272 341.611Z" fill="#FF8D8D"/>
<path d="M93.706 341.611C93.8032 341.612 93.8996 341.593 93.9897 341.556C94.0797 341.519 94.1616 341.465 94.2306 341.397C94.2999 341.328 94.3549 341.246 94.3924 341.156C94.4299 341.066 94.4492 340.969 94.4492 340.872C94.4492 340.774 94.4299 340.678 94.3924 340.588C94.3549 340.498 94.2999 340.416 94.2306 340.347L90.9423 337.058C90.8736 336.989 90.7919 336.934 90.7018 336.897C90.6118 336.859 90.5152 336.84 90.4176 336.84C90.3201 336.84 90.2235 336.859 90.1335 336.897C90.0434 336.934 89.9617 336.989 89.893 337.058C89.7554 337.197 89.6781 337.384 89.6781 337.579C89.6781 337.775 89.7554 337.962 89.893 338.101L93.1887 341.397C93.3263 341.533 93.5121 341.61 93.706 341.611V341.611Z" fill="#FF8D8D"/>
<path d="M140.748 257.163C139.505 282.033 132.399 300.342 88.6473 302.502C55.5444 304.865 27.5198 298.587 25.7469 273.749C22.724 231.398 49.1241 214.92 82.227 212.557C113.791 210.304 142.657 218.994 140.748 257.163Z" fill="white"/>
<path fill-rule="evenodd" clip-rule="evenodd" d="M86.4375 212.321C87.2808 220.227 89.6778 230.507 95.1719 234.341C100.002 237.712 105.339 238.277 110.109 238.782C114.185 239.214 117.846 239.602 120.421 241.659C121.79 242.753 123.046 244.316 124.406 246.009C127.924 250.387 132.14 255.633 140.801 255.876C141.948 220.473 115.954 211.152 86.4375 212.321Z" fill="#123041"/>
<path d="M56.834 266.984L57.3775 274.599" stroke="#123041" stroke-width="7.15666" stroke-linecap="round"/>
<path d="M120.604 262.433L114.745 266.467L121.147 270.047" stroke="#123041" stroke-width="7.15666" stroke-linecap="round" stroke-linejoin="round"/>
<path d="M67.6152 284.009C66.9173 274.232 74.2777 265.74 84.055 265.042L92.9068 264.41C102.684 263.712 111.176 271.073 111.874 280.85V280.85C112.339 287.368 107.432 293.029 100.914 293.495L80.26 294.969C73.7417 295.434 68.0805 290.527 67.6152 284.009V284.009Z" fill="#FFC0C1"/>
<path d="M80.1523 278.713L80.526 283.948" stroke="#123041" stroke-width="4.77111" stroke-linecap="round"/>
<path d="M99.1875 277.354L99.5612 282.589" stroke="#123041" stroke-width="4.77111" stroke-linecap="round"/>
<path d="M43.8809 286.563L51.0194 286.054" stroke="#FFC0C1" stroke-width="9.54222" stroke-linecap="round"/>
<path d="M126.685 279.768C126.685 279.768 127.963 277.221 129.31 276.576C130.493 276.009 133.117 275.77 133.117 275.77" stroke="#FFC0C1" stroke-width="9.54222" stroke-linecap="round"/>
<path d="M141.488 402.354C130.943 408.746 111.45 402.212 103.021 398.146C102.488 397.232 101.561 394.834 102.116 392.551C102.809 389.698 131.572 383.033 138.445 382.7C145.319 382.366 154.669 394.365 141.488 402.354Z" fill="#FFC532"/>
<path d="M115.498 460.631C118.92 459.232 122.252 440.59 121.576 431.309L88.7079 436.554C88.0326 444.087 87.9875 459.447 89.6084 460.631C91.6346 462.111 111.22 462.38 115.498 460.631Z" fill="#FFC532"/>
<path d="M118.067 439.981C128.296 433.179 114.468 390.744 104.476 385.4C94.4846 380.055 78.2334 380.865 71.0964 385.4C63.9594 389.935 46.3226 433.017 56.5523 439.981C66.7819 446.946 107.837 446.784 118.067 439.981Z" fill="#FFDB40"/>
<path d="M59.6018 460.631C56.1799 459.232 52.848 440.59 53.5234 431.309L86.3917 436.554C87.0671 444.087 87.1121 459.447 85.4912 460.631C83.4651 462.111 63.8792 462.38 59.6018 460.631Z" fill="#FFDB40"/>
<path d="M39.1252 419.482C38.9136 407.153 54.3759 393.602 62.1336 388.368C63.1914 388.368 65.7303 388.775 67.4229 390.404C69.5386 392.439 60.8113 420.645 57.6377 426.751C54.4641 432.858 39.3897 434.893 39.1252 419.482Z" fill="#FFDB40"/>
<path d="M86.1518 433.694C86.2498 433.695 86.347 433.676 86.4377 433.639C86.5285 433.602 86.611 433.548 86.6806 433.479L89.9947 430.146C90.1168 430.004 90.1805 429.822 90.1733 429.635C90.166 429.449 90.0883 429.272 89.9557 429.14C89.8231 429.008 89.6452 428.931 89.4578 428.923C89.2704 428.916 89.0871 428.98 88.9446 429.101L85.623 432.398C85.5532 432.466 85.4978 432.548 85.46 432.639C85.4222 432.729 85.4027 432.826 85.4027 432.924C85.4027 433.021 85.4222 433.118 85.46 433.208C85.4978 433.299 85.5532 433.381 85.623 433.449C85.6901 433.524 85.7715 433.583 85.8624 433.625C85.9532 433.667 86.0517 433.691 86.1518 433.694Z" fill="#FFB132"/>
<path d="M89.4306 433.694C89.5278 433.695 89.6243 433.676 89.7143 433.639C89.8043 433.602 89.8862 433.548 89.9552 433.48C90.0245 433.411 90.0795 433.329 90.117 433.239C90.1545 433.149 90.1738 433.052 90.1738 432.955C90.1738 432.857 90.1545 432.761 90.117 432.671C90.0795 432.581 90.0245 432.499 89.9552 432.43L86.6669 429.141C86.5982 429.072 86.5165 429.017 86.4264 428.98C86.3364 428.942 86.2398 428.923 86.1423 428.923C86.0447 428.923 85.9481 428.942 85.8581 428.98C85.768 429.017 85.6863 429.072 85.6176 429.141C85.48 429.28 85.4027 429.467 85.4027 429.662C85.4027 429.858 85.48 430.045 85.6176 430.184L88.9133 433.48C89.051 433.616 89.2367 433.693 89.4306 433.694V433.694Z" fill="#FFB132"/>
<path d="M147.905 359.982C147.905 384.882 120.599 393.14 87.4123 393.14C54.2252 393.14 26.7188 384.882 26.7188 359.982C26.7188 317.523 54.2252 302.966 87.4123 302.966C120.599 302.966 147.905 315.501 147.905 359.982Z" fill="#FFDB40"/>
<path d="M44.8477 372.146H52.0043" stroke="#FCA18E" stroke-width="9.54222" stroke-linecap="round"/>
<path d="M124.049 372.146H131.205" stroke="#FCA18E" stroke-width="9.54222" stroke-linecap="round"/>
<path d="M59.1621 354.971V362.604" stroke="#123041" stroke-width="7.15666" stroke-linecap="round"/>
<path d="M116.893 354.971V362.604" stroke="#123041" stroke-width="7.15666" stroke-linecap="round"/>
<path d="M100.194 365.944C100.194 370.291 94.7469 372.146 88.0277 372.146C81.3084 372.146 75.8613 370.291 75.8613 365.944C75.8613 361.596 81.3084 356.401 88.0277 356.401C94.7469 356.401 100.194 361.596 100.194 365.944Z" fill="#FFB132"/>
<path d="M78.3697 286.372C85.6074 292.79 89.7652 299.988 90.9953 306.539L78.2584 305.181C73.0137 304.622 67.9898 298.44 68.2216 290.936C68.4535 283.432 74.6891 283.108 78.3697 286.372Z" fill="#FFDB40"/>
<path d="M91.6614 296.511C89.4079 298.711 88.8383 303.506 88.8352 305.629C93.2006 305.225 100.526 303.883 101.839 301.088C103.153 298.292 102.333 294.817 100.734 293.989C99.1348 293.16 94.4782 293.76 91.6614 296.511Z" fill="#FFDB40"/>
<path d="M74.2912 304.017C75.3482 307.962 69.761 312.944 62.1253 314.99C54.4896 317.036 47.697 315.371 46.6399 311.426C44.8494 304.744 48.7656 297.968 57.3538 295.667C65.9419 293.366 72.4389 297.104 74.2912 304.017Z" fill="white"/>
<path d="M125.359 282.759C124.266 278.903 136.731 257.549 143.515 246.368C151.76 241.775 172.752 252.144 172.99 258.499C173.229 264.854 151.372 280.705 147.359 282.6C143.685 284.336 126.634 287.259 125.359 282.759Z" fill="#5BB42B"/>
<path d="M122.937 239.491C135.267 239.284 148.285 223.372 153.254 215.441C153.218 214.384 152.725 211.86 151.04 210.224C148.934 208.178 121.04 217.856 115.045 221.235C109.05 224.614 107.526 239.748 122.937 239.491Z" fill="#5C9A15"/>
</g>
<defs>
<clipPath id="clip0_2467_1280">
<rect width="188.459" height="469" fill="white"/>
</clipPath>
<clipPath id="clip1_2467_1280">
<rect width="155.538" height="217.563" fill="white" transform="translate(8.58789 11.4307) rotate(-4.2146)"/>
</clipPath>
<clipPath id="clip2_2467_1280">
<rect width="197.524" height="181.302" fill="white" transform="translate(33.3984 131.205)"/>
</clipPath>
</defs>
</svg>
