<svg width="1392" height="691" viewBox="0 0 1392 691" fill="none" xmlns="http://www.w3.org/2000/svg">
<circle cx="695.881" cy="320.057" r="90.8809" fill="#FFEFCB"/>
<path d="M56 554.569C56 554.569 325.086 550 695.5 550C1065.91 550 1335 554.569 1335 554.569V670H56V554.569Z" fill="#123041"/>
<path fill-rule="evenodd" clip-rule="evenodd" d="M182.252 277.846C168.36 300.901 142.288 345.825 122.448 389.757C86.6357 469.055 93.9787 670.171 93.9787 670.171H54.1127C54.1127 670.171 54.1127 496.517 93.9787 399.555C116.123 345.696 146.59 297.75 163.492 273.014C156.535 275.193 149.341 277.18 149.341 277.18L147.607 274.945L145.582 279.242L132.372 285.659L132.202 284.03L130.926 285.93L123.222 290.271L121.818 289.071L119.327 292.593L112.554 295.846L111.87 293.397L110.454 297.084L106.172 299.453L105.009 291.676L102.85 301.512C102.85 301.512 99.1862 303.52 93.1364 306.377C70.4075 317.11 55.3484 308.343 54.9894 306.529C54.6305 304.715 116.7 257.104 144.943 255.317C145.137 255.304 145.331 255.294 145.525 255.285C143.734 254.711 142.64 254.351 142.64 254.351L142.014 250.648L137.598 254.01L120.32 251.89L121.01 249.958L118.658 251.177L108.262 250.607L107.429 248.287L102.938 250.46L94.0986 249.332L94.6881 246.127L91.2357 249.237L85.4815 248.871L88.409 239.404L80.8992 248.833C80.8992 248.833 75.9849 248.498 68.1155 247.436C38.5506 243.445 27.4313 223.137 28.0223 220.868C28.6132 218.599 119.112 209.138 149.689 226.946C156.515 230.921 162.459 237.161 166.976 243.345L168.862 241.56L164.651 240.293L160.031 226.838L161.78 226.255L159.981 225.261L156.653 217.559L158.152 215.677L154.836 213.695L152.506 206.788L155.207 205.424L151.541 204.701L149.738 200.41L158.149 197.222L148.106 197.133C148.106 197.133 146.583 193.456 144.553 187.275C136.928 164.051 148.66 144.852 150.636 144.009C152.612 143.166 192.78 202.192 190.046 233.824C189.645 238.47 188.344 243.391 186.599 248.108C196.461 242.411 208.533 236.606 218.776 234.133C257.553 224.768 318.041 256.345 316.509 258.657C314.976 260.969 288.797 277.568 262.853 274.006C255.948 273.058 251.923 272.152 251.923 272.152L254.451 261.287L248.408 271.047L243.717 269.962L243.81 266.135L241.46 269.338L233.759 268.212L232.245 265.02L229.587 267.025L221.192 264.978L220.469 263.229L219.307 265.243L204.33 262.96L203.911 258.653L200.202 262.029C200.202 262.029 196.55 262.254 191.685 262.477C191.67 262.502 191.654 262.527 191.637 262.553C201.346 266.418 212.142 271.955 219.629 278.553C249.078 304.506 260.15 382.891 257.52 383.459C254.89 384.027 227.252 374.94 214.967 349.511C211.698 342.743 210.059 338.508 210.059 338.508L219.719 331.784L208.865 334.552L206.977 329.593L209.919 326.533L206.145 327.123L202.551 319.519L204.086 315.585L201.039 314.925L197.739 305.963L198.642 303.901L196.451 304.546L189.531 289.68L192.54 285.781L187.851 285.334C187.851 285.334 185.396 282.118 182.252 277.846Z" fill="#123041"/>
<path fill-rule="evenodd" clip-rule="evenodd" d="M176.793 420.731C182.53 416.675 190.05 412.183 196.468 410.111C218.694 402.938 255.396 418.712 254.603 420.129C253.81 421.546 239.257 432.388 223.954 431.45C219.881 431.2 217.492 430.848 217.492 430.848L218.489 424.394L215.391 430.358L212.605 429.931L212.491 427.693L211.26 429.666L206.715 429.347L205.69 427.55L204.227 428.838L199.236 428.012L198.737 427.023L198.147 428.25L189.303 427.576L188.869 425.08L186.852 427.214C186.852 427.214 185.093 427.456 182.642 427.759C187.956 429.724 193.617 432.441 197.729 435.737C215.659 450.111 224.273 495.65 222.751 496.054C221.228 496.457 204.817 491.898 196.939 477.362C194.842 473.493 193.768 471.061 193.768 471.061L199.234 466.865L192.962 468.78L191.722 465.931L193.359 464.062L191.168 464.51L188.859 460.161L189.65 457.819L187.849 457.516L185.675 452.364L186.147 451.134L184.883 451.571L180.43 443.066L182.084 440.704L179.33 440.57C179.33 440.57 175.92 436.512 172.759 432.462C165.903 440.98 142.861 470.165 125.169 499.167C98.6405 542.653 88.3945 660.028 88.3945 660.028L65.233 657.152C65.233 657.152 77.7635 556.262 107.922 502.805C125.68 471.327 148.394 444.384 159.424 432.068C157.866 432.407 156.82 432.623 156.82 432.623L155.894 431.249L154.544 433.681L146.578 436.916L146.542 435.958L145.723 437.018L141.054 439.255L140.28 438.499L138.688 440.46L134.605 442.097L134.301 440.64L133.331 442.739L130.737 443.956L130.36 439.368L128.717 445.03C128.717 445.03 126.499 446.061 122.854 447.495C109.159 452.881 100.703 447.175 100.564 446.102C100.453 445.246 124.657 428.924 142.871 422.37L141.753 422.24L142.15 421.107L140.777 421.829L134.689 421.533L134.193 420.179L131.571 421.468L126.392 420.84L126.726 418.962L124.716 420.795L121.346 420.602L123.025 415.049L118.663 420.596C118.663 420.596 115.785 420.419 111.174 419.826C93.8506 417.6 87.2656 405.752 87.6031 404.421C87.9407 403.091 140.887 397.216 158.854 407.528C159.243 407.751 159.626 407.986 160.005 408.233L159.107 406.983L159.99 406.361L158.814 406.107L155.65 402.35L156.172 401.042L153.979 400.49L151.509 397.01L152.793 395.79L150.616 396.003L148.882 393.901L153.06 390.696L147.414 392.339C147.414 392.339 145.941 390.534 143.761 387.41C135.571 375.675 138.912 362.934 139.878 362.128C140.844 361.322 173.314 387.645 177.113 405.84C178.083 410.485 177.669 416.052 176.793 420.731ZM166.541 413.748L166.326 413.748C166.37 413.796 166.413 413.845 166.457 413.894L166.541 413.748Z" fill="#123041"/>
<path fill-rule="evenodd" clip-rule="evenodd" d="M1163.76 364.965C1162.59 360.994 1161.79 356.669 1161.94 352.77C1162.72 332.716 1192.56 298.858 1193.73 299.542C1194.9 300.226 1200.75 313.191 1194.14 327.156C1192.38 330.874 1191.13 333.06 1191.13 333.06L1184.83 332.325L1189.85 334.986L1188.38 337.536L1186.03 337.701L1187.61 338.769L1185.61 342.918L1183.37 343.899L1184.17 345.198L1181.47 349.767L1180.27 350.248L1181.32 350.752L1180.59 352.244C1180.94 351.914 1181.31 351.594 1181.68 351.287C1198.96 337.08 1256.38 333.82 1256.98 335.176C1257.58 336.532 1252.7 350.329 1234.66 355.813C1229.85 357.272 1226.82 357.978 1226.82 357.978L1221.18 352.855L1223.97 358.466L1220.41 359.277L1217.94 357.686L1218.64 359.626L1213.24 361.225L1210.21 360.324L1209.93 361.855L1203.5 363.264L1201.91 362.742L1202.54 363.877L1201.37 364.216C1221.94 367.921 1250.64 380.949 1250.67 381.88C1250.72 383.048 1242.74 390.643 1227.19 387.368C1223.05 386.497 1220.51 385.798 1220.51 385.798L1217.74 380.066L1218.16 385.018L1215.18 384.188L1213.77 382.128L1213.71 383.734L1209.07 382.725L1207.02 380.923L1206.34 381.867L1200.96 380.324L1199.9 379.343L1200.03 380.369L1190.97 378.357L1189.1 376.01L1188.36 377.639C1188.36 377.639 1187.21 377.597 1185.49 377.517C1199.44 388.646 1228.47 413.249 1253.03 443.571C1294.74 495.064 1326.21 600.224 1326.21 600.224L1302.07 607.448C1302.07 607.448 1270.07 484.327 1234.01 442.797C1210.81 416.069 1182.27 390.056 1172.37 381.224C1169.84 385.657 1166.58 390.812 1166.58 390.812L1164.82 390.503L1165.7 393.374L1162.24 401.992L1161.47 401.302L1161.68 402.733L1159.92 408.039L1158.76 408.075L1159.09 410.782L1157.3 415.183L1155.94 414.327L1156.85 416.654L1155.85 419.583L1152 416.439L1155.17 421.958C1155.17 421.958 1154.31 424.455 1152.7 428.363C1146.63 443.047 1135.85 445.347 1134.92 444.651C1134.08 444.03 1140.99 405.241 1151.33 387.758L1146.37 392.226L1145.06 391.566L1145.28 392.741L1141.56 396.74L1139.46 396.605L1139.77 398.816L1136.1 402.088L1133.74 401.213L1135.12 403.201L1133.02 405.404L1126.44 402.352L1131.55 407.21C1131.55 407.21 1129.74 409.087 1126.43 411.988C1113.97 422.885 1094.37 423.22 1092.76 422.532C1091.15 421.844 1112.11 384.149 1135.84 375.616C1136.2 375.488 1136.56 375.363 1136.93 375.242L1136.19 374.197L1134.4 375.858L1129.8 376.046L1129.45 374.165L1128.36 376.261L1125.44 376.594L1124.99 370.926L1123.16 377.003C1123.16 377.003 1120.66 377.275 1116.55 377.41C1101.1 377.918 1091.54 367.394 1091.38 366.046C1091.22 364.697 1134.15 350.796 1152.86 358.065C1156.67 359.545 1160.49 362.166 1163.76 364.965ZM1153.08 385.052L1152.21 383.395L1154.12 383.696C1153.77 384.122 1153.43 384.574 1153.08 385.052ZM1174.73 359.43C1174.77 359.37 1174.81 359.311 1174.85 359.251L1174.62 359.29L1174.73 359.43Z" fill="#123041"/>
<path fill-rule="evenodd" clip-rule="evenodd" d="M596.666 369.218C596.666 365.486 593.641 362.461 589.909 362.461H466.257C462.526 362.461 459.5 365.486 459.5 369.218C459.5 372.95 462.526 375.975 466.257 375.975H472.567C471.992 376.969 471.663 378.123 471.663 379.353C471.663 383.085 474.688 386.11 478.42 386.11H547.095C544.84 387.205 543.286 389.517 543.286 392.191C543.286 395.923 546.312 398.948 550.043 398.948H585.855C589.587 398.948 592.612 395.923 592.612 392.191C592.612 388.46 589.587 385.435 585.855 385.435H563.803C566.058 384.339 567.611 382.028 567.611 379.353C567.611 378.123 567.282 376.969 566.707 375.975H589.909C593.641 375.975 596.666 372.95 596.666 369.218ZM513.218 397.597C513.218 394.798 510.949 392.529 508.15 392.529H489.907C487.108 392.529 484.839 394.798 484.839 397.597C484.839 400.396 487.108 402.665 489.907 402.665H508.15C510.949 402.665 513.218 400.396 513.218 397.597ZM458.825 387.124C461.623 387.124 463.892 389.393 463.892 392.191C463.892 394.99 461.623 397.259 458.825 397.259H452.068C449.269 397.259 447 394.99 447 392.191C447 389.393 449.269 387.124 452.068 387.124H458.825Z" fill="#FFC5AB"/>
<path fill-rule="evenodd" clip-rule="evenodd" d="M807.48 365.839C807.48 362.107 810.506 359.082 814.237 359.082H918.294C922.026 359.082 925.051 362.107 925.051 365.839C925.051 369.571 922.026 372.596 918.294 372.596H902.525C903.1 373.59 903.429 374.744 903.429 375.974C903.429 379.706 900.404 382.731 896.672 382.731H850.971C853.225 383.826 854.779 386.138 854.779 388.813C854.779 392.544 851.754 395.57 848.022 395.57H817.616C813.884 395.57 810.859 392.544 810.859 388.813C810.859 385.081 813.884 382.056 817.616 382.056H824.127C821.873 380.961 820.319 378.649 820.319 375.974C820.319 374.744 820.648 373.59 821.223 372.596H814.237C810.506 372.596 807.48 369.571 807.48 365.839ZM889.577 394.218C889.577 391.419 891.846 389.15 894.645 389.15H910.186C912.985 389.15 915.254 391.419 915.254 394.218C915.254 397.017 912.985 399.286 910.186 399.286H894.645C891.846 399.286 889.577 397.017 889.577 394.218ZM933.835 370.907C931.037 370.907 928.768 373.176 928.768 375.974C928.768 378.773 931.037 381.042 933.835 381.042H939.241C942.04 381.042 944.309 378.773 944.309 375.974C944.309 373.176 942.04 370.907 939.241 370.907H933.835Z" fill="#FFC5AB"/>
<path fill-rule="evenodd" clip-rule="evenodd" d="M628.422 359.757C628.422 356.025 631.447 353 635.179 353H764.236C767.968 353 770.993 356.025 770.993 359.757C770.993 363.489 767.968 366.514 764.236 366.514H733.401C735.655 367.609 737.209 369.921 737.209 372.595C737.209 376.327 734.183 379.352 730.452 379.352H660.855C657.123 379.352 654.098 376.327 654.098 372.595C654.098 369.921 655.652 367.609 657.906 366.514H635.179C631.447 366.514 628.422 363.489 628.422 359.757ZM752.412 378.001C752.412 375.202 754.681 372.933 757.48 372.933H777.75C780.549 372.933 782.818 375.202 782.818 378.001C782.818 380.8 780.549 383.068 777.75 383.068H757.48C754.681 383.068 752.412 380.8 752.412 378.001ZM700.045 389.15C697.247 389.15 694.978 391.419 694.978 394.217C694.978 397.016 697.247 399.285 700.045 399.285H702.319C701.946 399.991 701.735 400.796 701.735 401.65C701.735 404.449 704.004 406.718 706.802 406.718H750.723C753.521 406.718 755.79 404.449 755.79 401.65C755.79 398.851 753.521 396.582 750.723 396.582H717.367C717.74 395.876 717.951 395.071 717.951 394.217C717.951 391.419 715.682 389.15 712.884 389.15H700.045ZM676.396 407.056C674.53 407.056 673.018 408.568 673.018 410.434C673.018 412.3 674.53 413.812 676.396 413.812H685.18C687.046 413.812 688.559 412.3 688.559 410.434C688.559 408.568 687.046 407.056 685.18 407.056H676.396ZM638.219 390.839C638.219 388.04 640.488 385.771 643.287 385.771H678.423C681.222 385.771 683.491 388.04 683.491 390.839C683.491 393.638 681.222 395.907 678.423 395.907L643.287 395.907C640.488 395.907 638.219 393.638 638.219 390.839ZM726.398 416.515C724.532 416.515 723.019 418.028 723.019 419.894C723.019 421.76 724.532 423.272 726.398 423.272H731.127C732.993 423.272 734.506 421.76 734.506 419.894C734.506 418.028 732.993 416.515 731.127 416.515H726.398Z" fill="#FFE5AB"/>
<ellipse cx="1107.76" cy="302.135" rx="10.7273" ry="8.32288" fill="#AFD157"/>
<ellipse cx="1135.5" cy="306.575" rx="10.7273" ry="8.32288" fill="#AFD157"/>
<path d="M1144.38 306.945V278.462L1116.63 272.729V301.211" stroke="#AFD157" stroke-width="3.69906" stroke-linecap="round" stroke-linejoin="round"/>
<ellipse cx="239.018" cy="173.215" rx="10.7273" ry="8.32288" fill="#FFC53D"/>
<path d="M247.895 172.291V143.809" stroke="#FFC53D" stroke-width="3.69906" stroke-linecap="round" stroke-linejoin="round"/>
<rect x="339" y="41" width="714" height="464" rx="12" fill="white"/>
<g clip-path="url(#clip0_2295_997)">
<g clip-path="url(#clip1_2295_997)">
<ellipse cx="533.347" cy="424.84" rx="20.6994" ry="22.3062" transform="rotate(-28.6896 533.347 424.84)" fill="#5BB42B"/>
<ellipse cx="20.6994" cy="22.3062" rx="20.6994" ry="22.3062" transform="matrix(-0.877234 -0.480064 -0.480064 0.877234 652.145 414.631)" fill="#5BB42B"/>
<path d="M637.501 514.091C624.667 517.887 606.01 505.644 598.286 499.048C597.98 497.941 597.669 495.168 598.881 492.925C600.397 490.122 632.429 491.071 639.736 492.62C647.043 494.168 653.543 509.345 637.501 514.091Z" fill="#4F9A15"/>
<path d="M609.643 570.547C613.357 569.029 616.974 548.794 616.241 538.721L580.566 544.414C579.833 552.59 579.784 569.262 581.543 570.547C583.742 572.153 605.001 572.445 609.643 570.547Z" fill="#4F9A15"/>
<path d="M612.431 548.136C623.535 540.752 608.525 494.694 597.681 488.893C586.836 483.092 569.197 483.971 561.451 488.893C553.704 493.816 534.561 540.576 545.665 548.136C556.768 555.695 601.328 555.519 612.431 548.136Z" fill="#5BB42B"/>
<path d="M548.974 570.547C545.26 569.029 541.644 548.794 542.377 538.721L578.051 544.414C578.784 552.59 578.833 569.262 577.074 570.547C574.875 572.153 553.617 572.445 548.974 570.547Z" fill="#5BB42B"/>
<path d="M522.374 513.208C535.016 517.603 554.227 506.249 562.252 500.022C562.61 498.931 563.05 496.175 561.944 493.879C560.562 491.007 528.521 490.452 521.149 491.656C513.777 492.86 506.572 507.715 522.374 513.208Z" fill="#5BB42B"/>
<path d="M607.534 530.127C607.534 545.825 595.709 549.595 581.123 549.595C566.537 549.595 554.713 545.825 554.713 530.127C554.713 509.491 566.537 497.811 581.123 497.811C595.709 497.811 607.534 509.491 607.534 530.127Z" fill="#A1DC3C"/>
<path d="M581.933 541.309C582.04 541.31 582.145 541.29 582.244 541.25C582.342 541.21 582.432 541.151 582.507 541.076L586.104 537.458C586.237 537.304 586.306 537.106 586.298 536.904C586.29 536.702 586.206 536.51 586.062 536.366C585.918 536.223 585.725 536.139 585.522 536.131C585.318 536.124 585.119 536.192 584.965 536.324L581.359 539.902C581.284 539.977 581.224 540.066 581.183 540.164C581.141 540.262 581.12 540.367 581.12 540.473C581.12 540.579 581.141 540.684 581.183 540.782C581.224 540.88 581.284 540.969 581.359 541.044C581.432 541.124 581.521 541.189 581.619 541.235C581.718 541.28 581.825 541.306 581.933 541.309Z" fill="#5BB42B"/>
<path d="M585.492 541.309C585.598 541.31 585.702 541.29 585.8 541.25C585.898 541.21 585.987 541.151 586.062 541.077C586.137 541.002 586.196 540.913 586.237 540.816C586.278 540.718 586.299 540.613 586.299 540.507C586.299 540.401 586.278 540.296 586.237 540.199C586.196 540.101 586.137 540.012 586.062 539.938L582.492 536.368C582.418 536.293 582.329 536.233 582.231 536.193C582.134 536.152 582.029 536.131 581.923 536.131C581.817 536.131 581.712 536.152 581.615 536.193C581.517 536.233 581.428 536.293 581.354 536.368C581.204 536.518 581.12 536.722 581.12 536.934C581.12 537.146 581.204 537.349 581.354 537.499L584.931 541.077C585.08 541.225 585.282 541.308 585.492 541.309V541.309Z" fill="#5BB42B"/>
<path d="M645.336 460.664C645.336 487.977 615.232 497.034 578.644 497.034C542.056 497.034 511.73 487.977 511.73 460.664C511.73 421.428 542.056 404.598 578.644 404.598C615.232 404.598 645.336 418.321 645.336 460.664Z" fill="#5BB42B"/>
<path d="M537.105 424.795V433.081" stroke="#123041" stroke-width="7.76774" stroke-linecap="round"/>
<path d="M625.139 424.275V432.561" stroke="#123041" stroke-width="7.76774" stroke-linecap="round"/>
<path d="M525.711 451.203H534.514" stroke="#A1DC3C" stroke-width="10.357" stroke-linecap="round"/>
<path d="M621.514 451.203H630.317" stroke="#A1DC3C" stroke-width="10.357" stroke-linecap="round"/>
<path d="M590.961 442.947C590.961 436.725 590.961 433.597 579.31 433.597C567.658 433.597 567.658 436.169 567.658 442.947C567.658 454.052 572.875 460.525 579.31 460.525C585.745 460.525 590.961 453.276 590.961 442.947Z" fill="#D52C2F"/>
<path fill-rule="evenodd" clip-rule="evenodd" d="M567.678 444.096C568.025 454.497 573.1 460.525 579.31 460.525C583.818 460.525 587.727 456.969 589.665 451.288C587.411 448.654 584.076 446.37 580.047 444.958C575.656 443.418 571.261 443.202 567.678 444.096Z" fill="#FF686B"/>
<path fill-rule="evenodd" clip-rule="evenodd" d="M649.358 460.093C648.774 459.308 648.57 458.26 648.901 457.26C649.441 455.631 651.199 454.748 652.828 455.288C654.457 455.828 655.34 457.586 654.8 459.215C654.477 460.19 653.717 460.898 652.809 461.193C652.801 461.224 652.792 461.254 652.782 461.284L637.14 508.482C636.825 509.432 635.799 509.947 634.849 509.632C633.899 509.317 633.384 508.291 633.699 507.341L649.341 460.144C649.346 460.127 649.352 460.11 649.358 460.093Z" fill="#A1DC3C"/>
<path fill-rule="evenodd" clip-rule="evenodd" d="M508.31 460.093C508.894 459.308 509.098 458.26 508.767 457.26C508.227 455.631 506.469 454.748 504.84 455.288C503.211 455.828 502.328 457.586 502.868 459.215C503.191 460.19 503.951 460.898 504.859 461.193C504.867 461.224 504.876 461.254 504.886 461.284L520.528 508.482C520.843 509.432 521.869 509.947 522.819 509.632C523.769 509.317 524.284 508.291 523.969 507.341L508.327 460.144C508.322 460.127 508.316 460.11 508.31 460.093Z" fill="#A1DC3C"/>
</g>
<rect x="478.99" y="508.781" width="61.1064" height="73.7491" fill="#347162"/>
<path d="M478.99 582.529H540.097" stroke="#82A6B2" stroke-width="3.51186" stroke-linecap="round"/>
<path d="M478.99 508.781H540.097" stroke="#82A6B2" stroke-width="3.51186" stroke-linecap="round"/>
<path d="M536.586 509.484V514.752" stroke="#A1DC3C" stroke-width="3.51186" stroke-linecap="round"/>
<path d="M536.586 575.508V580.776" stroke="#A1DC3C" stroke-width="3.51186" stroke-linecap="round"/>
<rect x="521.838" y="482.795" width="48.4637" height="36.5233" fill="#347162"/>
<path d="M566.789 482.795V488.063" stroke="#82A6B2" stroke-width="3.51186" stroke-linecap="round"/>
<rect x="606.102" y="508.078" width="51.2732" height="23.1783" fill="#347162"/>
<path d="M606.119 508.078H657.392" stroke="#82A6B2" stroke-width="3.51186" stroke-linecap="round"/>
<rect x="592.074" y="484.9" width="47.7613" height="32.3091" fill="#347162"/>
<path d="M565.383 501.055H576.621V522.126" stroke="#A6BFC7" stroke-width="4.21423" stroke-linecap="round" stroke-linejoin="round"/>
<path d="M597.689 501.055H586.451V522.126" stroke="#A6BFC7" stroke-width="4.21423" stroke-linecap="round" stroke-linejoin="round"/>
<path d="M521.838 482.795H570.302" stroke="#82A6B2" stroke-width="3.51186" stroke-linecap="round"/>
<path d="M592.074 484.9H639.836" stroke="#82A6B2" stroke-width="3.51186" stroke-linecap="round"/>
<path d="M592.074 517.209H639.836" stroke="#82A6B2" stroke-width="3.51186" stroke-linecap="round"/>
<path d="M521.838 519.316H570.302" stroke="#82A6B2" stroke-width="3.51186" stroke-linecap="round"/>
<path d="M474.424 535.471V580.774C474.424 584.168 473.511 591.45 469.858 593.416C465.293 595.875 462.132 601.142 462.132 607.464" stroke="#A6BFC7" stroke-width="3.51186" stroke-linecap="round"/>
<path d="M470.562 549.517C470.562 548.354 471.506 547.41 472.67 547.41H478.991V559.35H472.67C471.506 559.35 470.562 558.407 470.562 557.243V549.517Z" fill="#A6BFC7"/>
<rect x="515.514" y="547.762" width="8.42846" height="11.9403" rx="2.10712" fill="#A6BFC7"/>
<rect x="458.623" y="603.602" width="7.02372" height="7.72609" rx="1.40474" fill="#347162"/>
<path d="M509.191 509.484V514.752" stroke="#82A6B2" stroke-width="3.51186" stroke-linecap="round"/>
<path d="M545.717 482.795V488.063" stroke="#82A6B2" stroke-width="3.51186" stroke-linecap="round"/>
<path d="M615.953 485.604V490.871" stroke="#82A6B2" stroke-width="3.51186" stroke-linecap="round"/>
<path d="M525.346 482.795V488.063" stroke="#82A6B2" stroke-width="3.51186" stroke-linecap="round"/>
<path d="M595.584 485.604V490.871" stroke="#82A6B2" stroke-width="3.51186" stroke-linecap="round"/>
<path d="M637.023 485.604V490.871" stroke="#82A6B2" stroke-width="3.51186" stroke-linecap="round"/>
<path d="M545.717 512.293V517.561" stroke="#82A6B2" stroke-width="3.51186" stroke-linecap="round"/>
<path d="M615.953 510.186V515.453" stroke="#82A6B2" stroke-width="3.51186" stroke-linecap="round"/>
<path d="M595.584 510.186V515.453" stroke="#82A6B2" stroke-width="3.51186" stroke-linecap="round"/>
<path d="M632.107 525.637V530.905" stroke="#82A6B2" stroke-width="3.51186" stroke-linecap="round"/>
<path d="M637.023 510.186V515.453" stroke="#82A6B2" stroke-width="3.51186" stroke-linecap="round"/>
<path d="M525.346 512.293V517.561" stroke="#82A6B2" stroke-width="3.51186" stroke-linecap="round"/>
<path d="M609.633 525.637V530.905" stroke="#82A6B2" stroke-width="3.51186" stroke-linecap="round"/>
<path d="M566.789 512.293V517.561" stroke="#82A6B2" stroke-width="3.51186" stroke-linecap="round"/>
<path d="M653.883 525.637V530.905" stroke="#82A6B2" stroke-width="3.51186" stroke-linecap="round"/>
<path d="M653.883 508.781V514.049" stroke="#82A6B2" stroke-width="3.51186" stroke-linecap="round"/>
<path d="M482.504 509.484V514.752" stroke="#82A6B2" stroke-width="3.51186" stroke-linecap="round"/>
<path d="M509.191 575.508V580.776" stroke="#82A6B2" stroke-width="3.51186" stroke-linecap="round"/>
<path d="M482.504 575.508V580.776" stroke="#82A6B2" stroke-width="3.51186" stroke-linecap="round"/>
<path d="M631.899 531.609V543.199M631.899 574.103L615.744 592.716C615.393 593.184 614.62 594.261 614.339 594.823C614.059 595.385 613.988 597.164 613.988 597.984M631.899 574.103L648.053 592.716C648.405 593.184 649.177 594.261 649.458 594.823C649.739 595.385 649.809 597.164 649.809 597.984M631.899 574.103V543.199M631.899 574.103V601.144M631.899 543.199L648.756 531.609M631.899 543.199L615.042 531.609" stroke="#A6BFC7" stroke-width="2.80949" stroke-linecap="round" stroke-linejoin="round"/>
<path d="M606.119 531.258H657.392" stroke="#82A6B2" stroke-width="3.51186" stroke-linecap="round"/>
<path d="M519.729 535.822V581.125C519.729 584.52 520.642 591.801 524.294 593.768C528.859 596.226 532.02 601.494 532.02 607.815" stroke="#A6BFC7" stroke-width="3.51186" stroke-linecap="round"/>
<rect x="528.156" y="603.953" width="7.02372" height="7.72609" rx="1.40474" fill="#347162"/>
<path d="M543.787 610.273L540.275 622.214" stroke="#A6BFC7" stroke-width="2.80949" stroke-linecap="round" stroke-linejoin="round"/>
<path d="M616.131 610.273L619.643 622.214" stroke="#A6BFC7" stroke-width="2.80949" stroke-linecap="round" stroke-linejoin="round"/>
<circle cx="580.133" cy="573.4" r="51.2732" fill="#E5E5E5" stroke="#82A6B2" stroke-width="3.51186"/>
<path d="M567.636 573.457V564.677L549.229 583.093L553.577 587.534L567.636 573.457ZM609.581 567.97C608.217 561.111 603.062 555.967 602.47 555.358L589.818 542.498L582.587 549.725L582.072 550.24V559.019L589.792 551.303L596.989 558.616L598.087 559.731L598.164 559.808C598.164 559.808 598.645 560.279 599.305 561.068C601.331 563.395 602.769 566.173 603.499 569.17C604.529 574.314 605.043 580.375 599.305 587.731V596.802C599.845 596.33 600.163 595.996 600.309 595.876C605.455 590.835 608.535 585.742 609.744 580.298C610.581 576.225 610.528 572.02 609.59 567.97H609.581ZM571.256 595.07L571.067 594.976H570.973C570.412 594.683 569.878 594.342 569.377 593.956C568.906 593.621 568.331 593.175 567.662 592.601C566.615 591.744 565.312 590.578 563.725 589.026L560.165 585.391L555.773 589.78L559.316 593.39V593.441C564.797 598.791 567.61 600.3 568.648 600.737C571.935 602.355 575.496 603.341 579.147 603.644C580.825 603.774 582.512 603.74 584.183 603.541L584.586 603.498V597.205C580.031 597.926 575.365 597.178 571.265 595.07H571.256Z" fill="#347162"/>
<path d="M578.978 553.344V590.827H570.752V561.574L571.575 560.751L572.021 560.305L574.509 557.819L576.19 556.139L576.739 555.59L578.429 553.901L578.978 553.344Z" fill="#347162"/>
<path d="M596.2 561.719V599.116L596.097 599.193C595.72 599.433 595.317 599.682 594.888 599.922C594.75 600.008 594.605 600.085 594.459 600.162C594.081 600.376 593.678 600.591 593.267 600.796C592.855 601.002 592.486 601.174 592.074 601.354L591.397 601.645L590.47 602.005L589.715 602.271C589.201 602.442 588.669 602.605 588.12 602.751L587.717 602.854V561.719H596.2Z" fill="#347162"/>
<path d="M587.717 571.605H578.977V580.093H587.717V571.605Z" fill="#347162"/>
<path d="M499.356 452.24V575.858M499.356 575.858L484.255 595.875M499.356 575.858V608.869M499.356 575.858L514.106 595.875M470.91 617.649C470.91 617.649 471.071 614.804 471.613 613.083C472.018 611.795 473.368 609.923 473.368 609.923L484.255 595.875M527.802 617.649C527.802 617.649 527.721 614.777 527.1 613.083C526.613 611.758 525.344 609.923 525.344 609.923L514.106 595.875M499.356 623.97V608.869M484.255 595.875L499.356 608.869M499.356 608.869L514.106 595.875" stroke="#A6BFC7" stroke-width="3.51186" stroke-linecap="round"/>
<rect x="524.643" y="616.596" width="7.02372" height="7.72609" rx="1.40474" fill="#347162"/>
<rect x="467.75" y="616.596" width="7.02372" height="7.72609" rx="1.40474" fill="#347162"/>
<rect x="495.846" y="622.213" width="7.02372" height="7.72609" rx="1.40474" fill="#347162"/>
<path d="M687.595 458.912V559.351M687.595 559.351L672.494 579.369M687.595 559.351V592.363M687.595 559.351L702.344 579.369M659.148 601.142C659.148 601.142 659.31 598.298 659.851 596.577C660.256 595.288 661.607 593.416 661.607 593.416L672.494 579.369M716.041 601.142C716.041 601.142 715.96 598.27 715.338 596.577C714.852 595.251 713.582 593.416 713.582 593.416L702.344 579.369M687.595 607.464V592.363M672.494 579.369L687.595 592.363M687.595 592.363L702.344 579.369" stroke="#A6BFC7" stroke-width="3.51186" stroke-linecap="round"/>
<rect x="495.846" y="473.311" width="7.02372" height="7.02372" rx="1.40474" fill="#347162"/>
<path d="M497.252 459.264H501.466" stroke="#347162" stroke-width="2.80949" stroke-linecap="round"/>
<path d="M682.597 482.09C680.997 483.026 662.311 484.548 662.311 486.304C662.311 488.06 672.846 489.816 687.596 489.816C702.346 489.816 712.881 488.06 712.881 486.304C712.881 484.548 694.195 483.26 692.595 482.324C690.996 481.387 690.396 479.982 687.596 479.982C684.796 479.982 684.196 481.153 682.597 482.09Z" fill="#C79622"/>
<path d="M490.736 463.829C487.926 465.233 455.111 468.394 455.111 470.15C455.111 471.906 482.169 473.311 499.515 473.311C516.861 473.311 543.919 472.257 543.919 470.501C543.919 468.745 511.104 465.585 508.295 464.18C505.485 462.775 504.431 460.668 499.515 460.668C494.598 460.668 493.545 462.424 490.736 463.829Z" fill="#C79622"/>
<rect x="655.986" y="597.982" width="7.02372" height="7.72609" rx="1.40474" fill="#347162"/>
<rect x="646.896" y="596.391" width="5.61898" height="5.61898" rx="1.40474" fill="#347162"/>
<rect x="629.199" y="599.199" width="5.61898" height="5.61898" rx="1.40474" fill="#347162"/>
<rect x="537.887" y="617.574" width="7.02372" height="7.72609" rx="1.40474" transform="rotate(15 537.887 617.574)" fill="#347162"/>
<rect width="7.02372" height="7.72609" rx="1.40474" transform="matrix(-0.965926 0.258819 0.258819 0.965926 622.033 617.574)" fill="#347162"/>
<rect x="684.084" y="603.602" width="7.02372" height="7.72609" rx="1.40474" fill="#347162"/>
<rect x="684.084" y="489.816" width="7.02372" height="4.21423" rx="1.40474" fill="#347162"/>
<rect x="712.881" y="597.982" width="7.02372" height="7.72609" rx="1.40474" fill="#347162"/>
<path d="M685.488 479.281H689.703" stroke="#347162" stroke-width="2.80949" stroke-linecap="round"/>
<rect x="559.061" y="496.139" width="9.83321" height="9.83321" rx="2.10712" fill="#A6BFC7"/>
<rect x="572.406" y="505.27" width="8.42846" height="4.9166" rx="2.10712" fill="#A6BFC7"/>
<rect x="582.24" y="505.27" width="8.42846" height="4.9166" rx="2.10712" fill="#A6BFC7"/>
<rect x="594.18" y="496.139" width="9.83321" height="9.83321" rx="2.10712" fill="#A6BFC7"/>
</g>
<g clip-path="url(#clip2_2295_997)">
<path d="M794.593 535.44C808.629 539.543 828.971 526.099 837.388 518.865C837.719 517.655 838.048 514.623 836.716 512.177C835.05 509.12 800.054 510.27 792.075 511.988C784.096 513.705 777.048 530.311 794.593 535.44Z" fill="#FFC532"/>
<path d="M822.127 601.103C818.069 599.444 814.118 577.335 814.919 566.328L853.899 572.549C854.7 581.482 854.753 599.699 852.831 601.103C850.428 602.858 827.2 603.177 822.127 601.103Z" fill="#FFC532"/>
<path d="M819.081 576.615C806.949 568.547 823.349 518.222 835.198 511.884C847.048 505.545 866.321 506.505 874.785 511.884C883.249 517.262 904.165 568.355 892.033 576.615C879.902 584.874 831.212 584.682 819.081 576.615Z" fill="#FFDB40"/>
<path d="M888.414 601.103C892.472 599.444 896.423 577.335 895.622 566.328L856.642 572.549C855.841 581.482 855.788 599.699 857.71 601.103C860.113 602.858 883.341 603.177 888.414 601.103Z" fill="#FFDB40"/>
<path d="M852.403 569.156C852.286 569.157 852.171 569.135 852.064 569.091C851.956 569.047 851.858 568.983 851.776 568.902L847.845 564.948C847.7 564.78 847.625 564.564 847.633 564.343C847.642 564.122 847.734 563.912 847.892 563.755C848.049 563.599 848.26 563.507 848.482 563.499C848.704 563.49 848.922 563.565 849.091 563.709L853.03 567.619C853.113 567.701 853.178 567.798 853.223 567.905C853.268 568.012 853.291 568.127 853.291 568.243C853.291 568.359 853.268 568.473 853.223 568.58C853.178 568.688 853.113 568.785 853.03 568.866C852.95 568.954 852.854 569.025 852.746 569.075C852.638 569.125 852.521 569.152 852.403 569.156Z" fill="#FFB132"/>
<path d="M848.514 569.156C848.399 569.157 848.285 569.135 848.178 569.091C848.071 569.048 847.974 568.983 847.892 568.902C847.81 568.821 847.745 568.724 847.7 568.617C847.656 568.51 847.633 568.396 847.633 568.28C847.633 568.164 847.656 568.05 847.7 567.943C847.745 567.836 847.81 567.739 847.892 567.658L851.792 563.757C851.873 563.675 851.97 563.61 852.077 563.565C852.184 563.521 852.298 563.498 852.414 563.498C852.53 563.498 852.644 563.521 852.751 563.565C852.858 563.61 852.955 563.675 853.036 563.757C853.199 563.922 853.291 564.144 853.291 564.375C853.291 564.607 853.199 564.829 853.036 564.993L849.128 568.902C848.964 569.064 848.744 569.155 848.514 569.156V569.156Z" fill="#FFB132"/>
<path d="M787.087 481.739C787.087 511.27 819.469 521.062 858.827 521.062C898.186 521.062 930.807 511.27 930.807 481.739C930.807 431.385 898.186 414.121 858.827 414.121C819.469 414.121 787.087 428.987 787.087 481.739Z" fill="#FFDB40"/>
<path d="M905.348 496.164H896.86" stroke="#FCA18E" stroke-width="11.3165" stroke-linecap="round"/>
<path d="M811.42 496.164H802.933" stroke="#FCA18E" stroke-width="11.3165" stroke-linecap="round"/>
<path d="M888.373 475.795V484.848" stroke="#123041" stroke-width="8.4874" stroke-linecap="round"/>
<path d="M819.908 475.795V484.848" stroke="#123041" stroke-width="8.4874" stroke-linecap="round"/>
<path d="M839.711 488.809C839.711 493.965 846.171 496.164 854.14 496.164C862.108 496.164 868.568 493.965 868.568 488.809C868.568 483.653 862.108 477.492 854.14 477.492C846.171 477.492 839.711 483.653 839.711 488.809Z" fill="#FFB132"/>
<path d="M869.554 394.441C860.971 402.052 856.04 410.589 854.581 418.358L869.686 416.747C875.906 416.084 881.864 408.752 881.589 399.853C881.314 390.955 873.919 390.57 869.554 394.441Z" fill="#FFDB40"/>
<path d="M853.79 406.466C856.463 409.076 857.138 414.762 857.142 417.279C851.965 416.801 843.278 415.209 841.72 411.894C840.163 408.579 841.134 404.457 843.031 403.475C844.927 402.493 850.45 403.204 853.79 406.466Z" fill="#FFDB40"/>
<path d="M848.831 535.657C861.87 542.278 884.342 532.817 893.948 527.258C894.497 526.13 894.028 522.76 892.901 520.213C889.866 513.358 858.839 511.926 850.681 512.143C842.522 512.36 832.532 527.381 848.831 535.657Z" fill="#FFC532"/>
<g clip-path="url(#clip3_2295_997)">
<rect width="215.014" height="16.0939" rx="3.21877" transform="matrix(-1 0 0 1 944.391 523.846)" fill="#FF686B"/>
<rect width="59.8692" height="13.5189" rx="3.21877" transform="matrix(-1 0 0 1 864.562 496.164)" fill="#FF686B"/>
<rect width="3.21878" height="69.0378" rx="1.28751" transform="matrix(-0.810295 -0.586022 -0.586022 0.810295 856.195 543.758)" fill="#FCA18E"/>
<rect x="813.064" y="543.758" width="3.21878" height="69.0378" rx="1.28751" transform="rotate(-35.8752 813.064 543.758)" fill="#FCA18E"/>
<rect x="841.672" y="506.117" width="3.21878" height="39.1891" rx="1.28751" transform="rotate(-16.9822 841.672 506.117)" fill="#FCA18E"/>
<rect width="3.21878" height="39.1891" rx="1.28751" transform="matrix(-0.956396 -0.292074 -0.292074 0.956396 827.588 506.117)" fill="#FCA18E"/>
<ellipse cx="3.86253" cy="3.86253" rx="3.86253" ry="3.86253" transform="matrix(-1 0 0 1 858.77 539.939)" fill="#FFC53D"/>
<ellipse cx="814.347" cy="543.802" rx="3.86253" ry="3.86253" fill="#FFC53D"/>
<ellipse cx="5.15004" cy="5.15004" rx="5.15004" ry="5.15004" transform="matrix(-1 0 0 1 839.459 565.689)" fill="#FFC53D"/>
<ellipse cx="3.86253" cy="3.86253" rx="3.86253" ry="3.86253" transform="matrix(-1 0 0 1 818.213 594.66)" fill="#FCA18E"/>
<ellipse cx="854.907" cy="598.523" rx="3.86253" ry="3.86253" fill="#FCA18E"/>
</g>
</g>
<path fill-rule="evenodd" clip-rule="evenodd" d="M1168.22 160.507L1167.33 161.17L1169.13 161.87C1168.81 161.391 1168.51 160.936 1168.22 160.507ZM1170.85 164.478L1171.95 174.092L1170.38 174.504L1171.7 175.433L1173.03 182.132L1171.42 183.658L1173.82 185.5L1174.47 191.476L1171.96 192.504L1174.89 193.293L1175.59 197.023L1167.95 199.325L1176.34 199.883C1176.34 199.883 1176.92 203.078 1177.46 208.423C1179.46 228.505 1166.03 244.24 1164.22 244.86C1162.6 245.414 1144.49 203.985 1146.5 176.081L1145.44 178.038L1141.83 179.989L1143.69 181.572L1139.5 187.981L1135.02 189.55L1138.53 189.891L1136.34 193.838L1123.45 197.709L1134.96 196.827C1134.96 196.827 1133.06 200.211 1129.25 205.951C1114.92 227.516 1082.25 247.08 1079.13 248.079C1076 249.079 1088.41 196.27 1123.08 165.635C1127.42 161.796 1132.72 157.702 1138.35 153.666L1134.08 150.444L1133.24 157.027L1114.44 167.338L1113.14 164.888L1112.11 167.815L1101.52 174.733L1098.36 172.989L1096.24 178.423L1086.58 183.654L1083.9 179.99L1083.73 185.623L1077.81 189.401L1071.02 177.719L1073.36 192.665C1073.36 192.665 1068.28 195.87 1059.62 200.469C1027.09 217.747 995.763 205.231 994.029 202.511C992.539 200.174 1049.59 144.633 1095.84 126.469L1095.04 126.242L1095.73 121.955L1091.72 125.673L1085.06 124.289L1088.48 111.806L1079.76 123.533C1079.76 123.533 1074.06 122.321 1064.95 119.661C1030.73 109.667 1017.91 80.2167 1018.6 77.2072C1019.22 74.5152 1103.17 75.0151 1146.18 95.9257C1145.52 93.3124 1145 90.7714 1144.65 88.3716C1139.47 52.8643 1170.27 5.15901 1172.11 6.88535C1173.95 8.61169 1186.09 34.2919 1181.29 56.4134C1180.01 62.3016 1178.96 65.6747 1178.96 65.6747L1169.99 61.6546L1177.79 68.5679L1176.55 72.4942L1173.33 71.7769L1175.87 74.3669L1175.45 76.184C1200.35 33.832 1277.79 -2.72076 1279.24 0.159458C1280.77 3.19666 1279.66 40.3407 1254.68 64.2704C1248.03 70.6398 1243.73 74.1247 1243.73 74.1247L1232.79 64.5764L1239.61 76.9655L1234.56 81.0082L1230.07 78.4519L1232.01 82.8886L1224.52 89.9469L1219.5 89.4228L1219.77 93.3996L1210.61 100.567L1207.95 100.173L1209.42 102.643L1203.6 108.063C1205.32 107.392 1207.04 106.807 1208.75 106.325C1248.73 95.0862 1335.25 131.734 1334.68 134.456C1334.12 137.178 1312.51 156.821 1280.63 152.812C1272.14 151.745 1267.01 150.709 1267.01 150.709L1264.25 137.947L1262.36 149.435L1256.37 148.193L1254.47 143.704L1253.43 147.477L1243.93 146.206L1240.51 142.471L1238.48 144.84L1227.69 142.494L1225.94 140.447L1225.65 142.818L1207.12 140.237L1204.39 135.187L1201.86 139.171C1201.86 139.171 1197.85 139.452 1192.44 139.742C1211.62 164.612 1251.98 220.912 1275.73 282.365C1319.89 396.681 1332.26 668.887 1332.26 668.887H1266.19C1266.19 668.887 1278.74 453.299 1253.25 348.146C1232.94 264.394 1187.4 189.772 1170.85 164.478ZM1165.13 106.756C1165.2 106.36 1165.27 105.964 1165.35 105.569L1164.25 105.464L1165.13 106.756ZM1172.1 82.6313C1172.29 82.2232 1172.48 81.8153 1172.67 81.4079L1171.59 81.7163L1172.1 82.6313ZM1190.69 114.579C1190.29 114.823 1189.89 115.07 1189.5 115.319L1189.26 113.963L1190.69 114.579Z" fill="#123041"/>
<defs>
<clipPath id="clip0_2295_997">
<rect width="282.228" height="242.871" fill="white" transform="translate(447 391.135)"/>
</clipPath>
<clipPath id="clip1_2295_997">
<rect width="153.801" height="191.086" fill="white" transform="translate(501.893 391.135)"/>
</clipPath>
<clipPath id="clip2_2295_997">
<rect width="215.58" height="228.028" fill="white" transform="matrix(-1 0 0 1 944.953 383)"/>
</clipPath>
<clipPath id="clip3_2295_997">
<rect width="250.095" height="129.009" fill="white" transform="matrix(-1 0 0 1 959.668 473.531)"/>
</clipPath>
</defs>
</svg>
