<svg width="795" height="473" viewBox="0 0 795 473" fill="none" xmlns="http://www.w3.org/2000/svg">
<rect x="81" width="714" height="464" rx="12" fill="white"/>
<g clip-path="url(#clip0_2295_629)">
<g clip-path="url(#clip1_2295_629)">
<path d="M70.7584 199.905C60.0565 193.873 70.7289 150.537 80.3007 144.472C89.8726 138.407 106.139 138.021 113.59 142.019C121.041 146.017 141.797 187.687 132.107 195.384C122.416 203.082 81.4603 205.937 70.7584 199.905Z" fill="white"/>
<path d="M50.6359 51.0657C55.3517 63.1239 73.431 86.0803 77.6229 95.9278L110.217 93.5259C112.92 83.1703 126.182 57.9043 130.098 45.21C134.955 29.466 127.265 10.0348 110.455 11.2736C96.5762 12.2964 91.7634 35.6942 90.8428 48.1028C88.1131 35.9632 79.4467 13.5587 66.0435 14.5464C49.2339 15.7851 44.635 35.7213 50.6359 51.0657Z" fill="white"/>
<path d="M33.7302 122.895C35.5602 147.728 63.3987 153.957 96.4961 151.518C129.593 149.079 156.419 138.822 154.589 113.989C151.468 71.6448 122.966 59.1485 89.869 61.5875C56.7716 64.0265 30.4612 78.5347 33.7302 122.895Z" fill="white"/>
<path d="M131.621 126.923L124.484 127.449" stroke="#FFC0C1" stroke-width="9.54222" stroke-linecap="round"/>
<path d="M52.6348 132.742L45.4975 133.268" stroke="#FFC0C1" stroke-width="9.54222" stroke-linecap="round"/>
<path d="M89.2071 112.346C88.2732 112.415 87.8738 112.836 87.3188 113.268C86.7064 112.922 86.2497 112.564 85.3157 112.633C84.1483 112.719 83.5604 113.993 83.9027 114.694C84.3636 115.639 85.8621 116.507 87.577 116.772C89.2346 116.258 90.5896 115.18 90.907 114.178C91.1428 113.434 90.3745 112.26 89.2071 112.346Z" fill="#FFC0C1"/>
<path d="M62.7012 120.041L58.9651 121.273" stroke="#123041" stroke-width="7.15666" stroke-linecap="round"/>
<path d="M112.664 116.359L116.54 117.031" stroke="#123041" stroke-width="7.15666" stroke-linecap="round"/>
<path d="M79.0923 121.738C79.6909 122.002 81.3137 122.497 83.0154 122.372C85.1426 122.215 85.8351 120.729 88.0953 120.562C90.3554 120.396 91.2583 121.764 93.3855 121.608C95.0873 121.482 96.6199 120.754 97.1734 120.406" stroke="#DF9C9C" stroke-width="2.38555" stroke-linecap="round"/>
</g>
<g clip-path="url(#clip2_2295_629)">
<path d="M132.636 281.44C129.49 278.613 87.6764 219.743 88.7415 215.122C89.8065 210.5 131.043 206.9 136.93 207.727C142.816 208.553 166.969 216.25 174.677 248.896C182.385 281.541 135.783 284.267 132.636 281.44Z" fill="#5BB42B"/>
<path d="M45.5537 206.744C57.1622 202.585 74.9594 212.879 82.4069 218.545C82.7465 219.547 83.176 222.082 82.1772 224.208C80.9288 226.865 51.4143 227.655 44.6123 226.61C37.8103 225.565 31.043 211.942 45.5537 206.744Z" fill="#5C9A15"/>
<ellipse cx="19.071" cy="20.5514" rx="19.071" ry="20.5514" transform="matrix(-0.877234 -0.480064 -0.480064 0.877234 166.582 154.048)" fill="#5BB42B"/>
<ellipse cx="57.1308" cy="162.39" rx="19.071" ry="20.5514" transform="rotate(-28.6896 57.1308 162.39)" fill="#5BB42B"/>
<path d="M38.47 178.861C50.3977 159.538 53.9131 144.271 98.2532 144.271C142.593 144.271 146.108 159.538 158.036 178.861C166.491 192.558 162.615 208.915 144.979 219.24C134.429 225.417 118.956 220.847 98.2531 220.847C77.55 220.847 62.0772 225.417 51.5275 219.24C33.891 208.915 30.0149 192.558 38.47 178.861Z" fill="#5BB42B"/>
<path d="M147.021 187.211H138.911" stroke="#A1DC3C" stroke-width="9.54222" stroke-linecap="round"/>
<path d="M58.7559 187.211H50.645" stroke="#A1DC3C" stroke-width="9.54222" stroke-linecap="round"/>
<path d="M59.1621 169.08L55.3456 170.034" stroke="#123041" stroke-width="7.15666" stroke-linecap="round"/>
<path d="M132.637 169.558L136.453 170.512" stroke="#123041" stroke-width="7.15666" stroke-linecap="round"/>
<path d="M77.7695 171.227C78.8033 171.943 81.6341 173.374 84.6876 173.374C88.5045 173.374 89.9359 170.034 93.9913 170.034C98.0467 170.034 99.4781 173.374 103.295 173.374C106.348 173.374 109.179 171.943 110.213 171.227" stroke="#4B890D" stroke-width="2.38555" stroke-linecap="round"/>
<path d="M138.782 153.189C137.661 157.116 130.307 158.517 122.706 156.347C115.104 154.176 110.134 149.256 111.256 145.329C113.155 138.676 119.997 134.879 128.547 137.32C137.096 139.761 140.747 146.307 138.782 153.189Z" fill="white"/>
</g>
<path d="M150.625 298.433C143 308.124 122.454 308.859 113.134 308.016C112.314 307.347 110.603 305.428 110.319 303.096C109.965 300.182 134.55 283.831 140.867 281.103C147.185 278.374 160.156 286.32 150.625 298.433Z" fill="#E7EAEE"/>
<path d="M30.6238 227.965C45.6395 235.462 41.4922 240.031 38.2188 246.586C34.9455 253.142 33.4809 259.05 18.77 251.704C11.302 247.975 7.90161 239.638 11.175 233.082C14.4483 226.527 23.1558 224.236 30.6238 227.965Z" fill="white"/>
<path d="M51.8451 227.916C52.4119 235.857 49.6454 236.102 46.2286 236.346C42.8118 236.59 40.0385 236.74 39.4717 228.799C38.9048 220.858 42.2372 214.149 44.632 213.978C47.0269 213.807 51.2782 219.974 51.8451 227.916Z" fill="#6A5B3D"/>
<path d="M126.562 222.583C127.129 230.524 124.362 230.769 120.945 231.013C117.529 231.257 114.755 231.407 114.188 223.466C113.622 215.525 116.954 208.816 119.349 208.645C121.744 208.474 125.995 214.641 126.562 222.583Z" fill="#6A5B3D"/>
<path d="M136.562 220.403C122.764 229.958 127.518 233.891 131.689 239.915C135.861 245.939 138.149 251.579 151.668 242.218C158.531 237.466 160.712 228.731 156.541 222.707C152.37 216.683 143.425 215.651 136.562 220.403Z" fill="#123041"/>
<path d="M140.636 227.418C133.759 232.18 135.726 233.559 137.309 235.844C138.891 238.13 139.63 240.36 146.367 235.695C149.788 233.326 151.278 229.553 149.695 227.268C148.112 224.982 144.057 225.049 140.636 227.418Z" fill="#FFC0C1"/>
<path d="M27.1589 235.517C34.6428 239.254 32.8915 240.899 31.6496 243.386C30.4076 245.873 29.9935 248.186 22.6614 244.524C18.9392 242.666 16.9287 239.143 18.1706 236.656C19.4126 234.168 23.4368 233.659 27.1589 235.517Z" fill="#FFC0C1"/>
<path d="M118.524 349.514C128.753 342.711 114.925 300.277 104.933 294.932C94.9416 289.587 78.6905 290.397 71.5534 294.932C64.4164 299.467 46.7797 342.549 57.0093 349.514C67.2389 356.478 108.294 356.316 118.524 349.514Z" fill="white"/>
<path fill-rule="evenodd" clip-rule="evenodd" d="M91.1885 354.631C91.2683 352.12 91.1857 346.998 89.4393 343.943C86.6437 339.053 77.5115 335.832 77.5115 335.832C73.8537 335.275 65.9654 332.635 63.6753 326.528C62.7007 323.929 60.453 322.189 57.8552 321.053C53.7732 333.343 51.8584 346.008 57.0096 349.515C62.5801 353.307 77.2915 354.986 91.1885 354.631Z" fill="#123041"/>
<path d="M114.964 334.122C114.964 346.849 104.07 349.906 90.6315 349.906C77.1929 349.906 66.2988 346.849 66.2988 334.122C66.2988 317.39 77.1929 307.92 90.6315 307.92C104.07 307.92 114.964 317.39 114.964 334.122Z" fill="#FFC0C1"/>
<path d="M90.4272 345.611C90.5252 345.612 90.6224 345.593 90.7131 345.556C90.8038 345.519 90.8864 345.465 90.956 345.396L94.2701 342.063C94.3921 341.921 94.4559 341.738 94.4487 341.552C94.4414 341.366 94.3637 341.189 94.2311 341.057C94.0984 340.925 93.9206 340.848 93.7332 340.84C93.5458 340.833 93.3625 340.897 93.22 341.018L89.8984 344.315C89.8286 344.383 89.7732 344.465 89.7354 344.556C89.6976 344.646 89.6781 344.743 89.6781 344.841C89.6781 344.938 89.6976 345.035 89.7354 345.125C89.7732 345.216 89.8286 345.298 89.8984 345.366C89.9655 345.44 90.0469 345.5 90.1377 345.542C90.2286 345.584 90.327 345.608 90.4272 345.611Z" fill="#FF8D8D"/>
<path d="M93.706 345.611C93.8032 345.612 93.8996 345.593 93.9897 345.556C94.0797 345.519 94.1616 345.465 94.2306 345.397C94.2999 345.328 94.3549 345.246 94.3924 345.156C94.4299 345.066 94.4492 344.969 94.4492 344.872C94.4492 344.774 94.4299 344.678 94.3924 344.588C94.3549 344.498 94.2999 344.416 94.2306 344.347L90.9423 341.058C90.8736 340.989 90.7919 340.934 90.7018 340.897C90.6118 340.859 90.5152 340.84 90.4176 340.84C90.3201 340.84 90.2235 340.859 90.1335 340.897C90.0434 340.934 89.9617 340.989 89.893 341.058C89.7554 341.197 89.6781 341.384 89.6781 341.579C89.6781 341.775 89.7554 341.962 89.893 342.101L93.1887 345.397C93.3263 345.533 93.5121 345.61 93.706 345.611V345.611Z" fill="#FF8D8D"/>
<path d="M140.748 261.163C139.505 286.033 132.399 304.342 88.6473 306.502C55.5444 308.865 27.5198 302.587 25.7469 277.749C22.724 235.398 49.1241 218.92 82.227 216.557C113.791 214.304 142.657 222.994 140.748 261.163Z" fill="white"/>
<path fill-rule="evenodd" clip-rule="evenodd" d="M86.4375 216.321C87.2808 224.227 89.6778 234.507 95.1719 238.341C100.002 241.712 105.339 242.277 110.109 242.782C114.185 243.214 117.846 243.602 120.421 245.659C121.79 246.753 123.046 248.316 124.406 250.009C127.924 254.387 132.14 259.633 140.801 259.876C141.948 224.473 115.954 215.152 86.4375 216.321Z" fill="#123041"/>
<path d="M56.834 270.984L57.3775 278.599" stroke="#123041" stroke-width="7.15666" stroke-linecap="round"/>
<path d="M120.604 266.433L114.745 270.467L121.147 274.047" stroke="#123041" stroke-width="7.15666" stroke-linecap="round" stroke-linejoin="round"/>
<path d="M67.6152 288.008C66.9173 278.231 74.2777 269.739 84.055 269.041L92.9068 268.409C102.684 267.711 111.176 275.072 111.874 284.849V284.849C112.339 291.367 107.432 297.029 100.914 297.494L80.26 298.968C73.7417 299.433 68.0805 294.526 67.6152 288.008V288.008Z" fill="#FFC0C1"/>
<path d="M80.1523 282.713L80.526 287.948" stroke="#123041" stroke-width="4.77111" stroke-linecap="round"/>
<path d="M99.1875 281.354L99.5612 286.588" stroke="#123041" stroke-width="4.77111" stroke-linecap="round"/>
<path d="M43.8809 290.564L51.0194 290.055" stroke="#FFC0C1" stroke-width="9.54222" stroke-linecap="round"/>
<path d="M126.685 283.769C126.685 283.769 127.963 281.222 129.31 280.577C130.493 280.01 133.117 279.771 133.117 279.771" stroke="#FFC0C1" stroke-width="9.54222" stroke-linecap="round"/>
<path d="M141.488 406.354C130.943 412.746 111.45 406.212 103.021 402.146C102.488 401.232 101.561 398.834 102.116 396.551C102.809 393.698 131.572 387.033 138.445 386.7C145.319 386.366 154.669 398.365 141.488 406.354Z" fill="#FFC532"/>
<path d="M115.498 464.631C118.92 463.232 122.252 444.59 121.576 435.309L88.7079 440.554C88.0326 448.087 87.9875 463.447 89.6084 464.631C91.6346 466.111 111.22 466.38 115.498 464.631Z" fill="#FFC532"/>
<path d="M118.067 443.982C128.296 437.18 114.468 394.745 104.476 389.401C94.4846 384.056 78.2334 384.866 71.0964 389.401C63.9594 393.936 46.3226 437.018 56.5523 443.982C66.7819 450.947 107.837 450.785 118.067 443.982Z" fill="#FFDB40"/>
<path d="M59.6018 464.631C56.1799 463.232 52.848 444.59 53.5234 435.309L86.3917 440.554C87.0671 448.087 87.1121 463.447 85.4912 464.631C83.4651 466.111 63.8792 466.38 59.6018 464.631Z" fill="#FFDB40"/>
<path d="M39.1252 423.483C38.9136 411.154 54.3759 397.603 62.1336 392.369C63.1914 392.369 65.7303 392.776 67.4229 394.405C69.5386 396.44 60.8113 424.646 57.6377 430.752C54.4641 436.859 39.3897 438.894 39.1252 423.483Z" fill="#FFDB40"/>
<path d="M86.1518 437.693C86.2498 437.694 86.347 437.675 86.4377 437.638C86.5285 437.601 86.611 437.547 86.6806 437.478L89.9947 434.145C90.1168 434.003 90.1805 433.821 90.1733 433.634C90.166 433.448 90.0883 433.271 89.9557 433.139C89.8231 433.007 89.6452 432.93 89.4578 432.922C89.2704 432.915 89.0871 432.979 88.9446 433.1L85.623 436.397C85.5532 436.465 85.4978 436.547 85.46 436.638C85.4222 436.728 85.4027 436.825 85.4027 436.923C85.4027 437.02 85.4222 437.117 85.46 437.207C85.4978 437.298 85.5532 437.38 85.623 437.448C85.6901 437.523 85.7715 437.582 85.8624 437.624C85.9532 437.666 86.0517 437.69 86.1518 437.693Z" fill="#FFB132"/>
<path d="M89.4306 437.693C89.5278 437.694 89.6243 437.675 89.7143 437.638C89.8043 437.601 89.8862 437.547 89.9552 437.479C90.0245 437.41 90.0795 437.328 90.117 437.238C90.1545 437.148 90.1738 437.051 90.1738 436.954C90.1738 436.856 90.1545 436.76 90.117 436.67C90.0795 436.58 90.0245 436.498 89.9552 436.429L86.6669 433.14C86.5982 433.071 86.5165 433.016 86.4264 432.979C86.3364 432.941 86.2398 432.922 86.1423 432.922C86.0447 432.922 85.9481 432.941 85.8581 432.979C85.768 433.016 85.6863 433.071 85.6176 433.14C85.48 433.279 85.4027 433.466 85.4027 433.662C85.4027 433.857 85.48 434.044 85.6176 434.183L88.9133 437.479C89.051 437.615 89.2367 437.692 89.4306 437.693V437.693Z" fill="#FFB132"/>
<path d="M147.905 363.981C147.905 388.882 120.599 397.139 87.4123 397.139C54.2252 397.139 26.7188 388.882 26.7188 363.981C26.7188 321.522 54.2252 306.965 87.4123 306.965C120.599 306.965 147.905 319.5 147.905 363.981Z" fill="#FFDB40"/>
<path d="M44.8477 376.146H52.0043" stroke="#FCA18E" stroke-width="9.54222" stroke-linecap="round"/>
<path d="M124.049 376.146H131.205" stroke="#FCA18E" stroke-width="9.54222" stroke-linecap="round"/>
<path d="M59.1621 358.971V366.604" stroke="#123041" stroke-width="7.15666" stroke-linecap="round"/>
<path d="M116.893 358.971V366.604" stroke="#123041" stroke-width="7.15666" stroke-linecap="round"/>
<path d="M100.194 369.945C100.194 374.292 94.7469 376.147 88.0277 376.147C81.3084 376.147 75.8613 374.292 75.8613 369.945C75.8613 365.597 81.3084 360.402 88.0277 360.402C94.7469 360.402 100.194 365.597 100.194 369.945Z" fill="#FFB132"/>
<path d="M78.3697 290.372C85.6074 296.79 89.7652 303.988 90.9953 310.539L78.2584 309.181C73.0137 308.622 67.9898 302.44 68.2216 294.936C68.4535 287.432 74.6891 287.108 78.3697 290.372Z" fill="#FFDB40"/>
<path d="M91.6614 300.511C89.4079 302.711 88.8383 307.506 88.8352 309.629C93.2006 309.225 100.526 307.883 101.839 305.088C103.153 302.292 102.333 298.817 100.734 297.989C99.1348 297.16 94.4782 297.76 91.6614 300.511Z" fill="#FFDB40"/>
<path d="M74.2912 308.016C75.3482 311.961 69.761 316.943 62.1253 318.989C54.4896 321.035 47.697 319.37 46.6399 315.425C44.8494 308.743 48.7656 301.968 57.3538 299.666C65.9419 297.365 72.4389 301.103 74.2912 308.016Z" fill="white"/>
<path d="M125.359 286.759C124.266 282.903 136.731 261.549 143.515 250.368C151.76 245.775 172.752 256.144 172.99 262.499C173.229 268.854 151.372 284.705 147.359 286.6C143.685 288.336 126.634 291.259 125.359 286.759Z" fill="#5BB42B"/>
<path d="M122.937 243.491C135.267 243.284 148.285 227.372 153.254 219.441C153.218 218.384 152.725 215.86 151.04 214.224C148.934 212.178 121.04 221.856 115.045 225.235C109.05 228.614 107.526 243.748 122.937 243.491Z" fill="#5C9A15"/>
</g>
<defs>
<clipPath id="clip0_2295_629">
<rect width="188.459" height="469" fill="white" transform="translate(0 4)"/>
</clipPath>
<clipPath id="clip1_2295_629">
<rect width="155.538" height="217.563" fill="white" transform="translate(8.58789 15.4307) rotate(-4.2146)"/>
</clipPath>
<clipPath id="clip2_2295_629">
<rect width="197.524" height="181.302" fill="white" transform="translate(33.3984 135.205)"/>
</clipPath>
</defs>
</svg>
