<svg width="1214" height="449" viewBox="0 0 1214 449" fill="none" xmlns="http://www.w3.org/2000/svg">
<g clip-path="url(#clip0_2458_843)">
<path d="M31.9718 222.295C52.7307 234.58 46.3177 240.704 40.9543 249.767C35.5909 258.83 32.8869 267.15 12.5493 255.114C2.22497 249.004 -1.79665 236.704 3.56673 227.641C8.93012 218.578 21.6475 216.185 31.9718 222.295Z" fill="white"/>
<path d="M62.4008 224.394C62.4008 235.837 58.4098 235.904 53.4866 235.904C48.5633 235.904 44.5723 235.837 44.5723 224.394C44.5723 212.952 50.0359 203.676 53.4866 203.676C56.9372 203.676 62.4008 212.952 62.4008 224.394Z" fill="#6A5B3D"/>
<path d="M170.055 224.394C170.055 235.837 166.064 235.904 161.141 235.904C156.218 235.904 152.227 235.837 152.227 224.394C152.227 212.952 157.69 203.676 161.141 203.676C164.592 203.676 170.055 212.952 170.055 224.394Z" fill="#6A5B3D"/>
<path d="M184.618 222.295C163.859 234.58 170.272 240.704 175.636 249.767C180.999 258.83 183.703 267.15 204.041 255.114C214.365 249.004 218.386 236.704 213.023 227.641C207.66 218.578 194.942 216.185 184.618 222.295Z" fill="#123041"/>
<path d="M189.739 232.767C179.393 238.89 182.072 241.068 184.107 244.507C186.142 247.945 186.972 251.218 197.109 245.219C202.254 242.174 204.776 236.918 202.741 233.479C200.706 230.04 194.885 229.722 189.739 232.767Z" fill="#FFC0C1"/>
<path d="M26.2333 232.767C36.5797 238.89 33.9008 241.068 31.8659 244.507C29.8309 247.945 29.0005 251.218 18.8641 245.219C13.7183 242.174 11.1965 236.918 13.2315 233.479C15.2664 230.04 21.0875 229.722 26.2333 232.767Z" fill="#FFC0C1"/>
<path d="M179.788 375.578C162.066 375.416 143.183 352.688 135.956 341.345C135.996 339.825 136.677 336.192 139.081 333.822C142.085 330.86 182.279 344.465 190.932 349.256C199.585 354.046 201.939 375.781 179.788 375.578Z" fill="#E7EAEE"/>
<path d="M147.48 435.076C152.398 433.066 157.186 406.272 156.215 392.934L108.977 400.473C108.006 411.299 107.941 433.375 110.271 435.076C113.183 437.203 141.332 437.59 147.48 435.076Z" fill="#E7EAEE"/>
<path d="M151.172 405.399C165.874 395.622 145.999 334.635 131.639 326.953C117.279 319.271 93.9223 320.435 83.6648 326.953C73.4073 333.471 48.0594 395.39 62.7617 405.399C77.4639 415.409 136.469 415.176 151.172 405.399Z" fill="white"/>
<path fill-rule="evenodd" clip-rule="evenodd" d="M111.885 412.752C112 409.143 111.881 401.782 109.371 397.392C105.353 390.363 92.2283 385.735 92.2283 385.735C86.9712 384.935 75.6341 381.14 72.3426 372.363C70.942 368.628 67.7121 366.127 63.9789 364.494C58.1126 382.157 55.361 400.359 62.7641 405.399C70.77 410.849 91.9127 413.263 111.885 412.752Z" fill="#123041"/>
<path d="M67.1494 435.076C62.2314 433.066 57.4427 406.272 58.4134 392.934L105.652 400.473C106.623 411.299 106.688 433.375 104.358 435.076C101.446 437.203 73.2969 437.59 67.1494 435.076Z" fill="#123041"/>
<path d="M37.7179 375.936C37.4139 358.216 59.6366 338.741 70.786 331.219C72.3064 331.219 75.9554 331.804 78.388 334.144C81.4287 337.07 68.8856 377.607 64.3245 386.384C59.7634 395.16 38.098 398.085 37.7179 375.936Z" fill="white"/>
<path d="M146.056 383.277C146.056 401.569 130.399 405.962 111.085 405.962C91.7705 405.962 76.1133 401.569 76.1133 383.277C76.1133 359.23 91.7705 345.619 111.085 345.619C130.399 345.619 146.056 359.23 146.056 383.277Z" fill="#FFC0C1"/>
<path d="M110.79 399.791C110.931 399.792 111.07 399.765 111.201 399.712C111.331 399.659 111.45 399.581 111.55 399.482L116.313 394.691C116.488 394.487 116.58 394.225 116.57 393.957C116.559 393.689 116.447 393.435 116.257 393.245C116.066 393.056 115.811 392.945 115.541 392.934C115.272 392.924 115.008 393.015 114.804 393.19L110.03 397.928C109.929 398.026 109.85 398.144 109.795 398.274C109.741 398.404 109.713 398.543 109.713 398.683C109.713 398.824 109.741 398.963 109.795 399.093C109.85 399.223 109.929 399.34 110.03 399.439C110.126 399.546 110.243 399.632 110.374 399.692C110.504 399.752 110.646 399.786 110.79 399.791Z" fill="#FF8D8D"/>
<path d="M115.502 399.791C115.642 399.792 115.78 399.765 115.91 399.712C116.039 399.659 116.157 399.581 116.256 399.483C116.356 399.384 116.435 399.266 116.489 399.137C116.543 399.008 116.57 398.869 116.57 398.729C116.57 398.588 116.543 398.45 116.489 398.32C116.435 398.191 116.356 398.073 116.256 397.974L111.53 393.248C111.431 393.148 111.314 393.069 111.184 393.015C111.055 392.961 110.916 392.934 110.776 392.934C110.636 392.934 110.497 392.961 110.368 393.015C110.238 393.069 110.121 393.148 110.022 393.248C109.824 393.447 109.713 393.716 109.713 393.997C109.713 394.277 109.824 394.546 110.022 394.745L114.759 399.483C114.956 399.679 115.224 399.79 115.502 399.791Z" fill="#FF8D8D"/>
<path d="M194.058 293.163C194.058 328.951 154.814 340.819 107.117 340.819C59.4195 340.819 19.8867 328.951 19.8867 293.163C19.8867 232.141 59.4195 211.219 107.117 211.219C154.814 211.219 194.058 229.235 194.058 293.163Z" fill="white"/>
<path fill-rule="evenodd" clip-rule="evenodd" d="M113.178 211.319C113.578 222.739 115.963 237.717 123.446 243.774C130.025 249.101 137.619 250.457 144.404 251.669C150.203 252.705 155.412 253.636 158.894 256.849C160.743 258.557 162.384 260.926 164.161 263.492C169.515 271.225 176.108 280.745 193.388 279.34C188.277 229.033 154.519 212.72 113.178 211.319Z" fill="#123041"/>
<path d="M65.1426 286.648V297.62" stroke="#123041" stroke-width="10.2857" stroke-linecap="round"/>
<path d="M157.027 286.648V297.62" stroke="#123041" stroke-width="10.2857" stroke-linecap="round"/>
<path d="M78.8574 312.157C78.8574 298.069 90.278 286.648 104.366 286.648H117.12C131.208 286.648 142.629 298.069 142.629 312.157C142.629 321.549 135.015 329.163 125.623 329.163H95.8631C86.4711 329.163 78.8574 321.549 78.8574 312.157Z" fill="#FFC0C1"/>
<path d="M97.3711 305.848V313.391" stroke="#123041" stroke-width="6.85714" stroke-linecap="round"/>
<path d="M124.801 305.848L124.801 313.391" stroke="#123041" stroke-width="6.85714" stroke-linecap="round"/>
<path d="M44.5723 313.391H54.858" stroke="#FFC0C1" stroke-width="13.7143" stroke-linecap="round"/>
<path d="M167.316 313.391H177.602" stroke="#FFC0C1" stroke-width="13.7143" stroke-linecap="round"/>
<path d="M57.601 344.248C51.0378 340.81 52.7055 335.442 53.4869 333.619C54.7892 333.88 59.7097 335.737 63.7726 336.362C67.8355 336.987 71.6564 337.991 74.912 338.251L74.1306 350.362C71.1354 349.971 64.1641 347.686 57.601 344.248Z" fill="#173A52"/>
<ellipse cx="85.9403" cy="349.311" rx="7.8133" ry="16.4079" transform="rotate(-20 85.9403 349.311)" fill="#173A52"/>
<rect x="70.7832" y="337.367" width="10.1573" height="32.8159" transform="rotate(-20 70.7832 337.367)" fill="#173A52"/>
<path d="M83.737 350.112C86.8363 358.627 86.0616 366.727 82.0067 368.203C77.9518 369.679 71.1258 368.006 66.8501 356.258C62.5744 344.511 66.7281 338.842 70.783 337.366C74.8379 335.89 80.6376 341.597 83.737 350.112Z" fill="#005271"/>
<ellipse cx="74.5616" cy="353.452" rx="5.85998" ry="12.5013" transform="rotate(-20 74.5616 353.452)" fill="#9EE7E5"/>
<ellipse cx="6.25064" cy="16.4079" rx="6.25064" ry="16.4079" transform="matrix(-0.939693 -0.34202 -0.34202 0.939693 150.621 336.275)" fill="#173A52"/>
<rect width="8.59463" height="32.8159" transform="matrix(-0.939693 -0.34202 -0.34202 0.939693 152.822 337.076)" fill="#173A52"/>
<path d="M142.805 350.892C139.705 359.407 139.194 367.039 141.662 367.937C144.13 368.835 148.808 366.381 153.083 354.633C157.359 342.886 155.354 337.999 152.885 337.1C150.417 336.202 145.904 342.377 142.805 350.892Z" fill="#005271"/>
<ellipse cx="3.51599" cy="12.5013" rx="3.51599" ry="12.5013" transform="matrix(-0.939693 -0.34202 -0.34202 0.939693 155.891 342.352)" fill="#9EE7E5"/>
<g clip-path="url(#clip1_2458_843)">
<rect x="190.172" y="330.008" width="23.3143" height="34.2857" rx="3.42857" transform="rotate(29.3185 190.172 330.008)" fill="#005271"/>
<rect x="191.221" y="333.742" width="17.8286" height="11.6571" rx="1.37143" transform="rotate(29.3185 191.221 333.742)" fill="#123041"/>
<circle cx="188.25" cy="357.239" r="7.54286" transform="rotate(29.3185 188.25 357.239)" fill="#9EE7E5"/>
<circle cx="188.248" cy="357.241" r="4.11429" transform="rotate(29.3185 188.248 357.241)" fill="#005271"/>
</g>
</g>
<path d="M137.897 362.569C138.2 361.798 137.82 360.927 137.049 360.624C136.278 360.322 135.408 360.701 135.105 361.472L137.897 362.569ZM192 424.501L192.253 425.98L192 424.501ZM1002 220.002L1002.38 218.552L1002 220.002ZM1055 331.002L1055.1 329.505L1055 331.002ZM135.105 361.472C133.61 365.277 132.934 371.787 133.553 379.151C134.175 386.558 136.121 395.017 140.037 402.751C143.958 410.493 149.876 417.549 158.444 422.043C167.021 426.541 178.115 428.4 192.253 425.98L191.747 423.023C178.135 425.353 167.73 423.525 159.838 419.386C151.938 415.243 146.418 408.71 142.714 401.395C139.005 394.072 137.139 386.004 136.542 378.9C135.942 371.751 136.642 365.764 137.897 362.569L135.105 361.472ZM192.253 425.98C199.935 424.665 206.116 419.728 211.247 412.417C216.368 405.118 220.54 395.323 224.199 383.998C231.508 361.377 236.926 332.112 243.606 303.492C250.311 274.763 258.296 246.626 270.732 225.84C283.131 205.119 299.809 191.913 323.963 192.52L324.038 189.521C298.441 188.878 280.897 203.008 268.158 224.3C255.457 245.528 247.389 274.081 240.684 302.81C233.953 331.649 228.603 360.611 221.345 383.076C217.72 394.294 213.658 403.757 208.791 410.693C203.933 417.616 198.369 421.89 191.747 423.023L192.253 425.98ZM323.963 192.52C373.454 193.764 445.134 213.062 502.788 237.579C531.609 249.835 556.823 263.353 573.962 276.5C582.537 283.078 589.012 289.503 592.923 295.565C596.832 301.623 598.076 307.141 596.566 312.062L599.434 312.942C601.299 306.863 599.622 300.413 595.444 293.939C591.269 287.468 584.494 280.798 575.788 274.119C558.364 260.754 532.891 247.12 503.962 234.818C446.116 210.22 374.046 190.778 324.038 189.521L323.963 192.52ZM596.566 312.062C596.085 313.629 595.983 315.13 596.393 316.5C596.809 317.893 597.706 318.99 598.927 319.813C601.274 321.396 604.937 322.048 609.417 322.121C618.475 322.269 632.081 320.044 648.763 316.224C682.183 308.572 728.496 294.382 776.715 279.252C824.964 264.112 875.14 248.024 916.373 236.54C936.99 230.797 955.336 226.216 970.065 223.48C977.43 222.113 983.864 221.211 989.209 220.854C994.582 220.494 998.742 220.693 1001.62 221.452L1002.38 218.552C999.034 217.667 994.487 217.494 989.009 217.86C983.505 218.229 976.946 219.151 969.517 220.531C954.66 223.29 936.215 227.899 915.568 233.65C874.274 245.151 824.031 261.26 775.816 276.389C727.572 291.528 681.377 305.679 648.093 313.3C631.422 317.117 618.127 319.262 609.466 319.121C605.086 319.05 602.185 318.392 600.604 317.326C599.861 316.825 599.453 316.264 599.267 315.641C599.074 314.996 599.071 314.125 599.434 312.942L596.566 312.062ZM1001.62 221.452C1008 223.138 1012.71 225.997 1016.2 229.678C1019.71 233.368 1022.07 237.955 1023.65 243.186C1026.83 253.712 1026.77 266.571 1026.72 279.415C1026.68 292.107 1026.64 304.853 1030.09 314.629C1031.83 319.566 1034.49 323.832 1038.55 326.974C1042.61 330.117 1047.96 332.04 1054.9 332.499L1055.1 329.505C1048.61 329.077 1043.88 327.303 1040.39 324.602C1036.89 321.899 1034.52 318.173 1032.92 313.63C1029.68 304.449 1029.68 292.29 1029.72 279.426C1029.77 266.714 1029.85 253.362 1026.52 242.319C1024.84 236.764 1022.29 231.725 1018.38 227.612C1014.46 223.489 1009.25 220.365 1002.38 218.552L1001.62 221.452ZM1054.9 332.499C1061.85 332.958 1067.55 331.216 1072.14 327.735C1076.69 324.275 1080.03 319.183 1082.46 313.113C1087.29 301.006 1088.63 284.618 1088.38 268.167C1088.12 251.674 1086.27 234.936 1084.61 222.037C1083.78 215.523 1083.01 210.148 1082.49 206.065C1082.24 204.047 1082.05 202.423 1081.96 201.233C1081.92 200.637 1081.9 200.178 1081.9 199.848C1081.91 199.446 1081.95 199.426 1081.89 199.559L1079.11 198.445C1078.93 198.89 1078.91 199.429 1078.9 199.814C1078.9 200.27 1078.92 200.827 1078.97 201.46C1079.07 202.73 1079.26 204.419 1079.52 206.442C1080.02 210.438 1080.82 216.051 1081.64 222.42C1083.29 235.287 1085.13 251.892 1085.38 268.212C1085.62 284.573 1084.27 300.467 1079.67 312.001C1077.37 317.751 1074.31 322.319 1070.32 325.346C1066.37 328.351 1061.4 329.921 1055.1 329.505L1054.9 332.499Z" fill="#005271"/>
<rect x="1090.56" width="130.349" height="191.69" rx="24.1304" transform="rotate(20 1090.56 0)" fill="#005271"/>
<rect x="1099.73" y="19.6543" width="99.6786" height="65.1745" rx="9.65218" transform="rotate(20 1099.73 19.6543)" fill="#123041"/>
<circle cx="1104.6" cy="151.984" r="42.1717" transform="rotate(20 1104.6 151.984)" fill="#9EE7E5"/>
<circle cx="1104.6" cy="151.985" r="23.0028" transform="rotate(20 1104.6 151.985)" fill="#005271"/>
<rect x="1106.59" y="79.2695" width="46.0055" height="3.83379" transform="rotate(20 1106.59 79.2695)" fill="#9EE7E5"/>
<rect x="1104.3" y="74.3555" width="3.83379" height="3.83379" transform="rotate(20 1104.3 74.3555)" fill="#9EE7E5"/>
<rect x="1151.13" y="91.4023" width="3.83379" height="3.83379" transform="rotate(20 1151.13 91.4023)" fill="#9EE7E5"/>
<rect x="1105.94" y="58.6348" width="3.83379" height="15.3352" transform="rotate(20 1105.94 58.6348)" fill="#9EE7E5"/>
<rect x="1159.98" y="78.3027" width="3.83379" height="15.3352" transform="rotate(20 1159.98 78.3027)" fill="#9EE7E5"/>
<rect x="1112.16" y="52.7402" width="3.83379" height="7.66758" transform="rotate(20 1112.16 52.7402)" fill="#9EE7E5"/>
<rect x="1159" y="69.7852" width="3.83379" height="7.66758" transform="rotate(20 1159 69.7852)" fill="#9EE7E5"/>
<rect x="1118.39" y="46.8457" width="3.83379" height="7.66758" transform="rotate(20 1118.39 46.8457)" fill="#9EE7E5"/>
<rect x="1108.56" y="51.4277" width="3.83379" height="3.83379" transform="rotate(20 1108.56 51.4277)" fill="#9EE7E5"/>
<rect x="1162.6" y="71.0977" width="3.83379" height="3.83379" transform="rotate(20 1162.6 71.0977)" fill="#9EE7E5"/>
<rect x="1103.98" y="41.6016" width="3.83379" height="3.83379" transform="rotate(20 1103.98 41.6016)" fill="#9EE7E5"/>
<rect x="1108.89" y="39.3086" width="11.5014" height="3.83379" transform="rotate(20 1108.89 39.3086)" fill="#9EE7E5"/>
<rect x="1162.93" y="58.9785" width="11.5014" height="3.83379" transform="rotate(20 1162.93 58.9785)" fill="#9EE7E5"/>
<rect x="1172.43" y="66.5137" width="3.83379" height="3.83379" transform="rotate(20 1172.43 66.5137)" fill="#9EE7E5"/>
<rect x="1099.06" y="43.8926" width="3.83379" height="7.66758" transform="rotate(20 1099.06 43.8926)" fill="#9EE7E5"/>
<rect x="1174.72" y="71.4277" width="3.83379" height="7.66758" transform="rotate(20 1174.72 71.4277)" fill="#9EE7E5"/>
<rect x="1100.04" y="52.4082" width="7.66758" height="3.83379" transform="rotate(20 1100.04 52.4082)" fill="#9EE7E5"/>
<rect x="1164.89" y="76.0117" width="7.66758" height="3.83379" transform="rotate(20 1164.89 76.0117)" fill="#9EE7E5"/>
<rect x="1158.02" y="61.2695" width="3.83379" height="7.66758" transform="rotate(20 1158.02 61.2695)" fill="#9EE7E5"/>
<rect x="1125.92" y="37.3496" width="3.83379" height="15.3352" transform="rotate(20 1125.92 37.3496)" fill="#9EE7E5"/>
<rect x="1118.06" y="58.9648" width="3.83379" height="7.66758" transform="rotate(20 1118.06 58.9648)" fill="#9EE7E5"/>
<rect x="1150.48" y="70.7656" width="3.83379" height="7.66758" transform="rotate(20 1150.48 70.7656)" fill="#9EE7E5"/>
<rect x="1127.55" y="66.502" width="15.3352" height="3.83379" transform="rotate(20 1127.55 66.502)" fill="#9EE7E5"/>
<rect x="1122.64" y="68.793" width="3.83379" height="3.83379" transform="rotate(20 1122.64 68.793)" fill="#9EE7E5"/>
<rect x="1120.02" y="75.998" width="23.0028" height="3.83379" transform="rotate(20 1120.02 75.998)" fill="#9EE7E5"/>
<rect x="1140.65" y="75.3477" width="3.83379" height="3.83379" transform="rotate(20 1140.65 75.3477)" fill="#9EE7E5"/>
<rect x="1142.95" y="80.2617" width="3.83379" height="3.83379" transform="rotate(20 1142.95 80.2617)" fill="#9EE7E5"/>
<rect x="1117.73" y="71.084" width="3.83379" height="3.83379" transform="rotate(20 1117.73 71.084)" fill="#9EE7E5"/>
<rect x="1124.93" y="73.707" width="3.83379" height="3.83379" transform="rotate(20 1124.93 73.707)" fill="#9EE7E5"/>
<rect x="1135.74" y="77.6406" width="3.83379" height="3.83379" transform="rotate(20 1135.74 77.6406)" fill="#9EE7E5"/>
<rect x="1158.35" y="49.1504" width="3.83379" height="15.3352" transform="rotate(20 1158.35 49.1504)" fill="#9EE7E5"/>
<rect x="1126.9" y="45.8652" width="7.66758" height="3.83379" transform="rotate(20 1126.9 45.8652)" fill="#9EE7E5"/>
<rect x="1148.52" y="53.7324" width="7.66758" height="3.83379" transform="rotate(20 1148.52 53.7324)" fill="#9EE7E5"/>
<rect x="1135.42" y="44.8848" width="15.3352" height="3.83379" transform="rotate(20 1135.42 44.8848)" fill="#9EE7E5"/>
<rect x="1133.13" y="39.9727" width="3.83379" height="3.83379" transform="rotate(20 1133.13 39.9727)" fill="#9EE7E5"/>
<rect x="1151.14" y="46.5273" width="3.83379" height="3.83379" transform="rotate(20 1151.14 46.5273)" fill="#9EE7E5"/>
<rect x="1130.84" y="35.0586" width="3.83379" height="3.83379" transform="rotate(20 1130.84 35.0586)" fill="#9EE7E5"/>
<rect x="1156.06" y="44.2363" width="3.83379" height="3.83379" transform="rotate(20 1156.06 44.2363)" fill="#9EE7E5"/>
<defs>
<clipPath id="clip0_2458_843">
<rect width="216" height="256.457" fill="white" transform="translate(0 192.02)"/>
</clipPath>
<clipPath id="clip1_2458_843">
<rect width="25.3714" height="37.0286" fill="white" transform="translate(190.246 328.477) rotate(29.3185)"/>
</clipPath>
</defs>
</svg>
