<svg width="593" height="364" viewBox="0 0 593 364" fill="none" xmlns="http://www.w3.org/2000/svg">
<g clip-path="url(#clip0_2295_427)">
<ellipse cx="227.806" cy="105.688" rx="20.8018" ry="22.4166" transform="rotate(-28.6896 227.806 105.688)" fill="#5BB42B"/>
<ellipse cx="20.8018" cy="22.4166" rx="20.8018" ry="22.4166" transform="matrix(-0.877234 -0.480064 -0.480064 0.877234 347.191 95.4316)" fill="#5BB42B"/>
<path d="M304.481 252.118C308.214 250.593 311.848 230.258 311.111 220.135L275.26 225.857C274.523 234.073 274.474 250.827 276.242 252.118C278.452 253.732 299.816 254.026 304.481 252.118Z" fill="#4B9B3A"/>
<path d="M307.283 229.595C318.441 222.175 303.358 175.89 292.459 170.06C281.561 164.23 263.835 165.113 256.05 170.06C248.265 175.006 229.028 221.999 240.186 229.595C251.344 237.192 296.125 237.015 307.283 229.595Z" fill="#49B236"/>
<path d="M243.513 252.118C239.781 250.593 236.146 230.258 236.883 220.135L272.734 225.857C273.471 234.073 273.52 250.827 271.752 252.118C269.542 253.732 248.179 254.026 243.513 252.118Z" fill="#49B236"/>
<path d="M302.359 211.498C302.359 227.274 290.477 231.063 275.818 231.063C261.16 231.063 249.277 227.274 249.277 211.498C249.277 190.76 261.16 179.021 275.818 179.021C290.477 179.021 302.359 190.76 302.359 211.498Z" fill="#9CD43D"/>
<path d="M276.634 222.735C276.741 222.736 276.847 222.716 276.946 222.675C277.045 222.635 277.135 222.576 277.211 222.501L280.826 218.865C280.959 218.71 281.029 218.511 281.021 218.308C281.013 218.105 280.928 217.912 280.784 217.768C280.639 217.624 280.445 217.54 280.24 217.532C280.036 217.524 279.836 217.593 279.681 217.726L276.058 221.321C275.982 221.396 275.921 221.486 275.88 221.584C275.839 221.683 275.817 221.788 275.817 221.895C275.817 222.002 275.839 222.107 275.88 222.206C275.921 222.304 275.982 222.394 276.058 222.469C276.131 222.549 276.22 222.615 276.319 222.661C276.418 222.706 276.525 222.732 276.634 222.735Z" fill="#49B236"/>
<path d="M280.211 222.735C280.317 222.736 280.422 222.716 280.52 222.676C280.618 222.635 280.708 222.576 280.783 222.502C280.859 222.427 280.919 222.337 280.959 222.239C281 222.141 281.021 222.036 281.021 221.929C281.021 221.823 281 221.717 280.959 221.619C280.919 221.521 280.859 221.432 280.783 221.357L277.196 217.77C277.121 217.694 277.032 217.634 276.934 217.593C276.836 217.552 276.73 217.531 276.624 217.531C276.518 217.531 276.412 217.552 276.314 217.593C276.216 217.634 276.127 217.694 276.052 217.77C275.902 217.921 275.817 218.125 275.817 218.338C275.817 218.551 275.902 218.755 276.052 218.906L279.647 222.502C279.797 222.651 279.999 222.734 280.211 222.735Z" fill="#49B236"/>
<path d="M340.35 141.689C340.35 169.137 310.098 178.239 273.329 178.239C236.559 178.239 206.084 169.137 206.084 141.689C206.084 102.259 236.559 85.3457 273.329 85.3457C310.098 85.3457 340.35 99.1366 340.35 141.689Z" fill="#5BB42B"/>
<path d="M231.582 113.449V121.776" stroke="#123041" stroke-width="7.80619" stroke-linecap="round"/>
<path d="M320.053 112.408V120.735" stroke="#123041" stroke-width="7.80619" stroke-linecap="round"/>
<path d="M220.133 132.182H228.98" stroke="#A1DC3C" stroke-width="10.4082" stroke-linecap="round"/>
<path d="M316.41 132.182H325.257" stroke="#A1DC3C" stroke-width="10.4082" stroke-linecap="round"/>
<path d="M285.708 123.886C285.708 117.633 285.708 114.489 273.998 114.489C262.289 114.489 262.289 117.074 262.289 123.886C262.289 135.046 267.531 141.551 273.998 141.551C280.465 141.551 285.708 134.265 285.708 123.886Z" fill="#D52C2F"/>
<path fill-rule="evenodd" clip-rule="evenodd" d="M262.309 125.039C262.658 135.491 267.758 141.549 273.999 141.549C278.529 141.549 282.459 137.973 284.406 132.262C282.141 129.616 278.79 127.322 274.744 125.904C270.33 124.356 265.91 124.139 262.309 125.039Z" fill="#FF686B"/>
</g>
<g clip-path="url(#clip1_2295_427)">
<path d="M217.857 190.547C233.612 199.871 228.745 204.519 224.675 211.397C220.604 218.275 218.552 224.589 203.117 215.455C195.282 210.818 192.229 201.483 196.3 194.605C200.37 187.727 210.022 185.91 217.857 190.547Z" fill="white"/>
<path d="M240.953 192.142C240.953 200.826 237.924 200.877 234.187 200.877C230.451 200.877 227.422 200.826 227.422 192.142C227.422 183.458 231.568 176.418 234.187 176.418C236.806 176.418 240.953 183.458 240.953 192.142Z" fill="#6A5B3D"/>
<path d="M322.656 192.142C322.656 200.826 319.627 200.877 315.89 200.877C312.154 200.877 309.125 200.826 309.125 192.142C309.125 183.458 313.272 176.418 315.89 176.418C318.509 176.418 322.656 183.458 322.656 192.142Z" fill="#6A5B3D"/>
<path d="M333.705 190.547C317.95 199.871 322.817 204.519 326.888 211.397C330.958 218.275 333.011 224.589 348.445 215.455C356.281 210.818 359.333 201.483 355.263 194.605C351.192 187.727 341.54 185.91 333.705 190.547Z" fill="#123041"/>
<path d="M337.594 198.498C329.742 203.145 331.775 204.798 333.319 207.408C334.864 210.018 335.494 212.501 343.187 207.948C347.092 205.637 349.006 201.648 347.461 199.038C345.917 196.429 341.499 196.187 337.594 198.498Z" fill="#FFC0C1"/>
<path d="M213.504 198.498C221.356 203.145 219.323 204.798 217.778 207.408C216.234 210.018 215.604 212.501 207.911 207.948C204.006 205.637 202.092 201.648 203.636 199.038C205.181 196.429 209.598 196.187 213.504 198.498Z" fill="#FFC0C1"/>
<path d="M322.166 337.044C319.575 338.576 290.714 338.422 284.883 334.581C277.789 329.908 275.19 323.623 276.9 318.195C280.571 306.542 288.83 306.78 297.937 307.56C307.044 308.341 332.976 309.647 334.886 314.586C337.1 320.31 328.902 333.061 322.166 337.044Z" fill="#E7EAEE"/>
<path d="M308.322 329.515C319.48 322.095 304.397 275.809 293.498 269.98C282.6 264.15 264.874 265.033 257.089 269.98C249.304 274.926 230.067 321.919 241.225 329.515C252.383 337.112 297.164 336.935 308.322 329.515Z" fill="white"/>
<path fill-rule="evenodd" clip-rule="evenodd" d="M278.507 335.094C278.594 332.355 278.504 326.767 276.599 323.434C273.55 318.1 263.588 314.587 263.588 314.587C259.599 313.98 250.994 311.1 248.497 304.439C247.433 301.604 244.981 299.705 242.147 298.466C237.694 311.872 235.605 325.688 241.224 329.513C247.3 333.65 263.348 335.482 278.507 335.094Z" fill="#123041"/>
<path d="M304.441 312.724C304.441 326.607 292.559 329.941 277.9 329.941C263.242 329.941 251.359 326.607 251.359 312.724C251.359 294.475 263.242 284.145 277.9 284.145C292.559 284.145 304.441 294.475 304.441 312.724Z" fill="#FFC0C1"/>
<path d="M277.675 325.257C277.782 325.257 277.888 325.237 277.987 325.197C278.086 325.157 278.176 325.097 278.252 325.023L281.867 321.386C282 321.232 282.07 321.033 282.062 320.83C282.054 320.626 281.969 320.433 281.825 320.289C281.68 320.145 281.486 320.061 281.282 320.053C281.077 320.045 280.877 320.115 280.722 320.247L277.099 323.843C277.023 323.918 276.962 324.007 276.921 324.106C276.88 324.204 276.858 324.31 276.858 324.416C276.858 324.523 276.88 324.629 276.921 324.727C276.962 324.826 277.023 324.915 277.099 324.99C277.172 325.071 277.261 325.136 277.36 325.182C277.459 325.228 277.566 325.253 277.675 325.257Z" fill="#FF8D8D"/>
<path d="M281.252 325.257C281.358 325.257 281.463 325.237 281.561 325.197C281.659 325.157 281.749 325.098 281.824 325.023C281.9 324.948 281.96 324.859 282.001 324.761C282.041 324.663 282.062 324.557 282.062 324.451C282.062 324.344 282.041 324.239 282.001 324.141C281.96 324.042 281.9 323.953 281.824 323.878L278.237 320.291C278.162 320.216 278.073 320.156 277.975 320.115C277.877 320.074 277.771 320.053 277.665 320.053C277.559 320.053 277.453 320.074 277.355 320.115C277.257 320.156 277.168 320.216 277.093 320.291C276.943 320.442 276.858 320.647 276.858 320.859C276.858 321.072 276.943 321.277 277.093 321.428L280.688 325.023C280.838 325.172 281.04 325.256 281.252 325.257Z" fill="#FF8D8D"/>
<path d="M284.174 338.608C281.583 340.14 252.722 339.986 246.891 336.146C239.796 331.472 237.198 325.188 238.908 319.76C242.579 308.107 250.838 308.344 259.945 309.125C269.052 309.905 294.984 311.211 296.894 316.15C299.107 321.875 290.91 334.625 284.174 338.608Z" fill="#123041"/>
<path d="M340.872 244.333C340.872 271.494 311.089 280.501 274.89 280.501C238.69 280.501 208.688 271.494 208.688 244.333C208.688 198.021 238.69 182.143 274.89 182.143C311.089 182.143 340.872 195.816 340.872 244.333Z" fill="white"/>
<path fill-rule="evenodd" clip-rule="evenodd" d="M279.488 182.219C279.792 190.885 281.602 202.254 287.281 206.852C292.275 210.894 298.038 211.924 303.187 212.843C307.588 213.63 311.542 214.336 314.184 216.775C315.588 218.071 316.833 219.869 318.181 221.816C322.245 227.685 327.249 234.911 340.364 233.844C336.486 195.662 310.865 183.281 279.488 182.219Z" fill="#123041"/>
<path d="M243.031 239.387V247.713" stroke="#123041" stroke-width="7.80619" stroke-linecap="round"/>
<path d="M312.77 239.387V247.713" stroke="#123041" stroke-width="7.80619" stroke-linecap="round"/>
<path d="M253.441 258.746C253.441 248.054 262.109 239.387 272.801 239.387H282.48C293.172 239.387 301.84 248.054 301.84 258.746C301.84 265.874 296.061 271.652 288.934 271.652H266.348C259.22 271.652 253.441 265.874 253.441 258.746Z" fill="#FFC0C1"/>
<path d="M267.492 253.961V259.685" stroke="black" stroke-width="5.20412" stroke-linecap="round"/>
<path d="M288.309 253.961L288.309 259.685" stroke="black" stroke-width="5.20412" stroke-linecap="round"/>
<path d="M227.422 259.684H235.228" stroke="#FFC0C1" stroke-width="10.4082" stroke-linecap="round"/>
<path d="M320.574 259.684H328.38" stroke="#FFC0C1" stroke-width="10.4082" stroke-linecap="round"/>
<path d="M272.059 303.943C258.865 306.554 248.76 294.201 243.008 285.856C241.566 282.785 242.9 278.549 245.352 277.807C249.719 276.485 269.113 280.439 276.282 282.664C283.451 284.89 288.551 300.679 272.059 303.943Z" fill="#E7EAEE"/>
<rect width="84.8272" height="7.28578" rx="1.04083" transform="matrix(-1 0 0 1 338.391 303.92)" fill="#173A52"/>
<path d="M347.636 256.082L235.199 200.877L201.4 281.365L272.824 307.562L347.636 256.082Z" fill="url(#paint0_linear_2295_427)"/>
<rect width="84.8272" height="55.6841" rx="2.60206" transform="matrix(-1 0 0 1 348.797 255.521)" fill="#005271"/>
<path d="M302.65 283.693V279.394L293.635 288.413L295.765 290.588L302.65 283.693ZM323.193 281.006C322.525 277.647 320 275.128 319.71 274.83L313.514 268.531L309.972 272.071L309.72 272.323V276.623L313.501 272.844L317.026 276.425L317.564 276.971L317.601 277.009C317.601 277.009 317.837 277.24 318.16 277.626C319.152 278.766 319.857 280.126 320.214 281.594C320.719 284.113 320.971 287.082 318.16 290.685V295.127C318.425 294.896 318.58 294.732 318.652 294.674C321.172 292.205 322.68 289.71 323.273 287.044C323.683 285.05 323.657 282.99 323.197 281.006H323.193ZM304.423 294.279L304.33 294.233H304.284C304.01 294.089 303.748 293.922 303.503 293.733C303.272 293.569 302.99 293.351 302.663 293.07C302.15 292.65 301.512 292.079 300.734 291.319L298.991 289.538L296.84 291.688L298.575 293.456V293.481C301.26 296.101 302.637 296.84 303.146 297.054C304.755 297.847 306.5 298.33 308.288 298.478C309.109 298.542 309.935 298.525 310.754 298.427L310.951 298.406V295.324C308.721 295.678 306.435 295.311 304.427 294.279H304.423Z" fill="white"/>
<path d="M308.205 273.842V292.199H304.176V277.873L304.579 277.47L304.798 277.251L306.016 276.034L306.839 275.211L307.108 274.942L307.936 274.115L308.205 273.842Z" fill="white"/>
<path d="M316.639 277.945V296.261L316.589 296.299C316.404 296.416 316.206 296.538 315.996 296.656C315.929 296.698 315.858 296.735 315.786 296.773C315.602 296.878 315.404 296.983 315.202 297.084C315.001 297.185 314.82 297.269 314.618 297.357L314.287 297.5L313.833 297.676L313.463 297.806C313.211 297.89 312.951 297.97 312.682 298.041L312.484 298.092V277.945H316.639Z" fill="white"/>
<path d="M312.484 282.785H308.203V286.942H312.484V282.785Z" fill="white"/>
<path d="M267.339 180.841C268.492 185.144 262.398 190.579 254.069 192.81C245.741 195.042 238.331 193.226 237.178 188.923C235.225 181.634 239.497 174.244 248.865 171.734C258.232 169.224 265.319 173.301 267.339 180.841Z" fill="#4F9A15"/>
<path d="M283.235 180.689C282.082 184.992 288.176 190.426 296.505 192.658C304.834 194.89 312.243 193.073 313.396 188.77C315.349 181.481 311.077 174.091 301.71 171.581C292.342 169.071 285.255 173.148 283.235 180.689Z" fill="#4F9A15"/>
</g>
<g clip-path="url(#clip2_2295_427)">
<path d="M387.146 338.507C383.413 336.981 379.779 316.647 380.516 306.523L416.367 312.245C417.104 320.461 417.153 337.216 415.385 338.507C413.175 340.121 391.811 340.414 387.146 338.507Z" fill="#E7EAEE"/>
<path d="M384.344 315.984C373.186 308.564 388.269 262.278 399.168 256.448C410.066 250.618 427.792 251.502 435.577 256.448C443.362 261.395 462.599 308.387 451.441 315.984C440.283 323.58 395.502 323.404 384.344 315.984Z" fill="white"/>
<path d="M448.114 338.507C451.846 336.981 455.481 316.647 454.744 306.523L418.893 312.245C418.156 320.461 418.107 337.216 419.875 338.507C422.085 340.121 443.448 340.414 448.114 338.507Z" fill="white"/>
<path d="M389.268 300.234C389.268 314.116 401.15 317.451 415.809 317.451C430.467 317.451 442.35 314.116 442.35 300.234C442.35 281.984 430.467 271.654 415.809 271.654C401.15 271.654 389.268 281.984 389.268 300.234Z" fill="#E7EAEE"/>
<path d="M414.991 309.124C414.884 309.125 414.778 309.104 414.679 309.064C414.58 309.024 414.49 308.965 414.414 308.89L410.799 305.254C410.666 305.099 410.596 304.9 410.604 304.697C410.612 304.493 410.697 304.3 410.841 304.157C410.986 304.013 411.18 303.928 411.385 303.921C411.589 303.913 411.789 303.982 411.944 304.114L415.567 307.71C415.643 307.785 415.704 307.874 415.745 307.973C415.786 308.071 415.808 308.177 415.808 308.284C415.808 308.39 415.786 308.496 415.745 308.594C415.704 308.693 415.643 308.782 415.567 308.857C415.494 308.938 415.405 309.003 415.306 309.049C415.207 309.095 415.1 309.12 414.991 309.124Z" fill="#FFC0C1"/>
<path d="M411.414 309.124C411.308 309.125 411.203 309.104 411.105 309.064C411.007 309.024 410.917 308.965 410.842 308.89C410.766 308.815 410.706 308.726 410.666 308.628C410.625 308.53 410.604 308.424 410.604 308.318C410.604 308.212 410.625 308.106 410.666 308.008C410.706 307.91 410.766 307.821 410.842 307.746L414.429 304.158C414.504 304.083 414.593 304.023 414.691 303.982C414.789 303.941 414.895 303.92 415.001 303.92C415.107 303.92 415.213 303.941 415.311 303.982C415.409 304.023 415.498 304.083 415.573 304.158C415.723 304.309 415.808 304.514 415.808 304.727C415.808 304.94 415.723 305.144 415.573 305.295L411.978 308.89C411.828 309.039 411.626 309.123 411.414 309.124Z" fill="#FFC0C1"/>
<path d="M463.478 152.458C459.314 165.953 441.488 192.374 437.717 203.422H402.069C398.298 192.374 381.846 165.953 376.569 152.458C370.024 135.721 376.831 113.967 395.216 113.967C410.396 113.967 417.507 139.033 419.503 152.458C421.499 139.033 429.13 113.967 443.79 113.967C462.175 113.967 468.775 135.285 463.478 152.458Z" fill="white"/>
<path d="M355.44 229.241C355.44 256.402 385.224 265.409 421.423 265.409C457.622 265.409 487.625 256.402 487.625 229.241C487.625 182.929 457.622 167.051 421.423 167.051C385.224 167.051 355.44 180.724 355.44 229.241Z" fill="white"/>
<path d="M445.992 221.174V229.5" stroke="#123041" stroke-width="7.80619" stroke-linecap="round"/>
<path d="M383.023 221.174V229.5" stroke="#123041" stroke-width="7.80619" stroke-linecap="round"/>
<path d="M461.605 241.469H453.799" stroke="#FFC0C1" stroke-width="10.4082" stroke-linecap="round"/>
<path d="M375.217 241.469H367.411" stroke="#FFC0C1" stroke-width="10.4082" stroke-linecap="round"/>
<path d="M405.922 242.751C405.922 247.44 405.922 249.798 414.509 249.798C423.096 249.798 423.096 247.859 423.096 242.751C423.096 237.642 419.251 229.502 414.509 229.502C409.767 229.502 405.922 238.061 405.922 242.751Z" fill="#FFC0C1"/>
<path fill-rule="evenodd" clip-rule="evenodd" d="M421.824 236.795C420.313 232.967 417.601 229.502 414.507 229.502C411.455 229.502 408.774 233.048 407.251 236.825C409.311 237.786 411.81 238.349 414.506 238.349C417.229 238.349 419.753 237.774 421.824 236.795Z" fill="#E7EAEE"/>
<path d="M416.635 222.215C415.614 222.215 415.145 222.641 414.507 223.066C413.869 222.641 413.4 222.215 412.379 222.215C411.102 222.215 410.361 223.553 410.677 224.344C411.102 225.408 412.663 226.473 414.507 226.899C416.351 226.473 417.912 225.408 418.337 224.344C418.654 223.553 417.912 222.215 416.635 222.215Z" fill="#FFC0C1"/>
<g clip-path="url(#clip3_2295_427)">
<path d="M385.498 260.181C385.722 260.532 386.018 260.672 386.138 260.698L397.636 255.49L407.167 247.216C407.193 247.096 407.19 246.769 406.965 246.418C406.684 245.98 406.218 243.806 405.201 244.149C404.184 244.492 403.729 245.711 402.415 246.553C401.101 247.396 400.601 247.098 398.629 248.362C396.658 249.626 396.282 250.486 394.967 251.328C393.653 252.171 392.715 252.154 391.182 253.137C389.648 254.12 388.615 255.401 387.301 256.244C385.986 257.086 384.907 256.851 384.172 257.632C383.436 258.412 385.217 259.743 385.498 260.181Z" fill="#E48174"/>
<path d="M403.196 287.783C402.972 287.432 402.968 287.105 402.994 286.985L412.526 278.71L424.023 273.503C424.143 273.529 424.439 273.669 424.663 274.019C424.944 274.457 426.725 275.788 425.99 276.569C425.253 277.35 423.956 277.255 422.642 278.097C421.327 278.94 421.389 279.519 419.418 280.783C417.446 282.047 416.508 282.03 415.194 282.872C413.88 283.715 413.503 284.575 411.97 285.558C410.437 286.541 408.841 286.945 407.527 287.788C406.213 288.631 405.976 289.709 404.96 290.052C403.943 290.395 403.477 288.221 403.196 287.783Z" fill="#E48174"/>
<path d="M396.363 253.525C392.253 256.16 386.208 260.345 386.129 260.705C386.086 260.904 386.679 262.689 388.102 265.622C389.246 267.98 391.801 270.517 394.117 274.129C396.433 277.741 397.682 281.116 399.347 283.139C401.418 285.656 402.793 286.941 402.993 286.984C403.352 287.063 409.678 283.316 413.788 280.681C417.898 278.046 423.943 273.861 424.022 273.502C424.065 273.3 423.502 271.546 422.059 268.578C420.928 266.25 418.369 263.743 416.023 260.084C413.677 256.426 412.457 253.061 410.814 251.061C408.719 248.51 407.36 247.267 407.158 247.222C406.799 247.143 400.473 250.89 396.363 253.525Z" fill="#FFC5AB"/>
<g filter="url(#filter0_d_2295_427)">
<path d="M409.219 278.433C404.628 279.367 400.182 277.085 401.397 273.917C402.611 270.749 404.861 272.15 407.818 271.548C410.776 270.947 412.404 269.289 414.146 271.325C415.888 273.36 413.809 277.5 409.219 278.433Z" fill="#FFC53D"/>
</g>
<g filter="url(#filter1_d_2295_427)">
<path d="M412.493 269.668C411.103 273.268 407.545 275.34 405.886 273.091C404.227 270.841 406.198 269.902 407.093 267.582C407.989 265.263 407.562 263.396 409.748 263.091C411.934 262.787 413.883 266.067 412.493 269.668Z" fill="#FFC53D"/>
</g>
<g filter="url(#filter2_d_2295_427)">
<path d="M400.521 268.673C396.804 269.751 392.99 268.173 393.776 265.483C394.563 262.792 396.509 263.794 398.904 263.099C401.298 262.405 402.527 260.93 404.098 262.489C405.669 264.047 404.237 267.595 400.521 268.673Z" fill="#FFC53D"/>
</g>
</g>
<g clip-path="url(#clip4_2295_427)">
<path d="M438.486 250.523L439.28 251.965L440.971 252.819L441.955 254.438L443.646 255.292L444.248 256.557L446.13 257.588L443.805 259.337L436.926 252.979L438.486 250.523Z" fill="#DAA427"/>
<path d="M425.291 280.137L424.498 278.695L422.807 277.841L421.822 276.222L420.131 275.368L419.529 274.103L417.647 273.072L419.972 271.324L426.851 277.681L425.291 280.137Z" fill="#DAA427"/>
<rect x="436.896" y="252.242" width="10.4083" height="26.0206" rx="1.04083" transform="rotate(42.7435 436.896 252.242)" fill="#FFC53D"/>
<path fill-rule="evenodd" clip-rule="evenodd" d="M431.793 260.768C431.729 260.986 431.634 261.529 431.768 261.962C431.846 262.213 432.079 262.416 432.33 262.633C432.618 262.884 432.929 263.155 433.05 263.541C433.228 264.117 432.943 264.89 432.777 265.206L438.769 263.345C439.043 263.26 439.197 262.968 439.111 262.694L438.076 259.36C437.991 259.085 437.699 258.932 437.424 259.017L431.486 260.862C431.593 260.83 431.695 260.799 431.793 260.768Z" fill="#935F3A"/>
<path d="M428.301 266.437C427.859 266.337 427.436 265.983 427.279 265.819L425.947 271.712C425.905 271.896 426.047 272.122 426.232 272.163L429.915 272.996C430.099 273.038 430.325 272.896 430.366 272.711L431.616 267.186C431.426 266.885 430.899 266.25 430.309 266.117C429.573 265.95 428.854 266.562 428.301 266.437Z" fill="#935F3A"/>
</g>
<g clip-path="url(#clip5_2295_427)">
<path d="M414.067 249.179C414.949 249.112 418.31 249.176 421.879 249.614C425.635 250.076 428.254 250.747 429.563 251.083" stroke="#6DA442" stroke-width="1.56124" stroke-linecap="round"/>
<path d="M410.956 274.489C411.796 274.767 415.072 275.519 418.64 275.958C422.397 276.419 425.1 276.402 426.452 276.393" stroke="#6DA442" stroke-width="1.56124" stroke-linecap="round"/>
<path d="M412.812 250.856C412.903 250.11 413.512 249.544 414.263 249.553C415.638 249.569 418.126 249.679 421.814 250.132C425.502 250.585 427.943 251.081 429.28 251.398C430.012 251.571 430.465 252.268 430.374 253.014L427.709 274.698C427.616 275.452 426.994 276.024 426.234 276.012C424.819 275.992 422.279 275.881 418.704 275.442C415.13 275.002 412.639 274.495 411.26 274.173C410.52 273.999 410.055 273.294 410.147 272.54L412.812 250.856Z" fill="#AFD157"/>
<mask id="mask0_2295_427" style="mask-type:alpha" maskUnits="userSpaceOnUse" x="410" y="249" width="21" height="28">
<path d="M412.812 250.854C412.903 250.108 413.512 249.542 414.263 249.551C415.638 249.568 418.126 249.677 421.814 250.13C425.502 250.583 427.943 251.079 429.28 251.396C430.012 251.569 430.465 252.266 430.374 253.012L427.709 274.696C427.616 275.45 426.994 276.022 426.234 276.01C424.819 275.99 422.279 275.879 418.704 275.44C415.13 275 412.639 274.493 411.26 274.171C410.52 273.997 410.055 273.292 410.147 272.538L412.812 250.854Z" fill="#AFD157"/>
</mask>
<g mask="url(#mask0_2295_427)">
<path d="M421.469 270.012C425.628 268.164 427.859 254.281 427.878 247.729L433.106 247.847L432.592 279.768L408.189 277.818C407.03 274.443 405.903 268.676 408.85 270.297C412.534 272.322 418.81 271.194 421.469 270.012Z" fill="#A0C248"/>
</g>
<path d="M415.109 253.502L413.777 264.349" stroke="#C4E0AE" stroke-width="1.56124" stroke-linecap="round"/>
<path d="M413.459 266.93L413.269 268.479" stroke="#C4E0AE" stroke-width="1.56124" stroke-linecap="round"/>
<circle cx="423.699" cy="271.071" r="2.86227" transform="rotate(7.00501 423.699 271.071)" fill="#CCF2C2"/>
<path d="M421.375 270.785C421.532 269.502 422.701 268.589 423.985 268.747" stroke="white" stroke-width="0.41633" stroke-linecap="round" stroke-dasharray="0.52 0.52 1.04 1.04"/>
<circle cx="421.299" cy="265.009" r="1.82144" transform="rotate(7.00501 421.299 265.009)" fill="#CCF2C2"/>
<path d="M420.005 264.85C420.093 264.137 420.742 263.63 421.455 263.717" stroke="white" stroke-width="0.312248" stroke-linecap="round" stroke-dasharray="0.52 0.78 1.04 1.04"/>
<circle cx="426.328" cy="262.481" r="1.30103" transform="rotate(7.00501 426.328 262.481)" fill="#CCF2C2"/>
<path d="M425.551 262.385C425.604 261.958 425.993 261.654 426.42 261.706" stroke="white" stroke-width="0.208165" stroke-linecap="round" stroke-dasharray="0.52 1.04 1.04 1.04"/>
<path d="M421.229 263.428L421.744 263.492L421.681 264.007L421.391 264.233L420.907 263.912L421.229 263.428Z" fill="#CCF2C2"/>
<path d="M426.195 261.418L426.711 261.481L426.648 261.997L426.1 262.192L426.164 261.676L426.195 261.418Z" fill="#CCF2C2"/>
<path d="M423.757 268.456L424.273 268.52L424.178 269.294L423.63 269.489L423.209 268.651L423.757 268.456Z" fill="#CCF2C2"/>
</g>
<path d="M426.967 282.472C432.898 288.906 449.195 281.593 455.362 276.076C458.872 272.936 458.59 268.052 455.398 266.295C449.362 262.973 440.453 264.33 432.984 263.587C424.369 262.73 415.571 270.111 426.967 282.472Z" fill="#DBDEE3"/>
<path d="M375.343 269.671C376.462 263.302 383.862 260.336 391.788 261.728C399.714 263.121 405.165 268.344 404.046 274.714C402.927 281.083 395.662 286.186 387.736 284.794C379.809 283.401 374.224 276.04 375.343 269.671Z" fill="#DBDEE3"/>
</g>
<g clip-path="url(#clip6_2295_427)">
<path d="M174.38 338.507C178.112 336.981 181.746 316.647 181.01 306.523L145.158 312.245C144.422 320.461 144.373 337.216 146.141 338.507C148.351 340.121 169.714 340.414 174.38 338.507Z" fill="#FFC532"/>
<path d="M199.024 285.886C186.087 289.564 167.47 277.062 159.778 270.351C159.482 269.236 159.199 266.445 160.441 264.205C161.994 261.404 194.173 262.7 201.499 264.334C208.826 265.968 215.196 281.288 199.024 285.886Z" fill="#FFC532"/>
<path d="M177.182 315.984C188.34 308.564 173.256 262.278 162.358 256.448C151.459 250.618 133.733 251.502 125.948 256.448C118.164 261.395 98.9262 308.387 110.084 315.984C121.242 323.58 166.024 323.404 177.182 315.984Z" fill="#FFDB40"/>
<path d="M84.5967 291.417C84.6619 291.137 84.9418 290.963 85.2217 291.028L115.646 298.122C115.736 298.143 115.818 298.187 115.885 298.251L119.736 301.89C120.026 302.163 119.913 302.648 119.532 302.765L114.469 304.326C114.381 304.353 114.287 304.356 114.197 304.336L83.7729 297.242C83.493 297.177 83.319 296.897 83.3843 296.617L84.5967 291.417Z" fill="#FFB132"/>
<path d="M113.411 338.507C109.679 336.981 106.045 316.647 106.781 306.523L142.633 312.245C143.369 320.461 143.418 337.216 141.65 338.507C139.44 340.121 118.077 340.414 113.411 338.507Z" fill="#FFDB40"/>
<path d="M87.492 288.73C90.0394 275.523 109.591 264.539 119.048 260.697C120.177 260.935 122.795 261.941 124.235 264.06C126.035 266.708 110.376 294.849 105.615 300.653C100.855 306.456 84.3077 305.238 87.492 288.73Z" fill="#FFDB40"/>
<path d="M146.533 309.124C146.64 309.125 146.746 309.104 146.845 309.064C146.944 309.024 147.034 308.965 147.11 308.89L150.725 305.254C150.858 305.099 150.927 304.9 150.919 304.697C150.911 304.493 150.827 304.3 150.682 304.157C150.537 304.013 150.343 303.928 150.139 303.921C149.934 303.913 149.735 303.982 149.579 304.114L145.956 307.71C145.88 307.785 145.82 307.874 145.778 307.973C145.737 308.071 145.716 308.177 145.716 308.284C145.716 308.39 145.737 308.496 145.778 308.594C145.82 308.693 145.88 308.782 145.956 308.857C146.029 308.938 146.118 309.003 146.217 309.049C146.316 309.095 146.424 309.12 146.533 309.124Z" fill="#FFBB4D"/>
<path d="M150.109 309.124C150.215 309.125 150.32 309.104 150.419 309.064C150.517 309.024 150.606 308.965 150.681 308.89C150.757 308.815 150.817 308.726 150.858 308.628C150.899 308.53 150.92 308.424 150.92 308.318C150.92 308.212 150.899 308.106 150.858 308.008C150.817 307.91 150.757 307.821 150.681 307.746L147.095 304.158C147.02 304.083 146.931 304.023 146.832 303.982C146.734 303.941 146.629 303.92 146.522 303.92C146.416 303.92 146.311 303.941 146.212 303.982C146.114 304.023 146.025 304.083 145.95 304.158C145.8 304.309 145.716 304.514 145.716 304.727C145.716 304.94 145.8 305.144 145.95 305.295L149.545 308.89C149.695 309.039 149.898 309.123 150.109 309.124Z" fill="#FFBB4D"/>
<path d="M206.607 228.72C206.607 255.881 176.823 264.887 140.624 264.887C104.425 264.887 74.4219 255.881 74.4219 228.72C74.4219 182.408 104.425 166.529 140.624 166.529C176.823 166.529 206.607 180.202 206.607 228.72Z" fill="#FFDB40"/>
<path d="M97.8379 241.99H105.644" stroke="#FFA052" stroke-width="10.4082" stroke-linecap="round"/>
<path d="M184.227 241.99H192.033" stroke="#FFA052" stroke-width="10.4082" stroke-linecap="round"/>
<path d="M113.449 223.258V231.584" stroke="#123041" stroke-width="7.80619" stroke-linecap="round"/>
<path d="M176.422 223.258V231.584" stroke="#123041" stroke-width="7.80619" stroke-linecap="round"/>
<path d="M158.205 235.227C158.205 239.969 152.264 241.992 144.935 241.992C137.605 241.992 131.664 239.969 131.664 235.227C131.664 230.484 137.605 224.818 144.935 224.818C152.264 224.818 158.205 230.484 158.205 235.227Z" fill="#FFB132"/>
<path d="M130.759 148.434C138.653 155.435 143.189 163.286 144.53 170.432L130.638 168.95C124.917 168.34 119.437 161.597 119.69 153.412C119.943 145.228 126.744 144.874 130.759 148.434Z" fill="#FFDB40"/>
<path d="M145.258 159.491C142.8 161.891 142.178 167.121 142.175 169.437C146.937 168.996 154.926 167.533 156.359 164.484C157.792 161.434 156.898 157.644 155.154 156.74C153.409 155.836 148.33 156.491 145.258 159.491Z" fill="#FFDB40"/>
<path d="M223.258 252.659C218.314 250.317 213.11 252.659 209.467 251.879C207.392 251.434 204.783 251.879 200.36 249.797C199.839 259.164 198.798 261.506 198.798 264.108C198.798 268.652 199.319 273.476 198.798 278.42C201.4 279.46 203.801 279.721 207.125 279.721C211.728 279.721 217.013 278.42 223.258 279.2C223.258 271.134 222.217 271.93 222.217 266.45C222.217 260.884 223.258 258.644 223.258 252.659Z" fill="#FFE8AD"/>
</g>
<defs>
<filter id="filter0_d_2295_427" x="401.193" y="270.341" width="14.0849" height="8.82412" filterUnits="userSpaceOnUse" color-interpolation-filters="sRGB">
<feFlood flood-opacity="0" result="BackgroundImageFix"/>
<feColorMatrix in="SourceAlpha" type="matrix" values="0 0 0 0 0 0 0 0 0 0 0 0 0 0 0 0 0 0 127 0" result="hardAlpha"/>
<feOffset dx="0.520412" dy="0.520412"/>
<feComposite in2="hardAlpha" operator="out"/>
<feColorMatrix type="matrix" values="0 0 0 0 0.822493 0 0 0 0 0.503639 0 0 0 0 0.129331 0 0 0 1 0"/>
<feBlend mode="normal" in2="BackgroundImageFix" result="effect1_dropShadow_2295_427"/>
<feBlend mode="normal" in="SourceGraphic" in2="effect1_dropShadow_2295_427" result="shape"/>
</filter>
<filter id="filter1_d_2295_427" x="405.242" y="263.071" width="8.23916" height="11.4745" filterUnits="userSpaceOnUse" color-interpolation-filters="sRGB">
<feFlood flood-opacity="0" result="BackgroundImageFix"/>
<feColorMatrix in="SourceAlpha" type="matrix" values="0 0 0 0 0 0 0 0 0 0 0 0 0 0 0 0 0 0 127 0" result="hardAlpha"/>
<feOffset dx="0.520413" dy="0.520413"/>
<feComposite in2="hardAlpha" operator="out"/>
<feColorMatrix type="matrix" values="0 0 0 0 0.822493 0 0 0 0 0.503639 0 0 0 0 0.129331 0 0 0 1 0"/>
<feBlend mode="normal" in2="BackgroundImageFix" result="effect1_dropShadow_2295_427"/>
<feBlend mode="normal" in="SourceGraphic" in2="effect1_dropShadow_2295_427" result="shape"/>
</filter>
<filter id="filter2_d_2295_427" x="393.672" y="261.799" width="11.5771" height="7.73721" filterUnits="userSpaceOnUse" color-interpolation-filters="sRGB">
<feFlood flood-opacity="0" result="BackgroundImageFix"/>
<feColorMatrix in="SourceAlpha" type="matrix" values="0 0 0 0 0 0 0 0 0 0 0 0 0 0 0 0 0 0 127 0" result="hardAlpha"/>
<feOffset dx="0.520412" dy="0.520412"/>
<feComposite in2="hardAlpha" operator="out"/>
<feColorMatrix type="matrix" values="0 0 0 0 0.822493 0 0 0 0 0.503639 0 0 0 0 0.129331 0 0 0 1 0"/>
<feBlend mode="normal" in2="BackgroundImageFix" result="effect1_dropShadow_2295_427"/>
<feBlend mode="normal" in="SourceGraphic" in2="effect1_dropShadow_2295_427" result="shape"/>
</filter>
<linearGradient id="paint0_linear_2295_427" x1="249.778" y1="238.943" x2="290.804" y2="296.036" gradientUnits="userSpaceOnUse">
<stop offset="0.25" stop-color="#96FFFF" stop-opacity="0"/>
<stop offset="1" stop-color="#96FFFF" stop-opacity="0.5"/>
</linearGradient>
<clipPath id="clip0_2295_427">
<rect width="146.236" height="192.032" fill="white" transform="translate(200.879 71.8164)"/>
</clipPath>
<clipPath id="clip1_2295_427">
<rect width="163.93" height="172.777" fill="white" transform="translate(193.594 167.572)"/>
</clipPath>
<clipPath id="clip2_2295_427">
<rect width="169.654" height="229.502" fill="white" transform="matrix(-1 0 0 1 506.359 110.326)"/>
</clipPath>
<clipPath id="clip3_2295_427">
<rect width="31.7452" height="42.6738" fill="white" transform="translate(380.42 257.564) rotate(-32.6653)"/>
</clipPath>
<clipPath id="clip4_2295_427">
<rect width="14.5716" height="34.3472" fill="white" transform="translate(438.195 247.773) rotate(42.7435)"/>
</clipPath>
<clipPath id="clip5_2295_427">
<rect width="22.8981" height="31.7452" fill="white" transform="translate(410.832 245.635) rotate(7.00501)"/>
</clipPath>
<clipPath id="clip6_2295_427">
<rect width="180.063" height="201.92" fill="white" transform="translate(61.4102 137.908)"/>
</clipPath>
</defs>
</svg>
