<svg width="1422" height="691" viewBox="0 0 1422 691" fill="none" xmlns="http://www.w3.org/2000/svg">
<path d="M0 555.569C0 555.569 298.961 551 710.5 551C1122.04 551 1421 555.569 1421 555.569V671H0V555.569Z" fill="#123041"/>
<path fill-rule="evenodd" clip-rule="evenodd" d="M212.251 277.846C198.359 300.901 172.287 345.825 152.447 389.757C116.635 469.055 123.978 670.171 123.978 670.171H84.1117C84.1117 670.171 84.1117 496.517 123.978 399.555C146.122 345.696 176.589 297.75 193.491 273.014C186.534 275.193 179.34 277.18 179.34 277.18L177.606 274.945L175.581 279.242L162.371 285.659L162.201 284.03L160.925 285.93L153.221 290.271L151.817 289.071L149.326 292.593L142.553 295.846L141.869 293.397L140.453 297.084L136.171 299.453L135.008 291.676L132.849 301.512C132.849 301.512 129.185 303.52 123.135 306.377C100.407 317.11 85.3474 308.343 84.9884 306.529C84.6295 304.715 146.699 257.104 174.942 255.317C175.136 255.304 175.33 255.294 175.524 255.285C173.733 254.711 172.639 254.351 172.639 254.351L172.013 250.648L167.597 254.01L150.319 251.89L151.009 249.958L148.657 251.177L138.261 250.607L137.428 248.287L132.937 250.46L124.098 249.332L124.687 246.127L121.235 249.237L115.481 248.871L118.408 239.404L110.898 248.833C110.898 248.833 105.984 248.498 98.1145 247.436C68.5496 243.445 57.4303 223.137 58.0213 220.868C58.6122 218.599 149.111 209.138 179.688 226.946C186.514 230.921 192.458 237.161 196.975 243.345L198.861 241.56L194.65 240.293L190.03 226.838L191.779 226.255L189.98 225.261L186.652 217.559L188.151 215.677L184.835 213.695L182.505 206.788L185.206 205.424L181.54 204.701L179.737 200.41L188.148 197.222L178.105 197.133C178.105 197.133 176.582 193.456 174.552 187.275C166.927 164.051 178.659 144.852 180.635 144.009C182.611 143.166 222.779 202.192 220.045 233.824C219.644 238.47 218.343 243.391 216.598 248.108C226.46 242.411 238.532 236.606 248.775 234.133C287.552 224.768 348.04 256.345 346.508 258.657C344.975 260.969 318.796 277.568 292.852 274.006C285.947 273.058 281.922 272.152 281.922 272.152L284.45 261.287L278.407 271.047L273.716 269.962L273.809 266.135L271.459 269.338L263.758 268.212L262.244 265.02L259.586 267.025L251.191 264.978L250.468 263.229L249.306 265.243L234.329 262.96L233.91 258.653L230.201 262.029C230.201 262.029 226.549 262.254 221.684 262.477C221.669 262.502 221.653 262.527 221.636 262.553C231.345 266.418 242.141 271.955 249.628 278.553C279.077 304.506 290.149 382.891 287.519 383.459C284.889 384.027 257.251 374.94 244.966 349.511C241.697 342.743 240.058 338.508 240.058 338.508L249.718 331.784L238.864 334.552L236.976 329.593L239.918 326.533L236.144 327.123L232.55 319.519L234.085 315.585L231.038 314.925L227.738 305.963L228.641 303.901L226.45 304.546L219.53 289.68L222.539 285.781L217.85 285.334C217.85 285.334 215.395 282.118 212.251 277.846Z" fill="#123041"/>
<path fill-rule="evenodd" clip-rule="evenodd" d="M206.792 420.731C212.529 416.675 220.049 412.183 226.467 410.111C248.693 402.938 285.395 418.712 284.602 420.129C283.809 421.546 269.256 432.388 253.953 431.45C249.88 431.2 247.491 430.848 247.491 430.848L248.489 424.394L245.39 430.358L242.604 429.931L242.49 427.693L241.259 429.666L236.714 429.347L235.689 427.55L234.226 428.838L229.235 428.012L228.736 427.023L228.146 428.25L219.302 427.576L218.868 425.08L216.851 427.214C216.851 427.214 215.092 427.456 212.641 427.759C217.955 429.724 223.616 432.441 227.728 435.737C245.658 450.111 254.272 495.65 252.75 496.054C251.227 496.457 234.816 491.898 226.938 477.362C224.841 473.493 223.767 471.061 223.767 471.061L229.233 466.865L222.961 468.78L221.721 465.931L223.358 464.062L221.167 464.51L218.858 460.161L219.649 457.819L217.848 457.516L215.674 452.364L216.146 451.134L214.882 451.571L210.429 443.066L212.083 440.704L209.329 440.57C209.329 440.57 205.919 436.512 202.758 432.462C195.902 440.98 172.86 470.165 155.168 499.167C128.64 542.653 118.394 660.028 118.394 660.028L95.232 657.152C95.232 657.152 107.763 556.262 137.921 502.805C155.679 471.327 178.393 444.384 189.424 432.068C187.865 432.407 186.819 432.623 186.819 432.623L185.893 431.249L184.543 433.681L176.577 436.916L176.541 435.958L175.722 437.018L171.053 439.255L170.279 438.499L168.687 440.46L164.604 442.097L164.3 440.64L163.33 442.739L160.737 443.956L160.359 439.368L158.716 445.03C158.716 445.03 156.498 446.061 152.853 447.495C139.158 452.881 130.702 447.175 130.563 446.102C130.452 445.246 154.656 428.924 172.87 422.37L171.752 422.24L172.149 421.107L170.776 421.829L164.688 421.533L164.192 420.179L161.57 421.468L156.391 420.84L156.725 418.962L154.715 420.795L151.345 420.602L153.024 415.049L148.662 420.596C148.662 420.596 145.784 420.419 141.173 419.826C123.85 417.6 117.265 405.752 117.602 404.421C117.94 403.091 170.886 397.216 188.853 407.528C189.242 407.751 189.625 407.986 190.004 408.233L189.106 406.983L189.989 406.361L188.813 406.107L185.649 402.35L186.172 401.042L183.978 400.49L181.508 397.01L182.792 395.79L180.615 396.003L178.881 393.901L183.059 390.696L177.413 392.339C177.413 392.339 175.94 390.534 173.76 387.41C165.57 375.675 168.911 362.934 169.877 362.128C170.843 361.322 203.313 387.645 207.112 405.84C208.082 410.485 207.668 416.052 206.792 420.731ZM196.54 413.748L196.325 413.748C196.369 413.796 196.412 413.845 196.456 413.894L196.54 413.748Z" fill="#123041"/>
<path fill-rule="evenodd" clip-rule="evenodd" d="M1193.77 364.965C1192.59 360.994 1191.79 356.669 1191.94 352.77C1192.72 332.716 1222.56 298.858 1223.73 299.542C1224.9 300.226 1230.75 313.191 1224.14 327.156C1222.38 330.874 1221.14 333.06 1221.14 333.06L1214.83 332.325L1219.85 334.986L1218.39 337.536L1216.03 337.701L1217.62 338.769L1215.61 342.918L1213.38 343.899L1214.17 345.198L1211.47 349.767L1210.27 350.248L1211.32 350.752L1210.59 352.244C1210.95 351.914 1211.31 351.594 1211.69 351.287C1228.96 337.08 1286.39 333.82 1286.99 335.176C1287.58 336.532 1282.7 350.329 1264.66 355.813C1259.86 357.272 1256.82 357.978 1256.82 357.978L1251.18 352.855L1253.97 358.466L1250.42 359.277L1247.95 357.686L1248.64 359.626L1243.24 361.225L1240.22 360.324L1239.93 361.855L1233.5 363.264L1231.91 362.742L1232.54 363.877L1231.37 364.216C1251.94 367.921 1280.64 380.949 1280.68 381.88C1280.72 383.048 1272.74 390.643 1257.2 387.368C1253.06 386.497 1250.51 385.798 1250.51 385.798L1247.74 380.066L1248.17 385.018L1245.19 384.188L1243.78 382.128L1243.71 383.734L1239.07 382.725L1237.03 380.923L1236.34 381.867L1230.97 380.324L1229.9 379.343L1230.04 380.369L1220.97 378.357L1219.1 376.01L1218.36 377.639C1218.36 377.639 1217.21 377.597 1215.49 377.517C1229.45 388.646 1258.47 413.249 1283.03 443.571C1324.74 495.064 1356.21 600.224 1356.21 600.224L1332.07 607.448C1332.07 607.448 1300.07 484.327 1264.02 442.797C1240.81 416.069 1212.27 390.056 1202.37 381.224C1199.84 385.657 1196.58 390.812 1196.58 390.812L1194.82 390.503L1195.7 393.374L1192.25 401.992L1191.47 401.302L1191.68 402.733L1189.93 408.039L1188.76 408.075L1189.09 410.782L1187.31 415.183L1185.94 414.327L1186.85 416.654L1185.85 419.583L1182 416.439L1185.17 421.958C1185.17 421.958 1184.31 424.455 1182.7 428.363C1176.63 443.047 1165.86 445.347 1164.92 444.651C1164.08 444.03 1170.99 405.241 1181.33 387.758L1176.37 392.226L1175.06 391.566L1175.29 392.741L1171.56 396.74L1169.46 396.605L1169.77 398.816L1166.1 402.088L1163.75 401.213L1165.13 403.201L1163.03 405.404L1156.44 402.352L1161.55 407.21C1161.55 407.21 1159.74 409.087 1156.43 411.988C1143.97 422.885 1124.38 423.22 1122.76 422.532C1121.15 421.844 1142.11 384.149 1165.84 375.616C1166.2 375.488 1166.56 375.363 1166.93 375.242L1166.19 374.197L1164.4 375.858L1159.8 376.046L1159.45 374.165L1158.36 376.261L1155.44 376.594L1155 370.926L1153.16 377.003C1153.16 377.003 1150.66 377.275 1146.55 377.41C1131.11 377.918 1121.54 367.394 1121.38 366.046C1121.22 364.697 1164.15 350.796 1182.86 358.065C1186.67 359.545 1190.49 362.166 1193.77 364.965ZM1183.09 385.052L1182.21 383.395L1184.12 383.696C1183.77 384.122 1183.43 384.574 1183.09 385.052ZM1204.74 359.43C1204.77 359.37 1204.81 359.311 1204.85 359.251L1204.62 359.29L1204.74 359.43Z" fill="#123041"/>
<ellipse cx="1137.76" cy="302.135" rx="10.7273" ry="8.32288" fill="#AFD157"/>
<ellipse cx="1165.5" cy="306.575" rx="10.7273" ry="8.32288" fill="#AFD157"/>
<path d="M1174.38 306.945V278.462L1146.63 272.729V301.211" stroke="#AFD157" stroke-width="3.69906" stroke-linecap="round" stroke-linejoin="round"/>
<ellipse cx="269.017" cy="173.215" rx="10.7273" ry="8.32288" fill="#FFC53D"/>
<path d="M277.893 172.291V143.809" stroke="#FFC53D" stroke-width="3.69906" stroke-linecap="round" stroke-linejoin="round"/>
<g clip-path="url(#clip0_2727_516)">
<g clip-path="url(#clip1_2727_516)">
<ellipse cx="563.347" cy="424.84" rx="20.6994" ry="22.3062" transform="rotate(-28.6896 563.347 424.84)" fill="#5BB42B"/>
<ellipse cx="20.6994" cy="22.3062" rx="20.6994" ry="22.3062" transform="matrix(-0.877234 -0.480064 -0.480064 0.877234 682.145 414.631)" fill="#5BB42B"/>
<path d="M667.501 514.091C654.667 517.887 636.01 505.644 628.286 499.048C627.98 497.941 627.669 495.168 628.881 492.925C630.397 490.122 662.429 491.071 669.736 492.62C677.043 494.168 683.543 509.345 667.501 514.091Z" fill="#4F9A15"/>
<path d="M639.643 570.547C643.357 569.029 646.974 548.794 646.241 538.721L610.566 544.414C609.833 552.59 609.784 569.262 611.543 570.547C613.742 572.153 635.001 572.445 639.643 570.547Z" fill="#4F9A15"/>
<path d="M642.431 548.136C653.535 540.752 638.525 494.694 627.681 488.893C616.836 483.092 599.197 483.971 591.451 488.893C583.704 493.816 564.561 540.576 575.665 548.136C586.768 555.695 631.328 555.519 642.431 548.136Z" fill="#5BB42B"/>
<path d="M578.974 570.547C575.26 569.029 571.644 548.794 572.377 538.721L608.051 544.414C608.784 552.59 608.833 569.262 607.074 570.547C604.875 572.153 583.617 572.445 578.974 570.547Z" fill="#5BB42B"/>
<path d="M552.374 513.208C565.016 517.603 584.227 506.249 592.252 500.022C592.61 498.931 593.05 496.175 591.944 493.879C590.562 491.007 558.521 490.452 551.149 491.656C543.777 492.86 536.572 507.715 552.374 513.208Z" fill="#5BB42B"/>
<path d="M637.534 530.127C637.534 545.825 625.709 549.595 611.123 549.595C596.537 549.595 584.713 545.825 584.713 530.127C584.713 509.491 596.537 497.811 611.123 497.811C625.709 497.811 637.534 509.491 637.534 530.127Z" fill="#A1DC3C"/>
<path d="M611.933 541.309C612.04 541.31 612.145 541.29 612.244 541.25C612.342 541.21 612.432 541.151 612.507 541.076L616.104 537.458C616.237 537.304 616.306 537.106 616.298 536.904C616.29 536.702 616.206 536.51 616.062 536.366C615.918 536.223 615.725 536.139 615.522 536.131C615.318 536.124 615.119 536.192 614.965 536.324L611.359 539.902C611.284 539.977 611.224 540.066 611.183 540.164C611.141 540.262 611.12 540.367 611.12 540.473C611.12 540.579 611.141 540.684 611.183 540.782C611.224 540.88 611.284 540.969 611.359 541.044C611.432 541.124 611.521 541.189 611.619 541.235C611.718 541.28 611.825 541.306 611.933 541.309Z" fill="#5BB42B"/>
<path d="M615.492 541.309C615.598 541.31 615.702 541.29 615.8 541.25C615.898 541.21 615.987 541.151 616.062 541.077C616.137 541.002 616.196 540.913 616.237 540.816C616.278 540.718 616.299 540.613 616.299 540.507C616.299 540.401 616.278 540.296 616.237 540.199C616.196 540.101 616.137 540.012 616.062 539.938L612.492 536.368C612.418 536.293 612.329 536.233 612.231 536.193C612.134 536.152 612.029 536.131 611.923 536.131C611.817 536.131 611.712 536.152 611.615 536.193C611.517 536.233 611.428 536.293 611.354 536.368C611.204 536.518 611.12 536.722 611.12 536.934C611.12 537.146 611.204 537.349 611.354 537.499L614.931 541.077C615.08 541.225 615.282 541.308 615.492 541.309V541.309Z" fill="#5BB42B"/>
<path d="M675.336 460.664C675.336 487.977 645.232 497.034 608.644 497.034C572.056 497.034 541.73 487.977 541.73 460.664C541.73 421.428 572.056 404.598 608.644 404.598C645.232 404.598 675.336 418.321 675.336 460.664Z" fill="#5BB42B"/>
<path d="M567.105 424.795V433.081" stroke="#123041" stroke-width="7.76774" stroke-linecap="round"/>
<path d="M655.139 424.275V432.561" stroke="#123041" stroke-width="7.76774" stroke-linecap="round"/>
<path d="M555.711 451.203H564.514" stroke="#A1DC3C" stroke-width="10.357" stroke-linecap="round"/>
<path d="M651.514 451.203H660.317" stroke="#A1DC3C" stroke-width="10.357" stroke-linecap="round"/>
<path d="M620.961 442.947C620.961 436.725 620.961 433.597 609.31 433.597C597.658 433.597 597.658 436.169 597.658 442.947C597.658 454.052 602.875 460.525 609.31 460.525C615.745 460.525 620.961 453.276 620.961 442.947Z" fill="#D52C2F"/>
<path fill-rule="evenodd" clip-rule="evenodd" d="M597.678 444.096C598.025 454.497 603.1 460.525 609.31 460.525C613.818 460.525 617.727 456.969 619.665 451.288C617.411 448.654 614.076 446.37 610.047 444.958C605.656 443.418 601.261 443.202 597.678 444.096Z" fill="#FF686B"/>
<path fill-rule="evenodd" clip-rule="evenodd" d="M679.358 460.093C678.774 459.308 678.57 458.26 678.901 457.26C679.441 455.631 681.199 454.748 682.828 455.288C684.457 455.828 685.34 457.586 684.8 459.215C684.477 460.19 683.717 460.898 682.809 461.193C682.801 461.224 682.792 461.254 682.782 461.284L667.14 508.482C666.825 509.432 665.799 509.947 664.849 509.632C663.899 509.317 663.384 508.291 663.699 507.341L679.341 460.144C679.346 460.127 679.352 460.11 679.358 460.093Z" fill="#A1DC3C"/>
<path fill-rule="evenodd" clip-rule="evenodd" d="M538.31 460.093C538.894 459.308 539.098 458.26 538.767 457.26C538.227 455.631 536.469 454.748 534.84 455.288C533.211 455.828 532.328 457.586 532.868 459.215C533.191 460.19 533.951 460.898 534.859 461.193C534.867 461.224 534.876 461.254 534.886 461.284L550.528 508.482C550.843 509.432 551.869 509.947 552.819 509.632C553.769 509.317 554.284 508.291 553.969 507.341L538.327 460.144C538.322 460.127 538.316 460.11 538.31 460.093Z" fill="#A1DC3C"/>
</g>
<rect x="508.99" y="508.781" width="61.1064" height="73.7491" fill="#347162"/>
<path d="M508.99 582.529H570.097" stroke="#82A6B2" stroke-width="3.51186" stroke-linecap="round"/>
<path d="M508.99 508.781H570.097" stroke="#82A6B2" stroke-width="3.51186" stroke-linecap="round"/>
<path d="M566.586 509.484V514.752" stroke="#A1DC3C" stroke-width="3.51186" stroke-linecap="round"/>
<path d="M566.586 575.508V580.776" stroke="#A1DC3C" stroke-width="3.51186" stroke-linecap="round"/>
<rect x="551.838" y="482.795" width="48.4637" height="36.5233" fill="#347162"/>
<path d="M596.789 482.795V488.063" stroke="#82A6B2" stroke-width="3.51186" stroke-linecap="round"/>
<rect x="636.102" y="508.078" width="51.2732" height="23.1783" fill="#347162"/>
<path d="M636.119 508.078H687.392" stroke="#82A6B2" stroke-width="3.51186" stroke-linecap="round"/>
<rect x="622.074" y="484.9" width="47.7613" height="32.3091" fill="#347162"/>
<path d="M595.383 501.055H606.621V522.126" stroke="#A6BFC7" stroke-width="4.21423" stroke-linecap="round" stroke-linejoin="round"/>
<path d="M627.689 501.055H616.451V522.126" stroke="#A6BFC7" stroke-width="4.21423" stroke-linecap="round" stroke-linejoin="round"/>
<path d="M551.838 482.795H600.302" stroke="#82A6B2" stroke-width="3.51186" stroke-linecap="round"/>
<path d="M622.074 484.9H669.836" stroke="#82A6B2" stroke-width="3.51186" stroke-linecap="round"/>
<path d="M622.074 517.209H669.836" stroke="#82A6B2" stroke-width="3.51186" stroke-linecap="round"/>
<path d="M551.838 519.316H600.302" stroke="#82A6B2" stroke-width="3.51186" stroke-linecap="round"/>
<path d="M504.424 535.471V580.774C504.424 584.168 503.511 591.45 499.858 593.416C495.293 595.875 492.132 601.142 492.132 607.464" stroke="#A6BFC7" stroke-width="3.51186" stroke-linecap="round"/>
<path d="M500.562 549.517C500.562 548.354 501.506 547.41 502.67 547.41H508.991V559.35H502.67C501.506 559.35 500.562 558.407 500.562 557.243V549.517Z" fill="#A6BFC7"/>
<rect x="545.514" y="547.762" width="8.42846" height="11.9403" rx="2.10712" fill="#A6BFC7"/>
<rect x="488.623" y="603.602" width="7.02372" height="7.72609" rx="1.40474" fill="#347162"/>
<path d="M539.191 509.484V514.752" stroke="#82A6B2" stroke-width="3.51186" stroke-linecap="round"/>
<path d="M575.717 482.795V488.063" stroke="#82A6B2" stroke-width="3.51186" stroke-linecap="round"/>
<path d="M645.953 485.604V490.871" stroke="#82A6B2" stroke-width="3.51186" stroke-linecap="round"/>
<path d="M555.346 482.795V488.063" stroke="#82A6B2" stroke-width="3.51186" stroke-linecap="round"/>
<path d="M625.584 485.604V490.871" stroke="#82A6B2" stroke-width="3.51186" stroke-linecap="round"/>
<path d="M667.023 485.604V490.871" stroke="#82A6B2" stroke-width="3.51186" stroke-linecap="round"/>
<path d="M575.717 512.293V517.561" stroke="#82A6B2" stroke-width="3.51186" stroke-linecap="round"/>
<path d="M645.953 510.186V515.453" stroke="#82A6B2" stroke-width="3.51186" stroke-linecap="round"/>
<path d="M625.584 510.186V515.453" stroke="#82A6B2" stroke-width="3.51186" stroke-linecap="round"/>
<path d="M662.107 525.637V530.905" stroke="#82A6B2" stroke-width="3.51186" stroke-linecap="round"/>
<path d="M667.023 510.186V515.453" stroke="#82A6B2" stroke-width="3.51186" stroke-linecap="round"/>
<path d="M555.346 512.293V517.561" stroke="#82A6B2" stroke-width="3.51186" stroke-linecap="round"/>
<path d="M639.633 525.637V530.905" stroke="#82A6B2" stroke-width="3.51186" stroke-linecap="round"/>
<path d="M596.789 512.293V517.561" stroke="#82A6B2" stroke-width="3.51186" stroke-linecap="round"/>
<path d="M683.883 525.637V530.905" stroke="#82A6B2" stroke-width="3.51186" stroke-linecap="round"/>
<path d="M683.883 508.781V514.049" stroke="#82A6B2" stroke-width="3.51186" stroke-linecap="round"/>
<path d="M512.504 509.484V514.752" stroke="#82A6B2" stroke-width="3.51186" stroke-linecap="round"/>
<path d="M539.191 575.508V580.776" stroke="#82A6B2" stroke-width="3.51186" stroke-linecap="round"/>
<path d="M512.504 575.508V580.776" stroke="#82A6B2" stroke-width="3.51186" stroke-linecap="round"/>
<path d="M661.899 531.609V543.199M661.899 574.103L645.744 592.716C645.393 593.184 644.62 594.261 644.339 594.823C644.059 595.385 643.988 597.164 643.988 597.984M661.899 574.103L678.053 592.716C678.405 593.184 679.177 594.261 679.458 594.823C679.739 595.385 679.809 597.164 679.809 597.984M661.899 574.103V543.199M661.899 574.103V601.144M661.899 543.199L678.756 531.609M661.899 543.199L645.042 531.609" stroke="#A6BFC7" stroke-width="2.80949" stroke-linecap="round" stroke-linejoin="round"/>
<path d="M636.119 531.258H687.392" stroke="#82A6B2" stroke-width="3.51186" stroke-linecap="round"/>
<path d="M549.729 535.822V581.125C549.729 584.52 550.642 591.801 554.294 593.768C558.859 596.226 562.02 601.494 562.02 607.815" stroke="#A6BFC7" stroke-width="3.51186" stroke-linecap="round"/>
<rect x="558.156" y="603.953" width="7.02372" height="7.72609" rx="1.40474" fill="#347162"/>
<path d="M573.787 610.273L570.275 622.214" stroke="#A6BFC7" stroke-width="2.80949" stroke-linecap="round" stroke-linejoin="round"/>
<path d="M646.131 610.273L649.643 622.214" stroke="#A6BFC7" stroke-width="2.80949" stroke-linecap="round" stroke-linejoin="round"/>
<circle cx="610.133" cy="573.4" r="51.2732" fill="#E5E5E5" stroke="#82A6B2" stroke-width="3.51186"/>
<path d="M597.636 573.457V564.677L579.229 583.093L583.577 587.534L597.636 573.457ZM639.581 567.97C638.217 561.111 633.062 555.967 632.47 555.358L619.818 542.498L612.587 549.725L612.072 550.24V559.019L619.792 551.303L626.989 558.616L628.087 559.731L628.164 559.808C628.164 559.808 628.645 560.279 629.305 561.068C631.331 563.395 632.769 566.173 633.499 569.17C634.529 574.314 635.043 580.375 629.305 587.731V596.802C629.845 596.33 630.163 595.996 630.309 595.876C635.455 590.835 638.535 585.742 639.744 580.298C640.581 576.225 640.528 572.02 639.59 567.97H639.581ZM601.256 595.07L601.067 594.976H600.973C600.412 594.683 599.878 594.342 599.377 593.956C598.906 593.621 598.331 593.175 597.662 592.601C596.615 591.744 595.312 590.578 593.725 589.026L590.165 585.391L585.773 589.78L589.316 593.39V593.441C594.797 598.791 597.61 600.3 598.648 600.737C601.935 602.355 605.496 603.341 609.147 603.644C610.825 603.774 612.512 603.74 614.183 603.541L614.586 603.498V597.205C610.031 597.926 605.365 597.178 601.265 595.07H601.256Z" fill="#347162"/>
<path d="M608.978 553.344V590.827H600.752V561.574L601.575 560.751L602.021 560.305L604.509 557.819L606.19 556.139L606.739 555.59L608.429 553.901L608.978 553.344Z" fill="#347162"/>
<path d="M626.2 561.719V599.116L626.097 599.193C625.72 599.433 625.317 599.682 624.888 599.922C624.75 600.008 624.605 600.085 624.459 600.162C624.081 600.376 623.678 600.591 623.267 600.796C622.855 601.002 622.486 601.174 622.074 601.354L621.397 601.645L620.47 602.005L619.715 602.271C619.201 602.442 618.669 602.605 618.12 602.751L617.717 602.854V561.719H626.2Z" fill="#347162"/>
<path d="M617.717 571.605H608.977V580.093H617.717V571.605Z" fill="#347162"/>
<path d="M529.356 452.24V575.858M529.356 575.858L514.255 595.875M529.356 575.858V608.869M529.356 575.858L544.106 595.875M500.91 617.649C500.91 617.649 501.071 614.804 501.613 613.083C502.018 611.795 503.368 609.923 503.368 609.923L514.255 595.875M557.802 617.649C557.802 617.649 557.721 614.777 557.1 613.083C556.613 611.758 555.344 609.923 555.344 609.923L544.106 595.875M529.356 623.97V608.869M514.255 595.875L529.356 608.869M529.356 608.869L544.106 595.875" stroke="#A6BFC7" stroke-width="3.51186" stroke-linecap="round"/>
<rect x="554.643" y="616.596" width="7.02372" height="7.72609" rx="1.40474" fill="#347162"/>
<rect x="497.75" y="616.596" width="7.02372" height="7.72609" rx="1.40474" fill="#347162"/>
<rect x="525.846" y="622.213" width="7.02372" height="7.72609" rx="1.40474" fill="#347162"/>
<path d="M717.595 458.912V559.351M717.595 559.351L702.494 579.369M717.595 559.351V592.363M717.595 559.351L732.344 579.369M689.148 601.142C689.148 601.142 689.31 598.298 689.851 596.577C690.256 595.288 691.607 593.416 691.607 593.416L702.494 579.369M746.041 601.142C746.041 601.142 745.96 598.27 745.338 596.577C744.852 595.251 743.582 593.416 743.582 593.416L732.344 579.369M717.595 607.464V592.363M702.494 579.369L717.595 592.363M717.595 592.363L732.344 579.369" stroke="#A6BFC7" stroke-width="3.51186" stroke-linecap="round"/>
<rect x="525.846" y="473.311" width="7.02372" height="7.02372" rx="1.40474" fill="#347162"/>
<path d="M527.252 459.264H531.466" stroke="#347162" stroke-width="2.80949" stroke-linecap="round"/>
<path d="M712.597 482.09C710.997 483.026 692.311 484.548 692.311 486.304C692.311 488.06 702.846 489.816 717.596 489.816C732.346 489.816 742.881 488.06 742.881 486.304C742.881 484.548 724.195 483.26 722.595 482.324C720.996 481.387 720.396 479.982 717.596 479.982C714.796 479.982 714.196 481.153 712.597 482.09Z" fill="#C79622"/>
<path d="M520.736 463.829C517.926 465.233 485.111 468.394 485.111 470.15C485.111 471.906 512.169 473.311 529.515 473.311C546.861 473.311 573.919 472.257 573.919 470.501C573.919 468.745 541.104 465.585 538.295 464.18C535.485 462.775 534.431 460.668 529.515 460.668C524.598 460.668 523.545 462.424 520.736 463.829Z" fill="#C79622"/>
<rect x="685.986" y="597.982" width="7.02372" height="7.72609" rx="1.40474" fill="#347162"/>
<rect x="676.896" y="596.391" width="5.61898" height="5.61898" rx="1.40474" fill="#347162"/>
<rect x="659.199" y="599.199" width="5.61898" height="5.61898" rx="1.40474" fill="#347162"/>
<rect x="567.887" y="617.574" width="7.02372" height="7.72609" rx="1.40474" transform="rotate(15 567.887 617.574)" fill="#347162"/>
<rect width="7.02372" height="7.72609" rx="1.40474" transform="matrix(-0.965926 0.258819 0.258819 0.965926 652.033 617.574)" fill="#347162"/>
<rect x="714.084" y="603.602" width="7.02372" height="7.72609" rx="1.40474" fill="#347162"/>
<rect x="714.084" y="489.816" width="7.02372" height="4.21423" rx="1.40474" fill="#347162"/>
<rect x="742.881" y="597.982" width="7.02372" height="7.72609" rx="1.40474" fill="#347162"/>
<path d="M715.488 479.281H719.703" stroke="#347162" stroke-width="2.80949" stroke-linecap="round"/>
<rect x="589.061" y="496.139" width="9.83321" height="9.83321" rx="2.10712" fill="#A6BFC7"/>
<rect x="602.406" y="505.27" width="8.42846" height="4.9166" rx="2.10712" fill="#A6BFC7"/>
<rect x="612.24" y="505.27" width="8.42846" height="4.9166" rx="2.10712" fill="#A6BFC7"/>
<rect x="624.18" y="496.139" width="9.83321" height="9.83321" rx="2.10712" fill="#A6BFC7"/>
</g>
<g clip-path="url(#clip2_2727_516)">
<path d="M824.593 535.44C838.629 539.543 858.971 526.099 867.388 518.865C867.719 517.655 868.048 514.623 866.716 512.177C865.05 509.12 830.054 510.27 822.075 511.988C814.096 513.705 807.048 530.311 824.593 535.44Z" fill="#FFC532"/>
<path d="M852.127 601.103C848.069 599.444 844.118 577.335 844.919 566.328L883.899 572.549C884.7 581.482 884.753 599.699 882.831 601.103C880.428 602.858 857.2 603.177 852.127 601.103Z" fill="#FFC532"/>
<path d="M849.081 576.615C836.949 568.547 853.349 518.222 865.198 511.884C877.048 505.545 896.321 506.505 904.785 511.884C913.249 517.262 934.165 568.355 922.033 576.615C909.902 584.874 861.212 584.682 849.081 576.615Z" fill="#FFDB40"/>
<path d="M918.414 601.103C922.472 599.444 926.423 577.335 925.622 566.328L886.642 572.549C885.841 581.482 885.788 599.699 887.71 601.103C890.113 602.858 913.341 603.177 918.414 601.103Z" fill="#FFDB40"/>
<path d="M882.403 569.156C882.286 569.157 882.171 569.135 882.064 569.091C881.956 569.047 881.858 568.983 881.776 568.902L877.845 564.948C877.7 564.78 877.625 564.564 877.633 564.343C877.642 564.122 877.734 563.912 877.892 563.755C878.049 563.599 878.26 563.507 878.482 563.499C878.704 563.49 878.922 563.565 879.091 563.709L883.03 567.619C883.113 567.701 883.178 567.798 883.223 567.905C883.268 568.012 883.291 568.127 883.291 568.243C883.291 568.359 883.268 568.473 883.223 568.58C883.178 568.688 883.113 568.785 883.03 568.866C882.95 568.954 882.854 569.025 882.746 569.075C882.638 569.125 882.521 569.152 882.403 569.156Z" fill="#FFB132"/>
<path d="M878.514 569.156C878.399 569.157 878.285 569.135 878.178 569.091C878.071 569.048 877.974 568.983 877.892 568.902C877.81 568.821 877.745 568.724 877.7 568.617C877.656 568.51 877.633 568.396 877.633 568.28C877.633 568.164 877.656 568.05 877.7 567.943C877.745 567.836 877.81 567.739 877.892 567.658L881.792 563.757C881.873 563.675 881.97 563.61 882.077 563.565C882.184 563.521 882.298 563.498 882.414 563.498C882.53 563.498 882.644 563.521 882.751 563.565C882.858 563.61 882.955 563.675 883.036 563.757C883.199 563.922 883.291 564.144 883.291 564.375C883.291 564.607 883.199 564.829 883.036 564.993L879.128 568.902C878.964 569.064 878.744 569.155 878.514 569.156V569.156Z" fill="#FFB132"/>
<path d="M817.087 481.739C817.087 511.27 849.469 521.062 888.827 521.062C928.186 521.062 960.807 511.27 960.807 481.739C960.807 431.385 928.186 414.121 888.827 414.121C849.469 414.121 817.087 428.987 817.087 481.739Z" fill="#FFDB40"/>
<path d="M935.348 496.164H926.86" stroke="#FCA18E" stroke-width="11.3165" stroke-linecap="round"/>
<path d="M841.42 496.164H832.933" stroke="#FCA18E" stroke-width="11.3165" stroke-linecap="round"/>
<path d="M918.373 475.795V484.848" stroke="#123041" stroke-width="8.4874" stroke-linecap="round"/>
<path d="M849.908 475.795V484.848" stroke="#123041" stroke-width="8.4874" stroke-linecap="round"/>
<path d="M869.711 488.809C869.711 493.965 876.171 496.164 884.14 496.164C892.108 496.164 898.568 493.965 898.568 488.809C898.568 483.653 892.108 477.492 884.14 477.492C876.171 477.492 869.711 483.653 869.711 488.809Z" fill="#FFB132"/>
<path d="M899.554 394.441C890.971 402.052 886.04 410.589 884.581 418.358L899.686 416.747C905.906 416.084 911.864 408.752 911.589 399.853C911.314 390.955 903.919 390.57 899.554 394.441Z" fill="#FFDB40"/>
<path d="M883.79 406.466C886.463 409.076 887.138 414.762 887.142 417.279C881.965 416.801 873.278 415.209 871.72 411.894C870.163 408.579 871.134 404.457 873.031 403.475C874.927 402.493 880.45 403.204 883.79 406.466Z" fill="#FFDB40"/>
<path d="M878.831 535.657C891.87 542.278 914.342 532.817 923.948 527.258C924.497 526.13 924.028 522.76 922.901 520.213C919.866 513.358 888.839 511.926 880.681 512.143C872.522 512.36 862.532 527.381 878.831 535.657Z" fill="#FFC532"/>
<g clip-path="url(#clip3_2727_516)">
<rect width="215.014" height="16.0939" rx="3.21877" transform="matrix(-1 0 0 1 974.391 523.846)" fill="#FF686B"/>
<rect width="59.8692" height="13.5189" rx="3.21877" transform="matrix(-1 0 0 1 894.562 496.164)" fill="#FF686B"/>
<rect width="3.21878" height="69.0378" rx="1.28751" transform="matrix(-0.810295 -0.586022 -0.586022 0.810295 886.195 543.758)" fill="#FCA18E"/>
<rect x="843.064" y="543.758" width="3.21878" height="69.0378" rx="1.28751" transform="rotate(-35.8752 843.064 543.758)" fill="#FCA18E"/>
<rect x="871.672" y="506.117" width="3.21878" height="39.1891" rx="1.28751" transform="rotate(-16.9822 871.672 506.117)" fill="#FCA18E"/>
<rect width="3.21878" height="39.1891" rx="1.28751" transform="matrix(-0.956396 -0.292074 -0.292074 0.956396 857.588 506.117)" fill="#FCA18E"/>
<ellipse cx="3.86253" cy="3.86253" rx="3.86253" ry="3.86253" transform="matrix(-1 0 0 1 888.77 539.939)" fill="#FFC53D"/>
<ellipse cx="844.347" cy="543.802" rx="3.86253" ry="3.86253" fill="#FFC53D"/>
<ellipse cx="5.15004" cy="5.15004" rx="5.15004" ry="5.15004" transform="matrix(-1 0 0 1 869.459 565.689)" fill="#FFC53D"/>
<ellipse cx="3.86253" cy="3.86253" rx="3.86253" ry="3.86253" transform="matrix(-1 0 0 1 848.213 594.66)" fill="#FCA18E"/>
<ellipse cx="884.907" cy="598.523" rx="3.86253" ry="3.86253" fill="#FCA18E"/>
</g>
</g>
<path fill-rule="evenodd" clip-rule="evenodd" d="M1198.22 160.507L1197.33 161.17L1199.13 161.87C1198.81 161.391 1198.51 160.936 1198.22 160.507ZM1200.85 164.478L1201.95 174.092L1200.38 174.504L1201.7 175.433L1203.03 182.132L1201.42 183.658L1203.82 185.5L1204.47 191.476L1201.96 192.504L1204.89 193.293L1205.59 197.023L1197.95 199.325L1206.34 199.883C1206.34 199.883 1206.92 203.078 1207.46 208.423C1209.46 228.505 1196.03 244.24 1194.22 244.86C1192.6 245.414 1174.49 203.985 1176.5 176.081L1175.44 178.038L1171.83 179.989L1173.69 181.572L1169.5 187.981L1165.02 189.55L1168.53 189.891L1166.34 193.838L1153.45 197.709L1164.96 196.827C1164.96 196.827 1163.06 200.211 1159.25 205.951C1144.92 227.516 1112.25 247.08 1109.13 248.079C1106 249.079 1118.41 196.27 1153.08 165.635C1157.42 161.796 1162.72 157.702 1168.35 153.666L1164.08 150.444L1163.24 157.027L1144.44 167.338L1143.14 164.888L1142.11 167.815L1131.52 174.733L1128.36 172.989L1126.24 178.423L1116.58 183.654L1113.9 179.99L1113.73 185.623L1107.81 189.401L1101.02 177.719L1103.36 192.665C1103.36 192.665 1098.28 195.87 1089.62 200.469C1057.09 217.747 1025.76 205.231 1024.03 202.511C1022.54 200.174 1079.59 144.633 1125.84 126.469L1125.04 126.242L1125.73 121.955L1121.72 125.673L1115.06 124.289L1118.48 111.806L1109.76 123.533C1109.76 123.533 1104.06 122.321 1094.95 119.661C1060.73 109.667 1047.91 80.2167 1048.6 77.2072C1049.22 74.5152 1133.17 75.0151 1176.18 95.9257C1175.52 93.3124 1175 90.7714 1174.65 88.3716C1169.47 52.8643 1200.27 5.15901 1202.11 6.88535C1203.95 8.61169 1216.09 34.2919 1211.29 56.4134C1210.01 62.3016 1208.96 65.6747 1208.96 65.6747L1199.99 61.6546L1207.79 68.5679L1206.55 72.4942L1203.33 71.7769L1205.87 74.3669L1205.45 76.184C1230.35 33.832 1307.79 -2.72076 1309.24 0.159458C1310.77 3.19666 1309.66 40.3407 1284.68 64.2704C1278.03 70.6398 1273.73 74.1247 1273.73 74.1247L1262.79 64.5764L1269.61 76.9655L1264.56 81.0082L1260.07 78.4519L1262.01 82.8886L1254.52 89.9469L1249.5 89.4228L1249.77 93.3996L1240.61 100.567L1237.95 100.173L1239.42 102.643L1233.6 108.063C1235.32 107.392 1237.04 106.807 1238.75 106.325C1278.73 95.0862 1365.25 131.734 1364.68 134.456C1364.12 137.178 1342.51 156.821 1310.63 152.812C1302.14 151.745 1297.01 150.709 1297.01 150.709L1294.25 137.947L1292.36 149.435L1286.37 148.193L1284.47 143.704L1283.43 147.477L1273.93 146.206L1270.51 142.471L1268.48 144.84L1257.69 142.494L1255.94 140.447L1255.65 142.818L1237.12 140.237L1234.39 135.187L1231.86 139.171C1231.86 139.171 1227.85 139.452 1222.44 139.742C1241.62 164.612 1281.98 220.912 1305.73 282.365C1349.89 396.681 1362.26 668.887 1362.26 668.887H1296.19C1296.19 668.887 1308.74 453.299 1283.25 348.146C1262.94 264.394 1217.4 189.772 1200.85 164.478ZM1195.13 106.756C1195.2 106.36 1195.27 105.964 1195.35 105.569L1194.25 105.464L1195.13 106.756ZM1202.1 82.6313C1202.29 82.2232 1202.48 81.8153 1202.67 81.4079L1201.59 81.7163L1202.1 82.6313ZM1220.69 114.579C1220.29 114.823 1219.89 115.07 1219.5 115.319L1219.26 113.963L1220.69 114.579Z" fill="#123041"/>
<defs>
<clipPath id="clip0_2727_516">
<rect width="282.228" height="242.871" fill="white" transform="translate(477 391.135)"/>
</clipPath>
<clipPath id="clip1_2727_516">
<rect width="153.801" height="191.086" fill="white" transform="translate(531.893 391.135)"/>
</clipPath>
<clipPath id="clip2_2727_516">
<rect width="215.58" height="228.028" fill="white" transform="matrix(-1 0 0 1 974.953 383)"/>
</clipPath>
<clipPath id="clip3_2727_516">
<rect width="250.095" height="129.009" fill="white" transform="matrix(-1 0 0 1 989.668 473.531)"/>
</clipPath>
</defs>
</svg>
