<svg width="273" height="129" viewBox="0 0 273 129" fill="none" xmlns="http://www.w3.org/2000/svg">
<g clip-path="url(#clip0_2454_278)">
<path d="M15.9878 15.1375C26.3673 21.2801 23.1608 24.3424 20.4791 28.8738C17.7974 33.4052 16.4454 37.5651 6.27658 31.5471C1.11444 28.4922 -0.896372 22.3422 1.78532 17.8108C4.46701 13.2794 10.8257 12.0825 15.9878 15.1375Z" fill="white"/>
<path d="M31.1994 16.1873C31.1994 21.9085 29.2039 21.9424 26.7423 21.9424C24.2807 21.9424 22.2852 21.9085 22.2852 16.1873C22.2852 10.4661 25.017 5.82812 26.7423 5.82812C28.4676 5.82812 31.1994 10.4661 31.1994 16.1873Z" fill="#6A5B3D"/>
<path d="M85.0276 16.1873C85.0276 21.9085 83.032 21.9424 80.5704 21.9424C78.1088 21.9424 76.1133 21.9085 76.1133 16.1873C76.1133 10.4661 78.8451 5.82812 80.5704 5.82812C82.2958 5.82812 85.0276 10.4661 85.0276 16.1873Z" fill="#6A5B3D"/>
<path d="M92.309 15.1375C81.9296 21.2801 85.1361 24.3424 87.8178 28.8738C90.4995 33.4052 91.8515 37.5651 102.02 31.5471C107.182 28.4922 109.193 22.3422 106.512 17.8108C103.83 13.2794 97.4712 12.0825 92.309 15.1375Z" fill="#123041"/>
<path d="M94.8716 20.3746C89.6984 23.4362 91.0379 24.5254 92.0554 26.2446C93.0728 27.9639 93.488 29.6001 98.5563 26.6007C101.129 25.0781 102.39 22.45 101.373 20.7307C100.355 19.0114 97.4445 18.852 94.8716 20.3746Z" fill="#FFC0C1"/>
<path d="M13.1166 20.3746C18.2899 23.4362 16.9504 24.5254 15.9329 26.2446C14.9154 27.9639 14.5003 29.6001 9.43203 26.6007C6.85916 25.0781 5.59826 22.45 6.61574 20.7307C7.63322 19.0114 10.5438 18.852 13.1166 20.3746Z" fill="#FFC0C1"/>
<path d="M89.8938 91.7803C81.033 91.6991 71.5914 80.3352 67.9782 74.6635C67.9982 73.9036 68.3386 72.0874 69.5404 70.9023C71.0426 69.421 91.1395 76.2238 95.466 78.6191C99.7926 81.0143 100.97 91.8817 89.8938 91.7803Z" fill="#E7EAEE"/>
<path d="M73.7407 121.528C76.1998 120.523 78.5941 107.126 78.1087 100.457L54.4892 104.227C54.0039 109.64 53.9715 120.678 55.1363 121.528C56.5923 122.592 70.667 122.785 73.7407 121.528Z" fill="#E7EAEE"/>
<path d="M75.5868 106.691C82.9379 101.802 73.0007 71.3085 65.8206 67.4676C58.6404 63.6268 46.9621 64.2087 41.8334 67.4676C36.7046 70.7266 24.0307 101.686 31.3818 106.691C38.7329 111.695 68.2357 111.579 75.5868 106.691Z" fill="white"/>
<path fill-rule="evenodd" clip-rule="evenodd" d="M55.9377 110.367C55.995 108.562 55.9356 104.882 54.6807 102.687C52.6718 99.1725 46.1093 96.8582 46.1093 96.8582C43.4807 96.4582 37.8121 94.5611 36.1664 90.1725C35.4662 88.3053 33.8516 87.0547 31.9854 86.2383C29.0523 95.0696 27.6767 104.17 31.3782 106.69C35.381 109.415 45.9517 110.622 55.9377 110.367Z" fill="#123041"/>
<path d="M33.5757 121.528C31.1167 120.523 28.7223 107.126 29.2077 100.457L52.8272 104.227C53.3125 109.64 53.3449 120.678 52.1801 121.528C50.7241 122.592 36.6494 122.785 33.5757 121.528Z" fill="#123041"/>
<path d="M18.8609 91.9581C18.7089 83.0983 29.8203 73.3609 35.395 69.5996C36.1552 69.5996 37.9796 69.8922 39.1959 71.0623C40.7163 72.525 34.4448 92.794 32.1642 97.1821C29.8837 101.57 19.051 103.033 18.8609 91.9581Z" fill="white"/>
<path d="M73.03 95.6296C73.03 104.776 65.2014 106.972 55.5443 106.972C45.8872 106.972 38.0586 104.776 38.0586 95.6296C38.0586 83.6064 45.8872 76.8008 55.5443 76.8008C65.2014 76.8008 73.03 83.6064 73.03 95.6296Z" fill="#FFC0C1"/>
<path d="M55.3949 103.886C55.4653 103.886 55.5351 103.873 55.6003 103.846C55.6656 103.82 55.7249 103.781 55.7749 103.731L58.1565 101.336C58.2441 101.234 58.29 101.103 58.2848 100.969C58.2796 100.835 58.2237 100.708 58.1284 100.613C58.0331 100.518 57.9053 100.463 57.7706 100.457C57.6359 100.452 57.5042 100.498 57.4018 100.585L55.0149 102.954C54.9647 103.003 54.9249 103.062 54.8977 103.127C54.8706 103.192 54.8566 103.262 54.8566 103.332C54.8566 103.402 54.8706 103.472 54.8977 103.537C54.9249 103.602 54.9647 103.66 55.0149 103.71C55.0631 103.763 55.1216 103.806 55.1869 103.836C55.2522 103.866 55.3229 103.883 55.3949 103.886Z" fill="#FF8D8D"/>
<path d="M57.7511 103.886C57.8209 103.886 57.8902 103.873 57.9549 103.846C58.0196 103.82 58.0785 103.781 58.1281 103.732C58.1778 103.682 58.2174 103.623 58.2443 103.559C58.2713 103.494 58.2852 103.425 58.2852 103.355C58.2852 103.284 58.2713 103.215 58.2443 103.15C58.2174 103.086 58.1778 103.027 58.1281 102.977L55.7651 100.614C55.7157 100.564 55.657 100.525 55.5922 100.498C55.5275 100.471 55.4581 100.457 55.388 100.457C55.3179 100.457 55.2485 100.471 55.1838 100.498C55.1191 100.525 55.0604 100.564 55.011 100.614C54.9121 100.714 54.8566 100.848 54.8566 100.989C54.8566 101.129 54.9121 101.263 55.011 101.363L57.3793 103.732C57.4782 103.83 57.6118 103.885 57.7511 103.886Z" fill="#FF8D8D"/>
<path d="M97.031 50.5718C97.031 68.4658 77.409 74.3996 53.5604 74.3996C29.7117 74.3996 9.94531 68.4658 9.94531 50.5718C9.94531 20.0606 29.7117 9.59961 53.5604 9.59961C77.409 9.59961 97.031 18.6077 97.031 50.5718Z" fill="white"/>
<path fill-rule="evenodd" clip-rule="evenodd" d="M56.5869 9.64844C56.7872 15.3581 57.9796 22.8472 61.7209 25.8758C65.0108 28.5391 68.8075 29.2173 72.2001 29.8234C75.0997 30.3414 77.7042 30.8066 79.4448 32.4134C80.3697 33.2671 81.19 34.4517 82.0786 35.7349C84.7558 39.6011 88.0522 44.3616 96.6924 43.6589C94.137 18.5049 77.2579 10.3486 56.5869 9.64844Z" fill="#123041"/>
<path d="M32.5703 47.3145V52.8002" stroke="#123041" stroke-width="5.14286" stroke-linecap="round"/>
<path d="M78.5156 47.3145V52.8002" stroke="#123041" stroke-width="5.14286" stroke-linecap="round"/>
<path d="M39.4297 60.0687C39.4297 53.0247 45.14 47.3145 52.184 47.3145H58.5611C65.6051 47.3145 71.3154 53.0247 71.3154 60.0687C71.3154 64.7647 67.5085 68.5716 62.8125 68.5716H47.9325C43.2365 68.5716 39.4297 64.7647 39.4297 60.0687Z" fill="#FFC0C1"/>
<path d="M48.6875 56.9141V60.6855" stroke="#123041" stroke-width="3.42857" stroke-linecap="round"/>
<path d="M62.4023 56.9141L62.4023 60.6855" stroke="#123041" stroke-width="3.42857" stroke-linecap="round"/>
<path d="M22.2852 60.6855H27.428" stroke="#FFC0C1" stroke-width="6.85714" stroke-linecap="round"/>
<path d="M83.6602 60.6855H88.803" stroke="#FFC0C1" stroke-width="6.85714" stroke-linecap="round"/>
<path d="M28.8024 76.1151C25.5208 74.3961 26.3547 71.7123 26.7454 70.8008C27.3965 70.931 29.8568 71.8597 31.8882 72.1722C33.9197 72.4847 35.8302 72.9865 37.4579 73.1167L37.0673 79.1721C35.5697 78.9767 32.084 77.834 28.8024 76.1151Z" fill="#173A52"/>
<ellipse cx="42.9692" cy="78.6445" rx="3.90665" ry="8.20397" transform="rotate(-20 42.9692 78.6445)" fill="#173A52"/>
<rect x="35.3906" y="72.6738" width="5.07865" height="16.4079" transform="rotate(-20 35.3906 72.6738)" fill="#173A52"/>
<path d="M41.8665 79.0462C43.4162 83.3039 43.0289 87.3536 41.0014 88.0916C38.9739 88.8295 35.561 87.993 33.4231 82.1194C31.2853 76.2457 33.3621 73.4111 35.3896 72.6732C37.417 71.9352 40.3169 74.7885 41.8665 79.0462Z" fill="#005271"/>
<ellipse cx="37.2779" cy="80.7173" rx="2.92999" ry="6.25064" transform="rotate(-20 37.2779 80.7173)" fill="#9EE7E5"/>
<ellipse cx="3.12532" cy="8.20397" rx="3.12532" ry="8.20397" transform="matrix(-0.939693 -0.34202 -0.34202 0.939693 75.3125 72.1289)" fill="#173A52"/>
<rect width="4.29732" height="16.4079" transform="matrix(-0.939693 -0.34202 -0.34202 0.939693 76.4141 72.5293)" fill="#173A52"/>
<path d="M71.4023 79.4362C69.8526 83.6939 69.5968 87.5096 70.8309 87.9588C72.065 88.4079 74.4039 87.1805 76.5417 81.3069C78.6796 75.4332 77.6768 72.9895 76.4427 72.5404C75.2086 72.0912 72.9519 75.1786 71.4023 79.4362Z" fill="#005271"/>
<ellipse cx="1.75799" cy="6.25064" rx="1.75799" ry="6.25064" transform="matrix(-0.939693 -0.34202 -0.34202 0.939693 77.9453 75.166)" fill="#9EE7E5"/>
<g clip-path="url(#clip1_2454_278)">
<rect x="95.0859" y="68.9941" width="11.6571" height="17.1429" rx="1.71429" transform="rotate(29.3185 95.0859 68.9941)" fill="#005271"/>
<rect x="95.6133" y="70.8613" width="8.91429" height="5.82857" rx="0.685714" transform="rotate(29.3185 95.6133 70.8613)" fill="#123041"/>
<circle cx="94.1252" cy="82.6097" r="3.77143" transform="rotate(29.3185 94.1252 82.6097)" fill="#9EE7E5"/>
<circle cx="94.1262" cy="82.6096" r="2.05714" transform="rotate(29.3185 94.1262 82.6096)" fill="#005271"/>
</g>
</g>
<rect x="227.812" y="6" width="47.3472" height="69.6283" rx="8.76501" transform="rotate(20 227.812 6)" fill="#005271"/>
<rect x="231.141" y="13.1387" width="36.2067" height="23.6736" rx="3.506" transform="rotate(20 231.141 13.1387)" fill="#123041"/>
<circle cx="232.913" cy="61.2058" r="15.3182" transform="rotate(20 232.913 61.2058)" fill="#9EE7E5"/>
<circle cx="232.912" cy="61.2073" r="8.35539" transform="rotate(20 232.912 61.2073)" fill="#005271"/>
<rect x="233.633" y="34.7949" width="16.7108" height="1.39257" transform="rotate(20 233.633 34.7949)" fill="#9EE7E5"/>
<rect x="232.801" y="33.0098" width="1.39257" height="1.39257" transform="rotate(20 232.801 33.0098)" fill="#9EE7E5"/>
<rect x="249.812" y="39.2012" width="1.39257" height="1.39257" transform="rotate(20 249.812 39.2012)" fill="#9EE7E5"/>
<rect x="233.398" y="27.2988" width="1.39257" height="5.57026" transform="rotate(20 233.398 27.2988)" fill="#9EE7E5"/>
<rect x="253.027" y="34.4434" width="1.39257" height="5.57026" transform="rotate(20 253.027 34.4434)" fill="#9EE7E5"/>
<rect x="235.656" y="25.1582" width="1.39257" height="2.78513" transform="rotate(20 235.656 25.1582)" fill="#9EE7E5"/>
<rect x="252.668" y="31.3496" width="1.39257" height="2.78513" transform="rotate(20 252.668 31.3496)" fill="#9EE7E5"/>
<rect x="237.918" y="23.0176" width="1.39257" height="2.78513" transform="rotate(20 237.918 23.0176)" fill="#9EE7E5"/>
<rect x="234.348" y="24.6816" width="1.39257" height="1.39257" transform="rotate(20 234.348 24.6816)" fill="#9EE7E5"/>
<rect x="253.977" y="31.8262" width="1.39257" height="1.39257" transform="rotate(20 253.977 31.8262)" fill="#9EE7E5"/>
<rect x="232.684" y="21.1113" width="1.39257" height="1.39257" transform="rotate(20 232.684 21.1113)" fill="#9EE7E5"/>
<rect x="234.469" y="20.2793" width="4.1777" height="1.39257" transform="rotate(20 234.469 20.2793)" fill="#9EE7E5"/>
<rect x="254.098" y="27.4238" width="4.1777" height="1.39257" transform="rotate(20 254.098 27.4238)" fill="#9EE7E5"/>
<rect x="257.547" y="30.1602" width="1.39257" height="1.39257" transform="rotate(20 257.547 30.1602)" fill="#9EE7E5"/>
<rect x="230.898" y="21.9434" width="1.39257" height="2.78513" transform="rotate(20 230.898 21.9434)" fill="#9EE7E5"/>
<rect x="258.379" y="31.9453" width="1.39257" height="2.78513" transform="rotate(20 258.379 31.9453)" fill="#9EE7E5"/>
<rect x="231.254" y="25.0371" width="2.78513" height="1.39257" transform="rotate(20 231.254 25.0371)" fill="#9EE7E5"/>
<rect x="254.812" y="33.6113" width="2.78513" height="1.39257" transform="rotate(20 254.812 33.6113)" fill="#9EE7E5"/>
<rect x="252.312" y="28.2559" width="1.39257" height="2.78513" transform="rotate(20 252.312 28.2559)" fill="#9EE7E5"/>
<rect x="240.656" y="19.5664" width="1.39257" height="5.57026" transform="rotate(20 240.656 19.5664)" fill="#9EE7E5"/>
<rect x="237.797" y="27.418" width="1.39257" height="2.78513" transform="rotate(20 237.797 27.418)" fill="#9EE7E5"/>
<rect x="249.574" y="31.7051" width="1.39257" height="2.78513" transform="rotate(20 249.574 31.7051)" fill="#9EE7E5"/>
<rect x="241.246" y="30.1562" width="5.57026" height="1.39257" transform="rotate(20 241.246 30.1562)" fill="#9EE7E5"/>
<rect x="239.465" y="30.9883" width="1.39257" height="1.39257" transform="rotate(20 239.465 30.9883)" fill="#9EE7E5"/>
<rect x="238.512" y="33.6055" width="8.35539" height="1.39257" transform="rotate(20 238.512 33.6055)" fill="#9EE7E5"/>
<rect x="246.004" y="33.3691" width="1.39257" height="1.39257" transform="rotate(20 246.004 33.3691)" fill="#9EE7E5"/>
<rect x="246.84" y="35.1543" width="1.39257" height="1.39257" transform="rotate(20 246.84 35.1543)" fill="#9EE7E5"/>
<rect x="237.68" y="31.8203" width="1.39257" height="1.39257" transform="rotate(20 237.68 31.8203)" fill="#9EE7E5"/>
<rect x="240.297" y="32.7734" width="1.39257" height="1.39257" transform="rotate(20 240.297 32.7734)" fill="#9EE7E5"/>
<rect x="244.219" y="34.2031" width="1.39257" height="1.39257" transform="rotate(20 244.219 34.2031)" fill="#9EE7E5"/>
<rect x="252.434" y="23.8535" width="1.39257" height="5.57026" transform="rotate(20 252.434 23.8535)" fill="#9EE7E5"/>
<rect x="241.012" y="22.6602" width="2.78513" height="1.39257" transform="rotate(20 241.012 22.6602)" fill="#9EE7E5"/>
<rect x="248.863" y="25.5176" width="2.78513" height="1.39257" transform="rotate(20 248.863 25.5176)" fill="#9EE7E5"/>
<rect x="244.105" y="22.3047" width="5.57026" height="1.39257" transform="rotate(20 244.105 22.3047)" fill="#9EE7E5"/>
<rect x="243.273" y="20.5195" width="1.39257" height="1.39257" transform="rotate(20 243.273 20.5195)" fill="#9EE7E5"/>
<rect x="249.816" y="22.9004" width="1.39257" height="1.39257" transform="rotate(20 249.816 22.9004)" fill="#9EE7E5"/>
<rect x="242.441" y="18.7344" width="1.39257" height="1.39257" transform="rotate(20 242.441 18.7344)" fill="#9EE7E5"/>
<rect x="251.602" y="22.0684" width="1.39257" height="1.39257" transform="rotate(20 251.602 22.0684)" fill="#9EE7E5"/>
<path d="M66.9196 78.1356C64.4509 78.1356 61.9246 81.1824 60.2958 82.8112C58.3476 86 58.3477 89.1336 58.3477 92.552C59 99.9334 67.577 103.804 71.5187 104.132C76.343 104.534 81.1518 104.635 86 104.5C92.8412 104.5 100.662 96.9508 105 92.552C109.233 88.2595 110.393 81.4901 112.42 75.7978C113.679 72.2635 113.72 68.3904 114.931 64.8015C117.735 56.4932 123.164 48.5829 130.451 43.6531C140.494 36.8596 153.868 32.3216 165.085 38.6312C172.463 42.7814 177.891 50.2586 180.606 58.1778C183.793 67.4743 187.39 77.9597 196.321 83.4173C199.443 85.3255 203.819 87.4868 207.598 87.4868C208.991 87.4868 210.935 87.8373 212.231 87.2703C213.705 86.6251 216.117 85.504 217.318 84.3697C218.708 83.0568 220.012 82.1707 221.214 80.6682C222.189 79.4496 223.233 78.0647 224.331 76.9667" stroke="#005271" stroke-width="2" stroke-linecap="round"/>
<defs>
<clipPath id="clip0_2454_278">
<rect width="108" height="128.229" fill="white"/>
</clipPath>
<clipPath id="clip1_2454_278">
<rect width="12.6857" height="18.5143" fill="white" transform="translate(95.125 68.2285) rotate(29.3185)"/>
</clipPath>
</defs>
</svg>
