<svg width="714" height="549" viewBox="0 0 714 549" fill="none" xmlns="http://www.w3.org/2000/svg">
<rect width="714" height="464" rx="12" fill="white"/>
<g clip-path="url(#clip0_2295_556)">
<ellipse cx="287.806" cy="290.688" rx="20.8018" ry="22.4166" transform="rotate(-28.6896 287.806 290.688)" fill="#5BB42B"/>
<ellipse cx="20.8018" cy="22.4166" rx="20.8018" ry="22.4166" transform="matrix(-0.877234 -0.480064 -0.480064 0.877234 407.191 280.432)" fill="#5BB42B"/>
<path d="M364.481 437.118C368.214 435.593 371.848 415.258 371.111 405.135L335.26 410.857C334.523 419.073 334.474 435.827 336.242 437.118C338.452 438.732 359.816 439.026 364.481 437.118Z" fill="#4B9B3A"/>
<path d="M367.283 414.595C378.441 407.175 363.358 360.89 352.459 355.06C341.561 349.23 323.835 350.113 316.05 355.06C308.265 360.006 289.028 406.999 300.186 414.595C311.344 422.192 356.125 422.015 367.283 414.595Z" fill="#49B236"/>
<path d="M303.513 437.118C299.781 435.593 296.146 415.258 296.883 405.135L332.734 410.857C333.471 419.073 333.52 435.827 331.752 437.118C329.542 438.732 308.179 439.026 303.513 437.118Z" fill="#49B236"/>
<path d="M362.359 396.498C362.359 412.274 350.477 416.063 335.818 416.063C321.16 416.063 309.277 412.274 309.277 396.498C309.277 375.76 321.16 364.021 335.818 364.021C350.477 364.021 362.359 375.76 362.359 396.498Z" fill="#9CD43D"/>
<path d="M336.634 407.735C336.741 407.736 336.847 407.716 336.946 407.675C337.045 407.635 337.135 407.576 337.211 407.501L340.826 403.865C340.959 403.71 341.029 403.511 341.021 403.308C341.013 403.105 340.928 402.912 340.784 402.768C340.639 402.624 340.445 402.54 340.24 402.532C340.036 402.524 339.836 402.593 339.681 402.726L336.058 406.321C335.982 406.396 335.921 406.486 335.88 406.584C335.839 406.683 335.817 406.788 335.817 406.895C335.817 407.002 335.839 407.107 335.88 407.206C335.921 407.304 335.982 407.394 336.058 407.469C336.131 407.549 336.22 407.615 336.319 407.661C336.418 407.706 336.525 407.732 336.634 407.735Z" fill="#49B236"/>
<path d="M340.211 407.735C340.317 407.736 340.422 407.716 340.52 407.676C340.618 407.635 340.708 407.576 340.783 407.502C340.859 407.427 340.919 407.337 340.959 407.239C341 407.141 341.021 407.036 341.021 406.929C341.021 406.823 341 406.717 340.959 406.619C340.919 406.521 340.859 406.432 340.783 406.357L337.196 402.77C337.121 402.694 337.032 402.634 336.934 402.593C336.836 402.552 336.73 402.531 336.624 402.531C336.518 402.531 336.412 402.552 336.314 402.593C336.216 402.634 336.127 402.694 336.052 402.77C335.902 402.921 335.817 403.125 335.817 403.338C335.817 403.551 335.902 403.755 336.052 403.906L339.647 407.502C339.797 407.651 339.999 407.734 340.211 407.735V407.735Z" fill="#49B236"/>
<path d="M400.35 326.689C400.35 354.137 370.098 363.239 333.329 363.239C296.559 363.239 266.084 354.137 266.084 326.689C266.084 287.259 296.559 270.346 333.329 270.346C370.098 270.346 400.35 284.137 400.35 326.689Z" fill="#5BB42B"/>
<path d="M291.582 298.449V306.776" stroke="#123041" stroke-width="7.80619" stroke-linecap="round"/>
<path d="M380.053 297.408V305.735" stroke="#123041" stroke-width="7.80619" stroke-linecap="round"/>
<path d="M280.133 317.182H288.98" stroke="#A1DC3C" stroke-width="10.4082" stroke-linecap="round"/>
<path d="M376.41 317.182H385.257" stroke="#A1DC3C" stroke-width="10.4082" stroke-linecap="round"/>
<path d="M345.708 308.886C345.708 302.633 345.708 299.489 333.998 299.489C322.289 299.489 322.289 302.074 322.289 308.886C322.289 320.046 327.531 326.551 333.998 326.551C340.465 326.551 345.708 319.265 345.708 308.886Z" fill="#D52C2F"/>
<path fill-rule="evenodd" clip-rule="evenodd" d="M322.309 310.039C322.658 320.491 327.758 326.549 333.999 326.549C338.529 326.549 342.459 322.973 344.406 317.262C342.141 314.616 338.79 312.322 334.744 310.904C330.33 309.356 325.91 309.139 322.309 310.039Z" fill="#FF686B"/>
</g>
<g clip-path="url(#clip1_2295_556)">
<path d="M277.857 375.547C293.612 384.871 288.745 389.519 284.675 396.397C280.604 403.275 278.552 409.589 263.117 400.455C255.282 395.818 252.229 386.483 256.3 379.605C260.37 372.727 270.022 370.91 277.857 375.547Z" fill="white"/>
<path d="M300.953 377.142C300.953 385.826 297.924 385.877 294.187 385.877C290.451 385.877 287.422 385.826 287.422 377.142C287.422 368.458 291.568 361.418 294.187 361.418C296.806 361.418 300.953 368.458 300.953 377.142Z" fill="#6A5B3D"/>
<path d="M382.656 377.142C382.656 385.826 379.627 385.877 375.89 385.877C372.154 385.877 369.125 385.826 369.125 377.142C369.125 368.458 373.272 361.418 375.89 361.418C378.509 361.418 382.656 368.458 382.656 377.142Z" fill="#6A5B3D"/>
<path d="M393.705 375.547C377.95 384.871 382.817 389.519 386.888 396.397C390.958 403.275 393.011 409.589 408.445 400.455C416.281 395.818 419.333 386.483 415.263 379.605C411.192 372.727 401.54 370.91 393.705 375.547Z" fill="#123041"/>
<path d="M397.594 383.498C389.742 388.145 391.775 389.798 393.319 392.408C394.864 395.018 395.494 397.501 403.187 392.948C407.092 390.637 409.006 386.648 407.461 384.038C405.917 381.429 401.499 381.187 397.594 383.498Z" fill="#FFC0C1"/>
<path d="M273.504 383.498C281.356 388.145 279.323 389.798 277.778 392.408C276.234 395.018 275.604 397.501 267.911 392.948C264.006 390.637 262.092 386.648 263.636 384.038C265.181 381.429 269.598 381.187 273.504 383.498Z" fill="#FFC0C1"/>
<path d="M382.166 522.044C379.575 523.576 350.714 523.422 344.883 519.581C337.789 514.908 335.19 508.623 336.9 503.195C340.571 491.542 348.83 491.78 357.937 492.56C367.044 493.341 392.976 494.647 394.886 499.586C397.1 505.31 388.902 518.061 382.166 522.044Z" fill="#E7EAEE"/>
<path d="M368.322 514.515C379.48 507.095 364.397 460.809 353.498 454.98C342.6 449.15 324.874 450.033 317.089 454.98C309.304 459.926 290.067 506.919 301.225 514.515C312.383 522.112 357.164 521.935 368.322 514.515Z" fill="white"/>
<path fill-rule="evenodd" clip-rule="evenodd" d="M338.507 520.094C338.594 517.355 338.504 511.767 336.599 508.434C333.55 503.1 323.588 499.587 323.588 499.587C319.599 498.98 310.994 496.1 308.497 489.439C307.433 486.604 304.981 484.705 302.147 483.466C297.694 496.872 295.605 510.688 301.224 514.513C307.3 518.65 323.348 520.482 338.507 520.094Z" fill="#123041"/>
<path d="M364.441 497.724C364.441 511.607 352.559 514.941 337.9 514.941C323.242 514.941 311.359 511.607 311.359 497.724C311.359 479.475 323.242 469.145 337.9 469.145C352.559 469.145 364.441 479.475 364.441 497.724Z" fill="#FFC0C1"/>
<path d="M337.675 510.257C337.782 510.257 337.888 510.237 337.987 510.197C338.086 510.157 338.176 510.097 338.252 510.023L341.867 506.386C342 506.232 342.07 506.033 342.062 505.83C342.054 505.626 341.969 505.433 341.825 505.289C341.68 505.145 341.486 505.061 341.282 505.053C341.077 505.045 340.877 505.115 340.722 505.247L337.099 508.843C337.023 508.918 336.962 509.007 336.921 509.106C336.88 509.204 336.858 509.31 336.858 509.416C336.858 509.523 336.88 509.629 336.921 509.727C336.962 509.826 337.023 509.915 337.099 509.99C337.172 510.071 337.261 510.136 337.36 510.182C337.459 510.228 337.566 510.253 337.675 510.257Z" fill="#FF8D8D"/>
<path d="M341.252 510.257C341.358 510.257 341.463 510.237 341.561 510.197C341.659 510.157 341.749 510.098 341.824 510.023C341.9 509.948 341.96 509.859 342.001 509.761C342.041 509.663 342.062 509.557 342.062 509.451C342.062 509.344 342.041 509.239 342.001 509.141C341.96 509.042 341.9 508.953 341.824 508.878L338.237 505.291C338.162 505.216 338.073 505.156 337.975 505.115C337.877 505.074 337.771 505.053 337.665 505.053C337.559 505.053 337.453 505.074 337.355 505.115C337.257 505.156 337.168 505.216 337.093 505.291C336.943 505.442 336.858 505.647 336.858 505.859C336.858 506.072 336.943 506.277 337.093 506.428L340.688 510.023C340.838 510.172 341.04 510.256 341.252 510.257V510.257Z" fill="#FF8D8D"/>
<path d="M344.174 523.608C341.583 525.14 312.722 524.986 306.891 521.146C299.796 516.472 297.198 510.188 298.908 504.76C302.579 493.107 310.838 493.344 319.945 494.125C329.052 494.905 354.984 496.211 356.894 501.15C359.107 506.875 350.91 519.625 344.174 523.608Z" fill="#123041"/>
<path d="M400.872 429.333C400.872 456.494 371.089 465.501 334.89 465.501C298.69 465.501 268.688 456.494 268.688 429.333C268.688 383.021 298.69 367.143 334.89 367.143C371.089 367.143 400.872 380.816 400.872 429.333Z" fill="white"/>
<path fill-rule="evenodd" clip-rule="evenodd" d="M339.488 367.219C339.792 375.885 341.602 387.254 347.281 391.852C352.275 395.894 358.038 396.924 363.187 397.843C367.588 398.63 371.542 399.336 374.184 401.775C375.588 403.071 376.833 404.869 378.181 406.816C382.245 412.685 387.249 419.911 400.364 418.844C396.486 380.662 370.865 368.281 339.488 367.219Z" fill="#123041"/>
<path d="M303.031 424.387V432.713" stroke="#123041" stroke-width="7.80619" stroke-linecap="round"/>
<path d="M372.77 424.387V432.713" stroke="#123041" stroke-width="7.80619" stroke-linecap="round"/>
<path d="M313.441 443.746C313.441 433.054 322.109 424.387 332.801 424.387H342.48C353.172 424.387 361.84 433.054 361.84 443.746V443.746C361.84 450.874 356.061 456.652 348.934 456.652H326.348C319.22 456.652 313.441 450.874 313.441 443.746V443.746Z" fill="#FFC0C1"/>
<path d="M327.492 438.961V444.685" stroke="black" stroke-width="5.20412" stroke-linecap="round"/>
<path d="M348.309 438.961L348.309 444.685" stroke="black" stroke-width="5.20412" stroke-linecap="round"/>
<path d="M287.422 444.684H295.228" stroke="#FFC0C1" stroke-width="10.4082" stroke-linecap="round"/>
<path d="M380.574 444.684H388.38" stroke="#FFC0C1" stroke-width="10.4082" stroke-linecap="round"/>
<path d="M332.059 488.943C318.865 491.554 308.76 479.201 303.008 470.856C301.566 467.785 302.9 463.549 305.352 462.807C309.719 461.485 329.113 465.439 336.282 467.664C343.451 469.89 348.551 485.679 332.059 488.943Z" fill="#E7EAEE"/>
<rect width="84.8272" height="7.28578" rx="1.04083" transform="matrix(-1 0 0 1 398.391 488.92)" fill="#173A52"/>
<path d="M407.636 441.082L295.199 385.877L261.4 466.365L332.824 492.562L407.636 441.082Z" fill="url(#paint0_linear_2295_556)"/>
<rect width="84.8272" height="55.6841" rx="2.60206" transform="matrix(-1 0 0 1 408.797 440.521)" fill="#005271"/>
<path d="M362.65 468.693V464.394L353.635 473.413L355.765 475.588L362.65 468.693ZM383.193 466.006C382.525 462.647 380 460.128 379.71 459.83L373.514 453.531L369.972 457.071L369.72 457.323V461.623L373.501 457.844L377.026 461.425L377.564 461.971L377.601 462.009C377.601 462.009 377.837 462.24 378.16 462.626C379.152 463.766 379.857 465.126 380.214 466.594C380.719 469.113 380.971 472.082 378.16 475.685V480.127C378.425 479.896 378.58 479.732 378.652 479.674C381.172 477.205 382.68 474.71 383.273 472.044C383.683 470.05 383.657 467.99 383.197 466.006H383.193ZM364.423 479.279L364.33 479.233H364.284C364.01 479.089 363.748 478.922 363.503 478.733C363.272 478.569 362.99 478.351 362.663 478.07C362.15 477.65 361.512 477.079 360.734 476.319L358.991 474.538L356.84 476.688L358.575 478.456V478.481C361.26 481.101 362.637 481.84 363.146 482.054C364.755 482.847 366.5 483.33 368.288 483.478C369.109 483.542 369.935 483.525 370.754 483.427L370.951 483.406V480.324C368.721 480.678 366.435 480.311 364.427 479.279H364.423Z" fill="white"/>
<path d="M368.205 458.842V477.199H364.176V462.873L364.579 462.47L364.798 462.251L366.016 461.034L366.839 460.211L367.108 459.942L367.936 459.115L368.205 458.842Z" fill="white"/>
<path d="M376.639 462.945V481.261L376.589 481.299C376.404 481.416 376.206 481.538 375.996 481.656C375.929 481.698 375.858 481.735 375.786 481.773C375.602 481.878 375.404 481.983 375.202 482.084C375.001 482.185 374.82 482.269 374.618 482.357L374.287 482.5L373.833 482.676L373.463 482.806C373.211 482.89 372.951 482.97 372.682 483.041L372.484 483.092V462.945H376.639Z" fill="white"/>
<path d="M372.484 467.785H368.203V471.942H372.484V467.785Z" fill="white"/>
<path d="M327.339 365.841C328.492 370.144 322.398 375.579 314.069 377.81C305.741 380.042 298.331 378.226 297.178 373.923C295.225 366.634 299.497 359.244 308.865 356.734C318.232 354.224 325.319 358.301 327.339 365.841Z" fill="#4F9A15"/>
<path d="M343.235 365.689C342.082 369.992 348.176 375.426 356.505 377.658C364.834 379.89 372.243 378.073 373.396 373.77C375.349 366.481 371.077 359.091 361.71 356.581C352.342 354.071 345.255 358.148 343.235 365.689Z" fill="#4F9A15"/>
</g>
<g clip-path="url(#clip2_2295_556)">
<path d="M447.146 523.507C443.413 521.981 439.779 501.647 440.516 491.523L476.367 497.245C477.104 505.461 477.153 522.216 475.385 523.507C473.175 525.121 451.811 525.414 447.146 523.507Z" fill="#E7EAEE"/>
<path d="M444.344 500.984C433.186 493.564 448.269 447.278 459.168 441.448C470.066 435.618 487.792 436.502 495.577 441.448C503.362 446.395 522.599 493.387 511.441 500.984C500.283 508.58 455.502 508.404 444.344 500.984Z" fill="white"/>
<path d="M508.114 523.507C511.846 521.981 515.481 501.647 514.744 491.523L478.893 497.245C478.156 505.461 478.107 522.216 479.875 523.507C482.085 525.121 503.448 525.414 508.114 523.507Z" fill="white"/>
<path d="M449.268 485.234C449.268 499.116 461.15 502.451 475.809 502.451C490.467 502.451 502.35 499.116 502.35 485.234C502.35 466.984 490.467 456.654 475.809 456.654C461.15 456.654 449.268 466.984 449.268 485.234Z" fill="#E7EAEE"/>
<path d="M474.991 494.124C474.884 494.125 474.778 494.104 474.679 494.064C474.58 494.024 474.49 493.965 474.414 493.89L470.799 490.254C470.666 490.099 470.596 489.9 470.604 489.697C470.612 489.493 470.697 489.3 470.841 489.157C470.986 489.013 471.18 488.928 471.385 488.921C471.589 488.913 471.789 488.982 471.944 489.114L475.567 492.71C475.643 492.785 475.704 492.874 475.745 492.973C475.786 493.071 475.808 493.177 475.808 493.284C475.808 493.39 475.786 493.496 475.745 493.594C475.704 493.693 475.643 493.782 475.567 493.857C475.494 493.938 475.405 494.003 475.306 494.049C475.207 494.095 475.1 494.12 474.991 494.124Z" fill="#FFC0C1"/>
<path d="M471.414 494.124C471.308 494.125 471.203 494.104 471.105 494.064C471.007 494.024 470.917 493.965 470.842 493.89C470.766 493.815 470.706 493.726 470.666 493.628C470.625 493.53 470.604 493.424 470.604 493.318C470.604 493.212 470.625 493.106 470.666 493.008C470.706 492.91 470.766 492.821 470.842 492.746L474.429 489.158C474.504 489.083 474.593 489.023 474.691 488.982C474.789 488.941 474.895 488.92 475.001 488.92C475.107 488.92 475.213 488.941 475.311 488.982C475.409 489.023 475.498 489.083 475.573 489.158C475.723 489.309 475.808 489.514 475.808 489.727C475.808 489.94 475.723 490.144 475.573 490.295L471.978 493.89C471.828 494.039 471.626 494.123 471.414 494.124Z" fill="#FFC0C1"/>
<path d="M523.478 337.458C519.314 350.953 501.488 377.374 497.717 388.422H462.069C458.298 377.374 441.846 350.953 436.569 337.458C430.024 320.721 436.831 298.967 455.216 298.967C470.396 298.967 477.507 324.033 479.503 337.458C481.499 324.033 489.13 298.967 503.79 298.967C522.175 298.967 528.775 320.285 523.478 337.458Z" fill="white"/>
<path d="M415.44 414.241C415.44 441.402 445.224 450.409 481.423 450.409C517.622 450.409 547.625 441.402 547.625 414.241C547.625 367.929 517.622 352.051 481.423 352.051C445.224 352.051 415.44 365.724 415.44 414.241Z" fill="white"/>
<path d="M505.992 406.174V414.5" stroke="#123041" stroke-width="7.80619" stroke-linecap="round"/>
<path d="M443.023 406.174V414.5" stroke="#123041" stroke-width="7.80619" stroke-linecap="round"/>
<path d="M521.605 426.469H513.799" stroke="#FFC0C1" stroke-width="10.4082" stroke-linecap="round"/>
<path d="M435.217 426.469H427.411" stroke="#FFC0C1" stroke-width="10.4082" stroke-linecap="round"/>
<path d="M465.922 427.751C465.922 432.44 465.922 434.798 474.509 434.798C483.096 434.798 483.096 432.859 483.096 427.751C483.096 422.642 479.251 414.502 474.509 414.502C469.767 414.502 465.922 423.061 465.922 427.751Z" fill="#FFC0C1"/>
<path fill-rule="evenodd" clip-rule="evenodd" d="M481.824 421.795C480.313 417.967 477.601 414.502 474.507 414.502C471.455 414.502 468.774 418.048 467.251 421.825C469.311 422.786 471.81 423.349 474.506 423.349C477.229 423.349 479.753 422.774 481.824 421.795Z" fill="#E7EAEE"/>
<path d="M476.635 407.215C475.614 407.215 475.145 407.641 474.507 408.066C473.869 407.641 473.4 407.215 472.379 407.215C471.102 407.215 470.361 408.553 470.677 409.344C471.102 410.408 472.663 411.473 474.507 411.899C476.351 411.473 477.912 410.408 478.337 409.344C478.654 408.553 477.912 407.215 476.635 407.215Z" fill="#FFC0C1"/>
<g clip-path="url(#clip3_2295_556)">
<path d="M445.498 445.181C445.722 445.532 446.018 445.672 446.138 445.698L457.636 440.49L467.167 432.216C467.193 432.096 467.19 431.769 466.965 431.418C466.684 430.98 466.218 428.806 465.201 429.149C464.184 429.492 463.729 430.711 462.415 431.553C461.101 432.396 460.601 432.098 458.629 433.362C456.658 434.626 456.282 435.486 454.967 436.328C453.653 437.171 452.715 437.154 451.182 438.137C449.648 439.12 448.615 440.401 447.301 441.244C445.986 442.086 444.907 441.851 444.172 442.632C443.436 443.412 445.217 444.743 445.498 445.181Z" fill="#E48174"/>
<path d="M463.196 472.783C462.972 472.432 462.968 472.105 462.994 471.985L472.526 463.71L484.023 458.503C484.143 458.529 484.439 458.669 484.663 459.019C484.944 459.457 486.725 460.788 485.99 461.569C485.253 462.35 483.956 462.255 482.642 463.097C481.327 463.94 481.389 464.519 479.418 465.783C477.446 467.047 476.508 467.03 475.194 467.872C473.88 468.715 473.503 469.575 471.97 470.558C470.437 471.541 468.841 471.945 467.527 472.788C466.213 473.631 465.976 474.709 464.96 475.052C463.943 475.395 463.477 473.221 463.196 472.783Z" fill="#E48174"/>
<path d="M456.363 438.525C452.253 441.16 446.208 445.345 446.129 445.705C446.086 445.904 446.679 447.689 448.102 450.622C449.246 452.98 451.801 455.517 454.117 459.129C456.433 462.741 457.682 466.116 459.347 468.139C461.418 470.656 462.793 471.941 462.993 471.984C463.352 472.063 469.678 468.316 473.788 465.681C477.898 463.046 483.943 458.861 484.022 458.502C484.065 458.3 483.502 456.546 482.059 453.578C480.928 451.25 478.369 448.743 476.023 445.084C473.677 441.426 472.457 438.061 470.814 436.061C468.719 433.51 467.36 432.267 467.158 432.222C466.799 432.143 460.473 435.89 456.363 438.525Z" fill="#FFC5AB"/>
<g filter="url(#filter0_d_2295_556)">
<path d="M469.219 463.433C464.628 464.367 460.182 462.085 461.397 458.917C462.611 455.749 464.861 457.15 467.818 456.548C470.776 455.947 472.404 454.289 474.146 456.325C475.888 458.36 473.809 462.5 469.219 463.433Z" fill="#FFC53D"/>
</g>
<g filter="url(#filter1_d_2295_556)">
<path d="M472.493 454.668C471.103 458.268 467.545 460.34 465.886 458.091C464.227 455.841 466.198 454.902 467.093 452.582C467.989 450.263 467.562 448.396 469.748 448.091C471.934 447.787 473.883 451.067 472.493 454.668Z" fill="#FFC53D"/>
</g>
<g filter="url(#filter2_d_2295_556)">
<path d="M460.521 453.673C456.804 454.751 452.99 453.173 453.776 450.483C454.563 447.792 456.509 448.794 458.904 448.099C461.298 447.405 462.527 445.93 464.098 447.489C465.669 449.047 464.237 452.595 460.521 453.673Z" fill="#FFC53D"/>
</g>
</g>
<g clip-path="url(#clip4_2295_556)">
<path d="M498.486 435.523L499.28 436.965L500.971 437.819L501.955 439.438L503.646 440.292L504.248 441.557L506.13 442.588L503.805 444.337L496.926 437.979L498.486 435.523Z" fill="#DAA427"/>
<path d="M485.291 465.137L484.498 463.695L482.807 462.841L481.822 461.222L480.131 460.368L479.529 459.103L477.647 458.072L479.972 456.324L486.851 462.681L485.291 465.137Z" fill="#DAA427"/>
<rect x="496.896" y="437.242" width="10.4083" height="26.0206" rx="1.04083" transform="rotate(42.7435 496.896 437.242)" fill="#FFC53D"/>
<path fill-rule="evenodd" clip-rule="evenodd" d="M491.793 445.768C491.729 445.986 491.634 446.529 491.768 446.962C491.846 447.213 492.079 447.416 492.33 447.633C492.618 447.884 492.929 448.155 493.05 448.541C493.228 449.117 492.943 449.89 492.777 450.206L498.769 448.345C499.043 448.26 499.197 447.968 499.111 447.694L498.076 444.36C497.991 444.085 497.699 443.932 497.424 444.017L491.486 445.862C491.593 445.83 491.695 445.799 491.793 445.768Z" fill="#935F3A"/>
<path d="M488.301 451.437C487.859 451.337 487.436 450.983 487.279 450.819L485.947 456.712C485.905 456.896 486.047 457.122 486.232 457.163L489.915 457.996C490.099 458.038 490.325 457.896 490.366 457.711L491.616 452.186C491.426 451.885 490.899 451.25 490.309 451.117C489.573 450.95 488.854 451.562 488.301 451.437Z" fill="#935F3A"/>
</g>
<g clip-path="url(#clip5_2295_556)">
<path d="M474.067 434.179C474.949 434.112 478.31 434.176 481.879 434.614C485.635 435.076 488.254 435.747 489.563 436.083" stroke="#6DA442" stroke-width="1.56124" stroke-linecap="round"/>
<path d="M470.956 459.489C471.796 459.767 475.072 460.519 478.64 460.958C482.397 461.419 485.1 461.402 486.452 461.393" stroke="#6DA442" stroke-width="1.56124" stroke-linecap="round"/>
<path d="M472.812 435.856C472.903 435.11 473.512 434.544 474.263 434.553C475.638 434.569 478.126 434.679 481.814 435.132C485.502 435.585 487.943 436.081 489.28 436.398C490.012 436.571 490.465 437.268 490.374 438.014L487.709 459.698C487.616 460.452 486.994 461.024 486.234 461.012C484.819 460.992 482.279 460.881 478.704 460.442C475.13 460.002 472.639 459.495 471.26 459.173C470.52 458.999 470.055 458.294 470.147 457.54L472.812 435.856Z" fill="#AFD157"/>
<mask id="mask0_2295_556" style="mask-type:alpha" maskUnits="userSpaceOnUse" x="470" y="434" width="21" height="28">
<path d="M472.812 435.854C472.903 435.108 473.512 434.542 474.263 434.551C475.638 434.568 478.126 434.677 481.814 435.13C485.502 435.583 487.943 436.079 489.28 436.396C490.012 436.569 490.465 437.266 490.374 438.012L487.709 459.696C487.616 460.45 486.994 461.022 486.234 461.01C484.819 460.99 482.279 460.879 478.704 460.44C475.13 460 472.639 459.493 471.26 459.171C470.52 458.997 470.055 458.292 470.147 457.538L472.812 435.854Z" fill="#AFD157"/>
</mask>
<g mask="url(#mask0_2295_556)">
<path d="M481.469 455.012C485.628 453.164 487.859 439.281 487.878 432.729L493.106 432.847L492.592 464.768L468.189 462.818C467.03 459.443 465.903 453.676 468.85 455.297C472.534 457.322 478.81 456.194 481.469 455.012Z" fill="#A0C248"/>
</g>
<path d="M475.109 438.502L473.777 449.349" stroke="#C4E0AE" stroke-width="1.56124" stroke-linecap="round"/>
<path d="M473.459 451.93L473.269 453.479" stroke="#C4E0AE" stroke-width="1.56124" stroke-linecap="round"/>
<circle cx="483.699" cy="456.071" r="2.86227" transform="rotate(7.00501 483.699 456.071)" fill="#CCF2C2"/>
<path d="M481.375 455.785C481.532 454.502 482.701 453.589 483.985 453.747" stroke="white" stroke-width="0.41633" stroke-linecap="round" stroke-dasharray="0.52 0.52 1.04 1.04"/>
<circle cx="481.299" cy="450.009" r="1.82144" transform="rotate(7.00501 481.299 450.009)" fill="#CCF2C2"/>
<path d="M480.005 449.85C480.093 449.137 480.742 448.63 481.455 448.717" stroke="white" stroke-width="0.312248" stroke-linecap="round" stroke-dasharray="0.52 0.78 1.04 1.04"/>
<circle cx="486.328" cy="447.481" r="1.30103" transform="rotate(7.00501 486.328 447.481)" fill="#CCF2C2"/>
<path d="M485.551 447.385C485.604 446.958 485.993 446.654 486.42 446.706" stroke="white" stroke-width="0.208165" stroke-linecap="round" stroke-dasharray="0.52 1.04 1.04 1.04"/>
<path d="M481.229 448.428L481.744 448.492L481.681 449.007L481.391 449.233L480.907 448.912L481.229 448.428Z" fill="#CCF2C2"/>
<path d="M486.195 446.418L486.711 446.481L486.648 446.997L486.1 447.192L486.164 446.676L486.195 446.418Z" fill="#CCF2C2"/>
<path d="M483.757 453.456L484.273 453.52L484.178 454.294L483.63 454.489L483.209 453.651L483.757 453.456Z" fill="#CCF2C2"/>
</g>
<path d="M486.967 467.472C492.898 473.906 509.195 466.593 515.362 461.076C518.872 457.936 518.59 453.052 515.398 451.295C509.362 447.973 500.453 449.33 492.984 448.587C484.369 447.73 475.571 455.111 486.967 467.472Z" fill="#DBDEE3"/>
<path d="M435.343 454.671C436.462 448.302 443.862 445.336 451.788 446.728C459.714 448.121 465.165 453.344 464.046 459.714C462.927 466.083 455.662 471.186 447.736 469.794C439.809 468.401 434.224 461.04 435.343 454.671Z" fill="#DBDEE3"/>
</g>
<g clip-path="url(#clip6_2295_556)">
<path d="M234.38 523.507C238.112 521.981 241.746 501.647 241.01 491.523L205.158 497.245C204.422 505.461 204.373 522.216 206.141 523.507C208.351 525.121 229.714 525.414 234.38 523.507Z" fill="#FFC532"/>
<path d="M259.024 470.886C246.087 474.564 227.47 462.062 219.778 455.351C219.482 454.236 219.199 451.445 220.441 449.205C221.994 446.404 254.173 447.7 261.499 449.334C268.826 450.968 275.196 466.288 259.024 470.886Z" fill="#FFC532"/>
<path d="M237.182 500.984C248.34 493.564 233.256 447.278 222.358 441.448C211.459 435.618 193.733 436.502 185.948 441.448C178.164 446.395 158.926 493.387 170.084 500.984C181.242 508.58 226.024 508.404 237.182 500.984Z" fill="#FFDB40"/>
<path d="M144.597 476.417C144.662 476.137 144.942 475.963 145.222 476.028L175.646 483.122C175.736 483.143 175.818 483.187 175.885 483.251L179.736 486.89C180.026 487.163 179.913 487.648 179.532 487.765L174.469 489.326C174.381 489.353 174.287 489.356 174.197 489.336L143.773 482.242C143.493 482.177 143.319 481.897 143.384 481.617L144.597 476.417Z" fill="#FFB132"/>
<path d="M173.411 523.507C169.679 521.981 166.045 501.647 166.781 491.523L202.633 497.245C203.369 505.461 203.418 522.216 201.65 523.507C199.44 525.121 178.077 525.414 173.411 523.507Z" fill="#FFDB40"/>
<path d="M147.492 473.73C150.039 460.523 169.591 449.539 179.048 445.697C180.177 445.935 182.795 446.941 184.235 449.06C186.035 451.708 170.376 479.849 165.615 485.653C160.855 491.456 144.308 490.238 147.492 473.73Z" fill="#FFDB40"/>
<path d="M206.533 494.124C206.64 494.125 206.746 494.104 206.845 494.064C206.944 494.024 207.034 493.965 207.11 493.89L210.725 490.254C210.858 490.099 210.927 489.9 210.919 489.697C210.911 489.493 210.827 489.3 210.682 489.157C210.537 489.013 210.343 488.928 210.139 488.921C209.934 488.913 209.735 488.982 209.579 489.114L205.956 492.71C205.88 492.785 205.82 492.874 205.778 492.973C205.737 493.071 205.716 493.177 205.716 493.284C205.716 493.39 205.737 493.496 205.778 493.594C205.82 493.693 205.88 493.782 205.956 493.857C206.029 493.938 206.118 494.003 206.217 494.049C206.316 494.095 206.424 494.12 206.533 494.124Z" fill="#FFBB4D"/>
<path d="M210.109 494.124C210.215 494.125 210.32 494.104 210.419 494.064C210.517 494.024 210.606 493.965 210.681 493.89C210.757 493.815 210.817 493.726 210.858 493.628C210.899 493.53 210.92 493.424 210.92 493.318C210.92 493.212 210.899 493.106 210.858 493.008C210.817 492.91 210.757 492.821 210.681 492.746L207.095 489.158C207.02 489.083 206.931 489.023 206.832 488.982C206.734 488.941 206.629 488.92 206.522 488.92C206.416 488.92 206.311 488.941 206.212 488.982C206.114 489.023 206.025 489.083 205.95 489.158C205.8 489.309 205.716 489.514 205.716 489.727C205.716 489.94 205.8 490.144 205.95 490.295L209.545 493.89C209.695 494.039 209.898 494.123 210.109 494.124V494.124Z" fill="#FFBB4D"/>
<path d="M266.607 413.72C266.607 440.881 236.823 449.887 200.624 449.887C164.425 449.887 134.422 440.881 134.422 413.72C134.422 367.408 164.425 351.529 200.624 351.529C236.823 351.529 266.607 365.202 266.607 413.72Z" fill="#FFDB40"/>
<path d="M157.838 426.99H165.644" stroke="#FFA052" stroke-width="10.4082" stroke-linecap="round"/>
<path d="M244.227 426.99H252.033" stroke="#FFA052" stroke-width="10.4082" stroke-linecap="round"/>
<path d="M173.449 408.258V416.584" stroke="#123041" stroke-width="7.80619" stroke-linecap="round"/>
<path d="M236.422 408.258V416.584" stroke="#123041" stroke-width="7.80619" stroke-linecap="round"/>
<path d="M218.205 420.227C218.205 424.969 212.264 426.992 204.935 426.992C197.605 426.992 191.664 424.969 191.664 420.227C191.664 415.484 197.605 409.818 204.935 409.818C212.264 409.818 218.205 415.484 218.205 420.227Z" fill="#FFB132"/>
<path d="M190.759 333.434C198.653 340.435 203.189 348.286 204.53 355.432L190.638 353.95C184.917 353.34 179.437 346.597 179.69 338.412C179.943 330.228 186.744 329.874 190.759 333.434Z" fill="#FFDB40"/>
<path d="M205.258 344.491C202.8 346.891 202.178 352.121 202.175 354.437C206.937 353.996 214.926 352.533 216.359 349.484C217.792 346.434 216.898 342.644 215.154 341.74C213.409 340.836 208.33 341.491 205.258 344.491Z" fill="#FFDB40"/>
<path d="M283.258 437.659C278.314 435.317 273.11 437.659 269.467 436.879C267.392 436.434 264.783 436.879 260.36 434.797C259.839 444.164 258.798 446.506 258.798 449.108C258.798 453.652 259.319 458.476 258.798 463.42C261.4 464.46 263.801 464.721 267.125 464.721C271.728 464.721 277.013 463.42 283.258 464.2C283.258 456.134 282.217 456.93 282.217 451.45C282.217 445.884 283.258 443.644 283.258 437.659Z" fill="#FFE8AD"/>
</g>
<defs>
<filter id="filter0_d_2295_556" x="461.193" y="455.341" width="14.0849" height="8.82412" filterUnits="userSpaceOnUse" color-interpolation-filters="sRGB">
<feFlood flood-opacity="0" result="BackgroundImageFix"/>
<feColorMatrix in="SourceAlpha" type="matrix" values="0 0 0 0 0 0 0 0 0 0 0 0 0 0 0 0 0 0 127 0" result="hardAlpha"/>
<feOffset dx="0.520412" dy="0.520412"/>
<feComposite in2="hardAlpha" operator="out"/>
<feColorMatrix type="matrix" values="0 0 0 0 0.822493 0 0 0 0 0.503639 0 0 0 0 0.129331 0 0 0 1 0"/>
<feBlend mode="normal" in2="BackgroundImageFix" result="effect1_dropShadow_2295_556"/>
<feBlend mode="normal" in="SourceGraphic" in2="effect1_dropShadow_2295_556" result="shape"/>
</filter>
<filter id="filter1_d_2295_556" x="465.242" y="448.071" width="8.23916" height="11.4745" filterUnits="userSpaceOnUse" color-interpolation-filters="sRGB">
<feFlood flood-opacity="0" result="BackgroundImageFix"/>
<feColorMatrix in="SourceAlpha" type="matrix" values="0 0 0 0 0 0 0 0 0 0 0 0 0 0 0 0 0 0 127 0" result="hardAlpha"/>
<feOffset dx="0.520413" dy="0.520413"/>
<feComposite in2="hardAlpha" operator="out"/>
<feColorMatrix type="matrix" values="0 0 0 0 0.822493 0 0 0 0 0.503639 0 0 0 0 0.129331 0 0 0 1 0"/>
<feBlend mode="normal" in2="BackgroundImageFix" result="effect1_dropShadow_2295_556"/>
<feBlend mode="normal" in="SourceGraphic" in2="effect1_dropShadow_2295_556" result="shape"/>
</filter>
<filter id="filter2_d_2295_556" x="453.672" y="446.799" width="11.5771" height="7.73721" filterUnits="userSpaceOnUse" color-interpolation-filters="sRGB">
<feFlood flood-opacity="0" result="BackgroundImageFix"/>
<feColorMatrix in="SourceAlpha" type="matrix" values="0 0 0 0 0 0 0 0 0 0 0 0 0 0 0 0 0 0 127 0" result="hardAlpha"/>
<feOffset dx="0.520412" dy="0.520412"/>
<feComposite in2="hardAlpha" operator="out"/>
<feColorMatrix type="matrix" values="0 0 0 0 0.822493 0 0 0 0 0.503639 0 0 0 0 0.129331 0 0 0 1 0"/>
<feBlend mode="normal" in2="BackgroundImageFix" result="effect1_dropShadow_2295_556"/>
<feBlend mode="normal" in="SourceGraphic" in2="effect1_dropShadow_2295_556" result="shape"/>
</filter>
<linearGradient id="paint0_linear_2295_556" x1="309.778" y1="423.943" x2="350.804" y2="481.036" gradientUnits="userSpaceOnUse">
<stop offset="0.25" stop-color="#96FFFF" stop-opacity="0"/>
<stop offset="1" stop-color="#96FFFF" stop-opacity="0.5"/>
</linearGradient>
<clipPath id="clip0_2295_556">
<rect width="146.236" height="192.032" fill="white" transform="translate(260.879 256.816)"/>
</clipPath>
<clipPath id="clip1_2295_556">
<rect width="163.93" height="172.777" fill="white" transform="translate(253.594 352.572)"/>
</clipPath>
<clipPath id="clip2_2295_556">
<rect width="169.654" height="229.502" fill="white" transform="matrix(-1 0 0 1 566.359 295.326)"/>
</clipPath>
<clipPath id="clip3_2295_556">
<rect width="31.7452" height="42.6738" fill="white" transform="translate(440.42 442.564) rotate(-32.6653)"/>
</clipPath>
<clipPath id="clip4_2295_556">
<rect width="14.5716" height="34.3472" fill="white" transform="translate(498.195 432.773) rotate(42.7435)"/>
</clipPath>
<clipPath id="clip5_2295_556">
<rect width="22.8981" height="31.7452" fill="white" transform="translate(470.832 430.635) rotate(7.00501)"/>
</clipPath>
<clipPath id="clip6_2295_556">
<rect width="180.063" height="201.92" fill="white" transform="translate(121.41 322.908)"/>
</clipPath>
</defs>
</svg>
