<svg width="399" height="134" viewBox="0 0 399 134" fill="none" xmlns="http://www.w3.org/2000/svg">
<path d="M202.717 53.9742L204.347 37.6006L217.712 47.1986L202.717 53.9742Z" fill="white"/>
<path d="M197 16C197 7.16344 204.163 0 213 0L383 0C391.837 0 399 7.16344 399 16V31C399 39.8366 391.837 47 383 47H213C204.163 47 197 39.8366 197 31V16Z" fill="white"/>
<path d="M212.01 30.5V17.09H213.27L221.136 28.376H220.65V17.09H222.09V30.5H220.83L212.964 19.142H213.45V30.5H212.01ZM225.624 30.5V17.09H234.264V18.44H227.064V23.102H233.904V24.452H227.064V29.15H234.264V30.5H225.624ZM237.006 30.5V17.09H245.646V18.44H238.446V23.102H245.286V24.452H238.446V29.15H245.646V30.5H237.006ZM248.387 30.5V17.09H252.797C254.129 17.09 255.287 17.366 256.271 17.918C257.255 18.458 258.017 19.232 258.557 20.24C259.097 21.236 259.367 22.418 259.367 23.786C259.367 25.142 259.097 26.324 258.557 27.332C258.017 28.34 257.255 29.12 256.271 29.672C255.287 30.224 254.129 30.5 252.797 30.5H248.387ZM249.827 29.15H252.797C253.829 29.15 254.723 28.934 255.479 28.502C256.235 28.058 256.817 27.434 257.225 26.63C257.645 25.826 257.855 24.878 257.855 23.786C257.855 22.694 257.645 21.752 257.225 20.96C256.805 20.156 256.217 19.538 255.461 19.106C254.705 18.662 253.817 18.44 252.797 18.44H249.827V29.15ZM264.139 30.5L269.035 17.09H270.583L275.479 30.5H273.967L272.815 27.224H266.821L265.651 30.5H264.139ZM267.289 25.874H272.311L269.593 18.17H270.025L267.289 25.874ZM281.969 30.716C281.117 30.716 280.343 30.554 279.647 30.23C278.951 29.906 278.363 29.474 277.883 28.934C277.403 28.382 277.061 27.776 276.857 27.116L278.153 26.63C278.465 27.542 278.951 28.238 279.611 28.718C280.271 29.186 281.057 29.42 281.969 29.42C282.545 29.42 283.049 29.33 283.481 29.15C283.925 28.958 284.267 28.694 284.507 28.358C284.747 28.022 284.867 27.632 284.867 27.188C284.867 26.528 284.687 26.018 284.327 25.658C283.967 25.298 283.451 25.022 282.779 24.83L280.367 24.11C279.419 23.834 278.687 23.372 278.171 22.724C277.667 22.076 277.415 21.338 277.415 20.51C277.415 19.802 277.589 19.178 277.937 18.638C278.285 18.086 278.759 17.654 279.359 17.342C279.971 17.03 280.661 16.874 281.429 16.874C282.233 16.874 282.953 17.024 283.589 17.324C284.237 17.612 284.783 17.996 285.227 18.476C285.671 18.956 285.989 19.49 286.181 20.078L284.921 20.582C284.633 19.79 284.183 19.19 283.571 18.782C282.971 18.374 282.263 18.17 281.447 18.17C280.931 18.17 280.475 18.26 280.079 18.44C279.695 18.62 279.395 18.878 279.179 19.214C278.963 19.55 278.855 19.946 278.855 20.402C278.855 20.954 279.029 21.452 279.377 21.896C279.725 22.328 280.259 22.652 280.979 22.868L283.103 23.498C284.159 23.81 284.957 24.26 285.497 24.848C286.037 25.436 286.307 26.174 286.307 27.062C286.307 27.782 286.121 28.418 285.749 28.97C285.389 29.51 284.879 29.936 284.219 30.248C283.571 30.56 282.821 30.716 281.969 30.716ZM293.966 30.716C293.114 30.716 292.34 30.554 291.644 30.23C290.948 29.906 290.36 29.474 289.88 28.934C289.4 28.382 289.058 27.776 288.854 27.116L290.15 26.63C290.462 27.542 290.948 28.238 291.608 28.718C292.268 29.186 293.054 29.42 293.966 29.42C294.542 29.42 295.046 29.33 295.478 29.15C295.922 28.958 296.264 28.694 296.504 28.358C296.744 28.022 296.864 27.632 296.864 27.188C296.864 26.528 296.684 26.018 296.324 25.658C295.964 25.298 295.448 25.022 294.776 24.83L292.364 24.11C291.416 23.834 290.684 23.372 290.168 22.724C289.664 22.076 289.412 21.338 289.412 20.51C289.412 19.802 289.586 19.178 289.934 18.638C290.282 18.086 290.756 17.654 291.356 17.342C291.968 17.03 292.658 16.874 293.426 16.874C294.23 16.874 294.95 17.024 295.586 17.324C296.234 17.612 296.78 17.996 297.224 18.476C297.668 18.956 297.986 19.49 298.178 20.078L296.918 20.582C296.63 19.79 296.18 19.19 295.568 18.782C294.968 18.374 294.26 18.17 293.444 18.17C292.928 18.17 292.472 18.26 292.076 18.44C291.692 18.62 291.392 18.878 291.176 19.214C290.96 19.55 290.852 19.946 290.852 20.402C290.852 20.954 291.026 21.452 291.374 21.896C291.722 22.328 292.256 22.652 292.976 22.868L295.1 23.498C296.156 23.81 296.954 24.26 297.494 24.848C298.034 25.436 298.304 26.174 298.304 27.062C298.304 27.782 298.118 28.418 297.746 28.97C297.386 29.51 296.876 29.936 296.216 30.248C295.568 30.56 294.818 30.716 293.966 30.716ZM301.445 30.5V17.09H302.885V30.5H301.445ZM310.928 30.716C310.076 30.716 309.302 30.554 308.606 30.23C307.91 29.906 307.322 29.474 306.842 28.934C306.362 28.382 306.02 27.776 305.816 27.116L307.112 26.63C307.424 27.542 307.91 28.238 308.57 28.718C309.23 29.186 310.016 29.42 310.928 29.42C311.504 29.42 312.008 29.33 312.44 29.15C312.884 28.958 313.226 28.694 313.466 28.358C313.706 28.022 313.826 27.632 313.826 27.188C313.826 26.528 313.646 26.018 313.286 25.658C312.926 25.298 312.41 25.022 311.738 24.83L309.326 24.11C308.378 23.834 307.646 23.372 307.13 22.724C306.626 22.076 306.374 21.338 306.374 20.51C306.374 19.802 306.548 19.178 306.896 18.638C307.244 18.086 307.718 17.654 308.318 17.342C308.93 17.03 309.62 16.874 310.388 16.874C311.192 16.874 311.912 17.024 312.548 17.324C313.196 17.612 313.742 17.996 314.186 18.476C314.63 18.956 314.948 19.49 315.14 20.078L313.88 20.582C313.592 19.79 313.142 19.19 312.53 18.782C311.93 18.374 311.222 18.17 310.406 18.17C309.89 18.17 309.434 18.26 309.038 18.44C308.654 18.62 308.354 18.878 308.138 19.214C307.922 19.55 307.814 19.946 307.814 20.402C307.814 20.954 307.988 21.452 308.336 21.896C308.684 22.328 309.218 22.652 309.938 22.868L312.062 23.498C313.118 23.81 313.916 24.26 314.456 24.848C314.996 25.436 315.266 26.174 315.266 27.062C315.266 27.782 315.08 28.418 314.708 28.97C314.348 29.51 313.838 29.936 313.178 30.248C312.53 30.56 311.78 30.716 310.928 30.716ZM320.729 30.5V18.44H317.021V17.09H325.841V18.44H322.169V30.5H320.729ZM325.695 30.5L330.591 17.09H332.139L337.035 30.5H335.523L334.371 27.224H328.377L327.207 30.5H325.695ZM328.845 25.874H333.867L331.149 18.17H331.581L328.845 25.874ZM339.184 30.5V17.09H340.444L348.31 28.376H347.824V17.09H349.264V30.5H348.004L340.138 19.142H340.624V30.5H339.184ZM358.918 30.716C357.97 30.716 357.1 30.548 356.308 30.212C355.516 29.864 354.826 29.384 354.238 28.772C353.662 28.148 353.212 27.416 352.888 26.576C352.564 25.736 352.402 24.812 352.402 23.804C352.402 22.796 352.564 21.872 352.888 21.032C353.212 20.192 353.662 19.46 354.238 18.836C354.826 18.212 355.516 17.732 356.308 17.396C357.1 17.048 357.97 16.874 358.918 16.874C359.83 16.874 360.646 17.036 361.366 17.36C362.098 17.684 362.71 18.104 363.202 18.62C363.706 19.124 364.066 19.658 364.282 20.222L362.932 20.816C362.596 20.036 362.08 19.412 361.384 18.944C360.7 18.464 359.878 18.224 358.918 18.224C357.934 18.224 357.058 18.458 356.29 18.926C355.522 19.394 354.922 20.048 354.49 20.888C354.058 21.716 353.842 22.688 353.842 23.804C353.842 24.908 354.058 25.88 354.49 26.72C354.922 27.56 355.522 28.214 356.29 28.682C357.058 29.138 357.934 29.366 358.918 29.366C359.878 29.366 360.7 29.132 361.384 28.664C362.08 28.196 362.596 27.572 362.932 26.792L364.282 27.386C364.066 27.938 363.706 28.472 363.202 28.988C362.71 29.492 362.098 29.906 361.366 30.23C360.646 30.554 359.83 30.716 358.918 30.716ZM367.22 30.5V17.09L375.86 17.09V18.44L368.66 18.44V23.102H375.5V24.452H368.66V29.15H375.86V30.5H367.22ZM380.024 26.648V26.468C380.024 25.928 380.12 25.454 380.312 25.046C380.516 24.626 380.768 24.248 381.068 23.912C381.368 23.564 381.68 23.24 382.004 22.94C382.46 22.508 382.868 22.076 383.228 21.644C383.588 21.2 383.768 20.684 383.768 20.096C383.768 19.76 383.684 19.442 383.516 19.142C383.348 18.842 383.096 18.602 382.76 18.422C382.436 18.23 382.04 18.134 381.572 18.134C380.9 18.134 380.324 18.344 379.844 18.764C379.364 19.184 379.058 19.742 378.926 20.438L377.648 20.168C377.756 19.508 377.99 18.932 378.35 18.44C378.71 17.948 379.166 17.564 379.718 17.288C380.27 17.012 380.888 16.874 381.572 16.874C382.292 16.874 382.922 17.024 383.462 17.324C384.014 17.624 384.44 18.02 384.74 18.512C385.052 18.992 385.208 19.52 385.208 20.096C385.208 20.636 385.094 21.116 384.866 21.536C384.638 21.956 384.35 22.346 384.002 22.706C383.654 23.054 383.306 23.402 382.958 23.75C382.562 24.146 382.214 24.56 381.914 24.992C381.614 25.412 381.464 25.904 381.464 26.468V26.648H380.024ZM380.078 30.5V28.52H381.518V30.5H380.078Z" fill="#005271"/>
<path d="M11.3379 52.257C10.2211 52.049 9.02736 51.8625 7.9039 52.1397C6.19627 52.5611 4.91307 54.9801 4.16534 56.3893C2.59672 59.3457 0.86379 63.6101 2.98611 66.7135C4.4777 68.8946 7.11961 70.0914 9.53668 70.8718C12.6399 71.8738 16.1692 72.1507 19.4111 71.9277C20.4486 71.8563 21.2055 71.7861 21.5364 70.7675C21.794 69.9743 21.9524 69.1432 22.1324 68.3299C22.5512 66.4382 22.9329 64.5307 22.9942 62.5877C23.0216 61.7194 22.9811 61.2582 22.2102 60.7693C20.9357 59.961 19.5268 59.2782 18.1542 58.6575C17.0344 58.1512 16.063 57.8206 14.8303 57.9601C13.1848 58.1463 11.3396 58.6883 9.9384 59.583C8.39319 60.5697 7.14854 63.1564 9.16736 64.341C10.7379 65.2626 14.7206 66.4794 15.6531 64.0542C15.7637 63.7667 16.27 62.5625 15.7763 62.4183C15.1617 62.2388 14.4147 62.4113 13.7871 62.4639" stroke="white" stroke-width="3" stroke-linecap="round"/>
<g clip-path="url(#clip0_2265_237)">
<g clip-path="url(#clip1_2265_237)">
<path d="M53.2808 17.5832C63.9655 23.9064 60.6647 27.0588 57.9042 31.7235C55.1436 36.3882 53.7518 40.6704 43.2839 34.4755C37.9699 31.3306 35.9 24.9998 38.6606 20.3351C41.4211 15.6704 47.9668 14.4383 53.2808 17.5832Z" fill="white"/>
<path d="M68.9421 18.6639C68.9421 24.5534 66.8879 24.5882 64.3539 24.5882C61.8198 24.5882 59.7656 24.5534 59.7656 18.6639C59.7656 12.7744 62.5778 8 64.3539 8C66.13 8 68.9421 12.7744 68.9421 18.6639Z" fill="#6A5B3D"/>
<path d="M124.354 18.6639C124.354 24.5534 122.3 24.5882 119.766 24.5882C117.232 24.5882 115.178 24.5534 115.178 18.6639C115.178 12.7744 117.99 8 119.766 8C121.542 8 124.354 12.7744 124.354 18.6639Z" fill="#6A5B3D"/>
<path d="M131.846 17.5832C121.161 23.9064 124.462 27.0588 127.223 31.7235C129.983 36.3882 131.375 40.6704 141.843 34.4755C147.157 31.3306 149.227 24.9998 146.466 20.3351C143.706 15.6704 137.16 14.4383 131.846 17.5832Z" fill="#123041"/>
<path d="M134.486 22.9738C129.16 26.1253 130.539 27.2466 131.587 29.0164C132.634 30.7863 133.061 32.4706 138.279 29.383C140.927 27.8156 142.225 25.1102 141.178 23.3403C140.13 21.5705 137.134 21.4064 134.486 22.9738Z" fill="#FFC0C1"/>
<path d="M50.3269 22.9738C55.6522 26.1253 54.2734 27.2466 53.226 29.0164C52.1786 30.7863 51.7512 32.4706 46.5339 29.383C43.8853 27.8156 42.5874 25.1102 43.6348 23.3403C44.6822 21.5705 47.6783 21.4064 50.3269 22.9738Z" fill="#FFC0C1"/>
<path d="M128.94 96.6626C129.096 87.5422 117.658 77.5184 111.919 73.6465C111.137 73.6465 109.259 73.9476 108.007 75.1522C106.442 76.6579 112.898 97.523 115.245 102.04C117.593 106.557 128.744 108.063 128.94 96.6626Z" fill="#E7EAEE"/>
<path d="M112.733 127.103C115.265 126.068 117.73 112.278 117.23 105.412L92.9157 109.293C92.4161 114.865 92.3828 126.228 93.5819 127.103C95.0807 128.198 109.569 128.397 112.733 127.103Z" fill="#E7EAEE"/>
<path d="M114.634 111.827C122.201 106.795 111.972 75.4042 104.58 71.4504C97.189 67.4966 85.1673 68.0956 79.8877 71.4504C74.6081 74.8052 61.5613 106.675 69.1287 111.827C76.696 116.979 107.066 116.859 114.634 111.827Z" fill="white"/>
<path fill-rule="evenodd" clip-rule="evenodd" d="M94.4134 115.614C94.4725 113.757 94.4115 109.967 93.1195 107.707C91.0515 104.089 84.296 101.707 84.296 101.707C81.5901 101.295 75.7548 99.3423 74.0607 94.8246C73.3398 92.9023 71.6774 91.6148 69.7561 90.7744C66.7364 99.8659 65.32 109.235 69.1305 111.829C73.2512 114.635 84.1334 115.877 94.4134 115.614Z" fill="#123041"/>
<path d="M71.3857 127.103C68.8543 126.068 66.3896 112.278 66.8892 105.412L91.2034 109.293C91.703 114.865 91.7363 126.228 90.5373 127.103C89.0384 128.198 74.5499 128.397 71.3857 127.103Z" fill="#123041"/>
<path d="M56.2379 96.6626C56.0814 87.5422 67.5196 77.5184 73.2583 73.6465C74.0408 73.6465 75.919 73.9476 77.171 75.1522C78.7361 76.6579 72.2801 97.523 69.9325 102.04C67.5849 106.557 56.4336 108.063 56.2379 96.6626Z" fill="white"/>
<path d="M112 100.441C112 109.856 103.941 112.117 94 112.117C84.0589 112.117 76 109.856 76 100.441C76 88.0643 84.0589 81.0586 94 81.0586C103.941 81.0586 112 88.0643 112 100.441Z" fill="#FFC0C1"/>
<path d="M93.8489 108.942C93.9214 108.942 93.9933 108.928 94.0604 108.901C94.1276 108.874 94.1886 108.833 94.2401 108.783L96.6917 106.317C96.782 106.212 96.8292 106.077 96.8238 105.939C96.8185 105.801 96.761 105.67 96.6629 105.573C96.5647 105.475 96.4332 105.418 96.2945 105.413C96.1559 105.407 96.0203 105.454 95.9149 105.544L93.4578 107.983C93.4061 108.033 93.3651 108.094 93.3372 108.161C93.3092 108.228 93.2948 108.299 93.2948 108.372C93.2948 108.444 93.3092 108.516 93.3372 108.582C93.3651 108.649 93.4061 108.71 93.4578 108.761C93.5074 108.815 93.5676 108.86 93.6348 108.891C93.702 108.922 93.7749 108.939 93.8489 108.942Z" fill="#FF8D8D"/>
<path d="M96.2744 108.942C96.3464 108.942 96.4177 108.928 96.4843 108.901C96.5509 108.874 96.6114 108.834 96.6625 108.783C96.7138 108.732 96.7544 108.672 96.7822 108.605C96.8099 108.538 96.8242 108.467 96.8242 108.395C96.8242 108.323 96.8099 108.251 96.7822 108.185C96.7544 108.118 96.7138 108.057 96.6625 108.007L94.23 105.574C94.1792 105.523 94.1187 105.482 94.0521 105.454C93.9855 105.426 93.914 105.412 93.8419 105.412C93.7697 105.412 93.6983 105.426 93.6317 105.454C93.5651 105.482 93.5046 105.523 93.4538 105.574C93.352 105.676 93.2948 105.815 93.2948 105.959C93.2948 106.104 93.352 106.242 93.4538 106.345L95.8918 108.783C95.9936 108.884 96.131 108.941 96.2744 108.942V108.942Z" fill="#FF8D8D"/>
<path d="M136.706 54.0601C136.706 72.4804 116.507 78.5887 91.9565 78.5887C67.4064 78.5887 47.0586 72.4804 47.0586 54.0601C47.0586 22.6515 67.4064 11.8828 91.9565 11.8828C116.507 11.8828 136.706 21.1558 136.706 54.0601Z" fill="white"/>
<path fill-rule="evenodd" clip-rule="evenodd" d="M95.0762 11.9346C95.2823 17.8122 96.5098 25.5219 100.361 28.6397C103.748 31.3813 107.656 32.0794 111.149 32.7033C114.134 33.2365 116.815 33.7155 118.606 35.3695C119.558 36.2483 120.403 37.4678 121.318 38.7888C124.074 42.7686 127.467 47.6691 136.361 46.9458C133.731 21.0516 116.355 12.6554 95.0762 11.9346Z" fill="#123041"/>
<path d="M70.3535 50.7051V56.3521" stroke="#123041" stroke-width="5.29412" stroke-linecap="round"/>
<path d="M117.648 50.7051V56.3521" stroke="#123041" stroke-width="5.29412" stroke-linecap="round"/>
<path d="M77.4141 63.8345C77.4141 56.5833 83.2923 50.7051 90.5435 50.7051H97.1082C104.359 50.7051 110.238 56.5833 110.238 63.8345V63.8345C110.238 68.6686 106.319 72.5874 101.485 72.5874H86.167C81.3329 72.5874 77.4141 68.6686 77.4141 63.8345V63.8345Z" fill="#FFC0C1"/>
<path d="M86.9414 60.5879V64.4702" stroke="#123041" stroke-width="3.52941" stroke-linecap="round"/>
<path d="M101.059 60.5879L101.059 64.4702" stroke="#123041" stroke-width="3.52941" stroke-linecap="round"/>
<path d="M59.7656 64.4707H65.0597" stroke="#FFC0C1" stroke-width="7.05882" stroke-linecap="round"/>
<path d="M122.941 64.4707H128.236" stroke="#FFC0C1" stroke-width="7.05882" stroke-linecap="round"/>
</g>
<g clip-path="url(#clip2_2265_237)">
<path d="M225.313 119.977C223.196 122.095 204.725 121.742 194.96 121.389C188.96 117.683 188.078 100.213 192.137 97.7421C196.196 95.2715 214.498 103.756 217.196 105.683C219.666 107.448 227.784 117.507 225.313 119.977Z" fill="#5C9A15"/>
<path d="M236.589 128.352C234.471 130.47 216 130.117 206.236 129.764C200.236 126.058 199.353 108.588 203.412 106.117C207.471 103.646 225.773 112.131 228.471 114.058C230.942 115.823 239.059 125.882 236.589 128.352Z" fill="#5BB42B"/>
<path d="M210.179 129.199C207.512 130.895 163.357 130.895 160.245 129.199C157.134 127.504 151.503 114.278 153.281 110.208C155.059 106.138 170.173 91.3863 195.214 92.4037C220.255 93.4211 212.847 127.504 210.179 129.199Z" fill="#5BB42B"/>
<path d="M110.757 116.686C119.345 113.609 132.51 121.224 138.019 125.416C138.271 126.157 138.588 128.032 137.85 129.605C136.926 131.57 115.093 132.155 110.061 131.382C105.029 130.608 100.023 120.531 110.757 116.686Z" fill="#5C9A15"/>
<ellipse cx="14.1077" cy="15.2028" rx="14.1077" ry="15.2028" transform="matrix(-0.877234 -0.480064 -0.480064 0.877234 199.936 74.5273)" fill="#5BB42B"/>
<ellipse cx="118.969" cy="80.6967" rx="14.1077" ry="15.2028" transform="rotate(-28.6896 118.969 80.6967)" fill="#5BB42B"/>
<path d="M103.935 105.507C103.935 124.122 124.453 130.295 149.389 130.295C174.326 130.295 194.994 124.122 194.994 105.507C194.994 78.7655 174.326 67.2949 149.389 67.2949C124.453 67.2949 103.935 76.6479 103.935 105.507Z" fill="#5BB42B"/>
<path d="M185.465 99.0586H179.465" stroke="#A1DC3C" stroke-width="7.05882" stroke-linecap="round"/>
<path d="M120.172 99.0586H114.172" stroke="#A1DC3C" stroke-width="7.05882" stroke-linecap="round"/>
<path d="M120.473 85.6465L117.649 86.3524" stroke="#123041" stroke-width="5.29412" stroke-linecap="round"/>
<path d="M174.824 86L177.647 86.706" stroke="#123041" stroke-width="5.29412" stroke-linecap="round"/>
<path d="M164.406 116.686C172.993 113.609 186.159 121.224 191.668 125.416C191.919 126.157 192.237 128.032 191.498 129.605C190.574 131.57 168.741 132.155 163.709 131.382C158.678 130.608 153.672 120.531 164.406 116.686Z" fill="#5C9A15"/>
<path d="M134.236 87.2359C135.001 87.7653 137.095 88.8241 139.354 88.8241C142.178 88.8241 143.236 86.3535 146.236 86.3535C149.236 86.3535 150.295 88.8241 153.119 88.8241C155.378 88.8241 157.472 87.7653 158.236 87.2359" stroke="#4B890D" stroke-width="1.76471" stroke-linecap="round"/>
<path d="M144.729 69.824C144.572 72.8413 139.504 75.0718 133.664 74.7685C127.824 74.4653 123.424 71.7431 123.581 68.7258C123.846 63.615 128.149 59.7417 134.717 60.0828C141.285 60.4239 145.004 64.537 144.729 69.824Z" fill="white"/>
</g>
</g>
<defs>
<clipPath id="clip0_2265_237">
<rect width="208.588" height="132" fill="white" transform="translate(34 2)"/>
</clipPath>
<clipPath id="clip1_2265_237">
<rect width="111.176" height="132" fill="white" transform="translate(36.8242 2)"/>
</clipPath>
<clipPath id="clip2_2265_237">
<rect width="146.118" height="78.3529" fill="white" transform="translate(101.766 55.6465)"/>
</clipPath>
</defs>
</svg>
