<svg width="516" height="84" viewBox="0 0 516 84" fill="none" xmlns="http://www.w3.org/2000/svg">
<path d="M21.8129 81.2248L19.9461 58.4981L56.0749 62.3476L21.8129 81.2248Z" fill="white"/>
<path d="M4.06641 16C4.06641 7.16345 11.2298 0 20.0664 0L499.999 0C508.836 0 515.999 7.16344 515.999 16V48.3736C515.999 57.2101 508.836 64.3736 499.999 64.3736H20.0664C11.2299 64.3736 4.06641 57.2101 4.06641 48.3736L4.06641 16Z" fill="white"/>
<path d="M35.0222 39.1865V25.7765H43.6622V27.1265H36.4622V31.7885H43.3022V33.1385H36.4622V37.8365H43.6622V39.1865H35.0222ZM46.2057 39.1865V29.5385H47.5557V31.4105L47.2497 31.3385C47.4897 30.7145 47.8797 30.2225 48.4197 29.8625C48.9717 29.5025 49.6077 29.3225 50.3277 29.3225C51.0117 29.3225 51.6237 29.4785 52.1637 29.7905C52.7157 30.1025 53.1477 30.5345 53.4597 31.0865C53.7837 31.6265 53.9457 32.2385 53.9457 32.9225V39.1865H52.5957V33.4445C52.5957 32.8565 52.4877 32.3585 52.2717 31.9505C52.0677 31.5425 51.7737 31.2305 51.3897 31.0145C51.0177 30.7865 50.5857 30.6725 50.0937 30.6725C49.6017 30.6725 49.1637 30.7865 48.7797 31.0145C48.3957 31.2305 48.0957 31.5485 47.8797 31.9685C47.6637 32.3765 47.5557 32.8685 47.5557 33.4445V39.1865H46.2057ZM60.232 39.4025C59.308 39.4025 58.498 39.1685 57.802 38.7005C57.106 38.2325 56.602 37.5965 56.29 36.7925L57.424 36.2525C57.7 36.8405 58.084 37.3085 58.576 37.6565C59.08 38.0045 59.632 38.1785 60.232 38.1785C60.808 38.1785 61.294 38.0405 61.69 37.7645C62.086 37.4765 62.284 37.1045 62.284 36.6485C62.284 36.3125 62.188 36.0485 61.996 35.8565C61.804 35.6525 61.582 35.4965 61.33 35.3885C61.078 35.2805 60.856 35.2025 60.664 35.1545L59.278 34.7585C58.39 34.5065 57.748 34.1525 57.352 33.6965C56.956 33.2405 56.758 32.7125 56.758 32.1125C56.758 31.5485 56.902 31.0565 57.19 30.6365C57.478 30.2165 57.868 29.8925 58.36 29.6645C58.852 29.4365 59.398 29.3225 59.998 29.3225C60.814 29.3225 61.552 29.5385 62.212 29.9705C62.884 30.3905 63.358 30.9785 63.634 31.7345L62.482 32.2745C62.242 31.7345 61.894 31.3145 61.438 31.0145C60.994 30.7025 60.496 30.5465 59.944 30.5465C59.404 30.5465 58.972 30.6845 58.648 30.9605C58.324 31.2365 58.162 31.5845 58.162 32.0045C58.162 32.3285 58.246 32.5865 58.414 32.7785C58.582 32.9705 58.774 33.1145 58.99 33.2105C59.218 33.3065 59.416 33.3785 59.584 33.4265L61.186 33.8945C61.966 34.1225 62.572 34.4765 63.004 34.9565C63.448 35.4365 63.67 36.0005 63.67 36.6485C63.67 37.1765 63.52 37.6505 63.22 38.0705C62.932 38.4905 62.53 38.8205 62.014 39.0605C61.498 39.2885 60.904 39.4025 60.232 39.4025ZM69.8222 39.4025C69.1502 39.4025 68.5382 39.2465 67.9862 38.9345C67.4342 38.6105 66.9962 38.1665 66.6722 37.6025C66.3602 37.0265 66.2042 36.3665 66.2042 35.6225V29.5385H67.5542V35.4605C67.5542 35.9765 67.6562 36.4325 67.8602 36.8285C68.0762 37.2125 68.3702 37.5125 68.7422 37.7285C69.1262 37.9445 69.5642 38.0525 70.0562 38.0525C70.5482 38.0525 70.9862 37.9445 71.3702 37.7285C71.7542 37.5005 72.0542 37.1825 72.2702 36.7745C72.4862 36.3545 72.5942 35.8565 72.5942 35.2805V29.5385H73.9442V39.1865H72.5942V37.3145L72.9002 37.3865C72.6722 38.0105 72.2822 38.5025 71.7302 38.8625C71.1782 39.2225 70.5422 39.4025 69.8222 39.4025ZM77.0806 39.1865V29.5385H78.4306V31.1225L78.2506 30.8885C78.4786 30.4325 78.8206 30.0725 79.2766 29.8085C79.7446 29.5445 80.3086 29.4125 80.9686 29.4125H81.5806V30.7625H80.7346C80.0386 30.7625 79.4806 30.9785 79.0606 31.4105C78.6406 31.8425 78.4306 32.4545 78.4306 33.2465V39.1865H77.0806ZM87.9146 39.4025C87.0146 39.4025 86.1986 39.1865 85.4666 38.7545C84.7466 38.3105 84.1766 37.7045 83.7566 36.9365C83.3366 36.1685 83.1266 35.2985 83.1266 34.3265C83.1266 33.3545 83.3306 32.4965 83.7386 31.7525C84.1466 30.9965 84.6986 30.4025 85.3946 29.9705C86.1026 29.5385 86.8946 29.3225 87.7706 29.3225C88.4666 29.3225 89.0846 29.4545 89.6246 29.7185C90.1766 29.9705 90.6446 30.3185 91.0286 30.7625C91.4126 31.1945 91.7066 31.6865 91.9106 32.2385C92.1146 32.7785 92.2166 33.3365 92.2166 33.9125C92.2166 34.0325 92.2106 34.1705 92.1986 34.3265C92.1866 34.4705 92.1686 34.6205 92.1446 34.7765H83.9906V33.5165H91.3706L90.7226 34.0565C90.8306 33.3965 90.7526 32.8085 90.4886 32.2925C90.2366 31.7645 89.8706 31.3505 89.3906 31.0505C88.9106 30.7385 88.3706 30.5825 87.7706 30.5825C87.1706 30.5825 86.6126 30.7385 86.0966 31.0505C85.5926 31.3625 85.1966 31.8005 84.9086 32.3645C84.6206 32.9165 84.5066 33.5765 84.5666 34.3445C84.5066 35.1125 84.6266 35.7845 84.9266 36.3605C85.2386 36.9245 85.6586 37.3625 86.1866 37.6745C86.7266 37.9865 87.3026 38.1425 87.9146 38.1425C88.6226 38.1425 89.2166 37.9745 89.6966 37.6385C90.1766 37.3025 90.5666 36.8825 90.8666 36.3785L92.0186 36.9905C91.8266 37.4225 91.5326 37.8245 91.1366 38.1965C90.7406 38.5565 90.2666 38.8505 89.7146 39.0785C89.1746 39.2945 88.5746 39.4025 87.9146 39.4025ZM98.5735 43.1465C98.3815 43.1465 98.1835 43.1285 97.9795 43.0925C97.7875 43.0685 97.5955 43.0205 97.4035 42.9485V41.6885C97.5235 41.7005 97.6735 41.7185 97.8535 41.7425C98.0455 41.7785 98.2375 41.7965 98.4295 41.7965C99.0175 41.7965 99.4675 41.6705 99.7795 41.4185C100.091 41.1785 100.397 40.7105 100.697 40.0145L101.309 38.5745L101.273 39.7625L97.1875 29.5385H98.6455L101.993 37.9805H101.615L104.945 29.5385H106.439L102.029 40.4105C101.837 40.8785 101.591 41.3225 101.291 41.7425C101.003 42.1625 100.637 42.4985 100.193 42.7505C99.7495 43.0145 99.2095 43.1465 98.5735 43.1465ZM112.728 39.4025C111.816 39.4025 110.988 39.1865 110.244 38.7545C109.5 38.3105 108.906 37.7105 108.462 36.9545C108.03 36.1865 107.814 35.3165 107.814 34.3445C107.814 33.3845 108.03 32.5265 108.462 31.7705C108.894 31.0145 109.476 30.4205 110.208 29.9885C110.952 29.5445 111.792 29.3225 112.728 29.3225C113.664 29.3225 114.498 29.5385 115.23 29.9705C115.974 30.4025 116.556 30.9965 116.976 31.7525C117.408 32.5085 117.624 33.3725 117.624 34.3445C117.624 35.3285 117.402 36.2045 116.958 36.9725C116.514 37.7285 115.92 38.3225 115.176 38.7545C114.444 39.1865 113.628 39.4025 112.728 39.4025ZM112.728 38.0525C113.376 38.0525 113.958 37.8905 114.474 37.5665C115.002 37.2425 115.416 36.7985 115.716 36.2345C116.028 35.6705 116.184 35.0405 116.184 34.3445C116.184 33.6485 116.028 33.0245 115.716 32.4725C115.416 31.9205 115.002 31.4825 114.474 31.1585C113.958 30.8345 113.376 30.6725 112.728 30.6725C112.08 30.6725 111.492 30.8345 110.964 31.1585C110.448 31.4825 110.034 31.9205 109.722 32.4725C109.41 33.0245 109.254 33.6485 109.254 34.3445C109.254 35.0405 109.41 35.6705 109.722 36.2345C110.034 36.7985 110.448 37.2425 110.964 37.5665C111.492 37.8905 112.08 38.0525 112.728 38.0525ZM123.785 39.4025C123.113 39.4025 122.501 39.2465 121.949 38.9345C121.397 38.6105 120.959 38.1665 120.635 37.6025C120.323 37.0265 120.167 36.3665 120.167 35.6225V29.5385H121.517V35.4605C121.517 35.9765 121.619 36.4325 121.823 36.8285C122.039 37.2125 122.333 37.5125 122.705 37.7285C123.089 37.9445 123.527 38.0525 124.019 38.0525C124.511 38.0525 124.949 37.9445 125.333 37.7285C125.717 37.5005 126.017 37.1825 126.233 36.7745C126.449 36.3545 126.557 35.8565 126.557 35.2805V29.5385H127.907V39.1865H126.557V37.3145L126.863 37.3865C126.635 38.0105 126.245 38.5025 125.693 38.8625C125.141 39.2225 124.505 39.4025 123.785 39.4025ZM131.043 39.1865V29.5385H132.393V31.1225L132.213 30.8885C132.441 30.4325 132.783 30.0725 133.239 29.8085C133.707 29.5445 134.271 29.4125 134.931 29.4125H135.543V30.7625H134.697C134.001 30.7625 133.443 30.9785 133.023 31.4105C132.603 31.8425 132.393 32.4545 132.393 33.2465V39.1865H131.043ZM140.904 42.7865V29.5385H142.254V31.6985L142.038 31.3205C142.422 30.7085 142.932 30.2225 143.568 29.8625C144.216 29.5025 144.954 29.3225 145.782 29.3225C146.694 29.3225 147.504 29.5445 148.212 29.9885C148.932 30.4205 149.496 31.0145 149.904 31.7705C150.324 32.5265 150.534 33.3905 150.534 34.3625C150.534 35.3225 150.324 36.1865 149.904 36.9545C149.496 37.7105 148.932 38.3105 148.212 38.7545C147.504 39.1865 146.694 39.4025 145.782 39.4025C144.954 39.4025 144.204 39.2165 143.532 38.8445C142.872 38.4605 142.374 37.9205 142.038 37.2245L142.254 37.0265V42.7865H140.904ZM145.71 38.0525C146.358 38.0525 146.934 37.8905 147.438 37.5665C147.954 37.2425 148.356 36.8045 148.644 36.2525C148.944 35.6885 149.094 35.0585 149.094 34.3625C149.094 33.6545 148.944 33.0245 148.644 32.4725C148.356 31.9205 147.954 31.4825 147.438 31.1585C146.934 30.8345 146.358 30.6725 145.71 30.6725C145.062 30.6725 144.474 30.8345 143.946 31.1585C143.43 31.4825 143.016 31.9265 142.704 32.4905C142.404 33.0425 142.254 33.6665 142.254 34.3625C142.254 35.0585 142.404 35.6885 142.704 36.2525C143.016 36.8045 143.43 37.2425 143.946 37.5665C144.474 37.8905 145.062 38.0525 145.71 38.0525ZM153.27 39.1865V29.5385H154.62V31.1225L154.44 30.8885C154.668 30.4325 155.01 30.0725 155.466 29.8085C155.934 29.5445 156.498 29.4125 157.158 29.4125H157.77V30.7625H156.924C156.228 30.7625 155.67 30.9785 155.25 31.4105C154.83 31.8425 154.62 32.4545 154.62 33.2465V39.1865H153.27ZM164.23 39.4025C163.318 39.4025 162.49 39.1865 161.746 38.7545C161.002 38.3105 160.408 37.7105 159.964 36.9545C159.532 36.1865 159.316 35.3165 159.316 34.3445C159.316 33.3845 159.532 32.5265 159.964 31.7705C160.396 31.0145 160.978 30.4205 161.71 29.9885C162.454 29.5445 163.294 29.3225 164.23 29.3225C165.166 29.3225 166 29.5385 166.732 29.9705C167.476 30.4025 168.058 30.9965 168.478 31.7525C168.91 32.5085 169.126 33.3725 169.126 34.3445C169.126 35.3285 168.904 36.2045 168.46 36.9725C168.016 37.7285 167.422 38.3225 166.678 38.7545C165.946 39.1865 165.13 39.4025 164.23 39.4025ZM164.23 38.0525C164.878 38.0525 165.46 37.8905 165.976 37.5665C166.504 37.2425 166.918 36.7985 167.218 36.2345C167.53 35.6705 167.686 35.0405 167.686 34.3445C167.686 33.6485 167.53 33.0245 167.218 32.4725C166.918 31.9205 166.504 31.4825 165.976 31.1585C165.46 30.8345 164.878 30.6725 164.23 30.6725C163.582 30.6725 162.994 30.8345 162.466 31.1585C161.95 31.4825 161.536 31.9205 161.224 32.4725C160.912 33.0245 160.756 33.6485 160.756 34.3445C160.756 35.0405 160.912 35.6705 161.224 36.2345C161.536 36.7985 161.95 37.2425 162.466 37.5665C162.994 37.8905 163.582 38.0525 164.23 38.0525ZM170.067 43.1465C169.983 43.1465 169.869 43.1405 169.725 43.1285C169.569 43.1165 169.443 43.0985 169.347 43.0745V41.8325C169.599 41.8685 169.851 41.8865 170.103 41.8865C170.595 41.8865 171.009 41.7365 171.345 41.4365C171.693 41.1365 171.867 40.6865 171.867 40.0865V29.5385H173.217V40.0865C173.217 40.7465 173.073 41.3045 172.785 41.7605C172.497 42.2165 172.113 42.5585 171.633 42.7865C171.165 43.0265 170.643 43.1465 170.067 43.1465ZM171.867 27.7565V25.7765H173.217V27.7565H171.867ZM180.732 39.4025C179.832 39.4025 179.016 39.1865 178.284 38.7545C177.564 38.3105 176.994 37.7045 176.574 36.9365C176.154 36.1685 175.944 35.2985 175.944 34.3265C175.944 33.3545 176.148 32.4965 176.556 31.7525C176.964 30.9965 177.516 30.4025 178.212 29.9705C178.92 29.5385 179.712 29.3225 180.588 29.3225C181.284 29.3225 181.902 29.4545 182.442 29.7185C182.994 29.9705 183.462 30.3185 183.846 30.7625C184.23 31.1945 184.524 31.6865 184.728 32.2385C184.932 32.7785 185.034 33.3365 185.034 33.9125C185.034 34.0325 185.028 34.1705 185.016 34.3265C185.004 34.4705 184.986 34.6205 184.962 34.7765H176.808V33.5165H184.188L183.54 34.0565C183.648 33.3965 183.57 32.8085 183.306 32.2925C183.054 31.7645 182.688 31.3505 182.208 31.0505C181.728 30.7385 181.188 30.5825 180.588 30.5825C179.988 30.5825 179.43 30.7385 178.914 31.0505C178.41 31.3625 178.014 31.8005 177.726 32.3645C177.438 32.9165 177.324 33.5765 177.384 34.3445C177.324 35.1125 177.444 35.7845 177.744 36.3605C178.056 36.9245 178.476 37.3625 179.004 37.6745C179.544 37.9865 180.12 38.1425 180.732 38.1425C181.44 38.1425 182.034 37.9745 182.514 37.6385C182.994 37.3025 183.384 36.8825 183.684 36.3785L184.836 36.9905C184.644 37.4225 184.35 37.8245 183.954 38.1965C183.558 38.5565 183.084 38.8505 182.532 39.0785C181.992 39.2945 181.392 39.4025 180.732 39.4025ZM192.184 39.4025C191.236 39.4025 190.402 39.1805 189.682 38.7365C188.962 38.2925 188.398 37.6925 187.99 36.9365C187.582 36.1685 187.378 35.3045 187.378 34.3445C187.378 33.3845 187.582 32.5265 187.99 31.7705C188.398 31.0145 188.962 30.4205 189.682 29.9885C190.402 29.5445 191.236 29.3225 192.184 29.3225C192.784 29.3225 193.348 29.4305 193.876 29.6465C194.404 29.8625 194.872 30.1565 195.28 30.5285C195.688 30.8885 195.994 31.3085 196.198 31.7885L194.974 32.4185C194.734 31.9025 194.368 31.4825 193.876 31.1585C193.384 30.8345 192.82 30.6725 192.184 30.6725C191.548 30.6725 190.972 30.8345 190.456 31.1585C189.952 31.4705 189.55 31.9085 189.25 32.4725C188.962 33.0245 188.818 33.6545 188.818 34.3625C188.818 35.0585 188.962 35.6885 189.25 36.2525C189.55 36.8045 189.952 37.2425 190.456 37.5665C190.972 37.8905 191.548 38.0525 192.184 38.0525C192.82 38.0525 193.378 37.8905 193.858 37.5665C194.35 37.2425 194.722 36.8105 194.974 36.2705L196.198 36.9365C195.994 37.4045 195.688 37.8245 195.28 38.1965C194.872 38.5685 194.404 38.8625 193.876 39.0785C193.348 39.2945 192.784 39.4025 192.184 39.4025ZM202.617 39.2945C201.753 39.2945 201.087 39.0425 200.619 38.5385C200.151 38.0345 199.917 37.3145 199.917 36.3785V30.8885H198.135V29.5385H198.585C198.993 29.5385 199.317 29.4065 199.557 29.1425C199.797 28.8665 199.917 28.5245 199.917 28.1165V27.3065H201.267V29.5385H203.391V30.8885H201.267V36.3785C201.267 36.7025 201.315 36.9905 201.411 37.2425C201.507 37.4825 201.669 37.6745 201.897 37.8185C202.137 37.9625 202.455 38.0345 202.851 38.0345C202.947 38.0345 203.061 38.0285 203.193 38.0165C203.325 38.0045 203.439 37.9925 203.535 37.9805V39.1865C203.391 39.2225 203.229 39.2465 203.049 39.2585C202.869 39.2825 202.725 39.2945 202.617 39.2945ZM209.684 39.1865V29.5385H211.034V39.1865H209.684ZM209.684 27.7565V25.7765H211.034V27.7565H209.684ZM217.506 39.4025C216.582 39.4025 215.772 39.1685 215.076 38.7005C214.38 38.2325 213.876 37.5965 213.564 36.7925L214.698 36.2525C214.974 36.8405 215.358 37.3085 215.85 37.6565C216.354 38.0045 216.906 38.1785 217.506 38.1785C218.082 38.1785 218.568 38.0405 218.964 37.7645C219.36 37.4765 219.558 37.1045 219.558 36.6485C219.558 36.3125 219.462 36.0485 219.27 35.8565C219.078 35.6525 218.856 35.4965 218.604 35.3885C218.352 35.2805 218.13 35.2025 217.938 35.1545L216.552 34.7585C215.664 34.5065 215.022 34.1525 214.626 33.6965C214.23 33.2405 214.032 32.7125 214.032 32.1125C214.032 31.5485 214.176 31.0565 214.464 30.6365C214.752 30.2165 215.142 29.8925 215.634 29.6645C216.126 29.4365 216.672 29.3225 217.272 29.3225C218.088 29.3225 218.826 29.5385 219.486 29.9705C220.158 30.3905 220.632 30.9785 220.908 31.7345L219.756 32.2745C219.516 31.7345 219.168 31.3145 218.712 31.0145C218.268 30.7025 217.77 30.5465 217.218 30.5465C216.678 30.5465 216.246 30.6845 215.922 30.9605C215.598 31.2365 215.436 31.5845 215.436 32.0045C215.436 32.3285 215.52 32.5865 215.688 32.7785C215.856 32.9705 216.048 33.1145 216.264 33.2105C216.492 33.3065 216.69 33.3785 216.858 33.4265L218.46 33.8945C219.24 34.1225 219.846 34.4765 220.278 34.9565C220.722 35.4365 220.944 36.0005 220.944 36.6485C220.944 37.1765 220.794 37.6505 220.494 38.0705C220.206 38.4905 219.804 38.8205 219.288 39.0605C218.772 39.2885 218.178 39.4025 217.506 39.4025ZM230.532 39.4025C229.488 39.4025 228.576 39.1565 227.796 38.6645C227.028 38.1605 226.5 37.4825 226.212 36.6305L227.976 35.7845C228.228 36.3365 228.576 36.7685 229.02 37.0805C229.476 37.3925 229.98 37.5485 230.532 37.5485C230.964 37.5485 231.306 37.4525 231.558 37.2605C231.81 37.0685 231.936 36.8165 231.936 36.5045C231.936 36.3125 231.882 36.1565 231.774 36.0365C231.678 35.9045 231.54 35.7965 231.36 35.7125C231.192 35.6165 231.006 35.5385 230.802 35.4785L229.2 35.0285C228.372 34.7885 227.742 34.4225 227.31 33.9305C226.89 33.4385 226.68 32.8565 226.68 32.1845C226.68 31.5845 226.83 31.0625 227.13 30.6185C227.442 30.1625 227.868 29.8085 228.408 29.5565C228.96 29.3045 229.59 29.1785 230.298 29.1785C231.222 29.1785 232.038 29.4005 232.746 29.8445C233.454 30.2885 233.958 30.9125 234.258 31.7165L232.458 32.5625C232.29 32.1185 232.008 31.7645 231.612 31.5005C231.216 31.2365 230.772 31.1045 230.28 31.1045C229.884 31.1045 229.572 31.1945 229.344 31.3745C229.116 31.5545 229.002 31.7885 229.002 32.0765C229.002 32.2565 229.05 32.4125 229.146 32.5445C229.242 32.6765 229.374 32.7845 229.542 32.8685C229.722 32.9525 229.926 33.0305 230.154 33.1025L231.72 33.5705C232.524 33.8105 233.142 34.1705 233.574 34.6505C234.018 35.1305 234.24 35.7185 234.24 36.4145C234.24 37.0025 234.084 37.5245 233.772 37.9805C233.46 38.4245 233.028 38.7725 232.476 39.0245C231.924 39.2765 231.276 39.4025 230.532 39.4025ZM239.905 39.4025C239.149 39.4025 238.489 39.2345 237.925 38.8985C237.373 38.5625 236.947 38.0945 236.647 37.4945C236.359 36.8945 236.215 36.1925 236.215 35.3885V29.3945H238.573V35.1905C238.573 35.5985 238.651 35.9585 238.807 36.2705C238.975 36.5705 239.209 36.8105 239.509 36.9905C239.821 37.1585 240.169 37.2425 240.553 37.2425C240.937 37.2425 241.279 37.1585 241.579 36.9905C241.879 36.8105 242.113 36.5645 242.281 36.2525C242.449 35.9405 242.533 35.5685 242.533 35.1365V29.3945H244.891V39.1865H242.659V37.2605L242.857 37.6025C242.629 38.2025 242.251 38.6525 241.723 38.9525C241.207 39.2525 240.601 39.4025 239.905 39.4025ZM252.788 39.4025C252.08 39.4025 251.426 39.2645 250.826 38.9885C250.238 38.7005 249.77 38.2925 249.422 37.7645L249.656 37.2965V39.1865H247.442V25.5605H249.8V31.3385L249.44 30.8525C249.776 30.3245 250.232 29.9165 250.808 29.6285C251.384 29.3285 252.05 29.1785 252.806 29.1785C253.73 29.1785 254.564 29.4065 255.308 29.8625C256.052 30.3185 256.64 30.9305 257.072 31.6985C257.516 32.4665 257.738 33.3305 257.738 34.2905C257.738 35.2385 257.522 36.1025 257.09 36.8825C256.658 37.6625 256.07 38.2805 255.326 38.7365C254.582 39.1805 253.736 39.4025 252.788 39.4025ZM252.518 37.2425C253.058 37.2425 253.538 37.1165 253.958 36.8645C254.378 36.6125 254.702 36.2645 254.93 35.8205C255.17 35.3765 255.29 34.8665 255.29 34.2905C255.29 33.7145 255.17 33.2105 254.93 32.7785C254.702 32.3345 254.378 31.9865 253.958 31.7345C253.538 31.4705 253.058 31.3385 252.518 31.3385C252.002 31.3385 251.534 31.4645 251.114 31.7165C250.706 31.9685 250.382 32.3225 250.142 32.7785C249.914 33.2225 249.8 33.7265 249.8 34.2905C249.8 34.8665 249.914 35.3765 250.142 35.8205C250.382 36.2645 250.706 36.6125 251.114 36.8645C251.534 37.1165 252.002 37.2425 252.518 37.2425ZM259.896 39.1865V29.3945H262.11V31.6625L261.858 31.2845C262.038 30.5765 262.398 30.0485 262.938 29.7005C263.478 29.3525 264.114 29.1785 264.846 29.1785C265.65 29.1785 266.358 29.3885 266.97 29.8085C267.582 30.2285 267.978 30.7805 268.158 31.4645L267.492 31.5185C267.792 30.7385 268.242 30.1565 268.842 29.7725C269.442 29.3765 270.132 29.1785 270.912 29.1785C271.608 29.1785 272.226 29.3345 272.766 29.6465C273.318 29.9585 273.75 30.3965 274.062 30.9605C274.374 31.5125 274.53 32.1545 274.53 32.8865V39.1865H272.172V33.4445C272.172 33.0125 272.094 32.6405 271.938 32.3285C271.782 32.0165 271.566 31.7765 271.29 31.6085C271.014 31.4285 270.678 31.3385 270.282 31.3385C269.91 31.3385 269.58 31.4285 269.292 31.6085C269.004 31.7765 268.782 32.0165 268.626 32.3285C268.47 32.6405 268.392 33.0125 268.392 33.4445V39.1865H266.034V33.4445C266.034 33.0125 265.956 32.6405 265.8 32.3285C265.644 32.0165 265.422 31.7765 265.134 31.6085C264.858 31.4285 264.528 31.3385 264.144 31.3385C263.772 31.3385 263.442 31.4285 263.154 31.6085C262.866 31.7765 262.644 32.0165 262.488 32.3285C262.332 32.6405 262.254 33.0125 262.254 33.4445V39.1865H259.896ZM276.885 39.1865V29.3945H279.243V39.1865H276.885ZM276.885 28.2965V25.7765H279.243V28.2965H276.885ZM286.244 39.2945C285.14 39.2945 284.282 38.9945 283.67 38.3945C283.07 37.7825 282.77 36.9245 282.77 35.8205V31.5005H281.078V29.3945H281.258C281.738 29.3945 282.11 29.2685 282.374 29.0165C282.638 28.7645 282.77 28.3985 282.77 27.9185V27.1625H285.128V29.3945H287.378V31.5005H285.128V35.6945C285.128 36.0185 285.182 36.2945 285.29 36.5225C285.41 36.7505 285.59 36.9245 285.83 37.0445C286.082 37.1645 286.4 37.2245 286.784 37.2245C286.868 37.2245 286.964 37.2185 287.072 37.2065C287.192 37.1945 287.306 37.1825 287.414 37.1705V39.1865C287.246 39.2105 287.054 39.2345 286.838 39.2585C286.622 39.2825 286.424 39.2945 286.244 39.2945ZM294.04 39.2945C292.936 39.2945 292.078 38.9945 291.466 38.3945C290.866 37.7825 290.566 36.9245 290.566 35.8205V31.5005H288.874V29.3945H289.054C289.534 29.3945 289.906 29.2685 290.17 29.0165C290.434 28.7645 290.566 28.3985 290.566 27.9185V27.1625H292.924V29.3945H295.174V31.5005H292.924V35.6945C292.924 36.0185 292.978 36.2945 293.086 36.5225C293.206 36.7505 293.386 36.9245 293.626 37.0445C293.878 37.1645 294.196 37.2245 294.58 37.2245C294.664 37.2245 294.76 37.2185 294.868 37.2065C294.988 37.1945 295.102 37.1825 295.21 37.1705V39.1865C295.042 39.2105 294.85 39.2345 294.634 39.2585C294.418 39.2825 294.22 39.2945 294.04 39.2945ZM301.927 39.4025C300.919 39.4025 300.037 39.1745 299.281 38.7185C298.525 38.2625 297.937 37.6445 297.517 36.8645C297.097 36.0845 296.887 35.2205 296.887 34.2725C296.887 33.2885 297.097 32.4185 297.517 31.6625C297.949 30.8945 298.531 30.2885 299.263 29.8445C300.007 29.4005 300.835 29.1785 301.747 29.1785C302.515 29.1785 303.187 29.3045 303.763 29.5565C304.351 29.8085 304.849 30.1565 305.257 30.6005C305.665 31.0445 305.977 31.5545 306.193 32.1305C306.409 32.6945 306.517 33.3065 306.517 33.9665C306.517 34.1345 306.505 34.3085 306.481 34.4885C306.469 34.6685 306.439 34.8245 306.391 34.9565H298.831V33.1565H305.059L303.943 34.0025C304.051 33.4505 304.021 32.9585 303.853 32.5265C303.697 32.0945 303.433 31.7525 303.061 31.5005C302.701 31.2485 302.263 31.1225 301.747 31.1225C301.255 31.1225 300.817 31.2485 300.433 31.5005C300.049 31.7405 299.755 32.1005 299.551 32.5805C299.359 33.0485 299.287 33.6185 299.335 34.2905C299.287 34.8905 299.365 35.4245 299.569 35.8925C299.785 36.3485 300.097 36.7025 300.505 36.9545C300.925 37.2065 301.405 37.3325 301.945 37.3325C302.485 37.3325 302.941 37.2185 303.313 36.9905C303.697 36.7625 303.997 36.4565 304.213 36.0725L306.121 37.0085C305.929 37.4765 305.629 37.8905 305.221 38.2505C304.813 38.6105 304.327 38.8925 303.763 39.0965C303.211 39.3005 302.599 39.4025 301.927 39.4025ZM313.219 39.4025C312.271 39.4025 311.425 39.1805 310.681 38.7365C309.937 38.2805 309.349 37.6625 308.917 36.8825C308.485 36.1025 308.269 35.2385 308.269 34.2905C308.269 33.3305 308.485 32.4665 308.917 31.6985C309.349 30.9305 309.937 30.3185 310.681 29.8625C311.437 29.4065 312.277 29.1785 313.201 29.1785C313.945 29.1785 314.605 29.3285 315.181 29.6285C315.769 29.9165 316.231 30.3245 316.567 30.8525L316.207 31.3385V25.5605H318.565V39.1865H316.333V37.2965L316.585 37.7645C316.249 38.2925 315.781 38.7005 315.181 38.9885C314.581 39.2645 313.927 39.4025 313.219 39.4025ZM313.471 37.2425C314.011 37.2425 314.485 37.1165 314.893 36.8645C315.301 36.6125 315.619 36.2645 315.847 35.8205C316.087 35.3765 316.207 34.8665 316.207 34.2905C316.207 33.7265 316.087 33.2225 315.847 32.7785C315.619 32.3225 315.301 31.9685 314.893 31.7165C314.485 31.4645 314.011 31.3385 313.471 31.3385C312.943 31.3385 312.469 31.4705 312.049 31.7345C311.629 31.9865 311.299 32.3345 311.059 32.7785C310.831 33.2105 310.717 33.7145 310.717 34.2905C310.717 34.8665 310.831 35.3765 311.059 35.8205C311.299 36.2645 311.629 36.6125 312.049 36.8645C312.469 37.1165 312.943 37.2425 313.471 37.2425ZM327.615 39.4025C327.003 39.4025 326.457 39.2885 325.977 39.0605C325.497 38.8205 325.119 38.4965 324.843 38.0885C324.567 37.6805 324.429 37.2125 324.429 36.6845C324.429 36.1805 324.537 35.7245 324.753 35.3165C324.969 34.8965 325.305 34.5425 325.761 34.2545C326.217 33.9665 326.799 33.7625 327.507 33.6425L331.287 33.0125V34.2365L327.831 34.8125C327.135 34.9325 326.631 35.1545 326.319 35.4785C326.019 35.8025 325.869 36.1865 325.869 36.6305C325.869 37.0625 326.037 37.4285 326.373 37.7285C326.721 38.0285 327.165 38.1785 327.705 38.1785C328.365 38.1785 328.941 38.0405 329.433 37.7645C329.925 37.4765 330.309 37.0925 330.585 36.6125C330.861 36.1325 330.999 35.5985 330.999 35.0105V32.5625C330.999 31.9865 330.789 31.5185 330.369 31.1585C329.949 30.7985 329.403 30.6185 328.731 30.6185C328.143 30.6185 327.627 30.7685 327.183 31.0685C326.739 31.3565 326.409 31.7345 326.193 32.2025L324.969 31.5365C325.149 31.1285 325.431 30.7565 325.815 30.4205C326.211 30.0845 326.661 29.8205 327.165 29.6285C327.669 29.4245 328.191 29.3225 328.731 29.3225C329.439 29.3225 330.063 29.4605 330.603 29.7365C331.155 30.0125 331.581 30.3965 331.881 30.8885C332.193 31.3685 332.349 31.9265 332.349 32.5625V39.1865H330.999V37.2605L331.197 37.4585C331.029 37.8185 330.765 38.1485 330.405 38.4485C330.057 38.7365 329.643 38.9705 329.163 39.1505C328.695 39.3185 328.179 39.4025 327.615 39.4025ZM335.486 39.1865V29.5385H336.836V31.4105L336.53 31.3385C336.77 30.7145 337.16 30.2225 337.7 29.8625C338.252 29.5025 338.888 29.3225 339.608 29.3225C340.292 29.3225 340.904 29.4785 341.444 29.7905C341.996 30.1025 342.428 30.5345 342.74 31.0865C343.064 31.6265 343.226 32.2385 343.226 32.9225V39.1865H341.876V33.4445C341.876 32.8565 341.768 32.3585 341.552 31.9505C341.348 31.5425 341.054 31.2305 340.67 31.0145C340.298 30.7865 339.866 30.6725 339.374 30.6725C338.882 30.6725 338.444 30.7865 338.06 31.0145C337.676 31.2305 337.376 31.5485 337.16 31.9685C336.944 32.3765 336.836 32.8685 336.836 33.4445V39.1865H335.486ZM350.52 39.4025C349.62 39.4025 348.81 39.1865 348.09 38.7545C347.37 38.3105 346.8 37.7105 346.38 36.9545C345.972 36.1865 345.768 35.3225 345.768 34.3625C345.768 33.3905 345.972 32.5265 346.38 31.7705C346.8 31.0145 347.364 30.4205 348.072 29.9885C348.792 29.5445 349.608 29.3225 350.52 29.3225C351.348 29.3225 352.086 29.5025 352.734 29.8625C353.382 30.2225 353.892 30.7085 354.264 31.3205L354.048 31.6985V25.5605H355.398V39.1865H354.048V37.0265L354.264 37.2245C353.928 37.9205 353.424 38.4605 352.752 38.8445C352.092 39.2165 351.348 39.4025 350.52 39.4025ZM350.592 38.0525C351.24 38.0525 351.822 37.8905 352.338 37.5665C352.866 37.2425 353.28 36.8045 353.58 36.2525C353.892 35.6885 354.048 35.0585 354.048 34.3625C354.048 33.6665 353.892 33.0425 353.58 32.4905C353.28 31.9265 352.866 31.4825 352.338 31.1585C351.822 30.8345 351.24 30.6725 350.592 30.6725C349.956 30.6725 349.38 30.8345 348.864 31.1585C348.348 31.4825 347.94 31.9205 347.64 32.4725C347.352 33.0245 347.208 33.6545 347.208 34.3625C347.208 35.0585 347.352 35.6885 347.64 36.2525C347.94 36.8045 348.342 37.2425 348.846 37.5665C349.362 37.8905 349.944 38.0525 350.592 38.0525ZM361.949 39.1865V29.5385H363.299V31.4105L362.993 31.3385C363.233 30.7145 363.623 30.2225 364.163 29.8625C364.715 29.5025 365.351 29.3225 366.071 29.3225C366.755 29.3225 367.367 29.4785 367.907 29.7905C368.459 30.1025 368.891 30.5345 369.203 31.0865C369.527 31.6265 369.689 32.2385 369.689 32.9225V39.1865H368.339V33.4445C368.339 32.8565 368.231 32.3585 368.015 31.9505C367.811 31.5425 367.517 31.2305 367.133 31.0145C366.761 30.7865 366.329 30.6725 365.837 30.6725C365.345 30.6725 364.907 30.7865 364.523 31.0145C364.139 31.2305 363.839 31.5485 363.623 31.9685C363.407 32.3765 363.299 32.8685 363.299 33.4445V39.1865H361.949ZM377.145 39.4025C376.233 39.4025 375.405 39.1865 374.661 38.7545C373.917 38.3105 373.323 37.7105 372.879 36.9545C372.447 36.1865 372.231 35.3165 372.231 34.3445C372.231 33.3845 372.447 32.5265 372.879 31.7705C373.311 31.0145 373.893 30.4205 374.625 29.9885C375.369 29.5445 376.209 29.3225 377.145 29.3225C378.081 29.3225 378.915 29.5385 379.647 29.9705C380.391 30.4025 380.973 30.9965 381.393 31.7525C381.825 32.5085 382.041 33.3725 382.041 34.3445C382.041 35.3285 381.819 36.2045 381.375 36.9725C380.931 37.7285 380.337 38.3225 379.593 38.7545C378.861 39.1865 378.045 39.4025 377.145 39.4025ZM377.145 38.0525C377.793 38.0525 378.375 37.8905 378.891 37.5665C379.419 37.2425 379.833 36.7985 380.133 36.2345C380.445 35.6705 380.601 35.0405 380.601 34.3445C380.601 33.6485 380.445 33.0245 380.133 32.4725C379.833 31.9205 379.419 31.4825 378.891 31.1585C378.375 30.8345 377.793 30.6725 377.145 30.6725C376.497 30.6725 375.909 30.8345 375.381 31.1585C374.865 31.4825 374.451 31.9205 374.139 32.4725C373.827 33.0245 373.671 33.6485 373.671 34.3445C373.671 35.0405 373.827 35.6705 374.139 36.2345C374.451 36.7985 374.865 37.2425 375.381 37.5665C375.909 37.8905 376.497 38.0525 377.145 38.0525ZM388.296 39.2945C387.432 39.2945 386.766 39.0425 386.298 38.5385C385.83 38.0345 385.596 37.3145 385.596 36.3785V30.8885H383.814V29.5385H384.264C384.672 29.5385 384.996 29.4065 385.236 29.1425C385.476 28.8665 385.596 28.5245 385.596 28.1165V27.3065H386.946V29.5385H389.07V30.8885H386.946V36.3785C386.946 36.7025 386.994 36.9905 387.09 37.2425C387.186 37.4825 387.348 37.6745 387.576 37.8185C387.816 37.9625 388.134 38.0345 388.53 38.0345C388.626 38.0345 388.74 38.0285 388.872 38.0165C389.004 38.0045 389.118 37.9925 389.214 37.9805V39.1865C389.07 39.2225 388.908 39.2465 388.728 39.2585C388.548 39.2825 388.404 39.2945 388.296 39.2945ZM393.563 43.1465C393.479 43.1465 393.365 43.1405 393.221 43.1285C393.065 43.1165 392.939 43.0985 392.843 43.0745V41.8325C393.095 41.8685 393.347 41.8865 393.599 41.8865C394.091 41.8865 394.505 41.7365 394.841 41.4365C395.189 41.1365 395.363 40.6865 395.363 40.0865V29.5385H396.713V40.0865C396.713 40.7465 396.569 41.3045 396.281 41.7605C395.993 42.2165 395.609 42.5585 395.129 42.7865C394.661 43.0265 394.139 43.1465 393.563 43.1465ZM395.363 27.7565V25.7765H396.713V27.7565H395.363ZM403.257 39.4025C402.585 39.4025 401.973 39.2465 401.421 38.9345C400.869 38.6105 400.431 38.1665 400.107 37.6025C399.795 37.0265 399.639 36.3665 399.639 35.6225V29.5385H400.989V35.4605C400.989 35.9765 401.091 36.4325 401.295 36.8285C401.511 37.2125 401.805 37.5125 402.177 37.7285C402.561 37.9445 402.999 38.0525 403.491 38.0525C403.983 38.0525 404.421 37.9445 404.805 37.7285C405.189 37.5005 405.489 37.1825 405.705 36.7745C405.921 36.3545 406.029 35.8565 406.029 35.2805V29.5385H407.379V39.1865H406.029V37.3145L406.335 37.3865C406.107 38.0105 405.717 38.5025 405.165 38.8625C404.613 39.2225 403.977 39.4025 403.257 39.4025ZM413.863 39.4025C412.939 39.4025 412.129 39.1685 411.433 38.7005C410.737 38.2325 410.233 37.5965 409.921 36.7925L411.055 36.2525C411.331 36.8405 411.715 37.3085 412.207 37.6565C412.711 38.0045 413.263 38.1785 413.863 38.1785C414.439 38.1785 414.925 38.0405 415.321 37.7645C415.717 37.4765 415.915 37.1045 415.915 36.6485C415.915 36.3125 415.819 36.0485 415.627 35.8565C415.435 35.6525 415.213 35.4965 414.961 35.3885C414.709 35.2805 414.487 35.2025 414.295 35.1545L412.909 34.7585C412.021 34.5065 411.379 34.1525 410.983 33.6965C410.587 33.2405 410.389 32.7125 410.389 32.1125C410.389 31.5485 410.533 31.0565 410.821 30.6365C411.109 30.2165 411.499 29.8925 411.991 29.6645C412.483 29.4365 413.029 29.3225 413.629 29.3225C414.445 29.3225 415.183 29.5385 415.843 29.9705C416.515 30.3905 416.989 30.9785 417.265 31.7345L416.113 32.2745C415.873 31.7345 415.525 31.3145 415.069 31.0145C414.625 30.7025 414.127 30.5465 413.575 30.5465C413.035 30.5465 412.603 30.6845 412.279 30.9605C411.955 31.2365 411.793 31.5845 411.793 32.0045C411.793 32.3285 411.877 32.5865 412.045 32.7785C412.213 32.9705 412.405 33.1145 412.621 33.2105C412.849 33.3065 413.047 33.3785 413.215 33.4265L414.817 33.8945C415.597 34.1225 416.203 34.4765 416.635 34.9565C417.079 35.4365 417.301 36.0005 417.301 36.6485C417.301 37.1765 417.151 37.6505 416.851 38.0705C416.563 38.4905 416.161 38.8205 415.645 39.0605C415.129 39.2885 414.535 39.4025 413.863 39.4025ZM423.723 39.2945C422.859 39.2945 422.193 39.0425 421.725 38.5385C421.257 38.0345 421.023 37.3145 421.023 36.3785V30.8885H419.241V29.5385H419.691C420.099 29.5385 420.423 29.4065 420.663 29.1425C420.903 28.8665 421.023 28.5245 421.023 28.1165V27.3065H422.373V29.5385H424.497V30.8885H422.373V36.3785C422.373 36.7025 422.421 36.9905 422.517 37.2425C422.613 37.4825 422.775 37.6745 423.003 37.8185C423.243 37.9625 423.561 38.0345 423.957 38.0345C424.053 38.0345 424.167 38.0285 424.299 38.0165C424.431 38.0045 424.545 37.9925 424.641 37.9805V39.1865C424.497 39.2225 424.335 39.2465 424.155 39.2585C423.975 39.2825 423.831 39.2945 423.723 39.2945ZM433.58 39.4025C432.968 39.4025 432.422 39.2885 431.942 39.0605C431.462 38.8205 431.084 38.4965 430.808 38.0885C430.532 37.6805 430.394 37.2125 430.394 36.6845C430.394 36.1805 430.502 35.7245 430.718 35.3165C430.934 34.8965 431.27 34.5425 431.726 34.2545C432.182 33.9665 432.764 33.7625 433.472 33.6425L437.252 33.0125V34.2365L433.796 34.8125C433.1 34.9325 432.596 35.1545 432.284 35.4785C431.984 35.8025 431.834 36.1865 431.834 36.6305C431.834 37.0625 432.002 37.4285 432.338 37.7285C432.686 38.0285 433.13 38.1785 433.67 38.1785C434.33 38.1785 434.906 38.0405 435.398 37.7645C435.89 37.4765 436.274 37.0925 436.55 36.6125C436.826 36.1325 436.964 35.5985 436.964 35.0105V32.5625C436.964 31.9865 436.754 31.5185 436.334 31.1585C435.914 30.7985 435.368 30.6185 434.696 30.6185C434.108 30.6185 433.592 30.7685 433.148 31.0685C432.704 31.3565 432.374 31.7345 432.158 32.2025L430.934 31.5365C431.114 31.1285 431.396 30.7565 431.78 30.4205C432.176 30.0845 432.626 29.8205 433.13 29.6285C433.634 29.4245 434.156 29.3225 434.696 29.3225C435.404 29.3225 436.028 29.4605 436.568 29.7365C437.12 30.0125 437.546 30.3965 437.846 30.8885C438.158 31.3685 438.314 31.9265 438.314 32.5625V39.1865H436.964V37.2605L437.162 37.4585C436.994 37.8185 436.73 38.1485 436.37 38.4485C436.022 38.7365 435.608 38.9705 435.128 39.1505C434.66 39.3185 434.144 39.4025 433.58 39.4025ZM449.226 39.4025C448.326 39.4025 447.516 39.1865 446.796 38.7545C446.076 38.3105 445.506 37.7105 445.086 36.9545C444.678 36.1865 444.474 35.3225 444.474 34.3625C444.474 33.3905 444.678 32.5265 445.086 31.7705C445.506 31.0145 446.07 30.4205 446.778 29.9885C447.498 29.5445 448.314 29.3225 449.226 29.3225C450.054 29.3225 450.792 29.5025 451.44 29.8625C452.088 30.2225 452.598 30.7085 452.97 31.3205L452.754 31.6985V25.5605H454.104V39.1865H452.754V37.0265L452.97 37.2245C452.634 37.9205 452.13 38.4605 451.458 38.8445C450.798 39.2165 450.054 39.4025 449.226 39.4025ZM449.298 38.0525C449.946 38.0525 450.528 37.8905 451.044 37.5665C451.572 37.2425 451.986 36.8045 452.286 36.2525C452.598 35.6885 452.754 35.0585 452.754 34.3625C452.754 33.6665 452.598 33.0425 452.286 32.4905C451.986 31.9265 451.572 31.4825 451.044 31.1585C450.528 30.8345 449.946 30.6725 449.298 30.6725C448.662 30.6725 448.086 30.8345 447.57 31.1585C447.054 31.4825 446.646 31.9205 446.346 32.4725C446.058 33.0245 445.914 33.6545 445.914 34.3625C445.914 35.0585 446.058 35.6885 446.346 36.2525C446.646 36.8045 447.048 37.2425 447.552 37.5665C448.068 37.8905 448.65 38.0525 449.298 38.0525ZM457.236 39.1865V29.5385H458.586V31.1225L458.406 30.8885C458.634 30.4325 458.976 30.0725 459.432 29.8085C459.9 29.5445 460.464 29.4125 461.124 29.4125H461.736V30.7625H460.89C460.194 30.7625 459.636 30.9785 459.216 31.4105C458.796 31.8425 458.586 32.4545 458.586 33.2465V39.1865H457.236ZM466.468 39.4025C465.856 39.4025 465.31 39.2885 464.83 39.0605C464.35 38.8205 463.972 38.4965 463.696 38.0885C463.42 37.6805 463.282 37.2125 463.282 36.6845C463.282 36.1805 463.39 35.7245 463.606 35.3165C463.822 34.8965 464.158 34.5425 464.614 34.2545C465.07 33.9665 465.652 33.7625 466.36 33.6425L470.14 33.0125V34.2365L466.684 34.8125C465.988 34.9325 465.484 35.1545 465.172 35.4785C464.872 35.8025 464.722 36.1865 464.722 36.6305C464.722 37.0625 464.89 37.4285 465.226 37.7285C465.574 38.0285 466.018 38.1785 466.558 38.1785C467.218 38.1785 467.794 38.0405 468.286 37.7645C468.778 37.4765 469.162 37.0925 469.438 36.6125C469.714 36.1325 469.852 35.5985 469.852 35.0105V32.5625C469.852 31.9865 469.642 31.5185 469.222 31.1585C468.802 30.7985 468.256 30.6185 467.584 30.6185C466.996 30.6185 466.48 30.7685 466.036 31.0685C465.592 31.3565 465.262 31.7345 465.046 32.2025L463.822 31.5365C464.002 31.1285 464.284 30.7565 464.668 30.4205C465.064 30.0845 465.514 29.8205 466.018 29.6285C466.522 29.4245 467.044 29.3225 467.584 29.3225C468.292 29.3225 468.916 29.4605 469.456 29.7365C470.008 30.0125 470.434 30.3965 470.734 30.8885C471.046 31.3685 471.202 31.9265 471.202 32.5625V39.1865H469.852V37.2605L470.05 37.4585C469.882 37.8185 469.618 38.1485 469.258 38.4485C468.91 38.7365 468.496 38.9705 468.016 39.1505C467.548 39.3185 467.032 39.4025 466.468 39.4025ZM475.328 39.1865V30.8885H473.402V29.5385H475.328V28.6745C475.328 28.0025 475.478 27.4385 475.778 26.9825C476.078 26.5145 476.474 26.1605 476.966 25.9205C477.458 25.6805 477.986 25.5605 478.55 25.5605C478.67 25.5605 478.808 25.5725 478.964 25.5965C479.12 25.6085 479.246 25.6265 479.342 25.6505V26.8745C479.258 26.8505 479.144 26.8385 479 26.8385C478.856 26.8265 478.754 26.8205 478.694 26.8205C478.118 26.8205 477.638 26.9585 477.254 27.2345C476.87 27.5105 476.678 27.9905 476.678 28.6745V29.5385H479.036V30.8885H476.678V39.1865H475.328ZM485.631 39.2945C484.767 39.2945 484.101 39.0425 483.633 38.5385C483.165 38.0345 482.931 37.3145 482.931 36.3785V30.8885H481.149V29.5385H481.599C482.007 29.5385 482.331 29.4065 482.571 29.1425C482.811 28.8665 482.931 28.5245 482.931 28.1165V27.3065H484.281V29.5385H486.405V30.8885H484.281V36.3785C484.281 36.7025 484.329 36.9905 484.425 37.2425C484.521 37.4825 484.683 37.6745 484.911 37.8185C485.151 37.9625 485.469 38.0345 485.865 38.0345C485.961 38.0345 486.075 38.0285 486.207 38.0165C486.339 38.0045 486.453 37.9925 486.549 37.9805V39.1865C486.405 39.2225 486.243 39.2465 486.063 39.2585C485.883 39.2825 485.739 39.2945 485.631 39.2945Z" fill="#005271"/>
</svg>
