<svg width="312" height="271" viewBox="0 0 312 271" fill="none" xmlns="http://www.w3.org/2000/svg">
<path d="M0 138H312V265C312 268.314 309.314 271 306 271H6C2.6863 271 0 268.314 0 265V138Z" fill="#123041"/>
<g clip-path="url(#clip0_2532_234)">
<mask id="mask0_2532_234" style="mask-type:alpha" maskUnits="userSpaceOnUse" x="5" y="-6" width="137" height="161">
<rect width="120.043" height="145.999" transform="matrix(0.9929 -0.118948 -0.118948 -0.9929 22.4805 154.094)" fill="#D9D9D9"/>
</mask>
<g mask="url(#mask0_2532_234)">
<path d="M114.195 169.543C122.447 162.506 105.87 126.762 96.5502 123.126C87.2307 119.49 73.0707 121.907 67.2909 126.631C61.5111 131.356 50.5756 170.972 60.2738 176.003C69.972 181.033 105.942 176.58 114.195 169.543Z" fill="white"/>
<path d="M108.722 157.363C110.058 168.519 100.83 172.342 89.0503 173.754C77.2707 175.165 67.4004 173.629 66.0639 162.473C64.307 147.807 72.8618 138.362 84.6414 136.951C96.4211 135.54 106.965 142.697 108.722 157.363Z" fill="#F4F4F4"/>
<path d="M36.9525 45.4999C41.5974 55.944 58.4669 75.4606 62.5606 83.9762L91.2083 80.5443C93.1748 71.3027 103.853 48.486 106.794 37.133C110.443 23.0526 102.878 6.22613 88.1035 7.99612C75.9048 9.45753 72.6034 30.2861 72.2916 41.2664C69.3951 30.6705 60.8491 11.2612 49.0686 12.6724C34.2941 14.4424 31.0419 32.2096 36.9525 45.4999Z" fill="white"/>
<path d="M131.163 96.8045C133.778 118.632 110.71 128.737 81.6197 132.222C52.5293 135.707 27.5513 131.357 24.9364 109.53C20.4779 72.313 43.0601 56.6643 72.1505 53.1793C101.241 49.6943 126.492 57.815 131.163 96.8045Z" fill="white"/>
<path d="M57.6172 99.0371L58.4188 105.729" stroke="#123041" stroke-width="6.31807" stroke-linecap="round"/>
<path d="M108.223 92.9746L109.024 99.666" stroke="#123041" stroke-width="6.31807" stroke-linecap="round"/>
<path d="M47.0234 116.852L53.2967 116.1" stroke="#FFD2D2" stroke-width="8.42409" stroke-linecap="round"/>
<path d="M116.449 108.535L122.722 107.784" stroke="#FFD2D2" stroke-width="8.42409" stroke-linecap="round"/>
<path d="M91.8969 112.517C92.3484 116.286 92.5753 118.18 85.6748 119.007C78.7743 119.834 78.5876 118.276 78.0958 114.17C77.604 110.065 79.9098 103.153 83.7208 102.697C87.5319 102.24 91.4454 108.748 91.8969 112.517Z" fill="#FFD2D2"/>
<path fill-rule="evenodd" clip-rule="evenodd" d="M78.542 109.263C79.388 106.042 81.2337 102.996 83.7203 102.698C86.1727 102.404 88.6676 104.994 90.2551 107.883C88.6926 108.854 86.7374 109.548 84.5709 109.807C82.3833 110.069 80.3004 109.85 78.542 109.263Z" fill="#E7EAEE"/>
<path d="M81.3093 97.0479C82.1301 96.9495 82.5474 97.2466 83.1014 97.5273C83.5735 97.1237 83.9087 96.7365 84.7296 96.6381C85.7556 96.5152 86.4805 97.5193 86.3026 98.1851C86.063 99.0815 84.9114 100.087 83.4703 100.607C81.9472 100.442 80.5907 99.7371 80.1462 98.9226C79.816 98.3177 80.2832 97.1708 81.3093 97.0479Z" fill="#FFD2D2"/>
<rect x="26.4258" y="143.631" width="104.88" height="11.3725" fill="#123041"/>
</g>
<path d="M73.0668 146.649C72.8798 150.25 66.8306 152.912 59.8613 152.55C52.8919 152.188 47.6415 148.939 47.8285 145.339C48.1452 139.239 53.2794 134.617 61.1181 135.024C68.9568 135.431 73.3944 140.34 73.0668 146.649Z" fill="white"/>
<path d="M121.926 146.649C121.739 150.25 115.69 152.912 108.721 152.55C101.751 152.188 96.5009 148.939 96.6879 145.339C97.0046 139.239 102.139 134.617 109.978 135.024C117.816 135.431 122.254 140.34 121.926 146.649Z" fill="white"/>
</g>
<path d="M213.067 146.495C212.88 150.096 206.831 152.758 199.861 152.396C192.892 152.034 187.641 148.785 187.828 145.184C188.145 139.085 193.279 134.462 201.118 134.87C208.957 135.277 213.394 140.185 213.067 146.495Z" fill="#5BB42B"/>
<path d="M261.926 146.495C261.739 150.096 255.69 152.758 248.721 152.396C241.751 152.034 236.501 148.785 236.688 145.184C237.005 139.085 242.139 134.462 249.978 134.87C257.816 135.277 262.254 140.185 261.926 146.495Z" fill="#5BB42B"/>
<ellipse cx="16.8363" cy="18.1433" rx="16.8363" ry="18.1433" transform="matrix(-0.877234 -0.480064 -0.480064 0.877234 285.688 84.7148)" fill="#5BB42B"/>
<ellipse cx="189.061" cy="92.0795" rx="16.8363" ry="18.1433" transform="rotate(-28.6896 189.061 92.0795)" fill="#5BB42B"/>
<path d="M171.118 121.686C171.118 143.902 194.157 143.898 223.917 143.898C253.677 143.898 279.789 143.902 279.789 121.686C279.789 89.7731 255.123 76.084 225.364 76.084C195.604 76.084 171.118 87.2459 171.118 121.686Z" fill="#5BB42B"/>
<path d="M268.418 113.992H261.257" stroke="#A1DC3C" stroke-width="8.42409" stroke-linecap="round"/>
<path d="M190.496 113.992H183.336" stroke="#A1DC3C" stroke-width="8.42409" stroke-linecap="round"/>
<path d="M190.852 97.9883L187.482 98.8308" stroke="#123041" stroke-width="6.31807" stroke-linecap="round"/>
<path d="M255.719 98.4082L259.088 99.2507" stroke="#123041" stroke-width="6.31807" stroke-linecap="round"/>
<path d="M207.281 99.8811C208.194 100.513 210.693 101.777 213.389 101.777C216.758 101.777 218.022 98.8281 221.602 98.8281C225.182 98.8281 226.446 101.777 229.816 101.777C232.511 101.777 235.011 100.513 235.923 99.8811" stroke="#4B890D" stroke-width="2.10602" stroke-linecap="round"/>
<path d="M137.519 45.6134L136.935 34.25L148.229 36.1748L137.519 45.6134Z" fill="white"/>
<path d="M131.973 13C131.973 8.58173 135.554 5 139.973 5L284.001 5C288.419 5 292.001 8.58172 292.001 13V29.1868C292.001 33.6051 288.419 37.1868 284.001 37.1868H139.973C135.554 37.1868 131.973 33.6051 131.973 29.1868V13Z" fill="white"/>
<path d="M143.778 18.0937V11.3887H148.098V12.0637H144.498V14.3947H147.918V15.0697H144.498V17.4187H148.098V18.0937H143.778ZM149.37 18.0937V13.2697H150.045V14.2057L149.892 14.1697C150.012 13.8577 150.207 13.6117 150.477 13.4317C150.753 13.2517 151.071 13.1617 151.431 13.1617C151.773 13.1617 152.079 13.2397 152.349 13.3957C152.625 13.5517 152.841 13.7677 152.997 14.0437C153.159 14.3137 153.24 14.6197 153.24 14.9617V18.0937H152.565V15.2227C152.565 14.9287 152.511 14.6797 152.403 14.4757C152.301 14.2717 152.154 14.1157 151.962 14.0077C151.776 13.8937 151.56 13.8367 151.314 13.8367C151.068 13.8367 150.849 13.8937 150.657 14.0077C150.465 14.1157 150.315 14.2747 150.207 14.4847C150.099 14.6887 150.045 14.9347 150.045 15.2227V18.0937H149.37ZM156.383 18.2017C155.921 18.2017 155.516 18.0847 155.168 17.8507C154.82 17.6167 154.568 17.2987 154.412 16.8967L154.979 16.6267C155.117 16.9207 155.309 17.1547 155.555 17.3287C155.807 17.5027 156.083 17.5897 156.383 17.5897C156.671 17.5897 156.914 17.5207 157.112 17.3827C157.31 17.2387 157.409 17.0527 157.409 16.8247C157.409 16.6567 157.361 16.5247 157.265 16.4287C157.169 16.3267 157.058 16.2487 156.932 16.1947C156.806 16.1407 156.695 16.1017 156.599 16.0777L155.906 15.8797C155.462 15.7537 155.141 15.5767 154.943 15.3487C154.745 15.1207 154.646 14.8567 154.646 14.5567C154.646 14.2747 154.718 14.0287 154.862 13.8187C155.006 13.6087 155.201 13.4467 155.447 13.3327C155.693 13.2187 155.966 13.1617 156.266 13.1617C156.674 13.1617 157.043 13.2697 157.373 13.4857C157.709 13.6957 157.946 13.9897 158.084 14.3677L157.508 14.6377C157.388 14.3677 157.214 14.1577 156.986 14.0077C156.764 13.8517 156.515 13.7737 156.239 13.7737C155.969 13.7737 155.753 13.8427 155.591 13.9807C155.429 14.1187 155.348 14.2927 155.348 14.5027C155.348 14.6647 155.39 14.7937 155.474 14.8897C155.558 14.9857 155.654 15.0577 155.762 15.1057C155.876 15.1537 155.975 15.1897 156.059 15.2137L156.86 15.4477C157.25 15.5617 157.553 15.7387 157.769 15.9787C157.991 16.2187 158.102 16.5007 158.102 16.8247C158.102 17.0887 158.027 17.3257 157.877 17.5357C157.733 17.7457 157.532 17.9107 157.274 18.0307C157.016 18.1447 156.719 18.2017 156.383 18.2017ZM161.178 18.2017C160.842 18.2017 160.536 18.1237 160.26 17.9677C159.984 17.8057 159.765 17.5837 159.603 17.3017C159.447 17.0137 159.369 16.6837 159.369 16.3117V13.2697H160.044V16.2307C160.044 16.4887 160.095 16.7167 160.197 16.9147C160.305 17.1067 160.452 17.2567 160.638 17.3647C160.83 17.4727 161.049 17.5267 161.295 17.5267C161.541 17.5267 161.76 17.4727 161.952 17.3647C162.144 17.2507 162.294 17.0917 162.402 16.8877C162.51 16.6777 162.564 16.4287 162.564 16.1407V13.2697H163.239V18.0937H162.564V17.1577L162.717 17.1937C162.603 17.5057 162.408 17.7517 162.132 17.9317C161.856 18.1117 161.538 18.2017 161.178 18.2017ZM164.808 18.0937V13.2697H165.483V14.0617L165.393 13.9447C165.507 13.7167 165.678 13.5367 165.906 13.4047C166.14 13.2727 166.422 13.2067 166.752 13.2067H167.058V13.8817H166.635C166.287 13.8817 166.008 13.9897 165.798 14.2057C165.588 14.4217 165.483 14.7277 165.483 15.1237V18.0937H164.808ZM170.225 18.2017C169.775 18.2017 169.367 18.0937 169.001 17.8777C168.641 17.6557 168.356 17.3527 168.146 16.9687C167.936 16.5847 167.831 16.1497 167.831 15.6637C167.831 15.1777 167.933 14.7487 168.137 14.3767C168.341 13.9987 168.617 13.7017 168.965 13.4857C169.319 13.2697 169.715 13.1617 170.153 13.1617C170.501 13.1617 170.81 13.2277 171.08 13.3597C171.356 13.4857 171.59 13.6597 171.782 13.8817C171.974 14.0977 172.121 14.3437 172.223 14.6197C172.325 14.8897 172.376 15.1687 172.376 15.4567C172.376 15.5167 172.373 15.5857 172.367 15.6637C172.361 15.7357 172.352 15.8107 172.34 15.8887H168.263V15.2587H171.953L171.629 15.5287C171.683 15.1987 171.644 14.9047 171.512 14.6467C171.386 14.3827 171.203 14.1757 170.963 14.0257C170.723 13.8697 170.453 13.7917 170.153 13.7917C169.853 13.7917 169.574 13.8697 169.316 14.0257C169.064 14.1817 168.866 14.4007 168.722 14.6827C168.578 14.9587 168.521 15.2887 168.551 15.6727C168.521 16.0567 168.581 16.3927 168.731 16.6807C168.887 16.9627 169.097 17.1817 169.361 17.3377C169.631 17.4937 169.919 17.5717 170.225 17.5717C170.579 17.5717 170.876 17.4877 171.116 17.3197C171.356 17.1517 171.551 16.9417 171.701 16.6897L172.277 16.9957C172.181 17.2117 172.034 17.4127 171.836 17.5987C171.638 17.7787 171.401 17.9257 171.125 18.0397C170.855 18.1477 170.555 18.2017 170.225 18.2017ZM175.554 20.0737C175.458 20.0737 175.359 20.0647 175.257 20.0467C175.161 20.0347 175.065 20.0107 174.969 19.9747V19.3447C175.029 19.3507 175.104 19.3597 175.194 19.3717C175.29 19.3897 175.386 19.3987 175.482 19.3987C175.776 19.3987 176.001 19.3357 176.157 19.2097C176.313 19.0897 176.466 18.8557 176.616 18.5077L176.922 17.7877L176.904 18.3817L174.861 13.2697H175.59L177.264 17.4907H177.075L178.74 13.2697H179.487L177.282 18.7057C177.186 18.9397 177.063 19.1617 176.913 19.3717C176.769 19.5817 176.586 19.7497 176.364 19.8757C176.142 20.0077 175.872 20.0737 175.554 20.0737ZM182.631 18.2017C182.175 18.2017 181.761 18.0937 181.389 17.8777C181.017 17.6557 180.72 17.3557 180.498 16.9777C180.282 16.5937 180.174 16.1587 180.174 15.6727C180.174 15.1927 180.282 14.7637 180.498 14.3857C180.714 14.0077 181.005 13.7107 181.371 13.4947C181.743 13.2727 182.163 13.1617 182.631 13.1617C183.099 13.1617 183.516 13.2697 183.882 13.4857C184.254 13.7017 184.545 13.9987 184.755 14.3767C184.971 14.7547 185.079 15.1867 185.079 15.6727C185.079 16.1647 184.968 16.6027 184.746 16.9867C184.524 17.3647 184.227 17.6617 183.855 17.8777C183.489 18.0937 183.081 18.2017 182.631 18.2017ZM182.631 17.5267C182.955 17.5267 183.246 17.4457 183.504 17.2837C183.768 17.1217 183.975 16.8997 184.125 16.6177C184.281 16.3357 184.359 16.0207 184.359 15.6727C184.359 15.3247 184.281 15.0127 184.125 14.7367C183.975 14.4607 183.768 14.2417 183.504 14.0797C183.246 13.9177 182.955 13.8367 182.631 13.8367C182.307 13.8367 182.013 13.9177 181.749 14.0797C181.491 14.2417 181.284 14.4607 181.128 14.7367C180.972 15.0127 180.894 15.3247 180.894 15.6727C180.894 16.0207 180.972 16.3357 181.128 16.6177C181.284 16.8997 181.491 17.1217 181.749 17.2837C182.013 17.4457 182.307 17.5267 182.631 17.5267ZM188.16 18.2017C187.824 18.2017 187.518 18.1237 187.242 17.9677C186.966 17.8057 186.747 17.5837 186.585 17.3017C186.429 17.0137 186.351 16.6837 186.351 16.3117V13.2697H187.026V16.2307C187.026 16.4887 187.077 16.7167 187.179 16.9147C187.287 17.1067 187.434 17.2567 187.62 17.3647C187.812 17.4727 188.031 17.5267 188.277 17.5267C188.523 17.5267 188.742 17.4727 188.934 17.3647C189.126 17.2507 189.276 17.0917 189.384 16.8877C189.492 16.6777 189.546 16.4287 189.546 16.1407V13.2697H190.221V18.0937H189.546V17.1577L189.699 17.1937C189.585 17.5057 189.39 17.7517 189.114 17.9317C188.838 18.1117 188.52 18.2017 188.16 18.2017ZM191.789 18.0937V13.2697H192.464V14.0617L192.374 13.9447C192.488 13.7167 192.659 13.5367 192.887 13.4047C193.121 13.2727 193.403 13.2067 193.733 13.2067H194.039V13.8817H193.616C193.268 13.8817 192.989 13.9897 192.779 14.2057C192.569 14.4217 192.464 14.7277 192.464 15.1237V18.0937H191.789ZM196.719 19.8937V13.2697H197.394V14.3497L197.286 14.1607C197.478 13.8547 197.733 13.6117 198.051 13.4317C198.375 13.2517 198.744 13.1617 199.158 13.1617C199.614 13.1617 200.019 13.2727 200.373 13.4947C200.733 13.7107 201.015 14.0077 201.219 14.3857C201.429 14.7637 201.534 15.1957 201.534 15.6817C201.534 16.1617 201.429 16.5937 201.219 16.9777C201.015 17.3557 200.733 17.6557 200.373 17.8777C200.019 18.0937 199.614 18.2017 199.158 18.2017C198.744 18.2017 198.369 18.1087 198.033 17.9227C197.703 17.7307 197.454 17.4607 197.286 17.1127L197.394 17.0137V19.8937H196.719ZM199.122 17.5267C199.446 17.5267 199.734 17.4457 199.986 17.2837C200.244 17.1217 200.445 16.9027 200.589 16.6267C200.739 16.3447 200.814 16.0297 200.814 15.6817C200.814 15.3277 200.739 15.0127 200.589 14.7367C200.445 14.4607 200.244 14.2417 199.986 14.0797C199.734 13.9177 199.446 13.8367 199.122 13.8367C198.798 13.8367 198.504 13.9177 198.24 14.0797C197.982 14.2417 197.775 14.4637 197.619 14.7457C197.469 15.0217 197.394 15.3337 197.394 15.6817C197.394 16.0297 197.469 16.3447 197.619 16.6267C197.775 16.9027 197.982 17.1217 198.24 17.2837C198.504 17.4457 198.798 17.5267 199.122 17.5267ZM202.902 18.0937V13.2697H203.577V14.0617L203.487 13.9447C203.601 13.7167 203.772 13.5367 204 13.4047C204.234 13.2727 204.516 13.2067 204.846 13.2067H205.152V13.8817H204.729C204.381 13.8817 204.102 13.9897 203.892 14.2057C203.682 14.4217 203.577 14.7277 203.577 15.1237V18.0937H202.902ZM208.382 18.2017C207.926 18.2017 207.512 18.0937 207.14 17.8777C206.768 17.6557 206.471 17.3557 206.249 16.9777C206.033 16.5937 205.925 16.1587 205.925 15.6727C205.925 15.1927 206.033 14.7637 206.249 14.3857C206.465 14.0077 206.756 13.7107 207.122 13.4947C207.494 13.2727 207.914 13.1617 208.382 13.1617C208.85 13.1617 209.267 13.2697 209.633 13.4857C210.005 13.7017 210.296 13.9987 210.506 14.3767C210.722 14.7547 210.83 15.1867 210.83 15.6727C210.83 16.1647 210.719 16.6027 210.497 16.9867C210.275 17.3647 209.978 17.6617 209.606 17.8777C209.24 18.0937 208.832 18.2017 208.382 18.2017ZM208.382 17.5267C208.706 17.5267 208.997 17.4457 209.255 17.2837C209.519 17.1217 209.726 16.8997 209.876 16.6177C210.032 16.3357 210.11 16.0207 210.11 15.6727C210.11 15.3247 210.032 15.0127 209.876 14.7367C209.726 14.4607 209.519 14.2417 209.255 14.0797C208.997 13.9177 208.706 13.8367 208.382 13.8367C208.058 13.8367 207.764 13.9177 207.5 14.0797C207.242 14.2417 207.035 14.4607 206.879 14.7367C206.723 15.0127 206.645 15.3247 206.645 15.6727C206.645 16.0207 206.723 16.3357 206.879 16.6177C207.035 16.8997 207.242 17.1217 207.5 17.2837C207.764 17.4457 208.058 17.5267 208.382 17.5267ZM211.301 20.0737C211.259 20.0737 211.202 20.0707 211.13 20.0647C211.052 20.0587 210.989 20.0497 210.941 20.0377V19.4167C211.067 19.4347 211.193 19.4437 211.319 19.4437C211.565 19.4437 211.772 19.3687 211.94 19.2187C212.114 19.0687 212.201 18.8437 212.201 18.5437V13.2697H212.876V18.5437C212.876 18.8737 212.804 19.1527 212.66 19.3807C212.516 19.6087 212.324 19.7797 212.084 19.8937C211.85 20.0137 211.589 20.0737 211.301 20.0737ZM212.201 12.3787V11.3887H212.876V12.3787H212.201ZM216.633 18.2017C216.183 18.2017 215.775 18.0937 215.409 17.8777C215.049 17.6557 214.764 17.3527 214.554 16.9687C214.344 16.5847 214.239 16.1497 214.239 15.6637C214.239 15.1777 214.341 14.7487 214.545 14.3767C214.749 13.9987 215.025 13.7017 215.373 13.4857C215.727 13.2697 216.123 13.1617 216.561 13.1617C216.909 13.1617 217.218 13.2277 217.488 13.3597C217.764 13.4857 217.998 13.6597 218.19 13.8817C218.382 14.0977 218.529 14.3437 218.631 14.6197C218.733 14.8897 218.784 15.1687 218.784 15.4567C218.784 15.5167 218.781 15.5857 218.775 15.6637C218.769 15.7357 218.76 15.8107 218.748 15.8887H214.671V15.2587H218.361L218.037 15.5287C218.091 15.1987 218.052 14.9047 217.92 14.6467C217.794 14.3827 217.611 14.1757 217.371 14.0257C217.131 13.8697 216.861 13.7917 216.561 13.7917C216.261 13.7917 215.982 13.8697 215.724 14.0257C215.472 14.1817 215.274 14.4007 215.13 14.6827C214.986 14.9587 214.929 15.2887 214.959 15.6727C214.929 16.0567 214.989 16.3927 215.139 16.6807C215.295 16.9627 215.505 17.1817 215.769 17.3377C216.039 17.4937 216.327 17.5717 216.633 17.5717C216.987 17.5717 217.284 17.4877 217.524 17.3197C217.764 17.1517 217.959 16.9417 218.109 16.6897L218.685 16.9957C218.589 17.2117 218.442 17.4127 218.244 17.5987C218.046 17.7787 217.809 17.9257 217.533 18.0397C217.263 18.1477 216.963 18.2017 216.633 18.2017ZM222.359 18.2017C221.885 18.2017 221.468 18.0907 221.108 17.8687C220.748 17.6467 220.466 17.3467 220.262 16.9687C220.058 16.5847 219.956 16.1527 219.956 15.6727C219.956 15.1927 220.058 14.7637 220.262 14.3857C220.466 14.0077 220.748 13.7107 221.108 13.4947C221.468 13.2727 221.885 13.1617 222.359 13.1617C222.659 13.1617 222.941 13.2157 223.205 13.3237C223.469 13.4317 223.703 13.5787 223.907 13.7647C224.111 13.9447 224.264 14.1547 224.366 14.3947L223.754 14.7097C223.634 14.4517 223.451 14.2417 223.205 14.0797C222.959 13.9177 222.677 13.8367 222.359 13.8367C222.041 13.8367 221.753 13.9177 221.495 14.0797C221.243 14.2357 221.042 14.4547 220.892 14.7367C220.748 15.0127 220.676 15.3277 220.676 15.6817C220.676 16.0297 220.748 16.3447 220.892 16.6267C221.042 16.9027 221.243 17.1217 221.495 17.2837C221.753 17.4457 222.041 17.5267 222.359 17.5267C222.677 17.5267 222.956 17.4457 223.196 17.2837C223.442 17.1217 223.628 16.9057 223.754 16.6357L224.366 16.9687C224.264 17.2027 224.111 17.4127 223.907 17.5987C223.703 17.7847 223.469 17.9317 223.205 18.0397C222.941 18.1477 222.659 18.2017 222.359 18.2017ZM227.576 18.1477C227.144 18.1477 226.811 18.0217 226.577 17.7697C226.343 17.5177 226.226 17.1577 226.226 16.6897V13.9447H225.335V13.2697H225.56C225.764 13.2697 225.926 13.2037 226.046 13.0717C226.166 12.9337 226.226 12.7627 226.226 12.5587V12.1537H226.901V13.2697H227.963V13.9447H226.901V16.6897C226.901 16.8517 226.925 16.9957 226.973 17.1217C227.021 17.2417 227.102 17.3377 227.216 17.4097C227.336 17.4817 227.495 17.5177 227.693 17.5177C227.741 17.5177 227.798 17.5147 227.864 17.5087C227.93 17.5027 227.987 17.4967 228.035 17.4907V18.0937C227.963 18.1117 227.882 18.1237 227.792 18.1297C227.702 18.1417 227.63 18.1477 227.576 18.1477ZM231.109 18.0937V13.2697H231.784V18.0937H231.109ZM231.109 12.3787V11.3887H231.784V12.3787H231.109ZM235.02 18.2017C234.558 18.2017 234.153 18.0847 233.805 17.8507C233.457 17.6167 233.205 17.2987 233.049 16.8967L233.616 16.6267C233.754 16.9207 233.946 17.1547 234.192 17.3287C234.444 17.5027 234.72 17.5897 235.02 17.5897C235.308 17.5897 235.551 17.5207 235.749 17.3827C235.947 17.2387 236.046 17.0527 236.046 16.8247C236.046 16.6567 235.998 16.5247 235.902 16.4287C235.806 16.3267 235.695 16.2487 235.569 16.1947C235.443 16.1407 235.332 16.1017 235.236 16.0777L234.543 15.8797C234.099 15.7537 233.778 15.5767 233.58 15.3487C233.382 15.1207 233.283 14.8567 233.283 14.5567C233.283 14.2747 233.355 14.0287 233.499 13.8187C233.643 13.6087 233.838 13.4467 234.084 13.3327C234.33 13.2187 234.603 13.1617 234.903 13.1617C235.311 13.1617 235.68 13.2697 236.01 13.4857C236.346 13.6957 236.583 13.9897 236.721 14.3677L236.145 14.6377C236.025 14.3677 235.851 14.1577 235.623 14.0077C235.401 13.8517 235.152 13.7737 234.876 13.7737C234.606 13.7737 234.39 13.8427 234.228 13.9807C234.066 14.1187 233.985 14.2927 233.985 14.5027C233.985 14.6647 234.027 14.7937 234.111 14.8897C234.195 14.9857 234.291 15.0577 234.399 15.1057C234.513 15.1537 234.612 15.1897 234.696 15.2137L235.497 15.4477C235.887 15.5617 236.19 15.7387 236.406 15.9787C236.628 16.2187 236.739 16.5007 236.739 16.8247C236.739 17.0887 236.664 17.3257 236.514 17.5357C236.37 17.7457 236.169 17.9107 235.911 18.0307C235.653 18.1447 235.356 18.2017 235.02 18.2017ZM145.353 31.2017C144.891 31.2017 144.486 31.0847 144.138 30.8507C143.79 30.6167 143.538 30.2987 143.382 29.8967L143.949 29.6267C144.087 29.9207 144.279 30.1547 144.525 30.3287C144.777 30.5027 145.053 30.5897 145.353 30.5897C145.641 30.5897 145.884 30.5207 146.082 30.3827C146.28 30.2387 146.379 30.0527 146.379 29.8247C146.379 29.6567 146.331 29.5247 146.235 29.4287C146.139 29.3267 146.028 29.2487 145.902 29.1947C145.776 29.1407 145.665 29.1017 145.569 29.0777L144.876 28.8797C144.432 28.7537 144.111 28.5767 143.913 28.3487C143.715 28.1207 143.616 27.8567 143.616 27.5567C143.616 27.2747 143.688 27.0287 143.832 26.8187C143.976 26.6087 144.171 26.4467 144.417 26.3327C144.663 26.2187 144.936 26.1617 145.236 26.1617C145.644 26.1617 146.013 26.2697 146.343 26.4857C146.679 26.6957 146.916 26.9897 147.054 27.3677L146.478 27.6377C146.358 27.3677 146.184 27.1577 145.956 27.0077C145.734 26.8517 145.485 26.7737 145.209 26.7737C144.939 26.7737 144.723 26.8427 144.561 26.9807C144.399 27.1187 144.318 27.2927 144.318 27.5027C144.318 27.6647 144.36 27.7937 144.444 27.8897C144.528 27.9857 144.624 28.0577 144.732 28.1057C144.846 28.1537 144.945 28.1897 145.029 28.2137L145.83 28.4477C146.22 28.5617 146.523 28.7387 146.739 28.9787C146.961 29.2187 147.072 29.5007 147.072 29.8247C147.072 30.0887 146.997 30.3257 146.847 30.5357C146.703 30.7457 146.502 30.9107 146.244 31.0307C145.986 31.1447 145.689 31.2017 145.353 31.2017ZM150.148 31.2017C149.812 31.2017 149.506 31.1237 149.23 30.9677C148.954 30.8057 148.735 30.5837 148.573 30.3017C148.417 30.0137 148.339 29.6837 148.339 29.3117V26.2697H149.014V29.2307C149.014 29.4887 149.065 29.7167 149.167 29.9147C149.275 30.1067 149.422 30.2567 149.608 30.3647C149.8 30.4727 150.019 30.5267 150.265 30.5267C150.511 30.5267 150.73 30.4727 150.922 30.3647C151.114 30.2507 151.264 30.0917 151.372 29.8877C151.48 29.6777 151.534 29.4287 151.534 29.1407V26.2697H152.209V31.0937H151.534V30.1577L151.687 30.1937C151.573 30.5057 151.378 30.7517 151.102 30.9317C150.826 31.1117 150.508 31.2017 150.148 31.2017ZM156.217 31.2017C155.803 31.2017 155.428 31.1087 155.092 30.9227C154.762 30.7307 154.513 30.4607 154.345 30.1127L154.453 30.0137V31.0937H153.778V24.2807H154.453V27.3497L154.345 27.1607C154.537 26.8547 154.792 26.6117 155.11 26.4317C155.434 26.2517 155.803 26.1617 156.217 26.1617C156.673 26.1617 157.078 26.2727 157.432 26.4947C157.792 26.7107 158.074 27.0077 158.278 27.3857C158.488 27.7637 158.593 28.1957 158.593 28.6817C158.593 29.1617 158.488 29.5937 158.278 29.9777C158.074 30.3557 157.792 30.6557 157.432 30.8777C157.078 31.0937 156.673 31.2017 156.217 31.2017ZM156.181 30.5267C156.505 30.5267 156.793 30.4457 157.045 30.2837C157.303 30.1217 157.504 29.9027 157.648 29.6267C157.798 29.3447 157.873 29.0297 157.873 28.6817C157.873 28.3277 157.798 28.0127 157.648 27.7367C157.504 27.4607 157.303 27.2417 157.045 27.0797C156.793 26.9177 156.505 26.8367 156.181 26.8367C155.857 26.8367 155.563 26.9177 155.299 27.0797C155.041 27.2417 154.834 27.4637 154.678 27.7457C154.528 28.0217 154.453 28.3337 154.453 28.6817C154.453 29.0297 154.528 29.3447 154.678 29.6267C154.834 29.9027 155.041 30.1217 155.299 30.2837C155.563 30.4457 155.857 30.5267 156.181 30.5267ZM159.961 31.0937V26.2697H160.636V27.1877L160.528 27.0527C160.66 26.7707 160.855 26.5517 161.113 26.3957C161.377 26.2397 161.665 26.1617 161.977 26.1617C162.349 26.1617 162.685 26.2667 162.985 26.4767C163.285 26.6867 163.498 26.9597 163.624 27.2957L163.435 27.3047C163.555 26.9327 163.762 26.6507 164.056 26.4587C164.356 26.2607 164.686 26.1617 165.046 26.1617C165.37 26.1617 165.667 26.2397 165.937 26.3957C166.213 26.5517 166.432 26.7677 166.594 27.0437C166.762 27.3137 166.846 27.6197 166.846 27.9617V31.0937H166.171V28.2227C166.171 27.9287 166.117 27.6797 166.009 27.4757C165.907 27.2717 165.766 27.1157 165.586 27.0077C165.406 26.8937 165.199 26.8367 164.965 26.8367C164.737 26.8367 164.53 26.8937 164.344 27.0077C164.158 27.1157 164.011 27.2747 163.903 27.4847C163.795 27.6887 163.741 27.9347 163.741 28.2227V31.0937H163.066V28.2227C163.066 27.9287 163.012 27.6797 162.904 27.4757C162.802 27.2717 162.661 27.1157 162.481 27.0077C162.301 26.8937 162.094 26.8367 161.86 26.8367C161.626 26.8367 161.416 26.8937 161.23 27.0077C161.05 27.1157 160.906 27.2747 160.798 27.4847C160.69 27.6887 160.636 27.9347 160.636 28.2227V31.0937H159.961ZM168.314 31.0937V26.2697H168.989V31.0937H168.314ZM168.314 25.3787V24.3887H168.989V25.3787H168.314ZM172.396 31.1477C171.964 31.1477 171.631 31.0217 171.397 30.7697C171.163 30.5177 171.046 30.1577 171.046 29.6897V26.9447H170.155V26.2697H170.38C170.584 26.2697 170.746 26.2037 170.866 26.0717C170.986 25.9337 171.046 25.7627 171.046 25.5587V25.1537H171.721V26.2697H172.783V26.9447H171.721V29.6897C171.721 29.8517 171.745 29.9957 171.793 30.1217C171.841 30.2417 171.922 30.3377 172.036 30.4097C172.156 30.4817 172.315 30.5177 172.513 30.5177C172.561 30.5177 172.618 30.5147 172.684 30.5087C172.75 30.5027 172.807 30.4967 172.855 30.4907V31.0937C172.783 31.1117 172.702 31.1237 172.612 31.1297C172.522 31.1417 172.45 31.1477 172.396 31.1477ZM176.065 31.1477C175.633 31.1477 175.3 31.0217 175.066 30.7697C174.832 30.5177 174.715 30.1577 174.715 29.6897V26.9447H173.824V26.2697H174.049C174.253 26.2697 174.415 26.2037 174.535 26.0717C174.655 25.9337 174.715 25.7627 174.715 25.5587V25.1537H175.39V26.2697H176.452V26.9447H175.39V29.6897C175.39 29.8517 175.414 29.9957 175.462 30.1217C175.51 30.2417 175.591 30.3377 175.705 30.4097C175.825 30.4817 175.984 30.5177 176.182 30.5177C176.23 30.5177 176.287 30.5147 176.353 30.5087C176.419 30.5027 176.476 30.4967 176.524 30.4907V31.0937C176.452 31.1117 176.371 31.1237 176.281 31.1297C176.191 31.1417 176.119 31.1477 176.065 31.1477ZM179.91 31.2017C179.46 31.2017 179.052 31.0937 178.686 30.8777C178.326 30.6557 178.041 30.3527 177.831 29.9687C177.621 29.5847 177.516 29.1497 177.516 28.6637C177.516 28.1777 177.618 27.7487 177.822 27.3767C178.026 26.9987 178.302 26.7017 178.65 26.4857C179.004 26.2697 179.4 26.1617 179.838 26.1617C180.186 26.1617 180.495 26.2277 180.765 26.3597C181.041 26.4857 181.275 26.6597 181.467 26.8817C181.659 27.0977 181.806 27.3437 181.908 27.6197C182.01 27.8897 182.061 28.1687 182.061 28.4567C182.061 28.5167 182.058 28.5857 182.052 28.6637C182.046 28.7357 182.037 28.8107 182.025 28.8887H177.948V28.2587H181.638L181.314 28.5287C181.368 28.1987 181.329 27.9047 181.197 27.6467C181.071 27.3827 180.888 27.1757 180.648 27.0257C180.408 26.8697 180.138 26.7917 179.838 26.7917C179.538 26.7917 179.259 26.8697 179.001 27.0257C178.749 27.1817 178.551 27.4007 178.407 27.6827C178.263 27.9587 178.206 28.2887 178.236 28.6727C178.206 29.0567 178.266 29.3927 178.416 29.6807C178.572 29.9627 178.782 30.1817 179.046 30.3377C179.316 30.4937 179.604 30.5717 179.91 30.5717C180.264 30.5717 180.561 30.4877 180.801 30.3197C181.041 30.1517 181.236 29.9417 181.386 29.6897L181.962 29.9957C181.866 30.2117 181.719 30.4127 181.521 30.5987C181.323 30.7787 181.086 30.9257 180.81 31.0397C180.54 31.1477 180.24 31.2017 179.91 31.2017ZM185.609 31.2017C185.159 31.2017 184.754 31.0937 184.394 30.8777C184.034 30.6557 183.749 30.3557 183.539 29.9777C183.335 29.5937 183.233 29.1617 183.233 28.6817C183.233 28.1957 183.335 27.7637 183.539 27.3857C183.749 27.0077 184.031 26.7107 184.385 26.4947C184.745 26.2727 185.153 26.1617 185.609 26.1617C186.023 26.1617 186.392 26.2517 186.716 26.4317C187.04 26.6117 187.295 26.8547 187.481 27.1607L187.373 27.3497V24.2807H188.048V31.0937H187.373V30.0137L187.481 30.1127C187.313 30.4607 187.061 30.7307 186.725 30.9227C186.395 31.1087 186.023 31.2017 185.609 31.2017ZM185.645 30.5267C185.969 30.5267 186.26 30.4457 186.518 30.2837C186.782 30.1217 186.989 29.9027 187.139 29.6267C187.295 29.3447 187.373 29.0297 187.373 28.6817C187.373 28.3337 187.295 28.0217 187.139 27.7457C186.989 27.4637 186.782 27.2417 186.518 27.0797C186.26 26.9177 185.969 26.8367 185.645 26.8367C185.327 26.8367 185.039 26.9177 184.781 27.0797C184.523 27.2417 184.319 27.4607 184.169 27.7367C184.025 28.0127 183.953 28.3277 183.953 28.6817C183.953 29.0297 184.025 29.3447 184.169 29.6267C184.319 29.9027 184.52 30.1217 184.772 30.2837C185.03 30.4457 185.321 30.5267 185.645 30.5267ZM192.718 31.2017C192.412 31.2017 192.139 31.1447 191.899 31.0307C191.659 30.9107 191.47 30.7487 191.332 30.5447C191.194 30.3407 191.125 30.1067 191.125 29.8427C191.125 29.5907 191.179 29.3627 191.287 29.1587C191.395 28.9487 191.563 28.7717 191.791 28.6277C192.019 28.4837 192.31 28.3817 192.664 28.3217L194.554 28.0067V28.6187L192.826 28.9067C192.478 28.9667 192.226 29.0777 192.07 29.2397C191.92 29.4017 191.845 29.5937 191.845 29.8157C191.845 30.0317 191.929 30.2147 192.097 30.3647C192.271 30.5147 192.493 30.5897 192.763 30.5897C193.093 30.5897 193.381 30.5207 193.627 30.3827C193.873 30.2387 194.065 30.0467 194.203 29.8067C194.341 29.5667 194.41 29.2997 194.41 29.0057V27.7817C194.41 27.4937 194.305 27.2597 194.095 27.0797C193.885 26.8997 193.612 26.8097 193.276 26.8097C192.982 26.8097 192.724 26.8847 192.502 27.0347C192.28 27.1787 192.115 27.3677 192.007 27.6017L191.395 27.2687C191.485 27.0647 191.626 26.8787 191.818 26.7107C192.016 26.5427 192.241 26.4107 192.493 26.3147C192.745 26.2127 193.006 26.1617 193.276 26.1617C193.63 26.1617 193.942 26.2307 194.212 26.3687C194.488 26.5067 194.701 26.6987 194.851 26.9447C195.007 27.1847 195.085 27.4637 195.085 27.7817V31.0937H194.41V30.1307L194.509 30.2297C194.425 30.4097 194.293 30.5747 194.113 30.7247C193.939 30.8687 193.732 30.9857 193.492 31.0757C193.258 31.1597 193 31.2017 192.718 31.2017ZM196.653 31.0937V26.2697H197.328V27.2057L197.175 27.1697C197.295 26.8577 197.49 26.6117 197.76 26.4317C198.036 26.2517 198.354 26.1617 198.714 26.1617C199.056 26.1617 199.362 26.2397 199.632 26.3957C199.908 26.5517 200.124 26.7677 200.28 27.0437C200.442 27.3137 200.523 27.6197 200.523 27.9617V31.0937H199.848V28.2227C199.848 27.9287 199.794 27.6797 199.686 27.4757C199.584 27.2717 199.437 27.1157 199.245 27.0077C199.059 26.8937 198.843 26.8367 198.597 26.8367C198.351 26.8367 198.132 26.8937 197.94 27.0077C197.748 27.1157 197.598 27.2747 197.49 27.4847C197.382 27.6887 197.328 27.9347 197.328 28.2227V31.0937H196.653ZM204.171 31.2017C203.721 31.2017 203.316 31.0937 202.956 30.8777C202.596 30.6557 202.311 30.3557 202.101 29.9777C201.897 29.5937 201.795 29.1617 201.795 28.6817C201.795 28.1957 201.897 27.7637 202.101 27.3857C202.311 27.0077 202.593 26.7107 202.947 26.4947C203.307 26.2727 203.715 26.1617 204.171 26.1617C204.585 26.1617 204.954 26.2517 205.278 26.4317C205.602 26.6117 205.857 26.8547 206.043 27.1607L205.935 27.3497V24.2807H206.61V31.0937H205.935V30.0137L206.043 30.1127C205.875 30.4607 205.623 30.7307 205.287 30.9227C204.957 31.1087 204.585 31.2017 204.171 31.2017ZM204.207 30.5267C204.531 30.5267 204.822 30.4457 205.08 30.2837C205.344 30.1217 205.551 29.9027 205.701 29.6267C205.857 29.3447 205.935 29.0297 205.935 28.6817C205.935 28.3337 205.857 28.0217 205.701 27.7457C205.551 27.4637 205.344 27.2417 205.08 27.0797C204.822 26.9177 204.531 26.8367 204.207 26.8367C203.889 26.8367 203.601 26.9177 203.343 27.0797C203.085 27.2417 202.881 27.4607 202.731 27.7367C202.587 28.0127 202.515 28.3277 202.515 28.6817C202.515 29.0297 202.587 29.3447 202.731 29.6267C202.881 29.9027 203.082 30.1217 203.334 30.2837C203.592 30.4457 203.883 30.5267 204.207 30.5267ZM209.885 31.0937V26.2697H210.56V27.2057L210.407 27.1697C210.527 26.8577 210.722 26.6117 210.992 26.4317C211.268 26.2517 211.586 26.1617 211.946 26.1617C212.288 26.1617 212.594 26.2397 212.864 26.3957C213.14 26.5517 213.356 26.7677 213.512 27.0437C213.674 27.3137 213.755 27.6197 213.755 27.9617V31.0937H213.08V28.2227C213.08 27.9287 213.026 27.6797 212.918 27.4757C212.816 27.2717 212.669 27.1157 212.477 27.0077C212.291 26.8937 212.075 26.8367 211.829 26.8367C211.583 26.8367 211.364 26.8937 211.172 27.0077C210.98 27.1157 210.83 27.2747 210.722 27.4847C210.614 27.6887 210.56 27.9347 210.56 28.2227V31.0937H209.885ZM217.483 31.2017C217.027 31.2017 216.613 31.0937 216.241 30.8777C215.869 30.6557 215.572 30.3557 215.35 29.9777C215.134 29.5937 215.026 29.1587 215.026 28.6727C215.026 28.1927 215.134 27.7637 215.35 27.3857C215.566 27.0077 215.857 26.7107 216.223 26.4947C216.595 26.2727 217.015 26.1617 217.483 26.1617C217.951 26.1617 218.368 26.2697 218.734 26.4857C219.106 26.7017 219.397 26.9987 219.607 27.3767C219.823 27.7547 219.931 28.1867 219.931 28.6727C219.931 29.1647 219.82 29.6027 219.598 29.9867C219.376 30.3647 219.079 30.6617 218.707 30.8777C218.341 31.0937 217.933 31.2017 217.483 31.2017ZM217.483 30.5267C217.807 30.5267 218.098 30.4457 218.356 30.2837C218.62 30.1217 218.827 29.8997 218.977 29.6177C219.133 29.3357 219.211 29.0207 219.211 28.6727C219.211 28.3247 219.133 28.0127 218.977 27.7367C218.827 27.4607 218.62 27.2417 218.356 27.0797C218.098 26.9177 217.807 26.8367 217.483 26.8367C217.159 26.8367 216.865 26.9177 216.601 27.0797C216.343 27.2417 216.136 27.4607 215.98 27.7367C215.824 28.0127 215.746 28.3247 215.746 28.6727C215.746 29.0207 215.824 29.3357 215.98 29.6177C216.136 29.8997 216.343 30.1217 216.601 30.2837C216.865 30.4457 217.159 30.5267 217.483 30.5267ZM223.059 31.1477C222.627 31.1477 222.294 31.0217 222.06 30.7697C221.826 30.5177 221.709 30.1577 221.709 29.6897V26.9447H220.818V26.2697H221.043C221.247 26.2697 221.409 26.2037 221.529 26.0717C221.649 25.9337 221.709 25.7627 221.709 25.5587V25.1537H222.384V26.2697H223.446V26.9447H222.384V29.6897C222.384 29.8517 222.408 29.9957 222.456 30.1217C222.504 30.2417 222.585 30.3377 222.699 30.4097C222.819 30.4817 222.978 30.5177 223.176 30.5177C223.224 30.5177 223.281 30.5147 223.347 30.5087C223.413 30.5027 223.47 30.4967 223.518 30.4907V31.0937C223.446 31.1117 223.365 31.1237 223.275 31.1297C223.185 31.1417 223.113 31.1477 223.059 31.1477ZM225.692 33.0737C225.65 33.0737 225.593 33.0707 225.521 33.0647C225.443 33.0587 225.38 33.0497 225.332 33.0377V32.4167C225.458 32.4347 225.584 32.4437 225.71 32.4437C225.956 32.4437 226.163 32.3687 226.331 32.2187C226.505 32.0687 226.592 31.8437 226.592 31.5437V26.2697H227.267V31.5437C227.267 31.8737 227.195 32.1527 227.051 32.3807C226.907 32.6087 226.715 32.7797 226.475 32.8937C226.241 33.0137 225.98 33.0737 225.692 33.0737ZM226.592 25.3787V24.3887H227.267V25.3787H226.592ZM230.539 31.2017C230.203 31.2017 229.897 31.1237 229.621 30.9677C229.345 30.8057 229.126 30.5837 228.964 30.3017C228.808 30.0137 228.73 29.6837 228.73 29.3117V26.2697H229.405V29.2307C229.405 29.4887 229.456 29.7167 229.558 29.9147C229.666 30.1067 229.813 30.2567 229.999 30.3647C230.191 30.4727 230.41 30.5267 230.656 30.5267C230.902 30.5267 231.121 30.4727 231.313 30.3647C231.505 30.2507 231.655 30.0917 231.763 29.8877C231.871 29.6777 231.925 29.4287 231.925 29.1407V26.2697H232.6V31.0937H231.925V30.1577L232.078 30.1937C231.964 30.5057 231.769 30.7517 231.493 30.9317C231.217 31.1117 230.899 31.2017 230.539 31.2017ZM235.842 31.2017C235.38 31.2017 234.975 31.0847 234.627 30.8507C234.279 30.6167 234.027 30.2987 233.871 29.8967L234.438 29.6267C234.576 29.9207 234.768 30.1547 235.014 30.3287C235.266 30.5027 235.542 30.5897 235.842 30.5897C236.13 30.5897 236.373 30.5207 236.571 30.3827C236.769 30.2387 236.868 30.0527 236.868 29.8247C236.868 29.6567 236.82 29.5247 236.724 29.4287C236.628 29.3267 236.517 29.2487 236.391 29.1947C236.265 29.1407 236.154 29.1017 236.058 29.0777L235.365 28.8797C234.921 28.7537 234.6 28.5767 234.402 28.3487C234.204 28.1207 234.105 27.8567 234.105 27.5567C234.105 27.2747 234.177 27.0287 234.321 26.8187C234.465 26.6087 234.66 26.4467 234.906 26.3327C235.152 26.2187 235.425 26.1617 235.725 26.1617C236.133 26.1617 236.502 26.2697 236.832 26.4857C237.168 26.6957 237.405 26.9897 237.543 27.3677L236.967 27.6377C236.847 27.3677 236.673 27.1577 236.445 27.0077C236.223 26.8517 235.974 26.7737 235.698 26.7737C235.428 26.7737 235.212 26.8427 235.05 26.9807C234.888 27.1187 234.807 27.2927 234.807 27.5027C234.807 27.6647 234.849 27.7937 234.933 27.8897C235.017 27.9857 235.113 28.0577 235.221 28.1057C235.335 28.1537 235.434 28.1897 235.518 28.2137L236.319 28.4477C236.709 28.5617 237.012 28.7387 237.228 28.9787C237.45 29.2187 237.561 29.5007 237.561 29.8247C237.561 30.0887 237.486 30.3257 237.336 30.5357C237.192 30.7457 236.991 30.9107 236.733 31.0307C236.475 31.1447 236.178 31.2017 235.842 31.2017ZM240.772 31.1477C240.34 31.1477 240.007 31.0217 239.773 30.7697C239.539 30.5177 239.422 30.1577 239.422 29.6897V26.9447H238.531V26.2697H238.756C238.96 26.2697 239.122 26.2037 239.242 26.0717C239.362 25.9337 239.422 25.7627 239.422 25.5587V25.1537H240.097V26.2697H241.159V26.9447H240.097V29.6897C240.097 29.8517 240.121 29.9957 240.169 30.1217C240.217 30.2417 240.298 30.3377 240.412 30.4097C240.532 30.4817 240.691 30.5177 240.889 30.5177C240.937 30.5177 240.994 30.5147 241.06 30.5087C241.126 30.5027 241.183 30.4967 241.231 30.4907V31.0937C241.159 31.1117 241.078 31.1237 240.988 31.1297C240.898 31.1417 240.826 31.1477 240.772 31.1477ZM245.701 31.2017C245.395 31.2017 245.122 31.1447 244.882 31.0307C244.642 30.9107 244.453 30.7487 244.315 30.5447C244.177 30.3407 244.108 30.1067 244.108 29.8427C244.108 29.5907 244.162 29.3627 244.27 29.1587C244.378 28.9487 244.546 28.7717 244.774 28.6277C245.002 28.4837 245.293 28.3817 245.647 28.3217L247.537 28.0067V28.6187L245.809 28.9067C245.461 28.9667 245.209 29.0777 245.053 29.2397C244.903 29.4017 244.828 29.5937 244.828 29.8157C244.828 30.0317 244.912 30.2147 245.08 30.3647C245.254 30.5147 245.476 30.5897 245.746 30.5897C246.076 30.5897 246.364 30.5207 246.61 30.3827C246.856 30.2387 247.048 30.0467 247.186 29.8067C247.324 29.5667 247.393 29.2997 247.393 29.0057V27.7817C247.393 27.4937 247.288 27.2597 247.078 27.0797C246.868 26.8997 246.595 26.8097 246.259 26.8097C245.965 26.8097 245.707 26.8847 245.485 27.0347C245.263 27.1787 245.098 27.3677 244.99 27.6017L244.378 27.2687C244.468 27.0647 244.609 26.8787 244.801 26.7107C244.999 26.5427 245.224 26.4107 245.476 26.3147C245.728 26.2127 245.989 26.1617 246.259 26.1617C246.613 26.1617 246.925 26.2307 247.195 26.3687C247.471 26.5067 247.684 26.6987 247.834 26.9447C247.99 27.1847 248.068 27.4637 248.068 27.7817V31.0937H247.393V30.1307L247.492 30.2297C247.408 30.4097 247.276 30.5747 247.096 30.7247C246.922 30.8687 246.715 30.9857 246.475 31.0757C246.241 31.1597 245.983 31.2017 245.701 31.2017ZM253.523 31.2017C253.073 31.2017 252.668 31.0937 252.308 30.8777C251.948 30.6557 251.663 30.3557 251.453 29.9777C251.249 29.5937 251.147 29.1617 251.147 28.6817C251.147 28.1957 251.249 27.7637 251.453 27.3857C251.663 27.0077 251.945 26.7107 252.299 26.4947C252.659 26.2727 253.067 26.1617 253.523 26.1617C253.937 26.1617 254.306 26.2517 254.63 26.4317C254.954 26.6117 255.209 26.8547 255.395 27.1607L255.287 27.3497V24.2807H255.962V31.0937H255.287V30.0137L255.395 30.1127C255.227 30.4607 254.975 30.7307 254.639 30.9227C254.309 31.1087 253.937 31.2017 253.523 31.2017ZM253.559 30.5267C253.883 30.5267 254.174 30.4457 254.432 30.2837C254.696 30.1217 254.903 29.9027 255.053 29.6267C255.209 29.3447 255.287 29.0297 255.287 28.6817C255.287 28.3337 255.209 28.0217 255.053 27.7457C254.903 27.4637 254.696 27.2417 254.432 27.0797C254.174 26.9177 253.883 26.8367 253.559 26.8367C253.241 26.8367 252.953 26.9177 252.695 27.0797C252.437 27.2417 252.233 27.4607 252.083 27.7367C251.939 28.0127 251.867 28.3277 251.867 28.6817C251.867 29.0297 251.939 29.3447 252.083 29.6267C252.233 29.9027 252.434 30.1217 252.686 30.2837C252.944 30.4457 253.235 30.5267 253.559 30.5267ZM257.528 31.0937V26.2697H258.203V27.0617L258.113 26.9447C258.227 26.7167 258.398 26.5367 258.626 26.4047C258.86 26.2727 259.142 26.2067 259.472 26.2067H259.778V26.8817H259.355C259.007 26.8817 258.728 26.9897 258.518 27.2057C258.308 27.4217 258.203 27.7277 258.203 28.1237V31.0937H257.528ZM262.144 31.2017C261.838 31.2017 261.565 31.1447 261.325 31.0307C261.085 30.9107 260.896 30.7487 260.758 30.5447C260.62 30.3407 260.551 30.1067 260.551 29.8427C260.551 29.5907 260.605 29.3627 260.713 29.1587C260.821 28.9487 260.989 28.7717 261.217 28.6277C261.445 28.4837 261.736 28.3817 262.09 28.3217L263.98 28.0067V28.6187L262.252 28.9067C261.904 28.9667 261.652 29.0777 261.496 29.2397C261.346 29.4017 261.271 29.5937 261.271 29.8157C261.271 30.0317 261.355 30.2147 261.523 30.3647C261.697 30.5147 261.919 30.5897 262.189 30.5897C262.519 30.5897 262.807 30.5207 263.053 30.3827C263.299 30.2387 263.491 30.0467 263.629 29.8067C263.767 29.5667 263.836 29.2997 263.836 29.0057V27.7817C263.836 27.4937 263.731 27.2597 263.521 27.0797C263.311 26.8997 263.038 26.8097 262.702 26.8097C262.408 26.8097 262.15 26.8847 261.928 27.0347C261.706 27.1787 261.541 27.3677 261.433 27.6017L260.821 27.2687C260.911 27.0647 261.052 26.8787 261.244 26.7107C261.442 26.5427 261.667 26.4107 261.919 26.3147C262.171 26.2127 262.432 26.1617 262.702 26.1617C263.056 26.1617 263.368 26.2307 263.638 26.3687C263.914 26.5067 264.127 26.6987 264.277 26.9447C264.433 27.1847 264.511 27.4637 264.511 27.7817V31.0937H263.836V30.1307L263.935 30.2297C263.851 30.4097 263.719 30.5747 263.539 30.7247C263.365 30.8687 263.158 30.9857 262.918 31.0757C262.684 31.1597 262.426 31.2017 262.144 31.2017ZM266.575 31.0937V26.9447H265.612V26.2697H266.575V25.8377C266.575 25.5017 266.65 25.2197 266.8 24.9917C266.95 24.7577 267.148 24.5807 267.394 24.4607C267.64 24.3407 267.904 24.2807 268.186 24.2807C268.246 24.2807 268.315 24.2867 268.393 24.2987C268.471 24.3047 268.534 24.3137 268.582 24.3257V24.9377C268.54 24.9257 268.483 24.9197 268.411 24.9197C268.339 24.9137 268.288 24.9107 268.258 24.9107C267.97 24.9107 267.73 24.9797 267.538 25.1177C267.346 25.2557 267.25 25.4957 267.25 25.8377V26.2697H268.429V26.9447H267.25V31.0937H266.575ZM271.726 31.1477C271.294 31.1477 270.961 31.0217 270.727 30.7697C270.493 30.5177 270.376 30.1577 270.376 29.6897V26.9447H269.485V26.2697H269.71C269.914 26.2697 270.076 26.2037 270.196 26.0717C270.316 25.9337 270.376 25.7627 270.376 25.5587V25.1537L271.051 25.1537V26.2697H272.113V26.9447H271.051V29.6897C271.051 29.8517 271.075 29.9957 271.123 30.1217C271.171 30.2417 271.252 30.3377 271.366 30.4097C271.486 30.4817 271.645 30.5177 271.843 30.5177C271.891 30.5177 271.948 30.5147 272.014 30.5087C272.08 30.5027 272.137 30.4967 272.185 30.4907V31.0937C272.113 31.1117 272.032 31.1237 271.942 31.1297C271.852 31.1417 271.78 31.1477 271.726 31.1477Z" fill="#005271"/>
<defs>
<clipPath id="clip0_2532_234">
<rect width="135.628" height="153.318" fill="white" transform="translate(18)"/>
</clipPath>
</defs>
</svg>
