<svg width="1279" height="506" viewBox="0 0 1279 506" fill="none" xmlns="http://www.w3.org/2000/svg">
<path d="M0 307H1279V493.5C1279 500.127 1273.63 505.5 1267 505.5H12C5.37255 505.5 0 500.127 0 493.5V307Z" fill="#123041"/>
<g clip-path="url(#clip0_2486_368)">
<mask id="mask0_2486_368" style="mask-type:alpha" maskUnits="userSpaceOnUse" x="342" y="11" width="275" height="320">
<rect width="240.087" height="291.999" transform="matrix(0.9929 -0.118948 -0.118948 -0.9929 377.676 330.202)" fill="#D9D9D9"/>
</mask>
<g mask="url(#mask0_2486_368)">
<path d="M561.108 361.102C577.613 347.028 544.458 275.54 525.819 268.268C507.18 260.997 478.86 265.829 467.301 275.279C455.741 284.728 433.87 363.96 453.266 374.021C472.663 384.082 544.603 375.176 561.108 361.102Z" fill="white"/>
<path d="M550.162 336.738C552.835 359.051 534.379 366.697 510.819 369.52C487.26 372.342 467.52 369.271 464.847 346.959C461.333 317.627 478.442 298.736 502.002 295.914C525.561 293.092 546.648 307.407 550.162 336.738Z" fill="#F4F4F4"/>
<path d="M406.62 113.016C415.91 133.905 449.649 172.938 457.836 189.969L515.131 183.105C519.064 164.622 540.42 118.989 546.303 96.2826C553.6 68.1217 538.471 34.4689 508.922 38.0088C484.524 40.9317 477.922 82.5889 477.298 104.549C471.505 83.3576 454.413 44.5389 430.852 47.3615C401.303 50.9014 394.799 86.4357 406.62 113.016Z" fill="white"/>
<path d="M595.044 215.622C600.274 259.276 554.139 279.486 495.958 286.456C437.777 293.426 387.821 284.727 382.592 241.073C373.674 166.639 418.839 135.341 477.02 128.371C535.201 121.401 585.703 137.643 595.044 215.622Z" fill="white"/>
<path d="M447.953 220.091L449.556 233.474" stroke="#123041" stroke-width="12.6361" stroke-linecap="round"/>
<path d="M549.16 207.966L550.763 221.349" stroke="#123041" stroke-width="12.6361" stroke-linecap="round"/>
<path d="M426.766 255.717L439.312 254.214" stroke="#FFD2D2" stroke-width="16.8482" stroke-linecap="round"/>
<path d="M565.617 239.084L578.164 237.581" stroke="#FFD2D2" stroke-width="16.8482" stroke-linecap="round"/>
<path d="M516.509 247.052C517.412 254.589 517.866 258.378 504.064 260.032C490.263 261.685 489.89 258.569 488.906 250.359C487.923 242.148 492.534 228.324 500.157 227.411C507.779 226.498 515.606 239.515 516.509 247.052Z" fill="#FFD2D2"/>
<path fill-rule="evenodd" clip-rule="evenodd" d="M489.809 240.543C491.501 234.1 495.192 228.008 500.165 227.412C505.07 226.825 510.06 232.006 513.235 237.783C510.11 239.725 506.199 241.112 501.866 241.631C497.491 242.155 493.325 241.717 489.809 240.543Z" fill="#E7EAEE"/>
<path d="M495.333 216.111C496.975 215.915 497.81 216.509 498.918 217.07C499.862 216.263 500.532 215.489 502.174 215.292C504.226 215.046 505.676 217.054 505.32 218.386C504.841 220.179 502.538 222.19 499.655 223.229C496.609 222.9 493.896 221.49 493.007 219.861C492.347 218.651 493.281 216.357 495.333 216.111Z" fill="#FFD2D2"/>
<rect x="385.566" y="309.278" width="209.76" height="22.745" fill="#123041"/>
</g>
<path d="M478.852 315.316C478.478 322.518 466.38 327.841 452.441 327.118C438.503 326.394 428.002 319.896 428.376 312.695C429.009 300.496 439.278 291.251 454.955 292.065C470.632 292.879 479.508 302.697 478.852 315.316Z" fill="white"/>
<path d="M576.571 315.316C576.197 322.518 564.099 327.841 550.16 327.118C536.221 326.394 525.72 319.896 526.094 312.695C526.728 300.496 536.996 291.251 552.674 292.065C568.351 292.879 577.226 302.697 576.571 315.316Z" fill="white"/>
</g>
<g clip-path="url(#clip1_2486_368)">
<mask id="mask1_2486_368" style="mask-type:alpha" maskUnits="userSpaceOnUse" x="111" y="124" width="273" height="186">
<rect width="271.256" height="184.488" transform="matrix(1 0 0 -1 111.785 309.276)" fill="#D9D9D9"/>
</mask>
<g mask="url(#mask1_2486_368)">
<path d="M153.592 152.715C179.095 167.808 171.216 175.332 164.627 186.466C158.038 197.6 154.716 207.821 129.731 193.034C117.048 185.528 112.107 170.418 118.696 159.284C125.285 148.15 140.909 145.209 153.592 152.715Z" fill="white"/>
<path d="M190.973 155.296C190.973 169.353 186.07 169.436 180.022 169.436C173.973 169.436 169.07 169.353 169.07 155.296C169.07 141.238 175.782 129.843 180.022 129.843C184.261 129.843 190.973 141.238 190.973 155.296Z" fill="#6A5B3D"/>
<path d="M323.231 155.296C323.231 169.353 318.328 169.436 312.279 169.436C306.231 169.436 301.328 169.353 301.328 155.296C301.328 141.238 308.04 129.843 312.279 129.843C316.519 129.843 323.231 141.238 323.231 155.296Z" fill="#6A5B3D"/>
<path d="M341.119 152.715C315.616 167.808 323.495 175.332 330.084 186.466C336.673 197.6 339.995 207.821 364.98 193.034C377.663 185.528 382.604 170.418 376.015 159.284C369.426 148.15 353.802 145.209 341.119 152.715Z" fill="#123041"/>
<path d="M347.415 165.582C334.704 173.104 337.995 175.78 340.495 180.005C342.995 184.229 344.015 188.249 356.468 180.879C362.789 177.138 365.887 170.681 363.387 166.457C360.888 162.232 353.736 161.841 347.415 165.582Z" fill="#FFC0C1"/>
<path d="M146.542 165.582C159.253 173.104 155.962 175.78 153.462 180.005C150.962 184.229 149.942 188.249 137.489 180.879C131.168 177.138 128.07 170.681 130.57 166.457C133.07 162.232 140.221 161.841 146.542 165.582Z" fill="#FFC0C1"/>
<path d="M300.031 377.662C318.093 365.651 293.677 290.727 276.035 281.29C258.393 271.853 229.7 273.283 217.098 281.29C204.497 289.297 173.356 365.365 191.418 377.662C209.48 389.959 281.969 389.673 300.031 377.662Z" fill="white"/>
<path d="M293.75 350.485C293.75 372.956 274.515 378.354 250.787 378.354C227.059 378.354 207.824 372.956 207.824 350.485C207.824 320.943 227.059 304.222 250.787 304.222C274.515 304.222 293.75 320.943 293.75 350.485Z" fill="#FFC0C1"/>
<path d="M352.718 239.779C352.718 283.745 304.506 298.325 245.909 298.325C187.313 298.325 138.746 283.745 138.746 239.779C138.746 164.812 187.313 139.109 245.909 139.109C304.506 139.109 352.718 161.242 352.718 239.779Z" fill="white"/>
<path fill-rule="evenodd" clip-rule="evenodd" d="M253.355 139.233C253.848 153.262 256.778 171.661 265.97 179.102C274.053 185.646 283.382 187.312 291.717 188.801C298.842 190.074 305.241 191.217 309.518 195.165C311.79 197.263 313.806 200.173 315.989 203.326C322.567 212.825 330.666 224.522 351.894 222.796C345.615 160.994 304.143 140.954 253.355 139.233Z" fill="#123041"/>
<path d="M211.191 263.112C211.191 245.805 225.222 231.774 242.529 231.774H258.198C275.505 231.774 289.535 245.805 289.535 263.112V263.112C289.535 274.65 280.182 284.004 268.644 284.004H232.083C220.545 284.004 211.191 274.65 211.191 263.112V263.112Z" fill="#FFC0C1"/>
<path d="M233.938 255.361V264.628" stroke="#123041" stroke-width="8.42409" stroke-linecap="round"/>
<path d="M267.633 255.361L267.633 264.628" stroke="#123041" stroke-width="8.42409" stroke-linecap="round"/>
<path d="M169.07 264.628H181.706" stroke="#FFC0C1" stroke-width="16.8482" stroke-linecap="round"/>
<path d="M319.863 264.628H332.499" stroke="#FFC0C1" stroke-width="16.8482" stroke-linecap="round"/>
<path d="M199.777 243.688C199.777 243.688 197.227 240.763 191.489 240.763C185.751 240.763 183.201 243.688 183.201 243.688" stroke="#123041" stroke-width="10.3961" stroke-linecap="round"/>
<path d="M317.617 243.688C317.617 243.688 315.067 240.763 309.329 240.763C303.591 240.763 301.041 243.688 301.041 243.688" stroke="#123041" stroke-width="10.3961" stroke-linecap="round"/>
</g>
<path d="M226.13 315.315C225.756 322.517 213.657 327.84 199.719 327.117C185.78 326.393 175.279 319.895 175.653 312.694C176.287 300.495 186.555 291.25 202.232 292.064C217.91 292.878 226.785 302.696 226.13 315.315Z" fill="white"/>
<path d="M323.848 315.315C323.474 322.517 311.376 327.84 297.437 327.117C283.499 326.393 272.998 319.895 273.372 312.694C274.005 300.495 284.274 291.25 299.951 292.064C315.629 292.878 324.504 302.696 323.848 315.315Z" fill="white"/>
</g>
<path d="M731.575 315.315C731.201 322.517 719.103 327.84 705.164 327.117C691.225 326.393 680.724 319.895 681.098 312.694C681.732 300.495 692 291.25 707.678 292.064C723.355 292.878 732.23 302.696 731.575 315.315Z" fill="#5BB42B"/>
<path d="M829.294 315.315C828.92 322.517 816.821 327.84 802.883 327.117C788.944 326.393 778.443 319.895 778.817 312.694C779.451 300.495 789.719 291.25 805.396 292.064C821.074 292.878 829.949 302.696 829.294 315.315Z" fill="#5BB42B"/>
<ellipse cx="33.6726" cy="36.2865" rx="33.6726" ry="36.2865" transform="matrix(-0.877234 -0.480064 -0.480064 0.877234 876.82 191.753)" fill="#5BB42B"/>
<ellipse cx="683.568" cy="206.482" rx="33.6726" ry="36.2865" transform="rotate(-28.6896 683.568 206.482)" fill="#5BB42B"/>
<path d="M647.686 265.695C647.686 310.127 693.764 310.118 753.283 310.118C812.803 310.118 865.027 310.127 865.027 265.695C865.027 201.869 815.696 174.49 756.176 174.49C696.657 174.49 647.686 196.814 647.686 265.695Z" fill="#5BB42B"/>
<path d="M842.281 250.308H827.96" stroke="#A1DC3C" stroke-width="16.8482" stroke-linecap="round"/>
<path d="M686.438 250.308H672.117" stroke="#A1DC3C" stroke-width="16.8482" stroke-linecap="round"/>
<path d="M687.152 218.296L680.414 219.981" stroke="#123041" stroke-width="12.6361" stroke-linecap="round"/>
<path d="M816.887 219.138L823.625 220.823" stroke="#123041" stroke-width="12.6361" stroke-linecap="round"/>
<path d="M720.008 222.086C721.833 223.35 726.831 225.877 732.223 225.877C738.962 225.877 741.489 219.98 748.65 219.98C755.81 219.98 758.337 225.877 765.077 225.877C770.468 225.877 775.466 223.35 777.292 222.086" stroke="#4B890D" stroke-width="4.21205" stroke-linecap="round"/>
<g clip-path="url(#clip2_2486_368)">
<mask id="mask2_2486_368" style="mask-type:alpha" maskUnits="userSpaceOnUse" x="877" y="81" width="271" height="260">
<rect x="1114.56" y="340.129" width="240.087" height="226.047" transform="rotate(-171.59 1114.56 340.129)" fill="#D9D9D9"/>
</mask>
<g mask="url(#mask2_2486_368)">
<g clip-path="url(#clip3_2486_368)">
<path d="M934.66 367.746C918.549 353.223 953.66 282.675 972.493 275.92C991.325 269.164 1019.5 274.775 1030.8 284.539C1042.09 294.303 1061.77 374.108 1042.11 383.631C1022.44 393.154 950.771 382.269 934.66 367.746Z" fill="#FFDB40"/>
<path d="M903.203 220.308C896.773 263.802 942.334 285.275 1000.3 293.845C1058.27 302.415 1108.44 295.095 1114.87 251.602C1125.84 177.441 1081.55 144.912 1023.59 136.342C965.62 127.772 914.689 142.616 903.203 220.308Z" fill="#FFDB40"/>
<path d="M1074.23 267.306L1061.73 265.458" stroke="#FCA18E" stroke-width="16.8482" stroke-linecap="round"/>
<path d="M935.895 246.853L923.394 245.004" stroke="#FCA18E" stroke-width="16.8482" stroke-linecap="round"/>
<path d="M1047.77 220.129L1045.8 233.463" stroke="#123041" stroke-width="12.6361" stroke-linecap="round"/>
<path d="M946.93 205.223L944.958 218.556" stroke="#123041" stroke-width="12.6361" stroke-linecap="round"/>
<path d="M968.215 237.126C967.092 244.72 976.127 249.366 987.864 251.101C999.6 252.836 1009.59 251.003 1010.72 243.409C1011.84 235.815 1003.67 225.336 991.929 223.6C980.193 221.865 969.337 229.532 968.215 237.126Z" fill="#FFB132"/>
<path d="M1020.21 106.226C1031.2 119.305 1036.6 132.952 1037.06 144.712L1015.16 139.051C1006.15 136.72 998.968 124.624 1001.31 111.578C1003.65 98.5312 1014.63 99.5749 1020.21 106.226Z" fill="#FFDB40"/>
<path d="M1040.81 127.367C1036.31 130.628 1034.08 138.857 1033.52 142.563C1041.25 142.986 1054.39 142.533 1057.41 137.99C1060.42 133.446 1059.89 127.164 1057.31 125.305C1054.73 123.445 1046.44 123.291 1040.81 127.367Z" fill="#FFDB40"/>
<rect x="875.016" y="309.278" width="209.76" height="22.745" fill="#123041"/>
</g>
</g>
<path d="M1026.87 315.316C1027.24 322.518 1039.34 327.841 1053.28 327.118C1067.22 326.394 1077.72 319.896 1077.35 312.695C1076.71 300.496 1066.45 291.251 1050.77 292.065C1035.09 292.879 1026.22 302.697 1026.87 315.316Z" fill="#FFDB40"/>
<path d="M929.152 315.316C929.526 322.518 941.624 327.841 955.563 327.118C969.501 326.394 980.002 319.896 979.628 312.695C978.995 300.496 968.726 291.251 953.049 292.065C937.371 292.879 928.496 302.697 929.152 315.316Z" fill="#FFDB40"/>
</g>
<path d="M599.813 81.2248L597.946 58.4981L634.075 62.3476L599.813 81.2248Z" fill="white"/>
<path d="M582.066 16C582.066 7.16345 589.23 0 598.066 0L1078 0C1086.84 0 1094 7.16344 1094 16V48.3736C1094 57.2101 1086.84 64.3736 1078 64.3736H598.066C589.23 64.3736 582.066 57.2101 582.066 48.3736V16Z" fill="white"/>
<path d="M613.022 39.1865V25.7765H621.662V27.1265H614.462V31.7885H621.302V33.1385H614.462V37.8365H621.662V39.1865H613.022ZM624.206 39.1865V29.5385H625.556V31.4105L625.25 31.3385C625.49 30.7145 625.88 30.2225 626.42 29.8625C626.972 29.5025 627.608 29.3225 628.328 29.3225C629.012 29.3225 629.624 29.4785 630.164 29.7905C630.716 30.1025 631.148 30.5345 631.46 31.0865C631.784 31.6265 631.946 32.2385 631.946 32.9225V39.1865H630.596V33.4445C630.596 32.8565 630.488 32.3585 630.272 31.9505C630.068 31.5425 629.774 31.2305 629.39 31.0145C629.018 30.7865 628.586 30.6725 628.094 30.6725C627.602 30.6725 627.164 30.7865 626.78 31.0145C626.396 31.2305 626.096 31.5485 625.88 31.9685C625.664 32.3765 625.556 32.8685 625.556 33.4445V39.1865H624.206ZM638.232 39.4025C637.308 39.4025 636.498 39.1685 635.802 38.7005C635.106 38.2325 634.602 37.5965 634.29 36.7925L635.424 36.2525C635.7 36.8405 636.084 37.3085 636.576 37.6565C637.08 38.0045 637.632 38.1785 638.232 38.1785C638.808 38.1785 639.294 38.0405 639.69 37.7645C640.086 37.4765 640.284 37.1045 640.284 36.6485C640.284 36.3125 640.188 36.0485 639.996 35.8565C639.804 35.6525 639.582 35.4965 639.33 35.3885C639.078 35.2805 638.856 35.2025 638.664 35.1545L637.278 34.7585C636.39 34.5065 635.748 34.1525 635.352 33.6965C634.956 33.2405 634.758 32.7125 634.758 32.1125C634.758 31.5485 634.902 31.0565 635.19 30.6365C635.478 30.2165 635.868 29.8925 636.36 29.6645C636.852 29.4365 637.398 29.3225 637.998 29.3225C638.814 29.3225 639.552 29.5385 640.212 29.9705C640.884 30.3905 641.358 30.9785 641.634 31.7345L640.482 32.2745C640.242 31.7345 639.894 31.3145 639.438 31.0145C638.994 30.7025 638.496 30.5465 637.944 30.5465C637.404 30.5465 636.972 30.6845 636.648 30.9605C636.324 31.2365 636.162 31.5845 636.162 32.0045C636.162 32.3285 636.246 32.5865 636.414 32.7785C636.582 32.9705 636.774 33.1145 636.99 33.2105C637.218 33.3065 637.416 33.3785 637.584 33.4265L639.186 33.8945C639.966 34.1225 640.572 34.4765 641.004 34.9565C641.448 35.4365 641.67 36.0005 641.67 36.6485C641.67 37.1765 641.52 37.6505 641.22 38.0705C640.932 38.4905 640.53 38.8205 640.014 39.0605C639.498 39.2885 638.904 39.4025 638.232 39.4025ZM647.822 39.4025C647.15 39.4025 646.538 39.2465 645.986 38.9345C645.434 38.6105 644.996 38.1665 644.672 37.6025C644.36 37.0265 644.204 36.3665 644.204 35.6225V29.5385H645.554V35.4605C645.554 35.9765 645.656 36.4325 645.86 36.8285C646.076 37.2125 646.37 37.5125 646.742 37.7285C647.126 37.9445 647.564 38.0525 648.056 38.0525C648.548 38.0525 648.986 37.9445 649.37 37.7285C649.754 37.5005 650.054 37.1825 650.27 36.7745C650.486 36.3545 650.594 35.8565 650.594 35.2805V29.5385H651.944V39.1865H650.594V37.3145L650.9 37.3865C650.672 38.0105 650.282 38.5025 649.73 38.8625C649.178 39.2225 648.542 39.4025 647.822 39.4025ZM655.081 39.1865V29.5385H656.431V31.1225L656.251 30.8885C656.479 30.4325 656.821 30.0725 657.277 29.8085C657.745 29.5445 658.309 29.4125 658.969 29.4125H659.581V30.7625H658.735C658.039 30.7625 657.481 30.9785 657.061 31.4105C656.641 31.8425 656.431 32.4545 656.431 33.2465V39.1865H655.081ZM665.915 39.4025C665.015 39.4025 664.199 39.1865 663.467 38.7545C662.747 38.3105 662.177 37.7045 661.757 36.9365C661.337 36.1685 661.127 35.2985 661.127 34.3265C661.127 33.3545 661.331 32.4965 661.739 31.7525C662.147 30.9965 662.699 30.4025 663.395 29.9705C664.103 29.5385 664.895 29.3225 665.771 29.3225C666.467 29.3225 667.085 29.4545 667.625 29.7185C668.177 29.9705 668.645 30.3185 669.029 30.7625C669.413 31.1945 669.707 31.6865 669.911 32.2385C670.115 32.7785 670.217 33.3365 670.217 33.9125C670.217 34.0325 670.211 34.1705 670.199 34.3265C670.187 34.4705 670.169 34.6205 670.145 34.7765H661.991V33.5165H669.371L668.723 34.0565C668.831 33.3965 668.753 32.8085 668.489 32.2925C668.237 31.7645 667.871 31.3505 667.391 31.0505C666.911 30.7385 666.371 30.5825 665.771 30.5825C665.171 30.5825 664.613 30.7385 664.097 31.0505C663.593 31.3625 663.197 31.8005 662.909 32.3645C662.621 32.9165 662.507 33.5765 662.567 34.3445C662.507 35.1125 662.627 35.7845 662.927 36.3605C663.239 36.9245 663.659 37.3625 664.187 37.6745C664.727 37.9865 665.303 38.1425 665.915 38.1425C666.623 38.1425 667.217 37.9745 667.697 37.6385C668.177 37.3025 668.567 36.8825 668.867 36.3785L670.019 36.9905C669.827 37.4225 669.533 37.8245 669.137 38.1965C668.741 38.5565 668.267 38.8505 667.715 39.0785C667.175 39.2945 666.575 39.4025 665.915 39.4025ZM676.573 43.1465C676.381 43.1465 676.183 43.1285 675.979 43.0925C675.787 43.0685 675.595 43.0205 675.403 42.9485V41.6885C675.523 41.7005 675.673 41.7185 675.853 41.7425C676.045 41.7785 676.237 41.7965 676.429 41.7965C677.017 41.7965 677.467 41.6705 677.779 41.4185C678.091 41.1785 678.397 40.7105 678.697 40.0145L679.309 38.5745L679.273 39.7625L675.187 29.5385H676.645L679.993 37.9805H679.615L682.945 29.5385H684.439L680.029 40.4105C679.837 40.8785 679.591 41.3225 679.291 41.7425C679.003 42.1625 678.637 42.4985 678.193 42.7505C677.749 43.0145 677.209 43.1465 676.573 43.1465ZM690.728 39.4025C689.816 39.4025 688.988 39.1865 688.244 38.7545C687.5 38.3105 686.906 37.7105 686.462 36.9545C686.03 36.1865 685.814 35.3165 685.814 34.3445C685.814 33.3845 686.03 32.5265 686.462 31.7705C686.894 31.0145 687.476 30.4205 688.208 29.9885C688.952 29.5445 689.792 29.3225 690.728 29.3225C691.664 29.3225 692.498 29.5385 693.23 29.9705C693.974 30.4025 694.556 30.9965 694.976 31.7525C695.408 32.5085 695.624 33.3725 695.624 34.3445C695.624 35.3285 695.402 36.2045 694.958 36.9725C694.514 37.7285 693.92 38.3225 693.176 38.7545C692.444 39.1865 691.628 39.4025 690.728 39.4025ZM690.728 38.0525C691.376 38.0525 691.958 37.8905 692.474 37.5665C693.002 37.2425 693.416 36.7985 693.716 36.2345C694.028 35.6705 694.184 35.0405 694.184 34.3445C694.184 33.6485 694.028 33.0245 693.716 32.4725C693.416 31.9205 693.002 31.4825 692.474 31.1585C691.958 30.8345 691.376 30.6725 690.728 30.6725C690.08 30.6725 689.492 30.8345 688.964 31.1585C688.448 31.4825 688.034 31.9205 687.722 32.4725C687.41 33.0245 687.254 33.6485 687.254 34.3445C687.254 35.0405 687.41 35.6705 687.722 36.2345C688.034 36.7985 688.448 37.2425 688.964 37.5665C689.492 37.8905 690.08 38.0525 690.728 38.0525ZM701.785 39.4025C701.113 39.4025 700.501 39.2465 699.949 38.9345C699.397 38.6105 698.959 38.1665 698.635 37.6025C698.323 37.0265 698.167 36.3665 698.167 35.6225V29.5385H699.517V35.4605C699.517 35.9765 699.619 36.4325 699.823 36.8285C700.039 37.2125 700.333 37.5125 700.705 37.7285C701.089 37.9445 701.527 38.0525 702.019 38.0525C702.511 38.0525 702.949 37.9445 703.333 37.7285C703.717 37.5005 704.017 37.1825 704.233 36.7745C704.449 36.3545 704.557 35.8565 704.557 35.2805V29.5385H705.907V39.1865H704.557V37.3145L704.863 37.3865C704.635 38.0105 704.245 38.5025 703.693 38.8625C703.141 39.2225 702.505 39.4025 701.785 39.4025ZM709.043 39.1865V29.5385H710.393V31.1225L710.213 30.8885C710.441 30.4325 710.783 30.0725 711.239 29.8085C711.707 29.5445 712.271 29.4125 712.931 29.4125H713.543V30.7625H712.697C712.001 30.7625 711.443 30.9785 711.023 31.4105C710.603 31.8425 710.393 32.4545 710.393 33.2465V39.1865H709.043ZM718.904 42.7865V29.5385H720.254V31.6985L720.038 31.3205C720.422 30.7085 720.932 30.2225 721.568 29.8625C722.216 29.5025 722.954 29.3225 723.782 29.3225C724.694 29.3225 725.504 29.5445 726.212 29.9885C726.932 30.4205 727.496 31.0145 727.904 31.7705C728.324 32.5265 728.534 33.3905 728.534 34.3625C728.534 35.3225 728.324 36.1865 727.904 36.9545C727.496 37.7105 726.932 38.3105 726.212 38.7545C725.504 39.1865 724.694 39.4025 723.782 39.4025C722.954 39.4025 722.204 39.2165 721.532 38.8445C720.872 38.4605 720.374 37.9205 720.038 37.2245L720.254 37.0265V42.7865H718.904ZM723.71 38.0525C724.358 38.0525 724.934 37.8905 725.438 37.5665C725.954 37.2425 726.356 36.8045 726.644 36.2525C726.944 35.6885 727.094 35.0585 727.094 34.3625C727.094 33.6545 726.944 33.0245 726.644 32.4725C726.356 31.9205 725.954 31.4825 725.438 31.1585C724.934 30.8345 724.358 30.6725 723.71 30.6725C723.062 30.6725 722.474 30.8345 721.946 31.1585C721.43 31.4825 721.016 31.9265 720.704 32.4905C720.404 33.0425 720.254 33.6665 720.254 34.3625C720.254 35.0585 720.404 35.6885 720.704 36.2525C721.016 36.8045 721.43 37.2425 721.946 37.5665C722.474 37.8905 723.062 38.0525 723.71 38.0525ZM731.27 39.1865V29.5385H732.62V31.1225L732.44 30.8885C732.668 30.4325 733.01 30.0725 733.466 29.8085C733.934 29.5445 734.498 29.4125 735.158 29.4125H735.77V30.7625H734.924C734.228 30.7625 733.67 30.9785 733.25 31.4105C732.83 31.8425 732.62 32.4545 732.62 33.2465V39.1865H731.27ZM742.23 39.4025C741.318 39.4025 740.49 39.1865 739.746 38.7545C739.002 38.3105 738.408 37.7105 737.964 36.9545C737.532 36.1865 737.316 35.3165 737.316 34.3445C737.316 33.3845 737.532 32.5265 737.964 31.7705C738.396 31.0145 738.978 30.4205 739.71 29.9885C740.454 29.5445 741.294 29.3225 742.23 29.3225C743.166 29.3225 744 29.5385 744.732 29.9705C745.476 30.4025 746.058 30.9965 746.478 31.7525C746.91 32.5085 747.126 33.3725 747.126 34.3445C747.126 35.3285 746.904 36.2045 746.46 36.9725C746.016 37.7285 745.422 38.3225 744.678 38.7545C743.946 39.1865 743.13 39.4025 742.23 39.4025ZM742.23 38.0525C742.878 38.0525 743.46 37.8905 743.976 37.5665C744.504 37.2425 744.918 36.7985 745.218 36.2345C745.53 35.6705 745.686 35.0405 745.686 34.3445C745.686 33.6485 745.53 33.0245 745.218 32.4725C744.918 31.9205 744.504 31.4825 743.976 31.1585C743.46 30.8345 742.878 30.6725 742.23 30.6725C741.582 30.6725 740.994 30.8345 740.466 31.1585C739.95 31.4825 739.536 31.9205 739.224 32.4725C738.912 33.0245 738.756 33.6485 738.756 34.3445C738.756 35.0405 738.912 35.6705 739.224 36.2345C739.536 36.7985 739.95 37.2425 740.466 37.5665C740.994 37.8905 741.582 38.0525 742.23 38.0525ZM748.067 43.1465C747.983 43.1465 747.869 43.1405 747.725 43.1285C747.569 43.1165 747.443 43.0985 747.347 43.0745V41.8325C747.599 41.8685 747.851 41.8865 748.103 41.8865C748.595 41.8865 749.009 41.7365 749.345 41.4365C749.693 41.1365 749.867 40.6865 749.867 40.0865V29.5385H751.217V40.0865C751.217 40.7465 751.073 41.3045 750.785 41.7605C750.497 42.2165 750.113 42.5585 749.633 42.7865C749.165 43.0265 748.643 43.1465 748.067 43.1465ZM749.867 27.7565V25.7765H751.217V27.7565H749.867ZM758.732 39.4025C757.832 39.4025 757.016 39.1865 756.284 38.7545C755.564 38.3105 754.994 37.7045 754.574 36.9365C754.154 36.1685 753.944 35.2985 753.944 34.3265C753.944 33.3545 754.148 32.4965 754.556 31.7525C754.964 30.9965 755.516 30.4025 756.212 29.9705C756.92 29.5385 757.712 29.3225 758.588 29.3225C759.284 29.3225 759.902 29.4545 760.442 29.7185C760.994 29.9705 761.462 30.3185 761.846 30.7625C762.23 31.1945 762.524 31.6865 762.728 32.2385C762.932 32.7785 763.034 33.3365 763.034 33.9125C763.034 34.0325 763.028 34.1705 763.016 34.3265C763.004 34.4705 762.986 34.6205 762.962 34.7765H754.808V33.5165H762.188L761.54 34.0565C761.648 33.3965 761.57 32.8085 761.306 32.2925C761.054 31.7645 760.688 31.3505 760.208 31.0505C759.728 30.7385 759.188 30.5825 758.588 30.5825C757.988 30.5825 757.43 30.7385 756.914 31.0505C756.41 31.3625 756.014 31.8005 755.726 32.3645C755.438 32.9165 755.324 33.5765 755.384 34.3445C755.324 35.1125 755.444 35.7845 755.744 36.3605C756.056 36.9245 756.476 37.3625 757.004 37.6745C757.544 37.9865 758.12 38.1425 758.732 38.1425C759.44 38.1425 760.034 37.9745 760.514 37.6385C760.994 37.3025 761.384 36.8825 761.684 36.3785L762.836 36.9905C762.644 37.4225 762.35 37.8245 761.954 38.1965C761.558 38.5565 761.084 38.8505 760.532 39.0785C759.992 39.2945 759.392 39.4025 758.732 39.4025ZM770.184 39.4025C769.236 39.4025 768.402 39.1805 767.682 38.7365C766.962 38.2925 766.398 37.6925 765.99 36.9365C765.582 36.1685 765.378 35.3045 765.378 34.3445C765.378 33.3845 765.582 32.5265 765.99 31.7705C766.398 31.0145 766.962 30.4205 767.682 29.9885C768.402 29.5445 769.236 29.3225 770.184 29.3225C770.784 29.3225 771.348 29.4305 771.876 29.6465C772.404 29.8625 772.872 30.1565 773.28 30.5285C773.688 30.8885 773.994 31.3085 774.198 31.7885L772.974 32.4185C772.734 31.9025 772.368 31.4825 771.876 31.1585C771.384 30.8345 770.82 30.6725 770.184 30.6725C769.548 30.6725 768.972 30.8345 768.456 31.1585C767.952 31.4705 767.55 31.9085 767.25 32.4725C766.962 33.0245 766.818 33.6545 766.818 34.3625C766.818 35.0585 766.962 35.6885 767.25 36.2525C767.55 36.8045 767.952 37.2425 768.456 37.5665C768.972 37.8905 769.548 38.0525 770.184 38.0525C770.82 38.0525 771.378 37.8905 771.858 37.5665C772.35 37.2425 772.722 36.8105 772.974 36.2705L774.198 36.9365C773.994 37.4045 773.688 37.8245 773.28 38.1965C772.872 38.5685 772.404 38.8625 771.876 39.0785C771.348 39.2945 770.784 39.4025 770.184 39.4025ZM780.617 39.2945C779.753 39.2945 779.087 39.0425 778.619 38.5385C778.151 38.0345 777.917 37.3145 777.917 36.3785V30.8885H776.135V29.5385H776.585C776.993 29.5385 777.317 29.4065 777.557 29.1425C777.797 28.8665 777.917 28.5245 777.917 28.1165V27.3065H779.267V29.5385H781.391V30.8885H779.267V36.3785C779.267 36.7025 779.315 36.9905 779.411 37.2425C779.507 37.4825 779.669 37.6745 779.897 37.8185C780.137 37.9625 780.455 38.0345 780.851 38.0345C780.947 38.0345 781.061 38.0285 781.193 38.0165C781.325 38.0045 781.439 37.9925 781.535 37.9805V39.1865C781.391 39.2225 781.229 39.2465 781.049 39.2585C780.869 39.2825 780.725 39.2945 780.617 39.2945ZM787.684 39.1865V29.5385H789.034V39.1865H787.684ZM787.684 27.7565V25.7765H789.034V27.7565H787.684ZM795.506 39.4025C794.582 39.4025 793.772 39.1685 793.076 38.7005C792.38 38.2325 791.876 37.5965 791.564 36.7925L792.698 36.2525C792.974 36.8405 793.358 37.3085 793.85 37.6565C794.354 38.0045 794.906 38.1785 795.506 38.1785C796.082 38.1785 796.568 38.0405 796.964 37.7645C797.36 37.4765 797.558 37.1045 797.558 36.6485C797.558 36.3125 797.462 36.0485 797.27 35.8565C797.078 35.6525 796.856 35.4965 796.604 35.3885C796.352 35.2805 796.13 35.2025 795.938 35.1545L794.552 34.7585C793.664 34.5065 793.022 34.1525 792.626 33.6965C792.23 33.2405 792.032 32.7125 792.032 32.1125C792.032 31.5485 792.176 31.0565 792.464 30.6365C792.752 30.2165 793.142 29.8925 793.634 29.6645C794.126 29.4365 794.672 29.3225 795.272 29.3225C796.088 29.3225 796.826 29.5385 797.486 29.9705C798.158 30.3905 798.632 30.9785 798.908 31.7345L797.756 32.2745C797.516 31.7345 797.168 31.3145 796.712 31.0145C796.268 30.7025 795.77 30.5465 795.218 30.5465C794.678 30.5465 794.246 30.6845 793.922 30.9605C793.598 31.2365 793.436 31.5845 793.436 32.0045C793.436 32.3285 793.52 32.5865 793.688 32.7785C793.856 32.9705 794.048 33.1145 794.264 33.2105C794.492 33.3065 794.69 33.3785 794.858 33.4265L796.46 33.8945C797.24 34.1225 797.846 34.4765 798.278 34.9565C798.722 35.4365 798.944 36.0005 798.944 36.6485C798.944 37.1765 798.794 37.6505 798.494 38.0705C798.206 38.4905 797.804 38.8205 797.288 39.0605C796.772 39.2885 796.178 39.4025 795.506 39.4025ZM808.532 39.4025C807.488 39.4025 806.576 39.1565 805.796 38.6645C805.028 38.1605 804.5 37.4825 804.212 36.6305L805.976 35.7845C806.228 36.3365 806.576 36.7685 807.02 37.0805C807.476 37.3925 807.98 37.5485 808.532 37.5485C808.964 37.5485 809.306 37.4525 809.558 37.2605C809.81 37.0685 809.936 36.8165 809.936 36.5045C809.936 36.3125 809.882 36.1565 809.774 36.0365C809.678 35.9045 809.54 35.7965 809.36 35.7125C809.192 35.6165 809.006 35.5385 808.802 35.4785L807.2 35.0285C806.372 34.7885 805.742 34.4225 805.31 33.9305C804.89 33.4385 804.68 32.8565 804.68 32.1845C804.68 31.5845 804.83 31.0625 805.13 30.6185C805.442 30.1625 805.868 29.8085 806.408 29.5565C806.96 29.3045 807.59 29.1785 808.298 29.1785C809.222 29.1785 810.038 29.4005 810.746 29.8445C811.454 30.2885 811.958 30.9125 812.258 31.7165L810.458 32.5625C810.29 32.1185 810.008 31.7645 809.612 31.5005C809.216 31.2365 808.772 31.1045 808.28 31.1045C807.884 31.1045 807.572 31.1945 807.344 31.3745C807.116 31.5545 807.002 31.7885 807.002 32.0765C807.002 32.2565 807.05 32.4125 807.146 32.5445C807.242 32.6765 807.374 32.7845 807.542 32.8685C807.722 32.9525 807.926 33.0305 808.154 33.1025L809.72 33.5705C810.524 33.8105 811.142 34.1705 811.574 34.6505C812.018 35.1305 812.24 35.7185 812.24 36.4145C812.24 37.0025 812.084 37.5245 811.772 37.9805C811.46 38.4245 811.028 38.7725 810.476 39.0245C809.924 39.2765 809.276 39.4025 808.532 39.4025ZM817.905 39.4025C817.149 39.4025 816.489 39.2345 815.925 38.8985C815.373 38.5625 814.947 38.0945 814.647 37.4945C814.359 36.8945 814.215 36.1925 814.215 35.3885V29.3945H816.573V35.1905C816.573 35.5985 816.651 35.9585 816.807 36.2705C816.975 36.5705 817.209 36.8105 817.509 36.9905C817.821 37.1585 818.169 37.2425 818.553 37.2425C818.937 37.2425 819.279 37.1585 819.579 36.9905C819.879 36.8105 820.113 36.5645 820.281 36.2525C820.449 35.9405 820.533 35.5685 820.533 35.1365V29.3945H822.891V39.1865H820.659V37.2605L820.857 37.6025C820.629 38.2025 820.251 38.6525 819.723 38.9525C819.207 39.2525 818.601 39.4025 817.905 39.4025ZM830.788 39.4025C830.08 39.4025 829.426 39.2645 828.826 38.9885C828.238 38.7005 827.77 38.2925 827.422 37.7645L827.656 37.2965V39.1865H825.442V25.5605H827.8V31.3385L827.44 30.8525C827.776 30.3245 828.232 29.9165 828.808 29.6285C829.384 29.3285 830.05 29.1785 830.806 29.1785C831.73 29.1785 832.564 29.4065 833.308 29.8625C834.052 30.3185 834.64 30.9305 835.072 31.6985C835.516 32.4665 835.738 33.3305 835.738 34.2905C835.738 35.2385 835.522 36.1025 835.09 36.8825C834.658 37.6625 834.07 38.2805 833.326 38.7365C832.582 39.1805 831.736 39.4025 830.788 39.4025ZM830.518 37.2425C831.058 37.2425 831.538 37.1165 831.958 36.8645C832.378 36.6125 832.702 36.2645 832.93 35.8205C833.17 35.3765 833.29 34.8665 833.29 34.2905C833.29 33.7145 833.17 33.2105 832.93 32.7785C832.702 32.3345 832.378 31.9865 831.958 31.7345C831.538 31.4705 831.058 31.3385 830.518 31.3385C830.002 31.3385 829.534 31.4645 829.114 31.7165C828.706 31.9685 828.382 32.3225 828.142 32.7785C827.914 33.2225 827.8 33.7265 827.8 34.2905C827.8 34.8665 827.914 35.3765 828.142 35.8205C828.382 36.2645 828.706 36.6125 829.114 36.8645C829.534 37.1165 830.002 37.2425 830.518 37.2425ZM837.896 39.1865V29.3945H840.11V31.6625L839.858 31.2845C840.038 30.5765 840.398 30.0485 840.938 29.7005C841.478 29.3525 842.114 29.1785 842.846 29.1785C843.65 29.1785 844.358 29.3885 844.97 29.8085C845.582 30.2285 845.978 30.7805 846.158 31.4645L845.492 31.5185C845.792 30.7385 846.242 30.1565 846.842 29.7725C847.442 29.3765 848.132 29.1785 848.912 29.1785C849.608 29.1785 850.226 29.3345 850.766 29.6465C851.318 29.9585 851.75 30.3965 852.062 30.9605C852.374 31.5125 852.53 32.1545 852.53 32.8865V39.1865H850.172V33.4445C850.172 33.0125 850.094 32.6405 849.938 32.3285C849.782 32.0165 849.566 31.7765 849.29 31.6085C849.014 31.4285 848.678 31.3385 848.282 31.3385C847.91 31.3385 847.58 31.4285 847.292 31.6085C847.004 31.7765 846.782 32.0165 846.626 32.3285C846.47 32.6405 846.392 33.0125 846.392 33.4445V39.1865H844.034V33.4445C844.034 33.0125 843.956 32.6405 843.8 32.3285C843.644 32.0165 843.422 31.7765 843.134 31.6085C842.858 31.4285 842.528 31.3385 842.144 31.3385C841.772 31.3385 841.442 31.4285 841.154 31.6085C840.866 31.7765 840.644 32.0165 840.488 32.3285C840.332 32.6405 840.254 33.0125 840.254 33.4445V39.1865H837.896ZM854.885 39.1865V29.3945H857.243V39.1865H854.885ZM854.885 28.2965V25.7765H857.243V28.2965H854.885ZM864.244 39.2945C863.14 39.2945 862.282 38.9945 861.67 38.3945C861.07 37.7825 860.77 36.9245 860.77 35.8205V31.5005H859.078V29.3945H859.258C859.738 29.3945 860.11 29.2685 860.374 29.0165C860.638 28.7645 860.77 28.3985 860.77 27.9185V27.1625H863.128V29.3945H865.378V31.5005H863.128V35.6945C863.128 36.0185 863.182 36.2945 863.29 36.5225C863.41 36.7505 863.59 36.9245 863.83 37.0445C864.082 37.1645 864.4 37.2245 864.784 37.2245C864.868 37.2245 864.964 37.2185 865.072 37.2065C865.192 37.1945 865.306 37.1825 865.414 37.1705V39.1865C865.246 39.2105 865.054 39.2345 864.838 39.2585C864.622 39.2825 864.424 39.2945 864.244 39.2945ZM872.04 39.2945C870.936 39.2945 870.078 38.9945 869.466 38.3945C868.866 37.7825 868.566 36.9245 868.566 35.8205V31.5005H866.874V29.3945H867.054C867.534 29.3945 867.906 29.2685 868.17 29.0165C868.434 28.7645 868.566 28.3985 868.566 27.9185V27.1625H870.924V29.3945H873.174V31.5005H870.924V35.6945C870.924 36.0185 870.978 36.2945 871.086 36.5225C871.206 36.7505 871.386 36.9245 871.626 37.0445C871.878 37.1645 872.196 37.2245 872.58 37.2245C872.664 37.2245 872.76 37.2185 872.868 37.2065C872.988 37.1945 873.102 37.1825 873.21 37.1705V39.1865C873.042 39.2105 872.85 39.2345 872.634 39.2585C872.418 39.2825 872.22 39.2945 872.04 39.2945ZM879.927 39.4025C878.919 39.4025 878.037 39.1745 877.281 38.7185C876.525 38.2625 875.937 37.6445 875.517 36.8645C875.097 36.0845 874.887 35.2205 874.887 34.2725C874.887 33.2885 875.097 32.4185 875.517 31.6625C875.949 30.8945 876.531 30.2885 877.263 29.8445C878.007 29.4005 878.835 29.1785 879.747 29.1785C880.515 29.1785 881.187 29.3045 881.763 29.5565C882.351 29.8085 882.849 30.1565 883.257 30.6005C883.665 31.0445 883.977 31.5545 884.193 32.1305C884.409 32.6945 884.517 33.3065 884.517 33.9665C884.517 34.1345 884.505 34.3085 884.481 34.4885C884.469 34.6685 884.439 34.8245 884.391 34.9565H876.831V33.1565H883.059L881.943 34.0025C882.051 33.4505 882.021 32.9585 881.853 32.5265C881.697 32.0945 881.433 31.7525 881.061 31.5005C880.701 31.2485 880.263 31.1225 879.747 31.1225C879.255 31.1225 878.817 31.2485 878.433 31.5005C878.049 31.7405 877.755 32.1005 877.551 32.5805C877.359 33.0485 877.287 33.6185 877.335 34.2905C877.287 34.8905 877.365 35.4245 877.569 35.8925C877.785 36.3485 878.097 36.7025 878.505 36.9545C878.925 37.2065 879.405 37.3325 879.945 37.3325C880.485 37.3325 880.941 37.2185 881.313 36.9905C881.697 36.7625 881.997 36.4565 882.213 36.0725L884.121 37.0085C883.929 37.4765 883.629 37.8905 883.221 38.2505C882.813 38.6105 882.327 38.8925 881.763 39.0965C881.211 39.3005 880.599 39.4025 879.927 39.4025ZM891.219 39.4025C890.271 39.4025 889.425 39.1805 888.681 38.7365C887.937 38.2805 887.349 37.6625 886.917 36.8825C886.485 36.1025 886.269 35.2385 886.269 34.2905C886.269 33.3305 886.485 32.4665 886.917 31.6985C887.349 30.9305 887.937 30.3185 888.681 29.8625C889.437 29.4065 890.277 29.1785 891.201 29.1785C891.945 29.1785 892.605 29.3285 893.181 29.6285C893.769 29.9165 894.231 30.3245 894.567 30.8525L894.207 31.3385V25.5605H896.565V39.1865H894.333V37.2965L894.585 37.7645C894.249 38.2925 893.781 38.7005 893.181 38.9885C892.581 39.2645 891.927 39.4025 891.219 39.4025ZM891.471 37.2425C892.011 37.2425 892.485 37.1165 892.893 36.8645C893.301 36.6125 893.619 36.2645 893.847 35.8205C894.087 35.3765 894.207 34.8665 894.207 34.2905C894.207 33.7265 894.087 33.2225 893.847 32.7785C893.619 32.3225 893.301 31.9685 892.893 31.7165C892.485 31.4645 892.011 31.3385 891.471 31.3385C890.943 31.3385 890.469 31.4705 890.049 31.7345C889.629 31.9865 889.299 32.3345 889.059 32.7785C888.831 33.2105 888.717 33.7145 888.717 34.2905C888.717 34.8665 888.831 35.3765 889.059 35.8205C889.299 36.2645 889.629 36.6125 890.049 36.8645C890.469 37.1165 890.943 37.2425 891.471 37.2425ZM905.615 39.4025C905.003 39.4025 904.457 39.2885 903.977 39.0605C903.497 38.8205 903.119 38.4965 902.843 38.0885C902.567 37.6805 902.429 37.2125 902.429 36.6845C902.429 36.1805 902.537 35.7245 902.753 35.3165C902.969 34.8965 903.305 34.5425 903.761 34.2545C904.217 33.9665 904.799 33.7625 905.507 33.6425L909.287 33.0125V34.2365L905.831 34.8125C905.135 34.9325 904.631 35.1545 904.319 35.4785C904.019 35.8025 903.869 36.1865 903.869 36.6305C903.869 37.0625 904.037 37.4285 904.373 37.7285C904.721 38.0285 905.165 38.1785 905.705 38.1785C906.365 38.1785 906.941 38.0405 907.433 37.7645C907.925 37.4765 908.309 37.0925 908.585 36.6125C908.861 36.1325 908.999 35.5985 908.999 35.0105V32.5625C908.999 31.9865 908.789 31.5185 908.369 31.1585C907.949 30.7985 907.403 30.6185 906.731 30.6185C906.143 30.6185 905.627 30.7685 905.183 31.0685C904.739 31.3565 904.409 31.7345 904.193 32.2025L902.969 31.5365C903.149 31.1285 903.431 30.7565 903.815 30.4205C904.211 30.0845 904.661 29.8205 905.165 29.6285C905.669 29.4245 906.191 29.3225 906.731 29.3225C907.439 29.3225 908.063 29.4605 908.603 29.7365C909.155 30.0125 909.581 30.3965 909.881 30.8885C910.193 31.3685 910.349 31.9265 910.349 32.5625V39.1865H908.999V37.2605L909.197 37.4585C909.029 37.8185 908.765 38.1485 908.405 38.4485C908.057 38.7365 907.643 38.9705 907.163 39.1505C906.695 39.3185 906.179 39.4025 905.615 39.4025ZM913.486 39.1865V29.5385H914.836V31.4105L914.53 31.3385C914.77 30.7145 915.16 30.2225 915.7 29.8625C916.252 29.5025 916.888 29.3225 917.608 29.3225C918.292 29.3225 918.904 29.4785 919.444 29.7905C919.996 30.1025 920.428 30.5345 920.74 31.0865C921.064 31.6265 921.226 32.2385 921.226 32.9225V39.1865H919.876V33.4445C919.876 32.8565 919.768 32.3585 919.552 31.9505C919.348 31.5425 919.054 31.2305 918.67 31.0145C918.298 30.7865 917.866 30.6725 917.374 30.6725C916.882 30.6725 916.444 30.7865 916.06 31.0145C915.676 31.2305 915.376 31.5485 915.16 31.9685C914.944 32.3765 914.836 32.8685 914.836 33.4445V39.1865H913.486ZM928.52 39.4025C927.62 39.4025 926.81 39.1865 926.09 38.7545C925.37 38.3105 924.8 37.7105 924.38 36.9545C923.972 36.1865 923.768 35.3225 923.768 34.3625C923.768 33.3905 923.972 32.5265 924.38 31.7705C924.8 31.0145 925.364 30.4205 926.072 29.9885C926.792 29.5445 927.608 29.3225 928.52 29.3225C929.348 29.3225 930.086 29.5025 930.734 29.8625C931.382 30.2225 931.892 30.7085 932.264 31.3205L932.048 31.6985V25.5605H933.398V39.1865H932.048V37.0265L932.264 37.2245C931.928 37.9205 931.424 38.4605 930.752 38.8445C930.092 39.2165 929.348 39.4025 928.52 39.4025ZM928.592 38.0525C929.24 38.0525 929.822 37.8905 930.338 37.5665C930.866 37.2425 931.28 36.8045 931.58 36.2525C931.892 35.6885 932.048 35.0585 932.048 34.3625C932.048 33.6665 931.892 33.0425 931.58 32.4905C931.28 31.9265 930.866 31.4825 930.338 31.1585C929.822 30.8345 929.24 30.6725 928.592 30.6725C927.956 30.6725 927.38 30.8345 926.864 31.1585C926.348 31.4825 925.94 31.9205 925.64 32.4725C925.352 33.0245 925.208 33.6545 925.208 34.3625C925.208 35.0585 925.352 35.6885 925.64 36.2525C925.94 36.8045 926.342 37.2425 926.846 37.5665C927.362 37.8905 927.944 38.0525 928.592 38.0525ZM939.949 39.1865V29.5385H941.299V31.4105L940.993 31.3385C941.233 30.7145 941.623 30.2225 942.163 29.8625C942.715 29.5025 943.351 29.3225 944.071 29.3225C944.755 29.3225 945.367 29.4785 945.907 29.7905C946.459 30.1025 946.891 30.5345 947.203 31.0865C947.527 31.6265 947.689 32.2385 947.689 32.9225V39.1865H946.339V33.4445C946.339 32.8565 946.231 32.3585 946.015 31.9505C945.811 31.5425 945.517 31.2305 945.133 31.0145C944.761 30.7865 944.329 30.6725 943.837 30.6725C943.345 30.6725 942.907 30.7865 942.523 31.0145C942.139 31.2305 941.839 31.5485 941.623 31.9685C941.407 32.3765 941.299 32.8685 941.299 33.4445V39.1865H939.949ZM955.145 39.4025C954.233 39.4025 953.405 39.1865 952.661 38.7545C951.917 38.3105 951.323 37.7105 950.879 36.9545C950.447 36.1865 950.231 35.3165 950.231 34.3445C950.231 33.3845 950.447 32.5265 950.879 31.7705C951.311 31.0145 951.893 30.4205 952.625 29.9885C953.369 29.5445 954.209 29.3225 955.145 29.3225C956.081 29.3225 956.915 29.5385 957.647 29.9705C958.391 30.4025 958.973 30.9965 959.393 31.7525C959.825 32.5085 960.041 33.3725 960.041 34.3445C960.041 35.3285 959.819 36.2045 959.375 36.9725C958.931 37.7285 958.337 38.3225 957.593 38.7545C956.861 39.1865 956.045 39.4025 955.145 39.4025ZM955.145 38.0525C955.793 38.0525 956.375 37.8905 956.891 37.5665C957.419 37.2425 957.833 36.7985 958.133 36.2345C958.445 35.6705 958.601 35.0405 958.601 34.3445C958.601 33.6485 958.445 33.0245 958.133 32.4725C957.833 31.9205 957.419 31.4825 956.891 31.1585C956.375 30.8345 955.793 30.6725 955.145 30.6725C954.497 30.6725 953.909 30.8345 953.381 31.1585C952.865 31.4825 952.451 31.9205 952.139 32.4725C951.827 33.0245 951.671 33.6485 951.671 34.3445C951.671 35.0405 951.827 35.6705 952.139 36.2345C952.451 36.7985 952.865 37.2425 953.381 37.5665C953.909 37.8905 954.497 38.0525 955.145 38.0525ZM966.296 39.2945C965.432 39.2945 964.766 39.0425 964.298 38.5385C963.83 38.0345 963.596 37.3145 963.596 36.3785V30.8885H961.814V29.5385H962.264C962.672 29.5385 962.996 29.4065 963.236 29.1425C963.476 28.8665 963.596 28.5245 963.596 28.1165V27.3065H964.946V29.5385H967.07V30.8885H964.946V36.3785C964.946 36.7025 964.994 36.9905 965.09 37.2425C965.186 37.4825 965.348 37.6745 965.576 37.8185C965.816 37.9625 966.134 38.0345 966.53 38.0345C966.626 38.0345 966.74 38.0285 966.872 38.0165C967.004 38.0045 967.118 37.9925 967.214 37.9805V39.1865C967.07 39.2225 966.908 39.2465 966.728 39.2585C966.548 39.2825 966.404 39.2945 966.296 39.2945ZM971.563 43.1465C971.479 43.1465 971.365 43.1405 971.221 43.1285C971.065 43.1165 970.939 43.0985 970.843 43.0745V41.8325C971.095 41.8685 971.347 41.8865 971.599 41.8865C972.091 41.8865 972.505 41.7365 972.841 41.4365C973.189 41.1365 973.363 40.6865 973.363 40.0865V29.5385H974.713V40.0865C974.713 40.7465 974.569 41.3045 974.281 41.7605C973.993 42.2165 973.609 42.5585 973.129 42.7865C972.661 43.0265 972.139 43.1465 971.563 43.1465ZM973.363 27.7565V25.7765H974.713V27.7565H973.363ZM981.257 39.4025C980.585 39.4025 979.973 39.2465 979.421 38.9345C978.869 38.6105 978.431 38.1665 978.107 37.6025C977.795 37.0265 977.639 36.3665 977.639 35.6225V29.5385H978.989V35.4605C978.989 35.9765 979.091 36.4325 979.295 36.8285C979.511 37.2125 979.805 37.5125 980.177 37.7285C980.561 37.9445 980.999 38.0525 981.491 38.0525C981.983 38.0525 982.421 37.9445 982.805 37.7285C983.189 37.5005 983.489 37.1825 983.705 36.7745C983.921 36.3545 984.029 35.8565 984.029 35.2805V29.5385H985.379V39.1865H984.029V37.3145L984.335 37.3865C984.107 38.0105 983.717 38.5025 983.165 38.8625C982.613 39.2225 981.977 39.4025 981.257 39.4025ZM991.863 39.4025C990.939 39.4025 990.129 39.1685 989.433 38.7005C988.737 38.2325 988.233 37.5965 987.921 36.7925L989.055 36.2525C989.331 36.8405 989.715 37.3085 990.207 37.6565C990.711 38.0045 991.263 38.1785 991.863 38.1785C992.439 38.1785 992.925 38.0405 993.321 37.7645C993.717 37.4765 993.915 37.1045 993.915 36.6485C993.915 36.3125 993.819 36.0485 993.627 35.8565C993.435 35.6525 993.213 35.4965 992.961 35.3885C992.709 35.2805 992.487 35.2025 992.295 35.1545L990.909 34.7585C990.021 34.5065 989.379 34.1525 988.983 33.6965C988.587 33.2405 988.389 32.7125 988.389 32.1125C988.389 31.5485 988.533 31.0565 988.821 30.6365C989.109 30.2165 989.499 29.8925 989.991 29.6645C990.483 29.4365 991.029 29.3225 991.629 29.3225C992.445 29.3225 993.183 29.5385 993.843 29.9705C994.515 30.3905 994.989 30.9785 995.265 31.7345L994.113 32.2745C993.873 31.7345 993.525 31.3145 993.069 31.0145C992.625 30.7025 992.127 30.5465 991.575 30.5465C991.035 30.5465 990.603 30.6845 990.279 30.9605C989.955 31.2365 989.793 31.5845 989.793 32.0045C989.793 32.3285 989.877 32.5865 990.045 32.7785C990.213 32.9705 990.405 33.1145 990.621 33.2105C990.849 33.3065 991.047 33.3785 991.215 33.4265L992.817 33.8945C993.597 34.1225 994.203 34.4765 994.635 34.9565C995.079 35.4365 995.301 36.0005 995.301 36.6485C995.301 37.1765 995.151 37.6505 994.851 38.0705C994.563 38.4905 994.161 38.8205 993.645 39.0605C993.129 39.2885 992.535 39.4025 991.863 39.4025ZM1001.72 39.2945C1000.86 39.2945 1000.19 39.0425 999.725 38.5385C999.257 38.0345 999.023 37.3145 999.023 36.3785V30.8885H997.241V29.5385H997.691C998.099 29.5385 998.423 29.4065 998.663 29.1425C998.903 28.8665 999.023 28.5245 999.023 28.1165V27.3065H1000.37V29.5385H1002.5V30.8885H1000.37V36.3785C1000.37 36.7025 1000.42 36.9905 1000.52 37.2425C1000.61 37.4825 1000.78 37.6745 1001 37.8185C1001.24 37.9625 1001.56 38.0345 1001.96 38.0345C1002.05 38.0345 1002.17 38.0285 1002.3 38.0165C1002.43 38.0045 1002.55 37.9925 1002.64 37.9805V39.1865C1002.5 39.2225 1002.34 39.2465 1002.16 39.2585C1001.98 39.2825 1001.83 39.2945 1001.72 39.2945ZM1011.58 39.4025C1010.97 39.4025 1010.42 39.2885 1009.94 39.0605C1009.46 38.8205 1009.08 38.4965 1008.81 38.0885C1008.53 37.6805 1008.39 37.2125 1008.39 36.6845C1008.39 36.1805 1008.5 35.7245 1008.72 35.3165C1008.93 34.8965 1009.27 34.5425 1009.73 34.2545C1010.18 33.9665 1010.76 33.7625 1011.47 33.6425L1015.25 33.0125V34.2365L1011.8 34.8125C1011.1 34.9325 1010.6 35.1545 1010.28 35.4785C1009.98 35.8025 1009.83 36.1865 1009.83 36.6305C1009.83 37.0625 1010 37.4285 1010.34 37.7285C1010.69 38.0285 1011.13 38.1785 1011.67 38.1785C1012.33 38.1785 1012.91 38.0405 1013.4 37.7645C1013.89 37.4765 1014.27 37.0925 1014.55 36.6125C1014.83 36.1325 1014.96 35.5985 1014.96 35.0105V32.5625C1014.96 31.9865 1014.75 31.5185 1014.33 31.1585C1013.91 30.7985 1013.37 30.6185 1012.7 30.6185C1012.11 30.6185 1011.59 30.7685 1011.15 31.0685C1010.7 31.3565 1010.37 31.7345 1010.16 32.2025L1008.93 31.5365C1009.11 31.1285 1009.4 30.7565 1009.78 30.4205C1010.18 30.0845 1010.63 29.8205 1011.13 29.6285C1011.63 29.4245 1012.16 29.3225 1012.7 29.3225C1013.4 29.3225 1014.03 29.4605 1014.57 29.7365C1015.12 30.0125 1015.55 30.3965 1015.85 30.8885C1016.16 31.3685 1016.31 31.9265 1016.31 32.5625V39.1865H1014.96V37.2605L1015.16 37.4585C1014.99 37.8185 1014.73 38.1485 1014.37 38.4485C1014.02 38.7365 1013.61 38.9705 1013.13 39.1505C1012.66 39.3185 1012.14 39.4025 1011.58 39.4025ZM1027.23 39.4025C1026.33 39.4025 1025.52 39.1865 1024.8 38.7545C1024.08 38.3105 1023.51 37.7105 1023.09 36.9545C1022.68 36.1865 1022.47 35.3225 1022.47 34.3625C1022.47 33.3905 1022.68 32.5265 1023.09 31.7705C1023.51 31.0145 1024.07 30.4205 1024.78 29.9885C1025.5 29.5445 1026.31 29.3225 1027.23 29.3225C1028.05 29.3225 1028.79 29.5025 1029.44 29.8625C1030.09 30.2225 1030.6 30.7085 1030.97 31.3205L1030.75 31.6985V25.5605H1032.1V39.1865H1030.75V37.0265L1030.97 37.2245C1030.63 37.9205 1030.13 38.4605 1029.46 38.8445C1028.8 39.2165 1028.05 39.4025 1027.23 39.4025ZM1027.3 38.0525C1027.95 38.0525 1028.53 37.8905 1029.04 37.5665C1029.57 37.2425 1029.99 36.8045 1030.29 36.2525C1030.6 35.6885 1030.75 35.0585 1030.75 34.3625C1030.75 33.6665 1030.6 33.0425 1030.29 32.4905C1029.99 31.9265 1029.57 31.4825 1029.04 31.1585C1028.53 30.8345 1027.95 30.6725 1027.3 30.6725C1026.66 30.6725 1026.09 30.8345 1025.57 31.1585C1025.05 31.4825 1024.65 31.9205 1024.35 32.4725C1024.06 33.0245 1023.91 33.6545 1023.91 34.3625C1023.91 35.0585 1024.06 35.6885 1024.35 36.2525C1024.65 36.8045 1025.05 37.2425 1025.55 37.5665C1026.07 37.8905 1026.65 38.0525 1027.3 38.0525ZM1035.24 39.1865V29.5385H1036.59V31.1225L1036.41 30.8885C1036.63 30.4325 1036.98 30.0725 1037.43 29.8085C1037.9 29.5445 1038.46 29.4125 1039.12 29.4125H1039.74V30.7625H1038.89C1038.19 30.7625 1037.64 30.9785 1037.22 31.4105C1036.8 31.8425 1036.59 32.4545 1036.59 33.2465V39.1865H1035.24ZM1044.47 39.4025C1043.86 39.4025 1043.31 39.2885 1042.83 39.0605C1042.35 38.8205 1041.97 38.4965 1041.7 38.0885C1041.42 37.6805 1041.28 37.2125 1041.28 36.6845C1041.28 36.1805 1041.39 35.7245 1041.61 35.3165C1041.82 34.8965 1042.16 34.5425 1042.61 34.2545C1043.07 33.9665 1043.65 33.7625 1044.36 33.6425L1048.14 33.0125V34.2365L1044.68 34.8125C1043.99 34.9325 1043.48 35.1545 1043.17 35.4785C1042.87 35.8025 1042.72 36.1865 1042.72 36.6305C1042.72 37.0625 1042.89 37.4285 1043.23 37.7285C1043.57 38.0285 1044.02 38.1785 1044.56 38.1785C1045.22 38.1785 1045.79 38.0405 1046.29 37.7645C1046.78 37.4765 1047.16 37.0925 1047.44 36.6125C1047.71 36.1325 1047.85 35.5985 1047.85 35.0105V32.5625C1047.85 31.9865 1047.64 31.5185 1047.22 31.1585C1046.8 30.7985 1046.26 30.6185 1045.58 30.6185C1045 30.6185 1044.48 30.7685 1044.04 31.0685C1043.59 31.3565 1043.26 31.7345 1043.05 32.2025L1041.82 31.5365C1042 31.1285 1042.28 30.7565 1042.67 30.4205C1043.06 30.0845 1043.51 29.8205 1044.02 29.6285C1044.52 29.4245 1045.04 29.3225 1045.58 29.3225C1046.29 29.3225 1046.92 29.4605 1047.46 29.7365C1048.01 30.0125 1048.43 30.3965 1048.73 30.8885C1049.05 31.3685 1049.2 31.9265 1049.2 32.5625V39.1865H1047.85V37.2605L1048.05 37.4585C1047.88 37.8185 1047.62 38.1485 1047.26 38.4485C1046.91 38.7365 1046.5 38.9705 1046.02 39.1505C1045.55 39.3185 1045.03 39.4025 1044.47 39.4025ZM1053.33 39.1865V30.8885H1051.4V29.5385H1053.33V28.6745C1053.33 28.0025 1053.48 27.4385 1053.78 26.9825C1054.08 26.5145 1054.47 26.1605 1054.97 25.9205C1055.46 25.6805 1055.99 25.5605 1056.55 25.5605C1056.67 25.5605 1056.81 25.5725 1056.96 25.5965C1057.12 25.6085 1057.25 25.6265 1057.34 25.6505V26.8745C1057.26 26.8505 1057.14 26.8385 1057 26.8385C1056.86 26.8265 1056.75 26.8205 1056.69 26.8205C1056.12 26.8205 1055.64 26.9585 1055.25 27.2345C1054.87 27.5105 1054.68 27.9905 1054.68 28.6745V29.5385H1057.04V30.8885H1054.68V39.1865H1053.33ZM1063.63 39.2945C1062.77 39.2945 1062.1 39.0425 1061.63 38.5385C1061.16 38.0345 1060.93 37.3145 1060.93 36.3785V30.8885H1059.15V29.5385H1059.6C1060.01 29.5385 1060.33 29.4065 1060.57 29.1425C1060.81 28.8665 1060.93 28.5245 1060.93 28.1165V27.3065H1062.28V29.5385H1064.4V30.8885H1062.28V36.3785C1062.28 36.7025 1062.33 36.9905 1062.42 37.2425C1062.52 37.4825 1062.68 37.6745 1062.91 37.8185C1063.15 37.9625 1063.47 38.0345 1063.86 38.0345C1063.96 38.0345 1064.07 38.0285 1064.21 38.0165C1064.34 38.0045 1064.45 37.9925 1064.55 37.9805V39.1865C1064.4 39.2225 1064.24 39.2465 1064.06 39.2585C1063.88 39.2825 1063.74 39.2945 1063.63 39.2945Z" fill="#005271"/>
<defs>
<clipPath id="clip0_2486_368">
<rect width="271.256" height="306.637" fill="white" transform="translate(368.723 22.0156)"/>
</clipPath>
<clipPath id="clip1_2486_368">
<rect width="271.256" height="226.327" fill="white" transform="translate(116 102.325)"/>
</clipPath>
<clipPath id="clip2_2486_368">
<rect width="271.256" height="260.094" fill="white" transform="matrix(-1 0 0 1 1137 68.5586)"/>
</clipPath>
<clipPath id="clip3_2486_368">
<rect width="236.717" height="404.909" fill="white" transform="matrix(-0.989247 -0.146252 -0.146252 0.989247 1146.21 102.995)"/>
</clipPath>
</defs>
</svg>
