<svg width="485" height="106" viewBox="0 0 485 106" fill="none" xmlns="http://www.w3.org/2000/svg">
<rect width="485" height="83" rx="15" fill="#005271"/>
<path d="M29.852 53V35.08H24.308V32.14H38.588V35.08H33.128V53H29.852ZM46.4536 53.336C44.9416 53.336 43.5976 52.9907 42.4216 52.3C41.2643 51.5907 40.3589 50.6387 39.7056 49.444C39.0523 48.2307 38.7256 46.8773 38.7256 45.384C38.7256 43.8533 39.0523 42.5 39.7056 41.324C40.3776 40.148 41.2736 39.224 42.3936 38.552C43.5136 37.8613 44.7829 37.516 46.2016 37.516C47.3403 37.516 48.3576 37.712 49.2536 38.104C50.1496 38.496 50.9056 39.0373 51.5216 39.728C52.1376 40.4 52.6043 41.1747 52.9216 42.052C53.2576 42.9293 53.4256 43.8627 53.4256 44.852C53.4256 45.0947 53.4163 45.3467 53.3976 45.608C53.3789 45.8693 53.3416 46.112 53.2856 46.336H41.2176V43.816H51.4936L49.9816 44.964C50.1683 44.0493 50.1029 43.2373 49.7856 42.528C49.4869 41.8 49.0203 41.2307 48.3856 40.82C47.7696 40.3907 47.0416 40.176 46.2016 40.176C45.3616 40.176 44.6149 40.3907 43.9616 40.82C43.3083 41.2307 42.8043 41.828 42.4496 42.612C42.0949 43.3773 41.9549 44.3107 42.0296 45.412C41.9363 46.4387 42.0763 47.3347 42.4496 48.1C42.8416 48.8653 43.3829 49.4627 44.0736 49.892C44.7829 50.3213 45.5856 50.536 46.4816 50.536C47.3963 50.536 48.1709 50.3307 48.8056 49.92C49.4589 49.5093 49.9723 48.9773 50.3456 48.324L52.9216 49.584C52.6229 50.2933 52.1563 50.9373 51.5216 51.516C50.9056 52.076 50.1589 52.524 49.2816 52.86C48.4229 53.1773 47.4803 53.336 46.4536 53.336ZM61.4728 53.336C60.4461 53.336 59.5408 53.1587 58.7568 52.804C57.9914 52.4307 57.3941 51.9267 56.9648 51.292C56.5354 50.6387 56.3208 49.8733 56.3208 48.996C56.3208 48.1747 56.4981 47.4373 56.8528 46.784C57.2261 46.1307 57.7954 45.58 58.5608 45.132C59.3261 44.684 60.2874 44.3667 61.4448 44.18L66.7088 43.312V45.804L62.0608 46.616C61.2208 46.7653 60.6048 47.036 60.2128 47.428C59.8208 47.8013 59.6248 48.2867 59.6248 48.884C59.6248 49.4627 59.8394 49.9387 60.2688 50.312C60.7168 50.6667 61.2861 50.844 61.9768 50.844C62.8354 50.844 63.5821 50.6573 64.2168 50.284C64.8701 49.9107 65.3741 49.416 65.7288 48.8C66.0834 48.1653 66.2608 47.4653 66.2608 46.7V42.808C66.2608 42.0613 65.9808 41.4547 65.4208 40.988C64.8794 40.5027 64.1514 40.26 63.2368 40.26C62.3968 40.26 61.6594 40.484 61.0248 40.932C60.4088 41.3613 59.9514 41.9213 59.6528 42.612L57.0208 41.296C57.3008 40.5493 57.7581 39.896 58.3928 39.336C59.0274 38.7573 59.7648 38.3093 60.6048 37.992C61.4634 37.6747 62.3688 37.516 63.3208 37.516C64.5154 37.516 65.5701 37.74 66.4848 38.188C67.4181 38.636 68.1368 39.2613 68.6408 40.064C69.1634 40.848 69.4248 41.7627 69.4248 42.808V53H66.4008V50.256L67.0448 50.34C66.6901 50.956 66.2328 51.488 65.6728 51.936C65.1314 52.384 64.5061 52.7293 63.7968 52.972C63.1061 53.2147 62.3314 53.336 61.4728 53.336ZM73.6843 53V37.852H76.7083V41.128L76.3163 40.624C76.6336 39.5973 77.2123 38.8227 78.0523 38.3C78.8923 37.7773 79.8536 37.516 80.9363 37.516C82.1496 37.516 83.2229 37.8427 84.1563 38.496C85.1083 39.1307 85.7429 39.98 86.0603 41.044L85.1643 41.128C85.6123 39.9147 86.2936 39.0093 87.2083 38.412C88.1416 37.8147 89.2056 37.516 90.4003 37.516C91.4456 37.516 92.3883 37.7587 93.2283 38.244C94.0869 38.7293 94.7683 39.4013 95.2723 40.26C95.7763 41.1187 96.0283 42.0987 96.0283 43.2V53H92.8643V44.068C92.8643 43.3027 92.7243 42.6587 92.4443 42.136C92.1829 41.5947 91.8096 41.184 91.3243 40.904C90.8576 40.6053 90.3069 40.456 89.6723 40.456C89.0376 40.456 88.4776 40.6053 87.9923 40.904C87.5069 41.184 87.1243 41.5947 86.8443 42.136C86.5643 42.6773 86.4243 43.3213 86.4243 44.068V53H83.2883V44.068C83.2883 43.3027 83.1483 42.6587 82.8683 42.136C82.6069 41.5947 82.2336 41.184 81.7483 40.904C81.2816 40.6053 80.7216 40.456 80.0683 40.456C79.4336 40.456 78.8736 40.6053 78.3883 40.904C77.9029 41.184 77.5203 41.5947 77.2403 42.136C76.9789 42.6773 76.8483 43.3213 76.8483 44.068V53H73.6843ZM105.737 53V32.14H108.397L120.101 48.296L118.841 48.492V32.14H122.117V53H119.457L107.837 36.732L109.041 36.508V53H105.737ZM132.092 53.336C130.954 53.336 129.955 53.084 129.096 52.58C128.238 52.0573 127.566 51.3387 127.08 50.424C126.614 49.4907 126.38 48.4173 126.38 47.204V37.852H129.544V46.924C129.544 47.6147 129.684 48.2213 129.964 48.744C130.244 49.2667 130.636 49.6773 131.14 49.976C131.644 50.256 132.223 50.396 132.876 50.396C133.548 50.396 134.136 50.2467 134.64 49.948C135.144 49.6493 135.536 49.2293 135.816 48.688C136.115 48.1467 136.264 47.512 136.264 46.784V37.852H139.4V53H136.404V50.032L136.74 50.424C136.386 51.3573 135.798 52.076 134.976 52.58C134.155 53.084 133.194 53.336 132.092 53.336ZM143.655 53V37.852H146.679V41.128L146.287 40.624C146.604 39.5973 147.183 38.8227 148.023 38.3C148.863 37.7773 149.824 37.516 150.907 37.516C152.12 37.516 153.193 37.8427 154.127 38.496C155.079 39.1307 155.713 39.98 156.031 41.044L155.135 41.128C155.583 39.9147 156.264 39.0093 157.179 38.412C158.112 37.8147 159.176 37.516 160.371 37.516C161.416 37.516 162.359 37.7587 163.199 38.244C164.057 38.7293 164.739 39.4013 165.243 40.26C165.747 41.1187 165.999 42.0987 165.999 43.2V53H162.835V44.068C162.835 43.3027 162.695 42.6587 162.415 42.136C162.153 41.5947 161.78 41.184 161.295 40.904C160.828 40.6053 160.277 40.456 159.643 40.456C159.008 40.456 158.448 40.6053 157.963 40.904C157.477 41.184 157.095 41.5947 156.815 42.136C156.535 42.6773 156.395 43.3213 156.395 44.068V53H153.259V44.068C153.259 43.3027 153.119 42.6587 152.839 42.136C152.577 41.5947 152.204 41.184 151.719 40.904C151.252 40.6053 150.692 40.456 150.039 40.456C149.404 40.456 148.844 40.6053 148.359 40.904C147.873 41.184 147.491 41.5947 147.211 42.136C146.949 42.6773 146.819 43.3213 146.819 44.068V53H143.655ZM178.037 53.336C176.861 53.336 175.788 53.0933 174.817 52.608C173.865 52.1227 173.128 51.4227 172.605 50.508L172.969 49.92V53H169.945V31.804H173.109V40.988L172.605 40.26C173.165 39.4013 173.912 38.7293 174.845 38.244C175.779 37.7587 176.843 37.516 178.037 37.516C179.475 37.516 180.763 37.8613 181.901 38.552C183.059 39.2427 183.964 40.1853 184.617 41.38C185.289 42.5747 185.625 43.9187 185.625 45.412C185.625 46.9053 185.289 48.2493 184.617 49.444C183.964 50.6387 183.068 51.5907 181.929 52.3C180.791 52.9907 179.493 53.336 178.037 53.336ZM177.729 50.396C178.625 50.396 179.419 50.1813 180.109 49.752C180.8 49.3227 181.341 48.7347 181.733 47.988C182.144 47.2227 182.349 46.364 182.349 45.412C182.349 44.46 182.144 43.6107 181.733 42.864C181.341 42.1173 180.8 41.5293 180.109 41.1C179.419 40.6707 178.625 40.456 177.729 40.456C176.852 40.456 176.059 40.6707 175.349 41.1C174.659 41.5293 174.108 42.1173 173.697 42.864C173.305 43.6107 173.109 44.46 173.109 45.412C173.109 46.364 173.305 47.2227 173.697 47.988C174.108 48.7347 174.659 49.3227 175.349 49.752C176.059 50.1813 176.852 50.396 177.729 50.396ZM196.375 53.336C194.863 53.336 193.519 52.9907 192.343 52.3C191.186 51.5907 190.28 50.6387 189.627 49.444C188.974 48.2307 188.647 46.8773 188.647 45.384C188.647 43.8533 188.974 42.5 189.627 41.324C190.299 40.148 191.195 39.224 192.315 38.552C193.435 37.8613 194.704 37.516 196.123 37.516C197.262 37.516 198.279 37.712 199.175 38.104C200.071 38.496 200.827 39.0373 201.443 39.728C202.059 40.4 202.526 41.1747 202.843 42.052C203.179 42.9293 203.347 43.8627 203.347 44.852C203.347 45.0947 203.338 45.3467 203.319 45.608C203.3 45.8693 203.263 46.112 203.207 46.336H191.139V43.816H201.415L199.903 44.964C200.09 44.0493 200.024 43.2373 199.707 42.528C199.408 41.8 198.942 41.2307 198.307 40.82C197.691 40.3907 196.963 40.176 196.123 40.176C195.283 40.176 194.536 40.3907 193.883 40.82C193.23 41.2307 192.726 41.828 192.371 42.612C192.016 43.3773 191.876 44.3107 191.951 45.412C191.858 46.4387 191.998 47.3347 192.371 48.1C192.763 48.8653 193.304 49.4627 193.995 49.892C194.704 50.3213 195.507 50.536 196.403 50.536C197.318 50.536 198.092 50.3307 198.727 49.92C199.38 49.5093 199.894 48.9773 200.267 48.324L202.843 49.584C202.544 50.2933 202.078 50.9373 201.443 51.516C200.827 52.076 200.08 52.524 199.203 52.86C198.344 53.1773 197.402 53.336 196.375 53.336ZM206.995 53V37.852H210.019V40.904L209.739 40.456C210.075 39.4667 210.616 38.7573 211.363 38.328C212.11 37.88 213.006 37.656 214.051 37.656H214.975V40.54H213.659C212.614 40.54 211.764 40.8667 211.111 41.52C210.476 42.1547 210.159 43.0693 210.159 44.264V53H206.995Z" fill="#AFD157"/>
<path d="M233.004 53L227.068 37.852H230.512L235.076 50.2H233.816L238.38 37.852H241.852L235.888 53H233.004ZM250.163 53.336C248.614 53.336 247.251 52.9533 246.075 52.188C244.918 51.4227 244.106 50.396 243.639 49.108L246.075 47.96C246.486 48.8187 247.046 49.5 247.755 50.004C248.483 50.508 249.286 50.76 250.163 50.76C250.91 50.76 251.516 50.592 251.983 50.256C252.45 49.92 252.683 49.4627 252.683 48.884C252.683 48.5107 252.58 48.212 252.375 47.988C252.17 47.7453 251.908 47.5493 251.591 47.4C251.292 47.2507 250.984 47.1387 250.667 47.064L248.287 46.392C246.98 46.0187 246 45.4587 245.347 44.712C244.712 43.9467 244.395 43.06 244.395 42.052C244.395 41.1373 244.628 40.344 245.095 39.672C245.562 38.9813 246.206 38.4493 247.027 38.076C247.848 37.7027 248.772 37.516 249.799 37.516C251.18 37.516 252.412 37.8613 253.495 38.552C254.578 39.224 255.343 40.1667 255.791 41.38L253.355 42.528C253.056 41.8 252.58 41.2213 251.927 40.792C251.292 40.3627 250.574 40.148 249.771 40.148C249.08 40.148 248.53 40.316 248.119 40.652C247.708 40.9693 247.503 41.3893 247.503 41.912C247.503 42.2667 247.596 42.5653 247.783 42.808C247.97 43.032 248.212 43.2187 248.511 43.368C248.81 43.4987 249.118 43.6107 249.435 43.704L251.899 44.432C253.15 44.7867 254.111 45.3467 254.783 46.112C255.455 46.8587 255.791 47.7547 255.791 48.8C255.791 49.696 255.548 50.4893 255.063 51.18C254.596 51.852 253.943 52.384 253.103 52.776C252.263 53.1493 251.283 53.336 250.163 53.336Z" fill="white"/>
<path d="M274.364 53V35.08H268.82V32.14H283.1V35.08H277.64V53H274.364ZM288.691 53.336C287.664 53.336 286.759 53.1587 285.975 52.804C285.209 52.4307 284.612 51.9267 284.183 51.292C283.753 50.6387 283.539 49.8733 283.539 48.996C283.539 48.1747 283.716 47.4373 284.071 46.784C284.444 46.1307 285.013 45.58 285.779 45.132C286.544 44.684 287.505 44.3667 288.663 44.18L293.927 43.312V45.804L289.279 46.616C288.439 46.7653 287.823 47.036 287.431 47.428C287.039 47.8013 286.843 48.2867 286.843 48.884C286.843 49.4627 287.057 49.9387 287.487 50.312C287.935 50.6667 288.504 50.844 289.195 50.844C290.053 50.844 290.8 50.6573 291.435 50.284C292.088 49.9107 292.592 49.416 292.947 48.8C293.301 48.1653 293.479 47.4653 293.479 46.7V42.808C293.479 42.0613 293.199 41.4547 292.639 40.988C292.097 40.5027 291.369 40.26 290.455 40.26C289.615 40.26 288.877 40.484 288.243 40.932C287.627 41.3613 287.169 41.9213 286.871 42.612L284.239 41.296C284.519 40.5493 284.976 39.896 285.611 39.336C286.245 38.7573 286.983 38.3093 287.823 37.992C288.681 37.6747 289.587 37.516 290.539 37.516C291.733 37.516 292.788 37.74 293.703 38.188C294.636 38.636 295.355 39.2613 295.859 40.064C296.381 40.848 296.643 41.7627 296.643 42.808V53H293.619V50.256L294.263 50.34C293.908 50.956 293.451 51.488 292.891 51.936C292.349 52.384 291.724 52.7293 291.015 52.972C290.324 53.2147 289.549 53.336 288.691 53.336ZM308.994 53.336C307.818 53.336 306.745 53.0933 305.774 52.608C304.822 52.1227 304.085 51.4227 303.562 50.508L303.926 49.92V53H300.902V31.804H304.066V40.988L303.562 40.26C304.122 39.4013 304.869 38.7293 305.802 38.244C306.735 37.7587 307.799 37.516 308.994 37.516C310.431 37.516 311.719 37.8613 312.858 38.552C314.015 39.2427 314.921 40.1853 315.574 41.38C316.246 42.5747 316.582 43.9187 316.582 45.412C316.582 46.9053 316.246 48.2493 315.574 49.444C314.921 50.6387 314.025 51.5907 312.886 52.3C311.747 52.9907 310.45 53.336 308.994 53.336ZM308.686 50.396C309.582 50.396 310.375 50.1813 311.066 49.752C311.757 49.3227 312.298 48.7347 312.69 47.988C313.101 47.2227 313.306 46.364 313.306 45.412C313.306 44.46 313.101 43.6107 312.69 42.864C312.298 42.1173 311.757 41.5293 311.066 41.1C310.375 40.6707 309.582 40.456 308.686 40.456C307.809 40.456 307.015 40.6707 306.306 41.1C305.615 41.5293 305.065 42.1173 304.654 42.864C304.262 43.6107 304.066 44.46 304.066 45.412C304.066 46.364 304.262 47.2227 304.654 47.988C305.065 48.7347 305.615 49.3227 306.306 49.752C307.015 50.1813 307.809 50.396 308.686 50.396ZM320.22 53V31.804H323.384V53H320.22ZM334.755 53.336C333.243 53.336 331.899 52.9907 330.723 52.3C329.566 51.5907 328.66 50.6387 328.007 49.444C327.354 48.2307 327.027 46.8773 327.027 45.384C327.027 43.8533 327.354 42.5 328.007 41.324C328.679 40.148 329.575 39.224 330.695 38.552C331.815 37.8613 333.084 37.516 334.503 37.516C335.642 37.516 336.659 37.712 337.555 38.104C338.451 38.496 339.207 39.0373 339.823 39.728C340.439 40.4 340.906 41.1747 341.223 42.052C341.559 42.9293 341.727 43.8627 341.727 44.852C341.727 45.0947 341.718 45.3467 341.699 45.608C341.681 45.8693 341.643 46.112 341.587 46.336H329.519V43.816H339.795L338.283 44.964C338.47 44.0493 338.405 43.2373 338.087 42.528C337.788 41.8 337.322 41.2307 336.687 40.82C336.071 40.3907 335.343 40.176 334.503 40.176C333.663 40.176 332.916 40.3907 332.263 40.82C331.61 41.2307 331.106 41.828 330.751 42.612C330.396 43.3773 330.256 44.3107 330.331 45.412C330.238 46.4387 330.378 47.3347 330.751 48.1C331.143 48.8653 331.684 49.4627 332.375 49.892C333.084 50.3213 333.887 50.536 334.783 50.536C335.698 50.536 336.472 50.3307 337.107 49.92C337.76 49.5093 338.274 48.9773 338.647 48.324L341.223 49.584C340.924 50.2933 340.458 50.9373 339.823 51.516C339.207 52.076 338.461 52.524 337.583 52.86C336.725 53.1773 335.782 53.336 334.755 53.336ZM351.138 53V32.14H353.798L365.502 48.296L364.242 48.492V32.14H367.518V53H364.858L353.238 36.732L354.442 36.508V53H351.138ZM377.493 53.336C376.354 53.336 375.355 53.084 374.497 52.58C373.638 52.0573 372.966 51.3387 372.481 50.424C372.014 49.4907 371.781 48.4173 371.781 47.204V37.852H374.945V46.924C374.945 47.6147 375.085 48.2213 375.365 48.744C375.645 49.2667 376.037 49.6773 376.541 49.976C377.045 50.256 377.623 50.396 378.277 50.396C378.949 50.396 379.537 50.2467 380.041 49.948C380.545 49.6493 380.937 49.2293 381.217 48.688C381.515 48.1467 381.665 47.512 381.665 46.784V37.852H384.801V53H381.805V50.032L382.141 50.424C381.786 51.3573 381.198 52.076 380.377 52.58C379.555 53.084 378.594 53.336 377.493 53.336ZM389.055 53V37.852H392.079V41.128L391.687 40.624C392.004 39.5973 392.583 38.8227 393.423 38.3C394.263 37.7773 395.224 37.516 396.307 37.516C397.52 37.516 398.594 37.8427 399.527 38.496C400.479 39.1307 401.114 39.98 401.431 41.044L400.535 41.128C400.983 39.9147 401.664 39.0093 402.579 38.412C403.512 37.8147 404.576 37.516 405.771 37.516C406.816 37.516 407.759 37.7587 408.599 38.244C409.458 38.7293 410.139 39.4013 410.643 40.26C411.147 41.1187 411.399 42.0987 411.399 43.2V53H408.235V44.068C408.235 43.3027 408.095 42.6587 407.815 42.136C407.554 41.5947 407.18 41.184 406.695 40.904C406.228 40.6053 405.678 40.456 405.043 40.456C404.408 40.456 403.848 40.6053 403.363 40.904C402.878 41.184 402.495 41.5947 402.215 42.136C401.935 42.6773 401.795 43.3213 401.795 44.068V53H398.659V44.068C398.659 43.3027 398.519 42.6587 398.239 42.136C397.978 41.5947 397.604 41.184 397.119 40.904C396.652 40.6053 396.092 40.456 395.439 40.456C394.804 40.456 394.244 40.6053 393.759 40.904C393.274 41.184 392.891 41.5947 392.611 42.136C392.35 42.6773 392.219 43.3213 392.219 44.068V53H389.055ZM423.437 53.336C422.261 53.336 421.188 53.0933 420.217 52.608C419.265 52.1227 418.528 51.4227 418.005 50.508L418.369 49.92V53H415.345V31.804H418.509V40.988L418.005 40.26C418.565 39.4013 419.312 38.7293 420.245 38.244C421.179 37.7587 422.243 37.516 423.437 37.516C424.875 37.516 426.163 37.8613 427.301 38.552C428.459 39.2427 429.364 40.1853 430.017 41.38C430.689 42.5747 431.025 43.9187 431.025 45.412C431.025 46.9053 430.689 48.2493 430.017 49.444C429.364 50.6387 428.468 51.5907 427.329 52.3C426.191 52.9907 424.893 53.336 423.437 53.336ZM423.129 50.396C424.025 50.396 424.819 50.1813 425.509 49.752C426.2 49.3227 426.741 48.7347 427.133 47.988C427.544 47.2227 427.749 46.364 427.749 45.412C427.749 44.46 427.544 43.6107 427.133 42.864C426.741 42.1173 426.2 41.5293 425.509 41.1C424.819 40.6707 424.025 40.456 423.129 40.456C422.252 40.456 421.459 40.6707 420.749 41.1C420.059 41.5293 419.508 42.1173 419.097 42.864C418.705 43.6107 418.509 44.46 418.509 45.412C418.509 46.364 418.705 47.2227 419.097 47.988C419.508 48.7347 420.059 49.3227 420.749 49.752C421.459 50.1813 422.252 50.396 423.129 50.396ZM441.775 53.336C440.263 53.336 438.919 52.9907 437.743 52.3C436.586 51.5907 435.681 50.6387 435.027 49.444C434.374 48.2307 434.047 46.8773 434.047 45.384C434.047 43.8533 434.374 42.5 435.027 41.324C435.699 40.148 436.595 39.224 437.715 38.552C438.835 37.8613 440.105 37.516 441.523 37.516C442.662 37.516 443.679 37.712 444.575 38.104C445.471 38.496 446.227 39.0373 446.843 39.728C447.459 40.4 447.926 41.1747 448.243 42.052C448.579 42.9293 448.747 43.8627 448.747 44.852C448.747 45.0947 448.738 45.3467 448.719 45.608C448.701 45.8693 448.663 46.112 448.607 46.336H436.539V43.816H446.815L445.303 44.964C445.49 44.0493 445.425 43.2373 445.107 42.528C444.809 41.8 444.342 41.2307 443.707 40.82C443.091 40.3907 442.363 40.176 441.523 40.176C440.683 40.176 439.937 40.3907 439.283 40.82C438.63 41.2307 438.126 41.828 437.771 42.612C437.417 43.3773 437.277 44.3107 437.351 45.412C437.258 46.4387 437.398 47.3347 437.771 48.1C438.163 48.8653 438.705 49.4627 439.395 49.892C440.105 50.3213 440.907 50.536 441.803 50.536C442.718 50.536 443.493 50.3307 444.127 49.92C444.781 49.5093 445.294 48.9773 445.667 48.324L448.243 49.584C447.945 50.2933 447.478 50.9373 446.843 51.516C446.227 52.076 445.481 52.524 444.603 52.86C443.745 53.1773 442.802 53.336 441.775 53.336ZM452.395 53V37.852H455.419V40.904L455.139 40.456C455.475 39.4667 456.017 38.7573 456.763 38.328C457.51 37.88 458.406 37.656 459.451 37.656H460.375V40.54H459.059C458.014 40.54 457.165 40.8667 456.511 41.52C455.877 42.1547 455.559 43.0693 455.559 44.264V53H452.395Z" fill="url(#paint0_linear_2779_321)"/>
<path d="M446.403 105.012L450.749 82.627L414.416 82.4942L446.403 105.012Z" fill="#005271"/>
<defs>
<linearGradient id="paint0_linear_2779_321" x1="242.5" y1="24" x2="242.5" y2="59" gradientUnits="userSpaceOnUse">
<stop stop-color="#9EE7E5"/>
<stop offset="1" stop-color="#9EE7E5"/>
</linearGradient>
</defs>
</svg>
