<svg width="554" height="392" viewBox="0 0 554 392" fill="none" xmlns="http://www.w3.org/2000/svg">
<rect x="25.6875" y="201.663" width="138.788" height="62.4927" rx="19.1695" fill="#123041"/>
<rect x="290.996" y="201.663" width="138.788" height="62.4927" rx="19.1695" fill="#123041"/>
<path d="M203.472 209.687C189.897 221.33 160.458 216.595 147.435 212.773C146.456 211.591 144.562 208.379 144.815 204.982C145.131 200.736 184.709 184.39 194.465 182.285C204.221 180.181 220.441 195.134 203.472 209.687Z" fill="#E7EAEE"/>
<path fill-rule="evenodd" clip-rule="evenodd" d="M192.31 76.9098C186.165 75.2995 179.878 78.9754 178.268 85.1202L168.063 124.061C166.453 130.206 170.129 136.493 176.273 138.103L210.023 146.947L198.02 192.75C197.081 196.334 199.225 200.002 202.809 200.941C206.394 201.88 210.061 199.736 211 196.151L223.003 150.349L256.752 159.193C262.896 160.804 269.183 157.128 270.793 150.983L280.998 112.042C282.609 105.897 278.933 99.6104 272.788 98.0001L192.31 76.9098Z" fill="#AFD157"/>
<path d="M201.245 121.879L205.447 105.844L201.233 107.155L200.251 103.457L207.747 100.856L211.4 101.813L205.827 123.079L201.245 121.879ZM217.777 126.641C214.217 125.708 211.896 123.711 210.434 121.21L213.94 118.689C215.152 120.627 216.843 122.129 218.886 122.664C221.269 123.289 223.097 122.246 223.576 120.42C224.063 118.563 222.901 116.935 220.58 116.327C218.97 115.905 217.439 116.066 216.067 116.633L213.327 114.591L216.646 103.188L230.761 106.887L229.682 111.004L219.808 108.417L218.42 113.081C219.667 112.614 221.175 112.414 222.939 112.876C226.685 113.858 229.333 117.132 228.198 121.466C227.013 125.985 222.885 127.98 217.777 126.641ZM237.398 131.783C233.591 130.785 231.048 128.498 229.796 125.953L233.284 123.626C234.379 125.633 236.156 127.058 238.291 127.617C240.613 128.226 242.29 127.507 242.687 125.991C243.117 124.35 242.036 123.174 239.18 122.458L236.735 121.817L237.757 117.917L240.194 118.589C242.516 119.197 244.136 118.696 244.533 117.179C244.939 115.631 243.713 114.251 241.608 113.7C239.627 113.18 237.789 113.757 235.975 114.87L234.074 111.394C236.398 109.721 239.367 108.746 243.143 109.735C247.91 110.984 250.272 114.217 249.388 117.591C248.747 120.036 246.644 121.371 244.113 121.435C246.296 122.57 248.002 124.77 247.264 127.587C246.299 131.271 242.382 133.089 237.398 131.783Z" fill="#123041"/>
<path d="M158.51 303.393C163.473 301.364 168.305 274.326 167.326 260.866L119.657 268.474C118.677 279.398 118.612 301.676 120.963 303.393C123.901 305.538 152.307 305.928 158.51 303.393Z" fill="#E7EAEE"/>
<path d="M162.236 273.446C177.072 263.58 157.017 202.037 142.526 194.286C128.035 186.534 104.466 187.708 94.1149 194.286C83.7641 200.863 58.1855 263.345 73.0216 273.446C87.8576 283.546 147.4 283.311 162.236 273.446Z" fill="white"/>
<path d="M77.4468 303.393C72.484 301.364 67.6518 274.326 68.6314 260.866L116.3 268.474C117.28 279.398 117.345 301.676 114.994 303.393C112.056 305.538 83.6503 305.928 77.4468 303.393Z" fill="white"/>
<path d="M47.7453 243.715C47.4385 225.834 69.8634 206.182 81.1143 198.591C82.6485 198.591 86.3307 199.181 88.7854 201.543C91.8538 204.495 79.1966 245.402 74.594 254.258C69.9914 263.114 48.1289 266.066 47.7453 243.715Z" fill="white"/>
<path d="M155.689 252.506C155.689 270.964 139.889 275.398 120.399 275.398C100.909 275.398 85.1094 270.964 85.1094 252.506C85.1094 228.241 100.909 214.506 120.399 214.506C139.889 214.506 155.689 228.241 155.689 252.506Z" fill="#E7EAEE"/>
<path d="M121.483 264.327C121.625 264.328 121.766 264.3 121.898 264.247C122.03 264.194 122.149 264.115 122.25 264.015L127.057 259.18C127.234 258.975 127.326 258.711 127.316 258.44C127.305 258.17 127.192 257.913 127 257.722C126.808 257.531 126.55 257.418 126.278 257.408C126.006 257.398 125.74 257.49 125.534 257.666L120.716 262.447C120.615 262.546 120.535 262.665 120.48 262.796C120.425 262.927 120.397 263.068 120.397 263.209C120.397 263.351 120.425 263.492 120.48 263.623C120.535 263.753 120.615 263.872 120.716 263.972C120.814 264.08 120.932 264.166 121.063 264.227C121.195 264.288 121.338 264.322 121.483 264.327Z" fill="#FFC0C1"/>
<path d="M126.238 264.327C126.38 264.328 126.519 264.301 126.65 264.247C126.781 264.194 126.899 264.115 126.999 264.016C127.1 263.916 127.18 263.798 127.234 263.667C127.288 263.537 127.316 263.396 127.316 263.255C127.316 263.113 127.288 262.973 127.234 262.843C127.18 262.712 127.1 262.594 126.999 262.494L122.23 257.724C122.131 257.624 122.012 257.544 121.882 257.49C121.751 257.435 121.611 257.407 121.469 257.407C121.328 257.407 121.188 257.435 121.057 257.49C120.927 257.544 120.808 257.624 120.709 257.724C120.509 257.925 120.397 258.197 120.397 258.48C120.397 258.763 120.509 259.035 120.709 259.236L125.488 264.016C125.688 264.214 125.957 264.326 126.238 264.327Z" fill="#FFC0C1"/>
<path d="M57.018 56.0212C62.5536 73.9646 86.2562 109.095 91.2697 123.785H138.668C143.682 109.095 165.557 73.9646 172.574 56.0212C181.277 33.7671 172.226 4.84272 147.781 4.84277C127.597 4.84281 118.142 38.1719 115.488 56.0212C112.834 38.1719 102.687 4.84277 83.1956 4.84277C58.7505 4.84277 49.9739 33.1879 57.018 56.0212Z" fill="white"/>
<path d="M200.666 158.114C200.666 194.228 161.065 206.203 112.934 206.203C64.8027 206.203 24.9102 194.228 24.9102 158.114C24.9102 96.5362 64.8027 75.4238 112.934 75.4238C161.065 75.4238 200.666 93.6039 200.666 158.114Z" fill="white"/>
<path d="M59.5078 166.775H69.8871" stroke="#FFC0C1" stroke-width="13.8391" stroke-linecap="round"/>
<path d="M174.371 166.775H184.75" stroke="#FFC0C1" stroke-width="13.8391" stroke-linecap="round"/>
<path d="M133.549 167.827C133.549 161.592 133.038 157.19 122.112 158.915C111.185 157.19 110.715 161.595 110.715 167.827C110.715 174.059 115.827 182.877 122.132 182.877C128.438 182.877 133.549 174.063 133.549 167.827Z" fill="#FFC0C1"/>
<path fill-rule="evenodd" clip-rule="evenodd" d="M133.479 165.123C130.301 165.934 126.696 166.392 122.875 166.392C118.451 166.392 114.316 165.778 110.799 164.712C111.157 159.916 112.992 157.476 122.112 158.916C131.375 157.453 133.153 160.394 133.479 165.123Z" fill="#E7EAEE"/>
<path d="M119.302 148.771C120.66 148.771 121.282 149.337 122.131 149.903C122.98 149.337 123.602 148.771 124.961 148.771C126.658 148.771 127.644 150.55 127.224 151.601C126.658 153.017 124.583 154.432 122.131 154.998C119.679 154.432 117.604 153.017 117.038 151.601C116.618 150.55 117.604 148.771 119.302 148.771Z" fill="#FFC0C1"/>
<path d="M87.4141 154.123C87.4141 154.123 85.4086 151.823 80.8964 151.823C76.3842 151.823 74.3788 154.123 74.3788 154.123" stroke="#123041" stroke-width="8.17537" stroke-linecap="round"/>
<path d="M170.609 154.123C170.609 154.123 168.604 151.823 164.092 151.823C159.58 151.823 157.574 154.123 157.574 154.123" stroke="#123041" stroke-width="8.17537" stroke-linecap="round"/>
<circle cx="171.376" cy="238.469" r="13.8021" fill="#D15757"/>
<path d="M157.574 238.086H185.178" stroke="#123041" stroke-width="3.83391" stroke-linecap="round"/>
<path d="M467.231 212.808C453.608 224.395 424.189 219.539 411.182 215.663C410.208 214.477 408.327 211.257 408.594 207.861C408.928 203.616 448.572 187.434 458.337 185.369C468.102 183.305 484.259 198.326 467.231 212.808Z" fill="#FFC532"/>
<path fill-rule="evenodd" clip-rule="evenodd" d="M465.003 79.0783C459.034 76.9052 452.434 79.9824 450.261 85.9513L436.489 123.779C434.316 129.747 437.393 136.348 443.362 138.521L476.145 150.456L459.947 194.949C458.68 198.431 460.475 202.281 463.957 203.549C467.438 204.816 471.289 203.021 472.556 199.539L488.754 155.047L521.538 166.982C527.507 169.155 534.108 166.078 536.281 160.109L550.052 122.282C552.225 116.313 549.148 109.712 543.179 107.539L465.003 79.0783Z" fill="#AFD157"/>
<path d="M481.004 129.399C476.433 127.735 473.493 124.213 474.85 120.484C475.737 118.049 478.078 116.858 480.782 116.82C479.055 115.204 478.128 113.164 478.982 110.819C480.307 107.18 484.758 106.553 488.787 108.02C492.907 109.52 495.79 112.919 494.498 116.467C493.655 118.783 491.665 119.761 489.261 119.907C491.347 121.756 492.314 124.152 491.449 126.527C490.08 130.286 485.544 131.052 481.004 129.399ZM485.58 116.83C487.247 117.301 489.342 116.974 489.9 115.44C490.415 114.027 489.384 112.46 487.43 111.749C485.445 111.026 483.679 111.575 483.164 112.988C482.584 114.582 484 116.119 485.58 116.83ZM482.361 125.671C484.556 126.47 486.574 125.979 487.144 124.415C487.735 122.791 486.062 121.024 484.31 120.318C482.514 119.733 480.097 120.011 479.506 121.634C478.937 123.198 480.136 124.861 482.361 125.671ZM500.502 136.498C495.931 134.834 492.991 131.311 494.349 127.583C495.235 125.147 497.576 123.956 500.28 123.919C498.553 122.302 497.627 120.263 498.48 117.917C499.805 114.279 504.256 113.652 508.285 115.119C512.405 116.618 515.288 120.018 513.996 123.566C513.153 125.881 511.163 126.859 508.759 127.006C510.845 128.855 511.812 131.25 510.947 133.626C509.578 137.384 505.042 138.151 500.502 136.498ZM505.078 123.929C506.745 124.4 508.84 124.072 509.398 122.539C509.913 121.126 508.882 119.559 506.928 118.847C504.943 118.125 503.177 118.674 502.663 120.087C502.082 121.68 503.498 123.217 505.078 123.929ZM501.859 132.769C504.054 133.568 506.072 133.077 506.642 131.513C507.233 129.89 505.56 128.123 503.808 127.417C502.012 126.831 499.595 127.109 499.004 128.733C498.435 130.296 499.634 131.959 501.859 132.769Z" fill="#123041"/>
<path d="M423.565 303.524C428.528 301.496 433.36 274.458 432.38 260.998L384.712 268.606C383.732 279.53 383.667 301.808 386.018 303.524C388.956 305.67 417.361 306.06 423.565 303.524Z" fill="#FFC532"/>
<path d="M427.291 273.577C442.127 263.712 422.071 202.169 407.58 194.417C393.089 186.666 369.52 187.84 359.17 194.417C348.819 200.995 323.24 263.477 338.076 273.577C352.912 283.678 412.455 283.443 427.291 273.577Z" fill="#FFDB40"/>
<path d="M342.502 303.524C337.539 301.496 332.706 274.458 333.686 260.998L381.355 268.606C382.334 279.53 382.4 301.808 380.049 303.524C377.11 305.67 348.705 306.06 342.502 303.524Z" fill="#FFDB40"/>
<path d="M312.804 243.847C312.497 225.966 334.922 206.314 346.173 198.723C347.707 198.723 351.389 199.313 353.844 201.675C356.912 204.627 344.255 245.533 339.653 254.39C335.05 263.246 313.187 266.198 312.804 243.847Z" fill="#FFDB40"/>
<path d="M386.542 264.458C386.684 264.458 386.825 264.431 386.957 264.378C387.088 264.324 387.208 264.246 387.309 264.146L392.115 259.311C392.292 259.106 392.385 258.841 392.374 258.571C392.364 258.301 392.251 258.044 392.059 257.853C391.866 257.661 391.608 257.549 391.337 257.539C391.065 257.528 390.799 257.62 390.592 257.796L385.775 262.577C385.674 262.677 385.593 262.796 385.539 262.927C385.484 263.058 385.455 263.198 385.455 263.34C385.455 263.482 385.484 263.623 385.539 263.753C385.593 263.884 385.674 264.003 385.775 264.103C385.872 264.21 385.99 264.297 386.122 264.358C386.254 264.419 386.397 264.453 386.542 264.458Z" fill="#FFBB4D"/>
<path d="M391.297 264.458C391.438 264.458 391.578 264.431 391.709 264.378C391.839 264.325 391.958 264.246 392.058 264.147C392.158 264.047 392.238 263.929 392.293 263.798C392.347 263.667 392.375 263.527 392.375 263.386C392.375 263.244 392.347 263.104 392.293 262.974C392.238 262.843 392.158 262.724 392.058 262.625L387.289 257.855C387.189 257.755 387.071 257.675 386.94 257.621C386.81 257.566 386.669 257.538 386.528 257.538C386.387 257.538 386.246 257.566 386.116 257.621C385.985 257.675 385.867 257.755 385.767 257.855C385.568 258.056 385.455 258.328 385.455 258.611C385.455 258.894 385.568 259.166 385.767 259.366L390.547 264.147C390.747 264.345 391.016 264.456 391.297 264.458Z" fill="#FFBB4D"/>
<path d="M466.412 157.553C466.412 193.667 426.811 205.643 378.68 205.643C330.549 205.643 290.656 193.667 290.656 157.553C290.656 95.9756 330.549 74.8633 378.68 74.8633C426.811 74.8633 466.412 93.0434 466.412 157.553Z" fill="#FFDB40"/>
<path d="M321.793 166.392H332.172" stroke="#FCA18E" stroke-width="13.8391" stroke-linecap="round"/>
<path d="M436.66 166.392H447.039" stroke="#FCA18E" stroke-width="13.8391" stroke-linecap="round"/>
<path d="M402.059 166.2C402.059 172.506 394.159 175.196 384.414 175.196C374.669 175.196 366.77 172.506 366.77 166.2C366.77 159.895 374.669 152.361 384.414 152.361C394.159 152.361 402.059 159.895 402.059 166.2Z" fill="#FFBB4D"/>
<path d="M365.566 50.7974C376.063 60.1056 382.093 70.5449 383.877 80.0461L365.405 78.0764C357.798 77.2653 350.512 68.2995 350.849 57.4168C351.185 46.5342 360.228 46.0638 365.566 50.7974Z" fill="#FFDB40"/>
<path d="M384.844 65.5015C381.576 68.6926 380.75 75.6469 380.746 78.7252C387.077 78.14 397.7 76.1936 399.605 72.1395C401.51 68.0854 400.322 63.045 398.002 61.8435C395.683 60.6421 388.93 61.5126 384.844 65.5015Z" fill="#FFDB40"/>
<path d="M349.27 154.507C349.27 154.507 347.264 152.206 342.752 152.206C338.24 152.206 336.234 154.507 336.234 154.507" stroke="#123041" stroke-width="8.17537" stroke-linecap="round"/>
<path d="M432.465 154.507C432.465 154.507 430.459 152.206 425.947 152.206C421.435 152.206 419.43 154.507 419.43 154.507" stroke="#123041" stroke-width="8.17537" stroke-linecap="round"/>
<circle cx="433.232" cy="238.469" r="13.8021" fill="#D15757"/>
<path d="M419.43 238.086H447.034" stroke="#123041" stroke-width="3.83391" stroke-linecap="round"/>
<rect x="8.43359" y="258.022" width="537.131" height="133.037" fill="#173A52"/>
<rect y="238.469" width="554" height="19.5529" fill="#005271"/>
<path d="M81.872 334V316.272H75.024V312.016H93.456V316.272H86.576V334H81.872ZM101.274 317.072C105.594 317.072 108.57 319.792 108.57 324.112V334H104.058V332.336C102.874 333.648 100.986 334.384 99.162 334.384C95.642 334.384 92.954 332.272 92.954 329.104C92.954 325.84 95.994 323.6 99.802 323.6C101.146 323.6 102.65 323.888 104.058 324.464V324.112C104.058 322.352 102.938 320.816 100.218 320.816C98.682 320.816 97.242 321.328 95.93 322L94.362 318.896C96.698 317.712 98.97 317.072 101.274 317.072ZM100.218 331.152C102.01 331.152 103.706 330.32 104.058 328.784V327.28C103.002 326.864 101.754 326.64 100.474 326.64C98.778 326.64 97.402 327.632 97.402 328.976C97.402 330.32 98.618 331.152 100.218 331.152ZM122.224 317.072C126.64 317.072 129.808 320.656 129.808 325.712C129.808 330.8 126.64 334.384 122.224 334.384C119.92 334.384 117.968 333.36 116.656 331.664V334H111.984V311.632H116.656V319.792C117.968 318.096 119.92 317.072 122.224 317.072ZM120.88 330.448C123.44 330.448 125.264 328.496 125.264 325.712C125.264 322.96 123.44 321.008 120.88 321.008C118.384 321.008 116.656 322.96 116.656 325.712C116.656 328.496 118.384 330.448 120.88 330.448ZM132.734 334V311.632H137.406V334H132.734ZM148.911 330.768C150.415 330.768 152.143 330.096 153.199 329.136L155.823 331.824C154.351 333.36 151.503 334.384 149.071 334.384C144.143 334.384 140.207 330.768 140.207 325.68C140.207 320.688 143.983 317.072 148.815 317.072C153.999 317.072 157.135 320.816 157.135 326.96H144.655C145.071 329.2 146.639 330.768 148.911 330.768ZM148.847 320.688C146.767 320.688 145.199 322.064 144.687 324.176H152.655C152.271 322.128 150.959 320.688 148.847 320.688ZM176.387 334.416C172.707 334.416 169.955 333.072 167.907 331.024L170.659 327.696C172.323 329.264 174.339 330.288 176.451 330.288C178.915 330.288 180.419 328.816 180.419 326.928C180.419 325.008 178.883 323.728 176.483 323.728C174.819 323.728 173.379 324.272 172.195 325.168L169.027 323.888L169.347 312.016H183.939V316.272H173.731L173.571 321.136C174.659 320.368 176.067 319.792 177.891 319.792C181.763 319.792 185.155 322.288 185.155 326.768C185.155 331.44 181.667 334.416 176.387 334.416ZM198.175 334.384C192.351 334.384 188.287 329.68 188.287 322.992C188.287 316.336 192.351 311.632 198.175 311.632C203.935 311.632 208.031 316.336 208.031 322.992C208.031 329.68 203.935 334.384 198.175 334.384ZM198.175 330.096C201.119 330.096 203.167 327.12 203.167 322.992C203.167 318.864 201.119 315.92 198.175 315.92C195.199 315.92 193.119 318.864 193.119 322.992C193.119 327.12 195.199 330.096 198.175 330.096Z" fill="url(#paint0_linear_2216_1537)"/>
<path d="M332.872 334V316.272H326.024V312.016H344.456V316.272H337.576V334H332.872ZM352.274 317.072C356.594 317.072 359.57 319.792 359.57 324.112V334H355.058V332.336C353.874 333.648 351.986 334.384 350.162 334.384C346.642 334.384 343.954 332.272 343.954 329.104C343.954 325.84 346.994 323.6 350.802 323.6C352.146 323.6 353.65 323.888 355.058 324.464V324.112C355.058 322.352 353.938 320.816 351.218 320.816C349.682 320.816 348.242 321.328 346.93 322L345.362 318.896C347.698 317.712 349.97 317.072 352.274 317.072ZM351.218 331.152C353.01 331.152 354.706 330.32 355.058 328.784V327.28C354.002 326.864 352.754 326.64 351.474 326.64C349.778 326.64 348.402 327.632 348.402 328.976C348.402 330.32 349.618 331.152 351.218 331.152ZM373.224 317.072C377.64 317.072 380.808 320.656 380.808 325.712C380.808 330.8 377.64 334.384 373.224 334.384C370.92 334.384 368.968 333.36 367.656 331.664V334H362.984V311.632H367.656V319.792C368.968 318.096 370.92 317.072 373.224 317.072ZM371.88 330.448C374.44 330.448 376.264 328.496 376.264 325.712C376.264 322.96 374.44 321.008 371.88 321.008C369.384 321.008 367.656 322.96 367.656 325.712C367.656 328.496 369.384 330.448 371.88 330.448ZM383.734 334V311.632H388.406V334H383.734ZM399.911 330.768C401.415 330.768 403.143 330.096 404.199 329.136L406.823 331.824C405.351 333.36 402.503 334.384 400.071 334.384C395.143 334.384 391.207 330.768 391.207 325.68C391.207 320.688 394.983 317.072 399.815 317.072C404.999 317.072 408.135 320.816 408.135 326.96H395.655C396.071 329.2 397.639 330.768 399.911 330.768ZM399.847 320.688C397.767 320.688 396.199 322.064 395.687 324.176H403.655C403.271 322.128 401.959 320.688 399.847 320.688ZM427.387 334.416C423.707 334.416 420.955 333.072 418.907 331.024L421.659 327.696C423.323 329.264 425.339 330.288 427.451 330.288C429.915 330.288 431.419 328.816 431.419 326.928C431.419 325.008 429.883 323.728 427.483 323.728C425.819 323.728 424.379 324.272 423.195 325.168L420.027 323.888L420.347 312.016H434.939V316.272H424.731L424.571 321.136C425.659 320.368 427.067 319.792 428.891 319.792C432.763 319.792 436.155 322.288 436.155 326.768C436.155 331.44 432.667 334.416 427.387 334.416ZM444.407 334V317.424L440.663 319.76L438.775 316.432L445.367 312.016H449.143V334H444.407Z" fill="url(#paint1_linear_2216_1537)"/>
<defs>
<linearGradient id="paint0_linear_2216_1537" x1="142" y1="309" x2="142" y2="341" gradientUnits="userSpaceOnUse">
<stop stop-color="#9EE7E5"/>
<stop offset="1" stop-color="#9EE7E5"/>
</linearGradient>
<linearGradient id="paint1_linear_2216_1537" x1="388.5" y1="309" x2="388.5" y2="341" gradientUnits="userSpaceOnUse">
<stop stop-color="#9EE7E5"/>
<stop offset="1" stop-color="#9EE7E5"/>
</linearGradient>
</defs>
</svg>
