<svg width="433" height="316" viewBox="0 0 433 316" fill="none" xmlns="http://www.w3.org/2000/svg">
<g clip-path="url(#clip0_3051_2165)">
<path d="M31.9713 33.2935C52.7302 45.5787 46.3172 51.7034 40.9538 60.7662C35.5904 69.829 32.8864 78.1487 12.5488 66.1128C2.22448 60.0029 -1.79714 47.703 3.56625 38.6402C8.92963 29.5774 21.647 27.1836 31.9713 33.2935Z" fill="white"/>
<path d="M62.4006 35.3941C62.4006 46.8366 58.4095 46.9044 53.4863 46.9044C48.5631 46.9044 44.572 46.8366 44.572 35.3941C44.572 23.9517 50.0356 14.6758 53.4863 14.6758C56.937 14.6758 62.4006 23.9517 62.4006 35.3941Z" fill="#6A5B3D"/>
<path d="M170.056 35.3941C170.056 46.8366 166.065 46.9044 161.142 46.9044C156.219 46.9044 152.228 46.8366 152.228 35.3941C152.228 23.9517 157.691 14.6758 161.142 14.6758C164.593 14.6758 170.056 23.9517 170.056 35.3941Z" fill="#6A5B3D"/>
<path d="M184.617 33.2935C163.858 45.5787 170.271 51.7034 175.635 60.7662C180.998 69.829 183.702 78.1487 204.04 66.1128C214.364 60.0029 218.386 47.703 213.022 38.6402C207.659 29.5774 194.942 27.1836 184.617 33.2935Z" fill="#123041"/>
<path d="M189.74 43.7668C179.394 49.8899 182.073 52.0683 184.108 55.5069C186.142 58.9454 186.973 62.2178 197.109 56.219C202.255 53.1737 204.777 47.9176 202.742 44.479C200.707 41.0404 194.886 40.7216 189.74 43.7668Z" fill="#FFC0C1"/>
<path d="M26.2328 43.7668C36.5792 49.8899 33.9003 52.0683 31.8654 55.5069C29.8304 58.9454 29.0001 62.2178 18.8636 56.219C13.7178 53.1737 11.196 47.9176 13.231 44.479C15.2659 41.0404 21.087 40.7216 26.2328 43.7668Z" fill="#FFC0C1"/>
<path d="M179.786 186.577C162.065 186.415 143.182 163.687 135.955 152.344C135.995 150.824 136.676 147.191 139.08 144.821C142.084 141.859 182.278 155.464 190.931 160.255C199.584 165.045 201.938 186.78 179.786 186.577Z" fill="#E7EAEE"/>
<path d="M147.48 246.075C152.398 244.065 157.186 217.271 156.216 203.933L108.977 211.472C108.006 222.298 107.941 244.374 110.271 246.075C113.183 248.202 141.332 248.589 147.48 246.075Z" fill="#E7EAEE"/>
<path d="M151.172 216.398C165.874 206.621 146 145.634 131.639 137.952C117.279 130.27 93.9226 131.434 83.6651 137.952C73.4076 144.47 48.0597 206.389 62.7619 216.398C77.4642 226.408 136.47 226.175 151.172 216.398Z" fill="white"/>
<path fill-rule="evenodd" clip-rule="evenodd" d="M111.885 223.752C112 220.143 111.881 212.782 109.371 208.391C105.353 201.362 92.2284 196.734 92.2284 196.734C86.9712 195.934 75.6341 192.139 72.3427 183.362C70.9421 179.627 67.7123 177.126 63.9793 175.493C58.1127 193.156 55.3609 211.359 62.7641 216.399C70.77 221.849 91.9127 224.263 111.885 223.752Z" fill="#123041"/>
<path d="M67.1491 246.075C62.2311 244.065 57.4424 217.271 58.4132 203.933L105.652 211.472C106.623 222.298 106.688 244.374 104.358 246.075C101.446 248.202 73.2967 248.589 67.1491 246.075Z" fill="#123041"/>
<path d="M37.7167 186.936C37.4126 169.216 59.6354 149.741 70.7848 142.219C72.3052 142.219 75.9542 142.804 78.3867 145.144C81.4275 148.07 68.8844 188.607 64.3233 197.384C59.7622 206.16 38.0968 209.085 37.7167 186.936Z" fill="white"/>
<path d="M146.057 194.276C146.057 212.568 130.399 216.961 111.085 216.961C91.771 216.961 76.1138 212.568 76.1138 194.276C76.1138 170.229 91.771 156.618 111.085 156.618C130.399 156.618 146.057 170.229 146.057 194.276Z" fill="#FFC0C1"/>
<path d="M110.791 210.79C110.932 210.791 111.071 210.764 111.202 210.711C111.332 210.658 111.451 210.58 111.551 210.481L116.314 205.69C116.489 205.486 116.581 205.224 116.57 204.956C116.56 204.688 116.448 204.434 116.258 204.244C116.067 204.055 115.812 203.944 115.542 203.933C115.273 203.923 115.009 204.014 114.805 204.189L110.031 208.927C109.93 209.026 109.851 209.143 109.796 209.273C109.742 209.403 109.714 209.542 109.714 209.682C109.714 209.823 109.742 209.962 109.796 210.092C109.851 210.222 109.93 210.339 110.031 210.438C110.127 210.545 110.244 210.631 110.375 210.691C110.505 210.752 110.647 210.785 110.791 210.79Z" fill="#FF8D8D"/>
<path d="M115.503 210.79C115.643 210.791 115.781 210.764 115.911 210.711C116.04 210.658 116.158 210.58 116.257 210.482C116.357 210.383 116.436 210.266 116.49 210.136C116.544 210.007 116.571 209.868 116.571 209.728C116.571 209.587 116.544 209.449 116.49 209.319C116.436 209.19 116.357 209.072 116.257 208.973L111.531 204.247C111.432 204.147 111.315 204.068 111.185 204.014C111.056 203.96 110.917 203.933 110.777 203.933C110.637 203.933 110.498 203.96 110.369 204.014C110.239 204.068 110.122 204.147 110.023 204.247C109.825 204.446 109.714 204.715 109.714 204.996C109.714 205.276 109.825 205.545 110.023 205.744L114.76 210.482C114.957 210.678 115.224 210.789 115.503 210.79V210.79Z" fill="#FF8D8D"/>
<path d="M194.058 104.163C194.058 139.951 154.814 151.819 107.117 151.819C59.4195 151.819 19.8867 139.951 19.8867 104.163C19.8867 43.1407 59.4195 22.2188 107.117 22.2188C154.814 22.2188 194.058 40.2349 194.058 104.163Z" fill="white"/>
<path fill-rule="evenodd" clip-rule="evenodd" d="M113.178 22.3193C113.579 33.7384 115.963 48.7154 123.446 54.7723C130.025 60.0988 137.619 61.4553 144.404 62.6674C150.203 63.7034 155.412 64.6339 158.894 67.8474C160.743 69.5548 162.384 71.9242 164.161 74.4905C169.515 82.2228 176.108 91.7436 193.388 90.3385C188.276 40.032 154.519 23.7198 113.178 22.3193Z" fill="#123041"/>
<path d="M65.1431 97.6465V108.618" stroke="#123041" stroke-width="10.2857" stroke-linecap="round"/>
<path d="M157.029 97.6465V108.618" stroke="#123041" stroke-width="10.2857" stroke-linecap="round"/>
<path d="M78.8577 123.155C78.8577 109.067 90.2782 97.6465 104.366 97.6465H117.121C131.209 97.6465 142.629 109.067 142.629 123.155C142.629 132.547 135.015 140.161 125.623 140.161H95.8634C86.4714 140.161 78.8577 132.547 78.8577 123.155Z" fill="#FFC0C1"/>
<path d="M97.3711 116.847V124.39" stroke="#123041" stroke-width="6.85714" stroke-linecap="round"/>
<path d="M124.801 116.847L124.801 124.39" stroke="#123041" stroke-width="6.85714" stroke-linecap="round"/>
<path d="M44.572 124.39H54.8577" stroke="#FFC0C1" stroke-width="13.7143" stroke-linecap="round"/>
<path d="M167.315 124.39H177.601" stroke="#FFC0C1" stroke-width="13.7143" stroke-linecap="round"/>
<path d="M57.6 155.247C51.0368 151.809 52.7046 146.441 53.4859 144.618C54.7882 144.879 59.7087 146.736 63.7716 147.361C67.8345 147.986 71.6554 148.99 74.911 149.25L74.1297 161.361C71.1345 160.97 64.1632 158.685 57.6 155.247Z" fill="#173A52"/>
<ellipse cx="85.9403" cy="160.309" rx="7.8133" ry="16.4079" transform="rotate(-20 85.9403 160.309)" fill="#173A52"/>
<rect x="70.7825" y="148.364" width="10.1573" height="32.8159" transform="rotate(-20 70.7825 148.364)" fill="#173A52"/>
<path d="M83.7374 161.111C86.8368 169.626 86.0621 177.726 82.0072 179.202C77.9523 180.678 71.1263 179.005 66.8506 167.257C62.5749 155.51 66.7286 149.841 70.7835 148.365C74.8384 146.889 80.6381 152.596 83.7374 161.111Z" fill="#005271"/>
<ellipse cx="74.5613" cy="164.45" rx="5.85998" ry="12.5013" transform="rotate(-20 74.5613 164.45)" fill="#9EE7E5"/>
<ellipse cx="6.25064" cy="16.4079" rx="6.25064" ry="16.4079" transform="matrix(-0.939693 -0.34202 -0.34202 0.939693 150.622 147.275)" fill="#173A52"/>
<rect width="8.59463" height="32.8159" transform="matrix(-0.939693 -0.34202 -0.34202 0.939693 152.823 148.076)" fill="#173A52"/>
<path d="M142.806 161.891C139.707 170.406 139.195 178.038 141.663 178.936C144.132 179.834 148.809 177.38 153.085 165.632C157.361 153.885 155.355 148.998 152.887 148.099C150.419 147.201 145.906 153.376 142.806 161.891Z" fill="#005271"/>
<ellipse cx="3.51599" cy="12.5013" rx="3.51599" ry="12.5013" transform="matrix(-0.939693 -0.34202 -0.34202 0.939693 155.892 153.351)" fill="#9EE7E5"/>
<g clip-path="url(#clip1_3051_2165)">
<rect x="190.173" y="141.008" width="23.3143" height="34.2857" rx="3.42857" transform="rotate(29.3185 190.173 141.008)" fill="#005271"/>
<rect x="191.222" y="144.742" width="17.8286" height="11.6571" rx="1.37143" transform="rotate(29.3185 191.222 144.742)" fill="#123041"/>
<circle cx="188.25" cy="168.239" r="7.54286" transform="rotate(29.3185 188.25 168.239)" fill="#9EE7E5"/>
<circle cx="188.25" cy="168.239" r="4.11429" transform="rotate(29.3185 188.25 168.239)" fill="#005271"/>
</g>
</g>
<path d="M137.897 173.567C138.2 172.796 137.82 171.925 137.049 171.622C136.278 171.319 135.407 171.699 135.104 172.47L137.897 173.567ZM135.104 172.47C133.62 176.249 132.717 183.113 133.025 191.17C133.335 199.272 134.875 208.755 138.416 217.815C141.958 226.877 147.523 235.566 155.909 241.99C164.311 248.428 175.451 252.519 190 252.519V249.519C176.05 249.519 165.565 245.609 157.733 239.609C149.884 233.596 144.606 225.41 141.21 216.722C137.813 208.032 136.322 198.89 136.023 191.055C135.721 183.174 136.631 176.788 137.897 173.567L135.104 172.47ZM190 252.519C197.774 252.519 204.054 248.199 209.253 241.103C214.433 234.032 218.677 224.031 222.422 212.214C229.91 188.591 235.581 157.087 242.527 125.907C249.496 94.6224 257.757 63.6115 270.416 40.5929C283.058 17.6046 299.887 2.91314 323.962 3.51804L324.038 0.518989C298.363 -0.126108 280.692 15.6824 267.787 39.1473C254.9 62.5818 246.567 93.9771 239.599 125.255C232.607 156.637 226.997 187.852 219.563 211.307C215.847 223.029 211.721 232.657 206.832 239.33C201.962 245.978 196.477 249.519 190 249.519V252.519ZM323.962 3.51804C348.533 4.1354 365.68 11.6228 377.456 23.0407C389.255 34.4815 395.81 50.0139 398.899 66.9748C405.087 100.944 397.287 140.174 390.566 162.079L393.434 162.959C400.213 140.863 408.163 101.094 401.851 66.4372C398.69 49.0857 391.933 32.8993 379.544 20.887C367.132 8.8517 349.217 1.15163 324.038 0.518989L323.962 3.51804ZM390.566 162.079C383.996 183.493 368.694 194.994 349.147 204.674C339.344 209.529 328.595 213.87 317.358 218.801C306.157 223.717 294.549 229.188 283.208 236.245L284.792 238.792C295.951 231.849 307.406 226.445 318.564 221.548C329.686 216.667 340.594 212.258 350.478 207.363C370.306 197.543 386.504 185.544 393.434 162.959L390.566 162.079ZM283.208 236.245C271.699 243.406 264.884 252.478 262.385 262.005C259.885 271.537 261.753 281.359 267.305 289.899C278.401 306.965 304.067 318.808 339.203 314.005L338.797 311.032C304.433 315.73 280.099 304.072 269.82 288.263C264.685 280.365 263.021 271.406 265.287 262.766C267.554 254.122 273.801 245.632 284.792 238.792L283.208 236.245ZM339.203 314.005C409.693 304.369 430.961 235.905 432.893 231.076L430.107 229.961C428.039 235.132 407.307 301.668 338.797 311.032L339.203 314.005Z" fill="url(#paint0_linear_3051_2165)"/>
<defs>
<linearGradient id="paint0_linear_3051_2165" x1="282.982" y1="2" x2="282.982" y2="313.582" gradientUnits="userSpaceOnUse">
<stop stop-color="#9EE7E5"/>
<stop offset="1" stop-color="#9EE7E5"/>
</linearGradient>
<clipPath id="clip0_3051_2165">
<rect width="216" height="256.457" fill="white" transform="translate(0 3.01855)"/>
</clipPath>
<clipPath id="clip1_3051_2165">
<rect width="25.3714" height="37.0286" fill="white" transform="translate(190.246 139.476) rotate(29.3185)"/>
</clipPath>
</defs>
</svg>
