<svg width="640" height="350" viewBox="0 0 640 350" fill="none" xmlns="http://www.w3.org/2000/svg">
<g clip-path="url(#clip0_3051_2260)">
<path d="M410.982 208.447C427.876 210.812 449.085 191.859 457.577 182.087C457.755 180.635 457.623 177.08 455.672 174.482C453.233 171.234 413.034 178.473 404.115 181.803C395.196 185.133 389.864 205.491 410.982 208.447Z" fill="#FFC532"/>
<path d="M442.215 270.422C437.481 268.487 432.872 242.696 433.806 229.856L479.277 237.114C480.212 247.534 480.274 268.784 478.032 270.422C475.229 272.469 448.133 272.841 442.215 270.422Z" fill="#FFC532"/>
<path d="M438.661 241.855C424.51 232.444 443.64 173.739 457.463 166.345C471.286 158.951 493.768 160.071 503.642 166.345C513.515 172.619 537.914 232.22 523.762 241.855C509.61 251.49 452.813 251.266 438.661 241.855Z" fill="#FFDB40"/>
<path d="M519.541 270.422C524.275 268.487 528.885 242.696 527.95 229.856L482.48 237.114C481.545 247.534 481.483 268.784 483.725 270.422C486.528 272.469 513.624 272.841 519.541 270.422Z" fill="#FFDB40"/>
<path d="M547.871 213.495C548.163 196.438 526.772 177.692 516.04 170.451C514.577 170.451 511.064 171.014 508.723 173.267C505.796 176.083 517.869 215.104 522.26 223.551C526.65 231.999 547.505 234.815 547.871 213.495Z" fill="#FFDB40"/>
<path d="M472.251 233.156C472.116 233.157 471.981 233.131 471.856 233.08C471.73 233.029 471.616 232.954 471.52 232.859L466.935 228.247C466.766 228.051 466.678 227.799 466.688 227.541C466.698 227.283 466.806 227.038 466.989 226.856C467.173 226.673 467.419 226.566 467.678 226.556C467.937 226.546 468.191 226.634 468.388 226.802L472.983 231.363C473.08 231.458 473.156 231.571 473.209 231.696C473.261 231.821 473.288 231.955 473.288 232.09C473.288 232.226 473.261 232.36 473.209 232.484C473.156 232.609 473.08 232.723 472.983 232.818C472.89 232.92 472.778 233.003 472.652 233.061C472.526 233.119 472.39 233.152 472.251 233.156Z" fill="#FFB132"/>
<path d="M467.715 233.156C467.581 233.157 467.448 233.131 467.323 233.08C467.198 233.029 467.085 232.954 466.99 232.86C466.894 232.765 466.818 232.652 466.766 232.527C466.714 232.402 466.687 232.269 466.687 232.134C466.687 231.999 466.714 231.865 466.766 231.741C466.818 231.616 466.894 231.503 466.99 231.408L471.539 226.858C471.634 226.762 471.747 226.686 471.872 226.634C471.996 226.582 472.13 226.556 472.265 226.556C472.4 226.556 472.533 226.582 472.658 226.634C472.782 226.686 472.895 226.762 472.99 226.858C473.181 227.05 473.288 227.309 473.288 227.579C473.288 227.849 473.181 228.108 472.99 228.3L468.431 232.86C468.241 233.049 467.984 233.155 467.715 233.156V233.156Z" fill="#FFB132"/>
<path d="M407.943 147.258C404.973 148.908 390.782 148.578 390.122 123.166C390.782 97.7539 404.973 97.4239 407.943 99.074C410.913 100.724 412.893 112.935 412.893 123.166C412.893 133.397 410.913 145.607 407.943 147.258Z" fill="#FFC53D"/>
<path d="M394.742 131.18C394.742 165.629 432.517 177.052 478.429 177.052C524.341 177.052 562.395 165.629 562.395 131.18C562.395 72.4416 524.341 52.3027 478.429 52.3027C432.517 52.3027 394.742 69.6446 394.742 131.18Z" fill="#FFDB40"/>
<path d="M532.692 148.01H522.792" stroke="#FCA18E" stroke-width="13.201" stroke-linecap="round"/>
<path d="M423.124 148.01H413.223" stroke="#FCA18E" stroke-width="13.201" stroke-linecap="round"/>
<path d="M512.891 124.248V134.809" stroke="#123041" stroke-width="9.90074" stroke-linecap="round"/>
<path d="M433.025 124.248V134.809" stroke="#123041" stroke-width="9.90074" stroke-linecap="round"/>
<path d="M456.127 139.43C456.127 145.444 463.662 148.01 472.958 148.01C482.253 148.01 489.789 145.444 489.789 139.43C489.789 133.415 482.253 126.229 472.958 126.229C463.662 126.229 456.127 133.415 456.127 139.43Z" fill="#FFB132"/>
<path d="M571.635 124.578C571.635 102.873 565.158 99.8262 556.349 99.8262C550.649 99.8262 543.913 102.873 543.913 124.578C543.913 146.284 550.649 149.33 556.349 149.33C565.158 149.33 571.635 146.284 571.635 124.578Z" stroke="#DB8A2A" stroke-width="5.2804"/>
<path d="M533.682 57.5829C554.474 66.8236 564.595 87.6151 565.695 100.156L551.504 103.786C550.954 99.496 545.899 85.1702 533.682 72.434C518.171 56.2628 486.599 53.5126 477.248 52.3025C482.858 51.9724 514.472 49.0449 533.682 57.5829Z" fill="#FFC53D"/>
<path d="M580.216 124.578C580.216 102.873 572.042 99.8262 560.926 99.8262C553.734 99.8262 545.233 102.873 545.233 124.578C545.233 146.284 553.734 149.33 560.926 149.33C572.042 149.33 580.216 146.284 580.216 124.578Z" fill="#FFC53D"/>
<path d="M466.197 29.3466C476.21 38.2257 481.962 48.1836 483.664 57.2468L466.043 55.3679C458.788 54.5942 451.838 46.0417 452.158 35.6609C452.479 25.28 461.106 24.8313 466.197 29.3466Z" fill="#FFDB40"/>
<path d="M484.587 43.3732C481.47 46.4172 480.682 53.0508 480.677 55.9871C486.716 55.4289 496.85 53.5723 498.667 49.7051C500.484 45.8379 499.351 41.0299 497.138 39.8839C494.926 38.7378 488.484 39.5682 484.587 43.3732Z" fill="#FFDB40"/>
<g clip-path="url(#clip1_3051_2260)">
<rect x="385.971" y="173.844" width="22.4417" height="33.0025" rx="3.30025" transform="rotate(-23.4127 385.971 173.844)" fill="#005271"/>
<rect x="389.443" y="175.218" width="17.1613" height="11.2208" rx="1.3201" transform="rotate(-23.4127 389.443 175.218)" fill="#123041"/>
<circle cx="405.71" cy="191.191" r="7.26055" transform="rotate(-23.4127 405.71 191.191)" fill="#FFC53D"/>
<circle cx="405.711" cy="191.19" r="3.9603" transform="rotate(-23.4127 405.711 191.19)" fill="#005271"/>
</g>
<g clip-path="url(#clip2_3051_2260)">
<path d="M562.5 147.5C562.5 171.5 561 262 545 301C529 340 475.5 363.5 382 366.5C288.5 369.5 268.5 373.5 259.5 361C250.5 348.5 259 320.5 242 301C225 281.5 143 207 111.5 189C80 171 38.5 182 6.5 117.5C-25.5 53 -40 117 -40 157.5C-40 198 -12.5 199 6.5 182C25.5 165 171.5 26 269 37C366.5 48 413.5 185 357.5 250C315.254 299.036 223 272 199.5 199.5" stroke="url(#paint0_linear_3051_2260)" stroke-width="3"/>
</g>
</g>
<defs>
<linearGradient id="paint0_linear_3051_2260" x1="261.25" y1="36.3809" x2="261.25" y2="369.576" gradientUnits="userSpaceOnUse">
<stop stop-color="#9EE7E5"/>
<stop offset="1" stop-color="#9EE7E5"/>
</linearGradient>
<clipPath id="clip0_3051_2260">
<rect width="640" height="350" fill="white"/>
</clipPath>
<clipPath id="clip1_3051_2260">
<rect width="24.4218" height="35.6427" fill="white" transform="translate(384.841 172.895) rotate(-23.4127)"/>
</clipPath>
<clipPath id="clip2_3051_2260">
<rect width="640" height="362" fill="white"/>
</clipPath>
</defs>
</svg>
