<svg width="56" height="53" viewBox="0 0 56 53" fill="none" xmlns="http://www.w3.org/2000/svg">
<g clip-path="url(#clip0_2870_910)">
<mask id="path-1-inside-1_2870_910" fill="white">
<path fill-rule="evenodd" clip-rule="evenodd" d="M15.9861 20.8495C14.5924 18.3182 13.3425 15.8812 12.796 14.1095C11.0219 8.35872 13.2323 1.21973 19.3891 1.21973C24.2982 1.21973 26.8538 9.61401 27.5223 14.1095C28.1907 9.61401 30.5721 1.21974 35.6554 1.21973C41.8122 1.21971 44.0918 8.50461 41.9 14.1095C41.1943 15.9142 39.8918 18.4091 38.5013 20.9908C44.7692 23.6422 48.9743 29.2723 48.9743 39.822C48.9743 48.9176 39.0004 51.9338 26.878 51.9338C14.7557 51.9338 4.70834 48.9176 4.70834 39.822C4.70834 29.3555 9.28441 23.5307 15.9861 20.8495Z"/>
</mask>
<path d="M12.796 14.1095L12.2964 14.2637L12.2964 14.2637L12.796 14.1095ZM15.9861 20.8495L16.1803 21.3349L16.7293 21.1153L16.4441 20.5973L15.9861 20.8495ZM27.5223 14.1095L27.0051 14.1864H28.0394L27.5223 14.1095ZM35.6554 1.21973L35.6554 0.6969L35.6554 1.21973ZM41.9 14.1095L41.4131 13.9191L41.4131 13.9191L41.9 14.1095ZM38.5013 20.9908L38.041 20.7429L37.7686 21.2486L38.2976 21.4723L38.5013 20.9908ZM12.2964 14.2637C12.8612 16.0944 14.1379 18.5768 15.5281 21.1017L16.4441 20.5973C15.0468 18.0597 13.8239 15.668 13.2956 13.9554L12.2964 14.2637ZM19.3891 0.6969C16.0635 0.6969 13.8064 2.64361 12.6398 5.2977C11.4827 7.9302 11.377 11.2835 12.2964 14.2637L13.2956 13.9554C12.4408 11.1848 12.5533 8.09315 13.5971 5.71846C14.6314 3.36535 16.5579 1.74255 19.3891 1.74255V0.6969ZM28.0394 14.0326C27.6998 11.7489 26.8814 8.46886 25.5131 5.74417C24.1668 3.06325 22.1701 0.6969 19.3891 0.6969V1.74255C21.5171 1.74255 23.2528 3.57335 24.5787 6.21345C25.8825 8.80978 26.6762 11.9747 27.0051 14.1864L28.0394 14.0326ZM35.6554 0.6969C32.7899 0.696906 30.7929 3.0582 29.4645 5.74725C28.1175 8.47399 27.3439 11.7546 27.0051 14.0326L28.0394 14.1864C28.3691 11.9689 29.1204 8.80466 30.402 6.21038C31.7022 3.57841 33.4376 1.74256 35.6554 1.74255L35.6554 0.6969ZM42.3869 14.2999C43.529 11.3793 43.5122 8.01515 42.39 5.35929C41.2595 2.68364 38.9839 0.696894 35.6554 0.6969L35.6554 1.74255C38.4837 1.74255 40.4263 3.39825 41.4268 5.76626C42.4357 8.15409 42.4628 11.2348 41.4131 13.9191L42.3869 14.2999ZM38.9616 21.2387C40.3491 18.6626 41.6676 16.1394 42.3869 14.2999L41.4131 13.9191C40.721 15.6889 39.4345 18.1555 38.041 20.7429L38.9616 21.2387ZM38.2976 21.4723C41.3431 22.7606 43.8693 24.7627 45.64 27.7135C47.4138 30.6697 48.4515 34.6151 48.4515 39.822H49.4971C49.4971 34.4792 48.4323 30.3347 46.5366 27.1755C44.6377 24.0111 41.9275 21.8724 38.705 20.5093L38.2976 21.4723ZM48.4515 39.822C48.4515 41.9941 47.8582 43.7795 46.8022 45.2462C45.7422 46.7184 44.1955 47.8977 42.249 48.8159C38.3439 50.658 32.9114 51.4109 26.878 51.4109V52.4566C32.967 52.4566 38.5826 51.7015 42.6951 49.7616C44.7573 48.7888 46.4618 47.5086 47.6508 45.8572C48.8437 44.2002 49.4971 42.1978 49.4971 39.822H48.4515ZM26.878 51.4109C20.8448 51.4109 15.3934 50.658 11.4695 48.8155C9.51348 47.897 7.95764 46.7174 6.89106 45.245C5.82856 43.7782 5.23117 41.9932 5.23117 39.822H4.18552C4.18552 42.1986 4.84404 44.2015 6.04424 45.8584C7.24037 47.5096 8.95401 48.7895 11.0251 49.762C15.1554 51.7015 20.7889 52.4566 26.878 52.4566V51.4109ZM5.23117 39.822C5.23117 34.6649 6.35806 30.6956 8.27458 27.6979C10.1894 24.7029 12.9159 22.6409 16.1803 21.3349L15.7919 20.3641C12.3546 21.7393 9.4422 23.9304 7.39359 27.1346C5.34666 30.3363 4.18552 34.5126 4.18552 39.822H5.23117Z" fill="#123041" mask="url(#path-1-inside-1_2870_910)"/>
<path d="M18.6527 37.1206V39.909" stroke="#123041" stroke-width="2.61413" stroke-linecap="round"/>
<path d="M39.74 37.1206V39.909" stroke="#123041" stroke-width="2.61413" stroke-linecap="round"/>
<path d="M11.9445 43.9176C11.9445 43.0994 12.6078 42.4362 13.4259 42.4362V41.9134C12.319 41.9134 11.4217 42.8107 11.4217 43.9176H11.9445ZM13.4259 45.3989C12.6078 45.3989 11.9445 44.7357 11.9445 43.9176H11.4217C11.4217 45.0244 12.319 45.9217 13.4259 45.9217V45.3989ZM16.04 45.3989H13.4259V45.9217H16.04V45.3989ZM17.5214 43.9176C17.5214 44.7357 16.8581 45.3989 16.04 45.3989V45.9217C17.1469 45.9217 18.0442 45.0244 18.0442 43.9176H17.5214ZM16.04 42.4362C16.8581 42.4362 17.5214 43.0994 17.5214 43.9176H18.0442C18.0442 42.8107 17.1469 41.9134 16.04 41.9134V42.4362ZM13.4259 42.4362H16.04V41.9134H13.4259V42.4362ZM40.8732 43.9176C40.8732 43.0994 41.5364 42.4362 42.3545 42.4362V41.9134C41.2476 41.9134 40.3503 42.8107 40.3503 43.9176H40.8732ZM42.3545 45.3989C41.5364 45.3989 40.8732 44.7357 40.8732 43.9176H40.3503C40.3503 45.0244 41.2476 45.9217 42.3545 45.9217V45.3989ZM44.9686 45.3989H42.3545V45.9217H44.9686V45.3989ZM46.45 43.9176C46.45 44.7357 45.7868 45.3989 44.9686 45.3989V45.9217C46.0755 45.9217 46.9728 45.0244 46.9728 43.9176H46.45ZM44.9686 42.4362C45.7868 42.4362 46.45 43.0994 46.45 43.9176H46.9728C46.9728 42.8107 46.0755 41.9134 44.9686 41.9134V42.4362ZM42.3545 42.4362H44.9686V41.9134H42.3545V42.4362Z" fill="#123041"/>
<path d="M32.0719 44.3455C32.0719 45.9159 32.0719 46.7054 29.1964 46.7054C26.3208 46.7054 26.3208 46.0562 26.3208 44.3455C26.3208 42.6347 27.6083 39.9087 29.1964 39.9087C30.7845 39.9087 32.0719 42.775 32.0719 44.3455Z" fill="#123041"/>
<mask id="path-7-inside-2_2870_910" fill="white">
<path fill-rule="evenodd" clip-rule="evenodd" d="M26.7442 42.3507C27.2503 41.069 28.1584 39.9087 29.1945 39.9087C30.2167 39.9087 31.1142 41.096 31.6242 42.361C30.9346 42.6828 30.0976 42.8713 29.1952 42.8713C28.2831 42.8713 27.4379 42.6788 26.7442 42.3507Z"/>
</mask>
<path fill-rule="evenodd" clip-rule="evenodd" d="M26.7442 42.3507C27.2503 41.069 28.1584 39.9087 29.1945 39.9087C30.2167 39.9087 31.1142 41.096 31.6242 42.361C30.9346 42.6828 30.0976 42.8713 29.1952 42.8713C28.2831 42.8713 27.4379 42.6788 26.7442 42.3507Z" fill="#85D2E2"/>
<path d="M26.7442 42.3507L26.2579 42.1586L26.0781 42.614L26.5206 42.8233L26.7442 42.3507ZM31.6242 42.361L31.8453 42.8348L32.2944 42.6252L32.1091 42.1655L31.6242 42.361ZM27.2305 42.5427C27.4665 41.945 27.7892 41.3958 28.153 41.0056C28.522 40.6098 28.8794 40.4315 29.1945 40.4315V39.3859C28.4735 39.3859 27.8589 39.7877 27.3882 40.2925C26.9124 40.8028 26.528 41.4746 26.2579 42.1586L27.2305 42.5427ZM29.1945 40.4315C29.496 40.4315 29.8464 40.6095 30.2155 41.0132C30.5779 41.4096 30.9003 41.9638 31.1393 42.5565L32.1091 42.1655C31.8381 41.4933 31.4568 40.8213 30.9873 40.3077C30.5246 39.8016 29.9152 39.3859 29.1945 39.3859V40.4315ZM31.4031 41.8872C30.7875 42.1745 30.0267 42.3485 29.1952 42.3485V43.3942C30.1685 43.3942 31.0817 43.1911 31.8453 42.8348L31.4031 41.8872ZM29.1952 42.3485C28.3548 42.3485 27.5866 42.1707 26.9677 41.878L26.5206 42.8233C27.2892 43.1868 28.2115 43.3942 29.1952 43.3942V42.3485Z" fill="#123041" mask="url(#path-7-inside-2_2870_910)"/>
<path d="M28.4821 37.4692C28.8242 37.4692 28.981 37.6118 29.1948 37.7544C29.4086 37.6118 29.5653 37.4692 29.9074 37.4692C30.335 37.4692 30.5833 37.9174 30.4775 38.1822C30.3349 38.5387 29.8124 38.8951 29.1948 39.0377C28.5771 38.8951 28.0546 38.5387 27.912 38.1822C27.8062 37.9174 28.0545 37.4692 28.4821 37.4692Z" fill="#123041"/>
</g>
<defs>
<clipPath id="clip0_2870_910">
<rect width="56" height="53" fill="white"/>
</clipPath>
</defs>
</svg>
