<svg width="126" height="174" viewBox="0 0 126 174" fill="none" xmlns="http://www.w3.org/2000/svg">
<rect x="0.318359" y="17.2487" width="100.231" height="158.59" rx="5.42373" transform="rotate(-9.48347 0.318359 17.2487)" fill="#005271"/>
<g clip-path="url(#clip0_2790_14715)">
<rect x="10.9385" y="26.1975" width="82.2238" height="137.383" rx="2.71187" transform="rotate(-9.48347 10.9385 26.1975)" fill="#123041"/>
<g clip-path="url(#clip1_2790_14715)">
<path d="M84.6293 153.543C85.2125 146.113 76.3858 137.368 71.8995 133.924C71.2613 133.885 69.7147 134.037 68.6336 134.956C67.2821 136.106 71.5045 153.443 73.1933 157.244C74.8821 161.045 83.9004 162.83 84.6293 153.543Z" fill="#E7EAEE"/>
<path d="M69.8951 177.556C72.011 176.838 74.7097 165.715 74.6452 160.092L54.624 162.042C53.9383 166.561 53.3436 175.825 54.2776 176.599C55.4452 177.566 67.2502 178.452 69.8951 177.556Z" fill="#E7EAEE"/>
<path d="M36.8316 163.028C30.912 158.547 40.8217 133.46 47.0466 130.605C53.2715 127.75 63.0448 128.839 67.1826 131.838C71.3204 134.838 80.3676 161.478 73.9394 165.301C67.5112 169.125 42.7511 167.51 36.8316 163.028Z" fill="white"/>
<path d="M36.1783 175.49C34.1657 174.519 32.8446 163.15 33.595 157.577L53.2285 161.956C53.3576 166.524 52.8172 175.792 51.7957 176.446C50.5188 177.264 38.6939 176.703 36.1783 175.49Z" fill="white"/>
<path d="M25.3478 149.91C25.6757 142.464 35.5038 134.862 40.3769 131.991C41.015 132.03 42.5315 132.369 43.4924 133.414C44.6935 134.72 38.3866 151.412 36.2466 154.979C34.1065 158.545 24.9378 159.216 25.3478 149.91Z" fill="white"/>
<path d="M40.3763 154.5C39.906 162.178 46.3648 164.424 54.4715 164.921C62.5781 165.417 69.2628 163.976 69.733 156.298C70.3512 146.205 64.1294 140.09 56.0228 139.593C47.9162 139.097 40.9945 144.407 40.3763 154.5Z" fill="#E7EAEE"/>
<path d="M55.7392 160.378C55.6801 160.375 55.6221 160.36 55.5688 160.334C55.5154 160.309 55.4676 160.273 55.4282 160.229L53.5521 158.095C53.4837 158.005 53.452 157.893 53.4633 157.781C53.4745 157.669 53.5279 157.565 53.6128 157.49C53.6977 157.416 53.8078 157.375 53.9212 157.378C54.0345 157.381 54.1427 157.426 54.2242 157.504L56.1061 159.615C56.1456 159.66 56.176 159.711 56.1955 159.767C56.215 159.823 56.2232 159.882 56.2195 159.941C56.2159 160 56.2006 160.058 56.1745 160.111C56.1483 160.164 56.1119 160.211 56.0672 160.25C56.024 160.292 55.9727 160.325 55.9163 160.347C55.86 160.369 55.7997 160.38 55.7392 160.378Z" fill="#FFC0C1"/>
<path d="M53.7613 160.257C53.7026 160.254 53.6452 160.239 53.5922 160.213C53.5393 160.188 53.4919 160.152 53.4527 160.108C53.4135 160.064 53.3834 160.013 53.3641 159.957C53.3448 159.901 53.3367 159.842 53.3403 159.784C53.3439 159.725 53.3591 159.667 53.3851 159.614C53.411 159.561 53.4472 159.514 53.4915 159.475L55.5967 157.613C55.6407 157.573 55.692 157.543 55.7477 157.524C55.8034 157.505 55.8624 157.497 55.9213 157.5C55.9801 157.504 56.0376 157.519 56.0906 157.545C56.1435 157.571 56.1908 157.607 56.2297 157.651C56.3076 157.74 56.3473 157.856 56.34 157.974C56.3328 158.091 56.2793 158.202 56.1912 158.28L54.0813 160.147C53.9932 160.224 53.8783 160.263 53.7613 160.257Z" fill="#FFC0C1"/>
<path d="M35.4213 72.1677C37.2666 79.7721 46.2305 94.9882 47.9415 101.226L67.6566 102.434C70.1161 96.4512 80.11 82.3964 83.4857 75.1118C87.6725 66.0771 84.6446 53.8157 74.477 53.1929C66.0819 52.6787 61.3001 66.3008 59.7413 73.6574C59.0921 66.1655 55.7207 52.0441 47.6135 51.5475C37.4458 50.9247 33.0731 62.491 35.4213 72.1677Z" fill="white"/>
<path d="M94.011 118.378C93.0909 133.399 76.3141 137.371 56.2944 136.145C36.2747 134.918 19.9869 128.921 20.907 113.9C22.4758 88.2872 39.6066 80.5221 59.6263 81.7483C79.646 82.9746 95.6545 91.5453 94.011 118.378Z" fill="white"/>
<path d="M74.999 112.735L74.717 117.34" stroke="#123041" stroke-width="4.32526" stroke-linecap="round"/>
<path d="M40.1729 110.603L39.8908 115.208" stroke="#123041" stroke-width="4.32526" stroke-linecap="round"/>
<path d="M82.9434 124.487L78.6262 124.223" stroke="#FFC0C1" stroke-width="5.76701" stroke-linecap="round"/>
<path d="M35.1709 121.563L30.8537 121.299" stroke="#FFC0C1" stroke-width="5.76701" stroke-linecap="round"/>
<path d="M52.1091 123.309C51.9502 125.903 51.8704 127.207 56.6192 127.498C61.3681 127.789 61.4338 126.716 61.6069 123.891C61.7799 121.066 59.9295 116.434 57.3068 116.273C54.684 116.112 52.268 120.716 52.1091 123.309Z" fill="#FFC0C1"/>
<path fill-rule="evenodd" clip-rule="evenodd" d="M61.1034 120.554C60.3975 118.386 59.0147 116.376 57.3028 116.271C55.6147 116.167 54.0123 118.038 53.0422 120.075C54.1489 120.677 55.5134 121.074 57.0053 121.165C58.5105 121.258 59.925 121.026 61.1034 120.554Z" fill="#E7EAEE"/>
<path d="M58.7273 112.316C58.1624 112.281 57.8891 112.501 57.5216 112.715C57.1829 112.457 56.9384 112.206 56.3735 112.172C55.6674 112.128 55.2119 112.843 55.3599 113.291C55.5592 113.894 56.3862 114.536 57.3917 114.834C58.4261 114.661 59.3252 114.125 59.5967 113.551C59.7983 113.124 59.4334 112.359 58.7273 112.316Z" fill="#FFC0C1"/>
</g>
<path d="M14.7383 28.8616L49.8317 22.9994" stroke="white" stroke-opacity="0.8" stroke-width="0.542373" stroke-linecap="round"/>
<path d="M54.2158 22.2664L89.3092 16.4041" stroke="white" stroke-opacity="0.5" stroke-width="0.542373" stroke-linecap="round"/>
<circle cx="19.4254" cy="34.9025" r="3.96332" transform="rotate(-9.48347 19.4254 34.9025)" fill="#FFC5AB"/>
</g>
<path fill-rule="evenodd" clip-rule="evenodd" d="M31.4489 148.943L33.1341 159.031C33.3809 160.509 34.7785 161.506 36.2558 161.259L112.006 148.606C113.483 148.359 114.481 146.961 114.234 145.484L92.4922 15.3279C92.4861 15.2917 92.4793 15.2557 92.4719 15.22L112.534 135.319C112.657 136.058 112.159 136.757 111.42 136.88L32.9948 149.981C32.2819 150.1 31.6061 149.639 31.4489 148.943Z" fill="black"/>
<rect x="35.633" y="152.991" width="54.1475" height="4.79154" rx="2.39577" transform="rotate(-9.48347 35.633 152.991)" stroke="#505050" stroke-width="1.28304"/>
<rect x="42.3164" y="41.9319" width="50.8176" height="14.5958" rx="7.29791" transform="rotate(-9.48347 42.3164 41.9319)" fill="white" fill-opacity="0.5"/>
<rect x="24.8008" y="31.7578" width="33.4097" height="5.0215" rx="2.51075" transform="rotate(-9.48347 24.8008 31.7578)" fill="white" fill-opacity="0.5"/>
<defs>
<clipPath id="clip0_2790_14715">
<rect width="82.2238" height="137.383" fill="white" transform="translate(10.9385 26.198) rotate(-9.48347)"/>
</clipPath>
<clipPath id="clip1_2790_14715">
<rect width="94.0022" height="107.712" fill="white" transform="translate(14.5713 47.5011) rotate(3.50511)"/>
</clipPath>
</defs>
</svg>
