<svg width="315" height="365" viewBox="0 0 315 365" fill="none" xmlns="http://www.w3.org/2000/svg">
<g clip-path="url(#clip0_432_2767)">
<path d="M45.7679 44.151C76.0413 62.0668 66.6891 70.9988 58.8675 84.2153C51.0459 97.4319 47.1024 109.565 17.4434 92.0125C2.38716 83.1022 -3.4777 65.1648 4.3439 51.9482C12.1655 38.7316 30.7117 35.2407 45.7679 44.151Z" fill="white"/>
<path d="M224 47.2143C224 63.9012 229.82 64 237 64C244.18 64 250 63.9012 250 47.2143C250 30.5274 242.032 17 237 17C231.968 17 224 30.5274 224 47.2143Z" fill="#FFC145"/>
<path d="M67 47.2143C67 63.9012 72.8203 64 80 64C87.1797 64 93 63.9012 93 47.2143C93 30.5274 85.0323 17 80 17C74.9677 17 67 30.5274 67 47.2143Z" fill="#FFC145"/>
<path d="M268.375 44.151C238.101 62.0668 247.454 70.9988 255.275 84.2153C263.097 97.4319 267.04 109.565 296.699 92.0125C311.755 83.1022 317.62 65.1648 309.799 51.9482C301.977 38.7316 283.431 35.2407 268.375 44.151Z" fill="#123041"/>
<path d="M275.845 59.4247C260.757 68.3542 264.664 71.531 267.631 76.5456C270.599 81.5601 271.81 86.3324 286.592 77.5841C294.096 73.1431 297.774 65.4778 294.806 60.4633C291.839 55.4487 283.35 54.9837 275.845 59.4247Z" fill="#FFC0C1"/>
<path d="M37.3988 59.4247C52.4873 68.3542 48.5806 71.531 45.613 76.5456C42.6453 81.5601 41.4344 86.3324 26.652 77.5841C19.1478 73.1431 15.4702 65.4778 18.4378 60.4633C21.4055 55.4487 29.8946 54.9837 37.3988 59.4247Z" fill="#FFC0C1"/>
<path d="M282.384 190.767C270.803 213.872 228.923 224.021 209.431 226.208C207.466 225.181 203.146 221.959 201.584 217.29C199.631 211.455 243.236 167.544 255.061 159.285C266.886 151.026 296.861 161.886 282.384 190.767Z" fill="#EFEFEF"/>
<path d="M216.076 354.458C223.248 351.526 230.231 312.452 228.816 293L159.926 303.995C158.51 319.782 158.416 351.977 161.813 354.458C166.06 357.559 207.111 358.123 216.076 354.458Z" fill="#EFEFEF"/>
<path d="M221.46 311.179C242.901 296.921 213.917 207.981 192.975 196.778C172.033 185.576 137.972 187.273 123.013 196.778C108.054 206.284 71.0882 296.582 92.529 311.179C113.97 325.776 200.019 325.437 221.46 311.179Z" fill="white"/>
<path fill-rule="evenodd" clip-rule="evenodd" d="M164.166 321.903C164.333 316.64 164.16 305.904 160.5 299.501C154.641 289.251 135.5 282.501 135.5 282.501C127.833 281.334 111.3 275.801 106.5 263.001C104.457 257.554 99.7462 253.905 94.3013 251.524C85.7457 277.283 81.7325 303.829 92.529 311.179C104.205 319.128 135.039 322.648 164.166 321.903Z" fill="#123041"/>
<path d="M98.9241 354.458C91.752 351.526 84.7685 312.452 86.1842 293L155.074 303.995C156.49 319.782 156.584 351.977 153.187 354.458C148.94 357.559 107.889 358.123 98.9241 354.458Z" fill="#123041"/>
<path d="M214 278.917C214 305.593 191.167 312 163 312C134.833 312 112 305.593 112 278.917C112 243.85 134.833 224 163 224C191.167 224 214 243.85 214 278.917Z" fill="#FFC0C1"/>
<path d="M162.57 299.305C162.775 299.306 162.979 299.269 163.169 299.198C163.359 299.126 163.532 299.02 163.678 298.886L170.625 292.384C170.88 292.108 171.014 291.753 170.999 291.389C170.984 291.025 170.821 290.68 170.543 290.423C170.265 290.166 169.892 290.015 169.499 290.001C169.106 289.987 168.722 290.111 168.424 290.347L161.462 296.776C161.315 296.911 161.199 297.071 161.12 297.247C161.041 297.423 161 297.612 161 297.802C161 297.993 161.041 298.182 161.12 298.358C161.199 298.534 161.315 298.694 161.462 298.828C161.602 298.972 161.773 299.089 161.963 299.171C162.154 299.253 162.36 299.298 162.57 299.305Z" fill="#FF8D8D"/>
<path d="M169.442 299.305C169.646 299.306 169.848 299.269 170.037 299.198C170.226 299.126 170.397 299.02 170.542 298.887C170.687 298.753 170.802 298.593 170.881 298.418C170.96 298.242 171 298.054 171 297.863C171 297.673 170.96 297.485 170.881 297.309C170.802 297.134 170.687 296.974 170.542 296.84L163.65 290.426C163.506 290.291 163.334 290.184 163.146 290.111C162.957 290.038 162.754 290 162.55 290C162.346 290 162.143 290.038 161.954 290.111C161.766 290.184 161.594 290.291 161.45 290.426C161.162 290.696 161 291.062 161 291.442C161 291.823 161.162 292.189 161.45 292.459L168.358 298.887C168.647 299.153 169.036 299.303 169.442 299.305Z" fill="#FF8D8D"/>
<path d="M28.1426 147.502C28.1426 199.693 85.3734 217 154.932 217C224.491 217 282.143 199.693 282.143 147.502C282.143 58.5112 224.491 28 154.932 28C85.3734 28 28.1426 54.2735 28.1426 147.502Z" fill="white"/>
<path fill-rule="evenodd" clip-rule="evenodd" d="M164.192 28.147C164.776 44.7997 168.254 66.6411 179.166 75.4742C188.761 83.242 199.835 85.2202 209.73 86.9879C218.187 88.4987 225.784 89.8557 230.861 94.542C233.558 97.032 235.951 100.487 238.542 104.23C246.351 115.506 255.965 129.391 281.166 127.341C273.712 53.9775 224.481 30.1891 164.192 28.147Z" fill="#123041"/>
<path d="M105.677 158.473C105.677 158.473 102.65 155 95.8385 155C89.0272 155 86 158.473 86 158.473" stroke="#123041" stroke-width="12.3409" stroke-linecap="round"/>
<path d="M243.677 158.473C243.677 158.473 240.65 155 233.839 155C227.027 155 224 158.473 224 158.473" stroke="#123041" stroke-width="12.3409" stroke-linecap="round"/>
<path d="M118 175.2C118 154.655 134.655 138 155.2 138H173.8C194.345 138 211 154.655 211 175.2C211 188.897 199.897 200 186.2 200H142.8C129.103 200 118 188.897 118 175.2Z" fill="#FFC0C1"/>
<path d="M145 166V177" stroke="black" stroke-width="10" stroke-linecap="round"/>
<path d="M185 166L185 177" stroke="black" stroke-width="10" stroke-linecap="round"/>
<path d="M68 177H83" stroke="#FFC0C1" stroke-width="20" stroke-linecap="round"/>
<path d="M247 177H262" stroke="#FFC0C1" stroke-width="20" stroke-linecap="round"/>
<path d="M47.255 201.491C57.5367 225.203 85.2564 225.573 104.597 228.839C106.616 227.922 111.108 224.944 112.927 220.37C115.2 214.652 87.632 180.476 76.2833 171.573C64.9347 162.671 34.4029 171.851 47.255 201.491Z" fill="#EFEFEF"/>
</g>
<defs>
<clipPath id="clip0_432_2767">
<rect width="315" height="365" fill="white" transform="matrix(-1 0 0 1 315 0)"/>
</clipPath>
</defs>
</svg>
