<svg width="56" height="38" viewBox="0 0 56 38" fill="none" xmlns="http://www.w3.org/2000/svg">
<g clip-path="url(#clip0_3047_1973)">
<path d="M15.9981 7.49364C15.9981 10.4018 14.9837 10.419 13.7325 10.419C12.4813 10.419 11.4669 10.4018 11.4669 7.49364C11.4669 4.58552 12.8555 2.22803 13.7325 2.22803C14.6095 2.22803 15.9981 4.58552 15.9981 7.49364Z" fill="#123041"/>
<path d="M43.3599 7.49364C43.3599 10.4018 42.3456 10.419 41.0943 10.419C39.8431 10.419 38.8287 10.4018 38.8287 7.49364C38.8287 4.58552 40.2173 2.22803 41.0943 2.22803C41.9713 2.22803 43.3599 4.58552 43.3599 7.49364Z" fill="#123041"/>
<mask id="path-3-inside-1_3047_1973" fill="white">
<path fill-rule="evenodd" clip-rule="evenodd" d="M27.3629 37.0836C39.4853 37.0836 49.4592 34.0674 49.4592 24.9718C49.4592 8.72434 39.4853 4.14551 27.3629 4.14551C21.0218 4.14551 15.2485 5.60046 11.1841 9.20802C10.6266 8.54363 9.70227 7.80988 8.2665 6.96019C5.64256 5.40734 2.41042 6.01572 1.04731 8.31904C-0.315806 10.6224 0.706294 13.7484 3.33023 15.3013C4.59096 16.0474 5.58506 16.4857 6.38739 16.6886C5.61407 19.0506 5.19324 21.7978 5.19324 24.9718C5.19324 34.0674 15.2406 37.0836 27.3629 37.0836Z"/>
</mask>
<path d="M11.1841 9.20802L10.7836 9.54407L11.1291 9.95589L11.5311 9.59904L11.1841 9.20802ZM8.2665 6.96019L8.00023 7.41013L8.2665 6.96019ZM1.04731 8.31904L0.597368 8.05277L1.04731 8.31904ZM3.33023 15.3013L3.59651 14.8513L3.33023 15.3013ZM6.38739 16.6886L6.88427 16.8513L7.05852 16.319L6.51556 16.1817L6.38739 16.6886ZM48.9364 24.9718C48.9364 27.1439 48.3431 28.9293 47.2871 30.396C46.2271 31.8682 44.6804 33.0475 42.7339 33.9657C38.8288 35.8078 33.3963 36.5607 27.3629 36.5607V37.6064C33.4519 37.6064 39.0675 36.8513 43.18 34.9114C45.2422 33.9386 46.9467 32.6584 48.1357 31.007C49.3286 29.35 49.982 27.3476 49.982 24.9718H48.9364ZM27.3629 4.66833C33.3736 4.66833 38.7576 5.80625 42.6323 8.87568C46.483 11.9261 48.9364 16.9605 48.9364 24.9718H49.982C49.982 16.7356 47.4484 11.3569 43.2816 8.05604C39.1387 4.77418 33.4746 3.62268 27.3629 3.62268V4.66833ZM11.5311 9.59904C15.4626 6.10956 21.0889 4.66833 27.3629 4.66833V3.62268C20.9547 3.62268 15.0345 5.09136 10.837 8.817L11.5311 9.59904ZM8.00023 7.41013C9.41502 8.24741 10.2813 8.94554 10.7836 9.54407L11.5846 8.87196C10.9719 8.14171 9.98953 7.37236 8.53277 6.51025L8.00023 7.41013ZM1.49725 8.58532C2.68176 6.58379 5.5679 5.97068 8.00023 7.41013L8.53277 6.51025C5.71722 4.844 2.13908 5.44765 0.597368 8.05277L1.49725 8.58532ZM3.59651 14.8513C1.16418 13.4119 0.312734 10.5869 1.49725 8.58532L0.597368 8.05277C-0.944347 10.6579 0.248404 14.085 3.06396 15.7512L3.59651 14.8513ZM6.51556 16.1817C5.78137 15.9961 4.83597 15.5848 3.59651 14.8513L3.06396 15.7512C4.34595 16.5099 5.38876 16.9753 6.25922 17.1955L6.51556 16.1817ZM5.71607 24.9718C5.71607 21.8436 6.13084 19.1525 6.88427 16.8513L5.89052 16.5259C5.0973 18.9487 4.67042 21.7519 4.67042 24.9718H5.71607ZM27.3629 36.5607C21.3297 36.5607 15.8783 35.8078 11.9544 33.9653C9.99838 33.0468 8.44254 31.8672 7.37596 30.3948C6.31346 28.928 5.71607 27.143 5.71607 24.9718H4.67042C4.67042 27.3484 5.32895 29.3513 6.52914 31.0082C7.72527 32.6594 9.43891 33.9393 11.51 34.9118C15.6403 36.8513 21.2738 37.6064 27.3629 37.6064V36.5607Z" fill="#123041" mask="url(#path-3-inside-1_3047_1973)"/>
<path d="M47.0595 6.95986C41.7836 10.0822 43.4135 11.6388 44.7766 13.9421C46.1397 16.2454 46.8269 18.3599 51.9958 15.3009C54.6197 13.7481 55.6418 10.622 54.2787 8.31872C52.9156 6.01539 49.6834 5.40701 47.0595 6.95986Z" fill="#123041"/>
<path d="M8.46183 12.7388C8.49777 12.678 8.53831 12.6133 8.58015 12.5465C8.67078 12.4017 8.7675 12.2473 8.83687 12.1026C8.94622 11.8745 9.02015 11.6136 8.95684 11.3153C8.89481 11.023 8.70969 10.7363 8.3916 10.4326C8.07313 10.1286 7.6035 9.79049 6.93847 9.39692C6.24624 8.98726 5.49868 8.79746 4.84234 8.83341C4.18813 8.86925 3.59274 9.13441 3.27593 9.66975C2.95912 10.2051 3.01319 10.8546 3.29661 11.4453C3.58094 12.038 4.10707 12.6019 4.79929 13.0116C5.4513 13.3975 5.96705 13.6425 6.38439 13.7738C6.80148 13.905 7.14174 13.9296 7.42914 13.8468C7.72222 13.7623 7.92079 13.5778 8.07377 13.3738C8.17965 13.2326 8.27613 13.0631 8.36637 12.9044C8.39896 12.8472 8.43072 12.7913 8.46183 12.7388Z" stroke="#123041" stroke-width="0.522826"/>
<path fill-rule="evenodd" clip-rule="evenodd" d="M28.8973 4.1709C28.9992 7.07307 29.6053 10.8795 31.5069 12.4189C33.1792 13.7727 35.1091 14.1174 36.8336 14.4255C38.3075 14.6888 39.6313 14.9253 40.5161 15.742C40.9862 16.1759 41.4032 16.7781 41.8548 17.4303C43.216 19.396 44.8921 21.8165 49.2863 21.4578C47.9869 8.67126 39.4057 4.52604 28.8973 4.1709Z" fill="#123041"/>
<path d="M16.6946 23.3154V26.1038" stroke="#123041" stroke-width="2.61413" stroke-linecap="round"/>
<path d="M40.0454 23.3154V26.1038" stroke="#123041" stroke-width="2.61413" stroke-linecap="round"/>
<path d="M20.4399 29.7985C20.4399 26.3624 23.2254 23.5768 26.6615 23.5768H29.903C33.3391 23.5768 36.1247 26.3624 36.1247 29.7985C36.1247 32.0411 34.3067 33.8591 32.0641 33.8591H24.5005C22.2579 33.8591 20.4399 32.0411 20.4399 29.7985Z" stroke="#123041" stroke-width="0.522826"/>
<path d="M24.8861 28.1953V30.1123" stroke="#123041" stroke-width="1.74275" stroke-linecap="round"/>
<path d="M31.8574 28.1953L31.8574 30.1123" stroke="#123041" stroke-width="1.74275" stroke-linecap="round"/>
<path d="M9.63348 29.7638C9.63348 28.9456 10.2967 28.2824 11.1148 28.2824V27.7596C10.008 27.7596 9.11066 28.6569 9.11066 29.7638H9.63348ZM11.1148 31.2451C10.2967 31.2451 9.63348 30.5819 9.63348 29.7638H9.11066C9.11066 30.8706 10.008 31.7679 11.1148 31.7679V31.2451ZM13.729 31.2451H11.1148V31.7679H13.729V31.2451ZM15.2103 29.7638C15.2103 30.5819 14.5471 31.2451 13.729 31.2451V31.7679C14.8358 31.7679 15.7331 30.8706 15.7331 29.7638H15.2103ZM13.729 28.2824C14.5471 28.2824 15.2103 28.9456 15.2103 29.7638H15.7331C15.7331 28.6569 14.8358 27.7596 13.729 27.7596V28.2824ZM11.1148 28.2824H13.729V27.7596H11.1148V28.2824ZM40.8293 29.7638C40.8293 28.9456 41.4925 28.2824 42.3106 28.2824V27.7596C41.2037 27.7596 40.3064 28.6569 40.3064 29.7638H40.8293ZM42.3106 31.2451C41.4925 31.2451 40.8293 30.5819 40.8293 29.7638H40.3064C40.3064 30.8706 41.2037 31.7679 42.3106 31.7679V31.2451ZM44.9247 31.2451H42.3106V31.7679H44.9247V31.2451ZM46.4061 29.7638C46.4061 30.5819 45.7429 31.2451 44.9247 31.2451V31.7679C46.0316 31.7679 46.9289 30.8706 46.9289 29.7638H46.4061ZM44.9247 28.2824C45.7429 28.2824 46.4061 28.9456 46.4061 29.7638H46.9289C46.9289 28.6569 46.0316 27.7596 44.9247 27.7596V28.2824ZM42.3106 28.2824H44.9247V27.7596H42.3106V28.2824Z" fill="#123041"/>
</g>
<defs>
<clipPath id="clip0_3047_1973">
<rect width="56" height="38" fill="white"/>
</clipPath>
</defs>
</svg>
