<svg width="57" height="38" viewBox="0 0 57 38" fill="none" xmlns="http://www.w3.org/2000/svg">
<path d="M15.9981 7.49364C15.9981 10.4018 14.9837 10.419 13.7325 10.419C12.4813 10.419 11.4669 10.4018 11.4669 7.49364C11.4669 4.58552 12.8555 2.22803 13.7325 2.22803C14.6095 2.22803 15.9981 4.58552 15.9981 7.49364Z" fill="#123041"/>
<path d="M43.3598 7.49364C43.3598 10.4018 42.3455 10.419 41.0943 10.419C39.843 10.419 38.8287 10.4018 38.8287 7.49364C38.8287 4.58552 40.2173 2.22803 41.0943 2.22803C41.9713 2.22803 43.3598 4.58552 43.3598 7.49364Z" fill="#123041"/>
<mask id="path-3-inside-1_2870_889" fill="white">
<path fill-rule="evenodd" clip-rule="evenodd" d="M27.363 37.0836C39.4853 37.0836 49.4593 34.0674 49.4593 24.9718C49.4593 8.72434 39.4853 4.14551 27.363 4.14551C21.0219 4.14551 15.2486 5.60046 11.1841 9.20802C10.6267 8.54363 9.70233 7.80988 8.26656 6.96019C5.64262 5.40734 2.41048 6.01572 1.04737 8.31904C-0.315745 10.6224 0.706355 13.7484 3.33029 15.3013C4.59102 16.0474 5.58513 16.4857 6.38745 16.6886C5.61413 19.0506 5.19331 21.7978 5.19331 24.9718C5.19331 34.0674 15.2406 37.0836 27.363 37.0836Z"/>
</mask>
<path d="M11.1841 9.20802L10.7836 9.54407L11.1291 9.95589L11.5312 9.59904L11.1841 9.20802ZM8.26656 6.96019L8.00029 7.41013L8.00029 7.41013L8.26656 6.96019ZM1.04737 8.31904L0.597429 8.05277L1.04737 8.31904ZM3.33029 15.3013L3.59657 14.8513L3.59657 14.8513L3.33029 15.3013ZM6.38745 16.6886L6.88433 16.8513L7.05858 16.319L6.51563 16.1817L6.38745 16.6886ZM48.9364 24.9718C48.9364 27.1439 48.3431 28.9293 47.2871 30.396C46.2272 31.8682 44.6805 33.0475 42.734 33.9657C38.8289 35.8078 33.3963 36.5607 27.363 36.5607V37.6064C33.452 37.6064 39.0676 36.8513 43.1801 34.9114C45.2423 33.9386 46.9467 32.6584 48.1357 31.007C49.3287 29.35 49.9821 27.3476 49.9821 24.9718H48.9364ZM27.363 4.66833C33.3737 4.66833 38.7577 5.80625 42.6324 8.87568C46.4831 11.9261 48.9364 16.9605 48.9364 24.9718H49.9821C49.9821 16.7356 47.4485 11.3569 43.2817 8.05604C39.1388 4.77418 33.4747 3.62268 27.363 3.62268V4.66833ZM11.5312 9.59904C15.4626 6.10956 21.089 4.66833 27.363 4.66833V3.62268C20.9548 3.62268 15.0346 5.09136 10.8371 8.817L11.5312 9.59904ZM8.00029 7.41013C9.41508 8.24741 10.2814 8.94554 10.7836 9.54407L11.5846 8.87196C10.9719 8.14171 9.98959 7.37236 8.53284 6.51025L8.00029 7.41013ZM1.49731 8.58532C2.68182 6.58379 5.56796 5.97068 8.00029 7.41013L8.53284 6.51025C5.71728 4.844 2.13914 5.44765 0.597429 8.05277L1.49731 8.58532ZM3.59657 14.8513C1.16424 13.4119 0.312795 10.5869 1.49731 8.58532L0.597429 8.05277C-0.944286 10.6579 0.248465 14.085 3.06402 15.7512L3.59657 14.8513ZM6.51563 16.1817C5.78143 15.9961 4.83603 15.5848 3.59657 14.8513L3.06402 15.7512C4.34601 16.5099 5.38882 16.9753 6.25928 17.1955L6.51563 16.1817ZM5.71613 24.9718C5.71613 21.8436 6.1309 19.1525 6.88433 16.8513L5.89058 16.5259C5.09736 18.9487 4.67048 21.7519 4.67048 24.9718H5.71613ZM27.363 36.5607C21.3297 36.5607 15.8784 35.8078 11.9545 33.9653C9.99844 33.0468 8.4426 31.8672 7.37602 30.3948C6.31352 28.928 5.71613 27.143 5.71613 24.9718H4.67048C4.67048 27.3484 5.32901 29.3513 6.5292 31.0082C7.72533 32.6594 9.43897 33.9393 11.51 34.9118C15.6404 36.8513 21.2739 37.6064 27.363 37.6064V36.5607Z" fill="#123041" mask="url(#path-3-inside-1_2870_889)"/>
<path d="M47.0595 6.95987C41.7836 10.0822 43.4134 11.6388 44.7765 13.9421C46.1397 16.2454 46.8269 18.3599 51.9957 15.3009C54.6197 13.7481 55.6418 10.622 54.2787 8.31872C52.9155 6.01539 49.6834 5.40701 47.0595 6.95987Z" fill="#123041"/>
<path d="M8.46183 12.7388C8.49777 12.678 8.53831 12.6133 8.58015 12.5465C8.67078 12.4017 8.7675 12.2473 8.83687 12.1026C8.94622 11.8745 9.02015 11.6136 8.95684 11.3153C8.89481 11.023 8.70969 10.7363 8.3916 10.4326C8.07313 10.1286 7.6035 9.79049 6.93847 9.39692C6.24624 8.98726 5.49868 8.79746 4.84234 8.83341C4.18813 8.86925 3.59274 9.13441 3.27593 9.66975C2.95912 10.2051 3.01319 10.8546 3.29661 11.4453C3.58094 12.038 4.10707 12.6019 4.79929 13.0116C5.4513 13.3975 5.96705 13.6425 6.38438 13.7738C6.80148 13.905 7.14174 13.9296 7.42914 13.8468C7.72222 13.7623 7.92079 13.5778 8.07377 13.3738C8.17965 13.2326 8.27613 13.0631 8.36638 12.9044C8.39896 12.8472 8.43072 12.7913 8.46183 12.7388Z" stroke="#123041" stroke-width="0.522826"/>
<path fill-rule="evenodd" clip-rule="evenodd" d="M28.8973 4.1709C28.9992 7.07307 29.6053 10.8795 31.5069 12.4189C33.1792 13.7727 35.1091 14.1174 36.8335 14.4255C38.3074 14.6888 39.6313 14.9253 40.5161 15.742C40.9862 16.1759 41.4031 16.7781 41.8548 17.4303C43.2159 19.396 44.892 21.8165 49.2862 21.4578C47.9869 8.67126 39.4057 4.52604 28.8973 4.1709Z" fill="#123041"/>
<path d="M16.6945 23.3154V26.1038" stroke="#123041" stroke-width="2.61413" stroke-linecap="round"/>
<path d="M40.0454 23.3154V26.1038" stroke="#123041" stroke-width="2.61413" stroke-linecap="round"/>
<path d="M26.6615 23.5768H29.903C33.3391 23.5768 36.1246 26.3624 36.1246 29.7985C36.1246 32.0411 34.3066 33.8591 32.064 33.8591H24.5004C22.2578 33.8591 20.4398 32.0411 20.4398 29.7985C20.4398 26.3624 23.2253 23.5768 26.6615 23.5768Z" stroke="#123041" stroke-width="0.522826"/>
<path d="M24.8861 28.1953V30.1123" stroke="#123041" stroke-width="1.74275" stroke-linecap="round"/>
<path d="M31.8574 28.1953L31.8574 30.1123" stroke="#123041" stroke-width="1.74275" stroke-linecap="round"/>
<path d="M9.63351 29.7638C9.63351 28.9456 10.2967 28.2824 11.1149 28.2824V27.7596C10.008 27.7596 9.11069 28.6569 9.11069 29.7638H9.63351ZM11.1149 31.2451C10.2967 31.2451 9.63351 30.5819 9.63351 29.7638H9.11069C9.11069 30.8706 10.008 31.7679 11.1149 31.7679V31.2451ZM13.729 31.2451H11.1149V31.7679H13.729V31.2451ZM15.2103 29.7638C15.2103 30.5819 14.5471 31.2451 13.729 31.2451V31.7679C14.8359 31.7679 15.7332 30.8706 15.7332 29.7638H15.2103ZM13.729 28.2824C14.5471 28.2824 15.2103 28.9456 15.2103 29.7638H15.7332C15.7332 28.6569 14.8359 27.7596 13.729 27.7596V28.2824ZM11.1149 28.2824H13.729V27.7596H11.1149V28.2824ZM40.8293 29.7638C40.8293 28.9456 41.4925 28.2824 42.3106 28.2824V27.7596C41.2038 27.7596 40.3065 28.6569 40.3065 29.7638H40.8293ZM42.3106 31.2451C41.4925 31.2451 40.8293 30.5819 40.8293 29.7638H40.3065C40.3065 30.8706 41.2038 31.7679 42.3106 31.7679V31.2451ZM44.9248 31.2451H42.3106V31.7679H44.9248V31.2451ZM46.4061 29.7638C46.4061 30.5819 45.7429 31.2451 44.9248 31.2451V31.7679C46.0316 31.7679 46.9289 30.8706 46.9289 29.7638H46.4061ZM44.9248 28.2824C45.7429 28.2824 46.4061 28.9456 46.4061 29.7638H46.9289C46.9289 28.6569 46.0316 27.7596 44.9248 27.7596V28.2824ZM42.3106 28.2824H44.9248V27.7596H42.3106V28.2824Z" fill="#123041"/>
</svg>
