<svg width="189" height="225" viewBox="0 0 189 225" fill="none" xmlns="http://www.w3.org/2000/svg">
<rect x="65.5615" width="130.349" height="191.69" rx="24.1304" transform="rotate(20 65.5615 0)" fill="#005271"/>
<rect x="74.7275" y="19.6553" width="99.6786" height="65.1745" rx="9.65218" transform="rotate(20 74.7275 19.6553)" fill="#123041"/>
<circle cx="79.6004" cy="151.984" r="42.1717" transform="rotate(20 79.6004 151.984)" fill="#9EE7E5"/>
<circle cx="79.6006" cy="151.984" r="23.0028" transform="rotate(20 79.6006 151.984)" fill="#005271"/>
<rect x="81.5869" y="79.2695" width="46.0055" height="3.83379" transform="rotate(20 81.5869 79.2695)" fill="#9EE7E5"/>
<rect x="79.2959" y="74.3555" width="3.83379" height="3.83379" transform="rotate(20 79.2959 74.3555)" fill="#9EE7E5"/>
<rect x="126.13" y="91.4014" width="3.83379" height="3.83379" transform="rotate(20 126.13 91.4014)" fill="#9EE7E5"/>
<rect x="80.9365" y="58.6338" width="3.83379" height="15.3352" transform="rotate(20 80.9365 58.6338)" fill="#9EE7E5"/>
<rect x="134.976" y="78.3018" width="3.83379" height="15.3352" transform="rotate(20 134.976 78.3018)" fill="#9EE7E5"/>
<rect x="87.1631" y="52.7393" width="3.83379" height="7.66758" transform="rotate(20 87.1631 52.7393)" fill="#9EE7E5"/>
<rect x="133.995" y="69.7861" width="3.83379" height="7.66758" transform="rotate(20 133.995 69.7861)" fill="#9EE7E5"/>
<rect x="93.3877" y="46.8457" width="3.83379" height="7.66758" transform="rotate(20 93.3877 46.8457)" fill="#9EE7E5"/>
<rect x="83.5596" y="51.4287" width="3.83379" height="3.83379" transform="rotate(20 83.5596 51.4287)" fill="#9EE7E5"/>
<rect x="137.601" y="71.0967" width="3.83379" height="3.83379" transform="rotate(20 137.601 71.0967)" fill="#9EE7E5"/>
<rect x="78.9775" y="41.6006" width="3.83379" height="3.83379" transform="rotate(20 78.9775 41.6006)" fill="#9EE7E5"/>
<rect x="83.8896" y="39.3096" width="11.5014" height="3.83379" transform="rotate(20 83.8896 39.3096)" fill="#9EE7E5"/>
<rect x="137.929" y="58.9785" width="11.5014" height="3.83379" transform="rotate(20 137.929 58.9785)" fill="#9EE7E5"/>
<rect x="147.427" y="66.5146" width="3.83379" height="3.83379" transform="rotate(20 147.427 66.5146)" fill="#9EE7E5"/>
<rect x="74.0615" y="43.8926" width="3.83379" height="7.66758" transform="rotate(20 74.0615 43.8926)" fill="#9EE7E5"/>
<rect x="149.718" y="71.4277" width="3.83379" height="7.66758" transform="rotate(20 149.718 71.4277)" fill="#9EE7E5"/>
<rect x="75.042" y="52.4082" width="7.66758" height="3.83379" transform="rotate(20 75.042 52.4082)" fill="#9EE7E5"/>
<rect x="139.89" y="76.0107" width="7.66758" height="3.83379" transform="rotate(20 139.89 76.0107)" fill="#9EE7E5"/>
<rect x="133.015" y="61.2695" width="3.83379" height="7.66758" transform="rotate(20 133.015 61.2695)" fill="#9EE7E5"/>
<rect x="100.925" y="37.3496" width="3.83379" height="15.3352" transform="rotate(20 100.925 37.3496)" fill="#9EE7E5"/>
<rect x="93.0557" y="58.9648" width="3.83379" height="7.66758" transform="rotate(20 93.0557 58.9648)" fill="#9EE7E5"/>
<rect x="125.479" y="70.7656" width="3.83379" height="7.66758" transform="rotate(20 125.479 70.7656)" fill="#9EE7E5"/>
<rect x="102.552" y="66.501" width="15.3352" height="3.83379" transform="rotate(20 102.552 66.501)" fill="#9EE7E5"/>
<rect x="97.6396" y="68.792" width="3.83379" height="3.83379" transform="rotate(20 97.6396 68.792)" fill="#9EE7E5"/>
<rect x="95.0166" y="75.9971" width="23.0028" height="3.83379" transform="rotate(20 95.0166 75.9971)" fill="#9EE7E5"/>
<rect x="115.651" y="75.3486" width="3.83379" height="3.83379" transform="rotate(20 115.651 75.3486)" fill="#9EE7E5"/>
<rect x="117.944" y="80.2627" width="3.83379" height="3.83379" transform="rotate(20 117.944 80.2627)" fill="#9EE7E5"/>
<rect x="92.7256" y="71.084" width="3.83379" height="3.83379" transform="rotate(20 92.7256 71.084)" fill="#9EE7E5"/>
<rect x="99.9307" y="73.7061" width="3.83379" height="3.83379" transform="rotate(20 99.9307 73.7061)" fill="#9EE7E5"/>
<rect x="110.737" y="77.6396" width="3.83379" height="3.83379" transform="rotate(20 110.737 77.6396)" fill="#9EE7E5"/>
<rect x="133.349" y="49.1504" width="3.83379" height="15.3352" transform="rotate(20 133.349 49.1504)" fill="#9EE7E5"/>
<rect x="101.905" y="45.8662" width="7.66758" height="3.83379" transform="rotate(20 101.905 45.8662)" fill="#9EE7E5"/>
<rect x="123.519" y="53.7334" width="7.66758" height="3.83379" transform="rotate(20 123.519 53.7334)" fill="#9EE7E5"/>
<rect x="110.421" y="44.8857" width="15.3352" height="3.83379" transform="rotate(20 110.421 44.8857)" fill="#9EE7E5"/>
<rect x="108.13" y="39.9717" width="3.83379" height="3.83379" transform="rotate(20 108.13 39.9717)" fill="#9EE7E5"/>
<rect x="126.142" y="46.5283" width="3.83379" height="3.83379" transform="rotate(20 126.142 46.5283)" fill="#9EE7E5"/>
<rect x="105.837" y="35.0576" width="3.83379" height="3.83379" transform="rotate(20 105.837 35.0576)" fill="#9EE7E5"/>
<rect x="131.054" y="44.2363" width="3.83379" height="3.83379" transform="rotate(20 131.054 44.2363)" fill="#9EE7E5"/>
</svg>
