<svg width="93" height="110" viewBox="0 0 93 110" fill="none" xmlns="http://www.w3.org/2000/svg">
<g clip-path="url(#clip0_3140_8659)">
<path d="M24.5708 73.2311C30.0382 75.7003 39.0701 71.4021 42.9026 68.9444C43.1063 68.4718 43.4134 67.2591 43.0119 66.1893C42.51 64.852 28.2279 63.3186 24.8886 63.5603C21.5492 63.8021 17.7365 70.1447 24.5708 73.2311Z" fill="#FFC532"/>
<path d="M37.6722 97.5964C36.2012 96.5617 36.6439 87.3588 37.9714 83.0305L52.99 89.085C52.493 92.7305 50.8475 100.02 49.9504 100.406C48.8289 100.888 39.511 98.8898 37.6722 97.5964Z" fill="#FFC532"/>
<path d="M41.0814 90.1747C35.4176 88.266 36.5727 66.5835 40.5952 62.8136C44.6176 59.0438 52.3565 57.378 56.2814 58.6105C60.2064 59.843 73.9193 77.868 69.989 82.4289C66.0588 86.9898 46.7452 92.0833 41.0814 90.1747Z" fill="#FFDB40"/>
<path d="M71.1558 92.5165C72.5877 91.4282 71.8061 82.2479 70.32 77.9715L55.5347 84.5754C56.1658 88.2001 58.0788 95.4243 58.9896 95.7764C60.128 96.2166 69.3659 93.8768 71.1558 92.5165Z" fill="#FFDB40"/>
<path d="M75.5964 70.6005C74.1434 64.78 65.1709 60.3593 60.8663 58.8764C60.3692 59.0096 59.2273 59.5206 58.637 60.499C57.8991 61.7219 65.5519 73.8778 67.8122 76.3478C70.0724 78.8177 77.4127 77.8761 75.5964 70.6005Z" fill="#FFDB40"/>
<path d="M51.6998 84.1624C51.6538 84.175 51.6058 84.1785 51.5585 84.1726C51.5113 84.1667 51.4656 84.1515 51.4243 84.128L49.4471 82.9788C49.3719 82.9275 49.319 82.8499 49.2989 82.7614C49.2789 82.6729 49.2931 82.58 49.3388 82.5013C49.3845 82.4226 49.4584 82.3638 49.5455 82.3369C49.6327 82.3099 49.7268 82.3166 49.8091 82.3557L51.7851 83.4866C51.8266 83.5102 51.8629 83.5417 51.892 83.5794C51.9212 83.617 51.9425 83.6601 51.9548 83.706C51.9672 83.752 51.9702 83.7999 51.9638 83.8471C51.9574 83.8943 51.9417 83.9398 51.9175 83.9809C51.8953 84.0242 51.8646 84.0625 51.8272 84.0937C51.7898 84.1249 51.7465 84.1483 51.6998 84.1624Z" fill="#FFBB4D"/>
<path d="M50.159 84.5753C50.1134 84.5878 50.0657 84.5911 50.0188 84.5852C49.9719 84.5793 49.9266 84.5641 49.8855 84.5406C49.8443 84.517 49.8082 84.4856 49.7792 84.448C49.7502 84.4104 49.729 84.3674 49.7167 84.3216C49.7044 84.2757 49.7013 84.2279 49.7076 84.1808C49.7139 84.1338 49.7294 84.0884 49.7533 84.0474L50.8845 82.0879C50.9081 82.0467 50.9396 82.0106 50.9772 81.9816C51.0147 81.9526 51.0577 81.9314 51.1036 81.9191C51.1494 81.9068 51.1972 81.9037 51.2442 81.91C51.2913 81.9163 51.3366 81.9319 51.3776 81.9558C51.4597 82.0035 51.5196 82.0818 51.5442 82.1736C51.5688 82.2653 51.5561 82.3631 51.5088 82.4455L50.3751 84.4094C50.3276 84.4909 50.25 84.5505 50.159 84.5753Z" fill="#FFBB4D"/>
<path d="M17.2085 56.2757C20.344 67.9775 34.2155 68.4196 49.8112 64.2407C65.4069 60.0619 77.2933 52.7179 74.1578 41.0162C68.8115 21.0636 54.0524 17.6862 38.4566 21.8651C22.8609 26.0439 11.6077 35.373 17.2085 56.2757Z" fill="#FFDB40"/>
<path d="M65.6016 49.437L62.2384 50.3382" stroke="#FCA18E" stroke-width="4.64238" stroke-linecap="round"/>
<path d="M28.3828 59.4102L25.0197 60.3113" stroke="#FCA18E" stroke-width="4.64238" stroke-linecap="round"/>
<path d="M56.7129 43.1685L57.6741 46.7558" stroke="#123041" stroke-width="3.48179" stroke-linecap="round"/>
<path d="M29.582 50.4375L30.5433 54.0249" stroke="#123041" stroke-width="3.48179" stroke-linecap="round"/>
<path d="M38.8118 53.492C39.3592 55.5351 42.1525 55.7208 45.3101 54.8747C48.4677 54.0287 50.7939 52.4712 50.2465 50.428C49.699 48.3849 46.4852 46.6297 43.3276 47.4758C40.17 48.3219 38.2643 51.4488 38.8118 53.492Z" fill="#FFB132"/>
<path d="M32.213 15.1817C36.4223 17.2864 39.2826 20.1455 40.6856 23.0692L34.5291 24.0348C31.994 24.4323 28.8547 22.1598 28.0188 18.6044C27.1829 15.0489 30.0723 14.1114 32.213 15.1817Z" fill="#FFDB40"/>
<path d="M39.7355 18.2723C38.9536 19.59 39.2897 21.9151 39.5555 22.9129C41.5561 22.1736 44.8294 20.6206 45.0946 19.1416C45.3599 17.6625 44.5372 16.1325 43.6814 15.9446C42.8256 15.7567 40.7129 16.6251 39.7355 18.2723Z" fill="#FFDB40"/>
</g>
<defs>
<clipPath id="clip0_3140_8659">
<rect width="70.5642" height="93.544" fill="white" transform="translate(0 18.9536) rotate(-15)"/>
</clipPath>
</defs>
</svg>
