<svg width="49" height="45" viewBox="0 0 49 45" fill="none" xmlns="http://www.w3.org/2000/svg">
<path d="M24.8086 9.88747L24.5669 9.98708L24.8753 10.7354L25.0629 9.94805L24.8086 9.88747ZM20.7844 4.47326L20.6109 4.66885L20.7844 4.47326ZM17.0776 6.14044L16.8163 6.13237L17.0776 6.14044ZM19.353 10.8314L19.3872 11.0905L20.0943 10.9971L19.4943 10.6115L19.353 10.8314ZM28.1988 10.7292L28.0978 10.4881L28.1727 10.9894L28.1988 10.7292ZM29.359 9.84832L29.5956 9.95949L29.5956 9.95949L29.359 9.84832ZM28.9554 7.25518L28.8352 7.4873V7.4873L28.9554 7.25518ZM25.6414 8.17647L25.4588 7.98944V7.98944L25.6414 8.17647ZM25.0503 9.78785C24.2825 7.92515 22.9228 6.02016 20.9578 4.27768L20.6109 4.66885C22.5252 6.36636 23.8336 8.20804 24.5669 9.98708L25.0503 9.78785ZM20.9578 4.27768C20.2357 3.63734 19.2391 3.32625 18.3838 3.58144C17.4975 3.8459 16.861 4.68464 16.8163 6.13237L17.3389 6.14851C17.3788 4.85534 17.9235 4.2644 18.5333 4.08244C19.1742 3.89123 19.9886 4.117 20.6109 4.66885L20.9578 4.27768ZM16.8163 6.13237C16.7501 8.2753 17.8083 10.1495 19.2116 11.0513L19.4943 10.6115C18.2548 9.81489 17.278 8.11917 17.3389 6.14851L16.8163 6.13237ZM19.3187 10.5722C14.3317 11.2314 9.90997 13.0229 6.73484 16.3687C3.5568 19.7176 1.65662 24.593 1.65662 31.3605H2.17944C2.17944 24.6939 4.04869 19.9587 7.11408 16.7286C10.1824 13.4953 14.4781 11.7394 19.3872 11.0905L19.3187 10.5722ZM1.65662 31.3605C1.65662 33.6858 2.29986 35.6342 3.46563 37.2435C4.62937 38.8501 6.30356 40.1049 8.34588 41.0639C12.4246 42.9791 18.0126 43.7337 24.0877 43.7337V43.2109C18.0405 43.2109 12.5436 42.4574 8.5681 40.5906C6.5833 39.6586 4.988 38.4539 3.88904 36.9368C2.79212 35.4225 2.17944 33.583 2.17944 31.3605H1.65662ZM24.0877 43.7337C30.1628 43.7337 35.7326 42.9791 39.7933 41.0637C41.8266 40.1045 43.4916 38.8496 44.6483 37.2429C45.807 35.6335 46.4454 33.6853 46.4454 31.3605H45.9226C45.9226 33.5835 45.3142 35.4231 44.224 36.9374C43.1318 38.4544 41.5457 39.659 39.5702 40.5908C35.6133 42.4573 30.135 43.2109 24.0877 43.2109V43.7337ZM46.4454 31.3605C46.4454 24.1293 44.4816 19.1524 41.1965 15.8558C37.9154 12.5631 33.3521 10.9832 28.2249 10.4691L28.1727 10.9894C33.2321 11.4966 37.6614 13.0489 40.8262 16.2248C43.9871 19.3969 45.9226 24.2249 45.9226 31.3605H46.4454ZM28.2997 10.9704C28.868 10.7325 29.3841 10.4098 29.5956 9.95949L29.1225 9.73715C29.0001 9.99743 28.6507 10.2567 28.0978 10.4881L28.2997 10.9704ZM29.5956 9.95949C29.8612 9.3943 29.9099 8.76564 29.8134 8.23551C29.7197 7.72058 29.4737 7.22926 29.0756 7.02306L28.8352 7.4873C29.0212 7.58369 29.217 7.87841 29.299 8.32912C29.3783 8.76465 29.3367 9.28127 29.1225 9.73715L29.5956 9.95949ZM29.0756 7.02306C28.8795 6.92148 28.6186 6.87562 28.3422 6.86886C28.0604 6.86197 27.7391 6.89523 27.4072 6.97071C26.746 7.1211 26.016 7.44541 25.4588 7.98944L25.8241 8.36351C26.2958 7.90289 26.9307 7.61526 27.5232 7.48052C27.8182 7.41343 28.096 7.38583 28.3295 7.39153C28.5685 7.39738 28.7392 7.43759 28.8352 7.4873L29.0756 7.02306ZM25.4588 7.98944C24.9859 8.45122 24.7118 9.16555 24.5543 9.82689L25.0629 9.94805C25.2134 9.31593 25.4587 8.72024 25.8241 8.36351L25.4588 7.98944Z" fill="#123041"/>
<path d="M8.28134 35.8043C8.28134 34.9862 8.94456 34.3229 9.76268 34.3229V33.8001C8.65581 33.8001 7.75851 34.6974 7.75851 35.8043H8.28134ZM9.76268 37.2856C8.94456 37.2856 8.28134 36.6224 8.28134 35.8043H7.75851C7.75851 36.9111 8.65581 37.8084 9.76268 37.8084V37.2856ZM12.3768 37.2856H9.76268V37.8084H12.3768V37.2856ZM13.8582 35.8043C13.8582 36.6224 13.1949 37.2856 12.3768 37.2856V37.8084C13.4837 37.8084 14.381 36.9111 14.381 35.8043H13.8582ZM12.3768 34.3229C13.1949 34.3229 13.8582 34.9862 13.8582 35.8043H14.381C14.381 34.6974 13.4837 33.8001 12.3768 33.8001V34.3229ZM9.76268 34.3229H12.3768V33.8001H9.76268V34.3229ZM37.2099 35.8043C37.2099 34.9862 37.8732 34.3229 38.6913 34.3229V33.8001C37.5844 33.8001 36.6871 34.6974 36.6871 35.8043H37.2099ZM38.6913 37.2856C37.8732 37.2856 37.2099 36.6224 37.2099 35.8043H36.6871C36.6871 36.9111 37.5844 37.8084 38.6913 37.8084V37.2856ZM41.3054 37.2856H38.6913V37.8084H41.3054V37.2856ZM42.7868 35.8043C42.7868 36.6224 42.1235 37.2856 41.3054 37.2856V37.8084C42.4123 37.8084 43.3096 36.9111 43.3096 35.8043H42.7868ZM41.3054 34.3229C42.1235 34.3229 42.7868 34.9862 42.7868 35.8043H43.3096C43.3096 34.6974 42.4123 33.8001 41.3054 33.8001V34.3229ZM38.6913 34.3229H41.3054V33.8001H38.6913V34.3229Z" fill="#123041"/>
<path d="M14.9905 29.5303V32.3187" stroke="#123041" stroke-width="2.61413" stroke-linecap="round"/>
<path d="M36.0778 29.5303V32.3187" stroke="#123041" stroke-width="2.61413" stroke-linecap="round"/>
<path d="M29.7149 33.5387C29.7149 34.1945 29.3151 34.6867 28.5659 35.0293C27.8101 35.3751 26.7417 35.5429 25.5322 35.5429C24.3228 35.5429 23.2544 35.3751 22.4986 35.0293C21.7494 34.6867 21.3496 34.1945 21.3496 33.5387C21.3496 32.8482 21.7893 32.0438 22.5576 31.4009C23.3194 30.7636 24.3722 30.3146 25.5322 30.3146C26.6923 30.3146 27.7451 30.7636 28.5069 31.4009C29.2752 32.0438 29.7149 32.8482 29.7149 33.5387Z" stroke="#123041" stroke-width="0.522826"/>
</svg>
