<svg width="46" height="41" viewBox="0 0 46 41" fill="none" xmlns="http://www.w3.org/2000/svg">
<path d="M23.8086 6.8875L23.5669 6.98711L23.8753 7.73543L24.0629 6.94808L23.8086 6.8875ZM19.7844 1.4733L19.6109 1.66889L19.7844 1.4733ZM16.0776 3.14047L15.8163 3.1324L16.0776 3.14047ZM18.3529 7.83141L18.3872 8.09057L19.0943 7.99711L18.4943 7.6115L18.3529 7.83141ZM27.1988 7.72928L27.0978 7.48814L27.1727 7.98939L27.1988 7.72928ZM28.359 6.84835L28.5956 6.95953L28.5956 6.95953L28.359 6.84835ZM27.9554 4.25521L27.8352 4.48733V4.48733L27.9554 4.25521ZM24.6414 5.17651L24.4588 4.98947V4.98947L24.6414 5.17651ZM24.0502 6.78789C23.2825 4.92518 21.9228 3.02019 19.9578 1.27771L19.6109 1.66889C21.5252 3.36639 22.8336 5.20807 23.5669 6.98711L24.0502 6.78789ZM19.9578 1.27771C19.2357 0.637373 18.2391 0.326282 17.3838 0.581477C16.4975 0.845935 15.861 1.68468 15.8163 3.1324L16.3389 3.14855C16.3788 1.85537 16.9235 1.26443 17.5333 1.08248C18.1742 0.891261 18.9886 1.11703 19.6109 1.66889L19.9578 1.27771ZM15.8163 3.1324C15.7501 5.27533 16.8083 7.14949 18.2116 8.05133L18.4943 7.6115C17.2548 6.81493 16.278 5.1192 16.3389 3.14855L15.8163 3.1324ZM18.3187 7.57225C13.3317 8.23139 8.90996 10.0229 5.73484 13.3687C2.55679 16.7176 0.656611 21.593 0.656611 28.3605H1.17944C1.17944 21.6939 3.04868 16.9588 6.11408 13.7286C9.1824 10.4954 13.4781 8.7394 18.3872 8.09057L18.3187 7.57225ZM0.656611 28.3605C0.656611 30.6858 1.29985 32.6342 2.46563 34.2436C3.62936 35.8501 5.30355 37.1049 7.34588 38.0639C11.4246 39.9791 17.0126 40.7337 23.0877 40.7337V40.2109C17.0405 40.2109 11.5436 39.4574 7.5681 37.5906C5.58329 36.6587 3.988 35.454 2.88904 33.9369C1.79211 32.4225 1.17944 30.5831 1.17944 28.3605H0.656611ZM23.0877 40.7337C29.1628 40.7337 34.7326 39.9791 38.7933 38.0637C40.8266 37.1046 42.4916 35.8496 43.6483 34.2429C44.807 32.6336 45.4454 30.6854 45.4454 28.3605H44.9226C44.9226 30.5835 44.3142 32.4232 43.224 33.9375C42.1318 35.4545 40.5457 36.659 38.5702 37.5908C34.6133 39.4574 29.135 40.2109 23.0877 40.2109V40.7337ZM45.4454 28.3605C45.4454 21.1293 43.4816 16.1524 40.1965 12.8558C36.9154 9.56314 32.3521 7.98323 27.2249 7.46917L27.1727 7.98939C32.2321 8.49665 36.6614 10.049 39.8262 13.2249C42.9871 16.3969 44.9226 21.225 44.9226 28.3605H45.4454ZM27.2997 7.97042C27.868 7.73255 28.3841 7.40978 28.5956 6.95953L28.1224 6.73718C28.0001 6.99746 27.6507 7.2567 27.0978 7.48814L27.2997 7.97042ZM28.5956 6.95953C28.8612 6.39433 28.9099 5.76568 28.8134 5.23555C28.7197 4.72061 28.4737 4.2293 28.0756 4.0231L27.8352 4.48733C28.0212 4.58372 28.217 4.87844 28.299 5.32916C28.3783 5.76468 28.3367 6.2813 28.1224 6.73718L28.5956 6.95953ZM28.0756 4.0231C27.8795 3.92151 27.6186 3.87565 27.3422 3.8689C27.0603 3.862 26.7391 3.89526 26.4072 3.97074C25.746 4.12113 25.016 4.44544 24.4588 4.98947L24.824 5.36355C25.2958 4.90292 25.9307 4.61529 26.5232 4.48055C26.8182 4.41346 27.096 4.38586 27.3295 4.39157C27.5685 4.39741 27.7392 4.43762 27.8352 4.48733L28.0756 4.0231ZM24.4588 4.98947C23.9858 5.45126 23.7118 6.16558 23.5543 6.82692L24.0629 6.94808C24.2134 6.31597 24.4587 5.72027 24.824 5.36355L24.4588 4.98947Z" fill="#123041"/>
<path d="M7.28131 32.8043C7.28131 31.9862 7.94453 31.3229 8.76265 31.3229V30.8001C7.65578 30.8001 6.75848 31.6974 6.75848 32.8043H7.28131ZM8.76265 34.2856C7.94453 34.2856 7.28131 33.6224 7.28131 32.8043H6.75848C6.75848 33.9111 7.65578 34.8084 8.76265 34.8084V34.2856ZM11.3768 34.2856H8.76265V34.8084H11.3768V34.2856ZM12.8581 32.8043C12.8581 33.6224 12.1949 34.2856 11.3768 34.2856V34.8084C12.4837 34.8084 13.381 33.9111 13.381 32.8043H12.8581ZM11.3768 31.3229C12.1949 31.3229 12.8581 31.9862 12.8581 32.8043H13.381C13.381 31.6974 12.4837 30.8001 11.3768 30.8001V31.3229ZM8.76265 31.3229H11.3768V30.8001H8.76265V31.3229ZM36.2099 32.8043C36.2099 31.9862 36.8731 31.3229 37.6913 31.3229V30.8001C36.5844 30.8001 35.6871 31.6974 35.6871 32.8043H36.2099ZM37.6913 34.2856C36.8731 34.2856 36.2099 33.6224 36.2099 32.8043H35.6871C35.6871 33.9111 36.5844 34.8084 37.6913 34.8084V34.2856ZM40.3054 34.2856H37.6913V34.8084H40.3054V34.2856ZM41.7867 32.8043C41.7867 33.6224 41.1235 34.2856 40.3054 34.2856V34.8084C41.4123 34.8084 42.3096 33.9111 42.3096 32.8043H41.7867ZM40.3054 31.3229C41.1235 31.3229 41.7867 31.9862 41.7867 32.8043H42.3096C42.3096 31.6974 41.4123 30.8001 40.3054 30.8001V31.3229ZM37.6913 31.3229H40.3054V30.8001H37.6913V31.3229Z" fill="#123041"/>
<path d="M13.9906 26.5303V29.3187" stroke="#123041" stroke-width="2.61413" stroke-linecap="round"/>
<path d="M35.0778 26.5303V29.3187" stroke="#123041" stroke-width="2.61413" stroke-linecap="round"/>
<path d="M28.7149 30.5387C28.7149 31.1945 28.3151 31.6867 27.5659 32.0293C26.8102 32.3751 25.7418 32.5429 24.5323 32.5429C23.3228 32.5429 22.2544 32.3751 21.4986 32.0293C20.7495 31.6867 20.3497 31.1945 20.3497 30.5387C20.3497 29.8482 20.7893 29.0438 21.5576 28.4009C22.3194 27.7636 23.3722 27.3146 24.5323 27.3146C25.6924 27.3146 26.7451 27.7636 27.5069 28.4009C28.2753 29.0438 28.7149 29.8482 28.7149 30.5387Z" stroke="#123041" stroke-width="0.522826"/>
</svg>
