<svg width="189" height="226" viewBox="0 0 189 226" fill="none" xmlns="http://www.w3.org/2000/svg">
<rect y="44.6582" width="130.572" height="192.018" rx="24.1717" transform="rotate(-20 0 44.6582)" fill="#005271"/>
<rect x="19.6885" y="53.8398" width="99.8492" height="65.286" rx="9.6687" transform="rotate(-20 19.6885 53.8398)" fill="#123041"/>
<circle cx="108.633" cy="152.244" r="42.2439" transform="rotate(-20 108.633 152.244)" fill="#FFC53D"/>
<circle cx="108.634" cy="152.244" r="23.0421" transform="rotate(-20 108.634 152.244)" fill="#005271"/>
<rect x="77.7607" y="44.9629" width="11.5211" height="3.84035" transform="rotate(-20 77.7607 44.9629)" fill="#FFC53D"/>
<rect x="62.0264" y="91.5586" width="46.0842" height="3.84035" transform="rotate(-20 62.0264 91.5586)" fill="#FFC53D"/>
<rect x="68.9121" y="76.792" width="3.84035" height="3.84035" transform="rotate(-20 68.9121 76.792)" fill="#FFC53D"/>
<rect x="71.2056" y="71.8701" width="15.3614" height="3.84035" transform="rotate(-20 71.2056 71.8701)" fill="#FFC53D"/>
<rect x="86.957" y="70.2246" width="3.84035" height="3.84035" transform="rotate(-20 86.957 70.2246)" fill="#FFC53D"/>
<rect x="73.8345" y="79.0879" width="15.3614" height="3.84035" transform="rotate(-20 73.8345 79.0879)" fill="#FFC53D"/>
<rect x="52.499" y="54.1582" width="11.5211" height="3.84035" transform="rotate(-20 52.499 54.1582)" fill="#FFC53D"/>
<rect x="62.0107" y="46.6084" width="15.3614" height="3.84035" transform="rotate(-20 62.0107 46.6084)" fill="#FFC53D"/>
<rect x="50.2046" y="59.0801" width="3.84035" height="3.84035" transform="rotate(-20 50.2046 59.0801)" fill="#FFC53D"/>
<rect x="47.9097" y="64.002" width="3.84035" height="7.68071" transform="rotate(-20 47.9097 64.002)" fill="#FFC53D"/>
<rect x="57.1025" y="89.2637" width="3.84035" height="3.84035" transform="rotate(-20 57.1025 89.2637)" fill="#FFC53D"/>
<rect x="104.016" y="72.1885" width="3.84035" height="3.84035" transform="rotate(-20 104.016 72.1885)" fill="#FFC53D"/>
<rect x="61.3628" y="67.2793" width="3.84035" height="7.68071" transform="rotate(-20 61.3628 67.2793)" fill="#FFC53D"/>
<rect x="86.623" y="58.085" width="3.84035" height="7.68071" transform="rotate(-20 86.623 58.085)" fill="#FFC53D"/>
<rect x="89.8994" y="44.6318" width="3.84035" height="3.84035" transform="rotate(-20 89.8994 44.6318)" fill="#FFC53D"/>
<rect x="94.8232" y="46.9268" width="3.84035" height="7.68071" transform="rotate(-20 94.8232 46.9268)" fill="#FFC53D"/>
<rect x="101.06" y="52.8311" width="3.84035" height="19.2018" transform="rotate(-20 101.06 52.8311)" fill="#FFC53D"/>
<rect x="46.9292" y="72.5332" width="3.84035" height="19.2018" transform="rotate(-20 46.9292 72.5332)" fill="#FFC53D"/>
</svg>
