<svg width="57" height="38" viewBox="0 0 57 38" fill="none" xmlns="http://www.w3.org/2000/svg">
<g clip-path="url(#clip0_3047_1941)">
<mask id="path-1-inside-1_3047_1941" fill="white">
<path fill-rule="evenodd" clip-rule="evenodd" d="M47.7558 16.161C48.7627 18.5044 49.3171 21.3107 49.3171 24.644C49.3171 33.8358 39.1861 36.8839 26.8728 36.8839C14.5596 36.8839 4.354 33.8358 4.354 24.644C4.354 21.5578 4.91152 18.8835 5.92317 16.5971C5.77897 16.3845 5.64339 16.1629 5.51729 15.9324C3.52698 12.2955 4.64946 7.84992 8.02441 6.00298C10.762 4.50487 14.1406 5.17666 16.3814 7.42479C19.5254 6.30743 23.1002 5.77573 26.8728 5.77573C30.5856 5.77573 34.0999 6.19561 37.1979 7.17281C39.4387 4.97113 42.7827 4.32372 45.4966 5.80889C48.8715 7.65583 49.994 12.1014 48.0037 15.7383C47.9247 15.8827 47.842 16.0236 47.7558 16.161Z"/>
</mask>
<path d="M47.7558 16.161L47.3129 15.8831L47.1672 16.1154L47.2754 16.3674L47.7558 16.161ZM5.92317 16.5971L6.40128 16.8087L6.51858 16.5436L6.35586 16.3037L5.92317 16.5971ZM5.51729 15.9324L5.05865 16.1834H5.05865L5.51729 15.9324ZM8.02441 6.00298L8.2754 6.46162L8.02441 6.00298ZM16.3814 7.42479L16.0111 7.79388L16.2447 8.02824L16.5565 7.91743L16.3814 7.42479ZM37.1979 7.17281L37.0407 7.67142L37.3403 7.76592L37.5644 7.54574L37.1979 7.17281ZM45.4966 5.80889L45.2456 6.26753H45.2456L45.4966 5.80889ZM48.0037 15.7383L47.5451 15.4873V15.4873L48.0037 15.7383ZM47.2754 16.3674C48.2496 18.6345 48.7942 21.3685 48.7942 24.644H49.8399C49.8399 21.2528 49.2759 18.3743 48.2362 15.9546L47.2754 16.3674ZM48.7942 24.644C48.7942 26.8395 48.1915 28.6445 47.1181 30.1278C46.0408 31.6166 44.4686 32.8091 42.4903 33.7376C38.5217 35.6001 33.0018 36.3611 26.8728 36.3611V37.4067C33.0571 37.4067 38.7593 36.6437 42.9345 34.6842C45.0281 33.7016 46.7583 32.4087 47.9653 30.7408C49.1763 29.0673 49.8399 27.0444 49.8399 24.644H48.7942ZM26.8728 36.3611C20.7439 36.3611 15.2049 35.6001 11.2172 33.7372C9.22925 32.8085 7.6478 31.6156 6.56368 30.1265C5.48375 28.6433 4.87683 26.8386 4.87683 24.644H3.83118C3.83118 27.0453 4.49995 29.0686 5.71835 30.742C6.93256 32.4097 8.67208 33.7023 10.7746 34.6846C14.9681 36.6436 20.6885 37.4067 26.8728 37.4067V36.3611ZM4.87683 24.644C4.87683 21.6215 5.42261 19.0205 6.40128 16.8087L5.44505 16.3856C4.40044 18.7464 3.83118 21.494 3.83118 24.644H4.87683ZM5.05865 16.1834C5.19273 16.4284 5.33697 16.6643 5.49048 16.8906L6.35586 16.3037C6.22097 16.1048 6.09405 15.8973 5.97593 15.6814L5.05865 16.1834ZM7.77342 5.54434C4.11348 7.54724 2.94772 12.3261 5.05865 16.1834L5.97593 15.6814C4.10624 12.2649 5.18544 8.1526 8.2754 6.46162L7.77342 5.54434ZM16.7517 7.05571C14.3678 4.66395 10.7399 3.92096 7.77342 5.54434L8.2754 6.46162C10.784 5.08879 13.9135 5.68936 16.0111 7.79388L16.7517 7.05571ZM16.5565 7.91743C19.6335 6.82386 23.1473 6.29856 26.8728 6.29856V5.25291C23.0531 5.25291 19.4173 5.791 16.2063 6.93216L16.5565 7.91743ZM26.8728 6.29856C30.549 6.29856 34.0074 6.71465 37.0407 7.67142L37.3552 6.6742C34.1924 5.67658 30.6221 5.25291 26.8728 5.25291V6.29856ZM37.5644 7.54574C39.6617 5.485 42.7586 4.90651 45.2456 6.26753L45.7476 5.35025C42.8068 3.74093 39.2157 4.45725 36.8315 6.79988L37.5644 7.54574ZM45.2456 6.26753C48.3356 7.95851 49.4148 12.0708 47.5451 15.4873L48.4624 15.9893C50.5733 12.132 49.4075 7.35315 45.7476 5.35025L45.2456 6.26753ZM47.5451 15.4873C47.4711 15.6226 47.3936 15.7545 47.3129 15.8831L48.1986 16.4389C48.2904 16.2927 48.3784 16.1428 48.4624 15.9893L47.5451 15.4873Z" fill="#123041" mask="url(#path-1-inside-1_3047_1941)"/>
<path d="M12.8942 12.5728V15.3612" stroke="#123041" stroke-width="2.61413" stroke-linecap="round"/>
<path d="M42.5197 12.3989V15.1873" stroke="#123041" stroke-width="2.61413" stroke-linecap="round"/>
<path d="M7.57941 21.461C7.57941 20.6429 8.24263 19.9797 9.06075 19.9797V19.4568C7.95388 19.4568 7.05658 20.3541 7.05658 21.461H7.57941ZM9.06075 22.9424C8.24263 22.9424 7.57941 22.2791 7.57941 21.461H7.05658C7.05658 22.5679 7.95388 23.4652 9.06075 23.4652V22.9424ZM12.0234 22.9424H9.06075V23.4652H12.0234V22.9424ZM13.5048 21.461C13.5048 22.2791 12.8416 22.9424 12.0234 22.9424V23.4652C13.1303 23.4652 14.0276 22.5679 14.0276 21.461H13.5048ZM12.0234 19.9797C12.8416 19.9797 13.5048 20.6429 13.5048 21.461H14.0276C14.0276 20.3541 13.1303 19.4568 12.0234 19.4568V19.9797ZM9.06075 19.9797H12.0234V19.4568H9.06075V19.9797ZM39.8186 21.461C39.8186 20.6429 40.4818 19.9797 41.2999 19.9797V19.4568C40.1931 19.4568 39.2958 20.3541 39.2958 21.461H39.8186ZM41.2999 22.9424C40.4818 22.9424 39.8186 22.2791 39.8186 21.461H39.2958C39.2958 22.5679 40.1931 23.4652 41.2999 23.4652V22.9424ZM44.2626 22.9424H41.2999V23.4652H44.2626V22.9424ZM45.7439 21.461C45.7439 22.2791 45.0807 22.9424 44.2626 22.9424V23.4652C45.3695 23.4652 46.2668 22.5679 46.2668 21.461H45.7439ZM44.2626 19.9797C45.0807 19.9797 45.7439 20.6429 45.7439 21.461H46.2668C46.2668 20.3541 45.3695 19.4568 44.2626 19.4568V19.9797ZM41.2999 19.9797H44.2626V19.4568H41.2999V19.9797Z" fill="#123041"/>
<path d="M31.0185 18.682C31.0185 16.5881 31.0185 15.5353 27.0973 15.5353C23.1761 15.5353 23.1761 16.401 23.1761 18.682C23.1761 22.4192 24.9317 24.5977 27.0973 24.5977C29.263 24.5977 31.0185 22.1578 31.0185 18.682Z" fill="#123041"/>
<mask id="path-7-inside-2_3047_1941" fill="white">
<path fill-rule="evenodd" clip-rule="evenodd" d="M23.1825 19.069C23.2995 22.5695 25.0075 24.5981 27.0973 24.5981C28.6144 24.5981 29.9303 23.4007 30.5824 21.4885C29.8239 20.6024 28.7016 19.8339 27.3464 19.3588C25.8682 18.8406 24.3885 18.7679 23.1825 19.069Z"/>
</mask>
<path fill-rule="evenodd" clip-rule="evenodd" d="M23.1825 19.069C23.2995 22.5695 25.0075 24.5981 27.0973 24.5981C28.6144 24.5981 29.9303 23.4007 30.5824 21.4885C29.8239 20.6024 28.7016 19.8339 27.3464 19.3588C25.8682 18.8406 24.3885 18.7679 23.1825 19.069Z" fill="#80D0DE"/>
<path d="M23.1825 19.069L22.66 19.0864L22.6458 18.6641L23.0559 18.5617L23.1825 19.069ZM30.5824 21.4885L30.9796 21.1486L31.1735 21.3751L31.0772 21.6573L30.5824 21.4885ZM27.3464 19.3588L27.1734 19.8522H27.1734L27.3464 19.3588ZM23.705 19.0515C23.761 20.7256 24.1962 21.9963 24.8195 22.8342C25.4368 23.6639 26.2384 24.0753 27.0973 24.0753V25.121C25.8663 25.121 24.769 24.518 23.9806 23.4583C23.1982 22.4067 22.721 20.9128 22.66 19.0864L23.705 19.0515ZM27.0973 24.0753C28.3038 24.0753 29.4749 23.1163 30.0875 21.3198L31.0772 21.6573C30.3857 23.6852 28.9251 25.121 27.0973 25.121V24.0753ZM30.1852 21.8285C29.4927 21.0194 28.4509 20.3001 27.1734 19.8522L27.5193 18.8654C28.9523 19.3678 30.1552 20.1853 30.9796 21.1486L30.1852 21.8285ZM27.1734 19.8522C25.779 19.3633 24.4039 19.303 23.3091 19.5762L23.0559 18.5617C24.3732 18.2329 25.9574 18.3178 27.5193 18.8654L27.1734 19.8522Z" fill="#123041" mask="url(#path-7-inside-2_3047_1941)"/>
</g>
<defs>
<clipPath id="clip0_3047_1941">
<rect width="56.1167" height="37.9746" fill="white" transform="translate(0 0.0253906)"/>
</clipPath>
</defs>
</svg>
