<svg width="277" height="196" viewBox="0 0 277 196" fill="none" xmlns="http://www.w3.org/2000/svg">
<rect x="12.8438" y="100.831" width="69.3938" height="31.2464" rx="9.58477" fill="#123041"/>
<rect x="145.498" y="100.831" width="69.3938" height="31.2464" rx="9.58477" fill="#123041"/>
<path d="M101.736 104.841C94.9485 110.662 80.2289 108.295 73.7175 106.384C73.2282 105.793 72.2811 104.187 72.4076 102.489C72.5657 100.365 92.3543 92.1924 97.2325 91.1401C102.111 90.0878 110.22 97.5648 101.736 104.841Z" fill="#E7EAEE"/>
<path fill-rule="evenodd" clip-rule="evenodd" d="M96.1529 38.453C93.0805 37.6478 89.9371 39.4858 89.132 42.5581L84.0295 62.0287C83.2244 65.101 85.0623 68.2444 88.1347 69.0495L105.01 73.4718L99.008 96.373C98.5384 98.1652 99.6105 99.9988 101.403 100.468C103.195 100.938 105.029 99.866 105.498 98.0738L111.5 75.1726L128.374 79.5947C131.446 80.3998 134.59 78.5619 135.395 75.4895L140.497 56.0189C141.302 52.9466 139.464 49.8032 136.392 48.9981L96.1529 38.453Z" fill="#AFD157"/>
<path d="M100.202 61.344L102.303 53.3268L100.196 53.9821L99.7046 52.1331L103.453 50.8328L105.279 51.3114L102.492 61.9443L100.202 61.344ZM108.306 63.6829C106.526 63.2165 105.35 62.2136 104.619 60.9634L106.388 59.7067C106.978 60.6719 107.823 61.4227 108.845 61.6904C110.037 62.0027 110.966 61.4854 111.206 60.5723C111.449 59.6436 110.853 58.8258 109.692 58.5216C108.887 58.3107 108.137 58.3953 107.451 58.6786L106.081 57.658L107.74 51.9565L114.783 53.8019L114.243 55.8604L109.306 54.5666L108.628 56.9029C109.251 56.6693 110.005 56.5692 110.872 56.7964C112.76 57.2912 114.069 58.9243 113.501 61.0911C112.909 63.3508 110.845 64.3481 108.306 63.6829ZM117.874 66.1902C115.955 65.6873 114.699 64.5476 114.073 63.2754L115.817 62.1115C116.349 63.111 117.237 63.8235 118.305 64.1033C119.481 64.4116 120.304 64.0483 120.503 63.29C120.718 62.4697 120.193 61.8855 118.749 61.5237L117.527 61.2033L118.038 59.2532L119.256 59.5891C120.417 59.8933 121.227 59.6424 121.426 58.884C121.629 58.1102 121.031 57.4243 119.979 57.1484C118.973 56.8848 118.054 57.1732 117.147 57.7296L116.196 55.9918C117.358 55.1551 118.843 54.6674 120.731 55.1622C123.13 55.7909 124.311 57.407 123.869 59.0941C123.548 60.3168 122.481 60.98 121.231 61.0163C122.323 61.5836 123.176 62.6838 122.807 64.0922C122.324 65.934 120.35 66.8392 117.874 66.1902Z" fill="#123041"/>
<path d="M79.2551 151.695C81.7365 150.68 84.1526 137.162 83.6628 130.432L59.8284 134.236C59.3387 139.698 59.306 150.836 60.4814 151.695C61.9507 152.768 76.1534 152.963 79.2551 151.695Z" fill="#E7EAEE"/>
<path d="M81.1179 136.72C88.536 131.788 78.5084 101.016 71.2629 97.1404C64.0174 93.2646 52.2329 93.8518 47.0574 97.1404C41.882 100.429 29.0928 131.67 36.5108 136.72C43.9288 141.771 73.6999 141.653 81.1179 136.72Z" fill="white"/>
<path d="M38.7234 151.695C36.242 150.68 33.8259 137.162 34.3157 130.432L58.1501 134.236C58.6398 139.698 58.6725 150.836 57.4971 151.695C56.0278 152.768 41.8251 152.963 38.7234 151.695Z" fill="white"/>
<path d="M23.8727 121.855C23.7192 112.914 34.9317 103.088 40.5571 99.293C41.3243 99.293 43.1653 99.5882 44.3927 100.769C45.9269 102.245 39.5983 122.698 37.297 127.126C34.9957 131.554 24.0644 133.03 23.8727 121.855Z" fill="white"/>
<path d="M77.8443 126.251C77.8443 135.48 69.9445 137.697 60.1995 137.697C50.4545 137.697 42.5547 135.48 42.5547 126.251C42.5547 114.118 50.4545 107.251 60.1995 107.251C69.9445 107.251 77.8443 114.118 77.8443 126.251Z" fill="#E7EAEE"/>
<path d="M60.7416 132.161C60.8127 132.161 60.8832 132.148 60.949 132.121C61.0148 132.094 61.0746 132.055 61.1251 132.005L63.5283 129.588C63.6168 129.485 63.6631 129.353 63.6578 129.218C63.6526 129.082 63.5962 128.954 63.5 128.859C63.4038 128.763 63.2749 128.707 63.139 128.702C63.0031 128.696 62.8702 128.742 62.7669 128.83L60.3582 131.221C60.3076 131.271 60.2674 131.33 60.24 131.396C60.2126 131.461 60.1984 131.531 60.1984 131.602C60.1984 131.673 60.2126 131.743 60.24 131.809C60.2674 131.874 60.3076 131.934 60.3582 131.984C60.4068 132.037 60.4659 132.081 60.5317 132.111C60.5976 132.142 60.669 132.159 60.7416 132.161Z" fill="#FFC0C1"/>
<path d="M63.1192 132.161C63.1898 132.161 63.2597 132.148 63.325 132.121C63.3903 132.094 63.4496 132.055 63.4997 132.006C63.5499 131.956 63.5898 131.896 63.617 131.831C63.6442 131.766 63.6582 131.696 63.6582 131.625C63.6582 131.554 63.6442 131.484 63.617 131.419C63.5898 131.354 63.5499 131.294 63.4997 131.245L61.1152 128.86C61.0654 128.809 61.0061 128.77 60.9408 128.742C60.8755 128.715 60.8054 128.701 60.7347 128.701C60.664 128.701 60.5939 128.715 60.5286 128.742C60.4634 128.77 60.4041 128.809 60.3543 128.86C60.2545 128.96 60.1984 129.096 60.1984 129.238C60.1984 129.379 60.2545 129.515 60.3543 129.615L62.7441 132.006C62.844 132.105 62.9787 132.16 63.1192 132.161Z" fill="#FFC0C1"/>
<path d="M28.509 28.0091C31.2768 36.9809 43.1281 54.5461 45.6348 61.8912H69.3342C71.841 54.5461 82.7787 36.9809 86.2871 28.0091C90.6384 16.8821 86.1128 2.4199 73.8903 2.41992C63.7986 2.41994 59.0711 19.0845 57.744 28.0091C56.4169 19.0845 51.3435 2.41992 41.5978 2.41992C29.3753 2.41992 24.987 16.5925 28.509 28.0091Z" fill="white"/>
<path d="M100.333 79.055C100.333 97.1118 80.5326 103.1 56.467 103.1C32.4013 103.1 12.4551 97.1118 12.4551 79.055C12.4551 48.2661 32.4013 37.71 56.467 37.71C80.5326 37.71 100.333 46.8 100.333 79.055Z" fill="white"/>
<path d="M29.7539 83.3857H34.9436" stroke="#FFC0C1" stroke-width="6.91954" stroke-linecap="round"/>
<path d="M87.1855 83.3857H92.3752" stroke="#FFC0C1" stroke-width="6.91954" stroke-linecap="round"/>
<path d="M66.7747 83.9116C66.7747 80.7939 66.5192 78.5929 61.0559 79.4556C55.5925 78.5929 55.3574 80.7957 55.3574 83.9116C55.3574 87.0275 57.9133 91.4365 61.066 91.4365C64.2188 91.4365 66.7747 87.0293 66.7747 83.9116Z" fill="#FFC0C1"/>
<path fill-rule="evenodd" clip-rule="evenodd" d="M66.7395 82.5593C65.1504 82.9651 63.3479 83.1941 61.4375 83.1941C59.2255 83.1941 57.1582 82.887 55.3994 82.3542C55.5783 79.9566 56.4963 78.7366 61.056 79.4565C65.6871 78.7253 66.5761 80.1955 66.7395 82.5593Z" fill="#E7EAEE"/>
<path d="M59.6508 74.3828C60.3299 74.3828 60.6411 74.6659 61.0655 74.949C61.49 74.6659 61.8012 74.3828 62.4803 74.3828C63.3291 74.3828 63.8222 75.2725 63.612 75.7982C63.329 76.5059 62.2916 77.2135 61.0655 77.4966C59.8394 77.2135 58.802 76.5059 58.519 75.7982C58.3089 75.2725 58.8019 74.3828 59.6508 74.3828Z" fill="#FFC0C1"/>
<path d="M43.707 77.0596C43.707 77.0596 42.7043 75.9094 40.4482 75.9094C38.1921 75.9094 37.1894 77.0596 37.1894 77.0596" stroke="#123041" stroke-width="4.08769" stroke-linecap="round"/>
<path d="M85.3047 77.0596C85.3047 77.0596 84.302 75.9094 82.0459 75.9094C79.7898 75.9094 78.787 77.0596 78.787 77.0596" stroke="#123041" stroke-width="4.08769" stroke-linecap="round"/>
<circle cx="85.6881" cy="119.233" r="6.90104" fill="#D15757"/>
<path d="M78.7871 119.041H92.5892" stroke="#123041" stroke-width="1.91695" stroke-linecap="round"/>
<path d="M233.615 106.401C226.804 112.194 212.094 109.767 205.591 107.828C205.104 107.236 204.164 105.626 204.297 103.928C204.464 101.805 224.286 93.7139 229.169 92.6817C234.051 91.6495 242.13 99.1599 233.615 106.401Z" fill="#FFC532"/>
<path fill-rule="evenodd" clip-rule="evenodd" d="M232.502 39.5367C229.517 38.4502 226.217 39.9887 225.13 42.9732L218.245 61.8868C217.158 64.8713 218.697 68.1715 221.681 69.2581L238.073 75.2257L229.974 97.4725C229.34 99.2134 230.237 101.139 231.978 101.772C233.719 102.406 235.644 101.509 236.278 99.7677L244.377 77.521L260.769 83.4886C263.754 84.5751 267.054 83.0366 268.14 80.0521L275.026 61.1385C276.113 58.154 274.574 54.8538 271.59 53.7672L232.502 39.5367Z" fill="#AFD157"/>
<path d="M240.151 65.1019C237.865 64.2699 236.395 62.5087 237.074 60.6444C237.517 59.4266 238.687 58.831 240.039 58.8124C239.176 58.0042 238.713 56.9842 239.14 55.8115C239.802 53.9923 242.028 53.6788 244.042 54.4122C246.102 55.1621 247.559 56.8673 246.913 58.6414C246.491 59.799 245.481 60.2825 244.279 60.3559C245.322 61.2804 245.805 62.478 245.373 63.6658C244.689 65.5451 242.421 65.9284 240.151 65.1019ZM242.438 58.8174C243.272 59.0528 244.319 58.8892 244.599 58.1224C244.856 57.4158 244.356 56.6378 243.363 56.2765C242.371 55.9153 241.503 56.1952 241.246 56.9018C240.956 57.6986 241.648 58.4617 242.438 58.8174ZM240.829 63.2376C241.927 63.6371 242.936 63.3915 243.22 62.6097C243.516 61.7978 242.68 60.9144 241.804 60.5614C240.906 60.2685 239.712 60.413 239.417 61.2248C239.132 62.0066 239.732 62.838 240.829 63.2376ZM249.532 68.5175C247.247 67.6855 245.777 65.9243 246.456 64.06C246.899 62.8422 248.069 62.2466 249.421 62.228C248.558 61.4198 248.095 60.3999 248.522 59.2272C249.184 57.408 251.41 57.0944 253.424 57.8279C255.484 58.5777 256.94 60.2829 256.295 62.057C255.873 63.2147 254.863 63.6982 253.661 63.7715C254.704 64.696 255.187 65.8937 254.755 67.0814C254.071 68.9607 251.803 69.344 249.532 68.5175ZM251.82 62.233C252.654 62.4684 253.701 62.3048 253.98 61.538C254.238 60.8314 253.738 60.0534 252.745 59.6922C251.753 59.3309 250.885 59.6108 250.628 60.3174C250.338 61.1143 251.03 61.8773 251.82 62.233ZM250.211 66.6532C251.309 67.0528 252.318 66.8071 252.602 66.0253C252.898 65.2134 252.062 64.33 251.185 63.977C250.287 63.6842 249.094 63.8286 248.799 64.6405C248.514 65.4223 249.114 66.2536 250.211 66.6532Z" fill="#123041"/>
<path d="M211.782 151.759C214.264 150.745 216.68 137.226 216.19 130.496L192.356 134.3C191.866 139.762 191.833 150.901 193.009 151.759C194.478 152.832 208.681 153.027 211.782 151.759Z" fill="#FFC532"/>
<path d="M213.645 136.787C221.063 131.854 211.036 101.083 203.79 97.2068C196.545 93.331 184.76 93.9182 179.585 97.2068C174.409 100.495 161.62 131.736 169.038 136.787C176.456 141.837 206.227 141.72 213.645 136.787Z" fill="#FFDB40"/>
<path d="M171.251 151.759C168.769 150.745 166.353 137.226 166.843 130.496L190.677 134.3C191.167 139.762 191.2 150.901 190.024 151.759C188.555 152.832 174.352 153.027 171.251 151.759Z" fill="#FFDB40"/>
<path d="M156.402 121.921C156.249 112.981 167.461 103.155 173.086 99.3594C173.854 99.3594 175.695 99.6546 176.922 100.835C178.456 102.311 172.128 122.765 169.826 127.193C167.525 131.621 156.594 133.097 156.402 121.921Z" fill="#FFDB40"/>
<path d="M193.271 132.226C193.342 132.227 193.412 132.213 193.478 132.186C193.544 132.16 193.604 132.12 193.654 132.071L196.058 129.653C196.146 129.55 196.192 129.418 196.187 129.283C196.182 129.148 196.126 129.02 196.029 128.924C195.933 128.828 195.804 128.772 195.668 128.767C195.532 128.762 195.399 128.808 195.296 128.896L192.887 131.286C192.837 131.336 192.797 131.396 192.769 131.461C192.742 131.527 192.728 131.597 192.728 131.668C192.728 131.739 192.742 131.809 192.769 131.874C192.797 131.94 192.837 131.999 192.887 132.049C192.936 132.103 192.995 132.146 193.061 132.177C193.127 132.207 193.198 132.224 193.271 132.226Z" fill="#FFBB4D"/>
<path d="M195.649 132.226C195.719 132.227 195.789 132.213 195.854 132.187C195.92 132.16 195.979 132.121 196.029 132.071C196.079 132.021 196.119 131.962 196.146 131.897C196.173 131.831 196.188 131.761 196.188 131.69C196.188 131.62 196.173 131.55 196.146 131.484C196.119 131.419 196.079 131.36 196.029 131.31L193.644 128.925C193.595 128.875 193.535 128.835 193.47 128.808C193.405 128.781 193.335 128.767 193.264 128.767C193.193 128.767 193.123 128.781 193.058 128.808C192.993 128.835 192.933 128.875 192.884 128.925C192.784 129.026 192.728 129.161 192.728 129.303C192.728 129.445 192.784 129.58 192.884 129.681L195.273 132.071C195.373 132.17 195.508 132.226 195.649 132.226Z" fill="#FFBB4D"/>
<path d="M233.206 78.7747C233.206 96.8315 213.406 102.819 189.34 102.819C165.274 102.819 145.328 96.8315 145.328 78.7747C145.328 47.9859 165.274 37.4297 189.34 37.4297C213.406 37.4297 233.206 46.5197 233.206 78.7747Z" fill="#FFDB40"/>
<path d="M160.896 83.1934H166.086" stroke="#FCA18E" stroke-width="6.91954" stroke-linecap="round"/>
<path d="M218.33 83.1934H223.52" stroke="#FCA18E" stroke-width="6.91954" stroke-linecap="round"/>
<path d="M201.03 83.0973C201.03 86.2501 197.08 87.595 192.207 87.595C187.335 87.595 183.385 86.2501 183.385 83.0973C183.385 79.9445 187.335 76.1777 192.207 76.1777C197.08 76.1777 201.03 79.9445 201.03 83.0973Z" fill="#FFBB4D"/>
<path d="M182.783 25.3962C188.031 30.0504 191.047 35.27 191.939 40.0206L182.702 39.0357C178.899 38.6302 175.256 34.1473 175.424 28.706C175.592 23.2647 180.114 23.0295 182.783 25.3962Z" fill="#FFDB40"/>
<path d="M192.422 32.7483C190.788 34.3439 190.375 37.821 190.373 39.3601C193.538 39.0675 198.85 38.0944 199.802 36.0673C200.755 34.0402 200.161 31.52 199.001 30.9193C197.842 30.3186 194.465 30.7538 192.422 32.7483Z" fill="#FFDB40"/>
<path d="M174.635 77.251C174.635 77.251 173.632 76.1008 171.376 76.1008C169.12 76.1008 168.117 77.251 168.117 77.251" stroke="#123041" stroke-width="4.08769" stroke-linecap="round"/>
<path d="M216.232 77.251C216.232 77.251 215.23 76.1008 212.974 76.1008C210.717 76.1008 209.715 77.251 209.715 77.251" stroke="#123041" stroke-width="4.08769" stroke-linecap="round"/>
<circle cx="216.616" cy="119.232" r="6.90104" fill="#D15757"/>
<path d="M209.715 119.041H223.517" stroke="#123041" stroke-width="1.91695" stroke-linecap="round"/>
<rect x="4.2168" y="129.011" width="268.565" height="66.5183" fill="#173A52"/>
<rect y="119.233" width="277" height="9.77647" fill="#005271"/>
<path d="M40.936 167.499V158.635H37.512V156.507H46.728V158.635H43.304V167.499H40.936ZM51.9388 159.035C54.0988 159.035 55.5708 160.395 55.5708 162.555V167.499H53.3148V166.667C52.7228 167.339 51.7788 167.691 50.8828 167.691C49.1228 167.691 47.7628 166.635 47.7628 165.051C47.7628 163.419 49.2828 162.299 51.2028 162.299C51.8748 162.299 52.6108 162.443 53.3148 162.715V162.555C53.3148 161.675 52.7708 160.907 51.4108 160.907C50.6428 160.907 49.9228 161.163 49.2668 161.499L48.4828 159.947C49.6508 159.355 50.7868 159.035 51.9388 159.035ZM51.4108 166.075C52.3068 166.075 53.1548 165.659 53.3148 164.891V164.123C52.7868 163.931 52.1788 163.819 51.5388 163.819C50.6908 163.819 50.0188 164.315 50.0188 164.987C50.0188 165.659 50.6108 166.075 51.4108 166.075ZM62.6436 159.035C64.8516 159.035 66.4516 160.827 66.4516 163.355C66.4516 165.899 64.8516 167.691 62.6436 167.691C61.4916 167.691 60.5316 167.195 59.8756 166.331V167.499H57.5396V156.315H59.8756V160.379C60.5316 159.531 61.4916 159.035 62.6436 159.035ZM61.9716 165.723C63.2676 165.723 64.1796 164.747 64.1796 163.355C64.1796 161.979 63.2676 161.003 61.9716 161.003C60.8356 161.003 60.0036 161.835 59.8756 163.035V163.675C60.0036 164.891 60.8356 165.723 61.9716 165.723ZM68.1021 167.499V156.315H70.4381V167.499H68.1021ZM76.3811 165.627C77.0371 165.627 77.8371 165.323 78.2851 164.891L79.7731 166.411C79.0371 167.179 77.6131 167.691 76.3971 167.691C73.9331 167.691 72.0131 165.883 72.0131 163.339C72.0131 160.843 73.8531 159.035 76.2691 159.035C78.8611 159.035 80.3811 161.003 80.3811 164.123H74.4131C74.6851 165.019 75.4051 165.627 76.3811 165.627ZM76.3651 161.099C75.4851 161.099 74.7491 161.611 74.4451 162.443H78.1411C77.9171 161.627 77.3091 161.099 76.3651 161.099ZM90.2383 167.707C88.3983 167.707 87.0063 167.035 85.9823 166.011L87.3743 164.347C88.1903 165.131 89.1983 165.643 90.2543 165.643C91.4863 165.643 92.2543 164.907 92.2543 163.963C92.2543 163.003 91.4703 162.363 90.2703 162.363C89.4383 162.363 88.7343 162.635 88.1423 163.083L86.5583 162.443L86.7183 156.507H93.9983V158.635H88.8943L88.8303 161.067C89.3743 160.683 90.0783 160.395 90.9743 160.395C92.9263 160.395 94.6063 161.643 94.6063 163.883C94.6063 166.219 92.8623 167.707 90.2383 167.707ZM100.945 167.691C98.0489 167.691 96.0169 165.339 96.0169 161.995C96.0169 158.667 98.0489 156.315 100.945 156.315C103.841 156.315 105.889 158.667 105.889 161.995C105.889 165.339 103.841 167.691 100.945 167.691ZM100.945 165.547C102.433 165.547 103.457 164.059 103.457 161.995C103.457 159.931 102.433 158.459 100.945 158.459C99.4729 158.459 98.4329 159.931 98.4329 161.995C98.4329 164.059 99.4729 165.547 100.945 165.547Z" fill="url(#paint0_linear_2792_23086)"/>
<path d="M166.436 167.499V158.635H163.012V156.507H172.228V158.635H168.804V167.499H166.436ZM177.439 159.035C179.599 159.035 181.071 160.395 181.071 162.555V167.499H178.815V166.667C178.223 167.339 177.279 167.691 176.383 167.691C174.623 167.691 173.263 166.635 173.263 165.051C173.263 163.419 174.783 162.299 176.703 162.299C177.375 162.299 178.111 162.443 178.815 162.715V162.555C178.815 161.675 178.271 160.907 176.911 160.907C176.143 160.907 175.423 161.163 174.767 161.499L173.983 159.947C175.151 159.355 176.287 159.035 177.439 159.035ZM176.911 166.075C177.807 166.075 178.655 165.659 178.815 164.891V164.123C178.287 163.931 177.679 163.819 177.039 163.819C176.191 163.819 175.519 164.315 175.519 164.987C175.519 165.659 176.111 166.075 176.911 166.075ZM188.144 159.035C190.352 159.035 191.952 160.827 191.952 163.355C191.952 165.899 190.352 167.691 188.144 167.691C186.992 167.691 186.032 167.195 185.376 166.331V167.499H183.04V156.315H185.376V160.379C186.032 159.531 186.992 159.035 188.144 159.035ZM187.472 165.723C188.768 165.723 189.68 164.747 189.68 163.355C189.68 161.979 188.768 161.003 187.472 161.003C186.336 161.003 185.504 161.835 185.376 163.035V163.675C185.504 164.891 186.336 165.723 187.472 165.723ZM193.602 167.499V156.315H195.938V167.499H193.602ZM201.881 165.627C202.537 165.627 203.337 165.323 203.785 164.891L205.273 166.411C204.537 167.179 203.113 167.691 201.897 167.691C199.433 167.691 197.513 165.883 197.513 163.339C197.513 160.843 199.353 159.035 201.769 159.035C204.361 159.035 205.881 161.003 205.881 164.123H199.913C200.185 165.019 200.905 165.627 201.881 165.627ZM201.865 161.099C200.985 161.099 200.249 161.611 199.945 162.443H203.641C203.417 161.627 202.809 161.099 201.865 161.099ZM215.738 167.707C213.898 167.707 212.506 167.035 211.482 166.011L212.874 164.347C213.69 165.131 214.698 165.643 215.754 165.643C216.986 165.643 217.754 164.907 217.754 163.963C217.754 163.003 216.97 162.363 215.77 162.363C214.938 162.363 214.234 162.635 213.642 163.083L212.058 162.443L212.218 156.507H219.498V158.635H214.394L214.33 161.067C214.874 160.683 215.578 160.395 216.474 160.395C218.426 160.395 220.106 161.643 220.106 163.883C220.106 166.219 218.362 167.707 215.738 167.707ZM223.837 167.499V159.211L221.965 160.379L221.021 158.715L224.317 156.507H226.205V167.499H223.837Z" fill="url(#paint1_linear_2792_23086)"/>
<defs>
<linearGradient id="paint0_linear_2792_23086" x1="72" y1="154.499" x2="72" y2="170.499" gradientUnits="userSpaceOnUse">
<stop stop-color="#9EE7E5"/>
<stop offset="1" stop-color="#9EE7E5"/>
</linearGradient>
<linearGradient id="paint1_linear_2792_23086" x1="195" y1="154.499" x2="195" y2="170.499" gradientUnits="userSpaceOnUse">
<stop stop-color="#9EE7E5"/>
<stop offset="1" stop-color="#9EE7E5"/>
</linearGradient>
</defs>
</svg>
