<svg width="74" height="74" viewBox="0 0 74 74" fill="none" xmlns="http://www.w3.org/2000/svg">
<g clip-path="url(#clip0_2784_6258)">
<rect width="72.976" height="72.976" rx="1.91037" transform="matrix(-1 0 0 1 73.0342 0.0537109)" fill="#FFF0A1"/>
<g filter="url(#filter0_d_2784_6258)">
<circle cx="44.5014" cy="42.8464" r="39.4809" stroke="#FFD600" stroke-width="0.636789" shape-rendering="crispEdges"/>
</g>
<g filter="url(#filter1_d_2784_6258)">
<circle cx="44.6294" cy="42.8472" r="47.5044" stroke="#FFD600" stroke-width="0.636789" shape-rendering="crispEdges"/>
</g>
<g filter="url(#filter2_d_2784_6258)">
<circle cx="44.6313" cy="42.8459" r="32.0941" stroke="#FFD600" stroke-width="0.636789" shape-rendering="crispEdges"/>
</g>
<g filter="url(#filter3_d_2784_6258)">
<circle cx="44.5033" cy="42.8447" r="56.6742" stroke="#FFD600" stroke-width="0.636789" shape-rendering="crispEdges"/>
</g>
<g clip-path="url(#clip1_2784_6258)">
<path d="M17.9821 24.5017C24.8694 28.5776 22.7417 30.6097 20.9622 33.6165C19.1828 36.6233 18.2857 39.3836 11.5381 35.3904C8.11274 33.3632 6.77846 29.2824 8.55791 26.2756C10.3374 23.2687 14.5567 22.4745 17.9821 24.5017Z" fill="white"/>
<path d="M28.0811 25.1975C28.0811 28.9938 26.757 29.0163 25.1236 29.0163C23.4902 29.0163 22.166 28.9938 22.166 25.1975C22.166 21.4011 23.9787 18.3236 25.1236 18.3236C26.2684 18.3236 28.0811 21.4011 28.0811 25.1975Z" fill="#FFC145"/>
<path d="M63.796 25.1975C63.796 28.9938 62.4718 29.0163 60.8384 29.0163C59.205 29.0163 57.8809 28.9938 57.8809 25.1975C57.8809 21.4011 59.6936 18.3236 60.8384 18.3236C61.9833 18.3236 63.796 21.4011 63.796 25.1975Z" fill="#FFC145"/>
<path d="M68.6273 24.5017C61.74 28.5776 63.8677 30.6097 65.6471 33.6165C67.4266 36.6233 68.3237 39.3836 75.0713 35.3904C78.4966 33.3632 79.8309 29.2824 78.0515 26.2756C76.272 23.2687 72.0527 22.4745 68.6273 24.5017Z" fill="black"/>
<path d="M70.3271 27.9766C66.8944 30.008 67.7832 30.7308 68.4584 31.8716C69.1335 33.0125 69.409 34.0982 72.7721 32.1079C74.4793 31.0976 75.316 29.3537 74.6408 28.2128C73.9657 27.072 72.0344 26.9662 70.3271 27.9766Z" fill="#FFCACA"/>
<path d="M16.0791 27.9766C19.5118 30.008 18.623 30.7308 17.9479 31.8716C17.2727 33.0125 16.9972 34.0982 13.6342 32.1079C11.927 31.0976 11.0903 29.3537 11.7654 28.2128C12.4406 27.072 14.3719 26.9662 16.0791 27.9766Z" fill="#FFCACA"/>
<path d="M21.2017 74.7746C27.069 75.1589 33.8784 68.1061 36.5497 64.5317C36.5741 64.0278 36.4386 62.8092 35.7019 61.9656C34.7811 60.9111 21.1465 64.4191 18.1652 65.7902C15.1838 67.1613 13.8677 74.2942 21.2017 74.7746Z" fill="#EFEFEF"/>
<path d="M29.5239 85.254C24.6461 82.0103 31.2399 61.776 36.0044 59.2274C40.7688 56.6788 48.5179 57.0649 51.9211 59.2274C55.3243 61.3898 63.7342 81.9331 58.8563 85.254C53.9784 88.5749 34.4018 88.4977 29.5239 85.254Z" fill="white"/>
<path fill-rule="evenodd" clip-rule="evenodd" d="M42.5562 87.6938C42.518 86.4976 42.5568 84.0525 43.3902 82.5946C44.7232 80.2627 49.0778 78.727 49.0778 78.727C50.822 78.4616 54.5834 77.2027 55.6754 74.2906C56.1399 73.052 57.2108 72.2223 58.4487 71.6805C60.3955 77.5414 61.309 83.5817 58.8525 85.2542C56.1965 87.0624 49.1824 87.8632 42.5562 87.6938Z" fill="black"/>
<path d="M67.165 75.4755C67.2659 69.5965 59.8929 63.1352 56.1938 60.6394C55.6893 60.6394 54.4787 60.8335 53.6716 61.61C52.6628 62.5806 56.8243 76.0301 58.3375 78.9419C59.8508 81.8536 67.0389 82.8242 67.165 75.4755Z" fill="white"/>
<path d="M31.2194 77.9146C31.2194 83.9834 36.4141 85.441 42.8221 85.441C49.2301 85.441 54.4248 83.9834 54.4248 77.9146C54.4248 69.9365 49.2301 65.4207 42.8221 65.4207C36.4141 65.4207 31.2194 69.9365 31.2194 77.9146Z" fill="#FFD2D2"/>
<path d="M71.7607 48.0175C71.7607 59.8912 58.7404 63.8285 42.9156 63.8285C27.0907 63.8285 13.9746 59.8912 13.9746 48.0175C13.9746 27.7717 27.0907 20.8303 42.9156 20.8303C58.7404 20.8303 71.7607 26.8076 71.7607 48.0175Z" fill="white"/>
<path fill-rule="evenodd" clip-rule="evenodd" d="M44.9209 20.8604C45.0537 24.6492 45.8448 29.6194 48.3276 31.6292C50.5106 33.3964 53.0299 33.8465 55.2811 34.2486C57.2052 34.5923 58.9334 34.901 60.0884 35.9672C60.7021 36.5337 61.2464 37.3198 61.836 38.1712C63.6125 40.7367 65.7999 43.8955 71.5331 43.4292C69.8378 26.7373 58.6375 21.325 44.9209 20.8604Z" fill="black"/>
<path d="M29.8125 48.8638C29.8125 48.8638 29.2216 49.824 27.8921 49.824C26.5626 49.824 25.9717 48.8638 25.9717 48.8638" stroke="black" stroke-width="3.41256" stroke-linecap="round"/>
<path d="M59.2588 48.8638C59.2588 48.8638 58.6679 49.824 57.3384 49.824C56.0088 49.824 55.4179 48.8638 55.4179 48.8638" stroke="black" stroke-width="3.41256" stroke-linecap="round"/>
<path d="M53.0684 54.3159C53.0684 49.6418 49.2793 45.8527 44.6052 45.8527H40.3736C35.6996 45.8527 31.9105 49.6418 31.9105 54.3159C31.9105 57.4319 34.4365 59.958 37.5526 59.958H47.4263C50.5423 59.958 53.0684 57.4319 53.0684 54.3159Z" fill="#FFCACA"/>
<path d="M46.9258 52.223V54.7256" stroke="black" stroke-width="2.27504" stroke-linecap="round"/>
<path d="M37.8281 52.223L37.8281 54.7256" stroke="black" stroke-width="2.27504" stroke-linecap="round"/>
<path d="M64.4443 54.7261H61.0318" stroke="#FFD2D2" stroke-width="4.55008" stroke-linecap="round"/>
<path d="M23.7227 54.7261H20.3101" stroke="#FFD2D2" stroke-width="4.55008" stroke-linecap="round"/>
<g clip-path="url(#clip2_2784_6258)">
<path d="M27.6692 56.4883C26.7837 60.5097 25.0611 61.3466 22.2731 61.0338C19.4851 60.721 17.9908 59.5232 18.0185 55.4055C18.04 52.2029 20.3557 50.0589 23.4653 50.4078C26.575 50.7567 28.3579 53.3605 27.6692 56.4883Z" fill="#9EE7E5"/>
<path d="M27.6514 55.9155L18.1558 54.8501" stroke="#005271" stroke-width="1.13752" stroke-linecap="round"/>
<path d="M25.8302 60.7649C25.8685 60.5098 25.6873 60.2738 25.4309 60.2451L19.5873 59.5894C19.3309 59.5606 19.1019 59.7506 19.0828 60.0078L17.7993 77.2626C17.7811 77.5066 17.9592 77.7213 18.2023 77.7485L22.7573 78.2596C23.0004 78.2869 23.2216 78.117 23.258 77.8751L25.8302 60.7649Z" fill="#005271"/>
</g>
</g>
</g>
<defs>
<filter id="filter0_d_2784_6258" x="2.28235" y="0.627261" width="84.4382" height="84.4382" filterUnits="userSpaceOnUse" color-interpolation-filters="sRGB">
<feFlood flood-opacity="0" result="BackgroundImageFix"/>
<feColorMatrix in="SourceAlpha" type="matrix" values="0 0 0 0 0 0 0 0 0 0 0 0 0 0 0 0 0 0 127 0" result="hardAlpha"/>
<feMorphology radius="0.509431" operator="dilate" in="SourceAlpha" result="effect1_dropShadow_2784_6258"/>
<feOffset/>
<feGaussianBlur stdDeviation="0.955183"/>
<feComposite in2="hardAlpha" operator="out"/>
<feColorMatrix type="matrix" values="0 0 0 0 1 0 0 0 0 0.839216 0 0 0 0 0 0 0 0 1 0"/>
<feBlend mode="normal" in2="BackgroundImageFix" result="effect1_dropShadow_2784_6258"/>
<feBlend mode="normal" in="SourceGraphic" in2="effect1_dropShadow_2784_6258" result="shape"/>
</filter>
<filter id="filter1_d_2784_6258" x="-5.61316" y="-7.39544" width="100.485" height="100.485" filterUnits="userSpaceOnUse" color-interpolation-filters="sRGB">
<feFlood flood-opacity="0" result="BackgroundImageFix"/>
<feColorMatrix in="SourceAlpha" type="matrix" values="0 0 0 0 0 0 0 0 0 0 0 0 0 0 0 0 0 0 127 0" result="hardAlpha"/>
<feMorphology radius="0.509431" operator="dilate" in="SourceAlpha" result="effect1_dropShadow_2784_6258"/>
<feOffset/>
<feGaussianBlur stdDeviation="0.955183"/>
<feComposite in2="hardAlpha" operator="out"/>
<feColorMatrix type="matrix" values="0 0 0 0 1 0 0 0 0 0.839216 0 0 0 0 0 0 0 0 1 0"/>
<feBlend mode="normal" in2="BackgroundImageFix" result="effect1_dropShadow_2784_6258"/>
<feBlend mode="normal" in="SourceGraphic" in2="effect1_dropShadow_2784_6258" result="shape"/>
</filter>
<filter id="filter2_d_2784_6258" x="9.79895" y="8.01355" width="69.6648" height="69.6647" filterUnits="userSpaceOnUse" color-interpolation-filters="sRGB">
<feFlood flood-opacity="0" result="BackgroundImageFix"/>
<feColorMatrix in="SourceAlpha" type="matrix" values="0 0 0 0 0 0 0 0 0 0 0 0 0 0 0 0 0 0 127 0" result="hardAlpha"/>
<feMorphology radius="0.509431" operator="dilate" in="SourceAlpha" result="effect1_dropShadow_2784_6258"/>
<feOffset/>
<feGaussianBlur stdDeviation="0.955183"/>
<feComposite in2="hardAlpha" operator="out"/>
<feColorMatrix type="matrix" values="0 0 0 0 1 0 0 0 0 0.839216 0 0 0 0 0 0 0 0 1 0"/>
<feBlend mode="normal" in2="BackgroundImageFix" result="effect1_dropShadow_2784_6258"/>
<feBlend mode="normal" in="SourceGraphic" in2="effect1_dropShadow_2784_6258" result="shape"/>
</filter>
<filter id="filter3_d_2784_6258" x="-14.9091" y="-16.5677" width="118.825" height="118.825" filterUnits="userSpaceOnUse" color-interpolation-filters="sRGB">
<feFlood flood-opacity="0" result="BackgroundImageFix"/>
<feColorMatrix in="SourceAlpha" type="matrix" values="0 0 0 0 0 0 0 0 0 0 0 0 0 0 0 0 0 0 127 0" result="hardAlpha"/>
<feMorphology radius="0.509431" operator="dilate" in="SourceAlpha" result="effect1_dropShadow_2784_6258"/>
<feOffset/>
<feGaussianBlur stdDeviation="0.955183"/>
<feComposite in2="hardAlpha" operator="out"/>
<feColorMatrix type="matrix" values="0 0 0 0 1 0 0 0 0 0.839216 0 0 0 0 0 0 0 0 1 0"/>
<feBlend mode="normal" in2="BackgroundImageFix" result="effect1_dropShadow_2784_6258"/>
<feBlend mode="normal" in="SourceGraphic" in2="effect1_dropShadow_2784_6258" result="shape"/>
</filter>
<clipPath id="clip0_2784_6258">
<rect width="72.976" height="72.976" rx="36.488" transform="matrix(-1 0 0 1 73.0303 0.0541992)" fill="white"/>
</clipPath>
<clipPath id="clip1_2784_6258">
<rect width="75.3765" height="85.1386" fill="white" transform="matrix(-1 0 0 1 80.3926 14.4555)"/>
</clipPath>
<clipPath id="clip2_2784_6258">
<rect width="12.9677" height="31.1681" fill="white" transform="matrix(-0.993765 -0.111499 -0.111499 0.993765 30.3115 49.574)"/>
</clipPath>
</defs>
</svg>
