<svg width="149" height="115" viewBox="0 0 149 115" fill="none" xmlns="http://www.w3.org/2000/svg">
<g clip-path="url(#clip0_3211_983)">
<mask id="mask0_3211_983" style="mask-type:alpha" maskUnits="userSpaceOnUse" x="-3" y="2" width="150" height="102">
<rect width="148.378" height="100.915" transform="matrix(1 0 0 -1 -2.30566 103.679)" fill="#D9D9D9"/>
</mask>
<g mask="url(#mask0_3211_983)">
<path d="M20.5575 18.039C34.5075 26.2946 30.198 30.4104 26.5938 36.5006C22.9896 42.5908 21.1725 48.1816 7.50559 40.0935C0.56766 35.9877 -2.13486 27.7221 1.46933 21.6319C5.07352 15.5417 13.6196 13.9331 20.5575 18.039Z" fill="white"/>
<path d="M41.012 19.4501C41.012 27.1394 38.3301 27.1849 35.0216 27.1849C31.7132 27.1849 29.0312 27.1394 29.0312 19.4501C29.0312 11.7608 32.7028 5.52734 35.0216 5.52734C37.3405 5.52734 41.012 11.7608 41.012 19.4501Z" fill="#6A5B3D"/>
<path d="M113.353 19.4501C113.353 27.1394 110.671 27.1849 107.362 27.1849C104.054 27.1849 101.372 27.1394 101.372 19.4501C101.372 11.7608 105.044 5.52734 107.362 5.52734C109.681 5.52734 113.353 11.7608 113.353 19.4501Z" fill="#6A5B3D"/>
<path d="M123.142 18.039C109.192 26.2946 113.501 30.4104 117.105 36.5006C120.71 42.5908 122.527 48.1816 136.194 40.0935C143.132 35.9877 145.834 27.7221 142.23 21.6319C138.626 15.5417 130.08 13.9331 123.142 18.039Z" fill="#123041"/>
<path d="M126.581 25.077C119.628 29.1917 121.428 30.6556 122.796 32.9663C124.163 35.277 124.721 37.476 131.533 33.4449C134.991 31.3984 136.685 27.8663 135.318 25.5556C133.95 23.2449 130.039 23.0306 126.581 25.077Z" fill="#FFC0C1"/>
<path d="M16.7035 25.077C23.6563 29.1917 21.8561 30.6556 20.4886 32.9663C19.1211 35.277 18.5631 37.476 11.7514 33.4449C8.29345 31.3984 6.5988 27.8663 7.96629 25.5556C9.33378 23.2449 13.2456 23.0306 16.7035 25.077Z" fill="#FFC0C1"/>
<path d="M100.664 141.086C110.544 134.516 97.1886 93.5318 87.5385 88.3697C77.8884 83.2076 62.1928 83.9897 55.2998 88.3697C48.4067 92.7497 31.3729 134.359 41.2528 141.086C51.1328 147.812 90.7844 147.655 100.664 141.086Z" fill="white"/>
<path d="M97.2252 126.219C97.2252 138.511 86.7036 141.464 73.7244 141.464C60.7453 141.464 50.2236 138.511 50.2236 126.219C50.2236 110.06 60.7453 100.913 73.7244 100.913C86.7036 100.913 97.2252 110.06 97.2252 126.219Z" fill="#FFC0C1"/>
<path d="M129.481 65.6636C129.481 89.7131 103.109 97.6881 71.0562 97.6881C39.0036 97.6881 12.4375 89.7131 12.4375 65.6636C12.4375 24.6565 39.0036 10.5969 71.0562 10.5969C103.109 10.5969 129.481 22.7038 129.481 65.6636Z" fill="white"/>
<path fill-rule="evenodd" clip-rule="evenodd" d="M75.1348 10.6637C75.4041 18.3373 77.0068 28.4019 82.0348 32.4721C86.4564 36.0516 91.5592 36.9631 96.1189 37.7776C100.016 38.4738 103.516 39.0991 105.856 41.2586C107.099 42.406 108.201 43.9982 109.396 45.7228C112.993 50.9184 117.423 57.3157 129.033 56.3729C125.598 22.5679 102.915 11.6056 75.1348 10.6637Z" fill="#123041"/>
<path d="M42.8545 61.2852V68.658" stroke="#123041" stroke-width="6.912" stroke-linecap="round"/>
<path d="M104.6 61.2852V68.658" stroke="#123041" stroke-width="6.912" stroke-linecap="round"/>
<path d="M52.0693 78.4269C52.0693 68.9598 59.744 61.2852 69.2111 61.2852H77.782C87.2491 61.2852 94.9237 68.9598 94.9237 78.4269V78.4269C94.9237 84.7383 89.8073 89.8548 83.4959 89.8548H63.4972C57.1858 89.8548 52.0693 84.7383 52.0693 78.4269V78.4269Z" fill="#FFC0C1"/>
<path d="M64.5107 74.1875V79.2563" stroke="#123041" stroke-width="4.608" stroke-linecap="round"/>
<path d="M82.9434 74.1875L82.9434 79.2563" stroke="#123041" stroke-width="4.608" stroke-linecap="round"/>
<path d="M29.0312 79.2571H35.9433" stroke="#FFC0C1" stroke-width="9.216" stroke-linecap="round"/>
<path d="M111.511 79.2571H118.423" stroke="#FFC0C1" stroke-width="9.216" stroke-linecap="round"/>
</g>
<path d="M60.2402 106.983C60.0356 110.922 53.4178 113.835 45.7933 113.439C38.1688 113.043 32.4248 109.489 32.6294 105.549C32.9759 98.8766 38.5928 93.8196 47.1684 94.2649C55.7439 94.7102 60.5987 100.08 60.2402 106.983Z" fill="white"/>
<path d="M113.692 106.983C113.488 110.922 106.87 113.835 99.2455 113.439C91.621 113.043 85.877 109.489 86.0815 105.549C86.4281 98.8766 92.0449 93.8196 100.621 94.2649C109.196 94.7102 114.051 100.08 113.692 106.983Z" fill="white"/>
</g>
<defs>
<clipPath id="clip0_3211_983">
<rect width="148.378" height="114.278" fill="white"/>
</clipPath>
</defs>
</svg>
