<svg width="149" height="132" viewBox="0 0 149 132" fill="none" xmlns="http://www.w3.org/2000/svg">
<mask id="mask0_3211_1049" style="mask-type:alpha" maskUnits="userSpaceOnUse" x="5" y="6" width="132" height="115">
<rect width="131.328" height="114.278" transform="matrix(1 0 0 -1 5.06641 120.73)" fill="#D9D9D9"/>
</mask>
<g mask="url(#mask0_3211_1049)">
<path d="M100.205 159.98C110.085 153.41 96.7296 112.427 87.0795 107.264C77.4294 102.102 61.7338 102.884 54.8408 107.264C47.9477 111.644 30.9139 153.254 40.7939 159.98C50.6738 166.707 90.3254 166.55 100.205 159.98Z" fill="#FFDB40"/>
<path d="M129.025 82.7143C129.025 106.764 102.653 114.739 70.6001 114.739C38.5475 114.739 11.9814 106.764 11.9814 82.7143C11.9814 41.7073 38.5475 27.6477 70.6001 27.6477C102.653 27.6477 129.025 39.7546 129.025 82.7143Z" fill="#FFDB40"/>
<path d="M32.7207 94.4639H39.6327" stroke="#FCA18E" stroke-width="9.216" stroke-linecap="round"/>
<path d="M109.21 94.4639H116.122" stroke="#FCA18E" stroke-width="9.216" stroke-linecap="round"/>
<path d="M46.5439 77.8755V85.2483" stroke="#123041" stroke-width="6.912" stroke-linecap="round"/>
<path d="M102.302 77.8755V85.2483" stroke="#123041" stroke-width="6.912" stroke-linecap="round"/>
<path d="M86.1707 88.4731C86.1707 92.6722 80.9099 94.4635 74.4203 94.4635C67.9308 94.4635 62.6699 92.6722 62.6699 88.4731C62.6699 84.2739 67.9308 79.2571 74.4203 79.2571C80.9099 79.2571 86.1707 84.2739 86.1707 88.4731Z" fill="#FFB132"/>
<path d="M61.8656 11.623C68.8558 17.8217 72.8715 24.7736 74.0596 31.1009L61.7581 29.7891C56.6927 29.249 51.8406 23.2783 52.0645 16.0311C52.2884 8.78393 58.3108 8.4707 61.8656 11.623Z" fill="#FFDB40"/>
<path d="M74.7034 21.4139C72.5269 23.539 71.9768 28.1701 71.9738 30.2201C76.1899 29.8304 83.2645 28.5342 84.5331 25.8344C85.8017 23.1346 85.0103 19.778 83.4658 18.9779C81.9213 18.1778 77.4239 18.7575 74.7034 21.4139Z" fill="#FFDB40"/>
</g>
<path d="M60.2402 124.032C60.0356 127.971 53.4178 130.883 45.7933 130.487C38.1688 130.091 32.4248 126.537 32.6294 122.598C32.9759 115.925 38.5928 110.868 47.1684 111.314C55.7439 111.759 60.5987 117.129 60.2402 124.032Z" fill="#FFDB40"/>
<path d="M113.695 124.032C113.491 127.971 106.873 130.883 99.2484 130.487C91.6239 130.091 85.8799 126.537 86.0845 122.598C86.431 115.925 92.0479 110.868 100.623 111.314C109.199 111.759 114.054 117.129 113.695 124.032Z" fill="#FFDB40"/>
</svg>
