<svg width="149" height="155" viewBox="0 0 149 155" fill="none" xmlns="http://www.w3.org/2000/svg">
<g clip-path="url(#clip0_3211_1019)">
<mask id="mask0_3211_1019" style="mask-type:alpha" maskUnits="userSpaceOnUse" x="5" y="0" width="132" height="145">
<rect width="131.328" height="144.23" transform="matrix(1 0 0 -1 5.06934 144.23)" fill="#D9D9D9"/>
</mask>
<g mask="url(#mask0_3211_1019)">
<path d="M101.587 182.098C111.467 175.528 98.1115 134.544 88.4614 129.382C78.8112 124.22 63.1157 125.002 56.2226 129.382C49.3296 133.762 32.2958 175.372 42.1757 182.098C52.0556 188.824 91.7072 188.668 101.587 182.098Z" fill="white"/>
<path d="M97.2262 168.153C97.2262 180.445 86.7045 183.397 73.7254 183.397C60.7463 183.397 50.2246 180.445 50.2246 168.153C50.2246 151.994 60.7463 142.847 73.7254 142.847C86.7045 142.847 97.2262 151.994 97.2262 168.153Z" fill="#F4F4F4"/>
<path d="M33.8205 37.3075C37.5069 49.2568 53.2914 72.6516 56.6301 82.4343H88.1949C91.5336 72.6516 106.101 49.2568 110.774 37.3075C116.57 22.4876 110.542 3.22568 94.263 3.22571C80.8221 3.22574 74.5256 25.421 72.7581 37.3075C70.9906 25.421 64.2333 3.22571 51.2532 3.22571C34.9743 3.22571 29.1296 22.1019 33.8205 37.3075Z" fill="white"/>
<path d="M129.482 105.295C129.482 129.344 103.11 137.319 71.0571 137.319C39.0045 137.319 12.4385 129.344 12.4385 105.295C12.4385 64.2875 39.0045 50.2279 71.0571 50.2279C103.11 50.2279 129.482 62.3348 129.482 105.295Z" fill="white"/>
<path d="M49.3037 98.1511V105.524" stroke="#123041" stroke-width="6.912" stroke-linecap="round"/>
<path d="M105.062 98.1511V105.524" stroke="#123041" stroke-width="6.912" stroke-linecap="round"/>
<path d="M35.4795 116.121H42.3915" stroke="#FFD2D2" stroke-width="9.216" stroke-linecap="round"/>
<path d="M111.973 116.121H118.885" stroke="#FFD2D2" stroke-width="9.216" stroke-linecap="round"/>
<path d="M84.7845 117.256C84.7845 121.409 84.7845 123.496 77.1813 123.496C69.5781 123.496 69.5781 121.78 69.5781 117.256C69.5781 112.733 72.9822 105.525 77.1813 105.525C81.3805 105.525 84.7845 113.104 84.7845 117.256Z" fill="#FFD2D2"/>
<path fill-rule="evenodd" clip-rule="evenodd" d="M70.7021 111.98C72.0404 108.591 74.4416 105.523 77.1813 105.523C79.884 105.523 82.2574 108.663 83.6057 112.008C81.7825 112.859 79.5694 113.357 77.1833 113.357C74.7715 113.357 72.5364 112.848 70.7021 111.98Z" fill="#E7EAEE"/>
<path d="M75.2983 99.0723C76.2027 99.0723 76.6173 99.4493 77.1826 99.8263C77.7479 99.4493 78.1624 99.0723 79.0668 99.0723C80.1974 99.0723 80.8541 100.257 80.5742 100.957C80.1973 101.9 78.8156 102.842 77.1826 103.219C75.5495 102.842 74.1678 101.9 73.7909 100.957C73.511 100.257 74.1677 99.0723 75.2983 99.0723Z" fill="#FFD2D2"/>
</g>
<path d="M60.2382 147.534C60.0337 151.473 53.4159 154.385 45.7914 153.989C38.1669 153.593 32.4229 150.039 32.6274 146.1C32.974 139.427 38.5908 134.37 47.1664 134.816C55.742 135.261 60.5967 140.631 60.2382 147.534Z" fill="white"/>
<path d="M113.693 147.534C113.489 151.473 106.871 154.385 99.2464 153.989C91.6219 153.593 85.8779 150.039 86.0825 146.1C86.429 139.427 92.0459 134.37 100.621 134.816C109.197 135.261 114.052 140.631 113.693 147.534Z" fill="white"/>
</g>
<defs>
<clipPath id="clip0_3211_1019">
<rect width="148.378" height="154.829" fill="white"/>
</clipPath>
</defs>
</svg>
