<svg width="529" height="370" viewBox="0 0 529 370" fill="none" xmlns="http://www.w3.org/2000/svg">
<g clip-path="url(#clip0_3105_1187)">
<path fill-rule="evenodd" clip-rule="evenodd" d="M322.594 158.695C442.944 19.334 560.392 225.473 380.593 258.861C560.392 293.701 441.494 498.388 322.594 359.025C383.493 533.226 147.145 531.776 208.045 359.025C87.6957 498.388 -29.7535 293.701 150.045 258.861C-31.2034 225.473 87.6957 20.7857 208.045 158.695C145.695 -14.0545 383.493 -14.0545 322.594 158.695ZM264.594 232.731C279.095 232.731 292.144 244.344 292.144 258.861C292.144 273.377 279.095 286.443 264.594 286.443C250.095 286.443 238.494 273.377 238.494 258.861C238.494 244.344 250.095 232.731 264.594 232.731Z" fill="#FFEB93"/>
<mask id="mask0_3105_1187" style="mask-type:alpha" maskUnits="userSpaceOnUse" x="96" y="69" width="337" height="322">
<rect x="391.069" y="390.438" width="298.276" height="280.834" transform="rotate(-171.59 391.069 390.438)" fill="#D9D9D9"/>
</mask>
<g mask="url(#mask0_3105_1187)">
<g clip-path="url(#clip1_3105_1187)">
<path d="M167.568 424.751C147.552 406.708 191.174 319.062 214.57 310.669C237.967 302.276 272.972 309.247 287.005 321.378C301.037 333.508 325.487 432.655 301.055 444.486C276.622 456.317 187.584 442.795 167.568 424.751Z" fill="#FFDB40"/>
<path d="M131.811 228.718C114.801 280.624 166.079 316.489 235.258 339.16C304.437 361.83 367.415 363.408 384.425 311.502C413.429 222.997 366.036 173.862 296.857 151.191C227.678 128.521 162.196 135.998 131.811 228.718Z" fill="#FFDB40"/>
<path d="M331.36 322.199L316.442 317.31" stroke="#FCA18E" stroke-width="20.9317" stroke-linecap="round"/>
<path d="M166.265 268.098L151.347 263.209" stroke="#FCA18E" stroke-width="20.9317" stroke-linecap="round"/>
<path d="M306.439 272.812L301.224 288.725" stroke="#123041" stroke-width="15.6988" stroke-linecap="round"/>
<path d="M186.099 233.378L180.884 249.291" stroke="#123041" stroke-width="15.6988" stroke-linecap="round"/>
<path d="M213.737 267.624C210.767 276.687 220.854 284.274 234.86 288.864C248.867 293.454 261.488 293.309 264.458 284.246C267.428 275.183 259.622 260.635 245.616 256.045C231.609 251.454 216.707 258.561 213.737 267.624Z" fill="#FFB132"/>
<path d="M299.053 113.606C309.755 131.929 313.505 149.774 311.594 164.27L285.972 152.738C275.421 147.99 269.172 131.671 274.781 116.188C280.39 100.705 293.61 104.288 299.053 113.606Z" fill="#FFDB40"/>
<path d="M319.836 143.826C313.635 146.873 309.173 156.48 307.716 160.902C317.091 163.043 333.277 165.249 337.925 160.32C342.572 155.39 343.238 147.586 340.471 144.766C337.703 141.947 327.586 140.017 319.836 143.826Z" fill="#FFDB40"/>
</g>
</g>
<path d="M282.128 359.602C282.593 368.55 297.623 375.164 314.94 374.264C332.257 373.365 345.303 365.293 344.839 356.346C344.052 341.191 331.294 329.705 311.817 330.716C292.34 331.728 281.314 343.925 282.128 359.602Z" fill="#FFC532"/>
<path d="M160.725 359.603C161.189 368.55 176.22 375.164 193.537 374.265C210.854 373.366 223.9 365.293 223.435 356.346C222.648 341.191 209.891 329.706 190.414 330.717C170.937 331.728 159.911 343.925 160.725 359.603Z" fill="#FFC532"/>
</g>
<defs>
<clipPath id="clip0_3105_1187">
<rect width="529" height="370" fill="white"/>
</clipPath>
<clipPath id="clip1_3105_1187">
<rect width="294.09" height="503.047" fill="white" transform="matrix(-0.989247 -0.146252 -0.146252 0.989247 430.391 95.8296)"/>
</clipPath>
</defs>
</svg>
