<svg width="403" height="300" viewBox="0 0 403 300" fill="none" xmlns="http://www.w3.org/2000/svg">
<path fill-rule="evenodd" clip-rule="evenodd" d="M259.594 133.562C379.944 -5.7988 497.392 200.34 317.593 233.728C497.392 268.569 378.494 473.255 259.594 333.893C320.493 508.094 84.1453 506.643 145.045 333.893C24.6957 473.255 -92.7535 268.569 87.0453 233.728C-94.2034 200.34 24.6957 -4.34715 145.045 133.562C82.6953 -39.1874 320.493 -39.1874 259.594 133.562ZM201.594 207.598C216.095 207.598 229.144 219.212 229.144 233.728C229.144 248.244 216.095 261.31 201.594 261.31C187.095 261.31 175.494 248.244 175.494 233.728C175.494 219.212 187.095 207.598 201.594 207.598Z" fill="#FFEB93"/>
<g clip-path="url(#clip0_3009_1473)">
<mask id="mask0_3009_1473" style="mask-type:alpha" maskUnits="userSpaceOnUse" x="47" y="3" width="337" height="323">
<rect x="342.121" y="325.397" width="298.276" height="280.834" transform="rotate(-171.59 342.121 325.397)" fill="#D9D9D9"/>
</mask>
<g mask="url(#mask0_3009_1473)">
<g clip-path="url(#clip1_3009_1473)">
<path d="M118.62 359.71C98.6036 341.667 142.225 254.021 165.621 245.628C189.018 237.235 224.023 244.206 238.056 256.337C252.088 268.467 276.539 367.614 252.106 379.445C227.673 391.276 138.636 377.754 118.62 359.71Z" fill="#FFDB40"/>
<path d="M82.8625 163.677C65.8524 215.583 117.13 251.448 186.309 274.119C255.488 296.789 318.466 298.367 335.476 246.461C364.48 157.956 317.087 108.821 247.908 86.1503C178.729 63.4798 113.248 70.9573 82.8625 163.677Z" fill="#FFDB40"/>
<path d="M282.411 257.158L267.493 252.269" stroke="#FCA18E" stroke-width="20.9317" stroke-linecap="round"/>
<path d="M117.316 203.057L102.398 198.168" stroke="#FCA18E" stroke-width="20.9317" stroke-linecap="round"/>
<path d="M257.49 207.771L252.276 223.684" stroke="#123041" stroke-width="15.6988" stroke-linecap="round"/>
<path d="M137.15 168.337L131.936 184.25" stroke="#123041" stroke-width="15.6988" stroke-linecap="round"/>
<path d="M164.788 202.583C161.818 211.646 171.905 219.233 185.912 223.823C199.918 228.413 212.539 228.268 215.509 219.205C218.479 210.142 210.673 195.594 196.667 191.003C182.661 186.413 167.758 193.52 164.788 202.583Z" fill="#FFB132"/>
<path d="M250.104 48.5651C260.807 66.8879 264.556 84.7325 262.645 99.229L237.023 87.697C226.473 82.9486 220.223 66.6302 225.832 51.147C231.441 35.6638 244.661 39.2473 250.104 48.5651Z" fill="#FFDB40"/>
<path d="M270.887 78.7852C264.687 81.8325 260.224 91.4387 258.767 95.861C268.143 98.0019 284.328 100.208 288.976 95.2785C293.624 90.3488 294.29 82.5445 291.522 79.7253C288.754 76.9061 278.638 74.9762 270.887 78.7852Z" fill="#FFDB40"/>
</g>
</g>
<path d="M233.179 294.562C233.644 303.51 248.674 310.124 265.991 309.224C283.309 308.325 296.354 300.253 295.89 291.306C295.103 276.151 282.346 264.665 262.868 265.676C243.391 266.688 232.365 278.885 233.179 294.562Z" fill="#FFC532"/>
<path d="M111.776 294.563C112.241 303.51 127.271 310.124 144.588 309.225C161.905 308.326 174.951 300.253 174.487 291.306C173.699 276.151 160.942 264.666 141.465 265.677C121.988 266.688 110.962 278.885 111.776 294.563Z" fill="#FFC532"/>
</g>
<defs>
<clipPath id="clip0_3009_1473">
<rect width="337" height="323.133" fill="white" transform="matrix(-1 0 0 1 370 -12)"/>
</clipPath>
<clipPath id="clip1_3009_1473">
<rect width="294.09" height="503.047" fill="white" transform="matrix(-0.989247 -0.146252 -0.146252 0.989247 381.442 30.7886)"/>
</clipPath>
</defs>
</svg>
