<svg width="313" height="279" viewBox="0 0 313 279" fill="none" xmlns="http://www.w3.org/2000/svg">
<path d="M78.25 0C35.0337 0 0 32.7952 0 73.25C0 113.705 35.0337 146.5 78.25 146.5C35.0337 146.5 0 179.295 0 219.75C0 260.205 35.0337 293 78.25 293C121.467 293 156.5 260.205 156.5 219.75C156.5 260.205 191.533 293 234.75 293C277.967 293 313 260.205 313 219.75C313 179.295 277.967 146.5 234.75 146.5C277.967 146.5 313 113.705 313 73.25C313 32.7952 277.967 0 234.75 0C191.533 0 156.5 32.7952 156.5 73.25C156.5 32.7952 121.467 0 78.25 0Z" fill="#BBE769"/>
<g clip-path="url(#clip0_3009_1183)">
<ellipse cx="73.2733" cy="95.9422" rx="40.3379" ry="43.4692" transform="rotate(-28.6896 73.2733 95.9422)" fill="#5BB42B"/>
<ellipse cx="40.3379" cy="43.4692" rx="40.3379" ry="43.4692" transform="matrix(-0.877234 -0.480063 -0.480063 0.877234 304.778 76.0566)" fill="#5BB42B"/>
<path d="M278.95 239.606C260.294 257.833 217.002 253.724 197.688 249.392C196.152 247.765 193.092 243.268 193.139 238.301C193.198 232.091 249.252 204.562 263.252 200.577C277.252 196.593 302.27 216.823 278.95 239.606Z" fill="#5C9A15"/>
<path d="M224.359 336.215C245.997 321.826 216.748 232.071 195.614 220.766C174.48 209.461 140.106 211.174 125.01 220.766C109.914 230.358 72.61 321.484 94.2472 336.215C115.884 350.946 202.722 350.603 224.359 336.215Z" fill="#5BB42B"/>
<path d="M57.3888 292.845C56.9413 266.767 89.6464 238.106 106.055 227.036C108.292 227.036 113.663 227.897 117.243 231.341C121.718 235.646 103.258 295.305 96.5455 308.221C89.833 321.137 57.9482 325.443 57.3888 292.845Z" fill="#5BB42B"/>
<path d="M214.811 301.12C214.811 331.711 191.768 339.058 163.344 339.058C134.919 339.058 111.876 331.711 111.876 301.12C111.876 260.905 134.919 238.142 163.344 238.142C191.768 238.142 214.811 260.905 214.811 301.12Z" fill="#A1DC3C"/>
<path d="M291.509 165.755C291.509 218.981 232.845 236.632 161.544 236.632C90.2424 236.632 31.146 218.981 31.146 165.755C31.146 89.2943 90.2424 56.4966 161.544 56.4966C232.845 56.4966 291.509 83.2393 291.509 165.755Z" fill="#5BB42B"/>
<path d="M80.5938 95.853V112" stroke="#123041" stroke-width="15.1374" stroke-linecap="round"/>
<path d="M252.151 94.8438V110.99" stroke="#123041" stroke-width="15.1374" stroke-linecap="round"/>
<path d="M58.3926 147.321H75.5483" stroke="#A1DC3C" stroke-width="20.1832" stroke-linecap="round"/>
<path d="M245.089 147.321H262.245" stroke="#A1DC3C" stroke-width="20.1832" stroke-linecap="round"/>
<path d="M185.546 131.226C185.546 119.101 185.546 113.005 162.84 113.005C140.134 113.005 140.134 118.018 140.134 131.226C140.134 152.867 150.3 165.481 162.84 165.481C175.381 165.481 185.546 151.353 185.546 131.226Z" fill="#D52C2F"/>
<path d="M162.841 165.492C171.625 165.492 179.242 158.56 183.019 147.489C178.627 142.358 172.129 137.907 164.282 135.156C155.723 132.156 147.156 131.738 140.173 133.48C140.852 153.747 150.74 165.492 162.841 165.492Z" fill="#FF686B"/>
</g>
<defs>
<clipPath id="clip0_3009_1183">
<rect width="283.574" height="372.38" fill="white" transform="translate(21.0552 30.252)"/>
</clipPath>
</defs>
</svg>
