<svg width="478" height="300" viewBox="0 0 478 300" fill="none" xmlns="http://www.w3.org/2000/svg">
<path d="M238.793 -28C287.15 -28 326.352 11.7953 326.352 60.8848C326.352 73.4559 323.78 85.4172 319.145 96.2568C335.058 74.0176 360.881 59.5576 390.031 59.5576C438.388 59.5578 477.589 99.353 477.589 148.442C477.589 192.285 446.318 228.714 405.185 236C446.318 243.286 477.589 279.716 477.589 323.559C477.589 372.647 438.388 412.441 390.031 412.441C360.88 412.441 335.058 397.982 319.145 375.743C323.78 386.583 326.352 398.545 326.352 411.116C326.352 460.204 287.15 500 238.793 500C190.437 500 151.236 460.204 151.236 411.116C151.236 398.545 153.807 386.583 158.444 375.743C142.53 397.983 116.707 412.441 87.5576 412.441C39.2009 412.441 0.000180382 372.647 0 323.559C0 279.716 31.2689 243.286 72.4023 236C31.2689 228.714 4.42608e-05 192.285 0 148.442C0 99.3529 39.2008 59.5577 87.5576 59.5576C116.707 59.5576 142.53 74.0175 158.444 96.2568C153.807 85.4172 151.236 73.4559 151.236 60.8848C151.236 11.7954 190.437 -27.9998 238.793 -28Z" fill="#CCFFFE"/>
<g clip-path="url(#clip0_3009_1470)">
<path d="M122.183 84.2539C153.898 103.023 144.101 112.38 135.907 126.226C127.713 140.072 123.581 152.783 92.5102 134.395C76.7369 125.06 70.5928 106.268 78.7869 92.4224C86.9809 78.5764 106.41 74.9193 122.183 84.2539Z" fill="white"/>
<path d="M168.673 87.4607C168.673 104.942 162.575 105.046 155.054 105.046C147.532 105.046 141.435 104.942 141.435 87.4607C141.435 69.9792 149.782 55.8076 155.054 55.8076C160.326 55.8076 168.673 69.9792 168.673 87.4607Z" fill="#6A5B3D"/>
<path d="M333.151 87.4607C333.151 104.942 327.053 105.046 319.532 105.046C312.01 105.046 305.913 104.942 305.913 87.4607C305.913 69.9792 314.26 55.8076 319.532 55.8076C324.804 55.8076 333.151 69.9792 333.151 87.4607Z" fill="#6A5B3D"/>
<path d="M355.393 84.2539C323.678 103.023 333.476 112.38 341.67 126.226C349.864 140.072 353.995 152.783 385.067 134.395C400.84 125.06 406.984 106.268 398.79 92.4224C390.596 78.5764 371.166 74.9193 355.393 84.2539Z" fill="#123041"/>
<path d="M363.22 100.257C347.413 109.612 351.506 112.94 354.614 118.193C357.723 123.446 358.992 128.446 374.478 119.281C382.34 114.629 386.193 106.598 383.084 101.345C379.975 96.0915 371.081 95.6044 363.22 100.257Z" fill="#FFC0C1"/>
<path d="M113.417 100.257C129.224 109.612 125.132 112.94 122.023 118.193C118.914 123.446 117.645 128.446 102.159 119.281C94.2974 114.629 90.4446 106.598 93.5536 101.345C96.6625 96.0915 105.556 95.6044 113.417 100.257Z" fill="#FFC0C1"/>
<path d="M370.504 257.393C354.421 279.174 309.377 282.169 288.865 280.943C287.02 279.532 283.136 275.434 282.358 270.336C281.385 263.963 334.242 226.426 347.924 220.013C361.606 213.6 390.609 230.166 370.504 257.393Z" fill="#E7EAEE"/>
<path d="M108.194 259.401C124.278 281.182 169.322 284.177 189.834 282.952C191.679 281.54 195.562 277.442 196.341 272.344C197.314 265.972 144.457 228.434 130.775 222.021C117.092 215.608 88.0901 232.175 108.194 259.401Z" fill="#E7EAEE"/>
<path d="M304.297 363.998C326.759 349.061 296.395 255.885 274.456 244.149C252.516 232.413 216.833 234.191 201.162 244.149C185.49 254.107 146.764 348.705 169.226 363.998C191.688 379.29 281.835 378.934 304.297 363.998Z" fill="white"/>
<path d="M296.482 330.199C296.482 358.145 272.561 364.857 243.053 364.857C213.545 364.857 189.625 358.145 189.625 330.199C189.625 293.461 213.545 272.667 243.053 272.667C272.561 272.667 296.482 293.461 296.482 330.199Z" fill="#FFC0C1"/>
<path d="M369.816 192.526C369.816 247.202 309.86 265.333 236.989 265.333C164.119 265.333 103.721 247.202 103.721 192.526C103.721 99.2971 164.119 67.333 236.989 67.333C309.86 67.333 369.816 94.8577 369.816 192.526Z" fill="white"/>
<path d="M246.252 67.4946C309.409 69.6349 360.978 94.5534 368.79 171.404C333.63 174.262 327.432 147.512 316.092 137.044C304.551 126.391 280.58 132.161 261.936 117.068C250.507 107.816 246.866 84.9394 246.252 67.4946Z" fill="#123041"/>
<path d="M193.817 221.541C193.817 200.018 211.265 182.57 232.789 182.57H252.274C273.798 182.57 291.246 200.018 291.246 221.541V221.541C291.246 235.89 279.614 247.522 265.265 247.522H219.798C205.449 247.522 193.817 235.89 193.817 221.541V221.541Z" fill="#FFC0C1"/>
<path d="M222.104 211.908V223.432" stroke="#123041" stroke-width="10.4762" stroke-linecap="round"/>
<path d="M264.006 211.908L264.006 223.432" stroke="#123041" stroke-width="10.4762" stroke-linecap="round"/>
<path d="M141.435 223.427H157.149" stroke="#FFC0C1" stroke-width="20.9524" stroke-linecap="round"/>
<path d="M328.959 223.427H344.673" stroke="#FFC0C1" stroke-width="20.9524" stroke-linecap="round"/>
<path d="M183.184 200.725C183.184 200.725 180.146 197.24 173.31 197.24C166.474 197.24 163.436 200.725 163.436 200.725" stroke="#123041" stroke-width="12.3849" stroke-linecap="round"/>
<path d="M323.562 200.725C323.562 200.725 320.524 197.24 313.688 197.24C306.853 197.24 303.815 200.725 303.815 200.725" stroke="#123041" stroke-width="12.3849" stroke-linecap="round"/>
</g>
<defs>
<clipPath id="clip0_3009_1470">
<rect width="330" height="374" fill="white" transform="translate(73.3418 38)"/>
</clipPath>
</defs>
</svg>
