<svg width="384" height="300" viewBox="0 0 384 300" fill="none" xmlns="http://www.w3.org/2000/svg">
<path d="M193.533 -20.9043C194.037 -24.3199 198.964 -24.3199 199.468 -20.9043L210.721 55.291C211.154 58.2198 215.117 58.8182 216.395 56.1477L249.654 -13.3556C251.144 -16.4701 255.852 -15.0153 255.325 -11.6029L243.576 64.5052C243.125 67.4317 246.736 69.1737 248.745 66.9984L301.047 10.373C303.39 7.83627 307.459 10.6158 305.949 13.7211L272.253 82.9748C270.957 85.6383 273.895 88.369 276.457 86.8818L343.144 48.1667C346.13 46.4326 349.2 50.2892 346.84 52.811L294.201 109.062C292.177 111.225 294.181 114.702 297.068 114.035L372.207 96.6613C375.572 95.8831 377.371 100.474 374.372 102.188L307.468 140.45C304.895 141.921 305.787 145.835 308.743 146.046L385.658 151.547C389.104 151.793 389.472 156.71 386.101 157.466L310.87 174.347C307.978 174.995 307.678 178.999 310.442 180.071L382.312 207.952C385.532 209.202 384.437 214.009 380.993 213.74L304.107 207.739C301.152 207.509 299.688 211.246 302.013 213.084L362.459 260.871C365.169 263.013 362.707 267.285 359.495 266.014L287.782 237.656C285.027 236.566 282.528 239.705 284.207 242.146L327.862 305.605C329.819 308.45 326.21 311.806 323.515 309.646L263.347 261.438C261.035 259.586 257.724 261.848 258.608 264.674L281.588 338.176C282.618 341.472 278.18 343.613 276.242 340.756L232.977 276.978C231.315 274.528 227.485 275.711 227.495 278.672L227.746 355.685C227.758 359.138 222.886 359.874 221.877 356.572L199.369 282.898C198.504 280.067 194.496 280.067 193.631 282.898L171.123 356.572C170.115 359.874 165.243 359.138 165.254 355.685L165.506 278.672C165.516 275.711 161.686 274.528 160.023 276.978L116.759 340.756C114.82 343.613 110.382 341.472 111.413 338.176L134.393 264.674C135.277 261.848 131.965 259.586 129.654 261.438L69.4861 309.646C66.7909 311.805 63.1812 308.45 65.1386 305.604L108.795 242.146C110.474 239.705 107.975 236.566 105.22 237.655L33.505 266.015C30.2929 267.285 27.8316 263.014 30.5413 260.871L90.9879 213.084C93.3126 211.246 91.8484 207.509 88.8939 207.739L12.007 213.74C8.56296 214.009 7.46789 209.202 10.6885 207.952L82.5588 180.071C85.322 178.999 85.0225 174.995 82.1305 174.347L6.89904 157.466C3.52821 156.71 3.896 151.793 7.34183 151.547L84.2581 146.046C87.2143 145.835 88.1062 141.921 85.5334 140.45L18.6289 102.188C15.6303 100.474 17.4285 95.8832 20.794 96.6613L95.9336 114.035C98.8205 114.702 100.825 111.225 98.7999 109.062L46.1605 52.8112C43.8005 50.2893 46.8702 46.4327 49.8572 48.1668L116.544 86.8818C119.105 88.369 122.044 85.6383 120.748 82.9748L87.0519 13.7211C85.5411 10.6159 89.6103 7.83626 91.9533 10.373L144.256 66.9985C146.265 69.1737 149.876 67.4317 149.425 64.5052L137.676 -11.6029C137.149 -15.0153 141.856 -16.4701 143.347 -13.3556L176.606 56.1477C177.884 58.8182 181.847 58.2198 182.28 55.291L193.533 -20.9043Z" fill="#FFE2D5"/>
<g clip-path="url(#clip0_3009_1472)">
<path d="M311.726 221.536C311.726 270.685 257.831 286.983 192.327 286.983C126.822 286.983 72.5303 270.685 72.5303 221.536C72.5303 137.731 126.822 108.999 192.327 108.999C257.831 108.999 311.726 133.741 311.726 221.536Z" fill="white"/>
<path d="M278.263 230.885L292.388 230.885" stroke="#FFC0C1" stroke-width="18.8343" stroke-linecap="round"/>
<path d="M284.994 258.902C285.412 283.237 254.893 309.983 239.581 320.313C237.493 320.313 232.481 319.51 229.141 316.296C224.965 312.278 242.191 256.606 248.454 244.553C254.718 232.501 284.472 228.483 284.994 258.902Z" fill="#E7EAEE"/>
<path d="M250.008 378.497C270.199 365.07 242.905 281.313 223.183 270.763C203.462 260.214 171.385 261.812 157.298 270.763C143.211 279.715 108.4 364.75 128.591 378.497C148.782 392.243 229.817 391.923 250.008 378.497Z" fill="white"/>
<path d="M94.1917 338.034C93.7741 313.699 124.294 286.953 139.605 276.622C141.693 276.622 146.705 277.426 150.045 280.64C154.221 284.657 136.996 340.329 130.732 352.382C124.468 364.435 94.7137 368.452 94.1917 338.034Z" fill="white"/>
<path d="M241.097 349.999C241.097 375.12 219.594 381.153 193.07 381.153C166.545 381.153 145.042 375.12 145.042 349.999C145.042 316.975 166.545 298.282 193.07 298.282C219.594 298.282 241.097 316.975 241.097 349.999Z" fill="#E7EAEE"/>
<path d="M238.808 64.1069C237.852 89.6448 219.067 144.176 217.651 165.253L155.341 181.949C143.576 164.403 102.445 125.927 86.9002 104.81C67.6211 78.6211 69.3313 37.4094 101.466 28.7989C127.999 21.6896 152.168 62.173 161.945 84.7024C159.146 60.3032 160.746 12.9151 186.369 6.04947C218.503 -2.56107 240.025 31.6094 238.808 64.1069Z" fill="white"/>
<path d="M148.714 194.158L148.714 209.226" stroke="#123041" stroke-width="14.1258" stroke-linecap="round"/>
<path d="M262.662 194.154L262.662 209.222" stroke="#123041" stroke-width="14.1258" stroke-linecap="round"/>
<path d="M121.94 230.885L136.066 230.885" stroke="#FFC0C1" stroke-width="18.8343" stroke-linecap="round"/>
<path d="M222.706 233.195C222.706 241.681 222.706 245.948 207.167 245.948C191.629 245.948 191.629 242.439 191.629 233.195C191.629 223.951 198.586 209.221 207.167 209.221C215.749 209.221 222.706 224.709 222.706 233.195Z" fill="#FFC0C1"/>
<path d="M207.164 209.215C212.685 209.215 217.531 215.629 220.287 222.462C216.561 224.2 212.039 225.221 207.164 225.221C202.237 225.221 197.672 224.181 193.924 222.409C196.659 215.484 201.565 209.215 207.164 209.215Z" fill="#E7EAEE"/>
<path d="M203.315 196.038C205.163 196.038 206.011 196.808 207.166 197.579C208.321 196.808 209.168 196.038 211.017 196.038C213.327 196.038 214.669 198.459 214.097 199.89C213.327 201.816 210.503 203.743 207.166 204.513C203.829 203.743 201.005 201.816 200.235 199.89C199.663 198.459 201.005 196.038 203.315 196.038Z" fill="#FFC0C1"/>
</g>
<defs>
<clipPath id="clip0_3009_1472">
<rect width="307.589" height="439.201" fill="white" transform="matrix(-1 -8.74228e-08 -8.74228e-08 1 345.626 -4)"/>
</clipPath>
</defs>
</svg>
