<svg width="478" height="357" viewBox="0 0 478 357" fill="none" xmlns="http://www.w3.org/2000/svg">
<g clip-path="url(#clip0_3105_1186)">
<path d="M238.793 21C287.15 21 326.352 60.7953 326.352 109.885C326.352 122.456 323.78 134.417 319.145 145.257C335.058 123.018 360.881 108.558 390.031 108.558C438.388 108.558 477.589 148.353 477.589 197.442C477.589 241.285 446.318 277.714 405.185 285C446.318 292.286 477.589 328.716 477.589 372.559C477.589 421.647 438.388 461.441 390.031 461.441C360.88 461.441 335.058 446.982 319.145 424.743C323.78 435.583 326.352 447.545 326.352 460.116C326.352 509.204 287.15 549 238.793 549C190.437 549 151.236 509.204 151.236 460.116C151.236 447.545 153.807 435.583 158.444 424.743C142.53 446.983 116.707 461.441 87.5576 461.441C39.2009 461.441 0.000180382 421.647 0 372.559C0 328.716 31.2689 292.286 72.4023 285C31.2689 277.714 4.42608e-05 241.285 0 197.442C0 148.353 39.2008 108.558 87.5576 108.558C116.707 108.558 142.53 123.018 158.444 145.257C153.807 134.417 151.236 122.456 151.236 109.885C151.236 60.7954 190.437 21.0002 238.793 21Z" fill="#CCFFFE"/>
<g clip-path="url(#clip1_3105_1186)">
<path d="M122.183 133.254C153.898 152.023 144.101 161.38 135.907 175.226C127.713 189.072 123.581 201.783 92.5102 183.395C76.7369 174.06 70.5928 155.268 78.7869 141.422C86.9809 127.576 106.41 123.919 122.183 133.254Z" fill="white"/>
<path d="M168.673 136.461C168.673 153.942 162.575 154.046 155.054 154.046C147.532 154.046 141.435 153.942 141.435 136.461C141.435 118.979 149.782 104.808 155.054 104.808C160.326 104.808 168.673 118.979 168.673 136.461Z" fill="#6A5B3D"/>
<path d="M333.151 136.461C333.151 153.942 327.053 154.046 319.532 154.046C312.01 154.046 305.913 153.942 305.913 136.461C305.913 118.979 314.26 104.808 319.532 104.808C324.804 104.808 333.151 118.979 333.151 136.461Z" fill="#6A5B3D"/>
<path d="M355.393 133.254C323.678 152.023 333.476 161.38 341.67 175.226C349.864 189.072 353.995 201.783 385.067 183.395C400.84 174.06 406.984 155.268 398.79 141.422C390.596 127.576 371.166 123.919 355.393 133.254Z" fill="#123041"/>
<path d="M363.22 149.257C347.413 158.612 351.506 161.94 354.614 167.193C357.723 172.446 358.992 177.446 374.478 168.281C382.34 163.629 386.193 155.598 383.084 150.345C379.975 145.091 371.081 144.604 363.22 149.257Z" fill="#FFC0C1"/>
<path d="M113.417 149.257C129.224 158.612 125.132 161.94 122.023 167.193C118.914 172.446 117.645 177.446 102.159 168.281C94.2974 163.629 90.4446 155.598 93.5536 150.345C96.6625 145.091 105.556 144.604 113.417 149.257Z" fill="#FFC0C1"/>
<path d="M370.504 306.393C354.421 328.174 309.377 331.169 288.865 329.943C287.02 328.532 283.136 324.434 282.358 319.336C281.385 312.963 334.242 275.426 347.924 269.013C361.606 262.6 390.609 279.166 370.504 306.393Z" fill="#E7EAEE"/>
<path d="M108.194 308.401C124.278 330.182 169.322 333.177 189.834 331.952C191.679 330.54 195.562 326.442 196.341 321.344C197.314 314.972 144.457 277.434 130.775 271.021C117.092 264.608 88.0901 281.175 108.194 308.401Z" fill="#E7EAEE"/>
<path d="M304.297 412.998C326.759 398.061 296.395 304.885 274.456 293.149C252.516 281.413 216.833 283.191 201.162 293.149C185.49 303.107 146.764 397.705 169.226 412.998C191.688 428.29 281.835 427.934 304.297 412.998Z" fill="white"/>
<path d="M171.088 350.501C176.79 352.996 181.723 356.816 183.863 362.521C188.892 375.93 206.212 381.727 214.244 382.95C214.244 382.95 234.296 390.021 240.434 400.759C244.269 407.469 244.447 418.718 244.272 424.23C213.759 425.01 181.459 421.324 169.228 412.998C157.917 405.297 162.124 377.487 171.088 350.501Z" fill="#123041"/>
<path d="M296.482 379.199C296.482 407.145 272.561 413.857 243.053 413.857C213.545 413.857 189.625 407.145 189.625 379.199C189.625 342.461 213.545 321.667 243.053 321.667C272.561 321.667 296.482 342.461 296.482 379.199Z" fill="#FFC0C1"/>
<path d="M369.816 241.526C369.816 296.202 309.86 314.333 236.989 314.333C164.119 314.333 103.721 296.202 103.721 241.526C103.721 148.297 164.119 116.333 236.989 116.333C309.86 116.333 369.816 143.858 369.816 241.526Z" fill="white"/>
<path d="M246.252 116.495C309.409 118.635 360.978 143.553 368.79 220.404C333.63 223.262 327.432 196.512 316.092 186.044C304.551 175.391 280.58 181.161 261.936 166.068C250.507 156.816 246.866 133.939 246.252 116.495Z" fill="#123041"/>
<path d="M193.817 270.541C193.817 249.018 211.265 231.57 232.789 231.57H252.274C273.798 231.57 291.246 249.018 291.246 270.541V270.541C291.246 284.89 279.614 296.522 265.265 296.522H219.798C205.449 296.522 193.817 284.89 193.817 270.541V270.541Z" fill="#FFC0C1"/>
<path d="M222.104 260.908V272.432" stroke="#123041" stroke-width="10.4762" stroke-linecap="round"/>
<path d="M264.006 260.908L264.006 272.432" stroke="#123041" stroke-width="10.4762" stroke-linecap="round"/>
<path d="M141.435 272.427H157.149" stroke="#FFC0C1" stroke-width="20.9524" stroke-linecap="round"/>
<path d="M328.959 272.427H344.673" stroke="#FFC0C1" stroke-width="20.9524" stroke-linecap="round"/>
<path d="M183.184 249.725C183.184 249.725 180.146 246.24 173.31 246.24C166.474 246.24 163.436 249.725 163.436 249.725" stroke="#123041" stroke-width="12.3849" stroke-linecap="round"/>
<path d="M323.562 249.725C323.562 249.725 320.524 246.24 313.688 246.24C306.853 246.24 303.815 249.725 303.815 249.725" stroke="#123041" stroke-width="12.3849" stroke-linecap="round"/>
</g>
</g>
<defs>
<clipPath id="clip0_3105_1186">
<rect width="478" height="357" fill="white"/>
</clipPath>
<clipPath id="clip1_3105_1186">
<rect width="330" height="374" fill="white" transform="translate(73.3418 87)"/>
</clipPath>
</defs>
</svg>
