<svg width="117" height="113" viewBox="0 0 117 113" fill="none" xmlns="http://www.w3.org/2000/svg">
<g filter="url(#filter0_d_2202_5467)">
<path d="M72.7335 97.285L80.7711 69.7423C80.9348 69.0545 81.3652 68.4518 81.8508 67.9911L103.204 47.6697C105.447 45.52 104.477 41.8993 101.438 41.0778L72.8437 34.0527C72.1279 33.9139 71.5013 33.5248 71.033 33.076L50.2577 13.3407C48.0778 11.245 44.2303 12.2759 43.3091 15.2026L35.2708 42.7456C35.107 43.4333 34.6774 44.0358 34.1918 44.4966L12.8378 64.8181C10.5948 66.9679 11.565 70.5886 14.6041 71.41L43.258 78.332C43.9739 78.4708 44.5996 78.8601 45.0679 79.3089L65.8008 99.1426C68.0619 101.217 71.9094 100.186 72.7494 97.2808L72.7335 97.285Z" fill="white"/>
</g>
<path d="M68.6142 85.7937L74.4013 65.9629C74.5192 65.4677 74.829 65.0337 75.1787 64.702L90.553 50.0706C92.168 48.5228 91.4695 45.9159 89.2813 45.3245L68.6936 40.2664C68.1782 40.1665 67.727 39.8863 67.3899 39.5632L52.4317 25.3538C50.8621 23.8448 48.0919 24.5871 47.4286 26.6943L41.6411 46.5253C41.5232 47.0204 41.2138 47.4542 40.8642 47.786L25.4893 62.4175C23.8743 63.9653 24.5729 66.5722 26.7611 67.1636L47.3919 72.1475C47.9073 72.2474 48.3578 72.5277 48.695 72.8509L63.6226 87.1311C65.2506 88.6244 68.0209 87.8821 68.6257 85.7906L68.6142 85.7937Z" fill="#FFC53D"/>
<defs>
<filter id="filter0_d_2202_5467" x="11.6096" y="12.2354" width="96.8225" height="91.9976" filterUnits="userSpaceOnUse" color-interpolation-filters="sRGB">
<feFlood flood-opacity="0" result="BackgroundImageFix"/>
<feColorMatrix in="SourceAlpha" type="matrix" values="0 0 0 0 0 0 0 0 0 0 0 0 0 0 0 0 0 0 127 0" result="hardAlpha"/>
<feOffset dx="4" dy="4"/>
<feColorMatrix type="matrix" values="0 0 0 0 0.584314 0 0 0 0 0.615686 0 0 0 0 0.647059 0 0 0 0.2 0"/>
<feBlend mode="normal" in2="BackgroundImageFix" result="effect1_dropShadow_2202_5467"/>
<feBlend mode="normal" in="SourceGraphic" in2="effect1_dropShadow_2202_5467" result="shape"/>
</filter>
</defs>
</svg>
