<svg width="67" height="51" viewBox="0 0 67 51" fill="none" xmlns="http://www.w3.org/2000/svg">
<path d="M15.0837 25.9288C14.7115 24.9227 13.2885 24.9227 12.9163 25.9288L10.4031 32.7204C10.2861 33.0367 10.0367 33.2861 9.72041 33.4031L2.92876 35.9163C1.92271 36.2885 1.92271 37.7115 2.92876 38.0837L9.72041 40.5969C10.0367 40.7139 10.2861 40.9633 10.4031 41.2796L12.9163 48.0712C13.2885 49.0773 14.7115 49.0773 15.0837 48.0712L17.5969 41.2796C17.7139 40.9633 17.9633 40.7139 18.2796 40.5969L25.0712 38.0837C26.0773 37.7115 26.0773 36.2885 25.0712 35.9163L18.2796 33.4031C17.9633 33.2861 17.7139 33.0367 17.5969 32.7204L15.0837 25.9288Z" fill="white"/>
<path d="M54.0837 2.92876C53.7115 1.92271 52.2885 1.92271 51.9163 2.92876L49.4031 9.72041C49.2861 10.0367 49.0367 10.2861 48.7204 10.4031L41.9288 12.9163C40.9227 13.2885 40.9227 14.7115 41.9288 15.0837L48.7204 17.5969C49.0367 17.7139 49.2861 17.9633 49.4031 18.2796L51.9163 25.0712C52.2885 26.0773 53.7115 26.0773 54.0837 25.0712L56.5969 18.2796C56.7139 17.9633 56.9633 17.7139 57.2796 17.5969L64.0712 15.0837C65.0773 14.7115 65.0773 13.2885 64.0712 12.9163L57.2796 10.4031C56.9633 10.2861 56.7139 10.0367 56.5969 9.72041L54.0837 2.92876Z" fill="white"/>
</svg>
