<svg width="68" height="64" viewBox="0 0 68 64" fill="none" xmlns="http://www.w3.org/2000/svg">
<g filter="url(#filter0_d_2202_5464)">
<path d="M33.9861 58.6361L43.8149 42.4502C44.0368 42.0398 44.4141 41.729 44.8024 41.5183L61.8866 32.2108C63.6838 31.2234 63.6838 28.7494 61.8866 27.7066L44.8577 18.3436C44.425 18.1328 44.0921 17.7777 43.8702 17.4116L33.9969 1.28132C32.9652 -0.427108 30.3362 -0.427108 29.249 1.28132L19.4196 17.4672C19.1977 17.8776 18.8209 18.1883 18.4326 18.3991L1.34789 27.7066C-0.449295 28.694 -0.449295 31.1679 1.34789 32.2108L18.4326 41.5183C18.8653 41.729 19.1977 42.0841 19.4196 42.4502L29.249 58.6361C30.3362 60.3445 32.9652 60.3445 33.9969 58.6361H33.9861Z" fill="white"/>
</g>
<path d="M33.3235 50.6057L40.4003 38.9519C40.56 38.6563 40.8317 38.4326 41.1113 38.2808L53.4119 31.5794C54.7059 30.8686 54.7059 29.0873 53.4119 28.3365L41.151 21.5951C40.8395 21.4433 40.5998 21.1877 40.4401 20.9241L33.3313 9.31025C32.5884 8.08018 30.6956 8.08018 29.9128 9.31025L22.8356 20.964C22.6759 21.2596 22.4046 21.4833 22.125 21.6351L9.82399 28.3365C8.53002 29.0474 8.53002 30.8286 9.82399 31.5794L22.125 38.2808C22.4365 38.4326 22.6759 38.6883 22.8356 38.9519L29.9128 50.6057C30.6956 51.8357 32.5884 51.8357 33.3313 50.6057H33.3235Z" fill="#FFC53D"/>
<defs>
<filter id="filter0_d_2202_5464" x="0" y="0" width="67.2344" height="63.9175" filterUnits="userSpaceOnUse" color-interpolation-filters="sRGB">
<feFlood flood-opacity="0" result="BackgroundImageFix"/>
<feColorMatrix in="SourceAlpha" type="matrix" values="0 0 0 0 0 0 0 0 0 0 0 0 0 0 0 0 0 0 127 0" result="hardAlpha"/>
<feOffset dx="4" dy="4"/>
<feColorMatrix type="matrix" values="0 0 0 0 0.584314 0 0 0 0 0.615686 0 0 0 0 0.647059 0 0 0 0.2 0"/>
<feBlend mode="normal" in2="BackgroundImageFix" result="effect1_dropShadow_2202_5464"/>
<feBlend mode="normal" in="SourceGraphic" in2="effect1_dropShadow_2202_5464" result="shape"/>
</filter>
</defs>
</svg>
