<svg width="24" height="24" viewBox="0 0 24 24" fill="none" xmlns="http://www.w3.org/2000/svg">
<path d="M10.9163 0.928759C11.2885 -0.0772887 12.7115 -0.0772854 13.0837 0.928762L15.5969 7.72041C15.7139 8.0367 15.9633 8.28608 16.2796 8.40313L23.0712 10.9163C24.0773 11.2885 24.0773 12.7115 23.0712 13.0837L16.2796 15.5969C15.9633 15.7139 15.7139 15.9633 15.5969 16.2796L13.0837 23.0712C12.7115 24.0773 11.2885 24.0773 10.9163 23.0712L8.40312 16.2796C8.28608 15.9633 8.0367 15.7139 7.72041 15.5969L0.928759 13.0837C-0.0772887 12.7115 -0.0772854 11.2885 0.928762 10.9163L7.72041 8.40312C8.0367 8.28608 8.28608 8.0367 8.40313 7.72041L10.9163 0.928759Z" fill="white"/>
</svg>
