<svg width="190" height="200" viewBox="0 0 190 200" fill="none" xmlns="http://www.w3.org/2000/svg">
<path fill-rule="evenodd" clip-rule="evenodd" d="M33.5212 176.637C33.5201 176.433 33.5195 176.229 33.5195 176.025C33.5195 121.926 72.8374 78.0703 121.338 78.0703C138.942 78.0703 155.336 83.8477 169.079 93.7952C176.87 53.038 211.145 22.3379 252.247 22.3379C276.311 22.3379 298.035 32.861 313.474 49.7646C336.781 19.7238 373.284 0.381836 414.317 0.381836C470.404 0.381836 518.027 36.5185 535.056 86.7197C538.355 84.9653 542.058 83.9815 545.971 83.9815C558.889 83.9815 569.522 94.7047 570.866 108.473C605.674 108.783 633.791 135.884 633.791 169.27C633.791 171.764 633.635 174.222 633.33 176.637H662.939C669.131 176.637 674.15 181.656 674.15 187.848C674.15 194.039 669.131 199.059 662.939 199.059H11.2109C5.0193 199.059 0 194.039 0 187.848C0 181.656 5.0193 176.637 11.2109 176.637H33.5212Z" fill="#F5FEF6"/>
</svg>
