<svg width="191" height="119" viewBox="0 0 191 119" fill="none" xmlns="http://www.w3.org/2000/svg">
<path fill-rule="evenodd" clip-rule="evenodd" d="M-180.554 105.911C-180.629 104.824 -180.668 103.725 -180.668 102.617C-180.668 79.0025 -163.317 59.8594 -141.913 59.8594C-132.112 59.8594 -123.161 63.8736 -116.336 70.4931C-114.695 69.7675 -112.872 69.3633 -110.95 69.3633C-107.347 69.3633 -104.087 70.7849 -101.734 73.0808C-94.0917 66.8993 -84.8619 62.9116 -74.8313 61.9739C-70.4972 26.957 -43.7314 0 -11.3596 0C16.8736 0 40.8427 20.5051 49.3851 48.9786C56.0468 44.4272 63.8591 41.8076 72.2131 41.8076C93.7938 41.8076 111.76 59.2888 115.615 82.3976C121.066 79.822 127.114 78.3887 133.482 78.3887C151.385 78.3887 166.763 89.7191 173.444 105.911H184.792C188.221 105.911 191 108.691 191 112.119C191 115.548 188.221 118.327 184.792 118.327L-192.792 118.327C-196.221 118.327 -199 115.548 -199 112.119C-199 108.691 -196.221 105.911 -192.792 105.911H-180.554Z" fill="white" fill-opacity="0.5"/>
</svg>
