<svg width="1045" height="316" viewBox="0 0 1045 316" fill="none" xmlns="http://www.w3.org/2000/svg">
<path d="M981.927 286.944C981.507 285.846 979.953 285.846 979.534 286.944L976.151 295.8C976.018 296.149 975.739 296.422 975.387 296.548L966.362 299.784C965.231 300.189 965.231 301.789 966.362 302.195L975.387 305.43C975.739 305.556 976.018 305.829 976.151 306.178L979.534 315.034C979.953 316.132 981.507 316.132 981.927 315.034L985.309 306.178C985.442 305.829 985.722 305.556 986.073 305.43L995.098 302.195C996.229 301.789 996.229 300.189 995.098 299.784L986.073 296.548C985.722 296.422 985.442 296.149 985.309 295.8L981.927 286.944Z" fill="white"/>
<path d="M1030.39 258.246C1029.98 257.131 1028.4 257.131 1027.99 258.246L1024.61 267.39C1024.48 267.74 1024.2 268.016 1023.85 268.146L1014.71 271.53C1013.59 271.942 1013.59 273.519 1014.71 273.932L1023.85 277.315C1024.2 277.445 1024.48 277.721 1024.61 278.072L1027.99 287.216C1028.4 288.331 1029.98 288.331 1030.39 287.216L1033.78 278.072C1033.91 277.721 1034.18 277.445 1034.53 277.315L1043.68 273.932C1044.79 273.519 1044.79 271.942 1043.68 271.53L1034.53 268.146C1034.18 268.016 1033.91 267.74 1033.78 267.39L1030.39 258.246Z" fill="white"/>
<path d="M549.378 68.2456C548.965 67.1307 547.388 67.1307 546.976 68.2456L543.742 76.9851C543.612 77.3356 543.336 77.612 542.985 77.7417L534.246 80.9756C533.131 81.3882 533.131 82.965 534.246 83.3776L542.985 86.6115C543.336 86.7412 543.612 87.0176 543.742 87.3681L546.976 96.1076C547.388 97.2225 548.965 97.2225 549.378 96.1076L552.611 87.3681C552.741 87.0176 553.018 86.7412 553.368 86.6115L562.108 83.3776C563.222 82.965 563.222 81.3882 562.108 80.9756L553.368 77.7417C553.018 77.612 552.741 77.3356 552.611 76.9851L549.378 68.2456Z" fill="white"/>
<path d="M16.3779 282.246C15.9653 281.131 14.3885 281.131 13.976 282.246L10.742 290.985C10.6123 291.336 10.336 291.612 9.98545 291.742L1.24588 294.976C0.131008 295.388 0.131008 296.965 1.24588 297.378L9.98545 300.611C10.336 300.741 10.6123 301.018 10.742 301.368L13.976 310.108C14.3885 311.223 15.9653 311.223 16.3779 310.108L19.6118 301.368C19.7415 301.018 20.0179 300.741 20.3684 300.611L29.108 297.378C30.2228 296.965 30.2228 295.388 29.108 294.976L20.3684 291.742C20.0179 291.612 19.7415 291.336 19.6118 290.985L16.3779 282.246Z" fill="white"/>
<path d="M373.378 1.24556C372.965 0.130692 371.388 0.130691 370.976 1.24556L367.742 9.98513C367.612 10.3356 367.336 10.612 366.985 10.7417L358.246 13.9756C357.131 14.3882 357.131 15.965 358.246 16.3776L366.985 19.6115C367.336 19.7412 367.612 20.0176 367.742 20.3681L370.976 29.1076C371.388 30.2225 372.965 30.2225 373.378 29.1076L376.612 20.3681C376.742 20.0176 377.018 19.7412 377.368 19.6115L386.108 16.3776C387.223 15.965 387.223 14.3882 386.108 13.9756L377.368 10.7417C377.018 10.612 376.742 10.3356 376.612 9.98513L373.378 1.24556Z" fill="white"/>
</svg>
