<svg width="611" height="427" viewBox="0 0 611 427" fill="none" xmlns="http://www.w3.org/2000/svg">
<g clip-path="url(#clip0_2219_11054)">
<rect width="611" height="427" rx="30" fill="#D1F76E"/>
<path d="M99.02 77.2402C-15.0709 77.2402 -107.56 163.819 -107.56 270.62C-107.56 377.423 -15.0709 464 99.02 464C-15.0709 464 -107.56 550.578 -107.56 657.38C-107.56 764.183 -15.0709 850.76 99.02 850.76C213.113 850.76 305.6 764.183 305.6 657.38C305.6 764.183 398.087 850.76 512.18 850.76C626.273 850.76 718.76 764.183 718.76 657.38C718.76 550.578 626.273 464 512.18 464C626.273 464 718.76 377.423 718.76 270.62C718.76 163.819 626.273 77.2402 512.18 77.2402C398.087 77.2402 305.6 163.819 305.6 270.62C305.6 163.819 213.113 77.2402 99.02 77.2402Z" fill="#A1DC3C"/>
<g clip-path="url(#clip1_2219_11054)">
<ellipse cx="34.1166" cy="36.765" rx="34.1166" ry="36.765" transform="matrix(-0.877234 -0.480064 -0.480064 0.877234 552.116 188.908)" fill="#5BB42B"/>
<ellipse cx="356.315" cy="203.832" rx="34.1166" ry="36.765" transform="rotate(-28.6896 356.315 203.832)" fill="#5BB42B"/>
<path d="M333.174 348.52C353.77 356.419 386.009 338.715 399.554 328.876C400.201 327.098 401.07 322.581 399.368 318.739C397.24 313.937 344.486 311.353 332.279 312.952C320.072 314.552 307.428 338.648 333.174 348.52Z" fill="#5C9A15"/>
<path d="M383.485 444.938C377.364 442.436 371.403 409.085 372.611 392.482L431.41 401.867C432.619 415.342 432.699 442.821 429.799 444.938C426.175 447.585 391.137 448.066 383.485 444.938Z" fill="#5C9A15"/>
<path d="M378.89 407.999C360.59 395.83 385.327 319.917 403.202 310.356C421.076 300.794 450.149 302.243 462.916 310.356C475.684 318.469 507.235 395.54 488.935 407.999C470.635 420.458 397.19 420.168 378.89 407.999Z" fill="#5BB42B"/>
<path d="M483.476 444.938C489.598 442.436 495.558 409.085 494.35 392.482L435.551 401.867C434.343 415.342 434.262 442.821 437.162 444.938C440.787 447.585 475.824 448.066 483.476 444.938Z" fill="#5BB42B"/>
<path d="M520.108 371.324C520.487 349.268 492.826 325.027 478.948 315.664C477.056 315.664 472.514 316.392 469.486 319.305C465.701 322.947 481.314 373.405 486.991 384.329C492.668 395.252 519.635 398.894 520.108 371.324Z" fill="#5BB42B"/>
<path d="M386.964 378.317C386.964 404.19 406.453 410.404 430.493 410.404C454.534 410.404 474.023 404.19 474.023 378.317C474.023 344.305 454.534 325.053 430.493 325.053C406.453 325.053 386.964 344.305 386.964 378.317Z" fill="#A1DC3C"/>
<path d="M429.069 373.993C428.894 373.994 428.72 373.963 428.557 373.903C428.395 373.843 428.247 373.755 428.123 373.644L422.19 368.228C421.971 367.998 421.857 367.702 421.87 367.399C421.883 367.096 422.022 366.809 422.26 366.595C422.497 366.38 422.815 366.255 423.151 366.243C423.486 366.231 423.814 366.334 424.07 366.532L430.016 371.887C430.141 371.999 430.24 372.132 430.308 372.278C430.375 372.425 430.41 372.582 430.41 372.741C430.41 372.9 430.375 373.057 430.308 373.204C430.24 373.351 430.141 373.484 430.016 373.596C429.896 373.716 429.75 373.813 429.587 373.881C429.425 373.949 429.248 373.987 429.069 373.993Z" fill="#5BB42B"/>
<path d="M423.2 373.993C423.026 373.994 422.853 373.963 422.692 373.904C422.531 373.844 422.384 373.756 422.26 373.644C422.136 373.533 422.038 373.4 421.971 373.254C421.904 373.108 421.869 372.951 421.869 372.792C421.869 372.634 421.904 372.477 421.971 372.33C422.038 372.184 422.136 372.051 422.26 371.94L428.147 366.597C428.27 366.485 428.416 366.395 428.577 366.335C428.739 366.274 428.912 366.242 429.086 366.242C429.261 366.242 429.434 366.274 429.595 366.335C429.756 366.395 429.902 366.485 430.025 366.597C430.272 366.822 430.41 367.127 430.41 367.444C430.41 367.761 430.272 368.065 430.025 368.29L424.126 373.644C423.879 373.866 423.547 373.991 423.2 373.993Z" fill="#5BB42B"/>
<path d="M319.958 263.828C319.958 308.845 369.575 323.773 429.879 323.773C490.184 323.773 540.166 308.845 540.166 263.828C540.166 199.159 490.184 171.42 429.879 171.42C369.575 171.42 319.958 194.038 319.958 263.828Z" fill="#5BB42B"/>
<path d="M498.346 204.709V218.365" stroke="#123041" stroke-width="12.8028" stroke-linecap="round"/>
<path d="M353.245 203.854V217.51" stroke="#123041" stroke-width="12.8028" stroke-linecap="round"/>
<path d="M517.12 248.236H502.61" stroke="#A1DC3C" stroke-width="17.0703" stroke-linecap="round"/>
<path d="M359.222 248.236H344.712" stroke="#A1DC3C" stroke-width="17.0703" stroke-linecap="round"/>
<path d="M409.579 234.627C409.579 224.372 409.579 219.217 428.783 219.217C447.987 219.217 447.987 223.456 447.987 234.627C447.987 252.931 439.389 263.6 428.783 263.6C418.177 263.6 409.579 251.65 409.579 234.627Z" fill="#D52C2F"/>
<path d="M428.784 263.602C421.354 263.602 414.91 257.738 411.716 248.374C415.431 244.034 420.926 240.269 427.564 237.942C434.803 235.404 442.049 235.051 447.955 236.525C447.382 253.667 439.018 263.602 428.784 263.602Z" fill="#FF686B"/>
</g>
<g clip-path="url(#clip2_2219_11054)">
<path d="M96.893 177.554C121.957 192.387 114.214 199.782 107.739 210.724C101.263 221.667 97.9978 231.712 73.4421 217.18C60.9764 209.803 56.1207 194.952 62.5965 184.009C69.0723 173.067 84.4273 170.176 96.893 177.554Z" fill="white"/>
<path d="M244.458 180.09C244.458 193.905 249.277 193.987 255.221 193.987C261.165 193.987 265.984 193.905 265.984 180.09C265.984 166.274 259.387 155.074 255.221 155.074C251.055 155.074 244.458 166.274 244.458 180.09Z" fill="#6A5B3D"/>
<path d="M114.472 180.09C114.472 193.905 119.291 193.987 125.235 193.987C131.179 193.987 135.998 193.905 135.998 180.09C135.998 166.274 129.401 155.074 125.235 155.074C121.069 155.074 114.472 166.274 114.472 180.09Z" fill="#6A5B3D"/>
<path d="M281.197 177.554C256.133 192.387 263.876 199.782 270.352 210.724C276.827 221.667 280.092 231.712 304.648 217.18C317.114 209.803 321.969 194.952 315.494 184.009C309.018 173.067 293.663 170.176 281.197 177.554Z" fill="#123041"/>
<path d="M287.382 190.199C274.89 197.592 278.125 200.222 280.582 204.374C283.039 208.526 284.041 212.477 296.28 205.234C302.493 201.557 305.538 195.211 303.081 191.059C300.624 186.907 293.595 186.522 287.382 190.199Z" fill="#FFC0C1"/>
<path d="M89.9638 190.199C102.456 197.592 99.2217 200.222 96.7646 204.374C94.3076 208.526 93.305 212.477 81.0662 205.234C74.8532 201.557 71.8083 195.211 74.2654 191.059C76.7224 186.907 83.7508 186.522 89.9638 190.199Z" fill="#FFC0C1"/>
<path d="M292.796 298.942C283.207 318.072 248.534 326.475 232.396 328.286C230.769 327.435 227.192 324.767 225.899 320.902C224.282 316.071 260.384 279.715 270.174 272.877C279.965 266.039 304.782 275.031 292.796 298.942Z" fill="#EFEFEF"/>
<path d="M237.897 434.468C243.835 432.04 249.617 399.689 248.445 383.584L191.408 392.687C190.236 405.758 190.158 432.414 192.971 434.468C196.487 437.035 230.475 437.502 237.897 434.468Z" fill="#EFEFEF"/>
<path d="M242.355 398.635C260.107 386.831 236.11 313.193 218.771 303.919C201.433 294.644 173.232 296.049 160.847 303.919C148.462 311.788 117.857 386.55 135.608 398.635C153.36 410.721 224.603 410.439 242.355 398.635Z" fill="white"/>
<path fill-rule="evenodd" clip-rule="evenodd" d="M137.077 349.248C141.584 351.219 145.484 354.24 147.176 358.749C151.15 369.346 164.838 373.928 171.185 374.894C171.238 374.912 187.04 380.497 191.884 388.969C194.914 394.27 195.055 403.156 194.917 407.514C170.802 408.13 145.275 405.218 135.608 398.637C126.669 392.551 129.994 370.575 137.077 349.248Z" fill="#123041"/>
<path d="M140.903 434.468C134.965 432.04 129.183 399.689 130.355 383.584L187.392 392.687C188.564 405.758 188.642 432.414 185.829 434.468C182.313 437.035 148.326 437.502 140.903 434.468Z" fill="#123041"/>
<path d="M236.178 371.925C236.178 394.011 217.274 399.315 193.954 399.315C170.634 399.315 151.729 394.011 151.729 371.925C151.729 342.891 170.634 326.457 193.954 326.457C217.274 326.457 236.178 342.891 236.178 371.925Z" fill="#FFC0C1"/>
<path d="M193.598 374.424C193.768 374.425 193.936 374.395 194.094 374.336C194.251 374.276 194.395 374.188 194.515 374.078L200.266 368.695C200.478 368.466 200.589 368.172 200.576 367.871C200.564 367.57 200.429 367.284 200.199 367.071C199.968 366.858 199.66 366.733 199.335 366.722C199.009 366.71 198.691 366.812 198.444 367.008L192.68 372.331C192.559 372.442 192.463 372.575 192.397 372.72C192.332 372.866 192.298 373.023 192.298 373.18C192.298 373.338 192.332 373.495 192.397 373.64C192.463 373.786 192.559 373.919 192.68 374.03C192.796 374.149 192.938 374.246 193.095 374.314C193.253 374.382 193.424 374.419 193.598 374.424Z" fill="#FF8D8D"/>
<path d="M199.287 374.424C199.456 374.425 199.623 374.395 199.78 374.336C199.936 374.276 200.078 374.189 200.198 374.078C200.318 373.967 200.413 373.836 200.479 373.69C200.544 373.545 200.577 373.389 200.577 373.231C200.577 373.074 200.544 372.918 200.479 372.772C200.413 372.627 200.318 372.495 200.198 372.384L194.492 367.074C194.372 366.962 194.231 366.873 194.074 366.812C193.918 366.752 193.75 366.721 193.581 366.721C193.412 366.721 193.244 366.752 193.088 366.812C192.932 366.873 192.79 366.962 192.671 367.074C192.432 367.297 192.298 367.6 192.298 367.915C192.298 368.23 192.432 368.533 192.671 368.756L198.39 374.078C198.629 374.299 198.951 374.423 199.287 374.424Z" fill="#FF8D8D"/>
<path d="M82.3003 263.122C82.3003 306.333 129.684 320.662 187.274 320.662C244.864 320.662 292.596 306.333 292.596 263.122C292.596 189.443 244.864 164.182 187.274 164.182C129.684 164.182 82.3003 185.934 82.3003 263.122Z" fill="white"/>
<path d="M194.943 164.305C244.857 165.996 285.613 185.691 291.785 246.43C263.998 248.689 259.1 227.548 250.138 219.275C241.017 210.856 222.072 215.416 207.337 203.488C198.304 196.175 195.427 178.092 194.943 164.305Z" fill="#123041"/>
<path d="M146.494 271.377C146.494 271.377 143.988 268.502 138.348 268.502C132.709 268.502 130.203 271.377 130.203 271.377" stroke="#123041" stroke-width="10.2175" stroke-linecap="round"/>
<path d="M260.749 271.377C260.749 271.377 258.243 268.502 252.603 268.502C246.964 268.502 244.458 271.377 244.458 271.377" stroke="#123041" stroke-width="10.2175" stroke-linecap="round"/>
<path d="M156.697 286.055C156.697 269.045 170.486 255.256 187.496 255.256H202.895C219.905 255.256 233.695 269.045 233.695 286.055C233.695 297.395 224.502 306.588 213.162 306.588H177.229C165.889 306.588 156.697 297.395 156.697 286.055Z" fill="#FFC0C1"/>
<path d="M179.051 278.438V287.545" stroke="#123041" stroke-width="8.27937" stroke-linecap="round"/>
<path d="M212.168 278.438L212.168 287.545" stroke="#123041" stroke-width="8.27937" stroke-linecap="round"/>
<path d="M115.3 287.545H127.719" stroke="#FFC0C1" stroke-width="16.5587" stroke-linecap="round"/>
<path d="M263.5 287.545H275.919" stroke="#FFC0C1" stroke-width="16.5587" stroke-linecap="round"/>
<path d="M98.1244 307.822C106.637 327.454 129.587 327.761 145.6 330.464C147.271 329.705 150.991 327.24 152.496 323.452C154.379 318.718 131.554 290.423 122.158 283.052C112.762 275.681 87.4837 283.282 98.1244 307.822Z" fill="#EFEFEF"/>
</g>
<g filter="url(#filter0_d_2219_11054)">
<path d="M546.14 350.718L554.986 336.151C555.185 335.781 555.525 335.501 555.874 335.312L571.25 326.935C572.868 326.046 572.868 323.82 571.25 322.881L555.924 314.455C555.535 314.265 555.235 313.945 555.035 313.616L546.149 299.099C545.221 297.561 542.855 297.561 541.876 299.099L533.03 313.666C532.83 314.035 532.491 314.315 532.141 314.505L516.765 322.881C515.148 323.77 515.148 325.996 516.765 326.935L532.141 335.312C532.531 335.501 532.83 335.821 533.03 336.151L541.876 350.718C542.855 352.255 545.221 352.255 546.149 350.718H546.14Z" fill="white"/>
</g>
<path d="M545.543 343.49L551.913 333.002C552.056 332.736 552.301 332.535 552.552 332.398L563.623 326.367C564.788 325.727 564.788 324.124 563.623 323.448L552.588 317.381C552.308 317.244 552.092 317.014 551.948 316.777L545.55 306.324C544.882 305.217 543.178 305.217 542.474 306.324L536.104 316.813C535.961 317.079 535.716 317.28 535.465 317.417L524.394 323.448C523.229 324.088 523.229 325.691 524.394 326.367L535.465 332.398C535.745 332.535 535.961 332.765 536.104 333.002L542.474 343.49C543.178 344.597 544.882 344.597 545.55 343.49H545.543Z" fill="#FFC53D"/>
<g filter="url(#filter1_d_2219_11054)">
<path d="M79.2222 141.263L86.299 129.609C86.4588 129.314 86.7305 129.09 87.01 128.938L99.3107 122.237C100.605 121.526 100.605 119.745 99.3107 118.994L87.0498 112.252C86.7383 112.101 86.4986 111.845 86.3388 111.581L79.23 99.9675C78.4872 98.7374 76.5944 98.7374 75.8116 99.9675L68.7344 111.621C68.5746 111.917 68.3034 112.141 68.0238 112.292L55.7228 118.994C54.4288 119.705 54.4288 121.486 55.7228 122.237L68.0238 128.938C68.3353 129.09 68.5746 129.346 68.7344 129.609L75.8116 141.263C76.5944 142.493 78.4872 142.493 79.23 141.263H79.2222Z" fill="white"/>
</g>
<path d="M78.7452 135.479L83.8405 127.088C83.9555 126.875 84.1511 126.714 84.3524 126.605L93.2089 121.78C94.1405 121.268 94.1405 119.986 93.2089 119.445L84.381 114.591C84.1567 114.482 83.9841 114.298 83.8691 114.108L78.7508 105.746C78.216 104.861 76.8531 104.861 76.2895 105.746L71.1939 114.137C71.0789 114.35 70.8836 114.511 70.6823 114.62L61.8256 119.445C60.8939 119.957 60.8939 121.239 61.8256 121.78L70.6823 126.605C70.9066 126.714 71.0789 126.898 71.1939 127.088L76.2895 135.479C76.8531 136.365 78.216 136.365 78.7508 135.479H78.7452Z" fill="#FFC53D"/>
<g filter="url(#filter2_d_2219_11054)">
<path d="M605.46 262.557L612.694 237.769C612.841 237.15 613.229 236.607 613.666 236.193L632.884 217.903C634.902 215.969 634.029 212.71 631.294 211.971L605.559 205.648C604.915 205.523 604.351 205.173 603.93 204.769L585.232 187.007C583.27 185.121 579.807 186.049 578.978 188.683L571.744 213.472C571.596 214.091 571.21 214.633 570.773 215.048L551.554 233.337C549.535 235.272 550.408 238.53 553.144 239.27L578.932 245.5C579.576 245.624 580.14 245.975 580.561 246.379L599.221 264.229C601.256 266.096 604.718 265.168 605.474 262.553L605.46 262.557Z" fill="white"/>
</g>
<path d="M601.753 252.216L606.961 234.368C607.067 233.923 607.346 233.532 607.661 233.234L621.498 220.065C622.951 218.672 622.323 216.326 620.353 215.794L601.824 211.242C601.36 211.152 600.954 210.9 600.651 210.609L587.189 197.82C585.776 196.462 583.283 197.13 582.686 199.027L577.477 216.875C577.371 217.32 577.092 217.711 576.778 218.009L562.94 231.178C561.487 232.571 562.116 234.917 564.085 235.449L582.653 239.935C583.117 240.025 583.522 240.277 583.826 240.568L597.26 253.42C598.726 254.764 601.219 254.096 601.763 252.213L601.753 252.216Z" fill="#FFC53D"/>
<g filter="url(#filter3_d_2219_11054)">
<path d="M48.6343 348.267L61.6085 326.902C61.9013 326.36 62.3994 325.95 62.912 325.671L85.4631 313.385C87.8354 312.082 87.8354 308.816 85.4631 307.44L62.9849 295.081C62.4138 294.803 61.9743 294.334 61.6814 293.851L48.6486 272.559C47.2868 270.303 43.8165 270.303 42.3814 272.559L29.4066 293.924C29.1137 294.466 28.6164 294.876 28.1038 295.154L5.55194 307.44C3.17966 308.743 3.17966 312.009 5.55194 313.385L28.1038 325.671C28.6749 325.95 29.1137 326.418 29.4066 326.902L42.3814 348.267C43.8165 350.522 47.2868 350.522 48.6486 348.267H48.6343Z" fill="white"/>
</g>
<path d="M47.7589 337.667L57.1003 322.284C57.3112 321.894 57.6698 321.599 58.0388 321.398L74.2757 312.553C75.9837 311.614 75.9837 309.263 74.2757 308.272L58.0913 299.373C57.6801 299.173 57.3637 298.835 57.1528 298.487L47.7692 283.157C46.7887 281.534 44.2901 281.534 43.2569 283.157L33.915 298.54C33.7041 298.93 33.346 299.226 32.977 299.426L16.7396 308.272C15.0316 309.21 15.0316 311.561 16.7396 312.553L32.977 321.398C33.3882 321.599 33.7041 321.936 33.915 322.284L43.2569 337.667C44.2901 339.291 46.7887 339.291 47.7692 337.667H47.7589Z" fill="#FFC53D"/>
</g>
<defs>
<filter id="filter0_d_2219_11054" x="515.552" y="297.945" width="60.5111" height="57.5258" filterUnits="userSpaceOnUse" color-interpolation-filters="sRGB">
<feFlood flood-opacity="0" result="BackgroundImageFix"/>
<feColorMatrix in="SourceAlpha" type="matrix" values="0 0 0 0 0 0 0 0 0 0 0 0 0 0 0 0 0 0 127 0" result="hardAlpha"/>
<feOffset dx="3.6" dy="3.6"/>
<feColorMatrix type="matrix" values="0 0 0 0 0.584314 0 0 0 0 0.615686 0 0 0 0 0.647059 0 0 0 0.2 0"/>
<feBlend mode="normal" in2="BackgroundImageFix" result="effect1_dropShadow_2219_11054"/>
<feBlend mode="normal" in="SourceGraphic" in2="effect1_dropShadow_2219_11054" result="shape"/>
</filter>
<filter id="filter1_d_2219_11054" x="54.7523" y="99.0449" width="48.4089" height="46.0206" filterUnits="userSpaceOnUse" color-interpolation-filters="sRGB">
<feFlood flood-opacity="0" result="BackgroundImageFix"/>
<feColorMatrix in="SourceAlpha" type="matrix" values="0 0 0 0 0 0 0 0 0 0 0 0 0 0 0 0 0 0 127 0" result="hardAlpha"/>
<feOffset dx="2.88" dy="2.88"/>
<feColorMatrix type="matrix" values="0 0 0 0 0.584314 0 0 0 0 0.615686 0 0 0 0 0.647059 0 0 0 0.2 0"/>
<feBlend mode="normal" in2="BackgroundImageFix" result="effect1_dropShadow_2219_11054"/>
<feBlend mode="normal" in="SourceGraphic" in2="effect1_dropShadow_2219_11054" result="shape"/>
</filter>
<filter id="filter2_d_2219_11054" x="550.449" y="186.014" width="87.1403" height="82.7973" filterUnits="userSpaceOnUse" color-interpolation-filters="sRGB">
<feFlood flood-opacity="0" result="BackgroundImageFix"/>
<feColorMatrix in="SourceAlpha" type="matrix" values="0 0 0 0 0 0 0 0 0 0 0 0 0 0 0 0 0 0 127 0" result="hardAlpha"/>
<feOffset dx="3.6" dy="3.6"/>
<feColorMatrix type="matrix" values="0 0 0 0 0.584314 0 0 0 0 0.615686 0 0 0 0 0.647059 0 0 0 0.2 0"/>
<feBlend mode="normal" in2="BackgroundImageFix" result="effect1_dropShadow_2219_11054"/>
<feBlend mode="normal" in="SourceGraphic" in2="effect1_dropShadow_2219_11054" result="shape"/>
</filter>
<filter id="filter3_d_2219_11054" x="3.77273" y="270.867" width="86.9544" height="82.5766" filterUnits="userSpaceOnUse" color-interpolation-filters="sRGB">
<feFlood flood-opacity="0" result="BackgroundImageFix"/>
<feColorMatrix in="SourceAlpha" type="matrix" values="0 0 0 0 0 0 0 0 0 0 0 0 0 0 0 0 0 0 127 0" result="hardAlpha"/>
<feOffset dx="3.4848" dy="3.4848"/>
<feColorMatrix type="matrix" values="0 0 0 0 0.584314 0 0 0 0 0.615686 0 0 0 0 0.647059 0 0 0 0.2 0"/>
<feBlend mode="normal" in2="BackgroundImageFix" result="effect1_dropShadow_2219_11054"/>
<feBlend mode="normal" in="SourceGraphic" in2="effect1_dropShadow_2219_11054" result="shape"/>
</filter>
<clipPath id="clip0_2219_11054">
<rect width="611" height="427" rx="30" fill="white"/>
</clipPath>
<clipPath id="clip1_2219_11054">
<rect width="240" height="285.993" fill="white" transform="matrix(-1 0 0 1 553.4 149.23)"/>
</clipPath>
<clipPath id="clip2_2219_11054">
<rect width="260.8" height="288.122" fill="white" transform="matrix(-1 0 0 1 319.8 141)"/>
</clipPath>
</defs>
</svg>
