<svg width="150" height="150" viewBox="0 0 150 150" fill="none" xmlns="http://www.w3.org/2000/svg">
<path fill-rule="evenodd" clip-rule="evenodd" d="M96.8779 46.1689C102.09 41.0454 109.87 39.538 116.185 42.9931C120.417 45.3096 123.126 49.3839 123.999 53.9726C124.678 54.0803 125.333 54.1944 125.959 54.3144C127.76 54.66 129.367 55.0654 130.628 55.5381C131.258 55.7743 131.84 56.041 132.328 56.3476C132.801 56.6444 133.287 57.0411 133.604 57.5771C134.047 58.329 134.341 59.4092 134.528 60.582C134.722 61.7943 134.821 63.2478 134.797 64.8379C134.749 68.0139 134.207 71.8337 132.854 75.4971C131.5 79.161 129.308 82.7355 125.923 85.3135C125.644 85.5256 125.357 85.7296 125.063 85.9267C125.067 86.2189 125.07 86.5128 125.07 86.8086C125.07 108.191 101.503 115.281 72.8594 115.281C44.216 115.281 20.4756 108.191 20.4756 86.8086C20.4756 79.6286 21.7722 73.4068 24.126 68.0879C23.791 67.5938 23.4756 67.0784 23.1826 66.543C18.553 58.0827 21.1648 47.7416 29.0156 43.4453C35.3843 39.9602 43.2436 41.5241 48.4561 46.7549C55.7694 44.1559 64.0839 42.917 72.8594 42.917C81.4962 42.917 89.6711 43.8957 96.8779 46.1689Z" fill="white"/>
<path d="M96.8779 46.1689L95.5242 50.4605L98.1036 51.2741L100.032 49.3781L96.8779 46.1689ZM116.185 42.9931L118.345 39.0456L118.345 39.0455L116.185 42.9931ZM123.999 53.9726L119.578 54.8136L120.17 57.9218L123.294 58.4171L123.999 53.9726ZM125.959 54.3144L126.807 49.8951L126.807 49.895L125.959 54.3144ZM130.628 55.5381L132.207 51.3244L132.207 51.3243L130.628 55.5381ZM132.328 56.3476L134.721 52.5365L134.721 52.5363L132.328 56.3476ZM133.604 57.5771L137.48 55.2916L137.479 55.2905L133.604 57.5771ZM134.528 60.582L138.972 59.8736L138.972 59.8734L134.528 60.582ZM134.797 64.8379L139.296 64.9058V64.9057L134.797 64.8379ZM132.854 75.4971L137.075 77.0565L137.075 77.0564L132.854 75.4971ZM125.923 85.3135L128.649 88.8939L128.649 88.8937L125.923 85.3135ZM125.063 85.9267L122.554 82.1911L120.533 83.5491L120.564 85.9843L125.063 85.9267ZM125.07 86.8086H129.57V86.8086L125.07 86.8086ZM72.8594 115.281L72.8594 119.781H72.8594V115.281ZM20.4756 86.8086L15.9756 86.8086V86.8086H20.4756ZM24.126 68.0879L28.241 69.9089L29.2507 67.6274L27.8504 65.5623L24.126 68.0879ZM23.1826 66.543L19.235 68.7031L19.2351 68.7032L23.1826 66.543ZM29.0156 43.4453L26.8554 39.4977L26.8553 39.4977L29.0156 43.4453ZM48.4561 46.7549L45.2685 49.9313L47.279 51.9489L49.9629 50.9951L48.4561 46.7549ZM72.8594 42.917V38.417H72.8594L72.8594 42.917ZM96.8779 46.1689L100.032 49.3781C104.01 45.468 109.663 44.5544 114.024 46.9408L116.185 42.9931L118.345 39.0455C110.078 34.5217 100.17 36.6227 93.7234 42.9597L96.8779 46.1689ZM116.185 42.9931L114.024 46.9407C116.969 48.5523 118.933 51.4202 119.578 54.8136L123.999 53.9726L128.42 53.1317C127.319 47.3477 123.866 42.0669 118.345 39.0456L116.185 42.9931ZM123.999 53.9726L123.294 58.4171C123.93 58.5179 124.537 58.6238 125.111 58.7338L125.959 54.3144L126.807 49.895C126.129 49.7649 125.426 49.6426 124.704 49.5281L123.999 53.9726ZM125.959 54.3144L125.111 58.7338C126.796 59.0571 128.125 59.4057 129.049 59.7518L130.628 55.5381L132.207 51.3243C130.609 50.7252 128.724 50.2629 126.807 49.8951L125.959 54.3144ZM130.628 55.5381L129.048 59.7518C129.511 59.9252 129.791 60.0683 129.936 60.159L132.328 56.3476L134.721 52.5363C133.888 52.0137 133.005 51.6234 132.207 51.3244L130.628 55.5381ZM132.328 56.3476L129.935 60.1588C130.002 60.2008 130.006 60.2103 129.972 60.1794C129.937 60.1471 129.835 60.046 129.728 59.8638L133.604 57.5771L137.479 55.2905C136.647 53.8807 135.49 53.0195 134.721 52.5365L132.328 56.3476ZM133.604 57.5771L129.727 59.8627C129.706 59.8271 129.764 59.919 129.85 60.2087C129.932 60.4833 130.013 60.8452 130.084 61.2906L134.528 60.582L138.972 59.8734C138.757 58.5266 138.356 56.7775 137.48 55.2916L133.604 57.5771ZM134.528 60.582L130.084 61.2904C130.23 62.2051 130.318 63.3949 130.297 64.7701L134.797 64.8379L139.296 64.9057C139.324 63.1007 139.213 61.3834 138.972 59.8736L134.528 60.582ZM134.797 64.8379L130.297 64.7699C130.256 67.5285 129.78 70.8313 128.632 73.9377L132.854 75.4971L137.075 77.0564C138.634 72.8361 139.242 68.4993 139.296 64.9058L134.797 64.8379ZM132.854 75.4971L128.632 73.9376C127.485 77.0431 125.722 79.8107 123.197 81.7332L125.923 85.3135L128.649 88.8937C132.895 85.6603 135.515 81.2789 137.075 77.0565L132.854 75.4971ZM125.923 85.3135L123.197 81.733C122.997 81.8849 122.784 82.0373 122.554 82.1911L125.063 85.9267L127.572 89.6624C127.931 89.4219 128.291 89.1663 128.649 88.8939L125.923 85.3135ZM125.063 85.9267L120.564 85.9843C120.568 86.2716 120.57 86.5424 120.57 86.8086L125.07 86.8086L129.57 86.8086C129.57 86.4833 129.567 86.1663 129.563 85.8692L125.063 85.9267ZM125.07 86.8086H120.57C120.57 91.2722 119.359 94.7872 117.295 97.64C115.196 100.541 112.034 103 107.794 104.99C99.2116 109.018 86.9433 110.781 72.8594 110.781V115.281V119.781C87.419 119.781 101.256 118 111.618 113.137C116.85 110.682 121.371 107.359 124.586 102.916C127.835 98.4258 129.57 93.0362 129.57 86.8086H125.07ZM72.8594 115.281L72.8594 110.781C58.7764 110.781 46.4607 109.018 37.8309 104.986C33.5662 102.994 30.3838 100.532 28.2705 97.6294C26.1931 94.7762 24.9756 91.2647 24.9756 86.8086H20.4756H15.9756C15.9756 93.0437 17.7256 98.4368 20.9947 102.927C24.2277 107.367 28.7707 110.687 34.0215 113.14C44.4227 117.999 58.2989 119.781 72.8594 119.781L72.8594 115.281ZM20.4756 86.8086L24.9756 86.8086C24.9756 80.1768 26.1712 74.5861 28.241 69.9089L24.126 68.0879L20.0109 66.2668C17.3732 72.2274 15.9756 79.0804 15.9756 86.8086L20.4756 86.8086ZM24.126 68.0879L27.8504 65.5623C27.5952 65.1859 27.3544 64.7923 27.1302 64.3827L23.1826 66.543L19.2351 68.7032C19.5969 69.3644 19.9867 70.0017 20.4015 70.6134L24.126 68.0879ZM23.1826 66.543L27.1302 64.3828C23.5389 57.8198 25.7777 50.347 31.1759 47.3928L29.0156 43.4453L26.8553 39.4977C16.5519 45.1363 13.5672 58.3455 19.235 68.7031L23.1826 66.543ZM29.0156 43.4453L31.1758 47.3929C35.5737 44.9863 41.2878 45.9366 45.2685 49.9313L48.4561 46.7549L51.6436 43.5785C45.1994 37.1116 35.195 34.9341 26.8554 39.4977L29.0156 43.4453ZM48.4561 46.7549L49.9629 50.9951C56.7009 48.6006 64.4901 47.417 72.8594 47.417L72.8594 42.917L72.8594 38.417C63.6776 38.417 54.838 39.7112 46.9492 42.5147L48.4561 46.7549ZM72.8594 42.917V47.417C81.1809 47.417 88.8742 48.3629 95.5242 50.4605L96.8779 46.1689L98.2316 41.8774C90.468 39.4285 81.8116 38.417 72.8594 38.417V42.917Z" fill="white"/>
<ellipse cx="37.3984" cy="58.7634" rx="16.2048" ry="17.4627" transform="rotate(-28.6896 37.3984 58.7634)" fill="#5BB42B"/>
<ellipse cx="16.2048" cy="17.4627" rx="16.2048" ry="17.4627" transform="matrix(-0.877234 -0.480064 -0.480064 0.877234 130.4 50.7725)" fill="#5BB42B"/>
<path d="M125.07 86.8085C125.07 108.191 101.503 115.281 72.8596 115.281C44.2161 115.281 20.4756 108.191 20.4756 86.8085C20.4756 56.0922 44.2161 42.9165 72.8596 42.9165C101.503 42.9165 125.07 53.6597 125.07 86.8085Z" fill="#5BB42B"/>
<path d="M43.1787 70.6866V64.2001L39.5301 61.5649" stroke="#123041" stroke-width="6.08108" stroke-linecap="round"/>
<path d="M112.098 70.6866V64.2001L115.746 61.5649" stroke="#123041" stroke-width="6.08108" stroke-linecap="round"/>
<path d="M114.529 79.4031H107.637" stroke="#A1DC3C" stroke-width="8.10811" stroke-linecap="round"/>
<path d="M39.5293 79.4031H32.6374" stroke="#A1DC3C" stroke-width="8.10811" stroke-linecap="round"/>
<circle cx="79.4617" cy="76.3631" r="3.85135" fill="#D52C2F"/>
<mask id="mask0_2771_3773" style="mask-type:alpha" maskUnits="userSpaceOnUse" x="75" y="72" width="9" height="9">
<circle cx="79.4617" cy="76.3636" r="3.85135" fill="#D52C2F"/>
</mask>
<g mask="url(#mask0_2771_3773)">
<circle cx="77.4345" cy="79.2013" r="4.25676" fill="#FF686B"/>
</g>
<path fill-rule="evenodd" clip-rule="evenodd" d="M80.6783 52.6468C84.2384 52.6468 90.1641 53.5413 92.9606 54.0306C93.1769 53.9267 93.3994 53.8389 93.6168 53.764C94.1388 53.5841 94.7479 53.4358 95.4117 53.3118C96.7409 53.0636 98.4031 52.8914 100.259 52.7845C103.979 52.5702 108.608 52.61 113.189 52.8724C117.767 53.1346 122.346 53.6218 125.958 54.3147C127.759 54.6603 129.366 55.0657 130.627 55.5384C131.257 55.7746 131.838 56.0413 132.327 56.3479C132.8 56.6447 133.286 57.0413 133.602 57.5774C134.046 58.3294 134.34 59.4093 134.527 60.5823C134.72 61.7947 134.82 63.2479 134.796 64.8382C134.748 68.0144 134.206 71.8338 132.852 75.4974C131.498 79.1615 129.307 82.7358 125.922 85.3138C122.513 87.9089 117.998 89.413 112.171 89.0901C105.465 88.7186 100.521 86.6237 96.9791 83.5442C93.4486 80.4747 91.4128 76.5154 90.358 72.5725C89.3052 68.6364 89.2142 64.6665 89.611 61.4788C89.8095 59.8842 90.1336 58.4535 90.5387 57.2981C90.6271 57.0458 90.7242 56.7957 90.8287 56.552C87.8199 56.0738 83.4137 55.4847 80.6783 55.4847C78.0472 55.4847 74.1008 56.0309 71.3151 56.4974C71.4287 56.7581 71.5325 57.0271 71.6276 57.2981C72.0326 58.4535 72.3568 59.8842 72.5553 61.4788C72.9521 64.6665 72.8611 68.6364 71.8082 72.5725C70.7535 76.5155 68.7177 80.4747 65.1871 83.5442C61.645 86.6236 56.7008 88.7186 49.9957 89.0901C44.1683 89.4129 39.6534 87.9088 36.2447 85.3138C32.859 82.7358 30.6677 79.1614 29.3141 75.4974C27.9607 71.8339 27.4187 68.0143 27.3707 64.8382C27.3467 63.2479 27.446 61.7947 27.6393 60.5823C27.8263 59.4093 28.1207 58.3294 28.5641 57.5774C28.8803 57.0413 29.3667 56.6448 29.8395 56.3479C30.328 56.0413 30.9095 55.7746 31.5397 55.5384C32.8007 55.0657 34.4077 54.6603 36.2086 54.3147C39.8204 53.6218 44.399 53.1346 48.9772 52.8724C53.5582 52.61 58.1875 52.5703 61.9068 52.7845C63.763 52.8914 65.4253 53.0636 66.7545 53.3118C67.4182 53.4358 68.0275 53.5841 68.5494 53.764C68.7454 53.8315 68.9461 53.9096 69.1422 54.0003C71.807 53.5033 77.1919 52.6468 80.6783 52.6468ZM61.7438 55.6175C58.1592 55.411 53.6419 55.4484 49.1393 55.7063C44.6341 55.9644 40.1899 56.4407 36.7438 57.1018C35.0159 57.4334 33.5838 57.8028 32.5358 58.1956C32.0117 58.392 31.62 58.5816 31.3483 58.7522C31.0616 58.9323 30.9991 59.0347 31.0084 59.0188C30.8383 59.3074 30.6117 59.9652 30.442 61.0296C30.2786 62.0547 30.1857 63.3411 30.2076 64.7952C30.2516 67.7079 30.7525 71.2015 31.9762 74.514C33.1998 77.8259 35.1214 80.8913 37.9645 83.0559C40.7851 85.2033 44.6182 86.5452 49.8385 86.2561C56.0083 85.9143 60.325 84.0106 63.3248 81.4026C66.336 78.7848 68.1232 75.3675 69.067 71.8391C70.0127 68.3038 70.097 64.7069 69.7389 61.8294C69.5599 60.3918 69.2739 59.1649 68.9488 58.2376C68.6014 57.2468 68.2771 56.7959 68.1461 56.6839C68.1422 56.6808 68.106 56.6523 68.0182 56.6077C67.9257 56.5608 67.796 56.5056 67.6246 56.4466C67.2789 56.3275 66.8152 56.2106 66.233 56.1018C65.0689 55.8845 63.539 55.7209 61.7438 55.6175ZM113.027 55.7063C108.524 55.4484 104.007 55.411 100.422 55.6175C98.6271 55.7209 97.0974 55.8845 95.9332 56.1018C95.3508 56.2106 94.8874 56.3274 94.5416 56.4466C94.3701 56.5057 94.2405 56.5608 94.1481 56.6077C94.055 56.6549 94.0202 56.6838 94.0201 56.6839C93.8891 56.796 93.5648 57.2467 93.2174 58.2376C92.8923 59.1649 92.6063 60.3917 92.4274 61.8294C92.0692 64.7069 92.1536 68.3039 93.0992 71.8391C94.0431 75.3675 95.8304 78.7848 98.8414 81.4026C101.841 84.0106 106.158 85.9143 112.328 86.2561C117.548 86.5453 121.381 85.2034 124.202 83.0559C127.045 80.8913 128.966 77.8261 130.19 74.514C131.414 71.2014 131.915 67.708 131.959 64.7952C131.981 63.3411 131.888 62.0547 131.724 61.0296C131.555 59.9652 131.328 59.3073 131.158 59.0188C131.167 59.035 131.105 58.9325 130.818 58.7522C130.546 58.5816 130.155 58.392 129.63 58.1956C128.582 57.8028 127.15 57.4334 125.422 57.1018C121.976 56.4407 117.532 55.9644 113.027 55.7063Z" fill="black"/>
</svg>
