<svg width="141" height="156" viewBox="0 0 141 156" fill="none" xmlns="http://www.w3.org/2000/svg">
<path fill-rule="evenodd" clip-rule="evenodd" d="M87.724 6.02954C99.5438 6.02963 103.92 20.0151 99.7122 30.7756C98.3572 34.2406 95.8537 39.0296 93.1839 43.9866C105.219 49.0763 113.294 59.8833 113.294 80.1389C113.294 88.88 108.496 94.695 100.784 98.3245C105.701 97.5675 110.486 97.0549 112.512 97.1145C112.826 97.1237 113.145 97.1703 113.463 97.2502C115.276 93.8515 117.225 90.2612 118.837 87.3186C117.898 85.5374 117.869 83.3179 118.956 81.4338C120.509 78.7438 124.251 75.5837 129.673 73.1731C130.194 72.9419 130.737 73.4456 130.598 73.9983C129.033 80.2084 131.715 83.4256 129.388 87.4563C128.299 89.3421 126.462 90.3999 124.533 90.5168C122.578 93.5976 120.139 97.4083 117.87 100.889C119.543 103.936 119.221 108.171 113.567 111.022C107.218 114.223 97.1156 110.983 90.5726 107.894C93.6457 114.95 95.9275 123.98 95.5101 129.999C95.9303 136.564 93.6168 149.413 91.2386 150.387C88.2392 151.613 74.5051 151.424 73.0833 150.387C72.298 149.814 72.07 144.495 72.1605 139.52C71.8136 139.523 71.4665 139.524 71.1195 139.524C71.2097 144.497 70.9824 149.813 70.1976 150.387C68.7768 151.425 55.0423 151.613 52.0423 150.387C49.7329 149.443 47.4824 137.299 47.7386 130.585C47.6132 127.935 48.1061 124.628 48.9779 121.136C48.3415 122.041 47.4665 122.797 46.389 123.292L26.8275 132.288C20.3242 135.279 12.628 132.432 9.63705 125.929C6.64616 119.426 9.49321 111.729 15.9964 108.739L26.0619 104.109C29.3133 102.613 33.162 104.037 34.6576 107.288L35.138 108.332C40.4275 106.414 51.1677 103.472 56.0911 102.96C56.1781 102.804 56.2645 102.651 56.3509 102.5C40.0933 100.304 28.3111 93.7861 28.3109 80.1389C28.3109 60.0442 37.0974 48.8623 49.9642 43.7151C47.2883 38.8551 44.8867 34.1772 43.8372 30.7756C40.4312 19.7351 44.6749 6.0299 56.4945 6.02954C65.9192 6.02954 70.8263 22.1449 72.1097 30.7756C73.3931 22.1449 77.9647 6.02956 87.724 6.02954Z" fill="#FFC5AB"/>
<path d="M87.724 6.02954L87.724 1.62851H87.724L87.724 6.02954ZM99.7122 30.7756L103.811 32.3785L103.811 32.3785L99.7122 30.7756ZM93.1839 43.9866L89.3092 41.8997L87.0163 46.1567L91.4697 48.04L93.1839 43.9866ZM113.294 80.1389L117.695 80.139V80.1389H113.294ZM100.784 98.3245L98.9094 94.3424L101.453 102.674L100.784 98.3245ZM112.512 97.1145L112.642 92.7154L112.641 92.7154L112.512 97.1145ZM113.463 97.2502L112.392 101.519L115.727 102.356L117.346 99.3217L113.463 97.2502ZM118.837 87.3186L122.697 89.4337L123.834 87.3583L122.73 85.2651L118.837 87.3186ZM118.956 81.4338L115.145 79.2333V79.2333L118.956 81.4338ZM129.673 73.1731L127.887 69.1507L127.885 69.1516L129.673 73.1731ZM130.598 73.9983L134.866 75.0735L134.866 75.0719L130.598 73.9983ZM129.388 87.4563L133.199 89.6568L133.199 89.6567L129.388 87.4563ZM124.533 90.5168L124.266 86.1239L122.021 86.2599L120.816 88.1594L124.533 90.5168ZM117.87 100.889L114.183 98.4861L112.744 100.695L114.012 103.006L117.87 100.889ZM113.567 111.022L115.548 114.951L115.548 114.951L113.567 111.022ZM90.5726 107.894L92.4514 103.914L81.8616 98.9147L86.5376 109.651L90.5726 107.894ZM95.5101 129.999L91.1196 129.695L91.0993 129.988L91.118 130.28L95.5101 129.999ZM91.2386 150.387L92.904 154.461L92.9059 154.46L91.2386 150.387ZM73.0833 150.387L70.4879 153.941L70.4891 153.942L73.0833 150.387ZM72.1605 139.52L76.5608 139.6L76.6429 135.081L72.1233 135.119L72.1605 139.52ZM71.1195 139.524L71.1279 135.123L66.6377 135.114L66.7192 139.604L71.1195 139.524ZM70.1976 150.387L72.7931 153.941L72.797 153.938L70.1976 150.387ZM52.0423 150.387L50.377 154.461L50.3773 154.461L52.0423 150.387ZM47.7386 130.585L52.1364 130.753L52.1436 130.565L52.1347 130.377L47.7386 130.585ZM48.9779 121.136L53.2478 122.202L45.3778 118.604L48.9779 121.136ZM46.389 123.292L48.2278 127.291L48.2279 127.291L46.389 123.292ZM26.8275 132.288L24.9886 128.29L24.9886 128.29L26.8275 132.288ZM9.63705 125.929L5.63861 127.768L5.63862 127.768L9.63705 125.929ZM15.9964 108.739L17.8354 112.737L17.8356 112.737L15.9964 108.739ZM26.0619 104.109L24.2229 100.11L24.2227 100.11L26.0619 104.109ZM34.6576 107.288L30.6593 109.128L30.6596 109.128L34.6576 107.288ZM35.138 108.332L31.1401 110.172L32.8328 113.85L36.6387 112.47L35.138 108.332ZM56.0911 102.96L56.5463 107.338L58.8207 107.101L59.9346 105.104L56.0911 102.96ZM56.3509 102.5L60.1697 104.688L63.4201 99.0144L56.9402 98.1388L56.3509 102.5ZM28.3109 80.1389H23.9098V80.139L28.3109 80.1389ZM49.9642 43.7151L51.5988 47.8013L56.2202 45.9526L53.8195 41.5924L49.9642 43.7151ZM43.8372 30.7756L39.6318 32.073L39.6318 32.073L43.8372 30.7756ZM56.4945 6.02954V1.62851H56.4943L56.4945 6.02954ZM72.1097 30.7756L67.7565 31.423H76.4629L72.1097 30.7756ZM87.724 6.02954L87.7239 10.4306C91.5283 10.4306 94.176 12.5337 95.6745 16.0803C97.2434 19.7936 97.3284 24.7873 95.6135 29.1728L99.7122 30.7756L103.811 32.3785C106.304 26.0034 106.305 18.6241 103.783 12.6545C101.19 6.51824 95.7394 1.62856 87.724 1.62851L87.724 6.02954ZM99.7122 30.7756L95.6135 29.1728C94.3734 32.3439 92.0058 36.8928 89.3092 41.8997L93.1839 43.9866L97.0587 46.0735C99.7016 41.1664 102.341 36.1373 103.811 32.3785L99.7122 30.7756ZM93.1839 43.9866L91.4697 48.04C96.7424 50.2699 100.995 53.6694 103.979 58.6404C106.989 63.6554 108.893 70.583 108.893 80.1389H113.294H117.695C117.695 69.4393 115.562 60.8355 111.526 54.1106C107.463 47.3418 101.661 42.793 94.8981 39.9331L93.1839 43.9866ZM113.294 80.1389L108.893 80.1388C108.893 83.6507 107.947 86.375 106.361 88.5742C104.742 90.8195 102.279 92.7567 98.9094 94.3424L100.784 98.3245L102.658 102.307C107 100.263 110.792 97.4777 113.5 93.7229C116.242 89.922 117.695 85.3682 117.695 80.139L113.294 80.1389ZM100.784 98.3245L101.453 102.674C106.409 101.911 110.815 101.468 112.383 101.514L112.512 97.1145L112.641 92.7154C110.157 92.6423 104.993 93.2237 100.114 93.9747L100.784 98.3245ZM112.512 97.1145L112.383 101.514C112.366 101.513 112.359 101.512 112.361 101.512C112.362 101.512 112.373 101.514 112.392 101.519L113.463 97.2502L114.535 92.9817C113.937 92.8315 113.302 92.7348 112.642 92.7154L112.512 97.1145ZM113.463 97.2502L117.346 99.3217C119.15 95.9405 121.09 92.3651 122.697 89.4337L118.837 87.3186L114.978 85.2035C113.359 88.1573 111.403 91.7625 109.58 95.1788L113.463 97.2502ZM118.837 87.3186L122.73 85.2651C122.471 84.7742 122.463 84.1627 122.768 83.6343L118.956 81.4338L115.145 79.2333C113.275 82.473 113.324 86.3006 114.945 89.3721L118.837 87.3186ZM118.956 81.4338L122.768 83.6344C123.677 82.059 126.492 79.404 131.461 77.1946L129.673 73.1731L127.885 69.1516C122.011 71.7633 117.342 75.4287 115.145 79.2333L118.956 81.4338ZM129.673 73.1731L131.459 77.1955C129.94 77.8698 128.376 77.4119 127.429 76.5542C126.512 75.7239 125.969 74.3584 126.33 72.9247L130.598 73.9983L134.866 75.0719C135.781 71.4341 132.199 67.2362 127.887 69.1507L129.673 73.1731ZM130.598 73.9983L126.33 72.9231C125.343 76.8431 125.716 79.9026 125.895 81.9315C126.072 83.9408 126.001 84.5213 125.577 85.2559L129.388 87.4563L133.199 89.6567C135.102 86.3606 134.853 83.3172 134.663 81.1577C134.474 79.0178 134.289 77.3635 134.866 75.0735L130.598 73.9983ZM129.388 87.4563L125.577 85.2558C125.234 85.8491 124.736 86.0954 124.266 86.1239L124.533 90.5168L124.799 94.9098C128.188 94.7044 131.364 92.8352 133.199 89.6568L129.388 87.4563ZM124.533 90.5168L120.816 88.1594C118.869 91.2295 116.439 95.0245 114.183 98.4861L117.87 100.889L121.558 103.292C123.838 99.7922 126.288 95.9657 128.249 92.8743L124.533 90.5168ZM117.87 100.889L114.012 103.006C114.388 103.692 114.413 104.257 114.277 104.68C114.15 105.073 113.659 106.046 111.585 107.092L113.567 111.022L115.548 114.951C119.129 113.146 121.625 110.577 122.655 107.378C123.676 104.209 123.025 101.133 121.729 98.7716L117.87 100.889ZM113.567 111.022L111.585 107.092C109.703 108.041 106.76 108.223 102.974 107.495C99.311 106.79 95.5115 105.359 92.4514 103.914L90.5726 107.894L88.6938 111.874C92.1767 113.518 96.6997 115.251 101.311 116.138C105.799 117.002 111.081 117.204 115.548 114.951L113.567 111.022ZM90.5726 107.894L86.5376 109.651C89.4819 116.411 91.467 124.685 91.1196 129.695L95.5101 129.999L99.9006 130.304C100.388 123.275 97.8095 113.488 94.6075 106.136L90.5726 107.894ZM95.5101 129.999L91.118 130.28C91.2953 133.049 90.887 137.495 90.1067 141.434C89.7201 143.386 89.2774 145.029 88.8506 146.16C88.6336 146.736 88.4728 147.038 88.4055 147.144C88.2485 147.391 88.5677 146.725 89.5713 146.314L91.2386 150.387L92.9059 154.46C94.5041 153.806 95.4158 152.525 95.8389 151.858C96.3516 151.049 96.7585 150.136 97.0862 149.267C97.749 147.51 98.3043 145.348 98.7409 143.145C99.6068 138.775 100.145 133.514 99.9021 129.718L95.5101 129.999ZM91.2386 150.387L89.5733 146.313C89.659 146.278 89.5025 146.346 88.9368 146.44C88.4321 146.523 87.7746 146.6 86.9854 146.663C85.4101 146.789 83.498 146.846 81.5954 146.835C79.6898 146.824 77.8808 146.744 76.5105 146.615C75.817 146.55 75.3144 146.479 75.0002 146.417C74.8412 146.386 74.8014 146.371 74.8438 146.384C74.8679 146.392 74.9504 146.419 75.0702 146.474C75.179 146.523 75.4064 146.634 75.6776 146.832L73.0833 150.387L70.4891 153.942C71.1433 154.419 71.8061 154.653 72.1333 154.759C72.5346 154.888 72.9386 154.982 73.2971 155.053C74.0177 155.195 74.8449 155.3 75.6857 155.379C77.3841 155.539 79.4627 155.624 81.5433 155.637C83.6269 155.649 85.7995 155.588 87.6874 155.437C89.3643 155.303 91.4373 155.06 92.904 154.461L91.2386 150.387ZM73.0833 150.387L75.6788 146.833C76.2349 147.239 76.5413 147.679 76.6748 147.893C76.8208 148.126 76.8941 148.307 76.9193 148.372C76.9669 148.495 76.9529 148.496 76.912 148.29C76.8338 147.896 76.7503 147.231 76.6835 146.292C76.5523 144.447 76.5169 142.015 76.5608 139.6L72.1605 139.52L67.7602 139.44C67.7136 142 67.747 144.715 67.9036 146.916C67.9806 148 68.0957 149.083 68.2783 150.003C68.3678 150.454 68.4997 151.004 68.7097 151.547C68.8491 151.907 69.3126 153.083 70.4879 153.941L73.0833 150.387ZM72.1605 139.52L72.1233 135.119C71.787 135.122 71.4557 135.123 71.1279 135.123L71.1195 139.524L71.111 143.925C71.4772 143.925 71.8401 143.924 72.1977 143.921L72.1605 139.52ZM71.1195 139.524L66.7192 139.604C66.763 142.018 66.7277 144.449 66.5967 146.293C66.53 147.232 66.4466 147.897 66.3685 148.29C66.3276 148.496 66.3136 148.496 66.361 148.373C66.3862 148.308 66.4593 148.128 66.6049 147.895C66.7381 147.681 67.0436 147.242 67.5982 146.836L70.1976 150.387L72.797 153.938C73.9696 153.08 74.4321 151.906 74.5715 151.545C74.7812 151.003 74.913 150.454 75.0024 150.003C75.1848 149.083 75.2997 148 75.3767 146.917C75.533 144.716 75.5662 142.002 75.5198 139.444L71.1195 139.524ZM70.1976 150.387L67.6021 146.833C67.8735 146.635 68.1012 146.524 68.2101 146.474C68.3301 146.42 68.4127 146.392 68.4369 146.384C68.4794 146.371 68.4398 146.386 68.2809 146.417C67.9668 146.479 67.4644 146.55 66.7708 146.615C65.4007 146.744 63.5918 146.824 61.6861 146.835C59.7835 146.846 57.8713 146.789 56.2959 146.663C55.5066 146.6 54.849 146.523 54.3443 146.44C53.7785 146.346 53.6218 146.278 53.7074 146.313L52.0423 150.387L50.3773 154.461C51.8439 155.06 53.9168 155.303 55.594 155.437C57.4819 155.588 59.6546 155.649 61.7382 155.637C63.8187 155.624 65.8974 155.539 67.5958 155.379C68.4365 155.3 69.2637 155.195 69.9843 155.053C70.3428 154.982 70.7469 154.888 71.1482 154.758C71.4754 154.653 72.1386 154.419 72.7931 153.941L70.1976 150.387ZM52.0423 150.387L53.7077 146.313C54.6909 146.715 55.0165 147.362 54.8779 147.148C54.823 147.063 54.6732 146.792 54.4648 146.252C54.0549 145.192 53.6236 143.637 53.2396 141.765C52.4681 138.005 52.0256 133.657 52.1364 130.753L47.7386 130.585L43.3408 130.417C43.1954 134.226 43.75 139.308 44.6171 143.534C45.0523 145.656 45.6006 147.733 46.2543 149.425C46.5776 150.262 46.9805 151.146 47.4898 151.933C47.9152 152.59 48.8164 153.823 50.377 154.461L52.0423 150.387ZM47.7386 130.585L52.1347 130.377C52.0385 128.344 52.4214 125.512 53.2478 122.202L48.9779 121.136L44.7079 120.07C43.7907 123.744 43.1879 127.526 43.3425 130.793L47.7386 130.585ZM48.9779 121.136L45.3778 118.604C45.1726 118.896 44.8963 119.135 44.5501 119.294L46.389 123.292L48.2279 127.291C50.0367 126.459 51.5105 125.186 52.5779 123.667L48.9779 121.136ZM46.389 123.292L44.5502 119.294L24.9886 128.29L26.8275 132.288L28.6663 136.287L48.2278 127.291L46.389 123.292ZM26.8275 132.288L24.9886 128.29C20.6935 130.265 15.6108 128.385 13.6355 124.09L9.63705 125.929L5.63862 127.768C9.64519 136.479 19.955 140.293 28.6664 136.287L26.8275 132.288ZM9.63705 125.929L13.6355 124.09C11.6602 119.795 13.5405 114.712 17.8354 112.737L15.9964 108.739L14.1575 104.74C5.44592 108.747 1.63217 119.056 5.63861 127.768L9.63705 125.929ZM15.9964 108.739L17.8356 112.737L27.901 108.107L26.0619 104.109L24.2227 100.11L14.1573 104.74L15.9964 108.739ZM26.0619 104.109L27.9008 108.107C28.944 107.627 30.1793 108.084 30.6593 109.128L34.6576 107.288L38.6559 105.449C36.1446 99.9898 29.6827 97.5992 24.2229 100.11L26.0619 104.109ZM34.6576 107.288L30.6596 109.128L31.1401 110.172L35.138 108.332L39.136 106.492L38.6555 105.448L34.6576 107.288ZM35.138 108.332L36.6387 112.47C41.7831 110.604 52.138 107.796 56.5463 107.338L56.0911 102.96L55.636 98.5828C50.1974 99.1482 39.072 102.224 33.6374 104.195L35.138 108.332ZM56.0911 102.96L59.9346 105.104C60.0153 104.96 60.0933 104.821 60.1697 104.688L56.3509 102.5L52.5322 100.312C52.4358 100.481 52.3408 100.649 52.2477 100.816L56.0911 102.96ZM56.3509 102.5L56.9402 98.1388C49.1417 97.0852 42.9547 95.0506 38.8181 92.0508C34.8979 89.2079 32.712 85.4517 32.7119 80.1388L28.3109 80.1389L23.9098 80.139C23.91 88.4733 27.6153 94.7995 33.6507 99.1763C39.4696 103.396 47.3025 105.719 55.7616 106.862L56.3509 102.5ZM28.3109 80.1389H32.7119C32.7119 70.733 34.7643 63.7847 38.0203 58.6925C41.2621 53.6226 45.8932 50.0838 51.5988 47.8013L49.9642 43.7151L48.3296 39.6289C41.1684 42.4937 34.9728 47.1194 30.6046 53.9508C26.2507 60.7601 23.9098 69.4501 23.9098 80.1389H28.3109ZM49.9642 43.7151L53.8195 41.5924C51.113 36.6768 48.9385 32.3818 48.0427 29.4782L43.8372 30.7756L39.6318 32.073C40.8348 35.9726 43.4636 41.0334 46.1089 45.8378L49.9642 43.7151ZM43.8372 30.7756L48.0427 29.4782C46.6117 24.8398 46.8496 19.7547 48.4853 16.0334C50.0411 12.4938 52.6659 10.4307 56.4946 10.4306L56.4945 6.02954L56.4943 1.62851C48.5034 1.62875 43.0966 6.41843 40.4272 12.4916C37.8377 18.3832 37.6568 25.671 39.6318 32.073L43.8372 30.7756ZM56.4945 6.02954V10.4306C58.4583 10.4306 60.9432 12.2055 63.4222 17.1413C65.7162 21.7088 67.16 27.411 67.7565 31.423L72.1097 30.7756L76.4629 30.1283C75.7761 25.5096 74.1245 18.8387 71.2879 13.1908C68.6363 7.91128 63.9553 1.62851 56.4945 1.62851V6.02954ZM72.1097 30.7756L76.4629 31.423C77.0667 27.3624 78.4364 21.6655 80.6842 17.1153C83.0887 12.2479 85.5707 10.4306 87.724 10.4306L87.724 6.02954L87.724 1.62851C80.1179 1.62852 75.4345 7.86887 72.7926 13.2168C69.9939 18.882 68.4361 25.5582 67.7565 30.1283L72.1097 30.7756Z" fill="white"/>
<path d="M113.566 111.022C105.845 114.915 92.573 109.283 86.9021 105.98C86.5795 105.312 86.0624 103.584 86.5746 102.019C87.2148 100.062 107.688 96.9723 112.512 97.1143C117.336 97.2563 123.218 106.155 113.566 111.022Z" fill="#E7EAEE"/>
<path d="M91.2378 150.387C93.6375 149.406 95.974 136.333 95.5004 129.824L72.451 133.503C71.9774 138.785 71.9458 149.557 73.0825 150.387C74.5034 151.425 88.2383 151.613 91.2378 150.387Z" fill="#E7EAEE"/>
<path d="M93.0393 135.907C100.213 131.136 90.5157 101.378 83.5088 97.6302C76.502 93.8821 65.1056 94.4499 60.1006 97.6302C55.0957 100.81 42.7277 131.023 49.9013 135.907C57.075 140.79 85.8656 140.677 93.0393 135.907Z" fill="white"/>
<path d="M52.042 150.387C49.6423 149.406 47.3057 136.333 47.7794 129.824L70.8288 133.503C71.3024 138.785 71.334 149.557 70.1973 150.387C68.7764 151.425 55.0415 151.613 52.042 150.387Z" fill="white"/>
<path d="M89.8739 125.782C89.8739 134.707 82.2342 136.85 72.8102 136.85C63.3862 136.85 55.7466 134.707 55.7466 125.782C55.7466 114.049 63.3862 107.407 72.8102 107.407C82.2342 107.407 89.8739 114.049 89.8739 125.782Z" fill="#E7EAEE"/>
<path d="M73.3362 131.496C73.405 131.496 73.4731 131.483 73.5367 131.457C73.6004 131.431 73.6582 131.393 73.707 131.345L76.0312 129.007C76.1167 128.908 76.1614 128.78 76.1563 128.649C76.1513 128.519 76.0968 128.395 76.0038 128.302C75.9108 128.21 75.7861 128.155 75.6546 128.15C75.5232 128.145 75.3947 128.19 75.2947 128.275L72.9654 130.587C72.9165 130.635 72.8776 130.692 72.8511 130.756C72.8246 130.819 72.8109 130.887 72.8109 130.955C72.8109 131.024 72.8246 131.092 72.8511 131.155C72.8776 131.219 72.9165 131.276 72.9654 131.324C73.0125 131.376 73.0695 131.418 73.1332 131.448C73.197 131.477 73.266 131.493 73.3362 131.496Z" fill="#FFC0C1"/>
<path d="M75.6355 131.496C75.7037 131.496 75.7713 131.483 75.8345 131.457C75.8976 131.431 75.955 131.393 76.0035 131.345C76.052 131.297 76.0906 131.24 76.1169 131.177C76.1432 131.114 76.1567 131.046 76.1567 130.977C76.1567 130.909 76.1432 130.841 76.1169 130.778C76.0906 130.715 76.052 130.658 76.0035 130.609L73.6975 128.303C73.6493 128.255 73.592 128.216 73.5288 128.19C73.4657 128.163 73.3979 128.15 73.3295 128.15C73.2611 128.15 73.1934 128.163 73.1303 128.19C73.0671 128.216 73.0098 128.255 72.9616 128.303C72.8651 128.4 72.8109 128.532 72.8109 128.669C72.8109 128.805 72.8651 128.937 72.9616 129.034L75.2728 131.345C75.3693 131.441 75.4996 131.495 75.6355 131.496Z" fill="#FFC0C1"/>
<path d="M43.8374 30.7756C46.514 39.4518 57.975 56.4385 60.3992 63.5416H83.318C85.7422 56.4385 96.3196 39.4518 99.7125 30.7756C103.921 20.015 99.544 6.02915 87.724 6.02917C77.9647 6.02919 73.3929 22.1449 72.1096 30.7756C70.8262 22.1449 65.9198 6.02917 56.4951 6.02917C44.6752 6.02917 40.4314 19.7349 43.8374 30.7756Z" fill="white"/>
<path d="M113.294 80.1385C113.294 97.6006 94.1459 103.391 70.8729 103.391C47.5999 103.391 28.3105 97.6006 28.3105 80.1385C28.3105 50.3638 47.5999 40.1553 70.8729 40.1553C94.1459 40.1553 113.294 48.9459 113.294 80.1385Z" fill="white"/>
<path d="M55.0776 74.9519V80.3052" stroke="#123041" stroke-width="5.01872" stroke-linecap="round"/>
<path d="M95.562 74.9519V80.3052" stroke="#123041" stroke-width="5.01872" stroke-linecap="round"/>
<path d="M45.0405 88.0017H50.0592" stroke="#FFC0C1" stroke-width="6.69163" stroke-linecap="round"/>
<path d="M100.581 88.0017H105.6" stroke="#FFC0C1" stroke-width="6.69163" stroke-linecap="round"/>
<path d="M73.9527 75.6205C74.6094 75.6205 74.9104 75.8942 75.3209 76.168C75.7313 75.8942 76.0323 75.6205 76.689 75.6205C77.5099 75.6205 77.9868 76.4809 77.7835 76.9892C77.5099 77.6736 76.5066 78.358 75.3209 78.6317C74.1352 78.358 73.1319 77.6736 72.8583 76.9892C72.655 76.4809 73.1319 75.6205 73.9527 75.6205Z" fill="#FFC0C1"/>
<path d="M69.1299 83.6649C70.0986 85.3287 73.016 88.5096 76.9357 87.9229" stroke="#FFC0C1" stroke-width="1.67291" stroke-linecap="round" stroke-linejoin="round"/>
<path d="M68.8345 82.9819C68.809 83.1401 68.7954 83.3023 68.7954 83.4673C68.7955 85.0553 70.0218 86.3704 71.6235 86.6069C71.236 87.6076 70.2678 88.3187 69.1304 88.3188C67.6521 88.3188 66.4537 87.1203 66.4536 85.6421C66.4536 84.2637 67.4953 83.1291 68.8345 82.9819Z" fill="#FFC0C1"/>
<path d="M37.6057 122.367C46.2432 122.776 56.0681 112.224 59.9008 106.897C59.9232 106.155 59.6915 104.367 58.5859 103.146C57.2038 101.62 37.2487 107.142 32.9014 109.237C28.554 111.332 26.8087 121.856 37.6057 122.367Z" fill="white"/>
<path d="M42.1133 110.993C39.491 112.199 36.3876 111.051 35.1816 108.428L34.6575 107.289C33.162 104.037 29.3137 102.614 26.0621 104.109L15.9962 108.738C9.49299 111.729 6.64568 119.426 9.63661 125.929C12.6275 132.432 20.3241 135.28 26.8273 132.289L46.3893 123.292C49.6409 121.796 51.0646 117.948 49.5691 114.697L49.045 113.557C47.839 110.935 44.7356 109.787 42.1133 110.993Z" fill="#D4A65B"/>
<path d="M107.722 108.801C107.727 107.722 115.97 92.5071 120.091 85.0347L125.886 88.3805C121.331 95.602 111.986 110.181 111.054 110.725C109.889 111.404 107.716 110.149 107.722 108.801Z" fill="#D70000"/>
<path d="M129.388 87.4565C127.652 90.4623 124.016 91.3685 121.135 89.7055C118.255 88.0424 117.279 84.3392 118.956 81.4341C120.509 78.744 124.251 75.5837 129.672 73.1732C130.194 72.9415 130.737 73.4458 130.598 73.9987C129.033 80.2089 131.715 83.4258 129.388 87.4565Z" fill="#533023"/>
<mask id="mask0_2746_5900" style="mask-type:alpha" maskUnits="userSpaceOnUse" x="118" y="73" width="13" height="18">
<path d="M129.387 87.457C127.652 90.4628 124.015 91.369 121.135 89.706C118.254 88.0429 117.279 84.3397 118.956 81.4345C120.509 78.7445 124.25 75.5842 129.672 73.1736C130.193 72.942 130.737 73.4462 130.597 73.9992C129.033 80.2094 131.714 83.4262 129.387 87.457Z" fill="#533023"/>
</mask>
<g mask="url(#mask0_2746_5900)">
<path d="M122.491 78.3201C121.965 77.0894 125.446 73.2011 127.253 71.4108L132.983 70.8556L134.657 81.6738C133.664 82.3888 131.39 83.6513 130.231 82.9821C128.782 82.1457 128.727 80.5684 128.148 80.2339C127.568 79.8993 126.793 81.5766 125.779 80.9911C124.765 80.4055 125.479 78.4997 124.983 78.0203C124.487 77.5408 123.148 79.8585 122.491 78.3201Z" fill="#FFC5AB"/>
</g>
<path d="M48.3253 52.0658C45.093 51.1855 46.3213 55.737 44.3805 55.9963C42.4392 56.2558 39.295 54.1952 38.6455 55.5943C37.9961 56.9934 42.0651 58.7426 42.1769 59.7947C42.2886 60.8468 38.8901 65.4101 40.6359 66.8207C42.3817 68.2312 43.1662 63.094 44.8562 63.9785C46.5461 64.863 47.3271 65.2056 48.7777 64.8387C50.2283 64.4719 47.7931 63.0813 48.1157 61.6107C48.4383 60.14 54.576 61.829 54.751 59.4696C54.926 57.1102 49.6538 60.0641 48.8684 58.1792C48.083 56.2942 51.5575 52.9461 48.3253 52.0658Z" fill="#9EE7E5"/>
<mask id="mask1_2746_5900" style="mask-type:alpha" maskUnits="userSpaceOnUse" x="42" y="6" width="60" height="58">
<path d="M43.836 30.7756C46.5126 39.4518 57.9736 56.4385 60.3977 63.5416H83.3166C85.7407 56.4385 96.3182 39.4518 99.7111 30.7756C103.919 20.015 99.5425 6.02915 87.7225 6.02917C77.9633 6.02919 73.3915 22.1449 72.1081 30.7756C70.8247 22.1449 65.9183 6.02917 56.4936 6.02917C44.6737 6.02917 40.4299 19.7349 43.836 30.7756Z" fill="white"/>
</mask>
<g mask="url(#mask1_2746_5900)">
<path d="M89.3157 9.03423C90.8771 7.91396 86.193 5.44937 87.5313 3.43289C88.6466 1.64046 90.208 3.65674 92.8846 3.43268C94.1244 3.32891 94.0721 3.22518 93.8582 3.16597C93.2704 3.09216 93.6448 3.10689 93.8582 3.16597C93.9531 3.17789 94.0731 3.19211 94.2229 3.20883C95.8289 3.38808 96.3791 5.07595 96.4535 5.89748L105.599 21.5812C104.781 25.4648 102.431 33.1424 99.5762 32.7839C96.0074 32.3358 99.1301 24.4939 97.7918 24.0458C96.4535 23.5977 95.7843 29.8712 94.2229 28.0788C92.6616 26.2864 96.4535 20.2369 95.3382 19.7888C94.2229 19.3407 90.431 29.4231 87.9774 26.5104C85.5238 23.5977 94.2229 19.3407 92.8846 17.1002C91.5463 14.8596 85.7469 20.0129 85.5238 17.5483C85.3008 15.0837 91.7693 14.6356 91.7693 12.8431C91.7693 11.0507 82.8472 13.5153 82.8472 10.8267C82.8472 8.13802 87.3609 10.4368 89.3157 9.03423Z" fill="#AFD157"/>
</g>
<path d="M84.8556 117.279C83.1826 116.61 82.0116 110.922 80.1714 112.427C78.3312 113.933 84.3537 119.453 84.3537 120.29C84.3537 121.126 79.335 119.453 79.335 121.293C79.335 123.134 84.1864 122.13 84.8556 123.134C85.5247 124.137 82.1789 125.81 83.3499 126.647C84.521 127.483 84.8556 126.479 86.5285 126.647C88.2014 126.814 88.8705 128.654 90.0416 127.818C91.2126 126.981 88.8705 125.141 89.2051 124.137C89.5397 123.134 92.3836 124.639 92.5509 122.799C92.7182 120.959 87.6995 120.791 87.8668 119.453C88.0341 118.115 91.7145 117.279 91.0453 116.107C90.3761 114.936 88.2014 117.78 87.3649 116.609C86.5285 115.438 88.2014 111.925 86.1939 111.925C84.1864 111.925 86.5285 117.948 84.8556 117.279Z" fill="#FFC53D"/>
<ellipse cx="15.9319" cy="125.474" rx="2.34207" ry="2.34207" fill="#9EE7E5"/>
<ellipse cx="24.2967" cy="126.813" rx="2.34207" ry="2.34207" fill="#AFD157"/>
<ellipse cx="33.9983" cy="123.801" rx="2.34207" ry="2.34207" fill="#FFC53D"/>
<path fill-rule="evenodd" clip-rule="evenodd" d="M17.2705 114.104C19.8129 113.971 16.9353 116.279 15.4297 118.956L15.4082 118.919C14.9788 119.448 14.3243 119.787 13.5898 119.787C12.2966 119.787 11.2481 118.738 11.248 117.445C11.248 116.262 12.1259 115.286 13.2656 115.128L13.2549 115.108C14.2586 114.439 14.7277 114.238 17.2705 114.104Z" fill="#FFC5AB"/>
</svg>
