<svg width="115" height="122" viewBox="0 0 115 122" fill="none" xmlns="http://www.w3.org/2000/svg">
<path fill-rule="evenodd" clip-rule="evenodd" d="M82.8493 12.2065C84.5002 12.2073 87.114 16.645 87.114 22.1187C87.114 23.0368 87.0573 23.8015 86.9567 24.439C87.0819 24.5437 87.2053 24.6504 87.3288 24.7573C87.3945 24.8142 87.4598 24.8716 87.5251 24.9292C87.6714 25.0583 87.8168 25.1885 87.9606 25.3208C88.0147 25.3705 88.068 25.421 88.1218 25.4712C88.1913 25.5361 88.2618 25.5999 88.3308 25.6655C89.3435 24.331 91.1437 22.8518 94.0788 21.1147C99.018 18.1918 105.102 19.3367 107.668 23.6724C110.234 28.008 108.31 33.8929 103.371 36.8159C100.429 38.557 98.2573 39.4058 96.5895 39.6255C96.8836 40.6138 97.1438 41.6399 97.3757 42.7036C97.392 42.7787 97.4094 42.8537 97.4255 42.9292C97.6926 42.9712 97.9442 43.0143 98.1784 43.0591C98.6582 43.1508 99.0928 43.253 99.4499 43.3696C99.7509 43.468 100.191 43.6347 100.504 43.9468L100.556 43.9995L100.601 44.0581C100.954 44.5161 101.184 45.1672 101.351 45.8003C101.529 46.4721 101.672 47.2788 101.784 48.1587C102.007 49.9211 102.111 52.064 102.069 54.1919C102.027 56.3151 101.839 58.4706 101.46 60.2456C101.321 60.8946 101.153 61.5128 100.948 62.0698H101.953C102.859 62.0698 103.593 62.8037 103.593 63.7095V95.5308C103.593 96.4366 102.859 97.1704 101.953 97.1704H96.3942C96.3881 97.1706 96.3818 97.1724 96.3757 97.1724H90.7712C92.9406 97.7299 94.4836 98.4255 94.8229 99.3032C96.218 102.912 91.0502 110.949 86.8044 113.459C85.3612 114.312 71.0052 114.335 65.1374 112.662C64.3754 113.39 63.6029 114.003 62.8571 114.444C61.2238 115.41 43.0309 115.313 39.3552 112.892C36.7466 111.174 35.1036 109.109 34.4001 107.008C33.8183 105.755 33.597 104.068 33.652 102.104C33.6601 101.816 33.6723 101.521 33.6921 101.221C33.6966 101.153 33.7026 101.085 33.7077 101.016C33.7361 100.632 33.7728 100.239 33.819 99.8384C33.8301 99.7428 33.8422 99.6468 33.8542 99.5503C33.8699 99.4241 33.8847 99.297 33.902 99.1694C33.9151 99.0734 33.931 98.9772 33.945 98.8804C33.9994 98.504 34.059 98.1218 34.1267 97.7349C34.1481 97.6125 34.1714 97.49 34.194 97.3667C34.2628 96.9928 34.3366 96.6146 34.4167 96.2329C34.4396 96.1237 34.4642 96.0145 34.488 95.9048C34.574 95.5079 34.6643 95.107 34.7614 94.7036C34.799 94.5474 34.8384 94.3909 34.8776 94.2339C34.9032 94.1316 34.9276 94.0288 34.9538 93.9263C34.993 93.7728 35.0343 93.6194 35.0749 93.4653C35.9587 90.1103 37.1749 86.6157 38.5075 83.4077C37.9264 82.6425 37.3918 81.8944 36.9069 81.1909C36.0338 79.3322 36.7749 76.7969 38.2038 76.1841C24.6668 73.4678 15.2704 67.0858 15.2702 55.0181C15.2702 49.0435 16.0636 43.8725 17.5192 39.4263C16.0084 39.0447 14.1353 38.2214 11.7604 36.8159C6.82135 33.8929 4.89772 28.008 7.46357 23.6724C10.0294 19.3367 16.1133 18.1918 21.0524 21.1147C23.7572 22.7154 25.4975 24.0977 26.5466 25.3491C26.789 25.1339 27.0341 24.9224 27.2829 24.7153C27.1516 24.026 27.0808 23.1734 27.0808 22.1187C27.0808 16.6445 29.6946 12.2065 31.3454 12.2065C32.7495 12.2072 34.8474 15.4174 35.444 19.7446C41.7597 17.0003 49.1494 15.815 57.0017 15.8149C58.5913 15.8149 60.1614 15.8586 61.7067 15.9468C61.7308 15.9482 61.7549 15.9493 61.779 15.9507C63.5738 16.0548 65.3351 16.222 67.0554 16.4585C67.0859 16.4627 67.1166 16.466 67.1472 16.4702C67.3886 16.5038 67.629 16.5403 67.8688 16.5767C67.9271 16.5855 67.9854 16.594 68.0436 16.603C68.605 16.6899 69.1618 16.7837 69.7136 16.8862C69.724 16.8882 69.7344 16.8901 69.7448 16.8921C70.0175 16.9429 70.289 16.9955 70.5593 17.0503C70.5785 17.0542 70.5977 17.0581 70.6169 17.062C71.9684 17.3374 73.2886 17.6631 74.5739 18.0415C74.6378 18.0603 74.7016 18.0791 74.7653 18.0981C74.9885 18.165 75.2103 18.2341 75.4313 18.3042C75.4675 18.3157 75.5037 18.3268 75.5397 18.3384C75.7632 18.4099 75.9855 18.4832 76.2067 18.5581C76.268 18.5789 76.3292 18.5996 76.3903 18.6206C76.606 18.6948 76.8205 18.7707 77.0339 18.8481C77.0734 18.8625 77.1126 18.8776 77.152 18.8921C77.3719 18.9727 77.5909 19.054 77.8083 19.1382C77.8579 19.1574 77.9072 19.1774 77.9567 19.1968C78.2329 19.3051 78.5069 19.4166 78.779 19.5308C79.4141 15.3116 81.4685 12.2065 82.8493 12.2065ZM97.8727 45.3403C97.9111 45.5801 97.9487 45.8216 97.9841 46.0649C97.9933 46.1286 98.0024 46.1924 98.0114 46.2563C98.0567 46.5765 98.0992 46.8997 98.1394 47.2261C98.1516 47.3257 98.1627 47.4257 98.1745 47.5259C98.449 49.8629 98.5954 52.3573 98.5954 55.0181C98.5954 57.6281 98.1561 59.9712 97.3356 62.0698H98.4274C98.4883 61.9678 98.5529 61.8451 98.6198 61.6987C98.8431 61.2098 99.0452 60.5572 99.2145 59.7651C99.5527 58.1829 99.7329 56.1854 99.7731 54.147C99.8132 52.1131 99.7128 50.0824 99.5056 48.4468C99.4018 47.628 99.2736 46.9282 99.1306 46.3862C99.0273 45.9951 98.9297 45.7441 98.8601 45.5991C98.8281 45.5868 98.7873 45.569 98.736 45.5522C98.5312 45.4854 98.2441 45.4146 97.8727 45.3403Z" fill="white"/>
<path d="M82.8493 12.2065L82.8512 8.15654H82.8493V12.2065ZM87.114 22.1187L91.164 22.1187V22.1187H87.114ZM86.9567 24.439L82.9562 23.808L82.5989 26.0734L84.3578 27.5451L86.9567 24.439ZM87.3288 24.7573L89.9802 21.6959L89.9802 21.6959L87.3288 24.7573ZM87.5251 24.9292L84.8459 27.9664L84.8459 27.9664L87.5251 24.9292ZM87.9606 25.3208L90.7016 22.3392L90.7016 22.3392L87.9606 25.3208ZM88.1218 25.4712L85.3578 28.4314L85.3578 28.4314L88.1218 25.4712ZM88.3308 25.6655L85.5372 28.5979L88.8178 31.7232L91.5569 28.1139L88.3308 25.6655ZM94.0788 21.1147L92.0162 17.6293L92.0161 17.6294L94.0788 21.1147ZM107.668 23.6724L111.153 21.6097V21.6097L107.668 23.6724ZM103.371 36.8159L105.433 40.3013L105.434 40.3013L103.371 36.8159ZM96.5895 39.6255L96.0606 35.6102L91.3537 36.2303L92.7078 40.7806L96.5895 39.6255ZM97.3757 42.7036L93.4186 43.5661L93.4186 43.5661L97.3757 42.7036ZM97.4255 42.9292L93.4641 43.7717L94.0437 46.4972L96.7964 46.93L97.4255 42.9292ZM98.1784 43.0591L98.9389 39.0811L98.9387 39.0811L98.1784 43.0591ZM99.4499 43.3696L100.708 39.5201L100.708 39.5199L99.4499 43.3696ZM100.504 43.9468L103.367 41.083L103.367 41.0824L100.504 43.9468ZM100.556 43.9995L103.77 41.5354L103.608 41.324L103.42 41.1357L100.556 43.9995ZM100.601 44.0581L97.3872 46.5223L97.3913 46.5276L100.601 44.0581ZM101.351 45.8003L105.267 44.7671L105.267 44.7669L101.351 45.8003ZM101.784 48.1587L105.802 47.6497L105.802 47.6496L101.784 48.1587ZM102.069 54.1919L106.118 54.2717V54.2717L102.069 54.1919ZM101.46 60.2456L105.42 61.0923L105.42 61.092L101.46 60.2456ZM100.948 62.0698L97.1467 60.6724L95.1441 66.1198H100.948V62.0698ZM101.953 62.0698L101.953 58.0198H101.953V62.0698ZM103.593 63.7095H107.643V63.7089L103.593 63.7095ZM103.593 95.5308L107.643 95.5312V95.5308H103.593ZM101.953 97.1704V101.22H101.953L101.953 97.1704ZM96.3942 97.1704V93.1204H96.3386L96.2831 93.1219L96.3942 97.1704ZM90.7712 97.1724V93.1224L89.763 101.095L90.7712 97.1724ZM94.8229 99.3032L98.6005 97.8429L98.6004 97.8427L94.8229 99.3032ZM86.8044 113.459L88.865 116.946L88.8659 116.946L86.8044 113.459ZM65.1374 112.662L66.2481 108.767L64.0172 108.131L62.3397 109.733L65.1374 112.662ZM62.8571 114.444L64.9187 117.93L64.9187 117.93L62.8571 114.444ZM39.3552 112.892L37.1273 116.274L37.1275 116.274L39.3552 112.892ZM34.4001 107.008L38.2405 105.722L38.1686 105.508L38.0733 105.302L34.4001 107.008ZM33.652 102.104L37.7005 102.218L37.7005 102.217L33.652 102.104ZM33.6921 101.221L29.6509 100.954L29.6509 100.955L33.6921 101.221ZM33.7077 101.016L37.7466 101.315L37.7467 101.315L33.7077 101.016ZM33.819 99.8384L29.7958 99.3736L29.7958 99.374L33.819 99.8384ZM33.8542 99.5503L37.8731 100.051L37.8731 100.051L33.8542 99.5503ZM33.902 99.1694L29.8891 98.6231L29.889 98.6234L33.902 99.1694ZM33.945 98.8804L37.9534 99.4597L37.9534 99.4593L33.945 98.8804ZM34.1267 97.7349L30.1373 97.0367L30.1372 97.037L34.1267 97.7349ZM34.194 97.3667L38.1771 98.0997L38.1772 98.0994L34.194 97.3667ZM34.4167 96.2329L30.453 95.4013L30.4529 95.4015L34.4167 96.2329ZM34.488 95.9048L38.446 96.7629L38.4461 96.7627L34.488 95.9048ZM34.7614 94.7036L30.824 93.7554L30.8239 93.7556L34.7614 94.7036ZM34.8776 94.2339L38.807 95.2148L38.8071 95.2146L34.8776 94.2339ZM34.9538 93.9263L31.0296 92.9246L31.0296 92.9248L34.9538 93.9263ZM35.0749 93.4653L38.9912 94.4972L38.9913 94.497L35.0749 93.4653ZM38.5075 83.4077L42.2477 84.9614L43.1405 82.8121L41.733 80.9585L38.5075 83.4077ZM36.9069 81.1909L33.2412 82.9129L33.383 83.2147L33.5722 83.4892L36.9069 81.1909ZM38.2038 76.1841L39.8002 79.9062L51.7649 74.7745L39.0006 72.2132L38.2038 76.1841ZM15.2702 55.0181H11.2202V55.0181L15.2702 55.0181ZM17.5192 39.4263L21.3682 40.6864L22.7184 36.5621L18.5109 35.4995L17.5192 39.4263ZM11.7604 36.8159L9.69773 40.3013L9.69778 40.3013L11.7604 36.8159ZM7.46357 23.6724L3.97818 21.6097L3.97818 21.6097L7.46357 23.6724ZM21.0524 21.1147L23.1151 17.6294L23.115 17.6293L21.0524 21.1147ZM26.5466 25.3491L23.4429 27.951L26.1197 31.1439L29.2354 28.3778L26.5466 25.3491ZM27.2829 24.7153L29.874 27.828L31.7078 26.3014L31.2614 23.9575L27.2829 24.7153ZM27.0808 22.1187H23.0308V22.1187L27.0808 22.1187ZM31.3454 12.2065L31.3473 8.15654H31.3454V12.2065ZM35.444 19.7446L31.432 20.2978L32.1612 25.587L37.0581 23.4591L35.444 19.7446ZM57.0017 15.8149V11.7649H57.0016L57.0017 15.8149ZM61.7067 15.9468L61.9374 11.9034L61.7067 15.9468ZM61.779 15.9507L62.0136 11.9075V11.9075L61.779 15.9507ZM67.0554 16.4585L66.5037 20.4708L66.5038 20.4708L67.0554 16.4585ZM67.1472 16.4702L67.7049 12.4588L67.7049 12.4588L67.1472 16.4702ZM67.8688 16.5767L67.2619 20.5809L67.2619 20.5809L67.8688 16.5767ZM68.0436 16.603L68.6628 12.6006L68.6627 12.6006L68.0436 16.603ZM69.7136 16.8862L68.9738 20.8681L68.9739 20.8681L69.7136 16.8862ZM69.7448 16.8921L70.4869 12.9107L70.4869 12.9107L69.7448 16.8921ZM70.5593 17.0503L69.7551 21.0197L69.7551 21.0197L70.5593 17.0503ZM70.6169 17.062L71.4255 13.0936L71.4255 13.0936L70.6169 17.062ZM74.5739 18.0415L73.4301 21.9266L73.4301 21.9266L74.5739 18.0415ZM74.7653 18.0981L75.9268 14.2183L75.9268 14.2183L74.7653 18.0981ZM75.4313 18.3042L74.2072 22.1648L74.2072 22.1648L75.4313 18.3042ZM75.5397 18.3384L76.7743 14.4811L76.7742 14.4811L75.5397 18.3384ZM76.2067 18.5581L74.9074 22.394L74.9074 22.394L76.2067 18.5581ZM76.3903 18.6206L77.7079 14.7909L77.7078 14.7909L76.3903 18.6206ZM77.0339 18.8481L75.6516 22.6549L75.6516 22.655L77.0339 18.8481ZM77.152 18.8921L78.5465 15.0897L78.5464 15.0897L77.152 18.8921ZM77.8083 19.1382L76.3458 22.9149L76.3458 22.9149L77.8083 19.1382ZM77.9567 19.1968L79.435 15.4262L79.4349 15.4262L77.9567 19.1968ZM78.779 19.5308L77.2122 23.2654L82.0095 25.278L82.7839 20.1336L78.779 19.5308ZM97.8727 45.3403L98.6667 41.3689L92.9534 40.2267L93.8736 45.9799L97.8727 45.3403ZM97.9841 46.0649L93.9762 46.6474V46.6475L97.9841 46.0649ZM98.0114 46.2563L102.021 45.6887L102.021 45.6886L98.0114 46.2563ZM98.1394 47.2261L94.1197 47.7206L94.1197 47.7206L98.1394 47.2261ZM98.1745 47.5259L102.197 47.0534L102.197 47.0534L98.1745 47.5259ZM98.5954 55.0181L102.645 55.0181V55.0181H98.5954ZM97.3356 62.0698L93.5637 60.5951L91.4037 66.1198H97.3356V62.0698ZM98.4274 62.0698V66.1198H100.727L101.905 64.1449L98.4274 62.0698ZM98.6198 61.6987L102.303 63.382L102.304 63.3813L98.6198 61.6987ZM99.2145 59.7651L103.175 60.6117L103.175 60.6115L99.2145 59.7651ZM99.7731 54.147L103.822 54.2268V54.2268L99.7731 54.147ZM99.5056 48.4468L103.523 47.9378L103.523 47.9376L99.5056 48.4468ZM99.1306 46.3862L103.047 45.353L103.046 45.3527L99.1306 46.3862ZM98.8601 45.5991L102.511 43.8454L101.816 42.3999L100.32 41.8216L98.8601 45.5991ZM98.736 45.5522L99.9951 41.7029L99.9933 41.7023L98.736 45.5522ZM82.8493 12.2065L82.8474 16.2565C81.5596 16.2559 81.0275 15.5143 81.2776 15.7772C81.3822 15.8871 81.6436 16.2246 81.9486 16.8609C82.549 18.1135 83.064 19.9936 83.064 22.1187H87.114H91.164C91.164 18.77 90.372 15.6945 89.2528 13.3597C88.698 12.2023 87.9964 11.088 87.1466 10.1946C86.4423 9.45423 84.9644 8.15755 82.8512 8.15654L82.8493 12.2065ZM87.114 22.1187L83.064 22.1186C83.0639 22.877 83.0167 23.4246 82.9562 23.808L86.9567 24.439L90.9573 25.0699C91.0979 24.1784 91.1639 23.1966 91.164 22.1187L87.114 22.1187ZM86.9567 24.439L84.3578 27.5451C84.4531 27.6249 84.5524 27.7105 84.6774 27.8188L87.3288 24.7573L89.9802 21.6959C89.8583 21.5902 89.7106 21.4625 89.5557 21.3328L86.9567 24.439ZM87.3288 24.7573L84.6774 27.8188C84.7292 27.8637 84.7838 27.9116 84.8459 27.9664L87.5251 24.9292L90.2043 21.892C90.1359 21.8317 90.0598 21.7648 89.9802 21.6959L87.3288 24.7573ZM87.5251 24.9292L84.8459 27.9664C84.9766 28.0816 85.1007 28.193 85.2197 28.3024L87.9606 25.3208L90.7016 22.3392C90.5328 22.1841 90.3662 22.0349 90.2043 21.892L87.5251 24.9292ZM87.9606 25.3208L85.2197 28.3024C85.2598 28.3392 85.2744 28.3536 85.3578 28.4314L88.1218 25.4712L90.8857 22.511C90.8617 22.4885 90.7697 22.4018 90.7016 22.3392L87.9606 25.3208ZM88.1218 25.4712L85.3578 28.4314C85.503 28.567 85.476 28.5395 85.5372 28.5979L88.3308 25.6655L91.1243 22.7332C91.066 22.6777 91.0121 22.6278 90.974 22.5925C90.929 22.551 90.9095 22.5332 90.8857 22.5109L88.1218 25.4712ZM88.3308 25.6655L91.5569 28.1139C92.098 27.4009 93.3672 26.242 96.1415 24.6001L94.0788 21.1147L92.0161 17.6294C88.9202 19.4616 86.5891 21.2611 85.1046 23.2172L88.3308 25.6655ZM94.0788 21.1147L96.1414 24.6002C99.5965 22.5555 103 23.7373 104.182 25.735L107.668 23.6724L111.153 21.6097C107.204 14.9361 98.4395 13.8281 92.0162 17.6293L94.0788 21.1147ZM107.668 23.6724L104.182 25.735C105.365 27.7332 104.763 31.2861 101.308 33.3306L103.371 36.8159L105.434 40.3013C111.857 36.4996 115.102 28.2829 111.153 21.6097L107.668 23.6724ZM103.371 36.8159L101.308 33.3305C98.539 34.9693 96.9257 35.4962 96.0606 35.6102L96.5895 39.6255L97.1185 43.6408C99.589 43.3153 102.318 42.1448 105.433 40.3013L103.371 36.8159ZM96.5895 39.6255L92.7078 40.7806C92.9697 41.6608 93.2055 42.5884 93.4186 43.5661L97.3757 42.7036L101.333 41.8411C101.082 40.6915 100.798 39.5668 100.471 38.4704L96.5895 39.6255ZM97.3757 42.7036L93.4186 43.5661C93.4564 43.7397 93.4446 43.6803 93.4641 43.7717L97.4255 42.9292L101.387 42.0867C101.374 42.027 101.362 41.9718 101.353 41.9328C101.343 41.888 101.338 41.8651 101.333 41.8411L97.3757 42.7036ZM97.4255 42.9292L96.7964 46.93C97.0302 46.9668 97.2368 47.0024 97.4181 47.0371L98.1784 43.0591L98.9387 39.0811C98.6516 39.0262 98.3551 38.9756 98.0546 38.9284L97.4255 42.9292ZM98.1784 43.0591L97.4179 47.037C97.8185 47.1136 98.066 47.1782 98.1922 47.2194L99.4499 43.3696L100.708 39.5199C100.12 39.3278 99.4979 39.188 98.9389 39.0811L98.1784 43.0591ZM99.4499 43.3696L98.1916 47.2192C98.2638 47.2428 98.2367 47.238 98.1677 47.2037C98.1062 47.1731 97.8896 47.0602 97.6404 46.8112L100.504 43.9468L103.367 41.0824C102.321 40.0374 101.06 39.6351 100.708 39.5201L99.4499 43.3696ZM100.504 43.9468L97.6398 46.8106L97.6926 46.8633L100.556 43.9995L103.42 41.1357L103.367 41.083L100.504 43.9468ZM100.556 43.9995L97.3422 46.4637L97.3872 46.5223L100.601 44.0581L103.815 41.594L103.77 41.5354L100.556 43.9995ZM100.601 44.0581L97.3913 46.5276C97.3288 46.4464 97.2967 46.3895 97.2876 46.373C97.2782 46.3556 97.2829 46.3619 97.2981 46.399C97.3314 46.4802 97.3788 46.6196 97.4353 46.8337L101.351 45.8003L105.267 44.7669C105.074 44.0362 104.682 42.7203 103.811 41.5886L100.601 44.0581ZM101.351 45.8003L97.4353 46.8335C97.5522 47.2767 97.6682 47.8955 97.766 48.6678L101.784 48.1587L105.802 47.6496C105.677 46.6622 105.505 45.6675 105.267 44.7671L101.351 45.8003ZM101.784 48.1587L97.766 48.6677C97.9608 50.2059 98.0585 52.1495 98.0198 54.1121L102.069 54.1919L106.118 54.2717C106.163 51.9786 106.053 49.6363 105.802 47.6497L101.784 48.1587ZM102.069 54.1919L98.0198 54.112C97.9809 56.0861 97.8058 57.9641 97.4991 59.3992L101.46 60.2456L105.42 61.092C105.872 58.9772 106.073 56.5441 106.118 54.2717L102.069 54.1919ZM101.46 60.2456L97.4991 59.399C97.3884 59.9171 97.2682 60.3419 97.1467 60.6724L100.948 62.0698L104.749 63.4673C105.037 62.6836 105.253 61.8721 105.42 61.0923L101.46 60.2456ZM100.948 62.0698V66.1198H101.953V62.0698V58.0198H100.948V62.0698ZM101.953 62.0698L101.953 66.1198C100.624 66.1198 99.5437 65.0432 99.5434 63.7101L103.593 63.7095L107.643 63.7089C107.643 60.5643 105.093 58.0199 101.953 58.0198L101.953 62.0698ZM103.593 63.7095H99.5434V95.5308H103.593H107.643V63.7095H103.593ZM103.593 95.5308L99.5434 95.5303C99.5436 94.197 100.625 93.1204 101.953 93.1204L101.953 97.1704L101.953 101.22C105.093 101.22 107.643 98.6761 107.643 95.5312L103.593 95.5308ZM101.953 97.1704V93.1204H96.3942V97.1704V101.22H101.953V97.1704ZM96.3942 97.1704L96.2831 93.1219C96.1937 93.1244 96.1155 93.1295 96.0513 93.1349C95.9873 93.1403 95.9333 93.1464 95.8931 93.1513C95.8534 93.1562 95.8218 93.1607 95.8047 93.1632C95.7959 93.1645 95.7889 93.1656 95.7856 93.166C95.784 93.1663 95.7826 93.1665 95.7823 93.1665C95.7816 93.1666 95.7824 93.1665 95.7831 93.1664C95.7849 93.1662 95.8035 93.1633 95.8274 93.16C95.8523 93.1566 95.8912 93.1514 95.9389 93.1462C95.987 93.1409 96.0486 93.1351 96.1206 93.1305C96.1928 93.1259 96.2787 93.1224 96.3757 93.1224V97.1724V101.222C96.5693 101.222 96.7259 101.208 96.8217 101.198C96.871 101.193 96.9114 101.187 96.9379 101.184C96.9633 101.18 96.9835 101.177 96.9869 101.176C96.9969 101.175 96.9819 101.177 96.9699 101.179C96.9544 101.181 96.9243 101.186 96.8861 101.19C96.8475 101.195 96.7951 101.201 96.7326 101.206C96.6699 101.211 96.5932 101.216 96.5054 101.219L96.3942 97.1704ZM96.3757 97.1724V93.1224H90.7712V97.1724V101.222H96.3757V97.1724ZM90.7712 97.1724L89.763 101.095C90.7231 101.342 91.3324 101.569 91.6571 101.733C91.8139 101.812 91.7949 101.822 91.6897 101.731C91.5886 101.642 91.2669 101.336 91.0455 100.764L94.8229 99.3032L98.6004 97.8427C97.862 95.9328 96.2049 94.9552 95.3095 94.5028C94.2356 93.9603 92.9887 93.5607 91.7793 93.2498L90.7712 97.1724ZM94.8229 99.3032L91.0454 100.764C90.9392 100.489 91.1087 100.664 90.8484 101.619C90.6158 102.471 90.1433 103.553 89.4472 104.724C87.9985 107.163 86.0746 109.186 84.7428 109.973L86.8044 113.459L88.8659 116.946C91.7799 115.222 94.5629 111.972 96.4108 108.862C97.3629 107.259 98.1862 105.498 98.6629 103.75C99.1119 102.104 99.4042 99.9218 98.6005 97.8429L94.8229 99.3032ZM86.8044 113.459L84.7438 109.973C84.9917 109.826 85.1886 109.752 85.2637 109.725C85.3105 109.708 85.3459 109.697 85.3668 109.691C85.3882 109.685 85.4006 109.682 85.4025 109.681C85.4046 109.681 85.382 109.686 85.3289 109.696C85.2771 109.706 85.2068 109.718 85.1158 109.731C84.7338 109.787 84.1592 109.842 83.3988 109.887C81.8917 109.975 79.89 110.006 77.7173 109.959C73.2377 109.862 68.6387 109.449 66.2481 108.767L65.1374 112.662L64.0266 116.556C67.5039 117.548 73.0168 117.96 77.543 118.057C79.8731 118.107 82.0977 118.077 83.8716 117.973C84.7518 117.922 85.5813 117.849 86.2836 117.746C86.6324 117.696 87.0085 117.629 87.3729 117.538C87.6606 117.466 88.2605 117.303 88.865 116.946L86.8044 113.459ZM65.1374 112.662L62.3397 109.733C61.7292 110.316 61.2018 110.718 60.7955 110.958L62.8571 114.444L64.9187 117.93C66.0039 117.288 67.0215 116.463 67.9351 115.59L65.1374 112.662ZM62.8571 114.444L60.7956 110.958C61.2554 110.686 61.5979 110.633 61.4521 110.666C61.406 110.677 61.2686 110.704 61.0121 110.737C60.5058 110.802 59.7697 110.862 58.8322 110.903C56.9707 110.986 54.5437 110.991 52.0321 110.891C49.5137 110.792 46.9997 110.592 44.9443 110.286C43.9146 110.133 43.065 109.962 42.4189 109.786C41.703 109.591 41.5061 109.459 41.5828 109.51L39.3552 112.892L37.1275 116.274C38.1232 116.93 39.2989 117.331 40.2879 117.601C41.3466 117.89 42.5341 118.116 43.7524 118.298C46.193 118.661 49.0186 118.878 51.7121 118.985C54.4123 119.092 57.0695 119.09 59.1934 118.995C60.2486 118.948 61.2305 118.876 62.0461 118.771C62.4506 118.719 62.8751 118.651 63.2767 118.558C63.5786 118.488 64.2546 118.323 64.9187 117.93L62.8571 114.444ZM39.3552 112.892L41.583 109.51C39.5449 108.167 38.5925 106.773 38.2405 105.722L34.4001 107.008L30.5597 108.294C31.6147 111.445 33.9482 114.18 37.1273 116.274L39.3552 112.892ZM34.4001 107.008L38.0733 105.302C37.8735 104.872 37.653 103.911 37.7005 102.218L33.652 102.104L29.6036 101.99C29.541 104.225 29.7631 106.639 30.7269 108.714L34.4001 107.008ZM33.652 102.104L37.7005 102.217C37.7075 101.965 37.7177 101.724 37.7333 101.488L33.6921 101.221L29.6509 100.955C29.6269 101.318 29.6127 101.666 29.6036 101.991L33.652 102.104ZM33.6921 101.221L37.7333 101.488C37.7375 101.424 37.7346 101.478 37.7466 101.315L33.7077 101.016L29.6688 100.717C29.6673 100.738 29.6659 100.754 29.6623 100.799C29.6594 100.836 29.655 100.892 29.6509 100.954L33.6921 101.221ZM33.7077 101.016L37.7467 101.315C37.7712 100.984 37.8027 100.646 37.8423 100.303L33.819 99.8384L29.7958 99.374C29.7429 99.8319 29.7011 100.28 29.6687 100.717L33.7077 101.016ZM33.819 99.8384L37.8423 100.303C37.8507 100.23 37.86 100.156 37.8731 100.051L33.8542 99.5503L29.8353 99.0494C29.8243 99.1376 29.8094 99.2554 29.7958 99.3736L33.819 99.8384ZM33.8542 99.5503L37.8731 100.051C37.8944 99.8805 37.9017 99.8134 37.9151 99.7154L33.902 99.1694L29.889 98.6234C29.8676 98.7806 29.8455 98.9678 29.8352 99.0498L33.8542 99.5503ZM33.902 99.1694L37.915 99.7158C37.9309 99.599 37.9175 99.7077 37.9534 99.4597L33.945 98.8804L29.9367 98.3011C29.9327 98.3285 29.9288 98.3539 29.9197 98.4134C29.912 98.4639 29.9004 98.5399 29.8891 98.6231L33.902 99.1694ZM33.945 98.8804L37.9534 99.4593C38.0034 99.1131 38.0568 98.7716 38.1161 98.4328L34.1267 97.7349L30.1372 97.037C30.0611 97.472 29.9953 97.895 29.9366 98.3014L33.945 98.8804ZM34.1267 97.7349L38.116 98.4331C38.1334 98.3337 38.1488 98.254 38.1771 98.0997L34.194 97.3667L30.2109 96.6337C30.194 96.7259 30.1627 96.8914 30.1373 97.0367L34.1267 97.7349ZM34.194 97.3667L38.1772 98.0994C38.2406 97.7546 38.308 97.4095 38.3804 97.0643L34.4167 96.2329L30.4529 95.4015C30.3652 95.8197 30.285 96.2311 30.2109 96.634L34.194 97.3667ZM34.4167 96.2329L38.3804 97.0646C38.4005 96.9688 38.4122 96.9191 38.446 96.7629L34.488 95.9048L30.5299 95.0467C30.5162 95.11 30.4787 95.2787 30.453 95.4013L34.4167 96.2329ZM34.488 95.9048L38.4461 96.7627C38.5275 96.3869 38.6109 96.0173 38.6989 95.6516L34.7614 94.7036L30.8239 93.7556C30.7177 94.1968 30.6205 94.6288 30.5299 95.0469L34.488 95.9048ZM34.7614 94.7036L38.6989 95.6518C38.7314 95.5167 38.765 95.3831 38.807 95.2148L34.8776 94.2339L30.9482 93.253C30.9118 93.3988 30.8667 93.5781 30.824 93.7554L34.7614 94.7036ZM34.8776 94.2339L38.8071 95.2146C38.8509 95.0389 38.8511 95.0331 38.878 94.9277L34.9538 93.9263L31.0296 92.9248C31.0041 93.0246 30.9554 93.2243 30.9482 93.2532L34.8776 94.2339ZM34.9538 93.9263L38.878 94.9279C38.9121 94.7942 38.9429 94.6807 38.9912 94.4972L35.0749 93.4653L31.1586 92.4334C31.1257 92.5582 31.0738 92.7515 31.0296 92.9246L34.9538 93.9263ZM35.0749 93.4653L38.9913 94.497C39.8219 91.3441 40.9753 88.0244 42.2477 84.9614L38.5075 83.4077L34.7674 81.854C33.3746 85.207 32.0956 88.8766 31.1585 92.4336L35.0749 93.4653ZM38.5075 83.4077L41.733 80.9585C41.1966 80.2521 40.6986 79.5557 40.2417 78.8926L36.9069 81.1909L33.5722 83.4892C34.0849 84.2331 34.6563 85.0328 35.282 85.8569L38.5075 83.4077ZM36.9069 81.1909L40.5726 79.469C40.5973 79.5214 40.5864 79.5243 40.5828 79.4645C40.5791 79.4036 40.5867 79.333 40.6019 79.2768C40.6189 79.2139 40.6235 79.2459 40.5505 79.3463C40.4808 79.442 40.2565 79.7105 39.8002 79.9062L38.2038 76.1841L36.6074 72.462C34.3244 73.4412 33.2142 75.5657 32.7823 77.1639C32.3191 78.8783 32.3338 80.9811 33.2412 82.9129L36.9069 81.1909ZM38.2038 76.1841L39.0006 72.2132C32.5788 70.9247 27.5973 68.8456 24.2874 66.0252C21.1283 63.3333 19.3203 59.8382 19.3202 55.018L15.2702 55.0181L11.2202 55.0181C11.2203 62.2656 14.1106 67.9954 19.034 72.1905C23.8065 76.2572 30.2918 78.7272 37.407 80.1549L38.2038 76.1841ZM15.2702 55.0181H19.3202C19.3202 49.3993 20.0665 44.6624 21.3682 40.6864L17.5192 39.4263L13.6703 38.1662C12.0607 43.0825 11.2202 48.6877 11.2202 55.0181H15.2702ZM17.5192 39.4263L18.5109 35.4995C17.5265 35.251 16.0304 34.6368 13.8231 33.3305L11.7604 36.8159L9.69778 40.3013C12.2402 41.8059 14.4903 42.8385 16.5276 43.353L17.5192 39.4263ZM11.7604 36.8159L13.8232 33.3306C10.3686 31.2861 9.76645 27.7332 10.949 25.735L7.46357 23.6724L3.97818 21.6097C0.0289884 28.2829 3.27404 36.4996 9.69773 40.3013L11.7604 36.8159ZM7.46357 23.6724L10.949 25.735C12.1312 23.7373 15.5348 22.5555 18.9898 24.6002L21.0524 21.1147L23.115 17.6293C16.6918 13.8281 7.92764 14.9361 3.97818 21.6097L7.46357 23.6724ZM21.0524 21.1147L18.9898 24.6001C21.5315 26.1044 22.8221 27.2105 23.4429 27.951L26.5466 25.3491L29.6502 22.7472C28.1729 20.985 25.9828 19.3265 23.1151 17.6294L21.0524 21.1147ZM26.5466 25.3491L29.2354 28.3778C29.4492 28.188 29.6617 28.0047 29.874 27.828L27.2829 24.7153L24.6918 21.6027C24.4066 21.8401 24.1287 22.0799 23.8577 22.3205L26.5466 25.3491ZM27.2829 24.7153L31.2614 23.9575C31.1918 23.5921 31.1308 23.0077 31.1308 22.1186L27.0808 22.1187L23.0308 22.1187C23.0308 23.339 23.1114 24.4598 23.3044 25.4731L27.2829 24.7153ZM27.0808 22.1187H31.1308C31.1308 19.9933 31.6457 18.113 32.2461 16.8604C32.5511 16.2241 32.8125 15.8868 32.9169 15.777C33.1669 15.5142 32.6341 16.2565 31.3454 16.2565V12.2065V8.15654C29.2313 8.15654 27.7527 9.45364 27.0483 10.194C26.1984 11.0874 25.4967 12.2018 24.9419 13.3592C23.8227 15.6941 23.0308 18.7698 23.0308 22.1187H27.0808ZM31.3454 12.2065L31.3435 16.2565C30.7463 16.2563 30.313 16.0874 30.0913 15.9768C29.8693 15.866 29.7633 15.7669 29.7623 15.7659C29.7549 15.7592 29.7995 15.7996 29.8844 15.9107C29.9671 16.0188 30.0714 16.1723 30.1889 16.376C30.6785 17.2253 31.1983 18.6025 31.432 20.2978L35.444 19.7446L39.4561 19.1915C39.0932 16.5596 38.2656 14.168 37.2062 12.3303C36.6817 11.4206 36.026 10.5172 35.2262 9.78637C34.5193 9.14041 33.1802 8.15741 31.3473 8.15654L31.3454 12.2065ZM35.444 19.7446L37.0581 23.4591C42.7234 20.9974 49.527 19.865 57.0017 19.8649L57.0017 15.8149L57.0016 11.7649C48.7719 11.765 40.796 13.0032 33.83 16.0302L35.444 19.7446ZM57.0017 15.8149V19.8649C58.5172 19.8649 60.0103 19.9066 61.4761 19.9902L61.7067 15.9468L61.9374 11.9034C60.3124 11.8106 58.6653 11.7649 57.0017 11.7649V15.8149ZM61.7067 15.9468L61.4761 19.9902C61.4995 19.9915 61.5218 19.9927 61.5313 19.9932C61.5443 19.9939 61.5455 19.9939 61.5444 19.9939L61.779 15.9507L62.0136 11.9075C61.9885 11.906 61.9655 11.9048 61.9545 11.9043C61.9476 11.9039 61.9441 11.9037 61.9407 11.9035C61.9377 11.9034 61.9369 11.9033 61.9374 11.9034L61.7067 15.9468ZM61.779 15.9507L61.5444 19.9939C63.2424 20.0924 64.8974 20.2499 66.5037 20.4708L67.0554 16.4585L67.607 12.4462C65.7727 12.194 63.9052 12.0172 62.0136 11.9075L61.779 15.9507ZM67.0554 16.4585L66.5038 20.4708C66.5313 20.4745 66.5551 20.4776 66.5722 20.4798C66.5884 20.4818 66.6036 20.4837 66.6093 20.4844C66.6177 20.4854 66.6172 20.4853 66.6151 20.4851C66.6122 20.4847 66.6028 20.4835 66.5894 20.4816L67.1472 16.4702L67.7049 12.4588C67.6763 12.4548 67.6516 12.4516 67.6334 12.4493C67.616 12.4471 67.6002 12.4452 67.5932 12.4443C67.5836 12.4431 67.5836 12.4431 67.5844 12.4432C67.5863 12.4435 67.5947 12.4445 67.607 12.4462L67.0554 16.4585ZM67.1472 16.4702L66.5894 20.4816C66.8017 20.5111 67.0168 20.5438 67.2619 20.5809L67.8688 16.5767L68.4758 12.5724C68.2413 12.5369 67.9755 12.4964 67.7049 12.4588L67.1472 16.4702ZM67.8688 16.5767L67.2619 20.5809C67.3539 20.5949 67.3685 20.5968 67.4245 20.6054L68.0436 16.603L68.6627 12.6006C68.6024 12.5913 68.5003 12.5761 68.4758 12.5724L67.8688 16.5767ZM68.0436 16.603L67.4245 20.6054C67.9501 20.6867 68.4664 20.7738 68.9738 20.8681L69.7136 16.8862L70.4533 12.9044C69.8571 12.7936 69.2598 12.693 68.6628 12.6006L68.0436 16.603ZM69.7136 16.8862L68.9739 20.8681C68.9738 20.8681 68.9747 20.8683 68.9801 20.8693C68.9841 20.87 68.9933 20.8718 69.0028 20.8735L69.7448 16.8921L70.4869 12.9107C70.486 12.9105 70.4847 12.9102 70.4783 12.909C70.4733 12.9081 70.4638 12.9063 70.4533 12.9044L69.7136 16.8862ZM69.7448 16.8921L69.0027 20.8735C69.2565 20.9208 69.5072 20.9694 69.7551 21.0197L70.5593 17.0503L71.3634 13.0809C71.0708 13.0217 70.7786 12.965 70.4869 12.9107L69.7448 16.8921ZM70.5593 17.0503L69.7551 21.0197C69.7717 21.023 69.7885 21.0264 69.8083 21.0305L70.6169 17.062L71.4255 13.0936C71.4069 13.0898 71.3853 13.0854 71.3634 13.0809L70.5593 17.0503ZM70.6169 17.062L69.8082 21.0305C71.0534 21.2842 72.2614 21.5826 73.4301 21.9266L74.5739 18.0415L75.7177 14.1564C74.3157 13.7436 72.8834 13.3906 71.4255 13.0936L70.6169 17.062ZM74.5739 18.0415L73.4301 21.9266C73.4969 21.9463 73.5509 21.9622 73.6039 21.978L74.7653 18.0981L75.9268 14.2183C75.8524 14.196 75.7787 14.1743 75.7177 14.1564L74.5739 18.0415ZM74.7653 18.0981L73.6038 21.978C73.7985 22.0363 73.9978 22.0984 74.2072 22.1648L75.4313 18.3042L76.6555 14.4436C76.4228 14.3699 76.1785 14.2936 75.9268 14.2183L74.7653 18.0981ZM75.4313 18.3042L74.2072 22.1648C74.3004 22.1943 74.2577 22.1804 74.3052 22.1956L75.5397 18.3384L76.7742 14.4811C76.7442 14.4715 76.7165 14.4628 76.6978 14.4569C76.6759 14.4501 76.6659 14.4469 76.6555 14.4436L75.4313 18.3042ZM75.5397 18.3384L74.3052 22.1956C74.5066 22.2601 74.7073 22.3262 74.9074 22.394L76.2067 18.5581L77.5061 14.7222C77.2638 14.6401 77.0199 14.5597 76.7743 14.4811L75.5397 18.3384ZM76.2067 18.5581L74.9074 22.394C74.9709 22.4155 75.0225 22.433 75.0728 22.4503L76.3903 18.6206L77.7078 14.7909C77.6359 14.7662 77.5651 14.7422 77.5061 14.7222L76.2067 18.5581ZM76.3903 18.6206L75.0728 22.4503C75.2666 22.517 75.4595 22.5852 75.6516 22.6549L77.0339 18.8481L78.4162 15.0413C78.1814 14.9561 77.9454 14.8726 77.7079 14.7909L76.3903 18.6206ZM77.0339 18.8481L75.6516 22.655C75.6484 22.6538 75.6494 22.6541 75.6696 22.6617C75.6837 22.667 75.7201 22.6807 75.7577 22.6945L77.152 18.8921L78.5464 15.0897C78.547 15.0899 78.5455 15.0893 78.5402 15.0874C78.5341 15.0851 78.5284 15.0829 78.5164 15.0785C78.4972 15.0712 78.4589 15.0568 78.4162 15.0413L77.0339 18.8481ZM77.152 18.8921L75.7576 22.6945C75.9695 22.7722 76.162 22.8437 76.3458 22.9149L77.8083 19.1382L79.2708 15.3615C79.0198 15.2643 78.7743 15.1733 78.5465 15.0897L77.152 18.8921ZM77.8083 19.1382L76.3458 22.9149C76.41 22.9398 76.3478 22.9161 76.4785 22.9674L77.9567 19.1968L79.4349 15.4262C79.4212 15.4208 79.4083 15.4156 79.3779 15.4036C79.3522 15.3933 79.3133 15.3779 79.2708 15.3615L77.8083 19.1382ZM77.9567 19.1968L76.4785 22.9674C76.722 23.0628 76.9664 23.1623 77.2122 23.2654L78.779 19.5308L80.3458 15.7961C80.0474 15.6709 79.7438 15.5473 79.435 15.4262L77.9567 19.1968ZM78.779 19.5308L82.7839 20.1336C83.0326 18.4812 83.5491 17.1508 84.0268 16.3373C84.2709 15.9217 84.4313 15.7663 84.4294 15.768C84.4235 15.7732 84.3138 15.8732 84.09 15.9831C83.8661 16.0932 83.437 16.2565 82.8493 16.2565V12.2065V8.15654C81.0434 8.15654 79.7178 9.11095 79.0108 9.74724C78.2155 10.463 77.5637 11.3475 77.0422 12.2355C75.9887 14.0294 75.1605 16.3611 74.7741 18.9279L78.779 19.5308ZM97.8727 45.3403L93.8736 45.9799C93.9103 46.2096 93.9446 46.4303 93.9762 46.6474L97.9841 46.0649L101.992 45.4824C101.953 45.2128 101.912 44.9507 101.872 44.7007L97.8727 45.3403ZM97.9841 46.0649L93.9762 46.6475C93.9842 46.7026 93.9922 46.7592 94.0014 46.8241L98.0114 46.2563L102.021 45.6886C102.013 45.6257 102.002 45.5546 101.992 45.4824L97.9841 46.0649ZM98.0114 46.2563L94.0014 46.824C94.0429 47.1173 94.0822 47.416 94.1197 47.7206L98.1394 47.2261L102.159 46.7316C102.116 46.3835 102.071 46.0357 102.021 45.6887L98.0114 46.2563ZM98.1394 47.2261L94.1197 47.7206C94.1304 47.8083 94.1362 47.8628 94.1522 47.9984L98.1745 47.5259L102.197 47.0534C102.189 46.9886 102.173 46.8431 102.159 46.7315L98.1394 47.2261ZM98.1745 47.5259L94.1522 47.9983C94.4072 50.1695 94.5454 52.5058 94.5454 55.0181H98.5954H102.645C102.645 52.2088 102.491 49.5564 102.197 47.0534L98.1745 47.5259ZM98.5954 55.0181L94.5454 55.018C94.5454 57.1652 94.1858 59.0038 93.5637 60.5951L97.3356 62.0698L101.108 63.5446C102.126 60.9387 102.645 58.0911 102.645 55.0181L98.5954 55.0181ZM97.3356 62.0698V66.1198H98.4274V62.0698V58.0198H97.3356V62.0698ZM98.4274 62.0698L101.905 64.1449C102.051 63.9009 102.183 63.6455 102.303 63.382L98.6198 61.6987L94.9362 60.0155C94.9298 60.0295 94.9272 60.0343 94.9289 60.0311C94.9305 60.0279 94.9372 60.0153 94.9494 59.9947L98.4274 62.0698ZM98.6198 61.6987L102.304 63.3813C102.692 62.5323 102.97 61.5718 103.175 60.6117L99.2145 59.7651L95.254 58.9186C95.1206 59.5426 94.9947 59.8873 94.9359 60.0162L98.6198 61.6987ZM99.2145 59.7651L103.175 60.6115C103.586 58.6889 103.779 56.4135 103.822 54.2268L99.7731 54.147L95.7239 54.0671C95.6866 55.9572 95.5194 57.6769 95.254 58.9188L99.2145 59.7651ZM99.7731 54.147L103.822 54.2268C103.866 52.0275 103.759 49.7975 103.523 47.9378L99.5056 48.4468L95.4877 48.9558C95.6665 50.3673 95.7607 52.1987 95.7239 54.0672L99.7731 54.147ZM99.5056 48.4468L103.523 47.9376C103.406 47.0103 103.25 46.123 103.047 45.353L99.1306 46.3862L95.2146 47.4194C95.2974 47.7335 95.3977 48.2457 95.4877 48.9559L99.5056 48.4468ZM99.1306 46.3862L103.046 45.3527C102.896 44.7814 102.718 44.2771 102.511 43.8454L98.8601 45.5991L95.2094 47.3528C95.1898 47.3119 95.1774 47.2828 95.1712 47.2677C95.1648 47.2523 95.1632 47.2473 95.1656 47.254C95.1706 47.2681 95.1886 47.321 95.2146 47.4197L99.1306 46.3862ZM98.8601 45.5991L100.32 41.8216C100.341 41.8296 100.357 41.836 100.344 41.8308C100.338 41.8286 100.313 41.8181 100.284 41.8068C100.221 41.7822 100.12 41.7438 99.9951 41.7029L98.736 45.5522L97.477 49.4016C97.4032 49.3774 97.3483 49.3563 97.3269 49.3478C97.3186 49.3446 97.3121 49.342 97.3247 49.347C97.329 49.3488 97.3391 49.3528 97.3504 49.3573C97.3621 49.362 97.3793 49.3688 97.3996 49.3766L98.8601 45.5991ZM98.736 45.5522L99.9933 41.7023C99.5673 41.5632 99.1017 41.4559 98.6667 41.3689L97.8727 45.3403L97.0788 49.3117C97.2208 49.3401 97.3262 49.3638 97.4004 49.382C97.4782 49.4012 97.4991 49.4088 97.4788 49.4022L98.736 45.5522Z" fill="white"/>
<path d="M21.0525 21.1145C30.9836 26.9918 27.9156 29.9219 25.3498 34.2576C22.7839 38.5933 21.4902 42.5735 11.7606 36.8154C6.8214 33.8924 4.89744 28.008 7.46331 23.6723C10.0292 19.3366 16.1133 18.1915 21.0525 21.1145Z" fill="white"/>
<path d="M35.6094 22.1183C35.6094 27.5925 33.7 27.6249 31.3447 27.6249C28.9894 27.6249 27.0801 27.5925 27.0801 22.1183C27.0801 16.6442 29.6939 12.2065 31.3447 12.2065C32.9956 12.2065 35.6094 16.6442 35.6094 22.1183Z" fill="#6A5B3D"/>
<path d="M87.1133 22.1183C87.1133 27.5925 85.2039 27.6249 82.8486 27.6249C80.4933 27.6249 78.584 27.5925 78.584 22.1183C78.584 16.6442 81.1978 12.2065 82.8486 12.2065C84.4995 12.2065 87.1133 16.6442 87.1133 22.1183Z" fill="#6A5B3D"/>
<path d="M94.0784 21.1145C84.1472 26.9918 87.2152 29.9219 89.7811 34.2576C92.347 38.5933 93.6406 42.5735 103.37 36.8154C108.309 33.8924 110.233 28.008 107.668 23.6723C105.102 19.3366 99.0176 18.1915 94.0784 21.1145Z" fill="#123041"/>
<path d="M96.5293 26.1224C91.5795 29.0517 92.8611 30.0938 93.8347 31.7389C94.8082 33.3839 95.2055 34.9494 100.055 32.0795C102.517 30.6227 103.723 28.1081 102.749 26.4631C101.776 24.818 98.9911 24.6655 96.5293 26.1224Z" fill="#FFC0C1"/>
<path d="M18.3071 26.1224C23.2569 29.0517 21.9753 30.0938 21.0018 31.7389C20.0282 33.3839 19.631 34.9494 14.7816 32.0795C12.3199 30.6227 11.1134 28.1081 12.087 26.4631C13.0605 24.818 15.8453 24.6655 18.3071 26.1224Z" fill="#FFC0C1"/>
<path d="M86.8045 113.46C85.1711 114.426 66.9781 114.328 63.3026 111.907C58.8304 108.962 57.1923 105 58.2702 101.578C60.5842 94.2327 65.7903 94.3823 71.5312 94.8744C77.272 95.3665 93.6189 96.1895 94.8227 99.3031C96.218 102.912 91.0503 110.949 86.8045 113.46Z" fill="#E7EAEE"/>
<path d="M78.0793 108.712C85.1129 104.035 75.6049 74.8576 68.7348 71.1827C61.8648 67.5077 50.6909 68.0645 45.7836 71.1827C40.8764 74.3009 28.7498 103.923 35.7834 108.712C42.8171 113.5 71.0456 113.389 78.0793 108.712Z" fill="white"/>
<path fill-rule="evenodd" clip-rule="evenodd" d="M36.3652 89.1439C38.1507 89.925 39.6961 91.1203 40.3662 92.9066C41.9408 97.1057 47.3648 98.9214 49.8799 99.3041C49.9151 99.3165 56.1643 101.528 58.081 104.881C59.2813 106.981 59.337 110.501 59.2822 112.228C49.7275 112.472 39.6131 111.322 35.7832 108.714C32.2415 106.303 33.5585 97.5942 36.3652 89.1439Z" fill="#123041"/>
<path d="M75.6315 98.1287C75.6315 106.88 68.141 108.981 58.901 108.981C49.6609 108.981 42.1704 106.88 42.1704 98.1287C42.1704 86.6247 49.6609 80.113 58.901 80.113C68.141 80.113 75.6315 86.6247 75.6315 98.1287Z" fill="#FFC0C1"/>
<path d="M58.7599 106.029C58.8273 106.029 58.8941 106.016 58.9565 105.991C59.0189 105.965 59.0757 105.928 59.1235 105.881L61.4023 103.589C61.4861 103.491 61.53 103.366 61.525 103.238C61.52 103.11 61.4666 102.988 61.3754 102.897C61.2842 102.807 61.162 102.753 61.0331 102.748C60.9042 102.743 60.7782 102.787 60.6802 102.871L58.3964 105.137C58.3484 105.185 58.3103 105.241 58.2843 105.303C58.2583 105.365 58.2449 105.432 58.2449 105.499C58.2449 105.566 58.2583 105.633 58.2843 105.695C58.3103 105.757 58.3484 105.813 58.3964 105.86C58.4425 105.911 58.4985 105.952 58.5609 105.981C58.6234 106.01 58.6911 106.026 58.7599 106.029Z" fill="#FF8D8D"/>
<path d="M61.0144 106.029C61.0812 106.029 61.1475 106.016 61.2094 105.991C61.2713 105.966 61.3276 105.928 61.3751 105.881C61.4227 105.834 61.4605 105.778 61.4863 105.716C61.5121 105.654 61.5254 105.587 61.5254 105.52C61.5254 105.453 61.5121 105.387 61.4863 105.325C61.4605 105.263 61.4227 105.207 61.3751 105.16L59.1141 102.898C59.0669 102.851 59.0107 102.813 58.9488 102.787C58.8869 102.761 58.8205 102.748 58.7534 102.748C58.6863 102.748 58.6199 102.761 58.558 102.787C58.4961 102.813 58.4399 102.851 58.3926 102.898C58.298 102.994 58.2449 103.122 58.2449 103.257C58.2449 103.391 58.298 103.52 58.3926 103.615L60.6587 105.881C60.7533 105.975 60.8811 106.028 61.0144 106.029Z" fill="#FF8D8D"/>
<path d="M62.8572 114.444C61.2238 115.41 43.0308 115.313 39.3553 112.892C34.8831 109.946 33.2451 105.984 34.323 102.563C36.637 95.2171 41.843 95.3667 47.5839 95.8588C53.3248 96.3508 69.6716 97.1738 70.8755 100.287C72.2707 103.896 67.103 111.933 62.8572 114.444Z" fill="#123041"/>
<path d="M98.5952 55.0178C98.5952 72.139 79.8206 77.8165 57.0019 77.8165C34.1833 77.8165 15.2705 72.139 15.2705 55.0178C15.2705 25.8243 34.1833 15.8151 57.0019 15.8151C79.8206 15.8151 98.5952 24.4341 98.5952 55.0178Z" fill="white"/>
<path d="M59.9014 15.8651C79.6786 16.5352 95.8265 24.3379 98.2725 48.4032C87.2631 49.2978 85.3223 40.9223 81.7715 37.6444C78.1574 34.3083 70.6507 36.1147 64.8125 31.3885C61.2338 28.4909 60.0933 21.3276 59.9014 15.8651Z" fill="#123041"/>
<path d="M36.9214 51.9009V57.1497" stroke="#123041" stroke-width="4.92075" stroke-linecap="round"/>
<path d="M80.8809 51.9009V57.1497" stroke="#123041" stroke-width="4.92075" stroke-linecap="round"/>
<path d="M43.4824 64.1043C43.4824 57.3646 48.9461 51.9009 55.6859 51.9009H61.7876C68.5274 51.9009 73.9911 57.3646 73.9911 64.1043C73.9911 68.5975 70.3486 72.24 65.8554 72.24H51.6181C47.1249 72.24 43.4824 68.5975 43.4824 64.1043Z" fill="#FFC0C1"/>
<path d="M52.3398 61.0851V64.6936" stroke="#123041" stroke-width="3.2805" stroke-linecap="round"/>
<path d="M65.4619 61.0851L65.4619 64.6936" stroke="#123041" stroke-width="3.2805" stroke-linecap="round"/>
<path d="M27.0801 64.6948H32.0008" stroke="#FFC0C1" stroke-width="6.561" stroke-linecap="round"/>
<path d="M85.8013 64.6948H90.722" stroke="#FFC0C1" stroke-width="6.561" stroke-linecap="round"/>
<path d="M55.2189 92.5924C46.9018 94.2385 40.532 86.4512 36.9066 81.1908C35.9974 79.2552 36.8382 76.5848 38.3839 76.1169C41.1366 75.2837 53.3622 77.776 57.8812 79.1791C62.4002 80.5821 65.6152 90.5346 55.2189 92.5924Z" fill="#E7EAEE"/>
<rect width="53.4722" height="4.5927" rx="0.6561" transform="matrix(-1 0 0 1 97.0317 92.5793)" fill="#173A52"/>
<path d="M102.86 62.4243L31.9833 27.6248L10.6777 78.3618L55.7006 94.875L102.86 62.4243Z" fill="url(#paint0_linear_2746_5238)"/>
<path fill-rule="evenodd" clip-rule="evenodd" d="M74.1043 42.3472C76.974 42.0992 80.6512 42.0222 84.3104 42.0738C87.9722 42.1254 91.6484 42.306 94.5233 42.5787C95.9575 42.7147 97.2144 42.8758 98.1786 43.0601C98.6586 43.1519 99.0928 43.2539 99.4501 43.3706C99.7511 43.4691 100.192 43.6356 100.504 43.9478L100.556 44.0005L100.601 44.0591C100.954 44.5172 101.184 45.1682 101.351 45.8013C101.529 46.4732 101.673 47.2798 101.784 48.1597C102.007 49.9222 102.111 52.065 102.069 54.1929C102.027 56.3163 101.839 58.4717 101.46 60.2466C101.27 61.1326 101.026 61.9606 100.709 62.6548C100.401 63.3284 99.9711 63.9957 99.3446 64.4136C99.0199 64.6301 98.6212 64.7825 98.2323 64.898C97.828 65.018 97.3584 65.1197 96.8456 65.2076C95.819 65.3835 94.5456 65.5153 93.1288 65.6089C90.2912 65.7963 86.7903 65.837 83.3436 65.7544C79.8976 65.6719 76.4772 65.4658 73.8016 65.1529C72.4675 64.9968 71.2898 64.8108 70.3778 64.5933C69.9236 64.485 69.5056 64.3618 69.1551 64.2183C68.8434 64.0907 68.4271 63.8862 68.1366 63.5376C67.762 63.0881 67.5351 62.4513 67.3778 61.857C67.2097 61.2217 67.079 60.4611 66.9793 59.6363C66.7797 57.9832 66.6916 55.9693 66.702 53.9595C66.7124 51.9482 66.8217 49.9093 67.0252 48.2037C67.1269 47.3519 67.2548 46.5659 67.41 45.8999C67.4301 45.8139 67.4527 45.7282 67.4745 45.6431C65.061 45.2441 61.0669 44.6842 58.6649 44.6841C56.4546 44.6841 53.0967 45.1604 50.8338 45.5464C50.8649 45.6631 50.896 45.7813 50.9237 45.8999C51.0789 46.5659 51.2068 47.3519 51.3084 48.2037C51.512 49.9093 51.6213 51.9482 51.6317 53.9595C51.6421 55.9693 51.554 57.9832 51.3543 59.6363C51.2547 60.4611 51.124 61.2217 50.9559 61.857C50.7986 62.4514 50.5717 63.0881 50.1971 63.5376C49.9066 63.8862 49.4903 64.0906 49.1786 64.2183C48.8281 64.3618 48.41 64.485 47.9559 64.5933C47.044 64.8108 45.8661 64.9968 44.5321 65.1529C41.8566 65.4658 38.436 65.6719 34.9901 65.7544C31.5436 65.837 28.0425 65.7963 25.2049 65.6089C23.7883 65.5154 22.5147 65.3835 21.4881 65.2076C20.9754 65.1197 20.5056 65.018 20.1014 64.898C19.7126 64.7825 19.3138 64.63 18.9891 64.4136C18.3626 63.9958 17.9327 63.3283 17.6249 62.6548C17.3076 61.9606 17.0633 61.1325 16.8739 60.2466C16.4945 58.4717 16.3064 56.3163 16.2645 54.1929C16.2225 52.065 16.3264 49.9222 16.5497 48.1597C16.6611 47.2798 16.805 46.4732 16.9823 45.8013C17.1493 45.1681 17.3798 44.5172 17.7323 44.0591L17.7772 44.0005L17.8299 43.9478C18.1422 43.6355 18.5826 43.469 18.8836 43.3706C19.2408 43.254 19.6752 43.1518 20.1551 43.0601C21.1192 42.8758 22.3764 42.7147 23.8104 42.5787C26.6852 42.306 30.3617 42.1254 34.0233 42.0738C37.6824 42.0222 41.3598 42.0992 44.2293 42.3472C45.6587 42.4708 46.9253 42.6397 47.9012 42.8677C48.3867 42.9812 48.8404 43.1183 49.2196 43.2906C49.3138 43.3334 49.4171 43.3848 49.5233 43.4458C51.7383 43.0398 55.9259 42.3873 58.6649 42.3873C61.5815 42.3873 66.4599 43.1286 68.6864 43.521C68.8353 43.4252 68.9834 43.35 69.1141 43.2906C69.4934 43.1183 69.9469 42.9812 70.4325 42.8677C71.4085 42.6397 72.6748 42.4708 74.1043 42.3472ZM34.0565 44.3697C30.44 44.4206 26.8264 44.5993 24.0272 44.8648C22.6248 44.9978 21.4482 45.1502 20.5858 45.315C20.1529 45.3977 19.8248 45.479 19.5975 45.5533C19.5461 45.5701 19.5055 45.5878 19.4735 45.6001C19.4038 45.7452 19.3062 45.996 19.203 46.3873C19.06 46.9293 18.9317 47.6289 18.828 48.4478C18.6208 50.0835 18.5203 52.114 18.5604 54.148C18.6006 56.1865 18.7808 58.1839 19.119 59.7662C19.2883 60.5583 19.4903 61.2108 19.7137 61.6998C19.9465 62.209 20.1524 62.4294 20.2635 62.5035C20.3085 62.5332 20.4528 62.6071 20.7547 62.6968C21.043 62.7824 21.4182 62.8663 21.8768 62.9449C22.794 63.102 23.98 63.227 25.3563 63.3179C28.1055 63.4995 31.5347 63.54 34.9354 63.4585C38.3368 63.3771 41.6823 63.1737 44.2655 62.8716C45.5605 62.7202 46.6369 62.5473 47.4227 62.3599C47.8172 62.2658 48.1098 62.1746 48.3084 62.0933C48.3874 62.061 48.4358 62.0333 48.4637 62.0181C48.4644 62.017 48.466 62.0163 48.4667 62.0152C48.488 61.9778 48.5147 61.9248 48.5448 61.854C48.6058 61.7103 48.6708 61.5162 48.7362 61.2691C48.8673 60.7736 48.9815 60.1273 49.0741 59.3609C49.2588 57.8311 49.3449 55.9182 49.3348 53.9712C49.3247 52.0258 49.2192 50.0764 49.0282 48.4761C48.9326 47.6754 48.8171 46.9784 48.6874 46.4214C48.5733 45.932 48.4598 45.6147 48.3739 45.4371C48.3504 45.4237 48.3175 45.4029 48.2704 45.3814C48.0832 45.2963 47.7907 45.2003 47.3788 45.104C46.5591 44.9125 45.4176 44.7542 44.0311 44.6343C41.2678 44.3955 37.6756 44.3187 34.0565 44.3697ZM84.2772 44.3697C80.658 44.3187 77.066 44.3954 74.3026 44.6343C72.9159 44.7542 71.7747 44.9125 70.9549 45.104C70.5428 45.2004 70.2505 45.2963 70.0633 45.3814C70.016 45.4029 69.9833 45.4237 69.9598 45.4371C69.8739 45.6146 69.7605 45.9319 69.6463 46.4214C69.5166 46.9784 69.4011 47.6754 69.3055 48.4761C69.1145 50.0765 69.009 52.0258 68.9989 53.9712C68.9888 55.9182 69.0749 57.8311 69.2596 59.3609C69.3522 60.1273 69.4664 60.7737 69.5975 61.2691C69.6629 61.5161 69.7279 61.7103 69.7889 61.854C69.819 61.9247 69.8457 61.9778 69.867 62.0152C69.8678 62.0162 69.8694 62.0171 69.87 62.0181C69.8979 62.0334 69.9464 62.061 70.0252 62.0933C70.2239 62.1746 70.5164 62.2658 70.911 62.3599C71.6968 62.5473 72.7731 62.7201 74.0682 62.8716C76.6515 63.1737 79.9968 63.3771 83.3983 63.4585C86.7992 63.54 90.2281 63.4995 92.9774 63.3179C94.3539 63.227 95.5396 63.1021 96.4569 62.9449C96.9157 62.8662 97.2906 62.7824 97.579 62.6968C97.8815 62.607 98.0255 62.5331 98.0702 62.5035C98.1813 62.4294 98.3872 62.2091 98.62 61.6998C98.8434 61.2108 99.0453 60.5584 99.2147 59.7662C99.5529 58.1839 99.7331 56.1865 99.7733 54.148C99.8134 52.114 99.7129 50.0835 99.5057 48.4478C99.402 47.629 99.2737 46.9293 99.1307 46.3873C99.0275 45.9961 98.9299 45.7453 98.8602 45.6001C98.8281 45.5878 98.7877 45.5701 98.7362 45.5533C98.5089 45.479 98.1809 45.3978 97.7479 45.315C96.8855 45.1501 95.709 44.9978 94.3065 44.8648C91.5072 44.5993 87.8939 44.4206 84.2772 44.3697Z" fill="black"/>
<rect width="53.4722" height="35.1014" rx="1.64025" transform="matrix(-1 0 0 1 103.593 62.0695)" fill="#005271"/>
<path d="M74.5018 79.8279V77.1175L68.8188 82.8029L70.1614 84.174L74.5018 79.8279ZM87.4513 78.1339C87.0302 76.0164 85.4387 74.4283 85.2559 74.2404L81.3499 70.2701L79.1175 72.5014L78.9586 72.6602V75.3706L81.342 72.9884L83.5638 75.2462L83.9027 75.5903L83.9266 75.6141C83.9266 75.6141 84.0749 75.7597 84.2788 76.0032C84.9042 76.7215 85.3483 77.5792 85.5737 78.5044C85.8915 80.0926 86.0504 81.9639 84.2788 84.2348V87.0352C84.4456 86.8896 84.5436 86.7864 84.5886 86.7493C86.1775 85.193 87.1282 83.6208 87.5016 81.94C87.76 80.6827 87.7437 79.3844 87.4539 78.1339H87.4513ZM75.6193 86.5005L75.561 86.4714H75.5319C75.3588 86.381 75.194 86.2756 75.0394 86.1565C74.8937 86.0532 74.7163 85.9156 74.5097 85.7382C74.1867 85.4736 73.7841 85.1136 73.2942 84.6345L72.1952 83.5123L70.8394 84.8674L71.9331 85.9818V85.9976C73.6253 87.6493 74.4939 88.1151 74.8143 88.2501C75.8289 88.7496 76.9285 89.054 78.0556 89.1474C78.5736 89.1878 79.0942 89.1771 79.6101 89.1156L79.7345 89.1024V87.1596C78.3284 87.3822 76.8879 87.1514 75.6219 86.5005H75.6193Z" fill="white"/>
<path d="M78.002 73.6184V85.1904H75.4624V76.1594L75.7166 75.9053L75.8543 75.7676L76.6223 75.0001L77.1413 74.4813L77.3108 74.3119L77.8325 73.7905L78.002 73.6184Z" fill="white"/>
<path d="M83.3202 76.2045V87.75L83.2884 87.7738C83.1719 87.8479 83.0474 87.9247 82.915 87.9988C82.8727 88.0252 82.8276 88.0491 82.7826 88.0729C82.6661 88.139 82.5416 88.2052 82.4145 88.2687C82.2874 88.3323 82.1735 88.3852 82.0464 88.4408L81.8372 88.5308L81.5512 88.6419L81.3182 88.724C81.1593 88.7769 80.9951 88.8272 80.8256 88.8722L80.7012 88.904V76.2045H83.3202Z" fill="white"/>
<path d="M80.7004 79.2561H78.002V81.8765H80.7004V79.2561Z" fill="white"/>
<defs>
<linearGradient id="paint0_linear_2746_5238" x1="41.1731" y1="51.6204" x2="67.0344" y2="87.6096" gradientUnits="userSpaceOnUse">
<stop offset="0.25" stop-color="#96FFFF" stop-opacity="0"/>
<stop offset="1" stop-color="#96FFFF" stop-opacity="0.5"/>
</linearGradient>
</defs>
</svg>
