<svg width="150" height="150" viewBox="0 0 150 150" fill="none" xmlns="http://www.w3.org/2000/svg">
<path d="M100.202 44.3711C105.613 39.0529 113.689 37.4887 120.243 41.0752C128.393 45.5351 131.104 56.2704 126.298 65.0527C126.107 65.4017 125.905 65.7411 125.696 66.0732C128.128 71.7321 129.467 78.5085 129.467 86.5576C129.467 108.754 105.003 116.114 75.2695 116.114C45.536 116.114 20.8916 108.754 20.8916 86.5576C20.8916 79.1045 22.2383 72.6463 24.6816 67.125C24.3338 66.612 24.0064 66.0774 23.7021 65.5215C18.896 56.7391 21.6071 46.0038 29.7568 41.5439C35.3209 38.4992 41.9808 39.1675 47.1768 42.6924C48.4139 41.7485 50.1886 41.8419 51.3193 42.9727L52.4854 44.1387C59.438 42.0143 67.1645 40.9951 75.2695 40.9951C84.2351 40.9951 92.721 42.0112 100.202 44.3711Z" fill="#F26908"/>
<path d="M100.202 44.3711L98.8484 48.6626L101.428 49.4763L103.357 47.5804L100.202 44.3711ZM120.243 41.0752L122.403 37.1276L122.403 37.1276L120.243 41.0752ZM126.298 65.0527L130.245 67.213L130.245 67.213L126.298 65.0527ZM125.696 66.0732L121.885 63.681L120.63 65.6807L121.562 67.8498L125.696 66.0732ZM129.467 86.5576H133.967V86.5576L129.467 86.5576ZM75.2695 116.114V120.614H75.2695L75.2695 116.114ZM20.8916 86.5576L16.3916 86.5576V86.5576H20.8916ZM24.6816 67.125L28.7967 68.946L29.8064 66.6644L28.406 64.5993L24.6816 67.125ZM23.7021 65.5215L19.7546 67.6818L19.7546 67.6818L23.7021 65.5215ZM29.7568 41.5439L27.5966 37.5963L27.5965 37.5964L29.7568 41.5439ZM47.1768 42.6924L44.6505 46.4163L47.331 48.2348L49.9063 46.27L47.1768 42.6924ZM51.3193 42.9727L54.5013 39.7907L54.5013 39.7906L51.3193 42.9727ZM52.4854 44.1387L49.3034 47.3207L51.2149 49.2322L53.8003 48.4423L52.4854 44.1387ZM75.2695 40.9951L75.2695 36.4951H75.2695V40.9951ZM100.202 44.3711L103.357 47.5804C107.533 43.4757 113.482 42.5049 118.083 45.0228L120.243 41.0752L122.403 37.1276C113.896 32.4724 103.693 34.6301 97.0477 41.1618L100.202 44.3711ZM120.243 41.0752L118.083 45.0227C123.78 48.1404 126.118 56.0074 122.35 62.8924L126.298 65.0527L130.245 67.213C136.09 56.5334 133.006 42.9298 122.403 37.1276L120.243 41.0752ZM126.298 65.0527L122.35 62.8924C122.211 63.1471 122.056 63.4079 121.885 63.681L125.696 66.0732L129.508 68.4655C129.753 68.0742 130.003 67.6564 130.245 67.213L126.298 65.0527ZM125.696 66.0732L121.562 67.8498C123.711 72.8524 124.967 79.0067 124.967 86.5576L129.467 86.5576L133.967 86.5576C133.967 78.0103 132.544 70.6118 129.831 64.2967L125.696 66.0732ZM129.467 86.5576H124.967C124.967 91.2246 123.7 94.9091 121.534 97.9017C119.334 100.942 116.027 103.511 111.606 105.586C102.663 109.783 89.8983 111.614 75.2695 111.614L75.2695 116.114L75.2695 120.614C90.3741 120.614 104.708 118.765 115.43 113.733C120.842 111.193 125.509 107.76 128.825 103.178C132.176 98.5477 133.967 92.9886 133.967 86.5576H129.467ZM75.2695 116.114V111.614C60.6415 111.614 47.8273 109.783 38.8352 105.582C34.3894 103.505 31.0599 100.934 28.8448 97.8911C26.6657 94.8982 25.3916 91.2171 25.3916 86.5576H20.8916H16.3916C16.3916 92.9962 18.1981 98.5587 21.569 103.189C24.9038 107.769 29.5938 111.199 35.0258 113.737C45.7893 118.765 60.164 120.614 75.2695 120.614V116.114ZM20.8916 86.5576L25.3916 86.5576C25.3916 79.6531 26.6372 73.826 28.7967 68.946L24.6816 67.125L20.5666 65.304C17.8395 71.4666 16.3916 78.5559 16.3916 86.5576L20.8916 86.5576ZM24.6816 67.125L28.406 64.5993C28.1373 64.203 27.8845 63.7902 27.6497 63.3611L23.7021 65.5215L19.7546 67.6818C20.1283 68.3646 20.5303 69.0211 20.9573 69.6507L24.6816 67.125ZM23.7021 65.5215L27.6497 63.3612C23.8819 56.4761 26.2201 48.6092 31.9171 45.4915L29.7568 41.5439L27.5965 37.5964C16.9941 43.3985 13.9102 57.0022 19.7546 67.6818L23.7021 65.5215ZM29.7568 41.5439L31.917 45.4915C35.8342 43.348 40.6869 43.7274 44.6505 46.4163L47.1768 42.6924L49.7031 38.9684C43.2748 34.6076 34.8077 33.6503 27.5966 37.5963L29.7568 41.5439ZM47.1768 42.6924L49.9063 46.27C49.3757 46.6749 48.6212 46.6385 48.1374 46.1547L51.3193 42.9727L54.5013 39.7906C51.7559 37.0454 47.4521 36.8222 44.4472 39.1147L47.1768 42.6924ZM51.3193 42.9727L48.1374 46.1546L49.3034 47.3207L52.4854 44.1387L55.6673 40.9567L54.5013 39.7907L51.3193 42.9727ZM52.4854 44.1387L53.8003 48.4423C60.2564 46.4696 67.53 45.4951 75.2695 45.4951V40.9951V36.4951C66.799 36.4951 58.6196 37.559 51.1704 39.8351L52.4854 44.1387ZM75.2695 40.9951L75.2695 45.4951C83.9197 45.4951 91.924 46.4784 98.8484 48.6626L100.202 44.3711L101.556 40.0795C93.518 37.5441 84.5506 36.4951 75.2695 36.4951L75.2695 40.9951Z" fill="white"/>
<ellipse cx="38.0328" cy="57.6382" rx="16.8215" ry="18.1273" transform="rotate(-28.6896 38.0328 57.6382)" fill="#5BB42B"/>
<ellipse cx="16.8215" cy="18.1273" rx="16.8215" ry="18.1273" transform="matrix(-0.877234 -0.480064 -0.480064 0.877234 134.574 49.3433)" fill="#5BB42B"/>
<path d="M129.041 86.75C129.041 108.946 104.577 116.307 74.8434 116.307C45.1098 116.307 20.4658 108.946 20.4658 86.75C20.4658 54.8648 45.1098 41.1877 74.8434 41.1877C104.577 41.1877 129.041 52.3398 129.041 86.75Z" fill="#5BB42B"/>
<path d="M118.1 79.0627H110.945" stroke="#A1DC3C" stroke-width="8.41667" stroke-linecap="round"/>
<path d="M40.2451 79.0627H33.0909" stroke="#A1DC3C" stroke-width="8.41667" stroke-linecap="round"/>
<circle cx="81.6971" cy="75.9066" r="3.99792" fill="#D52C2F"/>
<mask id="mask0_2746_5020" style="mask-type:alpha" maskUnits="userSpaceOnUse" x="77" y="71" width="9" height="9">
<circle cx="81.6971" cy="75.9066" r="3.99792" fill="#D52C2F"/>
</mask>
<g mask="url(#mask0_2746_5020)">
<circle cx="79.5926" cy="78.8523" r="4.41875" fill="#FF686B"/>
</g>
<path d="M104.212 51.709L110.524 45.3965" stroke="black" stroke-width="6.3125" stroke-linecap="round"/>
<path d="M48.6621 45.3965L54.9746 51.709" stroke="black" stroke-width="6.3125" stroke-linecap="round"/>
<path d="M50.3981 57.0113C49.8055 55.3185 50.645 53.6129 51.1389 52.9717C51.3241 53.3243 51.7502 54.299 51.9724 55.3762C52.2502 56.7227 54.6576 57.0113 53.7317 58.0693C52.8058 59.1273 56.2316 62.0127 56.6946 65.2828C57.1575 68.553 58.7315 76.9207 49.102 76.0551C39.4726 75.1895 43.1762 65.2828 45.1206 62.8783C47.065 60.4738 51.1389 59.1273 50.3981 57.0113Z" fill="#F6C500"/>
<path d="M108.051 57.0113C107.459 55.3185 108.298 53.6129 108.792 52.9717C108.977 53.3243 109.404 54.299 109.626 55.3762C109.904 56.7227 112.311 57.0113 111.385 58.0693C110.459 59.1273 113.885 62.0127 114.348 65.2828C114.811 68.553 116.385 76.9207 106.755 76.0551C97.1259 75.1895 100.83 65.2828 102.774 62.8783C104.718 60.4738 108.792 59.1273 108.051 57.0113Z" fill="#F6C500"/>
<path d="M46.3825 66.3451C47.5483 65.0713 48.499 63.9672 50.0107 62.6509C49.838 63.5851 52.058 63.9502 51.9543 65.0713C51.8248 66.4725 54.4163 65.7082 54.5458 67.7464C54.6754 69.7846 53.1204 74.3706 48.974 73.4789C44.8276 72.5872 44.5298 68.3696 46.3825 66.3451Z" fill="#F26908"/>
<path d="M104.037 66.3451C105.203 65.0713 106.153 63.9672 107.665 62.6509C107.492 63.5851 109.712 63.9502 109.609 65.0713C109.479 66.4725 112.071 65.7082 112.2 67.7464C112.33 69.7846 110.775 74.3706 106.628 73.4789C102.482 72.5872 102.184 68.3696 104.037 66.3451Z" fill="#F26908"/>
</svg>
