<svg width="111" height="147" viewBox="0 0 111 147" fill="none" xmlns="http://www.w3.org/2000/svg">
<path fill-rule="evenodd" clip-rule="evenodd" d="M37.8418 14.0734C38.0085 8.67792 42.4922 8.44435 45.1387 10.7912C48.957 14.1772 51.5813 17.8658 53.0586 21.4504C53.3619 20.1771 53.873 18.887 54.6982 18.0812C56.7236 16.1038 60.0717 15.6722 61.2217 16.2678C62.3715 16.8634 62.9608 19.3623 62.0166 21.3722C61.6877 22.0723 60.8335 22.6445 59.7285 23.1066C74.1015 24.5465 86.059 30.2549 91.6816 43.7853C94.3782 45.1551 96.6679 47.0151 97.3379 49.6076C98.7081 54.9127 98.8298 59.472 98.209 63.0519C97.5993 66.5672 96.2313 69.3441 94.4033 70.8019C94.2141 70.9528 94.0018 71.0889 93.7754 71.215C91.6487 76.54 87.1427 80.3414 81.0469 82.9308H84.6748C84.6531 82.9928 84.6312 83.0574 84.6084 83.1242C87.0518 83.0351 89.1956 83.0234 90.6494 83.1008H95.3096C95.9727 83.1008 96.5107 83.6388 96.5107 84.3019C96.5107 84.9028 96.0685 85.3984 95.4922 85.4865C97.5169 87.8669 98.385 91.6234 95.7676 94.6262L101.207 102.823C101.963 103.964 101.146 105.487 99.7773 105.487H83.2939C82.3202 105.487 81.6251 104.715 81.5781 103.86C81.0773 103.813 80.4982 103.741 79.8936 103.656C81.714 114.379 81.0663 123.337 79.6992 130.445C79.0128 131.645 77.8812 132.297 74.0391 133.532C73.8536 133.592 73.6634 133.646 73.4707 133.698C72.9502 134.988 72.3964 135.863 71.8359 136.092C68.7603 137.349 54.6768 137.156 53.2197 136.092C52.4146 135.504 52.1807 130.051 52.2734 124.949C51.9177 124.952 51.5619 124.954 51.2061 124.953C51.2986 130.053 51.0657 135.504 50.2607 136.092C48.8039 137.156 34.7202 137.349 31.6445 136.092C31.0075 135.832 30.3763 134.739 29.7969 133.149C29.4463 133.055 29.0974 132.956 28.7549 132.846C24.9127 131.611 22.0081 130.044 21.0361 129.415C22.3119 125.704 24.1659 120.261 26.0215 114.736C22.0859 115.767 17.0501 114.027 16.9209 106.504C16.8896 104.678 17.3361 102.814 18.1143 100.974C17.6822 100.747 17.4341 100.563 17.4336 100.427C17.4336 99.6036 22.9227 89.0709 27.2109 85.1603C27.344 85.039 27.4777 84.9223 27.6123 84.8117C15.8442 81.5224 8 74.9945 8 63.7189C8.00011 37.2729 22.8417 25.883 42.3232 23.3088C39.721 21.6378 37.7168 18.1233 37.8418 14.0734ZM84.5039 98.5402C84.5039 98.6452 84.4999 98.7493 84.498 98.8527L84.8828 98.2736C84.7549 98.2628 84.6266 98.2517 84.498 98.2385C84.4998 98.3382 84.5039 98.439 84.5039 98.5402Z" fill="#CCEE74"/>
<path d="M37.8418 14.0734L33.6085 13.9426L33.6085 13.9428L37.8418 14.0734ZM45.1387 10.7912L47.9487 7.62232V7.62231L45.1387 10.7912ZM53.0586 21.4504L49.1427 23.0642L54.1401 35.19L57.1787 22.4317L53.0586 21.4504ZM54.6982 18.0812L51.7395 15.0507L51.7393 15.0509L54.6982 18.0812ZM61.2217 16.2678L63.1698 12.507L63.1693 12.5068L61.2217 16.2678ZM62.0166 21.3722L65.8499 23.1734L65.8501 23.173L62.0166 21.3722ZM59.7285 23.1066L58.0943 19.1992L59.3063 27.3209L59.7285 23.1066ZM91.6816 43.7853L87.7705 45.4106L88.3702 46.8537L89.7635 47.5615L91.6816 43.7853ZM97.3379 49.6076L101.439 48.5485L101.439 48.5479L97.3379 49.6076ZM98.209 63.0519L102.382 63.7757L102.382 63.7756L98.209 63.0519ZM94.4033 70.8019L97.0438 74.1134L97.0441 74.1132L94.4033 70.8019ZM93.7754 71.215L91.7142 67.5151L90.4 68.2472L89.8421 69.6442L93.7754 71.215ZM81.0469 82.9308L79.3909 79.0326L81.0469 87.1662V82.9308ZM84.6748 82.9308L88.6724 84.33L90.6444 78.6955H84.6748V82.9308ZM84.6084 83.1242L80.6004 81.7551L78.6104 87.581L84.7627 87.3567L84.6084 83.1242ZM90.6494 83.1008L90.4243 87.3301L90.5368 87.3361H90.6494V83.1008ZM95.3096 83.1008L95.3097 78.8654H95.3096V83.1008ZM96.5107 84.3019L100.746 84.3022V84.3019H96.5107ZM95.4922 85.4865L94.852 81.2998L87.3469 82.4474L92.266 88.2306L95.4922 85.4865ZM95.7676 94.6262L92.5749 91.8431L90.4531 94.2773L92.2385 96.9679L95.7676 94.6262ZM101.207 102.823L104.736 100.482L104.736 100.482L101.207 102.823ZM83.2939 105.487L83.2937 109.723H83.2939V105.487ZM81.5781 103.86L85.8071 103.627L85.6068 99.979L81.9685 99.6422L81.5781 103.86ZM79.8936 103.656L80.4811 99.462L74.7492 98.6591L75.7179 104.365L79.8936 103.656ZM79.6992 130.445L83.3761 132.547L83.7254 131.936L83.8583 131.245L79.6992 130.445ZM74.0391 133.532L75.3351 137.565V137.565L74.0391 133.532ZM73.4707 133.698L72.356 129.612L70.3292 130.165L69.543 132.114L73.4707 133.698ZM71.8359 136.092L73.4386 140.012L73.4394 140.012L71.8359 136.092ZM53.2197 136.092L50.722 139.512L50.7223 139.513L53.2197 136.092ZM52.2734 124.949L56.5081 125.026L56.5871 120.677L52.2377 120.714L52.2734 124.949ZM51.2061 124.953L51.2142 120.718L46.893 120.71L46.9714 125.03L51.2061 124.953ZM50.2607 136.092L52.7585 139.512L52.759 139.512L50.2607 136.092ZM31.6445 136.092L30.0416 140.012L30.0419 140.012L31.6445 136.092ZM29.7969 133.149L33.7764 131.699L33.0223 129.629L30.8948 129.058L29.7969 133.149ZM28.7549 132.846L27.4588 136.878L27.4588 136.878L28.7549 132.846ZM21.0361 129.415L17.0308 128.038L15.9539 131.171L18.7353 132.971L21.0361 129.415ZM26.0215 114.736L30.0365 116.084L32.5327 108.651L24.9481 110.638L26.0215 114.736ZM16.9209 106.504L12.6862 106.577L12.6862 106.577L16.9209 106.504ZM18.1143 100.974L22.0153 102.623L23.5332 99.0324L20.0806 97.2226L18.1143 100.974ZM17.4336 100.427H13.1982V100.435L13.1983 100.443L17.4336 100.427ZM27.2109 85.1603L24.3572 82.0308L24.3571 82.0308L27.2109 85.1603ZM27.6123 84.8117L30.3006 88.0845L36.5853 82.9221L28.7524 80.7327L27.6123 84.8117ZM8 63.7189L3.76464 63.7189V63.7189H8ZM42.3232 23.3088L42.8781 27.5076L54.3418 25.9929L44.6117 19.7449L42.3232 23.3088ZM84.5039 98.5402L88.7393 98.5403V98.5402H84.5039ZM84.498 98.8527L80.2634 98.7765L80.0025 113.272L88.0257 101.197L84.498 98.8527ZM84.8828 98.2736L88.4105 100.617L92.3699 94.6583L85.2409 94.0534L84.8828 98.2736ZM84.498 98.2385L84.9308 94.0253L80.1806 93.5374L80.2633 98.3118L84.498 98.2385ZM37.8418 14.0734L42.0751 14.2042C42.0993 13.422 42.2688 13.2048 42.2278 13.2678C42.2062 13.3009 42.1506 13.3714 42.0525 13.4443C41.9556 13.5163 41.8554 13.5624 41.7715 13.5874C41.6138 13.6345 41.5985 13.5873 41.7578 13.6321C41.8298 13.6524 41.9219 13.688 42.0253 13.745C42.1282 13.8018 42.2317 13.8741 42.3286 13.9601L45.1387 10.7912L47.9487 7.62231C45.8171 5.73201 42.5587 4.51259 39.3491 5.47046C35.6367 6.57839 33.7305 9.99294 33.6085 13.9426L37.8418 14.0734ZM45.1387 10.7912L42.3286 13.9601C45.735 16.9807 47.9443 20.1563 49.1427 23.0642L53.0586 21.4504L56.9744 19.8366C55.2183 15.5753 52.179 11.3736 47.9487 7.62232L45.1387 10.7912ZM53.0586 21.4504L57.1787 22.4317C57.2843 21.9884 57.4069 21.6282 57.5281 21.3656C57.6554 21.0898 57.7235 21.0468 57.6571 21.1116L54.6982 18.0812L51.7393 15.0509C50.0421 16.7081 49.298 18.9595 48.9385 20.4691L53.0586 21.4504ZM54.6982 18.0812L57.657 21.1118C57.9777 20.7986 58.5508 20.4934 59.2275 20.3395C59.5457 20.2672 59.7836 20.2531 59.8987 20.2559C59.9538 20.2572 59.9371 20.2615 59.8594 20.2459C59.7955 20.233 59.574 20.184 59.274 20.0287L61.2217 16.2678L63.1693 12.5068C62.0708 11.9379 60.9153 11.8075 60.1054 11.7877C59.2061 11.7658 58.2647 11.8715 57.349 12.0798C55.5577 12.4871 53.4442 13.3864 51.7395 15.0507L54.6982 18.0812ZM61.2217 16.2678L59.2736 20.0285C58.6366 19.6985 58.3648 19.2709 58.2978 19.1551C58.2161 19.0139 58.2229 18.9678 58.2375 19.0482C58.25 19.117 58.2568 19.2203 58.2439 19.3341C58.2313 19.4456 58.2047 19.5255 58.1831 19.5714L62.0166 21.3722L65.8501 23.173C66.7382 21.2825 66.8838 19.2477 66.5713 17.531C66.3035 16.0605 65.4619 13.6944 63.1698 12.507L61.2217 16.2678ZM62.0166 21.3722L58.1833 19.5711C58.3066 19.3086 58.4434 19.1336 58.5298 19.0379C58.6148 18.9435 58.6687 18.9061 58.6573 18.9144C58.6475 18.9217 58.5988 18.9557 58.4978 19.0101C58.3982 19.0637 58.2651 19.1278 58.0943 19.1992L59.7285 23.1066L61.3627 27.014C62.586 26.5024 64.7961 25.4161 65.8499 23.1734L62.0166 21.3722ZM59.7285 23.1066L59.3063 27.3209C72.8163 28.6743 82.9712 33.8614 87.7705 45.4106L91.6816 43.7853L95.5927 42.1601C89.1468 26.6484 75.3867 20.4187 60.1507 18.8924L59.7285 23.1066ZM91.6816 43.7853L89.7635 47.5615C92.1637 48.7806 93.0383 49.8974 93.2373 50.6673L97.3379 49.6076L101.439 48.5479C100.298 44.1327 96.5927 41.5295 93.5997 40.0092L91.6816 43.7853ZM97.3379 49.6076L93.2371 50.6667C94.4786 55.4737 94.5401 59.421 94.0359 62.3283L98.209 63.0519L102.382 63.7756C103.12 59.5229 102.938 54.3517 101.439 48.5485L97.3379 49.6076ZM98.209 63.0519L94.0359 62.3282C93.5148 65.3329 92.4508 66.9418 91.7626 67.4907L94.4033 70.8019L97.0441 74.1132C100.012 71.7465 101.684 67.8015 102.382 63.7757L98.209 63.0519ZM94.4033 70.8019L91.7628 67.4905C91.7859 67.472 91.7954 67.4664 91.7862 67.4725C91.7769 67.4785 91.7542 67.4928 91.7142 67.5151L93.7754 71.215L95.8366 74.915C96.2038 74.7104 96.624 74.4482 97.0438 74.1134L94.4033 70.8019ZM93.7754 71.215L89.8421 69.6442C88.2666 73.5891 84.8308 76.7218 79.3909 79.0326L81.0469 82.9308L82.7028 86.8291C89.4547 83.9609 95.0308 79.4909 97.7087 72.7859L93.7754 71.215ZM81.0469 82.9308V87.1662H84.6748V82.9308V78.6955H81.0469V82.9308ZM84.6748 82.9308L80.6772 81.5317C80.6486 81.6134 80.6187 81.7015 80.6004 81.7551L84.6084 83.1242L88.6164 84.4933C88.6437 84.4133 88.6576 84.3723 88.6724 84.33L84.6748 82.9308ZM84.6084 83.1242L84.7627 87.3567C87.1613 87.2693 89.1583 87.2627 90.4243 87.3301L90.6494 83.1008L90.8746 78.8714C89.233 78.784 86.9422 78.801 84.4541 78.8917L84.6084 83.1242ZM90.6494 83.1008V87.3361H95.3096V83.1008V78.8654H90.6494V83.1008ZM95.3096 83.1008L95.3095 87.3361C93.6337 87.3361 92.2754 85.978 92.2754 84.3019H96.5107H100.746C100.746 81.2996 98.3117 78.8655 95.3097 78.8654L95.3096 83.1008ZM96.5107 84.3019L92.2754 84.3017C92.2755 82.7653 93.4057 81.521 94.852 81.2998L95.4922 85.4865L96.1324 89.6732C98.7312 89.2758 100.746 87.0403 100.746 84.3022L96.5107 84.3019ZM95.4922 85.4865L92.266 88.2306C92.7914 88.8483 93.0968 89.576 93.1519 90.197C93.1984 90.7214 93.0873 91.2554 92.5749 91.8431L95.7676 94.6262L98.9602 97.4092C103.392 92.3253 101.621 86.1546 98.7183 82.7424L95.4922 85.4865ZM95.7676 94.6262L92.2385 96.9679L97.678 105.165L101.207 102.823L104.736 100.482L99.2966 92.2844L95.7676 94.6262ZM101.207 102.823L97.6778 105.165C96.5662 103.49 97.7675 101.252 99.7773 101.252V105.487V109.723C104.524 109.723 107.361 104.438 104.736 100.482L101.207 102.823ZM99.7773 105.487V101.252H83.2939V105.487V109.723H99.7773V105.487ZM83.2939 105.487L83.2942 101.252C84.7618 101.252 85.7417 102.435 85.8071 103.627L81.5781 103.86L77.3491 104.092C77.5086 106.996 79.8785 109.723 83.2937 109.723L83.2939 105.487ZM81.5781 103.86L81.9685 99.6422C81.5597 99.6044 81.0528 99.5421 80.4811 99.462L79.8936 103.656L79.306 107.851C79.9437 107.94 80.5949 108.022 81.1877 108.077L81.5781 103.86ZM79.8936 103.656L75.7179 104.365C77.4419 114.519 76.8255 122.962 75.5401 129.645L79.6992 130.445L83.8583 131.245C85.307 123.713 85.9862 114.239 84.0692 102.948L79.8936 103.656ZM79.6992 130.445L76.0224 128.342C76.021 128.345 76.0339 128.322 76.0616 128.286C76.0901 128.249 76.1213 128.215 76.1498 128.188C76.208 128.133 76.1963 128.163 76.0094 128.266C75.5529 128.517 74.6577 128.885 72.743 129.5L74.0391 133.532L75.3351 137.565C78.9294 136.409 81.7551 135.382 83.3761 132.547L79.6992 130.445ZM74.0391 133.532L72.743 129.5C72.6477 129.531 72.5289 129.565 72.356 129.612L73.4707 133.698L74.5854 137.784C74.798 137.726 75.0595 137.653 75.3351 137.565L74.0391 133.532ZM73.4707 133.698L69.543 132.114C69.4472 132.351 69.3615 132.54 69.2885 132.686C69.2141 132.834 69.1657 132.912 69.1492 132.936C69.1284 132.967 69.1766 132.887 69.3095 132.759C69.4368 132.636 69.7383 132.374 70.2325 132.172L71.8359 136.092L73.4394 140.012C74.8966 139.416 75.7605 138.287 76.1874 137.65C76.6855 136.906 77.0806 136.071 77.3984 135.283L73.4707 133.698ZM71.8359 136.092L70.2333 132.172C70.2921 132.147 70.1074 132.221 69.521 132.318C68.9933 132.405 68.3109 132.485 67.4968 132.55C65.8716 132.68 63.9026 132.739 61.946 132.727C59.9864 132.716 58.123 132.634 56.7076 132.501C55.9918 132.433 55.4664 132.36 55.1314 132.294C54.9622 132.26 54.91 132.242 54.9396 132.252C54.9572 132.257 55.0317 132.282 55.1428 132.332C55.2434 132.378 55.4589 132.483 55.7172 132.671L53.2197 136.092L50.7223 139.513C51.3576 139.977 52.0044 140.205 52.3307 140.311C52.7281 140.439 53.131 140.533 53.4922 140.604C54.2184 140.748 55.0563 140.854 55.9138 140.934C57.645 141.097 59.7679 141.185 61.8958 141.198C64.0267 141.21 66.2463 141.148 68.1723 140.994C69.8953 140.856 71.9799 140.609 73.4386 140.012L71.8359 136.092ZM53.2197 136.092L55.7175 132.672C56.2496 133.06 56.5415 133.48 56.6672 133.682C56.8048 133.902 56.8727 134.07 56.8944 134.126C56.935 134.231 56.917 134.215 56.8735 133.996C56.79 133.575 56.7034 132.88 56.6346 131.913C56.4993 130.01 56.463 127.508 56.5081 125.026L52.2734 124.949L48.0388 124.872C47.9912 127.492 48.0255 130.268 48.1852 132.514C48.2639 133.62 48.3809 134.718 48.5648 135.645C48.6551 136.099 48.7866 136.645 48.9938 137.181C49.1331 137.541 49.5847 138.682 50.722 139.512L53.2197 136.092ZM52.2734 124.949L52.2377 120.714C51.893 120.717 51.5522 120.719 51.2142 120.718L51.2061 124.953L51.1979 129.189C51.5716 129.189 51.9425 129.188 52.3092 129.185L52.2734 124.949ZM51.2061 124.953L46.9714 125.03C47.0164 127.511 46.9803 130.012 46.8452 131.915C46.7765 132.882 46.69 133.576 46.6066 133.997C46.5632 134.215 46.5452 134.232 46.5858 134.127C46.6076 134.07 46.6754 133.902 46.8131 133.682C46.9388 133.481 47.2306 133.06 47.7625 132.672L50.2607 136.092L52.759 139.512C53.8959 138.682 54.3474 137.541 54.4867 137.181C54.6938 136.645 54.8253 136.099 54.9154 135.645C55.0992 134.718 55.2161 133.621 55.2947 132.515C55.4541 130.27 55.4882 127.496 55.4407 124.876L51.2061 124.953ZM50.2607 136.092L47.763 132.672C48.0213 132.483 48.2369 132.378 48.3375 132.332C48.4487 132.282 48.5232 132.257 48.5408 132.252C48.5704 132.242 48.5183 132.26 48.349 132.294C48.0141 132.36 47.4887 132.434 46.7729 132.501C45.3576 132.634 43.4942 132.716 41.5346 132.727C39.578 132.739 37.609 132.68 35.9837 132.55C35.1696 132.485 34.4872 132.405 33.9595 132.318C33.3731 132.221 33.1883 132.147 33.2472 132.172L31.6445 136.092L30.0419 140.012C31.5006 140.609 33.5852 140.856 35.3082 140.994C37.2342 141.148 39.4539 141.21 41.5847 141.198C43.7126 141.185 45.8356 141.097 47.5668 140.934C48.4243 140.854 49.2622 140.748 49.9883 140.604C50.3496 140.533 50.7525 140.439 51.15 140.311C51.4762 140.205 52.1231 139.976 52.7585 139.512L50.2607 136.092ZM31.6445 136.092L33.2475 132.172C33.5328 132.288 33.7506 132.424 33.9025 132.535C34.0541 132.645 34.1583 132.745 34.2195 132.808C34.3335 132.927 34.3566 132.981 34.3081 132.902C34.265 132.832 34.1913 132.699 34.0938 132.485C33.9978 132.275 33.891 132.014 33.7764 131.699L29.7969 133.149L25.8174 134.598C26.1569 135.53 26.5729 136.494 27.0902 137.336C27.5119 138.022 28.4246 139.351 30.0416 140.012L31.6445 136.092ZM29.7969 133.149L30.8948 129.058C30.5757 128.972 30.3007 128.894 30.0509 128.814L28.7549 132.846L27.4588 136.878C27.8941 137.018 28.3168 137.137 28.6989 137.239L29.7969 133.149ZM28.7549 132.846L30.051 128.814C26.547 127.687 23.9825 126.277 23.337 125.859L21.0361 129.415L18.7353 132.971C20.0338 133.811 23.2784 135.534 27.4588 136.878L28.7549 132.846ZM21.0361 129.415L25.0415 130.792C26.3203 127.072 28.1775 121.619 30.0365 116.084L26.0215 114.736L22.0065 113.387C20.1542 118.902 18.3035 124.336 17.0308 128.038L21.0361 129.415ZM26.0215 114.736L24.9481 110.638C23.8859 110.917 23.0011 110.73 22.4851 110.366C22.102 110.096 21.2036 109.225 21.1556 106.431L16.9209 106.504L12.6862 106.577C12.7674 111.305 14.4515 115.066 17.6025 117.288C20.6206 119.417 24.2216 119.585 27.0948 118.833L26.0215 114.736ZM16.9209 106.504L21.1556 106.431C21.1369 105.341 21.4031 104.071 22.0153 102.623L18.1143 100.974L14.2132 99.3246C13.2691 101.558 12.6422 104.015 12.6862 106.577L16.9209 106.504ZM18.1143 100.974L20.0806 97.2226C19.9402 97.149 20.0419 97.1887 20.2331 97.3393C20.3255 97.4122 20.5888 97.6263 20.8623 97.9893C21.1089 98.3167 21.664 99.1621 21.6689 100.41L17.4336 100.427L13.1983 100.443C13.2034 101.76 13.7897 102.679 14.0966 103.086C14.4302 103.529 14.7826 103.829 14.9911 103.993C15.4145 104.327 15.8563 104.572 16.1479 104.725L18.1143 100.974ZM17.4336 100.427H21.6689C21.6689 100.894 21.5855 101.236 21.5698 101.302C21.5414 101.421 21.5162 101.496 21.5129 101.506C21.5056 101.528 21.5205 101.482 21.5783 101.346C21.6893 101.083 21.8781 100.675 22.1472 100.137C22.6801 99.0699 23.4515 97.6421 24.3592 96.1082C26.2556 92.9034 28.4289 89.7816 30.0648 88.2898L27.2109 85.1603L24.3571 82.0308C21.7047 84.4496 18.9893 88.5495 17.0692 91.7945C16.0685 93.4855 15.1996 95.0896 14.5693 96.3514C14.2568 96.9771 13.9832 97.5578 13.7774 98.0442C13.6766 98.2823 13.5694 98.5509 13.4797 98.8193C13.4536 98.8973 13.1982 99.5975 13.1982 100.427H17.4336ZM27.2109 85.1603L30.0647 88.2899C30.1541 88.2084 30.2321 88.1408 30.3006 88.0845L27.6123 84.8117L24.924 81.5389C24.7232 81.7038 24.534 81.8695 24.3572 82.0308L27.2109 85.1603ZM27.6123 84.8117L28.7524 80.7327C23.2766 79.2021 19.1318 77.0255 16.3969 74.2742C13.7673 71.6289 12.2354 68.2573 12.2354 63.7189H8H3.76464C3.76464 70.4561 6.1548 75.9862 10.3894 80.246C14.5186 84.3999 20.1799 87.1319 26.4722 88.8907L27.6123 84.8117ZM8 63.7189L12.2354 63.7189C12.2354 51.3135 15.6952 42.991 20.928 37.4776C26.2084 31.9142 33.7685 28.7113 42.8781 27.5076L42.3232 23.3088L41.7684 19.1099C31.3964 20.4804 21.795 24.2595 14.7841 31.6462C7.72578 39.0829 3.7647 49.6783 3.76464 63.7189L8 63.7189ZM42.3232 23.3088L44.6117 19.7449C43.3373 18.9266 41.9932 16.8582 42.0751 14.2041L37.8418 14.0734L33.6085 13.9428C33.4404 19.3885 36.1046 24.349 40.0348 26.8726L42.3232 23.3088ZM84.5039 98.5402L80.2686 98.5401C80.2686 98.5398 80.2686 98.5436 80.2684 98.5533C80.2682 98.5633 80.268 98.5767 80.2675 98.5969C80.2669 98.622 80.2665 98.6358 80.2657 98.6712C80.265 98.7003 80.2641 98.7369 80.2634 98.7765L84.498 98.8527L88.7327 98.9289C88.7334 98.8924 88.734 98.8759 88.7358 98.7972C88.7373 98.7354 88.7393 98.6435 88.7393 98.5403L84.5039 98.5402ZM84.498 98.8527L88.0257 101.197L88.4105 100.617L84.8828 98.2736L81.3551 95.9298L80.9704 96.5089L84.498 98.8527ZM84.8828 98.2736L85.2409 94.0534C85.1136 94.0426 85.0184 94.0343 84.9308 94.0253L84.498 98.2385L84.0653 102.452C84.2348 102.469 84.3962 102.483 84.5247 102.494L84.8828 98.2736ZM84.498 98.2385L80.2633 98.3118C80.264 98.3529 80.2649 98.3904 80.2657 98.42C80.266 98.4347 80.2664 98.4493 80.2667 98.4612C80.2671 98.4738 80.2673 98.4841 80.2676 98.4939C80.2686 98.5354 80.2686 98.5436 80.2686 98.5402H84.5039H88.7393C88.7393 98.4356 88.7371 98.3428 88.7357 98.2837C88.7338 98.2084 88.7333 98.1939 88.7328 98.1651L84.498 98.2385Z" fill="white"/>
<ellipse cx="82.9598" cy="98.5399" rx="1.54379" ry="5.14596" fill="#AAAAAA"/>
<path d="M91.482 97.4754C83.2562 100.785 70.1839 93.881 64.676 90.0155C64.4043 89.3051 64.0255 87.4954 64.6843 85.9404C65.5078 83.9966 86.6924 82.6124 91.6087 83.1751C96.5249 83.7379 101.764 93.3389 91.482 97.4754Z" fill="#FFC532"/>
<path d="M71.8357 136.092C74.2962 135.086 76.692 121.681 76.2063 115.007L52.5726 118.779C52.087 124.195 52.0546 135.24 53.2201 136.092C54.677 137.155 68.7601 137.349 71.8357 136.092Z" fill="#FFC532"/>
<path d="M73.6829 121.244C81.0384 116.353 71.0953 85.8408 63.9108 81.9977C56.7263 78.1545 45.041 78.7368 39.9091 81.9977C34.7773 85.2586 22.0957 116.237 29.4513 121.244C36.8068 126.252 66.3273 126.136 73.6829 121.244Z" fill="#FFDB40"/>
<path d="M31.6447 136.092C29.1842 135.086 26.7885 121.681 27.2741 115.007L50.9079 118.779C51.3935 124.195 51.4258 135.24 50.2604 136.092C48.8035 137.155 34.7204 137.349 31.6447 136.092Z" fill="#FFDB40"/>
<path d="M45.9083 116.379C47.2805 108.694 47.5092 92.8219 47.452 85.8463L35.4448 85.1602C35.0446 86.1893 33.8667 89.62 32.3572 95.109C30.8478 100.598 24.1809 120.267 21.0361 129.415C22.0081 130.044 24.9128 131.611 28.7551 132.846C32.5974 134.081 37.103 134.275 38.8754 134.218C40.6479 131.474 44.536 124.064 45.9083 116.379Z" fill="white"/>
<path d="M64.6053 116.894C64.6053 109.346 62.8401 92.8219 62.8973 85.8463L74.9045 85.1602C75.3047 86.1893 76.4826 89.62 77.9921 95.109C82.0016 109.689 81.415 121.525 79.6993 130.445C79.0129 131.645 77.8811 132.297 74.0388 133.532C70.1965 134.767 64.6698 134.447 62.8973 134.39C63.7469 131.302 64.6053 124.7 64.6053 116.894Z" fill="white"/>
<path d="M16.9205 106.504C16.7684 97.6388 27.8864 87.8955 33.4645 84.132C34.2252 84.132 36.0507 84.4247 37.2678 85.5955C38.7891 87.0591 32.5137 107.34 30.2318 111.731C27.9499 116.122 17.1107 117.585 16.9205 106.504Z" fill="#FFDB40"/>
<path d="M53.4791 116.722C53.5496 116.722 53.6194 116.709 53.6847 116.682C53.7499 116.656 53.8092 116.617 53.8593 116.568L56.2423 114.171C56.3301 114.069 56.3759 113.938 56.3707 113.803C56.3655 113.669 56.3096 113.542 56.2142 113.447C56.1189 113.353 55.991 113.297 55.8562 113.292C55.7215 113.287 55.5897 113.332 55.4872 113.419L53.0989 115.79C53.0487 115.839 53.0088 115.898 52.9816 115.963C52.9545 116.028 52.9405 116.098 52.9405 116.168C52.9405 116.238 52.9545 116.308 52.9816 116.373C53.0088 116.438 53.0487 116.497 53.0989 116.546C53.1471 116.599 53.2056 116.642 53.271 116.673C53.3363 116.703 53.4071 116.72 53.4791 116.722Z" fill="#FFBB4D"/>
<path d="M55.8367 116.722C55.9066 116.722 55.9759 116.709 56.0407 116.683C56.1054 116.656 56.1643 116.617 56.2139 116.568C56.2637 116.518 56.3033 116.46 56.3302 116.395C56.3572 116.33 56.3711 116.261 56.3711 116.191C56.3711 116.12 56.3572 116.051 56.3302 115.986C56.3033 115.921 56.2637 115.863 56.2139 115.813L53.8495 113.449C53.8001 113.399 53.7413 113.359 53.6766 113.332C53.6118 113.305 53.5424 113.291 53.4722 113.291C53.4021 113.291 53.3326 113.305 53.2679 113.332C53.2031 113.359 53.1444 113.399 53.095 113.449C52.996 113.548 52.9405 113.683 52.9405 113.823C52.9405 113.964 52.996 114.098 53.095 114.198L55.4647 116.568C55.5637 116.666 55.6973 116.721 55.8367 116.722Z" fill="#FFBB4D"/>
<path d="M82.2729 95.1093C82.2729 90.8553 83.8738 85.2176 84.6743 82.9305H78.1561C76.9211 82.9305 73.5247 83.6167 71.981 83.9597L75.9262 103C78.0418 103.4 82.4444 104.132 83.1305 103.857C83.9882 103.514 82.2729 100.427 82.2729 95.1093Z" fill="white"/>
<path d="M17.4336 100.427C17.4336 99.6032 22.9226 89.0705 27.2109 85.1601C31.4992 81.2497 36.6452 83.0187 39.3897 84.473C45.2218 87.5613 40.476 103.628 38.532 109.518C37.1598 109.746 34.1408 109.724 33.043 107.802C31.6707 105.401 17.4336 101.456 17.4336 100.427Z" fill="white"/>
<path d="M95.1382 63.7193C95.1382 81.6241 75.5044 87.5615 51.6413 87.5615C27.7783 87.5615 8 81.6241 8 63.7193C8 33.1897 27.7783 22.7224 51.6413 22.7224C75.5044 22.7224 95.1382 31.7359 95.1382 63.7193Z" fill="#FFDB40"/>
<path d="M23.4375 72.4672H28.5835" stroke="#FCA18E" stroke-width="6.86128" stroke-linecap="round"/>
<path d="M80.3857 72.4672H85.5317" stroke="#FCA18E" stroke-width="6.86128" stroke-linecap="round"/>
<path d="M33.7295 60.1169V65.606" stroke="#123041" stroke-width="5.14596" stroke-linecap="round"/>
<path d="M75.2402 60.1169V65.606" stroke="#123041" stroke-width="5.14596" stroke-linecap="round"/>
<path d="M95.6774 50.0375C93.5683 41.8716 67.5239 39.6319 54.7653 39.5328C42.9832 40.5899 23.9103 39.5328 15.4156 47.0645C10.9931 50.9856 10.1429 64.9025 15.4156 69.4611C20.6883 74.0198 41.7778 71.8396 44.7071 69.4611C47.6363 67.0827 48.6139 60.8394 54.7653 60.8394C60.9168 60.8394 60.5381 65.6953 67.1777 69.4611C73.8174 73.227 90.6 71.6413 93.334 69.4611C96.0679 67.2809 98.3137 60.2448 95.6774 50.0375Z" fill="#BDFEFF" fill-opacity="0.2" stroke="#115A30" stroke-width="3.43064"/>
<path d="M63.2331 68.0063C63.2331 71.1325 59.3164 72.4661 54.4849 72.4661C49.6535 72.4661 45.7368 71.1325 45.7368 68.0063C45.7368 64.8801 49.6535 61.145 54.4849 61.145C59.3164 61.145 63.2331 64.8801 63.2331 68.0063Z" fill="#FFB132"/>
<path d="M45.1386 10.7912C50.3428 15.4061 53.3325 20.5818 54.217 25.2924L45.0586 24.3158C41.2874 23.9137 37.675 19.4686 37.8417 14.0731C38.0084 8.67755 42.4921 8.44435 45.1386 10.7912Z" fill="#FFDB40"/>
<path d="M54.6982 18.0817C53.0778 19.6638 52.6683 23.1117 52.666 24.6378C55.8049 24.3477 61.0719 23.3827 62.0164 21.3727C62.9608 19.3627 62.3717 16.8638 61.2218 16.2681C60.0719 15.6725 56.7236 16.104 54.6982 18.0817Z" fill="#FFDB40"/>
<mask id="mask0_2746_8652" style="mask-type:alpha" maskUnits="userSpaceOnUse" x="64" y="83" width="34" height="16">
<path d="M91.4815 97.4736C83.2557 100.783 70.1834 93.8791 64.6755 90.0137C64.4038 89.3033 64.025 87.4936 64.6838 85.9386C65.5073 83.9948 86.692 82.6105 91.6082 83.1733C96.5244 83.736 101.764 93.3371 91.4815 97.4736Z" fill="#FFC532"/>
</mask>
<g mask="url(#mask0_2746_8652)">
<path d="M85.5321 91.5073C85.6693 88.9 86.5223 83.674 87.094 81.3869L104.076 80.7008L108.364 98.0255L86.0648 102.314C85.7218 99.798 85.3948 94.1146 85.5321 91.5073Z" fill="#86D8D6"/>
</g>
<mask id="mask1_2746_8652" style="mask-type:alpha" maskUnits="userSpaceOnUse" x="16" y="84" width="22" height="32">
<path d="M16.921 106.502C16.7688 97.6371 27.8869 87.8938 33.465 84.1302C34.2257 84.1302 36.0512 84.423 37.2683 85.5938C38.7895 87.0574 32.5142 107.339 30.2323 111.729C27.9504 116.12 17.1111 117.584 16.921 106.502Z" fill="#FFDB40"/>
</mask>
<g mask="url(#mask1_2746_8652)">
<path d="M24.8101 105.4C21.654 104.165 15.09 101.97 12.1168 101.283L9.71533 120.152L20.8649 128.9L35.4451 110.718C33.3867 109.288 27.9663 106.635 24.8101 105.4Z" fill="#86D8D6"/>
</g>
<path d="M90.1063 90.4024C90.7848 89.3798 92.2864 89.3798 92.9649 90.4024L101.207 102.824C101.963 103.964 101.146 105.487 99.7773 105.487H83.2939C81.9256 105.487 81.1081 103.964 81.8646 102.824L90.1063 90.4024Z" fill="#C0E4E3"/>
<path d="M90.678 91.9399C91.0852 91.3271 91.9852 91.3271 92.3924 91.9399L99.5344 102.688C99.989 103.372 99.4986 104.287 98.6772 104.287H84.3932C83.5719 104.287 83.0815 103.372 83.536 102.688L90.678 91.9399Z" fill="#AFD157"/>
<rect x="88.6191" y="84.4749" width="5.83208" height="10.635" fill="#C0E4E3"/>
<rect x="86.5615" y="83.1012" width="9.94885" height="2.40145" rx="1.20072" fill="#C0E4E3"/>
<circle cx="89.3054" cy="100.941" r="1.37226" fill="#D9D9D9"/>
<circle cx="89.3054" cy="100.941" r="1.37226" fill="#CCEE74"/>
<circle cx="94.1083" cy="100.598" r="1.02919" fill="#CCEE74"/>
<circle cx="92.7364" cy="98.1977" r="0.686128" fill="#CCEE74"/>
</svg>
