<svg width="160" height="144" viewBox="0 0 160 144" fill="none" xmlns="http://www.w3.org/2000/svg">
<path d="M75.7979 19.8472C80.4844 15.2416 87.4787 13.8872 93.1553 16.9937C96.0743 18.5911 98.1867 21.1184 99.3672 24.0708C99.7057 24.1229 100.023 24.176 100.315 24.2319C100.849 24.3339 101.331 24.448 101.728 24.5776C102.062 24.6869 102.551 24.8714 102.898 25.2183L102.957 25.2769L103.008 25.3423C103.399 25.8512 103.655 26.5746 103.841 27.2778C104.038 28.0242 104.197 28.9206 104.321 29.8979C104.569 31.8562 104.685 34.2378 104.639 36.6021C104.592 38.961 104.383 41.3556 103.962 43.3276C103.751 44.3121 103.479 45.233 103.127 46.0044C102.785 46.7529 102.307 47.4942 101.61 47.9585C101.307 48.1603 100.947 48.3098 100.583 48.4292C100.951 50.9055 101.144 53.5544 101.144 56.3853C101.144 67.182 94.4603 73.9252 84.0391 77.7632C89.9282 77.6332 95.8938 77.7968 98.2549 78.1968C98.3625 78.215 98.4698 78.2388 98.5771 78.2651L108.666 40.6196C108.77 40.2309 109.17 39.9999 109.559 40.104L154.624 52.1812C155.013 52.2854 155.244 52.6858 155.14 53.0747L143.062 98.1401C142.958 98.5289 142.559 98.7599 142.17 98.6558L103.521 88.2974C102.714 90.3086 100.808 92.1664 97.3027 93.3618C90.3914 95.7186 80.7418 91.3974 74.1328 87.2788C77.5154 94.9881 80.0395 104.915 79.582 111.518C80.0403 118.669 77.519 132.672 74.9277 133.731C71.6598 135.067 56.6999 134.861 55.1494 133.731C54.294 133.106 54.0452 127.313 54.1436 121.894C53.7657 121.897 53.3877 121.898 53.0098 121.897C53.108 127.316 52.8601 133.106 52.0049 133.731C50.4561 134.861 35.4933 135.067 32.2256 133.731C29.7088 132.701 27.2569 119.462 27.5381 112.15C27.5148 111.654 27.5112 111.137 27.5264 110.601C23.2552 112.458 16.7338 111.129 16.582 102.294C16.4373 93.8582 25.8986 84.674 32.1328 79.9761C17.3142 76.8311 7.10254 69.6824 7.10254 56.3853C7.10256 50.7283 7.99792 45.733 9.64355 41.3657C9.49129 40.2278 9.39105 39.0149 9.33789 37.7905C5.45271 30.2558 7.83813 21.1976 14.7812 17.3979C20.507 14.2647 27.5732 15.6703 32.2598 20.3726C38.8352 18.0359 46.3111 16.9224 54.2012 16.9224C61.9673 16.9224 69.3177 17.8028 75.7979 19.8472ZM100.169 26.8052C100.857 30.3476 100.329 34.2359 98.3994 37.7612C98.2338 38.0638 98.0587 38.358 97.8779 38.646C98.8261 40.8532 99.5821 43.2566 100.127 45.8687C100.158 45.8531 100.182 45.8444 100.195 45.8354C100.319 45.7529 100.547 45.509 100.806 44.9438C101.054 44.4006 101.278 43.6747 101.466 42.7944C101.842 41.0365 102.043 38.8171 102.088 36.5522C102.132 34.2926 102.02 32.0366 101.79 30.2192C101.675 29.3095 101.533 28.5315 101.374 27.9292C101.26 27.4954 101.151 27.2165 101.073 27.0552C101.038 27.0414 100.993 27.0212 100.936 27.0024C100.745 26.9401 100.49 26.8737 100.169 26.8052Z" fill="white"/>
<path d="M75.7979 19.8472L74.444 24.1387L77.0231 24.9523L78.952 23.0568L75.7979 19.8472ZM93.1553 16.9937L95.3156 13.0461L95.3155 13.0461L93.1553 16.9937ZM99.3672 24.0708L95.1888 25.7415L96.143 28.1279L98.6832 28.5185L99.3672 24.0708ZM100.315 24.2319L101.16 19.812L101.16 19.8119L100.315 24.2319ZM101.728 24.5776L103.125 20.3002L103.125 20.3001L101.728 24.5776ZM102.898 25.2183L106.08 22.0363L106.079 22.0352L102.898 25.2183ZM102.957 25.2769L106.512 22.5178L106.339 22.2946L106.139 22.0949L102.957 25.2769ZM103.008 25.3423L106.575 22.5988L106.569 22.591L106.563 22.5832L103.008 25.3423ZM103.841 27.2778L108.192 26.13L108.192 26.1296L103.841 27.2778ZM104.321 29.8979L108.786 29.3325L108.786 29.3323L104.321 29.8979ZM104.639 36.6021L109.138 36.6908V36.6907L104.639 36.6021ZM103.962 43.3276L108.362 44.2684L108.363 44.2681L103.962 43.3276ZM103.127 46.0044L107.22 47.8751L107.22 47.8746L103.127 46.0044ZM101.61 47.9585L104.106 51.7032L104.107 51.7026L101.61 47.9585ZM100.583 48.4292L99.1787 44.1539L95.5741 45.3379L96.1319 49.0908L100.583 48.4292ZM101.144 56.3853H105.644V56.3852L101.144 56.3853ZM84.0391 77.7632L82.4839 73.5405L84.1383 82.2621L84.0391 77.7632ZM98.2549 78.1968L99.0069 73.7601L99.0065 73.76L98.2549 78.1968ZM98.5771 78.2651L97.5031 82.6351L101.783 83.687L102.924 79.43L98.5771 78.2651ZM108.666 40.6196L104.32 39.4538L104.319 39.4548L108.666 40.6196ZM109.559 40.104L110.723 35.7574L110.723 35.7572L109.559 40.104ZM154.624 52.1812L153.459 56.5278L153.459 56.5278L154.624 52.1812ZM155.14 53.0747L159.486 54.2396V54.2395L155.14 53.0747ZM143.062 98.1401L147.409 99.3061L147.409 99.305L143.062 98.1401ZM142.17 98.6558L141.005 103.002L141.005 103.002L142.17 98.6558ZM103.521 88.2974L104.685 83.9508L100.829 82.9173L99.3437 86.6227L103.521 88.2974ZM97.3027 93.3618L98.7551 97.621L98.7552 97.621L97.3027 93.3618ZM74.1328 87.2788L76.5128 83.4597L64.1675 75.7663L70.012 89.0869L74.1328 87.2788ZM79.582 111.518L75.0928 111.207L75.0721 111.506L75.0912 111.806L79.582 111.518ZM74.9277 133.731L76.6302 137.896L76.6305 137.896L74.9277 133.731ZM55.1494 133.731L52.4956 137.365L52.4989 137.368L55.1494 133.731ZM54.1436 121.894L58.6428 121.976L58.7267 117.355L54.1056 117.394L54.1436 121.894ZM53.0098 121.897L53.0184 117.397L48.4273 117.388L48.5105 121.979L53.0098 121.897ZM52.0049 133.731L54.6576 137.366L54.6587 137.365L52.0049 133.731ZM32.2256 133.731L30.5219 137.896L30.5228 137.896L32.2256 133.731ZM27.5381 112.15L32.0348 112.323L32.0421 112.131L32.0331 111.939L27.5381 112.15ZM27.5264 110.601L32.0246 110.729L32.2255 103.651L25.7318 106.474L27.5264 110.601ZM16.582 102.294L12.0827 102.372L12.0827 102.372L16.582 102.294ZM32.1328 79.9761L34.841 83.5699L42.7301 77.6249L33.067 75.5741L32.1328 79.9761ZM7.10254 56.3853L2.60254 56.3852V56.3853H7.10254ZM9.64355 41.3657L13.8545 42.9525L14.2541 41.8921L14.1038 40.7689L9.64355 41.3657ZM9.33789 37.7905L13.8337 37.5953L13.7908 36.6072L13.3375 35.7282L9.33789 37.7905ZM14.7812 17.3979L12.621 13.4504L12.621 13.4504L14.7812 17.3979ZM32.2598 20.3726L29.0725 23.5492L31.083 25.5664L33.7666 24.6128L32.2598 20.3726ZM54.2012 16.9224L54.2012 12.4224H54.2012V16.9224ZM100.169 26.8052L101.109 22.4045L94.4533 20.9822L95.7516 27.6635L100.169 26.8052ZM98.3994 37.7612L102.347 39.9215L102.347 39.9215L98.3994 37.7612ZM97.8779 38.646L94.0666 36.2536L92.8115 38.2531L93.7433 40.4222L97.8779 38.646ZM100.127 45.8687L95.7218 46.7876L96.9137 52.5015L102.136 49.8951L100.127 45.8687ZM100.195 45.8354L102.685 49.5842L102.695 49.5776L100.195 45.8354ZM100.806 44.9438L104.898 46.8149L104.899 46.814L100.806 44.9438ZM101.466 42.7944L105.866 43.7352L105.866 43.735L101.466 42.7944ZM102.088 36.5522L106.587 36.641V36.6409L102.088 36.5522ZM101.79 30.2192L106.254 29.6538L106.254 29.6536L101.79 30.2192ZM101.374 27.9292L105.725 26.7815L105.725 26.781L101.374 27.9292ZM101.073 27.0552L105.131 25.109L104.36 23.5024L102.698 22.8589L101.073 27.0552ZM100.936 27.0024L102.334 22.7252L102.333 22.7248L100.936 27.0024ZM75.7979 19.8472L78.952 23.0568C82.4039 19.6645 87.2712 18.9034 90.995 20.9412L93.1553 16.9937L95.3155 13.0461C87.6863 8.87107 78.5649 10.8187 72.6437 16.6376L75.7979 19.8472ZM93.1553 16.9937L90.995 20.9412C92.9363 22.0036 94.3696 23.6926 95.1888 25.7415L99.3672 24.0708L103.546 22.4001C102.004 18.5442 99.2124 15.1786 95.3156 13.0461L93.1553 16.9937ZM99.3672 24.0708L98.6832 28.5185C98.987 28.5652 99.2475 28.6093 99.4706 28.6519L100.315 24.2319L101.16 19.8119C100.798 19.7427 100.424 19.6805 100.051 19.6231L99.3672 24.0708ZM100.315 24.2319L99.4705 28.6519C99.9096 28.7358 100.186 28.8081 100.33 28.8552L101.728 24.5776L103.125 20.3001C102.475 20.0879 101.788 19.9319 101.16 19.812L100.315 24.2319ZM101.728 24.5776L100.33 28.8551C100.413 28.8821 100.382 28.8769 100.306 28.8386C100.237 28.8045 99.9952 28.6787 99.7176 28.4014L102.898 25.2183L106.079 22.0352C104.916 20.8726 103.512 20.4265 103.125 20.3002L101.728 24.5776ZM102.898 25.2183L99.7165 28.4002L99.775 28.4588L102.957 25.2769L106.139 22.0949L106.08 22.0363L102.898 25.2183ZM102.957 25.2769L99.4021 28.0359L99.4529 28.1013L103.008 25.3423L106.563 22.5832L106.512 22.5178L102.957 25.2769ZM103.008 25.3423L99.4409 28.0858C99.3714 27.9955 99.3357 27.9322 99.3256 27.9138C99.3151 27.8945 99.3203 27.9014 99.3372 27.9427C99.3742 28.0329 99.4269 28.188 99.4898 28.4261L103.841 27.2778L108.192 26.1296C107.978 25.3185 107.542 23.8563 106.575 22.5988L103.008 25.3423ZM103.841 27.2778L99.4897 28.4257C99.6195 28.9177 99.7482 29.6052 99.857 30.4636L104.321 29.8979L108.786 29.3323C108.647 28.2359 108.456 27.1306 108.192 26.13L103.841 27.2778ZM104.321 29.8979L99.857 30.4634C100.074 32.1733 100.183 34.3335 100.14 36.5134L104.639 36.6021L109.138 36.6907C109.188 34.1421 109.065 31.5392 108.786 29.3325L104.321 29.8979ZM104.639 36.6021L100.14 36.5133C100.096 38.707 99.902 40.793 99.5613 42.3872L103.962 43.3276L108.363 44.2681C108.865 41.9182 109.088 39.2151 109.138 36.6908L104.639 36.6021ZM103.962 43.3276L99.5613 42.3869C99.3901 43.1878 99.2026 43.7652 99.034 44.1342L103.127 46.0044L107.22 47.8746C107.756 46.7008 108.113 45.4364 108.362 44.2684L103.962 43.3276ZM103.127 46.0044L99.0342 44.1337C98.9961 44.217 98.9625 44.2819 98.9347 44.3307C98.9068 44.3796 98.8891 44.4046 98.8843 44.4111C98.8795 44.4175 98.893 44.3983 98.9284 44.3632C98.9646 44.3275 99.0256 44.2734 99.1141 44.2143L101.61 47.9585L104.107 51.7026C105.812 50.5657 106.729 48.9481 107.22 47.8751L103.127 46.0044ZM101.61 47.9585L99.1149 44.2138C99.1684 44.1781 99.2108 44.1539 99.238 44.1392C99.2652 44.1246 99.2814 44.1172 99.284 44.1161C99.2867 44.1149 99.2797 44.1181 99.261 44.1252C99.2423 44.1322 99.2154 44.1419 99.1787 44.1539L100.583 48.4292L101.987 52.7045C102.528 52.527 103.321 52.2263 104.106 51.7032L101.61 47.9585ZM100.583 48.4292L96.1319 49.0908C96.4649 51.3312 96.6435 53.7581 96.6436 56.3853L101.144 56.3853L105.644 56.3852C105.644 53.3507 105.437 50.4798 105.034 47.7676L100.583 48.4292ZM101.144 56.3853H96.6436C96.6436 60.7715 95.317 64.1136 93.0636 66.7775C90.7437 69.5199 87.2209 71.7959 82.4839 73.5405L84.0391 77.7632L85.5943 81.9859C91.2784 79.8925 96.3078 76.8778 99.9349 72.59C103.628 68.2235 105.644 62.7957 105.644 56.3853H101.144ZM84.0391 77.7632L84.1383 82.2621C90.0627 82.1313 95.6219 82.3148 97.5033 82.6336L98.2549 78.1968L99.0065 73.76C96.1656 73.2787 89.7938 73.1351 83.9398 73.2643L84.0391 77.7632ZM98.2549 78.1968L97.5029 82.6335C97.483 82.6301 97.4723 82.6278 97.4728 82.6279C97.4735 82.6281 97.4826 82.63 97.5031 82.6351L98.5771 78.2651L99.6512 73.8952C99.4803 73.8532 99.2589 73.8028 99.0069 73.7601L98.2549 78.1968ZM98.5771 78.2651L102.924 79.43L113.013 41.7845L108.666 40.6196L104.319 39.4548L94.2305 77.1003L98.5771 78.2651ZM108.666 40.6196L113.012 41.7855C112.474 43.7929 110.409 44.9904 108.394 44.4508L109.559 40.104L110.723 35.7572C107.93 35.0094 105.067 36.6689 104.32 39.4538L108.666 40.6196ZM109.559 40.104L108.394 44.4506L153.459 56.5278L154.624 52.1812L155.789 47.8345L110.723 35.7574L109.559 40.104ZM154.624 52.1812L153.459 56.5278C151.445 55.9881 150.255 53.9194 150.793 51.9099L155.14 53.0747L159.486 54.2395C160.233 51.4522 158.58 48.5826 155.789 47.8345L154.624 52.1812ZM155.14 53.0747L150.793 51.9099L138.716 96.9753L143.062 98.1401L147.409 99.305L159.486 54.2396L155.14 53.0747ZM143.062 98.1401L138.716 96.9742C139.254 94.9676 141.319 93.769 143.335 94.3091L142.17 98.6558L141.005 103.002C143.799 103.751 146.662 102.09 147.409 99.3061L143.062 98.1401ZM142.17 98.6558L143.335 94.3092L104.685 83.9508L103.521 88.2974L102.356 92.644L141.005 103.002L142.17 98.6558ZM103.521 88.2974L99.3437 86.6227C99.1488 87.1088 98.467 88.2103 95.8503 89.1027L97.3027 93.3618L98.7552 97.621C103.15 96.1224 106.279 93.5083 107.697 89.972L103.521 88.2974ZM97.3027 93.3618L95.8503 89.1026C93.7263 89.8269 90.693 89.641 86.9642 88.459C83.3347 87.3084 79.6196 85.3958 76.5128 83.4597L74.1328 87.2788L71.7528 91.0979C75.255 93.2804 79.6691 95.5877 84.2445 97.0382C88.7206 98.4572 93.9678 99.2535 98.7551 97.621L97.3027 93.3618ZM74.1328 87.2788L70.012 89.0869C73.2604 96.4904 75.4785 105.641 75.0928 111.207L79.582 111.518L84.0713 111.829C84.6006 104.19 81.7703 93.4857 78.2536 85.4708L74.1328 87.2788ZM79.582 111.518L75.0912 111.806C75.2867 114.856 74.8375 119.728 73.9842 124.034C73.5613 126.169 73.0751 127.977 72.6022 129.231C72.362 129.867 72.1787 130.216 72.0905 130.355C71.9105 130.639 72.2175 129.977 73.2249 129.566L74.9277 133.731L76.6305 137.896C78.2858 137.22 79.2384 135.889 79.6905 135.176C80.2344 134.319 80.6695 133.344 81.0229 132.407C81.7372 130.514 82.3386 128.176 82.8126 125.784C83.7533 121.036 84.3356 115.331 84.0728 111.23L79.582 111.518ZM74.9277 133.731L73.2253 129.565C73.2876 129.54 73.0912 129.618 72.4683 129.721C71.9077 129.814 71.1828 129.898 70.3179 129.968C68.5914 130.106 66.4998 130.168 64.4211 130.156C62.3394 130.143 60.3598 130.057 58.856 129.915C58.0954 129.844 57.537 129.765 57.1808 129.695C57.0008 129.66 56.9451 129.64 56.9762 129.65C56.9947 129.656 57.0735 129.682 57.1912 129.736C57.2977 129.784 57.5261 129.895 57.7999 130.094L55.1494 133.731L52.4989 137.368C53.1732 137.859 53.8594 138.101 54.2061 138.213C54.6283 138.35 55.0561 138.45 55.4399 138.525C56.2114 138.677 57.1016 138.79 58.0127 138.876C59.852 139.049 62.1073 139.142 64.3679 139.155C66.6315 139.169 68.9895 139.103 71.0356 138.939C72.8661 138.793 75.0805 138.53 76.6302 137.896L74.9277 133.731ZM55.1494 133.731L57.8033 130.097C58.3685 130.51 58.6786 130.956 58.8122 131.17C58.9584 131.404 59.0305 131.582 59.0536 131.642C59.0968 131.754 59.0776 131.736 59.0314 131.504C58.9427 131.057 58.8506 130.319 58.7775 129.291C58.6336 127.27 58.595 124.612 58.6428 121.976L54.1436 121.894L49.6443 121.812C49.5938 124.596 49.6304 127.544 49.8002 129.93C49.8839 131.106 50.0082 132.272 50.2037 133.256C50.2996 133.739 50.4394 134.319 50.6595 134.889C50.8076 135.271 51.2874 136.483 52.4956 137.365L55.1494 133.731ZM54.1436 121.894L54.1056 117.394C53.7488 117.397 53.3875 117.398 53.0184 117.397L53.0098 121.897L53.0011 126.397C53.3879 126.398 53.7827 126.397 54.1815 126.394L54.1436 121.894ZM53.0098 121.897L48.5105 121.979C48.5583 124.614 48.5199 127.272 48.3762 129.293C48.3032 130.32 48.2112 131.058 48.1226 131.504C48.0764 131.737 48.0573 131.754 48.1005 131.642C48.1236 131.583 48.1958 131.404 48.3421 131.17C48.4757 130.956 48.7858 130.51 49.351 130.097L52.0049 133.731L54.6587 137.365C55.8669 136.483 56.3467 135.271 56.4948 134.888C56.7148 134.319 56.8546 133.739 56.9504 133.256C57.1458 132.272 57.27 131.106 57.3535 129.931C57.5231 127.546 57.5595 124.598 57.509 121.815L53.0098 121.897ZM52.0049 133.731L49.3522 130.096C49.6264 129.896 49.8552 129.785 49.962 129.736C50.08 129.683 50.159 129.657 50.1777 129.651C50.209 129.64 50.1535 129.66 49.9736 129.695C49.6177 129.765 49.0593 129.844 48.2988 129.915C46.7949 130.057 44.8152 130.143 42.7332 130.156C40.6543 130.168 38.5624 130.106 36.8357 129.968C35.9708 129.899 35.2457 129.814 34.6852 129.721C34.0621 129.618 33.8658 129.54 33.9284 129.566L32.2256 133.731L30.5228 137.896C32.0727 138.53 34.2874 138.793 36.118 138.939C38.1643 139.103 40.5226 139.169 42.7865 139.156C45.0473 139.142 47.3028 139.049 49.1422 138.876C50.0533 138.79 50.9435 138.677 51.7151 138.525C52.0989 138.45 52.5269 138.35 52.9492 138.213C53.2958 138.101 53.9828 137.858 54.6576 137.366L52.0049 133.731ZM32.2256 133.731L33.9292 129.566C34.9151 129.969 35.2286 130.611 35.0677 130.363C34.9925 130.247 34.8206 129.93 34.5897 129.332C34.1348 128.154 33.6609 126.441 33.2409 124.393C32.3972 120.278 31.912 115.516 32.0348 112.323L27.5381 112.15L23.0414 111.977C22.883 116.096 23.4831 121.61 24.4243 126.2C24.8967 128.504 25.49 130.751 26.194 132.574C26.5424 133.476 26.9728 134.42 27.5124 135.253C27.9662 135.954 28.9068 137.235 30.5219 137.896L32.2256 133.731ZM27.5381 112.15L32.0331 111.939C32.0157 111.566 32.0122 111.163 32.0246 110.729L27.5264 110.601L23.0282 110.473C23.0101 111.111 23.014 111.741 23.043 112.361L27.5381 112.15ZM27.5264 110.601L25.7318 106.474C24.5829 106.974 23.389 106.906 22.6833 106.517C22.2571 106.282 21.1371 105.462 21.0814 102.217L16.582 102.294L12.0827 102.372C12.1787 107.961 14.3953 112.223 18.3355 114.397C21.9963 116.417 26.1986 116.086 29.3209 114.728L27.5264 110.601ZM16.582 102.294L21.0814 102.217C21.0362 99.5876 22.5619 96.2189 25.4895 92.5315C28.3128 88.9756 31.9301 85.7635 34.841 83.5699L32.1328 79.9761L29.4246 76.3822C26.1013 78.8866 21.8708 82.6155 18.441 86.9352C15.1156 91.1236 11.9831 96.565 12.0827 102.372L16.582 102.294ZM32.1328 79.9761L33.067 75.5741C26.0487 74.0846 20.6218 71.7393 17.0187 68.5965C13.5748 65.5926 11.6025 61.7095 11.6025 56.3853H7.10254H2.60254C2.60254 64.3581 5.7361 70.6979 11.1027 75.3789C16.3101 79.921 23.3983 82.7226 31.1986 84.378L32.1328 79.9761ZM7.10254 56.3853L11.6025 56.3853C11.6026 51.2067 12.4212 46.7562 13.8545 42.9525L9.64355 41.3657L5.43259 39.779C3.57462 44.7097 2.60256 50.2499 2.60254 56.3852L7.10254 56.3853ZM9.64355 41.3657L14.1038 40.7689C13.9721 39.785 13.882 38.708 13.8337 37.5953L9.33789 37.7905L4.84213 37.9857C4.90014 39.3217 5.01043 40.6706 5.18331 41.9625L9.64355 41.3657ZM9.33789 37.7905L13.3375 35.7282C10.426 30.0818 12.4088 23.826 16.9415 21.3455L14.7812 17.3979L12.621 13.4504C3.26745 18.5691 0.479436 30.4298 5.3383 39.8529L9.33789 37.7905ZM14.7812 17.3979L16.9415 21.3455C20.6965 19.2907 25.6178 20.083 29.0725 23.5492L32.2598 20.3726L35.4471 17.1959C29.5287 11.2577 20.3174 9.23877 12.621 13.4504L14.7812 17.3979ZM32.2598 20.3726L33.7666 24.6128C39.7665 22.4806 46.7171 21.4224 54.2012 21.4224V16.9224V12.4224C45.905 12.4224 37.904 13.5911 30.7529 16.1323L32.2598 20.3726ZM54.2012 16.9224L54.2012 21.4224C61.6518 21.4224 68.5206 22.27 74.444 24.1387L75.7979 19.8472L77.1517 15.5557C70.1149 13.3357 62.2829 12.4224 54.2012 12.4224L54.2012 16.9224ZM100.169 26.8052L95.7516 27.6635C96.2407 30.1808 95.8748 33.0008 94.4519 35.6009L98.3994 37.7612L102.347 39.9215C104.782 35.4711 105.474 30.5144 104.586 25.9468L100.169 26.8052ZM98.3994 37.7612L94.4519 35.6009C94.3377 35.8096 94.2098 36.0254 94.0666 36.2536L97.8779 38.646L101.689 41.0384C101.908 40.6907 102.13 40.318 102.347 39.9215L98.3994 37.7612ZM97.8779 38.646L93.7433 40.4222C94.5656 42.3364 95.2344 44.4509 95.7218 46.7876L100.127 45.8687L104.532 44.9498C103.93 42.0622 103.087 39.37 102.013 36.8698L97.8779 38.646ZM100.127 45.8687L102.136 49.8951C102.059 49.9335 101.972 49.9724 102.031 49.9455C102.044 49.9397 102.117 49.9066 102.206 49.862C102.29 49.8197 102.471 49.7262 102.685 49.5842L100.195 45.8354L97.706 42.0867C97.913 41.9492 98.0857 41.8601 98.1607 41.8224C98.2401 41.7825 98.3029 41.7542 98.3041 41.7536C98.3402 41.7372 98.2258 41.7882 98.1175 41.8422L100.127 45.8687ZM100.195 45.8354L102.695 49.5776C103.827 48.8211 104.494 47.6997 104.898 46.8149L100.806 44.9438L96.7131 43.0728C96.6871 43.1297 96.716 43.0517 96.8303 42.8969C96.8884 42.8183 96.9787 42.7061 97.1069 42.5765C97.2286 42.4535 97.4227 42.2759 97.696 42.0933L100.195 45.8354ZM100.806 44.9438L104.899 46.814C105.331 45.8673 105.639 44.7972 105.866 43.7352L101.466 42.7944L97.0653 41.8537C96.9159 42.5522 96.7766 42.9339 96.7127 43.0737L100.806 44.9438ZM101.466 42.7944L105.866 43.735C106.323 41.6003 106.539 39.0729 106.587 36.641L102.088 36.5522L97.5888 36.4634C97.5474 38.5613 97.3604 40.4727 97.0652 41.8539L101.466 42.7944ZM102.088 36.5522L106.587 36.6409C106.635 34.1965 106.516 31.7192 106.254 29.6538L101.79 30.2192L97.3257 30.7847C97.5245 32.3539 97.6297 34.3886 97.5888 36.4636L102.088 36.5522ZM101.79 30.2192L106.254 29.6536C106.124 28.6263 105.951 27.6389 105.725 26.7815L101.374 27.9292L97.0228 29.0769C97.1144 29.424 97.2254 29.9928 97.3257 30.7848L101.79 30.2192ZM101.374 27.9292L105.725 26.781C105.556 26.1416 105.358 25.5836 105.131 25.109L101.073 27.0552L97.0159 29.0014C96.995 28.9579 96.9819 28.9271 96.9753 28.9111C96.9685 28.8946 96.9669 28.8894 96.9695 28.8968C96.975 28.9122 96.9946 28.9699 97.023 29.0774L101.374 27.9292ZM101.073 27.0552L102.698 22.8589C102.732 22.872 102.757 22.8824 102.747 22.878C102.746 22.8778 102.714 22.8648 102.683 22.8522C102.61 22.8232 102.488 22.7754 102.334 22.7252L100.936 27.0024L99.5374 31.2797C99.4408 31.2482 99.369 31.2199 99.3422 31.2092C99.3389 31.2079 99.3363 31.2068 99.3346 31.2061C99.3329 31.2054 99.3319 31.205 99.3319 31.205C99.3318 31.205 99.332 31.2051 99.3325 31.2053C99.3329 31.2054 99.3335 31.2057 99.3344 31.2061C99.335 31.2063 99.3402 31.2084 99.3428 31.2095C99.3495 31.2122 99.3634 31.2179 99.3796 31.2244C99.3961 31.231 99.4198 31.2405 99.4481 31.2515L101.073 27.0552ZM100.936 27.0024L102.333 22.7248C101.938 22.5958 101.516 22.4915 101.109 22.4045L100.169 26.8052L99.2286 31.2058C99.3384 31.2293 99.4199 31.2488 99.4765 31.2634C99.535 31.2785 99.5527 31.2847 99.5384 31.28L100.936 27.0024Z" fill="white"/>
<ellipse cx="22.3184" cy="31.1714" rx="14.5697" ry="15.7007" transform="rotate(-28.6896 22.3184 31.1714)" fill="#5BB42B"/>
<ellipse cx="14.5697" cy="15.7007" rx="14.5697" ry="15.7007" transform="matrix(-0.877234 -0.480064 -0.480064 0.877234 105.937 23.9879)" fill="#5BB42B"/>
<path d="M97.3024 93.3615C88.386 96.402 74.9118 88.3302 69.2893 83.9142C69.0416 83.1449 68.7432 81.2033 69.5311 79.5912C70.5159 77.576 93.0708 77.3188 98.2545 78.1969C103.438 79.0751 108.448 89.5609 97.3024 93.3615Z" fill="#5C9A15"/>
<path d="M74.9278 133.731C77.5421 132.662 80.0875 118.419 79.5715 111.329L54.4611 115.337C53.9451 121.091 53.9107 132.826 55.149 133.731C56.6969 134.861 71.66 135.066 74.9278 133.731Z" fill="#5C9A15"/>
<path d="M76.8904 117.955C84.7056 112.758 74.1411 80.339 66.5077 76.2557C58.8743 72.1725 46.4588 72.7911 41.0063 76.2557C35.5538 79.7204 22.0798 112.634 29.895 117.955C37.7102 123.275 69.0752 123.152 76.8904 117.955Z" fill="#5BB42B"/>
<path d="M32.226 133.731C29.6117 132.662 27.0663 118.419 27.5823 111.329L52.6927 115.337C53.2087 121.091 53.2431 132.826 52.0048 133.731C50.4569 134.861 35.4938 135.066 32.226 133.731Z" fill="#5BB42B"/>
<path d="M16.5817 102.294C16.4201 92.8751 28.2329 82.523 34.1595 78.5243C34.9677 78.5243 36.9073 78.8353 38.2004 80.0793C39.8167 81.6344 33.1493 103.183 30.7248 107.848C28.3003 112.513 16.7838 114.068 16.5817 102.294Z" fill="#5BB42B"/>
<path d="M73.4417 105.281C73.4417 116.33 65.1189 118.984 54.8522 118.984C44.5855 118.984 36.2627 116.33 36.2627 105.281C36.2627 90.7555 44.5855 82.5337 54.8522 82.5337C65.1189 82.5337 73.4417 90.7555 73.4417 105.281Z" fill="#A1DC3C"/>
<path d="M54.5935 113.152C54.7026 113.153 54.8109 113.138 54.9119 113.11C55.013 113.082 55.1049 113.04 55.1824 112.988L58.8738 110.441C59.0097 110.333 59.0807 110.194 59.0726 110.051C59.0646 109.909 58.978 109.774 58.8303 109.673C58.6826 109.572 58.4845 109.513 58.2757 109.508C58.067 109.502 57.8628 109.55 57.7042 109.643L54.0045 112.162C53.9268 112.214 53.8651 112.277 53.8229 112.346C53.7808 112.415 53.7592 112.489 53.7592 112.563C53.7592 112.638 53.7808 112.712 53.8229 112.781C53.8651 112.85 53.9268 112.913 54.0045 112.965C54.0792 113.022 54.1699 113.068 54.2711 113.1C54.3723 113.132 54.4819 113.15 54.5935 113.152Z" fill="#5BB42B"/>
<path d="M58.2454 113.152C58.3537 113.153 58.4611 113.138 58.5614 113.11C58.6617 113.082 58.7529 113.041 58.8298 112.988C58.9069 112.936 58.9682 112.873 59.0099 112.805C59.0517 112.736 59.0732 112.662 59.0732 112.587C59.0732 112.513 59.0517 112.439 59.0099 112.37C58.9682 112.302 58.9069 112.239 58.8298 112.187L55.1672 109.674C55.0907 109.621 54.9997 109.579 54.8994 109.551C54.7991 109.522 54.6915 109.507 54.5829 109.507C54.4742 109.507 54.3666 109.522 54.2663 109.551C54.1661 109.579 54.075 109.621 53.9985 109.674C53.8452 109.78 53.7592 109.923 53.7592 110.072C53.7592 110.221 53.8452 110.364 53.9985 110.47L57.6693 112.988C57.8226 113.093 58.0295 113.151 58.2454 113.152Z" fill="#5BB42B"/>
<path d="M43.2229 79.9467L52.7772 80.6546C53.9314 80.7401 54.1791 82.3255 53.106 82.759L41.7686 87.3388C40.9021 87.6888 40.0243 86.861 40.3229 85.9755L42.1059 80.6878C42.2654 80.2147 42.725 79.9098 43.2229 79.9467Z" fill="white"/>
<path d="M70.5188 80.3107L60.9645 81.0186C59.8103 81.1041 59.5626 82.6895 60.6357 83.123L71.9731 87.7028C72.8396 88.0528 73.7174 87.225 73.4188 86.3395L71.6358 81.0518C71.4763 80.5788 71.0167 80.2738 70.5188 80.3107Z" fill="white"/>
<path d="M52.0297 105.659L54.9649 86.9854C55.0036 86.7394 54.9571 86.4875 54.8332 86.2715L52.9312 82.9564C52.6665 82.4951 52.7722 81.9101 53.1816 81.5706L53.9153 80.962C54.1116 80.7993 54.3585 80.7102 54.6134 80.7102H59.5743C59.8441 80.7102 60.1044 80.81 60.3051 80.9903L60.9321 81.5536C61.3225 81.9044 61.4086 82.4831 61.1373 82.9323L59.1273 86.2605C58.9929 86.483 58.9422 86.7462 58.9843 87.0028L62.0406 105.637C62.1034 106.02 61.9584 106.408 61.6596 106.656L57.6215 110.005C57.2084 110.347 56.6077 110.34 56.2037 109.986L52.3902 106.653C52.1075 106.405 51.9714 106.03 52.0297 105.659Z" fill="#E22323"/>
<path d="M101.144 56.3855C101.144 75.6104 79.9544 81.9855 54.201 81.9855C28.4476 81.9855 7.10254 75.6104 7.10254 56.3855C7.10254 28.7685 28.4476 16.9222 54.201 16.9222C79.9544 16.9222 101.144 26.5815 101.144 56.3855Z" fill="#5BB42B"/>
<path d="M24.9639 31.1396V36.9716" stroke="#123041" stroke-width="5.4675" stroke-linecap="round"/>
<path d="M86.9287 30.774V36.606" stroke="#123041" stroke-width="5.4675" stroke-linecap="round"/>
<path d="M16.9443 49.7284H23.1408" stroke="#A1DC3C" stroke-width="7.29" stroke-linecap="round"/>
<path d="M84.377 49.7284H90.5735" stroke="#A1DC3C" stroke-width="7.29" stroke-linecap="round"/>
<path d="M62.8713 43.9166C62.8713 39.5371 62.8713 37.3353 54.67 37.3353C46.4688 37.3353 46.4688 39.1458 46.4688 43.9166C46.4688 51.7331 50.1406 56.2893 54.67 56.2893C59.1994 56.2893 62.8713 51.1863 62.8713 43.9166Z" fill="#D52C2F"/>
<path d="M54.6699 56.2893C57.8426 56.2893 60.5921 53.7847 61.9561 49.7864C60.3699 47.9335 58.0252 46.3248 55.1914 45.3313C52.1001 44.2475 49.0058 44.0973 46.4834 44.7268C46.7285 52.0468 50.2995 56.2891 54.6699 56.2893Z" fill="#FF686B"/>
<path fill-rule="evenodd" clip-rule="evenodd" d="M73.5663 23.4401C76.7546 23.1645 80.8396 23.0791 84.9051 23.1364C88.9738 23.1937 93.0594 23.394 96.2538 23.6969C97.8472 23.8481 99.244 24.0273 100.315 24.2321C100.849 24.334 101.331 24.4481 101.727 24.5778C102.062 24.6871 102.551 24.8714 102.898 25.2184L102.957 25.277L103.008 25.3424C103.399 25.8514 103.655 26.5745 103.841 27.278C104.038 28.0245 104.197 28.9204 104.321 29.8981C104.569 31.8565 104.685 34.2377 104.639 36.6022C104.592 38.9614 104.383 41.3556 103.962 43.3278C103.751 44.3124 103.479 45.2331 103.127 46.0045C102.785 46.753 102.307 47.4944 101.61 47.9586C101.249 48.1991 100.807 48.3684 100.375 48.4967C99.9257 48.63 99.4037 48.7438 98.8339 48.8415C97.6933 49.0369 96.2789 49.1828 94.7049 49.2868C91.5521 49.495 87.6615 49.5406 83.8319 49.4489C80.003 49.3572 76.2022 49.1276 73.2294 48.7799C71.7471 48.6066 70.4389 48.3995 69.4256 48.1579C68.9212 48.0375 68.4566 47.9012 68.0672 47.7418C67.7209 47.6 67.2582 47.3723 66.9354 46.985C66.5192 46.4854 66.2664 45.7783 66.0917 45.1178C65.9049 44.412 65.76 43.5675 65.6493 42.651C65.4274 40.8141 65.3301 38.5757 65.3417 36.3424C65.3533 34.1078 65.4748 31.8429 65.701 29.9479C65.814 29.0013 65.9553 28.1274 66.1278 27.3874C66.1502 27.2911 66.1756 27.1954 66.2001 27.1002C63.5184 26.6568 59.0799 26.0348 56.411 26.0348C53.9551 26.0348 50.2249 26.5646 47.7108 26.9938C47.7454 27.1237 47.7796 27.2552 47.8104 27.3874C47.9829 28.1274 48.1242 29.0013 48.2372 29.9479C48.4634 31.8429 48.585 34.1078 48.5965 36.3424C48.6081 38.5757 48.5108 40.8141 48.2889 42.651C48.1782 43.5674 48.0333 44.412 47.8465 45.1178C47.6718 45.7783 47.4191 46.4854 47.0028 46.985C46.68 47.3724 46.2173 47.6 45.871 47.7418C45.4816 47.9012 45.017 48.0375 44.5126 48.1579C43.4992 48.3995 42.1912 48.6066 40.7089 48.7799C37.736 49.1276 33.9353 49.3572 30.1063 49.4489C26.2766 49.5406 22.3862 49.495 19.2333 49.2868C17.6592 49.1828 16.2449 49.0369 15.1044 48.8415C14.5345 48.7438 14.0126 48.6301 13.5633 48.4967C13.1312 48.3684 12.6888 48.1991 12.328 47.9586C11.6316 47.4944 11.1535 46.7531 10.8114 46.0045C10.4589 45.233 10.1869 44.3124 9.97643 43.3278C9.55493 41.3556 9.3462 38.9614 9.29967 36.6022C9.25305 34.2377 9.36897 31.8565 9.61705 29.8981C9.74092 28.9204 9.90057 28.0245 10.0975 27.278C10.2832 26.5745 10.539 25.8514 10.9305 25.3424L10.9813 25.277L11.0399 25.2184C11.387 24.8714 11.8763 24.6871 12.2108 24.5778C12.6077 24.4481 13.0896 24.334 13.6229 24.2321C14.6942 24.0273 16.091 23.8481 17.6844 23.6969C20.8788 23.3939 24.9644 23.1937 29.0331 23.1364C33.0986 23.0791 37.1836 23.1645 40.3719 23.4401C41.9602 23.5774 43.3675 23.7648 44.452 24.0182C44.9916 24.1443 45.4963 24.2974 45.9178 24.4889C46.0218 24.5362 46.1357 24.5926 46.2528 24.6598C48.7134 24.2088 53.367 23.4841 56.411 23.484C59.6521 23.484 65.0742 24.3078 67.5477 24.7438C67.7122 24.638 67.8758 24.5546 68.0204 24.4889C68.4418 24.2974 68.9466 24.1443 69.4862 24.0182C70.5706 23.7648 71.9781 23.5774 73.5663 23.4401ZM40.1522 25.9821C37.0817 25.7167 33.0896 25.6305 29.0682 25.6872C25.0499 25.7438 21.0358 25.942 17.9256 26.237C16.3672 26.3848 15.0597 26.5548 14.1014 26.7379C13.6203 26.8299 13.2553 26.9201 13.0028 27.0026C12.9454 27.0214 12.9008 27.0415 12.8651 27.0553C12.7877 27.2166 12.6789 27.4951 12.5643 27.9293C12.4054 28.5317 12.2636 29.3094 12.1483 30.2194C11.9181 32.0368 11.8059 34.2925 11.8505 36.5524C11.8951 38.8175 12.0968 41.0365 12.4725 42.7946C12.6607 43.675 12.8844 44.4007 13.1327 44.944C13.3911 45.5092 13.6195 45.7531 13.743 45.8356C13.7926 45.8685 13.9532 45.9505 14.2899 46.0504C14.6103 46.1455 15.0263 46.2385 15.536 46.3258C16.5551 46.5005 17.872 46.6398 19.4012 46.7409C22.456 46.9426 26.2669 46.9886 30.0458 46.8981C33.8252 46.8076 37.5428 46.5814 40.413 46.2458C41.8519 46.0774 43.0477 45.8846 43.9208 45.6764C44.3588 45.5719 44.6835 45.4708 44.9042 45.3805C44.9916 45.3447 45.0459 45.3144 45.077 45.2975C45.0778 45.2961 45.0791 45.295 45.0799 45.2936C45.1037 45.252 45.1334 45.1928 45.1669 45.1139C45.2347 44.9542 45.3071 44.739 45.3797 44.4645C45.5254 43.914 45.6529 43.196 45.7557 42.3444C45.961 40.6446 46.057 38.5194 46.0458 36.3561C46.0346 34.1943 45.9162 32.0279 45.704 30.2497C45.5977 29.3598 45.4703 28.5853 45.326 27.9665C45.1992 27.4225 45.0719 27.0709 44.9764 26.8737C44.9503 26.8588 44.9144 26.835 44.8622 26.8112C44.6542 26.7167 44.3296 26.6105 43.8719 26.5036C42.9612 26.2908 41.6928 26.1153 40.1522 25.9821ZM84.87 25.6872C80.8486 25.6305 76.8565 25.7167 73.786 25.9821C72.2455 26.1153 70.9769 26.2908 70.0663 26.5036C69.6087 26.6105 69.2839 26.7167 69.076 26.8112C69.0239 26.8349 68.9879 26.8589 68.9618 26.8737C68.8663 27.0709 68.739 27.4225 68.6122 27.9665C68.4679 28.5853 68.3405 29.3599 68.2342 30.2497C68.022 32.0279 67.9036 34.1943 67.8924 36.3561C67.8812 38.5194 67.9772 40.6446 68.1825 42.3444C68.2853 43.196 68.4128 43.914 68.5585 44.4645C68.6311 44.739 68.7035 44.9542 68.7714 45.1139C68.8049 45.1928 68.8345 45.2519 68.8583 45.2936C68.8591 45.295 68.8604 45.2962 68.8612 45.2975C68.8923 45.3144 68.9467 45.3447 69.034 45.3805C69.2547 45.4708 69.5795 45.5719 70.0174 45.6764C70.8905 45.8846 72.0863 46.0774 73.5253 46.2458C76.3954 46.5814 80.1131 46.8075 83.8924 46.8981C87.6712 46.9886 91.4822 46.9426 94.537 46.7409C96.0661 46.6399 97.3831 46.5004 98.4022 46.3258C98.9118 46.2385 99.328 46.1455 99.6483 46.0504C99.9848 45.9505 100.146 45.8686 100.195 45.8356C100.319 45.7531 100.547 45.5092 100.806 44.944C101.054 44.4007 101.277 43.675 101.466 42.7946C101.841 41.0365 102.043 38.8175 102.088 36.5524C102.132 34.2925 102.02 32.0369 101.79 30.2194C101.675 29.3094 101.533 28.5318 101.374 27.9293C101.259 27.495 101.151 27.2166 101.073 27.0553C101.037 27.0415 100.993 27.0213 100.935 27.0026C100.683 26.9201 100.318 26.8299 99.8368 26.7379C98.8785 26.5548 97.5709 26.3848 96.0126 26.237C92.9024 25.942 88.8882 25.7438 84.87 25.6872Z" fill="black"/>
<rect x="108.854" y="39.9156" width="48.114" height="48.114" rx="0.729" transform="rotate(15.002 108.854 39.9156)" fill="white"/>
<path d="M109.046 75.8142L122.881 66.0529L128.269 73.8572L144.093 63.3194" stroke="#FF1C1C" stroke-width="1.8225" stroke-linecap="round" stroke-linejoin="round"/>
<path d="M112.884 47.4078L103.59 82.0874L138.622 91.4754" stroke="black" stroke-width="1.8225" stroke-linecap="round" stroke-linejoin="round"/>
<path d="M121.816 52.3479C121.182 52.1781 120.582 51.7984 120.231 51.3345L120.959 50.6465C121.245 50.9873 121.717 51.31 122.104 51.4137C122.358 51.4817 122.466 51.4428 122.498 51.3231C122.532 51.1964 122.34 51.0693 122.021 50.9083C121.397 50.5902 120.701 50.2301 120.931 49.371C121.119 48.6669 121.837 48.2704 122.788 48.5252C123.351 48.6761 123.838 49.0256 124.18 49.4115L123.5 50.1198C123.25 49.8415 122.885 49.5401 122.54 49.4476C122.35 49.3967 122.197 49.4613 122.169 49.5669C122.137 49.6866 122.293 49.7511 122.637 49.9337C123.259 50.259 123.961 50.681 123.731 51.5401C123.529 52.2936 122.802 52.612 121.816 52.3479ZM126.42 52.2606L126.422 53.1819C126.138 53.3399 125.709 53.391 125.385 53.3042C124.66 53.1099 124.289 52.467 124.483 51.7417L124.864 50.3193L124.407 50.1967L124.693 49.1264L125.151 49.249L125.419 48.2491L126.715 48.5963L126.447 49.5962L127.165 49.7886L126.878 50.859L126.16 50.6665L125.851 51.8213C125.792 52.0396 125.877 52.2285 126.06 52.2776C126.187 52.3115 126.332 52.3051 126.42 52.2606ZM128.744 54.2042C127.625 53.9042 126.922 52.7801 127.199 51.745C127.477 50.7099 128.645 50.0947 129.765 50.3947C130.878 50.6928 131.582 51.8099 131.305 52.845C131.027 53.8801 129.857 54.5023 128.744 54.2042ZM129.046 53.0776C129.469 53.1908 129.924 52.9279 130.037 52.5054C130.15 52.0829 129.886 51.6346 129.463 51.5214C129.034 51.4063 128.58 51.6621 128.467 52.0846C128.354 52.5071 128.617 52.9625 129.046 53.0776ZM134.742 51.7282C135.523 51.9376 135.923 52.6711 135.702 53.495L135.081 55.8117L133.786 55.4645L134.322 53.4647C134.416 53.1126 134.257 52.8058 133.933 52.719C133.63 52.6379 133.349 52.8118 133.263 53.1357L132.715 55.1777L131.356 54.8136L132.332 51.1731L133.691 51.5372L133.593 51.9034C133.894 51.6821 134.305 51.6112 134.742 51.7282ZM138.875 54.6093L139.623 57.0285L138.102 56.621L137.755 55.2376L137.362 55.5246L137.137 56.3625L135.778 55.9984L137.097 51.0763L138.456 51.4404L137.769 54.0036L139.049 52.9729L140.57 53.3805L138.875 54.6093Z" fill="black"/>
</svg>
