<svg width="1027" height="1232" viewBox="0 0 1027 1232" fill="none" xmlns="http://www.w3.org/2000/svg">
<path d="M0 0H1027V1232H0V0Z" fill="white"/>
<rect x="47" y="852" width="100" height="130" rx="20" fill="#005271"/>
<rect x="47" y="42" width="100" height="130" rx="20" fill="#005271"/>
<rect x="47" y="632" width="100" height="200" rx="20" fill="#005271"/>
<rect x="47" y="412" width="100" height="200" rx="20" fill="#005271"/>
<rect x="47" y="192" width="100" height="200" rx="20" fill="#005271"/>
<path d="M83.9591 906V902.016L96.0551 892.032C100.471 888.336 102.151 885.504 102.151 882.528C102.151 878.928 99.1751 876.816 95.9111 876.816C92.3111 876.816 89.6711 878.736 87.3671 881.712L84.1031 878.832C86.9831 874.848 90.8711 872.448 96.1031 872.448C102.247 872.448 107.143 876.432 107.143 882.432C107.143 886.848 105.031 890.352 99.3671 894.96L91.6391 901.488H107.431V906H83.9591ZM95.8074 965V937.784L90.0954 941.432L88.0794 937.928L96.7674 932.024H100.703V965H95.8074Z" fill="white"/>
<path d="M96.3208 694.576C91.0888 694.576 87.1528 692.464 84.3208 689.392L87.3448 685.936C89.8888 688.576 92.9608 690.304 96.4648 690.304C100.737 690.304 103.617 687.424 103.617 683.728C103.617 679.936 100.689 677.392 96.4168 677.392C93.6808 677.392 91.3288 678.304 89.3608 679.792L85.9528 678.256L86.4328 661.024H106.737V665.536H91.0408L90.7528 675.328C92.4808 674.176 94.6888 673.216 97.6168 673.216C103.521 673.216 108.513 676.96 108.513 683.536C108.513 690.208 103.473 694.576 96.3208 694.576ZM99.9354 753V745.416H83.5674L83.0394 741.528L99.0234 720.024H104.783V741.144H109.535V745.416H104.783V753H99.9354ZM88.3674 741.144H99.9354V725.544L88.3674 741.144ZM96.3854 812.576C90.7694 812.576 86.4974 810.128 83.9534 806.96L87.0734 803.744C89.2814 806.432 92.4974 808.208 96.2894 808.208C100.561 808.208 103.297 805.952 103.297 802.64C103.297 799.232 100.465 797.456 95.5214 797.504H91.9214V793.184L95.5214 793.232C99.6974 793.232 102.625 791.408 102.625 788.096C102.625 785.024 99.7454 782.816 95.9054 782.816C92.4494 782.816 89.9054 784.544 87.6014 787.232L84.5774 784.256C87.1214 780.944 90.8654 778.448 96.2414 778.448C102.913 778.448 107.569 782.144 107.569 787.424C107.569 791.504 104.689 794.048 101.233 795.104C104.689 795.872 108.289 798.368 108.289 802.976C108.289 808.544 103.537 812.576 96.3854 812.576Z" fill="white"/>
<path d="M96.4927 474.576C89.5327 474.576 84.0607 470.976 84.0607 465.312C84.0607 461.232 87.1327 458.304 91.0687 456.96C87.4687 455.52 84.9247 453.024 84.9247 449.28C84.9247 443.664 90.5407 440.448 96.4927 440.448C102.637 440.448 108.109 443.808 108.109 449.28C108.109 453.216 105.325 455.664 101.965 456.96C105.901 458.352 108.925 461.28 108.925 465.312C108.925 471.024 103.405 474.576 96.4927 474.576ZM96.4927 455.136C99.5167 454.944 103.261 453.12 103.261 449.808C103.261 446.88 100.285 444.72 96.4927 444.72C92.7007 444.72 89.7727 446.88 89.7727 449.808C89.7727 453.216 93.5647 454.944 96.4927 455.136ZM96.4927 470.304C100.717 470.304 104.029 468.096 104.029 464.88C104.029 461.376 99.7567 459.264 96.4927 459.168C93.2767 459.264 88.9567 461.376 88.9567 464.88C88.9567 468.096 92.2687 470.304 96.4927 470.304ZM88.3259 533L102.054 504.536H84.7259V500.024H107.766V503.672L93.8939 533H88.3259ZM97.8948 571.168C103.943 571.168 108.983 574.96 108.983 581.488C108.983 587.824 103.991 592.576 97.0308 592.576C87.8628 592.576 83.9748 585.424 83.9748 576.016C83.9748 566.032 89.8788 558.448 97.9428 558.448C101.975 558.448 104.999 559.984 107.543 562.24L105.047 565.984C102.983 564.112 100.919 562.816 97.8948 562.816C92.8548 562.816 89.0628 568.24 88.9188 575.536C90.9348 572.8 94.2468 571.168 97.8948 571.168ZM96.8388 588.448C101.303 588.448 103.991 585.04 103.991 581.728C103.991 577.696 100.775 575.248 96.7428 575.248C93.0948 575.248 90.1668 577.36 89.3028 580.576C90.1668 585.28 92.5188 588.448 96.8388 588.448Z" fill="white"/>
<path d="M86.8309 254V226.784L81.1189 230.432L79.1029 226.928L87.7909 221.024H91.7269V254H86.8309ZM104.784 254V226.784L99.072 230.432L97.056 226.928L105.744 221.024H109.68V254H104.784ZM79.1199 313V285.784L73.4079 289.432L71.3919 285.928L80.0799 280.024H84.0159V313H79.1199ZM104.993 313.576C96.6891 313.576 90.8811 306.52 90.8811 296.488C90.8811 286.504 96.6891 279.448 104.993 279.448C113.201 279.448 119.057 286.504 119.057 296.488C119.057 306.52 113.201 313.576 104.993 313.576ZM104.993 309.112C110.321 309.112 114.065 303.88 114.065 296.488C114.065 289.096 110.321 283.912 104.993 283.912C99.6171 283.912 95.8251 289.096 95.8251 296.488C95.8251 303.88 99.6171 309.112 104.993 309.112ZM95.4748 338.448C104.643 338.448 108.531 345.6 108.531 355.008C108.531 364.992 102.627 372.576 94.5628 372.576C90.5308 372.576 87.5068 371.04 84.9628 368.784L87.4588 365.04C89.5228 366.912 91.5868 368.208 94.6108 368.208C99.6508 368.208 103.443 362.784 103.587 355.488C101.571 358.224 98.2588 359.856 94.6108 359.856C88.5628 359.856 83.5228 356.064 83.5228 349.536C83.5228 343.2 88.5148 338.448 95.4748 338.448ZM95.7628 355.776C99.4108 355.776 102.339 353.664 103.203 350.448C102.339 345.744 99.9868 342.576 95.6668 342.576C91.2028 342.576 88.5148 345.984 88.5148 349.296C88.5148 353.328 91.7308 355.776 95.7628 355.776Z" fill="white"/>
<path d="M82.0809 94V66.784L76.3689 70.432L74.3529 66.928L83.0409 61.024H86.9769V94H82.0809ZM105.362 94.576C99.746 94.576 95.474 92.128 92.93 88.96L96.05 85.744C98.258 88.432 101.474 90.208 105.266 90.208C109.538 90.208 112.274 87.952 112.274 84.64C112.274 81.232 109.442 79.456 104.498 79.504H100.898V75.184L104.498 75.232C108.674 75.232 111.602 73.408 111.602 70.096C111.602 67.024 108.722 64.816 104.882 64.816C101.426 64.816 98.882 66.544 96.578 69.232L93.554 66.256C96.098 62.944 99.842 60.448 105.218 60.448C111.89 60.448 116.546 64.144 116.546 69.424C116.546 73.504 113.666 76.048 110.21 77.104C113.666 77.872 117.266 80.368 117.266 84.976C117.266 90.544 112.514 94.576 105.362 94.576ZM82.0106 153V125.784L76.2986 129.432L74.2826 125.928L82.9706 120.024H86.9066V153H82.0106ZM93.4357 153V149.016L105.532 139.032C109.948 135.336 111.628 132.504 111.628 129.528C111.628 125.928 108.652 123.816 105.388 123.816C101.788 123.816 99.1477 125.736 96.8437 128.712L93.5797 125.832C96.4597 121.848 100.348 119.448 105.58 119.448C111.724 119.448 116.62 123.432 116.62 129.432C116.62 133.848 114.508 137.352 108.844 141.96L101.116 148.488H116.908V153H93.4357Z" fill="white"/>
<rect x="167" y="852" width="100" height="130" rx="20" fill="#005271"/>
<rect x="167" y="42" width="100" height="130" rx="20" fill="#005271"/>
<rect x="167" y="632" width="100" height="200" rx="20" fill="#005271"/>
<rect x="167" y="412" width="100" height="200" rx="20" fill="#005271"/>
<rect x="167" y="192" width="100" height="200" rx="20" fill="#005271"/>
<path d="M201.276 906V878.784L195.564 882.432L193.548 878.928L202.236 873.024H206.172V906H201.276ZM224.797 906.576C219.565 906.576 215.629 904.464 212.797 901.392L215.821 897.936C218.365 900.576 221.437 902.304 224.941 902.304C229.213 902.304 232.093 899.424 232.093 895.728C232.093 891.936 229.165 889.392 224.893 889.392C222.157 889.392 219.805 890.304 217.837 891.792L214.429 890.256L214.909 873.024H235.213V877.536H219.517L219.229 887.328C220.957 886.176 223.165 885.216 226.093 885.216C231.997 885.216 236.989 888.96 236.989 895.536C236.989 902.208 231.949 906.576 224.797 906.576ZM200.667 965V937.784L194.955 941.432L192.939 937.928L201.627 932.024H205.563V965H200.667ZM228.412 965V957.416H212.044L211.516 953.528L227.5 932.024H233.26V953.144H238.012V957.416H233.26V965H228.412ZM216.844 953.144H228.412V937.544L216.844 953.144Z" fill="white"/>
<path d="M201.612 694V666.784L195.9 670.432L193.884 666.928L202.572 661.024H206.508V694H201.612ZM225.469 694.576C218.509 694.576 213.037 690.976 213.037 685.312C213.037 681.232 216.109 678.304 220.045 676.96C216.445 675.52 213.901 673.024 213.901 669.28C213.901 663.664 219.517 660.448 225.469 660.448C231.613 660.448 237.085 663.808 237.085 669.28C237.085 673.216 234.301 675.664 230.941 676.96C234.877 678.352 237.901 681.28 237.901 685.312C237.901 691.024 232.381 694.576 225.469 694.576ZM225.469 675.136C228.493 674.944 232.237 673.12 232.237 669.808C232.237 666.88 229.261 664.72 225.469 664.72C221.677 664.72 218.749 666.88 218.749 669.808C218.749 673.216 222.541 674.944 225.469 675.136ZM225.469 690.304C229.693 690.304 233.005 688.096 233.005 684.88C233.005 681.376 228.733 679.264 225.469 679.168C222.253 679.264 217.933 681.376 217.933 684.88C217.933 688.096 221.245 690.304 225.469 690.304ZM201.893 753V725.784L196.181 729.432L194.165 725.928L202.853 720.024H206.789V753H201.893ZM217.303 753L231.031 724.536H213.703V720.024H236.743V723.672L222.871 753H217.303ZM201.19 812V784.784L195.478 788.432L193.462 784.928L202.15 779.024H206.086V812H201.19ZM226.871 791.168C232.919 791.168 237.959 794.96 237.959 801.488C237.959 807.824 232.967 812.576 226.007 812.576C216.839 812.576 212.951 805.424 212.951 796.016C212.951 786.032 218.855 778.448 226.919 778.448C230.951 778.448 233.975 779.984 236.519 782.24L234.023 785.984C231.959 784.112 229.895 782.816 226.871 782.816C221.831 782.816 218.039 788.24 217.895 795.536C219.911 792.8 223.223 791.168 226.871 791.168ZM225.815 808.448C230.279 808.448 232.967 805.04 232.967 801.728C232.967 797.696 229.751 795.248 225.719 795.248C222.071 795.248 219.143 797.36 218.279 800.576C219.143 805.28 221.495 808.448 225.815 808.448Z" fill="white"/>
<path d="M194.983 474V470.016L207.079 460.032C211.495 456.336 213.175 453.504 213.175 450.528C213.175 446.928 210.199 444.816 206.935 444.816C203.335 444.816 200.695 446.736 198.391 449.712L195.127 446.832C198.007 442.848 201.895 440.448 207.127 440.448C213.271 440.448 218.167 444.432 218.167 450.432C218.167 454.848 216.055 458.352 210.391 462.96L202.663 469.488H218.455V474H194.983ZM230.104 474V446.784L224.392 450.432L222.376 446.928L231.064 441.024H235V474H230.104ZM187.272 533V529.016L199.368 519.032C203.784 515.336 205.464 512.504 205.464 509.528C205.464 505.928 202.488 503.816 199.224 503.816C195.624 503.816 192.984 505.736 190.68 508.712L187.416 505.832C190.296 501.848 194.184 499.448 199.416 499.448C205.56 499.448 210.456 503.432 210.456 509.432C210.456 513.848 208.344 517.352 202.68 521.96L194.952 528.488H210.744V533H187.272ZM230.313 533.576C222.009 533.576 216.201 526.52 216.201 516.488C216.201 506.504 222.009 499.448 230.313 499.448C238.521 499.448 244.377 506.504 244.377 516.488C244.377 526.52 238.521 533.576 230.313 533.576ZM230.313 529.112C235.641 529.112 239.385 523.88 239.385 516.488C239.385 509.096 235.641 503.912 230.313 503.912C224.937 503.912 221.145 509.096 221.145 516.488C221.145 523.88 224.937 529.112 230.313 529.112ZM200.69 592V564.784L194.978 568.432L192.962 564.928L201.65 559.024H205.586V592H200.69ZM224.451 558.448C233.619 558.448 237.507 565.6 237.507 575.008C237.507 584.992 231.603 592.576 223.539 592.576C219.507 592.576 216.483 591.04 213.939 588.784L216.435 585.04C218.499 586.912 220.563 588.208 223.587 588.208C228.627 588.208 232.419 582.784 232.563 575.488C230.547 578.224 227.235 579.856 223.587 579.856C217.539 579.856 212.499 576.064 212.499 569.536C212.499 563.2 217.491 558.448 224.451 558.448ZM224.739 575.776C228.387 575.776 231.315 573.664 232.179 570.448C231.315 565.744 228.963 562.576 224.643 562.576C220.179 562.576 217.491 565.984 217.491 569.296C217.491 573.328 220.707 575.776 224.739 575.776Z" fill="white"/>
<path d="M189.319 254V250.016L201.415 240.032C205.831 236.336 207.511 233.504 207.511 230.528C207.511 226.928 204.535 224.816 201.271 224.816C197.671 224.816 195.031 226.736 192.727 229.712L189.463 226.832C192.343 222.848 196.231 220.448 201.463 220.448C207.607 220.448 212.503 224.432 212.503 230.432C212.503 234.848 210.391 238.352 204.727 242.96L196.999 249.488H212.791V254H189.319ZM234.232 254V246.416H217.864L217.336 242.528L233.32 221.024H239.08V242.144H243.832V246.416H239.08V254H234.232ZM222.664 242.144H234.232V226.544L222.664 242.144ZM190.233 313V309.016L202.329 299.032C206.745 295.336 208.425 292.504 208.425 289.528C208.425 285.928 205.449 283.816 202.185 283.816C198.585 283.816 195.945 285.736 193.641 288.712L190.377 285.832C193.257 281.848 197.145 279.448 202.377 279.448C208.521 279.448 213.417 283.432 213.417 289.432C213.417 293.848 211.305 297.352 205.641 301.96L197.913 308.488H213.705V313H190.233ZM230.682 313.576C225.066 313.576 220.794 311.128 218.25 307.96L221.37 304.744C223.578 307.432 226.794 309.208 230.586 309.208C234.858 309.208 237.594 306.952 237.594 303.64C237.594 300.232 234.762 298.456 229.818 298.504H226.218V294.184L229.818 294.232C233.994 294.232 236.922 292.408 236.922 289.096C236.922 286.024 234.042 283.816 230.202 283.816C226.746 283.816 224.202 285.544 221.898 288.232L218.874 285.256C221.418 281.944 225.162 279.448 230.538 279.448C237.21 279.448 241.866 283.144 241.866 288.424C241.866 292.504 238.986 295.048 235.53 296.104C238.986 296.872 242.586 299.368 242.586 303.976C242.586 309.544 237.834 313.576 230.682 313.576ZM190.162 372V368.016L202.258 358.032C206.674 354.336 208.354 351.504 208.354 348.528C208.354 344.928 205.378 342.816 202.114 342.816C198.514 342.816 195.874 344.736 193.57 347.712L190.306 344.832C193.186 340.848 197.074 338.448 202.306 338.448C208.45 338.448 213.346 342.432 213.346 348.432C213.346 352.848 211.234 356.352 205.57 360.96L197.842 367.488H213.634V372H190.162ZM218.756 372V368.016L230.852 358.032C235.268 354.336 236.948 351.504 236.948 348.528C236.948 344.928 233.972 342.816 230.708 342.816C227.108 342.816 224.468 344.736 222.164 347.712L218.9 344.832C221.78 340.848 225.668 338.448 230.9 338.448C237.044 338.448 241.94 342.432 241.94 348.432C241.94 352.848 239.828 356.352 234.164 360.96L226.436 367.488H242.228V372H218.756Z" fill="white"/>
<path d="M189.342 94V90.016L201.438 80.032C205.854 76.336 207.534 73.504 207.534 70.528C207.534 66.928 204.558 64.816 201.294 64.816C197.694 64.816 195.054 66.736 192.75 69.712L189.486 66.832C192.366 62.848 196.254 60.448 201.486 60.448C207.63 60.448 212.526 64.432 212.526 70.432C212.526 74.848 210.414 78.352 204.75 82.96L197.022 89.488H212.814V94H189.342ZM232.192 73.168C238.24 73.168 243.28 76.96 243.28 83.488C243.28 89.824 238.288 94.576 231.328 94.576C222.16 94.576 218.272 87.424 218.272 78.016C218.272 68.032 224.176 60.448 232.24 60.448C236.272 60.448 239.296 61.984 241.84 64.24L239.344 67.984C237.28 66.112 235.216 64.816 232.192 64.816C227.152 64.816 223.36 70.24 223.216 77.536C225.232 74.8 228.544 73.168 232.192 73.168ZM231.136 90.448C235.6 90.448 238.288 87.04 238.288 83.728C238.288 79.696 235.072 77.248 231.04 77.248C227.392 77.248 224.464 79.36 223.6 82.576C224.464 87.28 226.816 90.448 231.136 90.448ZM189.928 153V149.016L202.024 139.032C206.44 135.336 208.12 132.504 208.12 129.528C208.12 125.928 205.144 123.816 201.88 123.816C198.28 123.816 195.64 125.736 193.336 128.712L190.072 125.832C192.952 121.848 196.84 119.448 202.072 119.448C208.216 119.448 213.112 123.432 213.112 129.432C213.112 133.848 211 137.352 205.336 141.96L197.608 148.488H213.4V153H189.928ZM230.618 153.576C225.386 153.576 221.45 151.464 218.618 148.392L221.642 144.936C224.186 147.576 227.258 149.304 230.762 149.304C235.034 149.304 237.914 146.424 237.914 142.728C237.914 138.936 234.986 136.392 230.714 136.392C227.978 136.392 225.626 137.304 223.658 138.792L220.25 137.256L220.73 120.024H241.034V124.536H225.338L225.05 134.328C226.778 133.176 228.986 132.216 231.914 132.216C237.818 132.216 242.81 135.96 242.81 142.536C242.81 149.208 237.77 153.576 230.618 153.576Z" fill="white"/>
<rect x="287" y="852" width="100" height="130" rx="20" fill="#005271"/>
<rect x="287" y="42" width="100" height="130" rx="20" fill="#005271"/>
<rect x="287" y="632" width="100" height="200" rx="20" fill="#005271"/>
<rect x="287" y="412" width="100" height="200" rx="20" fill="#005271"/>
<rect x="287" y="192" width="100" height="200" rx="20" fill="#005271"/>
<path d="M309.264 906V902.016L321.36 892.032C325.776 888.336 327.456 885.504 327.456 882.528C327.456 878.928 324.48 876.816 321.216 876.816C317.616 876.816 314.976 878.736 312.672 881.712L309.408 878.832C312.288 874.848 316.176 872.448 321.408 872.448C327.552 872.448 332.448 876.432 332.448 882.432C332.448 886.848 330.336 890.352 324.672 894.96L316.944 901.488H332.736V906H309.264ZM350.29 906.576C343.33 906.576 337.858 902.976 337.858 897.312C337.858 893.232 340.93 890.304 344.866 888.96C341.266 887.52 338.722 885.024 338.722 881.28C338.722 875.664 344.338 872.448 350.29 872.448C356.434 872.448 361.906 875.808 361.906 881.28C361.906 885.216 359.122 887.664 355.762 888.96C359.698 890.352 362.722 893.28 362.722 897.312C362.722 903.024 357.202 906.576 350.29 906.576ZM350.29 887.136C353.314 886.944 357.058 885.12 357.058 881.808C357.058 878.88 354.082 876.72 350.29 876.72C346.498 876.72 343.57 878.88 343.57 881.808C343.57 885.216 347.362 886.944 350.29 887.136ZM350.29 902.304C354.514 902.304 357.826 900.096 357.826 896.88C357.826 893.376 353.554 891.264 350.29 891.168C347.074 891.264 342.754 893.376 342.754 896.88C342.754 900.096 346.066 902.304 350.29 902.304ZM309.545 965V961.016L321.641 951.032C326.057 947.336 327.737 944.504 327.737 941.528C327.737 937.928 324.761 935.816 321.497 935.816C317.897 935.816 315.257 937.736 312.953 940.712L309.689 937.832C312.569 933.848 316.457 931.448 321.689 931.448C327.833 931.448 332.729 935.432 332.729 941.432C332.729 945.848 330.617 949.352 324.953 953.96L317.225 960.488H333.017V965H309.545ZM342.123 965L355.851 936.536H338.523V932.024H361.563V935.672L347.691 965H342.123Z" fill="white"/>
<path d="M326.909 694.576C321.293 694.576 317.021 692.128 314.477 688.96L317.597 685.744C319.805 688.432 323.021 690.208 326.813 690.208C331.085 690.208 333.821 687.952 333.821 684.64C333.821 681.232 330.989 679.456 326.045 679.504H322.445V675.184L326.045 675.232C330.221 675.232 333.149 673.408 333.149 670.096C333.149 667.024 330.269 664.816 326.429 664.816C322.973 664.816 320.429 666.544 318.125 669.232L315.101 666.256C317.645 662.944 321.389 660.448 326.765 660.448C333.437 660.448 338.093 664.144 338.093 669.424C338.093 673.504 335.213 676.048 331.757 677.104C335.213 677.872 338.813 680.368 338.813 684.976C338.813 690.544 334.061 694.576 326.909 694.576ZM350.034 694V666.784L344.322 670.432L342.306 666.928L350.994 661.024H354.93V694H350.034ZM319.198 753.576C313.582 753.576 309.31 751.128 306.766 747.96L309.886 744.744C312.094 747.432 315.31 749.208 319.102 749.208C323.374 749.208 326.11 746.952 326.11 743.64C326.11 740.232 323.278 738.456 318.334 738.504H314.734V734.184L318.334 734.232C322.51 734.232 325.438 732.408 325.438 729.096C325.438 726.024 322.558 723.816 318.718 723.816C315.262 723.816 312.718 725.544 310.414 728.232L307.39 725.256C309.934 721.944 313.678 719.448 319.054 719.448C325.726 719.448 330.382 723.144 330.382 728.424C330.382 732.504 327.502 735.048 324.046 736.104C327.502 736.872 331.102 739.368 331.102 743.976C331.102 749.544 326.35 753.576 319.198 753.576ZM350.243 753.576C341.939 753.576 336.131 746.52 336.131 736.488C336.131 726.504 341.939 719.448 350.243 719.448C358.451 719.448 364.307 726.504 364.307 736.488C364.307 746.52 358.451 753.576 350.243 753.576ZM350.243 749.112C355.571 749.112 359.315 743.88 359.315 736.488C359.315 729.096 355.571 723.912 350.243 723.912C344.867 723.912 341.075 729.096 341.075 736.488C341.075 743.88 344.867 749.112 350.243 749.112ZM308.842 812V808.016L320.938 798.032C325.354 794.336 327.034 791.504 327.034 788.528C327.034 784.928 324.058 782.816 320.794 782.816C317.194 782.816 314.554 784.736 312.25 787.712L308.986 784.832C311.866 780.848 315.754 778.448 320.986 778.448C327.13 778.448 332.026 782.432 332.026 788.432C332.026 792.848 329.914 796.352 324.25 800.96L316.522 807.488H332.314V812H308.842ZM349.772 778.448C358.94 778.448 362.828 785.6 362.828 795.008C362.828 804.992 356.924 812.576 348.86 812.576C344.828 812.576 341.804 811.04 339.26 808.784L341.756 805.04C343.82 806.912 345.884 808.208 348.908 808.208C353.948 808.208 357.74 802.784 357.884 795.488C355.868 798.224 352.556 799.856 348.908 799.856C342.86 799.856 337.82 796.064 337.82 789.536C337.82 783.2 342.812 778.448 349.772 778.448ZM350.06 795.776C353.708 795.776 356.636 793.664 357.5 790.448C356.636 785.744 354.284 782.576 349.964 782.576C345.5 782.576 342.812 785.984 342.812 789.296C342.812 793.328 346.028 795.776 350.06 795.776Z" fill="white"/>
<path d="M321.245 474.576C315.629 474.576 311.357 472.128 308.813 468.96L311.933 465.744C314.141 468.432 317.357 470.208 321.149 470.208C325.421 470.208 328.157 467.952 328.157 464.64C328.157 461.232 325.325 459.456 320.381 459.504H316.781V455.184L320.381 455.232C324.557 455.232 327.485 453.408 327.485 450.096C327.485 447.024 324.605 444.816 320.765 444.816C317.309 444.816 314.765 446.544 312.461 449.232L309.437 446.256C311.981 442.944 315.725 440.448 321.101 440.448C327.773 440.448 332.429 444.144 332.429 449.424C332.429 453.504 329.549 456.048 326.093 457.104C329.549 457.872 333.149 460.368 333.149 464.976C333.149 470.544 328.397 474.576 321.245 474.576ZM354.162 474V466.416H337.794L337.266 462.528L353.25 441.024H359.01V462.144H363.762V466.416H359.01V474H354.162ZM342.594 462.144H354.162V446.544L342.594 462.144ZM322.159 533.576C316.543 533.576 312.271 531.128 309.727 527.96L312.847 524.744C315.055 527.432 318.271 529.208 322.063 529.208C326.335 529.208 329.071 526.952 329.071 523.64C329.071 520.232 326.239 518.456 321.295 518.504H317.695V514.184L321.295 514.232C325.471 514.232 328.399 512.408 328.399 509.096C328.399 506.024 325.519 503.816 321.679 503.816C318.223 503.816 315.679 505.544 313.375 508.232L310.351 505.256C312.895 501.944 316.639 499.448 322.015 499.448C328.687 499.448 333.343 503.144 333.343 508.424C333.343 512.504 330.463 515.048 327.007 516.104C330.463 516.872 334.063 519.368 334.063 523.976C334.063 529.544 329.311 533.576 322.159 533.576ZM350.612 533.576C344.996 533.576 340.724 531.128 338.18 527.96L341.3 524.744C343.508 527.432 346.724 529.208 350.516 529.208C354.788 529.208 357.524 526.952 357.524 523.64C357.524 520.232 354.692 518.456 349.748 518.504H346.148V514.184L349.748 514.232C353.924 514.232 356.852 512.408 356.852 509.096C356.852 506.024 353.972 503.816 350.132 503.816C346.676 503.816 344.132 505.544 341.828 508.232L338.804 505.256C341.348 501.944 345.092 499.448 350.468 499.448C357.14 499.448 361.796 503.144 361.796 508.424C361.796 512.504 358.916 515.048 355.46 516.104C358.916 516.872 362.516 519.368 362.516 523.976C362.516 529.544 357.764 533.576 350.612 533.576ZM322.089 592.576C316.473 592.576 312.201 590.128 309.657 586.96L312.777 583.744C314.985 586.432 318.201 588.208 321.993 588.208C326.265 588.208 329.001 585.952 329.001 582.64C329.001 579.232 326.169 577.456 321.225 577.504H317.625V573.184L321.225 573.232C325.401 573.232 328.329 571.408 328.329 568.096C328.329 565.024 325.449 562.816 321.609 562.816C318.153 562.816 315.609 564.544 313.305 567.232L310.281 564.256C312.825 560.944 316.569 558.448 321.945 558.448C328.617 558.448 333.273 562.144 333.273 567.424C333.273 571.504 330.393 574.048 326.937 575.104C330.393 575.872 333.993 578.368 333.993 582.976C333.993 588.544 329.241 592.576 322.089 592.576ZM338.686 592V588.016L350.782 578.032C355.198 574.336 356.878 571.504 356.878 568.528C356.878 564.928 353.902 562.816 350.638 562.816C347.038 562.816 344.398 564.736 342.094 567.712L338.83 564.832C341.71 560.848 345.598 558.448 350.83 558.448C356.974 558.448 361.87 562.432 361.87 568.432C361.87 572.848 359.758 576.352 354.094 580.96L346.366 587.488H362.158V592H338.686Z" fill="white"/>
<path d="M321.971 254.576C316.355 254.576 312.083 252.128 309.539 248.96L312.659 245.744C314.867 248.432 318.083 250.208 321.875 250.208C326.147 250.208 328.883 247.952 328.883 244.64C328.883 241.232 326.051 239.456 321.107 239.504H317.507V235.184L321.107 235.232C325.283 235.232 328.211 233.408 328.211 230.096C328.211 227.024 325.331 224.816 321.491 224.816C318.035 224.816 315.491 226.544 313.187 229.232L310.163 226.256C312.707 222.944 316.451 220.448 321.827 220.448C328.499 220.448 333.155 224.144 333.155 229.424C333.155 233.504 330.275 236.048 326.819 237.104C330.275 237.872 333.875 240.368 333.875 244.976C333.875 250.544 329.123 254.576 321.971 254.576ZM342.553 254L356.281 225.536H338.953V221.024H361.993V224.672L348.121 254H342.553ZM321.268 313.576C315.652 313.576 311.38 311.128 308.836 307.96L311.956 304.744C314.164 307.432 317.38 309.208 321.172 309.208C325.444 309.208 328.18 306.952 328.18 303.64C328.18 300.232 325.348 298.456 320.404 298.504H316.804V294.184L320.404 294.232C324.58 294.232 327.508 292.408 327.508 289.096C327.508 286.024 324.628 283.816 320.788 283.816C317.332 283.816 314.788 285.544 312.484 288.232L309.46 285.256C312.004 281.944 315.748 279.448 321.124 279.448C327.796 279.448 332.452 283.144 332.452 288.424C332.452 292.504 329.572 295.048 326.116 296.104C329.572 296.872 333.172 299.368 333.172 303.976C333.172 309.544 328.42 313.576 321.268 313.576ZM352.121 292.168C358.169 292.168 363.209 295.96 363.209 302.488C363.209 308.824 358.217 313.576 351.257 313.576C342.089 313.576 338.201 306.424 338.201 297.016C338.201 287.032 344.105 279.448 352.169 279.448C356.201 279.448 359.225 280.984 361.769 283.24L359.273 286.984C357.209 285.112 355.145 283.816 352.121 283.816C347.081 283.816 343.289 289.24 343.145 296.536C345.161 293.8 348.473 292.168 352.121 292.168ZM351.065 309.448C355.529 309.448 358.217 306.04 358.217 302.728C358.217 298.696 355.001 296.248 350.969 296.248C347.321 296.248 344.393 298.36 343.529 301.576C344.393 306.28 346.745 309.448 351.065 309.448ZM321.854 372.576C316.238 372.576 311.966 370.128 309.422 366.96L312.542 363.744C314.75 366.432 317.966 368.208 321.758 368.208C326.03 368.208 328.766 365.952 328.766 362.64C328.766 359.232 325.934 357.456 320.99 357.504H317.39V353.184L320.99 353.232C325.166 353.232 328.094 351.408 328.094 348.096C328.094 345.024 325.214 342.816 321.374 342.816C317.918 342.816 315.374 344.544 313.07 347.232L310.046 344.256C312.59 340.944 316.334 338.448 321.71 338.448C328.382 338.448 333.038 342.144 333.038 347.424C333.038 351.504 330.158 354.048 326.702 355.104C330.158 355.872 333.758 358.368 333.758 362.976C333.758 368.544 329.006 372.576 321.854 372.576ZM350.547 372.576C345.315 372.576 341.379 370.464 338.547 367.392L341.571 363.936C344.115 366.576 347.187 368.304 350.691 368.304C354.963 368.304 357.843 365.424 357.843 361.728C357.843 357.936 354.915 355.392 350.643 355.392C347.907 355.392 345.555 356.304 343.587 357.792L340.179 356.256L340.659 339.024H360.963V343.536H345.267L344.979 353.328C346.707 352.176 348.915 351.216 351.843 351.216C357.747 351.216 362.739 354.96 362.739 361.536C362.739 368.208 357.699 372.576 350.547 372.576Z" fill="white"/>
<path d="M321.268 94.576C315.652 94.576 311.38 92.128 308.836 88.96L311.956 85.744C314.164 88.432 317.38 90.208 321.172 90.208C325.444 90.208 328.18 87.952 328.18 84.64C328.18 81.232 325.348 79.456 320.404 79.504H316.804V75.184L320.404 75.232C324.58 75.232 327.508 73.408 327.508 70.096C327.508 67.024 324.628 64.816 320.788 64.816C317.332 64.816 314.788 66.544 312.484 69.232L309.46 66.256C312.004 62.944 315.748 60.448 321.124 60.448C327.796 60.448 332.452 64.144 332.452 69.424C332.452 73.504 329.572 76.048 326.116 77.104C329.572 77.872 333.172 80.368 333.172 84.976C333.172 90.544 328.42 94.576 321.268 94.576ZM350.201 60.448C359.369 60.448 363.257 67.6 363.257 77.008C363.257 86.992 357.353 94.576 349.289 94.576C345.257 94.576 342.233 93.04 339.689 90.784L342.185 87.04C344.249 88.912 346.313 90.208 349.337 90.208C354.377 90.208 358.169 84.784 358.313 77.488C356.297 80.224 352.985 81.856 349.337 81.856C343.289 81.856 338.249 78.064 338.249 71.536C338.249 65.2 343.241 60.448 350.201 60.448ZM350.489 77.776C354.137 77.776 357.065 75.664 357.929 72.448C357.065 67.744 354.713 64.576 350.393 64.576C345.929 64.576 343.241 67.984 343.241 71.296C343.241 75.328 346.457 77.776 350.489 77.776ZM321.69 153.576C316.074 153.576 311.802 151.128 309.258 147.96L312.378 144.744C314.586 147.432 317.802 149.208 321.594 149.208C325.866 149.208 328.602 146.952 328.602 143.64C328.602 140.232 325.77 138.456 320.826 138.504H317.226V134.184L320.826 134.232C325.002 134.232 327.93 132.408 327.93 129.096C327.93 126.024 325.05 123.816 321.21 123.816C317.754 123.816 315.21 125.544 312.906 128.232L309.882 125.256C312.426 121.944 316.17 119.448 321.546 119.448C328.218 119.448 332.874 123.144 332.874 128.424C332.874 132.504 329.994 135.048 326.538 136.104C329.994 136.872 333.594 139.368 333.594 143.976C333.594 149.544 328.842 153.576 321.69 153.576ZM350.719 153.576C343.759 153.576 338.287 149.976 338.287 144.312C338.287 140.232 341.359 137.304 345.295 135.96C341.695 134.52 339.151 132.024 339.151 128.28C339.151 122.664 344.767 119.448 350.719 119.448C356.863 119.448 362.335 122.808 362.335 128.28C362.335 132.216 359.551 134.664 356.191 135.96C360.127 137.352 363.151 140.28 363.151 144.312C363.151 150.024 357.631 153.576 350.719 153.576ZM350.719 134.136C353.743 133.944 357.487 132.12 357.487 128.808C357.487 125.88 354.511 123.72 350.719 123.72C346.927 123.72 343.999 125.88 343.999 128.808C343.999 132.216 347.791 133.944 350.719 134.136ZM350.719 149.304C354.943 149.304 358.255 147.096 358.255 143.88C358.255 140.376 353.983 138.264 350.719 138.168C347.503 138.264 343.183 140.376 343.183 143.88C343.183 147.096 346.495 149.304 350.719 149.304Z" fill="white"/>
<rect x="407" y="852" width="100" height="130" rx="20" fill="#005271"/>
<rect x="407" y="42" width="100" height="130" rx="20" fill="#005271"/>
<rect x="407" y="632" width="100" height="200" rx="20" fill="#005271"/>
<rect x="407" y="412" width="100" height="200" rx="20" fill="#005271"/>
<rect x="407" y="192" width="100" height="200" rx="20" fill="#005271"/>
<path d="M450.459 906V898.416H434.091L433.563 894.528L449.547 873.024H455.307V894.144H460.059V898.416H455.307V906H450.459ZM438.891 894.144H450.459V878.544L438.891 894.144ZM470.948 906V878.784L465.236 882.432L463.22 878.928L471.908 873.024H475.844V906H470.948ZM442.748 965V957.416H426.38L425.852 953.528L441.836 932.024H447.596V953.144H452.348V957.416H447.596V965H442.748ZM431.18 953.144H442.748V937.544L431.18 953.144ZM471.157 965.576C462.853 965.576 457.045 958.52 457.045 948.488C457.045 938.504 462.853 931.448 471.157 931.448C479.365 931.448 485.221 938.504 485.221 948.488C485.221 958.52 479.365 965.576 471.157 965.576ZM471.157 961.112C476.485 961.112 480.229 955.88 480.229 948.488C480.229 941.096 476.485 935.912 471.157 935.912C465.781 935.912 461.989 941.096 461.989 948.488C461.989 955.88 465.781 961.112 471.157 961.112Z" fill="white"/>
<path d="M444.795 694V686.416H428.427L427.899 682.528L443.883 661.024H449.643V682.144H454.395V686.416H449.643V694H444.795ZM433.227 682.144H444.795V666.544L433.227 682.144ZM475.076 694V686.416H458.708L458.18 682.528L474.164 661.024H479.924V682.144H484.676V686.416H479.924V694H475.076ZM463.508 682.144H475.076V666.544L463.508 682.144ZM445.709 753V745.416H429.341L428.813 741.528L444.797 720.024H450.557V741.144H455.309V745.416H450.557V753H445.709ZM434.141 741.144H445.709V725.544L434.141 741.144ZM471.526 753.576C465.91 753.576 461.638 751.128 459.094 747.96L462.214 744.744C464.422 747.432 467.638 749.208 471.43 749.208C475.702 749.208 478.438 746.952 478.438 743.64C478.438 740.232 475.606 738.456 470.662 738.504H467.062V734.184L470.662 734.232C474.838 734.232 477.766 732.408 477.766 729.096C477.766 726.024 474.886 723.816 471.046 723.816C467.59 723.816 465.046 725.544 462.742 728.232L459.718 725.256C462.262 721.944 466.006 719.448 471.382 719.448C478.054 719.448 482.71 723.144 482.71 728.424C482.71 732.504 479.83 735.048 476.374 736.104C479.83 736.872 483.43 739.368 483.43 743.976C483.43 749.544 478.678 753.576 471.526 753.576ZM445.639 812V804.416H429.271L428.743 800.528L444.727 779.024H450.487V800.144H455.239V804.416H450.487V812H445.639ZM434.071 800.144H445.639V784.544L434.071 800.144ZM459.6 812V808.016L471.696 798.032C476.112 794.336 477.792 791.504 477.792 788.528C477.792 784.928 474.816 782.816 471.552 782.816C467.952 782.816 465.312 784.736 463.008 787.712L459.744 784.832C462.624 780.848 466.512 778.448 471.744 778.448C477.888 778.448 482.784 782.432 482.784 788.432C482.784 792.848 480.672 796.352 475.008 800.96L467.28 807.488H483.072V812H459.6Z" fill="white"/>
<path d="M445.521 474V466.416H429.153L428.625 462.528L444.609 441.024H450.369V462.144H455.121V466.416H450.369V474H445.521ZM433.953 462.144H445.521V446.544L433.953 462.144ZM463.467 474L477.195 445.536H459.867V441.024H482.907V444.672L469.035 474H463.467ZM444.818 533V525.416H428.45L427.922 521.528L443.906 500.024H449.666V521.144H454.418V525.416H449.666V533H444.818ZM433.25 521.144H444.818V505.544L433.25 521.144ZM473.035 512.168C479.083 512.168 484.123 515.96 484.123 522.488C484.123 528.824 479.131 533.576 472.171 533.576C463.003 533.576 459.115 526.424 459.115 517.016C459.115 507.032 465.019 499.448 473.083 499.448C477.115 499.448 480.139 500.984 482.683 503.24L480.187 506.984C478.123 505.112 476.059 503.816 473.035 503.816C467.995 503.816 464.203 509.24 464.059 516.536C466.075 513.8 469.387 512.168 473.035 512.168ZM471.979 529.448C476.443 529.448 479.131 526.04 479.131 522.728C479.131 518.696 475.915 516.248 471.883 516.248C468.235 516.248 465.307 518.36 464.443 521.576C465.307 526.28 467.659 529.448 471.979 529.448ZM445.404 592V584.416H429.036L428.508 580.528L444.492 559.024H450.252V580.144H455.004V584.416H450.252V592H445.404ZM433.836 580.144H445.404V564.544L433.836 580.144ZM471.461 592.576C466.229 592.576 462.293 590.464 459.461 587.392L462.485 583.936C465.029 586.576 468.101 588.304 471.605 588.304C475.877 588.304 478.757 585.424 478.757 581.728C478.757 577.936 475.829 575.392 471.557 575.392C468.821 575.392 466.469 576.304 464.501 577.792L461.093 576.256L461.573 559.024H481.877V563.536H466.181L465.893 573.328C467.621 572.176 469.829 571.216 472.757 571.216C478.661 571.216 483.653 574.96 483.653 581.536C483.653 588.208 478.613 592.576 471.461 592.576Z" fill="white"/>
<path d="M439.633 254.576C434.401 254.576 430.465 252.464 427.633 249.392L430.657 245.936C433.201 248.576 436.273 250.304 439.777 250.304C444.049 250.304 446.929 247.424 446.929 243.728C446.929 239.936 444.001 237.392 439.729 237.392C436.993 237.392 434.641 238.304 432.673 239.792L429.265 238.256L429.745 221.024H450.049V225.536H434.353L434.065 235.328C435.793 234.176 438.001 233.216 440.929 233.216C446.833 233.216 451.825 236.96 451.825 243.536C451.825 250.208 446.785 254.576 439.633 254.576ZM471.048 254.576C462.744 254.576 456.936 247.52 456.936 237.488C456.936 227.504 462.744 220.448 471.048 220.448C479.256 220.448 485.112 227.504 485.112 237.488C485.112 247.52 479.256 254.576 471.048 254.576ZM471.048 250.112C476.376 250.112 480.12 244.88 480.12 237.488C480.12 230.096 476.376 224.912 471.048 224.912C465.672 224.912 461.88 230.096 461.88 237.488C461.88 244.88 465.672 250.112 471.048 250.112ZM444.818 313V305.416H428.45L427.922 301.528L443.906 280.024H449.666V301.144H454.418V305.416H449.666V313H444.818ZM433.25 301.144H444.818V285.544L433.25 301.144ZM471.115 279.448C480.283 279.448 484.171 286.6 484.171 296.008C484.171 305.992 478.267 313.576 470.203 313.576C466.171 313.576 463.147 312.04 460.603 309.784L463.099 306.04C465.163 307.912 467.227 309.208 470.251 309.208C475.291 309.208 479.083 303.784 479.227 296.488C477.211 299.224 473.899 300.856 470.251 300.856C464.203 300.856 459.163 297.064 459.163 290.536C459.163 284.2 464.155 279.448 471.115 279.448ZM471.403 296.776C475.051 296.776 477.979 294.664 478.843 291.448C477.979 286.744 475.627 283.576 471.307 283.576C466.843 283.576 464.155 286.984 464.155 290.296C464.155 294.328 467.371 296.776 471.403 296.776ZM445.24 372V364.416H428.872L428.344 360.528L444.328 339.024H450.088V360.144H454.84V364.416H450.088V372H445.24ZM433.672 360.144H445.24V344.544L433.672 360.144ZM471.633 372.576C464.673 372.576 459.201 368.976 459.201 363.312C459.201 359.232 462.273 356.304 466.209 354.96C462.609 353.52 460.065 351.024 460.065 347.28C460.065 341.664 465.681 338.448 471.633 338.448C477.777 338.448 483.249 341.808 483.249 347.28C483.249 351.216 480.465 353.664 477.105 354.96C481.041 356.352 484.065 359.28 484.065 363.312C484.065 369.024 478.545 372.576 471.633 372.576ZM471.633 353.136C474.657 352.944 478.401 351.12 478.401 347.808C478.401 344.88 475.425 342.72 471.633 342.72C467.841 342.72 464.913 344.88 464.913 347.808C464.913 351.216 468.705 352.944 471.633 353.136ZM471.633 368.304C475.857 368.304 479.169 366.096 479.169 362.88C479.169 359.376 474.897 357.264 471.633 357.168C468.417 357.264 464.097 359.376 464.097 362.88C464.097 366.096 467.409 368.304 471.633 368.304Z" fill="white"/>
<path d="M441.524 94.576C436.292 94.576 432.356 92.464 429.524 89.392L432.548 85.936C435.092 88.576 438.164 90.304 441.668 90.304C445.94 90.304 448.82 87.424 448.82 83.728C448.82 79.936 445.892 77.392 441.62 77.392C438.884 77.392 436.532 78.304 434.564 79.792L431.156 78.256L431.636 61.024H451.94V65.536H436.244L435.956 75.328C437.684 74.176 439.892 73.216 442.82 73.216C448.724 73.216 453.716 76.96 453.716 83.536C453.716 90.208 448.676 94.576 441.524 94.576ZM458.49 94V90.016L470.586 80.032C475.002 76.336 476.682 73.504 476.682 70.528C476.682 66.928 473.706 64.816 470.442 64.816C466.842 64.816 464.202 66.736 461.898 69.712L458.634 66.832C461.514 62.848 465.402 60.448 470.634 60.448C476.778 60.448 481.674 64.432 481.674 70.432C481.674 74.848 479.562 78.352 473.898 82.96L466.17 89.488H481.962V94H458.49ZM446.844 153.576C441.612 153.576 437.676 151.464 434.844 148.392L437.868 144.936C440.412 147.576 443.484 149.304 446.988 149.304C451.26 149.304 454.14 146.424 454.14 142.728C454.14 138.936 451.212 136.392 446.94 136.392C444.204 136.392 441.852 137.304 439.884 138.792L436.476 137.256L436.956 120.024H457.26V124.536H441.564L441.276 134.328C443.004 133.176 445.212 132.216 448.14 132.216C454.044 132.216 459.036 135.96 459.036 142.536C459.036 149.208 453.996 153.576 446.844 153.576ZM470.339 153V125.784L464.627 129.432L462.611 125.928L471.299 120.024H475.235V153H470.339Z" fill="white"/>
<rect x="527" y="852" width="100" height="130" rx="20" fill="#005271"/>
<rect x="527" y="42" width="100" height="130" rx="20" fill="#005271"/>
<rect x="527" y="632" width="100" height="200" rx="20" fill="#005271"/>
<rect x="527" y="412" width="100" height="200" rx="20" fill="#005271"/>
<rect x="527" y="192" width="100" height="200" rx="20" fill="#005271"/>
<path d="M560.68 906.576C555.448 906.576 551.512 904.464 548.68 901.392L551.704 897.936C554.248 900.576 557.32 902.304 560.824 902.304C565.096 902.304 567.976 899.424 567.976 895.728C567.976 891.936 565.048 889.392 560.776 889.392C558.04 889.392 555.688 890.304 553.72 891.792L550.312 890.256L550.792 873.024H571.096V877.536H555.4L555.112 887.328C556.84 886.176 559.048 885.216 561.976 885.216C567.88 885.216 572.872 888.96 572.872 895.536C572.872 902.208 567.832 906.576 560.68 906.576ZM593.967 906V898.416H577.599L577.071 894.528L593.055 873.024H598.815V894.144H603.567V898.416H598.815V906H593.967ZM582.399 894.144H593.967V878.544L582.399 894.144ZM561.594 965.576C556.362 965.576 552.426 963.464 549.594 960.392L552.618 956.936C555.162 959.576 558.234 961.304 561.738 961.304C566.01 961.304 568.89 958.424 568.89 954.728C568.89 950.936 565.962 948.392 561.69 948.392C558.954 948.392 556.602 949.304 554.634 950.792L551.226 949.256L551.706 932.024H572.01V936.536H556.314L556.026 946.328C557.754 945.176 559.962 944.216 562.89 944.216C568.794 944.216 573.786 947.96 573.786 954.536C573.786 961.208 568.746 965.576 561.594 965.576ZM590.417 965.576C584.801 965.576 580.529 963.128 577.985 959.96L581.105 956.744C583.313 959.432 586.529 961.208 590.321 961.208C594.593 961.208 597.329 958.952 597.329 955.64C597.329 952.232 594.497 950.456 589.553 950.504H585.953V946.184L589.553 946.232C593.729 946.232 596.657 944.408 596.657 941.096C596.657 938.024 593.777 935.816 589.937 935.816C586.481 935.816 583.937 937.544 581.633 940.232L578.609 937.256C581.153 933.944 584.897 931.448 590.273 931.448C596.945 931.448 601.601 935.144 601.601 940.424C601.601 944.504 598.721 947.048 595.265 948.104C598.721 948.872 602.321 951.368 602.321 955.976C602.321 961.544 597.569 965.576 590.417 965.576Z" fill="white"/>
<path d="M561.407 694.576C556.175 694.576 552.239 692.464 549.407 689.392L552.431 685.936C554.975 688.576 558.047 690.304 561.551 690.304C565.823 690.304 568.703 687.424 568.703 683.728C568.703 679.936 565.775 677.392 561.503 677.392C558.767 677.392 556.415 678.304 554.447 679.792L551.039 678.256L551.519 661.024H571.823V665.536H556.127L555.839 675.328C557.567 674.176 559.775 673.216 562.703 673.216C568.607 673.216 573.599 676.96 573.599 683.536C573.599 690.208 568.559 694.576 561.407 694.576ZM582.357 694L596.085 665.536H578.757V661.024H601.797V664.672L587.925 694H582.357ZM560.704 753.576C555.472 753.576 551.536 751.464 548.704 748.392L551.728 744.936C554.272 747.576 557.344 749.304 560.848 749.304C565.12 749.304 568 746.424 568 742.728C568 738.936 565.072 736.392 560.8 736.392C558.064 736.392 555.712 737.304 553.744 738.792L550.336 737.256L550.816 720.024H571.12V724.536H555.424L555.136 734.328C556.864 733.176 559.072 732.216 562 732.216C567.904 732.216 572.896 735.96 572.896 742.536C572.896 749.208 567.856 753.576 560.704 753.576ZM591.926 732.168C597.974 732.168 603.014 735.96 603.014 742.488C603.014 748.824 598.022 753.576 591.062 753.576C581.894 753.576 578.006 746.424 578.006 737.016C578.006 727.032 583.91 719.448 591.974 719.448C596.006 719.448 599.03 720.984 601.574 723.24L599.078 726.984C597.014 725.112 594.95 723.816 591.926 723.816C586.886 723.816 583.094 729.24 582.95 736.536C584.966 733.8 588.278 732.168 591.926 732.168ZM590.87 749.448C595.334 749.448 598.022 746.04 598.022 742.728C598.022 738.696 594.806 736.248 590.774 736.248C587.126 736.248 584.198 738.36 583.334 741.576C584.198 746.28 586.55 749.448 590.87 749.448ZM561.29 812.576C556.058 812.576 552.122 810.464 549.29 807.392L552.314 803.936C554.858 806.576 557.93 808.304 561.434 808.304C565.706 808.304 568.586 805.424 568.586 801.728C568.586 797.936 565.658 795.392 561.386 795.392C558.65 795.392 556.298 796.304 554.33 797.792L550.922 796.256L551.402 779.024H571.706V783.536H556.01L555.722 793.328C557.45 792.176 559.658 791.216 562.586 791.216C568.49 791.216 573.482 794.96 573.482 801.536C573.482 808.208 568.442 812.576 561.29 812.576ZM590.352 812.576C585.12 812.576 581.184 810.464 578.352 807.392L581.376 803.936C583.92 806.576 586.992 808.304 590.496 808.304C594.768 808.304 597.648 805.424 597.648 801.728C597.648 797.936 594.72 795.392 590.448 795.392C587.712 795.392 585.36 796.304 583.392 797.792L579.984 796.256L580.464 779.024H600.768V783.536H585.072L584.784 793.328C586.512 792.176 588.72 791.216 591.648 791.216C597.552 791.216 602.544 794.96 602.544 801.536C602.544 808.208 597.504 812.576 590.352 812.576Z" fill="white"/>
<path d="M560.707 453.168C566.755 453.168 571.795 456.96 571.795 463.488C571.795 469.824 566.803 474.576 559.843 474.576C550.675 474.576 546.787 467.424 546.787 458.016C546.787 448.032 552.691 440.448 560.755 440.448C564.787 440.448 567.811 441.984 570.355 444.24L567.859 447.984C565.795 446.112 563.731 444.816 560.707 444.816C555.667 444.816 551.875 450.24 551.731 457.536C553.747 454.8 557.059 453.168 560.707 453.168ZM559.651 470.448C564.115 470.448 566.803 467.04 566.803 463.728C566.803 459.696 563.587 457.248 559.555 457.248C555.907 457.248 552.979 459.36 552.115 462.576C552.979 467.28 555.331 470.448 559.651 470.448ZM591.134 474.576C582.83 474.576 577.022 467.52 577.022 457.488C577.022 447.504 582.83 440.448 591.134 440.448C599.342 440.448 605.198 447.504 605.198 457.488C605.198 467.52 599.342 474.576 591.134 474.576ZM591.134 470.112C596.462 470.112 600.206 464.88 600.206 457.488C600.206 450.096 596.462 444.912 591.134 444.912C585.758 444.912 581.966 450.096 581.966 457.488C581.966 464.88 585.758 470.112 591.134 470.112ZM560.704 533.576C555.472 533.576 551.536 531.464 548.704 528.392L551.728 524.936C554.272 527.576 557.344 529.304 560.848 529.304C565.12 529.304 568 526.424 568 522.728C568 518.936 565.072 516.392 560.8 516.392C558.064 516.392 555.712 517.304 553.744 518.792L550.336 517.256L550.816 500.024H571.12V504.536H555.424L555.136 514.328C556.864 513.176 559.072 512.216 562 512.216C567.904 512.216 572.896 515.96 572.896 522.536C572.896 529.208 567.856 533.576 560.704 533.576ZM590.006 499.448C599.174 499.448 603.062 506.6 603.062 516.008C603.062 525.992 597.158 533.576 589.094 533.576C585.062 533.576 582.038 532.04 579.494 529.784L581.99 526.04C584.054 527.912 586.118 529.208 589.142 529.208C594.182 529.208 597.974 523.784 598.118 516.488C596.102 519.224 592.79 520.856 589.142 520.856C583.094 520.856 578.054 517.064 578.054 510.536C578.054 504.2 583.046 499.448 590.006 499.448ZM590.294 516.776C593.942 516.776 596.87 514.664 597.734 511.448C596.87 506.744 594.518 503.576 590.198 503.576C585.734 503.576 583.046 506.984 583.046 510.296C583.046 514.328 586.262 516.776 590.294 516.776ZM561.125 592.576C555.893 592.576 551.957 590.464 549.125 587.392L552.149 583.936C554.693 586.576 557.765 588.304 561.269 588.304C565.541 588.304 568.421 585.424 568.421 581.728C568.421 577.936 565.493 575.392 561.221 575.392C558.485 575.392 556.133 576.304 554.165 577.792L550.757 576.256L551.237 559.024H571.541V563.536H555.845L555.557 573.328C557.285 572.176 559.493 571.216 562.421 571.216C568.325 571.216 573.317 574.96 573.317 581.536C573.317 588.208 568.277 592.576 561.125 592.576ZM590.524 592.576C583.564 592.576 578.092 588.976 578.092 583.312C578.092 579.232 581.164 576.304 585.1 574.96C581.5 573.52 578.956 571.024 578.956 567.28C578.956 561.664 584.572 558.448 590.524 558.448C596.668 558.448 602.14 561.808 602.14 567.28C602.14 571.216 599.356 573.664 595.996 574.96C599.932 576.352 602.956 579.28 602.956 583.312C602.956 589.024 597.436 592.576 590.524 592.576ZM590.524 573.136C593.548 572.944 597.292 571.12 597.292 567.808C597.292 564.88 594.316 562.72 590.524 562.72C586.732 562.72 583.804 564.88 583.804 567.808C583.804 571.216 587.596 572.944 590.524 573.136ZM590.524 588.304C594.748 588.304 598.06 586.096 598.06 582.88C598.06 579.376 593.788 577.264 590.524 577.168C587.308 577.264 582.988 579.376 582.988 582.88C582.988 586.096 586.3 588.304 590.524 588.304Z" fill="white"/>
<path d="M563.668 233.168C569.716 233.168 574.756 236.96 574.756 243.488C574.756 249.824 569.764 254.576 562.804 254.576C553.636 254.576 549.748 247.424 549.748 238.016C549.748 228.032 555.652 220.448 563.716 220.448C567.748 220.448 570.772 221.984 573.316 224.24L570.82 227.984C568.756 226.112 566.692 224.816 563.668 224.816C558.628 224.816 554.836 230.24 554.692 237.536C556.708 234.8 560.02 233.168 563.668 233.168ZM562.612 250.448C567.076 250.448 569.764 247.04 569.764 243.728C569.764 239.696 566.548 237.248 562.516 237.248C558.868 237.248 555.94 239.36 555.076 242.576C555.94 247.28 558.292 250.448 562.612 250.448ZM591.503 254.576C585.887 254.576 581.615 252.128 579.071 248.96L582.191 245.744C584.399 248.432 587.615 250.208 591.407 250.208C595.679 250.208 598.415 247.952 598.415 244.64C598.415 241.232 595.583 239.456 590.639 239.504H587.039V235.184L590.639 235.232C594.815 235.232 597.743 233.408 597.743 230.096C597.743 227.024 594.863 224.816 591.023 224.816C587.567 224.816 585.023 226.544 582.719 229.232L579.695 226.256C582.239 222.944 585.983 220.448 591.359 220.448C598.031 220.448 602.687 224.144 602.687 229.424C602.687 233.504 599.807 236.048 596.351 237.104C599.807 237.872 603.407 240.368 603.407 244.976C603.407 250.544 598.655 254.576 591.503 254.576ZM563.598 292.168C569.646 292.168 574.686 295.96 574.686 302.488C574.686 308.824 569.694 313.576 562.734 313.576C553.566 313.576 549.678 306.424 549.678 297.016C549.678 287.032 555.582 279.448 563.646 279.448C567.678 279.448 570.702 280.984 573.246 283.24L570.75 286.984C568.686 285.112 566.622 283.816 563.598 283.816C558.558 283.816 554.766 289.24 554.622 296.536C556.638 293.8 559.95 292.168 563.598 292.168ZM562.542 309.448C567.006 309.448 569.694 306.04 569.694 302.728C569.694 298.696 566.478 296.248 562.446 296.248C558.798 296.248 555.87 298.36 555.006 301.576C555.87 306.28 558.222 309.448 562.542 309.448ZM579.576 313V309.016L591.672 299.032C596.088 295.336 597.768 292.504 597.768 289.528C597.768 285.928 594.792 283.816 591.528 283.816C587.928 283.816 585.288 285.736 582.984 288.712L579.72 285.832C582.6 281.848 586.488 279.448 591.72 279.448C597.864 279.448 602.76 283.432 602.76 289.432C602.76 293.848 600.648 297.352 594.984 301.96L587.256 308.488H603.048V313H579.576ZM568.918 351.168C574.966 351.168 580.006 354.96 580.006 361.488C580.006 367.824 575.014 372.576 568.054 372.576C558.886 372.576 554.998 365.424 554.998 356.016C554.998 346.032 560.902 338.448 568.966 338.448C572.998 338.448 576.022 339.984 578.566 342.24L576.07 345.984C574.006 344.112 571.942 342.816 568.918 342.816C563.878 342.816 560.086 348.24 559.942 355.536C561.958 352.8 565.27 351.168 568.918 351.168ZM567.862 368.448C572.326 368.448 575.014 365.04 575.014 361.728C575.014 357.696 571.798 355.248 567.766 355.248C564.118 355.248 561.19 357.36 560.326 360.576C561.19 365.28 563.542 368.448 567.862 368.448ZM591.425 372V344.784L585.713 348.432L583.697 344.928L592.385 339.024H596.321V372H591.425Z" fill="white"/>
<path d="M563.364 73.168C569.412 73.168 574.452 76.96 574.452 83.488C574.452 89.824 569.46 94.576 562.5 94.576C553.332 94.576 549.444 87.424 549.444 78.016C549.444 68.032 555.348 60.448 563.412 60.448C567.444 60.448 570.468 61.984 573.012 64.24L570.516 67.984C568.452 66.112 566.388 64.816 563.364 64.816C558.324 64.816 554.532 70.24 554.388 77.536C556.404 74.8 559.716 73.168 563.364 73.168ZM562.308 90.448C566.772 90.448 569.46 87.04 569.46 83.728C569.46 79.696 566.244 77.248 562.212 77.248C558.564 77.248 555.636 79.36 554.772 82.576C555.636 87.28 557.988 90.448 562.308 90.448ZM591.438 94.576C586.206 94.576 582.27 92.464 579.438 89.392L582.462 85.936C585.006 88.576 588.078 90.304 591.582 90.304C595.854 90.304 598.734 87.424 598.734 83.728C598.734 79.936 595.806 77.392 591.534 77.392C588.798 77.392 586.446 78.304 584.478 79.792L581.07 78.256L581.55 61.024H601.854V65.536H586.158L585.87 75.328C587.598 74.176 589.806 73.216 592.734 73.216C598.638 73.216 603.63 76.96 603.63 83.536C603.63 90.208 598.59 94.576 591.438 94.576ZM562.754 132.168C568.802 132.168 573.842 135.96 573.842 142.488C573.842 148.824 568.85 153.576 561.89 153.576C552.722 153.576 548.834 146.424 548.834 137.016C548.834 127.032 554.738 119.448 562.802 119.448C566.834 119.448 569.858 120.984 572.402 123.24L569.906 126.984C567.842 125.112 565.778 123.816 562.754 123.816C557.714 123.816 553.922 129.24 553.778 136.536C555.794 133.8 559.106 132.168 562.754 132.168ZM561.698 149.448C566.162 149.448 568.85 146.04 568.85 142.728C568.85 138.696 565.634 136.248 561.602 136.248C557.954 136.248 555.026 138.36 554.162 141.576C555.026 146.28 557.378 149.448 561.698 149.448ZM595.053 153V145.416H578.685L578.157 141.528L594.141 120.024H599.901V141.144H604.653V145.416H599.901V153H595.053ZM583.485 141.144H595.053V125.544L583.485 141.144Z" fill="white"/>
<rect x="647" y="852" width="100" height="130" rx="20" fill="#005271"/>
<rect x="647" y="42" width="100" height="130" rx="20" fill="#005271"/>
<rect x="647" y="632" width="100" height="200" rx="20" fill="#005271"/>
<rect x="647" y="412" width="100" height="200" rx="20" fill="#005271"/>
<rect x="647" y="192" width="100" height="200" rx="20" fill="#005271"/>
<path d="M682.981 885.168C689.029 885.168 694.069 888.96 694.069 895.488C694.069 901.824 689.077 906.576 682.117 906.576C672.949 906.576 669.061 899.424 669.061 890.016C669.061 880.032 674.965 872.448 683.029 872.448C687.061 872.448 690.085 873.984 692.629 876.24L690.133 879.984C688.069 878.112 686.005 876.816 682.981 876.816C677.941 876.816 674.149 882.24 674.005 889.536C676.021 886.8 679.333 885.168 682.981 885.168ZM681.925 902.448C686.389 902.448 689.077 899.04 689.077 895.728C689.077 891.696 685.861 889.248 681.829 889.248C678.181 889.248 675.253 891.36 674.389 894.576C675.253 899.28 677.605 902.448 681.925 902.448ZM702.943 906L716.671 877.536H699.343V873.024H722.383V876.672L708.511 906H702.943ZM682.278 944.168C688.326 944.168 693.366 947.96 693.366 954.488C693.366 960.824 688.374 965.576 681.414 965.576C672.246 965.576 668.358 958.424 668.358 949.016C668.358 939.032 674.262 931.448 682.326 931.448C686.358 931.448 689.382 932.984 691.926 935.24L689.43 938.984C687.366 937.112 685.302 935.816 682.278 935.816C677.238 935.816 673.446 941.24 673.302 948.536C675.318 945.8 678.63 944.168 682.278 944.168ZM681.222 961.448C685.686 961.448 688.374 958.04 688.374 954.728C688.374 950.696 685.158 948.248 681.126 948.248C677.478 948.248 674.55 950.36 673.686 953.576C674.55 958.28 676.902 961.448 681.222 961.448ZM712.512 944.168C718.56 944.168 723.6 947.96 723.6 954.488C723.6 960.824 718.608 965.576 711.648 965.576C702.48 965.576 698.592 958.424 698.592 949.016C698.592 939.032 704.496 931.448 712.56 931.448C716.592 931.448 719.616 932.984 722.16 935.24L719.664 938.984C717.6 937.112 715.536 935.816 712.512 935.816C707.472 935.816 703.68 941.24 703.536 948.536C705.552 945.8 708.864 944.168 712.512 944.168ZM711.456 961.448C715.92 961.448 718.608 958.04 718.608 954.728C718.608 950.696 715.392 948.248 711.36 948.248C707.712 948.248 704.784 950.36 703.92 953.576C704.784 958.28 707.136 961.448 711.456 961.448Z" fill="white"/>
<path d="M671.638 694L685.366 665.536H668.038V661.024H691.078V664.672L677.206 694H671.638ZM710.931 694.576C702.627 694.576 696.819 687.52 696.819 677.488C696.819 667.504 702.627 660.448 710.931 660.448C719.139 660.448 724.995 667.504 724.995 677.488C724.995 687.52 719.139 694.576 710.931 694.576ZM710.931 690.112C716.259 690.112 720.003 684.88 720.003 677.488C720.003 670.096 716.259 664.912 710.931 664.912C705.555 664.912 701.763 670.096 701.763 677.488C701.763 684.88 705.555 690.112 710.931 690.112ZM682.778 732.168C688.826 732.168 693.866 735.96 693.866 742.488C693.866 748.824 688.874 753.576 681.914 753.576C672.746 753.576 668.858 746.424 668.858 737.016C668.858 727.032 674.762 719.448 682.826 719.448C686.858 719.448 689.882 720.984 692.426 723.24L689.93 726.984C687.866 725.112 685.802 723.816 682.778 723.816C677.738 723.816 673.946 729.24 673.802 736.536C675.818 733.8 679.13 732.168 682.778 732.168ZM681.722 749.448C686.186 749.448 688.874 746.04 688.874 742.728C688.874 738.696 685.658 736.248 681.626 736.248C677.978 736.248 675.05 738.36 674.186 741.576C675.05 746.28 677.402 749.448 681.722 749.448ZM711.092 719.448C720.26 719.448 724.148 726.6 724.148 736.008C724.148 745.992 718.244 753.576 710.18 753.576C706.148 753.576 703.124 752.04 700.58 749.784L703.076 746.04C705.14 747.912 707.204 749.208 710.228 749.208C715.268 749.208 719.06 743.784 719.204 736.488C717.188 739.224 713.876 740.856 710.228 740.856C704.18 740.856 699.14 737.064 699.14 730.536C699.14 724.2 704.132 719.448 711.092 719.448ZM711.38 736.776C715.028 736.776 717.956 734.664 718.82 731.448C717.956 726.744 715.604 723.576 711.284 723.576C706.82 723.576 704.132 726.984 704.132 730.296C704.132 734.328 707.348 736.776 711.38 736.776ZM683.2 791.168C689.248 791.168 694.288 794.96 694.288 801.488C694.288 807.824 689.296 812.576 682.336 812.576C673.168 812.576 669.28 805.424 669.28 796.016C669.28 786.032 675.184 778.448 683.248 778.448C687.28 778.448 690.304 779.984 692.848 782.24L690.352 785.984C688.288 784.112 686.224 782.816 683.2 782.816C678.16 782.816 674.368 788.24 674.224 795.536C676.24 792.8 679.552 791.168 683.2 791.168ZM682.144 808.448C686.608 808.448 689.296 805.04 689.296 801.728C689.296 797.696 686.08 795.248 682.048 795.248C678.4 795.248 675.472 797.36 674.608 800.576C675.472 805.28 677.824 808.448 682.144 808.448ZM711.61 812.576C704.65 812.576 699.178 808.976 699.178 803.312C699.178 799.232 702.25 796.304 706.186 794.96C702.586 793.52 700.042 791.024 700.042 787.28C700.042 781.664 705.658 778.448 711.61 778.448C717.754 778.448 723.226 781.808 723.226 787.28C723.226 791.216 720.442 793.664 717.082 794.96C721.018 796.352 724.042 799.28 724.042 803.312C724.042 809.024 718.522 812.576 711.61 812.576ZM711.61 793.136C714.634 792.944 718.378 791.12 718.378 787.808C718.378 784.88 715.402 782.72 711.61 782.72C707.818 782.72 704.89 784.88 704.89 787.808C704.89 791.216 708.682 792.944 711.61 793.136ZM711.61 808.304C715.834 808.304 719.146 806.096 719.146 802.88C719.146 799.376 714.874 797.264 711.61 797.168C708.394 797.264 704.074 799.376 704.074 802.88C704.074 806.096 707.386 808.304 711.61 808.304Z" fill="white"/>
<path d="M673.599 474L687.327 445.536H669.999V441.024H693.039V444.672L679.167 474H673.599ZM710.299 474.576C704.684 474.576 700.412 472.128 697.868 468.96L700.988 465.744C703.196 468.432 706.412 470.208 710.204 470.208C714.476 470.208 717.212 467.952 717.212 464.64C717.212 461.232 714.38 459.456 709.436 459.504H705.836V455.184L709.436 455.232C713.612 455.232 716.54 453.408 716.54 450.096C716.54 447.024 713.66 444.816 709.82 444.816C706.364 444.816 703.82 446.544 701.516 449.232L698.492 446.256C701.036 442.944 704.78 440.448 710.156 440.448C716.828 440.448 721.484 444.144 721.484 449.424C721.484 453.504 718.604 456.048 715.148 457.104C718.604 457.872 722.204 460.368 722.204 464.976C722.204 470.544 717.452 474.576 710.299 474.576ZM673.529 533L687.257 504.536H669.929V500.024H692.969V503.672L679.097 533H673.529ZM698.373 533V529.016L710.469 519.032C714.885 515.336 716.565 512.504 716.565 509.528C716.565 505.928 713.589 503.816 710.325 503.816C706.725 503.816 704.085 505.736 701.781 508.712L698.517 505.832C701.397 501.848 705.285 499.448 710.517 499.448C716.661 499.448 721.557 503.432 721.557 509.432C721.557 513.848 719.445 517.352 713.781 521.96L706.053 528.488H721.845V533H698.373ZM678.849 592L692.577 563.536H675.249V559.024H698.289V562.672L684.417 592H678.849ZM710.222 592V564.784L704.51 568.432L702.494 564.928L711.182 559.024H715.118V592H710.222Z" fill="white"/>
<path d="M672.709 254L686.437 225.536H669.109V221.024H692.149V224.672L678.277 254H672.709ZM711.809 233.168C717.857 233.168 722.897 236.96 722.897 243.488C722.897 249.824 717.905 254.576 710.945 254.576C701.777 254.576 697.889 247.424 697.889 238.016C697.889 228.032 703.793 220.448 711.857 220.448C715.889 220.448 718.913 221.984 721.457 224.24L718.961 227.984C716.897 226.112 714.833 224.816 711.809 224.816C706.769 224.816 702.977 230.24 702.833 237.536C704.849 234.8 708.161 233.168 711.809 233.168ZM710.753 250.448C715.217 250.448 717.905 247.04 717.905 243.728C717.905 239.696 714.689 237.248 710.657 237.248C707.009 237.248 704.081 239.36 703.217 242.576C704.081 247.28 706.433 250.448 710.753 250.448ZM673.295 313L687.023 284.536H669.695V280.024H692.735V283.672L678.863 313H673.295ZM710.235 313.576C705.003 313.576 701.067 311.464 698.235 308.392L701.259 304.936C703.803 307.576 706.875 309.304 710.379 309.304C714.651 309.304 717.531 306.424 717.531 302.728C717.531 298.936 714.603 296.392 710.331 296.392C707.595 296.392 705.243 297.304 703.275 298.792L699.867 297.256L700.347 280.024H720.651V284.536H704.955L704.667 294.328C706.395 293.176 708.603 292.216 711.531 292.216C717.435 292.216 722.427 295.96 722.427 302.536C722.427 309.208 717.387 313.576 710.235 313.576ZM672.685 372L686.413 343.536H669.085V339.024H692.125V342.672L678.253 372H672.685ZM713.849 372V364.416H697.481L696.953 360.528L712.937 339.024H718.697V360.144H723.449V364.416H718.697V372H713.849ZM702.281 360.144H713.849V344.544L702.281 360.144Z" fill="white"/>
<path d="M673.631 94L687.359 65.536H670.031V61.024H693.071V64.672L679.199 94H673.631ZM710.907 94.576C703.947 94.576 698.475 90.976 698.475 85.312C698.475 81.232 701.547 78.304 705.483 76.96C701.883 75.52 699.339 73.024 699.339 69.28C699.339 63.664 704.955 60.448 710.907 60.448C717.051 60.448 722.523 63.808 722.523 69.28C722.523 73.216 719.739 75.664 716.379 76.96C720.315 78.352 723.339 81.28 723.339 85.312C723.339 91.024 717.819 94.576 710.907 94.576ZM710.907 75.136C713.931 74.944 717.675 73.12 717.675 69.808C717.675 66.88 714.699 64.72 710.907 64.72C707.115 64.72 704.187 66.88 704.187 69.808C704.187 73.216 707.979 74.944 710.907 75.136ZM710.907 90.304C715.131 90.304 718.443 88.096 718.443 84.88C718.443 81.376 714.171 79.264 710.907 79.168C707.691 79.264 703.371 81.376 703.371 84.88C703.371 88.096 706.683 90.304 710.907 90.304ZM673.912 153L687.64 124.536H670.312V120.024H693.352V123.672L679.48 153H673.912ZM702.74 153L716.468 124.536H699.14V120.024H722.18V123.672L708.308 153H702.74Z" fill="white"/>
<rect x="767" y="852" width="100" height="130" rx="20" fill="#005271"/>
<rect x="767" y="42" width="100" height="130" rx="20" fill="#005271"/>
<rect x="767" y="632" width="100" height="200" rx="20" fill="#005271"/>
<rect x="767" y="412" width="100" height="200" rx="20" fill="#005271"/>
<rect x="767" y="192" width="100" height="200" rx="20" fill="#005271"/>
<path d="M799.305 906.576C792.345 906.576 786.873 902.976 786.873 897.312C786.873 893.232 789.945 890.304 793.881 888.96C790.281 887.52 787.737 885.024 787.737 881.28C787.737 875.664 793.353 872.448 799.305 872.448C805.449 872.448 810.921 875.808 810.921 881.28C810.921 885.216 808.137 887.664 804.777 888.96C808.713 890.352 811.737 893.28 811.737 897.312C811.737 903.024 806.217 906.576 799.305 906.576ZM799.305 887.136C802.329 886.944 806.073 885.12 806.073 881.808C806.073 878.88 803.097 876.72 799.305 876.72C795.513 876.72 792.585 878.88 792.585 881.808C792.585 885.216 796.377 886.944 799.305 887.136ZM799.305 902.304C803.529 902.304 806.841 900.096 806.841 896.88C806.841 893.376 802.569 891.264 799.305 891.168C796.089 891.264 791.769 893.376 791.769 896.88C791.769 900.096 795.081 902.304 799.305 902.304ZM830.712 906.576C822.408 906.576 816.6 899.52 816.6 889.488C816.6 879.504 822.408 872.448 830.712 872.448C838.92 872.448 844.776 879.504 844.776 889.488C844.776 899.52 838.92 906.576 830.712 906.576ZM830.712 902.112C836.04 902.112 839.784 896.88 839.784 889.488C839.784 882.096 836.04 876.912 830.712 876.912C825.336 876.912 821.544 882.096 821.544 889.488C821.544 896.88 825.336 902.112 830.712 902.112ZM792.709 965L806.437 936.536H789.109V932.024H812.149V935.672L798.277 965H792.709ZM829.889 931.448C839.057 931.448 842.945 938.6 842.945 948.008C842.945 957.992 837.041 965.576 828.977 965.576C824.945 965.576 821.921 964.04 819.377 961.784L821.873 958.04C823.937 959.912 826.001 961.208 829.025 961.208C834.065 961.208 837.857 955.784 838.001 948.488C835.985 951.224 832.673 952.856 829.025 952.856C822.977 952.856 817.937 949.064 817.937 942.536C817.937 936.2 822.929 931.448 829.889 931.448ZM830.177 948.776C833.825 948.776 836.753 946.664 837.617 943.448C836.753 938.744 834.401 935.576 830.081 935.576C825.617 935.576 822.929 938.984 822.929 942.296C822.929 946.328 826.145 948.776 830.177 948.776Z" fill="white"/>
<path d="M801.766 694.576C794.806 694.576 789.334 690.976 789.334 685.312C789.334 681.232 792.406 678.304 796.342 676.96C792.742 675.52 790.198 673.024 790.198 669.28C790.198 663.664 795.814 660.448 801.766 660.448C807.91 660.448 813.382 663.808 813.382 669.28C813.382 673.216 810.598 675.664 807.238 676.96C811.174 678.352 814.198 681.28 814.198 685.312C814.198 691.024 808.678 694.576 801.766 694.576ZM801.766 675.136C804.79 674.944 808.534 673.12 808.534 669.808C808.534 666.88 805.558 664.72 801.766 664.72C797.974 664.72 795.046 666.88 795.046 669.808C795.046 673.216 798.838 674.944 801.766 675.136ZM801.766 690.304C805.99 690.304 809.302 688.096 809.302 684.88C809.302 681.376 805.03 679.264 801.766 679.168C798.55 679.264 794.23 681.376 794.23 684.88C794.23 688.096 797.542 690.304 801.766 690.304ZM830.581 694.576C824.965 694.576 820.693 692.128 818.149 688.96L821.269 685.744C823.477 688.432 826.693 690.208 830.485 690.208C834.757 690.208 837.493 687.952 837.493 684.64C837.493 681.232 834.661 679.456 829.717 679.504H826.117V675.184L829.717 675.232C833.893 675.232 836.821 673.408 836.821 670.096C836.821 667.024 833.941 664.816 830.101 664.816C826.645 664.816 824.101 666.544 821.797 669.232L818.773 666.256C821.317 662.944 825.061 660.448 830.437 660.448C837.109 660.448 841.765 664.144 841.765 669.424C841.765 673.504 838.885 676.048 835.429 677.104C838.885 677.872 842.485 680.368 842.485 684.976C842.485 690.544 837.733 694.576 830.581 694.576ZM801.696 753.576C794.736 753.576 789.264 749.976 789.264 744.312C789.264 740.232 792.336 737.304 796.272 735.96C792.672 734.52 790.128 732.024 790.128 728.28C790.128 722.664 795.744 719.448 801.696 719.448C807.84 719.448 813.312 722.808 813.312 728.28C813.312 732.216 810.528 734.664 807.168 735.96C811.104 737.352 814.128 740.28 814.128 744.312C814.128 750.024 808.608 753.576 801.696 753.576ZM801.696 734.136C804.72 733.944 808.464 732.12 808.464 728.808C808.464 725.88 805.488 723.72 801.696 723.72C797.904 723.72 794.976 725.88 794.976 728.808C794.976 732.216 798.768 733.944 801.696 734.136ZM801.696 749.304C805.92 749.304 809.232 747.096 809.232 743.88C809.232 740.376 804.96 738.264 801.696 738.168C798.48 738.264 794.16 740.376 794.16 743.88C794.16 747.096 797.472 749.304 801.696 749.304ZM818.654 753V749.016L830.75 739.032C835.166 735.336 836.846 732.504 836.846 729.528C836.846 725.928 833.87 723.816 830.606 723.816C827.006 723.816 824.366 725.736 822.062 728.712L818.798 725.832C821.678 721.848 825.566 719.448 830.798 719.448C836.942 719.448 841.838 723.432 841.838 729.432C841.838 733.848 839.726 737.352 834.062 741.96L826.334 748.488H842.126V753H818.654ZM807.016 812.576C800.056 812.576 794.584 808.976 794.584 803.312C794.584 799.232 797.656 796.304 801.592 794.96C797.992 793.52 795.448 791.024 795.448 787.28C795.448 781.664 801.064 778.448 807.016 778.448C813.16 778.448 818.632 781.808 818.632 787.28C818.632 791.216 815.848 793.664 812.488 794.96C816.424 796.352 819.448 799.28 819.448 803.312C819.448 809.024 813.928 812.576 807.016 812.576ZM807.016 793.136C810.04 792.944 813.784 791.12 813.784 787.808C813.784 784.88 810.808 782.72 807.016 782.72C803.224 782.72 800.296 784.88 800.296 787.808C800.296 791.216 804.088 792.944 807.016 793.136ZM807.016 808.304C811.24 808.304 814.552 806.096 814.552 802.88C814.552 799.376 810.28 797.264 807.016 797.168C803.8 797.264 799.48 799.376 799.48 802.88C799.48 806.096 802.792 808.304 807.016 808.304ZM830.503 812V784.784L824.791 788.432L822.775 784.928L831.463 779.024H835.399V812H830.503Z" fill="white"/>
<path d="M800.876 474.576C793.916 474.576 788.444 470.976 788.444 465.312C788.444 461.232 791.516 458.304 795.452 456.96C791.852 455.52 789.308 453.024 789.308 449.28C789.308 443.664 794.924 440.448 800.876 440.448C807.02 440.448 812.492 443.808 812.492 449.28C812.492 453.216 809.708 455.664 806.348 456.96C810.284 458.352 813.307 461.28 813.307 465.312C813.307 471.024 807.788 474.576 800.876 474.576ZM800.876 455.136C803.9 454.944 807.644 453.12 807.644 449.808C807.644 446.88 804.668 444.72 800.876 444.72C797.084 444.72 794.156 446.88 794.156 449.808C794.156 453.216 797.948 454.944 800.876 455.136ZM800.876 470.304C805.1 470.304 808.412 468.096 808.412 464.88C808.412 461.376 804.14 459.264 800.876 459.168C797.66 459.264 793.34 461.376 793.34 464.88C793.34 468.096 796.652 470.304 800.876 470.304ZM832.09 453.168C838.138 453.168 843.178 456.96 843.178 463.488C843.178 469.824 838.186 474.576 831.226 474.576C822.058 474.576 818.17 467.424 818.17 458.016C818.17 448.032 824.074 440.448 832.138 440.448C836.17 440.448 839.194 441.984 841.738 444.24L839.242 447.984C837.178 446.112 835.114 444.816 832.09 444.816C827.05 444.816 823.258 450.24 823.114 457.536C825.13 454.8 828.442 453.168 832.09 453.168ZM831.034 470.448C835.498 470.448 838.186 467.04 838.186 463.728C838.186 459.696 834.97 457.248 830.938 457.248C827.29 457.248 824.362 459.36 823.498 462.576C824.362 467.28 826.714 470.448 831.034 470.448ZM801.461 533.576C794.501 533.576 789.029 529.976 789.029 524.312C789.029 520.232 792.101 517.304 796.037 515.96C792.437 514.52 789.893 512.024 789.893 508.28C789.893 502.664 795.509 499.448 801.461 499.448C807.605 499.448 813.077 502.808 813.077 508.28C813.077 512.216 810.293 514.664 806.933 515.96C810.869 517.352 813.893 520.28 813.893 524.312C813.893 530.024 808.373 533.576 801.461 533.576ZM801.461 514.136C804.485 513.944 808.229 512.12 808.229 508.808C808.229 505.88 805.253 503.72 801.461 503.72C797.669 503.72 794.741 505.88 794.741 508.808C794.741 512.216 798.533 513.944 801.461 514.136ZM801.461 529.304C805.685 529.304 808.997 527.096 808.997 523.88C808.997 520.376 804.725 518.264 801.461 518.168C798.245 518.264 793.925 520.376 793.925 523.88C793.925 527.096 797.237 529.304 801.461 529.304ZM830.516 533.576C825.284 533.576 821.348 531.464 818.516 528.392L821.54 524.936C824.084 527.576 827.156 529.304 830.66 529.304C834.932 529.304 837.812 526.424 837.812 522.728C837.812 518.936 834.884 516.392 830.612 516.392C827.876 516.392 825.524 517.304 823.556 518.792L820.148 517.256L820.628 500.024H840.932V504.536H825.236L824.948 514.328C826.676 513.176 828.884 512.216 831.812 512.216C837.716 512.216 842.708 515.96 842.708 522.536C842.708 529.208 837.668 533.576 830.516 533.576ZM800.852 592.576C793.892 592.576 788.42 588.976 788.42 583.312C788.42 579.232 791.492 576.304 795.428 574.96C791.828 573.52 789.284 571.024 789.284 567.28C789.284 561.664 794.9 558.448 800.852 558.448C806.996 558.448 812.468 561.808 812.468 567.28C812.468 571.216 809.684 573.664 806.324 574.96C810.26 576.352 813.284 579.28 813.284 583.312C813.284 589.024 807.764 592.576 800.852 592.576ZM800.852 573.136C803.876 572.944 807.62 571.12 807.62 567.808C807.62 564.88 804.644 562.72 800.852 562.72C797.06 562.72 794.132 564.88 794.132 567.808C794.132 571.216 797.924 572.944 800.852 573.136ZM800.852 588.304C805.076 588.304 808.388 586.096 808.388 582.88C808.388 579.376 804.116 577.264 800.852 577.168C797.636 577.264 793.316 579.376 793.316 582.88C793.316 586.096 796.628 588.304 800.852 588.304ZM834.131 592V584.416H817.763L817.235 580.528L833.219 559.024H838.979V580.144H843.731V584.416H838.979V592H834.131ZM822.563 580.144H834.131V564.544L822.563 580.144Z" fill="white"/>
<path d="M800.876 254.576C793.916 254.576 788.444 250.976 788.444 245.312C788.444 241.232 791.516 238.304 795.452 236.96C791.852 235.52 789.308 233.024 789.308 229.28C789.308 223.664 794.924 220.448 800.876 220.448C807.02 220.448 812.492 223.808 812.492 229.28C812.492 233.216 809.708 235.664 806.348 236.96C810.284 238.352 813.307 241.28 813.307 245.312C813.307 251.024 807.788 254.576 800.876 254.576ZM800.876 235.136C803.9 234.944 807.644 233.12 807.644 229.808C807.644 226.88 804.668 224.72 800.876 224.72C797.084 224.72 794.156 226.88 794.156 229.808C794.156 233.216 797.948 234.944 800.876 235.136ZM800.876 250.304C805.1 250.304 808.412 248.096 808.412 244.88C808.412 241.376 804.14 239.264 800.876 239.168C797.66 239.264 793.34 241.376 793.34 244.88C793.34 248.096 796.652 250.304 800.876 250.304ZM830.17 220.448C839.338 220.448 843.226 227.6 843.226 237.008C843.226 246.992 837.322 254.576 829.258 254.576C825.226 254.576 822.202 253.04 819.658 250.784L822.154 247.04C824.218 248.912 826.282 250.208 829.306 250.208C834.346 250.208 838.138 244.784 838.282 237.488C836.266 240.224 832.954 241.856 829.306 241.856C823.258 241.856 818.218 238.064 818.218 231.536C818.218 225.2 823.21 220.448 830.17 220.448ZM830.458 237.776C834.106 237.776 837.034 235.664 837.898 232.448C837.034 227.744 834.682 224.576 830.362 224.576C825.898 224.576 823.21 227.984 823.21 231.296C823.21 235.328 826.426 237.776 830.458 237.776ZM801.297 313.576C794.337 313.576 788.865 309.976 788.865 304.312C788.865 300.232 791.937 297.304 795.873 295.96C792.273 294.52 789.729 292.024 789.729 288.28C789.729 282.664 795.345 279.448 801.297 279.448C807.441 279.448 812.913 282.808 812.913 288.28C812.913 292.216 810.129 294.664 806.769 295.96C810.705 297.352 813.729 300.28 813.729 304.312C813.729 310.024 808.209 313.576 801.297 313.576ZM801.297 294.136C804.321 293.944 808.065 292.12 808.065 288.808C808.065 285.88 805.089 283.72 801.297 283.72C797.505 283.72 794.577 285.88 794.577 288.808C794.577 292.216 798.369 293.944 801.297 294.136ZM801.297 309.304C805.521 309.304 808.833 307.096 808.833 303.88C808.833 300.376 804.561 298.264 801.297 298.168C798.081 298.264 793.761 300.376 793.761 303.88C793.761 307.096 797.073 309.304 801.297 309.304ZM830.688 313.576C823.728 313.576 818.256 309.976 818.256 304.312C818.256 300.232 821.328 297.304 825.264 295.96C821.664 294.52 819.12 292.024 819.12 288.28C819.12 282.664 824.736 279.448 830.688 279.448C836.832 279.448 842.304 282.808 842.304 288.28C842.304 292.216 839.52 294.664 836.16 295.96C840.096 297.352 843.12 300.28 843.12 304.312C843.12 310.024 837.6 313.576 830.688 313.576ZM830.688 294.136C833.712 293.944 837.456 292.12 837.456 288.808C837.456 285.88 834.48 283.72 830.688 283.72C826.896 283.72 823.968 285.88 823.968 288.808C823.968 292.216 827.76 293.944 830.688 294.136ZM830.688 309.304C834.912 309.304 838.224 307.096 838.224 303.88C838.224 300.376 833.952 298.264 830.688 298.168C827.472 298.264 823.152 300.376 823.152 303.88C823.152 307.096 826.464 309.304 830.688 309.304ZM801.579 372.576C794.619 372.576 789.147 368.976 789.147 363.312C789.147 359.232 792.219 356.304 796.155 354.96C792.555 353.52 790.011 351.024 790.011 347.28C790.011 341.664 795.627 338.448 801.579 338.448C807.723 338.448 813.195 341.808 813.195 347.28C813.195 351.216 810.411 353.664 807.051 354.96C810.987 356.352 814.011 359.28 814.011 363.312C814.011 369.024 808.491 372.576 801.579 372.576ZM801.579 353.136C804.603 352.944 808.347 351.12 808.347 347.808C808.347 344.88 805.371 342.72 801.579 342.72C797.787 342.72 794.859 344.88 794.859 347.808C794.859 351.216 798.651 352.944 801.579 353.136ZM801.579 368.304C805.803 368.304 809.115 366.096 809.115 362.88C809.115 359.376 804.843 357.264 801.579 357.168C798.363 357.264 794.043 359.376 794.043 362.88C794.043 366.096 797.355 368.304 801.579 368.304ZM822.521 372L836.249 343.536H818.921V339.024H841.961V342.672L828.089 372H822.521Z" fill="white"/>
<path d="M806.498 60.448C815.666 60.448 819.554 67.6 819.554 77.008C819.554 86.992 813.65 94.576 805.586 94.576C801.554 94.576 798.53 93.04 795.986 90.784L798.482 87.04C800.546 88.912 802.61 90.208 805.634 90.208C810.674 90.208 814.466 84.784 814.61 77.488C812.594 80.224 809.282 81.856 805.634 81.856C799.586 81.856 794.546 78.064 794.546 71.536C794.546 65.2 799.538 60.448 806.498 60.448ZM806.786 77.776C810.434 77.776 813.362 75.664 814.226 72.448C813.362 67.744 811.01 64.576 806.69 64.576C802.226 64.576 799.538 67.984 799.538 71.296C799.538 75.328 802.754 77.776 806.786 77.776ZM830.925 94V66.784L825.213 70.432L823.197 66.928L831.885 61.024H835.821V94H830.925ZM798.787 119.448C807.955 119.448 811.843 126.6 811.843 136.008C811.843 145.992 805.939 153.576 797.875 153.576C793.843 153.576 790.819 152.04 788.275 149.784L790.771 146.04C792.835 147.912 794.899 149.208 797.923 149.208C802.963 149.208 806.755 143.784 806.899 136.488C804.883 139.224 801.571 140.856 797.923 140.856C791.875 140.856 786.835 137.064 786.835 130.536C786.835 124.2 791.827 119.448 798.787 119.448ZM799.075 136.776C802.723 136.776 805.651 134.664 806.515 131.448C805.651 126.744 803.299 123.576 798.979 123.576C794.515 123.576 791.827 126.984 791.827 130.296C791.827 134.328 795.043 136.776 799.075 136.776ZM831.134 153.576C822.83 153.576 817.022 146.52 817.022 136.488C817.022 126.504 822.83 119.448 831.134 119.448C839.342 119.448 845.198 126.504 845.198 136.488C845.198 146.52 839.342 153.576 831.134 153.576ZM831.134 149.112C836.462 149.112 840.206 143.88 840.206 136.488C840.206 129.096 836.462 123.912 831.134 123.912C825.758 123.912 821.966 129.096 821.966 136.488C821.966 143.88 825.758 149.112 831.134 149.112Z" fill="white"/>
<rect x="887" y="852" width="100" height="130" rx="20" fill="#005271"/>
<rect x="887" y="42" width="100" height="130" rx="20" fill="#005271"/>
<rect x="887" y="632" width="100" height="200" rx="20" fill="#005271"/>
<rect x="887" y="412" width="100" height="200" rx="20" fill="#005271"/>
<rect x="887" y="192" width="100" height="200" rx="20" fill="#005271"/>
<path d="M921.248 872.448C930.416 872.448 934.304 879.6 934.304 889.008C934.304 898.992 928.4 906.576 920.336 906.576C916.304 906.576 913.28 905.04 910.736 902.784L913.232 899.04C915.296 900.912 917.36 902.208 920.384 902.208C925.424 902.208 929.216 896.784 929.36 889.488C927.344 892.224 924.032 893.856 920.384 893.856C914.336 893.856 909.296 890.064 909.296 883.536C909.296 877.2 914.288 872.448 921.248 872.448ZM921.536 889.776C925.184 889.776 928.112 887.664 928.976 884.448C928.112 879.744 925.76 876.576 921.44 876.576C916.976 876.576 914.288 879.984 914.288 883.296C914.288 887.328 917.504 889.776 921.536 889.776ZM951.003 906.576C945.387 906.576 941.115 904.128 938.571 900.96L941.691 897.744C943.899 900.432 947.115 902.208 950.907 902.208C955.179 902.208 957.915 899.952 957.915 896.64C957.915 893.232 955.083 891.456 950.139 891.504H946.539V887.184L950.139 887.232C954.315 887.232 957.243 885.408 957.243 882.096C957.243 879.024 954.363 876.816 950.523 876.816C947.067 876.816 944.523 878.544 942.219 881.232L939.195 878.256C941.739 874.944 945.483 872.448 950.859 872.448C957.531 872.448 962.187 876.144 962.187 881.424C962.187 885.504 959.307 888.048 955.851 889.104C959.307 889.872 962.907 892.368 962.907 896.976C962.907 902.544 958.155 906.576 951.003 906.576ZM921.178 931.448C930.346 931.448 934.234 938.6 934.234 948.008C934.234 957.992 928.33 965.576 920.266 965.576C916.234 965.576 913.21 964.04 910.666 961.784L913.162 958.04C915.226 959.912 917.29 961.208 920.314 961.208C925.354 961.208 929.146 955.784 929.29 948.488C927.274 951.224 923.962 952.856 920.314 952.856C914.266 952.856 909.226 949.064 909.226 942.536C909.226 936.2 914.218 931.448 921.178 931.448ZM921.466 948.776C925.114 948.776 928.042 946.664 928.906 943.448C928.042 938.744 925.69 935.576 921.37 935.576C916.906 935.576 914.218 938.984 914.218 942.296C914.218 946.328 917.434 948.776 921.466 948.776ZM939.076 965V961.016L951.172 951.032C955.588 947.336 957.268 944.504 957.268 941.528C957.268 937.928 954.292 935.816 951.028 935.816C947.428 935.816 944.788 937.736 942.484 940.712L939.22 937.832C942.1 933.848 945.988 931.448 951.22 931.448C957.364 931.448 962.26 935.432 962.26 941.432C962.26 945.848 960.148 949.352 954.484 953.96L946.756 960.488H962.548V965H939.076Z" fill="white"/>
<path d="M920.858 660.448C930.026 660.448 933.914 667.6 933.914 677.008C933.914 686.992 928.01 694.576 919.946 694.576C915.914 694.576 912.89 693.04 910.346 690.784L912.842 687.04C914.906 688.912 916.97 690.208 919.994 690.208C925.034 690.208 928.826 684.784 928.97 677.488C926.954 680.224 923.642 681.856 919.994 681.856C913.946 681.856 908.906 678.064 908.906 671.536C908.906 665.2 913.898 660.448 920.858 660.448ZM921.146 677.776C924.794 677.776 927.722 675.664 928.586 672.448C927.722 667.744 925.37 664.576 921.05 664.576C916.586 664.576 913.898 667.984 913.898 671.296C913.898 675.328 917.114 677.776 921.146 677.776ZM953.012 673.168C959.06 673.168 964.1 676.96 964.1 683.488C964.1 689.824 959.108 694.576 952.148 694.576C942.98 694.576 939.092 687.424 939.092 678.016C939.092 668.032 944.996 660.448 953.06 660.448C957.092 660.448 960.116 661.984 962.66 664.24L960.164 667.984C958.1 666.112 956.036 664.816 953.012 664.816C947.972 664.816 944.18 670.24 944.036 677.536C946.052 674.8 949.364 673.168 953.012 673.168ZM951.956 690.448C956.42 690.448 959.108 687.04 959.108 683.728C959.108 679.696 955.892 677.248 951.86 677.248C948.212 677.248 945.284 679.36 944.42 682.576C945.284 687.28 947.636 690.448 951.956 690.448ZM921.444 719.448C930.612 719.448 934.5 726.6 934.5 736.008C934.5 745.992 928.596 753.576 920.532 753.576C916.5 753.576 913.476 752.04 910.932 749.784L913.428 746.04C915.492 747.912 917.556 749.208 920.58 749.208C925.62 749.208 929.412 743.784 929.556 736.488C927.54 739.224 924.228 740.856 920.58 740.856C914.532 740.856 909.492 737.064 909.492 730.536C909.492 724.2 914.484 719.448 921.444 719.448ZM921.732 736.776C925.38 736.776 928.308 734.664 929.172 731.448C928.308 726.744 925.956 723.576 921.636 723.576C917.172 723.576 914.484 726.984 914.484 730.296C914.484 734.328 917.7 736.776 921.732 736.776ZM951.438 753.576C946.206 753.576 942.27 751.464 939.438 748.392L942.462 744.936C945.006 747.576 948.078 749.304 951.582 749.304C955.854 749.304 958.734 746.424 958.734 742.728C958.734 738.936 955.806 736.392 951.534 736.392C948.798 736.392 946.446 737.304 944.478 738.792L941.07 737.256L941.55 720.024H961.854V724.536H946.158L945.87 734.328C947.598 733.176 949.806 732.216 952.734 732.216C958.638 732.216 963.63 735.96 963.63 742.536C963.63 749.208 958.59 753.576 951.438 753.576ZM920.834 778.448C930.002 778.448 933.89 785.6 933.89 795.008C933.89 804.992 927.986 812.576 919.922 812.576C915.89 812.576 912.866 811.04 910.322 808.784L912.818 805.04C914.882 806.912 916.946 808.208 919.97 808.208C925.01 808.208 928.802 802.784 928.946 795.488C926.93 798.224 923.618 799.856 919.97 799.856C913.922 799.856 908.882 796.064 908.882 789.536C908.882 783.2 913.874 778.448 920.834 778.448ZM921.122 795.776C924.77 795.776 927.698 793.664 928.562 790.448C927.698 785.744 925.346 782.576 921.026 782.576C916.562 782.576 913.874 785.984 913.874 789.296C913.874 793.328 917.09 795.776 921.122 795.776ZM955.053 812V804.416H938.685L938.157 800.528L954.141 779.024H959.901V800.144H964.653V804.416H959.901V812H955.053ZM943.485 800.144H955.053V784.544L943.485 800.144Z" fill="white"/>
<path d="M920.858 440.448C930.026 440.448 933.914 447.6 933.914 457.008C933.914 466.992 928.01 474.576 919.946 474.576C915.914 474.576 912.89 473.04 910.346 470.784L912.842 467.04C914.906 468.912 916.97 470.208 919.994 470.208C925.034 470.208 928.826 464.784 928.97 457.488C926.954 460.224 923.642 461.856 919.994 461.856C913.946 461.856 908.906 458.064 908.906 451.536C908.906 445.2 913.898 440.448 920.858 440.448ZM921.146 457.776C924.794 457.776 927.722 455.664 928.586 452.448C927.722 447.744 925.37 444.576 921.05 444.576C916.586 444.576 913.898 447.984 913.898 451.296C913.898 455.328 917.114 457.776 921.146 457.776ZM951.092 440.448C960.26 440.448 964.148 447.6 964.148 457.008C964.148 466.992 958.244 474.576 950.18 474.576C946.148 474.576 943.124 473.04 940.58 470.784L943.076 467.04C945.14 468.912 947.204 470.208 950.228 470.208C955.268 470.208 959.06 464.784 959.204 457.488C957.188 460.224 953.876 461.856 950.228 461.856C944.18 461.856 939.14 458.064 939.14 451.536C939.14 445.2 944.132 440.448 951.092 440.448ZM951.38 457.776C955.028 457.776 957.956 455.664 958.82 452.448C957.956 447.744 955.604 444.576 951.284 444.576C946.82 444.576 944.132 447.984 944.132 451.296C944.132 455.328 947.348 457.776 951.38 457.776ZM921.28 499.448C930.448 499.448 934.336 506.6 934.336 516.008C934.336 525.992 928.432 533.576 920.368 533.576C916.336 533.576 913.312 532.04 910.768 529.784L913.264 526.04C915.328 527.912 917.392 529.208 920.416 529.208C925.456 529.208 929.248 523.784 929.392 516.488C927.376 519.224 924.064 520.856 920.416 520.856C914.368 520.856 909.328 517.064 909.328 510.536C909.328 504.2 914.32 499.448 921.28 499.448ZM921.568 516.776C925.216 516.776 928.144 514.664 929.008 511.448C928.144 506.744 925.792 503.576 921.472 503.576C917.008 503.576 914.32 506.984 914.32 510.296C914.32 514.328 917.536 516.776 921.568 516.776ZM951.61 533.576C944.65 533.576 939.178 529.976 939.178 524.312C939.178 520.232 942.25 517.304 946.186 515.96C942.586 514.52 940.042 512.024 940.042 508.28C940.042 502.664 945.658 499.448 951.61 499.448C957.754 499.448 963.226 502.808 963.226 508.28C963.226 512.216 960.442 514.664 957.082 515.96C961.018 517.352 964.042 520.28 964.042 524.312C964.042 530.024 958.522 533.576 951.61 533.576ZM951.61 514.136C954.634 513.944 958.378 512.12 958.378 508.808C958.378 505.88 955.402 503.72 951.61 503.72C947.818 503.72 944.89 505.88 944.89 508.808C944.89 512.216 948.682 513.944 951.61 514.136ZM951.61 529.304C955.834 529.304 959.146 527.096 959.146 523.88C959.146 520.376 954.874 518.264 951.61 518.168C948.394 518.264 944.074 520.376 944.074 523.88C944.074 527.096 947.386 529.304 951.61 529.304ZM921.561 558.448C930.729 558.448 934.617 565.6 934.617 575.008C934.617 584.992 928.713 592.576 920.649 592.576C916.617 592.576 913.593 591.04 911.049 588.784L913.545 585.04C915.609 586.912 917.673 588.208 920.697 588.208C925.737 588.208 929.529 582.784 929.673 575.488C927.657 578.224 924.345 579.856 920.697 579.856C914.649 579.856 909.609 576.064 909.609 569.536C909.609 563.2 914.601 558.448 921.561 558.448ZM921.849 575.776C925.497 575.776 928.425 573.664 929.289 570.448C928.425 565.744 926.073 562.576 921.753 562.576C917.289 562.576 914.601 565.984 914.601 569.296C914.601 573.328 917.817 575.776 921.849 575.776ZM943.443 592L957.171 563.536H939.843V559.024H962.883V562.672L949.011 592H943.443Z" fill="white"/>
<path d="M905.323 254V226.784L899.611 230.432L897.595 226.928L906.283 221.024H910.219V254H905.323ZM931.196 254.576C922.892 254.576 917.084 247.52 917.084 237.488C917.084 227.504 922.892 220.448 931.196 220.448C939.404 220.448 945.26 227.504 945.26 237.488C945.26 247.52 939.404 254.576 931.196 254.576ZM931.196 250.112C936.524 250.112 940.268 244.88 940.268 237.488C940.268 230.096 936.524 224.912 931.196 224.912C925.82 224.912 922.028 230.096 922.028 237.488C922.028 244.88 925.82 250.112 931.196 250.112ZM950.123 254V250.016L962.219 240.032C966.635 236.336 968.315 233.504 968.315 230.528C968.315 226.928 965.339 224.816 962.075 224.816C958.475 224.816 955.835 226.736 953.531 229.712L950.267 226.832C953.147 222.848 957.035 220.448 962.267 220.448C968.411 220.448 973.307 224.432 973.307 230.432C973.307 234.848 971.195 238.352 965.531 242.96L957.803 249.488H973.595V254H950.123ZM910.643 313V285.784L904.931 289.432L902.915 285.928L911.603 280.024H915.539V313H910.643ZM936.517 313.576C928.213 313.576 922.405 306.52 922.405 296.488C922.405 286.504 928.213 279.448 936.517 279.448C944.725 279.448 950.581 286.504 950.581 296.488C950.581 306.52 944.725 313.576 936.517 313.576ZM936.517 309.112C941.845 309.112 945.589 303.88 945.589 296.488C945.589 289.096 941.845 283.912 936.517 283.912C931.141 283.912 927.349 289.096 927.349 296.488C927.349 303.88 931.141 309.112 936.517 309.112ZM961.972 313V285.784L956.26 289.432L954.244 285.928L962.932 280.024H966.868V313H961.972ZM902.932 372V344.784L897.22 348.432L895.204 344.928L903.892 339.024H907.828V372H902.932ZM928.806 372.576C920.502 372.576 914.694 365.52 914.694 355.488C914.694 345.504 920.502 338.448 928.806 338.448C937.014 338.448 942.87 345.504 942.87 355.488C942.87 365.52 937.014 372.576 928.806 372.576ZM928.806 368.112C934.134 368.112 937.878 362.88 937.878 355.488C937.878 348.096 934.134 342.912 928.806 342.912C923.43 342.912 919.638 348.096 919.638 355.488C919.638 362.88 923.43 368.112 928.806 368.112ZM962.181 372.576C953.877 372.576 948.069 365.52 948.069 355.488C948.069 345.504 953.877 338.448 962.181 338.448C970.389 338.448 976.245 345.504 976.245 355.488C976.245 365.52 970.389 372.576 962.181 372.576ZM962.181 368.112C967.509 368.112 971.253 362.88 971.253 355.488C971.253 348.096 967.509 342.912 962.181 342.912C956.805 342.912 953.013 348.096 953.013 355.488C953.013 362.88 956.805 368.112 962.181 368.112Z" fill="white"/>
<path d="M903.979 94V66.784L898.267 70.432L896.251 66.928L904.939 61.024H908.875V94H903.979ZM929.852 94.576C921.548 94.576 915.74 87.52 915.74 77.488C915.74 67.504 921.548 60.448 929.852 60.448C938.06 60.448 943.916 67.504 943.916 77.488C943.916 87.52 938.06 94.576 929.852 94.576ZM929.852 90.112C935.18 90.112 938.924 84.88 938.924 77.488C938.924 70.096 935.18 64.912 929.852 64.912C924.476 64.912 920.684 70.096 920.684 77.488C920.684 84.88 924.476 90.112 929.852 90.112ZM965.099 94V86.416H948.731L948.203 82.528L964.187 61.024H969.947V82.144H974.699V86.416H969.947V94H965.099ZM953.531 82.144H965.099V66.544L953.531 82.144ZM904.893 153V125.784L899.181 129.432L897.165 125.928L905.853 120.024H909.789V153H904.893ZM930.767 153.576C922.463 153.576 916.655 146.52 916.655 136.488C916.655 126.504 922.463 119.448 930.767 119.448C938.975 119.448 944.831 126.504 944.831 136.488C944.831 146.52 938.975 153.576 930.767 153.576ZM930.767 149.112C936.095 149.112 939.839 143.88 939.839 136.488C939.839 129.096 936.095 123.912 930.767 123.912C925.391 123.912 921.599 129.096 921.599 136.488C921.599 143.88 925.391 149.112 930.767 149.112ZM961.549 153.576C955.934 153.576 951.662 151.128 949.118 147.96L952.238 144.744C954.446 147.432 957.662 149.208 961.454 149.208C965.726 149.208 968.462 146.952 968.462 143.64C968.462 140.232 965.63 138.456 960.686 138.504H957.086V134.184L960.686 134.232C964.862 134.232 967.79 132.408 967.79 129.096C967.79 126.024 964.91 123.816 961.07 123.816C957.614 123.816 955.07 125.544 952.766 128.232L949.742 125.256C952.286 121.944 956.03 119.448 961.406 119.448C968.078 119.448 972.734 123.144 972.734 128.424C972.734 132.504 969.854 135.048 966.398 136.104C969.854 136.872 973.454 139.368 973.454 143.976C973.454 149.544 968.702 153.576 961.549 153.576Z" fill="white"/>
<g clip-path="url(#clip0_7012_2447)">
<g filter="url(#filter0_d_7012_2447)">
<rect x="347" y="1077" width="334" height="130" fill="url(#paint0_linear_7012_2447)"/>
</g>
<path d="M470.03 1151.48C465.27 1151.48 461.03 1149.88 457.83 1146.92L461.23 1142.88C463.83 1145.12 466.79 1146.48 470.27 1146.48C473.23 1146.48 474.75 1145.12 474.75 1143.4C474.75 1141.44 473.15 1140.84 468.95 1139.88C463.15 1138.56 459.03 1136.92 459.03 1131.6C459.03 1126.52 463.19 1123.04 469.19 1123.04C473.67 1123.04 477.15 1124.44 479.95 1126.84L476.87 1131.08C474.43 1129.12 471.67 1128.04 469.03 1128.04C466.51 1128.04 464.99 1129.36 464.99 1131C464.99 1133 466.63 1133.64 470.87 1134.6C476.79 1135.92 480.71 1137.68 480.71 1142.76C480.71 1148 476.75 1151.48 470.03 1151.48ZM495.663 1145.88L497.063 1149.68C495.863 1150.76 493.983 1151.48 492.303 1151.48C488.663 1151.48 486.103 1148.88 486.103 1145.16V1135.04H483.263V1130.32H486.103V1124.64H491.703V1130.32H496.183V1135.04H491.703V1144.24C491.703 1145.6 492.583 1146.56 493.663 1146.56C494.463 1146.56 495.263 1146.28 495.663 1145.88ZM509.96 1129.84C515.36 1129.84 519.04 1133.24 519.04 1138.64V1151H513.4V1148.92C511.92 1150.6 509.56 1151.48 507.32 1151.48C502.92 1151.48 499.52 1148.84 499.52 1144.88C499.52 1140.8 503.32 1138 508.12 1138C509.8 1138 511.64 1138.36 513.4 1139.04V1138.64C513.4 1136.44 512.04 1134.52 508.64 1134.52C506.72 1134.52 504.92 1135.16 503.28 1136L501.32 1132.12C504.24 1130.64 507.08 1129.84 509.96 1129.84ZM508.64 1147.44C510.88 1147.44 513 1146.4 513.4 1144.48V1142.56C512.08 1142.08 510.56 1141.8 508.96 1141.8C506.84 1141.8 505.16 1143.04 505.16 1144.72C505.16 1146.4 506.64 1147.44 508.64 1147.44ZM538.922 1130.32H544.802V1148.8C544.802 1154.12 540.202 1157.88 533.682 1157.88C530.042 1157.88 526.602 1156.72 524.562 1155.12L526.602 1151C527.962 1152.2 530.362 1152.96 532.762 1152.96C536.522 1152.96 538.922 1151.24 538.922 1148.56V1146.28C537.282 1148.28 534.802 1149.48 532.082 1149.48C526.882 1149.48 522.922 1145.4 522.922 1139.64C522.922 1133.88 526.882 1129.84 532.082 1129.84C534.882 1129.84 537.522 1131.16 538.922 1133.12V1130.32ZM533.922 1144.56C536.842 1144.56 538.922 1142.52 538.922 1139.64C538.922 1136.76 536.842 1134.76 533.922 1134.76C531.002 1134.76 528.922 1136.76 528.922 1139.64C528.922 1142.52 531.002 1144.56 533.922 1144.56ZM559.699 1146.32C561.339 1146.32 563.339 1145.56 564.459 1144.48L568.179 1148.28C566.339 1150.2 562.779 1151.48 559.739 1151.48C553.579 1151.48 548.779 1146.96 548.779 1140.6C548.779 1134.36 553.379 1129.84 559.419 1129.84C565.899 1129.84 569.699 1134.76 569.699 1142.56H554.779C555.459 1144.8 557.259 1146.32 559.699 1146.32ZM559.659 1135C557.459 1135 555.619 1136.28 554.859 1138.36H564.099C563.539 1136.32 562.019 1135 559.659 1135Z" fill="#005271"/>
</g>
<rect x="348.589" y="1078.59" width="330.822" height="126.822" stroke="#005271" stroke-width="3.17774"/>
<path d="M105.36 1030L103.6 1025.68H91.3605L89.6005 1030H83.0005L94.2005 1002.52H100.8L112 1030H105.36ZM93.4005 1020.68H101.56L97.4805 1010.64L93.4005 1020.68Z" fill="#005271"/>
<path d="M206.476 1030V1002.52H220.396C225.316 1002.52 228.716 1005.4 228.716 1009.4C228.716 1012.2 227.316 1014.24 224.876 1015.52C228.076 1016.96 229.916 1019.52 229.916 1022.56C229.916 1026.96 226.156 1030 220.916 1030H206.476ZM212.356 1013.6H218.916C221.116 1013.6 222.676 1012.32 222.676 1010.56C222.676 1008.84 221.116 1007.56 218.916 1007.56H212.356V1013.6ZM212.356 1024.96H219.836C222.196 1024.96 223.876 1023.56 223.876 1021.6C223.876 1019.64 222.196 1018.24 219.836 1018.24H212.356V1024.96Z" fill="#005271"/>
<path d="M339.814 1030.48C331.934 1030.48 325.214 1023.96 325.214 1016.24C325.214 1008.52 331.934 1002.04 339.814 1002.04C343.974 1002.04 347.814 1003.8 350.494 1006.64L346.214 1010.48C344.614 1008.64 342.334 1007.4 339.814 1007.4C335.214 1007.4 331.294 1011.48 331.294 1016.24C331.294 1021.04 335.214 1025.12 339.814 1025.12C342.334 1025.12 344.614 1023.88 346.214 1022.04L350.494 1025.88C347.814 1028.68 343.974 1030.48 339.814 1030.48Z" fill="#005271"/>
<path d="M445.245 1030V1002.52H455.085C464.325 1002.52 470.885 1008.2 470.885 1016.24C470.885 1024.28 464.325 1030 455.085 1030H445.245ZM451.125 1024.64H455.845C461.085 1024.64 464.805 1021.16 464.805 1016.24C464.805 1011.36 461.085 1007.88 455.845 1007.88H451.125V1024.64Z" fill="#005271"/>
<path d="M588.568 1007.84H573.328V1013.32H587.128V1018.64H573.328V1024.68H588.568V1030H567.408V1002.52H588.568V1007.84Z" fill="#005271"/>
<path d="M708.704 1007.84H693.464V1013.8H707.264V1019.12H693.464V1030H687.544V1002.52H708.704V1007.84Z" fill="#005271"/>
<path d="M817.957 1019.16V1014.56H830.117V1025.88C827.357 1028.76 823.117 1030.48 818.997 1030.48C811.037 1030.48 804.277 1023.96 804.277 1016.24C804.277 1008.52 811.037 1002.04 818.997 1002.04C823.117 1002.04 827.357 1003.76 830.117 1006.64L825.837 1010.48C824.197 1008.6 821.517 1007.4 818.997 1007.4C814.317 1007.4 810.357 1011.48 810.357 1016.24C810.357 1021.04 814.317 1025.12 818.997 1025.12C820.877 1025.12 822.797 1024.48 824.357 1023.36V1019.16H817.957Z" fill="#005271"/>
<path d="M943.757 1002.52H949.637V1030H943.757V1018.64H931.237V1030H925.357V1002.52H931.237V1013.32H943.757V1002.52Z" fill="#005271"/>
<defs>
<filter id="filter0_d_7012_2447" x="235.779" y="965.779" width="556.442" height="352.442" filterUnits="userSpaceOnUse" color-interpolation-filters="sRGB">
<feFlood flood-opacity="0" result="BackgroundImageFix"/>
<feColorMatrix in="SourceAlpha" type="matrix" values="0 0 0 0 0 0 0 0 0 0 0 0 0 0 0 0 0 0 127 0" result="hardAlpha"/>
<feOffset/>
<feGaussianBlur stdDeviation="55.6105"/>
<feComposite in2="hardAlpha" operator="out"/>
<feColorMatrix type="matrix" values="0 0 0 0 1 0 0 0 0 1 0 0 0 0 1 0 0 0 0.1 0"/>
<feBlend mode="normal" in2="BackgroundImageFix" result="effect1_dropShadow_7012_2447"/>
<feBlend mode="normal" in="SourceGraphic" in2="effect1_dropShadow_7012_2447" result="shape"/>
</filter>
<linearGradient id="paint0_linear_7012_2447" x1="514" y1="1077" x2="514" y2="1207" gradientUnits="userSpaceOnUse">
<stop stop-color="#9EE7E5"/>
<stop offset="1" stop-color="#9EE7E5"/>
</linearGradient>
<clipPath id="clip0_7012_2447">
<rect x="347" y="1077" width="334" height="130" fill="white"/>
</clipPath>
</defs>
</svg>
