<svg width="134" height="119" viewBox="0 0 134 119" fill="none" xmlns="http://www.w3.org/2000/svg">
<rect x="15.7437" y="23" width="121.818" height="62.4121" rx="31.206" transform="rotate(14.3729 15.7437 23)" fill="#9EE7E5" fill-opacity="0.5"/>
<g clip-path="url(#clip0_1_1312)">
<path d="M32.0522 14.0155C41.6628 19.7031 38.6938 22.5386 36.2108 26.7344C33.7277 30.9301 32.4759 34.7818 23.0603 29.2096C18.2805 26.381 16.4187 20.6866 18.9017 16.4908C21.3848 12.2951 27.2724 11.1868 32.0522 14.0155Z" fill="white"/>
<path d="M46.1402 14.9887C46.1402 20.2861 44.2925 20.3175 42.0132 20.3175C39.7339 20.3175 37.8862 20.2861 37.8862 14.9887C37.8862 9.69125 40.4157 5.39684 42.0132 5.39684C43.6108 5.39684 46.1402 9.69125 46.1402 14.9887Z" fill="#FFC145"/>
<path d="M95.982 14.9887C95.982 20.2861 94.1343 20.3175 91.855 20.3175C89.5757 20.3175 87.728 20.2861 87.728 14.9887C87.728 9.69125 90.2575 5.39684 91.855 5.39684C93.4526 5.39684 95.982 9.69125 95.982 14.9887Z" fill="#FFC145"/>
<path d="M102.721 14.0155C93.1106 19.7031 96.0796 22.5386 98.5627 26.7344C101.046 30.9301 102.298 34.7818 111.713 29.2096C116.493 26.381 118.355 20.6866 115.872 16.4908C113.389 12.2951 107.501 11.1868 102.721 14.0155Z" fill="black"/>
<path d="M105.095 18.8642C100.305 21.699 101.545 22.7075 102.487 24.2994C103.429 25.8913 103.813 27.4063 108.506 24.6291C110.889 23.2193 112.056 20.7859 111.114 19.1939C110.172 17.602 107.477 17.4544 105.095 18.8642Z" fill="#FFCACA"/>
<path d="M29.3971 18.8642C34.1871 21.699 32.9468 22.7075 32.0047 24.2994C31.0626 25.8913 30.6782 27.4063 25.9854 24.6291C23.6031 23.2193 22.4356 20.7859 23.3777 19.1939C24.3198 17.602 27.0148 17.4544 29.3971 18.8642Z" fill="#FFCACA"/>
<path d="M86.4811 112.526C88.7579 111.596 90.9749 99.1913 90.5255 93.0159L68.6556 96.5063C68.2062 101.518 68.1763 111.739 69.2548 112.526C70.6029 113.511 83.635 113.69 86.4811 112.526Z" fill="#EFEFEF"/>
<path d="M88.1904 98.7869C94.997 94.2607 85.7959 66.0256 79.1476 62.4692C72.4993 58.9129 61.6861 59.4517 56.9372 62.4692C52.1884 65.4868 40.4533 94.1529 47.2599 98.7869C54.0665 103.421 81.3838 103.313 88.1904 98.7869Z" fill="white"/>
<path fill-rule="evenodd" clip-rule="evenodd" d="M70.0022 102.191C70.0553 100.521 70.0005 97.1117 68.8383 95.0786C66.9782 91.8246 60.9018 89.6817 60.9018 89.6817C58.468 89.3114 53.2193 87.5548 51.6955 83.4913C51.0471 81.7622 49.5518 80.6041 47.8235 79.8482C45.1073 88.0258 43.8332 96.4532 47.2607 98.7867C50.9672 101.31 60.7556 102.427 70.0022 102.191Z" fill="black"/>
<path d="M49.2909 112.526C47.014 111.596 44.797 99.1913 45.2465 93.0159L67.1164 96.5063C67.5657 101.518 67.5957 111.739 66.5172 112.526C65.169 113.511 52.137 113.69 49.2909 112.526Z" fill="black"/>
<path d="M85.8228 88.545C85.8228 97.0135 78.5741 99.0475 69.6324 99.0475C60.6906 99.0475 53.4419 97.0135 53.4419 88.545C53.4419 77.4124 60.6906 71.1109 69.6324 71.1109C78.5741 71.1109 85.8228 77.4124 85.8228 88.545Z" fill="#FFD2D2"/>
<path d="M69.4957 96.1905C69.5609 96.1909 69.6256 96.1784 69.6859 96.1539C69.7463 96.1294 69.8012 96.0932 69.8475 96.0475L72.0527 93.8294C72.1339 93.7351 72.1763 93.6138 72.1715 93.4898C72.1667 93.3657 72.115 93.248 72.0267 93.1603C71.9385 93.0725 71.8202 93.021 71.6955 93.0163C71.5707 93.0115 71.4488 93.0537 71.354 93.1344L69.1439 95.3279C69.0974 95.3737 69.0605 95.4282 69.0354 95.4883C69.0102 95.5483 68.9973 95.6128 68.9973 95.6778C68.9973 95.7429 69.0102 95.8073 69.0354 95.8674C69.0605 95.9275 69.0974 95.982 69.1439 96.0278C69.1885 96.0771 69.2426 96.1169 69.3031 96.1448C69.3636 96.1728 69.4291 96.1883 69.4957 96.1905Z" fill="#FF8D8D"/>
<path d="M71.6773 96.1905C71.742 96.1909 71.8062 96.1784 71.8661 96.154C71.926 96.1295 71.9805 96.0934 72.0264 96.0479C72.0725 96.0022 72.1091 95.9478 72.1341 95.8879C72.159 95.8279 72.1719 95.7637 72.1719 95.6987C72.1719 95.6338 72.159 95.5695 72.1341 95.5096C72.1091 95.4497 72.0725 95.3953 72.0264 95.3496L69.8385 93.1613C69.7927 93.1153 69.7384 93.0787 69.6784 93.0537C69.6185 93.0287 69.5543 93.0159 69.4893 93.0159C69.4244 93.0159 69.3602 93.0287 69.3003 93.0537C69.2404 93.0787 69.186 93.1153 69.1403 93.1613C69.0487 93.2535 68.9973 93.3781 68.9973 93.508C68.9973 93.6379 69.0487 93.7626 69.1403 93.8547L71.3332 96.0479C71.4247 96.1387 71.5484 96.1899 71.6773 96.1905Z" fill="#FF8D8D"/>
<path d="M107.093 46.8255C107.093 63.394 88.9244 68.8883 66.8423 68.8883C44.7602 68.8883 26.458 63.394 26.458 46.8255C26.458 18.5744 44.7602 8.88827 66.8423 8.88827C88.9244 8.88827 107.093 17.2291 107.093 46.8255Z" fill="white"/>
<path fill-rule="evenodd" clip-rule="evenodd" d="M69.647 8.93492C69.8324 14.2216 70.9365 21.1559 74.4006 23.9601C77.4469 26.4261 80.9623 27.0541 84.1037 27.6153C86.7885 28.0949 89.2 28.5257 90.8117 30.0134C91.6681 30.8039 92.4276 31.9008 93.2504 33.0889C95.7291 36.6686 98.7813 41.0763 106.781 40.426C104.415 17.1356 88.7863 9.58344 69.647 8.93492Z" fill="black"/>
<path d="M47.2256 40.5289V45.6083" stroke="black" stroke-width="4.7619" stroke-linecap="round"/>
<path d="M89.7642 40.5289V45.6083" stroke="black" stroke-width="4.7619" stroke-linecap="round"/>
<path d="M53.7593 55.6185C53.7593 49.0962 59.0466 43.8089 65.5688 43.8089H71.4736C77.9958 43.8089 83.2831 49.0962 83.2831 55.6185C83.2831 59.9666 79.7582 63.4915 75.4101 63.4915H61.6323C57.2841 63.4915 53.7593 59.9666 53.7593 55.6185Z" fill="#FFCACA"/>
<path d="M62.1455 49.418V52.9101" stroke="black" stroke-width="3.1746" stroke-linecap="round"/>
<path d="M74.8442 49.418L74.8442 52.9101" stroke="black" stroke-width="3.1746" stroke-linecap="round"/>
<path d="M37.8862 56.1905H42.6481" stroke="#FFD2D2" stroke-width="6.34921" stroke-linecap="round"/>
<path d="M94.7109 56.1905H99.4728" stroke="#FFD2D2" stroke-width="6.34921" stroke-linecap="round"/>
<path d="M81.3712 58.5955C87.3188 60.1202 89.4497 65.6098 90.5624 71.284C90.372 71.9616 89.7199 73.5332 88.6348 74.3981C87.2784 75.4793 76.9108 72.3305 74.5551 69.4753C72.1993 66.62 73.9367 56.6895 81.3712 58.5955Z" fill="#EFEFEF"/>
<path d="M55.2494 58.5893C49.3018 60.1141 47.1709 65.6037 46.0582 71.2779C46.2486 71.9555 46.9007 73.5271 47.9858 74.392C49.3422 75.4732 59.7098 72.3244 62.0655 69.4691C64.4213 66.6139 62.6839 56.6834 55.2494 58.5893Z" fill="#EFEFEF"/>
</g>
<defs>
<clipPath id="clip0_1_1312">
<rect width="100" height="118.73" fill="white" transform="translate(17.251)"/>
</clipPath>
</defs>
</svg>
