<svg width="282" height="290" viewBox="0 0 282 290" fill="none" xmlns="http://www.w3.org/2000/svg">
<g filter="url(#filter0_d_3135_554)">
<mask id="path-1-outside-1_3135_554" maskUnits="userSpaceOnUse" x="28.7539" y="54.4411" width="194" height="194" fill="black">
<rect fill="white" x="28.7539" y="54.4411" width="194" height="194"/>
<path fill-rule="evenodd" clip-rule="evenodd" d="M119.807 60.5496C121.906 59.6931 127.53 63.9782 130.371 70.9363C130.672 71.6752 130.912 72.3482 131.101 72.9607C131.25 73.0024 131.399 73.0443 131.547 73.0877C131.561 73.0648 131.575 73.0423 131.588 73.0193C135.594 66.2336 143.669 63.5821 149.626 67.0975C155.582 70.6132 157.165 78.9648 153.16 85.7508C152.839 86.2937 152.523 86.8067 152.214 87.2938C153.784 89.1977 155.302 91.2951 156.764 93.5984C156.739 93.6142 156.713 93.6288 156.688 93.6443C159.052 97.4001 161.241 101.703 163.228 106.599C164.545 109.844 165.339 112.844 165.646 115.649C166.195 116.069 166.657 116.621 166.975 117.288C167.979 119.393 167.204 121.887 165.253 123.072C163.872 129.023 159.883 134.141 153.752 139.138C166.058 133.16 185.593 125.226 198.259 131.704C213.711 139.606 210.41 155.426 197.545 155.594C192.98 155.653 181.363 154.858 170.413 153.671C174.896 156.691 178.915 160.277 182.022 164.304C190.388 162.777 219.161 176.945 216.338 193.609C213.998 207.424 205.172 215.309 196.201 214.738C196.198 214.738 196.196 214.737 196.194 214.737C195.994 214.724 195.795 214.708 195.595 214.686C195.591 214.686 195.587 214.686 195.584 214.685C195.184 214.643 194.784 214.583 194.385 214.507C194.37 214.504 194.354 214.5 194.338 214.497C194.163 214.463 193.988 214.426 193.813 214.385C193.785 214.378 193.758 214.372 193.73 214.365C193.537 214.319 193.344 214.27 193.152 214.216C192.99 214.17 192.83 214.12 192.672 214.069C186.378 212.103 180.445 206.59 174.683 200.294C171.756 202.24 168.524 204.137 165.152 205.923C172.267 212.37 173.669 219.425 170.246 229.976C168.811 234.398 162.446 238.91 156.387 241.177L156.389 241.178C156.376 241.183 156.362 241.187 156.348 241.192C155.767 241.409 155.188 241.604 154.617 241.777C154.58 241.788 154.543 241.8 154.506 241.811C153.088 242.235 151.72 242.517 150.47 242.624C150.455 242.625 150.439 242.626 150.423 242.628C150.078 242.656 149.742 242.672 149.417 242.673C149.397 242.673 149.377 242.673 149.358 242.673C149.215 242.672 149.074 242.669 148.935 242.663C148.917 242.662 148.899 242.662 148.881 242.661C148.731 242.654 148.583 242.644 148.438 242.63C148.414 242.627 148.39 242.624 148.366 242.622C148.242 242.609 148.121 242.593 148.003 242.575C147.976 242.571 147.95 242.568 147.923 242.563C147.786 242.541 147.651 242.517 147.52 242.487C146.021 242.151 144.498 241.623 142.969 240.929C142.751 240.829 142.533 240.727 142.315 240.621C140.566 239.773 138.812 238.712 137.078 237.475C136.861 237.321 136.645 237.164 136.429 237.004C130.811 232.844 125.431 226.882 121.138 220.407C120.643 219.66 120.163 218.906 119.698 218.147C118.768 216.63 117.901 215.094 117.107 213.554C116.71 212.784 116.332 212.013 115.973 211.243C115.734 210.73 115.503 210.217 115.282 209.705C115.171 209.449 115.063 209.194 114.957 208.938C114.321 207.408 113.769 205.889 113.311 204.399L113.368 204.391C111.96 201.891 110.703 199.057 109.605 196.015C109.615 196.015 109.625 196.013 109.634 196.013C109.602 195.94 109.57 195.868 109.538 195.796C109.507 195.726 109.475 195.657 109.444 195.587C109.221 195.085 109.002 194.58 108.786 194.072C108.805 201.251 108.277 207.94 106.999 211.525C106.077 214.109 102.924 216.854 98.8736 218.864C98.8781 218.865 98.8828 218.866 98.8873 218.867C98.1506 219.231 97.3838 219.568 96.5963 219.876C88.2367 223.184 77.4264 223.148 73.7222 213.307C73.4647 212.693 73.2318 212.041 73.0299 211.348C69.9619 200.821 71.7382 191.63 75.6207 184.268C76.2122 183.175 76.8405 182.111 77.4996 181.079C79.3801 178.207 81.5637 175.674 83.8433 173.517C85.0159 172.293 86.2308 171.18 87.4654 170.192C77.0317 171.043 68.1718 167.967 62.0474 158.608C56.8451 150.658 53.8627 142.551 52.8834 134.633C51.626 134.706 50.2148 134.723 48.6304 134.674C40.7545 134.428 34.544 128.624 34.7593 121.711C34.9747 114.797 41.5341 109.391 49.4097 109.637C52.242 109.725 54.5121 109.976 56.3287 110.367C56.5781 109.785 56.8388 109.207 57.1119 108.633C56.2709 107.848 55.3671 106.626 54.3648 104.805C50.7403 98.2216 50.9467 91.1534 52.9322 90.0604C54.7877 89.0394 60.218 92.1221 63.8795 97.9022C69.8062 90.3216 78.5395 83.8175 90.2183 78.7518C91.4108 78.2345 92.6038 77.743 93.7945 77.2752C102.039 73.889 110.325 71.7103 118.319 71.4783C117.11 65.9922 118.103 61.2455 119.807 60.5496Z"/>
</mask>
<path fill-rule="evenodd" clip-rule="evenodd" d="M119.807 60.5496C121.906 59.6931 127.53 63.9782 130.371 70.9363C130.672 71.6752 130.912 72.3482 131.101 72.9607C131.25 73.0024 131.399 73.0443 131.547 73.0877C131.561 73.0648 131.575 73.0423 131.588 73.0193C135.594 66.2336 143.669 63.5821 149.626 67.0975C155.582 70.6132 157.165 78.9648 153.16 85.7508C152.839 86.2937 152.523 86.8067 152.214 87.2938C153.784 89.1977 155.302 91.2951 156.764 93.5984C156.739 93.6142 156.713 93.6288 156.688 93.6443C159.052 97.4001 161.241 101.703 163.228 106.599C164.545 109.844 165.339 112.844 165.646 115.649C166.195 116.069 166.657 116.621 166.975 117.288C167.979 119.393 167.204 121.887 165.253 123.072C163.872 129.023 159.883 134.141 153.752 139.138C166.058 133.16 185.593 125.226 198.259 131.704C213.711 139.606 210.41 155.426 197.545 155.594C192.98 155.653 181.363 154.858 170.413 153.671C174.896 156.691 178.915 160.277 182.022 164.304C190.388 162.777 219.161 176.945 216.338 193.609C213.998 207.424 205.172 215.309 196.201 214.738C196.198 214.738 196.196 214.737 196.194 214.737C195.994 214.724 195.795 214.708 195.595 214.686C195.591 214.686 195.587 214.686 195.584 214.685C195.184 214.643 194.784 214.583 194.385 214.507C194.37 214.504 194.354 214.5 194.338 214.497C194.163 214.463 193.988 214.426 193.813 214.385C193.785 214.378 193.758 214.372 193.73 214.365C193.537 214.319 193.344 214.27 193.152 214.216C192.99 214.17 192.83 214.12 192.672 214.069C186.378 212.103 180.445 206.59 174.683 200.294C171.756 202.24 168.524 204.137 165.152 205.923C172.267 212.37 173.669 219.425 170.246 229.976C168.811 234.398 162.446 238.91 156.387 241.177L156.389 241.178C156.376 241.183 156.362 241.187 156.348 241.192C155.767 241.409 155.188 241.604 154.617 241.777C154.58 241.788 154.543 241.8 154.506 241.811C153.088 242.235 151.72 242.517 150.47 242.624C150.455 242.625 150.439 242.626 150.423 242.628C150.078 242.656 149.742 242.672 149.417 242.673C149.397 242.673 149.377 242.673 149.358 242.673C149.215 242.672 149.074 242.669 148.935 242.663C148.917 242.662 148.899 242.662 148.881 242.661C148.731 242.654 148.583 242.644 148.438 242.63C148.414 242.627 148.39 242.624 148.366 242.622C148.242 242.609 148.121 242.593 148.003 242.575C147.976 242.571 147.95 242.568 147.923 242.563C147.786 242.541 147.651 242.517 147.52 242.487C146.021 242.151 144.498 241.623 142.969 240.929C142.751 240.829 142.533 240.727 142.315 240.621C140.566 239.773 138.812 238.712 137.078 237.475C136.861 237.321 136.645 237.164 136.429 237.004C130.811 232.844 125.431 226.882 121.138 220.407C120.643 219.66 120.163 218.906 119.698 218.147C118.768 216.63 117.901 215.094 117.107 213.554C116.71 212.784 116.332 212.013 115.973 211.243C115.734 210.73 115.503 210.217 115.282 209.705C115.171 209.449 115.063 209.194 114.957 208.938C114.321 207.408 113.769 205.889 113.311 204.399L113.368 204.391C111.96 201.891 110.703 199.057 109.605 196.015C109.615 196.015 109.625 196.013 109.634 196.013C109.602 195.94 109.57 195.868 109.538 195.796C109.507 195.726 109.475 195.657 109.444 195.587C109.221 195.085 109.002 194.58 108.786 194.072C108.805 201.251 108.277 207.94 106.999 211.525C106.077 214.109 102.924 216.854 98.8736 218.864C98.8781 218.865 98.8828 218.866 98.8873 218.867C98.1506 219.231 97.3838 219.568 96.5963 219.876C88.2367 223.184 77.4264 223.148 73.7222 213.307C73.4647 212.693 73.2318 212.041 73.0299 211.348C69.9619 200.821 71.7382 191.63 75.6207 184.268C76.2122 183.175 76.8405 182.111 77.4996 181.079C79.3801 178.207 81.5637 175.674 83.8433 173.517C85.0159 172.293 86.2308 171.18 87.4654 170.192C77.0317 171.043 68.1718 167.967 62.0474 158.608C56.8451 150.658 53.8627 142.551 52.8834 134.633C51.626 134.706 50.2148 134.723 48.6304 134.674C40.7545 134.428 34.544 128.624 34.7593 121.711C34.9747 114.797 41.5341 109.391 49.4097 109.637C52.242 109.725 54.5121 109.976 56.3287 110.367C56.5781 109.785 56.8388 109.207 57.1119 108.633C56.2709 107.848 55.3671 106.626 54.3648 104.805C50.7403 98.2216 50.9467 91.1534 52.9322 90.0604C54.7877 89.0394 60.218 92.1221 63.8795 97.9022C69.8062 90.3216 78.5395 83.8175 90.2183 78.7518C91.4108 78.2345 92.6038 77.743 93.7945 77.2752C102.039 73.889 110.325 71.7103 118.319 71.4783C117.11 65.9922 118.103 61.2455 119.807 60.5496Z" fill="#FFAAAB"/>
<path d="M119.807 60.5496L117.75 55.5101L117.749 55.5104L119.807 60.5496ZM130.371 70.9363L135.41 68.8793L135.41 68.8792L130.371 70.9363ZM131.101 72.9607L125.899 74.5638L126.774 77.4034L129.636 78.2031L131.101 72.9607ZM131.547 73.0877L130.02 78.3121L134.088 79.5018L136.238 75.8488L131.547 73.0877ZM131.588 73.0193L126.901 70.2526L126.901 70.2527L131.588 73.0193ZM149.626 67.0975L152.392 62.4098L152.392 62.4097L149.626 67.0975ZM153.16 85.7508L157.847 88.5175V88.5175L153.16 85.7508ZM152.214 87.2938L147.617 84.3804L145.506 87.7119L148.014 90.7555L152.214 87.2938ZM156.764 93.5984L159.649 98.2142L164.297 95.3091L161.36 90.6815L156.764 93.5984ZM156.688 93.6443L153.818 89.0193L149.163 91.9079L152.082 96.5441L156.688 93.6443ZM163.228 106.599L168.272 104.553L168.272 104.553L163.228 106.599ZM165.646 115.649L160.235 116.242L160.489 118.56L162.342 119.975L165.646 115.649ZM166.975 117.288L171.889 114.946L171.889 114.945L166.975 117.288ZM165.253 123.072L162.426 118.42L160.468 119.61L159.95 121.842L165.253 123.072ZM153.752 139.138L150.313 134.918L156.13 144.034L153.752 139.138ZM198.259 131.704L200.738 126.858L200.738 126.858L198.259 131.704ZM197.545 155.594L197.616 161.036L197.617 161.036L197.545 155.594ZM170.413 153.671L170.999 148.259L167.371 158.185L170.413 153.671ZM182.022 164.304L177.712 167.629L179.738 170.255L183 169.659L182.022 164.304ZM216.338 193.609L221.705 194.518V194.518L216.338 193.609ZM196.201 214.738L196.546 209.306L196.543 209.306L196.201 214.738ZM196.194 214.737L195.846 220.169L195.849 220.169L196.194 214.737ZM195.595 214.686L196.17 209.274L196.166 209.273L195.595 214.686ZM195.584 214.685L195.005 220.098L195.008 220.098L195.584 214.685ZM194.385 214.507L195.413 209.161L195.411 209.161L194.385 214.507ZM194.338 214.497L193.293 219.839L193.296 219.839L194.338 214.497ZM193.813 214.385L195.053 209.084L195.051 209.084L193.813 214.385ZM193.73 214.365L192.46 219.658L192.462 219.658L193.73 214.365ZM193.152 214.216L191.671 219.454L191.671 219.454L193.152 214.216ZM192.672 214.069L194.347 208.89L194.321 208.882L194.295 208.874L192.672 214.069ZM174.683 200.294L178.699 196.619L175.552 193.18L171.67 195.761L174.683 200.294ZM165.152 205.923L162.604 201.112L155.746 204.745L161.497 209.956L165.152 205.923ZM170.246 229.976L175.423 231.656L175.423 231.656L170.246 229.976ZM156.387 241.177L154.48 236.079L142.778 240.457L153.953 246.045L156.387 241.177ZM156.389 241.178L158.297 246.275L169.998 241.896L158.823 236.309L156.389 241.178ZM156.348 241.192L158.249 246.293L158.249 246.293L156.348 241.192ZM154.617 241.777L153.038 236.568L153.036 236.568L154.617 241.777ZM154.506 241.811L156.063 247.027L156.064 247.027L154.506 241.811ZM150.47 242.624L150.006 237.201L150.003 237.201L150.47 242.624ZM150.423 242.628L150.87 248.053L150.873 248.052L150.423 242.628ZM149.417 242.673L149.4 237.229H149.398L149.417 242.673ZM149.358 242.673L149.346 248.116L149.348 248.116L149.358 242.673ZM148.935 242.663L149.165 237.225L149.163 237.224L148.935 242.663ZM148.881 242.661L148.622 248.098L148.623 248.098L148.881 242.661ZM148.438 242.63L148.96 237.212L148.958 237.211L148.438 242.63ZM148.366 242.622L147.798 248.035L147.799 248.036L148.366 242.622ZM148.003 242.575L148.818 237.193L148.817 237.193L148.003 242.575ZM147.923 242.563L147.051 247.936L147.052 247.936L147.923 242.563ZM147.52 242.487L146.33 247.799L146.33 247.799L147.52 242.487ZM142.969 240.929L145.222 235.973H145.222L142.969 240.929ZM142.315 240.621L139.94 245.519L139.94 245.519L142.315 240.621ZM137.078 237.475L140.238 233.044L140.238 233.044L137.078 237.475ZM136.429 237.004L133.191 241.379L133.191 241.379L136.429 237.004ZM121.138 220.407L116.602 223.415V223.415L121.138 220.407ZM119.698 218.147L124.339 215.303V215.303L119.698 218.147ZM117.107 213.554L112.268 216.047V216.047L117.107 213.554ZM115.973 211.243L120.907 208.944H120.907L115.973 211.243ZM115.282 209.705L110.286 211.866H110.286L115.282 209.705ZM114.957 208.938L119.983 206.85V206.85L114.957 208.938ZM113.311 204.399L112.567 199.007L106.228 199.881L108.108 205.998L113.311 204.399ZM113.368 204.391L114.111 209.784L122.036 208.691L118.111 201.721L113.368 204.391ZM109.605 196.015L109.113 190.595L102.091 191.232L104.485 197.864L109.605 196.015ZM109.634 196.013L110.119 201.434L117.73 200.754L114.6 193.783L109.634 196.013ZM109.538 195.796L114.508 193.577L114.508 193.577L109.538 195.796ZM109.444 195.587L104.468 197.794L104.468 197.794L109.444 195.587ZM108.786 194.072L113.794 191.941L103.343 194.087L108.786 194.072ZM106.999 211.525L112.126 213.354L112.126 213.353L106.999 211.525ZM98.8736 218.864L96.4541 213.988L80.6228 221.844L98.1306 224.256L98.8736 218.864ZM98.8873 218.867L101.297 223.748L117.214 215.888L99.6273 213.474L98.8873 218.867ZM96.5963 219.876L94.6161 214.806L94.6047 214.81L94.5933 214.814L96.5963 219.876ZM73.7222 213.307L78.8165 211.39L78.781 211.296L78.7421 211.203L73.7222 213.307ZM73.0299 211.348L67.804 212.871L67.8041 212.871L73.0299 211.348ZM75.6207 184.268L70.8327 181.679L70.8192 181.704L70.806 181.729L75.6207 184.268ZM77.4996 181.079L72.9456 178.097L72.929 178.123L72.9127 178.148L77.4996 181.079ZM83.8433 173.517L87.5838 177.472L87.6818 177.379L87.775 177.282L83.8433 173.517ZM87.4654 170.192L90.8651 174.443L104.772 163.32L87.0233 164.767L87.4654 170.192ZM62.0474 158.608L57.4928 161.589L57.4928 161.589L62.0474 158.608ZM52.8834 134.633L58.2854 133.964L57.6592 128.902L52.5667 129.199L52.8834 134.633ZM48.6304 134.674L48.461 140.114H48.461L48.6304 134.674ZM34.7593 121.711L29.3188 121.541L29.3188 121.541L34.7593 121.711ZM49.4097 109.637L49.5792 104.196L49.579 104.196L49.4097 109.637ZM56.3287 110.367L55.1836 115.688L59.5655 116.631L61.3316 112.512L56.3287 110.367ZM57.1119 108.633L62.0276 110.97L63.7392 107.371L60.8246 104.652L57.1119 108.633ZM54.3648 104.805L49.5964 107.431L49.5964 107.431L54.3648 104.805ZM52.9322 90.0604L50.3082 85.2914L50.3072 85.292L52.9322 90.0604ZM63.8795 97.9022L59.2812 100.815L63.4125 107.337L68.1676 101.255L63.8795 97.9022ZM90.2183 78.7518L88.0523 73.7581L88.0523 73.7581L90.2183 78.7518ZM93.7945 77.2752L95.7849 82.3414L95.8239 82.3261L95.8626 82.3102L93.7945 77.2752ZM118.319 71.4783L118.477 76.9192L125.05 76.7285L123.635 70.307L118.319 71.4783ZM119.807 60.5496L121.864 65.5892C120.272 66.2392 119.247 65.5883 119.71 65.7966C119.914 65.8883 120.431 66.1895 121.155 66.8457C122.581 68.138 124.222 70.2755 125.331 72.9934L130.371 70.9363L135.41 68.8792C133.679 64.639 131.087 61.1549 128.466 58.7793C127.167 57.6015 125.707 56.5571 124.177 55.8688C122.906 55.2971 120.392 54.4318 117.75 55.5101L119.807 60.5496ZM130.371 70.9363L125.331 72.9934C125.578 73.5982 125.762 74.1195 125.899 74.5638L131.101 72.9607L136.303 71.3577C136.062 70.5769 135.767 69.7522 135.41 68.8793L130.371 70.9363ZM131.101 72.9607L129.636 78.2031C129.781 78.2435 129.904 78.2782 130.02 78.3121L131.547 73.0877L133.075 67.8633C132.894 67.8103 132.719 67.7613 132.566 67.7184L131.101 72.9607ZM131.547 73.0877L136.238 75.8488C136.231 75.8616 136.225 75.8708 136.223 75.8743C136.221 75.8772 136.221 75.8786 136.224 75.8723C136.227 75.8683 136.234 75.856 136.242 75.8429C136.251 75.8289 136.262 75.8092 136.276 75.786L131.588 73.0193L126.901 70.2527C126.908 70.2409 126.913 70.2326 126.914 70.2301C126.915 70.2284 126.916 70.2274 126.911 70.2348C126.908 70.2399 126.901 70.2527 126.892 70.2669C126.883 70.2818 126.871 70.3024 126.856 70.3266L131.547 73.0877ZM131.588 73.0193L136.276 75.786C139.103 70.9962 144.047 70.1255 146.859 71.7852L149.626 67.0975L152.392 62.4097C143.291 57.0386 132.084 61.4709 126.901 70.2526L131.588 73.0193ZM149.626 67.0975L146.859 71.7851C149.672 73.4453 151.299 78.1947 148.472 82.9841L153.16 85.7508L157.847 88.5175C163.031 79.735 161.493 67.7812 152.392 62.4098L149.626 67.0975ZM153.16 85.7508L148.472 82.9841C148.186 83.4693 147.9 83.9329 147.617 84.3804L152.214 87.2938L156.812 90.2071C157.146 89.6806 157.493 89.118 157.847 88.5175L153.16 85.7508ZM152.214 87.2938L148.014 90.7555C149.431 92.4757 150.819 94.3898 152.169 96.5154L156.764 93.5984L161.36 90.6815C159.785 88.2004 158.136 85.9198 156.415 83.832L152.214 87.2938ZM156.764 93.5984L153.879 88.9827C153.907 88.965 153.929 88.9518 153.941 88.945C153.951 88.9389 153.958 88.9346 153.951 88.9387C153.949 88.9398 153.943 88.9435 153.937 88.9471C153.93 88.951 153.921 88.9566 153.91 88.9631C153.889 88.976 153.856 88.9955 153.818 89.0193L156.688 93.6443L159.558 98.2693C159.532 98.2854 159.513 98.2972 159.504 98.3025C159.497 98.3067 159.491 98.3102 159.501 98.3042C159.507 98.3007 159.527 98.2889 159.55 98.2751C159.574 98.2607 159.608 98.2397 159.649 98.2142L156.764 93.5984ZM156.688 93.6443L152.082 96.5441C154.255 99.9968 156.303 104.009 158.184 108.646L163.228 106.599L168.272 104.553C166.18 99.3969 163.85 94.8034 161.295 90.7446L156.688 93.6443ZM163.228 106.599L158.184 108.646C159.35 111.519 159.993 114.027 160.235 116.242L165.646 115.649L171.057 115.056C170.685 111.66 169.739 108.169 168.272 104.553L163.228 106.599ZM165.646 115.649L162.342 119.975C162.227 119.887 162.127 119.767 162.062 119.63L166.975 117.288L171.889 114.945C171.188 113.475 170.164 112.251 168.95 111.324L165.646 115.649ZM166.975 117.288L162.062 119.63C161.85 119.187 162.016 118.67 162.426 118.42L165.253 123.072L168.079 127.724C172.391 125.104 174.107 119.599 171.889 114.946L166.975 117.288ZM165.253 123.072L159.95 121.842C158.956 126.125 155.995 130.287 150.313 134.918L153.752 139.138L157.19 143.357C163.77 137.995 168.787 131.921 170.555 124.302L165.253 123.072ZM153.752 139.138L156.13 144.034C162.169 141.1 169.711 137.826 177.141 136.043C184.729 134.222 191.195 134.205 195.781 136.55L198.259 131.704L200.738 126.858C192.657 122.725 183.023 123.436 174.6 125.457C166.019 127.516 157.64 131.197 151.373 134.241L153.752 139.138ZM198.259 131.704L195.781 136.55C202.092 139.778 203.322 143.855 203.105 146.001C202.907 147.96 201.401 150.1 197.474 150.151L197.545 155.594L197.617 161.036C206.555 160.92 213.131 155.065 213.937 147.097C214.723 139.315 209.878 131.532 200.738 126.858L198.259 131.704ZM197.545 155.594L197.475 150.151C193.262 150.206 181.925 149.443 170.999 148.259L170.413 153.671L169.826 159.082C180.801 160.272 192.698 161.1 197.616 161.036L197.545 155.594ZM170.413 153.671L167.371 158.185C171.467 160.945 175.026 164.147 177.712 167.629L182.022 164.304L186.332 160.98C182.804 156.407 178.325 152.438 173.454 149.157L170.413 153.671ZM182.022 164.304L183 169.659C183.598 169.55 185.807 169.704 189.472 171.019C192.86 172.234 196.732 174.167 200.287 176.617C203.868 179.084 206.884 181.908 208.814 184.804C210.721 187.664 211.381 190.283 210.972 192.7L216.338 193.609L221.705 194.518C222.707 188.603 220.829 183.202 217.873 178.766C214.941 174.367 210.77 170.62 206.464 167.653C202.133 164.669 197.42 162.305 193.148 160.772C189.154 159.339 184.629 158.295 181.045 158.95L182.022 164.304ZM216.338 193.609L210.972 192.7C208.895 204.96 201.677 209.632 196.546 209.306L196.201 214.738L195.855 220.17C208.668 220.986 219.102 209.888 221.705 194.518L216.338 193.609ZM196.201 214.738L196.543 209.306C196.65 209.312 196.744 209.321 196.823 209.331C196.902 209.34 196.969 209.349 197.021 209.357C197.047 209.361 197.07 209.365 197.09 209.368C197.109 209.371 197.126 209.374 197.138 209.376C197.151 209.379 197.161 209.38 197.167 209.382C197.171 209.382 197.173 209.383 197.175 209.383C197.176 209.383 197.177 209.383 197.177 209.383C197.177 209.383 197.177 209.383 197.177 209.383C197.177 209.383 197.177 209.383 197.177 209.383C197.177 209.383 197.176 209.383 197.176 209.383C197.176 209.383 197.175 209.383 197.174 209.383C197.173 209.383 197.17 209.382 197.167 209.381C197.161 209.38 197.15 209.378 197.137 209.376C197.124 209.374 197.108 209.371 197.088 209.368C197.068 209.364 197.045 209.361 197.019 209.357C196.967 209.349 196.899 209.339 196.82 209.33C196.74 209.321 196.646 209.312 196.539 209.305L196.194 214.737L195.849 220.169C195.743 220.163 195.649 220.154 195.57 220.144C195.491 220.135 195.424 220.126 195.372 220.118C195.346 220.114 195.323 220.11 195.304 220.107C195.285 220.104 195.268 220.101 195.256 220.099C195.243 220.097 195.233 220.095 195.227 220.094C195.224 220.093 195.221 220.093 195.22 220.092C195.219 220.092 195.217 220.092 195.218 220.092C195.218 220.092 195.218 220.092 195.219 220.092C195.219 220.092 195.22 220.092 195.22 220.092C195.222 220.093 195.225 220.093 195.228 220.094C195.235 220.095 195.245 220.097 195.258 220.099C195.271 220.101 195.288 220.104 195.308 220.108C195.327 220.111 195.351 220.115 195.377 220.119C195.429 220.127 195.497 220.136 195.577 220.145C195.656 220.155 195.751 220.164 195.858 220.171L196.201 214.738ZM196.194 214.737L196.542 209.305C196.415 209.297 196.291 209.286 196.17 209.274L195.595 214.686L195.021 220.099C195.299 220.129 195.574 220.152 195.846 220.169L196.194 214.737ZM195.595 214.686L196.166 209.273C196.136 209.27 196.109 209.267 196.086 209.265C196.063 209.263 196.043 209.262 196.028 209.26C196.013 209.259 196.001 209.258 195.993 209.258C195.989 209.257 195.986 209.257 195.984 209.257C195.983 209.257 195.982 209.257 195.982 209.257C195.981 209.257 195.981 209.257 195.981 209.257C195.98 209.257 195.982 209.257 195.983 209.257C195.985 209.257 195.988 209.257 195.991 209.257C195.998 209.258 196.01 209.259 196.024 209.26C196.039 209.261 196.058 209.263 196.08 209.265C196.103 209.267 196.129 209.27 196.159 209.273L195.584 214.685L195.008 220.098C195.039 220.101 195.066 220.104 195.09 220.106C195.113 220.108 195.133 220.11 195.149 220.111C195.164 220.112 195.177 220.113 195.185 220.114C195.189 220.114 195.192 220.115 195.194 220.115C195.196 220.115 195.198 220.115 195.198 220.115C195.199 220.115 195.198 220.115 195.196 220.115C195.195 220.115 195.192 220.115 195.189 220.114C195.182 220.114 195.171 220.113 195.157 220.112C195.142 220.111 195.124 220.109 195.102 220.107C195.08 220.105 195.054 220.103 195.024 220.099L195.595 214.686ZM195.584 214.685L196.163 209.273C195.91 209.246 195.66 209.209 195.413 209.161L194.385 214.507L193.357 219.852C193.908 219.958 194.458 220.039 195.005 220.098L195.584 214.685ZM194.385 214.507L195.411 209.161C195.446 209.168 195.473 209.173 195.489 209.177C195.497 209.178 195.503 209.18 195.507 209.18C195.51 209.181 195.512 209.181 195.51 209.181C195.51 209.181 195.504 209.18 195.499 209.179C195.493 209.177 195.485 209.176 195.474 209.173C195.454 209.169 195.421 209.162 195.381 209.155L194.338 214.497L193.296 219.839C193.264 219.833 193.239 219.828 193.226 219.825C193.22 219.824 193.215 219.823 193.213 219.822C193.212 219.822 193.21 219.822 193.214 219.823C193.217 219.823 193.236 219.827 193.258 219.832C193.282 219.837 193.317 219.844 193.36 219.852L194.385 214.507ZM194.338 214.497L195.384 209.155C195.263 209.131 195.154 209.108 195.053 209.084L193.813 214.385L192.574 219.685C192.822 219.743 193.063 219.794 193.293 219.839L194.338 214.497ZM193.813 214.385L195.051 209.084C195.016 209.076 195.007 209.074 194.998 209.072L193.73 214.365L192.462 219.658C192.508 219.67 192.554 219.68 192.575 219.685L193.813 214.385ZM193.73 214.365L195 209.072C194.848 209.036 194.731 209.005 194.632 208.978L193.152 214.216L191.671 219.454C191.958 219.535 192.227 219.602 192.46 219.658L193.73 214.365ZM193.152 214.216L194.633 208.978C194.559 208.957 194.468 208.929 194.347 208.89L192.672 214.069L190.998 219.248C191.192 219.311 191.421 219.383 191.671 219.454L193.152 214.216ZM192.672 214.069L194.295 208.874C189.555 207.393 184.498 202.957 178.699 196.619L174.683 200.294L170.668 203.968C176.391 210.222 183.2 216.813 191.049 219.265L192.672 214.069ZM174.683 200.294L171.67 195.761C168.917 197.591 165.844 199.396 162.604 201.112L165.152 205.923L167.7 210.733C171.204 208.877 174.595 206.889 177.697 204.827L174.683 200.294ZM165.152 205.923L161.497 209.956C164.42 212.605 165.799 215.017 166.322 217.523C166.869 220.139 166.619 223.515 165.068 228.297L170.246 229.976L175.423 231.656C177.295 225.886 178.057 220.459 176.979 215.298C175.878 210.026 172.999 205.688 168.807 201.889L165.152 205.923ZM170.246 229.976L165.068 228.297C164.848 228.974 163.911 230.377 161.711 232.086C159.649 233.688 157.033 235.123 154.48 236.079L156.387 241.177L158.295 246.275C161.8 244.963 165.396 243.009 168.39 240.683C171.246 238.464 174.208 235.401 175.423 231.656L170.246 229.976ZM156.387 241.177L153.953 246.045L153.955 246.046L156.389 241.178L158.823 236.309L158.822 236.308L156.387 241.177ZM156.389 241.178L154.481 236.08C154.515 236.067 154.541 236.058 154.556 236.053C154.563 236.05 154.569 236.048 154.572 236.047C154.575 236.046 154.577 236.045 154.575 236.046C154.574 236.046 154.569 236.048 154.564 236.05C154.558 236.052 154.549 236.055 154.539 236.058C154.518 236.066 154.486 236.077 154.447 236.092L156.348 241.192L158.249 246.293C158.217 246.305 158.192 246.314 158.178 246.318C158.171 246.321 158.166 246.323 158.164 246.324C158.162 246.324 158.16 246.325 158.163 246.324C158.164 246.323 158.169 246.322 158.176 246.319C158.182 246.317 158.191 246.314 158.202 246.31C158.224 246.302 158.257 246.29 158.297 246.275L156.389 241.178ZM156.348 241.192L154.447 236.092C153.971 236.269 153.5 236.428 153.038 236.568L154.617 241.777L156.196 246.986C156.876 246.78 157.562 246.549 158.249 246.293L156.348 241.192ZM154.617 241.777L153.036 236.568C153.009 236.577 152.985 236.584 152.968 236.589C152.952 236.594 152.936 236.6 152.931 236.601C152.922 236.604 152.922 236.604 152.924 236.603C152.926 236.603 152.935 236.6 152.948 236.596L154.506 241.811L156.064 247.027C156.124 247.009 156.175 246.993 156.193 246.987C156.206 246.983 156.208 246.983 156.21 246.982C156.211 246.981 156.206 246.983 156.197 246.986L154.617 241.777ZM154.506 241.811L152.95 236.595C151.798 236.939 150.802 237.132 150.006 237.201L150.47 242.624L150.935 248.047C152.637 247.901 154.379 247.53 156.063 247.027L154.506 241.811ZM150.47 242.624L150.003 237.201C150.004 237.201 150.003 237.201 149.998 237.201C149.995 237.201 149.993 237.202 149.988 237.202C149.984 237.202 149.979 237.203 149.974 237.203L150.423 242.628L150.873 248.052C150.875 248.052 150.91 248.049 150.937 248.047L150.47 242.624ZM150.423 242.628L149.977 237.203C149.757 237.221 149.565 237.229 149.4 237.229L149.417 242.673L149.433 248.116C149.919 248.114 150.399 248.091 150.87 248.053L150.423 242.628ZM149.417 242.673L149.398 237.229C149.395 237.23 149.389 237.23 149.368 237.229L149.358 242.673L149.348 248.116C149.366 248.116 149.399 248.116 149.435 248.116L149.417 242.673ZM149.358 242.673L149.37 237.229C149.309 237.229 149.242 237.228 149.165 237.225L148.935 242.663L148.705 248.101C148.906 248.11 149.12 248.115 149.346 248.116L149.358 242.673ZM148.935 242.663L149.163 237.224C149.139 237.223 149.119 237.223 149.106 237.222C149.1 237.222 149.094 237.222 149.091 237.222C149.089 237.222 149.087 237.222 149.086 237.222C149.085 237.222 149.084 237.222 149.083 237.222C149.082 237.222 149.083 237.222 149.085 237.222C149.086 237.222 149.09 237.222 149.094 237.222C149.103 237.222 149.119 237.223 149.139 237.224L148.881 242.661L148.623 248.098C148.653 248.099 148.677 248.1 148.695 248.101C148.713 248.102 148.727 248.102 148.733 248.102C148.743 248.103 148.739 248.103 148.737 248.102C148.733 248.102 148.722 248.102 148.707 248.101L148.935 242.663ZM148.881 242.661L149.141 237.224C149.062 237.22 149.003 237.216 148.96 237.212L148.438 242.63L147.916 248.048C148.163 248.072 148.399 248.087 148.622 248.098L148.881 242.661ZM148.438 242.63L148.958 237.211C148.977 237.213 148.991 237.215 148.999 237.215C149.006 237.216 149.011 237.217 149.008 237.216C149.006 237.216 149.005 237.216 149.001 237.216C148.997 237.215 148.992 237.215 148.986 237.214C148.974 237.213 148.955 237.211 148.932 237.208L148.366 242.622L147.799 248.036C147.794 248.035 147.79 248.034 147.787 248.034C147.784 248.034 147.782 248.034 147.782 248.034C147.782 248.034 147.782 248.034 147.785 248.034C147.787 248.034 147.792 248.035 147.796 248.035C147.812 248.037 147.86 248.042 147.918 248.048L148.438 242.63ZM148.366 242.622L148.934 237.208C148.904 237.205 148.866 237.2 148.818 237.193L148.003 242.575L147.187 247.957C147.377 247.986 147.581 248.013 147.798 248.035L148.366 242.622ZM148.003 242.575L148.817 237.193C148.793 237.189 148.773 237.187 148.76 237.185C148.754 237.184 148.748 237.183 148.745 237.183C148.741 237.182 148.739 237.182 148.738 237.182C148.735 237.181 148.741 237.182 148.75 237.183C148.759 237.185 148.775 237.187 148.795 237.19L147.923 242.563L147.052 247.936C147.116 247.947 147.169 247.954 147.188 247.957C147.193 247.958 147.198 247.958 147.201 247.959C147.204 247.959 147.205 247.959 147.205 247.959C147.206 247.96 147.199 247.959 147.188 247.957L148.003 242.575ZM147.923 242.563L148.796 237.19C148.759 237.185 148.735 237.18 148.72 237.177C148.705 237.175 148.703 237.174 148.71 237.176L147.52 242.487L146.33 247.799C146.604 247.86 146.853 247.904 147.051 247.936L147.923 242.563ZM147.52 242.487L148.71 237.176C147.627 236.933 146.46 236.536 145.222 235.973L142.969 240.929L140.717 245.884C142.536 246.711 144.414 247.369 146.33 247.799L147.52 242.487ZM142.969 240.929L145.222 235.973C145.049 235.895 144.872 235.811 144.69 235.723L142.315 240.621L139.94 245.519C140.195 245.642 140.454 245.764 140.717 245.884L142.969 240.929ZM142.315 240.621L144.69 235.723C143.254 235.027 141.762 234.13 140.238 233.044L137.078 237.475L133.917 241.907C135.862 243.294 137.878 244.519 139.94 245.519L142.315 240.621ZM137.078 237.475L140.238 233.044C140.052 232.911 139.863 232.773 139.668 232.629L136.429 237.004L133.191 241.379C133.428 241.554 133.67 241.731 133.917 241.907L137.078 237.475ZM136.429 237.004L139.668 232.629C134.658 228.92 129.694 223.461 125.675 217.399L121.138 220.407L116.602 223.415C121.168 230.302 126.963 236.769 133.191 241.379L136.429 237.004ZM121.138 220.407L125.675 217.399C125.217 216.708 124.771 216.008 124.339 215.303L119.698 218.147L115.057 220.992C115.555 221.803 116.069 222.612 116.602 223.415L121.138 220.407ZM119.698 218.147L124.339 215.303C123.476 213.895 122.675 212.476 121.946 211.06L117.107 213.554L112.268 216.047C113.126 217.711 114.06 219.365 115.057 220.992L119.698 218.147ZM117.107 213.554L121.946 211.06C121.581 210.353 121.234 209.646 120.907 208.944L115.973 211.243L111.039 213.542C111.429 214.379 111.839 215.214 112.268 216.047L117.107 213.554ZM115.973 211.243L120.907 208.944C120.688 208.474 120.478 208.007 120.278 207.544L115.282 209.705L110.286 211.866C110.528 212.427 110.78 212.986 111.039 213.542L115.973 211.243ZM115.282 209.705L120.278 207.544C120.177 207.31 120.078 207.079 119.983 206.85L114.957 208.938L109.93 211.027C110.047 211.308 110.166 211.588 110.286 211.866L115.282 209.705ZM114.957 208.938L119.983 206.85C119.408 205.466 118.917 204.111 118.514 202.8L113.311 204.399L108.108 205.998C108.621 207.668 109.233 209.349 109.93 211.027L114.957 208.938ZM113.311 204.399L114.055 209.791L114.111 209.784L113.368 204.391L112.624 198.999L112.567 199.007L113.311 204.399ZM113.368 204.391L118.111 201.721C116.88 199.536 115.743 196.987 114.725 194.167L109.605 196.015L104.485 197.864C105.663 201.126 107.039 204.247 108.625 207.062L113.368 204.391ZM109.605 196.015L110.097 201.436C110.125 201.434 110.148 201.432 110.163 201.43C110.17 201.429 110.176 201.429 110.18 201.428C110.184 201.428 110.187 201.427 110.188 201.427C110.189 201.427 110.188 201.427 110.186 201.428C110.183 201.428 110.179 201.428 110.173 201.429C110.163 201.43 110.143 201.432 110.119 201.434L109.634 196.013L109.15 190.591C109.121 190.594 109.096 190.596 109.081 190.597C109.073 190.598 109.066 190.599 109.061 190.599C109.057 190.6 109.053 190.6 109.052 190.6C109.05 190.601 109.051 190.601 109.052 190.6C109.054 190.6 109.057 190.6 109.062 190.599C109.072 190.598 109.09 190.597 109.113 190.595L109.605 196.015ZM109.634 196.013L114.6 193.783C114.57 193.716 114.551 193.673 114.508 193.577L109.538 195.796L104.567 198.014C104.589 198.063 104.634 198.165 104.669 198.242L109.634 196.013ZM109.538 195.796L114.508 193.577C114.437 193.418 114.463 193.478 114.419 193.379L109.444 195.587L104.468 197.794C104.491 197.844 104.512 197.892 104.528 197.927C104.545 197.966 104.556 197.99 104.567 198.014L109.538 195.796ZM109.444 195.587L114.419 193.379C114.208 192.902 113.999 192.423 113.794 191.941L108.786 194.072L103.777 196.203C104.004 196.737 104.235 197.267 104.468 197.794L109.444 195.587ZM108.786 194.072L103.343 194.087C103.362 201.301 102.795 207.108 101.872 209.697L106.999 211.525L112.126 213.353C113.76 208.771 114.248 201.2 114.229 194.057L108.786 194.072ZM106.999 211.525L101.872 209.697C101.832 209.809 101.526 210.418 100.482 211.352C99.498 212.231 98.1229 213.16 96.4541 213.988L98.8736 218.864L101.293 223.74C103.675 222.558 105.902 221.109 107.738 219.467C109.513 217.881 111.244 215.826 112.126 213.354L106.999 211.525ZM98.8736 218.864L98.1306 224.256C98.0794 224.249 98.0318 224.242 97.9881 224.235C97.9445 224.228 97.9042 224.22 97.8676 224.213C97.8311 224.207 97.7977 224.2 97.7679 224.194C97.7381 224.188 97.7113 224.182 97.6879 224.176C97.6646 224.171 97.6441 224.166 97.6269 224.162C97.6098 224.158 97.5953 224.155 97.5841 224.152C97.5731 224.149 97.5643 224.147 97.5591 224.146C97.5544 224.145 97.5504 224.144 97.5515 224.144C97.5515 224.144 97.5527 224.144 97.5542 224.145C97.5557 224.145 97.5582 224.146 97.5612 224.146C97.5671 224.148 97.5766 224.15 97.5883 224.153C97.6001 224.156 97.6154 224.16 97.6332 224.164C97.651 224.168 97.6722 224.173 97.6963 224.178C97.7203 224.184 97.7478 224.19 97.7783 224.196C97.8088 224.202 97.8428 224.209 97.8801 224.216C97.954 224.23 98.0441 224.245 98.1472 224.26L98.8873 218.867L99.6273 213.474C99.7293 213.488 99.8183 213.504 99.8911 213.517C99.9277 213.524 99.9613 213.531 99.9912 213.537C100.021 213.543 100.048 213.549 100.071 213.554C100.095 213.56 100.116 213.564 100.133 213.568C100.15 213.572 100.165 213.576 100.176 213.579C100.187 213.581 100.196 213.584 100.201 213.585C100.206 213.586 100.21 213.587 100.209 213.587C100.209 213.587 100.209 213.587 100.209 213.587C100.208 213.587 100.208 213.587 100.207 213.586C100.205 213.586 100.203 213.585 100.2 213.585C100.194 213.583 100.185 213.581 100.173 213.578C100.162 213.575 100.146 213.572 100.129 213.567C100.111 213.563 100.09 213.558 100.066 213.553C100.042 213.548 100.015 213.542 99.9844 213.535C99.954 213.529 99.9201 213.522 99.883 213.515C99.8459 213.508 99.805 213.501 99.7607 213.494C99.7165 213.486 99.6683 213.479 99.6166 213.472L98.8736 218.864ZM98.8873 218.867L96.4772 213.986C95.8861 214.278 95.263 214.553 94.6161 214.806L96.5963 219.876L98.5764 224.946C99.5046 224.584 100.415 224.183 101.297 223.748L98.8873 218.867ZM96.5963 219.876L94.5933 214.814C91.0446 216.219 87.3425 216.746 84.4607 216.181C81.883 215.676 79.9292 214.346 78.8165 211.39L73.7222 213.307L68.628 215.225C71.2193 222.109 76.5228 225.718 82.3662 226.864C87.9054 227.95 93.7883 226.841 98.5992 224.937L96.5963 219.876ZM73.7222 213.307L78.7421 211.203C78.5633 210.776 78.3994 210.319 78.2556 209.825L73.0299 211.348L67.8041 212.871C68.0642 213.764 68.3661 214.61 68.7024 215.412L73.7222 213.307ZM73.0299 211.348L78.2557 209.826C75.6235 200.793 77.141 193.054 80.4354 186.807L75.6207 184.268L70.806 181.729C66.3355 190.206 64.3004 200.848 67.804 212.871L73.0299 211.348ZM75.6207 184.268L80.4086 186.858C80.9356 185.883 81.4966 184.933 82.0865 184.01L77.4996 181.079L72.9127 178.148C72.1843 179.288 71.4887 180.466 70.8327 181.679L75.6207 184.268ZM77.4996 181.079L82.0536 184.06C83.6821 181.573 85.5851 179.362 87.5838 177.472L83.8433 173.517L80.1028 169.563C77.5422 171.985 75.078 174.84 72.9456 178.097L77.4996 181.079ZM83.8433 173.517L87.775 177.282C88.7892 176.222 89.8273 175.273 90.8651 174.443L87.4654 170.192L84.0657 165.941C82.6344 167.086 81.2426 168.363 79.9116 169.753L83.8433 173.517ZM87.4654 170.192L87.0233 164.767C82.4469 165.14 78.5546 164.624 75.2808 163.224C72.0599 161.846 69.1243 159.482 66.602 155.628L62.0474 158.608L57.4928 161.589C61.095 167.093 65.6515 170.946 71 173.233C76.2957 175.498 82.0502 176.095 87.9075 175.617L87.4654 170.192ZM62.0474 158.608L66.6021 155.628C61.8107 148.306 59.1531 140.98 58.2854 133.964L52.8834 134.633L47.4813 135.301C48.5723 144.121 51.8795 153.011 57.4928 161.589L62.0474 158.608ZM52.8834 134.633L52.5667 129.199C51.4941 129.261 50.2469 129.278 48.7999 129.233L48.6304 134.674L48.461 140.114C50.1827 140.168 51.7579 140.151 53.2 140.067L52.8834 134.633ZM48.6304 134.674L48.7999 129.233C43.2411 129.06 40.0982 125.145 40.1999 121.88L34.7593 121.711L29.3188 121.541C28.9898 132.104 38.268 139.797 48.461 140.114L48.6304 134.674ZM34.7593 121.711L40.1999 121.88C40.3016 118.616 43.6817 114.904 49.2404 115.077L49.4097 109.637L49.579 104.196C39.3864 103.879 29.6479 110.979 29.3188 121.541L34.7593 121.711ZM49.4097 109.637L49.2403 115.077C51.8636 115.159 53.7865 115.388 55.1836 115.688L56.3287 110.367L57.4737 105.046C55.2376 104.564 52.6205 104.291 49.5792 104.196L49.4097 109.637ZM56.3287 110.367L61.3316 112.512C61.5544 111.992 61.7862 111.478 62.0276 110.97L57.1119 108.633L52.1961 106.295C51.8915 106.936 51.6018 107.578 51.3258 108.222L56.3287 110.367ZM57.1119 108.633L60.8246 104.652C60.5754 104.42 59.9981 103.752 59.1332 102.18L54.3648 104.805L49.5964 107.431C50.736 109.501 51.9665 111.277 53.3992 112.613L57.1119 108.633ZM54.3648 104.805L59.1332 102.18C57.7176 99.6089 57.0874 96.9896 56.9794 95.0683C56.9245 94.0928 57.0157 93.5012 57.0727 93.2849C57.2018 92.7941 57.0637 93.9994 55.5572 94.8288L52.9322 90.0604L50.3072 85.292C47.8079 86.6678 46.8994 89.1666 46.5448 90.5141C46.1178 92.1363 46.0117 93.9282 46.1101 95.6793C46.3087 99.2114 47.3875 103.418 49.5964 107.431L54.3648 104.805ZM52.9322 90.0604L55.5562 94.8293C54.1279 95.6152 53.0668 95.1766 53.4188 95.2769C53.5488 95.3139 53.9993 95.4863 54.7081 95.9591C56.1003 96.8878 57.8433 98.5452 59.2812 100.815L63.8795 97.9022L68.4777 94.9893C66.2541 91.4791 63.4513 88.7051 60.7491 86.9026C59.4107 86.0099 57.9269 85.2418 56.4024 84.8073C55.0999 84.4361 52.6643 83.995 50.3082 85.2914L52.9322 90.0604ZM63.8795 97.9022L68.1676 101.255C73.4183 94.539 81.3456 88.5335 92.3843 83.7454L90.2183 78.7518L88.0523 73.7581C75.7333 79.1015 66.1941 86.1042 59.5913 94.5495L63.8795 97.9022ZM90.2183 78.7518L92.3843 83.7454C93.516 83.2546 94.6502 82.7872 95.7849 82.3414L93.7945 77.2752L91.8041 72.209C90.5573 72.6988 89.3057 73.2144 88.0523 73.7581L90.2183 78.7518ZM93.7945 77.2752L95.8626 82.3102C103.714 79.0853 111.336 77.1265 118.477 76.9192L118.319 71.4783L118.161 66.0374C109.314 66.2942 100.363 68.6926 91.7264 72.2402L93.7945 77.2752ZM118.319 71.4783L123.635 70.307C123.159 68.1467 123.155 66.2782 123.347 65.0686C123.445 64.4508 123.563 64.1961 123.556 64.2109C123.548 64.2266 123.459 64.4057 123.236 64.6513C123.012 64.8978 122.571 65.3006 121.865 65.5889L119.807 60.5496L117.749 55.5104C115.553 56.4074 114.387 58.2044 113.816 59.3478C113.181 60.6198 112.807 62.0251 112.594 63.3667C112.166 66.0759 112.27 69.3238 113.003 72.6496L118.319 71.4783Z" fill="white" mask="url(#path-1-outside-1_3135_554)"/>
</g>
<g clip-path="url(#clip0_3135_554)">
<path d="M49.4103 109.637C65.2462 110.13 63.4963 115.686 63.281 122.599C63.0657 129.513 64.1451 135.157 48.6305 134.673C40.7546 134.428 34.5444 128.625 34.7598 121.711C34.9751 114.798 41.5344 109.392 49.4103 109.637Z" fill="#EAF3F7"/>
<path d="M64.6237 99.158C68.2482 105.742 65.9732 107.045 63.1404 108.605C60.3076 110.164 57.9897 111.389 54.3652 104.805C50.7407 98.2214 50.9462 91.1535 52.9317 90.0604C54.9172 88.9674 60.9992 92.574 64.6237 99.158Z" fill="#6A5B3D"/>
<path d="M130.371 70.9367C133.211 77.895 130.801 78.9268 127.807 80.1489C124.813 81.3709 122.37 82.3203 119.529 75.362C116.689 68.4037 117.709 61.4067 119.808 60.5502C121.906 59.6937 127.531 63.9784 130.371 70.9367Z" fill="#9C8866"/>
<path d="M131.588 73.0192C123.535 86.6635 129.165 88.1563 135.122 91.6721C141.079 95.1879 145.27 99.1184 153.16 85.7509C157.165 78.965 155.583 70.6138 149.626 67.098C143.669 63.5822 135.593 66.2332 131.588 73.0192Z" fill="#1F0D2D"/>
<path d="M138.295 76.9906C134.281 83.791 136.512 84.1959 138.772 85.5299C141.032 86.8638 142.547 88.4837 146.479 81.8212C148.475 78.439 148.261 74.6158 146.001 73.2819C143.741 71.9479 140.291 73.6084 138.295 76.9906Z" fill="#FFC0C1"/>
<path d="M49.4255 117.482C57.3183 117.728 56.4669 119.83 56.3852 122.453C56.3035 125.076 56.8622 127.222 49.1296 126.981C45.2042 126.859 42.0882 124.633 42.1699 122.01C42.2516 119.387 45.5 117.36 49.4255 117.482Z" fill="#FFAAAB"/>
<path d="M198.259 131.704C182.494 123.642 156.087 137.904 146.222 142.934C145.839 143.974 145.467 146.673 147.048 149.146C149.024 152.238 188.166 155.716 197.545 155.594C210.41 155.427 213.711 139.607 198.259 131.704Z" fill="url(#paint0_linear_3135_554)"/>
<path d="M127.881 218.09C114.349 216.733 96.4452 169.535 103.106 158.949C109.766 148.363 128.443 135.821 143.081 139.063C157.72 142.305 186.912 162.05 188.443 183.998C189.407 197.818 141.413 219.446 127.881 218.09Z" fill="#F3FAFD"/>
<path fill-rule="evenodd" clip-rule="evenodd" d="M128.235 144.813C131.25 144.008 134.498 143.491 137.984 143.335C157.757 142.451 188.947 159.529 188.538 182.337C188.511 183.87 187.971 185.566 187.014 187.37C185.463 185.218 182.641 176.758 178.099 169.679C168.928 155.386 164.353 153.536 149.592 149.989C140.069 147.701 129.078 145.993 128.235 144.813Z" fill="white"/>
<path d="M100.975 160.122C107.978 149.348 122.098 138.192 142.349 139.466C151.623 140.05 152.161 140.808 166.037 151.09C148.246 145.059 114.18 159.241 112.004 173.287C110.111 185.506 114.07 194.871 125.471 200.992C135.698 206.482 139.979 215.727 133.139 217.783C131.093 218.119 129.311 218.233 127.881 218.09C118.665 217.166 107.422 194.981 103.291 177.579C102.619 178.1 101.94 178.63 101.252 179.169C101.165 179.238 101.078 179.305 100.991 179.37C99.0303 170.987 98.6989 163.624 100.975 160.122Z" fill="url(#paint1_linear_3135_554)"/>
<path fill-rule="evenodd" clip-rule="evenodd" d="M109.605 196.016C112.771 195.729 115.85 196.194 118.227 198.03C124.483 202.861 130.887 200.696 139.172 198.656C147.456 196.616 151.764 196.935 157.835 200.178C159.676 201.162 161.31 202.793 162.654 204.485C147.347 211.734 131.122 216.69 123.666 214.347C117.629 212.448 112.907 205.162 109.605 196.016Z" fill="#1F0D2D"/>
<path d="M147.52 242.487C133.812 239.416 118.195 220.294 113.311 204.399L155.599 199.284C170.709 207.877 174.861 215.75 170.245 229.977C168.019 236.838 153.927 243.923 147.52 242.487Z" fill="#1F0D2D"/>
<path fill-rule="evenodd" clip-rule="evenodd" d="M116.439 204.02C122.674 209.129 129.843 213.897 146.236 218.037C141.785 223.761 140.316 240.374 156.388 241.177C153.203 242.369 150.104 242.942 147.848 242.552C147.738 242.53 147.628 242.51 147.52 242.486C147.474 242.476 147.429 242.464 147.383 242.453C133.707 239.285 118.178 220.241 113.31 204.399L116.439 204.02Z" fill="url(#paint2_linear_3135_554)"/>
<path fill-rule="evenodd" clip-rule="evenodd" d="M116.439 204.02C122.674 209.129 129.843 213.897 146.236 218.037C141.785 223.761 140.316 240.374 156.388 241.177C153.203 242.369 150.104 242.942 147.848 242.552C147.738 242.53 147.628 242.51 147.52 242.486C147.474 242.476 147.429 242.464 147.383 242.453C133.707 239.285 118.178 220.241 113.31 204.399L116.439 204.02Z" fill="url(#paint3_linear_3135_554)" fill-opacity="0.2"/>
<path d="M121.033 181.645C124.817 187.524 135.405 184.467 147.344 178.954C159.283 173.441 168.053 167.559 164.269 161.68C159.295 153.95 146.801 154.045 134.861 159.558C122.922 165.071 116.059 173.915 121.033 181.645Z" fill="#FFAAAB"/>
<path d="M102.294 161.59C102.229 161.626 102.158 161.654 102.086 161.671C102.013 161.689 101.941 161.697 101.872 161.694L98.584 161.532C98.4568 161.518 98.3553 161.467 98.2998 161.388C98.2442 161.309 98.2388 161.209 98.2845 161.107C98.3302 161.005 98.4237 160.909 98.5463 160.838C98.6689 160.768 98.8116 160.727 98.9459 160.725L102.227 160.87C102.296 160.873 102.359 160.886 102.414 160.909C102.468 160.932 102.513 160.965 102.544 161.005C102.576 161.045 102.594 161.091 102.598 161.142C102.602 161.192 102.592 161.246 102.568 161.299C102.547 161.354 102.512 161.408 102.465 161.458C102.418 161.508 102.36 161.553 102.294 161.59Z" fill="#FF8D8D"/>
<path d="M100.109 162.777C100.044 162.812 99.9737 162.839 99.9018 162.857C99.8299 162.874 99.7578 162.882 99.6896 162.879C99.6212 162.876 99.5581 162.862 99.5039 162.839C99.4498 162.816 99.4056 162.784 99.374 162.744C99.3424 162.704 99.3241 162.657 99.3199 162.607C99.3158 162.557 99.326 162.503 99.3499 162.45L100.477 159.918C100.501 159.865 100.537 159.813 100.585 159.765C100.633 159.717 100.691 159.674 100.756 159.639C100.821 159.603 100.892 159.576 100.964 159.559C101.036 159.542 101.109 159.535 101.177 159.538C101.313 159.545 101.425 159.593 101.489 159.673C101.552 159.753 101.561 159.857 101.514 159.964L100.384 162.502C100.337 162.608 100.238 162.706 100.109 162.777Z" fill="#FF8D8D"/>
<path d="M163.228 106.599C171.995 128.204 157.636 138.925 130.192 154.033C102.747 169.142 74.0059 178.906 63.1486 158.057C45.8813 124.9 53.4546 94.6983 90.2187 78.752C118.96 66.2854 147.44 67.691 163.228 106.599Z" fill="white"/>
<path fill-rule="evenodd" clip-rule="evenodd" d="M61.3415 101.363C61.4424 102.911 61.4028 104.824 61.1942 107.136C55.9341 165.437 86.42 163.978 129.492 146.904C141.168 142.275 148.894 139.97 153.495 139.348C147.556 144.138 139.651 148.825 130.192 154.033C102.476 169.291 75.5819 179.29 62.0475 158.608C49.0193 138.699 49.9045 117.803 61.3415 101.363Z" fill="#EAF3F7"/>
<path fill-rule="evenodd" clip-rule="evenodd" d="M61.3415 101.363C61.4424 102.911 61.4028 104.824 61.1942 107.136C55.9341 165.437 86.42 163.978 129.492 146.904C141.168 142.275 148.894 139.97 153.495 139.348C147.556 144.138 139.651 148.825 130.192 154.033C102.476 169.291 75.5819 179.29 62.0475 158.608C49.0193 138.699 49.9045 117.803 61.3415 101.363Z" fill="url(#paint4_linear_3135_554)" fill-opacity="0.2"/>
<path d="M89.4966 79.1475C113.977 67.8777 139.354 66.1696 156.764 93.5991C144.476 101.279 136.749 92.7506 130.414 91.1855C123.858 89.566 116.026 96.7095 105.875 94.8908C99.5474 93.757 93.3308 85.6482 89.4966 79.1475Z" fill="#1F0D2D"/>
<path d="M138.164 111.237L140.489 118.057" stroke="#123041" stroke-width="6.75588" stroke-linecap="round"/>
<path d="M85.8245 134.297L88.1501 141.118" stroke="#123041" stroke-width="6.75588" stroke-linecap="round"/>
<path d="M143.728 132.592C140.173 124.048 130.366 120.003 121.823 123.558L114.088 126.775C105.545 130.329 101.5 140.136 105.054 148.68C107.423 154.376 113.961 157.072 119.657 154.703L137.705 147.195C143.4 144.825 146.097 138.287 143.728 132.592Z" fill="#FFC0C1"/>
<path d="M143 130.842C139.847 123.265 131.15 119.678 123.573 122.83L114.088 126.775C105.545 130.329 101.5 140.136 105.054 148.68C107.423 154.376 113.961 157.072 119.657 154.703L135.955 147.923C142.617 145.151 145.771 137.504 143 130.842Z" fill="#FFC0C1"/>
<path d="M134.669 134.318L136.572 138.892" stroke="#123041" stroke-width="4.50392" stroke-linecap="round"/>
<path d="M117.081 141.253L118.983 145.827" stroke="#123041" stroke-width="4.50392" stroke-linecap="round"/>
<path d="M162.909 119.226L156.811 122.134" stroke="#FFC0C1" stroke-width="9.00784" stroke-linecap="round"/>
<path d="M86.0022 155.339L79.9039 158.246" stroke="#FFAAAB" stroke-width="9.00784" stroke-linecap="round"/>
<path d="M216.338 193.609C219.322 175.994 186.999 161.168 180.798 164.722C174.597 168.277 173.418 190.224 173.418 190.224C181.912 199.878 183.64 211.527 193.151 214.216C203.086 217.024 213.733 208.991 216.338 193.609Z" fill="white"/>
<path d="M177.493 168.495C183.497 175.682 189.033 178.051 202.335 180.474C190.465 188.351 189.446 199.091 191.98 206.555C193.286 210.401 195.661 213.007 198.026 214.738C196.407 214.84 194.769 214.673 193.151 214.215C186.127 212.23 179.556 205.764 173.177 198.63C172.116 196.125 171.342 193.523 170.939 190.94C170.343 187.115 170.742 183.509 171.578 180.352L176.964 169.179C177.292 168.738 177.489 168.5 177.493 168.495Z" fill="url(#paint5_linear_3135_554)"/>
<path d="M73.2841 211.984C67.0216 190.207 86.1587 173.365 96.1339 166.478C97.6099 165.883 101.334 164.907 104.423 165.759C108.283 166.824 110.594 201.442 106.998 211.525C104.056 219.776 78.374 229.684 73.2841 211.984Z" fill="white"/>
<path fill-rule="evenodd" clip-rule="evenodd" d="M77.4994 181.078C81.9713 174.248 88.1545 169.337 93.2783 166.843C100.466 163.346 104.834 165.37 105.45 166.485C105.856 167.219 106.266 168.654 106.658 170.583C104.517 169.398 101.006 166.066 97.7381 166.952C89.7665 169.114 81.6967 181.983 79.8667 187.691C76.4029 198.494 82.1319 216.568 98.8886 218.866C89.956 223.278 76.7027 223.953 73.0294 211.348C69.9615 200.82 71.7375 191.629 75.62 184.267C76.2116 183.173 76.8402 182.11 77.4994 181.078Z" fill="url(#paint6_linear_3135_554)"/>
<path fill-rule="evenodd" clip-rule="evenodd" d="M77.4994 181.078C81.9713 174.248 88.1545 169.337 93.2783 166.843C100.466 163.346 104.834 165.37 105.45 166.485C105.856 167.219 106.266 168.654 106.658 170.583C104.517 169.398 101.006 166.066 97.7381 166.952C89.7665 169.114 81.6967 181.983 79.8667 187.691C76.4029 198.494 82.1319 216.568 98.8886 218.866C89.956 223.278 76.7027 223.953 73.0294 211.348C69.9615 200.82 71.7375 191.629 75.62 184.267C76.2116 183.173 76.8402 182.11 77.4994 181.078Z" fill="url(#paint7_linear_3135_554)" fill-opacity="0.2"/>
<path fill-rule="evenodd" clip-rule="evenodd" d="M83.6635 173.707C87.7094 169.427 92.2708 166.468 96.4436 165.465C99.528 164.723 101.767 164.51 104.485 165.464C105.81 165.929 106.953 170.489 107.729 176.65C100.387 167.984 93.3918 167.903 83.6635 173.707Z" fill="#DAEAF1"/>
<path fill-rule="evenodd" clip-rule="evenodd" d="M104.09 145.528C103.826 144.217 104.514 142.774 105.852 142.779C106.942 142.782 108.021 143.259 108.759 144.174L112.36 148.644C113.054 149.506 114.1 150.018 115.207 149.99C126.304 149.707 135.115 145.877 142.715 139.516C143.428 138.919 144.267 139.673 143.961 140.552C142.952 143.45 140.761 145.922 137.705 147.193L119.657 154.702C113.961 157.071 107.424 154.375 105.054 148.679C104.623 147.643 104.303 146.588 104.09 145.528Z" fill="#FFAAAB"/>
</g>
<defs>
<filter id="filter0_d_3135_554" x="29.3103" y="54.9962" width="194.481" height="194.934" filterUnits="userSpaceOnUse" color-interpolation-filters="sRGB">
<feFlood flood-opacity="0" result="BackgroundImageFix"/>
<feColorMatrix in="SourceAlpha" type="matrix" values="0 0 0 0 0 0 0 0 0 0 0 0 0 0 0 0 0 0 127 0" result="hardAlpha"/>
<feOffset dx="1.8144" dy="1.8144"/>
<feColorMatrix type="matrix" values="0 0 0 0 0.584314 0 0 0 0 0.615686 0 0 0 0 0.647059 0 0 0 0.2 0"/>
<feBlend mode="normal" in2="BackgroundImageFix" result="effect1_dropShadow_3135_554"/>
<feBlend mode="normal" in="SourceGraphic" in2="effect1_dropShadow_3135_554" result="shape"/>
</filter>
<linearGradient id="paint0_linear_3135_554" x1="191.566" y1="135.089" x2="129.302" y2="130.119" gradientUnits="userSpaceOnUse">
<stop stop-color="#EAF3F7"/>
<stop offset="1" stop-color="#D7E9F1"/>
</linearGradient>
<linearGradient id="paint1_linear_3135_554" x1="123.267" y1="141.65" x2="174.354" y2="146.408" gradientUnits="userSpaceOnUse">
<stop stop-color="#DBEBF1"/>
<stop offset="1" stop-color="white"/>
</linearGradient>
<linearGradient id="paint2_linear_3135_554" x1="129.578" y1="228.759" x2="138.389" y2="210.538" gradientUnits="userSpaceOnUse">
<stop stop-color="#1F1E60"/>
<stop offset="1" stop-color="#1F0D2D"/>
</linearGradient>
<linearGradient id="paint3_linear_3135_554" x1="127.087" y1="218.538" x2="121.817" y2="232.851" gradientUnits="userSpaceOnUse">
<stop stop-color="#1F0D2D"/>
<stop offset="1" stop-color="#86D856"/>
</linearGradient>
<linearGradient id="paint4_linear_3135_554" x1="66.8634" y1="145.111" x2="61.1388" y2="157.624" gradientUnits="userSpaceOnUse">
<stop stop-color="white"/>
<stop offset="1" stop-color="#56BBD8"/>
</linearGradient>
<linearGradient id="paint5_linear_3135_554" x1="180.359" y1="211.509" x2="202.582" y2="172.294" gradientUnits="userSpaceOnUse">
<stop stop-color="#DBEBF1"/>
<stop offset="1" stop-color="white"/>
</linearGradient>
<linearGradient id="paint6_linear_3135_554" x1="75.2323" y1="216.244" x2="85.8599" y2="170.642" gradientUnits="userSpaceOnUse">
<stop stop-color="#EAF3F7"/>
<stop offset="1" stop-color="white"/>
</linearGradient>
<linearGradient id="paint7_linear_3135_554" x1="78.5473" y1="194.076" x2="72.6826" y2="204.839" gradientUnits="userSpaceOnUse">
<stop stop-color="white"/>
<stop offset="1" stop-color="#56BBD8"/>
</linearGradient>
<clipPath id="clip0_3135_554">
<rect width="199.664" height="221.041" fill="white" transform="translate(0.000244141 96.2905) rotate(-28.8331)"/>
</clipPath>
</defs>
</svg>
