<svg width="96" height="78" viewBox="0 0 96 78" fill="none" xmlns="http://www.w3.org/2000/svg">
<g filter="url(#filter0_d_3889_703)">
<path d="M77.3179 72.6036L82.2518 64.4787C82.3631 64.2727 82.5525 64.1167 82.7475 64.0109L91.3233 59.3388C92.2254 58.8432 92.2254 57.6013 91.3233 57.0778L82.7752 52.3778C82.558 52.272 82.3909 52.0938 82.2795 51.91L77.3234 43.813C76.8055 42.9554 75.4858 42.9554 74.9401 43.813L70.0059 51.9379C69.8946 52.1439 69.7054 52.2999 69.5105 52.4057L60.9344 57.0778C60.0323 57.5735 60.0323 58.8153 60.9344 59.3388L69.5105 64.0109C69.7277 64.1167 69.8946 64.295 70.0059 64.4787L74.9401 72.6036C75.4858 73.4612 76.8055 73.4612 77.3234 72.6036H77.3179Z" fill="white"/>
</g>
<path d="M76.9854 68.5724L80.5378 62.7225C80.618 62.5742 80.7544 62.4619 80.8947 62.3857L87.0693 59.0218C87.7188 58.6649 87.7188 57.7708 87.0693 57.3939L80.9147 54.0099C80.7583 53.9337 80.6379 53.8054 80.5578 53.6731L76.9893 47.8432C76.6165 47.2258 75.6663 47.2258 75.2734 47.8432L71.7208 53.6931C71.6406 53.8415 71.5044 53.9538 71.3641 54.03L65.1893 57.3939C64.5398 57.7507 64.5398 58.6449 65.1893 59.0218L71.3641 62.3857C71.5205 62.4619 71.6406 62.5902 71.7208 62.7225L75.2734 68.5724C75.6663 69.1899 76.6165 69.1899 76.9893 68.5724H76.9854Z" fill="#FFEEC9"/>
<g filter="url(#filter1_d_3889_703)">
<path d="M36.5103 48.8346L40.545 35.0088C40.6272 34.6636 40.8432 34.361 41.087 34.1298L51.8057 23.929C52.9317 22.8499 52.4447 21.0324 50.9191 20.62L36.5656 17.0936C36.2063 17.0239 35.8918 16.8286 35.6567 16.6033L25.2281 6.69673C24.1338 5.64472 22.2024 6.16224 21.74 7.63135L17.705 21.4572C17.6228 21.8024 17.4072 22.1049 17.1634 22.3361L6.44425 32.537C5.31831 33.6162 5.8053 35.4337 7.33088 35.846L21.7144 39.3206C22.0737 39.3903 22.3878 39.5857 22.6229 39.811L33.0303 49.767C34.1653 50.8081 36.0966 50.2906 36.5183 48.8324L36.5103 48.8346Z" fill="white"/>
</g>
<path d="M34.4425 43.066L37.3474 33.1114C37.4066 32.8629 37.5621 32.645 37.7376 32.4785L45.4551 25.134C46.2658 24.357 45.9152 23.0484 44.8168 22.7515L34.4823 20.2125C34.2236 20.1623 33.9971 20.0217 33.8279 19.8595L26.3192 12.7267C25.5314 11.9693 24.1408 12.3419 23.8079 13.3997L20.9026 23.3543C20.8435 23.6028 20.6882 23.8206 20.5127 23.9871L12.7949 31.3317C11.9842 32.1087 12.3348 33.4173 13.4333 33.7142L23.7894 36.2159C24.0481 36.2661 24.2743 36.4068 24.4435 36.569L31.9368 43.7374C32.754 44.4869 34.1446 44.1143 34.4482 43.0644L34.4425 43.066Z" fill="#C7E8AB"/>
<defs>
<filter id="filter0_d_3889_703" x="60.2578" y="43.1698" width="35.7422" height="34.077" filterUnits="userSpaceOnUse" color-interpolation-filters="sRGB">
<feFlood flood-opacity="0" result="BackgroundImageFix"/>
<feColorMatrix in="SourceAlpha" type="matrix" values="0 0 0 0 0 0 0 0 0 0 0 0 0 0 0 0 0 0 127 0" result="hardAlpha"/>
<feOffset dx="4" dy="4"/>
<feColorMatrix type="matrix" values="0 0 0 0 0.584314 0 0 0 0 0.615686 0 0 0 0 0.647059 0 0 0 0.2 0"/>
<feBlend mode="normal" in2="BackgroundImageFix" result="effect1_dropShadow_3889_703"/>
<feBlend mode="normal" in="SourceGraphic" in2="effect1_dropShadow_3889_703" result="shape"/>
</filter>
<filter id="filter1_d_3889_703" x="5.82764" y="6.14197" width="50.5945" height="48.1723" filterUnits="userSpaceOnUse" color-interpolation-filters="sRGB">
<feFlood flood-opacity="0" result="BackgroundImageFix"/>
<feColorMatrix in="SourceAlpha" type="matrix" values="0 0 0 0 0 0 0 0 0 0 0 0 0 0 0 0 0 0 127 0" result="hardAlpha"/>
<feOffset dx="4" dy="4"/>
<feColorMatrix type="matrix" values="0 0 0 0 0.584314 0 0 0 0 0.615686 0 0 0 0 0.647059 0 0 0 0.2 0"/>
<feBlend mode="normal" in2="BackgroundImageFix" result="effect1_dropShadow_3889_703"/>
<feBlend mode="normal" in="SourceGraphic" in2="effect1_dropShadow_3889_703" result="shape"/>
</filter>
</defs>
</svg>
