<svg width="636" height="1232" viewBox="0 0 636 1232" fill="none" xmlns="http://www.w3.org/2000/svg">
<rect width="636" height="1232" fill="white"/>
<path d="M82.5578 1134V1106.52H88.4778V1134H82.5578Z" fill="#005271"/>
<path d="M234.282 1134.48C230.762 1134.48 226.922 1132.6 225.082 1129.92L229.002 1126.08C229.882 1127.88 231.842 1129.12 233.682 1129.12C236.082 1129.12 237.842 1127.24 237.842 1124.56V1106.52H243.762V1125.04C243.762 1130.56 239.842 1134.48 234.282 1134.48Z" fill="#005271"/>
<path d="M374.436 1134V1106.52H380.316V1119.12L391.436 1106.52H398.596L387.876 1118.44L399.356 1134H392.196L383.756 1122.64L380.316 1126.32V1134H374.436Z" fill="#005271"/>
<path d="M532.338 1128.68H546.018V1134H526.418V1106.52H532.338V1128.68Z" fill="#005271"/>
<rect x="35" y="882" width="100" height="200" rx="20" fill="#005271"/>
<path d="M52.7059 944V916.784L46.9939 920.432L44.9779 916.928L53.6659 911.024H57.6019V944H52.7059ZM78.579 944.576C70.275 944.576 64.467 937.52 64.467 927.488C64.467 917.504 70.275 910.448 78.579 910.448C86.787 910.448 92.643 917.504 92.643 927.488C92.643 937.52 86.787 944.576 78.579 944.576ZM78.579 940.112C83.907 940.112 87.651 934.88 87.651 927.488C87.651 920.096 83.907 914.912 78.579 914.912C73.203 914.912 69.411 920.096 69.411 927.488C69.411 934.88 73.203 940.112 78.579 940.112ZM101.49 944L115.218 915.536H97.89V911.024H120.93V914.672L107.058 944H101.49ZM52.0028 1003V975.784L46.2908 979.432L44.2748 975.928L52.9628 970.024H56.8988V1003H52.0028ZM77.8759 1003.58C69.5719 1003.58 63.7639 996.52 63.7639 986.488C63.7639 976.504 69.5719 969.448 77.8759 969.448C86.0839 969.448 91.9399 976.504 91.9399 986.488C91.9399 996.52 86.0839 1003.58 77.8759 1003.58ZM77.8759 999.112C83.2039 999.112 86.9479 993.88 86.9479 986.488C86.9479 979.096 83.2039 973.912 77.8759 973.912C72.4999 973.912 68.7079 979.096 68.7079 986.488C68.7079 993.88 72.4999 999.112 77.8759 999.112ZM111.059 982.168C117.107 982.168 122.147 985.96 122.147 992.488C122.147 998.824 117.155 1003.58 110.195 1003.58C101.027 1003.58 97.1389 996.424 97.1389 987.016C97.1389 977.032 103.043 969.448 111.107 969.448C115.139 969.448 118.163 970.984 120.707 973.24L118.211 976.984C116.147 975.112 114.083 973.816 111.059 973.816C106.019 973.816 102.227 979.24 102.083 986.536C104.099 983.8 107.411 982.168 111.059 982.168ZM110.003 999.448C114.467 999.448 117.155 996.04 117.155 992.728C117.155 988.696 113.939 986.248 109.907 986.248C106.259 986.248 103.331 988.36 102.467 991.576C103.331 996.28 105.683 999.448 110.003 999.448ZM52.5887 1062V1034.78L46.8767 1038.43L44.8607 1034.93L53.5487 1029.02H57.4847V1062H52.5887ZM78.4618 1062.58C70.1578 1062.58 64.3498 1055.52 64.3498 1045.49C64.3498 1035.5 70.1578 1028.45 78.4618 1028.45C86.6698 1028.45 92.5258 1035.5 92.5258 1045.49C92.5258 1055.52 86.6698 1062.58 78.4618 1062.58ZM78.4618 1058.11C83.7898 1058.11 87.5338 1052.88 87.5338 1045.49C87.5338 1038.1 83.7898 1032.91 78.4618 1032.91C73.0858 1032.91 69.2938 1038.1 69.2938 1045.49C69.2938 1052.88 73.0858 1058.11 78.4618 1058.11ZM109.485 1062.58C104.253 1062.58 100.317 1060.46 97.4848 1057.39L100.509 1053.94C103.053 1056.58 106.125 1058.3 109.629 1058.3C113.901 1058.3 116.781 1055.42 116.781 1051.73C116.781 1047.94 113.853 1045.39 109.581 1045.39C106.845 1045.39 104.493 1046.3 102.525 1047.79L99.1168 1046.26L99.5968 1029.02H119.901V1033.54H104.205L103.917 1043.33C105.645 1042.18 107.853 1041.22 110.781 1041.22C116.685 1041.22 121.677 1044.96 121.677 1051.54C121.677 1058.21 116.637 1062.58 109.485 1062.58Z" fill="white"/>
<rect x="35" y="42" width="100" height="200" rx="20" fill="#005271"/>
<path d="M60.2137 104V76.784L54.5017 80.432L52.4857 76.928L61.1737 71.024H65.1097V104H60.2137ZM78.1668 104V76.784L72.4548 80.432L70.4388 76.928L79.1268 71.024H83.0628V104H78.1668ZM101.928 70.448C111.096 70.448 114.984 77.6 114.984 87.008C114.984 96.992 109.08 104.576 101.016 104.576C96.9839 104.576 93.9599 103.04 91.4159 100.784L93.9119 97.04C95.9759 98.912 98.0399 100.208 101.064 100.208C106.104 100.208 109.896 94.784 110.04 87.488C108.024 90.224 104.712 91.856 101.064 91.856C95.0159 91.856 89.9759 88.064 89.9759 81.536C89.9759 75.2 94.9679 70.448 101.928 70.448ZM102.216 87.776C105.864 87.776 108.792 85.664 109.656 82.448C108.792 77.744 106.44 74.576 102.12 74.576C97.6559 74.576 94.9679 77.984 94.9679 81.296C94.9679 85.328 98.1839 87.776 102.216 87.776ZM60.6356 163V135.784L54.9236 139.432L52.9076 135.928L61.5956 130.024H65.5316V163H60.6356ZM78.5887 163V135.784L72.8767 139.432L70.8607 135.928L79.5487 130.024H83.4847V163H78.5887ZM102.446 163.576C95.4858 163.576 90.0138 159.976 90.0138 154.312C90.0138 150.232 93.0858 147.304 97.0218 145.96C93.4218 144.52 90.8778 142.024 90.8778 138.28C90.8778 132.664 96.4938 129.448 102.446 129.448C108.59 129.448 114.062 132.808 114.062 138.28C114.062 142.216 111.278 144.664 107.918 145.96C111.854 147.352 114.878 150.28 114.878 154.312C114.878 160.024 109.358 163.576 102.446 163.576ZM102.446 144.136C105.47 143.944 109.214 142.12 109.214 138.808C109.214 135.88 106.238 133.72 102.446 133.72C98.6538 133.72 95.7258 135.88 95.7258 138.808C95.7258 142.216 99.5178 143.944 102.446 144.136ZM102.446 159.304C106.67 159.304 109.982 157.096 109.982 153.88C109.982 150.376 105.71 148.264 102.446 148.168C99.2298 148.264 94.9098 150.376 94.9098 153.88C94.9098 157.096 98.2218 159.304 102.446 159.304ZM60.9168 222V194.784L55.2048 198.432L53.1888 194.928L61.8768 189.024H65.8128V222H60.9168ZM78.8699 222V194.784L73.1579 198.432L71.1419 194.928L79.8299 189.024H83.7659V222H78.8699ZM94.2791 222L108.007 193.536H90.6791V189.024H113.719V192.672L99.8471 222H94.2791Z" fill="white"/>
<rect x="35" y="262" width="100" height="600" rx="20" fill="#005271"/>
<path d="M59.7137 339V311.784L54.0017 315.432L51.9857 311.928L60.6737 306.024H64.6097V339H59.7137ZM77.6668 339V311.784L71.9548 315.432L69.9388 311.928L78.6268 306.024H82.5628V339H77.6668ZM103.348 318.168C109.396 318.168 114.436 321.96 114.436 328.488C114.436 334.824 109.444 339.576 102.484 339.576C93.3159 339.576 89.4279 332.424 89.4279 323.016C89.4279 313.032 95.3319 305.448 103.396 305.448C107.428 305.448 110.452 306.984 112.996 309.24L110.5 312.984C108.436 311.112 106.372 309.816 103.348 309.816C98.3079 309.816 94.5159 315.24 94.3719 322.536C96.3879 319.8 99.6999 318.168 103.348 318.168ZM102.292 335.448C106.756 335.448 109.444 332.04 109.444 328.728C109.444 324.696 106.228 322.248 102.196 322.248C98.5479 322.248 95.6199 324.36 94.7559 327.576C95.6199 332.28 97.9719 335.448 102.292 335.448ZM60.2996 398V370.784L54.5876 374.432L52.5716 370.928L61.2596 365.024H65.1956V398H60.2996ZM78.2528 398V370.784L72.5408 374.432L70.5248 370.928L79.2128 365.024H83.1488V398H78.2528ZM101.774 398.576C96.5419 398.576 92.6059 396.464 89.7739 393.392L92.7979 389.936C95.3419 392.576 98.4139 394.304 101.918 394.304C106.19 394.304 109.07 391.424 109.07 387.728C109.07 383.936 106.142 381.392 101.87 381.392C99.1339 381.392 96.7819 382.304 94.8139 383.792L91.4059 382.256L91.8859 365.024H112.19V369.536H96.4939L96.2059 379.328C97.9339 378.176 100.142 377.216 103.07 377.216C108.974 377.216 113.966 380.96 113.966 387.536C113.966 394.208 108.926 398.576 101.774 398.576ZM59.6903 457V429.784L53.9783 433.432L51.9623 429.928L60.6503 424.024H64.5863V457H59.6903ZM77.6434 457V429.784L71.9314 433.432L69.9154 429.928L78.6034 424.024H82.5394V457H77.6434ZM105.389 457V449.416H89.0205L88.4925 445.528L104.477 424.024H110.237V445.144H114.989V449.416H110.237V457H105.389ZM93.8205 445.144H105.389V429.544L93.8205 445.144ZM60.6043 517V489.784L54.8923 493.432L52.8763 489.928L61.5643 484.024H65.5003V517H60.6043ZM78.5574 517V489.784L72.8454 493.432L70.8294 489.928L79.5174 484.024H83.4534V517H78.5574ZM101.839 517.576C96.2226 517.576 91.9506 515.128 89.4066 511.96L92.5266 508.744C94.7346 511.432 97.9506 513.208 101.743 513.208C106.015 513.208 108.751 510.952 108.751 507.64C108.751 504.232 105.919 502.456 100.975 502.504H97.3746V498.184L100.975 498.232C105.151 498.232 108.079 496.408 108.079 493.096C108.079 490.024 105.199 487.816 101.359 487.816C97.9026 487.816 95.3586 489.544 93.0546 492.232L90.0306 489.256C92.5746 485.944 96.3186 483.448 101.695 483.448C108.367 483.448 113.023 487.144 113.023 492.424C113.023 496.504 110.143 499.048 106.687 500.104C110.143 500.872 113.743 503.368 113.743 507.976C113.743 513.544 108.991 517.576 101.839 517.576ZM60.534 576V548.784L54.822 552.432L52.806 548.928L61.494 543.024H65.43V576H60.534ZM78.4871 576V548.784L72.7751 552.432L70.7591 548.928L79.4471 543.024H83.3831V576H78.4871ZM89.9123 576V572.016L102.008 562.032C106.424 558.336 108.104 555.504 108.104 552.528C108.104 548.928 105.128 546.816 101.864 546.816C98.2643 546.816 95.6243 548.736 93.3203 551.712L90.0563 548.832C92.9363 544.848 96.8243 542.448 102.056 542.448C108.2 542.448 113.096 546.432 113.096 552.432C113.096 556.848 110.984 560.352 105.32 564.96L97.5923 571.488H113.384V576H89.9123ZM65.8543 635V607.784L60.1423 611.432L58.1263 607.928L66.8143 602.024H70.7503V635H65.8543ZM83.8074 635V607.784L78.0954 611.432L76.0794 607.928L84.7674 602.024H88.7034V635H83.8074ZM101.761 635V607.784L96.0486 611.432L94.0326 607.928L102.721 602.024H106.657V635H101.761ZM58.1434 694V666.784L52.4314 670.432L50.4154 666.928L59.1034 661.024H63.0394V694H58.1434ZM76.0965 694V666.784L70.3845 670.432L68.3685 666.928L77.0565 661.024H80.9925V694H76.0965ZM101.97 694.576C93.6656 694.576 87.8576 687.52 87.8576 677.488C87.8576 667.504 93.6656 660.448 101.97 660.448C110.178 660.448 116.034 667.504 116.034 677.488C116.034 687.52 110.178 694.576 101.97 694.576ZM101.97 690.112C107.298 690.112 111.042 684.88 111.042 677.488C111.042 670.096 107.298 664.912 101.97 664.912C96.5936 664.912 92.8016 670.096 92.8016 677.488C92.8016 684.88 96.5936 690.112 101.97 690.112ZM52.0028 753V725.784L46.2908 729.432L44.2748 725.928L52.9628 720.024H56.8988V753H52.0028ZM77.8759 753.576C69.5719 753.576 63.7639 746.52 63.7639 736.488C63.7639 726.504 69.5719 719.448 77.8759 719.448C86.0839 719.448 91.9399 726.504 91.9399 736.488C91.9399 746.52 86.0839 753.576 77.8759 753.576ZM77.8759 749.112C83.2039 749.112 86.9479 743.88 86.9479 736.488C86.9479 729.096 83.2039 723.912 77.8759 723.912C72.4999 723.912 68.7079 729.096 68.7079 736.488C68.7079 743.88 72.4999 749.112 77.8759 749.112ZM109.139 719.448C118.307 719.448 122.195 726.6 122.195 736.008C122.195 745.992 116.291 753.576 108.227 753.576C104.195 753.576 101.171 752.04 98.6269 749.784L101.123 746.04C103.187 747.912 105.251 749.208 108.275 749.208C113.315 749.208 117.107 743.784 117.251 736.488C115.235 739.224 111.923 740.856 108.275 740.856C102.227 740.856 97.1869 737.064 97.1869 730.536C97.1869 724.2 102.179 719.448 109.139 719.448ZM109.427 736.776C113.075 736.776 116.003 734.664 116.867 731.448C116.003 726.744 113.651 723.576 109.331 723.576C104.867 723.576 102.179 726.984 102.179 730.296C102.179 734.328 105.395 736.776 109.427 736.776ZM52.4246 812V784.784L46.7126 788.432L44.6966 784.928L53.3846 779.024H57.3206V812H52.4246ZM78.2978 812.576C69.9938 812.576 64.1858 805.52 64.1858 795.488C64.1858 785.504 69.9938 778.448 78.2978 778.448C86.5058 778.448 92.3618 785.504 92.3618 795.488C92.3618 805.52 86.5058 812.576 78.2978 812.576ZM78.2978 808.112C83.6258 808.112 87.3698 802.88 87.3698 795.488C87.3698 788.096 83.6258 782.912 78.2978 782.912C72.9218 782.912 69.1298 788.096 69.1298 795.488C69.1298 802.88 72.9218 808.112 78.2978 808.112ZM109.657 812.576C102.697 812.576 97.2248 808.976 97.2248 803.312C97.2248 799.232 100.297 796.304 104.233 794.96C100.633 793.52 98.0888 791.024 98.0888 787.28C98.0888 781.664 103.705 778.448 109.657 778.448C115.801 778.448 121.273 781.808 121.273 787.28C121.273 791.216 118.489 793.664 115.129 794.96C119.065 796.352 122.089 799.28 122.089 803.312C122.089 809.024 116.569 812.576 109.657 812.576ZM109.657 793.136C112.681 792.944 116.425 791.12 116.425 787.808C116.425 784.88 113.449 782.72 109.657 782.72C105.865 782.72 102.937 784.88 102.937 787.808C102.937 791.216 106.729 792.944 109.657 793.136ZM109.657 808.304C113.881 808.304 117.193 806.096 117.193 802.88C117.193 799.376 112.921 797.264 109.657 797.168C106.441 797.264 102.121 799.376 102.121 802.88C102.121 806.096 105.433 808.304 109.657 808.304Z" fill="white"/>
<rect x="185" y="882" width="100" height="200" rx="20" fill="#005271"/>
<path d="M205.214 944V916.784L199.502 920.432L197.486 916.928L206.174 911.024H210.11V944H205.214ZM216.639 944V940.016L228.735 930.032C233.151 926.336 234.831 923.504 234.831 920.528C234.831 916.928 231.855 914.816 228.591 914.816C224.991 914.816 222.351 916.736 220.047 919.712L216.783 916.832C219.663 912.848 223.551 910.448 228.783 910.448C234.927 910.448 239.823 914.432 239.823 920.432C239.823 924.848 237.711 928.352 232.047 932.96L224.319 939.488H240.111V944H216.639ZM245.233 944V940.016L257.329 930.032C261.745 926.336 263.425 923.504 263.425 920.528C263.425 916.928 260.449 914.816 257.185 914.816C253.585 914.816 250.945 916.736 248.641 919.712L245.377 916.832C248.257 912.848 252.145 910.448 257.377 910.448C263.521 910.448 268.417 914.432 268.417 920.432C268.417 924.848 266.305 928.352 260.641 932.96L252.913 939.488H268.705V944H245.233ZM210.534 1003V975.784L204.822 979.432L202.806 975.928L211.494 970.024H215.43V1003H210.534ZM221.959 1003V999.016L234.055 989.032C238.471 985.336 240.151 982.504 240.151 979.528C240.151 975.928 237.175 973.816 233.911 973.816C230.311 973.816 227.671 975.736 225.367 978.712L222.103 975.832C224.983 971.848 228.871 969.448 234.103 969.448C240.247 969.448 245.143 973.432 245.143 979.432C245.143 983.848 243.031 987.352 237.367 991.96L229.639 998.488H245.431V1003H221.959ZM257.081 1003V975.784L251.369 979.432L249.353 975.928L258.041 970.024H261.977V1003H257.081ZM202.823 1062V1034.78L197.111 1038.43L195.095 1034.93L203.783 1029.02H207.719V1062H202.823ZM214.248 1062V1058.02L226.344 1048.03C230.76 1044.34 232.44 1041.5 232.44 1038.53C232.44 1034.93 229.464 1032.82 226.2 1032.82C222.6 1032.82 219.96 1034.74 217.656 1037.71L214.392 1034.83C217.272 1030.85 221.16 1028.45 226.392 1028.45C232.536 1028.45 237.432 1032.43 237.432 1038.43C237.432 1042.85 235.32 1046.35 229.656 1050.96L221.928 1057.49H237.72V1062H214.248ZM257.29 1062.58C248.986 1062.58 243.178 1055.52 243.178 1045.49C243.178 1035.5 248.986 1028.45 257.29 1028.45C265.498 1028.45 271.354 1035.5 271.354 1045.49C271.354 1055.52 265.498 1062.58 257.29 1062.58ZM257.29 1058.11C262.618 1058.11 266.362 1052.88 266.362 1045.49C266.362 1038.1 262.618 1032.91 257.29 1032.91C251.914 1032.91 248.122 1038.1 248.122 1045.49C248.122 1052.88 251.914 1058.11 257.29 1058.11Z" fill="white"/>
<rect x="185" y="42" width="100" height="200" rx="20" fill="#005271"/>
<path d="M204.94 104V76.784L199.228 80.432L197.212 76.928L205.9 71.024H209.836V104H204.94ZM228.221 104.576C222.605 104.576 218.333 102.128 215.789 98.96L218.909 95.744C221.117 98.432 224.333 100.208 228.125 100.208C232.397 100.208 235.133 97.952 235.133 94.64C235.133 91.232 232.301 89.456 227.357 89.504H223.757V85.184L227.357 85.232C231.533 85.232 234.461 83.408 234.461 80.096C234.461 77.024 231.581 74.816 227.741 74.816C224.285 74.816 221.741 76.544 219.437 79.232L216.413 76.256C218.957 72.944 222.701 70.448 228.077 70.448C234.749 70.448 239.405 74.144 239.405 79.424C239.405 83.504 236.525 86.048 233.069 87.104C236.525 87.872 240.125 90.368 240.125 94.976C240.125 100.544 235.373 104.576 228.221 104.576ZM261.139 104V96.416H244.771L244.243 92.528L260.227 71.024H265.987V92.144H270.739V96.416H265.987V104H261.139ZM249.571 92.144H261.139V76.544L249.571 92.144ZM205.854 163V135.784L200.142 139.432L198.126 135.928L206.814 130.024H210.75V163H205.854ZM229.135 163.576C223.519 163.576 219.247 161.128 216.703 157.96L219.823 154.744C222.031 157.432 225.247 159.208 229.039 159.208C233.311 159.208 236.047 156.952 236.047 153.64C236.047 150.232 233.215 148.456 228.271 148.504H224.671V144.184L228.271 144.232C232.447 144.232 235.375 142.408 235.375 139.096C235.375 136.024 232.495 133.816 228.655 133.816C225.199 133.816 222.655 135.544 220.351 138.232L217.327 135.256C219.871 131.944 223.615 129.448 228.991 129.448C235.663 129.448 240.319 133.144 240.319 138.424C240.319 142.504 237.439 145.048 233.983 146.104C237.439 146.872 241.039 149.368 241.039 153.976C241.039 159.544 236.287 163.576 229.135 163.576ZM257.589 163.576C251.973 163.576 247.701 161.128 245.157 157.96L248.277 154.744C250.485 157.432 253.701 159.208 257.493 159.208C261.765 159.208 264.501 156.952 264.501 153.64C264.501 150.232 261.669 148.456 256.725 148.504H253.125V144.184L256.725 144.232C260.901 144.232 263.829 142.408 263.829 139.096C263.829 136.024 260.949 133.816 257.109 133.816C253.653 133.816 251.109 135.544 248.805 138.232L245.781 135.256C248.325 131.944 252.069 129.448 257.445 129.448C264.117 129.448 268.773 133.144 268.773 138.424C268.773 142.504 265.893 145.048 262.437 146.104C265.893 146.872 269.493 149.368 269.493 153.976C269.493 159.544 264.741 163.576 257.589 163.576ZM205.784 222V194.784L200.072 198.432L198.056 194.928L206.744 189.024H210.68V222H205.784ZM229.065 222.576C223.449 222.576 219.177 220.128 216.633 216.96L219.753 213.744C221.961 216.432 225.177 218.208 228.969 218.208C233.241 218.208 235.977 215.952 235.977 212.64C235.977 209.232 233.145 207.456 228.201 207.504H224.601V203.184L228.201 203.232C232.377 203.232 235.305 201.408 235.305 198.096C235.305 195.024 232.425 192.816 228.585 192.816C225.129 192.816 222.585 194.544 220.281 197.232L217.257 194.256C219.801 190.944 223.545 188.448 228.921 188.448C235.593 188.448 240.249 192.144 240.249 197.424C240.249 201.504 237.369 204.048 233.913 205.104C237.369 205.872 240.969 208.368 240.969 212.976C240.969 218.544 236.217 222.576 229.065 222.576ZM245.662 222V218.016L257.758 208.032C262.174 204.336 263.854 201.504 263.854 198.528C263.854 194.928 260.878 192.816 257.614 192.816C254.014 192.816 251.374 194.736 249.07 197.712L245.806 194.832C248.686 190.848 252.574 188.448 257.806 188.448C263.95 188.448 268.846 192.432 268.846 198.432C268.846 202.848 266.734 206.352 261.07 210.96L253.342 217.488H269.134V222H245.662Z" fill="white"/>
<rect x="185" y="262" width="100" height="600" rx="20" fill="#005271"/>
<path d="M210.604 339V311.784L204.892 315.432L202.876 311.928L211.564 306.024H215.5V339H210.604ZM233.885 339.576C228.269 339.576 223.997 337.128 221.453 333.96L224.573 330.744C226.781 333.432 229.997 335.208 233.789 335.208C238.061 335.208 240.797 332.952 240.797 329.64C240.797 326.232 237.965 324.456 233.021 324.504H229.421V320.184L233.021 320.232C237.197 320.232 240.125 318.408 240.125 315.096C240.125 312.024 237.245 309.816 233.405 309.816C229.949 309.816 227.405 311.544 225.101 314.232L222.077 311.256C224.621 307.944 228.365 305.448 233.741 305.448C240.413 305.448 245.069 309.144 245.069 314.424C245.069 318.504 242.189 321.048 238.733 322.104C242.189 322.872 245.789 325.368 245.789 329.976C245.789 335.544 241.037 339.576 233.885 339.576ZM257.011 339V311.784L251.299 315.432L249.283 311.928L257.971 306.024H261.907V339H257.011ZM202.893 398V370.784L197.181 374.432L195.165 370.928L203.853 365.024H207.789V398H202.893ZM226.174 398.576C220.559 398.576 216.287 396.128 213.743 392.96L216.863 389.744C219.071 392.432 222.287 394.208 226.079 394.208C230.351 394.208 233.087 391.952 233.087 388.64C233.087 385.232 230.255 383.456 225.311 383.504H221.711V379.184L225.311 379.232C229.487 379.232 232.415 377.408 232.415 374.096C232.415 371.024 229.535 368.816 225.695 368.816C222.239 368.816 219.695 370.544 217.391 373.232L214.367 370.256C216.911 366.944 220.655 364.448 226.031 364.448C232.703 364.448 237.359 368.144 237.359 373.424C237.359 377.504 234.479 380.048 231.023 381.104C234.479 381.872 238.079 384.368 238.079 388.976C238.079 394.544 233.327 398.576 226.174 398.576ZM257.22 398.576C248.916 398.576 243.108 391.52 243.108 381.488C243.108 371.504 248.916 364.448 257.22 364.448C265.428 364.448 271.284 371.504 271.284 381.488C271.284 391.52 265.428 398.576 257.22 398.576ZM257.22 394.112C262.548 394.112 266.292 388.88 266.292 381.488C266.292 374.096 262.548 368.912 257.22 368.912C251.844 368.912 248.052 374.096 248.052 381.488C248.052 388.88 251.844 394.112 257.22 394.112ZM204.393 457V429.784L198.681 433.432L196.665 429.928L205.353 424.024H209.289V457H204.393ZM215.819 457V453.016L227.915 443.032C232.331 439.336 234.011 436.504 234.011 433.528C234.011 429.928 231.035 427.816 227.771 427.816C224.171 427.816 221.531 429.736 219.227 432.712L215.963 429.832C218.843 425.848 222.731 423.448 227.963 423.448C234.107 423.448 239.003 427.432 239.003 433.432C239.003 437.848 236.891 441.352 231.227 445.96L223.499 452.488H239.291V457H215.819ZM256.748 423.448C265.916 423.448 269.804 430.6 269.804 440.008C269.804 449.992 263.9 457.576 255.836 457.576C251.804 457.576 248.78 456.04 246.236 453.784L248.732 450.04C250.796 451.912 252.86 453.208 255.884 453.208C260.924 453.208 264.716 447.784 264.86 440.488C262.844 443.224 259.532 444.856 255.884 444.856C249.836 444.856 244.796 441.064 244.796 434.536C244.796 428.2 249.788 423.448 256.748 423.448ZM257.036 440.776C260.684 440.776 263.612 438.664 264.476 435.448C263.612 430.744 261.26 427.576 256.94 427.576C252.476 427.576 249.788 430.984 249.788 434.296C249.788 438.328 253.004 440.776 257.036 440.776ZM204.815 517V489.784L199.103 493.432L197.087 489.928L205.775 484.024H209.711V517H204.815ZM216.24 517V513.016L228.336 503.032C232.752 499.336 234.432 496.504 234.432 493.528C234.432 489.928 231.456 487.816 228.192 487.816C224.592 487.816 221.952 489.736 219.648 492.712L216.384 489.832C219.264 485.848 223.152 483.448 228.384 483.448C234.528 483.448 239.424 487.432 239.424 493.432C239.424 497.848 237.312 501.352 231.648 505.96L223.92 512.488H239.712V517H216.24ZM257.266 517.576C250.306 517.576 244.834 513.976 244.834 508.312C244.834 504.232 247.906 501.304 251.842 499.96C248.242 498.52 245.698 496.024 245.698 492.28C245.698 486.664 251.314 483.448 257.266 483.448C263.41 483.448 268.882 486.808 268.882 492.28C268.882 496.216 266.098 498.664 262.738 499.96C266.674 501.352 269.698 504.28 269.698 508.312C269.698 514.024 264.178 517.576 257.266 517.576ZM257.266 498.136C260.29 497.944 264.034 496.12 264.034 492.808C264.034 489.88 261.058 487.72 257.266 487.72C253.474 487.72 250.546 489.88 250.546 492.808C250.546 496.216 254.338 497.944 257.266 498.136ZM257.266 513.304C261.49 513.304 264.802 511.096 264.802 507.88C264.802 504.376 260.53 502.264 257.266 502.168C254.05 502.264 249.73 504.376 249.73 507.88C249.73 511.096 253.042 513.304 257.266 513.304ZM205.097 576V548.784L199.385 552.432L197.369 548.928L206.057 543.024H209.993V576H205.097ZM216.522 576V572.016L228.618 562.032C233.034 558.336 234.714 555.504 234.714 552.528C234.714 548.928 231.738 546.816 228.474 546.816C224.874 546.816 222.234 548.736 219.93 551.712L216.666 548.832C219.546 544.848 223.434 542.448 228.666 542.448C234.81 542.448 239.706 546.432 239.706 552.432C239.706 556.848 237.594 560.352 231.93 564.96L224.202 571.488H239.994V576H216.522ZM249.099 576L262.827 547.536H245.499V543.024H268.539V546.672L254.667 576H249.099ZM204.393 635V607.784L198.681 611.432L196.665 607.928L205.353 602.024H209.289V635H204.393ZM215.819 635V631.016L227.915 621.032C232.331 617.336 234.011 614.504 234.011 611.528C234.011 607.928 231.035 605.816 227.771 605.816C224.171 605.816 221.531 607.736 219.227 610.712L215.963 607.832C218.843 603.848 222.731 601.448 227.963 601.448C234.107 601.448 239.003 605.432 239.003 611.432C239.003 615.848 236.891 619.352 231.227 623.96L223.499 630.488H239.291V635H215.819ZM258.668 614.168C264.716 614.168 269.756 617.96 269.756 624.488C269.756 630.824 264.764 635.576 257.804 635.576C248.636 635.576 244.748 628.424 244.748 619.016C244.748 609.032 250.652 601.448 258.716 601.448C262.748 601.448 265.772 602.984 268.316 605.24L265.82 608.984C263.756 607.112 261.692 605.816 258.668 605.816C253.628 605.816 249.836 611.24 249.692 618.536C251.708 615.8 255.02 614.168 258.668 614.168ZM257.612 631.448C262.076 631.448 264.764 628.04 264.764 624.728C264.764 620.696 261.548 618.248 257.516 618.248C253.868 618.248 250.94 620.36 250.076 623.576C250.94 628.28 253.292 631.448 257.612 631.448ZM204.979 694V666.784L199.267 670.432L197.251 666.928L205.939 661.024H209.875V694H204.979ZM216.404 694V690.016L228.5 680.032C232.916 676.336 234.596 673.504 234.596 670.528C234.596 666.928 231.62 664.816 228.356 664.816C224.756 664.816 222.116 666.736 219.812 669.712L216.548 666.832C219.428 662.848 223.316 660.448 228.548 660.448C234.692 660.448 239.588 664.432 239.588 670.432C239.588 674.848 237.476 678.352 231.812 682.96L224.084 689.488H239.876V694H216.404ZM257.094 694.576C251.862 694.576 247.926 692.464 245.094 689.392L248.118 685.936C250.662 688.576 253.734 690.304 257.238 690.304C261.51 690.304 264.39 687.424 264.39 683.728C264.39 679.936 261.462 677.392 257.19 677.392C254.454 677.392 252.102 678.304 250.134 679.792L246.726 678.256L247.206 661.024H267.51V665.536H251.814L251.526 675.328C253.254 674.176 255.462 673.216 258.39 673.216C264.294 673.216 269.286 676.96 269.286 683.536C269.286 690.208 264.246 694.576 257.094 694.576ZM204.37 753V725.784L198.658 729.432L196.642 725.928L205.33 720.024H209.266V753H204.37ZM215.795 753V749.016L227.891 739.032C232.307 735.336 233.987 732.504 233.987 729.528C233.987 725.928 231.011 723.816 227.747 723.816C224.147 723.816 221.507 725.736 219.203 728.712L215.939 725.832C218.819 721.848 222.707 719.448 227.939 719.448C234.083 719.448 238.979 723.432 238.979 729.432C238.979 733.848 236.867 737.352 231.203 741.96L223.475 748.488H239.267V753H215.795ZM260.709 753V745.416H244.341L243.813 741.528L259.797 720.024H265.557V741.144H270.309V745.416H265.557V753H260.709ZM249.141 741.144H260.709V725.544L249.141 741.144ZM205.284 812V784.784L199.572 788.432L197.556 784.928L206.244 779.024H210.18V812H205.284ZM216.709 812V808.016L228.805 798.032C233.221 794.336 234.901 791.504 234.901 788.528C234.901 784.928 231.925 782.816 228.661 782.816C225.061 782.816 222.421 784.736 220.117 787.712L216.853 784.832C219.733 780.848 223.621 778.448 228.853 778.448C234.997 778.448 239.893 782.432 239.893 788.432C239.893 792.848 237.781 796.352 232.117 800.96L224.389 807.488H240.181V812H216.709ZM257.159 812.576C251.543 812.576 247.271 810.128 244.727 806.96L247.847 803.744C250.055 806.432 253.271 808.208 257.063 808.208C261.335 808.208 264.071 805.952 264.071 802.64C264.071 799.232 261.239 797.456 256.295 797.504H252.695V793.184L256.295 793.232C260.471 793.232 263.399 791.408 263.399 788.096C263.399 785.024 260.519 782.816 256.679 782.816C253.223 782.816 250.679 784.544 248.375 787.232L245.351 784.256C247.895 780.944 251.639 778.448 257.015 778.448C263.687 778.448 268.343 782.144 268.343 787.424C268.343 791.504 265.463 794.048 262.007 795.104C265.463 795.872 269.063 798.368 269.063 802.976C269.063 808.544 264.311 812.576 257.159 812.576Z" fill="white"/>
<rect x="335" y="882" width="100" height="200" rx="20" fill="#005271"/>
<path d="M355.667 944V916.784L349.955 920.432L347.939 916.928L356.627 911.024H360.563V944H355.667ZM378.948 944.576C373.332 944.576 369.06 942.128 366.516 938.96L369.636 935.744C371.844 938.432 375.06 940.208 378.852 940.208C383.124 940.208 385.86 937.952 385.86 934.64C385.86 931.232 383.028 929.456 378.084 929.504H374.484V925.184L378.084 925.232C382.26 925.232 385.188 923.408 385.188 920.096C385.188 917.024 382.308 914.816 378.468 914.816C375.012 914.816 372.468 916.544 370.164 919.232L367.14 916.256C369.684 912.944 373.428 910.448 378.804 910.448C385.476 910.448 390.132 914.144 390.132 919.424C390.132 923.504 387.252 926.048 383.796 927.104C387.252 927.872 390.852 930.368 390.852 934.976C390.852 940.544 386.1 944.576 378.948 944.576ZM399.529 944L413.257 915.536H395.929V911.024H418.969V914.672L405.097 944H399.529ZM354.964 1003V975.784L349.252 979.432L347.236 975.928L355.924 970.024H359.86V1003H354.964ZM378.245 1003.58C372.629 1003.58 368.357 1001.13 365.813 997.96L368.933 994.744C371.141 997.432 374.357 999.208 378.149 999.208C382.421 999.208 385.157 996.952 385.157 993.64C385.157 990.232 382.325 988.456 377.381 988.504H373.781V984.184L377.381 984.232C381.557 984.232 384.485 982.408 384.485 979.096C384.485 976.024 381.605 973.816 377.765 973.816C374.309 973.816 371.765 975.544 369.461 978.232L366.437 975.256C368.981 971.944 372.725 969.448 378.101 969.448C384.773 969.448 389.429 973.144 389.429 978.424C389.429 982.504 386.549 985.048 383.093 986.104C386.549 986.872 390.149 989.368 390.149 993.976C390.149 999.544 385.397 1003.58 378.245 1003.58ZM409.098 982.168C415.146 982.168 420.186 985.96 420.186 992.488C420.186 998.824 415.194 1003.58 408.234 1003.58C399.066 1003.58 395.178 996.424 395.178 987.016C395.178 977.032 401.082 969.448 409.146 969.448C413.178 969.448 416.202 970.984 418.746 973.24L416.25 976.984C414.186 975.112 412.122 973.816 409.098 973.816C404.058 973.816 400.266 979.24 400.122 986.536C402.138 983.8 405.45 982.168 409.098 982.168ZM408.042 999.448C412.506 999.448 415.194 996.04 415.194 992.728C415.194 988.696 411.978 986.248 407.946 986.248C404.298 986.248 401.37 988.36 400.506 991.576C401.37 996.28 403.722 999.448 408.042 999.448ZM355.55 1062V1034.78L349.838 1038.43L347.822 1034.93L356.51 1029.02H360.446V1062H355.55ZM378.831 1062.58C373.215 1062.58 368.943 1060.13 366.399 1056.96L369.519 1053.74C371.727 1056.43 374.943 1058.21 378.735 1058.21C383.007 1058.21 385.743 1055.95 385.743 1052.64C385.743 1049.23 382.911 1047.46 377.967 1047.5H374.367V1043.18L377.967 1043.23C382.143 1043.23 385.071 1041.41 385.071 1038.1C385.071 1035.02 382.191 1032.82 378.351 1032.82C374.895 1032.82 372.351 1034.54 370.047 1037.23L367.023 1034.26C369.567 1030.94 373.311 1028.45 378.687 1028.45C385.359 1028.45 390.015 1032.14 390.015 1037.42C390.015 1041.5 387.135 1044.05 383.679 1045.1C387.135 1045.87 390.735 1048.37 390.735 1052.98C390.735 1058.54 385.983 1062.58 378.831 1062.58ZM407.524 1062.58C402.292 1062.58 398.356 1060.46 395.524 1057.39L398.548 1053.94C401.092 1056.58 404.164 1058.3 407.668 1058.3C411.94 1058.3 414.82 1055.42 414.82 1051.73C414.82 1047.94 411.892 1045.39 407.62 1045.39C404.884 1045.39 402.532 1046.3 400.564 1047.79L397.156 1046.26L397.636 1029.02H417.94V1033.54H402.244L401.956 1043.33C403.684 1042.18 405.892 1041.22 408.82 1041.22C414.724 1041.22 419.716 1044.96 419.716 1051.54C419.716 1058.21 414.676 1062.58 407.524 1062.58Z" fill="white"/>
<rect x="335" y="42" width="100" height="200" rx="20" fill="#005271"/>
<path d="M354.05 104V76.784L348.338 80.432L346.322 76.928L355.01 71.024H358.946V104H354.05ZM381.795 104V96.416H365.427L364.899 92.528L380.883 71.024H386.643V92.144H391.395V96.416H386.643V104H381.795ZM370.227 92.144H381.795V76.544L370.227 92.144ZM408.092 70.448C417.26 70.448 421.148 77.6 421.148 87.008C421.148 96.992 415.244 104.576 407.18 104.576C403.148 104.576 400.124 103.04 397.58 100.784L400.076 97.04C402.14 98.912 404.204 100.208 407.228 100.208C412.268 100.208 416.06 94.784 416.204 87.488C414.188 90.224 410.876 91.856 407.228 91.856C401.18 91.856 396.14 88.064 396.14 81.536C396.14 75.2 401.132 70.448 408.092 70.448ZM408.38 87.776C412.028 87.776 414.956 85.664 415.82 82.448C414.956 77.744 412.604 74.576 408.284 74.576C403.82 74.576 401.132 77.984 401.132 81.296C401.132 85.328 404.348 87.776 408.38 87.776ZM354.472 163V135.784L348.76 139.432L346.744 135.928L355.432 130.024H359.368V163H354.472ZM382.217 163V155.416H365.849L365.321 151.528L381.305 130.024H387.065V151.144H391.817V155.416H387.065V163H382.217ZM370.649 151.144H382.217V135.544L370.649 151.144ZM408.61 163.576C401.65 163.576 396.178 159.976 396.178 154.312C396.178 150.232 399.25 147.304 403.186 145.96C399.586 144.52 397.042 142.024 397.042 138.28C397.042 132.664 402.658 129.448 408.61 129.448C414.754 129.448 420.226 132.808 420.226 138.28C420.226 142.216 417.442 144.664 414.082 145.96C418.018 147.352 421.042 150.28 421.042 154.312C421.042 160.024 415.522 163.576 408.61 163.576ZM408.61 144.136C411.634 143.944 415.378 142.12 415.378 138.808C415.378 135.88 412.402 133.72 408.61 133.72C404.818 133.72 401.89 135.88 401.89 138.808C401.89 142.216 405.682 143.944 408.61 144.136ZM408.61 159.304C412.834 159.304 416.146 157.096 416.146 153.88C416.146 150.376 411.874 148.264 408.61 148.168C405.394 148.264 401.074 150.376 401.074 153.88C401.074 157.096 404.386 159.304 408.61 159.304ZM354.753 222V194.784L349.041 198.432L347.025 194.928L355.713 189.024H359.649V222H354.753ZM382.498 222V214.416H366.13L365.602 210.528L381.586 189.024H387.346V210.144H392.098V214.416H387.346V222H382.498ZM370.93 210.144H382.498V194.544L370.93 210.144ZM400.443 222L414.171 193.536H396.843V189.024H419.883V192.672L406.011 222H400.443Z" fill="white"/>
<rect x="335" y="262" width="100" height="600" rx="20" fill="#005271"/>
<path d="M353.55 339V311.784L347.838 315.432L345.822 311.928L354.51 306.024H358.446V339H353.55ZM381.295 339V331.416H364.927L364.399 327.528L380.383 306.024H386.143V327.144H390.895V331.416H386.143V339H381.295ZM369.727 327.144H381.295V311.544L369.727 327.144ZM409.512 318.168C415.56 318.168 420.6 321.96 420.6 328.488C420.6 334.824 415.608 339.576 408.648 339.576C399.48 339.576 395.592 332.424 395.592 323.016C395.592 313.032 401.496 305.448 409.56 305.448C413.592 305.448 416.616 306.984 419.16 309.24L416.664 312.984C414.6 311.112 412.536 309.816 409.512 309.816C404.472 309.816 400.68 315.24 400.536 322.536C402.552 319.8 405.864 318.168 409.512 318.168ZM408.456 335.448C412.92 335.448 415.608 332.04 415.608 328.728C415.608 324.696 412.392 322.248 408.36 322.248C404.712 322.248 401.784 324.36 400.92 327.576C401.784 332.28 404.136 335.448 408.456 335.448ZM354.136 398V370.784L348.424 374.432L346.408 370.928L355.096 365.024H359.032V398H354.136ZM381.881 398V390.416H365.513L364.985 386.528L380.969 365.024H386.729V386.144H391.481V390.416H386.729V398H381.881ZM370.313 386.144H381.881V370.544L370.313 386.144ZM407.938 398.576C402.706 398.576 398.77 396.464 395.938 393.392L398.962 389.936C401.506 392.576 404.578 394.304 408.082 394.304C412.354 394.304 415.234 391.424 415.234 387.728C415.234 383.936 412.306 381.392 408.034 381.392C405.298 381.392 402.946 382.304 400.978 383.792L397.57 382.256L398.05 365.024H418.354V369.536H402.658L402.37 379.328C404.098 378.176 406.306 377.216 409.234 377.216C415.138 377.216 420.13 380.96 420.13 387.536C420.13 394.208 415.09 398.576 407.938 398.576ZM353.526 457V429.784L347.814 433.432L345.798 429.928L354.486 424.024H358.422V457H353.526ZM381.271 457V449.416H364.903L364.375 445.528L380.359 424.024H386.119V445.144H390.871V449.416H386.119V457H381.271ZM369.703 445.144H381.271V429.544L369.703 445.144ZM411.553 457V449.416H395.185L394.657 445.528L410.641 424.024H416.401V445.144H421.153V449.416H416.401V457H411.553ZM399.985 445.144H411.553V429.544L399.985 445.144ZM354.44 517V489.784L348.728 493.432L346.712 489.928L355.4 484.024H359.336V517H354.44ZM382.185 517V509.416H365.817L365.289 505.528L381.273 484.024H387.033V505.144H391.785V509.416H387.033V517H382.185ZM370.617 505.144H382.185V489.544L370.617 505.144ZM408.003 517.576C402.387 517.576 398.115 515.128 395.571 511.96L398.691 508.744C400.899 511.432 404.115 513.208 407.907 513.208C412.179 513.208 414.915 510.952 414.915 507.64C414.915 504.232 412.083 502.456 407.139 502.504H403.539V498.184L407.139 498.232C411.315 498.232 414.243 496.408 414.243 493.096C414.243 490.024 411.363 487.816 407.523 487.816C404.067 487.816 401.523 489.544 399.219 492.232L396.195 489.256C398.739 485.944 402.483 483.448 407.859 483.448C414.531 483.448 419.187 487.144 419.187 492.424C419.187 496.504 416.307 499.048 412.851 500.104C416.307 500.872 419.907 503.368 419.907 507.976C419.907 513.544 415.155 517.576 408.003 517.576ZM354.37 576V548.784L348.658 552.432L346.642 548.928L355.33 543.024H359.266V576H354.37ZM382.115 576V568.416H365.747L365.219 564.528L381.203 543.024H386.963V564.144H391.715V568.416H386.963V576H382.115ZM370.547 564.144H382.115V548.544L370.547 564.144ZM396.076 576V572.016L408.172 562.032C412.588 558.336 414.268 555.504 414.268 552.528C414.268 548.928 411.292 546.816 408.028 546.816C404.428 546.816 401.788 548.736 399.484 551.712L396.22 548.832C399.1 544.848 402.988 542.448 408.22 542.448C414.364 542.448 419.26 546.432 419.26 552.432C419.26 556.848 417.148 560.352 411.484 564.96L403.756 571.488H419.548V576H396.076ZM359.69 635V607.784L353.978 611.432L351.962 607.928L360.65 602.024H364.586V635H359.69ZM387.435 635V627.416H371.067L370.539 623.528L386.523 602.024H392.283V623.144H397.035V627.416H392.283V635H387.435ZM375.867 623.144H387.435V607.544L375.867 623.144ZM407.925 635V607.784L402.213 611.432L400.197 607.928L408.885 602.024H412.821V635H407.925ZM351.979 694V666.784L346.267 670.432L344.251 666.928L352.939 661.024H356.875V694H351.979ZM379.724 694V686.416H363.356L362.828 682.528L378.812 661.024H384.572V682.144H389.324V686.416H384.572V694H379.724ZM368.156 682.144H379.724V666.544L368.156 682.144ZM408.134 694.576C399.83 694.576 394.022 687.52 394.022 677.488C394.022 667.504 399.83 660.448 408.134 660.448C416.342 660.448 422.198 667.504 422.198 677.488C422.198 687.52 416.342 694.576 408.134 694.576ZM408.134 690.112C413.462 690.112 417.206 684.88 417.206 677.488C417.206 670.096 413.462 664.912 408.134 664.912C402.758 664.912 398.966 670.096 398.966 677.488C398.966 684.88 402.758 690.112 408.134 690.112ZM354.464 753V725.784L348.752 729.432L346.736 725.928L355.424 720.024H359.36V753H354.464ZM377.745 753.576C372.129 753.576 367.857 751.128 365.313 747.96L368.433 744.744C370.641 747.432 373.857 749.208 377.649 749.208C381.921 749.208 384.657 746.952 384.657 743.64C384.657 740.232 381.825 738.456 376.881 738.504H373.281V734.184L376.881 734.232C381.057 734.232 383.985 732.408 383.985 729.096C383.985 726.024 381.105 723.816 377.265 723.816C373.809 723.816 371.265 725.544 368.961 728.232L365.937 725.256C368.481 721.944 372.225 719.448 377.601 719.448C384.273 719.448 388.929 723.144 388.929 728.424C388.929 732.504 386.049 735.048 382.593 736.104C386.049 736.872 389.649 739.368 389.649 743.976C389.649 749.544 384.897 753.576 377.745 753.576ZM406.678 719.448C415.846 719.448 419.734 726.6 419.734 736.008C419.734 745.992 413.83 753.576 405.766 753.576C401.734 753.576 398.71 752.04 396.166 749.784L398.662 746.04C400.726 747.912 402.79 749.208 405.814 749.208C410.854 749.208 414.646 743.784 414.79 736.488C412.774 739.224 409.462 740.856 405.814 740.856C399.766 740.856 394.726 737.064 394.726 730.536C394.726 724.2 399.718 719.448 406.678 719.448ZM406.966 736.776C410.614 736.776 413.542 734.664 414.406 731.448C413.542 726.744 411.19 723.576 406.87 723.576C402.406 723.576 399.718 726.984 399.718 730.296C399.718 734.328 402.934 736.776 406.966 736.776ZM354.886 812V784.784L349.174 788.432L347.158 784.928L355.846 779.024H359.782V812H354.886ZM378.167 812.576C372.551 812.576 368.279 810.128 365.735 806.96L368.855 803.744C371.063 806.432 374.279 808.208 378.071 808.208C382.343 808.208 385.079 805.952 385.079 802.64C385.079 799.232 382.247 797.456 377.303 797.504H373.703V793.184L377.303 793.232C381.479 793.232 384.407 791.408 384.407 788.096C384.407 785.024 381.527 782.816 377.687 782.816C374.231 782.816 371.687 784.544 369.383 787.232L366.359 784.256C368.903 780.944 372.647 778.448 378.023 778.448C384.695 778.448 389.351 782.144 389.351 787.424C389.351 791.504 386.471 794.048 383.015 795.104C386.471 795.872 390.071 798.368 390.071 802.976C390.071 808.544 385.319 812.576 378.167 812.576ZM407.196 812.576C400.236 812.576 394.764 808.976 394.764 803.312C394.764 799.232 397.836 796.304 401.772 794.96C398.172 793.52 395.628 791.024 395.628 787.28C395.628 781.664 401.244 778.448 407.196 778.448C413.34 778.448 418.812 781.808 418.812 787.28C418.812 791.216 416.028 793.664 412.668 794.96C416.604 796.352 419.628 799.28 419.628 803.312C419.628 809.024 414.108 812.576 407.196 812.576ZM407.196 793.136C410.22 792.944 413.964 791.12 413.964 787.808C413.964 784.88 410.988 782.72 407.196 782.72C403.404 782.72 400.476 784.88 400.476 787.808C400.476 791.216 404.268 792.944 407.196 793.136ZM407.196 808.304C411.42 808.304 414.732 806.096 414.732 802.88C414.732 799.376 410.46 797.264 407.196 797.168C403.98 797.264 399.66 799.376 399.66 802.88C399.66 806.096 402.972 808.304 407.196 808.304Z" fill="white"/>
<rect x="485" y="882" width="100" height="200" rx="20" fill="#005271"/>
<path d="M505.479 944V916.784L499.767 920.432L497.751 916.928L506.439 911.024H510.375V944H505.479ZM529 944.576C523.768 944.576 519.832 942.464 517 939.392L520.024 935.936C522.568 938.576 525.64 940.304 529.144 940.304C533.416 940.304 536.296 937.424 536.296 933.728C536.296 929.936 533.368 927.392 529.096 927.392C526.36 927.392 524.008 928.304 522.04 929.792L518.632 928.256L519.112 911.024H539.416V915.536H523.72L523.432 925.328C525.16 924.176 527.368 923.216 530.296 923.216C536.2 923.216 541.192 926.96 541.192 933.536C541.192 940.208 536.152 944.576 529 944.576ZM545.967 944V940.016L558.063 930.032C562.479 926.336 564.159 923.504 564.159 920.528C564.159 916.928 561.183 914.816 557.919 914.816C554.319 914.816 551.679 916.736 549.375 919.712L546.111 916.832C548.991 912.848 552.879 910.448 558.111 910.448C564.255 910.448 569.151 914.432 569.151 920.432C569.151 924.848 567.039 928.352 561.375 932.96L553.647 939.488H569.439V944H545.967ZM510.8 1003V975.784L505.088 979.432L503.072 975.928L511.76 970.024H515.696V1003H510.8ZM534.321 1003.58C529.089 1003.58 525.153 1001.46 522.321 998.392L525.345 994.936C527.889 997.576 530.961 999.304 534.465 999.304C538.737 999.304 541.617 996.424 541.617 992.728C541.617 988.936 538.689 986.392 534.417 986.392C531.681 986.392 529.329 987.304 527.361 988.792L523.953 987.256L524.433 970.024H544.737V974.536H529.041L528.753 984.328C530.481 983.176 532.689 982.216 535.617 982.216C541.521 982.216 546.513 985.96 546.513 992.536C546.513 999.208 541.473 1003.58 534.321 1003.58ZM557.815 1003V975.784L552.103 979.432L550.087 975.928L558.775 970.024H562.711V1003H557.815ZM503.089 1062V1034.78L497.377 1038.43L495.361 1034.93L504.049 1029.02H507.985V1062H503.089ZM526.61 1062.58C521.378 1062.58 517.442 1060.46 514.61 1057.39L517.634 1053.94C520.178 1056.58 523.25 1058.3 526.754 1058.3C531.026 1058.3 533.906 1055.42 533.906 1051.73C533.906 1047.94 530.978 1045.39 526.706 1045.39C523.97 1045.39 521.618 1046.3 519.65 1047.79L516.242 1046.26L516.722 1029.02H537.026V1033.54H521.33L521.042 1043.33C522.77 1042.18 524.978 1041.22 527.906 1041.22C533.81 1041.22 538.802 1044.96 538.802 1051.54C538.802 1058.21 533.762 1062.58 526.61 1062.58ZM558.024 1062.58C549.72 1062.58 543.912 1055.52 543.912 1045.49C543.912 1035.5 549.72 1028.45 558.024 1028.45C566.232 1028.45 572.088 1035.5 572.088 1045.49C572.088 1055.52 566.232 1062.58 558.024 1062.58ZM558.024 1058.11C563.352 1058.11 567.096 1052.88 567.096 1045.49C567.096 1038.1 563.352 1032.91 558.024 1032.91C552.648 1032.91 548.856 1038.1 548.856 1045.49C548.856 1052.88 552.648 1058.11 558.024 1058.11Z" fill="white"/>
<rect x="485" y="42" width="100" height="200" rx="20" fill="#005271"/>
<path d="M504.05 104V76.784L498.338 80.432L496.322 76.928L505.01 71.024H508.946V104H504.05ZM529.731 83.168C535.779 83.168 540.819 86.96 540.819 93.488C540.819 99.824 535.827 104.576 528.867 104.576C519.699 104.576 515.811 97.424 515.811 88.016C515.811 78.032 521.715 70.448 529.779 70.448C533.811 70.448 536.835 71.984 539.379 74.24L536.883 77.984C534.819 76.112 532.755 74.816 529.731 74.816C524.691 74.816 520.899 80.24 520.755 87.536C522.771 84.8 526.083 83.168 529.731 83.168ZM528.675 100.448C533.139 100.448 535.827 97.04 535.827 93.728C535.827 89.696 532.611 87.248 528.579 87.248C524.931 87.248 522.003 89.36 521.139 92.576C522.003 97.28 524.355 100.448 528.675 100.448ZM562.029 104V96.416H545.661L545.133 92.528L561.117 71.024H566.877V92.144H571.629V96.416H566.877V104H562.029ZM550.461 92.144H562.029V76.544L550.461 92.144ZM504.964 163V135.784L499.252 139.432L497.236 135.928L505.924 130.024H509.86V163H504.964ZM530.645 142.168C536.693 142.168 541.733 145.96 541.733 152.488C541.733 158.824 536.741 163.576 529.781 163.576C520.613 163.576 516.725 156.424 516.725 147.016C516.725 137.032 522.629 129.448 530.693 129.448C534.725 129.448 537.749 130.984 540.293 133.24L537.797 136.984C535.733 135.112 533.669 133.816 530.645 133.816C525.605 133.816 521.813 139.24 521.669 146.536C523.685 143.8 526.997 142.168 530.645 142.168ZM529.589 159.448C534.053 159.448 536.741 156.04 536.741 152.728C536.741 148.696 533.525 146.248 529.493 146.248C525.845 146.248 522.917 148.36 522.053 151.576C522.917 156.28 525.269 159.448 529.589 159.448ZM558.479 163.576C552.863 163.576 548.591 161.128 546.047 157.96L549.167 154.744C551.375 157.432 554.591 159.208 558.383 159.208C562.655 159.208 565.391 156.952 565.391 153.64C565.391 150.232 562.559 148.456 557.615 148.504H554.015V144.184L557.615 144.232C561.791 144.232 564.719 142.408 564.719 139.096C564.719 136.024 561.839 133.816 557.999 133.816C554.543 133.816 551.999 135.544 549.695 138.232L546.671 135.256C549.215 131.944 552.959 129.448 558.335 129.448C565.007 129.448 569.663 133.144 569.663 138.424C569.663 142.504 566.783 145.048 563.327 146.104C566.783 146.872 570.383 149.368 570.383 153.976C570.383 159.544 565.631 163.576 558.479 163.576ZM504.893 222V194.784L499.181 198.432L497.165 194.928L505.853 189.024H509.789V222H504.893ZM530.575 201.168C536.623 201.168 541.663 204.96 541.663 211.488C541.663 217.824 536.671 222.576 529.711 222.576C520.543 222.576 516.655 215.424 516.655 206.016C516.655 196.032 522.559 188.448 530.623 188.448C534.655 188.448 537.679 189.984 540.223 192.24L537.727 195.984C535.663 194.112 533.599 192.816 530.575 192.816C525.535 192.816 521.743 198.24 521.599 205.536C523.615 202.8 526.927 201.168 530.575 201.168ZM529.519 218.448C533.983 218.448 536.671 215.04 536.671 211.728C536.671 207.696 533.455 205.248 529.423 205.248C525.775 205.248 522.847 207.36 521.983 210.576C522.847 215.28 525.199 218.448 529.519 218.448ZM546.553 222V218.016L558.649 208.032C563.065 204.336 564.745 201.504 564.745 198.528C564.745 194.928 561.769 192.816 558.505 192.816C554.905 192.816 552.265 194.736 549.961 197.712L546.697 194.832C549.577 190.848 553.465 188.448 558.697 188.448C564.841 188.448 569.737 192.432 569.737 198.432C569.737 202.848 567.625 206.352 561.961 210.96L554.233 217.488H570.025V222H546.553Z" fill="white"/>
<rect x="485" y="262" width="100" height="600" rx="20" fill="#005271"/>
<path d="M509.714 339V311.784L504.002 315.432L501.986 311.928L510.674 306.024H514.61V339H509.714ZM535.395 318.168C541.443 318.168 546.483 321.96 546.483 328.488C546.483 334.824 541.491 339.576 534.531 339.576C525.363 339.576 521.475 332.424 521.475 323.016C521.475 313.032 527.379 305.448 535.443 305.448C539.475 305.448 542.499 306.984 545.043 309.24L542.547 312.984C540.483 311.112 538.419 309.816 535.395 309.816C530.355 309.816 526.563 315.24 526.419 322.536C528.435 319.8 531.747 318.168 535.395 318.168ZM534.339 335.448C538.803 335.448 541.491 332.04 541.491 328.728C541.491 324.696 538.275 322.248 534.243 322.248C530.595 322.248 527.667 324.36 526.803 327.576C527.667 332.28 530.019 335.448 534.339 335.448ZM557.901 339V311.784L552.189 315.432L550.173 311.928L558.861 306.024H562.797V339H557.901ZM502.003 398V370.784L496.291 374.432L494.275 370.928L502.963 365.024H506.899V398H502.003ZM527.684 377.168C533.732 377.168 538.772 380.96 538.772 387.488C538.772 393.824 533.78 398.576 526.82 398.576C517.652 398.576 513.764 391.424 513.764 382.016C513.764 372.032 519.668 364.448 527.732 364.448C531.764 364.448 534.788 365.984 537.332 368.24L534.836 371.984C532.772 370.112 530.708 368.816 527.684 368.816C522.644 368.816 518.852 374.24 518.708 381.536C520.724 378.8 524.036 377.168 527.684 377.168ZM526.628 394.448C531.092 394.448 533.78 391.04 533.78 387.728C533.78 383.696 530.564 381.248 526.532 381.248C522.884 381.248 519.956 383.36 519.092 386.576C519.956 391.28 522.308 394.448 526.628 394.448ZM558.11 398.576C549.806 398.576 543.998 391.52 543.998 381.488C543.998 371.504 549.806 364.448 558.11 364.448C566.318 364.448 572.174 371.504 572.174 381.488C572.174 391.52 566.318 398.576 558.11 398.576ZM558.11 394.112C563.438 394.112 567.182 388.88 567.182 381.488C567.182 374.096 563.438 368.912 558.11 368.912C552.734 368.912 548.942 374.096 548.942 381.488C548.942 388.88 552.734 394.112 558.11 394.112ZM504.159 457V429.784L498.447 433.432L496.431 429.928L505.119 424.024H509.055V457H504.159ZM527.68 457.576C522.448 457.576 518.512 455.464 515.68 452.392L518.704 448.936C521.248 451.576 524.32 453.304 527.824 453.304C532.096 453.304 534.976 450.424 534.976 446.728C534.976 442.936 532.048 440.392 527.776 440.392C525.04 440.392 522.688 441.304 520.72 442.792L517.312 441.256L517.792 424.024H538.096V428.536H522.4L522.112 438.328C523.84 437.176 526.048 436.216 528.976 436.216C534.88 436.216 539.872 439.96 539.872 446.536C539.872 453.208 534.832 457.576 527.68 457.576ZM556.983 423.448C566.151 423.448 570.039 430.6 570.039 440.008C570.039 449.992 564.135 457.576 556.071 457.576C552.039 457.576 549.015 456.04 546.471 453.784L548.967 450.04C551.031 451.912 553.095 453.208 556.119 453.208C561.159 453.208 564.951 447.784 565.095 440.488C563.079 443.224 559.767 444.856 556.119 444.856C550.071 444.856 545.031 441.064 545.031 434.536C545.031 428.2 550.023 423.448 556.983 423.448ZM557.271 440.776C560.919 440.776 563.847 438.664 564.711 435.448C563.847 430.744 561.495 427.576 557.175 427.576C552.711 427.576 550.023 430.984 550.023 434.296C550.023 438.328 553.239 440.776 557.271 440.776ZM504.581 517V489.784L498.869 493.432L496.853 489.928L505.541 484.024H509.477V517H504.581ZM528.102 517.576C522.87 517.576 518.934 515.464 516.102 512.392L519.126 508.936C521.67 511.576 524.742 513.304 528.246 513.304C532.518 513.304 535.398 510.424 535.398 506.728C535.398 502.936 532.47 500.392 528.198 500.392C525.462 500.392 523.11 501.304 521.142 502.792L517.734 501.256L518.214 484.024H538.518V488.536H522.822L522.534 498.328C524.262 497.176 526.47 496.216 529.398 496.216C535.302 496.216 540.294 499.96 540.294 506.536C540.294 513.208 535.254 517.576 528.102 517.576ZM557.501 517.576C550.541 517.576 545.069 513.976 545.069 508.312C545.069 504.232 548.141 501.304 552.077 499.96C548.477 498.52 545.933 496.024 545.933 492.28C545.933 486.664 551.549 483.448 557.501 483.448C563.645 483.448 569.117 486.808 569.117 492.28C569.117 496.216 566.333 498.664 562.973 499.96C566.909 501.352 569.932 504.28 569.932 508.312C569.932 514.024 564.413 517.576 557.501 517.576ZM557.501 498.136C560.525 497.944 564.269 496.12 564.269 492.808C564.269 489.88 561.293 487.72 557.501 487.72C553.709 487.72 550.781 489.88 550.781 492.808C550.781 496.216 554.573 497.944 557.501 498.136ZM557.501 513.304C561.725 513.304 565.037 511.096 565.037 507.88C565.037 504.376 560.765 502.264 557.501 502.168C554.285 502.264 549.965 504.376 549.965 507.88C549.965 511.096 553.277 513.304 557.501 513.304ZM504.862 576V548.784L499.15 552.432L497.134 548.928L505.822 543.024H509.758V576H504.862ZM528.383 576.576C523.151 576.576 519.215 574.464 516.383 571.392L519.407 567.936C521.951 570.576 525.023 572.304 528.527 572.304C532.799 572.304 535.679 569.424 535.679 565.728C535.679 561.936 532.751 559.392 528.479 559.392C525.743 559.392 523.391 560.304 521.423 561.792L518.015 560.256L518.495 543.024H538.799V547.536H523.103L522.815 557.328C524.543 556.176 526.751 555.216 529.679 555.216C535.583 555.216 540.575 558.96 540.575 565.536C540.575 572.208 535.535 576.576 528.383 576.576ZM549.334 576L563.062 547.536H545.734V543.024H568.774V546.672L554.902 576H549.334ZM504.159 635V607.784L498.447 611.432L496.431 607.928L505.119 602.024H509.055V635H504.159ZM527.68 635.576C522.448 635.576 518.512 633.464 515.68 630.392L518.704 626.936C521.248 629.576 524.32 631.304 527.824 631.304C532.096 631.304 534.976 628.424 534.976 624.728C534.976 620.936 532.048 618.392 527.776 618.392C525.04 618.392 522.688 619.304 520.72 620.792L517.312 619.256L517.792 602.024H538.096V606.536H522.4L522.112 616.328C523.84 615.176 526.048 614.216 528.976 614.216C534.88 614.216 539.872 617.96 539.872 624.536C539.872 631.208 534.832 635.576 527.68 635.576ZM558.903 614.168C564.951 614.168 569.991 617.96 569.991 624.488C569.991 630.824 564.999 635.576 558.039 635.576C548.871 635.576 544.983 628.424 544.983 619.016C544.983 609.032 550.887 601.448 558.951 601.448C562.983 601.448 566.007 602.984 568.551 605.24L566.055 608.984C563.991 607.112 561.927 605.816 558.903 605.816C553.863 605.816 550.071 611.24 549.927 618.536C551.943 615.8 555.255 614.168 558.903 614.168ZM557.847 631.448C562.311 631.448 564.999 628.04 564.999 624.728C564.999 620.696 561.783 618.248 557.751 618.248C554.103 618.248 551.175 620.36 550.311 623.576C551.175 628.28 553.527 631.448 557.847 631.448ZM504.745 694V666.784L499.033 670.432L497.017 666.928L505.705 661.024H509.641V694H504.745ZM528.266 694.576C523.034 694.576 519.098 692.464 516.266 689.392L519.29 685.936C521.834 688.576 524.906 690.304 528.41 690.304C532.682 690.304 535.562 687.424 535.562 683.728C535.562 679.936 532.634 677.392 528.362 677.392C525.626 677.392 523.274 678.304 521.306 679.792L517.898 678.256L518.378 661.024H538.682V665.536H522.986L522.698 675.328C524.426 674.176 526.634 673.216 529.562 673.216C535.466 673.216 540.458 676.96 540.458 683.536C540.458 690.208 535.418 694.576 528.266 694.576ZM557.329 694.576C552.097 694.576 548.161 692.464 545.329 689.392L548.353 685.936C550.897 688.576 553.969 690.304 557.473 690.304C561.745 690.304 564.625 687.424 564.625 683.728C564.625 679.936 561.697 677.392 557.425 677.392C554.689 677.392 552.337 678.304 550.369 679.792L546.961 678.256L547.441 661.024H567.745V665.536H552.049L551.761 675.328C553.489 674.176 555.697 673.216 558.625 673.216C564.529 673.216 569.521 676.96 569.521 683.536C569.521 690.208 564.481 694.576 557.329 694.576ZM504.136 753V725.784L498.424 729.432L496.408 725.928L505.096 720.024H509.032V753H504.136ZM527.657 753.576C522.425 753.576 518.489 751.464 515.657 748.392L518.681 744.936C521.225 747.576 524.297 749.304 527.801 749.304C532.073 749.304 534.953 746.424 534.953 742.728C534.953 738.936 532.025 736.392 527.753 736.392C525.017 736.392 522.665 737.304 520.697 738.792L517.289 737.256L517.769 720.024H538.073V724.536H522.377L522.089 734.328C523.817 733.176 526.025 732.216 528.953 732.216C534.857 732.216 539.849 735.96 539.849 742.536C539.849 749.208 534.809 753.576 527.657 753.576ZM560.943 753V745.416H544.575L544.047 741.528L560.031 720.024H565.791V741.144H570.543V745.416H565.791V753H560.943ZM549.375 741.144H560.943V725.544L549.375 741.144ZM505.05 812V784.784L499.338 788.432L497.322 784.928L506.01 779.024H509.946V812H505.05ZM528.571 812.576C523.339 812.576 519.403 810.464 516.571 807.392L519.595 803.936C522.139 806.576 525.211 808.304 528.715 808.304C532.987 808.304 535.867 805.424 535.867 801.728C535.867 797.936 532.939 795.392 528.667 795.392C525.931 795.392 523.579 796.304 521.611 797.792L518.203 796.256L518.683 779.024H538.987V783.536H523.291L523.003 793.328C524.731 792.176 526.939 791.216 529.867 791.216C535.771 791.216 540.763 794.96 540.763 801.536C540.763 808.208 535.723 812.576 528.571 812.576ZM557.393 812.576C551.777 812.576 547.505 810.128 544.961 806.96L548.081 803.744C550.289 806.432 553.505 808.208 557.297 808.208C561.569 808.208 564.305 805.952 564.305 802.64C564.305 799.232 561.473 797.456 556.529 797.504H552.929V793.184L556.529 793.232C560.705 793.232 563.633 791.408 563.633 788.096C563.633 785.024 560.753 782.816 556.913 782.816C553.457 782.816 550.913 784.544 548.609 787.232L545.585 784.256C548.129 780.944 551.873 778.448 557.249 778.448C563.921 778.448 568.577 782.144 568.577 787.424C568.577 791.504 565.697 794.048 562.241 795.104C565.697 795.872 569.297 798.368 569.297 802.976C569.297 808.544 564.545 812.576 557.393 812.576Z" fill="white"/>
<path d="M432.03 1199.48C427.27 1199.48 423.03 1197.88 419.83 1194.92L423.23 1190.88C425.83 1193.12 428.79 1194.48 432.27 1194.48C435.23 1194.48 436.75 1193.12 436.75 1191.4C436.75 1189.44 435.15 1188.84 430.95 1187.88C425.15 1186.56 421.03 1184.92 421.03 1179.6C421.03 1174.52 425.19 1171.04 431.19 1171.04C435.67 1171.04 439.15 1172.44 441.95 1174.84L438.87 1179.08C436.43 1177.12 433.67 1176.04 431.03 1176.04C428.51 1176.04 426.99 1177.36 426.99 1179C426.99 1181 428.63 1181.64 432.87 1182.6C438.79 1183.92 442.71 1185.68 442.71 1190.76C442.71 1196 438.75 1199.48 432.03 1199.48ZM457.663 1193.88L459.063 1197.68C457.863 1198.76 455.983 1199.48 454.303 1199.48C450.663 1199.48 448.103 1196.88 448.103 1193.16V1183.04H445.263V1178.32H448.103V1172.64H453.703V1178.32H458.183V1183.04H453.703V1192.24C453.703 1193.6 454.583 1194.56 455.663 1194.56C456.463 1194.56 457.263 1194.28 457.663 1193.88ZM471.96 1177.84C477.36 1177.84 481.04 1181.24 481.04 1186.64V1199H475.4V1196.92C473.92 1198.6 471.56 1199.48 469.32 1199.48C464.92 1199.48 461.52 1196.84 461.52 1192.88C461.52 1188.8 465.32 1186 470.12 1186C471.8 1186 473.64 1186.36 475.4 1187.04V1186.64C475.4 1184.44 474.04 1182.52 470.64 1182.52C468.72 1182.52 466.92 1183.16 465.28 1184L463.32 1180.12C466.24 1178.64 469.08 1177.84 471.96 1177.84ZM470.64 1195.44C472.88 1195.44 475 1194.4 475.4 1192.48V1190.56C474.08 1190.08 472.56 1189.8 470.96 1189.8C468.84 1189.8 467.16 1191.04 467.16 1192.72C467.16 1194.4 468.64 1195.44 470.64 1195.44ZM500.922 1178.32H506.802V1196.8C506.802 1202.12 502.202 1205.88 495.682 1205.88C492.042 1205.88 488.602 1204.72 486.562 1203.12L488.602 1199C489.962 1200.2 492.362 1200.96 494.762 1200.96C498.522 1200.96 500.922 1199.24 500.922 1196.56V1194.28C499.282 1196.28 496.802 1197.48 494.082 1197.48C488.882 1197.48 484.922 1193.4 484.922 1187.64C484.922 1181.88 488.882 1177.84 494.082 1177.84C496.882 1177.84 499.522 1179.16 500.922 1181.12V1178.32ZM495.922 1192.56C498.842 1192.56 500.922 1190.52 500.922 1187.64C500.922 1184.76 498.842 1182.76 495.922 1182.76C493.002 1182.76 490.922 1184.76 490.922 1187.64C490.922 1190.52 493.002 1192.56 495.922 1192.56ZM521.699 1194.32C523.339 1194.32 525.339 1193.56 526.459 1192.48L530.179 1196.28C528.339 1198.2 524.779 1199.48 521.739 1199.48C515.579 1199.48 510.779 1194.96 510.779 1188.6C510.779 1182.36 515.379 1177.84 521.419 1177.84C527.899 1177.84 531.699 1182.76 531.699 1190.56H516.779C517.459 1192.8 519.259 1194.32 521.699 1194.32ZM521.659 1183C519.459 1183 517.619 1184.28 516.859 1186.36H526.099C525.539 1184.32 524.019 1183 521.659 1183Z" fill="url(#paint0_linear_7012_2733)"/>
<path d="M586.414 1190.41C587.195 1189.63 587.195 1188.37 586.414 1187.59L573.686 1174.86C572.905 1174.08 571.639 1174.08 570.858 1174.86C570.077 1175.64 570.077 1176.91 570.858 1177.69L582.172 1189L570.858 1200.31C570.077 1201.09 570.077 1202.36 570.858 1203.14C571.639 1203.92 572.905 1203.92 573.686 1203.14L586.414 1190.41ZM541 1189V1191H585V1189V1187H541V1189Z" fill="#9EE7E5"/>
<defs>
<linearGradient id="paint0_linear_7012_2733" x1="476" y1="1167" x2="476" y2="1207" gradientUnits="userSpaceOnUse">
<stop stop-color="#9EE7E5"/>
<stop offset="1" stop-color="#9EE7E5"/>
</linearGradient>
</defs>
</svg>
