<svg width="1440" height="380" viewBox="0 0 1440 380" fill="none" xmlns="http://www.w3.org/2000/svg">
<path fill-rule="evenodd" clip-rule="evenodd" d="M1260 68.5C1260 53.8645 1271.86 42 1286.5 42H1365.5C1380.69 42 1393 54.3122 1393 69.5C1393 84.6878 1405.31 97 1420.5 97H1515C1537.09 97 1555 114.909 1555 137V201C1555 223.091 1537.09 241 1515 241H1435C1412.91 241 1395 258.909 1395 281V329.5C1395 336.956 1388.96 343 1381.5 343C1374.04 343 1368 336.956 1368 329.5V319C1368 305.745 1357.25 295 1344 295H1277.5C1267.83 295 1260 287.165 1260 277.5C1260 267.835 1252.17 260 1242.5 260H1203C1180.91 260 1163 277.909 1163 300V350.5C1163 357.404 1157.4 363 1150.5 363C1143.6 363 1138 357.404 1138 350.5V321C1138 298.909 1120.09 281 1098 281H981.5C972.94 281 966 287.94 966 296.5C966 305.06 959.06 312 950.5 312H691C681.059 312 673 320.059 673 330V335.5C673 342.404 667.404 348 660.5 348C653.596 348 648 342.404 648 335.5V321.5C648 306.864 636.136 295 621.5 295H541C522.775 295 508 309.775 508 328V348.5C508 355.404 502.404 361 495.5 361C488.596 361 483 355.404 483 348.5V314.5C483 294.894 467.106 279 447.5 279H431C420.507 279 412 287.507 412 298C412 308.493 403.493 317 393 317H259.5C248.178 317 239 307.822 239 296.5C239 285.178 229.822 276 218.5 276H131C108.909 276 91 293.909 91 316V350.5C91 357.404 85.4036 363 78.5 363C71.5964 363 66 357.404 66 350.5V295C66 272.909 48.0914 255 26 255H12C-10.0914 255 -28 237.091 -28 215V107C-28 84.9086 -10.0914 67 12 67H108.5C127.554 67 143 82.4462 143 101.5C143 120.554 158.446 136 177.5 136H217C229.15 136 239 126.15 239 114C239 101.85 248.85 92 261 92H376C395.882 92 412 108.118 412 128C412 147.882 428.118 164 448 164H489C502.807 164 514 175.193 514 189C514 202.807 525.193 214 539 214H654H664H897C919.091 214 937 196.091 937 174C937 151.909 954.909 134 977 134H1011.5C1022.27 134 1031 125.27 1031 114.5C1031 103.73 1039.73 95 1050.5 95H1233.5C1248.14 95 1260 83.1355 1260 68.5Z" fill="#AFD157"/>
<path d="M1149 31H1159C1181.09 31 1199 48.9086 1199 71V81H1189C1166.91 81 1149 63.0914 1149 41V31Z" fill="#AFD157"/>
<path d="M1249 31H1239C1216.91 31 1199 48.9086 1199 71V81H1209C1231.09 81 1249 63.0914 1249 41V31Z" fill="#AFD157"/>
<path d="M1293 371L1303 371C1325.09 371 1343 353.091 1343 331L1343 321L1333 321C1310.91 321 1293 338.909 1293 361L1293 371Z" fill="#AFD157"/>
<path d="M572 371L582 371C604.091 371 622 353.091 622 331L622 321L612 321C589.909 321 572 338.909 572 361L572 371Z" fill="#AFD157"/>
<path d="M1037 364L1027 364C1004.91 364 987 346.091 987 324L987 314L997 314C1019.09 314 1037 331.909 1037 354L1037 364Z" fill="#AFD157"/>
<path d="M166 380L156 380C133.909 380 116 362.091 116 340L116 330L126 330C148.091 330 166 347.909 166 370L166 380Z" fill="#AFD157"/>
<path d="M966 161H976C998.091 161 1016 178.909 1016 201V211H1006C983.909 211 966 193.091 966 171V161Z" fill="#7BAD34"/>
<path d="M1066 161H1056C1033.91 161 1016 178.909 1016 201V211H1026C1048.09 211 1066 193.091 1066 171V161Z" fill="#7BAD34"/>
<path d="M391 293L381 293C358.909 293 341 275.091 341 253L341 243L351 243C373.091 243 391 260.909 391 283L391 293Z" fill="#7BAD34"/>
<path d="M291 293L301 293C323.091 293 341 275.091 341 253L341 243L331 243C308.909 243 291 260.909 291 283L291 293Z" fill="#7BAD34"/>
<path d="M1378 114H1388C1410.09 114 1428 131.909 1428 154V164H1418C1395.91 164 1378 146.091 1378 124V114Z" fill="#7BAD34"/>
<path d="M70 181H60C37.9086 181 20 198.909 20 221V231H30C52.0914 231 70 213.091 70 191V181Z" fill="#7BAD34"/>
<path d="M43 0H53C75.0914 0 93 17.9086 93 40V50H83C60.9086 50 43 32.0914 43 10V0Z" fill="#7BAD34"/>
<path d="M143 0H133C110.909 0 93 17.9086 93 40V50H103C125.091 50 143 32.0914 143 10V0Z" fill="#7BAD34"/>
<path d="M961 65H971C993.091 65 1011 82.9086 1011 105V115H1001C978.909 115 961 97.0914 961 75V65Z" fill="#AFD157"/>
<path fill-rule="evenodd" clip-rule="evenodd" d="M224.086 111.582C218.242 105.738 208.766 105.738 202.922 111.582C198.297 116.207 197.332 123.105 200.027 128.679C200.129 128.89 199.891 129.128 199.68 129.026C194.106 126.332 187.208 127.297 182.584 131.922C176.74 137.766 176.74 147.242 182.584 153.086C187.208 157.71 194.106 158.675 199.679 155.982C199.89 155.88 200.128 156.118 200.026 156.329C197.332 161.902 198.297 168.8 202.922 173.425C208.766 179.269 218.241 179.269 224.086 173.425C228.71 168.8 229.675 161.902 226.981 156.329C226.88 156.118 227.118 155.88 227.328 155.982C232.902 158.676 239.8 157.71 244.424 153.086C250.268 147.242 250.268 137.766 244.424 131.922C239.799 127.297 232.901 126.332 227.328 129.026C227.117 129.128 226.879 128.89 226.981 128.679C229.676 123.105 228.711 116.207 224.086 111.582Z" fill="#FF686B"/>
<circle cx="213.5" cy="142.778" r="6.21932" transform="rotate(45 213.5 142.778)" fill="#E23636"/>
<path fill-rule="evenodd" clip-rule="evenodd" d="M1208.09 226.582C1202.24 220.738 1192.77 220.738 1186.92 226.582C1182.3 231.207 1181.33 238.105 1184.03 243.679C1184.13 243.89 1183.89 244.128 1183.68 244.026C1178.11 241.332 1171.21 242.297 1166.58 246.922C1160.74 252.766 1160.74 262.242 1166.58 268.086C1171.21 272.71 1178.11 273.675 1183.68 270.982C1183.89 270.88 1184.13 271.118 1184.03 271.329C1181.33 276.902 1182.3 283.8 1186.92 288.425C1192.77 294.269 1202.24 294.269 1208.09 288.425C1212.71 283.8 1213.68 276.902 1210.98 271.329C1210.88 271.118 1211.12 270.88 1211.33 270.982C1216.9 273.676 1223.8 272.71 1228.42 268.086C1234.27 262.242 1234.27 252.766 1228.42 246.922C1223.8 242.297 1216.9 241.332 1211.33 244.026C1211.12 244.128 1210.88 243.89 1210.98 243.679C1213.68 238.105 1212.71 231.207 1208.09 226.582Z" fill="#FFC53D"/>
<circle cx="1197.5" cy="257.778" r="6.21932" transform="rotate(45 1197.5 257.778)" fill="#E98B2D"/>
</svg>
