<svg width="239" height="118" viewBox="0 0 239 118" fill="none" xmlns="http://www.w3.org/2000/svg">
<path d="M15.8025 8.57849C14.2712 8.29325 12.6346 8.0376 11.0943 8.41765C8.75316 8.99531 6.99386 12.3118 5.96872 14.2439C3.81812 18.2971 1.44224 24.1438 4.35197 28.3985C6.39697 31.3888 10.0191 33.0297 13.3329 34.0997C17.5874 35.4733 22.4262 35.8531 26.871 35.5473C28.2933 35.4494 29.3311 35.3532 29.7847 33.9567C30.1379 32.8691 30.3551 31.7297 30.6019 30.6146C31.176 28.0211 31.6993 25.4058 31.7834 22.742C31.821 21.5515 31.7655 20.9192 30.7085 20.2489C28.9612 19.1408 27.0295 18.2046 25.1476 17.3536C23.6124 16.6594 22.2807 16.2062 20.5905 16.3975C18.3346 16.6528 15.8048 17.3959 13.8837 18.6225C11.7652 19.9752 10.0587 23.5216 12.8266 25.1458C14.9797 26.4093 20.4402 28.0776 21.7187 24.7526C21.8703 24.3583 22.5645 22.7074 21.8875 22.5097C21.0449 22.2636 20.0207 22.5001 19.1603 22.5722" stroke="white" stroke-width="4.11305" stroke-linecap="round"/>
<g clip-path="url(#clip0_1512_142)">
<path d="M220.812 101.185C218.081 103.917 194.256 103.461 181.661 103.006C173.922 98.2261 172.784 75.6917 178.019 72.505C183.255 69.3183 206.861 80.2622 210.341 82.748C213.528 85.0242 223.999 97.9984 220.812 101.185Z" fill="#E7EAEE"/>
<path d="M235.358 111.989C232.627 114.72 208.802 114.265 196.207 113.81C188.468 109.03 187.33 86.4954 192.565 83.3087C197.8 80.122 221.407 91.066 224.887 93.5517C228.074 95.8279 238.545 108.802 235.358 111.989Z" fill="white"/>
<path d="M201.295 113.08C197.855 115.267 140.901 115.267 136.888 113.08C132.874 110.893 125.611 93.8335 127.905 88.5844C130.198 83.3352 149.693 64.3071 181.992 65.6194C214.291 66.9317 204.735 110.893 201.295 113.08Z" fill="white"/>
<path d="M61.6739 96.9391C72.7503 92.9712 89.7317 102.793 96.8378 108.2C97.1618 109.156 97.5717 111.575 96.6187 113.603C95.4274 116.138 67.2659 116.892 60.7756 115.895C54.2854 114.898 47.8284 101.899 61.6739 96.9391Z" fill="#E7EAEE"/>
<path d="M84.5048 3.18652C102.896 3.18652 104.156 23.5206 102.487 33.6877L93.8375 31.1838C89.892 37.1778 79.1329 47.2994 67.6609 39.8334C53.3208 30.501 61.5151 3.18652 84.5048 3.18652Z" fill="#EFEFEF"/>
<path d="M54.1711 83.0825C54.1711 106.842 80.2249 114.721 111.891 114.721C143.557 114.721 169.802 106.842 169.802 83.0825C169.802 42.5701 143.557 28.6802 111.891 28.6802C80.2249 28.6802 54.1711 40.641 54.1711 83.0825Z" fill="white"/>
<path d="M81.9429 82.3989L78.3013 83.3095" stroke="#005271" stroke-width="6.82861" stroke-linecap="round"/>
<path d="M129.741 82.3989L133.383 83.3095" stroke="#005271" stroke-width="6.82861" stroke-linecap="round"/>
<mask id="mask0_1512_142" style="mask-type:alpha" maskUnits="userSpaceOnUse" x="54" y="28" width="116" height="87">
<path d="M54.1716 83.0825C54.1716 106.842 80.2254 114.721 111.891 114.721C143.557 114.721 169.803 106.842 169.803 83.0825C169.803 42.5701 143.557 28.6802 111.891 28.6802C80.2254 28.6802 54.1716 40.641 54.1716 83.0825Z" fill="white"/>
</mask>
<g mask="url(#mask0_1512_142)">
<path d="M101.913 34.0566L102.874 35.5523L103.162 33.7983C104.008 28.6454 104.121 20.8883 101.658 14.3827C100.423 11.1205 98.5295 8.14338 95.7262 5.98181C92.9154 3.81456 89.2374 2.50366 84.5057 2.50366C72.705 2.50366 64.6721 9.52841 61.4493 17.7614C58.2395 25.9608 59.7689 35.5115 67.2894 40.4057C73.2725 44.2995 79.0971 43.5966 83.882 41.1649C88.6331 38.7503 92.3909 34.625 94.4088 31.5593C95.3865 30.074 96.1291 29.0796 96.6891 28.4222C97.1493 27.8819 97.4661 27.5936 97.6684 27.4464L101.913 34.0566Z" stroke="#DCDCDC" stroke-width="1.36572"/>
<path d="M135.095 27.0036L135.173 26.8834L135.196 26.7421C135.353 25.7868 135.539 24.7834 135.728 23.7579C136.032 22.1161 136.346 20.4179 136.569 18.7707C136.935 16.0727 137.084 13.3657 136.567 10.9534C136.046 8.51654 134.842 6.36851 132.519 4.84867C130.22 3.3443 126.899 2.50366 122.231 2.50366C110.43 2.50366 102.397 9.52841 99.1744 17.7614C95.9646 25.9608 97.494 35.5115 105.014 40.4057C110.998 44.2995 116.822 43.5966 121.607 41.1649C126.358 38.7503 130.116 34.625 132.134 31.5593L132.136 31.556L135.095 27.0036Z" stroke="#DCDCDC" stroke-width="1.36572"/>
</g>
<path d="M147.041 93.7798H140.212" stroke="#FFC0C1" stroke-width="9.10482" stroke-linecap="round"/>
<path d="M71.4717 93.7798H64.6431" stroke="#FFC0C1" stroke-width="9.10482" stroke-linecap="round"/>
<path d="M107.703 76.9355C106.809 76.9355 106.4 77.308 105.841 77.6805C105.283 77.308 104.873 76.9355 103.98 76.9355C102.863 76.9355 102.214 78.1062 102.49 78.7979C102.863 79.7291 104.228 80.6602 105.841 81.0327C107.454 80.6602 108.819 79.7291 109.192 78.7979C109.468 78.1062 108.82 76.9355 107.703 76.9355Z" fill="#FFC0C1"/>
<path d="M130.871 96.9391C141.947 92.9712 158.928 102.793 166.035 108.2C166.359 109.156 166.768 111.575 165.815 113.603C164.624 116.138 136.463 116.892 129.972 115.895C123.482 114.898 117.025 101.899 130.871 96.9391Z" fill="#E7EAEE"/>
<circle cx="195.525" cy="65.3269" r="7.51147" fill="white"/>
<path d="M97.4189 85.1626C97.9701 85.4552 99.4796 86.0405 101.108 86.0405C103.143 86.0405 103.906 84.6748 106.069 84.6748C108.231 84.6748 108.994 86.0405 111.029 86.0405C112.657 86.0405 114.167 85.4552 114.718 85.1626" stroke="#DF9C9C" stroke-width="2.2762" stroke-linecap="round"/>
<path d="M84.5048 3.18652C102.896 3.18652 104.156 23.5206 102.487 33.6877L98.1018 26.859C98.1018 26.859 97.783 25.1898 93.8375 31.1838C89.892 37.1778 79.1329 47.2994 67.6609 39.8334C53.3208 30.501 61.5151 3.18652 84.5048 3.18652Z" fill="#E7EAEE"/>
<path d="M122.23 3.18652C140.622 3.18652 141.881 23.5206 140.212 33.6877L131.563 31.1838C127.617 37.1778 116.858 47.2994 105.386 39.8334C91.0459 30.501 99.2402 3.18652 122.23 3.18652Z" fill="white"/>
</g>
<defs>
<clipPath id="clip0_1512_142">
<rect width="188.014" height="117.907" fill="white" transform="translate(50.9854)"/>
</clipPath>
</defs>
</svg>
