<svg width="15" height="15" viewBox="0 0 15 15" fill="none" xmlns="http://www.w3.org/2000/svg">
<path id="Star 63" d="M6.84201 0.778178C7.06804 0.167364 7.93196 0.167362 8.15798 0.778177L9.68382 4.90167C9.75488 5.09371 9.90629 5.24512 10.0983 5.31618L14.2218 6.84201C14.8326 7.06804 14.8326 7.93196 14.2218 8.15798L10.0983 9.68382C9.90629 9.75488 9.75488 9.90629 9.68382 10.0983L8.15799 14.2218C7.93196 14.8326 7.06804 14.8326 6.84202 14.2218L5.31618 10.0983C5.24512 9.90629 5.09371 9.75488 4.90167 9.68382L0.778178 8.15799C0.167364 7.93196 0.167362 7.06804 0.778177 6.84202L4.90167 5.31618C5.09371 5.24512 5.24512 5.09371 5.31618 4.90167L6.84201 0.778178Z" fill="white"/>
</svg>
