<svg width="269" height="269" viewBox="0 0 269 269" fill="none" xmlns="http://www.w3.org/2000/svg">
<g clip-path="url(#clip0_1490_5014)">
<g filter="url(#filter0_d_1490_5014)">
<circle cx="134.273" cy="134.054" r="134.054" fill="black"/>
</g>
<circle cx="134.268" cy="134.054" r="126.225" stroke="#454545" stroke-width="1.07243"/>
<circle cx="134.276" cy="134.054" r="114.321" stroke="#454545" stroke-width="1.07243"/>
<circle cx="134.275" cy="134.054" r="76.1426" stroke="#454545" stroke-width="1.07243"/>
<circle cx="134.268" cy="134.054" r="89.6552" stroke="#454545" stroke-width="1.07243"/>
<circle cx="134.277" cy="134.054" r="102.203" stroke="#454545" stroke-width="1.07243"/>
<mask id="mask0_1490_5014" style="mask-type:alpha" maskUnits="userSpaceOnUse" x="0" y="0" width="269" height="269">
<circle cx="134.266" cy="134.054" r="134.054" fill="#FFB74B"/>
</mask>
<g mask="url(#mask0_1490_5014)">
<g clip-path="url(#clip1_1490_5014)">
<path d="M175.087 54.3549C163.951 47.765 167.391 44.4796 170.268 39.6182C173.145 34.7568 174.596 30.294 185.505 36.7502C191.043 40.0277 193.201 46.6255 190.324 51.4869C187.447 56.3484 180.625 57.6324 175.087 54.3549Z" fill="white"/>
<path d="M158.762 53.2282C158.762 47.0903 160.903 47.0539 163.544 47.0539C166.185 47.0539 168.326 47.0903 168.326 53.2282C168.326 59.3661 165.395 64.3418 163.544 64.3418C161.693 64.3418 158.762 59.3661 158.762 53.2282Z" fill="#6A5B3D"/>
<path d="M101.019 53.2282C101.019 47.0903 103.16 47.0539 105.801 47.0539C108.442 47.0539 110.583 47.0903 110.583 53.2282C110.583 59.3661 107.652 64.3418 105.801 64.3418C103.95 64.3418 101.019 59.3661 101.019 53.2282Z" fill="#6A5B3D"/>
<path d="M93.2042 54.355C104.34 47.765 100.9 44.4796 98.0226 39.6182C95.1456 34.7568 93.6951 30.294 82.7857 36.7502C77.2476 40.0277 75.0903 46.6255 77.9673 51.4869C80.8443 56.3484 87.6661 57.6324 93.2042 54.355Z" fill="#123041"/>
<path d="M90.4586 48.7369C96.0086 45.4524 94.5716 44.2839 93.48 42.4394C92.3885 40.5949 91.943 38.8395 86.5057 42.0574C83.7454 43.6909 82.3927 46.5104 83.4843 48.3549C84.5759 50.1994 87.6984 50.3704 90.4586 48.7369Z" fill="#FFC0C1"/>
<path d="M178.169 48.7369C172.619 45.4524 174.056 44.2839 175.147 42.4394C176.239 40.5949 176.684 38.8395 182.122 42.0574C184.882 43.6909 186.235 46.5104 185.143 48.3549C184.052 50.1994 180.929 50.3704 178.169 48.7369Z" fill="#FFC0C1"/>
<path d="M88.1393 16.3397C88.1393 -2.85751 109.19 -9.22343 134.776 -9.22343C160.361 -9.22343 181.567 -2.8575 181.567 16.3397C181.567 49.073 160.361 60.2959 134.776 60.2959C109.19 60.2959 88.1393 50.6318 88.1393 16.3397Z" fill="white"/>
<path fill-rule="evenodd" clip-rule="evenodd" d="M131.525 60.2402C131.31 54.1149 130.03 46.0812 126.017 42.8322C122.487 39.9749 118.414 39.2473 114.774 38.5971C111.664 38.0414 108.869 37.5423 107.002 35.8185C106.01 34.9026 105.13 33.6317 104.176 32.255C101.305 28.1088 97.7704 23.0038 88.5086 23.7532C91.2497 50.735 109.353 59.4867 131.525 60.2402Z" fill="#123041"/>
<path d="M157.283 19.835L157.283 13.9497" stroke="#123041" stroke-width="5.51741" stroke-linecap="round"/>
<path d="M107.996 19.835L107.996 13.9497" stroke="#123041" stroke-width="5.51741" stroke-linecap="round"/>
<path d="M149.93 6.15179C149.93 13.7088 143.804 19.835 136.247 19.835L129.405 19.835C121.848 19.835 115.722 13.7088 115.722 6.15179C115.722 1.11379 119.806 -2.97032 124.844 -2.97032L140.808 -2.97032C145.846 -2.97032 149.93 1.11379 149.93 6.15179Z" fill="#FFC0C1"/>
<path d="M140.003 9.53613L140.003 5.49003" stroke="#123041" stroke-width="3.67827" stroke-linecap="round"/>
<path d="M125.289 9.53613L125.289 5.49003" stroke="#123041" stroke-width="3.67827" stroke-linecap="round"/>
<path d="M168.326 5.48926L162.808 5.48926" stroke="#FFC0C1" stroke-width="7.35654" stroke-linecap="round"/>
<path d="M102.49 5.48926L96.9726 5.48926" stroke="#FFC0C1" stroke-width="7.35654" stroke-linecap="round"/>
</g>
<g clip-path="url(#clip2_1490_5014)">
<path d="M14.8361 181.662C-4.36116 181.662 -10.7271 160.611 -10.7271 135.026C-10.7271 109.44 -4.36116 88.2344 14.8361 88.2344C47.5694 88.2344 58.7922 109.44 58.7922 135.026C58.7922 160.611 49.1281 181.662 14.8361 181.662Z" fill="#FFDB40"/>
<path d="M5.46143 104.787L5.46143 110.305" stroke="#FCA18E" stroke-width="7.35654" stroke-linecap="round"/>
<path d="M5.46143 165.846L5.46143 171.364" stroke="#FCA18E" stroke-width="7.35654" stroke-linecap="round"/>
<path d="M18.7048 115.821L12.8196 115.821" stroke="#123041" stroke-width="5.51741" stroke-linecap="round"/>
<path d="M18.7048 160.329L12.8196 160.329" stroke="#123041" stroke-width="5.51741" stroke-linecap="round"/>
<path d="M10.2362 147.455C6.88433 147.455 5.45448 143.256 5.45448 138.075C5.45448 132.895 6.88433 128.696 10.2362 128.696C13.5881 128.696 17.5928 132.895 17.5928 138.075C17.5928 143.256 13.5881 147.455 10.2362 147.455Z" fill="#FFB132"/>
<path d="M71.5846 128.054C66.6366 133.634 61.0873 136.84 56.0366 137.788L57.0837 127.969C57.5149 123.925 62.2809 120.052 68.0659 120.231C73.8508 120.41 74.1009 125.217 71.5846 128.054Z" fill="#FFDB40"/>
<path d="M63.7716 138.302C62.0752 136.564 58.3785 136.125 56.7422 136.123C57.0532 139.488 58.0879 145.135 60.2429 146.148C62.398 147.161 65.0774 146.529 65.716 145.296C66.3547 144.063 65.892 140.473 63.7716 138.302Z" fill="#FFDB40"/>
</g>
<g clip-path="url(#clip3_1490_5014)">
<ellipse cx="225.023" cy="166.691" rx="14.7027" ry="15.844" transform="rotate(-118.69 225.023 166.691)" fill="#5BB42B"/>
<ellipse cx="14.7027" cy="15.844" rx="14.7027" ry="15.844" transform="matrix(-0.480064 0.877234 0.877234 0.480064 217.779 82.3081)" fill="#5BB42B"/>
<path d="M250.469 87.1441C269.869 87.1441 276.302 108.527 276.302 134.515C276.302 160.504 269.869 182.043 250.469 182.043C222.6 182.043 210.645 160.504 210.645 134.515C210.645 108.527 220.393 87.1441 250.469 87.1441Z" fill="#5BB42B"/>
<path d="M224.99 164.02L230.875 164.02" stroke="#123041" stroke-width="5.51741" stroke-linecap="round"/>
<path d="M224.623 101.49L230.509 101.49" stroke="#123041" stroke-width="5.51741" stroke-linecap="round"/>
<path d="M243.75 172.113L243.75 165.86" stroke="#A1DC3C" stroke-width="7.35654" stroke-linecap="round"/>
<path d="M243.75 104.063L243.75 97.8104" stroke="#A1DC3C" stroke-width="7.35654" stroke-linecap="round"/>
<path d="M237.877 125.766C233.457 125.766 231.236 125.766 231.236 134.042C231.236 142.318 233.063 142.318 237.877 142.318C245.765 142.318 250.363 138.613 250.363 134.042C250.363 129.471 245.213 125.766 237.877 125.766Z" fill="#D52C2F"/>
<path fill-rule="evenodd" clip-rule="evenodd" d="M238.697 142.305C246.09 142.061 250.375 138.455 250.375 134.042C250.375 130.838 247.844 128.059 243.804 126.684C241.933 128.285 240.311 130.654 239.308 133.515C238.214 136.635 238.06 139.759 238.697 142.305Z" fill="#FF686B"/>
</g>
<path d="M104.65 201.905C107.592 211.443 120.192 230.117 122.857 237.926H148.053C150.718 230.117 162.347 211.443 166.077 201.905C170.703 190.075 165.891 174.699 152.897 174.699C142.168 174.699 137.142 192.416 135.731 201.905C134.32 192.416 115.011 188.962 104.65 188.962C91.6552 188.962 100.905 189.767 104.65 201.905Z" fill="white"/>
<path d="M99.4952 210.636C89.2327 202.665 94.7908 187.903 105.194 180.614L129.74 199.68C122.806 206.308 107.678 216.991 99.4952 210.636Z" fill="white"/>
<path d="M181 256.174C181 275.371 159.949 281.737 134.364 281.737C108.778 281.737 87.572 275.371 87.572 256.174C87.572 223.441 108.778 212.218 134.364 212.218C159.949 212.218 181 221.882 181 256.174Z" fill="white"/>
<path d="M116.996 250.472V256.357" stroke="#123041" stroke-width="5.51741" stroke-linecap="round"/>
<path d="M161.51 250.472V256.357" stroke="#123041" stroke-width="5.51741" stroke-linecap="round"/>
<path d="M105.958 264.817H111.476" stroke="#FFC0C1" stroke-width="7.35654" stroke-linecap="round"/>
<path d="M167.023 264.817H172.54" stroke="#FFC0C1" stroke-width="7.35654" stroke-linecap="round"/>
<path d="M145.317 265.721C145.317 269.036 145.317 270.702 139.247 270.702C133.178 270.702 133.178 269.332 133.178 265.721C133.178 262.11 135.895 256.357 139.247 256.357C142.599 256.357 145.317 262.407 145.317 265.721Z" fill="#FFC0C1"/>
<path fill-rule="evenodd" clip-rule="evenodd" d="M134.091 261.513C135.159 258.807 137.076 256.357 139.263 256.357C141.42 256.357 143.315 258.862 144.391 261.532C142.935 262.212 141.168 262.61 139.262 262.61C137.338 262.61 135.555 262.204 134.091 261.513Z" fill="#E7EAEE"/>
<path d="M137.744 251.208C138.466 251.208 138.796 251.509 139.248 251.81C139.699 251.509 140.03 251.208 140.752 251.208C141.654 251.208 142.178 252.154 141.955 252.713C141.654 253.465 140.551 254.218 139.248 254.518C137.944 254.218 136.841 253.465 136.54 252.713C136.317 252.154 136.841 251.208 137.744 251.208Z" fill="#FFC0C1"/>
</g>
<circle cx="134.269" cy="134.053" r="63.2198" fill="#55B7D7" stroke="black" stroke-width="0.536215"/>
<circle cx="134.263" cy="134.054" r="54.7476" fill="#F9DBA2" stroke="black" stroke-width="0.536215"/>
<circle cx="134.266" cy="134.054" r="45.5247" fill="#FDA064" stroke="black" stroke-width="0.536215"/>
<circle cx="134.263" cy="134.053" r="34.1569" fill="#434343" stroke="black" stroke-width="0.536215"/>
<circle cx="134.271" cy="134.054" r="23.2181" fill="black" stroke="black" stroke-width="0.536215"/>
<path d="M103.771 127.528L103.881 126.817L110.143 127.784L110.033 128.495L107.18 128.054L106.61 131.746L109.463 132.186L109.353 132.897L103.091 131.931L103.201 131.22L105.936 131.642L106.506 127.95L103.771 127.528Z" fill="white"/>
<path d="M107.197 121.875C107.73 120.689 108.74 120.444 109.791 120.917L112.441 122.107L112.158 122.738L111.477 122.432C111.85 122.974 111.828 123.742 111.571 124.314C111.16 125.231 110.327 125.666 109.469 125.281C108.602 124.892 108.37 123.857 108.789 122.923C109.001 122.452 109.324 122.001 109.668 121.619L109.508 121.548C108.919 121.283 108.14 121.216 107.717 122.159C107.52 122.596 107.517 123.121 107.542 123.607L106.915 123.629C106.883 122.866 107.008 122.296 107.197 121.875ZM111.065 123.956C111.322 123.384 111.334 122.57 110.795 122.126L110.13 121.827C109.843 122.174 109.576 122.589 109.364 123.06C109.073 123.708 109.198 124.421 109.72 124.656C110.258 124.897 110.789 124.57 111.065 123.956Z" fill="white"/>
<path d="M114.728 118.973C113.923 120.041 112.327 120.259 111.244 119.443C110.162 118.627 109.939 117.038 110.744 115.97C111.132 115.454 111.707 115.137 112.325 115.037L112.412 115.703C111.951 115.748 111.52 115.966 111.237 116.342C110.665 117.1 110.873 118.25 111.683 118.861C112.5 119.477 113.663 119.36 114.235 118.602C114.523 118.219 114.613 117.732 114.52 117.257L115.184 117.158C115.273 117.791 115.128 118.443 114.728 118.973Z" fill="white"/>
<path d="M116.851 110.105L116.62 113.161L119.836 113.825L119.174 114.384L116.55 113.836L116.442 115.038L117.257 116.003L116.729 116.45L112.569 111.524L113.097 111.078L115.883 114.376L116.175 110.676L116.851 110.105Z" fill="white"/>
<path d="M121.368 112.776L118.674 107.041L120.611 106.131C122.431 105.276 124.273 105.858 125.061 107.536C125.849 109.214 125.124 111.011 123.305 111.866L121.368 112.776ZM121.741 111.877L123.026 111.273C124.462 110.599 125.029 109.181 124.402 107.845C123.778 106.518 122.325 106.049 120.889 106.724L119.604 107.328L121.741 111.877Z" fill="white"/>
<path d="M129 104.917C130.279 104.681 131.053 105.373 131.262 106.506L131.789 109.363L131.109 109.489L130.973 108.754C130.74 109.369 130.095 109.788 129.478 109.902C128.49 110.084 127.659 109.647 127.488 108.722C127.316 107.787 128.035 107.008 129.042 106.822C129.549 106.728 130.105 106.739 130.614 106.804L130.582 106.632C130.465 105.997 130.077 105.318 129.061 105.505C128.59 105.592 128.157 105.888 127.77 106.184L127.396 105.681C128.006 105.222 128.546 105 129 104.917ZM129.486 109.282C130.103 109.168 130.779 108.715 130.838 108.019L130.706 107.303C130.258 107.264 129.764 107.28 129.256 107.373C128.557 107.502 128.041 108.01 128.145 108.572C128.252 109.153 128.824 109.404 129.486 109.282Z" fill="white"/>
<path d="M134.754 109.325L132.923 104.478L133.697 104.509L135.119 108.528L136.839 104.639L137.613 104.67L135.418 109.352L134.754 109.325Z" fill="white"/>
<path d="M140.485 104.307C140.231 104.257 140.074 104.009 140.122 103.765C140.169 103.53 140.409 103.361 140.662 103.411C140.906 103.46 141.064 103.707 141.018 103.942C140.969 104.187 140.729 104.355 140.485 104.307ZM139.046 109.767L139.972 105.089L140.651 105.224L139.724 109.901L139.046 109.767Z" fill="white"/>
<path d="M142.564 110.824C141.936 110.608 141.319 110.132 140.928 109.51L141.434 109.147C141.819 109.699 142.268 110.068 142.765 110.239C143.358 110.443 143.855 110.302 144.002 109.875C144.17 109.386 143.701 109.049 143.15 108.665C142.168 107.976 141.86 107.509 142.082 106.864C142.364 106.044 143.218 105.772 144.117 106.081C144.675 106.273 145.185 106.663 145.556 107.142L145.068 107.54C144.714 107.096 144.317 106.804 143.916 106.666C143.41 106.492 142.913 106.574 142.763 107.01C142.628 107.403 142.918 107.639 143.662 108.197C144.308 108.673 144.974 109.175 144.68 110.03C144.395 110.858 143.497 111.145 142.564 110.824Z" fill="white"/>
<path d="M147.903 113.19L148.273 112.719L151.313 112.599C152.49 112.551 153.156 112.301 153.544 111.808C154.023 111.199 153.795 110.445 153.266 110.028C152.686 109.572 152.028 109.559 151.322 109.754L151.18 109.115C152.055 108.853 152.904 108.922 153.687 109.538C154.549 110.217 154.824 111.36 154.122 112.251C153.592 112.925 152.836 113.199 151.425 113.262L149.231 113.367L151.76 115.357L151.338 115.893L147.903 113.19Z" fill="white"/>
<path d="M154.188 119.327C153.265 118.083 153.706 116.401 155.255 115.253C156.796 114.11 158.533 114.177 159.456 115.421C160.373 116.659 159.932 118.34 158.391 119.483C156.843 120.631 155.106 120.564 154.188 119.327ZM154.722 118.932C155.387 119.828 156.728 119.81 157.957 118.898C159.187 117.986 159.587 116.713 158.922 115.817C158.258 114.921 156.918 114.926 155.689 115.838C154.459 116.75 154.057 118.035 154.722 118.932Z" fill="white"/>
<path d="M156.685 122.939L157.244 122.724L159.919 124.174C160.955 124.733 161.656 124.858 162.241 124.633C162.964 124.354 163.153 123.589 162.911 122.961C162.645 122.272 162.086 121.924 161.379 121.732L161.584 121.11C162.47 121.331 163.165 121.825 163.523 122.754C163.918 123.778 163.57 124.901 162.511 125.309C161.711 125.618 160.922 125.467 159.676 124.801L157.737 123.77L158.895 126.773L158.258 127.018L156.685 122.939Z" fill="white"/>
<path d="M158.871 130.966C158.757 129.995 159.083 129.214 159.609 128.632L160.186 129.038C159.712 129.586 159.433 130.222 159.515 130.918C159.617 131.789 160.294 132.331 161.091 132.238C161.897 132.143 162.373 131.456 162.27 130.576C162.207 130.036 161.959 129.591 161.62 129.232L161.815 128.68L165.059 128.391L165.496 132.11L164.818 132.19L164.463 129.167L162.34 129.352C162.609 129.664 162.852 130.072 162.919 130.649C163.053 131.784 162.449 132.812 161.203 132.958C159.958 133.104 159.022 132.258 158.871 130.966Z" fill="white"/>
<circle cx="134.272" cy="134.053" r="4.71869" transform="rotate(180 134.272 134.053)" fill="#8BD5E6"/>
</g>
<defs>
<filter id="filter0_d_1490_5014" x="-7.78052" y="-4.99951" width="284.108" height="284.107" filterUnits="userSpaceOnUse" color-interpolation-filters="sRGB">
<feFlood flood-opacity="0" result="BackgroundImageFix"/>
<feColorMatrix in="SourceAlpha" type="matrix" values="0 0 0 0 0 0 0 0 0 0 0 0 0 0 0 0 0 0 127 0" result="hardAlpha"/>
<feOffset dy="3"/>
<feGaussianBlur stdDeviation="4"/>
<feColorMatrix type="matrix" values="0 0 0 0 0 0 0 0 0 0 0 0 0 0 0 0 0 0 0.24 0"/>
<feBlend mode="normal" in2="BackgroundImageFix" result="effect1_dropShadow_1490_5014"/>
<feBlend mode="normal" in="SourceGraphic" in2="effect1_dropShadow_1490_5014" result="shape"/>
</filter>
<clipPath id="clip0_1490_5014">
<rect width="268.322" height="276" fill="white"/>
</clipPath>
<clipPath id="clip1_1490_5014">
<rect width="115.866" height="79.8185" fill="white" transform="translate(192.234 70.5952) rotate(-180)"/>
</clipPath>
<clipPath id="clip2_1490_5014">
<rect width="111.819" height="89.7498" fill="white" transform="translate(79.0247 79.0381) rotate(90)"/>
</clipPath>
<clipPath id="clip3_1490_5014">
<rect width="103.359" height="75.4046" fill="white" transform="translate(201.084 185.722) rotate(-90)"/>
</clipPath>
</defs>
</svg>
