<svg width="358" height="250" viewBox="0 0 358 250" fill="none" xmlns="http://www.w3.org/2000/svg">
<g clip-path="url(#clip0_3599_1331)">
<rect width="358" height="250" rx="20" fill="#FFE2D5"/>
<path d="M155.75 70.9902C157.087 77.4467 163.19 99.8625 178.572 84.1662L187.248 138.527L150.119 159.457L139 126.822C134.162 121.688 123.774 116.724 121.949 95.48C119.009 61.247 160.36 30.7774 160.36 30.7774C160.36 30.7774 149.695 41.7468 155.75 70.9902Z" fill="#FF8800"/>
<path d="M160.622 132.526C156.797 129.521 120.65 96.7907 126.423 89.483C133.639 80.3483 181.973 74.244 182.92 46.84C183.666 25.24 167.32 13 167.32 13C167.32 13 184.628 13.96 201.16 29.8C217.692 45.64 217.086 69.8367 217.086 88.0541C217.086 96.3421 226.02 108.07 232.967 113.193C238.594 110.357 241.399 109.492 240.954 113.237C240.513 116.949 237.09 116.234 232.967 113.193C220.731 119.361 195.151 134.851 160.622 132.526Z" fill="#FF8800"/>
<path d="M167.95 148.839C160.171 158.659 206.957 309.201 212.11 313.239C280.03 317.799 249.793 252.039 260.592 225.159C276.433 185.733 282.998 135.399 276.758 109.239C271.078 85.4273 264.04 79.2392 264.04 79.2392C264.04 79.2392 269.801 98.6792 251.56 106.599C215.8 87.8792 245.952 56.1992 245.952 56.1992C245.952 56.1992 210.672 64.1192 203.472 87.1592C192.481 122.329 177.673 136.564 167.95 148.839Z" fill="#FF8800"/>
<path d="M134.199 266.679C130.84 290.679 117.271 293.479 127.191 294.039C142.712 290.919 165.735 272.439 163.431 233.079C160.551 183.879 145.239 81.1592 141.639 79.4792C138.039 77.7992 130.219 101.644 114.279 91.7192C101.559 83.7992 111.879 68.1992 111.879 68.1992C111.879 68.1992 92.443 84.2792 83.3216 100.599C73.8466 117.552 69.6939 148.99 83.3196 182.679C96.5208 215.319 121.991 218.37 137.799 224.439C164.679 234.759 139.974 225.42 134.199 266.679Z" fill="#FF8800"/>
<mask id="path-6-outside-1_3599_1331" maskUnits="userSpaceOnUse" x="83.0394" y="100.246" width="201" height="195" fill="black">
<rect fill="white" x="83.0394" y="100.246" width="201" height="195"/>
<path d="M220.775 252.346C217.962 248.582 184.778 240.074 170.631 248.008C161.211 253.291 159.124 271.855 164.754 276.459C170.383 281.063 210.299 279.057 214.574 276.253C218.489 273.685 224.058 256.737 220.775 252.346Z"/>
<path d="M137.546 124.337C144.163 136.429 140.431 151.21 129.21 157.351C117.988 163.492 103.527 158.667 96.9093 146.575C90.2917 134.482 94.0239 119.701 105.245 113.56C116.467 107.419 130.928 112.244 137.546 124.337Z"/>
<path d="M197.538 123.689C190.92 135.782 194.652 150.563 205.874 156.704C217.095 162.845 231.557 158.02 238.174 145.927C244.792 133.835 241.06 119.054 229.838 112.913C218.617 106.772 204.155 111.597 197.538 123.689Z"/>
<path d="M230.772 226.323C217.137 232.515 194.568 221.833 184.988 215.717C184.477 214.538 183.704 211.513 184.7 208.84C185.946 205.499 221.591 201.597 229.929 202.183C238.266 202.769 247.817 218.583 230.772 226.323Z"/>
<path d="M203.981 273.417C216.405 265.155 199.61 213.618 187.476 207.127C175.341 200.636 155.604 201.619 146.936 207.127C138.268 212.635 116.848 264.958 129.272 273.417C141.696 281.875 191.557 281.678 203.981 273.417Z"/>
<path d="M204.873 253.267C204.873 270.832 191.642 275.051 175.321 275.051C159 275.051 145.769 270.832 145.769 253.267C145.769 230.176 159 217.106 175.321 217.106C191.642 217.106 204.873 230.176 204.873 253.267Z"/>
<path d="M242.538 175.54C242.538 206.102 208.853 216.237 167.912 216.237C126.972 216.237 93.0394 206.102 93.0394 175.54C93.0394 131.637 126.972 112.805 167.912 112.805C208.853 112.805 242.538 128.161 242.538 175.54Z"/>
<path d="M182.854 160.61C182.854 163.65 180.39 166.115 177.349 166.115C174.309 166.115 171.845 163.65 171.845 160.61C171.845 157.57 174.309 155.105 177.349 155.105C180.39 155.105 182.854 157.57 182.854 160.61Z"/>
<path d="M182.855 160.608C182.855 163.648 180.391 166.113 177.35 166.113C174.31 166.113 171.846 163.648 171.846 160.608C171.846 157.568 174.31 155.103 177.35 155.103C180.391 155.103 182.855 157.568 182.855 160.608Z"/>
<path d="M180.537 164.664C180.537 168.025 177.813 170.749 174.453 170.749C171.093 170.749 168.369 168.025 168.369 164.664C168.369 161.304 171.093 158.58 174.453 158.58C177.813 158.58 180.537 161.304 180.537 164.664Z"/>
<path d="M182.75 229.625C168.965 235.478 146.668 224.239 137.243 217.888C135.554 216.75 134.685 214.031 137.126 211.006C139.365 208.231 174.185 204.679 182.505 205.472C190.826 206.264 199.982 222.31 182.75 229.625Z"/>
<path d="M186.947 251.956C184.022 248.278 143.644 242.801 130.84 252.758C122.199 259.478 125.906 273.3 131.671 277.734C137.436 282.168 177.274 278.969 181.464 276.038C185.3 273.355 190.36 256.247 186.947 251.956Z"/>
<path fill-rule="evenodd" clip-rule="evenodd" d="M138.528 184.658C156.289 184.658 170.688 170.26 170.688 152.499C170.688 147.388 169.495 142.555 167.373 138.264C171.341 137.605 176.846 136.854 180.538 136.854C184.894 136.854 192.215 137.897 196.434 138.604C194.416 142.81 193.286 147.522 193.286 152.499C193.286 170.26 207.684 184.658 225.446 184.658C243.207 184.658 257.605 170.26 257.605 152.499C257.605 134.738 243.207 120.339 225.446 120.339C214.2 120.339 204.302 126.111 198.554 134.855C194.784 134.179 185.832 132.798 180.538 132.798C176.015 132.798 169.255 133.804 165.197 134.521C159.418 125.965 149.63 120.339 138.528 120.339C120.767 120.339 106.369 134.738 106.369 152.499C106.369 170.26 120.767 184.658 138.528 184.658ZM138.528 180.602C154.049 180.602 166.631 168.02 166.631 152.499C166.631 136.978 154.049 124.395 138.528 124.395C123.007 124.395 110.425 136.978 110.425 152.499C110.425 168.02 123.007 180.602 138.528 180.602ZM253.549 152.499C253.549 168.02 240.967 180.602 225.446 180.602C209.925 180.602 197.342 168.02 197.342 152.499C197.342 136.978 209.925 124.395 225.446 124.395C240.967 124.395 253.549 136.978 253.549 152.499Z"/>
<path d="M239.062 250.715C239.062 249.115 240.36 247.818 241.96 247.818H248.334C249.934 247.818 251.231 249.115 251.231 250.715V282.005C251.231 283.605 249.934 284.903 248.334 284.903H241.96C240.36 284.903 239.062 283.605 239.062 282.005V250.715Z"/>
<path d="M199.08 250.715C199.08 249.115 200.377 247.818 201.977 247.818H208.351C209.951 247.818 211.248 249.115 211.248 250.715V282.005C211.248 283.605 209.951 284.903 208.351 284.903H201.977C200.377 284.903 199.08 283.605 199.08 282.005V250.715Z"/>
<path d="M163.732 241.445C163.732 239.845 165.029 238.548 166.63 238.548H258.762C260.362 238.548 261.659 239.845 261.659 241.445V248.012C261.659 249.612 260.362 250.909 258.762 250.909H228.051V282.006C228.051 283.606 226.754 284.904 225.154 284.904H218.78C217.18 284.904 215.883 283.606 215.883 282.006V250.909H187.49V282.006C187.49 283.606 186.193 284.904 184.592 284.904H178.219C176.618 284.904 175.321 283.606 175.321 282.006V250.909H166.63C165.029 250.909 163.732 249.612 163.732 248.012V241.445Z"/>
<path d="M242.698 175.862L227.16 226.376H173.004C171.724 226.376 170.687 227.414 170.687 228.694V236.227C170.687 237.507 171.724 238.545 173.004 238.545H253.548C254.766 238.545 255.764 237.606 255.858 236.412L274.065 177.225C274.523 175.735 273.409 174.226 271.85 174.226H244.914C243.896 174.226 242.998 174.89 242.698 175.862Z"/>
</mask>
<path d="M220.775 252.346C217.962 248.582 184.778 240.074 170.631 248.008C161.211 253.291 159.124 271.855 164.754 276.459C170.383 281.063 210.299 279.057 214.574 276.253C218.489 273.685 224.058 256.737 220.775 252.346Z" fill="#5C9A15"/>
<path d="M137.546 124.337C144.163 136.429 140.431 151.21 129.21 157.351C117.988 163.492 103.527 158.667 96.9093 146.575C90.2917 134.482 94.0239 119.701 105.245 113.56C116.467 107.419 130.928 112.244 137.546 124.337Z" fill="#5BB42B"/>
<path d="M197.538 123.689C190.92 135.782 194.652 150.563 205.874 156.704C217.095 162.845 231.557 158.02 238.174 145.927C244.792 133.835 241.06 119.054 229.838 112.913C218.617 106.772 204.155 111.597 197.538 123.689Z" fill="#5BB42B"/>
<path d="M230.772 226.323C217.137 232.515 194.568 221.833 184.988 215.717C184.477 214.538 183.704 211.513 184.7 208.84C185.946 205.499 221.591 201.597 229.929 202.183C238.266 202.769 247.817 218.583 230.772 226.323Z" fill="#5C9A15"/>
<path d="M203.981 273.417C216.405 265.155 199.61 213.618 187.476 207.127C175.341 200.636 155.604 201.619 146.936 207.127C138.268 212.635 116.848 264.958 129.272 273.417C141.696 281.875 191.557 281.678 203.981 273.417Z" fill="#5BB42B"/>
<path d="M204.873 253.267C204.873 270.832 191.642 275.051 175.321 275.051C159 275.051 145.769 270.832 145.769 253.267C145.769 230.176 159 217.106 175.321 217.106C191.642 217.106 204.873 230.176 204.873 253.267Z" fill="#A1DC3C"/>
<path d="M242.538 175.54C242.538 206.102 208.853 216.237 167.912 216.237C126.972 216.237 93.0394 206.102 93.0394 175.54C93.0394 131.637 126.972 112.805 167.912 112.805C208.853 112.805 242.538 128.161 242.538 175.54Z" fill="#5BB42B"/>
<path d="M182.854 160.61C182.854 163.65 180.39 166.115 177.349 166.115C174.309 166.115 171.845 163.65 171.845 160.61C171.845 157.57 174.309 155.105 177.349 155.105C180.39 155.105 182.854 157.57 182.854 160.61Z" fill="#D52C2F"/>
<path d="M182.855 160.608C182.855 163.648 180.391 166.113 177.35 166.113C174.31 166.113 171.846 163.648 171.846 160.608C171.846 157.568 174.31 155.103 177.35 155.103C180.391 155.103 182.855 157.568 182.855 160.608Z" fill="#D52C2F"/>
<path d="M180.537 164.664C180.537 168.025 177.813 170.749 174.453 170.749C171.093 170.749 168.369 168.025 168.369 164.664C168.369 161.304 171.093 158.58 174.453 158.58C177.813 158.58 180.537 161.304 180.537 164.664Z" fill="#FF686B"/>
<path d="M182.75 229.625C168.965 235.478 146.668 224.239 137.243 217.888C135.554 216.75 134.685 214.031 137.126 211.006C139.365 208.231 174.185 204.679 182.505 205.472C190.826 206.264 199.982 222.31 182.75 229.625Z" fill="#5C9A15"/>
<path d="M186.947 251.956C184.022 248.278 143.644 242.801 130.84 252.758C122.199 259.478 125.906 273.3 131.671 277.734C137.436 282.168 177.274 278.969 181.464 276.038C185.3 273.355 190.36 256.247 186.947 251.956Z" fill="#5BB42B"/>
<path fill-rule="evenodd" clip-rule="evenodd" d="M138.528 184.658C156.289 184.658 170.688 170.26 170.688 152.499C170.688 147.388 169.495 142.555 167.373 138.264C171.341 137.605 176.846 136.854 180.538 136.854C184.894 136.854 192.215 137.897 196.434 138.604C194.416 142.81 193.286 147.522 193.286 152.499C193.286 170.26 207.684 184.658 225.446 184.658C243.207 184.658 257.605 170.26 257.605 152.499C257.605 134.738 243.207 120.339 225.446 120.339C214.2 120.339 204.302 126.111 198.554 134.855C194.784 134.179 185.832 132.798 180.538 132.798C176.015 132.798 169.255 133.804 165.197 134.521C159.418 125.965 149.63 120.339 138.528 120.339C120.767 120.339 106.369 134.738 106.369 152.499C106.369 170.26 120.767 184.658 138.528 184.658ZM138.528 180.602C154.049 180.602 166.631 168.02 166.631 152.499C166.631 136.978 154.049 124.395 138.528 124.395C123.007 124.395 110.425 136.978 110.425 152.499C110.425 168.02 123.007 180.602 138.528 180.602ZM253.549 152.499C253.549 168.02 240.967 180.602 225.446 180.602C209.925 180.602 197.342 168.02 197.342 152.499C197.342 136.978 209.925 124.395 225.446 124.395C240.967 124.395 253.549 136.978 253.549 152.499Z" fill="#005271"/>
<path d="M239.062 250.715C239.062 249.115 240.36 247.818 241.96 247.818H248.334C249.934 247.818 251.231 249.115 251.231 250.715V282.005C251.231 283.605 249.934 284.903 248.334 284.903H241.96C240.36 284.903 239.062 283.605 239.062 282.005V250.715Z" fill="#856633"/>
<path d="M199.08 250.715C199.08 249.115 200.377 247.818 201.977 247.818H208.351C209.951 247.818 211.248 249.115 211.248 250.715V282.005C211.248 283.605 209.951 284.903 208.351 284.903H201.977C200.377 284.903 199.08 283.605 199.08 282.005V250.715Z" fill="#856633"/>
<path d="M163.732 241.445C163.732 239.845 165.029 238.548 166.63 238.548H258.762C260.362 238.548 261.659 239.845 261.659 241.445V248.012C261.659 249.612 260.362 250.909 258.762 250.909H228.051V282.006C228.051 283.606 226.754 284.904 225.154 284.904H218.78C217.18 284.904 215.883 283.606 215.883 282.006V250.909H187.49V282.006C187.49 283.606 186.193 284.904 184.592 284.904H178.219C176.618 284.904 175.321 283.606 175.321 282.006V250.909H166.63C165.029 250.909 163.732 249.612 163.732 248.012V241.445Z" fill="#005271"/>
<path d="M242.698 175.862L227.16 226.376H173.004C171.724 226.376 170.687 227.414 170.687 228.694V236.227C170.687 237.507 171.724 238.545 173.004 238.545H253.548C254.766 238.545 255.764 237.606 255.858 236.412L274.065 177.225C274.523 175.735 273.409 174.226 271.85 174.226H244.914C243.896 174.226 242.998 174.89 242.698 175.862Z" fill="#005271"/>
<path d="M125.489 143.226H130.289V140.772L128.299 139.335L125.489 143.226ZM123.084 135.569C120.935 134.016 117.934 134.5 116.382 136.649C114.83 138.799 115.314 141.799 117.463 143.351L120.274 139.46L123.084 135.569ZM223.995 143.226L221.185 139.335L219.195 140.772V143.226H223.995ZM232.021 143.351C234.17 141.799 234.654 138.799 233.102 136.649C231.549 134.5 228.549 134.016 226.4 135.569L229.21 139.46L232.021 143.351ZM227.472 169.756C230.123 169.756 232.272 167.607 232.272 164.956C232.272 162.305 230.123 160.156 227.472 160.156V164.956V169.756ZM120.274 169.756C122.925 169.756 125.074 167.607 125.074 164.956C125.074 162.305 122.925 160.156 120.274 160.156V164.956V169.756ZM125.489 143.226H120.689V152.497H125.489H130.289V143.226H125.489ZM125.489 143.226L128.299 139.335L123.084 135.569L120.274 139.46L117.463 143.351L122.678 147.117L125.489 143.226ZM223.995 143.226H219.195V152.497H223.995H228.795V143.226H223.995ZM223.995 143.226L226.806 147.117L232.021 143.351L229.21 139.46L226.4 135.569L221.185 139.335L223.995 143.226ZM227.472 164.956V160.156H217.621V164.956V169.756H227.472V164.956ZM120.274 164.956V160.156H110.423V164.956V169.756H120.274V164.956ZM170.631 248.008L165.935 239.635L170.631 248.008ZM220.775 252.346L228.464 246.597V246.597L220.775 252.346ZM214.574 276.253L209.309 268.226V268.226L214.574 276.253ZM164.754 276.459L158.676 283.89V283.89L164.754 276.459ZM184.988 215.717L176.18 219.536L177.348 222.229L179.822 223.809L184.988 215.717ZM230.772 226.323L234.742 235.064V235.064L230.772 226.323ZM229.929 202.183L230.602 192.607L229.929 202.183ZM184.7 208.84L175.706 205.486V205.486L184.7 208.84ZM203.981 273.417L198.665 265.423L198.665 265.423L203.981 273.417ZM129.272 273.417L134.674 265.481V265.481L129.272 273.417ZM146.936 207.127L141.787 199.024H141.787L146.936 207.127ZM137.243 217.888L131.876 225.848L131.878 225.849L137.243 217.888ZM182.75 229.625L178.999 220.789L182.75 229.625ZM182.505 205.472L181.595 215.028V215.028L182.505 205.472ZM137.126 211.006L129.655 204.977L129.655 204.977L137.126 211.006ZM130.84 252.758L124.947 245.18H124.947L130.84 252.758ZM186.947 251.956L194.461 245.98H194.461L186.947 251.956ZM181.464 276.038L175.961 268.172H175.961L181.464 276.038ZM131.671 277.734L137.524 270.124V270.124L131.671 277.734ZM167.373 138.264L165.802 128.793L153.03 130.913L158.768 142.519L167.373 138.264ZM196.434 138.604L205.09 142.757L210.613 131.246L198.021 129.136L196.434 138.604ZM198.554 134.855L196.86 144.304L203.095 145.422L206.576 140.129L198.554 134.855ZM165.197 134.521L157.242 139.894L160.73 145.059L166.868 143.975L165.197 134.521ZM228.051 250.909V241.309H218.451V250.909H228.051ZM215.883 250.909H225.483V241.309H215.883V250.909ZM187.49 250.909V241.309H177.89V250.909H187.49ZM175.321 250.909H184.921V241.309H175.321V250.909ZM227.16 226.376V235.976H234.251L236.335 229.199L227.16 226.376ZM242.698 175.862L233.523 173.04V173.04L242.698 175.862ZM255.858 236.412L246.683 233.59L246.372 234.601L246.288 235.655L255.858 236.412ZM274.065 177.225L283.241 180.048L283.241 180.048L274.065 177.225ZM271.85 174.226V183.826V183.826V174.226ZM244.914 174.226V164.626V164.626V174.226ZM170.631 248.008L175.327 256.381C177.011 255.437 180.042 254.623 184.522 254.397C188.842 254.179 193.727 254.544 198.491 255.278C203.243 256.011 207.596 257.068 210.795 258.1C212.41 258.622 213.556 259.081 214.243 259.41C214.59 259.576 214.673 259.64 214.582 259.579C214.531 259.545 214.367 259.433 214.139 259.236C213.926 259.052 213.522 258.676 213.087 258.094L220.775 252.346L228.464 246.597C227.332 245.083 225.996 244.113 225.226 243.599C224.333 243.005 223.401 242.508 222.543 242.097C220.822 241.271 218.804 240.51 216.691 239.828C212.434 238.455 207.08 237.175 201.416 236.302C195.764 235.431 189.525 234.921 183.556 235.222C177.747 235.514 171.325 236.612 165.935 239.635L170.631 248.008ZM220.775 252.346L213.087 258.094C212.658 257.521 212.429 257.018 212.312 256.709C212.195 256.4 212.159 256.203 212.153 256.17C212.147 256.134 212.191 256.401 212.156 257.053C212.085 258.362 211.753 260.228 211.149 262.326C210.553 264.395 209.799 266.317 209.09 267.718C208.735 268.42 208.466 268.842 208.328 269.033C208.105 269.34 208.395 268.825 209.309 268.226L214.574 276.253L219.84 284.28C221.732 283.039 223.053 281.433 223.871 280.305C224.774 279.06 225.556 277.702 226.222 276.386C227.556 273.749 228.724 270.678 229.599 267.641C230.466 264.631 231.155 261.276 231.328 258.092C231.466 255.533 231.458 250.602 228.464 246.597L220.775 252.346ZM214.574 276.253L209.309 268.226C210.145 267.678 210.729 267.535 210.47 267.617C210.358 267.653 210.048 267.74 209.483 267.857C208.361 268.09 206.741 268.341 204.679 268.579C200.585 269.051 195.312 269.405 189.936 269.537C184.537 269.67 179.282 269.573 175.176 269.202C173.107 269.016 171.55 268.778 170.506 268.536C169.078 268.204 169.715 268.115 170.831 269.028L164.754 276.459L158.676 283.89C161.2 285.954 164.316 286.809 166.165 287.238C168.398 287.757 170.916 288.096 173.448 288.325C178.543 288.785 184.59 288.875 190.409 288.731C196.249 288.587 202.108 288.202 206.877 287.653C209.247 287.38 211.49 287.05 213.391 286.655C214.337 286.458 215.329 286.219 216.274 285.919C217.072 285.666 218.47 285.179 219.84 284.28L214.574 276.253ZM164.754 276.459L170.831 269.028C171.96 269.951 171.681 270.549 171.417 269.098C171.202 267.911 171.168 266.134 171.514 264.092C171.856 262.07 172.505 260.186 173.321 258.729C174.151 257.248 174.922 256.609 175.327 256.381L170.631 248.008L165.935 239.635C157.561 244.332 153.794 253.736 152.583 260.885C151.934 264.719 151.845 268.777 152.527 272.53C153.161 276.019 154.732 280.665 158.676 283.89L164.754 276.459ZM137.546 124.337L129.124 128.945C133.527 136.991 130.59 145.652 124.601 148.93L129.21 157.351L133.818 165.773C150.273 156.768 154.799 135.868 145.967 119.728L137.546 124.337ZM129.21 157.351L124.601 148.93C118.613 152.207 109.734 150.012 105.331 141.966L96.9093 146.575L88.4879 151.183C97.3202 167.323 117.364 174.777 133.818 165.773L129.21 157.351ZM96.9093 146.575L105.331 141.966C100.928 133.921 103.865 125.259 109.854 121.982L105.245 113.56L100.637 105.139C84.1824 114.143 79.6556 135.044 88.4879 151.183L96.9093 146.575ZM105.245 113.56L109.854 121.982C115.842 118.704 124.721 120.9 129.124 128.945L137.546 124.337L145.967 119.728C137.135 103.588 117.091 96.1342 100.637 105.139L105.245 113.56ZM197.538 123.689L189.116 119.081C180.284 135.22 184.811 156.121 201.265 165.125L205.874 156.704L210.482 148.282C204.494 145.005 201.556 136.343 205.959 128.298L197.538 123.689ZM205.874 156.704L201.265 165.125C217.72 174.13 237.763 166.676 246.596 150.536L238.174 145.927L229.753 141.319C225.35 149.364 216.471 151.56 210.482 148.282L205.874 156.704ZM238.174 145.927L246.596 150.536C255.428 134.396 250.901 113.496 234.447 104.491L229.838 112.913L225.23 121.334C231.218 124.612 234.156 133.273 229.753 141.319L238.174 145.927ZM229.838 112.913L234.447 104.491C217.993 95.4869 197.949 102.941 189.116 119.081L197.538 123.689L205.959 128.298C210.362 120.252 219.241 118.057 225.23 121.334L229.838 112.913ZM184.988 215.717L179.822 223.809C185.189 227.235 193.998 231.841 203.505 234.801C212.551 237.619 224.553 239.691 234.742 235.064L230.772 226.323L226.803 217.582C223.356 219.147 217.256 218.974 209.214 216.47C201.631 214.108 194.367 210.315 190.153 207.625L184.988 215.717ZM230.772 226.323L234.742 235.064C240.414 232.488 244.878 228.771 247.481 223.873C250.115 218.917 250.339 213.686 249.16 209.153C248.013 204.744 245.542 200.918 242.534 198.104C239.6 195.358 235.458 192.948 230.602 192.607L229.929 202.183L229.256 211.759C228.569 211.711 228.747 211.497 229.415 212.123C230.011 212.681 230.426 213.402 230.578 213.987C230.698 214.449 230.635 214.659 230.527 214.863C230.387 215.126 229.653 216.288 226.803 217.582L230.772 226.323ZM229.929 202.183L230.602 192.607C225.353 192.238 213.471 193.206 203.412 194.52C198.23 195.196 193.064 196.024 188.999 196.945C187.01 197.396 184.967 197.939 183.225 198.606C182.377 198.931 181.255 199.414 180.151 200.12C179.38 200.613 176.913 202.247 175.706 205.486L184.7 208.84L193.695 212.194C192.643 215.016 190.601 216.228 190.493 216.297C190.052 216.579 189.832 216.636 190.094 216.535C190.572 216.352 191.584 216.046 193.242 215.671C196.471 214.939 200.972 214.201 205.898 213.558C216.058 212.232 226.167 211.542 229.256 211.759L229.929 202.183ZM184.7 208.84L175.706 205.486C174.529 208.641 174.498 211.667 174.733 213.861C174.967 216.043 175.531 218.039 176.18 219.536L184.988 215.717L193.795 211.898C193.85 212.023 193.874 212.095 193.879 212.109C193.885 212.127 193.882 212.119 193.873 212.087C193.855 212.016 193.835 211.916 193.824 211.817C193.813 211.715 193.819 211.682 193.816 211.719C193.813 211.757 193.794 211.93 193.695 212.194L184.7 208.84ZM187.476 207.127L182.947 215.592C182.753 215.488 183.362 215.807 184.609 217.405C185.752 218.87 187.056 220.926 188.423 223.528C191.155 228.725 193.772 235.398 195.7 242.219C197.645 249.101 198.736 255.6 198.75 260.513C198.757 262.978 198.488 264.612 198.191 265.544C197.892 266.481 197.807 265.993 198.665 265.423L203.981 273.417L209.297 281.41C213.261 278.774 215.369 274.869 216.482 271.381C217.597 267.887 217.96 264.09 217.95 260.46C217.93 253.183 216.393 244.843 214.176 236.997C211.941 229.09 208.861 221.145 205.419 214.595C203.699 211.323 201.798 208.224 199.748 205.596C197.802 203.101 195.232 200.389 192.004 198.662L187.476 207.127ZM203.981 273.417L198.665 265.423C197.408 266.259 193.756 267.589 187.311 268.61C181.288 269.564 174.013 270.075 166.611 270.087C159.208 270.098 151.942 269.61 145.933 268.664C139.495 267.65 135.894 266.312 134.674 265.481L129.272 273.417L123.869 281.352C128.861 284.751 136.152 286.56 142.946 287.63C150.169 288.767 158.473 289.299 166.642 289.287C174.812 289.274 183.107 288.715 190.316 287.573C197.103 286.498 204.342 284.705 209.297 281.41L203.981 273.417ZM129.272 273.417L134.674 265.481C135.68 266.166 135.628 266.829 135.398 265.946C135.165 265.049 134.99 263.41 135.152 260.88C135.475 255.844 136.993 249.207 139.312 242.17C141.603 235.217 144.507 228.38 147.283 223.06C148.674 220.394 149.956 218.259 151.026 216.739C152.29 214.945 152.678 214.852 152.084 215.23L146.936 207.127L141.787 199.024C139.027 200.779 136.849 203.526 135.331 205.681C133.619 208.11 131.902 211.032 130.261 214.178C126.971 220.482 123.671 228.287 121.077 236.161C118.51 243.95 116.461 252.324 115.991 259.651C115.757 263.301 115.879 267.18 116.818 270.786C117.761 274.404 119.758 278.553 123.869 281.352L129.272 273.417ZM146.936 207.127L152.084 215.23C154.318 213.81 159.407 212.335 166.062 212.226C172.55 212.12 178.76 213.352 182.947 215.592L187.476 207.127L192.004 198.662C184.056 194.411 174.33 192.889 165.749 193.029C157.335 193.166 148.221 194.936 141.787 199.024L146.936 207.127ZM204.873 253.267H195.273C195.273 259.171 193.332 261.266 191.232 262.543C188.211 264.379 183.037 265.451 175.321 265.451V275.051V284.651C183.927 284.651 193.529 283.614 201.204 278.95C209.799 273.726 214.473 264.929 214.473 253.267H204.873ZM175.321 275.051V265.451C167.606 265.451 162.432 264.379 159.411 262.543C157.311 261.266 155.369 259.171 155.369 253.267H145.769H136.169C136.169 264.929 140.844 273.726 149.439 278.95C157.114 283.614 166.716 284.651 175.321 284.651V275.051ZM145.769 253.267H155.369C155.369 243.535 158.141 236.887 161.671 232.825C165.141 228.832 169.856 226.706 175.321 226.706V217.106V207.506C164.466 207.506 154.405 211.916 147.179 220.231C140.014 228.476 136.169 239.909 136.169 253.267H145.769ZM175.321 217.106V226.706C180.787 226.706 185.502 228.832 188.972 232.825C192.502 236.887 195.273 243.535 195.273 253.267H204.873H214.473C214.473 239.909 210.629 228.476 203.464 220.231C196.238 211.916 186.177 207.506 175.321 207.506V217.106ZM242.538 175.54H232.938C232.938 181.299 231.391 185.664 228.857 189.165C226.25 192.768 222.21 195.979 216.499 198.659C204.858 204.122 187.875 206.637 167.912 206.637V216.237V225.837C188.89 225.837 209.22 223.284 224.656 216.04C232.484 212.366 239.424 207.313 244.412 200.421C249.474 193.426 252.138 185.062 252.138 175.54H242.538ZM167.912 216.237V206.637C147.952 206.637 130.898 204.123 119.187 198.652C113.438 195.966 109.369 192.75 106.742 189.142C104.192 185.64 102.639 181.283 102.639 175.54H93.0394H83.4394C83.4394 185.078 86.1281 193.449 91.2202 200.443C96.2354 207.331 103.208 212.379 111.06 216.047C126.55 223.284 146.933 225.837 167.912 225.837V216.237ZM93.0394 175.54H102.639C102.639 156.39 109.871 143.645 120.882 135.39C132.286 126.841 148.732 122.405 167.912 122.405V112.805V103.205C146.152 103.205 125.162 108.185 109.365 120.028C93.1743 132.165 83.4394 150.787 83.4394 175.54H93.0394ZM167.912 112.805V122.405C187.452 122.405 203.761 126.116 214.963 134.192C225.608 141.867 232.938 154.419 232.938 175.54H242.538H252.138C252.138 149.282 242.625 130.466 226.192 118.618C210.317 107.172 189.314 103.205 167.912 103.205V112.805ZM182.854 160.61H173.254C173.254 158.348 175.088 156.515 177.349 156.515V166.115V175.715C185.692 175.715 192.454 168.952 192.454 160.61H182.854ZM177.349 166.115V156.515C179.611 156.515 181.445 158.348 181.445 160.61H171.845H162.245C162.245 168.952 169.007 175.715 177.349 175.715V166.115ZM171.845 160.61H181.445C181.445 162.871 179.611 164.705 177.349 164.705V155.105V145.505C169.007 145.505 162.245 152.268 162.245 160.61H171.845ZM177.349 155.105V164.705C175.088 164.705 173.254 162.871 173.254 160.61H182.854H192.454C192.454 152.268 185.692 145.505 177.349 145.505V155.105ZM182.855 160.608H173.255C173.255 158.346 175.089 156.513 177.35 156.513V166.113V175.713C185.693 175.713 192.455 168.95 192.455 160.608H182.855ZM177.35 166.113V156.513C179.612 156.513 181.446 158.346 181.446 160.608H171.846H162.246C162.246 168.95 169.008 175.713 177.35 175.713V166.113ZM171.846 160.608H181.446C181.446 162.87 179.612 164.703 177.35 164.703V155.103V145.503C169.008 145.503 162.246 152.266 162.246 160.608H171.846ZM177.35 155.103V164.703C175.089 164.703 173.255 162.87 173.255 160.608H182.855H192.455C192.455 152.266 185.693 145.503 177.35 145.503V155.103ZM180.537 164.664H170.937C170.937 162.723 172.511 161.149 174.453 161.149V170.749V180.349C183.115 180.349 190.137 173.326 190.137 164.664H180.537ZM174.453 170.749V161.149C176.395 161.149 177.969 162.723 177.969 164.664H168.369H158.769C158.769 173.326 165.791 180.349 174.453 180.349V170.749ZM168.369 164.664H177.969C177.969 166.606 176.395 168.18 174.453 168.18V158.58V148.98C165.791 148.98 158.769 156.002 158.769 164.664H168.369ZM174.453 158.58V168.18C172.511 168.18 170.937 166.606 170.937 164.664H180.537H190.137C190.137 156.002 183.115 148.98 174.453 148.98V158.58ZM137.243 217.888L131.878 225.849C137.158 229.407 145.851 234.23 155.281 237.425C164.254 240.466 176.202 242.835 186.502 238.462L182.75 229.625L178.999 220.789C175.514 222.268 169.421 221.944 161.443 219.241C153.921 216.692 146.753 212.72 142.607 209.926L137.243 217.888ZM182.75 229.625L186.502 238.462C192.236 236.028 196.791 232.422 199.515 227.59C202.271 222.701 202.624 217.477 201.558 212.916C200.52 208.48 198.145 204.595 195.208 201.707C192.343 198.889 188.262 196.377 183.416 195.915L182.505 205.472L181.595 215.028C180.909 214.963 181.093 214.754 181.746 215.396C182.327 215.968 182.724 216.7 182.862 217.289C182.971 217.753 182.902 217.961 182.789 218.163C182.643 218.422 181.88 219.565 178.999 220.789L182.75 229.625ZM182.505 205.472L183.416 195.915C178.105 195.409 166.343 196.242 156.455 197.362C151.318 197.944 146.229 198.655 142.184 199.43C140.189 199.813 138.231 200.251 136.574 200.757C135.757 201.007 134.789 201.339 133.837 201.786C133.191 202.089 131.233 203.021 129.655 204.977L137.126 211.006L144.597 217.034C143.847 217.964 143.102 218.499 142.763 218.725C142.381 218.981 142.092 219.121 141.99 219.169C141.797 219.259 141.815 219.232 142.181 219.12C142.889 218.904 144.083 218.616 145.798 218.287C149.172 217.641 153.727 216.994 158.616 216.44C168.777 215.289 178.586 214.742 181.595 215.028L182.505 205.472ZM137.126 211.006L129.655 204.977C127.179 208.045 125.654 211.931 126.086 216.135C126.509 220.249 128.741 223.734 131.876 225.848L137.243 217.888L142.609 209.928C144.056 210.903 145.01 212.46 145.186 214.174C145.371 215.978 144.632 216.991 144.597 217.034L137.126 211.006ZM130.84 252.758L136.733 260.337C137.955 259.387 140.88 258.166 145.996 257.413C150.826 256.702 156.506 256.56 162.134 256.833C167.742 257.105 172.989 257.772 176.873 258.545C178.837 258.936 180.253 259.314 181.113 259.609C181.552 259.759 181.653 259.822 181.536 259.761C181.47 259.727 181.243 259.605 180.928 259.377C180.643 259.17 180.05 258.707 179.433 257.931L186.947 251.956L194.461 245.98C193.009 244.155 191.237 243.166 190.415 242.738C189.379 242.197 188.301 241.775 187.33 241.443C185.372 240.773 183.054 240.198 180.621 239.714C175.711 238.737 169.515 237.968 163.063 237.655C156.63 237.344 149.632 237.47 143.198 238.418C137.05 239.323 130.127 241.152 124.947 245.18L130.84 252.758ZM186.947 251.956L179.433 257.931C178.988 257.372 178.744 256.875 178.618 256.571C178.491 256.265 178.45 256.069 178.443 256.036C178.436 256.001 178.488 256.267 178.472 256.919C178.44 258.23 178.165 260.105 177.623 262.219C177.089 264.306 176.393 266.25 175.727 267.671C175.393 268.383 175.136 268.813 175.004 269.008C174.79 269.322 175.065 268.799 175.961 268.172L181.464 276.038L186.967 283.905C188.821 282.607 190.093 280.962 190.877 279.81C191.742 278.539 192.484 277.158 193.111 275.822C194.365 273.147 195.44 270.043 196.224 266.98C197 263.946 197.589 260.572 197.667 257.384C197.729 254.822 197.573 249.893 194.461 245.98L186.947 251.956ZM181.464 276.038L175.961 268.172C176.779 267.599 177.359 267.439 177.103 267.529C176.992 267.568 176.685 267.664 176.124 267.798C175.009 268.065 173.397 268.364 171.344 268.663C167.266 269.257 162.005 269.769 156.635 270.062C151.243 270.357 145.987 270.417 141.872 270.169C139.798 270.044 138.235 269.853 137.184 269.642C135.747 269.354 136.381 269.245 137.524 270.124L131.671 277.734L125.819 285.344C128.403 287.331 131.543 288.093 133.404 288.466C135.652 288.918 138.18 289.181 140.717 289.334C145.824 289.642 151.87 289.551 157.682 289.234C163.515 288.915 169.36 288.355 174.11 287.663C176.471 287.319 178.704 286.923 180.592 286.471C181.532 286.246 182.516 285.977 183.452 285.649C184.242 285.372 185.624 284.844 186.967 283.905L181.464 276.038ZM131.671 277.734L137.524 270.124C137.546 270.141 137.418 270.045 137.195 269.758C136.977 269.479 136.719 269.084 136.462 268.575C135.936 267.534 135.538 266.267 135.388 264.988C135.081 262.356 135.845 261.027 136.733 260.337L130.84 252.758L124.947 245.18C117.194 251.209 115.492 260.151 116.319 267.219C117.105 273.944 120.386 281.166 125.819 285.344L131.671 277.734ZM166.631 152.499H157.031C157.031 162.718 148.747 171.002 138.528 171.002V180.602V190.202C159.351 190.202 176.231 173.322 176.231 152.499H166.631ZM138.528 124.395V133.995C148.747 133.995 157.031 142.28 157.031 152.499H166.631H176.231C176.231 131.676 159.351 114.795 138.528 114.795V124.395ZM110.425 152.499H120.025C120.025 142.28 128.309 133.995 138.528 133.995V124.395V114.795C117.705 114.795 100.825 131.676 100.825 152.499H110.425ZM138.528 180.602V171.002C128.309 171.002 120.025 162.718 120.025 152.499H110.425H100.825C100.825 173.322 117.705 190.202 138.528 190.202V180.602ZM170.688 152.499H161.088C161.088 164.958 150.987 175.058 138.528 175.058V184.658V194.258C161.591 194.258 180.288 175.562 180.288 152.499H170.688ZM167.373 138.264L158.768 142.519C160.25 145.516 161.088 148.896 161.088 152.499H170.688H180.288C180.288 145.879 178.74 139.593 175.979 134.009L167.373 138.264ZM180.538 136.854V127.254C175.98 127.254 169.786 128.132 165.802 128.793L167.373 138.264L168.945 147.734C172.895 147.078 177.711 146.454 180.538 146.454V136.854ZM196.434 138.604L198.021 129.136C193.845 128.437 185.794 127.254 180.538 127.254V136.854V146.454C183.995 146.454 190.584 147.358 194.848 148.072L196.434 138.604ZM196.434 138.604L187.779 134.451C185.153 139.925 183.686 146.054 183.686 152.499H193.286H202.886C202.886 148.99 203.68 145.694 205.09 142.757L196.434 138.604ZM193.286 152.499H183.686C183.686 175.562 202.383 194.258 225.446 194.258V184.658V175.058C212.986 175.058 202.886 164.958 202.886 152.499H193.286ZM225.446 184.658V194.258C248.509 194.258 267.205 175.562 267.205 152.499H257.605H248.005C248.005 164.958 237.905 175.058 225.446 175.058V184.658ZM257.605 152.499H267.205C267.205 129.436 248.509 110.739 225.446 110.739V120.339V129.939C237.905 129.939 248.005 140.04 248.005 152.499H257.605ZM225.446 120.339V110.739C210.833 110.739 197.981 118.252 190.533 129.581L198.554 134.855L206.576 140.129C210.624 133.971 217.567 129.939 225.446 129.939V120.339ZM180.538 132.798V142.398C184.879 142.398 193.064 143.623 196.86 144.304L198.554 134.855L200.249 125.405C196.504 124.734 186.784 123.198 180.538 123.198V132.798ZM165.197 134.521L166.868 143.975C170.913 143.26 176.938 142.398 180.538 142.398V132.798V123.198C175.091 123.198 167.597 124.348 163.527 125.068L165.197 134.521ZM138.528 120.339V129.939C146.307 129.939 153.172 133.868 157.242 139.894L165.197 134.521L173.153 129.148C165.665 118.062 152.953 110.739 138.528 110.739V120.339ZM106.369 152.499H115.969C115.969 140.04 126.069 129.939 138.528 129.939V120.339V110.739C115.465 110.739 96.7686 129.436 96.7686 152.499H106.369ZM138.528 184.658V175.058C126.069 175.058 115.969 164.958 115.969 152.499H106.369H96.7686C96.7686 175.562 115.465 194.258 138.528 194.258V184.658ZM225.446 180.602V190.202C246.269 190.202 263.149 173.322 263.149 152.499H253.549H243.949C243.949 162.718 235.665 171.002 225.446 171.002V180.602ZM197.342 152.499H187.742C187.742 173.322 204.623 190.202 225.446 190.202V180.602V171.002C215.227 171.002 206.942 162.718 206.942 152.499H197.342ZM225.446 124.395V114.795C204.623 114.795 187.742 131.676 187.742 152.499H197.342H206.942C206.942 142.28 215.227 133.995 225.446 133.995V124.395ZM253.549 152.499H263.149C263.149 131.676 246.269 114.795 225.446 114.795V124.395V133.995C235.665 133.995 243.949 142.28 243.949 152.499H253.549ZM241.96 247.818V257.418H248.334V247.818V238.218H241.96V247.818ZM251.231 250.715H241.631V282.005H251.231H260.831V250.715H251.231ZM248.334 284.903V275.303H241.96V284.903V294.503H248.334V284.903ZM239.062 282.005H248.662V250.715H239.062H229.462V282.005H239.062ZM241.96 284.903V275.303C245.661 275.303 248.662 278.303 248.662 282.005H239.062H229.462C229.462 288.907 235.058 294.503 241.96 294.503V284.903ZM251.231 282.005H241.631C241.631 278.304 244.632 275.303 248.334 275.303V284.903V294.503C255.236 294.503 260.831 288.907 260.831 282.005H251.231ZM248.334 247.818V257.418C244.632 257.418 241.631 254.417 241.631 250.715H251.231H260.831C260.831 243.813 255.236 238.218 248.334 238.218V247.818ZM241.96 247.818V238.218C235.058 238.218 229.462 243.813 229.462 250.715H239.062H248.662C248.662 254.417 245.662 257.418 241.96 257.418V247.818ZM201.977 247.818V257.418H208.351V247.818V238.218H201.977V247.818ZM211.248 250.715H201.648V282.005H211.248H220.848V250.715H211.248ZM208.351 284.903V275.303H201.977V284.903V294.503H208.351V284.903ZM199.08 282.005H208.68V250.715H199.08H189.48V282.005H199.08ZM201.977 284.903V275.303C205.679 275.303 208.68 278.303 208.68 282.005H199.08H189.48C189.48 288.907 195.075 294.503 201.977 294.503V284.903ZM211.248 282.005H201.648C201.648 278.304 204.649 275.303 208.351 275.303V284.903V294.503C215.253 294.503 220.848 288.907 220.848 282.005H211.248ZM208.351 247.818V257.418C204.649 257.418 201.648 254.417 201.648 250.715H211.248H220.848C220.848 243.813 215.253 238.218 208.351 238.218V247.818ZM201.977 247.818V238.218C195.075 238.218 189.48 243.813 189.48 250.715H199.08H208.68C208.68 254.417 205.679 257.418 201.977 257.418V247.818ZM166.63 238.548V228.948C159.727 228.948 154.132 234.543 154.132 241.445H163.732H173.332C173.332 245.147 170.331 248.148 166.63 248.148V238.548ZM258.762 238.548V228.948H166.63V238.548V248.148H258.762V238.548ZM261.659 241.445H271.259C271.259 234.543 265.664 228.948 258.762 228.948V238.548V248.148C255.06 248.148 252.059 245.147 252.059 241.445H261.659ZM261.659 248.012H271.259V241.445H261.659H252.059V248.012H261.659ZM258.762 250.909V260.509C265.664 260.509 271.259 254.914 271.259 248.012H261.659H252.059C252.059 244.31 255.06 241.309 258.762 241.309V250.909ZM228.051 250.909V260.509H258.762V250.909V241.309H228.051V250.909ZM228.051 250.909H218.451V282.006H228.051H237.651V250.909H228.051ZM228.051 282.006H218.451C218.451 278.305 221.452 275.304 225.154 275.304V284.904V294.504C232.056 294.504 237.651 288.908 237.651 282.006H228.051ZM225.154 284.904V275.304H218.78V284.904V294.504H225.154V284.904ZM218.78 284.904V275.304C222.482 275.304 225.483 278.305 225.483 282.006H215.883H206.283C206.283 288.908 211.878 294.504 218.78 294.504V284.904ZM215.883 282.006H225.483V250.909H215.883H206.283V282.006H215.883ZM187.49 250.909V260.509H215.883V250.909V241.309H187.49V250.909ZM187.49 282.006H197.09V250.909H187.49H177.89V282.006H187.49ZM184.592 284.904V294.504C191.495 294.504 197.09 288.908 197.09 282.006H187.49H177.89C177.89 278.305 180.891 275.304 184.592 275.304V284.904ZM178.219 284.904V294.504H184.592V284.904V275.304H178.219V284.904ZM175.321 282.006H165.721C165.721 288.908 171.317 294.504 178.219 294.504V284.904V275.304C181.92 275.304 184.921 278.305 184.921 282.006H175.321ZM175.321 250.909H165.721V282.006H175.321H184.921V250.909H175.321ZM166.63 250.909V260.509H175.321V250.909V241.309H166.63V250.909ZM163.732 248.012H154.132C154.132 254.914 159.727 260.509 166.63 260.509V250.909V241.309C170.331 241.309 173.332 244.31 173.332 248.012H163.732ZM163.732 241.445H154.132V248.012H163.732H173.332V241.445H163.732ZM227.16 226.376L236.335 229.199L251.874 178.685L242.698 175.862L233.523 173.04L217.984 223.554L227.16 226.376ZM173.004 226.376V235.976H227.16V226.376V216.776H173.004V226.376ZM170.687 228.694H180.287C180.287 232.716 177.026 235.976 173.004 235.976V226.376V216.776C166.422 216.776 161.087 222.112 161.087 228.694H170.687ZM170.687 236.227H180.287V228.694H170.687H161.087V236.227H170.687ZM173.004 238.545V228.945C177.026 228.945 180.287 232.205 180.287 236.227H170.687H161.087C161.087 242.809 166.422 248.145 173.004 248.145V238.545ZM255.858 236.412L246.288 235.655C246.586 231.896 249.718 228.945 253.548 228.945V238.545V248.145C259.814 248.145 264.942 243.316 265.429 237.17L255.858 236.412ZM274.065 177.225L264.889 174.403L246.683 233.59L255.858 236.412L265.034 239.235L283.241 180.048L274.065 177.225ZM271.85 174.226V183.826C266.95 183.826 263.449 179.085 264.889 174.403L274.065 177.225L283.241 180.048C285.598 172.384 279.868 164.626 271.85 164.626V174.226ZM244.914 174.226V183.826H271.85V174.226V164.626H244.914V174.226ZM242.698 175.862L251.874 178.685C250.934 181.74 248.111 183.826 244.914 183.826V174.226V164.626C239.681 164.626 235.061 168.039 233.523 173.04L242.698 175.862ZM253.548 238.545V228.945H173.004V238.545V248.145H253.548V238.545Z" fill="#FFC53D" mask="url(#path-6-outside-1_3599_1331)"/>
<path d="M131.321 108.519C132.089 117.735 141.401 125.799 145.961 128.679L176.679 130.359C191.159 128.039 224.899 116.561 215.319 108.519C205.636 100.391 212.975 87.5006 217.959 84.2791C210.154 84.4298 205.608 88.6306 198.039 92.9191C203.392 83.0992 202.821 65.4358 195.639 48.0391C195.639 48.0391 195.639 61.4791 188.199 72.9991C184.414 78.8596 166.359 99.1591 149.319 100.119C135.687 100.887 137.4 86.6791 139.961 79.4791C136.761 85.3191 130.553 99.3031 131.321 108.519Z" fill="#FFC53D"/>
<path d="M220.776 252.347C217.962 248.584 184.778 240.076 170.631 248.01C161.211 253.293 159.124 271.857 164.754 276.461C170.384 281.065 210.299 279.059 214.574 276.255C218.489 273.687 224.058 256.738 220.776 252.347Z" fill="#5C9A15"/>
<ellipse cx="117.228" cy="135.456" rx="23.1617" ry="24.9596" transform="rotate(-28.6896 117.228 135.456)" fill="#5BB42B"/>
<ellipse cx="23.1617" cy="24.9596" rx="23.1617" ry="24.9596" transform="matrix(-0.877234 -0.480064 -0.480064 0.877234 250.157 124.035)" fill="#5BB42B"/>
<path d="M230.772 226.325C217.136 232.518 194.567 221.835 184.987 215.719C184.476 214.541 183.703 211.515 184.7 208.842C185.945 205.501 221.591 201.599 229.928 202.185C238.265 202.771 247.816 218.585 230.772 226.325Z" fill="#5C9A15"/>
<path d="M203.98 273.418C216.404 265.156 199.61 213.62 187.475 207.128C175.34 200.637 155.603 201.62 146.935 207.128C138.267 212.636 116.847 264.959 129.271 273.418C141.695 281.876 191.556 281.679 203.98 273.418Z" fill="#5BB42B"/>
<path d="M204.873 253.267C204.873 270.832 191.642 275.05 175.321 275.05C159 275.05 145.769 270.832 145.769 253.267C145.769 230.176 159 217.105 175.321 217.105C191.642 217.105 204.873 230.176 204.873 253.267Z" fill="#A1DC3C"/>
<path d="M242.538 175.54C242.538 206.102 208.853 216.237 167.913 216.237C126.972 216.237 93.0398 206.102 93.0398 175.54C93.0398 131.637 126.972 112.805 167.913 112.805C208.853 112.805 242.538 128.16 242.538 175.54Z" fill="#5BB42B"/>
<path d="M125.488 152.499V143.227L120.273 139.461" stroke="#123041" stroke-width="8.69176" stroke-linecap="round"/>
<path d="M223.994 152.499V143.227L229.209 139.461" stroke="#123041" stroke-width="8.69176" stroke-linecap="round"/>
<path d="M227.473 164.961H217.622" stroke="#A1DC3C" stroke-width="11.589" stroke-linecap="round"/>
<path d="M120.274 164.961H110.424" stroke="#A1DC3C" stroke-width="11.589" stroke-linecap="round"/>
<circle cx="177.349" cy="160.61" r="5.50478" fill="#D52C2F"/>
<mask id="mask0_3599_1331" style="mask-type:alpha" maskUnits="userSpaceOnUse" x="171" y="155" width="12" height="12">
<circle cx="177.351" cy="160.61" r="5.50478" fill="#D52C2F"/>
</mask>
<g mask="url(#mask0_3599_1331)">
<circle cx="174.454" cy="164.666" r="6.08423" fill="#FF686B"/>
</g>
<path d="M182.749 229.629C168.964 235.481 146.667 224.242 137.241 217.891C135.553 216.753 134.684 214.034 137.125 211.009C139.364 208.234 174.184 204.682 182.504 205.475C190.825 206.268 199.981 222.313 182.749 229.629Z" fill="#5C9A15"/>
<path d="M186.946 251.961C184.022 248.283 143.643 242.806 130.839 252.763C122.199 259.483 125.906 273.305 131.671 277.739C137.436 282.173 177.274 278.974 181.463 276.043C185.299 273.359 190.359 256.252 186.946 251.961Z" fill="#5BB42B"/>
<path d="M225.446 120.34C243.207 120.34 257.605 134.738 257.606 152.499L257.595 153.329C257.155 170.707 242.929 184.659 225.446 184.659L224.615 184.648C207.238 184.208 193.286 169.983 193.286 152.499C193.286 147.524 194.417 142.812 196.434 138.607C192.214 137.9 184.894 136.856 180.538 136.856C176.845 136.857 171.34 137.608 167.372 138.267C169.494 142.557 170.689 147.388 170.689 152.499L170.678 153.329C170.238 170.707 156.012 184.659 138.529 184.659L137.698 184.648C120.321 184.208 106.369 169.983 106.369 152.499C106.37 134.738 120.768 120.34 138.529 120.34C149.632 120.34 159.42 125.967 165.199 134.524C169.257 133.807 176.015 132.8 180.538 132.8C185.832 132.8 194.785 134.181 198.555 134.857C204.303 126.114 214.2 120.34 225.446 120.34ZM225.446 124.396C209.925 124.397 197.343 136.978 197.343 152.499C197.343 168.02 209.925 180.602 225.446 180.603C240.967 180.603 253.549 168.02 253.549 152.499C253.549 136.978 240.966 124.396 225.446 124.396ZM138.529 124.396C123.008 124.397 110.426 136.978 110.426 152.499C110.426 168.02 123.008 180.602 138.529 180.603C154.05 180.602 166.632 168.02 166.632 152.499C166.632 136.978 154.049 124.397 138.529 124.396Z" fill="#3D6F03"/>
<rect x="239.062" y="247.82" width="12.1685" height="37.0848" rx="2.89725" fill="#856633"/>
<rect x="199.08" y="247.82" width="12.1685" height="37.0848" rx="2.89725" fill="#856633"/>
<path d="M258.761 238.547C260.361 238.547 261.658 239.844 261.658 241.444V248.011C261.658 249.611 260.361 250.908 258.761 250.908H228.049V282.006C228.049 283.606 226.752 284.903 225.152 284.903H218.779C217.179 284.903 215.881 283.606 215.881 282.006V250.908H187.489V282.006C187.489 283.606 186.191 284.903 184.591 284.903H178.217C176.617 284.903 175.32 283.606 175.32 282.006V250.908H166.628C165.028 250.908 163.731 249.611 163.731 248.011V241.444C163.731 239.844 165.028 238.547 166.628 238.547H258.761Z" fill="#A47F42"/>
<path d="M271.85 174.23C273.409 174.23 274.524 175.739 274.066 177.229L255.857 236.422C255.761 237.614 254.766 238.553 253.549 238.553H173.005C171.725 238.553 170.688 237.514 170.688 236.234V228.701C170.688 227.421 171.725 226.384 173.005 226.384H227.159L242.698 175.867C242.998 174.895 243.897 174.23 244.914 174.23H271.85Z" fill="#005271"/>
</g>
<defs>
<clipPath id="clip0_3599_1331">
<rect width="358" height="250" rx="20" fill="white"/>
</clipPath>
</defs>
</svg>
