<svg width="358" height="250" viewBox="0 0 358 250" fill="none" xmlns="http://www.w3.org/2000/svg">
<rect width="358" height="250" rx="20" fill="#F1FFCC"/>
<rect x="150.69" y="27.0781" width="187.666" height="107.515" rx="4.04802" fill="#005271"/>
<rect x="158.301" y="34.4453" width="172.446" height="92.7806" rx="4.04802" fill="#123041"/>
<path d="M234.415 80.9486V73.8194L219.467 88.7739L222.998 92.3802L234.415 80.9486ZM268.476 76.4929C267.369 70.9232 263.182 66.746 262.702 66.2517L252.428 55.8086L246.556 61.6776L246.138 62.0953V69.2245L252.407 62.9586L258.251 68.8973L259.142 69.8023L259.205 69.865C259.205 69.865 259.595 70.2479 260.132 70.8884C261.777 72.7779 262.945 75.0339 263.538 77.4675C264.374 81.6448 264.791 86.5669 260.132 92.5404V99.9062C260.57 99.5233 260.828 99.2518 260.946 99.1543C265.126 95.0606 267.626 90.9252 268.609 86.5043C269.288 83.197 269.245 79.7821 268.483 76.4929H268.476ZM237.354 98.4999L237.201 98.4233H237.124C236.669 98.1856 236.236 97.9083 235.829 97.5948C235.446 97.3233 234.979 96.9613 234.436 96.4948C233.586 95.7986 232.527 94.8518 231.238 93.5916L228.348 90.6397L224.781 94.2043L227.658 97.1353V97.1771C232.109 101.521 234.394 102.747 235.237 103.102C237.906 104.416 240.798 105.216 243.763 105.462C245.125 105.568 246.494 105.54 247.851 105.378L248.179 105.344V100.233C244.48 100.819 240.691 100.212 237.361 98.4999H237.354Z" fill="white"/>
<path d="M243.619 64.6211V95.0592H236.939V71.3046L237.608 70.6363L237.97 70.2743L239.99 68.2553L241.356 66.8907L241.801 66.4451L243.174 65.0736L243.619 64.6211Z" fill="white"/>
<path d="M257.611 71.418V101.786L257.528 101.849C257.221 102.044 256.894 102.246 256.546 102.441C256.434 102.51 256.316 102.573 256.197 102.636C255.891 102.81 255.563 102.984 255.229 103.151C254.895 103.318 254.595 103.457 254.261 103.604L253.711 103.84L252.958 104.133L252.345 104.348C251.927 104.488 251.496 104.62 251.05 104.738L250.722 104.822V71.418H257.611Z" fill="white"/>
<path d="M250.714 79.4453H243.616V86.3377H250.714V79.4453Z" fill="white"/>
<g clip-path="url(#clip0_3599_1290)">
<ellipse cx="117.674" cy="232.448" rx="35.64" ry="6.90525" fill="#CDE491"/>
<ellipse cx="19.3271" cy="20.8274" rx="19.3271" ry="20.8274" transform="matrix(-0.877234 -0.480064 -0.480064 0.877234 187.763 84.4414)" fill="#5BB42B"/>
<ellipse cx="76.8434" cy="92.8907" rx="19.3271" ry="20.8274" transform="rotate(-28.6896 76.8434 92.8907)" fill="#5BB42B"/>
<path d="M179.675 162.84C170.583 171.414 149.879 169.079 140.663 166.841C139.941 166.048 138.513 163.868 138.577 161.489C138.658 158.515 165.744 145.801 172.485 144.011C179.225 142.22 191.039 152.123 179.675 162.84Z" fill="#5C9A15"/>
<path d="M146.206 229.478C149.674 228.06 153.051 209.167 152.366 199.762L119.057 205.078C118.372 212.711 118.327 228.278 119.969 229.478C122.023 230.977 141.872 231.25 146.206 229.478Z" fill="#5C9A15"/>
<path d="M148.81 208.544C159.177 201.651 145.163 158.646 135.037 153.23C124.911 147.813 108.442 148.634 101.209 153.23C93.9759 157.826 76.1023 201.486 86.4693 208.544C96.8363 215.602 138.443 215.438 148.81 208.544Z" fill="#5BB42B"/>
<path d="M89.5679 229.478C86.1 228.06 82.7234 209.167 83.4079 199.762L116.718 205.078C117.402 212.711 117.448 228.278 115.805 229.478C113.752 230.977 93.9027 231.25 89.5679 229.478Z" fill="#5BB42B"/>
<path d="M68.8121 187.773C68.5977 175.279 84.2676 161.547 92.1294 156.242C93.2015 156.242 95.7745 156.655 97.4898 158.305C99.6339 160.368 90.7894 188.952 87.5732 195.141C84.357 201.329 69.0801 203.392 68.8121 187.773Z" fill="#5BB42B"/>
<path d="M144.239 191.737C144.239 206.394 133.199 209.914 119.58 209.914C105.961 209.914 94.9204 206.394 94.9204 191.737C94.9204 172.469 105.961 161.562 119.58 161.562C133.199 161.562 144.239 172.469 144.239 191.737Z" fill="#A1DC3C"/>
<path d="M120.344 202.179C120.443 202.179 120.542 202.161 120.634 202.123C120.726 202.086 120.809 202.031 120.88 201.961L124.239 198.583C124.362 198.439 124.427 198.254 124.419 198.066C124.412 197.877 124.333 197.697 124.199 197.564C124.065 197.43 123.884 197.352 123.694 197.344C123.504 197.337 123.319 197.401 123.174 197.524L119.808 200.865C119.737 200.935 119.681 201.018 119.643 201.109C119.605 201.201 119.585 201.299 119.585 201.398C119.585 201.497 119.605 201.595 119.643 201.687C119.681 201.778 119.737 201.861 119.808 201.931C119.876 202.006 119.959 202.067 120.051 202.109C120.143 202.152 120.243 202.176 120.344 202.179Z" fill="#5BB42B"/>
<path d="M123.667 202.179C123.765 202.179 123.863 202.161 123.954 202.123C124.046 202.086 124.129 202.031 124.199 201.962C124.269 201.892 124.324 201.809 124.362 201.718C124.4 201.627 124.42 201.529 124.42 201.43C124.42 201.331 124.4 201.233 124.362 201.142C124.324 201.051 124.269 200.968 124.199 200.898L120.866 197.565C120.796 197.495 120.714 197.439 120.622 197.401C120.531 197.363 120.433 197.344 120.334 197.344C120.235 197.344 120.138 197.363 120.046 197.401C119.955 197.439 119.872 197.495 119.803 197.565C119.663 197.706 119.585 197.895 119.585 198.093C119.585 198.291 119.663 198.481 119.803 198.621L123.143 201.962C123.282 202.1 123.47 202.178 123.667 202.179Z" fill="#5BB42B"/>
<path d="M180.987 126.876C180.987 152.378 152.879 160.835 118.717 160.835C84.5545 160.835 56.2397 152.378 56.2397 126.876C56.2397 90.2417 84.5545 74.5273 118.717 74.5273C152.879 74.5273 180.987 87.3406 180.987 126.876Z" fill="#5BB42B"/>
<path d="M89.292 92.0469V99.7832" stroke="#123041" stroke-width="7.25276" stroke-linecap="round"/>
<path d="M159.901 91.5625V99.2988" stroke="#123041" stroke-width="7.25276" stroke-linecap="round"/>
<path d="M69.295 118.035H77.5148" stroke="#A1DC3C" stroke-width="9.67035" stroke-linecap="round"/>
<path d="M158.747 118.035H166.966" stroke="#A1DC3C" stroke-width="9.67035" stroke-linecap="round"/>
<path d="M130.217 110.329C130.217 104.52 130.217 101.599 119.338 101.599C108.459 101.599 108.459 104.001 108.459 110.329C108.459 120.698 113.33 126.742 119.338 126.742C125.347 126.742 130.217 119.973 130.217 110.329Z" fill="#D52C2F"/>
<path d="M119.339 126.738C123.548 126.738 127.194 123.415 129.003 118.11C126.899 115.656 123.791 113.525 120.036 112.208C115.933 110.769 111.826 110.57 108.479 111.407C108.806 121.113 113.543 126.738 119.339 126.738Z" fill="#FF686B"/>
<path fill-rule="evenodd" clip-rule="evenodd" d="M141.488 81.1609C145.498 80.8143 150.636 80.707 155.749 80.779C160.866 80.8511 166.004 81.1031 170.022 81.4841C172.026 81.6742 173.783 81.8994 175.13 82.157C175.801 82.2852 176.407 82.4285 176.906 82.5915C177.327 82.729 177.943 82.9609 178.379 83.3972L178.452 83.4714L178.516 83.5535C179.008 84.1936 179.33 85.1032 179.564 85.988C179.811 86.927 180.012 88.0541 180.168 89.2839C180.48 91.7469 180.626 94.7409 180.568 97.7146C180.509 100.682 180.246 103.694 179.716 106.175C179.451 107.413 179.11 108.57 178.666 109.54C178.236 110.481 177.635 111.414 176.759 111.998C176.305 112.3 175.749 112.513 175.205 112.675C174.64 112.842 173.984 112.985 173.267 113.108C171.832 113.354 170.053 113.538 168.073 113.669C164.108 113.931 159.215 113.987 154.399 113.872C149.583 113.756 144.803 113.467 141.064 113.03C139.199 112.812 137.555 112.553 136.28 112.249C135.646 112.097 135.061 111.926 134.571 111.725C134.136 111.547 133.555 111.26 133.149 110.773C132.625 110.145 132.307 109.255 132.087 108.425C131.852 107.537 131.67 106.475 131.53 105.322C131.251 103.012 131.128 100.197 131.143 97.3884C131.157 94.5777 131.31 91.7289 131.595 89.3455C131.737 88.1549 131.915 87.0565 132.132 86.1257C132.16 86.0068 132.191 85.8889 132.221 85.7712C128.848 85.2136 123.267 84.4305 119.91 84.4304C116.823 84.4305 112.135 85.097 108.973 85.6365C109.016 85.7981 109.058 85.9614 109.096 86.1257C109.313 87.0565 109.491 88.1548 109.633 89.3455C109.917 91.7289 110.071 94.5777 110.085 97.3884C110.1 100.197 109.976 103.012 109.697 105.322C109.558 106.475 109.376 107.537 109.141 108.425C108.921 109.255 108.603 110.145 108.079 110.773C107.673 111.26 107.092 111.547 106.656 111.725C106.167 111.926 105.582 112.097 104.947 112.249C103.673 112.553 102.028 112.812 100.164 113.03C96.4251 113.467 91.6452 113.756 86.8292 113.872C82.0125 113.987 77.1199 113.931 73.1544 113.669C71.1745 113.538 69.3957 113.354 67.9611 113.108C67.2441 112.985 66.5877 112.842 66.0226 112.675C65.479 112.513 64.9227 112.3 64.4689 111.998C63.5929 111.414 62.9919 110.481 62.5617 109.54C62.1183 108.569 61.7766 107.413 61.5119 106.175C60.9816 103.694 60.7188 100.682 60.6603 97.7146C60.6017 94.7409 60.7477 91.7469 61.0597 89.2839C61.2155 88.0541 61.4164 86.927 61.6642 85.988C61.8977 85.1032 62.2195 84.1936 62.712 83.5535L62.7755 83.4714L62.8488 83.3972C63.2853 82.9608 63.9007 82.729 64.3214 82.5915C64.8206 82.4284 65.427 82.2852 66.0978 82.157C67.4452 81.8994 69.2019 81.6742 71.2062 81.4841C75.2238 81.1031 80.3613 80.8511 85.4786 80.779C90.5921 80.707 95.7292 80.8143 99.7394 81.1609C101.737 81.3336 103.508 81.5696 104.872 81.8884C105.551 82.047 106.185 82.2383 106.715 82.4792C106.848 82.5397 106.994 82.6125 107.144 82.699C110.241 82.1316 116.086 81.2215 119.91 81.2214C123.984 81.2215 130.796 82.2567 133.91 82.8054C134.12 82.6697 134.329 82.563 134.513 82.4792C135.043 82.2384 135.677 82.047 136.356 81.8884C137.72 81.5697 139.49 81.3336 141.488 81.1609ZM85.5236 83.9871C80.4695 84.0582 75.4207 84.3074 71.5089 84.6785C69.549 84.8644 67.9055 85.079 66.7003 85.3093C66.0951 85.425 65.6362 85.5376 65.3185 85.6414C65.2478 85.6644 65.1911 85.6858 65.1466 85.7029C65.0491 85.905 64.9119 86.2561 64.7667 86.8064C64.5668 87.5641 64.3883 88.5425 64.2433 89.6873C63.9537 91.9731 63.8123 94.8097 63.8683 97.6521C63.9245 100.501 64.1779 103.292 64.6505 105.504C64.8872 106.611 65.1684 107.522 65.4806 108.206C65.8059 108.918 66.0938 109.224 66.2492 109.328C66.311 109.369 66.5123 109.472 66.9367 109.598C67.3395 109.718 67.8621 109.835 68.5031 109.945C69.7849 110.165 71.4416 110.339 73.3654 110.467C77.2074 110.72 81.9993 110.778 86.7521 110.664C91.5057 110.55 96.1811 110.266 99.7911 109.844C101.601 109.632 103.105 109.39 104.203 109.128C104.755 108.996 105.163 108.869 105.441 108.756C105.546 108.713 105.614 108.678 105.653 108.656C105.656 108.652 105.659 108.649 105.661 108.645C105.691 108.593 105.729 108.52 105.771 108.421C105.856 108.22 105.947 107.949 106.038 107.604C106.221 106.912 106.381 106.009 106.511 104.937C106.769 102.799 106.89 100.126 106.876 97.405C106.862 94.6861 106.713 91.9618 106.446 89.7253C106.313 88.6061 106.152 87.6326 105.971 86.8542C105.81 86.1645 105.65 85.7203 105.529 85.4734C105.497 85.4549 105.45 85.43 105.387 85.4011C105.125 85.2823 104.718 85.148 104.142 85.0134C102.996 84.7457 101.401 84.5257 99.463 84.3582C95.6011 84.0243 90.5813 83.9158 85.5236 83.9871ZM155.704 83.9871C150.647 83.9158 145.627 84.0243 141.765 84.3582C139.827 84.5257 138.232 84.7458 137.086 85.0134C136.51 85.148 136.103 85.2823 135.841 85.4011C135.778 85.4299 135.731 85.455 135.698 85.4734C135.578 85.7204 135.418 86.1646 135.257 86.8542C135.076 87.6326 134.915 88.6062 134.781 89.7253C134.514 91.9618 134.366 94.6861 134.352 97.405C134.338 100.126 134.459 102.799 134.717 104.937C134.846 106.009 135.006 106.912 135.19 107.604C135.281 107.949 135.372 108.22 135.457 108.421C135.499 108.519 135.537 108.593 135.567 108.645C135.569 108.649 135.572 108.653 135.574 108.656C135.614 108.678 135.682 108.713 135.787 108.756C136.065 108.869 136.473 108.996 137.025 109.128C138.123 109.39 139.627 109.632 141.437 109.844C145.047 110.266 149.722 110.55 154.476 110.664C159.228 110.778 164.02 110.72 167.862 110.467C169.786 110.339 171.443 110.165 172.725 109.945C173.366 109.835 173.888 109.718 174.291 109.598C174.715 109.473 174.917 109.369 174.979 109.328C175.134 109.224 175.422 108.918 175.747 108.206C176.059 107.522 176.341 106.611 176.577 105.504C177.05 103.292 177.303 100.501 177.36 97.6521C177.416 94.8097 177.274 91.9731 176.985 89.6873C176.839 88.5425 176.661 87.5641 176.461 86.8064C176.316 86.2562 176.179 85.9049 176.081 85.7029C176.037 85.6858 175.98 85.6644 175.909 85.6414C175.592 85.5376 175.133 85.425 174.527 85.3093C173.322 85.079 171.679 84.8644 169.719 84.6785C165.807 84.3074 160.758 84.0582 155.704 83.9871Z" fill="black"/>
</g>
<path d="M178.418 155.59L199.642 111.878" stroke="#9B9B9B" stroke-width="2.2275" stroke-linecap="round"/>
<rect x="181.38" y="142.648" width="5.97562" height="14.939" rx="1.782" transform="rotate(25.898 181.38 142.648)" fill="#232323"/>
<defs>
<clipPath id="clip0_3599_1290">
<rect width="135.868" height="178.418" fill="white" transform="matrix(-1 0 0 1 185.826 61.9531)"/>
</clipPath>
</defs>
</svg>
