<svg width="358" height="250" viewBox="0 0 358 250" fill="none" xmlns="http://www.w3.org/2000/svg">
<rect width="358" height="250" rx="20" fill="#D5FDFF"/>
<ellipse cx="176.382" cy="222.148" rx="63.4717" ry="11.2182" fill="#9ADEE2"/>
<path d="M215.631 219.298C213.26 220.7 186.843 220.559 181.506 217.044C175.012 212.766 172.633 207.014 174.198 202.045C177.558 191.379 185.118 191.597 193.454 192.311C201.79 193.026 225.526 194.221 227.274 198.742C229.3 203.981 221.796 215.652 215.631 219.298Z" fill="#E7EAEE"/>
<path d="M219.079 169.59C208.045 166.044 201.664 161.951 192.484 163.689C191.734 164.433 190.219 166.505 190.163 168.85C190.093 171.78 210.333 181.85 217.133 182.832C224.625 183.914 229.947 173.084 219.079 169.59Z" fill="#E7EAEE"/>
<path d="M203.921 214.367C214.134 207.576 200.328 165.209 190.353 159.873C180.377 154.537 164.152 155.345 157.026 159.873C149.901 164.401 132.293 207.414 142.506 214.367C152.719 221.32 193.708 221.159 203.921 214.367Z" fill="white"/>
<path d="M199.419 199.952C199.419 212.659 188.543 215.711 175.126 215.711C161.709 215.711 150.833 212.659 150.833 199.952C150.833 183.248 161.709 173.793 175.126 173.793C188.543 173.793 199.419 183.248 199.419 199.952Z" fill="white"/>
<path d="M135.779 64.6923C139.59 77.0446 155.907 101.229 159.358 111.341H191.987C195.439 101.229 210.498 77.0446 215.328 64.6923C221.319 49.3725 215.088 29.4609 198.26 29.4609C184.366 29.461 177.857 52.4048 176.03 64.6923C174.203 52.4048 167.218 29.4609 153.8 29.4609C136.972 29.4609 130.93 48.9738 135.779 64.6923Z" fill="white"/>
<path d="M234.671 134.975C234.671 159.836 207.409 168.08 174.276 168.08C141.142 168.08 113.68 159.836 113.68 134.975C113.68 92.5846 141.142 78.0508 174.276 78.0508C207.409 78.0508 234.671 90.566 234.671 134.975Z" fill="white"/>
<path d="M137.489 146.164H144.634" stroke="#FFC0C1" stroke-width="9.52685" stroke-linecap="round"/>
<path d="M216.56 146.164H223.705" stroke="#FFC0C1" stroke-width="9.52685" stroke-linecap="round"/>
<path d="M188.468 147.338C188.468 151.63 188.468 153.788 180.608 153.788C172.749 153.788 172.749 152.014 172.749 147.338C172.749 142.662 176.268 135.211 180.608 135.211C184.949 135.211 188.468 143.045 188.468 147.338Z" fill="#FFC0C1"/>
<path d="M180.599 135.207C183.393 135.207 185.845 138.455 187.238 141.913C185.355 142.791 183.069 143.309 180.605 143.309C178.11 143.309 175.799 142.779 173.902 141.881C175.286 138.378 177.767 135.207 180.599 135.207Z" fill="#E7EAEE"/>
<path d="M178.649 128.539C179.584 128.539 180.012 128.929 180.597 129.319C181.181 128.929 181.61 128.539 182.545 128.539C183.713 128.539 184.392 129.764 184.103 130.488C183.713 131.462 182.285 132.436 180.597 132.826C178.909 132.436 177.48 131.462 177.091 130.488C176.801 129.764 177.48 128.539 178.649 128.539Z" fill="#FFC0C1"/>
<path d="M184.2 224.056C181.828 225.458 155.411 225.317 150.074 221.801C143.58 217.524 141.202 211.771 142.767 206.803C146.127 196.137 153.686 196.354 162.022 197.069C170.358 197.783 194.094 198.978 195.843 203.5C197.868 208.739 190.365 220.41 184.2 224.056Z" fill="#E7EAEE"/>
<g clip-path="url(#clip0_3599_1373)">
<path d="M187.08 208.509C196.228 205.423 202.971 194.812 196.814 176.563C190.657 158.314 178.864 153.958 169.716 157.044C163.698 159.075 162.239 164.685 152.85 167.853C143.461 171.02 135.978 161.554 121.413 166.468C106.848 171.382 106.557 190.783 111.473 205.356C116.39 219.929 128.376 235.188 142.94 230.274C157.505 225.36 157.724 213.295 167.113 210.128C176.502 206.96 181.061 210.54 187.08 208.509Z" fill="#AC6647"/>
<circle cx="168.507" cy="186.118" r="9.68011" transform="rotate(71.3563 168.507 186.118)" fill="#123041"/>
<circle cx="168.511" cy="186.119" r="11.3636" transform="rotate(71.3563 168.511 186.119)" stroke="#123041" stroke-width="0.841749"/>
<path d="M256.649 147.944C257.403 147.69 258.237 147.882 258.77 148.473C259.923 149.75 261.866 152.106 262.562 154.167C263.257 156.228 263.138 159.279 262.994 160.993C262.928 161.787 262.381 162.445 261.627 162.699L243.436 168.837C242.854 169.033 242.216 168.965 241.688 168.651L240.017 167.657C239.489 167.343 238.85 167.275 238.268 167.471L237.789 167.633C236.688 168.004 235.494 167.413 235.122 166.312L233.373 161.127C233.002 160.026 233.593 158.832 234.695 158.461L235.321 158.249C235.932 158.043 236.416 157.567 236.631 156.958L237.2 155.355C237.415 154.746 237.898 154.27 238.51 154.064L256.649 147.944Z" fill="#563628"/>
<path d="M174.868 177.312L235.09 158.327L238.184 167.499L178.904 189.276L174.868 177.312Z" fill="#D07C57"/>
<path d="M136.942 180.777L146.494 209.091L140.512 211.11C140.512 211.11 139.851 208.894 139.302 207.52C137.643 203.374 134.804 201.98 133.343 197.76C131.83 193.388 133.306 190.434 132.036 185.986C131.675 184.721 130.96 182.796 130.96 182.796L136.942 180.777Z" fill="#563628"/>
<path d="M136.847 190.36L241.87 157.369" stroke="#DDDDDD" stroke-width="0.420874"/>
<path d="M140.875 202.326L243.882 164.02" stroke="#DDDDDD" stroke-width="0.420874"/>
<path d="M138.46 195.146L256.502 155.32" stroke="#DDDDDD" stroke-width="0.420874"/>
<path d="M257.048 156.914L139.275 197.537" stroke="#DDDDDD" stroke-width="0.420874"/>
<path d="M140.081 199.925L250.271 160.527" stroke="#DDDDDD" stroke-width="0.420874"/>
<path d="M248.924 156.544L137.657 192.751" stroke="#DDDDDD" stroke-width="0.420874"/>
<ellipse cx="136.844" cy="190.355" rx="0.631312" ry="0.631312" transform="rotate(71.3563 136.844 190.355)" fill="#123041"/>
<ellipse cx="137.656" cy="192.753" rx="0.631312" ry="0.631312" transform="rotate(71.3563 137.656 192.753)" fill="#123041"/>
<ellipse cx="138.455" cy="195.148" rx="0.631312" ry="0.631312" transform="rotate(71.3563 138.455 195.148)" fill="#123041"/>
<ellipse cx="139.265" cy="197.538" rx="0.631312" ry="0.631312" transform="rotate(71.3563 139.265 197.538)" fill="#123041"/>
<ellipse cx="140.077" cy="199.929" rx="0.631312" ry="0.631312" transform="rotate(71.3563 140.077 199.929)" fill="#123041"/>
<ellipse cx="140.876" cy="202.323" rx="0.631312" ry="0.631312" transform="rotate(71.3563 140.876 202.323)" fill="#123041"/>
<ellipse cx="241.737" cy="157.632" rx="0.631312" ry="0.631312" transform="rotate(71.3563 241.737 157.632)" fill="white"/>
<ellipse cx="248.923" cy="156.542" rx="0.631312" ry="0.631312" transform="rotate(71.3563 248.923 156.542)" fill="white"/>
<ellipse cx="256.507" cy="155.312" rx="0.631312" ry="0.631312" transform="rotate(71.3563 256.507 155.312)" fill="white"/>
<ellipse cx="257.051" cy="156.913" rx="0.631312" ry="0.631312" transform="rotate(71.3563 257.051 156.913)" fill="white"/>
<ellipse cx="250.275" cy="160.534" rx="0.631312" ry="0.631312" transform="rotate(71.3563 250.275 160.534)" fill="white"/>
<ellipse cx="243.89" cy="164.019" rx="0.631312" ry="0.631312" transform="rotate(71.3563 243.89 164.019)" fill="white"/>
<path d="M224.151 175.252C223.685 179.176 219.378 181.89 214.53 181.314C204.51 181.819 205.315 176.828 206.683 174.236C208.051 171.643 210.956 168.598 216.07 168.358C221.185 168.118 224.618 171.328 224.151 175.252Z" fill="#E7EAEE"/>
</g>
<path d="M165.071 192.293C158.451 191.174 149.008 179.21 145.294 170.637C144.763 169.413 144.172 166.555 148.261 165.819C151.146 165.301 171.55 172.289 175.599 175.457C181.01 179.691 180.245 194.858 165.071 192.293Z" fill="white"/>
<path d="M154.983 130.637C154.983 130.637 153.688 132.741 150.774 132.741C147.86 132.741 146.565 130.637 146.565 130.637" stroke="#123041" stroke-width="7.29627" stroke-linecap="round"/>
<path d="M212.845 130.637C212.845 130.637 211.55 132.741 208.636 132.741C205.722 132.741 204.426 130.637 204.426 130.637" stroke="#123041" stroke-width="7.29627" stroke-linecap="round"/>
<defs>
<clipPath id="clip0_3599_1373">
<rect width="72.8113" height="171.296" fill="white" transform="translate(258.764 117.906) rotate(71.3563)"/>
</clipPath>
</defs>
</svg>
