<svg width="420" height="288" viewBox="0 0 420 288" fill="none" xmlns="http://www.w3.org/2000/svg">
<g clip-path="url(#clip0_3452_1685)">
<rect width="420" height="287" rx="12.8" fill="#D5FDFF"/>
<g clip-path="url(#clip1_3452_1685)">
<ellipse cx="58.8638" cy="31.4466" rx="15.3492" ry="16.5407" transform="rotate(27.3125 58.8638 31.4466)" fill="#5BB42B"/>
<ellipse cx="15.3492" cy="16.5407" rx="15.3492" ry="16.5407" transform="matrix(-0.0925158 -0.995711 -0.995711 0.0925158 114.396 100.25)" fill="#5BB42B"/>
<path d="M60.3081 124.984C50.3976 124.457 40.3917 111.278 36.6276 104.754C36.6873 103.905 37.1575 101.89 38.5604 100.623C40.3141 99.039 62.4665 107.639 67.1899 110.531C71.9133 113.424 72.6962 125.642 60.3081 124.984Z" fill="#5C9A15"/>
<path d="M10.6998 50.8135C7.96511 60.3538 17.1603 74.1109 22.0997 79.797C22.9221 80.0175 24.9806 80.2304 26.6359 79.3174C28.7049 78.1761 27.8006 54.4302 26.6065 49.0217C25.4125 43.6131 14.1182 38.8882 10.6998 50.8135Z" fill="#5C9A15"/>
<path d="M0.277338 137.812C2.75074 139.466 16.6897 133.299 22.5786 128.672L4.28632 109.101C-1.04369 112.04 -11.3135 118.923 -11.3739 120.537C-11.4493 122.555 -2.81441 135.745 0.277338 137.812Z" fill="#5C9A15"/>
<path d="M15.2119 130.234C24.3546 133.999 46.4463 105.674 45.5161 96.6018C44.5858 87.5293 36.7318 77.05 30.4938 74.3286C24.2558 71.6073 -12.4286 79.2277 -12.472 89.1878C-12.5154 99.148 6.06909 126.47 15.2119 130.234Z" fill="#5BB42B"/>
<path d="M-24.8757 100.516C-25.4823 97.603 -14.5422 86.9898 -8.04541 83.2637L3.24628 107.556C-1.47584 111.397 -11.7052 118.34 -13.2245 117.791C-15.1236 117.105 -24.1175 104.157 -24.8757 100.516Z" fill="#5BB42B"/>
<path d="M24.2526 119.755C14.602 126.264 7.38143 120.558 1.33356 111.591C-4.71431 102.624 -7.29924 93.7914 2.35128 87.2825C15.0377 78.7261 27.1215 81.152 33.1694 90.1191C39.2173 99.0861 36.939 111.199 24.2526 119.755Z" fill="#A1DC3C"/>
<path d="M6.76319 108.657C6.80692 108.722 6.86313 108.779 6.92857 108.823C6.994 108.867 7.06738 108.897 7.14451 108.913L10.8604 109.624C11.0099 109.642 11.1602 109.602 11.2814 109.514C11.4025 109.425 11.4855 109.293 11.5139 109.145C11.5422 108.998 11.5138 108.844 11.4342 108.716C11.3547 108.588 11.2299 108.494 11.0848 108.453L7.39026 107.721C7.31289 107.705 7.23329 107.705 7.15604 107.72C7.07879 107.736 7.00541 107.766 6.94016 107.81C6.87491 107.854 6.81905 107.911 6.77583 107.977C6.73261 108.043 6.70289 108.116 6.68835 108.194C6.66914 108.272 6.66585 108.353 6.67871 108.433C6.69157 108.512 6.72031 108.588 6.76319 108.657Z" fill="#5BB42B"/>
<path d="M8.23878 110.845C8.28217 110.91 8.338 110.966 8.40306 111.009C8.46812 111.053 8.54112 111.083 8.6179 111.098C8.69491 111.114 8.77419 111.113 8.85117 111.098C8.92815 111.082 9.00129 111.052 9.06639 111.008C9.13149 110.964 9.18726 110.908 9.23047 110.842C9.27368 110.777 9.30348 110.703 9.31816 110.626L10.0327 106.952C10.048 106.875 10.0479 106.795 10.0324 106.718C10.017 106.641 9.98637 106.568 9.94247 106.503C9.89857 106.438 9.84222 106.382 9.77666 106.339C9.7111 106.296 9.63762 106.266 9.56049 106.252C9.40615 106.222 9.24641 106.255 9.11613 106.343C8.98585 106.431 8.89562 106.566 8.86517 106.721L8.149 110.403C8.11983 110.556 8.15208 110.715 8.23878 110.845Z" fill="#5BB42B"/>
<path d="M83.2745 115.149C66.4832 126.474 48.4331 111.722 33.2624 89.2292C18.0917 66.7359 11.0859 44.3374 27.8771 33.0125C51.9981 16.744 74.9186 28.4087 90.0893 50.902C105.26 73.3952 109.306 97.5921 83.2745 115.149Z" fill="#5BB42B"/>
<path d="M39.4902 37.6855L43.1404 43.0976" stroke="#A1DC3C" stroke-width="7.68" stroke-linecap="round"/>
<path d="M79.2129 96.5801L82.8631 101.992" stroke="#A1DC3C" stroke-width="7.68" stroke-linecap="round"/>
<path d="M92.3848 93.8457C92.3848 93.8457 92.8541 92.0844 91.3471 89.8501C89.8402 87.6158 88.0313 87.391 88.0313 87.391" stroke="#123041" stroke-width="4.88292" stroke-linecap="round"/>
<path d="M56.75 42.3828C56.75 42.3828 57.2193 40.6215 55.7124 38.3872C54.2054 36.1529 52.3966 35.9281 52.3966 35.9281" stroke="#123041" stroke-width="4.88292" stroke-linecap="round"/>
<ellipse cx="67.3514" cy="69.3814" rx="3.456" ry="4.224" transform="rotate(56.0021 67.3514 69.3814)" fill="#123041"/>
<path d="M70.0098 68.5144C69.2982 67.4595 67.8662 67.1811 66.8113 67.8926C65.7564 68.6041 65.4779 70.0361 66.1895 71.091L68.0996 69.8027L70.0098 68.5144ZM74.5635 83.507L75.8518 85.4172L79.6721 82.8405L78.3838 80.9304L76.4736 82.2187L74.5635 83.507ZM68.0996 69.8027L66.1895 71.091L74.5635 83.507L76.4736 82.2187L78.3838 80.9304L70.0098 68.5144L68.0996 69.8027Z" fill="#FFC532"/>
<path d="M92.3919 101.816L79.3526 83.0536L76.169 85.2008L89.8658 105.18L97.6371 108.239L101.831 104.021L100.076 97.2977L97.259 95.5249L94.6603 97.5092L97.0629 98.6678L97.9329 102.018L95.5452 103.628L92.3919 101.816Z" fill="#FFE36C"/>
<path d="M101.832 104.023L95.546 103.63L97.9337 102.02L97.0636 98.6698L94.6611 97.5112L97.2598 95.5269L100.092 97.3223L101.832 104.023Z" fill="#FFC532"/>
</g>
<g clip-path="url(#clip2_3452_1685)">
<path d="M367.977 122.527C377.554 119.922 384.555 104.929 386.859 97.7583C386.622 96.9407 385.737 95.0698 384.098 94.1272C382.05 92.949 362.21 106.027 358.202 109.851C354.195 113.675 356.007 125.783 367.977 122.527Z" fill="#FFC532"/>
<path d="M416.305 49.3838C417.477 59.2387 406.199 71.3468 400.413 76.169C399.566 76.2551 397.5 76.1357 396.012 74.9695C394.152 73.5118 398.846 50.2168 400.89 45.0691C402.934 39.9214 414.839 37.0651 416.305 49.3838Z" fill="#FFC532"/>
<path d="M421.523 134.694C419.05 136.348 405.111 130.18 399.222 125.553L417.515 105.982C422.845 108.922 433.115 115.805 433.175 117.419C433.25 119.437 424.615 132.627 421.523 134.694Z" fill="#FFC532"/>
<path d="M406.589 127.115C397.446 130.879 375.355 102.554 376.286 93.4811C377.217 84.4087 385.071 73.9296 391.309 71.2085C397.547 68.4874 434.231 76.1091 434.274 86.0692C434.317 96.0294 415.732 123.35 406.589 127.115Z" fill="#FFDB40"/>
<path d="M446.68 97.3973C447.286 94.4845 436.347 83.8709 429.85 80.1446L418.558 104.437C423.28 108.277 433.509 115.221 435.028 114.672C436.927 113.986 445.921 101.038 446.68 97.3973Z" fill="#FFDB40"/>
<path d="M413.321 108.083C413.277 108.148 413.221 108.205 413.155 108.249C413.09 108.293 413.017 108.323 412.939 108.339L409.224 109.05C409.074 109.068 408.924 109.028 408.803 108.939C408.681 108.851 408.598 108.719 408.57 108.571C408.542 108.423 408.57 108.27 408.65 108.142C408.729 108.013 408.854 107.92 408.999 107.879L412.694 107.146C412.771 107.131 412.851 107.131 412.928 107.146C413.005 107.162 413.079 107.192 413.144 107.236C413.209 107.28 413.265 107.337 413.308 107.403C413.351 107.468 413.381 107.542 413.396 107.62C413.415 107.698 413.418 107.779 413.405 107.859C413.392 107.938 413.364 108.014 413.321 108.083Z" fill="#FFBB4D"/>
<path d="M411.845 110.271C411.802 110.336 411.746 110.392 411.681 110.435C411.616 110.479 411.543 110.509 411.466 110.524C411.389 110.539 411.31 110.539 411.233 110.524C411.156 110.508 411.083 110.478 411.018 110.434C410.952 110.39 410.897 110.334 410.853 110.268C410.81 110.202 410.78 110.129 410.766 110.052L410.051 106.378C410.036 106.301 410.036 106.221 410.052 106.144C410.067 106.067 410.098 105.994 410.142 105.929C410.186 105.864 410.242 105.808 410.307 105.765C410.373 105.722 410.446 105.692 410.524 105.677C410.678 105.648 410.838 105.681 410.968 105.769C411.098 105.856 411.188 105.992 411.219 106.146L411.935 109.829C411.964 109.982 411.932 110.141 411.845 110.271Z" fill="#FFBB4D"/>
<path d="M339.995 110.699C356.61 121.906 374.409 107.403 389.345 85.2593C404.282 63.1153 411.152 41.0454 394.537 29.8385C366.206 10.7294 344.114 22.5313 329.177 44.6753C314.241 66.8193 310.316 90.6805 339.995 110.699Z" fill="#FFDB40"/>
<path d="M392.99 49.6406L389.769 54.4159" stroke="#FCA18E" stroke-width="7.68" stroke-linecap="round"/>
<path d="M357.346 102.486L354.125 107.262" stroke="#FCA18E" stroke-width="7.68" stroke-linecap="round"/>
<path d="M368.872 78.9218C369.287 77.7186 370.598 77.0791 371.801 77.4934C373.004 77.9077 373.644 79.2188 373.229 80.422L371.051 79.6719L368.872 78.9218ZM368.354 94.5821L367.603 96.7605L363.246 95.2603L363.997 93.0819L366.175 93.832L368.354 94.5821ZM371.051 79.6719L373.229 80.422L368.354 94.5821L366.175 93.832L363.997 93.0819L368.872 78.9218L371.051 79.6719Z" fill="#4DB7D9"/>
<path d="M355.869 116.883L363.608 95.3852L367.239 96.6354L359.179 119.478L352.464 124.444L347.322 121.455L347.277 114.507L349.539 112.066L352.563 113.31L350.542 115.051L350.569 118.512L353.292 119.449L355.869 116.883Z" fill="#9EE7E5"/>
<path d="M347.323 121.456L353.293 119.45L350.57 118.513L350.543 115.052L352.564 113.311L349.54 112.066L347.269 114.534L347.323 121.456Z" fill="#4DB7D9"/>
<path d="M363.943 83.7766C366.844 85.7333 370.533 82.9335 373.557 78.4501C376.581 73.9667 377.795 69.4975 374.894 67.5407C371.993 65.5839 366.076 66.8806 363.052 71.364C360.028 75.8474 361.042 81.8198 363.943 83.7766Z" fill="#FFB132"/>
<path d="M314.125 43.1069C321.665 41.1661 328.339 41.6314 333.264 43.7591L326.625 51.6465C323.892 54.8942 317.506 55.4641 312.603 51.9323C307.701 48.4004 310.291 44.0938 314.125 43.1069Z" fill="#FFDB40"/>
<path d="M326.873 38.8001C327.327 41.294 330.27 43.8322 331.685 44.7895C333.38 41.6952 335.781 36.2036 334.507 34.069C333.233 31.9345 330.545 30.9171 329.273 31.6113C328 32.3055 326.305 35.6827 326.873 38.8001Z" fill="#FFDB40"/>
<path d="M356.908 90.4844C356.908 90.4844 355.099 90.7091 353.592 92.9434C352.085 95.1776 352.555 96.9389 352.555 96.9389" stroke="#123041" stroke-width="4.88292" stroke-linecap="round"/>
<path d="M382.89 51.9648C382.89 51.9648 381.081 52.1896 379.574 54.4238C378.067 56.6581 378.536 58.4194 378.536 58.4194" stroke="#123041" stroke-width="4.88292" stroke-linecap="round"/>
</g>
<path d="M162.025 248.699C162.523 248.382 163.179 248.722 163.205 249.313L163.308 251.629C163.334 252.22 162.711 252.618 162.186 252.345L160.129 251.275C159.604 251.003 159.572 250.264 160.07 249.947L162.025 248.699Z" fill="#9EE7E5"/>
<path d="M185.691 224.566C186.277 224.643 186.56 225.326 186.201 225.795L184.79 227.635C184.43 228.104 183.697 228.008 183.471 227.462L182.583 225.32C182.356 224.774 182.806 224.187 183.392 224.264L185.691 224.566Z" fill="#BBABDD"/>
<path d="M189.534 251.839C190.125 251.851 190.481 252.499 190.175 253.005L188.974 254.988C188.667 255.494 187.928 255.478 187.644 254.96L186.527 252.928C186.242 252.41 186.625 251.778 187.216 251.79L189.534 251.839Z" fill="#FFC5AB"/>
<rect x="147.318" y="246.273" width="1.82609" height="2.13726" rx="0.384" transform="rotate(36.6857 147.318 246.273)" fill="#FFC5AB"/>
<path d="M157.869 241.357C159.083 240.182 162.27 237.947 165.308 238.408C169.104 238.984 168.045 242.125 166.601 242.682C165.157 243.24 163.231 243.13 163.196 240.806C163.139 237.108 167.609 236.038 172.689 235.839" stroke="#AFD157" stroke-width="1.152" stroke-linecap="round"/>
<path d="M199.459 248.145C200.174 248.259 201.898 248.261 203.078 247.352C204.553 246.216 203.551 245.373 202.851 245.532C202.152 245.692 201.371 246.204 201.772 247.029C202.409 248.342 204.458 247.619 206.605 246.44" stroke="#FFC53D" stroke-width="1.152" stroke-linecap="round"/>
<rect x="179.756" y="242.436" width="1.82609" height="2.13726" rx="0.384" transform="rotate(59.7328 179.756 242.436)" fill="#FFC53D"/>
<rect x="198.041" y="236.943" width="1.82609" height="1.42922" rx="0.384" transform="rotate(22.5587 198.041 236.943)" fill="#9EE7E5"/>
<g clip-path="url(#clip3_3452_1685)">
<path d="M60.9037 183.996C72.5287 190.876 68.9374 194.306 65.934 199.381C62.9305 204.456 61.4162 209.115 50.0271 202.375C44.2455 198.953 41.9934 192.065 44.9969 186.99C48.0004 181.915 55.1221 180.575 60.9037 183.996Z" fill="white"/>
<path d="M77.944 185.173C77.944 191.58 75.709 191.618 72.952 191.618C70.195 191.618 67.96 191.58 67.96 185.173C67.96 178.765 71.0196 173.57 72.952 173.57C74.8843 173.57 77.944 178.765 77.944 185.173Z" fill="#6A5B3D"/>
<path d="M138.232 185.173C138.232 191.58 135.997 191.618 133.24 191.618C130.483 191.618 128.248 191.58 128.248 185.173C128.248 178.765 131.308 173.57 133.24 173.57C135.172 173.57 138.232 178.765 138.232 185.173Z" fill="#6A5B3D"/>
<path d="M146.385 183.996C134.76 190.876 138.352 194.306 141.355 199.381C144.359 204.456 145.873 209.115 157.262 202.375C163.044 198.953 165.296 192.065 162.292 186.99C159.289 181.915 152.167 180.575 146.385 183.996Z" fill="#123041"/>
<path d="M149.254 189.863C143.46 193.292 144.96 194.511 146.1 196.437C147.24 198.363 147.705 200.195 153.381 196.836C156.263 195.131 157.675 192.187 156.535 190.261C155.396 188.336 152.136 188.157 149.254 189.863Z" fill="#FFCACA"/>
<path d="M57.6901 189.863C63.4841 193.292 61.9839 194.511 60.8443 196.437C59.7048 198.363 59.2398 200.195 53.5633 196.836C50.6817 195.131 49.2695 192.187 50.4091 190.261C51.5487 188.336 54.8085 188.157 57.6901 189.863Z" fill="#FFCACA"/>
<path d="M134.112 258.784C125.171 263.092 120.996 256.977 113.759 254.892C113.212 254.239 112.152 252.462 112.283 250.576C112.447 248.219 123.585 243.977 129.037 243.603C138.016 242.986 143.606 254.209 134.112 258.784Z" fill="#E7EAEE"/>
<path d="M125.59 303.155C128.344 302.029 131.026 287.024 130.482 279.555L104.028 283.777C103.485 289.839 103.448 302.202 104.753 303.155C106.384 304.346 122.147 304.562 125.59 303.155Z" fill="#E7EAEE"/>
<path d="M127.657 286.536C135.891 281.061 124.761 246.908 116.719 242.606C108.677 238.304 95.5978 238.956 89.8536 242.606C84.1094 246.256 69.9146 280.931 78.1479 286.536C86.3811 292.141 119.424 292.011 127.657 286.536Z" fill="white"/>
<path fill-rule="evenodd" clip-rule="evenodd" d="M78.8282 263.631C80.9188 264.545 82.7283 265.945 83.5127 268.036C85.3559 272.951 91.7044 275.076 94.6485 275.524C94.6485 275.524 101.999 278.117 104.249 282.053C105.654 284.512 105.72 288.633 105.655 290.654C94.4707 290.94 82.6308 289.589 78.1475 286.537C74.002 283.714 75.543 273.522 78.8282 263.631Z" fill="#123041"/>
<path d="M80.6025 303.155C77.8484 302.029 75.1668 287.024 75.7104 279.555L102.164 283.777C102.708 289.839 102.744 302.202 101.439 303.155C99.8087 304.346 84.0451 304.562 80.6025 303.155Z" fill="#123041"/>
<path d="M124.792 274.149C124.792 284.392 116.024 286.853 105.208 286.853C94.3921 286.853 85.624 284.392 85.624 274.149C85.624 260.683 94.3921 253.061 105.208 253.061C116.024 253.061 124.792 260.683 124.792 274.149Z" fill="#FFC0C1"/>
<path d="M105.043 283.086C105.122 283.086 105.2 283.071 105.273 283.041C105.346 283.012 105.413 282.968 105.469 282.913L108.136 280.237C108.234 280.124 108.286 279.977 108.28 279.828C108.274 279.678 108.211 279.536 108.105 279.43C107.998 279.324 107.855 279.262 107.704 279.256C107.553 279.251 107.406 279.301 107.291 279.399L104.618 282.045C104.561 282.1 104.517 282.166 104.486 282.238C104.456 282.311 104.44 282.389 104.44 282.467C104.44 282.546 104.456 282.623 104.486 282.696C104.517 282.768 104.561 282.834 104.618 282.889C104.672 282.949 104.737 282.997 104.81 283.031C104.883 283.064 104.963 283.083 105.043 283.086Z" fill="#FF8D8D"/>
<path d="M107.682 283.086C107.76 283.086 107.838 283.071 107.91 283.042C107.983 283.012 108.049 282.969 108.104 282.914C108.16 282.858 108.204 282.793 108.235 282.721C108.265 282.648 108.28 282.571 108.28 282.492C108.28 282.414 108.265 282.337 108.235 282.264C108.204 282.192 108.16 282.126 108.104 282.071L105.458 279.431C105.402 279.376 105.337 279.332 105.264 279.301C105.192 279.271 105.114 279.256 105.035 279.256C104.957 279.256 104.879 279.271 104.807 279.301C104.734 279.332 104.669 279.376 104.613 279.431C104.502 279.542 104.44 279.693 104.44 279.85C104.44 280.006 104.502 280.157 104.613 280.268L107.266 282.914C107.377 283.023 107.526 283.085 107.682 283.086Z" fill="#FF8D8D"/>
<path d="M151.673 223.684C151.673 243.725 129.696 250.371 102.986 250.371C76.2751 250.371 54.1367 243.725 54.1367 223.684C54.1367 189.511 76.2751 177.795 102.986 177.795C129.696 177.795 151.673 187.884 151.673 223.684Z" fill="white"/>
<path d="M115.893 261.12C114.785 261.349 114.045 260.01 114.83 259.194L129.453 243.984C129.99 243.424 130.917 243.546 131.292 244.225L137.333 255.172C137.708 255.852 137.317 256.7 136.557 256.857L115.893 261.12Z" fill="#D52C2F"/>
<path d="M118.241 265.95C109.157 269.949 94.2838 262.698 87.9824 258.572C86.8113 257.418 87.1637 255.776 87.8446 254.013C88.6958 251.808 112.346 249.495 117.866 249.947C123.387 250.4 129.595 260.952 118.241 265.95Z" fill="white"/>
<path d="M106.381 177.852C129.531 178.636 148.433 187.77 151.296 215.94C138.408 216.988 136.136 207.184 131.979 203.347C127.749 199.442 118.963 201.557 112.129 196.024C107.939 192.633 106.605 184.246 106.381 177.852Z" fill="#123041"/>
<path d="M87.1602 234.32C87.1602 226.431 93.5557 220.035 101.445 220.035H108.587C116.477 220.035 122.872 226.431 122.872 234.32C122.872 239.579 118.608 243.843 113.349 243.843H96.6834C91.4238 243.843 87.1602 239.579 87.1602 234.32Z" fill="#FFC0C1"/>
<path d="M97.5283 230.787V235.011" stroke="#123041" stroke-width="3.84" stroke-linecap="round"/>
<path d="M112.889 230.787L112.889 235.011" stroke="#123041" stroke-width="3.84" stroke-linecap="round"/>
<path d="M67.96 235.012H73.72" stroke="#FFC0C1" stroke-width="7.68" stroke-linecap="round"/>
<path d="M136.696 235.012H142.456" stroke="#FFC0C1" stroke-width="7.68" stroke-linecap="round"/>
<path d="M83.4258 227.553C83.4258 227.553 82.228 226.179 79.533 226.179C76.838 226.179 75.6402 227.553 75.6402 227.553" stroke="#123041" stroke-width="4.88292" stroke-linecap="round"/>
<path d="M134.882 227.553C134.882 227.553 133.684 226.179 130.989 226.179C128.294 226.179 127.096 227.553 127.096 227.553" stroke="#123041" stroke-width="4.88292" stroke-linecap="round"/>
</g>
<path d="M278.361 261.085C287.302 265.393 291.477 259.278 298.714 257.193C299.26 256.54 300.321 254.763 300.19 252.877C300.026 250.52 288.887 246.278 283.436 245.903C274.457 245.287 268.867 256.51 278.361 261.085Z" fill="#E7EAEE"/>
<path d="M292.916 306.608C290.162 305.482 287.48 290.478 288.024 283.008L314.478 287.23C315.021 293.292 315.057 305.655 313.753 306.608C312.122 307.799 296.359 308.015 292.916 306.608Z" fill="#E7EAEE"/>
<path d="M290.848 289.989C282.615 284.514 293.745 250.361 301.787 246.059C309.828 241.757 322.908 242.409 328.652 246.059C334.396 249.709 348.591 284.384 340.358 289.989C332.125 295.594 299.082 295.464 290.848 289.989Z" fill="white"/>
<path d="M337.901 306.608C340.655 305.482 343.337 290.478 342.794 283.008L316.34 287.23C315.796 293.292 315.76 305.655 317.064 306.608C318.695 307.799 334.459 308.015 337.901 306.608Z" fill="white"/>
<path d="M294.48 278.368C294.48 288.611 303.248 291.071 314.064 291.071C324.88 291.071 333.648 288.611 333.648 278.368C333.648 264.902 324.88 257.279 314.064 257.279C303.248 257.279 294.48 264.902 294.48 278.368Z" fill="#E7EAEE"/>
<path d="M313.462 284.93C313.383 284.93 313.305 284.915 313.232 284.886C313.159 284.856 313.092 284.812 313.036 284.757L310.369 282.074C310.271 281.96 310.219 281.813 310.225 281.663C310.231 281.513 310.293 281.371 310.4 281.264C310.507 281.158 310.65 281.096 310.801 281.09C310.952 281.084 311.099 281.136 311.214 281.233L313.887 283.886C313.943 283.942 313.988 284.008 314.019 284.08C314.049 284.153 314.065 284.231 314.065 284.31C314.065 284.388 314.049 284.466 314.019 284.539C313.988 284.612 313.943 284.678 313.887 284.733C313.833 284.793 313.768 284.841 313.695 284.875C313.622 284.908 313.542 284.927 313.462 284.93Z" fill="#FFC0C1"/>
<path d="M310.823 284.93C310.745 284.93 310.667 284.915 310.594 284.886C310.522 284.856 310.456 284.812 310.401 284.757C310.345 284.702 310.301 284.636 310.27 284.564C310.24 284.491 310.225 284.414 310.225 284.335C310.225 284.257 310.24 284.179 310.27 284.106C310.301 284.034 310.345 283.968 310.401 283.913L313.047 281.266C313.102 281.21 313.168 281.166 313.241 281.136C313.313 281.105 313.391 281.09 313.469 281.09C313.548 281.09 313.626 281.105 313.698 281.136C313.771 281.166 313.836 281.21 313.892 281.266C314.002 281.377 314.065 281.528 314.065 281.685C314.065 281.842 314.002 281.993 313.892 282.104L311.239 284.757C311.128 284.867 310.979 284.929 310.823 284.93Z" fill="#FFC0C1"/>
<path d="M283.499 169.329C286.571 179.287 299.724 198.783 302.507 206.935H328.811C331.593 198.783 343.733 179.287 347.627 169.329C352.456 156.979 347.433 140.928 333.867 140.928C322.667 140.928 317.42 159.424 315.947 169.329C314.474 159.424 308.843 140.928 298.026 140.928C284.46 140.928 279.59 156.658 283.499 169.329Z" fill="white"/>
<path d="M265.681 225.985C265.681 246.026 287.657 252.672 314.368 252.672C341.078 252.672 363.217 246.026 363.217 225.985C363.217 191.812 341.078 180.096 314.368 180.096C287.657 180.096 265.681 190.185 265.681 225.985Z" fill="white"/>
<path d="M296.579 263.419C297.687 263.648 298.426 262.308 297.642 261.493L283.019 246.282C282.481 245.723 281.555 245.845 281.18 246.524L275.139 257.471C274.764 258.15 275.155 258.999 275.915 259.156L296.579 263.419Z" fill="#D52C2F"/>
<path d="M294.58 268.253C303.663 272.252 318.536 265 324.838 260.875C326.009 259.72 325.657 258.079 324.976 256.315C324.125 254.111 300.474 251.798 294.954 252.25C289.434 252.702 283.226 263.254 294.58 268.253Z" fill="white"/>
<path d="M344.017 235.008H338.257" stroke="#FFC0C1" stroke-width="7.68" stroke-linecap="round"/>
<path d="M280.273 235.008H274.513" stroke="#FFC0C1" stroke-width="7.68" stroke-linecap="round"/>
<path d="M315.601 231.376C315.601 227.916 315.601 226.176 309.265 226.176C302.929 226.176 302.929 227.607 302.929 231.376C302.929 235.146 305.765 241.152 309.265 241.152C312.764 241.152 315.601 234.837 315.601 231.376Z" fill="#FFC0C1"/>
<path d="M309.266 226.176C303.114 226.176 302.936 227.524 302.931 231.052C304.602 232.078 306.825 232.705 309.265 232.705C311.705 232.705 313.928 232.078 315.6 231.052C315.593 227.807 315.4 226.176 309.266 226.176Z" fill="#E7EAEE"/>
<path d="M310.835 220.801C310.081 220.801 309.736 221.115 309.265 221.429C308.793 221.115 308.448 220.801 307.694 220.801C306.752 220.801 306.205 221.788 306.438 222.372C306.752 223.157 307.904 223.943 309.265 224.257C310.625 223.943 311.777 223.157 312.091 222.372C312.324 221.788 311.777 220.801 310.835 220.801Z" fill="#FFC0C1"/>
<path d="M289.979 227.551C289.979 227.551 288.781 226.177 286.086 226.177C283.391 226.177 282.193 227.551 282.193 227.551" stroke="#123041" stroke-width="4.88292" stroke-linecap="round"/>
<path d="M336.442 227.551C336.442 227.551 335.245 226.177 332.55 226.177C329.855 226.177 328.657 227.551 328.657 227.551" stroke="#123041" stroke-width="4.88292" stroke-linecap="round"/>
<path d="M254.582 247.801C254.083 247.483 253.427 247.824 253.401 248.415L253.299 250.731C253.273 251.322 253.896 251.719 254.42 251.446L256.478 250.377C257.002 250.104 257.035 249.366 256.536 249.048L254.582 247.801Z" fill="#BBABDD"/>
<path d="M230.915 223.666C230.329 223.743 230.046 224.426 230.406 224.895L231.817 226.735C232.176 227.204 232.909 227.108 233.136 226.562L234.024 224.42C234.25 223.874 233.8 223.287 233.214 223.364L230.915 223.666Z" fill="#9EE7E5"/>
<path d="M227.072 250.941C226.481 250.953 226.125 251.601 226.431 252.106L227.633 254.09C227.939 254.595 228.678 254.58 228.963 254.062L230.08 252.029C230.364 251.511 229.982 250.879 229.39 250.892L227.072 250.941Z" fill="#9EE7E5"/>
<rect width="1.82609" height="2.13726" rx="0.384" transform="matrix(-0.801925 0.597425 0.597425 0.801925 269.289 245.377)" fill="#AFD157"/>
<path d="M258.739 240.456C257.525 239.281 254.337 237.046 251.3 237.507C247.503 238.084 248.563 241.224 250.007 241.782C251.451 242.34 253.376 242.229 253.412 239.906C253.468 236.207 248.998 235.138 243.919 234.938" stroke="#FFC53D" stroke-width="1.152" stroke-linecap="round"/>
<path d="M217.146 247.249C216.431 247.363 214.707 247.364 213.527 246.456C212.053 245.32 213.054 244.477 213.754 244.636C214.454 244.795 215.234 245.307 214.834 246.132C214.196 247.446 212.147 246.722 210 245.543" stroke="#BBABDD" stroke-width="1.152" stroke-linecap="round"/>
<rect width="1.82609" height="2.13726" rx="0.384" transform="matrix(-0.504033 0.863684 0.863684 0.504033 236.851 241.535)" fill="#FFC5AB"/>
<rect width="1.82609" height="1.42922" rx="0.384" transform="matrix(-0.923487 0.38363 0.38363 0.923487 218.565 236.045)" fill="#AFD157"/>
<path d="M200.506 127.508C202.092 127.238 203.718 127.327 205.265 127.769C206.812 128.211 208.24 128.995 209.444 130.062L209.45 130.067C209.485 130.098 209.537 130.098 209.572 130.067C210.721 129.059 212.071 128.307 213.534 127.862C214.997 127.417 216.537 127.289 218.053 127.487L218.494 127.551C220.405 127.881 222.191 128.722 223.663 129.984C225.135 131.246 226.238 132.883 226.856 134.721C227.474 136.559 227.583 138.53 227.172 140.425C226.762 142.32 225.846 144.068 224.522 145.486L224.2 145.817L224.114 145.891L210.763 159.114C210.455 159.419 210.047 159.602 209.614 159.629C209.182 159.656 208.754 159.525 208.41 159.261L208.242 159.114L194.814 145.814C193.392 144.429 192.38 142.679 191.892 140.755C191.403 138.832 191.456 136.81 192.045 134.915C192.635 133.02 193.737 131.325 195.23 130.018C196.723 128.71 198.549 127.842 200.506 127.508Z" fill="#0B2638"/>
</g>
<defs>
<clipPath id="clip0_3452_1685">
<rect width="420" height="287.36" fill="white"/>
</clipPath>
<clipPath id="clip1_3452_1685">
<rect width="107.904" height="141.696" fill="white" transform="translate(68.4746 1) rotate(56.0021)"/>
</clipPath>
<clipPath id="clip2_3452_1685">
<rect width="116.736" height="154.752" fill="white" transform="translate(278 82.7793) rotate(-56)"/>
</clipPath>
<clipPath id="clip3_3452_1685">
<rect width="120.96" height="143.232" fill="white" transform="translate(43 167.043)"/>
</clipPath>
</defs>
</svg>
