<svg width="1366" height="632" viewBox="0 0 1366 632" fill="none" xmlns="http://www.w3.org/2000/svg">
<g clip-path="url(#clip0_2198_1684)">
<rect width="1366" height="632" fill="#E9FBBA"/>
<path d="M476.02 77.2402C361.929 77.2402 269.44 163.819 269.44 270.62C269.44 377.423 361.929 464 476.02 464C361.929 464 269.44 550.578 269.44 657.38C269.44 764.183 361.929 850.76 476.02 850.76C590.113 850.76 682.6 764.183 682.6 657.38C682.6 764.183 775.087 850.76 889.18 850.76C1003.27 850.76 1095.76 764.183 1095.76 657.38C1095.76 550.578 1003.27 464 889.18 464C1003.27 464 1095.76 377.423 1095.76 270.62C1095.76 163.819 1003.27 77.2402 889.18 77.2402C775.087 77.2402 682.6 163.819 682.6 270.62C682.6 163.819 590.113 77.2402 476.02 77.2402Z" fill="#A1DC3C"/>
<g clip-path="url(#clip1_2198_1684)">
<ellipse cx="42.6457" cy="45.9562" rx="42.6457" ry="45.9562" transform="matrix(-0.877234 -0.480064 -0.480064 0.877234 990.395 334.889)" fill="#5BB42B"/>
<ellipse cx="745.643" cy="353.543" rx="42.6457" ry="45.9562" transform="rotate(-28.6896 745.643 353.543)" fill="#5BB42B"/>
<path d="M716.717 534.402C742.463 544.274 782.761 522.145 799.692 509.846C800.501 507.623 801.587 501.977 799.46 497.175C796.801 491.173 730.857 487.942 715.598 489.941C700.34 491.94 684.535 522.06 716.717 534.402Z" fill="#5C9A15"/>
<path d="M779.607 654.923C771.955 651.795 764.504 610.107 766.014 589.354L839.513 601.084C841.023 617.927 841.124 652.276 837.499 654.923C832.969 658.232 789.171 658.833 779.607 654.923Z" fill="#5C9A15"/>
<path d="M773.862 608.749C750.987 593.537 781.909 498.647 804.252 486.695C826.595 474.743 862.936 476.554 878.895 486.695C894.855 496.836 934.293 593.175 911.418 608.749C888.543 624.323 796.737 623.96 773.862 608.749Z" fill="#5BB42B"/>
<path d="M904.595 654.923C912.247 651.795 919.698 610.107 918.188 589.354L844.689 601.084C843.179 617.927 843.078 652.276 846.703 654.923C851.233 658.232 895.031 658.833 904.595 654.923Z" fill="#5BB42B"/>
<path d="M950.385 562.907C950.859 535.337 916.282 505.036 898.935 493.332C896.57 493.332 890.892 494.242 887.107 497.884C882.376 502.435 901.892 565.508 908.988 579.163C916.085 592.818 949.794 597.369 950.385 562.907Z" fill="#5BB42B"/>
<path d="M783.955 571.649C783.955 603.99 808.316 611.758 838.367 611.758C868.418 611.758 892.779 603.99 892.779 571.649C892.779 529.134 868.418 505.068 838.367 505.068C808.316 505.068 783.955 529.134 783.955 571.649Z" fill="#A1DC3C"/>
<path d="M836.586 566.243C836.367 566.244 836.15 566.206 835.947 566.131C835.743 566.056 835.559 565.946 835.403 565.807L827.987 559.037C827.714 558.75 827.571 558.379 827.588 558.001C827.604 557.622 827.778 557.263 828.074 556.995C828.371 556.727 828.769 556.57 829.189 556.556C829.608 556.541 830.018 556.67 830.337 556.916L837.77 563.61C837.926 563.75 838.05 563.917 838.134 564.1C838.219 564.283 838.263 564.48 838.263 564.678C838.263 564.877 838.219 565.074 838.134 565.257C838.05 565.44 837.926 565.607 837.77 565.746C837.619 565.897 837.437 566.018 837.234 566.103C837.031 566.189 836.81 566.236 836.586 566.243Z" fill="#5BB42B"/>
<path d="M829.249 566.243C829.032 566.244 828.816 566.206 828.615 566.131C828.413 566.057 828.23 565.947 828.075 565.808C827.921 565.668 827.797 565.502 827.714 565.319C827.63 565.136 827.586 564.94 827.586 564.742C827.586 564.544 827.63 564.348 827.714 564.165C827.797 563.982 827.921 563.816 828.075 563.677L835.434 556.999C835.587 556.858 835.77 556.746 835.972 556.67C836.173 556.594 836.389 556.555 836.608 556.555C836.826 556.555 837.042 556.594 837.244 556.67C837.445 556.746 837.628 556.858 837.782 556.999C838.09 557.28 838.263 557.66 838.263 558.057C838.263 558.453 838.09 558.833 837.782 559.115L830.407 565.808C830.099 566.085 829.683 566.241 829.249 566.243Z" fill="#5BB42B"/>
<path d="M700.198 428.535C700.198 484.806 762.219 503.466 837.599 503.466C912.98 503.466 975.457 484.806 975.457 428.535C975.457 347.7 912.98 313.025 837.599 313.025C762.219 313.025 700.198 341.298 700.198 428.535Z" fill="#5BB42B"/>
<path d="M923.182 354.637V371.707" stroke="#123041" stroke-width="16.0034" stroke-linecap="round"/>
<path d="M741.807 353.568V370.639" stroke="#123041" stroke-width="16.0034" stroke-linecap="round"/>
<path d="M946.65 409.049H928.513" stroke="#A1DC3C" stroke-width="21.3379" stroke-linecap="round"/>
<path d="M749.277 409.049H731.14" stroke="#A1DC3C" stroke-width="21.3379" stroke-linecap="round"/>
<path d="M812.223 392.035C812.223 379.216 812.223 372.771 836.228 372.771C860.234 372.771 860.234 378.071 860.234 392.035C860.234 414.914 849.486 428.25 836.228 428.25C822.971 428.25 812.223 413.313 812.223 392.035Z" fill="#D52C2F"/>
<path d="M836.229 428.254C826.942 428.254 818.888 420.924 814.896 409.219C819.539 403.794 826.409 399.089 834.705 396.181C843.754 393.008 852.811 392.565 860.194 394.408C859.477 415.836 849.023 428.254 836.229 428.254Z" fill="#FF686B"/>
</g>
<g clip-path="url(#clip2_2198_1684)">
<path d="M421.366 320.693C452.697 339.235 443.018 348.479 434.923 362.157C426.828 375.835 422.747 388.391 392.053 370.226C376.47 361.005 370.401 342.441 378.496 328.763C386.59 315.085 405.784 311.472 421.366 320.693Z" fill="white"/>
<path d="M605.822 323.863C605.822 341.133 611.846 341.235 619.276 341.235C626.707 341.235 632.73 341.133 632.73 323.863C632.73 306.594 624.484 292.594 619.276 292.594C614.068 292.594 605.822 306.594 605.822 323.863Z" fill="#6A5B3D"/>
<path d="M443.34 323.863C443.34 341.133 449.363 341.235 456.794 341.235C464.224 341.235 470.248 341.133 470.248 323.863C470.248 306.594 462.002 292.594 456.794 292.594C451.586 292.594 443.34 306.594 443.34 323.863Z" fill="#6A5B3D"/>
<path d="M651.746 320.693C620.416 339.235 630.095 348.479 638.189 362.157C646.284 375.835 650.365 388.391 681.06 370.226C696.642 361.005 702.712 342.441 694.617 328.763C686.522 315.085 667.328 311.472 651.746 320.693Z" fill="#123041"/>
<path d="M659.478 336.499C643.863 345.74 647.906 349.028 650.977 354.218C654.048 359.408 655.301 364.346 670.6 355.293C678.366 350.697 682.172 342.764 679.101 337.574C676.03 332.384 667.244 331.903 659.478 336.499Z" fill="#FFC0C1"/>
<path d="M412.705 336.499C428.32 345.74 424.277 349.028 421.206 354.218C418.134 359.408 416.881 364.346 401.583 355.293C393.816 350.697 390.01 342.764 393.082 337.574C396.153 332.384 404.938 331.903 412.705 336.499Z" fill="#FFC0C1"/>
<path d="M666.245 472.428C654.259 496.34 610.917 506.844 590.745 509.107C588.711 508.044 584.24 504.709 582.623 499.878C580.603 493.839 625.73 448.394 637.968 439.847C650.206 431.299 681.228 442.539 666.245 472.428Z" fill="#EFEFEF"/>
<path d="M597.621 641.837C605.044 638.803 612.271 598.364 610.806 578.232L539.51 589.611C538.045 605.95 537.948 639.269 541.464 641.837C545.859 645.046 588.343 645.63 597.621 641.837Z" fill="#EFEFEF"/>
<path d="M603.194 597.045C625.383 582.29 595.388 490.243 573.714 478.65C552.041 467.056 516.79 468.812 501.308 478.65C485.827 488.487 447.571 581.938 469.76 597.045C491.95 612.152 581.004 611.801 603.194 597.045Z" fill="white"/>
<path fill-rule="evenodd" clip-rule="evenodd" d="M471.596 535.311C477.23 537.775 482.105 541.549 484.219 547.186C489.186 560.432 506.297 566.16 514.231 567.367C514.231 567.367 534.041 574.353 540.105 584.961C543.892 591.587 544.07 602.696 543.897 608.143C513.753 608.913 481.843 605.273 469.76 597.047C458.586 589.44 462.742 561.969 471.596 535.311Z" fill="#123041"/>
<path d="M476.379 641.837C468.956 638.803 461.729 598.364 463.194 578.232L534.49 589.611C535.955 605.95 536.052 639.269 532.536 641.837C528.141 645.046 485.657 645.63 476.379 641.837Z" fill="#123041"/>
<path d="M595.473 563.657C595.473 591.265 571.842 597.895 542.692 597.895C513.542 597.895 489.911 591.265 489.911 563.657C489.911 527.365 513.542 506.822 542.692 506.822C571.842 506.822 595.473 527.365 595.473 563.657Z" fill="#FFC0C1"/>
<path d="M542.247 566.78C542.46 566.781 542.67 566.743 542.867 566.669C543.064 566.595 543.243 566.485 543.394 566.346L550.583 559.618C550.848 559.332 550.986 558.964 550.97 558.588C550.955 558.212 550.786 557.855 550.498 557.588C550.211 557.322 549.825 557.166 549.418 557.152C549.012 557.137 548.614 557.265 548.305 557.51L541.1 564.164C540.949 564.303 540.828 564.468 540.746 564.65C540.664 564.832 540.622 565.028 540.622 565.225C540.622 565.422 540.664 565.618 540.746 565.8C540.828 565.982 540.949 566.148 541.1 566.287C541.246 566.436 541.422 566.557 541.619 566.642C541.816 566.726 542.03 566.774 542.247 566.78Z" fill="#FF8D8D"/>
<path d="M549.359 566.78C549.57 566.781 549.779 566.744 549.975 566.669C550.17 566.595 550.348 566.486 550.497 566.348C550.648 566.209 550.767 566.044 550.848 565.862C550.93 565.68 550.971 565.485 550.971 565.288C550.971 565.092 550.93 564.897 550.848 564.715C550.767 564.533 550.648 564.368 550.497 564.229L543.364 557.592C543.215 557.452 543.038 557.341 542.843 557.265C542.648 557.189 542.438 557.15 542.226 557.15C542.015 557.15 541.805 557.189 541.61 557.265C541.415 557.341 541.237 557.452 541.088 557.592C540.79 557.871 540.622 558.249 540.622 558.643C540.622 559.037 540.79 559.415 541.088 559.695L548.237 566.348C548.536 566.623 548.939 566.778 549.359 566.78Z" fill="#FF8D8D"/>
<path d="M403.125 427.654C403.125 481.667 462.355 499.579 534.342 499.579C606.33 499.579 665.995 481.667 665.995 427.654C665.995 335.555 606.33 303.979 534.342 303.979C462.355 303.979 403.125 331.17 403.125 427.654Z" fill="white"/>
<path d="M543.928 304.131C606.321 306.245 657.266 330.864 664.981 406.787C630.247 409.611 624.125 383.185 612.922 372.844C601.521 362.319 577.84 368.019 559.422 353.109C548.13 343.968 544.533 321.365 543.928 304.131Z" fill="#123041"/>
<path d="M483.367 437.973C483.367 437.973 480.234 434.379 473.185 434.379C466.136 434.379 463.003 437.973 463.003 437.973" stroke="#123041" stroke-width="12.7718" stroke-linecap="round"/>
<path d="M626.186 437.973C626.186 437.973 623.053 434.379 616.004 434.379C608.955 434.379 605.822 437.973 605.822 437.973" stroke="#123041" stroke-width="12.7718" stroke-linecap="round"/>
<path d="M496.121 456.317C496.121 435.055 513.357 417.818 534.62 417.818H553.869C575.132 417.818 592.368 435.055 592.368 456.317C592.368 470.492 580.877 481.983 566.702 481.983H521.787C507.612 481.983 496.121 470.492 496.121 456.317Z" fill="#FFC0C1"/>
<path d="M524.063 446.797V458.181" stroke="#123041" stroke-width="10.3492" stroke-linecap="round"/>
<path d="M565.46 446.797L565.46 458.181" stroke="#123041" stroke-width="10.3492" stroke-linecap="round"/>
<path d="M444.375 458.182H459.898" stroke="#FFC0C1" stroke-width="20.6984" stroke-linecap="round"/>
<path d="M629.625 458.182H645.149" stroke="#FFC0C1" stroke-width="20.6984" stroke-linecap="round"/>
<path d="M422.905 483.527C433.546 508.067 462.234 508.451 482.25 511.83C484.339 510.881 488.988 507.8 490.871 503.066C493.223 497.148 464.692 461.779 452.947 452.565C441.202 443.351 409.605 452.852 422.905 483.527Z" fill="#EFEFEF"/>
</g>
<g filter="url(#filter0_d_2198_1684)">
<path d="M1035.99 537.636L1045.81 521.45C1046.04 521.04 1046.41 520.729 1046.8 520.518L1063.89 511.211C1065.68 510.223 1065.68 507.749 1063.89 506.707L1046.86 497.344C1046.43 497.133 1046.09 496.778 1045.87 496.412L1036 480.281C1034.97 478.573 1032.34 478.573 1031.25 480.281L1021.42 496.467C1021.2 496.878 1020.82 497.188 1020.43 497.399L1003.35 506.707C1001.55 507.694 1001.55 510.168 1003.35 511.211L1020.43 520.518C1020.87 520.729 1021.2 521.084 1021.42 521.45L1031.25 537.636C1032.34 539.344 1034.97 539.344 1036 537.636H1035.99Z" fill="white"/>
</g>
<path d="M1035.32 529.605L1042.4 517.951C1042.56 517.655 1042.83 517.432 1043.11 517.28L1055.41 510.578C1056.71 509.868 1056.71 508.086 1055.41 507.335L1043.15 500.594C1042.84 500.442 1042.6 500.187 1042.44 499.923L1035.33 488.309C1034.59 487.079 1032.7 487.079 1031.91 488.309L1024.84 499.963C1024.68 500.259 1024.4 500.482 1024.13 500.634L1011.82 507.335C1010.53 508.046 1010.53 509.828 1011.82 510.578L1024.13 517.28C1024.44 517.432 1024.68 517.687 1024.84 517.951L1031.91 529.605C1032.7 530.835 1034.59 530.835 1035.33 529.605H1035.32Z" fill="#FFC53D"/>
<g filter="url(#filter1_d_2198_1684)">
<path d="M188.189 261.909L196.052 248.96C196.23 248.632 196.532 248.383 196.842 248.215L210.51 240.769C211.947 239.979 211.947 238 210.51 237.165L196.886 229.675C196.54 229.506 196.274 229.222 196.096 228.929L188.198 216.025C187.372 214.658 185.269 214.658 184.399 216.025L176.536 228.974C176.358 229.302 176.057 229.551 175.746 229.719L162.079 237.165C160.641 237.955 160.641 239.934 162.079 240.769L175.746 248.215C176.092 248.383 176.358 248.667 176.536 248.96L184.399 261.909C185.269 263.276 187.372 263.276 188.198 261.909H188.189Z" fill="white"/>
</g>
<path d="M187.659 255.483L193.32 246.16C193.448 245.924 193.666 245.745 193.889 245.624L203.73 240.262C204.765 239.694 204.765 238.269 203.73 237.668L193.921 232.275C193.672 232.153 193.48 231.949 193.352 231.738L187.665 222.447C187.071 221.463 185.557 221.463 184.93 222.447L179.269 231.77C179.141 232.006 178.924 232.185 178.7 232.307L168.859 237.668C167.824 238.237 167.824 239.662 168.859 240.262L178.7 245.624C178.949 245.745 179.141 245.949 179.269 246.16L184.93 255.483C185.557 256.467 187.071 256.467 187.665 255.483H187.659Z" fill="#FFC53D"/>
<g filter="url(#filter2_d_2198_1684)">
<path d="M1181.73 422.285L1189.77 394.742C1189.93 394.054 1190.37 393.451 1190.85 392.991L1212.2 372.669C1214.45 370.519 1213.48 366.899 1210.44 366.077L1181.84 359.052C1181.13 358.913 1180.5 358.524 1180.03 358.076L1159.26 338.34C1157.08 336.244 1153.23 337.275 1152.31 340.202L1144.27 367.745C1144.11 368.433 1143.68 369.035 1143.19 369.496L1121.84 389.818C1119.59 391.967 1120.56 395.588 1123.6 396.41L1152.26 403.331C1152.97 403.47 1153.6 403.86 1154.07 404.308L1174.8 424.142C1177.06 426.216 1180.91 425.185 1181.75 422.28L1181.73 422.285Z" fill="white"/>
</g>
<path d="M1177.61 410.793L1183.4 390.962C1183.52 390.467 1183.83 390.033 1184.18 389.701L1199.55 375.07C1201.17 373.522 1200.47 370.915 1198.28 370.324L1177.69 365.265C1177.18 365.165 1176.73 364.885 1176.39 364.562L1161.43 350.353C1159.86 348.844 1157.09 349.586 1156.43 351.693L1150.64 371.524C1150.52 372.019 1150.21 372.453 1149.86 372.785L1134.49 387.417C1132.87 388.964 1133.57 391.571 1135.76 392.163L1156.39 397.146C1156.91 397.246 1157.36 397.527 1157.69 397.85L1172.62 412.13C1174.25 413.623 1177.02 412.881 1177.63 410.79L1177.61 410.793Z" fill="#FFC53D"/>
<g filter="url(#filter3_d_2198_1684)">
<path d="M301.77 420.482L319.79 390.808C320.197 390.055 320.888 389.486 321.6 389.099L352.921 372.035C356.216 370.225 356.216 365.69 352.921 363.778L321.701 346.612C320.908 346.226 320.298 345.575 319.891 344.904L301.79 315.332C299.899 312.199 295.079 312.199 293.086 315.332L275.065 345.006C274.658 345.758 273.967 346.328 273.256 346.714L241.934 363.778C238.639 365.588 238.639 370.124 241.934 372.035L273.256 389.099C274.049 389.486 274.658 390.137 275.065 390.808L293.086 420.482C295.079 423.614 299.899 423.614 301.79 420.482H301.77Z" fill="white"/>
</g>
<path d="M300.554 405.759L313.528 384.394C313.821 383.852 314.319 383.442 314.832 383.163L337.383 370.878C339.755 369.574 339.755 366.309 337.383 364.932L314.905 352.573C314.334 352.295 313.894 351.826 313.601 351.343L300.569 330.051C299.207 327.796 295.737 327.796 294.301 330.051L281.327 351.416C281.034 351.958 280.536 352.368 280.024 352.646L257.472 364.932C255.1 366.235 255.1 369.501 257.472 370.878L280.024 383.163C280.595 383.442 281.034 383.91 281.327 384.394L294.301 405.759C295.737 408.014 299.207 408.014 300.569 405.759H300.554Z" fill="#FFC53D"/>
</g>
<defs>
<filter id="filter0_d_2198_1684" x="1002" y="479" width="67.2345" height="63.918" filterUnits="userSpaceOnUse" color-interpolation-filters="sRGB">
<feFlood flood-opacity="0" result="BackgroundImageFix"/>
<feColorMatrix in="SourceAlpha" type="matrix" values="0 0 0 0 0 0 0 0 0 0 0 0 0 0 0 0 0 0 127 0" result="hardAlpha"/>
<feOffset dx="4" dy="4"/>
<feColorMatrix type="matrix" values="0 0 0 0 0.584314 0 0 0 0 0.615686 0 0 0 0 0.647059 0 0 0 0.2 0"/>
<feBlend mode="normal" in2="BackgroundImageFix" result="effect1_dropShadow_2198_1684"/>
<feBlend mode="normal" in="SourceGraphic" in2="effect1_dropShadow_2198_1684" result="shape"/>
</filter>
<filter id="filter1_d_2198_1684" x="161" y="215" width="53.7876" height="51.1336" filterUnits="userSpaceOnUse" color-interpolation-filters="sRGB">
<feFlood flood-opacity="0" result="BackgroundImageFix"/>
<feColorMatrix in="SourceAlpha" type="matrix" values="0 0 0 0 0 0 0 0 0 0 0 0 0 0 0 0 0 0 127 0" result="hardAlpha"/>
<feOffset dx="3.2" dy="3.2"/>
<feColorMatrix type="matrix" values="0 0 0 0 0.584314 0 0 0 0 0.615686 0 0 0 0 0.647059 0 0 0 0.2 0"/>
<feBlend mode="normal" in2="BackgroundImageFix" result="effect1_dropShadow_2198_1684"/>
<feBlend mode="normal" in="SourceGraphic" in2="effect1_dropShadow_2198_1684" result="shape"/>
</filter>
<filter id="filter2_d_2198_1684" x="1120.61" y="337.234" width="96.8226" height="91.998" filterUnits="userSpaceOnUse" color-interpolation-filters="sRGB">
<feFlood flood-opacity="0" result="BackgroundImageFix"/>
<feColorMatrix in="SourceAlpha" type="matrix" values="0 0 0 0 0 0 0 0 0 0 0 0 0 0 0 0 0 0 127 0" result="hardAlpha"/>
<feOffset dx="4" dy="4"/>
<feColorMatrix type="matrix" values="0 0 0 0 0.584314 0 0 0 0 0.615686 0 0 0 0 0.647059 0 0 0 0.2 0"/>
<feBlend mode="normal" in2="BackgroundImageFix" result="effect1_dropShadow_2198_1684"/>
<feBlend mode="normal" in="SourceGraphic" in2="effect1_dropShadow_2198_1684" result="shape"/>
</filter>
<filter id="filter3_d_2198_1684" x="239.462" y="312.982" width="120.77" height="114.688" filterUnits="userSpaceOnUse" color-interpolation-filters="sRGB">
<feFlood flood-opacity="0" result="BackgroundImageFix"/>
<feColorMatrix in="SourceAlpha" type="matrix" values="0 0 0 0 0 0 0 0 0 0 0 0 0 0 0 0 0 0 127 0" result="hardAlpha"/>
<feOffset dx="4.84" dy="4.84"/>
<feColorMatrix type="matrix" values="0 0 0 0 0.584314 0 0 0 0 0.615686 0 0 0 0 0.647059 0 0 0 0.2 0"/>
<feBlend mode="normal" in2="BackgroundImageFix" result="effect1_dropShadow_2198_1684"/>
<feBlend mode="normal" in="SourceGraphic" in2="effect1_dropShadow_2198_1684" result="shape"/>
</filter>
<clipPath id="clip0_2198_1684">
<rect width="1366" height="632" fill="white"/>
</clipPath>
<clipPath id="clip1_2198_1684">
<rect width="300" height="357.491" fill="white" transform="matrix(-1 0 0 1 992 285.289)"/>
</clipPath>
<clipPath id="clip2_2198_1684">
<rect width="326" height="360.152" fill="white" transform="matrix(-1 0 0 1 700 275)"/>
</clipPath>
</defs>
</svg>
