<svg width="1366" height="632" viewBox="0 0 1366 632" fill="none" xmlns="http://www.w3.org/2000/svg">
<g clip-path="url(#clip0_2198_1517)">
<rect width="1366" height="632" fill="#FFD2D2"/>
<path d="M652.254 35.8756C653.706 26.0386 667.896 26.0387 669.348 35.8756L701.756 255.318C703.002 263.753 714.417 265.477 718.097 257.785L813.883 57.616C818.176 48.646 831.733 52.8359 830.216 62.6636L796.38 281.855C795.078 290.283 805.479 295.3 811.265 289.035L961.896 125.954C968.644 118.648 980.363 126.654 976.012 135.597L878.969 335.047C875.237 342.718 883.698 350.583 891.076 346.299L1083.13 234.8C1091.74 229.806 1100.58 240.913 1093.78 248.176L942.179 410.178C936.349 416.409 942.12 426.422 950.434 424.5L1166.84 374.465C1176.53 372.223 1181.71 385.444 1173.07 390.383L980.388 500.575C972.978 504.813 975.547 516.085 984.06 516.693L1205.58 532.535C1215.5 533.245 1216.56 547.405 1206.85 549.583L990.185 598.198C981.856 600.067 980.993 611.596 988.951 614.684L1195.94 694.983C1205.21 698.581 1202.06 712.426 1192.14 711.652L970.707 694.369C962.199 693.705 957.982 704.467 964.677 709.761L1138.76 847.389C1146.57 853.559 1139.48 865.86 1130.23 862.202L923.691 780.528C915.756 777.39 908.559 786.43 913.395 793.459L1039.12 976.221C1044.76 984.416 1034.36 994.08 1026.6 987.861L853.318 849.021C846.662 843.688 837.124 850.201 839.67 858.342L905.852 1070.03C908.82 1079.52 896.039 1085.69 890.456 1077.46L765.855 893.777C761.068 886.721 750.037 890.129 750.065 898.656L750.79 1120.45C750.822 1130.4 736.792 1132.52 733.887 1123.01L669.064 910.826C666.573 902.672 655.029 902.672 652.538 910.826L587.715 1123.01C584.81 1132.52 570.78 1130.4 570.812 1120.45L571.537 898.656C571.565 890.129 560.534 886.721 555.747 893.777L431.145 1077.46C425.562 1085.69 412.781 1079.52 415.749 1070.03L481.932 858.342C484.477 850.201 474.94 843.688 468.283 849.021L295 987.86C287.238 994.08 276.842 984.415 282.479 976.221L408.208 793.459C413.044 786.43 405.847 777.39 397.913 780.528L191.374 862.202C182.123 865.86 175.035 853.559 182.839 847.39L356.925 709.761C363.62 704.468 359.403 693.705 350.894 694.369L129.46 711.652C119.541 712.426 116.387 698.581 125.663 694.983L332.649 614.684C340.607 611.596 339.745 600.067 331.416 598.198L114.749 549.583C105.041 547.405 106.1 533.245 116.024 532.535L337.543 516.693C346.057 516.085 348.626 504.813 341.216 500.575L148.531 390.383C139.895 385.444 145.074 372.224 154.767 374.465L371.169 424.5C379.483 426.422 385.255 416.409 379.424 410.178L227.822 248.176C221.025 240.913 229.866 229.806 238.469 234.801L430.526 346.299C437.903 350.583 446.365 342.718 442.633 335.047L345.589 135.597C341.238 126.654 352.958 118.648 359.706 125.954L510.337 289.036C516.123 295.3 526.524 290.283 525.222 281.855L491.386 62.6636C489.869 52.8359 503.426 48.646 507.719 57.616L603.505 257.785C607.185 265.477 618.6 263.753 619.846 255.318L652.254 35.8756Z" fill="#FFE2D5"/>
<rect x="282.36" y="405.281" width="215.965" height="97.2439" rx="29.8294" fill="#123041"/>
<rect x="695.2" y="405.281" width="215.965" height="97.2439" rx="29.8294" fill="#123041"/>
<path d="M568.618 429.294C547.495 447.41 501.685 440.043 481.42 434.095C479.897 432.257 476.95 427.258 477.343 421.972C477.835 415.365 539.421 389.929 554.603 386.654C569.784 383.379 595.023 406.649 568.618 429.294Z" fill="#EFEFEF"/>
<path fill-rule="evenodd" clip-rule="evenodd" d="M601.664 323.619C606.964 325.891 609.419 332.028 607.148 337.328L576.592 408.612C574.32 413.912 568.182 416.366 562.882 414.095C557.583 411.823 555.128 405.685 557.4 400.385L587.956 329.102C590.227 323.803 596.365 321.348 601.664 323.619Z" fill="#173A52"/>
<circle cx="605.862" cy="314.379" r="59.6588" transform="rotate(23.2023 605.862 314.379)" fill="#173A52"/>
<path d="M498.654 575.104C506.376 571.947 513.895 529.875 512.371 508.93L438.195 520.768C436.67 537.767 436.569 572.433 440.227 575.104C444.799 578.443 489 579.05 498.654 575.104Z" fill="#EFEFEF"/>
<path d="M504.451 528.506C527.537 513.154 496.33 417.389 473.78 405.326C451.231 393.264 414.556 395.092 398.449 405.326C382.342 415.561 342.54 512.789 365.626 528.506C388.712 544.223 481.365 543.858 504.451 528.506Z" fill="white"/>
<path d="M372.512 575.104C364.789 571.947 357.27 529.875 358.794 508.93L432.971 520.768C434.495 537.767 434.596 572.433 430.938 575.104C426.366 578.443 382.165 579.05 372.512 575.104Z" fill="white"/>
<path d="M326.299 482.242C325.821 454.418 360.716 423.838 378.224 412.025C380.611 412.025 386.341 412.944 390.161 416.619C394.935 421.213 375.24 484.867 368.078 498.648C360.916 512.428 326.896 517.022 326.299 482.242Z" fill="white"/>
<path d="M494.265 495.922C494.265 524.645 469.679 531.544 439.351 531.544C409.023 531.544 384.438 524.645 384.438 495.922C384.438 458.164 409.023 436.791 439.351 436.791C469.679 436.791 494.265 458.164 494.265 495.922Z" fill="#F4F4F4"/>
<path d="M441.042 514.314C441.263 514.315 441.482 514.273 441.687 514.19C441.892 514.107 442.078 513.984 442.235 513.829L449.714 506.306C449.99 505.986 450.134 505.575 450.117 505.154C450.101 504.733 449.926 504.334 449.626 504.037C449.327 503.739 448.926 503.564 448.503 503.548C448.08 503.532 447.666 503.675 447.345 503.949L439.848 511.389C439.691 511.544 439.566 511.729 439.481 511.933C439.395 512.136 439.351 512.355 439.351 512.576C439.351 512.796 439.395 513.015 439.481 513.218C439.566 513.422 439.691 513.607 439.848 513.762C440 513.93 440.184 514.065 440.389 514.159C440.594 514.254 440.816 514.307 441.042 514.314Z" fill="#FFD2D2"/>
<path d="M448.441 514.314C448.661 514.315 448.878 514.273 449.082 514.19C449.285 514.107 449.47 513.985 449.625 513.831C449.782 513.675 449.906 513.491 449.99 513.288C450.075 513.085 450.119 512.867 450.119 512.646C450.119 512.426 450.075 512.208 449.99 512.005C449.906 511.802 449.782 511.617 449.625 511.462L442.204 504.04C442.049 503.884 441.865 503.76 441.662 503.675C441.458 503.59 441.24 503.547 441.02 503.547C440.8 503.547 440.582 503.59 440.379 503.675C440.176 503.76 439.991 503.884 439.836 504.04C439.526 504.353 439.351 504.775 439.351 505.216C439.351 505.657 439.526 506.079 439.836 506.392L447.274 513.831C447.585 514.139 448.004 514.312 448.441 514.314Z" fill="#FFD2D2"/>
<path d="M340.725 190.175C349.339 218.096 386.223 272.762 394.024 295.621H467.78C475.582 272.762 509.622 218.096 520.54 190.175C534.082 155.546 519.998 110.537 481.96 110.537C450.553 110.537 435.84 162.4 431.71 190.175C427.58 162.4 411.79 110.537 381.46 110.537C343.421 110.537 329.764 154.644 340.725 190.175Z" fill="white"/>
<path d="M564.253 349.038C564.253 405.234 502.631 423.869 427.734 423.869C352.838 423.869 290.762 405.234 290.762 349.038C290.762 253.218 352.838 220.365 427.734 220.365C502.631 220.365 564.253 248.655 564.253 349.038Z" fill="white"/>
<path d="M344.599 362.52H360.75" stroke="#FFD2D2" stroke-width="21.5347" stroke-linecap="round"/>
<path d="M523.338 362.52H539.489" stroke="#FFD2D2" stroke-width="21.5347" stroke-linecap="round"/>
<path d="M459.811 364.155C459.811 354.453 459.016 347.603 442.013 350.287C425.011 347.603 424.279 354.458 424.279 364.155C424.279 373.853 432.233 387.574 442.045 387.574C451.857 387.574 459.811 373.858 459.811 364.155Z" fill="#FFD2D2"/>
<path fill-rule="evenodd" clip-rule="evenodd" d="M424.411 359.303C424.969 351.842 427.824 348.046 442.013 350.286C456.427 348.01 459.191 352.587 459.699 359.944C454.756 361.206 449.149 361.919 443.206 361.919C436.321 361.919 429.886 360.962 424.411 359.303Z" fill="#EFEFEF"/>
<path d="M437.641 334.498C439.755 334.498 440.723 335.379 442.044 336.26C443.365 335.379 444.334 334.498 446.447 334.498C449.089 334.498 450.624 337.267 449.969 338.903C449.089 341.105 445.86 343.308 442.044 344.189C438.229 343.308 435 341.105 434.119 338.903C433.465 337.267 435 334.498 437.641 334.498Z" fill="#FFD2D2"/>
<path d="M388.022 342.828C388.022 342.828 384.901 339.249 377.88 339.249C370.858 339.249 367.738 342.828 367.738 342.828" stroke="black" stroke-width="12.7216" stroke-linecap="round"/>
<path d="M517.482 342.828C517.482 342.828 514.361 339.249 507.34 339.249C500.318 339.249 497.198 342.828 497.198 342.828" stroke="black" stroke-width="12.7216" stroke-linecap="round"/>
<circle cx="518.675" cy="474.081" r="21.4772" fill="#E25047"/>
<path d="M497.198 473.484H540.152" stroke="black" stroke-width="5.96588" stroke-linecap="round"/>
<rect x="611.351" y="280.703" width="11.88" height="39.6" rx="5.94" transform="rotate(19.8118 611.351 280.703)" fill="#E25047"/>
<circle cx="597.619" cy="334.423" r="6.6" transform="rotate(15 597.619 334.423)" fill="#E25047"/>
<path d="M979.05 434.148C957.852 452.177 912.073 444.621 891.833 438.59C890.318 436.745 887.391 431.734 887.807 426.45C888.326 419.845 950.016 394.663 965.211 391.451C980.406 388.238 1005.55 411.612 979.05 434.148Z" fill="#EFD565"/>
<path fill-rule="evenodd" clip-rule="evenodd" d="M1012.1 327.797C1017.4 330.069 1019.86 336.206 1017.58 341.506L987.027 412.789C984.756 418.089 978.618 420.544 973.318 418.272C968.019 416.001 965.564 409.862 967.836 404.563L998.392 333.28C1000.66 327.98 1006.8 325.525 1012.1 327.797Z" fill="#173A52"/>
<circle cx="1016.3" cy="318.555" r="59.6588" transform="rotate(23.2023 1016.3 318.555)" fill="#173A52"/>
<path d="M911.103 575.311C918.826 572.154 926.345 530.082 924.821 509.137L850.644 520.975C849.12 537.974 849.018 572.64 852.676 575.311C857.249 578.65 901.45 579.257 911.103 575.311Z" fill="#EFD565"/>
<path d="M916.901 528.711C939.987 513.359 908.779 417.594 886.23 405.532C863.681 393.469 827.006 395.297 810.899 405.532C794.792 415.766 754.99 512.994 778.076 528.711C801.162 544.428 893.815 544.063 916.901 528.711Z" fill="#FFE36C"/>
<path d="M784.962 575.311C777.239 572.154 769.72 530.082 771.244 509.137L845.421 520.975C846.945 537.974 847.047 572.64 843.388 575.311C838.816 578.65 794.615 579.257 784.962 575.311Z" fill="#FFE36C"/>
<path d="M738.749 482.445C738.271 454.621 773.166 424.041 790.674 412.229C793.061 412.229 798.791 413.147 802.61 416.822C807.385 421.416 787.689 485.07 780.527 498.851C773.365 512.632 739.345 517.225 738.749 482.445Z" fill="#FFE36C"/>
<path d="M853.492 514.519C853.713 514.521 853.932 514.478 854.137 514.395C854.342 514.312 854.528 514.189 854.685 514.034L862.165 506.511C862.44 506.191 862.584 505.78 862.567 505.359C862.551 504.939 862.376 504.539 862.076 504.242C861.777 503.944 861.376 503.769 860.953 503.753C860.53 503.737 860.116 503.88 859.795 504.154L852.298 511.594C852.141 511.749 852.016 511.934 851.931 512.138C851.845 512.341 851.801 512.56 851.801 512.781C851.801 513.001 851.845 513.22 851.931 513.424C852.016 513.627 852.141 513.812 852.298 513.968C852.45 514.135 852.634 514.27 852.839 514.364C853.044 514.459 853.266 514.512 853.492 514.519Z" fill="#FFBB4D"/>
<path d="M860.891 514.519C861.111 514.521 861.328 514.478 861.532 514.395C861.735 514.312 861.92 514.19 862.075 514.036C862.232 513.881 862.356 513.696 862.44 513.493C862.525 513.29 862.569 513.072 862.569 512.851C862.569 512.631 862.525 512.413 862.44 512.21C862.356 512.007 862.232 511.822 862.075 511.667L854.654 504.245C854.499 504.089 854.315 503.965 854.112 503.88C853.908 503.796 853.69 503.752 853.47 503.752C853.25 503.752 853.032 503.796 852.829 503.88C852.626 503.965 852.441 504.089 852.286 504.245C851.976 504.558 851.801 504.981 851.801 505.421C851.801 505.862 851.976 506.285 852.286 506.597L859.724 514.036C860.035 514.344 860.454 514.517 860.891 514.519Z" fill="#FFBB4D"/>
<path d="M977.78 348.165C977.78 404.361 916.158 422.995 841.261 422.995C766.365 422.995 704.289 404.361 704.289 348.165C704.289 252.345 766.365 219.492 841.261 219.492C916.158 219.492 977.78 247.782 977.78 348.165Z" fill="#FFE36C"/>
<path d="M752.743 361.92H768.894" stroke="#FFA052" stroke-width="21.5347" stroke-linecap="round"/>
<path d="M931.482 361.92H947.633" stroke="#FFA052" stroke-width="21.5347" stroke-linecap="round"/>
<path d="M877.644 361.625C877.644 371.437 865.351 375.622 850.187 375.622C835.023 375.622 822.73 371.437 822.73 361.625C822.73 351.813 835.023 340.09 850.187 340.09C865.351 340.09 877.644 351.813 877.644 361.625Z" fill="#FFBB4D"/>
<path d="M820.854 182.046C837.188 196.53 846.571 212.774 849.348 227.559L820.603 224.494C808.767 223.232 797.429 209.28 797.952 192.346C798.476 175.412 812.548 174.68 820.854 182.046Z" fill="#FFE36C"/>
<path d="M850.851 204.926C845.765 209.892 844.48 220.713 844.473 225.503C854.324 224.592 870.855 221.564 873.82 215.255C876.784 208.947 874.935 201.103 871.326 199.234C867.717 197.364 857.208 198.719 850.851 204.926Z" fill="#FFE36C"/>
<path d="M795.494 343.428C795.494 343.428 792.374 339.848 785.352 339.848C778.331 339.848 775.21 343.428 775.21 343.428" stroke="black" stroke-width="12.7216" stroke-linecap="round"/>
<path d="M924.954 343.428C924.954 343.428 921.834 339.848 914.812 339.848C907.791 339.848 904.67 343.428 904.67 343.428" stroke="black" stroke-width="12.7216" stroke-linecap="round"/>
<circle cx="926.147" cy="474.081" r="21.4772" fill="#E25047"/>
<path d="M904.67 473.484H947.624" stroke="black" stroke-width="5.96588" stroke-linecap="round"/>
<rect x="1021.87" y="287.305" width="11.88" height="39.6" rx="5.94" transform="rotate(19.8118 1021.87 287.305)" fill="#E25047"/>
<circle cx="1008.14" cy="341.023" r="6.6" transform="rotate(15 1008.14 341.023)" fill="#E25047"/>
<rect x="252" y="474.078" width="862.07" height="30.426" rx="11.9318" fill="#123041"/>
<path d="M265 504H1100.82V711.016H265V504Z" fill="#173A52"/>
</g>
<defs>
<clipPath id="clip0_2198_1517">
<rect width="1366" height="632" fill="white"/>
</clipPath>
</defs>
</svg>
