<svg width="1366" height="632" viewBox="0 0 1366 632" fill="none" xmlns="http://www.w3.org/2000/svg">
<g clip-path="url(#clip0_2198_1578)">
<rect width="1366" height="632" fill="#93F5F3"/>
<path d="M680.497 48C790.558 48 879.781 129.927 879.781 230.988C879.781 256.868 873.929 281.493 863.378 303.809C899.599 258.025 958.37 228.256 1024.72 228.256C1134.78 228.256 1224 310.183 1224 411.244C1224 501.503 1152.83 576.499 1059.21 591.5C1152.83 606.501 1224 681.499 1224 771.758C1224 872.816 1134.78 954.742 1024.72 954.742C958.37 954.742 899.599 924.975 863.378 879.191C873.929 901.507 879.781 926.133 879.781 952.014C879.781 1053.07 790.558 1135 680.497 1135C570.438 1135 481.216 1053.07 481.216 952.014C481.216 926.133 487.068 901.507 497.622 879.191C461.4 924.975 402.627 954.742 336.283 954.742C226.222 954.742 137 872.816 137 771.758C137 681.499 208.168 606.501 301.789 591.5C208.168 576.499 137 501.503 137 411.244C137 310.183 226.222 228.256 336.283 228.256C402.627 228.256 461.4 258.025 497.622 303.809C487.068 281.493 481.216 256.869 481.216 230.988C481.216 129.927 570.438 48.0004 680.497 48Z" fill="#CCFFFE"/>
<g clip-path="url(#clip1_2198_1578)">
<path d="M614.341 535.378C588.95 549.914 543.818 534.616 524.426 525.15C523.265 523.042 521.324 517.517 522.851 512.281C524.759 505.735 592.956 490.836 609.13 490.169C625.303 489.502 646.079 517.209 614.341 535.378Z" fill="#E7EAEE"/>
<path d="M544.708 658.945C552.08 655.737 558.418 615.036 556.498 594.887L485.281 607.894C484.179 624.306 484.828 657.71 488.411 660.205C492.888 663.324 535.491 662.956 544.708 658.945Z" fill="#E7EAEE"/>
<path d="M549.289 613.921C571.203 598.631 539.067 507.029 517.08 495.893C495.093 484.757 459.794 487.309 444.495 497.517C429.196 507.726 392.941 602.268 415.525 616.914C438.108 631.561 527.376 629.211 549.289 613.921Z" fill="white"/>
<path fill-rule="evenodd" clip-rule="evenodd" d="M415.985 554.979C421.69 557.323 426.664 560.998 428.911 566.603C434.188 579.771 451.469 585.128 459.451 586.161C459.528 586.186 479.477 592.74 485.782 603.217C489.728 609.775 490.155 620.907 490.104 626.372C459.901 627.821 427.827 624.888 415.529 616.912C404.157 609.537 407.707 581.903 415.985 554.979Z" fill="#123041"/>
<path d="M423.168 661.663C415.659 658.788 407.507 618.411 408.524 598.197L480.252 608.004C482.087 624.351 482.932 657.75 479.465 660.403C475.131 663.719 432.555 665.257 423.168 661.663Z" fill="#123041"/>
<path d="M376.628 573.18C375.568 546.381 408.531 516.163 425.146 504.404C427.446 504.352 432.987 505.114 436.747 508.572C441.446 512.895 423.841 574.654 417.238 588.087C410.634 601.52 377.953 606.68 376.628 573.18Z" fill="#F9F9F9"/>
<path d="M540.797 580.617C541.416 608.293 517.876 615.47 488.653 616.124C459.431 616.778 435.593 610.662 434.973 582.986C434.159 546.603 457.387 525.48 486.61 524.826C515.832 524.171 539.983 544.235 540.797 580.617Z" fill="#FFC0C1"/>
<path d="M488.003 606.799C488.217 606.796 488.427 606.75 488.622 606.666C488.818 606.581 488.995 606.459 489.143 606.306L496.187 598.896C496.446 598.582 496.575 598.182 496.551 597.777C496.526 597.372 496.348 596.991 496.053 596.711C495.759 596.431 495.368 596.271 494.96 596.265C494.552 596.258 494.157 596.405 493.853 596.676L486.791 604.006C486.642 604.159 486.526 604.34 486.448 604.538C486.37 604.736 486.332 604.948 486.337 605.16C486.342 605.373 486.389 605.583 486.475 605.777C486.562 605.971 486.687 606.147 486.842 606.293C486.991 606.451 487.171 606.577 487.371 606.664C487.57 606.751 487.786 606.797 488.003 606.799Z" fill="#FF8D8D"/>
<path d="M495.133 606.64C495.345 606.636 495.553 606.591 495.747 606.506C495.941 606.422 496.117 606.3 496.264 606.148C496.411 605.995 496.527 605.815 496.604 605.617C496.681 605.419 496.718 605.208 496.713 604.996C496.709 604.784 496.662 604.575 496.576 604.381C496.49 604.187 496.367 604.012 496.213 603.866L488.902 596.875C488.749 596.727 488.569 596.612 488.371 596.534C488.174 596.457 487.963 596.42 487.75 596.425C487.538 596.429 487.329 596.476 487.135 596.562C486.941 596.648 486.766 596.772 486.62 596.926C486.328 597.233 486.169 597.644 486.178 598.069C486.188 598.494 486.365 598.897 486.671 599.192L493.998 606.199C494.304 606.489 494.712 606.647 495.133 606.64Z" fill="#FF8D8D"/>
<path d="M362.737 340.917C394.561 358.801 385.066 368.285 377.258 382.179C369.45 396.073 365.64 408.752 334.462 391.23C318.635 382.336 312.133 363.862 319.941 349.968C327.749 336.075 346.909 332.022 362.737 340.917Z" fill="white"/>
<path d="M408.846 343.06C409.234 360.372 403.197 360.61 395.749 360.776C388.3 360.943 382.259 360.976 381.872 343.663C381.484 326.351 389.436 312.131 394.657 312.015C399.878 311.898 408.459 325.747 408.846 343.06Z" fill="#6A5B3D"/>
<path d="M571.732 339.413C572.12 356.726 566.083 356.963 558.635 357.13C551.186 357.297 545.145 357.329 544.758 340.017C544.37 322.704 552.322 308.485 557.543 308.368C562.764 308.251 571.345 322.101 571.732 339.413Z" fill="#6A5B3D"/>
<path d="M593.691 335.743C562.699 355.033 572.609 364.083 581.031 377.613C589.453 391.143 593.826 403.64 624.189 384.741C639.603 375.147 645.271 356.401 636.849 342.87C628.428 329.34 609.105 326.149 593.691 335.743Z" fill="#123041"/>
<path d="M601.793 351.419C586.346 361.034 590.473 364.239 593.668 369.372C596.864 374.506 598.231 379.429 613.364 370.01C621.046 365.228 624.684 357.19 621.489 352.056C618.293 346.923 609.475 346.637 601.793 351.419Z" fill="#FFC0C1"/>
<path d="M354.409 356.955C370.271 365.869 366.291 369.255 363.329 374.527C360.366 379.798 359.221 384.778 343.681 376.045C335.793 371.611 331.799 363.744 334.762 358.473C337.724 353.201 346.521 352.522 354.409 356.955Z" fill="#FFC0C1"/>
<path d="M610.372 442.652C611.584 496.8 552.61 516.084 480.443 517.699C408.277 519.315 348.062 502.698 346.85 448.55C344.784 356.223 403.889 323.23 476.055 321.614C548.221 319.999 608.207 345.929 610.372 442.652Z" fill="white"/>
<path d="M485.228 321.562C547.825 322.28 599.451 345.816 608.89 421.754C574.128 425.368 567.398 399.01 555.935 388.895C544.269 378.6 520.657 384.846 501.859 370.312C490.335 361.402 486.221 338.825 485.228 321.562Z" fill="#123041"/>
<path d="M436.725 475.288C436.248 453.973 453.14 436.307 474.455 435.83L493.753 435.398C515.068 434.921 532.734 451.813 533.211 473.128C533.529 487.338 522.267 499.116 508.057 499.434L463.03 500.442C448.82 500.76 437.043 489.498 436.725 475.288Z" fill="#FFC0C1"/>
<path d="M464.514 465.113L464.77 476.526" stroke="#123041" stroke-width="10.3775" stroke-linecap="round"/>
<path d="M506.019 464.191L506.274 475.604" stroke="#123041" stroke-width="10.3775" stroke-linecap="round"/>
<path d="M384.889 478.32L400.451 477.972" stroke="#FFC0C1" stroke-width="20.7549" stroke-linecap="round"/>
<path d="M570.6 474.164L586.163 473.816" stroke="#FFC0C1" stroke-width="20.7549" stroke-linecap="round"/>
<path d="M425.726 454.906C425.726 454.906 422.64 451.523 415.871 451.674C409.101 451.826 406.17 455.344 406.17 455.344" stroke="#123041" stroke-width="12.2681" stroke-linecap="round"/>
<path d="M564.745 451.795C564.745 451.795 561.659 448.411 554.89 448.563C548.12 448.714 545.189 452.233 545.189 452.233" stroke="#123041" stroke-width="12.2681" stroke-linecap="round"/>
</g>
<g clip-path="url(#clip2_2198_1578)">
<path d="M873.15 357.422C851.462 377.454 802.607 371.431 780.89 365.916C779.204 364.027 775.884 358.842 776.095 353.223C776.359 346.198 840.659 316.827 856.626 312.762C872.594 308.698 900.26 332.383 873.15 357.422Z" fill="#5C9A15"/>
<path d="M814.963 503.214C821.673 499.278 823.042 459.452 818.863 440.323L751.97 461.069C752.814 476.96 757.31 508.968 761.039 510.949C765.702 513.425 806.576 508.134 814.963 503.214Z" fill="#5C9A15"/>
<path d="M837.348 457.477C856.622 440.252 815.142 355.999 792.733 347.851C770.325 339.704 736.718 346.246 723.208 357.824C709.698 369.403 685.835 464.406 709.222 475.856C732.61 487.305 818.073 474.702 837.348 457.477Z" fill="#5BB42B"/>
<path d="M698.545 519.914C691 518.022 678.49 480.188 677.124 460.655L747.151 461.761C750.808 477.248 755.492 509.229 752.469 512.179C748.691 515.866 707.977 522.278 698.545 519.914Z" fill="#5BB42B"/>
<path d="M585.864 367.779C603.899 386.742 647.26 384.419 666.686 380.887C668.273 379.326 671.475 374.963 671.589 370.002C671.732 363.8 616.657 334.014 602.808 329.461C588.958 324.907 563.32 344.076 585.864 367.779Z" fill="#5BB42B"/>
<path d="M799.791 426.228C804.112 456.352 782.459 466.842 754.469 470.857C726.478 474.872 702.749 470.892 698.428 440.768C692.748 401.167 712.223 375.497 740.214 371.482C768.204 367.467 794.11 386.627 799.791 426.228Z" fill="#A1DC3C"/>
<path d="M753.749 454.735C753.953 454.707 754.15 454.639 754.328 454.535C754.506 454.431 754.662 454.293 754.786 454.129L760.693 446.196C760.905 445.864 760.983 445.465 760.913 445.079C760.842 444.693 760.627 444.348 760.311 444.113C759.996 443.878 759.602 443.77 759.21 443.811C758.817 443.852 758.454 444.039 758.194 444.334L752.26 452.193C752.136 452.357 752.045 452.544 751.993 452.743C751.941 452.943 751.929 453.15 751.959 453.354C751.988 453.558 752.057 453.754 752.163 453.93C752.269 454.107 752.409 454.261 752.575 454.384C752.736 454.518 752.924 454.618 753.126 454.678C753.327 454.739 753.539 454.758 753.749 454.735Z" fill="#5BB42B"/>
<path d="M760.578 453.755C760.781 453.727 760.976 453.66 761.153 453.556C761.329 453.453 761.484 453.315 761.607 453.152C761.731 452.988 761.821 452.802 761.872 452.603C761.923 452.404 761.935 452.197 761.906 451.994C761.876 451.791 761.807 451.595 761.702 451.419C761.597 451.243 761.458 451.089 761.293 450.966L753.462 445.099C753.298 444.975 753.111 444.885 752.913 444.834C752.714 444.782 752.507 444.771 752.304 444.8C752.101 444.829 751.905 444.898 751.729 445.004C751.552 445.109 751.399 445.248 751.276 445.412C751.031 445.742 750.926 446.155 750.984 446.562C751.043 446.968 751.26 447.335 751.588 447.583L759.437 453.463C759.764 453.707 760.174 453.811 760.578 453.755Z" fill="#5BB42B"/>
<ellipse cx="631.423" cy="244.18" rx="40.1286" ry="43.2437" transform="rotate(-36.8526 631.423 244.18)" fill="#5BB42B"/>
<ellipse cx="40.1286" cy="43.2437" rx="40.1286" ry="43.2437" transform="matrix(-0.93651 -0.35064 -0.35064 0.93651 856.587 191.889)" fill="#5BB42B"/>
<path d="M856.195 282.094C863.713 334.508 808.438 360.175 738.225 370.247C668.013 380.318 607.325 371.285 599.807 318.872C589.006 243.578 642.568 202.934 712.78 192.862C782.993 182.79 844.539 200.838 856.195 282.094Z" fill="#5BB42B"/>
<path d="M638.629 243.051L640.91 258.951" stroke="#123041" stroke-width="15.0589" stroke-linecap="round"/>
<path d="M807.42 217.826L809.7 233.726" stroke="#123041" stroke-width="15.0589" stroke-linecap="round"/>
<path d="M624.028 296.865L640.922 294.442" stroke="#A1DC3C" stroke-width="20.0785" stroke-linecap="round"/>
<path d="M807.87 270.496L824.764 268.073" stroke="#A1DC3C" stroke-width="20.0785" stroke-linecap="round"/>
<path d="M746.97 263.064C745.257 251.124 744.396 245.121 722.037 248.328C699.677 251.536 700.385 256.472 702.251 269.479C705.308 290.789 717.1 301.775 729.449 300.004C741.798 298.232 749.813 282.884 746.97 263.064Z" fill="#D52C2F"/>
<path d="M729.449 300.005C738.099 298.764 744.622 290.861 746.777 279.425C741.727 274.992 734.699 271.527 726.582 269.926C717.73 268.18 709.236 268.978 702.605 271.68C706.136 291.544 717.533 301.714 729.449 300.005Z" fill="#FF686B"/>
</g>
<g clip-path="url(#clip3_2198_1578)">
<path d="M947.542 637.096C956.852 613.15 936.406 575.506 925.02 559.677C922.952 558.914 917.695 557.878 913.212 559.839C907.608 562.291 904.314 623.721 906.111 637.947C907.908 652.173 935.905 667.029 947.542 637.096Z" fill="#E7EAEE"/>
<path d="M875.02 701.72C882.718 701.454 902.683 667.419 908.059 648.79L840.028 635.327C833.272 649.563 822.101 679.555 824.415 683.038C827.308 687.392 865.397 702.051 875.02 701.72Z" fill="#E7EAEE"/>
<path d="M894.946 663.209C919.85 657.294 923.44 564.37 907.766 546.713C892.093 529.056 859.743 518.912 842.52 522.627C825.297 526.341 759.736 597.827 774.706 618.821C789.676 639.816 870.042 669.124 894.946 663.209Z" fill="white"/>
<path d="M765.767 661.382C760.088 656.179 767.027 617.334 775.044 599.681L835.505 633.651C831.39 648.862 820.394 678.919 816.372 680.063C811.344 681.493 772.866 667.886 765.767 661.382Z" fill="white"/>
<path d="M748.941 558.56C760.895 535.817 802.714 526.531 822.129 524.731C824.063 525.79 828.295 529.075 829.758 533.745C831.587 539.582 787.407 582.391 775.495 590.374C763.584 598.356 733.999 586.988 748.941 558.56Z" fill="#F9F9F9"/>
<path d="M896.539 631.735C887.355 656.613 863.855 654.727 837.587 645.03C811.319 635.333 792.231 621.497 801.414 596.62C813.487 563.916 841.615 553.265 867.883 562.962C894.151 572.659 908.611 599.032 896.539 631.735Z" fill="#E7EAEE"/>
<path d="M844.563 630.644C844.754 630.716 844.957 630.75 845.161 630.743C845.365 630.737 845.566 630.69 845.751 630.606L854.635 626.481C854.976 626.292 855.232 625.982 855.352 625.612C855.473 625.243 855.448 624.841 855.284 624.487C855.12 624.134 854.828 623.854 854.467 623.705C854.106 623.556 853.702 623.548 853.336 623.682L844.465 627.729C844.279 627.813 844.111 627.933 843.972 628.082C843.833 628.232 843.725 628.407 843.655 628.598C843.584 628.789 843.552 628.992 843.561 629.196C843.57 629.4 843.619 629.6 843.706 629.785C843.783 629.978 843.899 630.154 844.047 630.301C844.194 630.449 844.369 630.566 844.563 630.644Z" fill="#FFC0C1"/>
<path d="M850.972 633.01C851.161 633.082 851.363 633.115 851.566 633.108C851.768 633.101 851.968 633.054 852.152 632.97C852.337 632.886 852.503 632.766 852.642 632.617C852.78 632.468 852.887 632.293 852.958 632.102C853.028 631.911 853.06 631.709 853.052 631.505C853.043 631.302 852.995 631.103 852.909 630.919L848.855 622.118C848.77 621.933 848.65 621.766 848.501 621.628C848.352 621.489 848.178 621.382 847.987 621.312C847.796 621.241 847.594 621.209 847.39 621.218C847.187 621.226 846.988 621.275 846.804 621.36C846.435 621.532 846.149 621.842 846.008 622.224C845.867 622.605 845.883 623.027 846.052 623.397L850.115 632.218C850.286 632.584 850.593 632.869 850.972 633.01Z" fill="#FFC0C1"/>
<path d="M865.98 319.548C864.513 346.486 878.98 405.626 878.428 427.92L942.31 451.502C956.376 434.198 1003.34 397.734 1021.72 377.042C1044.52 351.378 1046.72 307.892 1013.77 295.729C986.567 285.687 957.242 325.903 944.784 348.639C950.087 323.262 952.994 273.294 926.724 263.596C893.778 251.434 867.846 285.269 865.98 319.548Z" fill="white"/>
<path d="M1008.79 528.613C990.818 577.286 931.487 573.723 866.617 549.776C801.748 525.829 761.048 500.318 792.938 413.932C806.264 377.833 809.625 368.481 833.21 357.614C840.884 354.078 861.194 351.835 871.152 360.381C878.645 369.516 904.672 363.544 931.685 373.516C996.554 397.464 1040.88 441.669 1008.79 528.613Z" fill="white"/>
<path d="M851.854 454.252L846.346 469.173" stroke="#123041" stroke-width="14.9116" stroke-linecap="round"/>
<path d="M964.695 495.908L959.187 510.83" stroke="#123041" stroke-width="14.9116" stroke-linecap="round"/>
<path d="M821.839 471.184L835.828 476.348" stroke="white" stroke-width="29.8232" stroke-linecap="round"/>
<path d="M839.767 461.822C841.588 462.162 845.822 463.838 848.189 467.825C850.557 471.813 850.802 476.122 850.629 477.778" stroke="#123041" stroke-width="4.97054" stroke-linecap="round"/>
<path d="M821.839 471.184L835.828 476.348" stroke="#FFC0C1" stroke-width="19.8822" stroke-linecap="round"/>
<path d="M965.256 537.439L979.245 542.604" stroke="#FFC0C1" stroke-width="19.8822" stroke-linecap="round"/>
<path d="M909.385 519.424C906.282 527.827 904.723 532.052 889.335 526.372C873.947 520.691 875.23 517.217 878.609 508.063C881.989 498.908 894.263 486.864 902.762 490.001C911.26 493.138 912.487 511.02 909.385 519.424Z" fill="#FFC0C1"/>
<path d="M902.771 489.997C908.239 492.015 910.696 500.137 910.928 507.911C906.6 508.273 901.745 507.631 896.913 505.847C892.036 504.047 887.897 501.348 884.834 498.226C890.074 492.367 897.227 487.95 902.771 489.997Z" fill="#E7EAEE"/>
<path d="M903.776 475.536C905.606 476.211 906.163 477.284 907.026 478.469C908.452 478.129 909.572 477.675 911.403 478.351C913.691 479.196 914.135 482.085 913.045 483.292C911.578 484.918 908.077 485.794 904.491 485.337C901.467 483.354 899.375 480.414 899.317 478.225C899.273 476.599 901.488 474.691 903.776 475.536Z" fill="#FFC0C1"/>
</g>
<path d="M839.814 505.713C828.174 532.331 783.654 547.095 762.85 551.15C760.712 550.174 755.978 546.957 754.15 541.905C751.866 535.589 797.115 483.199 809.508 473.043C821.9 462.886 854.364 472.441 839.814 505.713Z" fill="#FFC532"/>
<path d="M780.24 675.968C787.105 672.475 790.815 633.19 787.815 614.035L720.468 630.584C720.362 646.341 722.912 678.245 726.482 680.424C730.943 683.147 771.659 680.335 780.24 675.968Z" fill="#FFC532"/>
<path d="M782.024 632.646C802.095 616.76 766.077 531.025 744.41 521.647C722.743 512.268 689.137 516.746 675.097 527.391C661.058 538.037 631.85 630.532 654.291 643.233C676.731 655.934 761.953 648.531 782.024 632.646Z" fill="#FFDB40"/>
<path d="M664.184 685.586C656.838 683.27 646.711 645.133 646.516 625.745L715.669 630.981C718.368 646.505 721.105 678.393 717.943 681.13C713.99 684.551 673.367 688.481 664.184 685.586Z" fill="#FFDB40"/>
<path d="M614.581 603.665C612.02 578.1 641.795 547.302 657.002 535.098C659.199 534.916 664.541 535.325 668.336 538.415C673.079 542.277 659.812 602.348 654.273 615.574C648.734 628.8 617.782 635.621 614.581 603.665Z" fill="#FFDB40"/>
<path d="M722.6 624.429C722.803 624.414 723.002 624.358 723.184 624.266C723.366 624.174 723.528 624.047 723.661 623.892L729.969 616.4C730.198 616.084 730.299 615.695 730.251 615.309C730.204 614.923 730.013 614.569 729.714 614.318C729.416 614.067 729.034 613.937 728.643 613.954C728.253 613.972 727.883 614.135 727.608 614.412L721.278 621.828C721.145 621.983 721.044 622.163 720.981 622.357C720.918 622.551 720.895 622.755 720.911 622.958C720.928 623.162 720.985 623.359 721.079 623.54C721.174 623.721 721.303 623.882 721.459 624.013C721.611 624.155 721.791 624.265 721.987 624.337C722.183 624.408 722.391 624.44 722.6 624.429Z" fill="#FFB132"/>
<path d="M729.408 623.865C729.61 623.85 729.807 623.794 729.988 623.702C730.168 623.61 730.329 623.484 730.46 623.33C730.592 623.175 730.693 622.996 730.755 622.803C730.817 622.609 730.841 622.405 730.824 622.203C730.807 622 730.75 621.803 730.657 621.622C730.564 621.442 730.435 621.281 730.28 621.151L722.886 614.888C722.731 614.756 722.552 614.655 722.358 614.593C722.165 614.531 721.961 614.507 721.759 614.524C721.556 614.541 721.359 614.597 721.178 614.691C720.998 614.784 720.838 614.913 720.707 615.068C720.445 615.379 720.317 615.782 720.35 616.187C720.384 616.592 720.577 616.968 720.886 617.232L728.297 623.509C728.606 623.769 729.005 623.897 729.408 623.865Z" fill="#FFB132"/>
<path d="M830.216 461.393C834.501 513.099 779.223 534.944 710.311 540.656C641.398 546.368 582.861 533.956 578.575 482.25C571.268 394.085 625.879 359.123 694.791 353.412C763.704 347.7 822.56 369.03 830.216 461.393Z" fill="#FFDB40"/>
<path d="M625.257 503.814L640.118 502.583" stroke="#FCA18E" stroke-width="19.8822" stroke-linecap="round"/>
<path d="M789.707 490.186L804.568 488.954" stroke="#FCA18E" stroke-width="19.8822" stroke-linecap="round"/>
<path d="M652.017 465.682L653.331 481.533" stroke="#123041" stroke-width="14.9116" stroke-linecap="round"/>
<path d="M771.886 455.75L773.2 471.601" stroke="#123041" stroke-width="14.9116" stroke-linecap="round"/>
<path d="M739.102 481.412C739.851 490.44 728.859 495.228 714.907 496.385C700.954 497.541 689.324 494.627 688.576 485.599C687.828 476.571 698.245 464.848 712.197 463.691C726.15 462.535 738.354 472.384 739.102 481.412Z" fill="#FFB132"/>
<path d="M673.157 320.508C689.29 332.59 699.163 346.821 702.844 360.213L676.163 359.584C665.176 359.326 653.68 347.353 652.87 331.732C652.06 316.111 664.952 314.364 673.157 320.508Z" fill="#FFDB40"/>
<path d="M702.504 339.275C698.203 344.231 697.846 354.286 698.204 358.694C707.199 357.105 722.179 353.058 724.425 347.027C726.671 340.996 724.372 333.921 720.909 332.476C717.445 331.031 707.879 333.079 702.504 339.275Z" fill="#FFDB40"/>
</g>
<defs>
<clipPath id="clip0_2198_1578">
<rect width="1366" height="632" fill="white"/>
</clipPath>
<clipPath id="clip1_2198_1578">
<rect width="326.89" height="370.476" fill="white" transform="translate(313.34 296.191) rotate(-1.28217)"/>
</clipPath>
<clipPath id="clip2_2198_1578">
<rect width="299.694" height="350.369" fill="white" transform="translate(553.318 189.365) rotate(-8.1631)"/>
</clipPath>
<clipPath id="clip3_2198_1578">
<rect width="324.079" height="453.313" fill="white" transform="translate(816.995 215.674) rotate(20.262)"/>
</clipPath>
</defs>
</svg>
