<svg width="106" height="102" viewBox="0 0 106 102" fill="none" xmlns="http://www.w3.org/2000/svg">
<path d="M15.7197 78.4491C7.86182 79.5954 3.47797 77.6303 2.08105 74.9601C0.707595 72.3345 1.63693 67.8452 7.27122 62.4823C12.8046 57.2155 22.4991 51.552 37.1958 46.9507L39.2251 46.3154L37.9918 44.6416C29.0639 32.5264 24.8079 22.4265 23.6426 15.0294C22.4561 7.4972 24.5004 3.36206 27.2342 2.04228C30.0141 0.700331 34.7511 1.63528 40.3415 7.05776C45.8311 12.3825 51.7207 21.6983 56.5009 35.8073L57.127 37.6547L58.7772 36.5312C71.3841 27.9517 81.9019 23.8534 89.6178 22.7281C97.4756 21.5822 101.859 23.5478 103.256 26.218C104.63 28.8437 103.7 33.3326 98.066 38.6958C92.5325 43.9629 82.8379 49.6267 68.1407 54.2293L66.1102 54.8652L67.3445 56.5393C76.2843 68.6574 80.5501 78.7585 81.721 86.1561C82.9133 93.6885 80.8708 97.8214 78.1387 99.14C75.3591 100.481 70.6189 99.5449 65.0224 94.1207C59.5271 88.7943 53.6287 79.4767 48.8366 65.3668L48.2099 63.5212L46.5609 64.6442C33.9537 73.225 23.4357 77.3234 15.7197 78.4491Z" fill="#D9F6EF" stroke="white" stroke-width="3"/>
</svg>
