<svg width="350" height="197" viewBox="0 0 350 197" fill="none" xmlns="http://www.w3.org/2000/svg">
<g clip-path="url(#clip0_3134_1904)">
<rect width="382" height="301" rx="11" transform="matrix(-1 0 0 1 368 -139)" fill="#AFD157"/>
<g clip-path="url(#clip1_3134_1904)">
<path d="M223.971 -62.0673C262.712 -62.0673 294.118 -32.624 294.118 3.696C294.118 40.0166 262.712 69.4593 223.971 69.4593C262.712 69.4593 294.118 98.902 294.118 135.223C294.118 171.543 262.712 200.986 223.971 200.986C185.229 200.986 153.823 171.543 153.823 135.223C153.823 171.543 122.418 200.986 83.6759 200.986C44.9339 200.986 13.5284 171.543 13.5284 135.223C13.5284 98.902 44.9339 69.4593 83.6759 69.4593C44.9339 69.4593 13.5284 40.0166 13.5284 3.696C13.5284 -32.624 44.9339 -62.0673 83.6759 -62.0673C122.418 -62.0673 153.823 -32.624 153.823 3.696C153.823 -32.624 185.229 -62.0673 223.971 -62.0673Z" fill="#C7E8AB"/>
</g>
<path d="M206.07 -33.8765C211.6 -37.4199 209.905 -45.9058 203.465 -46.9185L192.489 -48.6445C190.447 -48.9657 188.654 -50.1686 187.583 -51.9378L182.002 -61.154C178.563 -66.8326 169.891 -64.9991 168.908 -58.3857L167.313 -47.6523C167.007 -45.5919 165.821 -43.7594 164.067 -42.6354L154.643 -36.5968C149.113 -33.0534 150.809 -24.5675 157.249 -23.5548L168.224 -21.8288C170.267 -21.5076 172.059 -20.3046 173.131 -18.5355L178.712 -9.31931C182.151 -3.64072 190.823 -5.47414 191.806 -12.0876L193.401 -22.821C193.707 -24.8814 194.893 -26.7138 196.647 -27.8378L206.07 -33.8765Z" fill="white"/>
</g>
<path d="M232.589 170.727C232.884 176.408 242.429 180.608 253.425 180.037C264.422 179.466 272.706 174.34 272.411 168.659C271.911 159.035 263.81 151.742 251.442 152.384C239.074 153.026 232.072 160.771 232.589 170.727Z" fill="#5BB42B"/>
<path d="M155.495 170.727C155.79 176.408 165.335 180.608 176.331 180.037C187.328 179.466 195.612 174.34 195.317 168.659C194.818 159.035 186.716 151.742 174.348 152.384C161.98 153.026 154.978 160.771 155.495 170.727Z" fill="#5BB42B"/>
<ellipse cx="155.047" cy="89.6057" rx="26.5651" ry="28.6273" transform="rotate(-28.6896 155.047 89.6057)" fill="#5BB42B"/>
<ellipse cx="26.5651" cy="28.6273" rx="26.5651" ry="28.6273" transform="matrix(-0.877234 -0.480064 -0.480064 0.877234 307.509 76.506)" fill="#5BB42B"/>
<path d="M298.77 135.581C298.77 170.634 262.418 170.627 215.462 170.627C168.506 170.627 127.304 170.634 127.304 135.581C127.304 85.2263 166.223 63.627 213.18 63.627C260.136 63.627 298.77 81.2388 298.77 135.581Z" fill="#5BB42B"/>
<path d="M145.249 123.441H156.547" stroke="#A1DC3C" stroke-width="13.2919" stroke-linecap="round"/>
<path d="M268.199 123.441H279.497" stroke="#A1DC3C" stroke-width="13.2919" stroke-linecap="round"/>
<path d="M267.633 98.186L272.949 99.5153" stroke="#123041" stroke-width="9.96894" stroke-linecap="round"/>
<path d="M165.285 98.8507L159.969 100.18" stroke="#123041" stroke-width="9.96894" stroke-linecap="round"/>
<path d="M241.714 101.177C240.274 102.173 236.331 104.167 232.077 104.167C226.761 104.167 224.767 99.5151 219.118 99.5151C213.469 99.5151 211.475 104.167 206.158 104.167C201.905 104.167 197.961 102.173 196.522 101.177" stroke="#4B890D" stroke-width="3.32298" stroke-linecap="round"/>
<defs>
<clipPath id="clip0_3134_1904">
<rect width="382" height="301" rx="11" transform="matrix(-1 0 0 1 368 -139)" fill="white"/>
</clipPath>
<clipPath id="clip1_3134_1904">
<rect width="282" height="264.375" rx="26.4375" transform="matrix(-1 0 0 1 295 -63.3852)" fill="white"/>
</clipPath>
</defs>
</svg>
