<svg width="350" height="162" viewBox="0 0 350 162" fill="none" xmlns="http://www.w3.org/2000/svg">
<g clip-path="url(#clip0_3134_1905)">
<rect width="382" height="301" rx="11" transform="matrix(-1 0 0 1 368 -139)" fill="#AFD157"/>
<g clip-path="url(#clip1_3134_1905)">
<path d="M223.971 -62.0673C262.712 -62.0673 294.118 -32.624 294.118 3.696C294.118 40.0166 262.712 69.4593 223.971 69.4593C262.712 69.4593 294.118 98.902 294.118 135.223C294.118 171.543 262.712 200.986 223.971 200.986C185.229 200.986 153.823 171.543 153.823 135.223C153.823 171.543 122.418 200.986 83.6759 200.986C44.9339 200.986 13.5284 171.543 13.5284 135.223C13.5284 98.902 44.9339 69.4593 83.6759 69.4593C44.9339 69.4593 13.5284 40.0166 13.5284 3.696C13.5284 -32.624 44.9339 -62.0673 83.6759 -62.0673C122.418 -62.0673 153.823 -32.624 153.823 3.696C153.823 -32.624 185.229 -62.0673 223.971 -62.0673Z" fill="#C7E8AB"/>
</g>
<path d="M206.07 -33.8765C211.6 -37.4199 209.905 -45.9058 203.465 -46.9185L192.489 -48.6445C190.447 -48.9657 188.654 -50.1686 187.583 -51.9378L182.002 -61.154C178.563 -66.8326 169.891 -64.9991 168.908 -58.3857L167.313 -47.6523C167.007 -45.5919 165.821 -43.7594 164.067 -42.6354L154.643 -36.5968C149.113 -33.0534 150.809 -24.5675 157.249 -23.5548L168.224 -21.8288C170.267 -21.5076 172.059 -20.3046 173.131 -18.5355L178.712 -9.31931C182.151 -3.64072 190.823 -5.47414 191.806 -12.0876L193.401 -22.821C193.707 -24.8814 194.893 -26.7138 196.647 -27.8378L206.07 -33.8765Z" fill="white"/>
</g>
<defs>
<clipPath id="clip0_3134_1905">
<rect width="382" height="301" rx="11" transform="matrix(-1 0 0 1 368 -139)" fill="white"/>
</clipPath>
<clipPath id="clip1_3134_1905">
<rect width="282" height="264.375" rx="26.4375" transform="matrix(-1 0 0 1 295 -63.3852)" fill="white"/>
</clipPath>
</defs>
</svg>
