<svg width="344" height="223" viewBox="0 0 344 223" fill="none" xmlns="http://www.w3.org/2000/svg">
<path d="M322.122 76.7771C333.484 119.18 289.841 167.716 224.642 185.186C159.444 202.656 77.8406 195.14 66.4788 152.737C55.117 110.334 118.299 49.1019 183.497 31.632C248.696 14.1621 310.76 34.3743 322.122 76.7771Z" fill="#DBEBF1"/>
<g filter="url(#filter0_g_3134_2091)">
<path fill-rule="evenodd" clip-rule="evenodd" d="M47.8522 140.116C31.9182 144.029 26.1637 149.494 30.5886 154.529C12.9624 157.32 1.29218 162.184 1.29218 167.717C1.29217 173.25 12.9624 178.114 30.5886 180.906C26.1637 185.94 31.9182 191.405 47.8522 195.318C63.7863 199.23 86.0449 200.643 106.547 199.557C117.916 203.885 137.724 206.75 160.258 206.75C182.792 206.75 202.6 203.885 213.97 199.557C234.471 200.643 256.73 199.23 272.665 195.318C288.598 191.405 294.352 185.94 289.928 180.906C307.554 178.114 319.224 173.25 319.224 167.717C319.224 162.184 307.554 157.32 289.928 154.529C294.352 149.494 288.598 144.029 272.665 140.116C256.73 136.204 234.471 134.791 213.97 135.878C202.6 131.55 182.792 128.684 160.258 128.684C137.724 128.684 117.916 131.549 106.547 135.877C86.0449 134.791 63.7863 136.204 47.8522 140.116Z" fill="#BBABDD"/>
<path d="M107.7 163.445L107.856 156.313L46.5574 169.936L60.8858 173.859L107.7 163.445ZM246.727 162.03C242.319 156.333 225.354 151.777 223.4 151.268L181.713 139.898L157.632 145.25L155.92 145.63L155.764 152.762L181.436 147.057L205.145 153.522L208.761 154.508L209.02 154.576C209.064 154.588 210.612 154.994 212.788 155.685C217.238 157.099 224.316 159.705 226.537 162.57C229.845 166.848 231.448 171.787 212.314 177.342L212.152 184.714C213.953 184.372 215.083 184.124 215.49 184.033C232.581 180.311 242.919 176.395 247.087 172.062C250.704 168.304 248.934 164.881 246.727 162.03ZM119.313 181.264L118.671 181.173L118.36 181.141C117.908 181.079 116.217 180.825 113.086 180.199C111.54 179.888 109.635 179.487 107.36 178.972C103.917 178.193 99.6198 177.154 94.38 175.779L82.6589 172.57L68.0398 175.817L79.6927 179.005L79.8495 179.048C97.8938 183.791 107.188 185.236 110.615 185.657C123.019 187.392 134.694 188.342 145.331 188.774C151.233 189.015 156.817 189.095 162.026 189.061C162.471 189.058 162.917 189.054 163.36 189.05L163.471 183.939C151.016 184.191 136.004 183.619 119.313 181.264Z" fill="#B09FD4"/>
<path d="M145.587 147.927L144.921 178.373L117.675 177.777L118.196 154.015L120.949 153.403L122.423 153.077L130.699 151.237L136.308 149.99L138.135 149.584L143.747 148.336L145.587 147.927Z" fill="#B09FD4"/>
<path d="M202.493 155.98L201.828 186.365C201.708 186.382 201.587 186.399 201.463 186.415C200.208 186.585 198.871 186.756 197.461 186.924C196.997 186.979 196.526 187.034 196.042 187.089C194.773 187.234 193.45 187.375 192.072 187.513C190.801 187.639 189.481 187.763 188.118 187.88C187.376 187.944 186.624 188.005 185.854 188.067C184.865 188.144 183.842 188.219 182.787 188.291C181.967 188.348 181.129 188.401 180.271 188.453C178.581 188.556 176.82 188.649 174.984 188.731C174.545 188.75 174.099 188.768 173.649 188.786L174.381 155.365L202.493 155.98Z" fill="#B09FD4"/>
<path d="M174.209 163.392L145.261 162.759L145.11 169.652L174.059 170.285L174.209 163.392Z" fill="#B09FD4"/>
</g>
<path d="M286.6 145.249C291.528 148.2 292.638 151.446 289.928 154.529C298.411 155.873 305.514 157.699 310.601 159.846L309.989 161.902C309.617 163.153 308.786 164.217 307.662 164.88L286.6 177.306V145.249Z" fill="#9085C7"/>
<path d="M169.854 111.648L274.726 132.426V164.507L169.854 132.281V111.648Z" fill="#9085C7"/>
<path d="M307.538 59.1273L321.449 63.6644C324.446 64.6418 326.474 67.4361 326.474 70.5882V144.7H307.538V59.1273Z" fill="#EB6371"/>
<path d="M202.12 72.4363C202.12 68.5861 205.117 65.4011 208.96 65.167L306.368 59.2338C310.556 58.9786 314.093 62.3068 314.093 66.5031V121.946L202.12 104.285V72.4363Z" fill="#FDAFC1"/>
<path d="M274.197 61.1924C275.381 61.8768 276.454 62.6629 277.363 63.5723C280.723 66.9318 290.802 76.4958 289.421 115.49C289.388 116.431 289.271 117.265 289.083 118.001L261.298 113.618C250.529 106.917 240.77 98.8962 240.718 98.8535L248.142 62.7793L274.197 61.1924Z" fill="#FF7E8B"/>
<path d="M161.154 76.2419L202.666 76.242V123.762L168.437 132.502L161.154 76.2419Z" fill="#EB6371"/>
<path d="M201.756 104.099L279.136 115.569L270.903 129.215L169.854 109.057C170.516 108.229 171.478 107.695 172.531 107.57L201.756 104.099Z" fill="#FF929D"/>
<path d="M169.894 108.956L274.766 129.734V161.815L169.894 129.588V108.956Z" fill="#FDAFC1"/>
<path fill-rule="evenodd" clip-rule="evenodd" d="M168.801 132.187C168.801 132.433 168.563 132.608 168.328 132.535L160.317 130.032C160.165 129.985 160.062 129.844 160.062 129.684V94.8969C160.062 93.6328 159.142 92.5565 157.894 92.359C156.631 92.1591 155.707 91.0608 155.726 89.7822L155.85 81.6226C155.895 78.6385 158.327 76.243 161.311 76.243H163.339C166.356 76.243 168.801 78.6885 168.801 81.7051V132.187Z" fill="#FA9DB2"/>
<path d="M193.927 100.639H198.297V110.471L193.927 111.928V100.639Z" fill="#FF929D"/>
<path d="M228.52 105.009H232.889V116.744L228.52 118.482V105.009Z" fill="#FF929D"/>
<path d="M170.37 99.7613C170.37 98.6617 171.338 97.813 172.428 97.9561L193.596 100.734C194.503 100.853 195.18 101.626 195.18 102.54V109.929C195.18 111.08 194.124 111.943 192.995 111.712L171.827 107.391C170.979 107.217 170.37 106.472 170.37 105.607V99.7613Z" fill="#FDAFC1"/>
<path d="M203.212 95.7234L290.97 102.096L274.219 111.381L172.078 97.9082L203.212 95.7234Z" fill="#FFD2DC"/>
<path d="M238.08 98.2031L290.97 102.096L274.219 111.382L210.945 103.113L238.08 98.2031Z" fill="url(#paint0_linear_3134_2091)"/>
<path d="M196.731 102.88C196.731 101.775 197.708 100.924 198.803 101.077L228.241 105.184C229.141 105.31 229.811 106.079 229.811 106.987V116.655C229.811 117.805 228.758 118.666 227.63 118.439L198.192 112.51C197.342 112.339 196.731 111.592 196.731 110.725V102.88Z" fill="#FDAFC1"/>
<path fill-rule="evenodd" clip-rule="evenodd" d="M228.242 105.183C229.141 105.308 229.81 106.078 229.81 106.987V116.654C229.81 117.803 228.758 118.666 227.631 118.439L217.746 116.448C214.689 113.01 214.173 108.538 214.33 106.578L216.308 103.519L228.242 105.183Z" fill="url(#paint1_linear_3134_2091)"/>
<path d="M231.362 107.53C231.362 106.425 232.338 105.575 233.432 105.727L270.624 110.885C271.524 111.01 272.195 111.779 272.195 112.688V124.443C272.195 125.581 271.162 126.44 270.043 126.234L232.851 119.361C231.988 119.201 231.362 118.448 231.362 117.57V107.53Z" fill="#FF7E8B"/>
<path d="M231.362 107.53C231.362 106.425 232.338 105.575 233.432 105.727L270.624 110.885C271.524 111.01 272.195 111.779 272.195 112.688V124.443C272.195 125.581 271.162 126.44 270.043 126.234L232.851 119.361C231.988 119.201 231.362 118.448 231.362 117.57V107.53Z" fill="url(#paint2_linear_3134_2091)"/>
<path d="M228.52 105.373C240.607 103.453 251.39 102.013 263.477 100.093L265.662 100.275L231.797 105.919L228.52 105.373Z" fill="#EB6371"/>
<path d="M193.927 100.821L229.977 97.7262L232.162 97.9083L197.568 101.368L193.927 100.821Z" fill="#FF929D"/>
<g clip-path="url(#clip0_3134_2091)">
<path d="M250.744 116.034C253.845 113.966 254.965 110.954 255.137 108.799L239.631 106.473L237.564 112.934C238.77 114.399 240.632 117.012 242.216 117.328C244.8 117.843 248.311 117.655 250.744 116.034Z" fill="#F26D7B"/>
<path d="M211.388 86.9641C217.709 89.4374 230.257 85.7942 234.541 82.522C234.756 81.9393 235.064 80.4632 234.569 79.2196C233.95 77.6653 215.212 74.7975 211.412 75.3781C207.613 75.9588 203.488 83.8725 211.388 86.9641Z" fill="url(#paint3_linear_3134_2091)"/>
<path d="M211.388 86.9641C217.709 89.4374 230.257 85.7942 234.541 82.522C234.756 81.9393 235.064 80.4632 234.569 79.2197C233.95 77.6653 215.212 74.7975 211.412 75.3781C207.613 75.9588 203.488 83.8725 211.388 86.9641Z" fill="white"/>
<path fill-rule="evenodd" clip-rule="evenodd" d="M215.408 75.4215C213.631 75.2878 212.201 75.259 211.413 75.3794C210.129 75.5756 208.81 76.6107 207.929 78.0127C206.8 80.3047 207.275 83.7337 211.388 86.9625C211.391 86.9645 211.394 86.9661 211.397 86.9682C212.979 87.5855 214.95 87.8204 217.083 87.7744C217.281 87.5475 217.475 87.2788 217.663 86.9615C219.456 83.9388 219.151 78.6602 216.372 76.2373C215.969 75.8861 215.704 75.6126 215.408 75.4215Z" fill="url(#paint4_linear_3134_2091)"/>
<path d="M266.845 103.28C258.401 98.5397 253.2 85.4199 251.767 79.6794C252.057 79.1769 253.031 78.1307 254.602 77.9662C256.567 77.7605 273.359 92.9827 276.642 96.8883C279.925 100.794 275.29 108.021 266.845 103.28Z" fill="#DBEBF1"/>
<path fill-rule="evenodd" clip-rule="evenodd" d="M253.383 81.6507C249.345 76.8265 242.997 76.1352 238.386 77.6086C233.776 79.0819 223.75 90.266 226.085 95.3497C228.601 100.827 244.684 111.156 250.003 109.411C255.322 107.667 257.421 86.4752 253.383 81.6507Z" fill="#EAF3F7"/>
<path d="M211.42 99.9718C212.016 95.6935 225.455 92.7691 227.437 92.4793C233.17 97.7134 232 102.3 232 102.3C228.289 107.257 223.798 110.716 218.468 110.759C213.138 110.802 210.859 103.995 211.42 99.9718Z" fill="#123041"/>
<path d="M227.524 93.4139C228.295 102.844 224.637 105.455 220.04 105.594C216.378 105.705 213.985 109.33 216.518 110.44C217.115 110.65 217.764 110.764 218.467 110.759C218.967 110.755 219.459 110.721 219.944 110.658C220.429 110.596 220.907 110.505 221.377 110.387C222.632 110.073 223.835 109.569 224.986 108.903C225.13 108.819 225.273 108.733 225.416 108.644C225.843 108.38 226.263 108.093 226.675 107.785C227.776 106.965 228.828 106 229.829 104.919C230.205 104.513 230.573 104.09 230.935 103.653C231.056 103.508 231.175 103.36 231.294 103.212C231.532 102.914 231.767 102.61 231.999 102.301C232.001 102.294 232.019 102.222 232.039 102.093C232.06 101.958 232.082 101.758 232.092 101.503C232.1 101.311 232.1 101.087 232.086 100.835C232.077 100.667 232.061 100.487 232.037 100.295C232.025 100.198 232.011 100.099 231.995 99.9966C231.962 99.7931 231.921 99.5784 231.868 99.3536C231.444 97.5526 230.303 95.0971 227.436 92.4799L227.524 93.4139Z" fill="url(#paint5_linear_3134_2091)"/>
<path d="M260.474 74.755C259.311 74.4026 258.082 75.0594 257.729 76.2226C257.377 77.3857 258.034 78.6148 259.197 78.9679L262.356 79.9262C263.52 80.279 264.749 79.6218 265.102 78.4586C265.454 77.2951 264.797 76.0662 263.634 75.7133L260.474 74.755Z" fill="#FFC0C1"/>
<path d="M263.427 47.6748C262.854 51.3033 264.116 51.5246 265.677 51.771C267.239 52.0174 268.508 52.1957 269.08 48.5672C269.653 44.9387 268.385 41.7237 267.291 41.551C266.196 41.3783 263.999 44.0463 263.427 47.6748Z" fill="#6A5B3D"/>
<path d="M230.165 42.1988C229.212 45.7465 230.444 46.0999 231.971 46.5098C233.497 46.9198 234.74 47.2312 235.693 43.6835C236.646 40.1358 235.724 36.8049 234.654 36.5175C233.585 36.2302 231.118 38.6511 230.165 42.1988Z" fill="#6A5B3D"/>
<path d="M228.424 43.1607C233.798 48.0845 231.684 49.7099 229.736 52.3191C227.789 54.9284 226.635 57.4335 221.371 52.6096C218.698 50.1608 218.111 46.0604 220.058 43.4512C222.006 40.8419 225.751 40.7119 228.424 43.1607Z" fill="white"/>
<path d="M226.481 46.2296C229.159 48.6837 228.294 49.2421 227.555 50.2321C226.816 51.2221 226.429 52.219 223.805 49.8147C222.473 48.5942 221.992 46.8022 222.731 45.8122C223.47 44.8222 225.149 45.0091 226.481 46.2296Z" fill="#FFC0C1"/>
<path d="M273.181 48.5324C265.983 51.3891 267.71 53.6523 268.957 56.7946C270.205 59.937 270.646 62.7105 277.697 59.9118C281.277 58.491 283.168 54.7919 281.921 51.6495C280.674 48.5072 276.761 47.1116 273.181 48.5324Z" fill="#123041"/>
<path d="M218.235 62.8919C216.444 74.2406 228.294 79.9681 243.42 82.3554C258.545 84.7427 270.44 85.5002 273.466 71.6093C277.241 54.2834 265.031 43.6453 249.906 41.258C234.781 38.8707 221.435 42.6196 218.235 62.8919Z" fill="white"/>
<path d="M274.476 52.1407C270.889 53.5645 271.629 54.3894 272.102 55.5816C272.575 56.7739 272.675 57.8531 276.19 56.4582C277.974 55.7501 279.037 54.2095 278.563 53.0173C278.09 51.825 276.26 51.4325 274.476 52.1407Z" fill="#FFC0C1"/>
<path d="M249.905 41.2585C249.351 41.171 248.798 41.0923 248.249 41.0218C247.409 43.7358 247.069 46.6107 247.872 49.1395C250.23 56.5615 258.053 55.9904 261.08 57.3053C264.107 58.6205 263.714 64.0568 268.197 66.3606C269.819 67.1942 271.983 66.9166 274.146 66.219C274.562 52.0768 263.393 43.3873 249.905 41.2585Z" fill="#123041"/>
<path fill-rule="evenodd" clip-rule="evenodd" d="M273.984 69.0245C264.947 70.3755 270.792 77.3911 250.692 77.5632C239.505 77.6589 222.902 72.7294 219.917 71.8139C223.5 77.8498 232.658 81.2855 243.518 82.9818C258.572 85.3331 270.413 86.0641 273.455 72.1943C273.692 71.1113 273.868 70.0545 273.984 69.0245Z" fill="url(#paint6_linear_3134_2091)" fill-opacity="0.75"/>
<path d="M247.676 72.6842C248.381 68.2168 245.331 64.0236 240.864 63.3185L236.819 62.6801C232.352 61.975 228.158 65.025 227.453 69.4924C226.983 72.4707 229.017 75.2661 231.995 75.7362L241.432 77.2257C244.41 77.6958 247.206 75.6625 247.676 72.6842Z" fill="#FFC0C1"/>
<path d="M240.486 69.7506L240.108 72.1421" stroke="black" stroke-width="2.20138" stroke-linecap="round"/>
<path d="M231.789 68.3795L231.412 70.771" stroke="black" stroke-width="2.20138" stroke-linecap="round"/>
<path d="M253.474 67.0341C253.474 67.0341 253.88 68.0999 255.202 68.3506C256.523 68.6014 257.291 67.7585 257.291 67.7585" stroke="#123041" stroke-width="3.30207" stroke-linecap="round"/>
<path d="M224.493 61.5356C224.493 61.5356 224.9 62.6014 226.221 62.8522C227.542 63.103 228.311 62.2601 228.311 62.2601" stroke="#123041" stroke-width="3.30207" stroke-linecap="round"/>
<path d="M219.2 67.8231L222.249 68.4305" stroke="#FFC0C1" stroke-width="4.14609" stroke-linecap="round"/>
<path d="M257.509 75.6855L260.558 76.2929" stroke="#FFAAAB" stroke-width="4.14609" stroke-linecap="round"/>
<path fill-rule="evenodd" clip-rule="evenodd" d="M229.935 84.8423C226.837 88.587 224.594 92.9688 225.884 95.6723C226.033 95.9844 226.228 96.3118 226.462 96.6527C228.097 96.6817 230.185 96.567 230.006 95.7713C228.784 90.3478 231.476 86.6123 229.935 84.8423Z" fill="#0E2938"/>
<path d="M231.46 88.0566C229.141 90.982 232.409 94.1753 236.191 95.2458C239.973 96.3164 246.116 97.372 247.214 94.2614C248.941 89.3684 246.582 85.3903 241.714 84.3833C237.557 83.5234 234.992 83.6011 231.46 88.0566Z" fill="#FCD1D2"/>
<path d="M229.577 105.927C229.194 97.818 245.403 93.3446 249.204 94.5866C253.005 95.8286 251.292 106.474 251.292 106.474C248.544 111.954 247.403 116.011 240.965 116.996C235.81 117.785 229.912 113.008 229.577 105.927Z" fill="white"/>
<path fill-rule="evenodd" clip-rule="evenodd" d="M247.448 69.8296C247.42 69.8401 247.366 70.0597 247.3 70.3791C246.99 71.873 245.491 73.6056 244.087 74.2033C243.137 74.6078 242.151 74.753 241.124 74.6478C238.947 74.4249 235.18 74.0277 233.303 73.8376C232.554 73.7618 231.799 73.6418 231.066 73.47C229.889 73.194 228.185 72.7953 228.033 72.757C227.936 72.7322 227.934 72.7303 227.979 72.8195C228.745 74.3254 230.198 75.4556 231.994 75.7393L241.431 77.2288C244.41 77.6989 247.205 75.6654 247.675 72.6872C247.675 72.6861 247.676 72.6851 247.676 72.6841L247.77 71.6685C247.785 71.206 247.761 70.7495 247.7 70.3022C247.675 70.1134 247.523 70.0047 247.448 69.8296ZM247.448 69.8296C247.442 69.8319 247.442 69.8158 247.444 69.8216C247.445 69.8243 247.446 69.827 247.448 69.8296Z" fill="#FFAAAB"/>
<path fill-rule="evenodd" clip-rule="evenodd" d="M250.332 96.7061C247.152 99.4441 246.885 99.9244 240.265 100.363C245.715 104.499 245.84 109.911 244.1 113.163C242.96 115.293 240.865 116.439 239.024 117.047C239.841 117.176 240.655 117.189 241.441 117.069C246.376 116.314 248.803 112.882 252.277 107.214L250.332 96.7061Z" fill="url(#paint7_linear_3134_2091)"/>
<path d="M255.398 89.0166C251.23 88.5755 250.465 94.3568 245.517 95.0157C249.199 98.8858 248.334 103.028 246.849 109.902C248.132 110.258 249.274 110.426 250.198 110.354C251.546 108.904 253.112 106.932 254.621 104.799C255.901 100.388 256.288 94.1199 255.662 89.0501C255.574 89.0371 255.486 89.0259 255.398 89.0166Z" fill="url(#paint8_linear_3134_2091)"/>
<path d="M200.475 75.8007L212.75 73.0708L214.068 89.3405C211.238 91.066 209.498 91.3971 206.177 91.0954L200.475 75.8007Z" fill="white"/>
<path d="M201.533 80.2046L213.809 77.4747L214.132 84.3038L204.13 86.5096L201.533 80.2046Z" fill="url(#paint9_linear_3134_2091)"/>
<rect x="200.036" y="75.8981" width="13.4732" height="0.898211" transform="rotate(-12.5382 200.036 75.8981)" fill="#123041"/>
<rect x="200.182" y="74.4854" width="12.575" height="2.24553" transform="rotate(-12.5382 200.182 74.4854)" fill="#123041"/>
</g>
<path d="M286.6 75.878L334.666 75.8778V143.188C334.666 145.026 333.69 146.726 332.102 147.653L286.6 174.196V75.878Z" fill="#EB6371"/>
<path d="M343.523 95.5847C343.523 97.9289 341.467 99.7421 339.141 99.4497C336.815 99.1573 334.76 100.971 334.76 103.315V142.822C334.76 143.043 334.565 143.213 334.346 143.183L322.152 141.475C321.972 141.45 321.838 141.295 321.838 141.114V89.1021C321.838 89.0287 321.898 88.9692 321.971 88.9692C322.044 88.9692 322.104 88.9098 322.104 88.8364V80.9763C322.104 77.9596 324.549 75.5142 327.566 75.5142H338.061C341.077 75.5142 343.523 77.9596 343.523 80.9763V95.5847Z" fill="#EB6371"/>
<path d="M298.07 103.325C298.07 106.346 295.423 108.683 292.426 108.308C289.43 107.933 286.782 110.27 286.782 113.29V174.067C286.782 174.312 286.547 174.487 286.313 174.416L269.197 169.21C269.044 169.163 268.94 169.021 268.94 168.861V86.8009C268.94 80.7676 273.831 75.8767 279.864 75.8767H287.146C293.18 75.8767 298.07 80.7676 298.07 86.8009V103.325Z" fill="#FA9DB2"/>
<g clip-path="url(#clip1_3134_2091)">
<path d="M255.773 180.873C254.727 186.564 244.663 192.382 225.9 188.933C207.137 185.484 186.78 174.073 187.826 168.382C188.873 162.691 204.931 160.873 223.694 164.323C242.457 167.772 256.82 175.182 255.773 180.873Z" fill="#7C70B8"/>
<path d="M306.561 191.295C306.561 198.05 288.599 202.809 258.969 202.809C219.171 202.809 213.372 200.122 213.372 192.83C213.372 185.538 239.144 178.552 264.496 178.552C289.848 178.552 306.561 184.54 306.561 191.295Z" fill="#D0E3EA"/>
<path d="M204.509 164.156C205.224 166.61 219.185 173.931 226.634 177.676C232.644 177.368 240.479 164.662 238.457 161.147C236.435 157.632 219.261 156.464 216.451 156.797C213.878 157.103 203.676 161.294 204.509 164.156Z" fill="#4DA42D"/>
<path d="M187.837 168.492C188.574 170.939 202.6 178.135 210.083 181.814C216.089 181.452 223.81 168.676 221.757 165.179C219.704 161.683 202.519 160.668 199.713 161.026C197.143 161.355 186.978 165.637 187.837 168.492Z" fill="#5BB42B"/>
<path d="M208.969 179.893C215.883 190.608 248.995 191.554 251.867 190.608C254.739 189.661 256.753 183.582 255.884 179.893C255.015 176.205 243.558 154.179 222.619 158.524C203.829 162.423 204.769 173.384 208.969 179.893Z" fill="url(#paint10_linear_3134_2091)"/>
<path d="M301.856 181.559C299.068 172.55 275.734 175.281 268.904 177.425C268.4 178.057 267.433 179.77 267.599 181.558C267.808 183.794 283.244 193.039 294.001 193.039C299.906 193.039 304.161 189.004 301.856 181.559Z" fill="#439B22"/>
<ellipse cx="238.698" cy="159.551" rx="12.0385" ry="12.973" transform="rotate(-28.6896 238.698 159.551)" fill="#5BB42B"/>
<ellipse cx="12.0385" cy="12.973" rx="12.0385" ry="12.973" transform="matrix(-0.877234 -0.480063 -0.480063 0.877234 299.616 155.137)" fill="#5BB42B"/>
<path d="M294.588 177.448C294.588 191.59 279.091 196.279 260.256 196.279C241.421 196.279 225.81 191.59 225.81 177.448C225.81 157.132 241.421 148.418 260.256 148.418C279.091 148.418 294.588 155.524 294.588 177.448Z" fill="#5BB42B"/>
<path fill-rule="evenodd" clip-rule="evenodd" d="M291.723 163.336C287.185 158.959 281.135 176.926 267.466 181.565C250.287 187.396 231.442 182.387 236.392 192.353C241.878 194.823 249.09 195.987 257.035 196.227C257.898 196.192 258.817 196.173 259.797 196.173C265.143 196.173 270.41 195.819 275.209 195.035C286.644 192.854 294.596 187.576 294.596 177.446C294.596 171.805 293.568 167.146 291.723 163.336Z" fill="url(#paint11_linear_3134_2091)"/>
<path d="M236.8 172.881H243.536" stroke="#A1DC3C" stroke-width="6.02349" stroke-linecap="round"/>
<path d="M289.367 172.939L294.487 172.939" stroke="#6DBD27" stroke-width="6.02349" stroke-linecap="round"/>
<path d="M282.932 160.068L287.702 161.782" stroke="#123041" stroke-width="4.51762" stroke-linecap="round"/>
<path d="M246.587 160.363L240.473 162.55" stroke="#123041" stroke-width="4.51762" stroke-linecap="round"/>
<path d="M230.731 181.701C227.919 176.477 229.632 174.02 221.201 176.072C216.733 177.159 206.251 183.455 208.224 190.737C210.372 198.668 216.094 199.946 223.058 199.946C230.022 199.946 235.167 189.942 230.731 181.701Z" fill="#5BB42B"/>
<path fill-rule="evenodd" clip-rule="evenodd" d="M229.2 179.343C227.785 178.992 226.173 179.452 224.036 180.326C219.781 182.067 233.431 189.369 221.555 199.295C221.299 199.509 221.066 199.708 220.854 199.892C221.572 199.928 222.308 199.944 223.059 199.944C230.023 199.944 235.168 189.94 230.732 181.699C230.255 180.813 229.742 180.029 229.2 179.343Z" fill="url(#paint12_linear_3134_2091)"/>
<path d="M270.465 164.517C270.465 165.446 270.465 165.913 266.041 165.913C261.616 165.913 261.616 165.529 261.616 164.517C261.616 162.858 263.597 161.891 266.041 161.891C268.484 161.891 270.465 162.974 270.465 164.517Z" fill="white"/>
<path d="M294.454 148.554L294.586 147.824L297.831 144.589H295.193L295.336 143.849H298.997L298.865 144.58L295.611 147.815H298.343L298.21 148.554H294.454Z" fill="white"/>
<path d="M299.472 141.697L299.671 140.601L304.537 135.749H300.582L300.795 134.639H306.288L306.088 135.735L301.208 140.587H305.306L305.107 141.697H299.472Z" fill="white"/>
</g>
<ellipse cx="61.0514" cy="170.05" rx="29.7202" ry="5.68561" fill="#9085C7"/>
<path d="M69.7924 168.455C71.0929 167.147 69.1229 152.498 67.2594 146.521L53.3907 153.744C54.3541 158.737 56.9165 168.765 57.8429 169.35C59.001 170.081 68.1668 170.091 69.7924 168.455Z" fill="#FFC532"/>
<path d="M81.1363 137.77C77.837 130.965 63.7329 126.583 58.0935 126.357C57.5589 126.696 56.4093 127.72 56.0884 129.106C55.6873 130.838 70.3008 145.098 74.2551 146.51C76.8588 147.44 84.1119 143.907 81.1363 137.77Z" fill="#FFC532"/>
<path d="M66.108 153.452C70.2263 151.873 64.9664 129.197 59.491 123.947C54.0155 118.697 45.314 121.237 41.3808 123.475C37.4475 125.713 29.9548 146.583 35.7942 156.568C39.0617 162.156 59.9301 155.82 66.108 153.452Z" fill="url(#paint13_linear_3134_2091)"/>
<path d="M41.5237 126.054C40.0359 130.146 44.8714 135.911 50.6365 139.817C50.6365 141.963 43.1585 148.91 42.0817 148.372C41.709 148.186 38.5896 146.139 36.6888 141.863C35.9674 140.239 35.3622 138.306 35.0443 136.633C36.35 131.467 38.3526 126.93 40.0824 124.716L41.5237 126.054Z" fill="#FFC532"/>
<path d="M39.3039 171.414C37.4063 170.665 34.6377 158.817 34.5029 152.816L51.7519 154.88C52.5132 159.697 53.8971 169.438 53.0967 170.271C52.0961 171.313 41.6759 172.35 39.3039 171.414Z" fill="url(#paint14_linear_3134_2091)"/>
<path d="M84.8097 115.765C83.6525 129.106 72.4588 131.55 53.2157 128.934C33.9725 126.318 24.2449 117.898 25.6899 107.269C28.171 89.0205 41.4125 78.8334 58.8348 82.2103C79.5889 86.2331 86.3748 97.7205 84.8097 115.765Z" fill="#FFDB40"/>
<path d="M79.8949 93.3293C84.2233 99.0079 85.6113 106.525 84.8103 115.761C83.6531 129.103 72.4599 131.547 53.2168 128.931C39.1245 127.015 30.1361 121.986 26.9011 115.257C38.1316 102.983 70.8907 109.536 76.6733 98.5257C77.8463 96.2922 78.9199 94.5817 79.8949 93.3293Z" fill="url(#paint15_linear_3134_2091)"/>
<path d="M38.333 118.643L43.9151 118.986" stroke="#FCA18E" stroke-width="5.17888" stroke-linecap="round"/>
<path d="M79.252 120.874L83.1353 120.845" stroke="#FF8971" stroke-width="5.17888" stroke-linecap="round"/>
<path d="M48.1934 109.315L47.6353 113.42" stroke="#123041" stroke-width="3.88416" stroke-linecap="round"/>
<path d="M75.3467 111.546L74.7886 115.651" stroke="#123041" stroke-width="3.88416" stroke-linecap="round"/>
<path d="M70.0168 120.652C69.7507 122.613 66.627 123.042 62.9138 122.538C59.2007 122.034 56.304 120.789 56.5702 118.828C56.8363 116.866 60.1644 114.932 63.8776 115.435C67.5907 115.939 70.2829 118.691 70.0168 120.652Z" fill="#FFB132"/>
<path d="M69.6899 119.077C69.9644 119.62 70.0834 120.161 70.0167 120.653C69.7505 122.614 66.6269 123.042 62.9137 122.538C59.6258 122.092 56.9795 121.064 56.6011 119.473C58.6332 120.085 62.8243 121.123 66.0726 120.659C68.2095 120.354 69.2307 119.731 69.6899 119.077Z" fill="#FFA115"/>
<path d="M52.4252 72.9133C56.7218 76.3765 59.2843 80.3668 60.1611 84.0671L52.8664 83.6348C49.8627 83.4568 46.834 80.0688 46.7648 75.7865C46.6955 71.5043 50.2402 71.1522 52.4252 72.9133Z" fill="#FFDB40"/>
<path d="M60.273 78.3325C59.0479 79.6468 58.852 82.3946 58.9071 83.6042C61.3839 83.2572 65.5221 82.2959 66.1956 80.6677C66.8691 79.0395 66.3089 77.081 65.3754 76.6518C64.4419 76.2227 61.8044 76.6896 60.273 78.3325Z" fill="#FFDB40"/>
<line x1="43.8306" y1="107.468" x2="52.766" y2="108.425" stroke="#123041" stroke-width="1.48782" stroke-linecap="round"/>
<line x1="74.4449" y1="106.225" x2="80.0932" y2="108.009" stroke="#123041" stroke-width="1.48782" stroke-linecap="round"/>
<path fill-rule="evenodd" clip-rule="evenodd" d="M77.5453 139.22C77.9424 137.778 79.7433 137.295 80.8081 138.345L80.8473 138.382C81.0528 138.585 81.2964 138.735 81.5591 138.83C82.995 143.425 78.611 146.327 75.7128 146.63C75.6812 146.389 75.6938 146.136 75.7609 145.878L75.7741 145.824C75.9478 145.157 75.7585 144.447 75.2742 143.956L75.2361 143.917C74.186 142.852 74.6687 141.051 76.1105 140.654L76.1626 140.64C76.8276 140.457 77.347 139.937 77.5303 139.272L77.5453 139.22Z" fill="#FFB132"/>
<path d="M78.8117 140.051C79.1795 138.715 80.8478 138.268 81.8339 139.241L81.8697 139.276C82.3247 139.725 82.9821 139.901 83.6005 139.74L83.6492 139.727C84.9895 139.378 86.2107 140.599 85.8616 141.94L85.8489 141.988C85.6879 142.607 85.864 143.264 86.3127 143.719L86.348 143.755C87.3205 144.741 86.8735 146.409 85.5382 146.777L85.4897 146.791C84.8737 146.96 84.3924 147.442 84.2227 148.058L84.2093 148.106C83.8415 149.441 82.1733 149.888 81.1871 148.916L81.1513 148.881C80.6963 148.432 80.0389 148.256 79.4205 148.417L79.3719 148.429C78.0316 148.779 76.8103 147.557 77.1594 146.217L77.1721 146.168C77.3332 145.55 77.157 144.893 76.7084 144.438L76.673 144.402C75.7006 143.416 76.1476 141.747 77.4829 141.38L77.5314 141.366C78.1474 141.196 78.6286 140.715 78.7983 140.099L78.8117 140.051Z" fill="#FFEEC9"/>
<path d="M63.9587 137.716C66.339 132.307 68.3218 133.05 68.3218 133.05L61.6783 148.147L59.7434 147.295C59.7434 147.295 62.8354 140.269 63.9587 137.716Z" fill="#BCD1D8"/>
<circle cx="60.5013" cy="150.822" r="2.6392" transform="rotate(23.7524 60.5013 150.822)" stroke="#EB6371" stroke-width="1.92461"/>
<path d="M69.3718 144.916C75.247 144.279 75.1373 142.164 75.1373 142.164L58.7396 143.943L58.9676 146.044C58.9676 146.044 66.5992 145.217 69.3718 144.916Z" fill="#D0E5EB"/>
<circle cx="3.6015" cy="3.6015" r="2.6392" transform="matrix(-0.107826 -0.99417 -0.99417 0.107826 59.8029 147.45)" stroke="#FA9DB2" stroke-width="1.92461"/>
<path fill-rule="evenodd" clip-rule="evenodd" d="M54.8324 140.799C55.4743 141.352 56.4409 142.264 56.9466 143.006C56.6051 142.703 56.1429 142.538 55.6529 142.591C54.7324 142.691 54.0667 143.518 54.1665 144.439C54.2663 145.359 55.0938 146.025 56.0143 145.925C56.8025 145.84 57.4018 145.22 57.4958 144.467C57.6781 145.336 57.7877 146.417 57.8448 147.245C57.3753 147.562 56.8247 147.773 56.2224 147.838L56.0374 147.854C54.1968 147.959 52.57 146.651 52.2784 144.83L52.2536 144.647C52.0621 142.881 53.182 141.275 54.8324 140.799Z" fill="url(#paint16_linear_3134_2091)"/>
<path d="M62.3994 143.879C62.6373 143.981 62.8424 144.156 62.9548 144.379C63.0668 144.602 63.0879 144.875 62.9566 145.173L61.6539 148.133L59.7661 147.303L61.0688 144.342C61.1959 144.054 61.4096 143.887 61.6505 143.818C61.8918 143.749 62.1615 143.777 62.3994 143.879Z" fill="#EB6371" stroke="#EB6371" stroke-width="0.0384921"/>
<path d="M62.7522 143.507C63.7301 143.4 63.888 145.51 63.01 145.606C60.839 145.842 58.9341 146.052 58.9341 146.052L58.7041 143.95C58.7041 143.95 61.748 143.617 62.7522 143.507Z" fill="#FA9DB2"/>
<circle cx="62.0453" cy="144.649" r="0.28864" transform="rotate(-66.2476 62.0453 144.649)" fill="#E5EEF1"/>
<path d="M43.3133 150.589C37.025 146.396 36.761 131.59 38.0012 127.793C39.2415 123.997 41.2545 124.897 41.7553 126.222L41.7787 126.284C42.7815 128.938 43.792 131.612 46.7899 135.436C49.4918 138.884 54.9033 140.051 55.8751 143.964C57.2868 149.648 53.1058 157.119 43.3133 150.589Z" fill="#FFDB40"/>
<path d="M50.1581 138.544C52.5829 140.152 55.0996 141.537 55.7327 144.086C57.0765 149.498 53.3519 156.527 44.5414 151.555C47.0093 151.598 51.2466 150.402 52.5193 147.79C54.4578 143.813 52.2174 141.214 50.1581 138.544Z" fill="url(#paint17_linear_3134_2091)"/>
<path fill-rule="evenodd" clip-rule="evenodd" d="M163.541 140.892C185.34 135.951 203.804 136.195 204.781 141.436C205.527 145.433 195.884 151.182 181.594 155.878C180.175 156.344 179.506 157.954 179.506 159.448C179.506 165.581 177.175 170.554 160.207 170.554C159.261 170.554 158.333 170.46 157.436 170.282C156.765 170.149 155.639 171.692 155.639 172.376C155.639 176.923 155.056 187.885 122.817 182.455C110.426 180.369 104.985 177.765 104.985 171.342C104.985 166.69 117.907 158.16 123.399 158.16C124.091 158.16 124.682 157.649 125.017 157.043C127.839 151.934 144.237 145.267 163.541 140.892ZM148.098 163.099C148.02 162.91 147.835 162.79 147.631 162.799C147.323 162.814 147.015 162.826 146.708 162.836C146.124 162.855 145.933 163.706 146.45 163.979C146.619 164.069 146.786 164.158 146.952 164.249C147.431 164.51 148.306 163.604 148.098 163.099Z" fill="#9085C7"/>
<circle cx="182.582" cy="131.704" r="4.00554" fill="white"/>
<path d="M203.29 140.169C202.261 142.156 188.319 147.842 180.904 150.745C159.459 158.317 170.158 139.842 172.549 137.016C174.941 134.19 190.901 133.589 193.433 133.919C195.75 134.222 204.49 137.851 203.29 140.169Z" fill="white"/>
<path d="M123.838 148.919C129.018 142.846 147.109 143.382 152.443 144.418C152.819 144.859 153.52 146.088 153.319 147.477C153.067 149.214 134.592 158.259 130.574 159.844C125.294 161.926 118.558 155.11 123.838 148.919Z" fill="#DBEBF1"/>
<path d="M172.204 153.113C163.403 155.173 151.933 155.221 146.896 153.113C141.86 151.006 141.352 136.114 156.445 132.181C171.537 128.248 186.629 131.818 187.013 137.716C187.772 149.351 180.761 151.111 172.204 153.113Z" fill="url(#paint18_linear_3134_2091)"/>
<path fill-rule="evenodd" clip-rule="evenodd" d="M169.108 141.2C180.954 146.096 185.431 135.438 186.661 136.376C186.863 136.806 186.983 137.253 187.013 137.714C187.772 149.349 180.761 151.109 172.204 153.111C170.525 153.504 168.75 153.823 166.94 154.069C162.232 148.541 157.845 136.545 169.108 141.2Z" fill="url(#paint19_linear_3134_2091)" fill-opacity="0.5"/>
<path d="M158.498 167.413C165.599 167.413 169.605 157.294 171.113 147.218C170.843 146.649 168.512 144.259 166.145 144.988C164.685 145.437 149.03 150.814 149.576 159.371C149.947 165.174 152.854 167.413 158.498 167.413Z" fill="white"/>
<path d="M125.488 102.846C127.441 108.713 135.501 120.107 137.258 124.907L152.863 124.562C154.407 119.689 161.353 107.964 163.533 102.005C166.236 94.6152 163.046 85.1583 154.998 85.3362C148.353 85.483 145.482 96.5247 144.738 102.421C143.735 96.5633 140.152 85.6643 133.734 85.8061C125.686 85.9839 123.003 95.3798 125.488 102.846Z" fill="white"/>
<path d="M118.35 138.966C121.232 155.652 134.15 153.421 147.136 152.656C162.959 151.725 176.798 145.745 174.774 134.026C171.643 115.893 164.921 109.521 144.347 110.977C131.271 111.903 115.19 120.666 118.35 138.966Z" fill="white"/>
<path fill-rule="evenodd" clip-rule="evenodd" d="M162.372 133.008C166.513 129.402 170.958 120.111 174.375 131.937C174.517 132.617 174.652 133.313 174.775 134.027C175.518 138.329 174.121 141.857 171.275 144.646C166.177 148.972 156.833 151.318 147.136 152.656C147.131 152.657 147.126 152.657 147.122 152.658C136.887 153.261 126.699 154.77 121.433 147.207C128.939 146.188 147.863 145.644 162.372 133.008Z" fill="url(#paint20_linear_3134_2091)" fill-opacity="0.75"/>
<path d="M154.574 134.743L155.536 138.538" stroke="#123041" stroke-width="3.67052" stroke-linecap="round"/>
<path d="M129.568 137.584L130.529 141.379" stroke="#123041" stroke-width="3.67052" stroke-linecap="round"/>
<path d="M163.949 143.3L160.554 143.687" stroke="#FFAAAB" stroke-width="4.55733" stroke-linecap="round"/>
<path d="M126.012 146.157L122.617 146.544" stroke="#FFC0C1" stroke-width="4.55733" stroke-linecap="round"/>
<path d="M141.801 141.518C141.328 141.599 141.145 141.834 140.883 142.083C140.553 141.936 140.302 141.777 139.829 141.858C139.238 141.96 139.001 142.64 139.211 142.981C139.493 143.44 140.301 143.808 141.19 143.858C142.01 143.513 142.648 142.895 142.76 142.368C142.843 141.976 142.392 141.416 141.801 141.518Z" fill="#FFC0C1"/>
<path d="M137.313 145.925C137.643 146.052 138.531 146.277 139.444 146.162C140.585 146.017 140.914 145.187 142.127 145.033C143.339 144.879 143.865 145.601 145.006 145.456C145.919 145.34 146.723 144.9 147.011 144.695" stroke="#DF9C9C" stroke-width="1.17313" stroke-linecap="round"/>
<path d="M169.888 145.95C170.547 146.453 171.003 146.986 171.113 147.219C169.694 156.703 166.061 166.222 159.718 167.308C160.683 166.583 162.377 165.076 162.685 163.224C163.414 158.855 162.139 156.123 159.772 155.031C162.321 153.696 167.018 151.098 168.329 149.205C169.297 147.806 169.728 146.653 169.888 145.95Z" fill="url(#paint21_linear_3134_2091)"/>
<path fill-rule="evenodd" clip-rule="evenodd" d="M149.868 156.91C152.539 158.53 155.094 159.95 157.79 162.42C158.4 162.979 158.664 163.814 158.542 164.632C158.384 165.691 158.246 166.629 158.087 167.407C154.933 167.344 152.675 166.537 151.274 164.737C150.897 164.1 150.529 163.399 150.168 162.627C149.853 161.697 149.656 160.617 149.576 159.372C149.522 158.519 149.63 157.698 149.868 156.91Z" fill="#DCECF2"/>
<path d="M129.278 165.134L134.188 165.65L116.098 179.351L114.03 178.831L129.278 165.134Z" fill="#51700E"/>
<path d="M131.607 163.196L118.952 157.175C117.551 156.508 115.941 156.533 114.575 157.243L96.9592 166.388C96.6016 166.573 96.5884 167.099 96.9359 167.312L114.211 177.901L131.607 163.196Z" fill="url(#paint22_linear_3134_2091)"/>
<path d="M114.03 178.832L113.514 177.542L114.474 176.803L117.131 177.025L114.03 178.832Z" fill="#51700E"/>
<path d="M114.03 176.762L115.067 177.277L119.692 174.905L118.424 176.767L116.098 178.834L114.289 178.313L114.03 176.762Z" fill="#CFE0E6"/>
<path d="M116.357 178.317H117.285H117.759L116.099 179.351L116.357 178.317Z" fill="#86AF2F"/>
<path d="M136.015 162.315L155.056 163.185C155.907 163.224 156.349 164.218 155.807 164.875L143.038 180.355C142.477 181.035 141.608 181.382 140.733 181.276L116.356 178.316L136.015 162.315Z" fill="#97BF40"/>
<path d="M154.289 164.111C154.534 163.804 154.507 163.359 154.223 163.088C147.335 156.517 141.243 159.97 141.243 159.97L118.682 175.732L116.357 178.317C116.357 178.317 122.669 174.781 140.226 179.761C140.601 179.867 141.012 179.761 141.276 179.475C144.868 175.581 150.416 168.987 154.289 164.111Z" fill="#CFE0E6"/>
<path d="M147.563 159.306C149.54 159.735 151.834 160.808 154.223 163.087C154.507 163.358 154.533 163.803 154.289 164.11C150.416 168.985 144.868 175.579 141.277 179.473C141.108 179.656 140.878 179.764 140.637 179.792L138.324 175.475L147.563 159.306Z" fill="#B2CBD5"/>
<path d="M116.245 156.947C126.538 153.124 130.809 163.556 130.809 163.556L114.9 177.94C114.9 177.94 108.295 168.475 98.1176 167.027C97.8629 166.991 97.7867 166.637 98.0115 166.518C104.146 163.269 111.63 159.44 116.245 156.947Z" fill="#CFE0E6"/>
<path d="M151.4 161.744C151.746 161.353 151.613 160.735 151.13 160.535C139.453 155.68 134.1 162.418 134.1 162.418L115.582 178.06C115.582 178.06 121.12 170.263 137.971 175.486C138.356 175.606 138.787 175.499 139.061 175.204C143.835 170.047 146.89 166.845 151.4 161.744Z" fill="white"/>
<path d="M118.985 156.191C119.065 156.148 119.154 156.12 119.244 156.108C130.41 154.655 132.121 164.099 132.121 164.099L115.69 178.016C115.69 178.016 114.773 167.948 102.172 165.505C101.927 165.458 101.86 165.121 102.077 165.006C108.088 161.824 114.362 158.685 118.985 156.191Z" fill="url(#paint23_linear_3134_2091)"/>
<defs>
<filter id="filter0_g_3134_2091" x="-9.41753e-06" y="127.392" width="320.516" height="80.6505" filterUnits="userSpaceOnUse" color-interpolation-filters="sRGB">
<feFlood flood-opacity="0" result="BackgroundImageFix"/>
<feBlend mode="normal" in="SourceGraphic" in2="BackgroundImageFix" result="shape"/>
<feTurbulence type="fractalNoise" baseFrequency="0.64490258693695068 0.64490258693695068" numOctaves="3" seed="786" />
<feDisplacementMap in="shape" scale="2.584369421005249" xChannelSelector="R" yChannelSelector="G" result="displacedImage" width="100%" height="100%" />
<feMerge result="effect1_texture_3134_2091">
<feMergeNode in="displacedImage"/>
</feMerge>
</filter>
<linearGradient id="paint0_linear_3134_2091" x1="262.373" y1="111.125" x2="256.324" y2="99.4885" gradientUnits="userSpaceOnUse">
<stop stop-color="#FF7E8B"/>
<stop offset="1" stop-color="#EB6371"/>
</linearGradient>
<linearGradient id="paint1_linear_3134_2091" x1="222.057" y1="103.519" x2="222.057" y2="118.475" gradientUnits="userSpaceOnUse">
<stop stop-color="#FF7E8B"/>
<stop offset="1" stop-color="#FDAFC1"/>
</linearGradient>
<linearGradient id="paint2_linear_3134_2091" x1="251.778" y1="105.439" x2="251.778" y2="126.631" gradientUnits="userSpaceOnUse">
<stop stop-color="#FF7E8B"/>
<stop offset="1" stop-color="#FDAFC1"/>
</linearGradient>
<linearGradient id="paint3_linear_3134_2091" x1="216.865" y1="79.337" x2="235.025" y2="83.8537" gradientUnits="userSpaceOnUse">
<stop stop-color="white"/>
<stop offset="1" stop-color="#DEEAF1"/>
</linearGradient>
<linearGradient id="paint4_linear_3134_2091" x1="215.337" y1="81.1451" x2="220.886" y2="81.1782" gradientUnits="userSpaceOnUse">
<stop stop-color="#DBEBF1"/>
<stop offset="1" stop-color="white"/>
</linearGradient>
<linearGradient id="paint5_linear_3134_2091" x1="227.856" y1="106.769" x2="221.458" y2="91.5245" gradientUnits="userSpaceOnUse">
<stop stop-color="#0A1F2D"/>
<stop offset="1" stop-color="#123041" stop-opacity="0"/>
</linearGradient>
<linearGradient id="paint6_linear_3134_2091" x1="243.159" y1="73.4816" x2="244.629" y2="82.7563" gradientUnits="userSpaceOnUse">
<stop stop-color="white" stop-opacity="0"/>
<stop offset="1" stop-color="#CDE7F1"/>
</linearGradient>
<linearGradient id="paint7_linear_3134_2091" x1="245.619" y1="110.405" x2="246.464" y2="100.13" gradientUnits="userSpaceOnUse">
<stop stop-color="#DBEBF1"/>
<stop offset="1" stop-color="white" stop-opacity="0"/>
</linearGradient>
<linearGradient id="paint8_linear_3134_2091" x1="249.526" y1="90.9814" x2="238.164" y2="92.0395" gradientUnits="userSpaceOnUse">
<stop stop-color="#DBEBF1"/>
<stop offset="1" stop-color="white" stop-opacity="0"/>
</linearGradient>
<linearGradient id="paint9_linear_3134_2091" x1="202.354" y1="83.8949" x2="213.21" y2="78.0546" gradientUnits="userSpaceOnUse">
<stop stop-color="#6A5B3D"/>
<stop offset="1" stop-color="#312613"/>
</linearGradient>
<linearGradient id="paint10_linear_3134_2091" x1="214.11" y1="166.5" x2="222.887" y2="176.93" gradientUnits="userSpaceOnUse">
<stop stop-color="#5BB42B"/>
<stop offset="1" stop-color="#4DA42D"/>
</linearGradient>
<linearGradient id="paint11_linear_3134_2091" x1="273.139" y1="196.277" x2="264.251" y2="177.748" gradientUnits="userSpaceOnUse">
<stop stop-color="#439B22"/>
<stop offset="1" stop-color="#5BB42B"/>
</linearGradient>
<linearGradient id="paint12_linear_3134_2091" x1="230.42" y1="197.165" x2="217.366" y2="192.771" gradientUnits="userSpaceOnUse">
<stop stop-color="#4DA42D"/>
<stop offset="1" stop-color="#5BB42B"/>
</linearGradient>
<linearGradient id="paint13_linear_3134_2091" x1="46.7305" y1="132.748" x2="43.9987" y2="123.246" gradientUnits="userSpaceOnUse">
<stop stop-color="#FFD43B"/>
<stop offset="1" stop-color="#FFC532"/>
</linearGradient>
<linearGradient id="paint14_linear_3134_2091" x1="44.1269" y1="153.764" x2="36.8738" y2="170.688" gradientUnits="userSpaceOnUse">
<stop stop-color="#FFD43B"/>
<stop offset="1" stop-color="#FFDB40"/>
</linearGradient>
<linearGradient id="paint15_linear_3134_2091" x1="64.5847" y1="102.991" x2="80.3917" y2="126.609" gradientUnits="userSpaceOnUse">
<stop stop-color="#FFDB40"/>
<stop offset="1" stop-color="#FFC532"/>
</linearGradient>
<linearGradient id="paint16_linear_3134_2091" x1="53.2405" y1="145.392" x2="57.5174" y2="143.161" gradientUnits="userSpaceOnUse">
<stop stop-color="#EB6371"/>
<stop offset="1" stop-color="#FA9DB2"/>
</linearGradient>
<linearGradient id="paint17_linear_3134_2091" x1="53.5174" y1="153.395" x2="52.4603" y2="144.883" gradientUnits="userSpaceOnUse">
<stop stop-color="#FFC532"/>
<stop offset="1" stop-color="#FFD43B"/>
</linearGradient>
<linearGradient id="paint18_linear_3134_2091" x1="180.579" y1="140.11" x2="172.75" y2="129.368" gradientUnits="userSpaceOnUse">
<stop stop-color="white"/>
<stop offset="1" stop-color="#EAF3F7"/>
</linearGradient>
<linearGradient id="paint19_linear_3134_2091" x1="171.121" y1="151.033" x2="181.488" y2="138.469" gradientUnits="userSpaceOnUse">
<stop stop-color="#DBEBF1"/>
<stop offset="1" stop-color="white" stop-opacity="0"/>
</linearGradient>
<linearGradient id="paint20_linear_3134_2091" x1="152.36" y1="131.916" x2="165.273" y2="151.145" gradientUnits="userSpaceOnUse">
<stop stop-color="white" stop-opacity="0"/>
<stop offset="1" stop-color="#CDE7F1"/>
</linearGradient>
<linearGradient id="paint21_linear_3134_2091" x1="167.009" y1="155.065" x2="161.542" y2="148.64" gradientUnits="userSpaceOnUse">
<stop stop-color="#DCECF2"/>
<stop offset="1" stop-color="white" stop-opacity="0"/>
</linearGradient>
<linearGradient id="paint22_linear_3134_2091" x1="111.705" y1="159.965" x2="125.353" y2="166.48" gradientUnits="userSpaceOnUse">
<stop stop-color="#86AF2F"/>
<stop offset="1" stop-color="#51700E"/>
</linearGradient>
<linearGradient id="paint23_linear_3134_2091" x1="118.424" y1="162.292" x2="126.447" y2="171.552" gradientUnits="userSpaceOnUse">
<stop stop-color="white"/>
<stop offset="1" stop-color="#DBEBF1"/>
</linearGradient>
<clipPath id="clip0_3134_2091">
<rect width="78.6797" height="97.4362" fill="white" transform="matrix(-0.868249 -0.496129 -0.496129 0.868249 303.565 51.9655)"/>
</clipPath>
<clipPath id="clip1_3134_2091">
<rect width="146.275" height="75.9804" fill="white" transform="matrix(-1 8.74228e-08 8.74228e-08 1 318.196 132.318)"/>
</clipPath>
</defs>
</svg>
