<svg width="227" height="189" viewBox="0 0 227 189" fill="none" xmlns="http://www.w3.org/2000/svg">
<path d="M132.588 162.727C132.883 168.408 142.428 172.608 153.425 172.037C164.421 171.466 172.706 166.34 172.411 160.659C171.911 151.035 163.81 143.742 151.442 144.384C139.073 145.026 132.071 152.771 132.588 162.727Z" fill="#5BB42B"/>
<path d="M55.4947 162.727C55.7897 168.408 65.3344 172.608 76.3309 172.037C87.3275 171.466 95.6119 166.34 95.3168 160.659C94.817 151.035 86.716 143.742 74.3478 144.384C61.9795 145.026 54.9777 152.771 55.4947 162.727Z" fill="#5BB42B"/>
<ellipse cx="55.0462" cy="81.6057" rx="26.5651" ry="28.6273" transform="rotate(-28.6896 55.0462 81.6057)" fill="#5BB42B"/>
<ellipse cx="26.5651" cy="28.6273" rx="26.5651" ry="28.6273" transform="matrix(-0.877234 -0.480064 -0.480064 0.877234 207.509 68.506)" fill="#5BB42B"/>
<path d="M198.77 127.581C198.77 162.634 162.418 162.627 115.462 162.627C68.5053 162.627 27.304 162.634 27.304 127.581C27.304 77.2263 66.2227 55.627 113.179 55.627C160.135 55.627 198.77 73.2388 198.77 127.581Z" fill="#5BB42B"/>
<path d="M45.2486 115.441H56.5467" stroke="#A1DC3C" stroke-width="13.2919" stroke-linecap="round"/>
<path d="M168.199 115.441H179.497" stroke="#A1DC3C" stroke-width="13.2919" stroke-linecap="round"/>
<path d="M167.632 90.186L172.949 91.5153" stroke="#123041" stroke-width="9.96894" stroke-linecap="round"/>
<path d="M65.2848 90.8507L59.9685 92.18" stroke="#123041" stroke-width="9.96894" stroke-linecap="round"/>
<path d="M141.714 93.1766C140.274 94.1735 136.33 96.1673 132.077 96.1673C126.76 96.1673 124.766 91.5151 119.117 91.5151C113.468 91.5151 111.474 96.1673 106.158 96.1673C101.904 96.1673 97.961 94.1735 96.521 93.1766" stroke="#4B890D" stroke-width="3.32298" stroke-linecap="round"/>
</svg>
