<svg width="182" height="192" viewBox="0 0 182 192" fill="none" xmlns="http://www.w3.org/2000/svg">
<path fill-rule="evenodd" clip-rule="evenodd" d="M152.053 95.4589C156.487 94.9477 160.898 93.5819 165.022 91.295C181.125 82.3649 186.755 62.7738 177.597 47.5373C168.438 32.301 147.959 27.1886 131.856 36.1187C127.732 38.4056 124.295 41.3916 121.618 44.8246C125.899 35.7645 125.752 24.9977 120.231 15.8132C111.073 0.576638 90.5937 -4.53566 74.4904 4.39443C60.1084 12.37 54.0804 28.8494 59.4806 43.1355C49.2999 31.5004 31.4275 28.275 17.0454 36.2506C0.942531 45.1805 -4.68753 64.7714 4.47097 80.008C9.99167 89.1925 19.6255 94.6984 29.935 95.6672C25.5009 96.178 21.09 97.544 16.966 99.831C0.863129 108.761 -4.76688 128.352 4.39147 143.588C13.55 158.825 34.0289 163.937 50.1318 155.007C54.2558 152.72 57.6928 149.734 60.3707 146.302C56.0893 155.361 56.2366 166.128 61.7576 175.313C70.9161 190.549 91.395 195.662 107.498 186.732C121.88 178.756 127.908 162.276 122.508 147.99C132.688 159.625 150.561 162.851 164.943 154.876C181.046 145.946 186.676 126.355 177.518 111.118C171.997 101.933 162.363 96.4275 152.053 95.4589ZM64.093 140.261C66.7709 136.829 70.2079 133.842 74.3319 131.555C88.714 123.58 106.586 126.805 116.767 138.44C111.367 124.154 117.395 107.675 131.777 99.6992C135.901 97.4123 140.312 96.0465 144.746 95.5352C134.436 94.5667 124.802 89.0611 119.281 79.8761C113.761 70.6918 113.614 59.925 117.895 50.8649C115.217 54.2979 111.78 57.2839 107.656 59.5708C93.2742 67.5464 75.4019 64.321 65.2213 52.6859C70.6215 66.972 64.5933 83.4514 50.2113 91.427C46.0873 93.714 41.6764 95.08 37.2422 95.5908C47.5518 96.5596 57.1865 102.065 62.707 111.249C68.228 120.434 68.3744 131.201 64.093 140.261Z" fill="#FFE6EE"/>
</svg>
