<svg width="350" height="197" viewBox="0 0 350 197" fill="none" xmlns="http://www.w3.org/2000/svg">
<g clip-path="url(#clip0_3362_1750)">
<rect width="350" height="197" fill="white"/>
<rect width="350" height="196.88" fill="#FFC0C1"/>
<circle cx="94" cy="48" r="27" fill="#FFD2D2"/>
<circle cx="148" cy="48" r="27" fill="#FFD2D2"/>
<circle cx="202" cy="48" r="27" fill="#FFD2D2"/>
<circle cx="256" cy="48" r="27" fill="#FFD2D2"/>
<circle cx="94" cy="102" r="27" fill="#FFD2D2"/>
<circle cx="148" cy="102" r="27" fill="#FFD2D2"/>
<circle cx="202" cy="102" r="27" fill="#FFD2D2"/>
<circle cx="256" cy="102" r="27" fill="#FFD2D2"/>
<circle cx="94" cy="156" r="27" fill="#FFD2D2"/>
<circle cx="148" cy="156" r="27" fill="#FFD2D2"/>
<circle cx="202" cy="156" r="27" fill="#FFD2D2"/>
<circle cx="256" cy="156" r="27" fill="#FFD2D2"/>
<path d="M151.616 185.087C149.054 184.033 146.56 169.991 147.066 163L171.669 166.951C172.175 172.625 172.209 184.195 170.995 185.087C169.479 186.201 154.818 186.404 151.616 185.087Z" fill="#E7EAEE"/>
<path d="M149.689 169.176C142.042 164.138 152.379 132.707 159.848 128.749C167.317 124.79 179.465 125.39 184.8 128.749C190.135 132.108 203.318 164.018 195.671 169.176C188.025 174.334 157.336 174.214 149.689 169.176Z" fill="white"/>
<path d="M193.384 185.087C195.946 184.033 198.44 169.991 197.934 163L173.331 166.951C172.825 172.625 172.791 184.195 174.005 185.087C175.521 186.201 190.182 186.404 193.384 185.087Z" fill="white"/>
<path d="M153 158.97C153 168.67 161.059 171 171 171C180.941 171 189 168.67 189 158.97C189 146.218 180.941 139 171 139C161.059 139 153 146.218 153 158.97Z" fill="#E7EAEE"/>
<path d="M170.372 165C170.29 165 170.208 164.985 170.132 164.954C170.056 164.923 169.987 164.877 169.929 164.82L167.15 162.025C167.048 161.906 166.994 161.753 167 161.597C167.007 161.441 167.072 161.293 167.183 161.182C167.294 161.071 167.443 161.007 167.6 161C167.757 160.994 167.911 161.048 168.031 161.149L170.815 163.913C170.874 163.971 170.92 164.04 170.952 164.115C170.984 164.191 171 164.272 171 164.354C171 164.436 170.984 164.517 170.952 164.593C170.92 164.669 170.874 164.737 170.815 164.795C170.759 164.857 170.691 164.907 170.615 164.942C170.538 164.978 170.456 164.997 170.372 165Z" fill="#FFC0C1"/>
<path d="M167.623 165C167.542 165 167.461 164.985 167.385 164.954C167.31 164.923 167.241 164.878 167.183 164.82C167.125 164.763 167.079 164.694 167.048 164.619C167.016 164.543 167 164.462 167 164.38C167 164.299 167.016 164.218 167.048 164.142C167.079 164.067 167.125 163.998 167.183 163.94L169.94 161.183C169.998 161.125 170.066 161.079 170.142 161.048C170.217 161.016 170.298 161 170.38 161C170.462 161 170.543 161.016 170.618 161.048C170.694 161.079 170.762 161.125 170.82 161.183C170.935 161.299 171 161.456 171 161.62C171 161.784 170.935 161.941 170.82 162.057L168.057 164.82C167.941 164.935 167.786 164.999 167.623 165Z" fill="#FFC0C1"/>
<path d="M203.776 58.247C200.897 67.4494 188.571 85.4661 185.964 93H161.315C158.707 85.4661 147.331 67.4494 143.682 58.247C139.157 46.8339 143.864 32 156.576 32C167.072 32 171.989 49.093 173.369 58.247C174.75 49.093 180.026 32 190.163 32C202.875 32 207.439 46.5369 203.776 58.247Z" fill="white"/>
<path d="M130 110.363C130 128.865 150.279 135 174.925 135C199.572 135 220 128.865 220 110.363C220 78.8161 199.572 68 174.925 68C150.279 68 130 77.3139 130 110.363Z" fill="white"/>
<path d="M192 105V111" stroke="#123041" stroke-width="4" stroke-linecap="round"/>
<path d="M149 105V111" stroke="#123041" stroke-width="4" stroke-linecap="round"/>
<path d="M202 119H197" stroke="#FFC0C1" stroke-width="8" stroke-linecap="round"/>
<path d="M143 119H138" stroke="#FFC0C1" stroke-width="8" stroke-linecap="round"/>
<path d="M164 119.486C164 122.49 164 124 170 124C176 124 176 122.758 176 119.486C176 116.214 173.314 111 170 111C166.686 111 164 116.482 164 119.486Z" fill="#FFC0C1"/>
<path d="M170.054 110.504C167.97 110.504 166.141 112.924 165.101 115.503C166.507 116.159 168.214 116.546 170.055 116.546C171.914 116.546 173.636 116.152 175.051 115.483C174.018 112.87 172.167 110.504 170.054 110.504Z" fill="#E7EAEE"/>
<path d="M171.636 106C170.851 106 170.491 106.273 170 106.545C169.509 106.273 169.149 106 168.364 106C167.383 106 166.813 106.857 167.056 107.364C167.383 108.045 168.582 108.727 170 109C171.418 108.727 172.617 108.045 172.944 107.364C173.187 106.857 172.617 106 171.636 106Z" fill="#FFC0C1"/>
<path d="M144.142 126.331C144.284 126.552 144.471 126.64 144.547 126.657L151.803 123.37L157.818 118.148C157.835 118.072 157.832 117.866 157.691 117.645C157.513 117.368 157.219 115.996 156.578 116.212C155.936 116.429 155.649 117.198 154.819 117.73C153.99 118.262 153.674 118.074 152.43 118.872C151.186 119.669 150.948 120.212 150.119 120.744C149.289 121.275 148.697 121.265 147.73 121.885C146.762 122.506 146.11 123.314 145.28 123.846C144.451 124.378 143.77 124.229 143.306 124.722C142.841 125.214 143.965 126.054 144.142 126.331Z" fill="#E48174"/>
<path d="M155.31 143.748C155.168 143.527 155.166 143.32 155.182 143.244L161.197 138.022L168.453 134.736C168.529 134.752 168.716 134.84 168.858 135.062C169.035 135.338 170.159 136.178 169.695 136.671C169.23 137.164 168.411 137.104 167.582 137.635C166.752 138.167 166.791 138.532 165.547 139.33C164.303 140.128 163.711 140.117 162.881 140.649C162.052 141.181 161.814 141.723 160.847 142.344C159.879 142.964 158.872 143.219 158.043 143.751C157.213 144.283 157.064 144.964 156.423 145.18C155.781 145.396 155.487 144.024 155.31 143.748Z" fill="#E48174"/>
<path d="M150.999 122.13C148.405 123.793 144.59 126.434 144.54 126.661C144.513 126.786 144.887 127.913 145.785 129.764C146.507 131.252 148.12 132.854 149.581 135.133C151.043 137.413 151.832 139.542 152.882 140.819C154.19 142.408 155.057 143.219 155.183 143.246C155.41 143.296 159.402 140.931 161.996 139.268C164.59 137.605 168.405 134.964 168.455 134.737C168.482 134.61 168.127 133.503 167.216 131.629C166.502 130.16 164.887 128.578 163.407 126.269C161.926 123.96 161.156 121.837 160.119 120.574C158.797 118.965 157.939 118.18 157.812 118.152C157.585 118.102 153.593 120.467 150.999 122.13Z" fill="#FFC5AB"/>
<g filter="url(#filter0_d_3362_1750)">
<path d="M159.111 137.847C156.215 138.436 153.409 136.996 154.175 134.997C154.941 132.997 156.361 133.881 158.228 133.502C160.094 133.122 161.122 132.076 162.221 133.36C163.32 134.645 162.008 137.258 159.111 137.847Z" fill="#FFC53D"/>
</g>
<g filter="url(#filter1_d_3362_1750)">
<path d="M161.179 132.317C160.301 134.589 158.056 135.897 157.009 134.477C155.962 133.058 157.205 132.465 157.771 131.001C158.336 129.537 158.066 128.359 159.446 128.167C160.825 127.974 162.056 130.045 161.179 132.317Z" fill="#FFC53D"/>
</g>
<g filter="url(#filter2_d_3362_1750)">
<path d="M153.623 131.692C151.277 132.372 148.87 131.376 149.366 129.678C149.862 127.98 151.091 128.612 152.602 128.174C154.113 127.735 154.889 126.805 155.88 127.788C156.872 128.772 155.968 131.011 153.623 131.692Z" fill="#FFC53D"/>
</g>
<path d="M143.3 137.946C144.065 133.595 149.12 131.569 154.534 132.52C159.948 133.471 163.672 137.039 162.907 141.39C162.143 145.741 157.18 149.227 151.766 148.276C146.352 147.324 142.536 142.296 143.3 137.946Z" fill="#DBDEE3"/>
<path d="M168.154 122.875L167.086 131.568" stroke="#C4E0AE" stroke-width="2.14199" stroke-linecap="round"/>
<path d="M166.832 133.64L166.68 134.881" stroke="#C4E0AE" stroke-width="2.14199" stroke-linecap="round"/>
<circle cx="175.039" cy="136.961" r="2.29373" transform="rotate(7.00501 175.039 136.961)" fill="#CCF2C2"/>
<path d="M173.176 136.732C173.303 135.703 174.239 134.972 175.268 135.098" stroke="white" stroke-width="0.571197" stroke-linecap="round" stroke-dasharray="0.71 0.71 1.43 1.43"/>
<path d="M167.321 119.414C168.028 119.361 170.721 119.412 173.581 119.763C176.591 120.133 178.69 120.671 179.739 120.94" stroke="#6DA442" stroke-width="2.14199" stroke-linecap="round"/>
<path d="M164.828 139.698C165.501 139.921 168.126 140.524 170.986 140.875C173.997 141.245 176.163 141.231 177.246 141.224" stroke="#6DA442" stroke-width="2.14199" stroke-linecap="round"/>
<path d="M166.225 121.488C166.35 120.464 167.188 119.692 168.218 119.727C169.387 119.767 171.145 119.88 173.529 120.173C175.913 120.466 177.646 120.782 178.79 121.026C179.798 121.241 180.424 122.194 180.298 123.217L178.345 139.114C178.217 140.15 177.362 140.931 176.319 140.894C175.125 140.853 173.352 140.74 171.037 140.456C168.722 140.171 166.974 139.851 165.805 139.603C164.785 139.385 164.144 138.42 164.271 137.385L166.225 121.488Z" fill="#AFD157"/>
<mask id="mask0_3362_1750" style="mask-type:alpha" maskUnits="userSpaceOnUse" x="164" y="119" width="17" height="22">
<path d="M166.226 121.489C166.352 120.465 167.19 119.693 168.22 119.728C169.389 119.768 171.147 119.881 173.531 120.174C175.915 120.467 177.648 120.783 178.792 121.027C179.8 121.242 180.426 122.195 180.3 123.218L178.347 139.115C178.219 140.151 177.364 140.932 176.321 140.895C175.127 140.854 173.354 140.741 171.039 140.457C168.724 140.172 166.976 139.852 165.807 139.604C164.787 139.386 164.146 138.421 164.273 137.386L166.226 121.489Z" fill="#AFD157"/>
</mask>
<g mask="url(#mask0_3362_1750)">
<path d="M173.254 136.109C176.587 134.628 178.375 123.502 178.389 118.252L182.579 118.347L182.167 143.927L162.611 142.364C161.683 139.659 160.78 135.038 163.142 136.337C166.094 137.96 171.123 137.056 173.254 136.109Z" fill="#A0C248"/>
</g>
<circle cx="173.116" cy="132.096" r="1.45965" transform="rotate(7.00501 173.116 132.096)" fill="#CCF2C2"/>
<path d="M172.081 131.971C172.151 131.4 172.671 130.994 173.243 131.064" stroke="white" stroke-width="0.428398" stroke-linecap="round" stroke-dasharray="0.71 1.07 1.43 1.43"/>
<circle cx="177.147" cy="130.073" r="1.0426" transform="rotate(7.00501 177.147 130.073)" fill="#CCF2C2"/>
<path d="M176.526 129.998C176.568 129.656 176.88 129.412 177.222 129.454" stroke="white" stroke-width="0.285599" stroke-linecap="round" stroke-dasharray="0.71 1.43 1.43 1.43"/>
<path d="M173.06 130.834L173.474 130.885L173.423 131.299L173.191 131.48L172.803 131.223L173.06 130.834Z" fill="#CCF2C2"/>
<path d="M177.041 129.222L177.455 129.273L177.404 129.687L176.965 129.843L177.016 129.429L177.041 129.222Z" fill="#CCF2C2"/>
<path d="M175.088 134.865L175.502 134.916L175.425 135.537L174.986 135.693L174.648 135.021L175.088 134.865Z" fill="#CCF2C2"/>
<path d="M189.753 120.317L190.505 121.684L192.108 122.493L193.041 124.027L194.644 124.837L195.215 126.036L196.999 127.013L194.795 128.671L188.274 122.644L189.753 120.317Z" fill="#DAA427"/>
<path d="M177.243 148.386L176.491 147.02L174.888 146.21L173.955 144.676L172.352 143.866L171.781 142.667L169.997 141.69L172.201 140.032L178.722 146.059L177.243 148.386Z" fill="#DAA427"/>
<rect x="188.243" y="121.944" width="9.86613" height="24.6653" rx="1.42799" transform="rotate(42.7435 188.243 121.944)" fill="#FFC53D"/>
<path d="M188.535 128.44C188.912 128.323 189.312 128.533 189.429 128.909L190.28 131.649C190.396 132.025 190.186 132.425 189.81 132.542L183.991 134.349C184.114 134.31 184.229 134.271 184.338 134.238C184.495 133.939 184.767 133.205 184.598 132.658C184.385 131.974 183.542 131.674 183.382 131.161C183.256 130.753 183.344 130.242 183.405 130.033L188.535 128.44Z" fill="#935F3A"/>
<path d="M180.095 135.392C179.676 135.297 179.275 134.962 179.127 134.806L177.863 140.392C177.824 140.567 177.959 140.781 178.133 140.821L181.625 141.61C181.799 141.65 182.013 141.515 182.053 141.34L183.237 136.103C183.057 135.817 182.557 135.215 181.999 135.089C181.3 134.931 180.619 135.511 180.095 135.392Z" fill="#935F3A"/>
<path d="M178.564 146.689C182.615 151.084 193.747 146.089 197.96 142.321C200.358 140.175 200.165 136.839 197.985 135.639C193.861 133.37 187.776 134.297 182.674 133.789C176.789 133.204 170.78 138.246 178.564 146.689Z" fill="#DBDEE3"/>
<rect x="45" y="165" width="261" height="32" fill="#173A52"/>
<rect x="32" y="160" width="287" height="5" rx="2.5" fill="#123041"/>
</g>
<defs>
<filter id="filter0_d_3362_1750" x="154.047" y="132.739" width="9.27444" height="5.9546" filterUnits="userSpaceOnUse" color-interpolation-filters="sRGB">
<feFlood flood-opacity="0" result="BackgroundImageFix"/>
<feColorMatrix in="SourceAlpha" type="matrix" values="0 0 0 0 0 0 0 0 0 0 0 0 0 0 0 0 0 0 127 0" result="hardAlpha"/>
<feOffset dx="0.713996" dy="0.713996"/>
<feComposite in2="hardAlpha" operator="out"/>
<feColorMatrix type="matrix" values="0 0 0 0 0.822493 0 0 0 0 0.503639 0 0 0 0 0.129331 0 0 0 1 0"/>
<feBlend mode="normal" in2="BackgroundImageFix" result="effect1_dropShadow_3362_1750"/>
<feBlend mode="normal" in="SourceGraphic" in2="effect1_dropShadow_3362_1750" result="shape"/>
</filter>
<filter id="filter1_d_3362_1750" x="156.603" y="128.154" width="5.58463" height="7.62708" filterUnits="userSpaceOnUse" color-interpolation-filters="sRGB">
<feFlood flood-opacity="0" result="BackgroundImageFix"/>
<feColorMatrix in="SourceAlpha" type="matrix" values="0 0 0 0 0 0 0 0 0 0 0 0 0 0 0 0 0 0 127 0" result="hardAlpha"/>
<feOffset dx="0.713997" dy="0.713997"/>
<feComposite in2="hardAlpha" operator="out"/>
<feColorMatrix type="matrix" values="0 0 0 0 0.822493 0 0 0 0 0.503639 0 0 0 0 0.129331 0 0 0 1 0"/>
<feBlend mode="normal" in2="BackgroundImageFix" result="effect1_dropShadow_3362_1750"/>
<feBlend mode="normal" in="SourceGraphic" in2="effect1_dropShadow_3362_1750" result="shape"/>
</filter>
<filter id="filter2_d_3362_1750" x="149.301" y="127.353" width="7.69134" height="5.26832" filterUnits="userSpaceOnUse" color-interpolation-filters="sRGB">
<feFlood flood-opacity="0" result="BackgroundImageFix"/>
<feColorMatrix in="SourceAlpha" type="matrix" values="0 0 0 0 0 0 0 0 0 0 0 0 0 0 0 0 0 0 127 0" result="hardAlpha"/>
<feOffset dx="0.713996" dy="0.713996"/>
<feComposite in2="hardAlpha" operator="out"/>
<feColorMatrix type="matrix" values="0 0 0 0 0.822493 0 0 0 0 0.503639 0 0 0 0 0.129331 0 0 0 1 0"/>
<feBlend mode="normal" in2="BackgroundImageFix" result="effect1_dropShadow_3362_1750"/>
<feBlend mode="normal" in="SourceGraphic" in2="effect1_dropShadow_3362_1750" result="shape"/>
</filter>
<clipPath id="clip0_3362_1750">
<rect width="350" height="197" fill="white"/>
</clipPath>
</defs>
</svg>
