<svg width="382" height="301" viewBox="0 0 382 301" fill="none" xmlns="http://www.w3.org/2000/svg">
<g clip-path="url(#clip0_3445_718)">
<rect width="382" height="301" rx="11" transform="matrix(-1 0 0 1 382 0)" fill="#AFD157"/>
<g clip-path="url(#clip1_3445_718)">
<path d="M237.971 76.9327C276.712 76.9327 308.118 106.376 308.118 142.696C308.118 179.017 276.712 208.459 237.971 208.459C276.712 208.459 308.118 237.902 308.118 274.223C308.118 310.543 276.712 339.986 237.971 339.986C199.229 339.986 167.823 310.543 167.823 274.223C167.823 310.543 136.418 339.986 97.6759 339.986C58.9339 339.986 27.5284 310.543 27.5284 274.223C27.5284 237.902 58.9339 208.459 97.6759 208.459C58.9339 208.459 27.5284 179.017 27.5284 142.696C27.5284 106.376 58.9339 76.9327 97.6759 76.9327C136.418 76.9327 167.823 106.376 167.823 142.696C167.823 106.376 199.229 76.9327 237.971 76.9327Z" fill="#C7E8AB"/>
</g>
<path d="M220.07 105.124C225.6 101.58 223.905 93.0942 217.465 92.0815L206.489 90.3555C204.447 90.0343 202.654 88.8314 201.583 87.0622L196.002 77.846C192.563 72.1674 183.891 74.0009 182.908 80.6143L181.313 91.3477C181.007 93.4081 179.821 95.2406 178.067 96.3646L168.643 102.403C163.113 105.947 164.809 114.432 171.249 115.445L182.224 117.171C184.267 117.492 186.059 118.695 187.131 120.465L192.712 129.681C196.151 135.359 204.823 133.526 205.806 126.912L207.401 116.179C207.707 114.119 208.893 112.286 210.647 111.162L220.07 105.124Z" fill="white"/>
<path d="M161.473 60.9868C165.527 60.5995 166.891 55.3619 163.568 52.9413L157.53 48.5423C156.476 47.7749 155.803 46.5864 155.686 45.2885L155.031 38.0396C154.655 33.8759 149.318 32.4049 146.969 35.8174L142.878 41.7585C142.146 42.8222 140.985 43.505 139.7 43.6278L132.332 44.3317C128.278 44.719 126.913 49.9566 130.236 52.3772L136.275 56.7761C137.328 57.5436 138.002 58.7321 138.119 60.03L138.773 67.2788C139.149 71.4425 144.486 72.9136 146.836 69.5011L150.926 63.56C151.658 62.4963 152.82 61.8135 154.105 61.6907L161.473 60.9868Z" fill="white"/>
</g>
<defs>
<clipPath id="clip0_3445_718">
<rect width="382" height="301" rx="11" transform="matrix(-1 0 0 1 382 0)" fill="white"/>
</clipPath>
<clipPath id="clip1_3445_718">
<rect width="282" height="264.375" rx="26.4375" transform="matrix(-1 0 0 1 309 75.6148)" fill="white"/>
</clipPath>
</defs>
</svg>
