<svg width="254" height="230" viewBox="0 0 254 230" fill="none" xmlns="http://www.w3.org/2000/svg">
<g clip-path="url(#clip0_3445_767)">
<rect width="254" height="230" rx="40.1484" transform="matrix(-1 0 0 1 254 0)" fill="#FFEEC9"/>
<path fill-rule="evenodd" clip-rule="evenodd" d="M49.0565 -42.2857C49.0565 -43.3903 49.9519 -44.2857 51.0565 -44.2857H68.2812C69.3857 -44.2857 70.2812 -43.3903 70.2812 -42.2857V-21.391C70.2812 -19.6036 72.4471 -18.7138 73.7036 -19.9851L88.2626 -34.7149C89.0455 -35.507 90.3245 -35.507 91.1074 -34.7149L103.303 -22.3758C104.074 -21.5967 104.074 -20.343 103.303 -19.5639L88.6556 -4.74417C87.407 -3.48091 88.3019 -1.33823 90.0781 -1.33823H110.73C111.835 -1.33823 112.73 -0.442795 112.73 0.661774V18.1355C112.73 19.2401 111.835 20.1355 110.73 20.1355H90.0782C88.302 20.1355 87.4071 22.2782 88.6558 23.5415L103.303 38.3609C104.074 39.14 104.074 40.3936 103.304 41.1728L91.1074 53.5122C90.3246 54.3043 89.0454 54.3044 88.2625 53.5123L73.7036 38.7823C72.4471 37.511 70.2812 38.4007 70.2812 40.1882V61.083C70.2812 62.1876 69.3857 63.083 68.2812 63.083H51.0565C49.9519 63.083 49.0565 62.1876 49.0565 61.083V40.1881C49.0565 38.4007 46.8906 37.5109 45.634 38.7822L31.0748 53.5123C30.2919 54.3044 29.0128 54.3044 28.2299 53.5123L16.034 41.1733C15.264 40.3942 15.264 39.1405 16.0341 38.3614L30.6821 23.5415C31.9307 22.2782 31.0359 20.1355 29.2597 20.1355H8.60718C7.50261 20.1355 6.60718 19.2401 6.60718 18.1355V0.661774C6.60718 -0.442795 7.50261 -1.33823 8.60718 -1.33823H29.2596C31.0358 -1.33823 31.9307 -3.48092 30.6821 -4.74417L16.0341 -19.5639C15.264 -20.343 15.264 -21.5967 16.034 -22.3758L28.2299 -34.7149C29.0128 -35.507 30.2919 -35.507 31.0748 -34.715L45.6341 -19.985C46.8906 -18.7138 49.0565 -19.6035 49.0565 -21.391V-42.2857Z" fill="#FFC53D" fill-opacity="0.61"/>
<path fill-rule="evenodd" clip-rule="evenodd" d="M179.449 56C179.449 54.8954 180.345 54 181.449 54H198.674C199.779 54 200.674 54.8954 200.674 56V76.8947C200.674 78.6821 202.84 79.5719 204.096 78.3006L218.655 63.5708C219.438 62.7787 220.717 62.7787 221.5 63.5708L233.696 75.9099C234.466 76.689 234.466 77.9427 233.696 78.7218L219.048 93.5415C217.8 94.8048 218.695 96.9475 220.471 96.9475H241.123C242.228 96.9475 243.123 97.8429 243.123 98.9475V116.421C243.123 117.526 242.228 118.421 241.123 118.421H220.471C218.695 118.421 217.8 120.564 219.049 121.827L233.696 136.647C234.466 137.426 234.466 138.679 233.696 139.458L221.5 151.798C220.717 152.59 219.438 152.59 218.655 151.798L204.096 137.068C202.84 135.797 200.674 136.686 200.674 138.474V159.369C200.674 160.473 199.779 161.369 198.674 161.369H181.449C180.345 161.369 179.449 160.473 179.449 159.369V138.474C179.449 136.686 177.283 135.797 176.027 137.068L161.468 151.798C160.685 152.59 159.406 152.59 158.623 151.798L146.427 139.459C145.657 138.68 145.657 137.426 146.427 136.647L161.075 121.827C162.324 120.564 161.429 118.421 159.652 118.421H139C137.895 118.421 137 117.526 137 116.421V98.9475C137 97.8429 137.895 96.9475 139 96.9475H159.652C161.429 96.9475 162.324 94.8048 161.075 93.5415L146.427 78.7218C145.657 77.9427 145.657 76.689 146.427 75.9099L158.623 63.5708C159.406 62.7787 160.685 62.7787 161.468 63.5707L176.027 78.3007C177.283 79.5719 179.449 78.6822 179.449 76.8947V56Z" fill="#FFC53D" fill-opacity="0.61"/>
<path fill-rule="evenodd" clip-rule="evenodd" d="M-17.5517 114.857C-17.5517 113.753 -16.6563 112.857 -15.5517 112.857H10.5573C11.6619 112.857 12.5573 113.753 12.5573 114.857V147.165C12.5573 148.949 14.7174 149.841 15.9756 148.575L38.665 125.752C39.4469 124.966 40.7197 124.966 41.5016 125.752L59.9717 144.331C60.7473 145.111 60.7473 146.371 59.9718 147.151L37.2377 170.019C35.9834 171.28 36.877 173.429 38.656 173.429H70.7753C71.8798 173.429 72.7753 174.324 72.7753 175.429V201.714C72.7753 202.819 71.8798 203.714 70.7753 203.714H38.6561C36.8771 203.714 35.9835 205.863 37.2378 207.124L59.9717 229.991C60.7473 230.772 60.7473 232.031 59.9718 232.812L41.5017 251.391C40.7197 252.177 39.4469 252.177 38.6649 251.391L15.9756 228.568C14.7174 227.302 12.5573 228.193 12.5573 229.978V262.286C12.5573 263.39 11.6619 264.286 10.5573 264.286H-15.5517C-16.6563 264.286 -17.5517 263.39 -17.5517 262.286V229.978C-17.5517 228.193 -19.7118 227.302 -20.9701 228.568L-43.6598 251.391C-44.4417 252.177 -45.7145 252.177 -46.4964 251.391L-64.9663 232.812C-65.7419 232.032 -65.7419 230.772 -64.9663 229.992L-42.2319 207.124C-40.9777 205.863 -41.8713 203.714 -43.6503 203.714H-75.7697C-76.8743 203.714 -77.7697 202.819 -77.7697 201.714V175.429C-77.7697 174.324 -76.8743 173.429 -75.7697 173.429H-43.6503C-41.8713 173.429 -40.9777 171.28 -42.232 170.018L-64.9663 147.151C-65.7419 146.371 -65.7419 145.111 -64.9663 144.331L-46.4964 125.752C-45.7145 124.966 -44.4417 124.966 -43.6597 125.752L-20.9701 148.575C-19.7118 149.841 -17.5517 148.95 -17.5517 147.165V114.857Z" fill="#FFC53D" fill-opacity="0.61"/>
</g>
<defs>
<clipPath id="clip0_3445_767">
<rect width="254" height="230" rx="40.1484" transform="matrix(-1 0 0 1 254 0)" fill="white"/>
</clipPath>
</defs>
</svg>
