<svg width="133" height="91" viewBox="0 0 133 91" fill="none" xmlns="http://www.w3.org/2000/svg">
<g clip-path="url(#clip0_4737_1072)">
<path d="M20.3138 14.3934C33.0133 21.909 29.0901 25.6559 25.809 31.2002C22.5279 36.7445 20.8736 41.8342 8.43178 34.4711C2.11574 30.7332 -0.344545 23.2086 2.93658 17.6643C6.21771 12.12 13.9978 10.6556 20.3138 14.3934Z" fill="white"/>
<path d="M38.9292 15.6787C38.9292 22.6788 36.4876 22.7202 33.4758 22.7202C30.4639 22.7202 28.0223 22.6788 28.0223 15.6787C28.0223 8.67859 31.3648 3.00391 33.4758 3.00391C35.5868 3.00391 38.9292 8.67859 38.9292 15.6787Z" fill="#6A5B3D"/>
<path d="M104.79 15.6787C104.79 22.6788 102.349 22.7202 99.337 22.7202C96.3251 22.7202 93.8835 22.6788 93.8835 15.6787C93.8835 8.67859 97.2259 3.00391 99.337 3.00391C101.448 3.00391 104.79 8.67859 104.79 15.6787Z" fill="#6A5B3D"/>
<path d="M113.696 14.3934C100.996 21.909 104.92 25.6559 108.201 31.2002C111.482 36.7445 113.136 41.8342 125.578 34.4711C131.894 30.7332 134.354 23.2086 131.073 17.6643C127.792 12.12 120.012 10.6556 113.696 14.3934Z" fill="#123041"/>
<path d="M116.831 20.8062C110.501 24.5521 112.14 25.8847 113.385 27.9883C114.63 30.0919 115.138 32.0939 121.339 28.424C124.487 26.561 126.03 23.3455 124.785 21.2419C123.54 19.1383 119.979 18.9432 116.831 20.8062Z" fill="#FFC0C1"/>
<path d="M16.8033 20.8062C23.1329 24.5521 21.4941 25.8847 20.2491 27.9883C19.0042 30.0919 18.4962 32.0939 12.2951 28.424C9.14713 26.561 7.60438 23.3455 8.8493 21.2419C10.0942 19.1383 13.6554 18.9432 16.8033 20.8062Z" fill="#FFC0C1"/>
<path d="M119.474 57.7528C119.474 79.6466 95.4656 86.9068 66.2861 86.9068C37.1065 86.9068 12.9218 79.6466 12.9218 57.7528C12.9218 20.4214 37.1065 7.62207 66.2861 7.62207C95.4656 7.62207 119.474 18.6437 119.474 57.7528Z" fill="white"/>
<path fill-rule="evenodd" clip-rule="evenodd" d="M69.9943 7.67773C95.2859 8.53462 115.937 18.5122 119.063 49.29C104.983 50.435 102.501 39.7249 97.9601 35.5332C93.3386 31.2672 83.7401 33.5776 76.2745 27.5342C71.6967 23.8283 70.2392 14.6638 69.9943 7.67773Z" fill="#123041"/>
<path d="M38.736 53.7656V60.4776" stroke="#123041" stroke-width="6.29244" stroke-linecap="round"/>
<path d="M94.9483 53.7656V60.4776" stroke="#123041" stroke-width="6.29244" stroke-linecap="round"/>
<path d="M48.9969 69.3709C48.9969 60.7523 55.9836 53.7656 64.6022 53.7656H72.4048C81.0233 53.7656 88.0101 60.7523 88.0101 69.3709C88.0101 75.1166 83.3523 79.7744 77.6066 79.7744H59.4004C53.6548 79.7744 48.9969 75.1166 48.9969 69.3709Z" fill="#FFC0C1"/>
<path d="M60.3234 65.5107V70.1252" stroke="black" stroke-width="4.19496" stroke-linecap="round"/>
<path d="M77.1035 65.5107L77.1035 70.1252" stroke="black" stroke-width="4.19496" stroke-linecap="round"/>
<path d="M28.0223 70.123H34.3148" stroke="#FFC0C1" stroke-width="8.38991" stroke-linecap="round"/>
<path d="M103.112 70.123H109.404" stroke="#FFC0C1" stroke-width="8.38991" stroke-linecap="round"/>
</g>
<defs>
<clipPath id="clip0_4737_1072">
<rect width="132.195" height="90.1327" fill="white"/>
</clipPath>
</defs>
</svg>
