<svg width="600" height="241" viewBox="0 0 600 241" fill="none" xmlns="http://www.w3.org/2000/svg">
<path d="M336.021 24.6324C336.375 23.6767 337.727 23.6767 338.081 24.6324L340.468 31.0845C340.579 31.385 340.816 31.6219 341.117 31.7331L347.569 34.1205C348.524 34.4742 348.524 35.826 347.569 36.1797L341.117 38.5671C340.816 38.6783 340.579 38.9152 340.468 39.2157L338.081 45.6678C337.727 46.6235 336.375 46.6235 336.021 45.6678L333.634 39.2157C333.523 38.9152 333.286 38.6783 332.985 38.5671L326.533 36.1797C325.578 35.826 325.578 34.4742 326.533 34.1205L332.985 31.7331C333.286 31.6219 333.523 31.385 333.634 31.0845L336.021 24.6324Z" fill="white"/>
<path d="M298.972 2.78232C299.325 1.82658 300.677 1.82658 301.031 2.78232L303.418 9.23439C303.529 9.53487 303.766 9.77178 304.067 9.88297L310.519 12.2704C311.475 12.6241 311.475 13.9759 310.519 14.3296L304.067 16.717C303.766 16.8282 303.529 17.0651 303.418 17.3656L301.031 23.8177C300.677 24.7734 299.325 24.7734 298.972 23.8177L296.584 17.3656C296.473 17.0651 296.236 16.8282 295.936 16.717L289.483 14.3296C288.528 13.9759 288.528 12.6241 289.483 12.2704L295.936 9.88297C296.236 9.77178 296.473 9.53487 296.584 9.23439L298.972 2.78232Z" fill="white"/>
<rect x="13.8613" y="227.128" width="556.436" height="13.3663" fill="#005271"/>
<g clip-path="url(#clip0_5002_1018)">
<mask id="mask0_5002_1018" style="mask-type:alpha" maskUnits="userSpaceOnUse" x="133" y="52" width="161" height="188">
<rect width="141.089" height="171.596" transform="matrix(0.9929 -0.118948 -0.118948 -0.9929 153.777 239.425)" fill="#D9D9D9"/>
</mask>
<g mask="url(#mask0_5002_1018)">
<path d="M261.576 257.583C271.276 249.313 251.792 207.302 240.839 203.029C229.885 198.755 213.243 201.595 206.449 207.148C199.656 212.701 186.804 259.263 198.202 265.175C209.601 271.088 251.877 265.854 261.576 257.583Z" fill="white"/>
<path d="M255.143 243.266C256.714 256.378 245.867 260.872 232.023 262.53C218.178 264.189 206.577 262.384 205.006 249.272C202.941 232.035 212.996 220.934 226.841 219.275C240.686 217.617 253.078 226.029 255.143 243.266Z" fill="#F4F4F4"/>
<path d="M170.786 111.793C176.245 124.069 196.072 147.007 200.884 157.015L234.554 152.982C236.865 142.12 249.415 115.303 252.873 101.96C257.161 85.4106 248.27 65.6342 230.905 67.7145C216.568 69.4321 212.687 93.9124 212.321 106.818C208.917 94.3641 198.872 71.5519 185.026 73.2106C167.662 75.2909 163.839 96.173 170.786 111.793Z" fill="white"/>
<path d="M281.517 172.091C284.59 197.745 257.478 209.621 223.288 213.717C189.097 217.813 159.74 212.701 156.667 187.048C151.427 143.305 177.968 124.913 212.158 120.817C246.349 116.721 276.027 126.266 281.517 172.091Z" fill="white"/>
<path d="M195.077 174.718L196.019 182.582" stroke="#123041" stroke-width="7.42575" stroke-linecap="round"/>
<path d="M254.553 167.593L255.495 175.458" stroke="#123041" stroke-width="7.42575" stroke-linecap="round"/>
<path d="M182.628 195.653L190.001 194.77" stroke="#FFD2D2" stroke-width="9.90099" stroke-linecap="round"/>
<path d="M264.224 185.879L271.597 184.996" stroke="#FFD2D2" stroke-width="9.90099" stroke-linecap="round"/>
<path d="M235.368 190.563C235.899 194.992 236.166 197.219 228.055 198.19C219.945 199.162 219.726 197.331 219.148 192.506C218.57 187.681 221.28 179.557 225.759 179.021C230.238 178.484 234.838 186.133 235.368 190.563Z" fill="#FFD2D2"/>
<path fill-rule="evenodd" clip-rule="evenodd" d="M219.672 186.735C220.666 182.95 222.835 179.371 225.757 179.021C228.639 178.676 231.571 181.72 233.437 185.115C231.601 186.255 229.304 187.07 226.758 187.375C224.187 187.683 221.739 187.426 219.672 186.735Z" fill="#E7EAEE"/>
<path d="M222.922 172.379C223.886 172.264 224.377 172.613 225.028 172.943C225.583 172.468 225.977 172.013 226.942 171.898C228.148 171.753 229 172.933 228.79 173.716C228.509 174.769 227.155 175.951 225.462 176.562C223.671 176.369 222.077 175.54 221.555 174.583C221.167 173.872 221.716 172.524 222.922 172.379Z" fill="#FFD2D2"/>
<rect x="158.415" y="227.128" width="123.267" height="13.3663" fill="#123041"/>
</g>
<path d="M213.234 230.677C213.015 234.909 205.905 238.037 197.714 237.612C189.522 237.187 183.352 233.368 183.571 229.136C183.944 221.968 189.978 216.535 199.191 217.013C208.404 217.492 213.619 223.261 213.234 230.677Z" fill="white"/>
<path d="M270.657 230.677C270.437 234.909 263.328 238.037 255.137 237.612C246.945 237.187 240.774 233.368 240.994 229.136C241.366 221.968 247.401 216.535 256.614 217.013C265.827 217.492 271.042 223.261 270.657 230.677Z" fill="white"/>
</g>
<g clip-path="url(#clip1_5002_1018)">
<mask id="mask1_5002_1018" style="mask-type:alpha" maskUnits="userSpaceOnUse" x="-3" y="118" width="160" height="110">
<rect width="159.406" height="108.416" transform="matrix(1 0 0 -1 -2.47363 227.124)" fill="#D9D9D9"/>
</mask>
<g mask="url(#mask1_5002_1018)">
<path d="M22.0932 135.12C37.08 143.989 32.4502 148.411 28.5781 154.954C24.706 161.497 22.7538 167.503 8.07113 158.814C0.617532 154.403 -2.28586 145.523 1.58622 138.98C5.4583 132.437 14.6396 130.709 22.0932 135.12Z" fill="white"/>
<path d="M44.0598 136.637C44.0598 144.898 41.1784 144.947 37.6241 144.947C34.0698 144.947 31.1885 144.898 31.1885 136.637C31.1885 128.376 35.1329 121.68 37.6241 121.68C40.1153 121.68 44.0598 128.376 44.0598 136.637Z" fill="#6A5B3D"/>
<path d="M121.782 136.637C121.782 144.898 118.901 144.947 115.347 144.947C111.792 144.947 108.911 144.898 108.911 136.637C108.911 128.376 112.856 121.68 115.347 121.68C117.838 121.68 121.782 128.376 121.782 136.637Z" fill="#6A5B3D"/>
<path d="M132.295 135.12C117.308 143.989 121.938 148.411 125.81 154.954C129.682 161.497 131.634 167.503 146.317 158.814C153.77 154.403 156.674 145.523 152.801 138.98C148.929 132.437 139.748 130.709 132.295 135.12Z" fill="#123041"/>
<path d="M135.992 142.681C128.523 147.101 130.457 148.674 131.926 151.157C133.395 153.639 133.995 156.002 141.313 151.671C145.027 149.472 146.848 145.678 145.379 143.195C143.91 140.713 139.707 140.482 135.992 142.681Z" fill="#FFC0C1"/>
<path d="M17.953 142.681C25.4225 147.101 23.4885 148.674 22.0194 151.157C20.5503 153.639 19.9508 156.002 12.6328 151.671C8.91781 149.472 7.09721 145.678 8.56634 143.195C10.0355 140.713 14.238 140.482 17.953 142.681Z" fill="#FFC0C1"/>
<path d="M108.149 267.313C118.763 260.255 104.415 216.225 94.0478 210.679C83.6804 205.134 66.8183 205.974 59.4129 210.679C52.0075 215.385 33.7076 260.087 44.3219 267.313C54.9362 274.54 97.535 274.372 108.149 267.313Z" fill="white"/>
<path d="M104.457 251.343C104.457 264.549 93.1533 267.721 79.2095 267.721C65.2656 267.721 53.9619 264.549 53.9619 251.343C53.9619 233.983 65.2656 224.156 79.2095 224.156C93.1533 224.156 104.457 233.983 104.457 251.343Z" fill="#FFC0C1"/>
<path d="M139.112 186.286C139.112 212.124 110.78 220.691 76.3447 220.691C41.9098 220.691 13.3691 212.124 13.3691 186.286C13.3691 142.232 41.9098 127.127 76.3447 127.127C110.78 127.127 139.112 140.134 139.112 186.286Z" fill="white"/>
<path fill-rule="evenodd" clip-rule="evenodd" d="M80.7197 127.201C81.0092 135.445 82.7311 146.256 88.1326 150.629C92.8828 154.475 98.3649 155.454 103.264 156.329C107.45 157.077 111.211 157.749 113.724 160.069C115.059 161.301 116.244 163.012 117.527 164.865C121.393 170.447 126.152 177.321 138.628 176.306C134.937 139.988 110.566 128.212 80.7197 127.201Z" fill="#123041"/>
<path d="M55.9404 199.995C55.9404 189.825 64.1855 181.58 74.3563 181.58H83.5642C93.735 181.58 101.98 189.825 101.98 199.995C101.98 206.776 96.4833 212.273 89.7028 212.273H68.2176C61.4371 212.273 55.9404 206.776 55.9404 199.995Z" fill="#FFC0C1"/>
<path d="M69.3086 195.443V200.888" stroke="#123041" stroke-width="4.9505" stroke-linecap="round"/>
<path d="M89.1113 195.443L89.1113 200.888" stroke="#123041" stroke-width="4.9505" stroke-linecap="round"/>
<path d="M31.1885 200.888H38.6142" stroke="#FFC0C1" stroke-width="9.90099" stroke-linecap="round"/>
<path d="M119.805 200.888H127.23" stroke="#FFC0C1" stroke-width="9.90099" stroke-linecap="round"/>
<path d="M49.2373 188.583C49.2373 188.583 47.7387 186.864 44.3668 186.864C40.9948 186.864 39.4962 188.583 39.4962 188.583" stroke="#123041" stroke-width="6.10934" stroke-linecap="round"/>
<path d="M118.483 188.583C118.483 188.583 116.985 186.864 113.613 186.864C110.241 186.864 108.742 188.583 108.742 188.583" stroke="#123041" stroke-width="6.10934" stroke-linecap="round"/>
</g>
<path d="M64.7187 230.677C64.4989 234.909 57.3893 238.037 49.1981 237.612C41.0068 237.187 34.8359 233.368 35.0557 229.136C35.428 221.968 41.4623 216.535 50.6753 217.013C59.8883 217.492 65.1038 223.261 64.7187 230.677Z" fill="white"/>
<path d="M122.143 230.677C121.923 234.909 114.813 238.037 106.622 237.612C98.4307 237.187 92.2598 233.368 92.4795 229.136C92.8518 221.968 98.8862 216.535 108.099 217.013C117.312 217.492 122.528 223.261 122.143 230.677Z" fill="white"/>
</g>
<path d="M361.748 230.677C361.528 234.909 354.419 238.037 346.227 237.612C338.036 237.187 331.865 233.368 332.085 229.136C332.457 221.968 338.492 216.535 347.705 217.013C356.918 217.492 362.133 223.261 361.748 230.677Z" fill="#5BB42B"/>
<path d="M419.172 230.677C418.952 234.909 411.842 238.037 403.651 237.612C395.46 237.187 389.289 233.368 389.509 229.136C389.881 221.968 395.915 216.535 405.128 217.013C414.341 217.492 419.557 223.261 419.172 230.677Z" fill="#5BB42B"/>
<ellipse cx="19.788" cy="21.3241" rx="19.788" ry="21.3241" transform="matrix(-0.877234 -0.480064 -0.480064 0.877234 447.103 158.064)" fill="#5BB42B"/>
<ellipse cx="333.534" cy="166.721" rx="19.788" ry="21.3241" transform="rotate(-28.6896 333.534 166.721)" fill="#5BB42B"/>
<path d="M312.447 201.517C312.447 227.627 339.525 227.622 374.502 227.622C409.48 227.622 440.17 227.627 440.17 201.517C440.17 164.009 411.18 147.919 376.203 147.919C341.225 147.919 312.447 161.038 312.447 201.517Z" fill="#5BB42B"/>
<path d="M426.804 192.474H418.388" stroke="#A1DC3C" stroke-width="9.90099" stroke-linecap="round"/>
<path d="M335.22 192.474H326.804" stroke="#A1DC3C" stroke-width="9.90099" stroke-linecap="round"/>
<path d="M335.643 173.662L331.683 174.652" stroke="#123041" stroke-width="7.42575" stroke-linecap="round"/>
<path d="M411.878 174.157L415.838 175.147" stroke="#123041" stroke-width="7.42575" stroke-linecap="round"/>
<path d="M354.947 175.89C356.02 176.633 358.957 178.118 362.125 178.118C366.086 178.118 367.571 174.652 371.779 174.652C375.987 174.652 377.472 178.118 381.432 178.118C384.601 178.118 387.538 176.633 388.611 175.89" stroke="#4B890D" stroke-width="2.47525" stroke-linecap="round"/>
<g clip-path="url(#clip2_5002_1018)">
<mask id="mask2_5002_1018" style="mask-type:alpha" maskUnits="userSpaceOnUse" x="447" y="93" width="160" height="153">
<rect x="586.81" y="245.261" width="141.089" height="132.839" transform="rotate(-171.59 586.81 245.261)" fill="#D9D9D9"/>
</mask>
<g mask="url(#mask2_5002_1018)">
<g clip-path="url(#clip3_5002_1018)">
<path d="M481.091 261.49C471.623 252.955 492.256 211.497 503.323 207.527C514.39 203.558 530.948 206.855 537.586 212.593C544.223 218.331 555.789 265.229 544.232 270.825C532.675 276.421 490.558 270.025 481.091 261.49Z" fill="#FFDB40"/>
<path d="M462.604 174.848C458.825 200.407 485.599 213.027 519.664 218.063C553.729 223.099 583.216 218.798 586.994 193.238C593.437 149.657 567.413 130.541 533.348 125.505C499.283 120.468 469.354 129.192 462.604 174.848Z" fill="#FFDB40"/>
<path d="M563.11 202.467L555.764 201.381" stroke="#FCA18E" stroke-width="9.90099" stroke-linecap="round"/>
<path d="M481.814 190.447L474.469 189.361" stroke="#FCA18E" stroke-width="9.90099" stroke-linecap="round"/>
<path d="M547.559 174.744L546.4 182.579" stroke="#123041" stroke-width="7.42575" stroke-linecap="round"/>
<path d="M488.303 165.982L487.144 173.818" stroke="#123041" stroke-width="7.42575" stroke-linecap="round"/>
<path d="M500.806 184.729C500.147 189.192 505.456 191.923 512.353 192.942C519.25 193.962 525.123 192.885 525.782 188.422C526.442 183.959 521.639 177.801 514.742 176.781C507.845 175.762 501.466 180.267 500.806 184.729Z" fill="#FFB132"/>
<path d="M531.365 107.804C537.82 115.49 540.996 123.51 541.264 130.421L528.397 127.094C523.098 125.724 518.879 118.616 520.256 110.949C521.633 103.282 528.082 103.896 531.365 107.804Z" fill="#FFDB40"/>
<path d="M543.472 120.23C540.825 122.147 539.513 126.982 539.188 129.16C543.73 129.408 551.452 129.142 553.224 126.473C554.997 123.803 554.683 120.111 553.167 119.018C551.652 117.925 546.781 117.834 543.472 120.23Z" fill="#FFDB40"/>
<rect x="446.037" y="227.132" width="123.267" height="13.3663" fill="#123041"/>
</g>
</g>
<path d="M535.279 230.678C535.499 234.91 542.609 238.039 550.8 237.613C558.991 237.188 565.162 233.37 564.942 229.138C564.57 221.969 558.536 216.536 549.323 217.015C540.11 217.493 534.894 223.262 535.279 230.678Z" fill="#FFDB40"/>
<path d="M477.856 230.678C478.076 234.91 485.186 238.039 493.377 237.613C501.568 237.188 507.739 233.37 507.519 229.138C507.147 221.969 501.113 216.536 491.9 217.015C482.687 217.493 477.471 223.262 477.856 230.678Z" fill="#FFDB40"/>
</g>
<defs>
<clipPath id="clip0_5002_1018">
<rect width="159.406" height="180.198" fill="white" transform="translate(148.515 58.3164)"/>
</clipPath>
<clipPath id="clip1_5002_1018">
<rect width="159.406" height="133.003" fill="white" transform="translate(0 105.51)"/>
</clipPath>
<clipPath id="clip2_5002_1018">
<rect width="159.406" height="152.847" fill="white" transform="matrix(-1 0 0 1 600 85.668)"/>
</clipPath>
<clipPath id="clip3_5002_1018">
<rect width="139.109" height="237.949" fill="white" transform="matrix(-0.989247 -0.146252 -0.146252 0.989247 605.409 105.906)"/>
</clipPath>
</defs>
</svg>
