<svg width="332" height="160" viewBox="0 0 332 160" fill="none" xmlns="http://www.w3.org/2000/svg">
<g clip-path="url(#clip0_2790_14998)">
<path d="M51.1594 127.413C55.9592 132.213 97.8262 131.413 119.96 130.613C133.56 122.213 135.56 82.6131 126.36 77.0131C117.16 71.4131 75.6748 90.645 69.5594 95.0132C63.9594 99.0132 45.5592 121.813 51.1594 127.413Z" fill="#5C9A15"/>
<path d="M25.5998 146.399C30.3996 151.199 72.2667 150.399 94.4 149.599C108 141.199 110 101.599 100.8 95.9989C91.6 90.3989 50.1153 109.631 43.9998 113.999C38.3998 117.999 19.9996 140.799 25.5998 146.399Z" fill="#5BB42B"/>
<path d="M85.4596 148.317C91.5051 152.161 191.591 152.161 198.644 148.317C205.697 144.474 218.46 114.494 214.429 105.27C210.399 96.0457 176.141 62.6074 119.381 64.9135C62.6213 67.2196 79.4142 144.474 85.4596 148.317Z" fill="#5BB42B"/>
<path d="M310.817 119.952C291.353 112.979 261.511 130.239 249.023 139.74C248.454 141.42 247.734 145.671 249.408 149.236C251.502 153.691 300.99 155.015 312.396 153.263C323.801 151.51 335.148 128.668 310.817 119.952Z" fill="#5C9A15"/>
<ellipse cx="153.275" cy="39.2716" rx="31.9774" ry="34.4597" transform="rotate(-28.6896 153.275 39.2716)" fill="#5BB42B"/>
<ellipse cx="31.9774" cy="34.4597" rx="31.9774" ry="34.4597" transform="matrix(-0.877234 -0.480064 -0.480064 0.877234 336.8 23.5029)" fill="#5BB42B"/>
<path d="M326.281 94.613C326.281 136.808 279.775 150.8 223.252 150.8C166.729 150.8 119.881 136.808 119.881 94.613C119.881 33.9995 166.729 7.99951 223.252 7.99951C279.775 7.99951 326.281 29.1995 326.281 94.613Z" fill="#5BB42B"/>
<path d="M141.48 79.9995H155.08" stroke="#A1DC3C" stroke-width="16" stroke-linecap="round"/>
<path d="M289.48 79.9995H303.08" stroke="#A1DC3C" stroke-width="16" stroke-linecap="round"/>
<path d="M288.8 49.5996L295.199 51.1998" stroke="#123041" stroke-width="12" stroke-linecap="round"/>
<path d="M165.6 50.3994L159.2 51.9996" stroke="#123041" stroke-width="12" stroke-linecap="round"/>
<path d="M189.218 119.952C169.753 112.979 139.911 130.239 127.424 139.74C126.854 141.42 126.134 145.671 127.809 149.236C129.902 153.691 179.391 155.015 190.796 153.263C202.201 151.51 213.549 128.668 189.218 119.952Z" fill="#5C9A15"/>
<path d="M257.6 53.1997C255.866 54.3997 251.12 56.7997 246 56.7997C239.6 56.7997 237.2 51.1997 230.4 51.1997C223.6 51.1997 221.2 56.7997 214.8 56.7997C209.68 56.7997 204.933 54.3997 203.2 53.1997" stroke="#4B890D" stroke-width="4" stroke-linecap="round"/>
</g>
<defs>
<clipPath id="clip0_2790_14998">
<rect width="331.2" height="159.2" fill="white" transform="matrix(-1 0 0 1 331.199 0)"/>
</clipPath>
</defs>
</svg>
