<svg width="511" height="400" viewBox="0 0 511 400" fill="none" xmlns="http://www.w3.org/2000/svg">
<g clip-path="url(#clip0_3564_2516)">
<rect width="510.5" height="400" rx="30" fill="#F1FFCC"/>
<ellipse cx="255" cy="372.5" rx="201.5" ry="16.5" fill="#E1F3B2"/>
<g clip-path="url(#clip1_3564_2516)">
<g clip-path="url(#clip2_3564_2516)">
<ellipse cx="205.11" cy="166.584" rx="18.2654" ry="19.6833" transform="rotate(-28.6896 205.11 166.584)" fill="#5BB42B"/>
<ellipse cx="18.2654" cy="19.6833" rx="18.2654" ry="19.6833" transform="matrix(-0.877234 -0.480064 -0.480064 0.877234 309.938 157.574)" fill="#5BB42B"/>
<path d="M272.434 295.154C275.712 293.814 278.903 275.959 278.256 267.07L246.776 272.094C246.129 279.309 246.086 294.021 247.638 295.154C249.579 296.571 268.338 296.829 272.434 295.154Z" fill="#4B9B3A"/>
<path d="M274.895 275.381C284.692 268.866 271.448 228.224 261.878 223.105C252.309 217.986 236.744 218.762 229.908 223.105C223.073 227.449 206.181 268.711 215.979 275.381C225.776 282.052 265.097 281.897 274.895 275.381Z" fill="#49B236"/>
<path d="M218.901 295.154C215.623 293.814 212.432 275.959 213.079 267.07L244.559 272.094C245.206 279.309 245.249 294.021 243.697 295.154C241.756 296.571 222.998 296.829 218.901 295.154Z" fill="#49B236"/>
<path d="M270.572 259.49C270.572 273.341 260.138 276.668 247.267 276.668C234.396 276.668 223.962 273.341 223.962 259.49C223.962 241.28 234.396 230.973 247.267 230.973C260.138 230.973 270.572 241.28 270.572 259.49Z" fill="#9CD43D"/>
<path d="M247.984 269.359C248.078 269.359 248.171 269.341 248.258 269.306C248.345 269.271 248.424 269.219 248.491 269.153L251.665 265.96C251.782 265.824 251.843 265.65 251.836 265.471C251.829 265.293 251.754 265.123 251.627 264.997C251.5 264.871 251.33 264.796 251.151 264.79C250.971 264.783 250.795 264.843 250.659 264.96L247.478 268.117C247.411 268.183 247.358 268.261 247.322 268.348C247.285 268.434 247.267 268.527 247.267 268.621C247.267 268.714 247.285 268.807 247.322 268.894C247.358 268.98 247.411 269.059 247.478 269.124C247.542 269.195 247.62 269.253 247.707 269.293C247.794 269.333 247.888 269.355 247.984 269.359Z" fill="#49B236"/>
<path d="M251.124 269.359C251.218 269.359 251.31 269.341 251.396 269.306C251.482 269.271 251.561 269.219 251.627 269.153C251.693 269.088 251.746 269.009 251.782 268.923C251.818 268.837 251.836 268.744 251.836 268.651C251.836 268.557 251.818 268.465 251.782 268.379C251.746 268.292 251.693 268.214 251.627 268.148L248.478 264.998C248.412 264.932 248.333 264.879 248.247 264.843C248.161 264.808 248.068 264.789 247.975 264.789C247.882 264.789 247.789 264.808 247.703 264.843C247.617 264.879 247.538 264.932 247.473 264.998C247.341 265.131 247.267 265.31 247.267 265.497C247.267 265.684 247.341 265.864 247.473 265.996L250.629 269.153C250.761 269.284 250.939 269.358 251.124 269.359Z" fill="#49B236"/>
<path d="M303.93 198.192C303.93 222.294 277.366 230.286 245.08 230.286C212.794 230.286 186.035 222.294 186.035 198.192C186.035 163.57 212.794 148.719 245.08 148.719C277.366 148.719 303.93 160.828 303.93 198.192Z" fill="#5BB42B"/>
<path d="M208.426 173.398V180.71" stroke="#123041" stroke-width="6.85437" stroke-linecap="round"/>
<path d="M286.109 172.48V179.792" stroke="#123041" stroke-width="6.85437" stroke-linecap="round"/>
<path d="M198.374 189.848H206.142" stroke="#A1DC3C" stroke-width="9.13916" stroke-linecap="round"/>
<path d="M282.91 189.848H290.678" stroke="#A1DC3C" stroke-width="9.13916" stroke-linecap="round"/>
<path d="M255.951 182.559C255.951 177.069 255.951 174.309 245.669 174.309C235.387 174.309 235.387 176.578 235.387 182.559C235.387 192.358 239.991 198.07 245.669 198.07C251.347 198.07 255.951 191.673 255.951 182.559Z" fill="#D52C2F"/>
<path d="M245.667 198.074C249.645 198.074 253.091 194.934 254.801 189.921C252.813 187.598 249.873 185.581 246.321 184.336C242.445 182.977 238.566 182.79 235.404 183.579C235.711 192.756 240.188 198.074 245.667 198.074Z" fill="#FF686B"/>
</g>
<g clip-path="url(#clip3_3564_2516)">
<path d="M196.373 241.092C210.206 249.278 205.933 253.36 202.359 259.399C198.785 265.439 196.983 270.983 183.43 262.962C176.55 258.891 173.87 250.694 177.444 244.655C181.018 238.615 189.493 237.02 196.373 241.092Z" fill="white"/>
<path d="M216.651 242.49C216.651 250.115 213.991 250.161 210.71 250.161C207.429 250.161 204.77 250.115 204.77 242.49C204.77 234.865 208.411 228.684 210.71 228.684C213.01 228.684 216.651 234.865 216.651 242.49Z" fill="#6A5B3D"/>
<path d="M288.393 242.49C288.393 250.115 285.733 250.161 282.453 250.161C279.172 250.161 276.512 250.115 276.512 242.49C276.512 234.865 280.153 228.684 282.453 228.684C284.752 228.684 288.393 234.865 288.393 242.49Z" fill="#6A5B3D"/>
<path d="M298.094 241.092C284.26 249.278 288.534 253.36 292.108 259.399C295.682 265.439 297.484 270.983 311.037 262.962C317.917 258.891 320.597 250.694 317.023 244.655C313.449 238.615 304.974 237.02 298.094 241.092Z" fill="#123041"/>
<path d="M301.51 248.08C294.615 252.16 296.4 253.612 297.756 255.903C299.112 258.194 299.666 260.375 306.421 256.378C309.85 254.348 311.53 250.846 310.174 248.554C308.818 246.263 304.939 246.05 301.51 248.08Z" fill="#FFC0C1"/>
<path d="M192.549 248.08C199.444 252.16 197.659 253.612 196.303 255.903C194.947 258.194 194.394 260.375 187.639 256.378C184.21 254.348 182.529 250.846 183.885 248.554C185.241 246.263 189.12 246.05 192.549 248.08Z" fill="#FFC0C1"/>
<path d="M287.962 369.73C285.687 371.076 260.345 370.94 255.225 367.568C248.995 363.465 246.713 357.946 248.215 353.18C251.438 342.948 258.69 343.156 266.687 343.842C274.684 344.527 297.454 345.674 299.131 350.011C301.074 355.037 293.876 366.233 287.962 369.73Z" fill="#E7EAEE"/>
<path d="M275.808 363.116C285.606 356.601 272.361 315.959 262.792 310.84C253.222 305.721 237.657 306.496 230.822 310.84C223.986 315.183 207.094 356.446 216.892 363.116C226.689 369.786 266.01 369.631 275.808 363.116Z" fill="white"/>
<path fill-rule="evenodd" clip-rule="evenodd" d="M217.702 335.863C220.19 336.951 222.344 338.616 223.277 341.105C225.471 346.954 233.026 349.483 236.529 350.016C236.56 350.026 245.28 353.109 247.953 357.784C249.626 360.711 249.704 365.62 249.627 368.023C236.317 368.364 222.226 366.757 216.891 363.125C211.957 359.766 213.792 347.635 217.702 335.863Z" fill="#123041"/>
<path d="M272.398 348.372C272.398 360.562 261.964 363.49 249.093 363.49C236.222 363.49 225.788 360.562 225.788 348.372C225.788 332.348 236.222 323.277 249.093 323.277C261.964 323.277 272.398 332.348 272.398 348.372Z" fill="#FFC0C1"/>
<path d="M248.899 359.374C248.993 359.375 249.086 359.357 249.173 359.322C249.26 359.286 249.339 359.234 249.405 359.168L252.579 355.976C252.696 355.84 252.757 355.665 252.75 355.487C252.743 355.308 252.669 355.139 252.542 355.012C252.415 354.886 252.245 354.812 252.065 354.805C251.886 354.798 251.71 354.859 251.574 354.975L248.392 358.133C248.325 358.199 248.272 358.277 248.236 358.363C248.2 358.45 248.181 358.543 248.181 358.636C248.181 358.73 248.2 358.823 248.236 358.909C248.272 358.996 248.325 359.074 248.392 359.14C248.457 359.211 248.535 359.268 248.622 359.309C248.709 359.349 248.803 359.371 248.899 359.374Z" fill="#FF8D8D"/>
<path d="M252.039 359.374C252.132 359.375 252.225 359.357 252.311 359.322C252.397 359.286 252.475 359.235 252.542 359.169C252.608 359.103 252.661 359.025 252.696 358.939C252.732 358.852 252.751 358.76 252.751 358.666C252.751 358.573 252.732 358.48 252.696 358.394C252.661 358.308 252.608 358.23 252.542 358.164L249.392 355.014C249.326 354.948 249.248 354.895 249.162 354.859C249.076 354.823 248.983 354.805 248.89 354.805C248.796 354.805 248.704 354.823 248.617 354.859C248.531 354.895 248.453 354.948 248.387 355.014C248.255 355.147 248.181 355.326 248.181 355.513C248.181 355.7 248.255 355.879 248.387 356.012L251.544 359.169C251.675 359.3 251.853 359.373 252.039 359.374Z" fill="#FF8D8D"/>
<path d="M254.603 371.101C252.328 372.447 226.986 372.311 221.866 368.939C215.636 364.836 213.355 359.317 214.856 354.551C218.079 344.319 225.331 344.528 233.328 345.213C241.325 345.898 264.095 347.045 265.772 351.382C267.716 356.408 260.517 367.604 254.603 371.101Z" fill="#123041"/>
<path d="M304.388 288.322C304.388 312.171 278.236 320.08 246.451 320.08C214.665 320.08 188.321 312.171 188.321 288.322C188.321 247.657 214.665 233.715 246.451 233.715C278.236 233.715 304.388 245.721 304.388 288.322Z" fill="white"/>
<path d="M250.49 233.781C278.04 234.715 300.534 245.585 303.939 279.11C288.603 280.357 285.9 268.69 280.954 264.124C275.919 259.477 265.464 261.993 257.331 255.41C252.345 251.373 250.756 241.391 250.49 233.781Z" fill="#123041"/>
<path d="M218.478 283.98V291.292" stroke="#123041" stroke-width="6.85437" stroke-linecap="round"/>
<path d="M279.711 283.98V291.292" stroke="#123041" stroke-width="6.85437" stroke-linecap="round"/>
<path d="M227.617 300.979C227.617 291.591 235.228 283.98 244.616 283.98H253.115C262.504 283.98 270.114 291.591 270.114 300.979C270.114 307.238 265.041 312.312 258.782 312.312H238.95C232.691 312.312 227.617 307.238 227.617 300.979Z" fill="#FFC0C1"/>
<path d="M239.956 296.773V301.8" stroke="black" stroke-width="4.56958" stroke-linecap="round"/>
<path d="M258.235 296.773L258.235 301.8" stroke="black" stroke-width="4.56958" stroke-linecap="round"/>
<path d="M204.77 301.801H211.624" stroke="#FFC0C1" stroke-width="9.13916" stroke-linecap="round"/>
<path d="M286.565 301.801H293.419" stroke="#FFC0C1" stroke-width="9.13916" stroke-linecap="round"/>
<path d="M243.966 340.662C232.381 342.956 223.508 332.108 218.458 324.781C217.191 322.085 218.363 318.365 220.516 317.713C224.35 316.552 241.38 320.024 247.674 321.978C253.969 323.933 258.448 337.796 243.966 340.662Z" fill="#E7EAEE"/>
<rect width="74.4841" height="6.39741" rx="0.913916" transform="matrix(-1 0 0 1 302.21 340.645)" fill="#173A52"/>
<path d="M310.327 298.642L211.6 250.168L181.922 320.842L244.637 343.844L310.327 298.642Z" fill="url(#paint0_linear_3564_2516)"/>
<rect width="74.4841" height="48.8945" rx="2.28479" transform="matrix(-1 0 0 1 311.347 298.148)" fill="#005271"/>
<path d="M270.825 322.884V319.108L262.909 327.028L264.78 328.938L270.825 322.884ZM288.863 320.524C288.277 317.575 286.06 315.362 285.806 315.101L280.365 309.57L277.255 312.678L277.034 312.9V316.675L280.354 313.357L283.448 316.502L283.921 316.981L283.954 317.014C283.954 317.014 284.16 317.217 284.444 317.556C285.316 318.557 285.934 319.752 286.248 321.04C286.691 323.252 286.912 325.859 284.444 329.022V332.923C284.677 332.72 284.813 332.577 284.876 332.525C287.089 330.357 288.413 328.167 288.934 325.826C289.293 324.074 289.271 322.266 288.867 320.524H288.863ZM272.382 332.178L272.301 332.138H272.26C272.019 332.012 271.79 331.865 271.574 331.699C271.371 331.555 271.124 331.364 270.837 331.117C270.387 330.748 269.826 330.247 269.143 329.579L267.613 328.016L265.724 329.904L267.247 331.456V331.478C269.605 333.779 270.814 334.427 271.261 334.616C272.674 335.311 274.206 335.735 275.776 335.865C276.497 335.922 277.223 335.907 277.941 335.821L278.114 335.803V333.097C276.156 333.407 274.149 333.085 272.386 332.178H272.382Z" fill="white"/>
<path d="M275.703 314.234V330.354H272.166V317.774L272.52 317.42L272.712 317.228L273.781 316.159L274.504 315.436L274.74 315.2L275.467 314.474L275.703 314.234Z" fill="white"/>
<path d="M283.11 317.836V333.918L283.066 333.951C282.904 334.055 282.73 334.162 282.546 334.265C282.487 334.302 282.424 334.335 282.361 334.368C282.199 334.46 282.026 334.552 281.849 334.641C281.671 334.729 281.513 334.803 281.336 334.881L281.044 335.006L280.646 335.161L280.321 335.275C280.1 335.349 279.871 335.419 279.635 335.481L279.462 335.526V317.836H283.11Z" fill="white"/>
<path d="M279.461 322.09H275.702V325.74H279.461V322.09Z" fill="white"/>
<path d="M239.823 232.573C240.835 236.351 235.484 241.123 228.171 243.083C220.857 245.042 214.352 243.447 213.339 239.669C211.624 233.269 215.375 226.78 223.601 224.576C231.826 222.372 238.049 225.952 239.823 232.573Z" fill="#4F9A15"/>
<path d="M253.779 232.44C252.767 236.218 258.118 240.99 265.431 242.95C272.744 244.909 279.25 243.315 280.263 239.536C281.977 233.136 278.227 226.647 270.001 224.443C261.776 222.239 255.553 225.819 253.779 232.44Z" fill="#4F9A15"/>
</g>
<g clip-path="url(#clip4_3564_2516)">
<path d="M345.021 371.014C341.743 369.674 338.552 351.819 339.199 342.93L370.679 347.954C371.326 355.168 371.369 369.88 369.816 371.014C367.876 372.431 349.117 372.688 345.021 371.014Z" fill="#E7EAEE"/>
<path d="M342.56 351.233C332.763 344.718 346.007 304.076 355.576 298.957C365.146 293.838 380.711 294.613 387.546 298.957C394.382 303.3 411.274 344.563 401.476 351.233C391.679 357.903 352.358 357.748 342.56 351.233Z" fill="white"/>
<path d="M398.554 371.014C401.831 369.674 405.022 351.819 404.376 342.93L372.896 347.954C372.249 355.168 372.206 369.88 373.758 371.014C375.699 372.431 394.457 372.688 398.554 371.014Z" fill="white"/>
<path d="M346.882 337.407C346.882 349.597 357.316 352.525 370.187 352.525C383.058 352.525 393.492 349.597 393.492 337.407C393.492 321.383 383.058 312.312 370.187 312.312C357.316 312.312 346.882 321.383 346.882 337.407Z" fill="#E7EAEE"/>
<path d="M369.471 345.214C369.377 345.215 369.284 345.197 369.197 345.161C369.11 345.126 369.031 345.074 368.964 345.008L365.79 341.816C365.673 341.68 365.612 341.505 365.619 341.327C365.626 341.148 365.7 340.979 365.827 340.852C365.954 340.726 366.125 340.652 366.304 340.645C366.484 340.638 366.659 340.699 366.796 340.815L369.977 343.972C370.044 344.038 370.097 344.117 370.133 344.203C370.169 344.29 370.188 344.383 370.188 344.476C370.188 344.57 370.169 344.663 370.133 344.749C370.097 344.836 370.044 344.914 369.977 344.98C369.913 345.051 369.835 345.108 369.748 345.148C369.661 345.189 369.566 345.211 369.471 345.214Z" fill="#FFC0C1"/>
<path d="M366.33 345.214C366.237 345.215 366.145 345.197 366.059 345.162C365.972 345.126 365.894 345.074 365.828 345.009C365.761 344.943 365.709 344.865 365.673 344.778C365.637 344.692 365.618 344.6 365.618 344.506C365.618 344.413 365.637 344.32 365.673 344.234C365.709 344.148 365.761 344.07 365.828 344.004L368.977 340.854C369.043 340.788 369.121 340.735 369.208 340.699C369.294 340.663 369.386 340.645 369.48 340.645C369.573 340.645 369.666 340.663 369.752 340.699C369.838 340.735 369.916 340.788 369.982 340.854C370.114 340.987 370.188 341.166 370.188 341.353C370.188 341.54 370.114 341.719 369.982 341.852L366.826 345.009C366.694 345.14 366.516 345.213 366.33 345.214Z" fill="#FFC0C1"/>
<path d="M412.045 207.653C408.39 219.503 392.737 242.702 389.426 252.404H358.124C354.813 242.702 340.367 219.503 335.733 207.653C329.986 192.957 335.963 173.855 352.107 173.855C365.435 173.855 371.679 195.866 373.432 207.653C375.185 195.866 381.886 173.855 394.758 173.855C410.901 173.855 416.697 192.574 412.045 207.653Z" fill="white"/>
<path d="M317.181 275.068C317.181 298.917 343.333 306.826 375.119 306.826C406.904 306.826 433.248 298.917 433.248 275.068C433.248 234.403 406.904 220.461 375.119 220.461C343.333 220.461 317.181 232.467 317.181 275.068Z" fill="white"/>
<path d="M396.691 267.988V275.3" stroke="#123041" stroke-width="6.85437" stroke-linecap="round"/>
<path d="M341.398 267.988V275.3" stroke="#123041" stroke-width="6.85437" stroke-linecap="round"/>
<path d="M410.4 285.809H403.545" stroke="#FFC0C1" stroke-width="9.13916" stroke-linecap="round"/>
<path d="M334.546 285.809H327.692" stroke="#FFC0C1" stroke-width="9.13916" stroke-linecap="round"/>
<path d="M361.505 286.93C361.505 291.048 361.505 293.118 369.045 293.118C376.585 293.118 376.585 291.416 376.585 286.93C376.585 282.445 373.209 275.297 369.045 275.297C364.881 275.297 361.505 282.812 361.505 286.93Z" fill="#FFC0C1"/>
<path d="M369.045 275.301C366.366 275.301 364.015 278.412 362.678 281.728C364.486 282.571 366.679 283.067 369.045 283.067C371.436 283.067 373.65 282.561 375.469 281.701C374.142 278.342 371.761 275.301 369.045 275.301Z" fill="#E7EAEE"/>
<path d="M370.914 268.902C370.017 268.902 369.606 269.276 369.045 269.65C368.484 269.276 368.073 268.902 367.176 268.902C366.055 268.902 365.404 270.077 365.682 270.772C366.055 271.706 367.426 272.641 369.045 273.015C370.664 272.641 372.035 271.706 372.408 270.772C372.686 270.077 372.035 268.902 370.914 268.902Z" fill="#FFC0C1"/>
<g clip-path="url(#clip5_3564_2516)">
<path d="M343.574 302.24C343.771 302.548 344.031 302.671 344.136 302.694L354.232 298.121L362.601 290.856C362.624 290.751 362.621 290.463 362.424 290.155C362.177 289.771 361.768 287.862 360.875 288.163C359.982 288.464 359.583 289.534 358.429 290.274C357.274 291.014 356.836 290.753 355.104 291.862C353.373 292.972 353.043 293.727 351.889 294.467C350.735 295.207 349.911 295.192 348.565 296.055C347.218 296.918 346.311 298.043 345.157 298.783C344.003 299.523 343.055 299.316 342.409 300.002C341.764 300.687 343.327 301.856 343.574 302.24Z" fill="#E48174"/>
<path d="M359.112 326.47C358.915 326.162 358.911 325.874 358.934 325.769L367.303 318.504L377.399 313.931C377.504 313.954 377.764 314.077 377.961 314.384C378.208 314.769 379.772 315.938 379.126 316.623C378.479 317.309 377.34 317.225 376.186 317.965C375.032 318.705 375.086 319.213 373.355 320.323C371.624 321.433 370.801 321.418 369.646 322.158C368.492 322.898 368.162 323.653 366.816 324.516C365.469 325.379 364.069 325.734 362.915 326.474C361.76 327.214 361.553 328.161 360.66 328.462C359.768 328.763 359.359 326.854 359.112 326.47Z" fill="#E48174"/>
<path d="M353.112 296.396C349.504 298.71 344.196 302.384 344.126 302.7C344.088 302.875 344.609 304.443 345.859 307.018C346.863 309.088 349.107 311.316 351.14 314.488C353.173 317.659 354.271 320.622 355.733 322.399C357.551 324.609 358.759 325.737 358.933 325.775C359.249 325.844 364.804 322.554 368.413 320.241C372.021 317.927 377.33 314.252 377.398 313.937C377.437 313.76 376.942 312.219 375.675 309.613C374.682 307.569 372.435 305.368 370.375 302.155C368.315 298.943 367.244 295.988 365.801 294.232C363.961 291.992 362.768 290.9 362.591 290.861C362.276 290.792 356.721 294.082 353.112 296.396Z" fill="#FFC5AB"/>
<g filter="url(#filter0_d_3564_2516)">
<path d="M364.401 318.263C360.37 319.082 356.466 317.079 357.532 314.297C358.599 311.516 360.574 312.745 363.171 312.217C365.768 311.689 367.198 310.234 368.727 312.021C370.257 313.808 368.431 317.443 364.401 318.263Z" fill="#FFC53D"/>
</g>
<g filter="url(#filter1_d_3564_2516)">
<path d="M367.275 310.571C366.055 313.732 362.931 315.552 361.474 313.577C360.017 311.601 361.747 310.776 362.534 308.74C363.32 306.703 362.945 305.064 364.864 304.797C366.784 304.529 368.496 307.41 367.275 310.571Z" fill="#FFC53D"/>
</g>
<g filter="url(#filter2_d_3564_2516)">
<path d="M356.763 309.7C353.5 310.646 350.151 309.26 350.842 306.898C351.532 304.536 353.241 305.415 355.344 304.805C357.446 304.195 358.525 302.901 359.905 304.269C361.284 305.637 360.027 308.753 356.763 309.7Z" fill="#FFC53D"/>
</g>
</g>
<g clip-path="url(#clip6_3564_2516)">
<path d="M390.101 293.758L390.798 295.024L392.282 295.774L393.147 297.195L394.631 297.945L395.16 299.056L396.813 299.961L394.771 301.496L388.731 295.914L390.101 293.758Z" fill="#DAA427"/>
<path d="M378.515 319.762L377.818 318.496L376.333 317.746L375.469 316.325L373.984 315.575L373.455 314.464L371.803 313.559L373.844 312.023L379.885 317.606L378.515 319.762Z" fill="#DAA427"/>
<rect x="388.705" y="295.27" width="9.13916" height="22.8479" rx="0.913916" transform="rotate(42.7435 388.705 295.27)" fill="#FFC53D"/>
<path d="M389.167 301.224C389.408 301.149 389.664 301.284 389.739 301.525L390.648 304.452C390.723 304.693 390.588 304.95 390.347 305.024L384.718 306.773C384.848 306.731 384.971 306.69 385.085 306.655C385.231 306.378 385.482 305.698 385.325 305.192C385.128 304.558 384.347 304.28 384.2 303.805C384.083 303.427 384.165 302.954 384.221 302.76L389.167 301.224Z" fill="#935F3A"/>
<path d="M381.157 307.724C380.768 307.637 380.397 307.326 380.259 307.182L379.089 312.356C379.053 312.518 379.178 312.716 379.339 312.753L382.574 313.484C382.735 313.521 382.934 313.396 382.97 313.234L384.067 308.383C383.9 308.118 383.437 307.56 382.92 307.443C382.273 307.297 381.642 307.834 381.157 307.724Z" fill="#935F3A"/>
</g>
<g clip-path="url(#clip7_3564_2516)">
<path d="M368.659 292.575C369.434 292.516 372.385 292.572 375.518 292.957C378.817 293.362 381.116 293.952 382.266 294.247" stroke="#6DA442" stroke-width="1.37087" stroke-linecap="round"/>
<path d="M365.928 314.8C366.666 315.044 369.542 315.705 372.676 316.09C375.974 316.495 378.348 316.48 379.535 316.472" stroke="#6DA442" stroke-width="1.37087" stroke-linecap="round"/>
<path d="M367.558 294.044C367.638 293.389 368.173 292.892 368.833 292.9C370.04 292.915 372.225 293.01 375.463 293.408C378.701 293.806 380.844 294.242 382.019 294.52C382.661 294.672 383.059 295.284 382.979 295.939L380.639 314.979C380.558 315.642 380.011 316.143 379.344 316.133C378.101 316.115 375.871 316.018 372.732 315.632C369.593 315.246 367.406 314.801 366.196 314.518C365.546 314.366 365.137 313.747 365.218 313.084L367.558 294.044Z" fill="#AFD157"/>
<mask id="mask0_3564_2516" style="mask-type:alpha" maskUnits="userSpaceOnUse" x="365" y="292" width="18" height="25">
<path d="M367.558 294.044C367.638 293.389 368.173 292.892 368.833 292.9C370.04 292.915 372.224 293.01 375.463 293.408C378.701 293.806 380.844 294.242 382.018 294.52C382.66 294.672 383.059 295.284 382.978 295.939L380.639 314.979C380.557 315.642 380.011 316.143 379.343 316.133C378.101 316.115 375.87 316.018 372.732 315.632C369.593 315.246 367.406 314.801 366.196 314.518C365.545 314.366 365.137 313.747 365.218 313.084L367.558 294.044Z" fill="#AFD157"/>
</mask>
<g mask="url(#mask0_3564_2516)">
<path d="M375.159 310.867C378.811 309.244 380.77 297.054 380.787 291.301L385.378 291.405L384.926 319.434L363.498 317.722C362.481 314.758 361.492 309.694 364.079 311.117C367.314 312.896 372.825 311.905 375.159 310.867Z" fill="#A0C248"/>
</g>
<path d="M369.574 296.367L368.403 305.892" stroke="#C4E0AE" stroke-width="1.37087" stroke-linecap="round"/>
<path d="M368.125 308.164L367.958 309.525" stroke="#C4E0AE" stroke-width="1.37087" stroke-linecap="round"/>
<circle cx="377.117" cy="311.805" r="2.51327" transform="rotate(7.00501 377.117 311.805)" fill="#CCF2C2"/>
<path d="M375.075 311.549C375.214 310.422 376.24 309.62 377.367 309.759" stroke="white" stroke-width="0.365566" stroke-linecap="round" stroke-dasharray="0.46 0.46 0.91 0.91"/>
<circle cx="375.009" cy="306.474" r="1.59935" transform="rotate(7.00501 375.009 306.474)" fill="#CCF2C2"/>
<path d="M373.876 306.333C373.953 305.707 374.523 305.262 375.149 305.339" stroke="white" stroke-width="0.274175" stroke-linecap="round" stroke-dasharray="0.46 0.69 0.91 0.91"/>
<circle cx="379.424" cy="304.254" r="1.14239" transform="rotate(7.00501 379.424 304.254)" fill="#CCF2C2"/>
<path d="M378.744 304.172C378.79 303.797 379.132 303.53 379.508 303.576" stroke="white" stroke-width="0.182783" stroke-linecap="round" stroke-dasharray="0.46 0.91 0.91 0.91"/>
<path d="M374.948 305.086L375.401 305.142L375.346 305.596L375.091 305.794L374.666 305.512L374.948 305.086Z" fill="#CCF2C2"/>
<path d="M379.309 303.32L379.762 303.376L379.706 303.829L379.225 304L379.281 303.547L379.309 303.32Z" fill="#CCF2C2"/>
<path d="M377.169 309.505L377.622 309.561L377.538 310.241L377.057 310.412L376.687 309.676L377.169 309.505Z" fill="#CCF2C2"/>
</g>
<path d="M379.984 321.819C385.192 327.468 399.502 321.047 404.917 316.203C407.999 313.446 407.751 309.157 404.948 307.615C399.648 304.697 391.826 305.889 385.267 305.236C377.703 304.484 369.978 310.965 379.984 321.819Z" fill="#DBDEE3"/>
<path d="M334.656 310.577C335.638 304.984 342.136 302.38 349.096 303.603C356.056 304.825 360.842 309.412 359.859 315.005C358.877 320.597 352.497 325.078 345.538 323.855C338.578 322.633 333.673 316.169 334.656 310.577Z" fill="#DBDEE3"/>
</g>
<g clip-path="url(#clip8_3564_2516)">
<path d="M158.194 371.014C161.471 369.674 164.662 351.819 164.015 342.93L132.535 347.954C131.888 355.168 131.845 369.88 133.398 371.014C135.338 372.431 154.097 372.688 158.194 371.014Z" fill="#FFC532"/>
<path d="M179.837 324.811C168.477 328.04 152.129 317.063 145.376 311.17C145.116 310.191 144.868 307.741 145.958 305.773C147.322 303.314 175.577 304.452 182.01 305.886C188.443 307.321 194.036 320.774 179.837 324.811Z" fill="#FFC532"/>
<path d="M160.654 351.233C170.451 344.718 157.207 304.076 147.638 298.957C138.068 293.838 122.503 294.613 115.668 298.957C108.832 303.3 91.9403 344.563 101.738 351.233C111.535 357.903 150.856 357.748 160.654 351.233Z" fill="#FFDB40"/>
<path d="M79.3606 329.66C79.4179 329.414 79.6636 329.261 79.9094 329.319L106.624 335.547C106.703 335.566 106.775 335.605 106.834 335.66L110.215 338.856C110.47 339.096 110.37 339.521 110.036 339.624L105.59 340.995C105.513 341.019 105.431 341.022 105.352 341.003L78.6373 334.775C78.3915 334.717 78.2387 334.472 78.296 334.226L79.3606 329.66Z" fill="#FFB132"/>
<path d="M104.661 371.014C101.384 369.674 98.1929 351.819 98.8397 342.93L130.32 347.954C130.966 355.168 131.01 369.88 129.457 371.014C127.517 372.431 108.758 372.688 104.661 371.014Z" fill="#FFDB40"/>
<path d="M81.9011 327.308C84.1379 315.711 101.305 306.066 109.609 302.693C110.601 302.902 112.9 303.785 114.164 305.646C115.745 307.971 101.995 332.681 97.8147 337.777C93.6345 342.873 79.105 341.803 81.9011 327.308Z" fill="#FFDB40"/>
<path d="M133.745 345.214C133.839 345.215 133.932 345.197 134.019 345.161C134.105 345.126 134.185 345.074 134.251 345.008L137.425 341.816C137.542 341.68 137.603 341.505 137.596 341.327C137.589 341.148 137.515 340.979 137.388 340.852C137.261 340.726 137.091 340.652 136.911 340.645C136.732 340.638 136.556 340.699 136.42 340.815L133.238 343.972C133.171 344.038 133.118 344.117 133.082 344.203C133.046 344.29 133.027 344.383 133.027 344.476C133.027 344.57 133.046 344.663 133.082 344.749C133.118 344.836 133.171 344.914 133.238 344.98C133.303 345.051 133.38 345.108 133.468 345.148C133.555 345.189 133.649 345.211 133.745 345.214Z" fill="#FFBB4D"/>
<path d="M136.885 345.214C136.978 345.215 137.071 345.197 137.157 345.162C137.243 345.126 137.321 345.074 137.388 345.009C137.454 344.943 137.507 344.865 137.542 344.778C137.578 344.692 137.597 344.6 137.597 344.506C137.597 344.413 137.578 344.32 137.542 344.234C137.507 344.148 137.454 344.07 137.388 344.004L134.238 340.854C134.172 340.788 134.094 340.735 134.008 340.699C133.922 340.663 133.829 340.645 133.736 340.645C133.642 340.645 133.55 340.663 133.463 340.699C133.377 340.735 133.299 340.788 133.233 340.854C133.101 340.987 133.027 341.166 133.027 341.353C133.027 341.54 133.101 341.719 133.233 341.852L136.39 345.009C136.521 345.14 136.699 345.213 136.885 345.214Z" fill="#FFBB4D"/>
<path d="M186.492 274.611C186.492 298.46 160.34 306.369 128.554 306.369C96.7689 306.369 70.4243 298.46 70.4243 274.611C70.4243 233.946 96.7689 220.004 128.554 220.004C160.34 220.004 186.492 232.01 186.492 274.611Z" fill="#FFDB40"/>
<path d="M90.9868 286.266H97.8412" stroke="#FFA052" stroke-width="9.13916" stroke-linecap="round"/>
<path d="M166.842 286.266H173.696" stroke="#FFA052" stroke-width="9.13916" stroke-linecap="round"/>
<path d="M104.696 269.812V277.124" stroke="#123041" stroke-width="6.85437" stroke-linecap="round"/>
<path d="M159.987 269.812V277.124" stroke="#123041" stroke-width="6.85437" stroke-linecap="round"/>
<path d="M143.994 280.323C143.994 284.487 138.777 286.263 132.342 286.263C125.906 286.263 120.689 284.487 120.689 280.323C120.689 276.159 125.906 271.184 132.342 271.184C138.777 271.184 143.994 276.159 143.994 280.323Z" fill="#FFB132"/>
<path d="M119.893 204.116C126.825 210.263 130.807 217.157 131.985 223.432L119.787 222.131C114.763 221.595 109.952 215.674 110.174 208.488C110.396 201.301 116.368 200.99 119.893 204.116Z" fill="#FFDB40"/>
<path d="M132.624 213.82C130.466 215.927 129.921 220.52 129.918 222.553C134.099 222.166 141.114 220.881 142.372 218.204C143.63 215.526 142.846 212.198 141.314 211.404C139.782 210.611 135.322 211.186 132.624 213.82Z" fill="#FFDB40"/>
<path d="M201.114 295.634C196.773 293.578 192.204 295.634 189.005 294.949C187.183 294.559 184.892 294.949 181.008 293.121C180.551 301.346 179.637 303.403 179.637 305.687C179.637 309.677 180.094 313.913 179.637 318.254C181.922 319.168 184.03 319.396 186.949 319.396C190.991 319.396 195.631 318.254 201.114 318.939C201.114 311.856 200.2 312.555 200.2 307.744C200.2 302.856 201.114 300.889 201.114 295.634Z" fill="#FFE8AD"/>
</g>
</g>
<path d="M81.7002 77.6143C81.7002 69.7793 75.3487 63.4278 67.5137 63.4278L8.5 63.4278C-4.75482 63.4278 -15.5 52.6827 -15.5 39.4278L-15.5 13.1397C-15.5 -0.115106 -4.75483 -10.8603 8.49999 -10.8603L56.5 -10.8603C69.7548 -10.8603 80.5 -21.6054 80.5 -34.8603L80.5 -55.3822C80.5 -59.8558 84.1265 -63.4823 88.6001 -63.4823C93.0737 -63.4823 96.7002 -59.8558 96.7002 -55.3823L96.7002 -51.1005C96.7002 -44.2622 102.244 -38.7187 109.082 -38.7187L152.472 -38.7187C157.458 -38.7187 161.5 -34.6768 161.5 -29.6909C161.5 -24.7049 165.542 -20.663 170.528 -20.663L195.7 -20.663C208.955 -20.663 219.7 -31.4082 219.7 -44.663L219.7 -66.2997C219.7 -70.4419 223.058 -73.7997 227.2 -73.7997C231.342 -73.7997 234.7 -70.4419 234.7 -66.2997L234.7 -52.6479C234.7 -40.966 244.17 -31.496 255.852 -31.496L329.904 -31.496C334.32 -31.496 337.9 -35.076 337.9 -39.4921C337.9 -43.9083 341.48 -47.4882 345.896 -47.4882L504.414 -47.4882C509.543 -47.4882 513.7 -51.6458 513.7 -56.7744L513.7 -58.5605C513.7 -62.7026 517.058 -66.0605 521.2 -66.0605C525.342 -66.0605 528.7 -62.7026 528.7 -58.5605L528.7 -52.3891C528.7 -44.8386 534.821 -38.7177 542.372 -38.7177L595.675 -38.7177C605.078 -38.7177 612.7 -46.3401 612.7 -55.7426L612.7 -65.2676C612.7 -69.4097 616.058 -72.7676 620.2 -72.7676C624.342 -72.7676 627.7 -69.4097 627.7 -65.2676L627.7 -51.6167C627.7 -39.9354 637.17 -30.4658 648.851 -30.4658L660.499 -30.4658C665.912 -30.4658 670.301 -34.8542 670.301 -40.2676C670.301 -45.6809 674.689 -50.0693 680.103 -50.0693L763.524 -50.0693C769.365 -50.0693 774.101 -45.334 774.101 -39.4927C774.101 -33.6513 778.836 -28.916 784.677 -28.916L840.458 -28.916C852.853 -28.916 862.9 -38.9636 862.9 -51.3579L862.9 -66.2998C862.9 -70.4419 866.258 -73.7998 870.4 -73.7998C874.543 -73.7998 877.9 -70.4419 877.9 -66.2998L877.9 -42.084C877.9 -28.8291 888.646 -18.084 901.9 -18.084L910.301 -18.084C923.556 -18.084 934.301 -7.33882 934.301 5.91602L934.301 54.9033C934.301 68.1582 923.556 78.9033 910.301 78.9033L849.498 78.9033C839.668 78.9033 831.7 70.9352 831.7 61.106C831.7 51.2768 823.732 43.3086 813.903 43.3086L785.449 43.3086C779.182 43.3086 774.101 48.3896 774.101 54.6572C774.101 60.9249 769.02 66.0059 762.752 66.0059L688.873 66.0059C678.616 66.0059 670.301 57.6908 670.301 47.4336C670.301 37.1764 661.986 28.8614 651.729 28.8614L621.997 28.8614C614.875 28.8614 609.101 23.0874 609.101 15.9649C609.101 8.84234 603.327 3.06839 596.204 3.06839L375.937 3.06841C364.54 3.06841 355.301 12.3073 355.301 23.7042C355.301 35.101 346.062 44.3399 334.665 44.3399L308.96 44.3399C303.404 44.3399 298.9 48.8437 298.9 54.3995C298.9 59.9552 294.397 64.459 288.841 64.459L175.171 64.4591C167.621 64.4591 161.5 70.5797 161.5 78.13C161.5 85.6802 155.379 91.8008 147.829 91.8009L95.8867 91.8009C88.0517 91.8009 81.7002 85.4493 81.7002 77.6143Z" fill="#AFD157"/>
<path d="M228.102 97.8008L222.102 97.8008C208.847 97.8008 198.102 87.0556 198.102 73.8008L198.102 67.8008L204.102 67.8008C217.356 67.8008 228.102 78.5459 228.102 91.8008L228.102 97.8008Z" fill="#AFD157"/>
<path d="M168.102 97.8008L174.102 97.8008C187.356 97.8008 198.102 87.0556 198.102 73.8008L198.102 67.8008L192.102 67.8008C178.847 67.8008 168.102 78.5459 168.102 91.8008L168.102 97.8008Z" fill="#AFD157"/>
<path d="M337.901 47.4023L331.901 47.4023C318.646 47.4023 307.901 36.6572 307.901 23.4023L307.901 17.4023L313.901 17.4023C327.156 17.4023 337.901 28.1475 337.901 41.4023L337.901 47.4023Z" fill="#7BAD34"/>
<path d="M277.901 47.4023L283.901 47.4023C297.156 47.4023 307.901 36.6572 307.901 23.4023L307.901 17.4023L301.901 17.4023C288.646 17.4023 277.901 28.1475 277.901 41.4023L277.901 47.4023Z" fill="#7BAD34"/>
<path d="M90.7007 75.6016L84.7007 75.6016C71.4459 75.6016 60.7007 64.8564 60.7007 51.6016L60.7007 45.6016L66.7007 45.6016C79.9556 45.6016 90.7007 56.3467 90.7007 69.6016L90.7007 75.6016Z" fill="#7BAD34"/>
<path d="M343.901 100.801L337.901 100.801C324.646 100.801 313.901 90.0556 313.901 76.8008L313.901 70.8008L319.901 70.8008C333.156 70.8008 343.901 81.5459 343.901 94.8008L343.901 100.801Z" fill="#AFD157"/>
<path d="M384.052 108.257C381.275 105.48 380.699 101.338 382.32 97.9925C382.381 97.866 382.238 97.7229 382.112 97.7842C378.766 99.4047 374.625 98.8287 371.849 96.0522C368.343 92.5457 368.343 86.8612 371.849 83.3547C374.625 80.5783 378.766 80.0019 382.111 81.6221C382.238 81.6834 382.381 81.5403 382.319 81.4138C380.699 78.0685 381.275 73.9268 384.052 71.1502C387.558 67.6439 393.243 67.6439 396.75 71.1502C399.526 73.9268 400.103 78.0685 398.482 81.4138C398.421 81.5403 398.564 81.6834 398.69 81.6221C402.035 80.002 406.176 80.5783 408.953 83.3547C412.459 86.8612 412.459 92.5457 408.953 96.0522C406.176 98.8287 402.035 99.4047 398.69 97.7842C398.563 97.7229 398.42 97.866 398.482 97.9925C400.103 101.338 399.526 105.48 396.75 108.257C393.243 111.763 387.558 111.763 384.052 108.257Z" fill="#FFC53D"/>
<circle cx="390.403" cy="89.5391" r="3.73159" transform="rotate(-135 390.403 89.5391)" fill="#E98B2D"/>
</g>
<defs>
<filter id="filter0_d_3564_2516" x="357.354" y="311.156" width="12.3672" height="7.74993" filterUnits="userSpaceOnUse" color-interpolation-filters="sRGB">
<feFlood flood-opacity="0" result="BackgroundImageFix"/>
<feColorMatrix in="SourceAlpha" type="matrix" values="0 0 0 0 0 0 0 0 0 0 0 0 0 0 0 0 0 0 127 0" result="hardAlpha"/>
<feOffset dx="0.456958" dy="0.456958"/>
<feComposite in2="hardAlpha" operator="out"/>
<feColorMatrix type="matrix" values="0 0 0 0 0.822493 0 0 0 0 0.503639 0 0 0 0 0.129331 0 0 0 1 0"/>
<feBlend mode="normal" in2="BackgroundImageFix" result="effect1_dropShadow_3564_2516"/>
<feBlend mode="normal" in="SourceGraphic" in2="effect1_dropShadow_3564_2516" result="shape"/>
</filter>
<filter id="filter1_d_3564_2516" x="360.909" y="304.777" width="7.23351" height="10.0781" filterUnits="userSpaceOnUse" color-interpolation-filters="sRGB">
<feFlood flood-opacity="0" result="BackgroundImageFix"/>
<feColorMatrix in="SourceAlpha" type="matrix" values="0 0 0 0 0 0 0 0 0 0 0 0 0 0 0 0 0 0 127 0" result="hardAlpha"/>
<feOffset dx="0.456958" dy="0.456958"/>
<feComposite in2="hardAlpha" operator="out"/>
<feColorMatrix type="matrix" values="0 0 0 0 0.822493 0 0 0 0 0.503639 0 0 0 0 0.129331 0 0 0 1 0"/>
<feBlend mode="normal" in2="BackgroundImageFix" result="effect1_dropShadow_3564_2516"/>
<feBlend mode="normal" in="SourceGraphic" in2="effect1_dropShadow_3564_2516" result="shape"/>
</filter>
<filter id="filter2_d_3564_2516" x="350.75" y="303.664" width="10.1646" height="6.7929" filterUnits="userSpaceOnUse" color-interpolation-filters="sRGB">
<feFlood flood-opacity="0" result="BackgroundImageFix"/>
<feColorMatrix in="SourceAlpha" type="matrix" values="0 0 0 0 0 0 0 0 0 0 0 0 0 0 0 0 0 0 127 0" result="hardAlpha"/>
<feOffset dx="0.456958" dy="0.456958"/>
<feComposite in2="hardAlpha" operator="out"/>
<feColorMatrix type="matrix" values="0 0 0 0 0.822493 0 0 0 0 0.503639 0 0 0 0 0.129331 0 0 0 1 0"/>
<feBlend mode="normal" in2="BackgroundImageFix" result="effect1_dropShadow_3564_2516"/>
<feBlend mode="normal" in="SourceGraphic" in2="effect1_dropShadow_3564_2516" result="shape"/>
</filter>
<linearGradient id="paint0_linear_3564_2516" x1="224.401" y1="283.593" x2="260.424" y2="333.724" gradientUnits="userSpaceOnUse">
<stop offset="0.25" stop-color="#96FFFF" stop-opacity="0"/>
<stop offset="1" stop-color="#96FFFF" stop-opacity="0.5"/>
</linearGradient>
<clipPath id="clip0_3564_2516">
<rect width="510.5" height="400" rx="30" fill="white"/>
</clipPath>
<clipPath id="clip1_3564_2516">
<rect width="391.04" height="271.565" fill="white" transform="translate(59 101)"/>
</clipPath>
<clipPath id="clip2_3564_2516">
<rect width="128.405" height="168.617" fill="white" transform="translate(181.465 136.84)"/>
</clipPath>
<clipPath id="clip3_3564_2516">
<rect width="143.942" height="151.71" fill="white" transform="translate(175.068 220.918)"/>
</clipPath>
<clipPath id="clip4_3564_2516">
<rect width="148.968" height="201.518" fill="white" transform="matrix(-1 0 0 1 449.698 170.66)"/>
</clipPath>
<clipPath id="clip5_3564_2516">
<rect width="27.8744" height="37.4705" fill="white" transform="translate(339.115 299.941) rotate(-32.6653)"/>
</clipPath>
<clipPath id="clip6_3564_2516">
<rect width="12.7948" height="30.1592" fill="white" transform="translate(389.845 291.34) rotate(42.7435)"/>
</clipPath>
<clipPath id="clip7_3564_2516">
<rect width="20.1061" height="27.8744" fill="white" transform="translate(365.818 289.465) rotate(7.00501)"/>
</clipPath>
<clipPath id="clip8_3564_2516">
<rect width="158.107" height="177.3" fill="white" transform="translate(59.0003 194.871)"/>
</clipPath>
</defs>
</svg>
