<svg width="677" height="668" viewBox="0 0 677 668" fill="none" xmlns="http://www.w3.org/2000/svg">
<g opacity="0.3">
<rect x="-1198" y="246.178" width="1270.88" height="206.822" rx="100" fill="#EBF9FF"/>
</g>
<g opacity="0.5">
<circle cx="59.3923" cy="59.3923" r="59.3923" transform="matrix(-1 1.23066e-09 -8.1095e-09 1 579.154 -116)" fill="#EBF9FF"/>
<circle cx="30.8795" cy="30.8795" r="30.8795" transform="matrix(-1 1.23066e-09 -8.1095e-09 1 414.838 -58.9751)" fill="#EBF9FF"/>
<rect width="306.09" height="49.8129" rx="24.9065" transform="matrix(-1 1.23066e-09 -8.1095e-09 1 630.092 -39.365)" fill="#EBF9FF"/>
</g>
<g opacity="0.3">
<circle cx="149.601" cy="149.601" r="149.601" transform="matrix(-1 -1.23066e-09 -6.67576e-09 1 685.793 349)" fill="#EBF9FF"/>
<circle cx="77.7813" cy="77.7813" r="77.7813" transform="matrix(-1 -1.23066e-09 -6.67576e-09 1 753.34 449.489)" fill="#EBF9FF"/>
<ellipse cx="118.375" cy="116.956" rx="118.375" ry="116.956" transform="matrix(-1 -1.23066e-09 -6.67576e-09 1 450.734 401.234)" fill="#EBF9FF"/>
<circle cx="77.7813" cy="77.7813" r="77.7813" transform="matrix(-1 -1.23066e-09 -6.67576e-09 1 271.891 492.641)" fill="#EBF9FF"/>
<rect width="771" height="125.472" rx="60.6666" transform="matrix(-1 -1.23066e-09 -6.67576e-09 1 814.092 542.028)" fill="#EBF9FF"/>
</g>
<ellipse cx="443.588" cy="335.333" rx="8.11115" ry="6.29313" transform="rotate(-14.1104 443.588 335.333)" fill="white"/>
<ellipse cx="464.752" cy="333.475" rx="8.11115" ry="6.29313" transform="rotate(-14.1104 464.752 333.475)" fill="white"/>
<path d="M471.325 332.109L466.075 311.223L444.674 312.132L449.924 333.019" stroke="white" stroke-width="2.79695" stroke-linecap="round" stroke-linejoin="round"/>
<ellipse cx="286.707" cy="461.893" rx="8.11115" ry="6.29313" fill="white"/>
<path d="M293.414 461.191V439.655C295.372 442.498 300.071 448.213 303.203 448.325" stroke="white" stroke-width="2.79695" stroke-linecap="round" stroke-linejoin="round"/>
<g clip-path="url(#clip0_2811_1044)">
<ellipse cx="379.75" cy="225.768" rx="8.11115" ry="6.29313" transform="rotate(18.0245 379.75 225.768)" fill="white"/>
<path d="M386.346 227.179L393.01 206.699C393.992 210.009 396.692 216.898 399.636 217.973" stroke="white" stroke-width="2.79695" stroke-linecap="round" stroke-linejoin="round"/>
</g>
<defs>
<clipPath id="clip0_2811_1044">
<rect width="34.4025" height="37.4791" fill="white" transform="translate(375.674 194) rotate(18.0245)"/>
</clipPath>
</defs>
</svg>
