<svg width="677" height="222" viewBox="0 0 677 222" fill="none" xmlns="http://www.w3.org/2000/svg">
<path d="M641 69.5C641 84.6878 653.312 97 668.5 97H763C785.091 97 803 114.909 803 137V201C803 223.091 785.091 241 763 241H683C660.909 241 643 258.909 643 281V329.5C643 336.956 636.956 343 629.5 343C622.044 343 616 336.956 616 329.5V319C616 305.745 605.255 295 592 295H525.5C515.835 295 508 287.165 508 277.5C508 267.835 500.165 260 490.5 260H451C428.909 260 411 277.909 411 300V350.5C411 357.404 405.404 363 398.5 363C391.596 363 386 357.404 386 350.5V321C386 298.909 368.091 281 346 281H229.5C220.94 281 214 287.94 214 296.5C214 305.06 207.06 312 198.5 312H-61C-70.9411 312 -79 320.059 -79 330V335.5C-79 342.404 -84.5964 348 -91.5 348C-98.4036 348 -104 342.404 -104 335.5V321.5C-104 306.864 -115.864 295 -130.5 295H-211C-229.225 295 -244 309.775 -244 328V348.5C-244 355.404 -249.596 361 -256.5 361C-263.404 361 -269 355.404 -269 348.5V314.5C-269 294.894 -284.894 279 -304.5 279H-321C-331.493 279 -340 287.507 -340 298C-340 308.493 -348.507 317 -359 317H-492.5C-503.822 317 -513 307.822 -513 296.5C-513 285.178 -522.178 276 -533.5 276H-621C-643.091 276 -661 293.909 -661 316V350.5C-661 357.404 -666.596 363 -673.5 363C-680.404 363 -686 357.404 -686 350.5V295C-686 272.909 -703.909 255 -726 255H-740C-762.091 255 -780 237.091 -780 215V107C-780 84.9086 -762.091 67 -740 67H-643.5C-624.446 67 -609 82.4462 -609 101.5C-609 120.554 -593.554 136 -574.5 136H-535C-522.85 136 -513 126.15 -513 114C-513 101.85 -503.15 92 -491 92H-376C-356.118 92 -340 108.118 -340 128C-340 147.882 -323.882 164 -304 164H-263C-249.193 164 -238 175.193 -238 189C-238 202.807 -226.807 214 -213 214H145C167.091 214 185 196.091 185 174C185 151.909 202.909 134 225 134H259.5C270.27 134 279 125.27 279 114.5C279 103.73 287.73 95 298.5 95H481.5C496.135 95 508 83.1355 508 68.5C508 53.8645 519.865 42 534.5 42H613.5C628.688 42 641 54.3122 641 69.5Z" fill="#AFD157"/>
<path d="M332 30H342C364.091 30 382 47.9086 382 70V80H372C349.909 80 332 62.0914 332 40V30Z" fill="#AFD157"/>
<path d="M432 30H422C399.909 30 382 47.9086 382 70V80H392C414.091 80 432 62.0914 432 40V30Z" fill="#AFD157"/>
<path d="M214 161H224C246.091 161 264 178.909 264 201V211H254C231.909 211 214 193.091 214 171V161Z" fill="#7BAD34"/>
<path d="M314 161H304C281.909 161 264 178.909 264 201V211H274C296.091 211 314 193.091 314 171V161Z" fill="#7BAD34"/>
<path d="M626 114H636C658.091 114 676 131.909 676 154V164H666C643.909 164 626 146.091 626 124V114Z" fill="#7BAD34"/>
<path d="M209 65H219C241.091 65 259 82.9086 259 105V115H249C226.909 115 209 97.0914 209 75V65Z" fill="#AFD157"/>
<path d="M446.086 125.582C450.711 130.207 451.675 137.106 448.98 142.68C448.878 142.89 449.116 143.128 449.327 143.027C454.9 140.332 461.799 141.297 466.424 145.921C472.268 151.766 472.269 161.241 466.425 167.086C461.8 171.711 454.901 172.674 449.327 169.978C449.116 169.877 448.878 170.115 448.98 170.325C451.676 175.9 450.711 182.799 446.086 187.425C440.241 193.269 430.766 193.269 424.922 187.425C420.297 182.799 419.332 175.9 422.027 170.326C422.129 170.115 421.891 169.877 421.68 169.979C416.107 172.674 409.208 171.711 404.583 167.086C398.739 161.241 398.74 151.766 404.584 145.921C409.209 141.297 416.107 140.332 421.681 143.027C421.892 143.128 422.13 142.89 422.028 142.68C419.333 137.106 420.297 130.207 424.922 125.582C430.766 119.738 440.241 119.738 446.086 125.582Z" fill="#FFC53D"/>
<circle cx="435.5" cy="156.778" r="6.21932" transform="rotate(45 435.5 156.778)" fill="#E98B2D"/>
</svg>
