<svg width="390" height="162" viewBox="0 0 390 162" fill="none" xmlns="http://www.w3.org/2000/svg">
<g clip-path="url(#clip0_2758_1729)">
<rect width="390" height="162" fill="white"/>
<path d="M194.616 17C236.457 17 270.376 48.1454 270.376 86.5648C270.376 96.4034 268.151 105.765 264.14 114.248C277.909 96.8431 300.252 85.5261 325.475 85.5261C367.315 85.5262 401.234 116.672 401.234 155.091C401.234 189.404 374.177 217.914 338.586 223.617C374.177 229.32 401.234 257.831 401.234 292.144C401.234 330.562 367.315 361.707 325.475 361.707C300.252 361.707 277.909 350.391 264.14 332.986C268.151 341.469 270.376 350.831 270.376 360.67C270.376 399.088 236.457 430.234 194.616 430.234C152.776 430.234 118.857 399.088 118.857 360.67C118.857 350.831 121.082 341.469 125.094 332.986C111.324 350.391 88.9807 361.707 63.7593 361.707C21.9186 361.707 -11.9998 330.562 -12 292.144C-12 257.831 15.0554 229.32 50.6462 223.617C15.0554 217.914 -12 189.404 -12 155.091C-12 116.672 21.9185 85.5261 63.7593 85.5261C88.9807 85.5261 111.324 96.843 125.094 114.248C121.082 105.765 118.857 96.4035 118.857 86.5648C118.857 48.1455 152.776 17.0001 194.616 17Z" fill="#F1FFCC"/>
<g clip-path="url(#clip1_2758_1729)">
<path d="M167.423 149.066C160.667 152.934 148.656 148.863 143.496 146.344C143.187 145.783 142.671 144.313 143.077 142.919C143.585 141.178 161.733 137.213 166.037 137.035C170.341 136.858 175.869 144.231 167.423 149.066Z" fill="#E7EAEE"/>
<path d="M150.113 169.968C155.944 165.899 147.393 141.523 141.542 138.559C135.69 135.596 126.297 136.275 122.226 138.992C118.155 141.708 108.507 166.867 114.516 170.765C120.526 174.662 144.281 174.037 150.113 169.968Z" fill="white"/>
<path fill-rule="evenodd" clip-rule="evenodd" d="M114.64 154.288C116.157 154.911 117.481 155.888 118.078 157.378C119.482 160.883 124.082 162.309 126.205 162.584C126.264 162.603 131.54 164.344 133.212 167.122C134.262 168.868 134.376 171.831 134.362 173.285C126.325 173.67 117.79 172.892 114.517 170.77C111.491 168.807 112.437 161.453 114.64 154.288Z" fill="#123041"/>
<path d="M104.166 159.128C103.884 151.996 112.656 143.955 117.077 140.826C117.689 140.812 119.164 141.014 120.164 141.935C121.415 143.085 116.73 159.52 114.973 163.095C113.215 166.669 104.519 168.042 104.166 159.128Z" fill="#F9F9F9"/>
<path d="M147.853 161.108C148.018 168.473 141.753 170.383 133.977 170.557C126.2 170.731 119.857 169.103 119.692 161.738C119.475 152.057 125.657 146.435 133.433 146.261C141.209 146.087 147.636 151.426 147.853 161.108Z" fill="#FFC0C1"/>
<path d="M100.469 97.3163C108.938 102.076 106.411 104.599 104.333 108.297C102.255 111.994 101.242 115.368 92.9447 110.705C88.7328 108.338 87.0027 103.422 89.0805 99.7249C91.1583 96.0277 96.2571 94.9493 100.469 97.3163Z" fill="white"/>
<path d="M112.739 97.8906C112.842 102.498 111.236 102.561 109.254 102.605C107.271 102.65 105.664 102.658 105.561 98.0513C105.458 93.4442 107.574 89.6602 108.963 89.6291C110.353 89.598 112.636 93.2836 112.739 97.8906Z" fill="#6A5B3D"/>
<path d="M156.085 96.9199C156.188 101.527 154.582 101.59 152.599 101.635C150.617 101.679 149.01 101.688 148.906 97.0806C148.803 92.4735 150.92 88.6895 152.309 88.6584C153.698 88.6273 155.982 92.3129 156.085 96.9199Z" fill="#6A5B3D"/>
<path d="M161.929 95.9422C153.682 101.076 156.319 103.484 158.56 107.084C160.801 110.685 161.965 114.01 170.045 108.981C174.147 106.428 175.655 101.44 173.414 97.8389C171.173 94.2383 166.031 93.3891 161.929 95.9422Z" fill="#123041"/>
<path d="M164.084 100.11C159.974 102.669 161.072 103.522 161.922 104.888C162.773 106.254 163.136 107.564 167.164 105.057C169.208 103.785 170.176 101.646 169.326 100.28C168.475 98.9137 166.129 98.8378 164.084 100.11Z" fill="#FFC0C1"/>
<path d="M98.2526 101.588C102.474 103.96 101.415 104.862 100.626 106.264C99.8379 107.667 99.533 108.992 95.3977 106.668C93.2985 105.489 92.2358 103.395 93.0241 101.992C93.8124 100.589 96.1533 100.409 98.2526 101.588Z" fill="#FFC0C1"/>
<path d="M166.368 124.389C166.69 138.798 150.996 143.93 131.792 144.36C112.588 144.79 96.5639 140.368 96.2414 125.959C95.6915 101.389 111.42 92.6093 130.624 92.1795C149.828 91.7497 165.792 98.6498 166.368 124.389Z" fill="white"/>
<path d="M133.067 92.1709C149.723 92.3624 163.459 98.6241 165.972 118.828C156.723 119.789 154.931 112.776 151.881 110.084C148.777 107.345 142.494 109.007 137.491 105.14C134.426 102.769 133.332 96.7642 133.067 92.1709Z" fill="#123041"/>
<path d="M120.158 133.075C120.031 127.403 124.526 122.702 130.198 122.575L135.333 122.46C141.006 122.333 145.707 126.828 145.834 132.5C145.918 136.282 142.922 139.416 139.14 139.501L127.158 139.769C123.376 139.854 120.242 136.857 120.158 133.075Z" fill="#FFC0C1"/>
<path d="M127.553 130.369L127.621 133.406" stroke="#123041" stroke-width="2.76157" stroke-linecap="round"/>
<path d="M138.598 130.122L138.666 133.159" stroke="#123041" stroke-width="2.76157" stroke-linecap="round"/>
<path d="M106.364 133.884L110.506 133.792" stroke="#FFC0C1" stroke-width="5.52314" stroke-linecap="round"/>
<path d="M155.784 132.778L159.925 132.686" stroke="#FFC0C1" stroke-width="5.52314" stroke-linecap="round"/>
<path d="M117.231 127.65C117.231 127.65 116.41 126.75 114.609 126.79C112.807 126.831 112.027 127.767 112.027 127.767" stroke="#123041" stroke-width="3.2647" stroke-linecap="round"/>
<path d="M154.226 126.823C154.226 126.823 153.404 125.922 151.603 125.963C149.802 126.003 149.021 126.939 149.021 126.939" stroke="#123041" stroke-width="3.2647" stroke-linecap="round"/>
</g>
<g clip-path="url(#clip2_2758_1729)">
<path d="M236.295 101.706C230.524 107.036 217.523 105.434 211.744 103.966C211.295 103.463 210.412 102.083 210.468 100.588C210.538 98.7187 227.649 90.9027 231.898 89.8211C236.147 88.7394 243.509 95.0423 236.295 101.706Z" fill="#5C9A15"/>
<path d="M220.811 140.5C222.596 139.452 222.961 128.854 221.849 123.764L204.048 129.285C204.272 133.513 205.469 142.031 206.461 142.558C207.702 143.217 218.579 141.809 220.811 140.5Z" fill="#5C9A15"/>
<path d="M226.768 128.332C231.897 123.748 220.858 101.327 214.895 99.1589C208.932 96.9908 199.989 98.7317 196.394 101.813C192.798 104.894 186.448 130.176 192.672 133.222C198.896 136.269 221.639 132.915 226.768 128.332Z" fill="#5BB42B"/>
<path d="M189.831 144.945C187.823 144.442 184.494 134.374 184.131 129.176L202.766 129.47C203.739 133.591 204.985 142.102 204.181 142.887C203.176 143.868 192.341 145.574 189.831 144.945Z" fill="#5BB42B"/>
<path d="M159.845 104.46C164.644 109.506 176.183 108.888 181.353 107.948C181.775 107.533 182.627 106.372 182.657 105.052C182.695 103.401 168.039 95.4748 164.354 94.2631C160.668 93.0514 153.846 98.1525 159.845 104.46Z" fill="#5BB42B"/>
<path d="M216.774 120.013C217.924 128.03 212.162 130.821 204.713 131.89C197.264 132.958 190.95 131.899 189.8 123.883C188.288 113.344 193.471 106.513 200.92 105.445C208.368 104.376 215.262 109.475 216.774 120.013Z" fill="#A1DC3C"/>
<path d="M204.521 127.599C204.576 127.592 204.628 127.573 204.675 127.546C204.723 127.518 204.764 127.482 204.797 127.438L206.369 125.327C206.425 125.238 206.446 125.132 206.427 125.03C206.409 124.927 206.351 124.835 206.267 124.772C206.183 124.71 206.079 124.681 205.974 124.692C205.87 124.703 205.773 124.753 205.704 124.831L204.125 126.923C204.092 126.966 204.068 127.016 204.054 127.069C204.04 127.122 204.037 127.177 204.045 127.232C204.052 127.286 204.071 127.338 204.099 127.385C204.127 127.432 204.164 127.473 204.209 127.506C204.252 127.541 204.302 127.568 204.355 127.584C204.409 127.6 204.465 127.605 204.521 127.599Z" fill="#5BB42B"/>
<path d="M206.338 127.338C206.392 127.331 206.444 127.313 206.491 127.285C206.538 127.258 206.579 127.221 206.612 127.178C206.645 127.134 206.669 127.085 206.683 127.032C206.696 126.979 206.699 126.924 206.692 126.87C206.684 126.816 206.666 126.764 206.638 126.717C206.61 126.67 206.573 126.629 206.529 126.596L204.445 125.035C204.401 125.002 204.351 124.978 204.299 124.964C204.246 124.951 204.191 124.948 204.137 124.955C204.082 124.963 204.03 124.981 203.984 125.009C203.937 125.037 203.896 125.074 203.863 125.118C203.798 125.206 203.77 125.316 203.785 125.424C203.801 125.532 203.859 125.63 203.946 125.696L206.035 127.261C206.122 127.325 206.231 127.353 206.338 127.338Z" fill="#5BB42B"/>
<ellipse cx="171.969" cy="71.5653" rx="10.6787" ry="11.5077" transform="rotate(-36.8526 171.969 71.5653)" fill="#5BB42B"/>
<ellipse cx="10.6787" cy="11.5077" rx="10.6787" ry="11.5077" transform="matrix(-0.93651 -0.35064 -0.35064 0.93651 231.888 57.655)" fill="#5BB42B"/>
<path d="M231.783 81.6581C233.784 95.606 219.074 102.436 200.39 105.117C181.706 107.797 165.556 105.393 163.555 91.4451C160.681 71.4086 174.934 60.5926 193.619 57.9124C212.303 55.2322 228.681 60.0349 231.783 81.6581Z" fill="#5BB42B"/>
<path d="M173.887 71.2676L174.494 75.4988" stroke="#123041" stroke-width="4.00734" stroke-linecap="round"/>
<path d="M218.804 64.5542L219.411 68.7854" stroke="#123041" stroke-width="4.00734" stroke-linecap="round"/>
<path d="M170.001 85.5916L174.497 84.9467" stroke="#A1DC3C" stroke-width="5.34312" stroke-linecap="round"/>
<path d="M218.924 78.5728L223.419 77.9279" stroke="#A1DC3C" stroke-width="5.34312" stroke-linecap="round"/>
<path d="M202.717 76.5942C202.261 73.4169 202.032 71.8194 196.082 72.673C190.132 73.5265 190.32 74.84 190.817 78.3012C191.63 83.9722 194.768 86.8957 198.055 86.4243C201.341 85.9529 203.474 81.8685 202.717 76.5942Z" fill="#D52C2F"/>
<path d="M198.054 86.4196C200.356 86.0894 202.089 83.9868 202.663 80.9452C201.319 79.766 199.451 78.8426 197.291 78.4167C194.936 77.9521 192.676 78.1659 190.911 78.8849C191.851 84.1689 194.884 86.8744 198.054 86.4196Z" fill="#FF686B"/>
</g>
<g clip-path="url(#clip3_2758_1729)">
<path d="M256.093 176.133C258.57 169.761 253.129 159.743 250.099 155.531C249.549 155.328 248.15 155.052 246.957 155.574C245.466 156.227 244.589 172.574 245.067 176.36C245.546 180.145 252.996 184.099 256.093 176.133Z" fill="#E7EAEE"/>
<path d="M242.096 183.084C248.724 181.51 249.679 156.782 245.508 152.083C241.337 147.384 232.728 144.685 228.145 145.673C223.562 146.662 206.115 165.685 210.099 171.272C214.083 176.859 235.469 184.658 242.096 183.084Z" fill="white"/>
<path d="M203.242 155.235C206.423 149.182 217.552 146.711 222.718 146.232C223.233 146.514 224.359 147.388 224.749 148.631C225.235 150.184 213.478 161.576 210.309 163.701C207.139 165.825 199.266 162.8 203.242 155.235Z" fill="#F9F9F9"/>
<path d="M242.52 174.706C240.076 181.326 233.822 180.824 226.832 178.244C219.842 175.663 214.762 171.981 217.206 165.361C220.419 156.658 227.904 153.824 234.894 156.404C241.884 158.985 245.732 166.003 242.52 174.706Z" fill="#E7EAEE"/>
<path d="M234.388 91.6283C233.997 98.7968 237.847 114.535 237.7 120.467L254.7 126.743C258.443 122.138 270.94 112.435 275.833 106.928C281.9 100.099 282.484 88.5264 273.716 85.2899C266.477 82.6176 258.673 93.3195 255.358 99.3698C256.77 92.6166 257.543 79.3194 250.552 76.7388C241.785 73.5022 234.884 82.5064 234.388 91.6283Z" fill="white"/>
<path d="M272.391 147.265C267.609 160.218 251.82 159.27 234.558 152.897C217.295 146.524 206.464 139.736 214.951 116.747C218.497 107.141 219.391 104.652 225.668 101.76C227.71 100.819 233.115 100.222 235.764 102.497C237.758 104.928 244.684 103.338 251.873 105.992C269.136 112.365 280.932 124.128 272.391 147.265Z" fill="white"/>
<path d="M230.629 127.473L229.163 131.444" stroke="#123041" stroke-width="3.96816" stroke-linecap="round"/>
<path d="M260.657 138.56L259.191 142.531" stroke="#123041" stroke-width="3.96816" stroke-linecap="round"/>
<path d="M222.642 131.982L226.364 133.356" stroke="white" stroke-width="7.93632" stroke-linecap="round"/>
<path d="M227.412 129.492C227.897 129.582 229.023 130.028 229.653 131.089C230.283 132.15 230.349 133.297 230.303 133.738" stroke="#123041" stroke-width="1.32272" stroke-linecap="round"/>
<path d="M222.642 131.982L226.364 133.356" stroke="#FFC0C1" stroke-width="5.29088" stroke-linecap="round"/>
<path d="M260.806 149.613L264.528 150.987" stroke="#FFC0C1" stroke-width="5.29088" stroke-linecap="round"/>
<path d="M245.938 144.82C245.113 147.056 244.698 148.18 240.603 146.669C236.508 145.157 236.849 144.233 237.749 141.796C238.648 139.36 241.914 136.155 244.176 136.99C246.437 137.825 246.764 142.583 245.938 144.82Z" fill="#FFC0C1"/>
<path d="M244.178 136.992C245.632 137.53 246.285 139.689 246.347 141.757C245.196 141.853 243.904 141.683 242.619 141.208C241.321 140.73 240.221 140.011 239.406 139.18C240.801 137.622 242.703 136.448 244.178 136.992Z" fill="#E7EAEE"/>
<path d="M244.445 133.142C244.932 133.321 245.081 133.607 245.31 133.922C245.689 133.832 245.988 133.711 246.475 133.891C247.084 134.116 247.202 134.884 246.912 135.206C246.521 135.638 245.59 135.871 244.635 135.75C243.831 135.222 243.274 134.44 243.259 133.857C243.247 133.424 243.836 132.917 244.445 133.142Z" fill="#FFC0C1"/>
</g>
<path d="M227.425 141.172C224.328 148.255 212.481 152.184 206.944 153.263C206.375 153.003 205.116 152.147 204.629 150.803C204.021 149.122 216.063 135.181 219.36 132.478C222.658 129.775 231.297 132.318 227.425 141.172Z" fill="#FFC532"/>
<path d="M212.046 174.946C217.387 170.719 207.803 147.904 202.037 145.408C196.271 142.912 187.328 144.104 183.592 146.937C179.856 149.77 172.083 174.384 178.055 177.763C184.026 181.143 206.705 179.174 212.046 174.946Z" fill="#FFDB40"/>
<path d="M167.488 167.234C166.806 160.431 174.73 152.235 178.777 148.987C179.361 148.939 180.783 149.048 181.793 149.87C183.055 150.898 179.524 166.883 178.05 170.403C176.576 173.922 168.34 175.738 167.488 167.234Z" fill="#FFDB40"/>
<path d="M224.871 129.374C226.011 143.133 211.301 148.947 192.963 150.467C174.624 151.987 159.047 148.684 157.906 134.924C155.962 111.462 170.494 102.159 188.833 100.639C207.171 99.1188 222.834 104.795 224.871 129.374Z" fill="#FFDB40"/>
<path d="M170.329 140.663L174.284 140.336" stroke="#FCA18E" stroke-width="5.29088" stroke-linecap="round"/>
<path d="M214.091 137.04L218.045 136.712" stroke="#FCA18E" stroke-width="5.29088" stroke-linecap="round"/>
<path d="M177.45 130.516L177.8 134.734" stroke="#123041" stroke-width="3.96816" stroke-linecap="round"/>
<path d="M209.349 127.871L209.698 132.089" stroke="#123041" stroke-width="3.96816" stroke-linecap="round"/>
<path d="M200.625 134.701C200.824 137.104 197.899 138.378 194.186 138.686C190.473 138.994 187.378 138.218 187.179 135.816C186.98 133.413 189.752 130.293 193.465 129.986C197.178 129.678 200.426 132.299 200.625 134.701Z" fill="#FFB132"/>
<path d="M183.075 91.8837C187.368 95.0988 189.996 98.8858 190.975 102.45L183.875 102.282C180.951 102.214 177.892 99.0276 177.677 94.8706C177.461 90.7136 180.892 90.2488 183.075 91.8837Z" fill="#FFDB40"/>
<path d="M190.885 96.876C189.741 98.1951 189.645 100.871 189.741 102.044C192.135 101.621 196.121 100.544 196.719 98.939C197.316 97.3342 196.704 95.4513 195.783 95.0668C194.861 94.6823 192.316 95.2272 190.885 96.876Z" fill="#FFDB40"/>
<path d="M199.148 27.3734C198.27 25.715 195.803 26.044 195.39 27.8745L194.794 30.5169C194.664 31.0924 194.289 31.5825 193.768 31.8586L191.374 33.1261C189.715 34.0043 190.044 36.4717 191.875 36.8846L194.517 37.4807C195.093 37.6105 195.583 37.9853 195.859 38.5067L197.127 40.9006C198.005 42.559 200.472 42.2301 200.885 40.3995L201.481 37.7571C201.611 37.1816 201.986 36.6915 202.507 36.4154L204.901 35.1479C206.56 34.2698 206.231 31.8024 204.4 31.3894L201.758 30.7934C201.182 30.6635 200.692 30.2888 200.416 29.7674L199.148 27.3734Z" fill="white"/>
<path d="M302.754 108.288C303.377 108.357 303.825 108.918 303.755 109.54L303.267 113.923C303.197 114.545 302.637 114.994 302.014 114.924C301.392 114.855 300.944 114.294 301.013 113.672L301.502 109.289C301.571 108.666 302.132 108.218 302.754 108.288ZM309.908 106.676C310.53 106.746 310.978 107.306 310.909 107.928C310.839 108.551 310.279 108.999 309.656 108.93L305.273 108.441C304.651 108.371 304.203 107.811 304.272 107.188C304.342 106.566 304.902 106.118 305.525 106.187L309.908 106.676ZM300.516 105.627C301.138 105.696 301.586 106.257 301.517 106.879C301.447 107.501 300.887 107.949 300.265 107.88L295.882 107.391C295.259 107.322 294.811 106.761 294.88 106.139C294.95 105.517 295.51 105.068 296.133 105.138L300.516 105.627ZM303.802 98.8937C304.424 98.9631 304.872 99.5237 304.803 100.146L304.314 104.529C304.245 105.151 303.684 105.6 303.062 105.53C302.439 105.461 301.991 104.9 302.061 104.278L302.549 99.8948C302.619 99.2724 303.179 98.8243 303.802 98.8937Z" fill="#AFD157"/>
<path d="M38.5898 127L38.4718 128.418C38.2111 131.55 40.5388 134.3 43.6709 134.561L45.0888 134.679L45.2068 133.261C45.4675 130.129 43.1398 127.379 40.0077 127.118L38.5898 127Z" fill="#93CA45"/>
<path d="M32.8014 92.8808C33.4149 92.7546 34.0142 93.1495 34.1403 93.763L35.0284 98.0828C35.1542 98.6961 34.7595 99.2956 34.1462 99.4217C33.5329 99.5477 32.9337 99.1526 32.8073 98.5394L31.9192 94.2196C31.7931 93.6062 32.188 93.0069 32.8014 92.8808ZM29.8513 91.0427C30.4647 90.9167 31.0641 91.3115 31.1902 91.9249C31.316 92.5381 30.9211 93.1376 30.3079 93.2638L25.9881 94.1519C25.3748 94.278 24.7756 93.8829 24.6492 93.2697C24.5231 92.6563 24.918 92.057 25.5315 91.9308L29.8513 91.0427ZM39.1079 89.1395C39.7212 89.0137 40.3206 89.4084 40.4467 90.0218C40.5725 90.6349 40.1776 91.2344 39.5645 91.3607L35.2447 92.2488C34.6314 92.3749 34.0322 91.9798 33.9058 91.3666C33.7797 90.7531 34.1746 90.1538 34.7881 90.0277L39.1079 89.1395ZM30.8983 83.6242C31.5117 83.498 32.111 83.8929 32.2372 84.5064L33.1253 88.8262C33.2513 89.4396 32.8565 90.039 32.2431 90.1651C31.6297 90.2912 31.0304 89.8962 30.9042 89.2829L30.016 84.9631C29.8899 84.3496 30.2848 83.7503 30.8983 83.6242Z" fill="#AFD157"/>
<path d="M66.0708 62.5832C67.1103 64.096 67.0219 66.0489 65.9921 67.4484C65.9532 67.5014 66.0068 67.5793 66.0701 67.5619C67.7457 67.1027 69.5997 67.7211 70.6392 69.2337C71.952 71.1444 71.4678 73.7578 69.5573 75.0708C68.0441 76.1105 66.0912 76.0218 64.6916 74.9915C64.6387 74.9526 64.5607 75.0061 64.5781 75.0695C65.0378 76.7454 64.419 78.6001 62.906 79.6397C60.9952 80.9523 58.3826 80.4678 57.0697 78.5572C56.0301 77.0442 56.1176 75.0909 57.1477 73.6913C57.1866 73.6384 57.133 73.5604 57.0697 73.5778C55.394 74.0374 53.5401 73.42 52.5005 71.9073C51.1877 69.9966 51.6719 67.3832 53.5824 66.0702C55.0957 65.0304 57.05 65.1178 58.4497 66.1484C58.5026 66.1873 58.5806 66.1338 58.5632 66.0704C58.1037 64.3947 58.7209 62.5408 60.2337 61.5013C62.1445 60.1885 64.7578 60.6727 66.0708 62.5832Z" fill="#FFC0C1"/>
<circle cx="61.5589" cy="70.6495" r="1.74459" transform="rotate(55.5072 61.5589 70.6495)" fill="#C88989"/>
<path d="M70.7842 129.325C70.3701 127.799 68.2805 127.611 67.6012 129.039L66.6206 131.101C66.407 131.55 66.0079 131.883 65.528 132.014L63.3246 132.611C61.7981 133.025 61.6105 135.115 63.0389 135.794L65.1006 136.775C65.5497 136.988 65.883 137.388 66.0132 137.868L66.6109 140.071C67.025 141.597 69.1146 141.785 69.7939 140.357L70.7744 138.295C70.988 137.846 71.3871 137.513 71.867 137.382L74.0705 136.785C75.5969 136.371 75.7845 134.281 74.3562 133.602L72.2944 132.621C71.8454 132.407 71.512 132.008 71.3819 131.528L70.7842 129.325Z" fill="white"/>
<path d="M332.633 134.218C333.947 136.128 333.464 138.742 331.555 140.057C330.042 141.098 328.088 141.01 326.688 139.98C326.635 139.941 326.557 139.994 326.574 140.058C327.037 141.734 326.421 143.591 324.908 144.632C322.998 145.947 320.384 145.464 319.069 143.554C318.029 142.043 318.115 140.091 319.143 138.691C319.182 138.638 319.128 138.56 319.065 138.577C317.39 139.038 315.536 138.422 314.495 136.91C313.18 135 313.662 132.387 315.572 131.072C317.085 130.031 319.039 130.117 320.44 131.147C320.493 131.186 320.571 131.133 320.553 131.069C320.09 129.393 320.706 127.536 322.22 126.494C324.129 125.18 326.743 125.662 328.057 127.571C329.098 129.084 329.011 131.037 327.982 132.437C327.943 132.49 327.997 132.568 328.06 132.551C329.736 132.089 331.592 132.706 332.633 134.218Z" fill="#FFC0C1"/>
<circle cx="323.553" cy="135.647" r="1.74459" transform="rotate(55.4603 323.553 135.647)" fill="#C88989"/>
<path d="M351.089 123L351.207 124.418C351.468 127.55 349.14 130.3 346.008 130.561L344.59 130.679L344.472 129.261C344.211 126.129 346.539 123.379 349.671 123.118L351.089 123Z" fill="#93CA45"/>
<path d="M255.529 32.6377C256.923 34.6894 256.789 37.3274 255.386 39.2106C255.333 39.2818 255.405 39.3876 255.491 39.3645C257.758 38.7545 260.26 39.6027 261.653 41.654C263.413 44.2441 262.74 47.7705 260.15 49.5303C258.099 50.9241 255.461 50.7904 253.578 49.3881C253.507 49.335 253.401 49.4069 253.424 49.4926C254.034 51.7597 253.187 54.2608 251.135 55.6546C248.545 57.4146 245.019 56.7416 243.259 54.1515C241.865 52.0999 241.998 49.4615 243.401 47.5783C243.454 47.5071 243.382 47.4013 243.296 47.4244C241.029 48.0341 238.528 47.1876 237.135 45.1366C235.375 42.5466 236.048 39.0202 238.638 37.2602C240.689 35.8662 243.328 35.9994 245.211 37.4019C245.282 37.455 245.388 37.3831 245.365 37.2973C244.755 35.0301 245.602 32.5285 247.653 31.1346C250.243 29.3749 253.769 30.0479 255.529 32.6377Z" fill="#FFC0C1"/>
<circle cx="249.378" cy="43.4977" r="2.35634" transform="rotate(55.8046 249.378 43.4977)" fill="#C88989"/>
</g>
<defs>
<clipPath id="clip0_2758_1729">
<rect width="390" height="162" fill="white"/>
</clipPath>
<clipPath id="clip1_2758_1729">
<rect width="86.9894" height="98.588" fill="white" transform="translate(87.3242 85.4131) rotate(-1.28217)"/>
</clipPath>
<clipPath id="clip2_2758_1729">
<rect width="79.7522" height="93.2375" fill="white" transform="translate(151.185 56.9834) rotate(-8.1631)"/>
</clipPath>
<clipPath id="clip3_2758_1729">
<rect width="86.2413" height="120.632" fill="white" transform="translate(221.353 63.9834) rotate(20.262)"/>
</clipPath>
</defs>
</svg>
