<svg width="117" height="140" viewBox="0 0 117 140" fill="none" xmlns="http://www.w3.org/2000/svg">
<g clip-path="url(#clip0_1641_1134)">
<ellipse cx="16.5535" cy="17.8385" rx="16.5535" ry="17.8385" transform="matrix(-0.877234 -0.480064 -0.480064 0.877234 116.031 19.7832)" fill="#49B236"/>
<ellipse cx="21.0302" cy="27.026" rx="16.5535" ry="17.8385" transform="rotate(-28.6896 21.0302 27.026)" fill="#49B236"/>
<path d="M9.80221 97.2294C19.7958 101.062 35.4381 92.4719 42.01 87.698C42.3241 86.8351 42.7456 84.6434 41.9198 82.7795C40.8876 80.4496 15.2907 79.1957 9.36792 79.9716C3.44514 80.7476 -2.68976 92.4391 9.80221 97.2294Z" fill="#35923E"/>
<path d="M34.2117 144.012C31.2415 142.798 28.3494 126.616 28.9357 118.561L57.4652 123.114C58.0514 129.652 58.0905 142.985 56.6835 144.012C54.9249 145.297 37.9244 145.53 34.2117 144.012Z" fill="#35923E"/>
<path d="M31.9819 126.086C23.1026 120.182 35.1055 83.3488 43.7783 78.7095C52.451 74.0703 66.557 74.7731 72.7519 78.7095C78.9468 82.6459 94.2554 120.041 85.3761 126.086C76.4969 132.131 40.8611 131.991 31.9819 126.086Z" fill="#49B236"/>
<path d="M82.7298 144.012C85.6999 142.798 88.592 126.616 88.0058 118.561L59.4763 123.114C58.89 129.652 58.8509 142.985 60.2579 144.012C62.0165 145.297 79.017 145.53 82.7298 144.012Z" fill="#49B236"/>
<path d="M100.502 108.292C100.686 97.59 87.2645 85.8283 80.5309 81.2852C79.6127 81.2852 77.4089 81.6385 75.9398 83.0519C74.1034 84.8187 81.6786 109.301 84.4333 114.601C87.1879 119.902 100.272 121.669 100.502 108.292Z" fill="#49B236"/>
<path d="M35.9033 111.686C35.9033 124.24 45.3593 127.255 57.0239 127.255C68.6885 127.255 78.1445 124.24 78.1445 111.686C78.1445 95.1831 68.6885 85.8418 57.0239 85.8418C45.3593 85.8418 35.9033 95.1831 35.9033 111.686Z" fill="#9CD43D"/>
<path d="M56.3294 109.587C56.2443 109.587 56.1599 109.572 56.0811 109.543C56.0022 109.514 55.9306 109.472 55.8701 109.417L52.9915 106.79C52.8855 106.678 52.8301 106.534 52.8364 106.388C52.8427 106.241 52.9102 106.101 53.0254 105.997C53.1406 105.893 53.2951 105.832 53.4579 105.827C53.6207 105.821 53.7798 105.871 53.9036 105.967L56.7887 108.565C56.8493 108.619 56.8974 108.684 56.9303 108.755C56.9631 108.826 56.98 108.902 56.98 108.979C56.98 109.057 56.9631 109.133 56.9303 109.204C56.8974 109.275 56.8493 109.34 56.7887 109.394C56.7304 109.452 56.6597 109.5 56.5808 109.533C56.5019 109.566 56.4164 109.584 56.3294 109.587Z" fill="#49B236"/>
<path d="M53.4815 109.587C53.397 109.587 53.3133 109.572 53.2351 109.543C53.1569 109.514 53.0858 109.472 53.0258 109.418C52.9656 109.364 52.9179 109.299 52.8853 109.228C52.8527 109.157 52.8359 109.081 52.8359 109.004C52.8359 108.927 52.8527 108.851 52.8853 108.78C52.9179 108.709 52.9656 108.645 53.0258 108.591L55.882 105.998C55.9416 105.944 56.0126 105.901 56.0908 105.871C56.1691 105.841 56.253 105.826 56.3377 105.826C56.4224 105.826 56.5063 105.841 56.5845 105.871C56.6627 105.901 56.7337 105.944 56.7934 105.998C56.9129 106.108 56.98 106.255 56.98 106.409C56.98 106.563 56.9129 106.711 56.7934 106.82L53.9308 109.418C53.8112 109.525 53.6499 109.586 53.4815 109.587Z" fill="#49B236"/>
<path d="M3.38879 56.1354C3.38879 77.9779 27.4631 85.2211 56.723 85.2211C85.9829 85.2211 110.234 77.9779 110.234 56.1354C110.234 24.7581 85.9829 11.2988 56.723 11.2988C27.4631 11.2988 3.38879 22.2733 3.38879 56.1354Z" fill="#49B236"/>
<path d="M89.9414 27.4492V34.0753" stroke="black" stroke-width="6.21195" stroke-linecap="round"/>
<path d="M19.5391 27.0352V33.6612" stroke="black" stroke-width="6.21195" stroke-linecap="round"/>
<path d="M99.0547 48.5703H92.0145" stroke="#9CD43D" stroke-width="8.2826" stroke-linecap="round"/>
<path d="M22.4414 48.5703H15.4012" stroke="#9CD43D" stroke-width="8.2826" stroke-linecap="round"/>
<path d="M46.8759 41.968C46.8759 36.9922 46.8759 34.4906 56.1938 34.4906C65.5117 34.4906 65.5117 36.5477 65.5117 41.968C65.5117 50.8488 61.3399 56.0254 56.1938 56.0254C51.0476 56.0254 46.8759 50.2276 46.8759 41.968Z" fill="#FFD2D2"/>
<path fill-rule="evenodd" clip-rule="evenodd" d="M65.5005 42.8844C65.2226 51.2027 61.1639 56.0234 56.1977 56.0234C52.5922 56.0234 49.4649 53.1773 47.9156 48.6325C49.7179 46.5272 52.3845 44.7016 55.6044 43.5727C59.1176 42.3411 62.6343 42.1686 65.5005 42.8844Z" fill="#FF2D2D"/>
</g>
<defs>
<clipPath id="clip0_1641_1134">
<rect width="116.449" height="138.765" fill="white" transform="matrix(-1 0 0 1 116.656 0.53125)"/>
</clipPath>
</defs>
</svg>
