<svg width="654" height="461" viewBox="0 0 654 461" fill="none" xmlns="http://www.w3.org/2000/svg">
<rect x="30.2812" y="237.73" width="163.61" height="73.6696" rx="22.598" fill="#123041"/>
<rect x="343.039" y="237.73" width="163.61" height="73.6696" rx="22.598" fill="#123041"/>
<path d="M239.862 247.19C223.859 260.915 189.155 255.334 173.803 250.828C172.649 249.435 170.416 245.648 170.715 241.643C171.087 236.638 217.743 217.368 229.244 214.887C240.746 212.406 259.866 230.035 239.862 247.19Z" fill="#EFEFEF"/>
<path d="M254.512 171.289C256.233 167.274 260.883 165.414 264.898 167.135C268.913 168.856 270.772 173.506 269.051 177.521L245.903 231.524C244.182 235.539 239.532 237.398 235.518 235.677C231.503 233.956 229.643 229.306 231.364 225.291L254.512 171.289Z" fill="#D4FFFE"/>
<circle cx="268.078" cy="160.134" r="45.1961" transform="rotate(23.2023 268.078 160.134)" fill="#D4FFFE"/>
<path d="M186.859 357.654C192.709 355.262 198.405 323.389 197.251 307.521L141.056 316.49C139.902 329.368 139.825 355.63 142.596 357.654C146.06 360.183 179.546 360.643 186.859 357.654Z" fill="#EFEFEF"/>
<path d="M191.251 322.352C208.74 310.722 185.098 238.172 168.015 229.034C150.933 219.896 123.148 221.281 110.946 229.034C98.744 236.788 68.5907 310.445 86.0801 322.352C103.57 334.259 173.761 333.982 191.251 322.352Z" fill="white"/>
<path d="M91.2968 357.654C85.4464 355.262 79.7499 323.389 80.9046 307.521L137.099 316.49C138.254 329.368 138.331 355.63 135.559 357.654C132.095 360.183 98.6097 360.643 91.2968 357.654Z" fill="white"/>
<path d="M56.2869 287.304C55.9252 266.225 82.3609 243.058 95.6239 234.109C97.4326 234.109 101.773 234.805 104.667 237.589C108.284 241.069 93.3633 289.292 87.9375 299.732C82.5117 310.172 56.739 313.652 56.2869 287.304Z" fill="white"/>
<path d="M183.534 297.668C183.534 319.427 164.908 324.654 141.933 324.654C118.957 324.654 100.332 319.427 100.332 297.668C100.332 269.063 118.957 252.871 141.933 252.871C164.908 252.871 183.534 269.063 183.534 297.668Z" fill="#F4F4F4"/>
<path d="M143.213 311.6C143.381 311.601 143.547 311.569 143.702 311.506C143.857 311.443 143.998 311.351 144.117 311.233L149.784 305.534C149.992 305.291 150.101 304.98 150.089 304.661C150.077 304.342 149.944 304.04 149.717 303.814C149.49 303.589 149.186 303.457 148.866 303.444C148.545 303.432 148.232 303.54 147.988 303.748L142.309 309.384C142.19 309.502 142.095 309.642 142.031 309.796C141.966 309.95 141.933 310.116 141.933 310.283C141.933 310.45 141.966 310.616 142.031 310.77C142.095 310.925 142.19 311.065 142.309 311.182C142.424 311.309 142.563 311.411 142.719 311.483C142.874 311.555 143.042 311.595 143.213 311.6Z" fill="#FFD2D2"/>
<path d="M148.819 311.6C148.985 311.601 149.15 311.57 149.304 311.507C149.458 311.444 149.598 311.351 149.716 311.234C149.835 311.117 149.929 310.977 149.993 310.823C150.057 310.669 150.09 310.504 150.09 310.337C150.09 310.17 150.057 310.005 149.993 309.851C149.929 309.697 149.835 309.557 149.716 309.44L144.094 303.817C143.977 303.699 143.837 303.605 143.683 303.541C143.529 303.476 143.364 303.443 143.197 303.443C143.03 303.443 142.865 303.476 142.711 303.541C142.557 303.605 142.418 303.699 142.3 303.817C142.065 304.054 141.933 304.374 141.933 304.708C141.933 305.042 142.065 305.362 142.3 305.599L147.935 311.234C148.17 311.467 148.488 311.599 148.819 311.6Z" fill="#FFD2D2"/>
<path d="M67.2164 66.0407C73.742 87.1933 101.684 128.607 107.594 145.924H163.47C169.38 128.607 195.168 87.1933 203.44 66.0407C213.699 39.8065 203.029 5.70893 174.212 5.70898C150.419 5.70903 139.273 44.9991 136.144 66.0407C133.015 44.9991 121.053 5.70898 98.0758 5.70898C69.2587 5.70898 58.9124 39.1236 67.2164 66.0407Z" fill="white"/>
<path d="M236.556 186.391C236.556 228.964 189.872 243.081 133.132 243.081C76.3926 243.081 29.3652 228.964 29.3652 186.391C29.3652 113.8 76.3926 88.9121 133.132 88.9121C189.872 88.9121 236.556 110.344 236.556 186.391Z" fill="white"/>
<path d="M70.1509 196.604H82.3865" stroke="#FFD2D2" stroke-width="16.3142" stroke-linecap="round"/>
<path d="M205.559 196.604H217.795" stroke="#FFD2D2" stroke-width="16.3142" stroke-linecap="round"/>
<path d="M157.433 197.844C157.433 190.494 156.83 185.305 143.949 187.338C131.069 185.305 130.514 190.498 130.514 197.844C130.514 205.191 136.54 215.586 143.973 215.586C151.407 215.586 157.433 205.195 157.433 197.844Z" fill="#FFD2D2"/>
<path fill-rule="evenodd" clip-rule="evenodd" d="M157.349 194.656C153.604 195.612 149.356 196.151 144.853 196.151C139.636 196.151 134.76 195.427 130.613 194.17C131.035 188.517 133.199 185.641 143.949 187.338C154.87 185.614 156.965 189.081 157.349 194.656Z" fill="#EFEFEF"/>
<path d="M140.637 175.377C142.238 175.377 142.972 176.044 143.973 176.712C144.973 176.044 145.707 175.377 147.308 175.377C149.31 175.377 150.472 177.475 149.977 178.714C149.31 180.382 146.864 182.051 143.973 182.718C141.082 182.051 138.636 180.382 137.969 178.714C137.473 177.475 138.636 175.377 140.637 175.377Z" fill="#FFD2D2"/>
<path d="M103.047 181.688C103.047 181.688 100.683 178.976 95.3635 178.976C90.0443 178.976 87.6802 181.688 87.6802 181.688" stroke="black" stroke-width="9.63754" stroke-linecap="round"/>
<path d="M201.123 181.688C201.123 181.688 198.758 178.976 193.439 178.976C188.12 178.976 185.756 181.688 185.756 181.688" stroke="black" stroke-width="9.63754" stroke-linecap="round"/>
<circle cx="202.026" cy="281.12" r="16.2706" fill="#E25047"/>
<path d="M185.756 280.668H218.297" stroke="black" stroke-width="4.51961" stroke-linecap="round"/>
<rect x="272.235" y="134.623" width="9" height="30" rx="4.5" transform="rotate(19.8118 272.235 134.623)" fill="#E25047"/>
<circle cx="261.833" cy="175.317" r="5" transform="rotate(15 261.833 175.317)" fill="#E25047"/>
<path d="M550.796 250.869C534.737 264.528 500.055 258.803 484.722 254.234C483.574 252.836 481.357 249.04 481.672 245.037C482.065 240.033 528.8 220.956 540.311 218.523C551.822 216.089 570.87 233.796 550.796 250.869Z" fill="#EFD565"/>
<path d="M565.448 174.453C567.169 170.438 571.819 168.578 575.834 170.299C579.849 172.02 581.708 176.67 579.987 180.685L556.839 234.688C555.118 238.703 550.468 240.562 546.454 238.841C542.439 237.12 540.579 232.47 542.3 228.456L565.448 174.453Z" fill="#D4FFFE"/>
<circle cx="579.014" cy="163.298" r="45.1961" transform="rotate(23.2023 579.014 163.298)" fill="#D4FFFE"/>
<path d="M499.321 357.81C505.171 355.418 510.868 323.545 509.713 307.678L453.519 316.646C452.364 329.524 452.287 355.786 455.058 357.81C458.522 360.34 492.008 360.799 499.321 357.81Z" fill="#EFD565"/>
<path d="M503.713 322.506C521.202 310.876 497.56 238.327 480.478 229.189C463.395 220.051 435.611 221.435 423.408 229.189C411.206 236.942 381.053 310.599 398.543 322.506C416.032 334.413 486.223 334.137 503.713 322.506Z" fill="#FFE36C"/>
<path d="M403.759 357.81C397.909 355.418 392.212 323.545 393.367 307.678L449.561 316.646C450.716 329.524 450.793 355.786 448.022 357.81C444.558 360.34 411.072 360.799 403.759 357.81Z" fill="#FFE36C"/>
<path d="M368.749 287.458C368.388 266.379 394.823 243.212 408.086 234.264C409.895 234.264 414.236 234.96 417.129 237.744C420.747 241.224 405.826 289.447 400.4 299.887C394.974 310.327 369.201 313.807 368.749 287.458Z" fill="#FFE36C"/>
<path d="M455.676 311.757C455.843 311.758 456.01 311.726 456.165 311.663C456.32 311.6 456.461 311.507 456.58 311.389L462.246 305.69C462.455 305.448 462.564 305.136 462.551 304.817C462.539 304.499 462.406 304.196 462.179 303.971C461.953 303.745 461.649 303.613 461.328 303.601C461.008 303.588 460.694 303.697 460.451 303.904L454.772 309.54C454.652 309.658 454.558 309.798 454.493 309.952C454.428 310.107 454.395 310.272 454.395 310.439C454.395 310.607 454.428 310.772 454.493 310.927C454.558 311.081 454.652 311.221 454.772 311.339C454.886 311.465 455.026 311.568 455.181 311.639C455.336 311.711 455.505 311.751 455.676 311.757Z" fill="#FFBB4D"/>
<path d="M461.282 311.757C461.448 311.758 461.613 311.726 461.767 311.663C461.92 311.6 462.06 311.507 462.179 311.39C462.297 311.273 462.391 311.133 462.455 310.979C462.519 310.825 462.552 310.66 462.552 310.493C462.552 310.326 462.519 310.161 462.455 310.007C462.391 309.853 462.297 309.713 462.179 309.596L456.557 303.973C456.439 303.855 456.299 303.761 456.145 303.697C455.991 303.633 455.826 303.6 455.66 303.6C455.493 303.6 455.328 303.633 455.174 303.697C455.02 303.761 454.88 303.855 454.763 303.973C454.527 304.21 454.395 304.53 454.395 304.864C454.395 305.198 454.527 305.518 454.763 305.755L460.397 311.39C460.632 311.624 460.95 311.755 461.282 311.757Z" fill="#FFBB4D"/>
<path d="M549.833 185.731C549.833 228.304 503.15 242.421 446.41 242.421C389.67 242.421 342.643 228.304 342.643 185.731C342.643 113.14 389.67 88.252 446.41 88.252C503.15 88.252 549.833 109.684 549.833 185.731Z" fill="#FFE36C"/>
<path d="M379.351 196.15H391.586" stroke="#FFA052" stroke-width="16.3142" stroke-linecap="round"/>
<path d="M514.759 196.15H526.994" stroke="#FFA052" stroke-width="16.3142" stroke-linecap="round"/>
<path d="M473.972 195.926C473.972 203.359 464.66 206.53 453.172 206.53C441.684 206.53 432.371 203.359 432.371 195.926C432.371 188.492 441.684 179.611 453.172 179.611C464.66 179.611 473.972 188.492 473.972 195.926Z" fill="#FFBB4D"/>
<path d="M430.95 59.882C443.324 70.855 450.433 83.1614 452.536 94.3619L430.76 92.0399C421.793 91.0837 413.204 80.5143 413.6 67.6854C413.997 54.8564 424.658 54.3019 430.95 59.882Z" fill="#FFE36C"/>
<path d="M453.675 77.2155C449.822 80.9774 448.849 89.1755 448.843 92.8043C456.307 92.1144 468.83 89.82 471.076 85.0408C473.321 80.2615 471.921 74.3197 469.186 72.9034C466.452 71.4871 458.491 72.5132 453.675 77.2155Z" fill="#FFE36C"/>
<path d="M411.738 182.141C411.738 182.141 409.374 179.429 404.055 179.429C398.736 179.429 396.372 182.141 396.372 182.141" stroke="black" stroke-width="9.63754" stroke-linecap="round"/>
<path d="M509.813 182.141C509.813 182.141 507.449 179.429 502.13 179.429C496.811 179.429 494.447 182.141 494.447 182.141" stroke="black" stroke-width="9.63754" stroke-linecap="round"/>
<circle cx="510.718" cy="281.12" r="16.2706" fill="#E25047"/>
<path d="M494.447 280.668H526.988" stroke="black" stroke-width="4.51961" stroke-linecap="round"/>
<rect x="583.237" y="139.623" width="9" height="30" rx="4.5" transform="rotate(19.8118 583.237 139.623)" fill="#E25047"/>
<circle cx="572.835" cy="180.317" r="5" transform="rotate(15 572.835 180.317)" fill="#E25047"/>
<mask id="path-47-inside-1_3001_264" fill="white">
<path d="M10 316C10 309.373 15.3726 304 22 304H631.197C637.825 304 643.197 309.373 643.197 316V460.83H10V316Z"/>
</mask>
<path d="M10 316C10 309.373 15.3726 304 22 304H631.197C637.825 304 643.197 309.373 643.197 316V460.83H10V316Z" fill="#173A52"/>
<path d="M5.48039 316C5.48039 306.876 12.8765 299.48 22 299.48H631.197C640.321 299.48 647.717 306.876 647.717 316H638.677C638.677 311.869 635.328 308.52 631.197 308.52H22C17.8687 308.52 14.5196 311.869 14.5196 316H5.48039ZM643.197 460.83H10H643.197ZM5.48039 460.83V316C5.48039 306.876 12.8765 299.48 22 299.48V308.52C17.8687 308.52 14.5196 311.869 14.5196 316V460.83H5.48039ZM631.197 299.48C640.321 299.48 647.717 306.876 647.717 316V460.83H638.677V316C638.677 311.869 635.328 308.52 631.197 308.52V299.48Z" fill="url(#paint0_linear_3001_264)" mask="url(#path-47-inside-1_3001_264)"/>
<rect y="281.119" width="653.083" height="23.05" rx="9.03922" fill="#123041"/>
<defs>
<linearGradient id="paint0_linear_3001_264" x1="520.94" y1="504.194" x2="250.273" y2="223.863" gradientUnits="userSpaceOnUse">
<stop stop-color="#D5FCD1"/>
<stop offset="0.494792" stop-color="#B2E7DD"/>
<stop offset="0.989583" stop-color="#76D6E6"/>
</linearGradient>
</defs>
</svg>
